%TF.GenerationSoftware,KiCad,Pcbnew,10.0.3*%
%TF.CreationDate,2026-09-03T05:27:36+09:00*%
%TF.ProjectId,kc2_switch_coupon,6b63325f-7377-4697-9463-685f636f7570,coupon-2-es1b*%
%TF.SameCoordinates,Original*%
%TF.FileFunction,Legend,Top*%
%TF.FilePolarity,Positive*%
%FSLAX46Y46*%
G04 Gerber Fmt 4.6, Leading zero omitted, Abs format (unit mm)*
G04 Created by KiCad (PCBNEW 10.0.3) date 2026-09-03 05:27:36*
%MOMM*%
%LPD*%
G01*
G04 APERTURE LIST*
%ADD10C,0.120000*%
%ADD11C,0.150000*%
%ADD12C,3.000000*%
%ADD13C,1.700000*%
%ADD14C,5.000000*%
%ADD15C,1.650000*%
%ADD16C,2.500000*%
G04 APERTURE END LIST*
D10*
X25609524Y-17363855D02*
X25228572Y-17363855D01*
X25228572Y-17363855D02*
X25228572Y-16563855D01*
X25876191Y-17059093D02*
X26485715Y-17059093D01*
X26828571Y-17135283D02*
X27209524Y-17135283D01*
X26752381Y-17363855D02*
X27019048Y-16563855D01*
X27019048Y-16563855D02*
X27285714Y-17363855D01*
X26609524Y-63363855D02*
X26228572Y-63363855D01*
X26228572Y-63363855D02*
X26228572Y-62563855D01*
X26876191Y-63059093D02*
X27485715Y-63059093D01*
X28323810Y-63287664D02*
X28285714Y-63325760D01*
X28285714Y-63325760D02*
X28171429Y-63363855D01*
X28171429Y-63363855D02*
X28095238Y-63363855D01*
X28095238Y-63363855D02*
X27980952Y-63325760D01*
X27980952Y-63325760D02*
X27904762Y-63249569D01*
X27904762Y-63249569D02*
X27866667Y-63173379D01*
X27866667Y-63173379D02*
X27828571Y-63020998D01*
X27828571Y-63020998D02*
X27828571Y-62906712D01*
X27828571Y-62906712D02*
X27866667Y-62754331D01*
X27866667Y-62754331D02*
X27904762Y-62678140D01*
X27904762Y-62678140D02*
X27980952Y-62601950D01*
X27980952Y-62601950D02*
X28095238Y-62563855D01*
X28095238Y-62563855D02*
X28171429Y-62563855D01*
X28171429Y-62563855D02*
X28285714Y-62601950D01*
X28285714Y-62601950D02*
X28323810Y-62640045D01*
X28819048Y-62563855D02*
X28971429Y-62563855D01*
X28971429Y-62563855D02*
X29047619Y-62601950D01*
X29047619Y-62601950D02*
X29123810Y-62678140D01*
X29123810Y-62678140D02*
X29161905Y-62830521D01*
X29161905Y-62830521D02*
X29161905Y-63097188D01*
X29161905Y-63097188D02*
X29123810Y-63249569D01*
X29123810Y-63249569D02*
X29047619Y-63325760D01*
X29047619Y-63325760D02*
X28971429Y-63363855D01*
X28971429Y-63363855D02*
X28819048Y-63363855D01*
X28819048Y-63363855D02*
X28742857Y-63325760D01*
X28742857Y-63325760D02*
X28666667Y-63249569D01*
X28666667Y-63249569D02*
X28628571Y-63097188D01*
X28628571Y-63097188D02*
X28628571Y-62830521D01*
X28628571Y-62830521D02*
X28666667Y-62678140D01*
X28666667Y-62678140D02*
X28742857Y-62601950D01*
X28742857Y-62601950D02*
X28819048Y-62563855D01*
X29885714Y-63363855D02*
X29504762Y-63363855D01*
X29504762Y-63363855D02*
X29504762Y-62563855D01*
X29152381Y-17363855D02*
X28771429Y-17363855D01*
X28771429Y-17363855D02*
X28771429Y-16563855D01*
X29419048Y-17059093D02*
X30028572Y-17059093D01*
X30409524Y-17363855D02*
X30409524Y-16563855D01*
X30866667Y-17363855D02*
X30523809Y-16906712D01*
X30866667Y-16563855D02*
X30409524Y-17020998D01*
X43764286Y-17363855D02*
X43764286Y-16563855D01*
X43764286Y-16563855D02*
X44030952Y-17135283D01*
X44030952Y-17135283D02*
X44297619Y-16563855D01*
X44297619Y-16563855D02*
X44297619Y-17363855D01*
X44602381Y-16563855D02*
X45135715Y-17363855D01*
X45135715Y-16563855D02*
X44602381Y-17363855D01*
X45440477Y-17059093D02*
X46050001Y-17059093D01*
X46392857Y-17135283D02*
X46773810Y-17135283D01*
X46316667Y-17363855D02*
X46583334Y-16563855D01*
X46583334Y-16563855D02*
X46850000Y-17363855D01*
X44764286Y-63363855D02*
X44764286Y-62563855D01*
X44764286Y-62563855D02*
X45030952Y-63135283D01*
X45030952Y-63135283D02*
X45297619Y-62563855D01*
X45297619Y-62563855D02*
X45297619Y-63363855D01*
X45602381Y-62563855D02*
X46135715Y-63363855D01*
X46135715Y-62563855D02*
X45602381Y-63363855D01*
X46440477Y-63059093D02*
X47050001Y-63059093D01*
X47888096Y-63287664D02*
X47850000Y-63325760D01*
X47850000Y-63325760D02*
X47735715Y-63363855D01*
X47735715Y-63363855D02*
X47659524Y-63363855D01*
X47659524Y-63363855D02*
X47545238Y-63325760D01*
X47545238Y-63325760D02*
X47469048Y-63249569D01*
X47469048Y-63249569D02*
X47430953Y-63173379D01*
X47430953Y-63173379D02*
X47392857Y-63020998D01*
X47392857Y-63020998D02*
X47392857Y-62906712D01*
X47392857Y-62906712D02*
X47430953Y-62754331D01*
X47430953Y-62754331D02*
X47469048Y-62678140D01*
X47469048Y-62678140D02*
X47545238Y-62601950D01*
X47545238Y-62601950D02*
X47659524Y-62563855D01*
X47659524Y-62563855D02*
X47735715Y-62563855D01*
X47735715Y-62563855D02*
X47850000Y-62601950D01*
X47850000Y-62601950D02*
X47888096Y-62640045D01*
X48383334Y-62563855D02*
X48535715Y-62563855D01*
X48535715Y-62563855D02*
X48611905Y-62601950D01*
X48611905Y-62601950D02*
X48688096Y-62678140D01*
X48688096Y-62678140D02*
X48726191Y-62830521D01*
X48726191Y-62830521D02*
X48726191Y-63097188D01*
X48726191Y-63097188D02*
X48688096Y-63249569D01*
X48688096Y-63249569D02*
X48611905Y-63325760D01*
X48611905Y-63325760D02*
X48535715Y-63363855D01*
X48535715Y-63363855D02*
X48383334Y-63363855D01*
X48383334Y-63363855D02*
X48307143Y-63325760D01*
X48307143Y-63325760D02*
X48230953Y-63249569D01*
X48230953Y-63249569D02*
X48192857Y-63097188D01*
X48192857Y-63097188D02*
X48192857Y-62830521D01*
X48192857Y-62830521D02*
X48230953Y-62678140D01*
X48230953Y-62678140D02*
X48307143Y-62601950D01*
X48307143Y-62601950D02*
X48383334Y-62563855D01*
X49450000Y-63363855D02*
X49069048Y-63363855D01*
X49069048Y-63363855D02*
X49069048Y-62563855D01*
X47307143Y-17363855D02*
X47307143Y-16563855D01*
X47307143Y-16563855D02*
X47573809Y-17135283D01*
X47573809Y-17135283D02*
X47840476Y-16563855D01*
X47840476Y-16563855D02*
X47840476Y-17363855D01*
X48145238Y-16563855D02*
X48678572Y-17363855D01*
X48678572Y-16563855D02*
X48145238Y-17363855D01*
X48983334Y-17059093D02*
X49592858Y-17059093D01*
X49973810Y-17363855D02*
X49973810Y-16563855D01*
X50430953Y-17363855D02*
X50088095Y-16906712D01*
X50430953Y-16563855D02*
X49973810Y-17020998D01*
X63652380Y-63363855D02*
X63385713Y-62982902D01*
X63195237Y-63363855D02*
X63195237Y-62563855D01*
X63195237Y-62563855D02*
X63499999Y-62563855D01*
X63499999Y-62563855D02*
X63576189Y-62601950D01*
X63576189Y-62601950D02*
X63614284Y-62640045D01*
X63614284Y-62640045D02*
X63652380Y-62716236D01*
X63652380Y-62716236D02*
X63652380Y-62830521D01*
X63652380Y-62830521D02*
X63614284Y-62906712D01*
X63614284Y-62906712D02*
X63576189Y-62944807D01*
X63576189Y-62944807D02*
X63499999Y-62982902D01*
X63499999Y-62982902D02*
X63195237Y-62982902D01*
X63995237Y-63059093D02*
X64604761Y-63059093D01*
X64985713Y-63363855D02*
X64985713Y-62563855D01*
X65442856Y-63363855D02*
X65099998Y-62906712D01*
X65442856Y-62563855D02*
X64985713Y-63020998D01*
X64709523Y-17363855D02*
X64442856Y-16982902D01*
X64252380Y-17363855D02*
X64252380Y-16563855D01*
X64252380Y-16563855D02*
X64557142Y-16563855D01*
X64557142Y-16563855D02*
X64633332Y-16601950D01*
X64633332Y-16601950D02*
X64671427Y-16640045D01*
X64671427Y-16640045D02*
X64709523Y-16716236D01*
X64709523Y-16716236D02*
X64709523Y-16830521D01*
X64709523Y-16830521D02*
X64671427Y-16906712D01*
X64671427Y-16906712D02*
X64633332Y-16944807D01*
X64633332Y-16944807D02*
X64557142Y-16982902D01*
X64557142Y-16982902D02*
X64252380Y-16982902D01*
X65052380Y-17059093D02*
X65661904Y-17059093D01*
X66499999Y-17287664D02*
X66461903Y-17325760D01*
X66461903Y-17325760D02*
X66347618Y-17363855D01*
X66347618Y-17363855D02*
X66271427Y-17363855D01*
X66271427Y-17363855D02*
X66157141Y-17325760D01*
X66157141Y-17325760D02*
X66080951Y-17249569D01*
X66080951Y-17249569D02*
X66042856Y-17173379D01*
X66042856Y-17173379D02*
X66004760Y-17020998D01*
X66004760Y-17020998D02*
X66004760Y-16906712D01*
X66004760Y-16906712D02*
X66042856Y-16754331D01*
X66042856Y-16754331D02*
X66080951Y-16678140D01*
X66080951Y-16678140D02*
X66157141Y-16601950D01*
X66157141Y-16601950D02*
X66271427Y-16563855D01*
X66271427Y-16563855D02*
X66347618Y-16563855D01*
X66347618Y-16563855D02*
X66461903Y-16601950D01*
X66461903Y-16601950D02*
X66499999Y-16640045D01*
X66995237Y-16563855D02*
X67147618Y-16563855D01*
X67147618Y-16563855D02*
X67223808Y-16601950D01*
X67223808Y-16601950D02*
X67299999Y-16678140D01*
X67299999Y-16678140D02*
X67338094Y-16830521D01*
X67338094Y-16830521D02*
X67338094Y-17097188D01*
X67338094Y-17097188D02*
X67299999Y-17249569D01*
X67299999Y-17249569D02*
X67223808Y-17325760D01*
X67223808Y-17325760D02*
X67147618Y-17363855D01*
X67147618Y-17363855D02*
X66995237Y-17363855D01*
X66995237Y-17363855D02*
X66919046Y-17325760D01*
X66919046Y-17325760D02*
X66842856Y-17249569D01*
X66842856Y-17249569D02*
X66804760Y-17097188D01*
X66804760Y-17097188D02*
X66804760Y-16830521D01*
X66804760Y-16830521D02*
X66842856Y-16678140D01*
X66842856Y-16678140D02*
X66919046Y-16601950D01*
X66919046Y-16601950D02*
X66995237Y-16563855D01*
X68061903Y-17363855D02*
X67680951Y-17363855D01*
X67680951Y-17363855D02*
X67680951Y-16563855D01*
X67309523Y-63363855D02*
X67042856Y-62982902D01*
X66852380Y-63363855D02*
X66852380Y-62563855D01*
X66852380Y-62563855D02*
X67157142Y-62563855D01*
X67157142Y-62563855D02*
X67233332Y-62601950D01*
X67233332Y-62601950D02*
X67271427Y-62640045D01*
X67271427Y-62640045D02*
X67309523Y-62716236D01*
X67309523Y-62716236D02*
X67309523Y-62830521D01*
X67309523Y-62830521D02*
X67271427Y-62906712D01*
X67271427Y-62906712D02*
X67233332Y-62944807D01*
X67233332Y-62944807D02*
X67157142Y-62982902D01*
X67157142Y-62982902D02*
X66852380Y-62982902D01*
X67652380Y-63059093D02*
X68261904Y-63059093D01*
X68604760Y-63135283D02*
X68985713Y-63135283D01*
X68528570Y-63363855D02*
X68795237Y-62563855D01*
X68795237Y-62563855D02*
X69061903Y-63363855D01*
D11*
X20371429Y-57286104D02*
X20333333Y-57324200D01*
X20333333Y-57324200D02*
X20219048Y-57362295D01*
X20219048Y-57362295D02*
X20142857Y-57362295D01*
X20142857Y-57362295D02*
X20028571Y-57324200D01*
X20028571Y-57324200D02*
X19952381Y-57248009D01*
X19952381Y-57248009D02*
X19914286Y-57171819D01*
X19914286Y-57171819D02*
X19876190Y-57019438D01*
X19876190Y-57019438D02*
X19876190Y-56905152D01*
X19876190Y-56905152D02*
X19914286Y-56752771D01*
X19914286Y-56752771D02*
X19952381Y-56676580D01*
X19952381Y-56676580D02*
X20028571Y-56600390D01*
X20028571Y-56600390D02*
X20142857Y-56562295D01*
X20142857Y-56562295D02*
X20219048Y-56562295D01*
X20219048Y-56562295D02*
X20333333Y-56600390D01*
X20333333Y-56600390D02*
X20371429Y-56638485D01*
X20714286Y-57362295D02*
X20714286Y-56562295D01*
X20714286Y-56943247D02*
X21171429Y-56943247D01*
X21171429Y-57362295D02*
X21171429Y-56562295D01*
X21704762Y-56562295D02*
X21857143Y-56562295D01*
X21857143Y-56562295D02*
X21933333Y-56600390D01*
X21933333Y-56600390D02*
X22009524Y-56676580D01*
X22009524Y-56676580D02*
X22047619Y-56828961D01*
X22047619Y-56828961D02*
X22047619Y-57095628D01*
X22047619Y-57095628D02*
X22009524Y-57248009D01*
X22009524Y-57248009D02*
X21933333Y-57324200D01*
X21933333Y-57324200D02*
X21857143Y-57362295D01*
X21857143Y-57362295D02*
X21704762Y-57362295D01*
X21704762Y-57362295D02*
X21628571Y-57324200D01*
X21628571Y-57324200D02*
X21552381Y-57248009D01*
X21552381Y-57248009D02*
X21514285Y-57095628D01*
X21514285Y-57095628D02*
X21514285Y-56828961D01*
X21514285Y-56828961D02*
X21552381Y-56676580D01*
X21552381Y-56676580D02*
X21628571Y-56600390D01*
X21628571Y-56600390D02*
X21704762Y-56562295D01*
X22847619Y-57286104D02*
X22809523Y-57324200D01*
X22809523Y-57324200D02*
X22695238Y-57362295D01*
X22695238Y-57362295D02*
X22619047Y-57362295D01*
X22619047Y-57362295D02*
X22504761Y-57324200D01*
X22504761Y-57324200D02*
X22428571Y-57248009D01*
X22428571Y-57248009D02*
X22390476Y-57171819D01*
X22390476Y-57171819D02*
X22352380Y-57019438D01*
X22352380Y-57019438D02*
X22352380Y-56905152D01*
X22352380Y-56905152D02*
X22390476Y-56752771D01*
X22390476Y-56752771D02*
X22428571Y-56676580D01*
X22428571Y-56676580D02*
X22504761Y-56600390D01*
X22504761Y-56600390D02*
X22619047Y-56562295D01*
X22619047Y-56562295D02*
X22695238Y-56562295D01*
X22695238Y-56562295D02*
X22809523Y-56600390D01*
X22809523Y-56600390D02*
X22847619Y-56638485D01*
X24180952Y-57362295D02*
X23800000Y-57362295D01*
X23800000Y-57362295D02*
X23800000Y-56562295D01*
X24447619Y-56943247D02*
X24714285Y-56943247D01*
X24828571Y-57362295D02*
X24447619Y-57362295D01*
X24447619Y-57362295D02*
X24447619Y-56562295D01*
X24447619Y-56562295D02*
X24828571Y-56562295D01*
X25438095Y-56943247D02*
X25171429Y-56943247D01*
X25171429Y-57362295D02*
X25171429Y-56562295D01*
X25171429Y-56562295D02*
X25552381Y-56562295D01*
X25742857Y-56562295D02*
X26200000Y-56562295D01*
X25971428Y-57362295D02*
X25971428Y-56562295D01*
X40657143Y-57362295D02*
X40657143Y-56562295D01*
X40657143Y-56562295D02*
X40923809Y-57133723D01*
X40923809Y-57133723D02*
X41190476Y-56562295D01*
X41190476Y-56562295D02*
X41190476Y-57362295D01*
X41495238Y-56562295D02*
X42028572Y-57362295D01*
X42028572Y-56562295D02*
X41495238Y-57362295D01*
X43323810Y-56562295D02*
X42942858Y-56562295D01*
X42942858Y-56562295D02*
X42904762Y-56943247D01*
X42904762Y-56943247D02*
X42942858Y-56905152D01*
X42942858Y-56905152D02*
X43019048Y-56867057D01*
X43019048Y-56867057D02*
X43209524Y-56867057D01*
X43209524Y-56867057D02*
X43285715Y-56905152D01*
X43285715Y-56905152D02*
X43323810Y-56943247D01*
X43323810Y-56943247D02*
X43361905Y-57019438D01*
X43361905Y-57019438D02*
X43361905Y-57209914D01*
X43361905Y-57209914D02*
X43323810Y-57286104D01*
X43323810Y-57286104D02*
X43285715Y-57324200D01*
X43285715Y-57324200D02*
X43209524Y-57362295D01*
X43209524Y-57362295D02*
X43019048Y-57362295D01*
X43019048Y-57362295D02*
X42942858Y-57324200D01*
X42942858Y-57324200D02*
X42904762Y-57286104D01*
X43704763Y-57362295D02*
X43704763Y-56562295D01*
X43704763Y-56562295D02*
X44009525Y-56562295D01*
X44009525Y-56562295D02*
X44085715Y-56600390D01*
X44085715Y-56600390D02*
X44123810Y-56638485D01*
X44123810Y-56638485D02*
X44161906Y-56714676D01*
X44161906Y-56714676D02*
X44161906Y-56828961D01*
X44161906Y-56828961D02*
X44123810Y-56905152D01*
X44123810Y-56905152D02*
X44085715Y-56943247D01*
X44085715Y-56943247D02*
X44009525Y-56981342D01*
X44009525Y-56981342D02*
X43704763Y-56981342D01*
X44504763Y-57362295D02*
X44504763Y-56562295D01*
X44885715Y-57362295D02*
X44885715Y-56562295D01*
X44885715Y-56562295D02*
X45342858Y-57362295D01*
X45342858Y-57362295D02*
X45342858Y-56562295D01*
X54723810Y-57286104D02*
X54685714Y-57324200D01*
X54685714Y-57324200D02*
X54571429Y-57362295D01*
X54571429Y-57362295D02*
X54495238Y-57362295D01*
X54495238Y-57362295D02*
X54380952Y-57324200D01*
X54380952Y-57324200D02*
X54304762Y-57248009D01*
X54304762Y-57248009D02*
X54266667Y-57171819D01*
X54266667Y-57171819D02*
X54228571Y-57019438D01*
X54228571Y-57019438D02*
X54228571Y-56905152D01*
X54228571Y-56905152D02*
X54266667Y-56752771D01*
X54266667Y-56752771D02*
X54304762Y-56676580D01*
X54304762Y-56676580D02*
X54380952Y-56600390D01*
X54380952Y-56600390D02*
X54495238Y-56562295D01*
X54495238Y-56562295D02*
X54571429Y-56562295D01*
X54571429Y-56562295D02*
X54685714Y-56600390D01*
X54685714Y-56600390D02*
X54723810Y-56638485D01*
X55066667Y-57362295D02*
X55066667Y-56562295D01*
X55066667Y-56943247D02*
X55523810Y-56943247D01*
X55523810Y-57362295D02*
X55523810Y-56562295D01*
X56057143Y-56562295D02*
X56209524Y-56562295D01*
X56209524Y-56562295D02*
X56285714Y-56600390D01*
X56285714Y-56600390D02*
X56361905Y-56676580D01*
X56361905Y-56676580D02*
X56400000Y-56828961D01*
X56400000Y-56828961D02*
X56400000Y-57095628D01*
X56400000Y-57095628D02*
X56361905Y-57248009D01*
X56361905Y-57248009D02*
X56285714Y-57324200D01*
X56285714Y-57324200D02*
X56209524Y-57362295D01*
X56209524Y-57362295D02*
X56057143Y-57362295D01*
X56057143Y-57362295D02*
X55980952Y-57324200D01*
X55980952Y-57324200D02*
X55904762Y-57248009D01*
X55904762Y-57248009D02*
X55866666Y-57095628D01*
X55866666Y-57095628D02*
X55866666Y-56828961D01*
X55866666Y-56828961D02*
X55904762Y-56676580D01*
X55904762Y-56676580D02*
X55980952Y-56600390D01*
X55980952Y-56600390D02*
X56057143Y-56562295D01*
X57200000Y-57286104D02*
X57161904Y-57324200D01*
X57161904Y-57324200D02*
X57047619Y-57362295D01*
X57047619Y-57362295D02*
X56971428Y-57362295D01*
X56971428Y-57362295D02*
X56857142Y-57324200D01*
X56857142Y-57324200D02*
X56780952Y-57248009D01*
X56780952Y-57248009D02*
X56742857Y-57171819D01*
X56742857Y-57171819D02*
X56704761Y-57019438D01*
X56704761Y-57019438D02*
X56704761Y-56905152D01*
X56704761Y-56905152D02*
X56742857Y-56752771D01*
X56742857Y-56752771D02*
X56780952Y-56676580D01*
X56780952Y-56676580D02*
X56857142Y-56600390D01*
X56857142Y-56600390D02*
X56971428Y-56562295D01*
X56971428Y-56562295D02*
X57047619Y-56562295D01*
X57047619Y-56562295D02*
X57161904Y-56600390D01*
X57161904Y-56600390D02*
X57200000Y-56638485D01*
X58609524Y-57362295D02*
X58342857Y-56981342D01*
X58152381Y-57362295D02*
X58152381Y-56562295D01*
X58152381Y-56562295D02*
X58457143Y-56562295D01*
X58457143Y-56562295D02*
X58533333Y-56600390D01*
X58533333Y-56600390D02*
X58571428Y-56638485D01*
X58571428Y-56638485D02*
X58609524Y-56714676D01*
X58609524Y-56714676D02*
X58609524Y-56828961D01*
X58609524Y-56828961D02*
X58571428Y-56905152D01*
X58571428Y-56905152D02*
X58533333Y-56943247D01*
X58533333Y-56943247D02*
X58457143Y-56981342D01*
X58457143Y-56981342D02*
X58152381Y-56981342D01*
X58952381Y-57362295D02*
X58952381Y-56562295D01*
X59752380Y-56600390D02*
X59676190Y-56562295D01*
X59676190Y-56562295D02*
X59561904Y-56562295D01*
X59561904Y-56562295D02*
X59447618Y-56600390D01*
X59447618Y-56600390D02*
X59371428Y-56676580D01*
X59371428Y-56676580D02*
X59333333Y-56752771D01*
X59333333Y-56752771D02*
X59295237Y-56905152D01*
X59295237Y-56905152D02*
X59295237Y-57019438D01*
X59295237Y-57019438D02*
X59333333Y-57171819D01*
X59333333Y-57171819D02*
X59371428Y-57248009D01*
X59371428Y-57248009D02*
X59447618Y-57324200D01*
X59447618Y-57324200D02*
X59561904Y-57362295D01*
X59561904Y-57362295D02*
X59638095Y-57362295D01*
X59638095Y-57362295D02*
X59752380Y-57324200D01*
X59752380Y-57324200D02*
X59790476Y-57286104D01*
X59790476Y-57286104D02*
X59790476Y-57019438D01*
X59790476Y-57019438D02*
X59638095Y-57019438D01*
X60133333Y-57362295D02*
X60133333Y-56562295D01*
X60133333Y-56943247D02*
X60590476Y-56943247D01*
X60590476Y-57362295D02*
X60590476Y-56562295D01*
X60857142Y-56562295D02*
X61314285Y-56562295D01*
X61085713Y-57362295D02*
X61085713Y-56562295D01*
X62457142Y-56943247D02*
X62571428Y-56981342D01*
X62571428Y-56981342D02*
X62609523Y-57019438D01*
X62609523Y-57019438D02*
X62647619Y-57095628D01*
X62647619Y-57095628D02*
X62647619Y-57209914D01*
X62647619Y-57209914D02*
X62609523Y-57286104D01*
X62609523Y-57286104D02*
X62571428Y-57324200D01*
X62571428Y-57324200D02*
X62495238Y-57362295D01*
X62495238Y-57362295D02*
X62190476Y-57362295D01*
X62190476Y-57362295D02*
X62190476Y-56562295D01*
X62190476Y-56562295D02*
X62457142Y-56562295D01*
X62457142Y-56562295D02*
X62533333Y-56600390D01*
X62533333Y-56600390D02*
X62571428Y-56638485D01*
X62571428Y-56638485D02*
X62609523Y-56714676D01*
X62609523Y-56714676D02*
X62609523Y-56790866D01*
X62609523Y-56790866D02*
X62571428Y-56867057D01*
X62571428Y-56867057D02*
X62533333Y-56905152D01*
X62533333Y-56905152D02*
X62457142Y-56943247D01*
X62457142Y-56943247D02*
X62190476Y-56943247D01*
X63142857Y-56562295D02*
X63295238Y-56562295D01*
X63295238Y-56562295D02*
X63371428Y-56600390D01*
X63371428Y-56600390D02*
X63447619Y-56676580D01*
X63447619Y-56676580D02*
X63485714Y-56828961D01*
X63485714Y-56828961D02*
X63485714Y-57095628D01*
X63485714Y-57095628D02*
X63447619Y-57248009D01*
X63447619Y-57248009D02*
X63371428Y-57324200D01*
X63371428Y-57324200D02*
X63295238Y-57362295D01*
X63295238Y-57362295D02*
X63142857Y-57362295D01*
X63142857Y-57362295D02*
X63066666Y-57324200D01*
X63066666Y-57324200D02*
X62990476Y-57248009D01*
X62990476Y-57248009D02*
X62952380Y-57095628D01*
X62952380Y-57095628D02*
X62952380Y-56828961D01*
X62952380Y-56828961D02*
X62990476Y-56676580D01*
X62990476Y-56676580D02*
X63066666Y-56600390D01*
X63066666Y-56600390D02*
X63142857Y-56562295D01*
X63790475Y-57133723D02*
X64171428Y-57133723D01*
X63714285Y-57362295D02*
X63980952Y-56562295D01*
X63980952Y-56562295D02*
X64247618Y-57362295D01*
X64971428Y-57362295D02*
X64704761Y-56981342D01*
X64514285Y-57362295D02*
X64514285Y-56562295D01*
X64514285Y-56562295D02*
X64819047Y-56562295D01*
X64819047Y-56562295D02*
X64895237Y-56600390D01*
X64895237Y-56600390D02*
X64933332Y-56638485D01*
X64933332Y-56638485D02*
X64971428Y-56714676D01*
X64971428Y-56714676D02*
X64971428Y-56828961D01*
X64971428Y-56828961D02*
X64933332Y-56905152D01*
X64933332Y-56905152D02*
X64895237Y-56943247D01*
X64895237Y-56943247D02*
X64819047Y-56981342D01*
X64819047Y-56981342D02*
X64514285Y-56981342D01*
X65314285Y-57362295D02*
X65314285Y-56562295D01*
X65314285Y-56562295D02*
X65504761Y-56562295D01*
X65504761Y-56562295D02*
X65619047Y-56600390D01*
X65619047Y-56600390D02*
X65695237Y-56676580D01*
X65695237Y-56676580D02*
X65733332Y-56752771D01*
X65733332Y-56752771D02*
X65771428Y-56905152D01*
X65771428Y-56905152D02*
X65771428Y-57019438D01*
X65771428Y-57019438D02*
X65733332Y-57171819D01*
X65733332Y-57171819D02*
X65695237Y-57248009D01*
X65695237Y-57248009D02*
X65619047Y-57324200D01*
X65619047Y-57324200D02*
X65504761Y-57362295D01*
X65504761Y-57362295D02*
X65314285Y-57362295D01*
X17521429Y-21322842D02*
X17478572Y-21365700D01*
X17478572Y-21365700D02*
X17350000Y-21408557D01*
X17350000Y-21408557D02*
X17264286Y-21408557D01*
X17264286Y-21408557D02*
X17135715Y-21365700D01*
X17135715Y-21365700D02*
X17050000Y-21279985D01*
X17050000Y-21279985D02*
X17007143Y-21194271D01*
X17007143Y-21194271D02*
X16964286Y-21022842D01*
X16964286Y-21022842D02*
X16964286Y-20894271D01*
X16964286Y-20894271D02*
X17007143Y-20722842D01*
X17007143Y-20722842D02*
X17050000Y-20637128D01*
X17050000Y-20637128D02*
X17135715Y-20551414D01*
X17135715Y-20551414D02*
X17264286Y-20508557D01*
X17264286Y-20508557D02*
X17350000Y-20508557D01*
X17350000Y-20508557D02*
X17478572Y-20551414D01*
X17478572Y-20551414D02*
X17521429Y-20594271D01*
X17907143Y-21408557D02*
X17907143Y-20508557D01*
X17907143Y-20937128D02*
X18421429Y-20937128D01*
X18421429Y-21408557D02*
X18421429Y-20508557D01*
X19021429Y-20508557D02*
X19192857Y-20508557D01*
X19192857Y-20508557D02*
X19278572Y-20551414D01*
X19278572Y-20551414D02*
X19364286Y-20637128D01*
X19364286Y-20637128D02*
X19407143Y-20808557D01*
X19407143Y-20808557D02*
X19407143Y-21108557D01*
X19407143Y-21108557D02*
X19364286Y-21279985D01*
X19364286Y-21279985D02*
X19278572Y-21365700D01*
X19278572Y-21365700D02*
X19192857Y-21408557D01*
X19192857Y-21408557D02*
X19021429Y-21408557D01*
X19021429Y-21408557D02*
X18935715Y-21365700D01*
X18935715Y-21365700D02*
X18850000Y-21279985D01*
X18850000Y-21279985D02*
X18807143Y-21108557D01*
X18807143Y-21108557D02*
X18807143Y-20808557D01*
X18807143Y-20808557D02*
X18850000Y-20637128D01*
X18850000Y-20637128D02*
X18935715Y-20551414D01*
X18935715Y-20551414D02*
X19021429Y-20508557D01*
X20307143Y-21322842D02*
X20264286Y-21365700D01*
X20264286Y-21365700D02*
X20135714Y-21408557D01*
X20135714Y-21408557D02*
X20050000Y-21408557D01*
X20050000Y-21408557D02*
X19921429Y-21365700D01*
X19921429Y-21365700D02*
X19835714Y-21279985D01*
X19835714Y-21279985D02*
X19792857Y-21194271D01*
X19792857Y-21194271D02*
X19750000Y-21022842D01*
X19750000Y-21022842D02*
X19750000Y-20894271D01*
X19750000Y-20894271D02*
X19792857Y-20722842D01*
X19792857Y-20722842D02*
X19835714Y-20637128D01*
X19835714Y-20637128D02*
X19921429Y-20551414D01*
X19921429Y-20551414D02*
X20050000Y-20508557D01*
X20050000Y-20508557D02*
X20135714Y-20508557D01*
X20135714Y-20508557D02*
X20264286Y-20551414D01*
X20264286Y-20551414D02*
X20307143Y-20594271D01*
X21250000Y-20508557D02*
X21550000Y-21408557D01*
X21550000Y-21408557D02*
X21850000Y-20508557D01*
X22621429Y-21408557D02*
X22107143Y-21408557D01*
X22364286Y-21408557D02*
X22364286Y-20508557D01*
X22364286Y-20508557D02*
X22278572Y-20637128D01*
X22278572Y-20637128D02*
X22192857Y-20722842D01*
X22192857Y-20722842D02*
X22107143Y-20765700D01*
X23692857Y-20508557D02*
X23692857Y-21237128D01*
X23692857Y-21237128D02*
X23735714Y-21322842D01*
X23735714Y-21322842D02*
X23778572Y-21365700D01*
X23778572Y-21365700D02*
X23864286Y-21408557D01*
X23864286Y-21408557D02*
X24035714Y-21408557D01*
X24035714Y-21408557D02*
X24121429Y-21365700D01*
X24121429Y-21365700D02*
X24164286Y-21322842D01*
X24164286Y-21322842D02*
X24207143Y-21237128D01*
X24207143Y-21237128D02*
X24207143Y-20508557D01*
X24635714Y-21408557D02*
X24635714Y-20508557D01*
X24635714Y-20508557D02*
X25150000Y-21408557D01*
X25150000Y-21408557D02*
X25150000Y-20508557D01*
X25535714Y-21365700D02*
X25664286Y-21408557D01*
X25664286Y-21408557D02*
X25878571Y-21408557D01*
X25878571Y-21408557D02*
X25964286Y-21365700D01*
X25964286Y-21365700D02*
X26007143Y-21322842D01*
X26007143Y-21322842D02*
X26050000Y-21237128D01*
X26050000Y-21237128D02*
X26050000Y-21151414D01*
X26050000Y-21151414D02*
X26007143Y-21065700D01*
X26007143Y-21065700D02*
X25964286Y-21022842D01*
X25964286Y-21022842D02*
X25878571Y-20979985D01*
X25878571Y-20979985D02*
X25707143Y-20937128D01*
X25707143Y-20937128D02*
X25621428Y-20894271D01*
X25621428Y-20894271D02*
X25578571Y-20851414D01*
X25578571Y-20851414D02*
X25535714Y-20765700D01*
X25535714Y-20765700D02*
X25535714Y-20679985D01*
X25535714Y-20679985D02*
X25578571Y-20594271D01*
X25578571Y-20594271D02*
X25621428Y-20551414D01*
X25621428Y-20551414D02*
X25707143Y-20508557D01*
X25707143Y-20508557D02*
X25921428Y-20508557D01*
X25921428Y-20508557D02*
X26050000Y-20551414D01*
X26435714Y-20508557D02*
X26435714Y-21237128D01*
X26435714Y-21237128D02*
X26478571Y-21322842D01*
X26478571Y-21322842D02*
X26521429Y-21365700D01*
X26521429Y-21365700D02*
X26607143Y-21408557D01*
X26607143Y-21408557D02*
X26778571Y-21408557D01*
X26778571Y-21408557D02*
X26864286Y-21365700D01*
X26864286Y-21365700D02*
X26907143Y-21322842D01*
X26907143Y-21322842D02*
X26950000Y-21237128D01*
X26950000Y-21237128D02*
X26950000Y-20508557D01*
X27378571Y-21408557D02*
X27378571Y-20508557D01*
X27378571Y-20508557D02*
X27721428Y-20508557D01*
X27721428Y-20508557D02*
X27807143Y-20551414D01*
X27807143Y-20551414D02*
X27850000Y-20594271D01*
X27850000Y-20594271D02*
X27892857Y-20679985D01*
X27892857Y-20679985D02*
X27892857Y-20808557D01*
X27892857Y-20808557D02*
X27850000Y-20894271D01*
X27850000Y-20894271D02*
X27807143Y-20937128D01*
X27807143Y-20937128D02*
X27721428Y-20979985D01*
X27721428Y-20979985D02*
X27378571Y-20979985D01*
X28278571Y-21408557D02*
X28278571Y-20508557D01*
X28278571Y-20508557D02*
X28621428Y-20508557D01*
X28621428Y-20508557D02*
X28707143Y-20551414D01*
X28707143Y-20551414D02*
X28750000Y-20594271D01*
X28750000Y-20594271D02*
X28792857Y-20679985D01*
X28792857Y-20679985D02*
X28792857Y-20808557D01*
X28792857Y-20808557D02*
X28750000Y-20894271D01*
X28750000Y-20894271D02*
X28707143Y-20937128D01*
X28707143Y-20937128D02*
X28621428Y-20979985D01*
X28621428Y-20979985D02*
X28278571Y-20979985D01*
X29350000Y-20508557D02*
X29521428Y-20508557D01*
X29521428Y-20508557D02*
X29607143Y-20551414D01*
X29607143Y-20551414D02*
X29692857Y-20637128D01*
X29692857Y-20637128D02*
X29735714Y-20808557D01*
X29735714Y-20808557D02*
X29735714Y-21108557D01*
X29735714Y-21108557D02*
X29692857Y-21279985D01*
X29692857Y-21279985D02*
X29607143Y-21365700D01*
X29607143Y-21365700D02*
X29521428Y-21408557D01*
X29521428Y-21408557D02*
X29350000Y-21408557D01*
X29350000Y-21408557D02*
X29264286Y-21365700D01*
X29264286Y-21365700D02*
X29178571Y-21279985D01*
X29178571Y-21279985D02*
X29135714Y-21108557D01*
X29135714Y-21108557D02*
X29135714Y-20808557D01*
X29135714Y-20808557D02*
X29178571Y-20637128D01*
X29178571Y-20637128D02*
X29264286Y-20551414D01*
X29264286Y-20551414D02*
X29350000Y-20508557D01*
X30635714Y-21408557D02*
X30335714Y-20979985D01*
X30121428Y-21408557D02*
X30121428Y-20508557D01*
X30121428Y-20508557D02*
X30464285Y-20508557D01*
X30464285Y-20508557D02*
X30550000Y-20551414D01*
X30550000Y-20551414D02*
X30592857Y-20594271D01*
X30592857Y-20594271D02*
X30635714Y-20679985D01*
X30635714Y-20679985D02*
X30635714Y-20808557D01*
X30635714Y-20808557D02*
X30592857Y-20894271D01*
X30592857Y-20894271D02*
X30550000Y-20937128D01*
X30550000Y-20937128D02*
X30464285Y-20979985D01*
X30464285Y-20979985D02*
X30121428Y-20979985D01*
X30892857Y-20508557D02*
X31407143Y-20508557D01*
X31150000Y-21408557D02*
X31150000Y-20508557D01*
X31707142Y-20937128D02*
X32007142Y-20937128D01*
X32135714Y-21408557D02*
X31707142Y-21408557D01*
X31707142Y-21408557D02*
X31707142Y-20508557D01*
X31707142Y-20508557D02*
X32135714Y-20508557D01*
X32521428Y-21408557D02*
X32521428Y-20508557D01*
X32521428Y-20508557D02*
X32735714Y-20508557D01*
X32735714Y-20508557D02*
X32864285Y-20551414D01*
X32864285Y-20551414D02*
X32950000Y-20637128D01*
X32950000Y-20637128D02*
X32992857Y-20722842D01*
X32992857Y-20722842D02*
X33035714Y-20894271D01*
X33035714Y-20894271D02*
X33035714Y-21022842D01*
X33035714Y-21022842D02*
X32992857Y-21194271D01*
X32992857Y-21194271D02*
X32950000Y-21279985D01*
X32950000Y-21279985D02*
X32864285Y-21365700D01*
X32864285Y-21365700D02*
X32735714Y-21408557D01*
X32735714Y-21408557D02*
X32521428Y-21408557D01*
X49285715Y-21408557D02*
X49285715Y-20508557D01*
X49285715Y-20508557D02*
X49500001Y-20508557D01*
X49500001Y-20508557D02*
X49628572Y-20551414D01*
X49628572Y-20551414D02*
X49714287Y-20637128D01*
X49714287Y-20637128D02*
X49757144Y-20722842D01*
X49757144Y-20722842D02*
X49800001Y-20894271D01*
X49800001Y-20894271D02*
X49800001Y-21022842D01*
X49800001Y-21022842D02*
X49757144Y-21194271D01*
X49757144Y-21194271D02*
X49714287Y-21279985D01*
X49714287Y-21279985D02*
X49628572Y-21365700D01*
X49628572Y-21365700D02*
X49500001Y-21408557D01*
X49500001Y-21408557D02*
X49285715Y-21408557D01*
X50357144Y-20508557D02*
X50528572Y-20508557D01*
X50528572Y-20508557D02*
X50614287Y-20551414D01*
X50614287Y-20551414D02*
X50700001Y-20637128D01*
X50700001Y-20637128D02*
X50742858Y-20808557D01*
X50742858Y-20808557D02*
X50742858Y-21108557D01*
X50742858Y-21108557D02*
X50700001Y-21279985D01*
X50700001Y-21279985D02*
X50614287Y-21365700D01*
X50614287Y-21365700D02*
X50528572Y-21408557D01*
X50528572Y-21408557D02*
X50357144Y-21408557D01*
X50357144Y-21408557D02*
X50271430Y-21365700D01*
X50271430Y-21365700D02*
X50185715Y-21279985D01*
X50185715Y-21279985D02*
X50142858Y-21108557D01*
X50142858Y-21108557D02*
X50142858Y-20808557D01*
X50142858Y-20808557D02*
X50185715Y-20637128D01*
X50185715Y-20637128D02*
X50271430Y-20551414D01*
X50271430Y-20551414D02*
X50357144Y-20508557D01*
X51814286Y-21408557D02*
X51814286Y-20508557D01*
X51814286Y-20508557D02*
X52328572Y-21408557D01*
X52328572Y-21408557D02*
X52328572Y-20508557D01*
X52928572Y-20508557D02*
X53100000Y-20508557D01*
X53100000Y-20508557D02*
X53185715Y-20551414D01*
X53185715Y-20551414D02*
X53271429Y-20637128D01*
X53271429Y-20637128D02*
X53314286Y-20808557D01*
X53314286Y-20808557D02*
X53314286Y-21108557D01*
X53314286Y-21108557D02*
X53271429Y-21279985D01*
X53271429Y-21279985D02*
X53185715Y-21365700D01*
X53185715Y-21365700D02*
X53100000Y-21408557D01*
X53100000Y-21408557D02*
X52928572Y-21408557D01*
X52928572Y-21408557D02*
X52842858Y-21365700D01*
X52842858Y-21365700D02*
X52757143Y-21279985D01*
X52757143Y-21279985D02*
X52714286Y-21108557D01*
X52714286Y-21108557D02*
X52714286Y-20808557D01*
X52714286Y-20808557D02*
X52757143Y-20637128D01*
X52757143Y-20637128D02*
X52842858Y-20551414D01*
X52842858Y-20551414D02*
X52928572Y-20508557D01*
X53571429Y-20508557D02*
X54085715Y-20508557D01*
X53828572Y-21408557D02*
X53828572Y-20508557D01*
X55071428Y-21408557D02*
X55071428Y-20508557D01*
X55071428Y-20508557D02*
X55414285Y-20508557D01*
X55414285Y-20508557D02*
X55500000Y-20551414D01*
X55500000Y-20551414D02*
X55542857Y-20594271D01*
X55542857Y-20594271D02*
X55585714Y-20679985D01*
X55585714Y-20679985D02*
X55585714Y-20808557D01*
X55585714Y-20808557D02*
X55542857Y-20894271D01*
X55542857Y-20894271D02*
X55500000Y-20937128D01*
X55500000Y-20937128D02*
X55414285Y-20979985D01*
X55414285Y-20979985D02*
X55071428Y-20979985D01*
X56142857Y-20508557D02*
X56314285Y-20508557D01*
X56314285Y-20508557D02*
X56400000Y-20551414D01*
X56400000Y-20551414D02*
X56485714Y-20637128D01*
X56485714Y-20637128D02*
X56528571Y-20808557D01*
X56528571Y-20808557D02*
X56528571Y-21108557D01*
X56528571Y-21108557D02*
X56485714Y-21279985D01*
X56485714Y-21279985D02*
X56400000Y-21365700D01*
X56400000Y-21365700D02*
X56314285Y-21408557D01*
X56314285Y-21408557D02*
X56142857Y-21408557D01*
X56142857Y-21408557D02*
X56057143Y-21365700D01*
X56057143Y-21365700D02*
X55971428Y-21279985D01*
X55971428Y-21279985D02*
X55928571Y-21108557D01*
X55928571Y-21108557D02*
X55928571Y-20808557D01*
X55928571Y-20808557D02*
X55971428Y-20637128D01*
X55971428Y-20637128D02*
X56057143Y-20551414D01*
X56057143Y-20551414D02*
X56142857Y-20508557D01*
X56914285Y-21408557D02*
X56914285Y-20508557D01*
X56914285Y-20508557D02*
X57257142Y-20508557D01*
X57257142Y-20508557D02*
X57342857Y-20551414D01*
X57342857Y-20551414D02*
X57385714Y-20594271D01*
X57385714Y-20594271D02*
X57428571Y-20679985D01*
X57428571Y-20679985D02*
X57428571Y-20808557D01*
X57428571Y-20808557D02*
X57385714Y-20894271D01*
X57385714Y-20894271D02*
X57342857Y-20937128D01*
X57342857Y-20937128D02*
X57257142Y-20979985D01*
X57257142Y-20979985D02*
X56914285Y-20979985D01*
X57814285Y-20508557D02*
X57814285Y-21237128D01*
X57814285Y-21237128D02*
X57857142Y-21322842D01*
X57857142Y-21322842D02*
X57900000Y-21365700D01*
X57900000Y-21365700D02*
X57985714Y-21408557D01*
X57985714Y-21408557D02*
X58157142Y-21408557D01*
X58157142Y-21408557D02*
X58242857Y-21365700D01*
X58242857Y-21365700D02*
X58285714Y-21322842D01*
X58285714Y-21322842D02*
X58328571Y-21237128D01*
X58328571Y-21237128D02*
X58328571Y-20508557D01*
X59185714Y-21408557D02*
X58757142Y-21408557D01*
X58757142Y-21408557D02*
X58757142Y-20508557D01*
X59442856Y-21151414D02*
X59871428Y-21151414D01*
X59357142Y-21408557D02*
X59657142Y-20508557D01*
X59657142Y-20508557D02*
X59957142Y-21408557D01*
X60128571Y-20508557D02*
X60642857Y-20508557D01*
X60385714Y-21408557D02*
X60385714Y-20508557D01*
X60942856Y-20937128D02*
X61242856Y-20937128D01*
X61371428Y-21408557D02*
X60942856Y-21408557D01*
X60942856Y-21408557D02*
X60942856Y-20508557D01*
X60942856Y-20508557D02*
X61371428Y-20508557D01*
X62742856Y-20937128D02*
X62871428Y-20979985D01*
X62871428Y-20979985D02*
X62914285Y-21022842D01*
X62914285Y-21022842D02*
X62957142Y-21108557D01*
X62957142Y-21108557D02*
X62957142Y-21237128D01*
X62957142Y-21237128D02*
X62914285Y-21322842D01*
X62914285Y-21322842D02*
X62871428Y-21365700D01*
X62871428Y-21365700D02*
X62785713Y-21408557D01*
X62785713Y-21408557D02*
X62442856Y-21408557D01*
X62442856Y-21408557D02*
X62442856Y-20508557D01*
X62442856Y-20508557D02*
X62742856Y-20508557D01*
X62742856Y-20508557D02*
X62828571Y-20551414D01*
X62828571Y-20551414D02*
X62871428Y-20594271D01*
X62871428Y-20594271D02*
X62914285Y-20679985D01*
X62914285Y-20679985D02*
X62914285Y-20765700D01*
X62914285Y-20765700D02*
X62871428Y-20851414D01*
X62871428Y-20851414D02*
X62828571Y-20894271D01*
X62828571Y-20894271D02*
X62742856Y-20937128D01*
X62742856Y-20937128D02*
X62442856Y-20937128D01*
X63514285Y-20508557D02*
X63685713Y-20508557D01*
X63685713Y-20508557D02*
X63771428Y-20551414D01*
X63771428Y-20551414D02*
X63857142Y-20637128D01*
X63857142Y-20637128D02*
X63899999Y-20808557D01*
X63899999Y-20808557D02*
X63899999Y-21108557D01*
X63899999Y-21108557D02*
X63857142Y-21279985D01*
X63857142Y-21279985D02*
X63771428Y-21365700D01*
X63771428Y-21365700D02*
X63685713Y-21408557D01*
X63685713Y-21408557D02*
X63514285Y-21408557D01*
X63514285Y-21408557D02*
X63428571Y-21365700D01*
X63428571Y-21365700D02*
X63342856Y-21279985D01*
X63342856Y-21279985D02*
X63299999Y-21108557D01*
X63299999Y-21108557D02*
X63299999Y-20808557D01*
X63299999Y-20808557D02*
X63342856Y-20637128D01*
X63342856Y-20637128D02*
X63428571Y-20551414D01*
X63428571Y-20551414D02*
X63514285Y-20508557D01*
X64157142Y-20508557D02*
X64671428Y-20508557D01*
X64414285Y-21408557D02*
X64414285Y-20508557D01*
X64971427Y-21408557D02*
X64971427Y-20508557D01*
X64971427Y-20937128D02*
X65485713Y-20937128D01*
X65485713Y-21408557D02*
X65485713Y-20508557D01*
X66599998Y-21408557D02*
X66599998Y-20508557D01*
X66599998Y-20508557D02*
X66899998Y-21151414D01*
X66899998Y-21151414D02*
X67199998Y-20508557D01*
X67199998Y-20508557D02*
X67199998Y-21408557D01*
X67799998Y-20508557D02*
X67971426Y-20508557D01*
X67971426Y-20508557D02*
X68057141Y-20551414D01*
X68057141Y-20551414D02*
X68142855Y-20637128D01*
X68142855Y-20637128D02*
X68185712Y-20808557D01*
X68185712Y-20808557D02*
X68185712Y-21108557D01*
X68185712Y-21108557D02*
X68142855Y-21279985D01*
X68142855Y-21279985D02*
X68057141Y-21365700D01*
X68057141Y-21365700D02*
X67971426Y-21408557D01*
X67971426Y-21408557D02*
X67799998Y-21408557D01*
X67799998Y-21408557D02*
X67714284Y-21365700D01*
X67714284Y-21365700D02*
X67628569Y-21279985D01*
X67628569Y-21279985D02*
X67585712Y-21108557D01*
X67585712Y-21108557D02*
X67585712Y-20808557D01*
X67585712Y-20808557D02*
X67628569Y-20637128D01*
X67628569Y-20637128D02*
X67714284Y-20551414D01*
X67714284Y-20551414D02*
X67799998Y-20508557D01*
X68571426Y-21408557D02*
X68571426Y-20508557D01*
X68571426Y-20508557D02*
X68785712Y-20508557D01*
X68785712Y-20508557D02*
X68914283Y-20551414D01*
X68914283Y-20551414D02*
X68999998Y-20637128D01*
X68999998Y-20637128D02*
X69042855Y-20722842D01*
X69042855Y-20722842D02*
X69085712Y-20894271D01*
X69085712Y-20894271D02*
X69085712Y-21022842D01*
X69085712Y-21022842D02*
X69042855Y-21194271D01*
X69042855Y-21194271D02*
X68999998Y-21279985D01*
X68999998Y-21279985D02*
X68914283Y-21365700D01*
X68914283Y-21365700D02*
X68785712Y-21408557D01*
X68785712Y-21408557D02*
X68571426Y-21408557D01*
X69471426Y-20937128D02*
X69771426Y-20937128D01*
X69899998Y-21408557D02*
X69471426Y-21408557D01*
X69471426Y-21408557D02*
X69471426Y-20508557D01*
X69471426Y-20508557D02*
X69899998Y-20508557D01*
X70242855Y-21365700D02*
X70371427Y-21408557D01*
X70371427Y-21408557D02*
X70585712Y-21408557D01*
X70585712Y-21408557D02*
X70671427Y-21365700D01*
X70671427Y-21365700D02*
X70714284Y-21322842D01*
X70714284Y-21322842D02*
X70757141Y-21237128D01*
X70757141Y-21237128D02*
X70757141Y-21151414D01*
X70757141Y-21151414D02*
X70714284Y-21065700D01*
X70714284Y-21065700D02*
X70671427Y-21022842D01*
X70671427Y-21022842D02*
X70585712Y-20979985D01*
X70585712Y-20979985D02*
X70414284Y-20937128D01*
X70414284Y-20937128D02*
X70328569Y-20894271D01*
X70328569Y-20894271D02*
X70285712Y-20851414D01*
X70285712Y-20851414D02*
X70242855Y-20765700D01*
X70242855Y-20765700D02*
X70242855Y-20679985D01*
X70242855Y-20679985D02*
X70285712Y-20594271D01*
X70285712Y-20594271D02*
X70328569Y-20551414D01*
X70328569Y-20551414D02*
X70414284Y-20508557D01*
X70414284Y-20508557D02*
X70628569Y-20508557D01*
X70628569Y-20508557D02*
X70757141Y-20551414D01*
%TO.C,TP_L_COL*%
D10*
X29700000Y-66000000D02*
G75*
G02*
X26300000Y-66000000I-1700000J0D01*
G01*
X26300000Y-66000000D02*
G75*
G02*
X29700000Y-66000000I1700000J0D01*
G01*
%TO.C,TP_MX_COL*%
X48750000Y-66000000D02*
G75*
G02*
X45350000Y-66000000I-1700000J0D01*
G01*
X45350000Y-66000000D02*
G75*
G02*
X48750000Y-66000000I1700000J0D01*
G01*
%TO.C,TP_R_COL*%
X67799999Y-14000000D02*
G75*
G02*
X64399999Y-14000000I-1700000J0D01*
G01*
X64399999Y-14000000D02*
G75*
G02*
X67799999Y-14000000I1700000J0D01*
G01*
%TO.C,TP_L_ROW*%
X31500000Y-14000000D02*
G75*
G02*
X28100000Y-14000000I-1700000J0D01*
G01*
X28100000Y-14000000D02*
G75*
G02*
X31500000Y-14000000I1700000J0D01*
G01*
%TO.C,TP_MX_ANODE*%
X46950000Y-14000000D02*
G75*
G02*
X43550000Y-14000000I-1700000J0D01*
G01*
X43550000Y-14000000D02*
G75*
G02*
X46950000Y-14000000I1700000J0D01*
G01*
%TO.C,TP_MX_ROW*%
X50550000Y-14000000D02*
G75*
G02*
X47150000Y-14000000I-1700000J0D01*
G01*
X47150000Y-14000000D02*
G75*
G02*
X50550000Y-14000000I1700000J0D01*
G01*
%TO.C,TP_L_ANODE*%
X27900000Y-14000000D02*
G75*
G02*
X24500000Y-14000000I-1700000J0D01*
G01*
X24500000Y-14000000D02*
G75*
G02*
X27900000Y-14000000I1700000J0D01*
G01*
%TO.C,TP_R_ANODE*%
X69599999Y-66000000D02*
G75*
G02*
X66199999Y-66000000I-1700000J0D01*
G01*
X66199999Y-66000000D02*
G75*
G02*
X69599999Y-66000000I1700000J0D01*
G01*
%TO.C,TP_R_ROW*%
X65999999Y-66000000D02*
G75*
G02*
X62599999Y-66000000I-1700000J0D01*
G01*
X62599999Y-66000000D02*
G75*
G02*
X65999999Y-66000000I1700000J0D01*
G01*
%TD*%
%LPC*%
D12*
%TO.C,TP_L_COL*%
X28000000Y-66000000D03*
%TD*%
D13*
%TO.C,SW_MX*%
X41970000Y-40000000D03*
D12*
X42050000Y-43800000D03*
D14*
X47050000Y-40000000D03*
D12*
X47050000Y-45900000D03*
D15*
X52050000Y-34850000D03*
D13*
X52130000Y-40000000D03*
D16*
X49590000Y-34920000D03*
X43240000Y-37460000D03*
%TD*%
D12*
%TO.C,TP_MX_COL*%
X47050000Y-66000000D03*
%TD*%
%TO.C,TP_R_COL*%
X66099999Y-14000000D03*
%TD*%
D13*
%TO.C,SW_L*%
X22920000Y-40000000D03*
D12*
X23000000Y-43800000D03*
D14*
X28000000Y-40000000D03*
D12*
X28000000Y-45900000D03*
D15*
X33000000Y-34850000D03*
D13*
X33080000Y-40000000D03*
D16*
X30540000Y-34920000D03*
X24190000Y-37460000D03*
%TD*%
D12*
%TO.C,TP_L_ROW*%
X29800000Y-14000000D03*
%TD*%
%TO.C,TP_MX_ANODE*%
X45250000Y-14000000D03*
%TD*%
%TO.C,TP_MX_ROW*%
X48850000Y-14000000D03*
%TD*%
%TO.C,TP_L_ANODE*%
X26200000Y-14000000D03*
%TD*%
D13*
%TO.C,SW_R*%
X71179999Y-40000000D03*
D12*
X71099999Y-36200000D03*
D14*
X66099999Y-40000000D03*
D12*
X66099999Y-34100000D03*
D15*
X61099999Y-45150000D03*
D13*
X61019999Y-40000000D03*
D16*
X63559999Y-45080000D03*
X69909999Y-42540000D03*
%TD*%
D12*
%TO.C,TP_R_ANODE*%
X67899999Y-66000000D03*
%TD*%
%TO.C,TP_R_ROW*%
X64299999Y-66000000D03*
%TD*%
%LPD*%
M02*
