%TF.GenerationSoftware,KiCad,Pcbnew,10.0.3*%
%TF.CreationDate,2026-09-03T05:27:36+09:00*%
%TF.ProjectId,kc2_switch_coupon,6b63325f-7377-4697-9463-685f636f7570,coupon-2-es1b*%
%TF.SameCoordinates,Original*%
%TF.FileFunction,Copper,L2,Bot*%
%TF.FilePolarity,Positive*%
%FSLAX46Y46*%
G04 Gerber Fmt 4.6, Leading zero omitted, Abs format (unit mm)*
G04 Created by KiCad (PCBNEW 10.0.3) date 2026-09-03 05:27:36*
%MOMM*%
%LPD*%
G01*
G04 APERTURE LIST*
G04 Aperture macros list*
%AMRoundRect*
0 Rectangle with rounded corners*
0 $1 Rounding radius*
0 $2 $3 $4 $5 $6 $7 $8 $9 X,Y pos of 4 corners*
0 Add a 4 corners polygon primitive as box body*
4,1,4,$2,$3,$4,$5,$6,$7,$8,$9,$2,$3,0*
0 Add four circle primitives for the rounded corners*
1,1,$1+$1,$2,$3*
1,1,$1+$1,$4,$5*
1,1,$1+$1,$6,$7*
1,1,$1+$1,$8,$9*
0 Add four rect primitives between the rounded corners*
20,1,$1+$1,$2,$3,$4,$5,0*
20,1,$1+$1,$4,$5,$6,$7,0*
20,1,$1+$1,$6,$7,$8,$9,0*
20,1,$1+$1,$8,$9,$2,$3,0*%
G04 Aperture macros list end*
%TA.AperFunction,ComponentPad*%
%ADD10C,3.000000*%
%TD*%
%TA.AperFunction,ComponentPad*%
%ADD11C,2.500000*%
%TD*%
%TA.AperFunction,SMDPad,CuDef*%
%ADD12RoundRect,0.520000X-0.780000X-0.780000X0.780000X-0.780000X0.780000X0.780000X-0.780000X0.780000X0*%
%TD*%
%TA.AperFunction,SMDPad,CuDef*%
%ADD13RoundRect,0.520000X0.780000X0.780000X-0.780000X0.780000X-0.780000X-0.780000X0.780000X-0.780000X0*%
%TD*%
%TA.AperFunction,SMDPad,CuDef*%
%ADD14RoundRect,0.252000X0.448000X0.523000X-0.448000X0.523000X-0.448000X-0.523000X0.448000X-0.523000X0*%
%TD*%
%TA.AperFunction,SMDPad,CuDef*%
%ADD15RoundRect,0.252000X-0.448000X-0.523000X0.448000X-0.523000X0.448000X0.523000X-0.448000X0.523000X0*%
%TD*%
%TA.AperFunction,Conductor*%
%ADD16C,0.250000*%
%TD*%
G04 APERTURE END LIST*
D10*
%TO.P,TP_L_COL,1*%
%TO.N,D_L_COL*%
X28000000Y-66000000D03*
%TD*%
D11*
%TO.P,SW_MX,1*%
%TO.N,D_MX_COL*%
X49590000Y-34920000D03*
D12*
X50750000Y-45900000D03*
%TO.P,SW_MX,2*%
%TO.N,D_MX_ANODE*%
X38350000Y-43800000D03*
D11*
X43240000Y-37460000D03*
%TD*%
D10*
%TO.P,TP_MX_COL,1*%
%TO.N,D_MX_COL*%
X47050000Y-66000000D03*
%TD*%
%TO.P,TP_R_COL,1*%
%TO.N,D_R_COL*%
X66099999Y-14000000D03*
%TD*%
D11*
%TO.P,SW_L,1*%
%TO.N,D_L_COL*%
X30540000Y-34920000D03*
D12*
X31700000Y-45900000D03*
%TO.P,SW_L,2*%
%TO.N,D_L_ANODE*%
X19300000Y-43800000D03*
D11*
X24190000Y-37460000D03*
%TD*%
D10*
%TO.P,TP_L_ROW,1*%
%TO.N,D_L_ROW*%
X29800000Y-14000000D03*
%TD*%
%TO.P,TP_MX_ANODE,1*%
%TO.N,D_MX_ANODE*%
X45250000Y-14000000D03*
%TD*%
%TO.P,TP_MX_ROW,1*%
%TO.N,D_MX_ROW*%
X48850000Y-14000000D03*
%TD*%
%TO.P,TP_L_ANODE,1*%
%TO.N,D_L_ANODE*%
X26200000Y-14000000D03*
%TD*%
D11*
%TO.P,SW_R,1*%
%TO.N,D_R_COL*%
X63559999Y-45080000D03*
D13*
X62399999Y-34100000D03*
%TO.P,SW_R,2*%
%TO.N,D_R_ANODE*%
X74799999Y-36200000D03*
D11*
X69909999Y-42540000D03*
%TD*%
D10*
%TO.P,TP_R_ANODE,1*%
%TO.N,D_R_ANODE*%
X67899999Y-66000000D03*
%TD*%
%TO.P,TP_R_ROW,1*%
%TO.N,D_R_ROW*%
X64299999Y-66000000D03*
%TD*%
D14*
%TO.P,D_MX,1*%
%TO.N,D_MX_ROW*%
X48850000Y-31400000D03*
%TO.P,D_MX,2*%
%TO.N,D_MX_ANODE*%
X45250000Y-31400000D03*
%TD*%
D15*
%TO.P,D_R,1*%
%TO.N,D_R_ROW*%
X64299999Y-48600000D03*
%TO.P,D_R,2*%
%TO.N,D_R_ANODE*%
X67899999Y-48600000D03*
%TD*%
D14*
%TO.P,D_L,1*%
%TO.N,D_L_ROW*%
X29800000Y-31400000D03*
%TO.P,D_L,2*%
%TO.N,D_L_ANODE*%
X26200000Y-31400000D03*
%TD*%
%TO.N,D_L_COL*%
D16*
X34500000Y-33500000D02*
X34500000Y-45900000D01*
X31700000Y-45900000D02*
X28000000Y-66000000D01*
X34500000Y-45900000D02*
X31700000Y-45900000D01*
X30540000Y-34920000D02*
X31300000Y-33500000D01*
X31300000Y-33500000D02*
X34500000Y-33500000D01*
%TO.N,D_L_ANODE*%
X21000000Y-43800000D02*
X19300000Y-43800000D01*
X21000000Y-37460000D02*
X21000000Y-43800000D01*
X24190000Y-34400000D02*
X26200000Y-34400000D01*
X26200000Y-34400000D02*
X26200000Y-31400000D01*
X24190000Y-37460000D02*
X24190000Y-34400000D01*
X26200000Y-31400000D02*
X26200000Y-14000000D01*
X24190000Y-37460000D02*
X21000000Y-37460000D01*
%TO.N,D_L_ROW*%
X29800000Y-31400000D02*
X29800000Y-14000000D01*
%TO.N,D_MX_COL*%
X50349999Y-33500000D02*
X53550000Y-33500000D01*
X53550000Y-33500000D02*
X53550000Y-45900000D01*
X49590000Y-34920000D02*
X50349999Y-33500000D01*
X50750000Y-45900000D02*
X47050000Y-66000000D01*
X53550000Y-45900000D02*
X50750000Y-45900000D01*
%TO.N,D_MX_ANODE*%
X45250000Y-34400000D02*
X45250000Y-31400000D01*
X43239999Y-37460000D02*
X40050000Y-37460000D01*
X40050000Y-43800000D02*
X38349999Y-43800000D01*
X43239999Y-34400000D02*
X45250000Y-34400000D01*
X45250000Y-31400000D02*
X45250000Y-14000000D01*
X40050000Y-37460000D02*
X40050000Y-43800000D01*
X43239999Y-37460000D02*
X43239999Y-34400000D01*
%TO.N,D_MX_ROW*%
X48850000Y-31400000D02*
X48850000Y-14000000D01*
%TO.N,D_R_COL*%
X59599999Y-34100000D02*
X62399999Y-34100000D01*
X62399999Y-34100000D02*
X66099999Y-14000000D01*
X62800000Y-46500000D02*
X59599999Y-46500000D01*
X63559999Y-45080000D02*
X62800000Y-46500000D01*
X59599999Y-46500000D02*
X59599999Y-34100000D01*
%TO.N,D_R_ANODE*%
X69910000Y-42540000D02*
X69910000Y-45600000D01*
X69910000Y-42540000D02*
X73100000Y-42540000D01*
X73100000Y-42540000D02*
X73100000Y-36200000D01*
X67899999Y-45600000D02*
X67899999Y-48600000D01*
X69910000Y-45600000D02*
X67899999Y-45600000D01*
X73100000Y-36200000D02*
X74800000Y-36200000D01*
X67899999Y-48600000D02*
X67899999Y-66000000D01*
%TO.N,D_R_ROW*%
X64299999Y-48600000D02*
X64299999Y-66000000D01*
%TD*%
M02*
