<?xml version="1.0" encoding="utf-8"?>
<svg width="137.21250000000003mm" height="124.60000000000001mm" viewBox="33.95 -162.8 137.21250000000003 124.60000000000001" style="background-color:white" xmlns="http://www.w3.org/2000/svg" xmlns:xlink="http://www.w3.org/1999/xlink">
  <g transform="translate(33.95 -38.2) scale(1 -1) translate(-33.95 162.8)">
    <path d="M 71.7588 -148.995 L 71.7588 -148.295" fill="none" stroke="black" stroke-linecap="round" stroke-linejoin="round" stroke-width="2.5"/>
    <rect x="65.0588" y="-152.435" width="0.699999" height="2.5" transform="rotate(-45.0 65.4088 -151.185)" fill="black"/>
    <circle cx="65.1613" cy="-150.938" r="1.25" fill="black"/>
    <circle cx="65.6563" cy="-151.432" r="1.25" fill="black"/>
    <path d="M 159.865 -72.795 L 159.865 -72.095" fill="none" stroke="black" stroke-linecap="round" stroke-linejoin="round" stroke-width="2.5"/>
    <rect x="153.165" y="-76.235" width="0.699999" height="2.5" transform="rotate(-45.0 153.515 -74.985)" fill="black"/>
    <circle cx="153.268" cy="-74.7375" r="1.25" fill="black"/>
    <circle cx="153.762" cy="-75.2325" r="1.25" fill="black"/>
    <path d="M 95.5713 -148.995 L 95.5713 -148.295" fill="none" stroke="black" stroke-linecap="round" stroke-linejoin="round" stroke-width="2.5"/>
    <rect x="88.8713" y="-152.435" width="0.699999" height="2.5" transform="rotate(-45.0 89.2213 -151.185)" fill="black"/>
    <circle cx="88.9738" cy="-150.938" r="1.25" fill="black"/>
    <circle cx="89.4688" cy="-151.432" r="1.25" fill="black"/>
    <path d="M 145.577 -129.945 L 145.577 -129.245" fill="none" stroke="black" stroke-linecap="round" stroke-linejoin="round" stroke-width="2.5"/>
    <rect x="138.878" y="-133.385" width="0.699999" height="2.5" transform="rotate(-45.0 139.227 -132.135)" fill="black"/>
    <circle cx="138.98" cy="-131.888" r="1.25" fill="black"/>
    <circle cx="139.475" cy="-132.382" r="1.25" fill="black"/>
    <circle cx="115.812" cy="-63.45" r="0.8" fill="black"/>
    <circle cx="113.272" cy="-63.45" r="0.8" fill="black"/>
    <circle cx="118.353" cy="-63.45" r="0.8" fill="black"/>
    <path d="M 74.14 -91.845 L 74.14 -91.145" fill="none" stroke="black" stroke-linecap="round" stroke-linejoin="round" stroke-width="2.5"/>
    <rect x="67.44" y="-95.285" width="0.699999" height="2.5" transform="rotate(-45.0 67.79 -94.035)" fill="black"/>
    <circle cx="67.5425" cy="-93.7875" r="1.25" fill="black"/>
    <circle cx="68.0375" cy="-94.2825" r="1.25" fill="black"/>
    <path d="M 121.282 -58.67 L 121.282 -58.07" fill="none" stroke="black" stroke-linecap="round" stroke-linejoin="round" stroke-width="1.8"/>
    <path d="M 118.743 -58.67 L 118.743 -58.07" fill="none" stroke="black" stroke-linecap="round" stroke-linejoin="round" stroke-width="1.8"/>
    <path d="M 128.903 -58.67 L 128.903 -58.07" fill="none" stroke="black" stroke-linecap="round" stroke-linejoin="round" stroke-width="1.8"/>
    <path d="M 131.442 -58.67 L 131.442 -58.07" fill="none" stroke="black" stroke-linecap="round" stroke-linejoin="round" stroke-width="1.8"/>
    <path d="M 133.982 -58.67 L 133.982 -58.07" fill="none" stroke="black" stroke-linecap="round" stroke-linejoin="round" stroke-width="1.8"/>
    <path d="M 136.523 -58.67 L 136.523 -58.07" fill="none" stroke="black" stroke-linecap="round" stroke-linejoin="round" stroke-width="1.8"/>
    <path d="M 139.062 -58.67 L 139.062 -58.07" fill="none" stroke="black" stroke-linecap="round" stroke-linejoin="round" stroke-width="1.8"/>
    <path d="M 141.602 -58.67 L 141.602 -58.07" fill="none" stroke="black" stroke-linecap="round" stroke-linejoin="round" stroke-width="1.8"/>
    <path d="M 144.143 -58.67 L 144.143 -58.07" fill="none" stroke="black" stroke-linecap="round" stroke-linejoin="round" stroke-width="1.8"/>
    <path d="M 146.683 -58.67 L 146.683 -58.07" fill="none" stroke="black" stroke-linecap="round" stroke-linejoin="round" stroke-width="1.8"/>
    <path d="M 146.683 -43.43 L 146.683 -42.83" fill="none" stroke="black" stroke-linecap="round" stroke-linejoin="round" stroke-width="1.8"/>
    <path d="M 141.602 -43.43 L 141.602 -42.83" fill="none" stroke="black" stroke-linecap="round" stroke-linejoin="round" stroke-width="1.8"/>
    <path d="M 139.062 -43.43 L 139.062 -42.83" fill="none" stroke="black" stroke-linecap="round" stroke-linejoin="round" stroke-width="1.8"/>
    <path d="M 144.143 -43.43 L 144.143 -42.83" fill="none" stroke="black" stroke-linecap="round" stroke-linejoin="round" stroke-width="1.8"/>
    <path d="M 136.523 -43.43 L 136.523 -42.83" fill="none" stroke="black" stroke-linecap="round" stroke-linejoin="round" stroke-width="1.8"/>
    <path d="M 133.982 -43.43 L 133.982 -42.83" fill="none" stroke="black" stroke-linecap="round" stroke-linejoin="round" stroke-width="1.8"/>
    <path d="M 131.442 -43.43 L 131.442 -42.83" fill="none" stroke="black" stroke-linecap="round" stroke-linejoin="round" stroke-width="1.8"/>
    <path d="M 128.903 -43.43 L 128.903 -42.83" fill="none" stroke="black" stroke-linecap="round" stroke-linejoin="round" stroke-width="1.8"/>
    <path d="M 123.823 -58.67 L 123.823 -58.07" fill="none" stroke="black" stroke-linecap="round" stroke-linejoin="round" stroke-width="1.8"/>
    <path d="M 126.362 -58.67 L 126.362 -58.07" fill="none" stroke="black" stroke-linecap="round" stroke-linejoin="round" stroke-width="1.8"/>
    <path d="M 121.282 -43.43 L 121.282 -42.83" fill="none" stroke="black" stroke-linecap="round" stroke-linejoin="round" stroke-width="1.8"/>
    <path d="M 118.743 -43.43 L 118.743 -42.83" fill="none" stroke="black" stroke-linecap="round" stroke-linejoin="round" stroke-width="1.8"/>
    <path d="M 123.823 -43.43 L 123.823 -42.83" fill="none" stroke="black" stroke-linecap="round" stroke-linejoin="round" stroke-width="1.8"/>
    <path d="M 126.362 -43.43 L 126.362 -42.83" fill="none" stroke="black" stroke-linecap="round" stroke-linejoin="round" stroke-width="1.8"/>
    <path d="M 131.29 -91.845 L 131.29 -91.145" fill="none" stroke="black" stroke-linecap="round" stroke-linejoin="round" stroke-width="2.5"/>
    <rect x="124.59" y="-95.285" width="0.699999" height="2.5" transform="rotate(-45.0 124.94 -94.035)" fill="black"/>
    <circle cx="124.693" cy="-93.7875" r="1.25" fill="black"/>
    <circle cx="125.187" cy="-94.2825" r="1.25" fill="black"/>
    <path d="M 88.4275 -129.945 L 88.4275 -129.245" fill="none" stroke="black" stroke-linecap="round" stroke-linejoin="round" stroke-width="2.5"/>
    <rect x="81.7275" y="-133.385" width="0.699999" height="2.5" transform="rotate(-45.0 82.0775 -132.135)" fill="black"/>
    <circle cx="81.83" cy="-131.888" r="1.25" fill="black"/>
    <circle cx="82.325" cy="-132.382" r="1.25" fill="black"/>
    <path d="M 107.478 -129.945 L 107.478 -129.245" fill="none" stroke="black" stroke-linecap="round" stroke-linejoin="round" stroke-width="2.5"/>
    <rect x="100.778" y="-133.385" width="0.699999" height="2.5" transform="rotate(-45.0 101.127 -132.135)" fill="black"/>
    <circle cx="100.88" cy="-131.888" r="1.25" fill="black"/>
    <circle cx="101.375" cy="-132.382" r="1.25" fill="black"/>
    <path d="M 155.102 -110.895 L 155.102 -110.195" fill="none" stroke="black" stroke-linecap="round" stroke-linejoin="round" stroke-width="2.5"/>
    <rect x="148.403" y="-114.335" width="0.699999" height="2.5" transform="rotate(-45.0 148.752 -113.085)" fill="black"/>
    <circle cx="148.505" cy="-112.838" r="1.25" fill="black"/>
    <circle cx="149.0" cy="-113.332" r="1.25" fill="black"/>
    <path d="M 157.484 -148.995 L 157.484 -148.295" fill="none" stroke="black" stroke-linecap="round" stroke-linejoin="round" stroke-width="2.5"/>
    <rect x="150.784" y="-152.435" width="0.699999" height="2.5" transform="rotate(-45.0 151.134 -151.185)" fill="black"/>
    <circle cx="150.886" cy="-150.938" r="1.25" fill="black"/>
    <circle cx="151.381" cy="-151.432" r="1.25" fill="black"/>
    <path d="M 45.2475 -102.005 L 45.2475 -101.305" fill="none" stroke="black" stroke-linecap="round" stroke-linejoin="round" stroke-width="2.5"/>
    <rect x="51.2475" y="-100.365" width="0.699999" height="2.5" transform="rotate(-45.0 51.5975 -99.115)" fill="black"/>
    <circle cx="51.35" cy="-98.8675" r="1.25" fill="black"/>
    <circle cx="51.845" cy="-99.3625" r="1.25" fill="black"/>
    <path d="M 124.146 -148.995 L 124.146 -148.295" fill="none" stroke="black" stroke-linecap="round" stroke-linejoin="round" stroke-width="2.5"/>
    <rect x="117.446" y="-152.435" width="0.699999" height="2.5" transform="rotate(-45.0 117.796 -151.185)" fill="black"/>
    <circle cx="117.549" cy="-150.938" r="1.25" fill="black"/>
    <circle cx="118.044" cy="-151.432" r="1.25" fill="black"/>
    <path d="M 102.715 -72.795 L 102.715 -72.095" fill="none" stroke="black" stroke-linecap="round" stroke-linejoin="round" stroke-width="2.5"/>
    <rect x="96.015" y="-76.235" width="0.699999" height="2.5" transform="rotate(-45.0 96.365 -74.985)" fill="black"/>
    <circle cx="96.1175" cy="-74.7375" r="1.25" fill="black"/>
    <circle cx="96.6125" cy="-75.2325" r="1.25" fill="black"/>
    <path d="M 150.34 -91.845 L 150.34 -91.145" fill="none" stroke="black" stroke-linecap="round" stroke-linejoin="round" stroke-width="2.5"/>
    <rect x="143.64" y="-95.285" width="0.699999" height="2.5" transform="rotate(-45.0 143.99 -94.035)" fill="black"/>
    <circle cx="143.743" cy="-93.7875" r="1.25" fill="black"/>
    <circle cx="144.237" cy="-94.2825" r="1.25" fill="black"/>
    <path d="M 42.8663 -159.155 L 42.8663 -158.455" fill="none" stroke="black" stroke-linecap="round" stroke-linejoin="round" stroke-width="2.5"/>
    <rect x="48.8663" y="-157.515" width="0.699999" height="2.5" transform="rotate(-45.0 49.2163 -156.265)" fill="black"/>
    <circle cx="48.9688" cy="-156.018" r="1.25" fill="black"/>
    <circle cx="49.4638" cy="-156.512" r="1.25" fill="black"/>
    <rect x="121.312" y="-63.95" width="1.75" height="1.0" fill="black"/>
    <rect x="129.062" y="-63.95" width="1.75" height="1.0" fill="black"/>
    <path d="M 140.815 -72.795 L 140.815 -72.095" fill="none" stroke="black" stroke-linecap="round" stroke-linejoin="round" stroke-width="2.5"/>
    <rect x="134.115" y="-76.235" width="0.699999" height="2.5" transform="rotate(-45.0 134.465 -74.985)" fill="black"/>
    <circle cx="134.218" cy="-74.7375" r="1.25" fill="black"/>
    <circle cx="134.712" cy="-75.2325" r="1.25" fill="black"/>
    <path d="M 93.19 -91.845 L 93.19 -91.145" fill="none" stroke="black" stroke-linecap="round" stroke-linejoin="round" stroke-width="2.5"/>
    <rect x="86.49" y="-95.285" width="0.699999" height="2.5" transform="rotate(-45.0 86.84 -94.035)" fill="black"/>
    <circle cx="86.5925" cy="-93.7875" r="1.25" fill="black"/>
    <circle cx="87.0875" cy="-94.2825" r="1.25" fill="black"/>
    <path d="M 136.053 -110.895 L 136.053 -110.195" fill="none" stroke="black" stroke-linecap="round" stroke-linejoin="round" stroke-width="2.5"/>
    <rect x="129.353" y="-114.335" width="0.699999" height="2.5" transform="rotate(-45.0 129.702 -113.085)" fill="black"/>
    <circle cx="129.455" cy="-112.838" r="1.25" fill="black"/>
    <circle cx="129.95" cy="-113.332" r="1.25" fill="black"/>
    <path d="M 112.24 -91.845 L 112.24 -91.145" fill="none" stroke="black" stroke-linecap="round" stroke-linejoin="round" stroke-width="2.5"/>
    <rect x="105.54" y="-95.285" width="0.699999" height="2.5" transform="rotate(-45.0 105.89 -94.035)" fill="black"/>
    <circle cx="105.643" cy="-93.7875" r="1.25" fill="black"/>
    <circle cx="106.137" cy="-94.2825" r="1.25" fill="black"/>
    <path d="M 66.9963 -129.945 L 66.9963 -129.245" fill="none" stroke="black" stroke-linecap="round" stroke-linejoin="round" stroke-width="2.5"/>
    <rect x="60.2963" y="-133.385" width="0.699999" height="2.5" transform="rotate(-45.0 60.6463 -132.135)" fill="black"/>
    <circle cx="60.3988" cy="-131.888" r="1.25" fill="black"/>
    <circle cx="60.8938" cy="-132.382" r="1.25" fill="black"/>
    <path d="M 83.665 -72.795 L 83.665 -72.095" fill="none" stroke="black" stroke-linecap="round" stroke-linejoin="round" stroke-width="2.5"/>
    <rect x="76.965" y="-76.235" width="0.699999" height="2.5" transform="rotate(-45.0 77.315 -74.985)" fill="black"/>
    <circle cx="77.0675" cy="-74.7375" r="1.25" fill="black"/>
    <circle cx="77.5625" cy="-75.2325" r="1.25" fill="black"/>
    <path d="M 164.627 -129.945 L 164.627 -129.245" fill="none" stroke="black" stroke-linecap="round" stroke-linejoin="round" stroke-width="2.5"/>
    <rect x="157.928" y="-133.385" width="0.699999" height="2.5" transform="rotate(-45.0 158.278 -132.135)" fill="black"/>
    <circle cx="158.03" cy="-131.888" r="1.25" fill="black"/>
    <circle cx="158.525" cy="-132.382" r="1.25" fill="black"/>
    <path d="M 121.765 -72.795 L 121.765 -72.095" fill="none" stroke="black" stroke-linecap="round" stroke-linejoin="round" stroke-width="2.5"/>
    <rect x="115.065" y="-76.235" width="0.699999" height="2.5" transform="rotate(-45.0 115.415 -74.985)" fill="black"/>
    <circle cx="115.168" cy="-74.7375" r="1.25" fill="black"/>
    <circle cx="115.662" cy="-75.2325" r="1.25" fill="black"/>
    <path d="M 47.6287 -121.055 L 47.6287 -120.355" fill="none" stroke="black" stroke-linecap="round" stroke-linejoin="round" stroke-width="2.5"/>
    <rect x="53.6287" y="-119.415" width="0.699999" height="2.5" transform="rotate(-45.0 53.9787 -118.165)" fill="black"/>
    <circle cx="53.7312" cy="-117.918" r="1.25" fill="black"/>
    <circle cx="54.2262" cy="-118.412" r="1.25" fill="black"/>
    <path d="M 97.9525 -110.895 L 97.9525 -110.195" fill="none" stroke="black" stroke-linecap="round" stroke-linejoin="round" stroke-width="2.5"/>
    <rect x="91.2525" y="-114.335" width="0.699999" height="2.5" transform="rotate(-45.0 91.6025 -113.085)" fill="black"/>
    <circle cx="91.355" cy="-112.838" r="1.25" fill="black"/>
    <circle cx="91.85" cy="-113.332" r="1.25" fill="black"/>
    <path d="M 126.528 -129.945 L 126.528 -129.245" fill="none" stroke="black" stroke-linecap="round" stroke-linejoin="round" stroke-width="2.5"/>
    <rect x="119.828" y="-133.385" width="0.699999" height="2.5" transform="rotate(-45.0 120.177 -132.135)" fill="black"/>
    <circle cx="119.93" cy="-131.888" r="1.25" fill="black"/>
    <circle cx="120.425" cy="-132.382" r="1.25" fill="black"/>
    <path d="M 40.485 -82.955 L 40.485 -82.255" fill="none" stroke="black" stroke-linecap="round" stroke-linejoin="round" stroke-width="2.5"/>
    <rect x="46.485" y="-81.315" width="0.699999" height="2.5" transform="rotate(-45.0 46.835 -80.065)" fill="black"/>
    <circle cx="46.5875" cy="-79.8175" r="1.25" fill="black"/>
    <circle cx="47.0825" cy="-80.3125" r="1.25" fill="black"/>
    <path d="M 115.612 -59.4 L 116.013 -59.4" fill="none" stroke="black" stroke-linecap="round" stroke-linejoin="round" stroke-width="1.8"/>
    <path d="M 113.072 -59.4 L 113.472 -59.4" fill="none" stroke="black" stroke-linecap="round" stroke-linejoin="round" stroke-width="1.8"/>
    <path d="M 78.9025 -110.895 L 78.9025 -110.195" fill="none" stroke="black" stroke-linecap="round" stroke-linejoin="round" stroke-width="2.5"/>
    <rect x="72.2025" y="-114.335" width="0.699999" height="2.5" transform="rotate(-45.0 72.5525 -113.085)" fill="black"/>
    <circle cx="72.305" cy="-112.838" r="1.25" fill="black"/>
    <circle cx="72.8" cy="-113.332" r="1.25" fill="black"/>
    <path d="M 40.485 -140.105 L 40.485 -139.405" fill="none" stroke="black" stroke-linecap="round" stroke-linejoin="round" stroke-width="2.5"/>
    <rect x="46.485" y="-138.465" width="0.699999" height="2.5" transform="rotate(-45.0 46.835 -137.215)" fill="black"/>
    <circle cx="46.5875" cy="-136.968" r="1.25" fill="black"/>
    <circle cx="47.0825" cy="-137.462" r="1.25" fill="black"/>
    <path d="M 64.615 -72.795 L 64.615 -72.095" fill="none" stroke="black" stroke-linecap="round" stroke-linejoin="round" stroke-width="2.5"/>
    <rect x="57.915" y="-76.235" width="0.699999" height="2.5" transform="rotate(-45.0 58.265 -74.985)" fill="black"/>
    <circle cx="58.0175" cy="-74.7375" r="1.25" fill="black"/>
    <circle cx="58.5125" cy="-75.2325" r="1.25" fill="black"/>
    <path d="M 117.002 -110.895 L 117.002 -110.195" fill="none" stroke="black" stroke-linecap="round" stroke-linejoin="round" stroke-width="2.5"/>
    <rect x="110.303" y="-114.335" width="0.699999" height="2.5" transform="rotate(-45.0 110.653 -113.085)" fill="black"/>
    <circle cx="110.405" cy="-112.838" r="1.25" fill="black"/>
    <circle cx="110.9" cy="-113.332" r="1.25" fill="black"/>
    <circle cx="128.5" cy="-70.0" r="0.3" fill="black"/>
    <circle cx="136.5" cy="-59.4" r="0.3" fill="black"/>
    <circle cx="103.416" cy="-94.2859" r="0.3" fill="black"/>
    <circle cx="71.7588" cy="-139.405" r="0.3" fill="black"/>
    <circle cx="160.128" cy="-80.057" r="0.3" fill="black"/>
    <circle cx="91.5" cy="-70.3" r="0.3" fill="black"/>
    <circle cx="97.9525" cy="-103.492" r="0.3" fill="black"/>
    <circle cx="129.0" cy="-68.0" r="0.3" fill="black"/>
    <circle cx="98.8682" cy="-104.325" r="0.3" fill="black"/>
    <circle cx="124.619" cy="-144.567" r="0.3" fill="black"/>
    <circle cx="117.002" cy="-100.5" r="0.3" fill="black"/>
    <circle cx="109.911" cy="-124.441" r="0.3" fill="black"/>
    <circle cx="136.053" cy="-103.492" r="0.3" fill="black"/>
    <circle cx="127.5" cy="-125.75" r="0.3" fill="black"/>
    <circle cx="128.025" cy="-74.875" r="0.3" fill="black"/>
    <circle cx="150.005" cy="-70.1751" r="0.3" fill="black"/>
    <circle cx="109.145" cy="-70.9531" r="0.3" fill="black"/>
    <circle cx="101.165" cy="-70.9683" r="0.3" fill="black"/>
    <circle cx="115.625" cy="-79.275" r="0.3" fill="black"/>
    <circle cx="121.925" cy="-80.075" r="0.3" fill="black"/>
    <circle cx="110.725" cy="-77.675" r="0.3" fill="black"/>
    <circle cx="142.286" cy="-106.356" r="0.3" fill="black"/>
    <circle cx="139.918" cy="-127.434" r="0.3" fill="black"/>
    <circle cx="145.118" cy="-88.6514" r="0.3" fill="black"/>
    <circle cx="150.85" cy="-61.5945" r="0.3" fill="black"/>
    <circle cx="136.385" cy="-145.366" r="0.3" fill="black"/>
    <circle cx="131.3" cy="-63.45" r="0.3" fill="black"/>
    <path d="M 66.9963 -129.595 L 69.266 -131.865" fill="none" stroke="black" stroke-linecap="round" stroke-linejoin="round" stroke-width="0.25"/>
    <path d="M 78.9025 -96.2575 L 78.5 -95.6263" fill="none" stroke="black" stroke-linecap="round" stroke-linejoin="round" stroke-width="0.25"/>
    <path d="M 78.3337 -95.4111 L 74.14 -91.495" fill="none" stroke="black" stroke-linecap="round" stroke-linejoin="round" stroke-width="0.25"/>
    <path d="M 122.036 -76.642 L 122.118 -76.9622" fill="none" stroke="black" stroke-linecap="round" stroke-linejoin="round" stroke-width="0.25"/>
    <path d="M 121.358 -75.4916 L 121.572 -75.7432" fill="none" stroke="black" stroke-linecap="round" stroke-linejoin="round" stroke-width="0.25"/>
    <path d="M 122.17 -77.43 L 122.162 -77.7604" fill="none" stroke="black" stroke-linecap="round" stroke-linejoin="round" stroke-width="0.25"/>
    <path d="M 121.587 -79.2871 L 121.375 -79.5404" fill="none" stroke="black" stroke-linecap="round" stroke-linejoin="round" stroke-width="0.25"/>
    <path d="M 125.6 -70.5 L 125.6 -74.5" fill="none" stroke="black" stroke-linecap="round" stroke-linejoin="round" stroke-width="0.25"/>
    <path d="M 103.466 -84.596 L 103.416 -94.2859" fill="none" stroke="black" stroke-linecap="round" stroke-linejoin="round" stroke-width="0.25"/>
    <path d="M 122.118 -78.0878 L 122.029 -78.4318" fill="none" stroke="black" stroke-linecap="round" stroke-linejoin="round" stroke-width="0.25"/>
    <path d="M 71.7588 -134.357 L 71.7588 -139.405" fill="none" stroke="black" stroke-linecap="round" stroke-linejoin="round" stroke-width="0.25"/>
    <path d="M 121.91 -76.3101 L 122.036 -76.642" fill="none" stroke="black" stroke-linecap="round" stroke-linejoin="round" stroke-width="0.25"/>
    <path d="M 120.264 -74.7675 L 120.588 -74.9126" fill="none" stroke="black" stroke-linecap="round" stroke-linejoin="round" stroke-width="0.25"/>
    <path d="M 65.5748 -73.4048 L 64.615 -72.445" fill="none" stroke="black" stroke-linecap="round" stroke-linejoin="round" stroke-width="0.25"/>
    <path d="M 120.567 -80.1487 L 115.205 -83.0073" fill="none" stroke="black" stroke-linecap="round" stroke-linejoin="round" stroke-width="0.25"/>
    <path d="M 119.206 -72.633 L 115.43 -72.633" fill="none" stroke="black" stroke-linecap="round" stroke-linejoin="round" stroke-width="0.25"/>
    <path d="M 78.9025 -104.185 L 78.9025 -96.2575" fill="none" stroke="black" stroke-linecap="round" stroke-linejoin="round" stroke-width="0.25"/>
    <path d="M 78.9025 -104.185 L 78.9025 -110.136" fill="none" stroke="black" stroke-linecap="round" stroke-linejoin="round" stroke-width="0.25"/>
    <path d="M 114.449 -83.2588 L 103.466 -84.596" fill="none" stroke="black" stroke-linecap="round" stroke-linejoin="round" stroke-width="0.25"/>
    <path d="M 78.5 -95.6263 L 78.3337 -95.4111" fill="none" stroke="black" stroke-linecap="round" stroke-linejoin="round" stroke-width="0.25"/>
    <path d="M 121.757 -79.0328 L 121.587 -79.2871" fill="none" stroke="black" stroke-linecap="round" stroke-linejoin="round" stroke-width="0.25"/>
    <path d="M 71.19 -133.511 L 71.3563 -133.726" fill="none" stroke="black" stroke-linecap="round" stroke-linejoin="round" stroke-width="0.25"/>
    <path d="M 71.7588 -139.405 L 71.7588 -148.645" fill="none" stroke="black" stroke-linecap="round" stroke-linejoin="round" stroke-width="0.25"/>
    <path d="M 121.136 -79.7684 L 120.852 -79.982" fill="none" stroke="black" stroke-linecap="round" stroke-linejoin="round" stroke-width="0.25"/>
    <path d="M 125.6 -74.5 L 119.5 -74.5 L 119.206 -72.633" fill="none" stroke="black" stroke-linecap="round" stroke-linejoin="round" stroke-width="0.25"/>
    <path d="M 135.123 -59.7698 L 136.5 -59.4" fill="none" stroke="black" stroke-linecap="round" stroke-linejoin="round" stroke-width="0.25"/>
    <path d="M 114.985 -83.1174 L 114.722 -83.2073" fill="none" stroke="black" stroke-linecap="round" stroke-linejoin="round" stroke-width="0.25"/>
    <path d="M 65.5748 -82.9298 L 65.5748 -73.4048" fill="none" stroke="black" stroke-linecap="round" stroke-linejoin="round" stroke-width="0.25"/>
    <path d="M 71.0702 -133.391 L 71.19 -133.511" fill="none" stroke="black" stroke-linecap="round" stroke-linejoin="round" stroke-width="0.25"/>
    <path d="M 120.852 -79.982 L 120.567 -80.1487" fill="none" stroke="black" stroke-linecap="round" stroke-linejoin="round" stroke-width="0.25"/>
    <path d="M 79.7275 -121.403 L 69.266 -131.865" fill="none" stroke="black" stroke-linecap="round" stroke-linejoin="round" stroke-width="0.25"/>
    <path d="M 122.141 -77.1008 L 122.17 -77.43" fill="none" stroke="black" stroke-linecap="round" stroke-linejoin="round" stroke-width="0.25"/>
    <path d="M 79.7275 -110.962 L 79.7275 -121.403" fill="none" stroke="black" stroke-linecap="round" stroke-linejoin="round" stroke-width="0.25"/>
    <path d="M 121.572 -75.7432 L 121.757 -76.0172" fill="none" stroke="black" stroke-linecap="round" stroke-linejoin="round" stroke-width="0.25"/>
    <path d="M 74.14 -91.495 L 65.5748 -82.9298" fill="none" stroke="black" stroke-linecap="round" stroke-linejoin="round" stroke-width="0.25"/>
    <path d="M 120.872 -75.0817 L 121.117 -75.2656" fill="none" stroke="black" stroke-linecap="round" stroke-linejoin="round" stroke-width="0.25"/>
    <path d="M 121.757 -76.0172 L 121.91 -76.3101" fill="none" stroke="black" stroke-linecap="round" stroke-linejoin="round" stroke-width="0.25"/>
    <path d="M 78.9025 -110.545 L 78.9025 -104.185" fill="none" stroke="black" stroke-linecap="round" stroke-linejoin="round" stroke-width="0.25"/>
    <path d="M 121.117 -75.2656 L 121.358 -75.4916" fill="none" stroke="black" stroke-linecap="round" stroke-linejoin="round" stroke-width="0.25"/>
    <path d="M 121.91 -78.7399 L 121.757 -79.0328" fill="none" stroke="black" stroke-linecap="round" stroke-linejoin="round" stroke-width="0.25"/>
    <path d="M 115.205 -83.0073 L 114.985 -83.1174" fill="none" stroke="black" stroke-linecap="round" stroke-linejoin="round" stroke-width="0.25"/>
    <path d="M 78.9025 -110.136 L 79.7275 -110.962" fill="none" stroke="black" stroke-linecap="round" stroke-linejoin="round" stroke-width="0.25"/>
    <path d="M 122.162 -77.7604 L 122.118 -78.0878" fill="none" stroke="black" stroke-linecap="round" stroke-linejoin="round" stroke-width="0.25"/>
    <path d="M 114.722 -83.2073 L 114.449 -83.2588" fill="none" stroke="black" stroke-linecap="round" stroke-linejoin="round" stroke-width="0.25"/>
    <path d="M 69.266 -131.865 L 71.0702 -133.391" fill="none" stroke="black" stroke-linecap="round" stroke-linejoin="round" stroke-width="0.25"/>
    <path d="M 121.375 -79.5404 L 121.136 -79.7684" fill="none" stroke="black" stroke-linecap="round" stroke-linejoin="round" stroke-width="0.25"/>
    <path d="M 71.3563 -133.726 L 71.7588 -134.357" fill="none" stroke="black" stroke-linecap="round" stroke-linejoin="round" stroke-width="0.25"/>
    <path d="M 128.5 -70.0 L 125.6 -70.5" fill="none" stroke="black" stroke-linecap="round" stroke-linejoin="round" stroke-width="0.25"/>
    <path d="M 122.118 -76.9622 L 122.141 -77.1008" fill="none" stroke="black" stroke-linecap="round" stroke-linejoin="round" stroke-width="0.25"/>
    <path d="M 122.029 -78.4318 L 121.91 -78.7399" fill="none" stroke="black" stroke-linecap="round" stroke-linejoin="round" stroke-width="0.25"/>
    <path d="M 120.588 -74.9126 L 120.872 -75.0817" fill="none" stroke="black" stroke-linecap="round" stroke-linejoin="round" stroke-width="0.25"/>
    <path d="M 136.523 -58.37 L 135.123 -59.7698" fill="none" stroke="black" stroke-linecap="round" stroke-linejoin="round" stroke-width="0.25"/>
    <path d="M 115.43 -72.633 L 120.264 -74.7675" fill="none" stroke="black" stroke-linecap="round" stroke-linejoin="round" stroke-width="0.25"/>
    <path d="M 159.802 -124.77 L 159.802 -110.496" fill="none" stroke="black" stroke-linecap="round" stroke-linejoin="round" stroke-width="0.25"/>
    <path d="M 164.627 -129.595 L 159.802 -124.77" fill="none" stroke="black" stroke-linecap="round" stroke-linejoin="round" stroke-width="0.25"/>
    <path d="M 155.119 -105.813 L 155.119 -82.5508" fill="none" stroke="black" stroke-linecap="round" stroke-linejoin="round" stroke-width="0.25"/>
    <path d="M 160.525 -73.1049 L 160.525 -79.6599" fill="none" stroke="black" stroke-linecap="round" stroke-linejoin="round" stroke-width="0.25"/>
    <path d="M 159.334 -80.8512 L 160.128 -80.057" fill="none" stroke="black" stroke-linecap="round" stroke-linejoin="round" stroke-width="0.25"/>
    <path d="M 156.819 -80.8512 L 159.334 -80.8512" fill="none" stroke="black" stroke-linecap="round" stroke-linejoin="round" stroke-width="0.25"/>
    <path d="M 155.119 -82.5508 L 156.819 -80.8512" fill="none" stroke="black" stroke-linecap="round" stroke-linejoin="round" stroke-width="0.25"/>
    <path d="M 159.802 -110.496 L 155.119 -105.813" fill="none" stroke="black" stroke-linecap="round" stroke-linejoin="round" stroke-width="0.25"/>
    <path d="M 160.525 -79.6599 L 160.128 -80.057" fill="none" stroke="black" stroke-linecap="round" stroke-linejoin="round" stroke-width="0.25"/>
    <path d="M 159.865 -72.445 L 160.525 -73.1049" fill="none" stroke="black" stroke-linecap="round" stroke-linejoin="round" stroke-width="0.25"/>
    <path d="M 97.3837 -95.4111 L 97.55 -95.6263" fill="none" stroke="black" stroke-linecap="round" stroke-linejoin="round" stroke-width="0.25"/>
    <path d="M 85.9174 -70.1926 L 90.3462 -70.1926 L 91.5 -70.3" fill="none" stroke="black" stroke-linecap="round" stroke-linejoin="round" stroke-width="0.25"/>
    <path d="M 93.19 -91.495 L 97.3837 -95.4111" fill="none" stroke="black" stroke-linecap="round" stroke-linejoin="round" stroke-width="0.25"/>
    <path d="M 97.55 -95.6263 L 97.9525 -96.2575" fill="none" stroke="black" stroke-linecap="round" stroke-linejoin="round" stroke-width="0.25"/>
    <path d="M 97.9525 -103.492 L 97.9525 -110.545" fill="none" stroke="black" stroke-linecap="round" stroke-linejoin="round" stroke-width="0.25"/>
    <path d="M 88.4275 -129.595 L 92.6212 -133.511" fill="none" stroke="black" stroke-linecap="round" stroke-linejoin="round" stroke-width="0.25"/>
    <path d="M 97.9525 -96.2575 L 97.9525 -103.492" fill="none" stroke="black" stroke-linecap="round" stroke-linejoin="round" stroke-width="0.25"/>
    <path d="M 83.665 -72.445 L 85.9174 -70.1926" fill="none" stroke="black" stroke-linecap="round" stroke-linejoin="round" stroke-width="0.25"/>
    <path d="M 92.6212 -133.511 L 95.5713 -136.739 L 95.5713 -148.645" fill="none" stroke="black" stroke-linecap="round" stroke-linejoin="round" stroke-width="0.25"/>
    <path d="M 147.488 -111.501 L 152.003 -107.445" fill="none" stroke="black" stroke-linecap="round" stroke-linejoin="round" stroke-width="0.25"/>
    <path d="M 155.102 -110.545 L 152.003 -107.445" fill="none" stroke="black" stroke-linecap="round" stroke-linejoin="round" stroke-width="0.25"/>
    <path d="M 145.339 -114.108 L 147.281 -111.683" fill="none" stroke="black" stroke-linecap="round" stroke-linejoin="round" stroke-width="0.25"/>
    <path d="M 145.339 -129.357 L 145.339 -114.108" fill="none" stroke="black" stroke-linecap="round" stroke-linejoin="round" stroke-width="0.25"/>
    <path d="M 140.5 -71.75 L 140.815 -72.445" fill="none" stroke="black" stroke-linecap="round" stroke-linejoin="round" stroke-width="0.25"/>
    <path d="M 151.3 -106.742 L 151.3 -92.4548" fill="none" stroke="black" stroke-linecap="round" stroke-linejoin="round" stroke-width="0.25"/>
    <path d="M 152.003 -107.445 L 151.3 -106.742" fill="none" stroke="black" stroke-linecap="round" stroke-linejoin="round" stroke-width="0.25"/>
    <path d="M 151.3 -92.4548 L 150.34 -91.495" fill="none" stroke="black" stroke-linecap="round" stroke-linejoin="round" stroke-width="0.25"/>
    <path d="M 147.321 -111.651 L 147.375 -111.59" fill="none" stroke="black" stroke-linecap="round" stroke-linejoin="round" stroke-width="0.25"/>
    <path d="M 145.577 -129.595 L 145.339 -129.357" fill="none" stroke="black" stroke-linecap="round" stroke-linejoin="round" stroke-width="0.25"/>
    <path d="M 147.375 -111.59 L 147.488 -111.501" fill="none" stroke="black" stroke-linecap="round" stroke-linejoin="round" stroke-width="0.25"/>
    <path d="M 144.143 -58.37 L 140.815 -61.6975" fill="none" stroke="black" stroke-linecap="round" stroke-linejoin="round" stroke-width="0.25"/>
    <path d="M 147.281 -111.683 L 147.321 -111.651" fill="none" stroke="black" stroke-linecap="round" stroke-linejoin="round" stroke-width="0.25"/>
    <path d="M 140.815 -61.6975 L 140.5 -71.75" fill="none" stroke="black" stroke-linecap="round" stroke-linejoin="round" stroke-width="0.25"/>
    <path d="M 115.812 -59.4 L 115.812 -63.45" fill="none" stroke="black" stroke-linecap="round" stroke-linejoin="round" stroke-width="0.75"/>
    <path d="M 111.3 -55.0 L 111.3 -47.0" fill="none" stroke="black" stroke-linecap="round" stroke-linejoin="round" stroke-width="0.75"/>
    <path d="M 111.3 -63.45 L 111.3 -55.0" fill="none" stroke="black" stroke-linecap="round" stroke-linejoin="round" stroke-width="0.75"/>
    <path d="M 111.3 -47.0 L 118.743 -43.13" fill="none" stroke="black" stroke-linecap="round" stroke-linejoin="round" stroke-width="0.75"/>
    <path d="M 113.272 -63.45 L 111.3 -63.45" fill="none" stroke="black" stroke-linecap="round" stroke-linejoin="round" stroke-width="0.75"/>
    <path d="M 98.8682 -102.407 L 98.8682 -104.325" fill="none" stroke="black" stroke-linecap="round" stroke-linejoin="round" stroke-width="0.25"/>
    <path d="M 47.6287 -120.705 L 46.6689 -119.745" fill="none" stroke="black" stroke-linecap="round" stroke-linejoin="round" stroke-width="0.25"/>
    <path d="M 46.6689 -103.076 L 45.2475 -101.655" fill="none" stroke="black" stroke-linecap="round" stroke-linejoin="round" stroke-width="0.25"/>
    <path d="M 102.525 -98.7502 L 98.8682 -102.407" fill="none" stroke="black" stroke-linecap="round" stroke-linejoin="round" stroke-width="0.25"/>
    <path d="M 40.485 -96.8925 L 40.485 -82.605" fill="none" stroke="black" stroke-linecap="round" stroke-linejoin="round" stroke-width="0.25"/>
    <path d="M 42.8663 -158.805 L 41.8908 -157.829" fill="none" stroke="black" stroke-linecap="round" stroke-linejoin="round" stroke-width="0.25"/>
    <path d="M 121.288 -70.4668 L 121.039 -70.5615" fill="none" stroke="black" stroke-linecap="round" stroke-linejoin="round" stroke-width="0.25"/>
    <path d="M 41.8908 -141.161 L 40.485 -139.755" fill="none" stroke="black" stroke-linecap="round" stroke-linejoin="round" stroke-width="0.25"/>
    <path d="M 40.8875 -97.5237 L 40.485 -96.8925" fill="none" stroke="black" stroke-linecap="round" stroke-linejoin="round" stroke-width="0.25"/>
    <path d="M 41.8908 -157.829 L 41.8908 -141.161" fill="none" stroke="black" stroke-linecap="round" stroke-linejoin="round" stroke-width="0.25"/>
    <path d="M 117.925 -71.8871 L 115.345 -71.8871" fill="none" stroke="black" stroke-linecap="round" stroke-linejoin="round" stroke-width="0.25"/>
    <path d="M 129.0 -68.0 L 121.288 -70.4668" fill="none" stroke="black" stroke-linecap="round" stroke-linejoin="round" stroke-width="0.25"/>
    <path d="M 46.6689 -119.745 L 46.6689 -103.076" fill="none" stroke="black" stroke-linecap="round" stroke-linejoin="round" stroke-width="0.25"/>
    <path d="M 41.0538 -97.7389 L 40.8875 -97.5237" fill="none" stroke="black" stroke-linecap="round" stroke-linejoin="round" stroke-width="0.25"/>
    <path d="M 45.2475 -101.655 L 41.0538 -97.7389" fill="none" stroke="black" stroke-linecap="round" stroke-linejoin="round" stroke-width="0.25"/>
    <path d="M 115.345 -71.8871 L 102.525 -84.7074" fill="none" stroke="black" stroke-linecap="round" stroke-linejoin="round" stroke-width="0.25"/>
    <path d="M 121.039 -70.5615 L 117.925 -71.8871" fill="none" stroke="black" stroke-linecap="round" stroke-linejoin="round" stroke-width="0.25"/>
    <path d="M 102.525 -84.7074 L 102.525 -98.7502" fill="none" stroke="black" stroke-linecap="round" stroke-linejoin="round" stroke-width="0.25"/>
    <path d="M 107.478 -126.874 L 109.911 -124.441" fill="none" stroke="black" stroke-linecap="round" stroke-linejoin="round" stroke-width="0.25"/>
    <path d="M 117.002 -92.9671 L 113.712 -92.9671" fill="none" stroke="black" stroke-linecap="round" stroke-linejoin="round" stroke-width="0.25"/>
    <path d="M 117.002 -92.9671 L 117.002 -100.5" fill="none" stroke="black" stroke-linecap="round" stroke-linejoin="round" stroke-width="0.25"/>
    <path d="M 130.121 -79.8489 L 130.121 -67.3118" fill="none" stroke="black" stroke-linecap="round" stroke-linejoin="round" stroke-width="0.25"/>
    <path d="M 117.002 -92.9671 L 130.121 -79.8489" fill="none" stroke="black" stroke-linecap="round" stroke-linejoin="round" stroke-width="0.25"/>
    <path d="M 107.478 -129.595 L 107.478 -126.874" fill="none" stroke="black" stroke-linecap="round" stroke-linejoin="round" stroke-width="0.25"/>
    <path d="M 113.712 -92.9671 L 112.24 -91.495" fill="none" stroke="black" stroke-linecap="round" stroke-linejoin="round" stroke-width="0.25"/>
    <path d="M 117.002 -110.545 L 117.002 -100.5" fill="none" stroke="black" stroke-linecap="round" stroke-linejoin="round" stroke-width="0.25"/>
    <path d="M 124.146 -145.04 L 124.146 -148.645" fill="none" stroke="black" stroke-linecap="round" stroke-linejoin="round" stroke-width="0.25"/>
    <path d="M 130.121 -67.3118 L 139.062 -58.37" fill="none" stroke="black" stroke-linecap="round" stroke-linejoin="round" stroke-width="0.25"/>
    <path d="M 124.619 -144.567 L 124.146 -145.04" fill="none" stroke="black" stroke-linecap="round" stroke-linejoin="round" stroke-width="0.25"/>
    <path d="M 131.074 -91.2789 L 131.074 -68.8986" fill="none" stroke="black" stroke-linecap="round" stroke-linejoin="round" stroke-width="0.25"/>
    <path d="M 126.528 -126.35 L 127.5 -125.75" fill="none" stroke="black" stroke-linecap="round" stroke-linejoin="round" stroke-width="0.25"/>
    <path d="M 136.053 -96.2575 L 136.053 -103.492" fill="none" stroke="black" stroke-linecap="round" stroke-linejoin="round" stroke-width="0.25"/>
    <path d="M 131.29 -91.495 L 135.461 -95.3866" fill="none" stroke="black" stroke-linecap="round" stroke-linejoin="round" stroke-width="0.25"/>
    <path d="M 135.571 -95.5154 L 136.053 -96.2575" fill="none" stroke="black" stroke-linecap="round" stroke-linejoin="round" stroke-width="0.25"/>
    <path d="M 136.053 -103.492 L 136.053 -110.545" fill="none" stroke="black" stroke-linecap="round" stroke-linejoin="round" stroke-width="0.25"/>
    <path d="M 131.29 -91.495 L 131.074 -91.2789" fill="none" stroke="black" stroke-linecap="round" stroke-linejoin="round" stroke-width="0.25"/>
    <path d="M 135.461 -95.3866 L 135.571 -95.5154" fill="none" stroke="black" stroke-linecap="round" stroke-linejoin="round" stroke-width="0.25"/>
    <path d="M 126.528 -126.35 L 126.528 -129.595" fill="none" stroke="black" stroke-linecap="round" stroke-linejoin="round" stroke-width="0.25"/>
    <path d="M 131.074 -68.8986 L 141.602 -58.37" fill="none" stroke="black" stroke-linecap="round" stroke-linejoin="round" stroke-width="0.25"/>
    <path d="M 102.02 -70.547 L 102.271 -70.4574" fill="none" stroke="black" stroke-linecap="round" stroke-linejoin="round" stroke-width="0.25"/>
    <path d="M 112.611 -78.8089 L 112.491 -78.6887" fill="none" stroke="black" stroke-linecap="round" stroke-linejoin="round" stroke-width="0.25"/>
    <path d="M 113.191 -79.1564 L 113.034 -79.0914" fill="none" stroke="black" stroke-linecap="round" stroke-linejoin="round" stroke-width="0.25"/>
    <path d="M 101.165 -70.9683 L 102.02 -70.547" fill="none" stroke="black" stroke-linecap="round" stroke-linejoin="round" stroke-width="0.25"/>
    <path d="M 125.936 -78.7136 L 125.761 -78.8752" fill="none" stroke="black" stroke-linecap="round" stroke-linejoin="round" stroke-width="0.25"/>
    <path d="M 102.533 -70.4081 L 102.666 -70.399" fill="none" stroke="black" stroke-linecap="round" stroke-linejoin="round" stroke-width="0.25"/>
    <path d="M 150.005 -46.4524 L 146.683 -43.13" fill="none" stroke="black" stroke-linecap="round" stroke-linejoin="round" stroke-width="0.25"/>
    <path d="M 150.005 -70.1751 L 150.005 -46.4524" fill="none" stroke="black" stroke-linecap="round" stroke-linejoin="round" stroke-width="0.25"/>
    <path d="M 102.666 -70.399 L 102.932 -70.4122" fill="none" stroke="black" stroke-linecap="round" stroke-linejoin="round" stroke-width="0.25"/>
    <path d="M 113.034 -79.0914 L 112.826 -78.975" fill="none" stroke="black" stroke-linecap="round" stroke-linejoin="round" stroke-width="0.25"/>
    <path d="M 126.242 -78.2656 L 126.106 -78.5015" fill="none" stroke="black" stroke-linecap="round" stroke-linejoin="round" stroke-width="0.25"/>
    <path d="M 113.588 -79.2476 L 113.321 -79.1972 L 113.191 -79.1564" fill="none" stroke="black" stroke-linecap="round" stroke-linejoin="round" stroke-width="0.25"/>
    <path d="M 125.331 -79.1323 L 125.161 -79.1881" fill="none" stroke="black" stroke-linecap="round" stroke-linejoin="round" stroke-width="0.25"/>
    <path d="M 125.761 -78.8752 L 125.536 -79.0286" fill="none" stroke="black" stroke-linecap="round" stroke-linejoin="round" stroke-width="0.25"/>
    <path d="M 113.86 -79.2557 L 113.588 -79.2476" fill="none" stroke="black" stroke-linecap="round" stroke-linejoin="round" stroke-width="0.25"/>
    <path d="M 128.025 -74.875 L 126.242 -78.2656" fill="none" stroke="black" stroke-linecap="round" stroke-linejoin="round" stroke-width="0.25"/>
    <path d="M 112.826 -78.975 L 112.611 -78.8089" fill="none" stroke="black" stroke-linecap="round" stroke-linejoin="round" stroke-width="0.25"/>
    <path d="M 126.106 -78.5015 L 125.936 -78.7136" fill="none" stroke="black" stroke-linecap="round" stroke-linejoin="round" stroke-width="0.25"/>
    <path d="M 112.354 -78.5073 L 110.725 -77.675" fill="none" stroke="black" stroke-linecap="round" stroke-linejoin="round" stroke-width="0.25"/>
    <path d="M 125.536 -79.0286 L 125.331 -79.1323" fill="none" stroke="black" stroke-linecap="round" stroke-linejoin="round" stroke-width="0.25"/>
    <path d="M 125.161 -79.1881 L 121.925 -80.075" fill="none" stroke="black" stroke-linecap="round" stroke-linejoin="round" stroke-width="0.25"/>
    <path d="M 112.404 -78.5846 L 112.354 -78.5073" fill="none" stroke="black" stroke-linecap="round" stroke-linejoin="round" stroke-width="0.25"/>
    <path d="M 102.271 -70.4574 L 102.533 -70.4081" fill="none" stroke="black" stroke-linecap="round" stroke-linejoin="round" stroke-width="0.25"/>
    <path d="M 112.491 -78.6887 L 112.404 -78.5846" fill="none" stroke="black" stroke-linecap="round" stroke-linejoin="round" stroke-width="0.25"/>
    <path d="M 102.932 -70.4122 L 109.145 -70.9531" fill="none" stroke="black" stroke-linecap="round" stroke-linejoin="round" stroke-width="0.25"/>
    <path d="M 115.625 -79.275 L 113.86 -79.2557" fill="none" stroke="black" stroke-linecap="round" stroke-linejoin="round" stroke-width="0.25"/>
    <path d="M 140.618 -102.018 L 142.286 -103.686" fill="none" stroke="black" stroke-linecap="round" stroke-linejoin="round" stroke-width="0.25"/>
    <path d="M 140.618 -89.5041 L 140.618 -102.018" fill="none" stroke="black" stroke-linecap="round" stroke-linejoin="round" stroke-width="0.25"/>
    <path d="M 141.602 -43.13 L 149.198 -50.7254 L 149.198 -80.9237 L 140.618 -89.5041" fill="none" stroke="black" stroke-linecap="round" stroke-linejoin="round" stroke-width="0.25"/>
    <path d="M 142.286 -103.686 L 142.286 -106.356" fill="none" stroke="black" stroke-linecap="round" stroke-linejoin="round" stroke-width="0.25"/>
    <path d="M 140.707 -102.976 L 140.707 -126.645" fill="none" stroke="black" stroke-linecap="round" stroke-linejoin="round" stroke-width="0.25"/>
    <path d="M 148.607 -79.2654 L 140.066 -87.8067" fill="none" stroke="black" stroke-linecap="round" stroke-linejoin="round" stroke-width="0.25"/>
    <path d="M 140.707 -126.645 L 139.918 -127.434" fill="none" stroke="black" stroke-linecap="round" stroke-linejoin="round" stroke-width="0.25"/>
    <path d="M 140.066 -102.335 L 140.707 -102.976" fill="none" stroke="black" stroke-linecap="round" stroke-linejoin="round" stroke-width="0.25"/>
    <path d="M 140.066 -87.8067 L 140.066 -102.335" fill="none" stroke="black" stroke-linecap="round" stroke-linejoin="round" stroke-width="0.25"/>
    <path d="M 148.607 -52.6746 L 148.607 -79.2654" fill="none" stroke="black" stroke-linecap="round" stroke-linejoin="round" stroke-width="0.25"/>
    <path d="M 139.062 -43.13 L 148.607 -52.6746" fill="none" stroke="black" stroke-linecap="round" stroke-linejoin="round" stroke-width="0.25"/>
    <path d="M 149.83 -77.1102 L 150.916 -76.0243" fill="none" stroke="black" stroke-linecap="round" stroke-linejoin="round" stroke-width="0.25"/>
    <path d="M 149.83 -83.9397 L 149.83 -77.1102" fill="none" stroke="black" stroke-linecap="round" stroke-linejoin="round" stroke-width="0.25"/>
    <path d="M 145.118 -88.6514 L 149.83 -83.9397" fill="none" stroke="black" stroke-linecap="round" stroke-linejoin="round" stroke-width="0.25"/>
    <path d="M 150.916 -76.0243 L 150.85 -61.5945" fill="none" stroke="black" stroke-linecap="round" stroke-linejoin="round" stroke-width="0.25"/>
    <path d="M 139.64 -111.032 L 137.513 -114.676" fill="none" stroke="black" stroke-linecap="round" stroke-linejoin="round" stroke-width="0.25"/>
    <path d="M 148.055 -76.723 L 139.514 -85.2643" fill="none" stroke="black" stroke-linecap="round" stroke-linejoin="round" stroke-width="0.25"/>
    <path d="M 137.382 -116.335 L 137.459 -116.486" fill="none" stroke="black" stroke-linecap="round" stroke-linejoin="round" stroke-width="0.25"/>
    <path d="M 137.29 -115.171 L 137.24 -115.438" fill="none" stroke="black" stroke-linecap="round" stroke-linejoin="round" stroke-width="0.25"/>
    <path d="M 137.612 -116.711 L 137.774 -116.886" fill="none" stroke="black" stroke-linecap="round" stroke-linejoin="round" stroke-width="0.25"/>
    <path d="M 138.131 -117.145 L 138.378 -117.256" fill="none" stroke="black" stroke-linecap="round" stroke-linejoin="round" stroke-width="0.25"/>
    <path d="M 137.459 -116.486 L 137.612 -116.711" fill="none" stroke="black" stroke-linecap="round" stroke-linejoin="round" stroke-width="0.25"/>
    <path d="M 137.29 -116.079 L 137.382 -116.335" fill="none" stroke="black" stroke-linecap="round" stroke-linejoin="round" stroke-width="0.25"/>
    <path d="M 136.523 -43.13 L 148.055 -54.6629" fill="none" stroke="black" stroke-linecap="round" stroke-linejoin="round" stroke-width="0.25"/>
    <path d="M 137.382 -114.915 L 137.29 -115.171" fill="none" stroke="black" stroke-linecap="round" stroke-linejoin="round" stroke-width="0.25"/>
    <path d="M 137.232 -115.71 L 137.266 -115.979" fill="none" stroke="black" stroke-linecap="round" stroke-linejoin="round" stroke-width="0.25"/>
    <path d="M 138.608 -117.321 L 138.878 -117.356" fill="none" stroke="black" stroke-linecap="round" stroke-linejoin="round" stroke-width="0.25"/>
    <path d="M 139.514 -108.687 L 140.155 -109.328" fill="none" stroke="black" stroke-linecap="round" stroke-linejoin="round" stroke-width="0.25"/>
    <path d="M 148.055 -54.6629 L 148.055 -76.723" fill="none" stroke="black" stroke-linecap="round" stroke-linejoin="round" stroke-width="0.25"/>
    <path d="M 137.266 -115.979 L 137.29 -116.079" fill="none" stroke="black" stroke-linecap="round" stroke-linejoin="round" stroke-width="0.25"/>
    <path d="M 139.689 -110.918 L 139.64 -111.032" fill="none" stroke="black" stroke-linecap="round" stroke-linejoin="round" stroke-width="0.25"/>
    <path d="M 137.24 -115.438 L 137.232 -115.71" fill="none" stroke="black" stroke-linecap="round" stroke-linejoin="round" stroke-width="0.25"/>
    <path d="M 135.84 -121.716 L 135.84 -144.82" fill="none" stroke="black" stroke-linecap="round" stroke-linejoin="round" stroke-width="0.25"/>
    <path d="M 137.513 -114.676 L 137.382 -114.915" fill="none" stroke="black" stroke-linecap="round" stroke-linejoin="round" stroke-width="0.25"/>
    <path d="M 140.155 -117.401 L 135.84 -121.716" fill="none" stroke="black" stroke-linecap="round" stroke-linejoin="round" stroke-width="0.25"/>
    <path d="M 138.878 -117.356 L 140.155 -117.401" fill="none" stroke="black" stroke-linecap="round" stroke-linejoin="round" stroke-width="0.25"/>
    <path d="M 137.774 -116.886 L 137.986 -117.056 L 138.131 -117.145" fill="none" stroke="black" stroke-linecap="round" stroke-linejoin="round" stroke-width="0.25"/>
    <path d="M 139.514 -85.2643 L 139.514 -108.687" fill="none" stroke="black" stroke-linecap="round" stroke-linejoin="round" stroke-width="0.25"/>
    <path d="M 140.155 -109.328 L 139.689 -110.918" fill="none" stroke="black" stroke-linecap="round" stroke-linejoin="round" stroke-width="0.25"/>
    <path d="M 135.84 -144.82 L 136.385 -145.366" fill="none" stroke="black" stroke-linecap="round" stroke-linejoin="round" stroke-width="0.25"/>
    <path d="M 138.378 -117.256 L 138.608 -117.321" fill="none" stroke="black" stroke-linecap="round" stroke-linejoin="round" stroke-width="0.25"/>
    <path d="M 129.938 -63.45 L 131.3 -63.45" fill="none" stroke="black" stroke-linecap="round" stroke-linejoin="round" stroke-width="0.25"/>
    <path d="M 110.3 -40.5 L 117.0 -40.5" fill="none" stroke="black" stroke-linecap="round" stroke-linejoin="round" stroke-width="0.25"/>
    <path d="M 122.188 -67.0 L 115.8 -67.0" fill="none" stroke="black" stroke-linecap="round" stroke-linejoin="round" stroke-width="0.25"/>
    <path d="M 110.3 -53.0 L 110.3 -46.0" fill="none" stroke="black" stroke-linecap="round" stroke-linejoin="round" stroke-width="0.25"/>
    <path d="M 123.823 -40.5 L 123.823 -43.13" fill="none" stroke="black" stroke-linecap="round" stroke-linejoin="round" stroke-width="0.25"/>
    <path d="M 117.0 -40.5 L 123.823 -40.5" fill="none" stroke="black" stroke-linecap="round" stroke-linejoin="round" stroke-width="0.25"/>
    <path d="M 110.3 -46.0 L 110.3 -40.5" fill="none" stroke="black" stroke-linecap="round" stroke-linejoin="round" stroke-width="0.25"/>
    <path d="M 122.188 -63.45 L 122.188 -67.0" fill="none" stroke="black" stroke-linecap="round" stroke-linejoin="round" stroke-width="0.25"/>
    <path d="M 110.3 -67.0 L 110.3 -60.0 L 110.3 -53.0" fill="none" stroke="black" stroke-linecap="round" stroke-linejoin="round" stroke-width="0.25"/>
    <path d="M 115.8 -67.0 L 110.3 -67.0" fill="none" stroke="black" stroke-linecap="round" stroke-linejoin="round" stroke-width="0.25"/>
  </g>
</svg>