<?xml version="1.0" encoding="utf-8"?>
<svg width="165.78750000000002mm" height="124.60000000000001mm" viewBox="33.95 -162.8 165.78750000000002 124.60000000000001" style="background-color:white" xmlns="http://www.w3.org/2000/svg" xmlns:xlink="http://www.w3.org/1999/xlink">
  <g transform="translate(33.95 -38.2) scale(1 -1) translate(-33.95 162.8)">
    <circle cx="70.188" cy="-146.75" r="0.8" fill="black"/>
    <circle cx="72.438" cy="-67.0" r="0.8" fill="black"/>
    <circle cx="97.188" cy="-43.25" r="0.8" fill="black"/>
    <circle cx="97.688" cy="-152.0" r="0.8" fill="black"/>
    <circle cx="122.688" cy="-151.0" r="0.8" fill="black"/>
    <circle cx="155.938" cy="-112.5" r="0.8" fill="black"/>
    <circle cx="170.438" cy="-95.25" r="0.8" fill="black"/>
    <circle cx="177.75" cy="-117.25" r="0.8" fill="black"/>
    <circle cx="194.438" cy="-98.75" r="0.8" fill="black"/>
    <circle cx="38.025" cy="-101.725" r="0.825" fill="black"/>
    <circle cx="42.788" cy="-120.775" r="0.825" fill="black"/>
    <circle cx="47.55" cy="-82.675" r="0.825" fill="black"/>
    <circle cx="52.312" cy="-139.825" r="0.825" fill="black"/>
    <circle cx="52.312" cy="-158.875" r="0.825" fill="black"/>
    <circle cx="67.075" cy="-91.425" r="0.825" fill="black"/>
    <circle cx="71.837" cy="-110.475" r="0.825" fill="black"/>
    <circle cx="76.6" cy="-72.375" r="0.825" fill="black"/>
    <circle cx="81.362" cy="-129.525" r="0.825" fill="black"/>
    <circle cx="86.125" cy="-91.425" r="0.825" fill="black"/>
    <circle cx="88.506" cy="-148.575" r="0.825" fill="black"/>
    <circle cx="90.888" cy="-110.475" r="0.825" fill="black"/>
    <circle cx="95.65" cy="-72.375" r="0.825" fill="black"/>
    <circle cx="100.412" cy="-129.525" r="0.825" fill="black"/>
    <circle cx="105.175" cy="-91.425" r="0.825" fill="black"/>
    <circle cx="109.938" cy="-110.475" r="0.825" fill="black"/>
    <circle cx="114.7" cy="-72.375" r="0.825" fill="black"/>
    <circle cx="117.081" cy="-148.575" r="0.825" fill="black"/>
    <circle cx="119.462" cy="-129.525" r="0.825" fill="black"/>
    <circle cx="124.225" cy="-91.425" r="0.825" fill="black"/>
    <circle cx="128.987" cy="-110.475" r="0.825" fill="black"/>
    <circle cx="133.75" cy="-72.375" r="0.825" fill="black"/>
    <circle cx="138.512" cy="-129.525" r="0.825" fill="black"/>
    <circle cx="138.512" cy="-148.575" r="0.825" fill="black"/>
    <circle cx="143.275" cy="-91.425" r="0.825" fill="black"/>
    <circle cx="148.037" cy="-110.475" r="0.825" fill="black"/>
    <circle cx="152.8" cy="-72.375" r="0.825" fill="black"/>
    <circle cx="157.562" cy="-129.525" r="0.825" fill="black"/>
    <circle cx="157.562" cy="-148.575" r="0.825" fill="black"/>
    <circle cx="162.325" cy="-91.425" r="0.825" fill="black"/>
    <circle cx="171.85" cy="-110.475" r="0.825" fill="black"/>
    <circle cx="174.231" cy="-72.375" r="0.825" fill="black"/>
    <circle cx="176.612" cy="-129.525" r="0.825" fill="black"/>
    <circle cx="176.612" cy="-148.575" r="0.825" fill="black"/>
    <circle cx="188.519" cy="-91.425" r="0.825" fill="black"/>
    <circle cx="195.662" cy="-72.375" r="0.825" fill="black"/>
    <circle cx="195.662" cy="-110.475" r="0.825" fill="black"/>
    <circle cx="195.662" cy="-129.525" r="0.825" fill="black"/>
    <circle cx="195.662" cy="-148.575" r="0.825" fill="black"/>
    <circle cx="37.575" cy="-96.575" r="1.3" fill="black"/>
    <circle cx="42.337" cy="-115.625" r="1.3" fill="black"/>
    <circle cx="47.1" cy="-77.525" r="1.3" fill="black"/>
    <circle cx="48.475" cy="-96.575" r="1.3" fill="black"/>
    <circle cx="51.862" cy="-134.675" r="1.3" fill="black"/>
    <circle cx="51.862" cy="-153.725" r="1.3" fill="black"/>
    <circle cx="53.237" cy="-115.625" r="1.3" fill="black"/>
    <circle cx="56.625" cy="-96.575" r="1.3" fill="black"/>
    <circle cx="58.0" cy="-77.525" r="1.3" fill="black"/>
    <circle cx="61.387" cy="-115.625" r="1.3" fill="black"/>
    <circle cx="62.762" cy="-134.675" r="1.3" fill="black"/>
    <circle cx="62.762" cy="-153.725" r="1.3" fill="black"/>
    <circle cx="66.15" cy="-77.525" r="1.3" fill="black"/>
    <circle cx="67.525" cy="-96.575" r="1.3" fill="black"/>
    <circle cx="70.912" cy="-134.675" r="1.3" fill="black"/>
    <circle cx="72.287" cy="-115.625" r="1.3" fill="black"/>
    <circle cx="75.675" cy="-96.575" r="1.3" fill="black"/>
    <circle cx="77.05" cy="-77.525" r="1.3" fill="black"/>
    <circle cx="78.056" cy="-153.725" r="1.3" fill="black"/>
    <circle cx="80.438" cy="-115.625" r="1.3" fill="black"/>
    <circle cx="81.812" cy="-134.675" r="1.3" fill="black"/>
    <circle cx="85.2" cy="-77.525" r="1.3" fill="black"/>
    <circle cx="86.575" cy="-96.575" r="1.3" fill="black"/>
    <circle cx="88.956" cy="-153.725" r="1.3" fill="black"/>
    <circle cx="89.962" cy="-134.675" r="1.3" fill="black"/>
    <circle cx="91.337" cy="-115.625" r="1.3" fill="black"/>
    <circle cx="94.725" cy="-96.575" r="1.3" fill="black"/>
    <circle cx="96.1" cy="-77.525" r="1.3" fill="black"/>
    <circle cx="99.487" cy="-115.625" r="1.3" fill="black"/>
    <circle cx="100.862" cy="-134.675" r="1.3" fill="black"/>
    <circle cx="104.25" cy="-77.525" r="1.3" fill="black"/>
    <circle cx="105.625" cy="-96.575" r="1.3" fill="black"/>
    <circle cx="106.631" cy="-153.725" r="1.3" fill="black"/>
    <circle cx="109.012" cy="-134.675" r="1.3" fill="black"/>
    <circle cx="110.387" cy="-115.625" r="1.3" fill="black"/>
    <circle cx="113.775" cy="-96.575" r="1.3" fill="black"/>
    <circle cx="115.15" cy="-77.525" r="1.3" fill="black"/>
    <circle cx="117.531" cy="-153.725" r="1.3" fill="black"/>
    <circle cx="118.537" cy="-115.625" r="1.3" fill="black"/>
    <circle cx="119.912" cy="-134.675" r="1.3" fill="black"/>
    <circle cx="123.3" cy="-77.525" r="1.3" fill="black"/>
    <circle cx="124.675" cy="-96.575" r="1.3" fill="black"/>
    <circle cx="128.062" cy="-134.675" r="1.3" fill="black"/>
    <circle cx="128.062" cy="-153.725" r="1.3" fill="black"/>
    <circle cx="129.438" cy="-115.625" r="1.3" fill="black"/>
    <circle cx="132.825" cy="-96.575" r="1.3" fill="black"/>
    <circle cx="134.2" cy="-77.525" r="1.3" fill="black"/>
    <circle cx="137.588" cy="-115.625" r="1.3" fill="black"/>
    <circle cx="138.963" cy="-134.675" r="1.3" fill="black"/>
    <circle cx="138.963" cy="-153.725" r="1.3" fill="black"/>
    <circle cx="142.35" cy="-77.525" r="1.3" fill="black"/>
    <circle cx="143.725" cy="-96.575" r="1.3" fill="black"/>
    <circle cx="147.112" cy="-134.675" r="1.3" fill="black"/>
    <circle cx="147.112" cy="-153.725" r="1.3" fill="black"/>
    <circle cx="148.487" cy="-115.625" r="1.3" fill="black"/>
    <circle cx="151.875" cy="-96.575" r="1.3" fill="black"/>
    <circle cx="153.25" cy="-77.525" r="1.3" fill="black"/>
    <circle cx="158.012" cy="-134.675" r="1.3" fill="black"/>
    <circle cx="158.012" cy="-153.725" r="1.3" fill="black"/>
    <circle cx="161.4" cy="-115.625" r="1.3" fill="black"/>
    <circle cx="162.775" cy="-96.575" r="1.3" fill="black"/>
    <circle cx="163.781" cy="-77.525" r="1.3" fill="black"/>
    <circle cx="166.162" cy="-134.675" r="1.3" fill="black"/>
    <circle cx="166.162" cy="-153.725" r="1.3" fill="black"/>
    <circle cx="172.3" cy="-115.625" r="1.3" fill="black"/>
    <circle cx="174.681" cy="-77.525" r="1.3" fill="black"/>
    <circle cx="177.062" cy="-134.675" r="1.3" fill="black"/>
    <circle cx="177.062" cy="-153.725" r="1.3" fill="black"/>
    <circle cx="178.069" cy="-96.575" r="1.3" fill="black"/>
    <circle cx="185.213" cy="-77.525" r="1.3" fill="black"/>
    <circle cx="185.213" cy="-115.625" r="1.3" fill="black"/>
    <circle cx="185.213" cy="-134.675" r="1.3" fill="black"/>
    <circle cx="185.213" cy="-153.725" r="1.3" fill="black"/>
    <circle cx="188.969" cy="-96.575" r="1.3" fill="black"/>
    <circle cx="196.112" cy="-77.525" r="1.3" fill="black"/>
    <circle cx="196.112" cy="-115.625" r="1.3" fill="black"/>
    <circle cx="196.112" cy="-134.675" r="1.3" fill="black"/>
    <circle cx="196.112" cy="-153.725" r="1.3" fill="black"/>
    <circle cx="43.025" cy="-90.675" r="1.5" fill="black"/>
    <circle cx="47.787" cy="-109.725" r="1.5" fill="black"/>
    <circle cx="48.025" cy="-92.775" r="1.5" fill="black"/>
    <circle cx="52.55" cy="-71.625" r="1.5" fill="black"/>
    <circle cx="52.787" cy="-111.825" r="1.5" fill="black"/>
    <circle cx="57.075" cy="-100.375" r="1.5" fill="black"/>
    <circle cx="57.312" cy="-128.775" r="1.5" fill="black"/>
    <circle cx="57.312" cy="-147.825" r="1.5" fill="black"/>
    <circle cx="57.55" cy="-73.725" r="1.5" fill="black"/>
    <circle cx="61.837" cy="-119.425" r="1.5" fill="black"/>
    <circle cx="62.075" cy="-102.475" r="1.5" fill="black"/>
    <circle cx="62.312" cy="-130.875" r="1.5" fill="black"/>
    <circle cx="62.312" cy="-149.925" r="1.5" fill="black"/>
    <circle cx="66.6" cy="-81.325" r="1.5" fill="black"/>
    <circle cx="66.837" cy="-121.525" r="1.5" fill="black"/>
    <circle cx="71.362" cy="-138.475" r="1.5" fill="black"/>
    <circle cx="71.6" cy="-83.425" r="1.5" fill="black"/>
    <circle cx="76.125" cy="-100.375" r="1.5" fill="black"/>
    <circle cx="76.362" cy="-140.575" r="1.5" fill="black"/>
    <circle cx="78.506" cy="-157.525" r="1.5" fill="black"/>
    <circle cx="80.888" cy="-119.425" r="1.5" fill="black"/>
    <circle cx="81.125" cy="-102.475" r="1.5" fill="black"/>
    <circle cx="83.506" cy="-159.625" r="1.5" fill="black"/>
    <circle cx="85.65" cy="-81.325" r="1.5" fill="black"/>
    <circle cx="85.888" cy="-121.525" r="1.5" fill="black"/>
    <circle cx="90.412" cy="-138.475" r="1.5" fill="black"/>
    <circle cx="90.65" cy="-83.425" r="1.5" fill="black"/>
    <circle cx="95.175" cy="-100.375" r="1.5" fill="black"/>
    <circle cx="95.412" cy="-140.575" r="1.5" fill="black"/>
    <circle cx="99.938" cy="-119.425" r="1.5" fill="black"/>
    <circle cx="100.175" cy="-102.475" r="1.5" fill="black"/>
    <circle cx="104.7" cy="-81.325" r="1.5" fill="black"/>
    <circle cx="104.938" cy="-121.525" r="1.5" fill="black"/>
    <circle cx="107.081" cy="-157.525" r="1.5" fill="black"/>
    <circle cx="109.462" cy="-138.475" r="1.5" fill="black"/>
    <circle cx="109.7" cy="-83.425" r="1.5" fill="black"/>
    <circle cx="112.081" cy="-159.625" r="1.5" fill="black"/>
    <circle cx="114.225" cy="-100.375" r="1.5" fill="black"/>
    <circle cx="114.462" cy="-140.575" r="1.5" fill="black"/>
    <circle cx="118.987" cy="-119.425" r="1.5" fill="black"/>
    <circle cx="119.225" cy="-102.475" r="1.5" fill="black"/>
    <circle cx="123.75" cy="-81.325" r="1.5" fill="black"/>
    <circle cx="123.987" cy="-121.525" r="1.5" fill="black"/>
    <circle cx="128.512" cy="-138.475" r="1.5" fill="black"/>
    <circle cx="128.512" cy="-157.525" r="1.5" fill="black"/>
    <circle cx="128.75" cy="-83.425" r="1.5" fill="black"/>
    <circle cx="133.275" cy="-100.375" r="1.5" fill="black"/>
    <circle cx="133.512" cy="-140.575" r="1.5" fill="black"/>
    <circle cx="133.512" cy="-159.625" r="1.5" fill="black"/>
    <circle cx="138.037" cy="-119.425" r="1.5" fill="black"/>
    <circle cx="138.275" cy="-102.475" r="1.5" fill="black"/>
    <circle cx="142.8" cy="-81.325" r="1.5" fill="black"/>
    <circle cx="143.037" cy="-121.525" r="1.5" fill="black"/>
    <circle cx="147.562" cy="-138.475" r="1.5" fill="black"/>
    <circle cx="147.562" cy="-157.525" r="1.5" fill="black"/>
    <circle cx="147.8" cy="-83.425" r="1.5" fill="black"/>
    <circle cx="152.325" cy="-100.375" r="1.5" fill="black"/>
    <circle cx="152.562" cy="-140.575" r="1.5" fill="black"/>
    <circle cx="152.562" cy="-159.625" r="1.5" fill="black"/>
    <circle cx="157.325" cy="-102.475" r="1.5" fill="black"/>
    <circle cx="161.85" cy="-119.425" r="1.5" fill="black"/>
    <circle cx="164.231" cy="-81.325" r="1.5" fill="black"/>
    <circle cx="166.612" cy="-138.475" r="1.5" fill="black"/>
    <circle cx="166.612" cy="-157.525" r="1.5" fill="black"/>
    <circle cx="166.85" cy="-121.525" r="1.5" fill="black"/>
    <circle cx="169.231" cy="-83.425" r="1.5" fill="black"/>
    <circle cx="171.612" cy="-140.575" r="1.5" fill="black"/>
    <circle cx="171.612" cy="-159.625" r="1.5" fill="black"/>
    <circle cx="178.519" cy="-100.375" r="1.5" fill="black"/>
    <circle cx="183.519" cy="-102.475" r="1.5" fill="black"/>
    <circle cx="185.662" cy="-81.325" r="1.5" fill="black"/>
    <circle cx="185.662" cy="-119.425" r="1.5" fill="black"/>
    <circle cx="185.662" cy="-138.475" r="1.5" fill="black"/>
    <circle cx="185.662" cy="-157.525" r="1.5" fill="black"/>
    <circle cx="190.662" cy="-83.425" r="1.5" fill="black"/>
    <circle cx="190.662" cy="-121.525" r="1.5" fill="black"/>
    <circle cx="190.662" cy="-140.575" r="1.5" fill="black"/>
    <circle cx="190.662" cy="-159.625" r="1.5" fill="black"/>
    <circle cx="43.025" cy="-96.575" r="2.5" fill="black"/>
    <circle cx="47.787" cy="-115.625" r="2.5" fill="black"/>
    <circle cx="52.55" cy="-77.525" r="2.5" fill="black"/>
    <circle cx="57.312" cy="-134.675" r="2.5" fill="black"/>
    <circle cx="57.312" cy="-153.725" r="2.5" fill="black"/>
    <circle cx="62.075" cy="-96.575" r="2.5" fill="black"/>
    <circle cx="66.837" cy="-115.625" r="2.5" fill="black"/>
    <circle cx="71.6" cy="-77.525" r="2.5" fill="black"/>
    <circle cx="76.362" cy="-134.675" r="2.5" fill="black"/>
    <circle cx="81.125" cy="-96.575" r="2.5" fill="black"/>
    <circle cx="83.506" cy="-153.725" r="2.5" fill="black"/>
    <circle cx="85.888" cy="-115.625" r="2.5" fill="black"/>
    <circle cx="90.65" cy="-77.525" r="2.5" fill="black"/>
    <circle cx="95.412" cy="-134.675" r="2.5" fill="black"/>
    <circle cx="100.175" cy="-96.575" r="2.5" fill="black"/>
    <circle cx="104.938" cy="-115.625" r="2.5" fill="black"/>
    <circle cx="109.7" cy="-77.525" r="2.5" fill="black"/>
    <circle cx="112.081" cy="-153.725" r="2.5" fill="black"/>
    <circle cx="114.462" cy="-134.675" r="2.5" fill="black"/>
    <circle cx="119.225" cy="-96.575" r="2.5" fill="black"/>
    <circle cx="123.987" cy="-115.625" r="2.5" fill="black"/>
    <circle cx="128.75" cy="-77.525" r="2.5" fill="black"/>
    <circle cx="133.512" cy="-134.675" r="2.5" fill="black"/>
    <circle cx="133.512" cy="-153.725" r="2.5" fill="black"/>
    <circle cx="138.275" cy="-96.575" r="2.5" fill="black"/>
    <circle cx="143.037" cy="-115.625" r="2.5" fill="black"/>
    <circle cx="147.8" cy="-77.525" r="2.5" fill="black"/>
    <circle cx="152.562" cy="-134.675" r="2.5" fill="black"/>
    <circle cx="152.562" cy="-153.725" r="2.5" fill="black"/>
    <circle cx="157.325" cy="-96.575" r="2.5" fill="black"/>
    <circle cx="166.85" cy="-115.625" r="2.5" fill="black"/>
    <circle cx="169.231" cy="-77.525" r="2.5" fill="black"/>
    <circle cx="171.612" cy="-134.675" r="2.5" fill="black"/>
    <circle cx="171.612" cy="-153.725" r="2.5" fill="black"/>
    <circle cx="183.519" cy="-96.575" r="2.5" fill="black"/>
    <circle cx="190.662" cy="-77.525" r="2.5" fill="black"/>
    <circle cx="190.662" cy="-115.625" r="2.5" fill="black"/>
    <circle cx="190.662" cy="-134.675" r="2.5" fill="black"/>
    <circle cx="190.662" cy="-153.725" r="2.5" fill="black"/>
    <path d="M 91.5 -50.75 L 92.9 -50.75" fill="none" stroke="black" stroke-linecap="round" stroke-linejoin="round" stroke-width="2.2"/>
  </g>
</svg>