%TF.GenerationSoftware,KiCad,Pcbnew,10.0.3*%
%TF.CreationDate,2026-09-06T21:25:22+09:00*%
%TF.ProjectId,kc2_left,6b63325f-6c65-4667-942e-6b696361645f,draft-v2*%
%TF.SameCoordinates,Original*%
%TF.FileFunction,Legend,Bot*%
%TF.FilePolarity,Positive*%
%FSLAX46Y46*%
G04 Gerber Fmt 4.6, Leading zero omitted, Abs format (unit mm)*
G04 Created by KiCad (PCBNEW 10.0.3) date 2026-09-06 21:25:22*
%MOMM*%
%LPD*%
G01*
G04 APERTURE LIST*
%ADD10C,0.150000*%
%ADD11C,0.200000*%
G04 APERTURE END LIST*
%TO.C,D8*%
D10*
X55537500Y-102725000D02*
X55337500Y-102725000D01*
D11*
X55537500Y-102725000D02*
X55537500Y-104425000D01*
D10*
X55537500Y-104425000D02*
X55337500Y-104425000D01*
%TO.C,D22*%
X79637500Y-126825000D02*
X79437500Y-126825000D01*
D11*
X79637500Y-126825000D02*
X79637500Y-128525000D01*
D10*
X79637500Y-128525000D02*
X79437500Y-128525000D01*
%TO.C,D19*%
X146312500Y-107775000D02*
X146112500Y-107775000D01*
D11*
X146312500Y-107775000D02*
X146312500Y-109475000D01*
D10*
X146312500Y-109475000D02*
X146112500Y-109475000D01*
%TO.C,D24*%
X117737500Y-126825000D02*
X117537500Y-126825000D01*
D11*
X117737500Y-126825000D02*
X117737500Y-128525000D01*
D10*
X117737500Y-128525000D02*
X117537500Y-128525000D01*
%TO.C,D30*%
X115356300Y-145875000D02*
X115156300Y-145875000D01*
D11*
X115356300Y-145875000D02*
X115356300Y-147575000D01*
D10*
X115356300Y-147575000D02*
X115156300Y-147575000D01*
%TO.C,D4*%
X90575000Y-73525000D02*
X90575000Y-73725000D01*
D11*
X90575000Y-73525000D02*
X92275000Y-73525000D01*
D10*
X92275000Y-73525000D02*
X92275000Y-73725000D01*
%TO.C,D25*%
X136787500Y-126825000D02*
X136587500Y-126825000D01*
D11*
X136787500Y-126825000D02*
X136787500Y-128525000D01*
D10*
X136787500Y-128525000D02*
X136587500Y-128525000D01*
%TO.C,D11*%
X103450000Y-88725000D02*
X103250000Y-88725000D01*
D11*
X103450000Y-88725000D02*
X103450000Y-90425000D01*
D10*
X103450000Y-90425000D02*
X103250000Y-90425000D01*
%TO.C,D17*%
X108212500Y-107775000D02*
X108012500Y-107775000D01*
D11*
X108212500Y-107775000D02*
X108212500Y-109475000D01*
D10*
X108212500Y-109475000D02*
X108012500Y-109475000D01*
%TO.C,D27*%
X55656300Y-156125000D02*
X55456300Y-156125000D01*
D11*
X55656300Y-156125000D02*
X55656300Y-157825000D01*
D10*
X55656300Y-157825000D02*
X55456300Y-157825000D01*
%TO.C,D1*%
X50775000Y-83675000D02*
X50575000Y-83675000D01*
D11*
X50775000Y-83675000D02*
X50775000Y-85375000D01*
D10*
X50775000Y-85375000D02*
X50575000Y-85375000D01*
%TO.C,D13*%
X141550000Y-88725000D02*
X141350000Y-88725000D01*
D11*
X141550000Y-88725000D02*
X141550000Y-90425000D01*
D10*
X141550000Y-90425000D02*
X141350000Y-90425000D01*
%TO.C,D14*%
X57918700Y-121775000D02*
X57718700Y-121775000D01*
D11*
X57918700Y-121775000D02*
X57918700Y-123475000D01*
D10*
X57918700Y-123475000D02*
X57718700Y-123475000D01*
%TO.C,D26*%
X155837500Y-126825000D02*
X155637500Y-126825000D01*
D11*
X155837500Y-126825000D02*
X155837500Y-128525000D01*
D10*
X155837500Y-128525000D02*
X155637500Y-128525000D01*
%TO.C,D12*%
X122500000Y-88725000D02*
X122300000Y-88725000D01*
D11*
X122500000Y-88725000D02*
X122500000Y-90425000D01*
D10*
X122500000Y-90425000D02*
X122300000Y-90425000D01*
%TO.C,D10*%
X84400000Y-88725000D02*
X84200000Y-88725000D01*
D11*
X84400000Y-88725000D02*
X84400000Y-90425000D01*
D10*
X84400000Y-90425000D02*
X84200000Y-90425000D01*
%TO.C,D28*%
X62968800Y-145875000D02*
X62768800Y-145875000D01*
D11*
X62968800Y-145875000D02*
X62968800Y-147575000D01*
D10*
X62968800Y-147575000D02*
X62768800Y-147575000D01*
%TO.C,D6*%
X128675000Y-73525000D02*
X128675000Y-73725000D01*
D11*
X128675000Y-73525000D02*
X130375000Y-73525000D01*
D10*
X130375000Y-73525000D02*
X130375000Y-73725000D01*
%TO.C,D18*%
X127262500Y-107775000D02*
X127062500Y-107775000D01*
D11*
X127262500Y-107775000D02*
X127262500Y-109475000D01*
D10*
X127262500Y-109475000D02*
X127062500Y-109475000D01*
%TO.C,D3*%
X71525000Y-73525000D02*
X71525000Y-73725000D01*
D11*
X71525000Y-73525000D02*
X73225000Y-73525000D01*
D10*
X73225000Y-73525000D02*
X73225000Y-73725000D01*
%TO.C,D20*%
X50775000Y-140825000D02*
X50575000Y-140825000D01*
D11*
X50775000Y-140825000D02*
X50775000Y-142525000D01*
D10*
X50775000Y-142525000D02*
X50575000Y-142525000D01*
%TO.C,D9*%
X65350000Y-88725000D02*
X65150000Y-88725000D01*
D11*
X65350000Y-88725000D02*
X65350000Y-90425000D01*
D10*
X65350000Y-90425000D02*
X65150000Y-90425000D01*
%TO.C,D29*%
X86781300Y-145875000D02*
X86581300Y-145875000D01*
D11*
X86781300Y-145875000D02*
X86781300Y-147575000D01*
D10*
X86781300Y-147575000D02*
X86581300Y-147575000D01*
%TO.C,D23*%
X98687500Y-126825000D02*
X98487500Y-126825000D01*
D11*
X98687500Y-126825000D02*
X98687500Y-128525000D01*
D10*
X98687500Y-128525000D02*
X98487500Y-128525000D01*
%TO.C,D7*%
X147725000Y-73525000D02*
X147725000Y-73725000D01*
D11*
X147725000Y-73525000D02*
X149425000Y-73525000D01*
D10*
X149425000Y-73525000D02*
X149425000Y-73725000D01*
%TO.C,D16*%
X89162500Y-107775000D02*
X88962500Y-107775000D01*
D11*
X89162500Y-107775000D02*
X89162500Y-109475000D01*
D10*
X89162500Y-109475000D02*
X88962500Y-109475000D01*
%TO.C,D2*%
X68225000Y-85275000D02*
X68225000Y-85075000D01*
D11*
X69925000Y-85275000D02*
X68225000Y-85275000D01*
D10*
X69925000Y-85275000D02*
X69925000Y-85075000D01*
%TO.C,D21*%
X58206300Y-126825000D02*
X58006300Y-126825000D01*
D11*
X58206300Y-126825000D02*
X58206300Y-128525000D01*
D10*
X58206300Y-128525000D02*
X58006300Y-128525000D01*
%TO.C,D31*%
X148693800Y-145875000D02*
X148493800Y-145875000D01*
D11*
X148693800Y-145875000D02*
X148693800Y-147575000D01*
D10*
X148693800Y-147575000D02*
X148493800Y-147575000D01*
%TO.C,D15*%
X70112500Y-107775000D02*
X69912500Y-107775000D01*
D11*
X70112500Y-107775000D02*
X70112500Y-109475000D01*
D10*
X70112500Y-109475000D02*
X69912500Y-109475000D01*
%TO.C,D5*%
X109625000Y-73525000D02*
X109625000Y-73725000D01*
D11*
X109625000Y-73525000D02*
X111325000Y-73525000D01*
D10*
X111325000Y-73525000D02*
X111325000Y-73725000D01*
%TD*%
M02*
