%TF.GenerationSoftware,KiCad,Pcbnew,10.0.3*%
%TF.CreationDate,2026-09-06T21:25:22+09:00*%
%TF.ProjectId,kc2_left,6b63325f-6c65-4667-942e-6b696361645f,draft-v2*%
%TF.SameCoordinates,Original*%
%TF.FileFunction,Soldermask,Bot*%
%TF.FilePolarity,Negative*%
%FSLAX46Y46*%
G04 Gerber Fmt 4.6, Leading zero omitted, Abs format (unit mm)*
G04 Created by KiCad (PCBNEW 10.0.3) date 2026-09-06 21:25:22*
%MOMM*%
%LPD*%
G01*
G04 APERTURE LIST*
G04 Aperture macros list*
%AMRoundRect*
0 Rectangle with rounded corners*
0 $1 Rounding radius*
0 $2 $3 $4 $5 $6 $7 $8 $9 X,Y pos of 4 corners*
0 Add a 4 corners polygon primitive as box body*
4,1,4,$2,$3,$4,$5,$6,$7,$8,$9,$2,$3,0*
0 Add four circle primitives for the rounded corners*
1,1,$1+$1,$2,$3*
1,1,$1+$1,$4,$5*
1,1,$1+$1,$6,$7*
1,1,$1+$1,$8,$9*
0 Add four rect primitives between the rounded corners*
20,1,$1+$1,$2,$3,$4,$5,0*
20,1,$1+$1,$4,$5,$6,$7,0*
20,1,$1+$1,$6,$7,$8,$9,0*
20,1,$1+$1,$8,$9,$2,$3,0*%
%AMHorizOval*
0 Thick line with rounded ends*
0 $1 width*
0 $2 $3 position (X,Y) of the first rounded end (center of the circle)*
0 $4 $5 position (X,Y) of the second rounded end (center of the circle)*
0 Add line between two ends*
20,1,$1,$2,$3,$4,$5,0*
0 Add two circle primitives to create the rounded ends*
1,1,$1,$2,$3*
1,1,$1,$4,$5*%
G04 Aperture macros list end*
%ADD10C,1.600000*%
%ADD11C,2.600000*%
%ADD12C,3.000000*%
%ADD13C,5.000000*%
%ADD14C,1.650000*%
%ADD15O,2.500000X3.200000*%
%ADD16RoundRect,0.520000X-0.780000X-0.780000X0.780000X-0.780000X0.780000X0.780000X-0.780000X0.780000X0*%
%ADD17HorizOval,2.500000X-0.247487X0.247487X0.247487X-0.247487X0*%
%ADD18O,1.800000X2.400000*%
%ADD19RoundRect,0.520000X0.780000X0.780000X-0.780000X0.780000X-0.780000X-0.780000X0.780000X-0.780000X0*%
%ADD20O,3.600000X2.200000*%
%ADD21O,2.200000X1.800000*%
%ADD22RoundRect,0.252000X0.448000X0.523000X-0.448000X0.523000X-0.448000X-0.523000X0.448000X-0.523000X0*%
%ADD23RoundRect,0.252000X-0.523000X0.448000X-0.523000X-0.448000X0.523000X-0.448000X0.523000X0.448000X0*%
%ADD24RoundRect,0.252000X0.523000X-0.448000X0.523000X0.448000X-0.523000X0.448000X-0.523000X-0.448000X0*%
G04 APERTURE END LIST*
D10*
%TO.C,MH1*%
X112862500Y-43000000D03*
%TD*%
D11*
%TO.C,SW28*%
X63768800Y-153725000D03*
D12*
X64218800Y-157525000D03*
D13*
X69218800Y-153725000D03*
D12*
X69218800Y-159625000D03*
D14*
X74218800Y-148575000D03*
D11*
X74668800Y-153725000D03*
D15*
X71758800Y-148645000D03*
D16*
X72918800Y-159625000D03*
X60518800Y-157525000D03*
D17*
X65408800Y-151185000D03*
%TD*%
D11*
%TO.C,SW7*%
X151875000Y-77525000D03*
D12*
X152325000Y-81325000D03*
D13*
X157325000Y-77525000D03*
D12*
X157325000Y-83425000D03*
D14*
X162325000Y-72375000D03*
D11*
X162775000Y-77525000D03*
D15*
X159865000Y-72445000D03*
D16*
X161025000Y-83425000D03*
X148625000Y-81325000D03*
D17*
X153515000Y-74985000D03*
%TD*%
D11*
%TO.C,SW29*%
X87581300Y-153725000D03*
D12*
X88031300Y-157525000D03*
D13*
X93031300Y-153725000D03*
D12*
X93031300Y-159625000D03*
D14*
X98031300Y-148575000D03*
D11*
X98481300Y-153725000D03*
D15*
X95571300Y-148645000D03*
D16*
X96731300Y-159625000D03*
X84331300Y-157525000D03*
D17*
X89221300Y-151185000D03*
%TD*%
D11*
%TO.C,SW25*%
X137587500Y-134675000D03*
D12*
X138037500Y-138475000D03*
D13*
X143037500Y-134675000D03*
D12*
X143037500Y-140575000D03*
D14*
X148037500Y-129525000D03*
D11*
X148487500Y-134675000D03*
D15*
X145577500Y-129595000D03*
D16*
X146737500Y-140575000D03*
X134337500Y-138475000D03*
D17*
X139227500Y-132135000D03*
%TD*%
D10*
%TO.C,SW_PWR1*%
X115812500Y-63450000D03*
X113272500Y-63450000D03*
X118352500Y-63450000D03*
%TD*%
D11*
%TO.C,SW9*%
X66150000Y-96575000D03*
D12*
X66600000Y-100375000D03*
D13*
X71600000Y-96575000D03*
D12*
X71600000Y-102475000D03*
D14*
X76600000Y-91425000D03*
D11*
X77050000Y-96575000D03*
D15*
X74140000Y-91495000D03*
D16*
X75300000Y-102475000D03*
X62900000Y-100375000D03*
D17*
X67790000Y-94035000D03*
%TD*%
D18*
%TO.C,U1*%
X121282500Y-58370000D03*
X118742500Y-58370000D03*
X128902500Y-58370000D03*
X131442500Y-58370000D03*
X133982500Y-58370000D03*
X136522500Y-58370000D03*
X139062500Y-58370000D03*
X141602500Y-58370000D03*
X144142500Y-58370000D03*
X146682500Y-58370000D03*
X146682500Y-43130000D03*
X141602500Y-43130000D03*
X139062500Y-43130000D03*
X144142500Y-43130000D03*
X136522500Y-43130000D03*
X133982500Y-43130000D03*
X131442500Y-43130000D03*
X128902500Y-43130000D03*
X123822500Y-58370000D03*
X126362500Y-58370000D03*
X121282500Y-43130000D03*
X118742500Y-43130000D03*
X123822500Y-43130000D03*
X126362500Y-43130000D03*
%TD*%
D11*
%TO.C,SW12*%
X123300000Y-96575000D03*
D12*
X123750000Y-100375000D03*
D13*
X128750000Y-96575000D03*
D12*
X128750000Y-102475000D03*
D14*
X133750000Y-91425000D03*
D11*
X134200000Y-96575000D03*
D15*
X131290000Y-91495000D03*
D16*
X132450000Y-102475000D03*
X120050000Y-100375000D03*
D17*
X124940000Y-94035000D03*
%TD*%
D11*
%TO.C,SW22*%
X80437500Y-134675000D03*
D12*
X80887500Y-138475000D03*
D13*
X85887500Y-134675000D03*
D12*
X85887500Y-140575000D03*
D14*
X90887500Y-129525000D03*
D11*
X91337500Y-134675000D03*
D15*
X88427500Y-129595000D03*
D16*
X89587500Y-140575000D03*
X77187500Y-138475000D03*
D17*
X82077500Y-132135000D03*
%TD*%
D11*
%TO.C,SW23*%
X99487500Y-134675000D03*
D12*
X99937500Y-138475000D03*
D13*
X104937500Y-134675000D03*
D12*
X104937500Y-140575000D03*
D14*
X109937500Y-129525000D03*
D11*
X110387500Y-134675000D03*
D15*
X107477500Y-129595000D03*
D16*
X108637500Y-140575000D03*
X96237500Y-138475000D03*
D17*
X101127500Y-132135000D03*
%TD*%
D11*
%TO.C,SW19*%
X147112500Y-115625000D03*
D12*
X147562500Y-119425000D03*
D13*
X152562500Y-115625000D03*
D12*
X152562500Y-121525000D03*
D14*
X157562500Y-110475000D03*
D11*
X158012500Y-115625000D03*
D15*
X155102500Y-110545000D03*
D16*
X156262500Y-121525000D03*
X143862500Y-119425000D03*
D17*
X148752500Y-113085000D03*
%TD*%
D11*
%TO.C,SW31*%
X149493800Y-153725000D03*
D12*
X149943800Y-157525000D03*
D13*
X154943800Y-153725000D03*
D12*
X154943800Y-159625000D03*
D14*
X159943800Y-148575000D03*
D11*
X160393800Y-153725000D03*
D15*
X157483800Y-148645000D03*
D16*
X158643800Y-159625000D03*
X146243800Y-157525000D03*
D17*
X151133800Y-151185000D03*
%TD*%
D11*
%TO.C,SW8*%
X53237500Y-96575000D03*
D12*
X52787500Y-92775000D03*
D13*
X47787500Y-96575000D03*
D12*
X47787500Y-90675000D03*
D14*
X42787500Y-101725000D03*
D11*
X42337500Y-96575000D03*
D15*
X45247500Y-101655000D03*
D19*
X44087500Y-90675000D03*
X56487500Y-92775000D03*
D17*
X51597500Y-99115000D03*
%TD*%
D10*
%TO.C,MH8*%
X75250000Y-134000000D03*
%TD*%
D11*
%TO.C,SW30*%
X116156300Y-153725000D03*
D12*
X116606300Y-157525000D03*
D13*
X121606300Y-153725000D03*
D12*
X121606300Y-159625000D03*
D14*
X126606300Y-148575000D03*
D11*
X127056300Y-153725000D03*
D15*
X124146300Y-148645000D03*
D16*
X125306300Y-159625000D03*
X112906300Y-157525000D03*
D17*
X117796300Y-151185000D03*
%TD*%
D10*
%TO.C,MH2*%
X144112500Y-66250000D03*
%TD*%
D11*
%TO.C,SW4*%
X94725000Y-77525000D03*
D12*
X95175000Y-81325000D03*
D13*
X100175000Y-77525000D03*
D12*
X100175000Y-83425000D03*
D14*
X105175000Y-72375000D03*
D11*
X105625000Y-77525000D03*
D15*
X102715000Y-72445000D03*
D16*
X103875000Y-83425000D03*
X91475000Y-81325000D03*
D17*
X96365000Y-74985000D03*
%TD*%
D11*
%TO.C,SW13*%
X142350000Y-96575000D03*
D12*
X142800000Y-100375000D03*
D13*
X147800000Y-96575000D03*
D12*
X147800000Y-102475000D03*
D14*
X152800000Y-91425000D03*
D11*
X153250000Y-96575000D03*
D15*
X150340000Y-91495000D03*
D16*
X151500000Y-102475000D03*
X139100000Y-100375000D03*
D17*
X143990000Y-94035000D03*
%TD*%
D10*
%TO.C,MH7*%
X165862500Y-148750000D03*
%TD*%
D11*
%TO.C,SW27*%
X50856300Y-153725000D03*
D12*
X50406300Y-149925000D03*
D13*
X45406300Y-153725000D03*
D12*
X45406300Y-147825000D03*
D14*
X40406300Y-158875000D03*
D11*
X39956300Y-153725000D03*
D15*
X42866300Y-158805000D03*
D19*
X41706300Y-147825000D03*
X54106300Y-149925000D03*
D17*
X49216300Y-156265000D03*
%TD*%
D11*
%TO.C,SW6*%
X132825000Y-77525000D03*
D12*
X133275000Y-81325000D03*
D13*
X138275000Y-77525000D03*
D12*
X138275000Y-83425000D03*
D14*
X143275000Y-72375000D03*
D11*
X143725000Y-77525000D03*
D15*
X140815000Y-72445000D03*
D16*
X141975000Y-83425000D03*
X129575000Y-81325000D03*
D17*
X134465000Y-74985000D03*
%TD*%
D11*
%TO.C,SW10*%
X85200000Y-96575000D03*
D12*
X85650000Y-100375000D03*
D13*
X90650000Y-96575000D03*
D12*
X90650000Y-102475000D03*
D14*
X95650000Y-91425000D03*
D11*
X96100000Y-96575000D03*
D15*
X93190000Y-91495000D03*
D16*
X94350000Y-102475000D03*
X81950000Y-100375000D03*
D17*
X86840000Y-94035000D03*
%TD*%
D10*
%TO.C,MH6*%
X137362500Y-153500000D03*
%TD*%
D11*
%TO.C,SW18*%
X128062500Y-115625000D03*
D12*
X128512500Y-119425000D03*
D13*
X133512500Y-115625000D03*
D12*
X133512500Y-121525000D03*
D14*
X138512500Y-110475000D03*
D11*
X138962500Y-115625000D03*
D15*
X136052500Y-110545000D03*
D16*
X137212500Y-121525000D03*
X124812500Y-119425000D03*
D17*
X129702500Y-113085000D03*
%TD*%
D10*
%TO.C,MH4*%
X63612500Y-123000000D03*
%TD*%
D11*
%TO.C,SW11*%
X104250000Y-96575000D03*
D12*
X104700000Y-100375000D03*
D13*
X109700000Y-96575000D03*
D12*
X109700000Y-102475000D03*
D14*
X114700000Y-91425000D03*
D11*
X115150000Y-96575000D03*
D15*
X112240000Y-91495000D03*
D16*
X113400000Y-102475000D03*
X101000000Y-100375000D03*
D17*
X105890000Y-94035000D03*
%TD*%
D11*
%TO.C,SW21*%
X59006300Y-134675000D03*
D12*
X59456300Y-138475000D03*
D13*
X64456300Y-134675000D03*
D12*
X64456300Y-140575000D03*
D14*
X69456300Y-129525000D03*
D11*
X69906300Y-134675000D03*
D15*
X66996300Y-129595000D03*
D16*
X68156300Y-140575000D03*
X55756300Y-138475000D03*
D17*
X60646300Y-132135000D03*
%TD*%
D10*
%TO.C,MH3*%
X39362500Y-111000000D03*
%TD*%
D11*
%TO.C,SW3*%
X75675000Y-77525000D03*
D12*
X76125000Y-81325000D03*
D13*
X81125000Y-77525000D03*
D12*
X81125000Y-83425000D03*
D14*
X86125000Y-72375000D03*
D11*
X86575000Y-77525000D03*
D15*
X83665000Y-72445000D03*
D16*
X84825000Y-83425000D03*
X72425000Y-81325000D03*
D17*
X77315000Y-74985000D03*
%TD*%
D11*
%TO.C,SW26*%
X156637500Y-134675000D03*
D12*
X157087500Y-138475000D03*
D13*
X162087500Y-134675000D03*
D12*
X162087500Y-140575000D03*
D14*
X167087500Y-129525000D03*
D11*
X167537500Y-134675000D03*
D15*
X164627500Y-129595000D03*
D16*
X165787500Y-140575000D03*
X153387500Y-138475000D03*
D17*
X158277500Y-132135000D03*
%TD*%
D11*
%TO.C,SW5*%
X113775000Y-77525000D03*
D12*
X114225000Y-81325000D03*
D13*
X119225000Y-77525000D03*
D12*
X119225000Y-83425000D03*
D14*
X124225000Y-72375000D03*
D11*
X124675000Y-77525000D03*
D15*
X121765000Y-72445000D03*
D16*
X122925000Y-83425000D03*
X110525000Y-81325000D03*
D17*
X115415000Y-74985000D03*
%TD*%
D11*
%TO.C,SW14*%
X55618700Y-115625000D03*
D12*
X55168700Y-111825000D03*
D13*
X50168700Y-115625000D03*
D12*
X50168700Y-109725000D03*
D14*
X45168700Y-120775000D03*
D11*
X44718700Y-115625000D03*
D15*
X47628700Y-120705000D03*
D19*
X46468700Y-109725000D03*
X58868700Y-111825000D03*
D17*
X53978700Y-118165000D03*
%TD*%
D11*
%TO.C,SW16*%
X89962500Y-115625000D03*
D12*
X90412500Y-119425000D03*
D13*
X95412500Y-115625000D03*
D12*
X95412500Y-121525000D03*
D14*
X100412500Y-110475000D03*
D11*
X100862500Y-115625000D03*
D15*
X97952500Y-110545000D03*
D16*
X99112500Y-121525000D03*
X86712500Y-119425000D03*
D17*
X91602500Y-113085000D03*
%TD*%
D11*
%TO.C,SW24*%
X118537500Y-134675000D03*
D12*
X118987500Y-138475000D03*
D13*
X123987500Y-134675000D03*
D12*
X123987500Y-140575000D03*
D14*
X128987500Y-129525000D03*
D11*
X129437500Y-134675000D03*
D15*
X126527500Y-129595000D03*
D16*
X127687500Y-140575000D03*
X115287500Y-138475000D03*
D17*
X120177500Y-132135000D03*
%TD*%
D11*
%TO.C,SW1*%
X48475000Y-77525000D03*
D12*
X48025000Y-73725000D03*
D13*
X43025000Y-77525000D03*
D12*
X43025000Y-71625000D03*
D14*
X38025000Y-82675000D03*
D11*
X37575000Y-77525000D03*
D15*
X40485000Y-82605000D03*
D19*
X39325000Y-71625000D03*
X51725000Y-73725000D03*
D17*
X46835000Y-80065000D03*
%TD*%
D10*
%TO.C,MH5*%
X81112500Y-151750000D03*
%TD*%
D20*
%TO.C,BAT_LEAD_SLOT1*%
X117912500Y-50750000D03*
%TD*%
D21*
%TO.C,J_BAT1*%
X115812500Y-59400000D03*
X113272500Y-59400000D03*
%TD*%
D11*
%TO.C,SW15*%
X70912500Y-115625000D03*
D12*
X71362500Y-119425000D03*
D13*
X76362500Y-115625000D03*
D12*
X76362500Y-121525000D03*
D14*
X81362500Y-110475000D03*
D11*
X81812500Y-115625000D03*
D15*
X78902500Y-110545000D03*
D16*
X80062500Y-121525000D03*
X67662500Y-119425000D03*
D17*
X72552500Y-113085000D03*
%TD*%
D11*
%TO.C,SW20*%
X48475000Y-134675000D03*
D12*
X48025000Y-130875000D03*
D13*
X43025000Y-134675000D03*
D12*
X43025000Y-128775000D03*
D14*
X38025000Y-139825000D03*
D11*
X37575000Y-134675000D03*
D15*
X40485000Y-139755000D03*
D19*
X39325000Y-128775000D03*
X51725000Y-130875000D03*
D17*
X46835000Y-137215000D03*
%TD*%
D11*
%TO.C,SW2*%
X56625000Y-77525000D03*
D12*
X57075000Y-81325000D03*
D13*
X62075000Y-77525000D03*
D12*
X62075000Y-83425000D03*
D14*
X67075000Y-72375000D03*
D11*
X67525000Y-77525000D03*
D15*
X64615000Y-72445000D03*
D16*
X65775000Y-83425000D03*
X53375000Y-81325000D03*
D17*
X58265000Y-74985000D03*
%TD*%
D11*
%TO.C,SW17*%
X109012500Y-115625000D03*
D12*
X109462500Y-119425000D03*
D13*
X114462500Y-115625000D03*
D12*
X114462500Y-121525000D03*
D14*
X119462500Y-110475000D03*
D11*
X119912500Y-115625000D03*
D15*
X117002500Y-110545000D03*
D16*
X118162500Y-121525000D03*
X105762500Y-119425000D03*
D17*
X110652500Y-113085000D03*
%TD*%
D22*
%TO.C,D8*%
X56587500Y-103575000D03*
X52987500Y-103575000D03*
%TD*%
%TO.C,D22*%
X80687500Y-127675000D03*
X77087500Y-127675000D03*
%TD*%
%TO.C,D19*%
X147362500Y-108625000D03*
X143762500Y-108625000D03*
%TD*%
%TO.C,D24*%
X118787500Y-127675000D03*
X115187500Y-127675000D03*
%TD*%
%TO.C,D30*%
X116406300Y-146725000D03*
X112806300Y-146725000D03*
%TD*%
D23*
%TO.C,D4*%
X91425000Y-72475000D03*
X91425000Y-76075000D03*
%TD*%
D22*
%TO.C,D25*%
X137837500Y-127675000D03*
X134237500Y-127675000D03*
%TD*%
%TO.C,D11*%
X104500000Y-89575000D03*
X100900000Y-89575000D03*
%TD*%
%TO.C,D17*%
X109262500Y-108625000D03*
X105662500Y-108625000D03*
%TD*%
%TO.C,D27*%
X56706300Y-156975000D03*
X53106300Y-156975000D03*
%TD*%
%TO.C,D1*%
X51825000Y-84525000D03*
X48225000Y-84525000D03*
%TD*%
%TO.C,D13*%
X142600000Y-89575000D03*
X139000000Y-89575000D03*
%TD*%
%TO.C,D14*%
X58968700Y-122625000D03*
X55368700Y-122625000D03*
%TD*%
%TO.C,D26*%
X156887500Y-127675000D03*
X153287500Y-127675000D03*
%TD*%
%TO.C,D12*%
X123550000Y-89575000D03*
X119950000Y-89575000D03*
%TD*%
%TO.C,D10*%
X85450000Y-89575000D03*
X81850000Y-89575000D03*
%TD*%
%TO.C,D28*%
X64018800Y-146725000D03*
X60418800Y-146725000D03*
%TD*%
D23*
%TO.C,D6*%
X129525000Y-72475000D03*
X129525000Y-76075000D03*
%TD*%
D22*
%TO.C,D18*%
X128312500Y-108625000D03*
X124712500Y-108625000D03*
%TD*%
D23*
%TO.C,D3*%
X72375000Y-72475000D03*
X72375000Y-76075000D03*
%TD*%
D22*
%TO.C,D20*%
X51825000Y-141675000D03*
X48225000Y-141675000D03*
%TD*%
%TO.C,D9*%
X66400000Y-89575000D03*
X62800000Y-89575000D03*
%TD*%
%TO.C,D29*%
X87831300Y-146725000D03*
X84231300Y-146725000D03*
%TD*%
%TO.C,D23*%
X99737500Y-127675000D03*
X96137500Y-127675000D03*
%TD*%
D23*
%TO.C,D7*%
X148575000Y-72475000D03*
X148575000Y-76075000D03*
%TD*%
D22*
%TO.C,D16*%
X90212500Y-108625000D03*
X86612500Y-108625000D03*
%TD*%
D24*
%TO.C,D2*%
X69075000Y-86325000D03*
X69075000Y-82725000D03*
%TD*%
D22*
%TO.C,D21*%
X59256300Y-127675000D03*
X55656300Y-127675000D03*
%TD*%
%TO.C,D31*%
X149743800Y-146725000D03*
X146143800Y-146725000D03*
%TD*%
%TO.C,D15*%
X71162500Y-108625000D03*
X67562500Y-108625000D03*
%TD*%
D23*
%TO.C,D5*%
X110475000Y-72475000D03*
X110475000Y-76075000D03*
%TD*%
M02*
