M48
; DRILL file KiCad 10.0.3 date 2026-09-06T21:24:53
; FORMAT={-:-/ absolute / metric / decimal}
; #@! TF.CreationDate,2026-09-06T21:24:53+09:00
; #@! TF.GenerationSoftware,Kicad,Pcbnew,10.0.3
; #@! TF.FileFunction,NonPlated,1,2,NPTH
FMAT,2
METRIC
; #@! TA.AperFunction,NonPlated,NPTH,ComponentDrill
T1C1.600
; #@! TA.AperFunction,NonPlated,NPTH,ComponentDrill
T2C1.650
; #@! TA.AperFunction,NonPlated,NPTH,ComponentDrill
T3C2.200
; #@! TA.AperFunction,NonPlated,NPTH,ComponentDrill
T4C2.600
; #@! TA.AperFunction,NonPlated,NPTH,ComponentDrill
T5C3.000
; #@! TA.AperFunction,NonPlated,NPTH,ComponentDrill
T6C5.000
%
G90
G05
T1
X39.362Y-111.0
X63.612Y-123.0
X75.25Y-134.0
X81.112Y-151.75
X112.862Y-43.0
X137.362Y-153.5
X144.112Y-66.25
X165.862Y-148.75
T2
X38.025Y-82.675
X38.025Y-139.825
X40.406Y-158.875
X42.788Y-101.725
X45.169Y-120.775
X67.075Y-72.375
X69.456Y-129.525
X74.219Y-148.575
X76.6Y-91.425
X81.362Y-110.475
X86.125Y-72.375
X90.888Y-129.525
X95.65Y-91.425
X98.031Y-148.575
X100.412Y-110.475
X105.175Y-72.375
X109.938Y-129.525
X114.7Y-91.425
X119.462Y-110.475
X124.225Y-72.375
X126.606Y-148.575
X128.987Y-129.525
X133.75Y-91.425
X138.512Y-110.475
X143.275Y-72.375
X148.037Y-129.525
X152.8Y-91.425
X157.562Y-110.475
X159.944Y-148.575
X162.325Y-72.375
X167.088Y-129.525
T4
X37.575Y-77.525
X37.575Y-134.675
X39.956Y-153.725
X42.337Y-96.575
X44.719Y-115.625
X48.475Y-77.525
X48.475Y-134.675
X50.856Y-153.725
X53.237Y-96.575
X55.619Y-115.625
X56.625Y-77.525
X59.006Y-134.675
X63.769Y-153.725
X66.15Y-96.575
X67.525Y-77.525
X69.906Y-134.675
X70.912Y-115.625
X74.669Y-153.725
X75.675Y-77.525
X77.05Y-96.575
X80.438Y-134.675
X81.812Y-115.625
X85.2Y-96.575
X86.575Y-77.525
X87.581Y-153.725
X89.962Y-115.625
X91.337Y-134.675
X94.725Y-77.525
X96.1Y-96.575
X98.481Y-153.725
X99.487Y-134.675
X100.862Y-115.625
X104.25Y-96.575
X105.625Y-77.525
X109.012Y-115.625
X110.387Y-134.675
X113.775Y-77.525
X115.15Y-96.575
X116.156Y-153.725
X118.537Y-134.675
X119.912Y-115.625
X123.3Y-96.575
X124.675Y-77.525
X127.056Y-153.725
X128.062Y-115.625
X129.438Y-134.675
X132.825Y-77.525
X134.2Y-96.575
X137.588Y-134.675
X138.963Y-115.625
X142.35Y-96.575
X143.725Y-77.525
X147.112Y-115.625
X148.487Y-134.675
X149.494Y-153.725
X151.875Y-77.525
X153.25Y-96.575
X156.637Y-134.675
X158.012Y-115.625
X160.394Y-153.725
X162.775Y-77.525
X167.537Y-134.675
T5
X43.025Y-71.625
X43.025Y-128.775
X45.406Y-147.825
X47.787Y-90.675
X48.025Y-73.725
X48.025Y-130.875
X50.169Y-109.725
X50.406Y-149.925
X52.787Y-92.775
X55.169Y-111.825
X57.075Y-81.325
X59.456Y-138.475
X62.075Y-83.425
X64.219Y-157.525
X64.456Y-140.575
X66.6Y-100.375
X69.219Y-159.625
X71.362Y-119.425
X71.6Y-102.475
X76.125Y-81.325
X76.362Y-121.525
X80.888Y-138.475
X81.125Y-83.425
X85.65Y-100.375
X85.888Y-140.575
X88.031Y-157.525
X90.412Y-119.425
X90.65Y-102.475
X93.031Y-159.625
X95.175Y-81.325
X95.412Y-121.525
X99.938Y-138.475
X100.175Y-83.425
X104.7Y-100.375
X104.938Y-140.575
X109.462Y-119.425
X109.7Y-102.475
X114.225Y-81.325
X114.462Y-121.525
X116.606Y-157.525
X118.987Y-138.475
X119.225Y-83.425
X121.606Y-159.625
X123.75Y-100.375
X123.987Y-140.575
X128.512Y-119.425
X128.75Y-102.475
X133.275Y-81.325
X133.512Y-121.525
X138.037Y-138.475
X138.275Y-83.425
X142.8Y-100.375
X143.037Y-140.575
X147.562Y-119.425
X147.8Y-102.475
X149.944Y-157.525
X152.325Y-81.325
X152.562Y-121.525
X154.944Y-159.625
X157.088Y-138.475
X157.325Y-83.425
X162.088Y-140.575
T6
X43.025Y-77.525
X43.025Y-134.675
X45.406Y-153.725
X47.787Y-96.575
X50.169Y-115.625
X62.075Y-77.525
X64.456Y-134.675
X69.219Y-153.725
X71.6Y-96.575
X76.362Y-115.625
X81.125Y-77.525
X85.888Y-134.675
X90.65Y-96.575
X93.031Y-153.725
X95.412Y-115.625
X100.175Y-77.525
X104.938Y-134.675
X109.7Y-96.575
X114.462Y-115.625
X119.225Y-77.525
X121.606Y-153.725
X123.987Y-134.675
X128.75Y-96.575
X133.512Y-115.625
X138.275Y-77.525
X143.037Y-134.675
X147.8Y-96.575
X152.562Y-115.625
X154.944Y-153.725
X157.325Y-77.525
X162.088Y-134.675
T3
X117.212Y-50.75G85X118.612Y-50.75
G05
M30
