<svg xmlns="http://www.w3.org/2000/svg" width="320" height="749" viewBox="0 0 320 749">
<rect width="100%" height="100%" fill="#f7f5ee"/>
<g id="interlock-clearance" data-placement-mode="interlock-clearance" data-clearance-mm="1.0000" data-clearance-width-px="5.00" data-measurement-width-px="5.00" data-key-horizontal-clearance-mm="1.8000" data-interlock-overlap-mm="13.2875">
<polygon points="163.06,40.62 165.61,41.88 166.86,43.12 167.67,44.38 168.21,45.62 168.59,46.88 168.73,48.12 168.87,49.38 168.94,50.62 168.94,51.88 168.94,53.12 168.94,54.38 168.94,55.62 168.94,56.88 168.94,58.12 168.94,59.38 168.94,60.62 168.94,61.88 168.94,63.12 168.94,64.38 168.94,65.62 168.94,66.88 168.94,68.12 168.94,69.38 168.94,70.62 168.94,71.88 168.94,73.12 168.94,74.38 168.94,75.62 168.94,76.88 168.94,78.12 168.94,79.38 168.94,80.62 168.94,81.88 168.94,83.12 168.94,84.38 168.94,85.62 168.94,86.88 168.94,88.12 168.94,89.38 168.94,90.62 168.94,91.88 168.94,93.12 168.94,94.38 168.94,95.62 168.94,96.88 168.94,98.12 168.94,99.38 168.94,100.62 168.94,101.88 168.94,103.12 168.94,104.38 168.94,105.62 168.94,106.88 168.94,108.12 168.94,109.38 168.94,110.62 168.94,111.88 168.94,113.12 168.94,114.38 168.94,115.62 168.94,116.88 168.94,118.12 168.94,119.38 168.94,120.62 168.94,121.88 168.94,123.12 168.94,124.38 168.94,125.62 168.94,126.88 168.94,128.12 168.94,129.38 168.94,130.62 168.94,131.88 168.94,133.12 168.94,134.38 168.94,135.62 168.94,136.88 168.94,138.12 168.94,139.38 168.94,140.62 168.94,141.88 168.94,143.12 168.94,144.38 168.94,145.62 168.94,146.88 168.94,148.12 168.94,149.38 168.94,150.62 168.94,151.88 168.94,153.12 168.94,154.38 168.94,155.62 168.94,156.88 168.94,158.12 168.94,159.38 168.94,160.62 168.94,161.88 168.94,163.12 168.94,164.38 168.94,165.62 168.94,166.88 169.01,168.12 169.15,169.38 169.28,170.62 169.67,171.88 170.21,173.12 171.01,174.38 172.26,175.62 174.81,176.88 199.25,178.12 201.80,179.38 203.05,180.62 203.86,181.88 204.39,183.12 204.78,184.38 204.92,185.62 205.06,186.88 205.12,188.12 205.12,189.38 205.12,190.62 205.12,191.88 205.12,193.12 205.12,194.38 205.12,195.62 205.12,196.88 205.12,198.12 205.12,199.38 205.12,200.62 205.12,201.88 205.12,203.12 205.12,204.38 205.12,205.62 205.12,206.88 205.12,208.12 205.12,209.38 205.12,210.62 205.12,211.88 205.12,213.12 205.12,214.38 205.12,215.62 205.12,216.88 205.12,218.12 205.12,219.38 205.12,220.62 205.12,221.88 205.12,223.12 205.12,224.38 205.12,225.62 205.12,226.88 205.12,228.12 205.12,229.38 205.12,230.62 205.12,231.88 205.12,233.12 205.12,234.38 205.12,235.62 205.12,236.88 205.12,238.12 205.12,239.38 205.12,240.62 205.12,241.88 205.12,243.12 205.12,244.38 205.12,245.62 205.12,246.88 205.12,248.12 205.12,249.38 205.12,250.62 205.12,251.88 205.12,253.12 205.12,254.38 205.12,255.62 205.12,256.88 205.12,258.12 205.12,259.38 205.12,260.62 205.12,261.88 205.12,263.12 205.12,264.38 205.12,265.62 205.12,266.88 205.12,268.12 205.12,269.38 205.12,270.62 205.12,271.88 205.12,273.12 205.12,274.38 205.12,275.62 205.12,276.88 205.12,278.12 205.12,279.38 205.12,280.62 205.12,281.88 205.12,283.12 205.12,284.38 205.12,285.62 205.12,286.88 205.12,288.12 205.12,289.38 205.08,290.62 204.94,291.88 204.81,293.12 204.50,294.38 203.96,295.62 203.30,296.88 202.05,298.12 199.83,299.38 164.12,300.62 161.08,301.88 159.83,303.12 158.87,304.38 158.34,305.62 157.87,306.88 157.74,308.12 157.60,309.38 157.50,310.62 157.50,311.88 157.50,313.12 157.50,314.38 157.50,315.62 157.50,316.88 157.50,318.12 157.50,319.38 157.50,320.62 157.50,321.88 157.50,323.12 157.50,324.38 157.50,325.62 157.50,326.88 157.50,328.12 157.50,329.38 157.50,330.62 157.50,331.88 157.50,333.12 157.50,334.38 157.50,335.62 157.50,336.88 157.50,338.12 157.50,339.38 157.50,340.62 157.50,341.88 157.50,343.12 157.50,344.38 157.50,345.62 157.50,346.88 157.50,348.12 157.50,349.38 157.50,350.62 157.50,351.88 157.50,353.12 157.50,354.38 157.50,355.62 157.50,356.88 157.50,358.12 157.50,359.38 157.50,360.62 157.50,361.88 157.50,363.12 157.50,364.38 157.50,365.62 157.50,366.88 157.50,368.12 157.50,369.38 157.50,370.62 157.50,371.88 157.50,373.12 157.50,374.38 157.50,375.62 157.50,376.88 157.50,378.12 157.50,379.38 157.50,380.62 157.50,381.88 157.50,383.12 157.50,384.38 157.51,385.62 157.65,386.88 157.79,388.12 158.02,389.38 158.55,390.62 159.09,391.88 160.32,393.12 162.21,394.38 172.44,395.62 177.19,396.88 178.74,398.12 179.83,399.38 180.37,400.62 180.90,401.88 181.05,403.12 181.19,404.38 181.31,405.62 181.31,406.88 181.31,408.12 181.31,409.38 181.31,410.62 181.31,411.88 181.31,413.12 181.31,414.38 181.31,415.62 181.31,416.88 181.31,418.12 181.31,419.38 181.31,420.62 181.31,421.88 181.31,423.12 181.31,424.38 181.31,425.62 181.31,426.88 181.31,428.12 181.31,429.38 181.31,430.62 181.31,431.88 181.31,433.12 181.31,434.38 181.31,435.62 181.31,436.88 181.31,438.12 181.31,439.38 181.31,440.62 181.31,441.88 181.31,443.12 181.31,444.38 181.31,445.62 181.31,446.88 181.31,448.12 181.31,449.38 181.31,450.62 181.31,451.88 181.31,453.12 181.31,454.38 181.31,455.62 181.31,456.88 181.31,458.12 181.31,459.38 181.31,460.62 181.31,461.88 181.31,463.12 181.31,464.38 181.31,465.62 181.31,466.88 181.31,468.12 181.31,469.38 181.31,470.62 181.31,471.88 181.31,473.12 181.31,474.38 181.31,475.62 181.31,476.88 181.31,478.12 181.31,479.38 181.31,480.62 181.44,481.88 181.58,483.12 181.72,484.38 182.26,485.62 182.79,486.88 183.89,488.12 185.44,489.38 190.19,490.62 224.23,491.88 226.11,493.12 227.35,494.38 227.88,495.62 228.42,496.88 228.65,498.12 228.78,499.38 228.92,500.62 228.94,501.88 228.94,503.12 228.94,504.38 228.94,505.62 228.94,506.88 228.94,508.12 228.94,509.38 228.94,510.62 228.94,511.88 228.94,513.12 228.94,514.38 228.94,515.62 228.94,516.88 228.94,518.12 228.94,519.38 228.94,520.62 228.94,521.88 228.94,523.12 228.94,524.38 228.94,525.62 228.94,526.88 228.94,528.12 228.94,529.38 228.94,530.62 228.94,531.88 228.94,533.12 228.94,534.38 228.94,535.62 228.94,536.88 228.94,538.12 228.94,539.38 228.94,540.62 228.94,541.88 228.94,543.12 228.94,544.38 228.94,545.62 228.94,546.88 228.94,548.12 228.94,549.38 228.94,550.62 228.94,551.88 228.94,553.12 228.94,554.38 228.94,555.62 228.94,556.88 228.94,558.12 228.94,559.38 228.94,560.62 228.94,561.88 228.94,563.12 228.94,564.38 228.94,565.62 228.94,566.88 228.94,568.12 228.94,569.38 228.94,570.62 228.94,571.88 228.94,573.12 228.94,574.38 228.94,575.62 228.94,576.88 228.94,578.12 228.94,579.38 228.94,580.62 228.94,581.88 228.94,583.12 228.94,584.38 228.94,585.62 228.94,586.88 228.94,588.12 228.94,589.38 228.94,590.62 228.94,591.88 228.94,593.12 228.94,594.38 228.94,595.62 228.94,596.88 228.94,598.12 228.94,599.38 228.94,600.62 228.94,601.88 228.94,603.12 228.94,604.38 228.94,605.62 228.94,606.88 228.94,608.12 228.94,609.38 228.94,610.62 228.94,611.88 228.94,613.12 228.94,614.38 228.94,615.62 228.94,616.88 228.94,618.12 228.94,619.38 228.94,620.62 228.94,621.88 228.94,623.12 228.94,624.38 228.94,625.62 228.94,626.88 228.94,628.12 228.94,629.38 228.94,630.62 228.94,631.88 228.94,633.12 228.94,634.38 228.94,635.62 228.94,636.88 228.94,638.12 228.94,639.38 228.94,640.62 228.94,641.88 228.94,643.12 228.94,644.38 228.94,645.62 228.94,646.88 228.94,648.12 228.94,649.38 228.94,650.62 228.94,651.88 228.94,653.12 228.94,654.38 228.94,655.62 228.94,656.88 228.94,658.12 228.94,659.38 228.94,660.62 228.94,661.88 228.94,663.12 228.94,664.38 228.94,665.62 228.94,666.88 228.94,668.12 228.94,669.38 228.94,670.62 228.94,671.88 228.94,673.12 228.94,674.38 228.94,675.62 228.94,676.88 228.94,678.12 228.94,679.38 228.94,680.62 228.94,681.88 228.94,683.12 228.94,684.38 228.94,685.62 228.94,686.88 228.94,688.12 228.94,689.38 228.94,690.62 228.94,691.88 228.94,693.12 228.94,694.38 228.94,695.62 228.94,696.88 228.94,698.12 228.87,699.38 228.73,700.62 228.59,701.88 228.21,703.12 227.67,704.38 226.86,705.62 225.61,706.88 223.06,708.12 239.81,708.12 237.26,706.88 236.01,705.62 235.21,704.38 234.67,703.12 234.28,701.88 234.15,700.62 234.01,699.38 233.94,698.12 233.94,696.88 233.94,695.62 233.94,694.38 233.94,693.12 233.94,691.88 233.94,690.62 233.94,689.38 233.94,688.12 233.94,686.88 233.94,685.62 233.94,684.38 233.94,683.12 233.94,681.88 233.94,680.62 233.94,679.38 233.94,678.12 233.94,676.88 233.94,675.62 233.94,674.38 233.94,673.12 233.94,671.88 233.94,670.62 233.94,669.38 233.94,668.12 233.94,666.88 233.94,665.62 233.94,664.38 233.94,663.12 233.94,661.88 233.94,660.62 233.94,659.38 233.94,658.12 233.94,656.88 233.94,655.62 233.94,654.38 233.94,653.12 233.94,651.88 233.94,650.62 233.94,649.38 233.94,648.12 233.94,646.88 233.94,645.62 233.94,644.38 233.94,643.12 233.94,641.88 233.94,640.62 233.94,639.38 233.94,638.12 233.94,636.88 233.94,635.62 233.94,634.38 233.94,633.12 233.94,631.88 233.94,630.62 233.94,629.38 233.94,628.12 233.94,626.88 233.94,625.62 233.94,624.38 233.94,623.12 233.94,621.88 233.94,620.62 233.94,619.38 233.94,618.12 233.94,616.88 233.94,615.62 233.94,614.38 233.94,613.12 233.94,611.88 233.94,610.62 233.94,609.38 233.94,608.12 233.94,606.88 233.94,605.62 233.94,604.38 233.94,603.12 233.94,601.88 233.94,600.62 233.94,599.38 233.94,598.12 233.94,596.88 233.94,595.62 233.94,594.38 233.94,593.12 233.94,591.88 233.94,590.62 233.94,589.38 233.94,588.12 233.94,586.88 233.94,585.62 233.94,584.38 233.94,583.12 233.94,581.88 233.94,580.62 233.94,579.38 233.94,578.12 233.94,576.88 233.94,575.62 233.94,574.38 233.94,573.12 233.94,571.88 233.94,570.62 233.94,569.38 233.94,568.12 233.94,566.88 233.94,565.62 233.94,564.38 233.94,563.12 233.94,561.88 233.94,560.62 233.94,559.38 233.94,558.12 233.94,556.88 233.94,555.62 233.94,554.38 233.94,553.12 233.94,551.88 233.94,550.62 233.94,549.38 233.94,548.12 233.94,546.88 233.94,545.62 233.94,544.38 233.94,543.12 233.94,541.88 233.94,540.62 233.94,539.38 233.94,538.12 233.94,536.88 233.94,535.62 233.94,534.38 233.94,533.12 233.94,531.88 233.94,530.62 233.94,529.38 233.94,528.12 233.94,526.88 233.94,525.62 233.94,524.38 233.94,523.12 233.94,521.88 233.94,520.62 233.94,519.38 233.94,518.12 233.94,516.88 233.94,515.62 233.94,514.38 233.94,513.12 233.94,511.88 233.94,510.62 233.94,509.38 233.94,508.12 233.94,506.88 233.94,505.62 233.94,504.38 233.94,503.12 233.94,501.88 233.92,500.62 233.78,499.38 233.65,498.12 233.42,496.88 232.88,495.62 232.35,494.38 231.11,493.12 229.23,491.88 197.94,490.62 190.44,489.38 188.89,488.12 187.79,486.88 187.26,485.62 186.72,484.38 186.58,483.12 186.44,481.88 186.31,480.62 186.31,479.38 186.31,478.12 186.31,476.88 186.31,475.62 186.31,474.38 186.31,473.12 186.31,471.88 186.31,470.62 186.31,469.38 186.31,468.12 186.31,466.88 186.31,465.62 186.31,464.38 186.31,463.12 186.31,461.88 186.31,460.62 186.31,459.38 186.31,458.12 186.31,456.88 186.31,455.62 186.31,454.38 186.31,453.12 186.31,451.88 186.31,450.62 186.31,449.38 186.31,448.12 186.31,446.88 186.31,445.62 186.31,444.38 186.31,443.12 186.31,441.88 186.31,440.62 186.31,439.38 186.31,438.12 186.31,436.88 186.31,435.62 186.31,434.38 186.31,433.12 186.31,431.88 186.31,430.62 186.31,429.38 186.31,428.12 186.31,426.88 186.31,425.62 186.31,424.38 186.31,423.12 186.31,421.88 186.31,420.62 186.31,419.38 186.31,418.12 186.31,416.88 186.31,415.62 186.31,414.38 186.31,413.12 186.31,411.88 186.31,410.62 186.31,409.38 186.31,408.12 186.31,406.88 186.31,405.62 186.19,404.38 186.05,403.12 185.90,401.88 185.37,400.62 184.83,399.38 183.74,398.12 182.19,396.88 177.44,395.62 167.21,394.38 165.32,393.12 164.09,391.88 163.55,390.62 163.02,389.38 162.79,388.12 162.65,386.88 162.51,385.62 162.50,384.38 162.50,383.12 162.50,381.88 162.50,380.62 162.50,379.38 162.50,378.12 162.50,376.88 162.50,375.62 162.50,374.38 162.50,373.12 162.50,371.88 162.50,370.62 162.50,369.38 162.50,368.12 162.50,366.88 162.50,365.62 162.50,364.38 162.50,363.12 162.50,361.88 162.50,360.62 162.50,359.38 162.50,358.12 162.50,356.88 162.50,355.62 162.50,354.38 162.50,353.12 162.50,351.88 162.50,350.62 162.50,349.38 162.50,348.12 162.50,346.88 162.50,345.62 162.50,344.38 162.50,343.12 162.50,341.88 162.50,340.62 162.50,339.38 162.50,338.12 162.50,336.88 162.50,335.62 162.50,334.38 162.50,333.12 162.50,331.88 162.50,330.62 162.50,329.38 162.50,328.12 162.50,326.88 162.50,325.62 162.50,324.38 162.50,323.12 162.50,321.88 162.50,320.62 162.50,319.38 162.50,318.12 162.50,316.88 162.50,315.62 162.50,314.38 162.50,313.12 162.50,311.88 162.50,310.62 162.60,309.38 162.74,308.12 162.87,306.88 163.34,305.62 163.88,304.38 164.83,303.12 166.08,301.88 169.37,300.62 204.83,299.38 207.05,298.12 208.30,296.88 208.96,295.62 209.50,294.38 209.81,293.12 209.94,291.88 210.08,290.62 210.13,289.38 210.13,288.12 210.13,286.88 210.13,285.62 210.13,284.38 210.13,283.12 210.13,281.88 210.13,280.62 210.13,279.38 210.13,278.12 210.13,276.88 210.13,275.62 210.13,274.38 210.13,273.12 210.13,271.88 210.13,270.62 210.13,269.38 210.13,268.12 210.13,266.88 210.13,265.62 210.13,264.38 210.13,263.12 210.13,261.88 210.13,260.62 210.13,259.38 210.13,258.12 210.13,256.88 210.13,255.62 210.13,254.38 210.13,253.12 210.13,251.88 210.13,250.62 210.13,249.38 210.13,248.12 210.13,246.88 210.13,245.62 210.13,244.38 210.13,243.12 210.13,241.88 210.13,240.62 210.13,239.38 210.13,238.12 210.13,236.88 210.13,235.62 210.13,234.38 210.13,233.12 210.13,231.88 210.13,230.62 210.13,229.38 210.13,228.12 210.13,226.88 210.13,225.62 210.13,224.38 210.13,223.12 210.13,221.88 210.13,220.62 210.13,219.38 210.13,218.12 210.13,216.88 210.13,215.62 210.13,214.38 210.13,213.12 210.13,211.88 210.13,210.62 210.13,209.38 210.13,208.12 210.13,206.88 210.13,205.62 210.13,204.38 210.13,203.12 210.13,201.88 210.13,200.62 210.13,199.38 210.13,198.12 210.13,196.88 210.13,195.62 210.13,194.38 210.13,193.12 210.13,191.88 210.13,190.62 210.13,189.38 210.13,188.12 210.13,186.88 210.17,185.62 210.31,184.38 210.44,183.12 210.75,181.88 211.29,180.62 211.95,179.38 213.20,178.12 215.42,176.88 240.87,175.62 243.92,174.38 245.17,173.12 246.12,171.88 246.66,170.62 247.13,169.38 247.26,168.12 247.40,166.88 247.50,165.62 247.50,164.38 247.50,163.12 247.50,161.88 247.50,160.62 247.50,159.38 247.50,158.12 247.50,156.88 247.50,155.62 247.50,154.38 247.50,153.12 247.50,151.88 247.50,150.62 247.50,149.38 247.50,148.12 247.50,146.88 247.50,145.62 247.50,144.38 247.50,143.12 247.50,141.88 247.50,140.62 247.50,139.38 247.50,138.12 247.50,136.88 247.50,135.62 247.50,134.38 247.50,133.12 247.50,131.88 247.50,130.62 247.50,129.38 247.50,128.12 247.50,126.88 247.50,125.62 247.50,124.38 247.50,123.12 247.50,121.88 247.50,120.62 247.50,119.38 247.50,118.12 247.50,116.88 247.50,115.62 247.50,114.38 247.50,113.12 247.50,111.88 247.50,110.62 247.50,109.38 247.50,108.12 247.50,106.88 247.50,105.62 247.50,104.38 247.50,103.12 247.50,101.88 247.50,100.62 247.50,99.38 247.50,98.12 247.50,96.88 247.50,95.62 247.50,94.38 247.50,93.12 247.50,91.88 247.50,90.62 247.50,89.38 247.50,88.12 247.50,86.88 247.50,85.62 247.50,84.38 247.50,83.12 247.50,81.88 247.50,80.62 247.50,79.38 247.50,78.12 247.50,76.88 247.50,75.62 247.50,74.38 247.50,73.12 247.50,71.88 247.50,70.62 247.50,69.38 247.50,68.12 247.50,66.88 247.50,65.62 247.50,64.38 247.50,63.12 247.50,61.88 247.50,60.62 247.50,59.38 247.50,58.12 247.50,56.88 247.50,55.62 247.50,54.38 247.50,53.12 247.50,51.88 247.50,50.62 247.57,49.38 247.71,48.12 247.85,46.88 248.23,45.62 248.77,44.38 249.57,43.12 250.82,41.88 253.38,40.62" fill="#f6b8a9" fill-opacity="0.55" stroke="none"/>
</g>
<rect x="8" y="8" width="320" height="48" fill="#f7f5ee" fill-opacity="0.94" stroke="none"/>
<text x="16" y="24" font-family="Arial" font-size="15" fill="#222">KC2 X3 interlocked joined top view, board-coordinate composite</text>
<text x="16" y="44" font-family="Arial" font-size="11" fill="#555">Scale: 5 px/mm. Min Edge.Cuts clearance: 1.00 mm. Interlock overlap: 13.29 mm.</text>
<line x1="157.50" y1="347.88" x2="162.50" y2="347.88" stroke="#d33b2f" stroke-width="2"/>
<line x1="157.50" y1="341.88" x2="157.50" y2="353.88" stroke="#d33b2f" stroke-width="2"/>
<line x1="162.50" y1="341.88" x2="162.50" y2="353.88" stroke="#d33b2f" stroke-width="2"/>
<text x="160.00" y="339.88" text-anchor="middle" font-family="Arial" font-size="10" fill="#8b2318">1.0 mm</text>
<line x1="-507.13" y1="187.50" x2="-506.73" y2="183.90" stroke="#102018" stroke-width="2" fill="none"/>
<line x1="-507.13" y1="195.00" x2="-507.13" y2="187.50" stroke="#102018" stroke-width="2" fill="none"/>
<line x1="-507.13" y1="199.00" x2="-507.13" y2="195.00" stroke="#102018" stroke-width="2" fill="none"/>
<line x1="-507.13" y1="203.00" x2="-507.13" y2="199.00" stroke="#102018" stroke-width="2" fill="none"/>
<line x1="-507.13" y1="207.00" x2="-507.13" y2="203.00" stroke="#102018" stroke-width="2" fill="none"/>
<line x1="-507.13" y1="211.00" x2="-507.13" y2="207.00" stroke="#102018" stroke-width="2" fill="none"/>
<line x1="-507.13" y1="215.00" x2="-507.13" y2="211.00" stroke="#102018" stroke-width="2" fill="none"/>
<line x1="-507.13" y1="290.25" x2="-507.13" y2="215.00" stroke="#102018" stroke-width="2" fill="none"/>
<line x1="-507.13" y1="294.25" x2="-507.13" y2="290.25" stroke="#102018" stroke-width="2" fill="none"/>
<line x1="-507.13" y1="298.25" x2="-507.13" y2="294.25" stroke="#102018" stroke-width="2" fill="none"/>
<line x1="-507.13" y1="302.25" x2="-507.13" y2="298.25" stroke="#102018" stroke-width="2" fill="none"/>
<line x1="-507.13" y1="306.25" x2="-507.13" y2="302.25" stroke="#102018" stroke-width="2" fill="none"/>
<line x1="-507.13" y1="310.25" x2="-507.13" y2="306.25" stroke="#102018" stroke-width="2" fill="none"/>
<line x1="-507.13" y1="385.50" x2="-507.13" y2="310.25" stroke="#102018" stroke-width="2" fill="none"/>
<line x1="-507.13" y1="389.50" x2="-507.13" y2="385.50" stroke="#102018" stroke-width="2" fill="none"/>
<line x1="-507.13" y1="393.50" x2="-507.13" y2="389.50" stroke="#102018" stroke-width="2" fill="none"/>
<line x1="-507.13" y1="397.50" x2="-507.13" y2="393.50" stroke="#102018" stroke-width="2" fill="none"/>
<line x1="-507.13" y1="401.50" x2="-507.13" y2="397.50" stroke="#102018" stroke-width="2" fill="none"/>
<line x1="-507.13" y1="405.50" x2="-507.13" y2="401.50" stroke="#102018" stroke-width="2" fill="none"/>
<line x1="-507.13" y1="480.75" x2="-507.13" y2="405.50" stroke="#102018" stroke-width="2" fill="none"/>
<line x1="-507.13" y1="484.75" x2="-507.13" y2="480.75" stroke="#102018" stroke-width="2" fill="none"/>
<line x1="-507.13" y1="488.75" x2="-507.13" y2="484.75" stroke="#102018" stroke-width="2" fill="none"/>
<line x1="-507.13" y1="492.75" x2="-507.13" y2="488.75" stroke="#102018" stroke-width="2" fill="none"/>
<line x1="-507.13" y1="496.75" x2="-507.13" y2="492.75" stroke="#102018" stroke-width="2" fill="none"/>
<line x1="-507.13" y1="500.75" x2="-507.13" y2="496.75" stroke="#102018" stroke-width="2" fill="none"/>
<line x1="-507.13" y1="576.00" x2="-507.13" y2="500.75" stroke="#102018" stroke-width="2" fill="none"/>
<line x1="-507.13" y1="580.00" x2="-507.13" y2="576.00" stroke="#102018" stroke-width="2" fill="none"/>
<line x1="-507.13" y1="584.00" x2="-507.13" y2="580.00" stroke="#102018" stroke-width="2" fill="none"/>
<line x1="-507.13" y1="588.00" x2="-507.13" y2="584.00" stroke="#102018" stroke-width="2" fill="none"/>
<line x1="-507.13" y1="592.00" x2="-507.13" y2="588.00" stroke="#102018" stroke-width="2" fill="none"/>
<line x1="-507.13" y1="596.00" x2="-507.13" y2="592.00" stroke="#102018" stroke-width="2" fill="none"/>
<line x1="-507.13" y1="698.75" x2="-507.13" y2="596.00" stroke="#102018" stroke-width="2" fill="none"/>
<line x1="-506.73" y1="183.90" x2="-505.53" y2="181.10" stroke="#102018" stroke-width="2" fill="none"/>
<line x1="-506.73" y1="702.35" x2="-507.13" y2="698.75" stroke="#102018" stroke-width="2" fill="none"/>
<line x1="-505.53" y1="181.10" x2="-503.53" y2="179.10" stroke="#102018" stroke-width="2" fill="none"/>
<line x1="-505.53" y1="705.15" x2="-506.73" y2="702.35" stroke="#102018" stroke-width="2" fill="none"/>
<line x1="-503.53" y1="179.10" x2="-500.73" y2="177.90" stroke="#102018" stroke-width="2" fill="none"/>
<line x1="-503.53" y1="707.15" x2="-505.53" y2="705.15" stroke="#102018" stroke-width="2" fill="none"/>
<line x1="-500.73" y1="177.90" x2="-497.13" y2="177.50" stroke="#102018" stroke-width="2" fill="none"/>
<line x1="-500.73" y1="708.35" x2="-503.53" y2="707.15" stroke="#102018" stroke-width="2" fill="none"/>
<line x1="-497.13" y1="177.50" x2="-111.06" y2="177.50" stroke="#102018" stroke-width="2" fill="none"/>
<line x1="-497.13" y1="708.75" x2="-500.73" y2="708.35" stroke="#102018" stroke-width="2" fill="none"/>
<line x1="-111.06" y1="177.50" x2="-107.46" y2="177.10" stroke="#102018" stroke-width="2" fill="none"/>
<line x1="-107.46" y1="177.10" x2="-104.66" y2="175.90" stroke="#102018" stroke-width="2" fill="none"/>
<line x1="-104.66" y1="175.90" x2="-102.66" y2="173.90" stroke="#102018" stroke-width="2" fill="none"/>
<line x1="-102.66" y1="173.90" x2="-101.46" y2="171.10" stroke="#102018" stroke-width="2" fill="none"/>
<line x1="-101.46" y1="171.10" x2="-101.06" y2="167.50" stroke="#102018" stroke-width="2" fill="none"/>
<line x1="-101.06" y1="50.00" x2="-100.66" y2="46.40" stroke="#102018" stroke-width="2" fill="none"/>
<line x1="-101.06" y1="167.50" x2="-101.06" y2="50.00" stroke="#102018" stroke-width="2" fill="none"/>
<line x1="-100.66" y1="46.40" x2="-99.46" y2="43.60" stroke="#102018" stroke-width="2" fill="none"/>
<line x1="-99.46" y1="43.60" x2="-97.46" y2="41.60" stroke="#102018" stroke-width="2" fill="none"/>
<line x1="-97.46" y1="41.60" x2="-94.66" y2="40.40" stroke="#102018" stroke-width="2" fill="none"/>
<line x1="-94.66" y1="40.40" x2="-91.06" y2="40.00" stroke="#102018" stroke-width="2" fill="none"/>
<line x1="-91.06" y1="40.00" x2="158.94" y2="40.00" stroke="#102018" stroke-width="2" fill="none"/>
<line x1="157.50" y1="310.25" x2="157.50" y2="385.50" stroke="#102018" stroke-width="2" fill="none"/>
<line x1="157.50" y1="385.50" x2="157.90" y2="389.10" stroke="#102018" stroke-width="2" fill="none"/>
<line x1="157.90" y1="306.65" x2="157.50" y2="310.25" stroke="#102018" stroke-width="2" fill="none"/>
<line x1="157.90" y1="389.10" x2="159.10" y2="391.90" stroke="#102018" stroke-width="2" fill="none"/>
<line x1="158.94" y1="40.00" x2="162.54" y2="40.40" stroke="#102018" stroke-width="2" fill="none"/>
<line x1="159.10" y1="303.85" x2="157.90" y2="306.65" stroke="#102018" stroke-width="2" fill="none"/>
<line x1="159.10" y1="391.90" x2="161.10" y2="393.90" stroke="#102018" stroke-width="2" fill="none"/>
<line x1="161.10" y1="301.85" x2="159.10" y2="303.85" stroke="#102018" stroke-width="2" fill="none"/>
<line x1="161.10" y1="393.90" x2="163.90" y2="395.10" stroke="#102018" stroke-width="2" fill="none"/>
<line x1="162.54" y1="40.40" x2="165.34" y2="41.60" stroke="#102018" stroke-width="2" fill="none"/>
<line x1="163.90" y1="300.65" x2="161.10" y2="301.85" stroke="#102018" stroke-width="2" fill="none"/>
<line x1="163.90" y1="395.10" x2="167.50" y2="395.50" stroke="#102018" stroke-width="2" fill="none"/>
<line x1="165.34" y1="41.60" x2="167.34" y2="43.60" stroke="#102018" stroke-width="2" fill="none"/>
<line x1="167.34" y1="43.60" x2="168.54" y2="46.40" stroke="#102018" stroke-width="2" fill="none"/>
<line x1="167.50" y1="300.25" x2="163.90" y2="300.65" stroke="#102018" stroke-width="2" fill="none"/>
<line x1="167.50" y1="395.50" x2="171.31" y2="395.50" stroke="#102018" stroke-width="2" fill="none"/>
<line x1="168.54" y1="46.40" x2="168.94" y2="50.00" stroke="#102018" stroke-width="2" fill="none"/>
<line x1="168.94" y1="50.00" x2="168.94" y2="167.50" stroke="#102018" stroke-width="2" fill="none"/>
<line x1="168.94" y1="167.50" x2="169.34" y2="171.10" stroke="#102018" stroke-width="2" fill="none"/>
<line x1="169.34" y1="171.10" x2="170.54" y2="173.90" stroke="#102018" stroke-width="2" fill="none"/>
<line x1="170.54" y1="173.90" x2="172.54" y2="175.90" stroke="#102018" stroke-width="2" fill="none"/>
<line x1="171.31" y1="395.50" x2="174.91" y2="395.90" stroke="#102018" stroke-width="2" fill="none"/>
<line x1="172.54" y1="175.90" x2="175.34" y2="177.10" stroke="#102018" stroke-width="2" fill="none"/>
<line x1="174.91" y1="395.90" x2="177.71" y2="397.10" stroke="#102018" stroke-width="2" fill="none"/>
<line x1="175.34" y1="177.10" x2="178.94" y2="177.50" stroke="#102018" stroke-width="2" fill="none"/>
<line x1="177.71" y1="397.10" x2="179.71" y2="399.10" stroke="#102018" stroke-width="2" fill="none"/>
<line x1="178.94" y1="177.50" x2="195.12" y2="177.50" stroke="#102018" stroke-width="2" fill="none"/>
<line x1="179.71" y1="399.10" x2="180.91" y2="401.90" stroke="#102018" stroke-width="2" fill="none"/>
<line x1="180.91" y1="401.90" x2="181.31" y2="405.50" stroke="#102018" stroke-width="2" fill="none"/>
<line x1="181.31" y1="405.50" x2="181.31" y2="480.75" stroke="#102018" stroke-width="2" fill="none"/>
<line x1="181.31" y1="480.75" x2="181.71" y2="484.35" stroke="#102018" stroke-width="2" fill="none"/>
<line x1="181.71" y1="484.35" x2="182.91" y2="487.15" stroke="#102018" stroke-width="2" fill="none"/>
<line x1="182.91" y1="487.15" x2="184.91" y2="489.15" stroke="#102018" stroke-width="2" fill="none"/>
<line x1="184.91" y1="489.15" x2="187.71" y2="490.35" stroke="#102018" stroke-width="2" fill="none"/>
<line x1="187.71" y1="490.35" x2="191.31" y2="490.75" stroke="#102018" stroke-width="2" fill="none"/>
<line x1="191.31" y1="490.75" x2="218.94" y2="490.75" stroke="#102018" stroke-width="2" fill="none"/>
<line x1="195.12" y1="177.50" x2="198.72" y2="177.90" stroke="#102018" stroke-width="2" fill="none"/>
<line x1="195.12" y1="300.25" x2="167.50" y2="300.25" stroke="#102018" stroke-width="2" fill="none"/>
<line x1="198.72" y1="177.90" x2="201.52" y2="179.10" stroke="#102018" stroke-width="2" fill="none"/>
<line x1="198.72" y1="299.85" x2="195.12" y2="300.25" stroke="#102018" stroke-width="2" fill="none"/>
<line x1="201.52" y1="179.10" x2="203.52" y2="181.10" stroke="#102018" stroke-width="2" fill="none"/>
<line x1="201.52" y1="298.65" x2="198.72" y2="299.85" stroke="#102018" stroke-width="2" fill="none"/>
<line x1="203.52" y1="181.10" x2="204.72" y2="183.90" stroke="#102018" stroke-width="2" fill="none"/>
<line x1="203.52" y1="296.65" x2="201.52" y2="298.65" stroke="#102018" stroke-width="2" fill="none"/>
<line x1="204.72" y1="183.90" x2="205.12" y2="187.50" stroke="#102018" stroke-width="2" fill="none"/>
<line x1="204.72" y1="293.85" x2="203.52" y2="296.65" stroke="#102018" stroke-width="2" fill="none"/>
<line x1="205.12" y1="187.50" x2="205.12" y2="290.25" stroke="#102018" stroke-width="2" fill="none"/>
<line x1="205.12" y1="290.25" x2="204.72" y2="293.85" stroke="#102018" stroke-width="2" fill="none"/>
<line x1="218.94" y1="490.75" x2="222.54" y2="491.15" stroke="#102018" stroke-width="2" fill="none"/>
<line x1="218.94" y1="708.75" x2="-497.13" y2="708.75" stroke="#102018" stroke-width="2" fill="none"/>
<line x1="222.54" y1="491.15" x2="225.34" y2="492.35" stroke="#102018" stroke-width="2" fill="none"/>
<line x1="222.54" y1="708.35" x2="218.94" y2="708.75" stroke="#102018" stroke-width="2" fill="none"/>
<line x1="225.34" y1="492.35" x2="227.34" y2="494.35" stroke="#102018" stroke-width="2" fill="none"/>
<line x1="225.34" y1="707.15" x2="222.54" y2="708.35" stroke="#102018" stroke-width="2" fill="none"/>
<line x1="227.34" y1="494.35" x2="228.54" y2="497.15" stroke="#102018" stroke-width="2" fill="none"/>
<line x1="227.34" y1="705.15" x2="225.34" y2="707.15" stroke="#102018" stroke-width="2" fill="none"/>
<line x1="228.54" y1="497.15" x2="228.94" y2="500.75" stroke="#102018" stroke-width="2" fill="none"/>
<line x1="228.54" y1="702.35" x2="227.34" y2="705.15" stroke="#102018" stroke-width="2" fill="none"/>
<line x1="228.94" y1="500.75" x2="228.94" y2="576.00" stroke="#102018" stroke-width="2" fill="none"/>
<line x1="228.94" y1="576.00" x2="228.94" y2="580.00" stroke="#102018" stroke-width="2" fill="none"/>
<line x1="228.94" y1="580.00" x2="228.94" y2="584.00" stroke="#102018" stroke-width="2" fill="none"/>
<line x1="228.94" y1="584.00" x2="228.94" y2="588.00" stroke="#102018" stroke-width="2" fill="none"/>
<line x1="228.94" y1="588.00" x2="228.94" y2="592.00" stroke="#102018" stroke-width="2" fill="none"/>
<line x1="228.94" y1="592.00" x2="228.94" y2="596.00" stroke="#102018" stroke-width="2" fill="none"/>
<line x1="228.94" y1="596.00" x2="228.94" y2="671.25" stroke="#102018" stroke-width="2" fill="none"/>
<line x1="228.94" y1="671.25" x2="228.94" y2="675.25" stroke="#102018" stroke-width="2" fill="none"/>
<line x1="228.94" y1="675.25" x2="228.94" y2="679.25" stroke="#102018" stroke-width="2" fill="none"/>
<line x1="228.94" y1="679.25" x2="228.94" y2="683.25" stroke="#102018" stroke-width="2" fill="none"/>
<line x1="228.94" y1="683.25" x2="228.94" y2="687.25" stroke="#102018" stroke-width="2" fill="none"/>
<line x1="228.94" y1="687.25" x2="228.94" y2="691.25" stroke="#102018" stroke-width="2" fill="none"/>
<line x1="228.94" y1="691.25" x2="228.94" y2="698.75" stroke="#102018" stroke-width="2" fill="none"/>
<line x1="228.94" y1="698.75" x2="228.54" y2="702.35" stroke="#102018" stroke-width="2" fill="none"/>
<line x1="162.50" y1="310.25" x2="162.90" y2="306.65" stroke="#101b2a" stroke-width="2" fill="none"/>
<line x1="162.50" y1="385.50" x2="162.50" y2="310.25" stroke="#101b2a" stroke-width="2" fill="none"/>
<line x1="162.90" y1="306.65" x2="164.10" y2="303.85" stroke="#101b2a" stroke-width="2" fill="none"/>
<line x1="162.90" y1="389.10" x2="162.50" y2="385.50" stroke="#101b2a" stroke-width="2" fill="none"/>
<line x1="164.10" y1="303.85" x2="166.10" y2="301.85" stroke="#101b2a" stroke-width="2" fill="none"/>
<line x1="164.10" y1="391.90" x2="162.90" y2="389.10" stroke="#101b2a" stroke-width="2" fill="none"/>
<line x1="166.10" y1="301.85" x2="168.90" y2="300.65" stroke="#101b2a" stroke-width="2" fill="none"/>
<line x1="166.10" y1="393.90" x2="164.10" y2="391.90" stroke="#101b2a" stroke-width="2" fill="none"/>
<line x1="168.90" y1="300.65" x2="176.50" y2="300.25" stroke="#101b2a" stroke-width="2" fill="none"/>
<line x1="168.90" y1="395.10" x2="166.10" y2="393.90" stroke="#101b2a" stroke-width="2" fill="none"/>
<line x1="176.31" y1="395.50" x2="176.50" y2="395.50" stroke="#101b2a" stroke-width="2" fill="none"/>
<line x1="176.50" y1="300.25" x2="200.13" y2="300.25" stroke="#101b2a" stroke-width="2" fill="none"/>
<line x1="176.50" y1="395.50" x2="168.90" y2="395.10" stroke="#101b2a" stroke-width="2" fill="none"/>
<line x1="179.91" y1="395.90" x2="176.31" y2="395.50" stroke="#101b2a" stroke-width="2" fill="none"/>
<line x1="182.71" y1="397.10" x2="179.91" y2="395.90" stroke="#101b2a" stroke-width="2" fill="none"/>
<line x1="184.71" y1="399.10" x2="182.71" y2="397.10" stroke="#101b2a" stroke-width="2" fill="none"/>
<line x1="185.91" y1="401.90" x2="184.71" y2="399.10" stroke="#101b2a" stroke-width="2" fill="none"/>
<line x1="186.31" y1="405.50" x2="185.91" y2="401.90" stroke="#101b2a" stroke-width="2" fill="none"/>
<line x1="186.31" y1="480.75" x2="186.31" y2="405.50" stroke="#101b2a" stroke-width="2" fill="none"/>
<line x1="186.71" y1="484.35" x2="186.31" y2="480.75" stroke="#101b2a" stroke-width="2" fill="none"/>
<line x1="187.91" y1="487.15" x2="186.71" y2="484.35" stroke="#101b2a" stroke-width="2" fill="none"/>
<line x1="189.91" y1="489.15" x2="187.91" y2="487.15" stroke="#101b2a" stroke-width="2" fill="none"/>
<line x1="192.71" y1="490.35" x2="189.91" y2="489.15" stroke="#101b2a" stroke-width="2" fill="none"/>
<line x1="200.13" y1="300.25" x2="203.73" y2="299.85" stroke="#101b2a" stroke-width="2" fill="none"/>
<line x1="200.31" y1="490.75" x2="192.71" y2="490.35" stroke="#101b2a" stroke-width="2" fill="none"/>
<line x1="203.73" y1="299.85" x2="206.53" y2="298.65" stroke="#101b2a" stroke-width="2" fill="none"/>
<line x1="206.53" y1="298.65" x2="208.52" y2="296.65" stroke="#101b2a" stroke-width="2" fill="none"/>
<line x1="208.52" y1="296.65" x2="209.72" y2="293.85" stroke="#101b2a" stroke-width="2" fill="none"/>
<line x1="209.72" y1="293.85" x2="210.13" y2="290.25" stroke="#101b2a" stroke-width="2" fill="none"/>
<line x1="210.13" y1="186.00" x2="210.52" y2="182.40" stroke="#101b2a" stroke-width="2" fill="none"/>
<line x1="210.13" y1="195.00" x2="210.13" y2="186.00" stroke="#101b2a" stroke-width="2" fill="none"/>
<line x1="210.13" y1="199.00" x2="210.13" y2="195.00" stroke="#101b2a" stroke-width="2" fill="none"/>
<line x1="210.13" y1="203.00" x2="210.13" y2="199.00" stroke="#101b2a" stroke-width="2" fill="none"/>
<line x1="210.13" y1="207.00" x2="210.13" y2="203.00" stroke="#101b2a" stroke-width="2" fill="none"/>
<line x1="210.13" y1="211.00" x2="210.13" y2="207.00" stroke="#101b2a" stroke-width="2" fill="none"/>
<line x1="210.13" y1="215.00" x2="210.13" y2="211.00" stroke="#101b2a" stroke-width="2" fill="none"/>
<line x1="210.13" y1="290.25" x2="210.13" y2="215.00" stroke="#101b2a" stroke-width="2" fill="none"/>
<line x1="210.52" y1="182.40" x2="211.72" y2="179.60" stroke="#101b2a" stroke-width="2" fill="none"/>
<line x1="211.72" y1="179.60" x2="213.73" y2="177.60" stroke="#101b2a" stroke-width="2" fill="none"/>
<line x1="213.73" y1="177.60" x2="216.53" y2="176.40" stroke="#101b2a" stroke-width="2" fill="none"/>
<line x1="216.53" y1="176.40" x2="220.13" y2="176.00" stroke="#101b2a" stroke-width="2" fill="none"/>
<line x1="220.13" y1="176.00" x2="237.50" y2="176.00" stroke="#101b2a" stroke-width="2" fill="none"/>
<line x1="223.94" y1="490.75" x2="200.31" y2="490.75" stroke="#101b2a" stroke-width="2" fill="none"/>
<line x1="227.54" y1="491.15" x2="223.94" y2="490.75" stroke="#101b2a" stroke-width="2" fill="none"/>
<line x1="230.34" y1="492.35" x2="227.54" y2="491.15" stroke="#101b2a" stroke-width="2" fill="none"/>
<line x1="232.34" y1="494.35" x2="230.34" y2="492.35" stroke="#101b2a" stroke-width="2" fill="none"/>
<line x1="233.54" y1="497.15" x2="232.34" y2="494.35" stroke="#101b2a" stroke-width="2" fill="none"/>
<line x1="233.94" y1="500.75" x2="233.54" y2="497.15" stroke="#101b2a" stroke-width="2" fill="none"/>
<line x1="233.94" y1="576.00" x2="233.94" y2="500.75" stroke="#101b2a" stroke-width="2" fill="none"/>
<line x1="233.94" y1="580.00" x2="233.94" y2="576.00" stroke="#101b2a" stroke-width="2" fill="none"/>
<line x1="233.94" y1="584.00" x2="233.94" y2="580.00" stroke="#101b2a" stroke-width="2" fill="none"/>
<line x1="233.94" y1="588.00" x2="233.94" y2="584.00" stroke="#101b2a" stroke-width="2" fill="none"/>
<line x1="233.94" y1="592.00" x2="233.94" y2="588.00" stroke="#101b2a" stroke-width="2" fill="none"/>
<line x1="233.94" y1="596.00" x2="233.94" y2="592.00" stroke="#101b2a" stroke-width="2" fill="none"/>
<line x1="233.94" y1="698.75" x2="233.94" y2="596.00" stroke="#101b2a" stroke-width="2" fill="none"/>
<line x1="234.34" y1="702.35" x2="233.94" y2="698.75" stroke="#101b2a" stroke-width="2" fill="none"/>
<line x1="235.54" y1="705.15" x2="234.34" y2="702.35" stroke="#101b2a" stroke-width="2" fill="none"/>
<line x1="237.50" y1="176.00" x2="241.10" y2="175.60" stroke="#101b2a" stroke-width="2" fill="none"/>
<line x1="237.54" y1="707.15" x2="235.54" y2="705.15" stroke="#101b2a" stroke-width="2" fill="none"/>
<line x1="240.34" y1="708.35" x2="237.54" y2="707.15" stroke="#101b2a" stroke-width="2" fill="none"/>
<line x1="241.10" y1="175.60" x2="243.90" y2="174.40" stroke="#101b2a" stroke-width="2" fill="none"/>
<line x1="243.90" y1="174.40" x2="245.90" y2="172.40" stroke="#101b2a" stroke-width="2" fill="none"/>
<line x1="243.94" y1="708.75" x2="240.34" y2="708.35" stroke="#101b2a" stroke-width="2" fill="none"/>
<line x1="245.90" y1="172.40" x2="247.10" y2="169.60" stroke="#101b2a" stroke-width="2" fill="none"/>
<line x1="247.10" y1="169.60" x2="247.50" y2="166.00" stroke="#101b2a" stroke-width="2" fill="none"/>
<line x1="247.50" y1="50.00" x2="247.90" y2="46.40" stroke="#101b2a" stroke-width="2" fill="none"/>
<line x1="247.50" y1="166.00" x2="247.50" y2="50.00" stroke="#101b2a" stroke-width="2" fill="none"/>
<line x1="247.90" y1="46.40" x2="249.10" y2="43.60" stroke="#101b2a" stroke-width="2" fill="none"/>
<line x1="249.10" y1="43.60" x2="251.10" y2="41.60" stroke="#101b2a" stroke-width="2" fill="none"/>
<line x1="251.10" y1="41.60" x2="253.90" y2="40.40" stroke="#101b2a" stroke-width="2" fill="none"/>
<line x1="253.90" y1="40.40" x2="257.50" y2="40.00" stroke="#101b2a" stroke-width="2" fill="none"/>
<line x1="257.50" y1="40.00" x2="507.50" y2="40.00" stroke="#101b2a" stroke-width="2" fill="none"/>
<line x1="507.50" y1="40.00" x2="511.10" y2="40.40" stroke="#101b2a" stroke-width="2" fill="none"/>
<line x1="511.10" y1="40.40" x2="513.90" y2="41.60" stroke="#101b2a" stroke-width="2" fill="none"/>
<line x1="513.90" y1="41.60" x2="515.90" y2="43.60" stroke="#101b2a" stroke-width="2" fill="none"/>
<line x1="515.90" y1="43.60" x2="517.10" y2="46.40" stroke="#101b2a" stroke-width="2" fill="none"/>
<line x1="517.10" y1="46.40" x2="517.50" y2="50.00" stroke="#101b2a" stroke-width="2" fill="none"/>
<line x1="517.50" y1="50.00" x2="517.50" y2="166.00" stroke="#101b2a" stroke-width="2" fill="none"/>
<line x1="517.50" y1="166.00" x2="517.90" y2="169.60" stroke="#101b2a" stroke-width="2" fill="none"/>
<line x1="517.90" y1="169.60" x2="519.10" y2="172.40" stroke="#101b2a" stroke-width="2" fill="none"/>
<line x1="519.10" y1="172.40" x2="521.10" y2="174.40" stroke="#101b2a" stroke-width="2" fill="none"/>
<line x1="521.10" y1="174.40" x2="523.90" y2="175.60" stroke="#101b2a" stroke-width="2" fill="none"/>
<line x1="523.90" y1="175.60" x2="527.50" y2="176.00" stroke="#101b2a" stroke-width="2" fill="none"/>
<line x1="527.50" y1="176.00" x2="1126.69" y2="176.00" stroke="#101b2a" stroke-width="2" fill="none"/>
<line x1="1126.69" y1="176.00" x2="1130.29" y2="176.40" stroke="#101b2a" stroke-width="2" fill="none"/>
<line x1="1126.69" y1="708.75" x2="243.94" y2="708.75" stroke="#101b2a" stroke-width="2" fill="none"/>
<line x1="1130.29" y1="176.40" x2="1133.09" y2="177.60" stroke="#101b2a" stroke-width="2" fill="none"/>
<line x1="1130.29" y1="708.35" x2="1126.69" y2="708.75" stroke="#101b2a" stroke-width="2" fill="none"/>
<line x1="1133.09" y1="177.60" x2="1135.09" y2="179.60" stroke="#101b2a" stroke-width="2" fill="none"/>
<line x1="1133.09" y1="707.15" x2="1130.29" y2="708.35" stroke="#101b2a" stroke-width="2" fill="none"/>
<line x1="1135.09" y1="179.60" x2="1136.29" y2="182.40" stroke="#101b2a" stroke-width="2" fill="none"/>
<line x1="1135.09" y1="705.15" x2="1133.09" y2="707.15" stroke="#101b2a" stroke-width="2" fill="none"/>
<line x1="1136.29" y1="182.40" x2="1136.69" y2="186.00" stroke="#101b2a" stroke-width="2" fill="none"/>
<line x1="1136.29" y1="702.35" x2="1135.09" y2="705.15" stroke="#101b2a" stroke-width="2" fill="none"/>
<line x1="1136.69" y1="186.00" x2="1136.69" y2="290.25" stroke="#101b2a" stroke-width="2" fill="none"/>
<line x1="1136.69" y1="290.25" x2="1136.69" y2="294.25" stroke="#101b2a" stroke-width="2" fill="none"/>
<line x1="1136.69" y1="294.25" x2="1136.69" y2="298.25" stroke="#101b2a" stroke-width="2" fill="none"/>
<line x1="1136.69" y1="298.25" x2="1136.69" y2="302.25" stroke="#101b2a" stroke-width="2" fill="none"/>
<line x1="1136.69" y1="302.25" x2="1136.69" y2="306.25" stroke="#101b2a" stroke-width="2" fill="none"/>
<line x1="1136.69" y1="306.25" x2="1136.69" y2="310.25" stroke="#101b2a" stroke-width="2" fill="none"/>
<line x1="1136.69" y1="310.25" x2="1136.69" y2="385.50" stroke="#101b2a" stroke-width="2" fill="none"/>
<line x1="1136.69" y1="385.50" x2="1136.69" y2="389.50" stroke="#101b2a" stroke-width="2" fill="none"/>
<line x1="1136.69" y1="389.50" x2="1136.69" y2="393.50" stroke="#101b2a" stroke-width="2" fill="none"/>
<line x1="1136.69" y1="393.50" x2="1136.69" y2="397.50" stroke="#101b2a" stroke-width="2" fill="none"/>
<line x1="1136.69" y1="397.50" x2="1136.69" y2="401.50" stroke="#101b2a" stroke-width="2" fill="none"/>
<line x1="1136.69" y1="401.50" x2="1136.69" y2="405.50" stroke="#101b2a" stroke-width="2" fill="none"/>
<line x1="1136.69" y1="405.50" x2="1136.69" y2="480.75" stroke="#101b2a" stroke-width="2" fill="none"/>
<line x1="1136.69" y1="480.75" x2="1136.69" y2="484.75" stroke="#101b2a" stroke-width="2" fill="none"/>
<line x1="1136.69" y1="484.75" x2="1136.69" y2="488.75" stroke="#101b2a" stroke-width="2" fill="none"/>
<line x1="1136.69" y1="488.75" x2="1136.69" y2="492.75" stroke="#101b2a" stroke-width="2" fill="none"/>
<line x1="1136.69" y1="492.75" x2="1136.69" y2="496.75" stroke="#101b2a" stroke-width="2" fill="none"/>
<line x1="1136.69" y1="496.75" x2="1136.69" y2="500.75" stroke="#101b2a" stroke-width="2" fill="none"/>
<line x1="1136.69" y1="500.75" x2="1136.69" y2="576.00" stroke="#101b2a" stroke-width="2" fill="none"/>
<line x1="1136.69" y1="576.00" x2="1136.69" y2="580.00" stroke="#101b2a" stroke-width="2" fill="none"/>
<line x1="1136.69" y1="580.00" x2="1136.69" y2="584.00" stroke="#101b2a" stroke-width="2" fill="none"/>
<line x1="1136.69" y1="584.00" x2="1136.69" y2="588.00" stroke="#101b2a" stroke-width="2" fill="none"/>
<line x1="1136.69" y1="588.00" x2="1136.69" y2="592.00" stroke="#101b2a" stroke-width="2" fill="none"/>
<line x1="1136.69" y1="592.00" x2="1136.69" y2="596.00" stroke="#101b2a" stroke-width="2" fill="none"/>
<line x1="1136.69" y1="596.00" x2="1136.69" y2="671.25" stroke="#101b2a" stroke-width="2" fill="none"/>
<line x1="1136.69" y1="671.25" x2="1136.69" y2="675.25" stroke="#101b2a" stroke-width="2" fill="none"/>
<line x1="1136.69" y1="675.25" x2="1136.69" y2="679.25" stroke="#101b2a" stroke-width="2" fill="none"/>
<line x1="1136.69" y1="679.25" x2="1136.69" y2="683.25" stroke="#101b2a" stroke-width="2" fill="none"/>
<line x1="1136.69" y1="683.25" x2="1136.69" y2="687.25" stroke="#101b2a" stroke-width="2" fill="none"/>
<line x1="1136.69" y1="687.25" x2="1136.69" y2="691.25" stroke="#101b2a" stroke-width="2" fill="none"/>
<line x1="1136.69" y1="691.25" x2="1136.69" y2="698.75" stroke="#101b2a" stroke-width="2" fill="none"/>
<line x1="1136.69" y1="698.75" x2="1136.29" y2="702.35" stroke="#101b2a" stroke-width="2" fill="none"/>
<rect x="-477.13" y="207.50" width="90.25" height="90.25" rx="2" ry="2" fill="#e9fff4" stroke="#2a8d66" stroke-width="1" fill-opacity="0.86"/>
<text x="-432.00" y="256.09" text-anchor="middle" font-family="Arial" font-size="10" fill="#101010">~</text>
<rect x="-381.88" y="207.50" width="90.25" height="90.25" rx="2" ry="2" fill="#e9fff4" stroke="#2a8d66" stroke-width="1" fill-opacity="0.86"/>
<text x="-336.75" y="256.09" text-anchor="middle" font-family="Arial" font-size="10" fill="#101010">1</text>
<rect x="-286.63" y="207.50" width="90.25" height="90.25" rx="2" ry="2" fill="#e9fff4" stroke="#2a8d66" stroke-width="1" fill-opacity="0.86"/>
<text x="-241.50" y="256.09" text-anchor="middle" font-family="Arial" font-size="10" fill="#101010">2</text>
<rect x="-191.38" y="207.50" width="90.25" height="90.25" rx="2" ry="2" fill="#e9fff4" stroke="#2a8d66" stroke-width="1" fill-opacity="0.86"/>
<text x="-146.25" y="256.09" text-anchor="middle" font-family="Arial" font-size="10" fill="#101010">3</text>
<rect x="-96.13" y="207.50" width="90.25" height="90.25" rx="2" ry="2" fill="#e9fff4" stroke="#2a8d66" stroke-width="1" fill-opacity="0.86"/>
<text x="-51.00" y="256.09" text-anchor="middle" font-family="Arial" font-size="10" fill="#101010">4</text>
<rect x="-0.88" y="207.50" width="90.25" height="90.25" rx="2" ry="2" fill="#e9fff4" stroke="#2a8d66" stroke-width="1" fill-opacity="0.86"/>
<text x="44.25" y="256.09" text-anchor="middle" font-family="Arial" font-size="10" fill="#101010">5</text>
<rect x="94.37" y="207.50" width="90.25" height="90.25" rx="2" ry="2" fill="#e9fff4" stroke="#2a8d66" stroke-width="1" fill-opacity="0.86"/>
<text x="139.50" y="256.09" text-anchor="middle" font-family="Arial" font-size="10" fill="#101010">6</text>
<rect x="-477.13" y="302.75" width="137.88" height="90.25" rx="2" ry="2" fill="#e9fff4" stroke="#2a8d66" stroke-width="1" fill-opacity="0.86"/>
<text x="-408.19" y="351.33" text-anchor="middle" font-family="Arial" font-size="10" fill="#101010">TAB</text>
<rect x="-334.25" y="302.75" width="90.25" height="90.25" rx="2" ry="2" fill="#e9fff4" stroke="#2a8d66" stroke-width="1" fill-opacity="0.86"/>
<text x="-289.13" y="351.33" text-anchor="middle" font-family="Arial" font-size="10" fill="#101010">Q</text>
<rect x="-239.00" y="302.75" width="90.25" height="90.25" rx="2" ry="2" fill="#e9fff4" stroke="#2a8d66" stroke-width="1" fill-opacity="0.86"/>
<text x="-193.88" y="351.33" text-anchor="middle" font-family="Arial" font-size="10" fill="#101010">W</text>
<rect x="-143.75" y="302.75" width="90.25" height="90.25" rx="2" ry="2" fill="#e9fff4" stroke="#2a8d66" stroke-width="1" fill-opacity="0.86"/>
<text x="-98.63" y="351.33" text-anchor="middle" font-family="Arial" font-size="10" fill="#101010">E</text>
<rect x="-48.50" y="302.75" width="90.25" height="90.25" rx="2" ry="2" fill="#e9fff4" stroke="#2a8d66" stroke-width="1" fill-opacity="0.86"/>
<text x="-3.38" y="351.33" text-anchor="middle" font-family="Arial" font-size="10" fill="#101010">R</text>
<rect x="46.75" y="302.75" width="90.25" height="90.25" rx="2" ry="2" fill="#e9fff4" stroke="#2a8d66" stroke-width="1" fill-opacity="0.86"/>
<text x="91.88" y="351.33" text-anchor="middle" font-family="Arial" font-size="10" fill="#101010">T</text>
<rect x="-477.13" y="398.00" width="161.69" height="90.25" rx="2" ry="2" fill="#e9fff4" stroke="#2a8d66" stroke-width="1" fill-opacity="0.86"/>
<text x="-396.28" y="446.58" text-anchor="middle" font-family="Arial" font-size="10" fill="#101010">Caps</text>
<rect x="-310.44" y="398.00" width="90.25" height="90.25" rx="2" ry="2" fill="#e9fff4" stroke="#2a8d66" stroke-width="1" fill-opacity="0.86"/>
<text x="-265.31" y="446.58" text-anchor="middle" font-family="Arial" font-size="10" fill="#101010">A</text>
<rect x="-215.19" y="398.00" width="90.25" height="90.25" rx="2" ry="2" fill="#e9fff4" stroke="#2a8d66" stroke-width="1" fill-opacity="0.86"/>
<text x="-170.06" y="446.58" text-anchor="middle" font-family="Arial" font-size="10" fill="#101010">S</text>
<rect x="-119.94" y="398.00" width="90.25" height="90.25" rx="2" ry="2" fill="#e9fff4" stroke="#2a8d66" stroke-width="1" fill-opacity="0.86"/>
<text x="-74.81" y="446.58" text-anchor="middle" font-family="Arial" font-size="10" fill="#101010">D</text>
<rect x="-24.69" y="398.00" width="90.25" height="90.25" rx="2" ry="2" fill="#e9fff4" stroke="#2a8d66" stroke-width="1" fill-opacity="0.86"/>
<text x="20.44" y="446.58" text-anchor="middle" font-family="Arial" font-size="10" fill="#101010">F</text>
<rect x="70.56" y="398.00" width="90.25" height="90.25" rx="2" ry="2" fill="#e9fff4" stroke="#2a8d66" stroke-width="1" fill-opacity="0.86"/>
<text x="115.69" y="446.58" text-anchor="middle" font-family="Arial" font-size="10" fill="#101010">G</text>
<rect x="-477.12" y="493.25" width="114.06" height="90.25" rx="2" ry="2" fill="#e9fff4" stroke="#2a8d66" stroke-width="1" fill-opacity="0.86"/>
<text x="-420.09" y="541.84" text-anchor="middle" font-family="Arial" font-size="10" fill="#101010">LShift</text>
<rect x="-358.06" y="493.25" width="90.25" height="90.25" rx="2" ry="2" fill="#e9fff4" stroke="#2a8d66" stroke-width="1" fill-opacity="0.86"/>
<text x="-312.94" y="541.84" text-anchor="middle" font-family="Arial" font-size="10" fill="#101010">LShift</text>
<rect x="-262.81" y="493.25" width="90.25" height="90.25" rx="2" ry="2" fill="#e9fff4" stroke="#2a8d66" stroke-width="1" fill-opacity="0.86"/>
<text x="-217.69" y="541.84" text-anchor="middle" font-family="Arial" font-size="10" fill="#101010">Z</text>
<rect x="-167.56" y="493.25" width="90.25" height="90.25" rx="2" ry="2" fill="#e9fff4" stroke="#2a8d66" stroke-width="1" fill-opacity="0.86"/>
<text x="-122.44" y="541.84" text-anchor="middle" font-family="Arial" font-size="10" fill="#101010">X</text>
<rect x="-72.31" y="493.25" width="90.25" height="90.25" rx="2" ry="2" fill="#e9fff4" stroke="#2a8d66" stroke-width="1" fill-opacity="0.86"/>
<text x="-27.19" y="541.84" text-anchor="middle" font-family="Arial" font-size="10" fill="#101010">C</text>
<rect x="22.94" y="493.25" width="90.25" height="90.25" rx="2" ry="2" fill="#e9fff4" stroke="#2a8d66" stroke-width="1" fill-opacity="0.86"/>
<text x="68.06" y="541.84" text-anchor="middle" font-family="Arial" font-size="10" fill="#101010">V</text>
<rect x="118.19" y="493.25" width="90.25" height="90.25" rx="2" ry="2" fill="#e9fff4" stroke="#2a8d66" stroke-width="1" fill-opacity="0.86"/>
<text x="163.31" y="541.84" text-anchor="middle" font-family="Arial" font-size="10" fill="#101010">B</text>
<rect x="-477.12" y="588.50" width="114.06" height="90.25" rx="2" ry="2" fill="#e9fff4" stroke="#2a8d66" stroke-width="1" fill-opacity="0.86"/>
<text x="-420.09" y="637.09" text-anchor="middle" font-family="Arial" font-size="10" fill="#101010">Ctrl</text>
<rect x="-358.06" y="588.50" width="114.06" height="90.25" rx="2" ry="2" fill="#e9fff4" stroke="#2a8d66" stroke-width="1" fill-opacity="0.86"/>
<text x="-301.03" y="637.09" text-anchor="middle" font-family="Arial" font-size="10" fill="#101010">Win</text>
<rect x="-239.00" y="588.50" width="114.06" height="90.25" rx="2" ry="2" fill="#e9fff4" stroke="#2a8d66" stroke-width="1" fill-opacity="0.86"/>
<text x="-181.97" y="637.09" text-anchor="middle" font-family="Arial" font-size="10" fill="#101010">Alt</text>
<rect x="-119.94" y="588.50" width="114.06" height="90.25" rx="2" ry="2" fill="#e9fff4" stroke="#2a8d66" stroke-width="1" fill-opacity="0.86"/>
<text x="-62.91" y="637.09" text-anchor="middle" font-family="Arial" font-size="10" fill="#101010">Fn</text>
<rect x="-0.88" y="588.50" width="90.25" height="90.25" rx="2" ry="2" fill="#e9fff4" stroke="#2a8d66" stroke-width="1" fill-opacity="0.86"/>
<text x="44.25" y="637.09" text-anchor="middle" font-family="Arial" font-size="10" fill="#101010">Space</text>
<rect x="94.38" y="588.50" width="114.06" height="90.25" rx="2" ry="2" fill="#e9fff4" stroke="#2a8d66" stroke-width="1" fill-opacity="0.86"/>
<text x="151.41" y="637.09" text-anchor="middle" font-family="Arial" font-size="10" fill="#101010">Space</text>
<rect x="-57.91" y="61.05" width="148.70" height="97.90" fill="none" stroke="#252525" stroke-width="1.5" stroke-dasharray="4 3"/>
<text x="16.44" y="57.05" text-anchor="middle" font-family="Arial" font-size="9" fill="#222">U1</text>
<circle cx="208.94" cy="688.75" r="7" fill="white" stroke="#555" stroke-width="1"/>
<circle cx="-73.56" cy="85.00" r="7" fill="white" stroke="#555" stroke-width="1"/>
<circle cx="-484.63" cy="498.75" r="7" fill="white" stroke="#555" stroke-width="1"/>
<circle cx="-487.13" cy="688.75" r="7" fill="white" stroke="#555" stroke-width="1"/>
<rect x="230.62" y="207.50" width="90.25" height="90.25" rx="2" ry="2" fill="#eef5ff" stroke="#467cc0" stroke-width="1" fill-opacity="0.86"/>
<text x="275.75" y="256.09" text-anchor="middle" font-family="Arial" font-size="10" fill="#101010">7</text>
<rect x="325.87" y="207.50" width="90.25" height="90.25" rx="2" ry="2" fill="#eef5ff" stroke="#467cc0" stroke-width="1" fill-opacity="0.86"/>
<text x="371.00" y="256.09" text-anchor="middle" font-family="Arial" font-size="10" fill="#101010">8</text>
<rect x="421.12" y="207.50" width="90.25" height="90.25" rx="2" ry="2" fill="#eef5ff" stroke="#467cc0" stroke-width="1" fill-opacity="0.86"/>
<text x="466.25" y="256.09" text-anchor="middle" font-family="Arial" font-size="10" fill="#101010">9</text>
<rect x="516.38" y="207.50" width="90.25" height="90.25" rx="2" ry="2" fill="#eef5ff" stroke="#467cc0" stroke-width="1" fill-opacity="0.86"/>
<text x="561.50" y="256.09" text-anchor="middle" font-family="Arial" font-size="10" fill="#101010">0</text>
<rect x="611.62" y="207.50" width="90.25" height="90.25" rx="2" ry="2" fill="#eef5ff" stroke="#467cc0" stroke-width="1" fill-opacity="0.86"/>
<text x="656.75" y="256.09" text-anchor="middle" font-family="Arial" font-size="10" fill="#101010">-</text>
<rect x="706.88" y="207.50" width="90.25" height="90.25" rx="2" ry="2" fill="#eef5ff" stroke="#467cc0" stroke-width="1" fill-opacity="0.86"/>
<text x="752.00" y="256.09" text-anchor="middle" font-family="Arial" font-size="10" fill="#101010">=</text>
<rect x="802.12" y="207.50" width="90.25" height="90.25" rx="2" ry="2" fill="#eef5ff" stroke="#467cc0" stroke-width="1" fill-opacity="0.86"/>
<text x="847.25" y="256.09" text-anchor="middle" font-family="Arial" font-size="10" fill="#101010">BSPC</text>
<rect x="897.38" y="207.50" width="114.06" height="90.25" rx="2" ry="2" fill="#eef5ff" stroke="#467cc0" stroke-width="1" fill-opacity="0.86"/>
<text x="954.41" y="256.09" text-anchor="middle" font-family="Arial" font-size="10" fill="#101010">BSPC</text>
<rect x="1016.44" y="207.50" width="90.25" height="90.25" rx="2" ry="2" fill="#eef5ff" stroke="#467cc0" stroke-width="1" fill-opacity="0.86"/>
<text x="1061.56" y="256.09" text-anchor="middle" font-family="Arial" font-size="10" fill="#101010">Del</text>
<rect x="183.00" y="302.75" width="90.25" height="90.25" rx="2" ry="2" fill="#eef5ff" stroke="#467cc0" stroke-width="1" fill-opacity="0.86"/>
<text x="228.12" y="351.33" text-anchor="middle" font-family="Arial" font-size="10" fill="#101010">Y</text>
<rect x="278.25" y="302.75" width="90.25" height="90.25" rx="2" ry="2" fill="#eef5ff" stroke="#467cc0" stroke-width="1" fill-opacity="0.86"/>
<text x="323.38" y="351.33" text-anchor="middle" font-family="Arial" font-size="10" fill="#101010">U</text>
<rect x="373.50" y="302.75" width="90.25" height="90.25" rx="2" ry="2" fill="#eef5ff" stroke="#467cc0" stroke-width="1" fill-opacity="0.86"/>
<text x="418.62" y="351.33" text-anchor="middle" font-family="Arial" font-size="10" fill="#101010">I</text>
<rect x="468.75" y="302.75" width="90.25" height="90.25" rx="2" ry="2" fill="#eef5ff" stroke="#467cc0" stroke-width="1" fill-opacity="0.86"/>
<text x="513.88" y="351.33" text-anchor="middle" font-family="Arial" font-size="10" fill="#101010">O</text>
<rect x="564.00" y="302.75" width="90.25" height="90.25" rx="2" ry="2" fill="#eef5ff" stroke="#467cc0" stroke-width="1" fill-opacity="0.86"/>
<text x="609.12" y="351.33" text-anchor="middle" font-family="Arial" font-size="10" fill="#101010">P</text>
<rect x="659.25" y="302.75" width="90.25" height="90.25" rx="2" ry="2" fill="#eef5ff" stroke="#467cc0" stroke-width="1" fill-opacity="0.86"/>
<text x="704.38" y="351.33" text-anchor="middle" font-family="Arial" font-size="10" fill="#101010">[</text>
<rect x="754.50" y="302.75" width="90.25" height="90.25" rx="2" ry="2" fill="#eef5ff" stroke="#467cc0" stroke-width="1" fill-opacity="0.86"/>
<text x="799.62" y="351.33" text-anchor="middle" font-family="Arial" font-size="10" fill="#101010">]</text>
<rect x="849.75" y="302.75" width="161.69" height="90.25" rx="2" ry="2" fill="#eef5ff" stroke="#467cc0" stroke-width="1" fill-opacity="0.86"/>
<text x="930.59" y="351.33" text-anchor="middle" font-family="Arial" font-size="10" fill="#101010">\</text>
<rect x="1016.44" y="302.75" width="90.25" height="90.25" rx="2" ry="2" fill="#eef5ff" stroke="#467cc0" stroke-width="1" fill-opacity="0.86"/>
<text x="1061.56" y="351.33" text-anchor="middle" font-family="Arial" font-size="10" fill="#101010">Home</text>
<rect x="206.81" y="398.00" width="90.25" height="90.25" rx="2" ry="2" fill="#eef5ff" stroke="#467cc0" stroke-width="1" fill-opacity="0.86"/>
<text x="251.94" y="446.58" text-anchor="middle" font-family="Arial" font-size="10" fill="#101010">H</text>
<rect x="302.06" y="398.00" width="90.25" height="90.25" rx="2" ry="2" fill="#eef5ff" stroke="#467cc0" stroke-width="1" fill-opacity="0.86"/>
<text x="347.19" y="446.58" text-anchor="middle" font-family="Arial" font-size="10" fill="#101010">J</text>
<rect x="397.31" y="398.00" width="90.25" height="90.25" rx="2" ry="2" fill="#eef5ff" stroke="#467cc0" stroke-width="1" fill-opacity="0.86"/>
<text x="442.44" y="446.58" text-anchor="middle" font-family="Arial" font-size="10" fill="#101010">K</text>
<rect x="492.56" y="398.00" width="90.25" height="90.25" rx="2" ry="2" fill="#eef5ff" stroke="#467cc0" stroke-width="1" fill-opacity="0.86"/>
<text x="537.69" y="446.58" text-anchor="middle" font-family="Arial" font-size="10" fill="#101010">L</text>
<rect x="587.81" y="398.00" width="90.25" height="90.25" rx="2" ry="2" fill="#eef5ff" stroke="#467cc0" stroke-width="1" fill-opacity="0.86"/>
<text x="632.94" y="446.58" text-anchor="middle" font-family="Arial" font-size="10" fill="#101010">;</text>
<rect x="683.06" y="398.00" width="90.25" height="90.25" rx="2" ry="2" fill="#eef5ff" stroke="#467cc0" stroke-width="1" fill-opacity="0.86"/>
<text x="728.19" y="446.58" text-anchor="middle" font-family="Arial" font-size="10" fill="#101010">&#x27;</text>
<rect x="778.31" y="398.00" width="90.25" height="90.25" rx="2" ry="2" fill="#eef5ff" stroke="#467cc0" stroke-width="1" fill-opacity="0.86"/>
<text x="823.44" y="446.58" text-anchor="middle" font-family="Arial" font-size="10" fill="#101010">Enter</text>
<rect x="873.56" y="398.00" width="137.88" height="90.25" rx="2" ry="2" fill="#eef5ff" stroke="#467cc0" stroke-width="1" fill-opacity="0.86"/>
<text x="942.50" y="446.58" text-anchor="middle" font-family="Arial" font-size="10" fill="#101010">Enter</text>
<rect x="1016.44" y="398.00" width="90.25" height="90.25" rx="2" ry="2" fill="#eef5ff" stroke="#467cc0" stroke-width="1" fill-opacity="0.86"/>
<text x="1061.56" y="446.58" text-anchor="middle" font-family="Arial" font-size="10" fill="#101010">PgUp</text>
<rect x="254.44" y="493.25" width="90.25" height="90.25" rx="2" ry="2" fill="#eef5ff" stroke="#467cc0" stroke-width="1" fill-opacity="0.86"/>
<text x="299.56" y="541.84" text-anchor="middle" font-family="Arial" font-size="10" fill="#101010">N</text>
<rect x="349.69" y="493.25" width="90.25" height="90.25" rx="2" ry="2" fill="#eef5ff" stroke="#467cc0" stroke-width="1" fill-opacity="0.86"/>
<text x="394.81" y="541.84" text-anchor="middle" font-family="Arial" font-size="10" fill="#101010">M</text>
<rect x="444.94" y="493.25" width="90.25" height="90.25" rx="2" ry="2" fill="#eef5ff" stroke="#467cc0" stroke-width="1" fill-opacity="0.86"/>
<text x="490.06" y="541.84" text-anchor="middle" font-family="Arial" font-size="10" fill="#101010">,</text>
<rect x="540.19" y="493.25" width="90.25" height="90.25" rx="2" ry="2" fill="#eef5ff" stroke="#467cc0" stroke-width="1" fill-opacity="0.86"/>
<text x="585.31" y="541.84" text-anchor="middle" font-family="Arial" font-size="10" fill="#101010">.</text>
<rect x="635.44" y="493.25" width="90.25" height="90.25" rx="2" ry="2" fill="#eef5ff" stroke="#467cc0" stroke-width="1" fill-opacity="0.86"/>
<text x="680.56" y="541.84" text-anchor="middle" font-family="Arial" font-size="10" fill="#101010">/</text>
<rect x="730.69" y="493.25" width="90.25" height="90.25" rx="2" ry="2" fill="#eef5ff" stroke="#467cc0" stroke-width="1" fill-opacity="0.86"/>
<text x="775.81" y="541.84" text-anchor="middle" font-family="Arial" font-size="10" fill="#101010">RShift</text>
<rect x="825.94" y="493.25" width="90.25" height="90.25" rx="2" ry="2" fill="#eef5ff" stroke="#467cc0" stroke-width="1" fill-opacity="0.86"/>
<text x="871.06" y="541.84" text-anchor="middle" font-family="Arial" font-size="10" fill="#101010">Fn</text>
<rect x="921.19" y="493.25" width="90.25" height="90.25" rx="2" ry="2" fill="#eef5ff" stroke="#467cc0" stroke-width="1" fill-opacity="0.86"/>
<text x="966.31" y="541.84" text-anchor="middle" font-family="Arial" font-size="10" fill="#101010">Up</text>
<rect x="1016.44" y="493.25" width="90.25" height="90.25" rx="2" ry="2" fill="#eef5ff" stroke="#467cc0" stroke-width="1" fill-opacity="0.86"/>
<text x="1061.56" y="541.84" text-anchor="middle" font-family="Arial" font-size="10" fill="#101010">PgDn</text>
<rect x="254.44" y="588.50" width="90.25" height="90.25" rx="2" ry="2" fill="#eef5ff" stroke="#467cc0" stroke-width="1" fill-opacity="0.86"/>
<text x="299.56" y="637.09" text-anchor="middle" font-family="Arial" font-size="10" fill="#101010">B</text>
<rect x="349.69" y="588.50" width="90.25" height="90.25" rx="2" ry="2" fill="#eef5ff" stroke="#467cc0" stroke-width="1" fill-opacity="0.86"/>
<text x="394.81" y="637.09" text-anchor="middle" font-family="Arial" font-size="10" fill="#101010">Space</text>
<rect x="444.94" y="588.50" width="90.25" height="90.25" rx="2" ry="2" fill="#eef5ff" stroke="#467cc0" stroke-width="1" fill-opacity="0.86"/>
<text x="490.06" y="637.09" text-anchor="middle" font-family="Arial" font-size="10" fill="#101010">Space</text>
<rect x="540.19" y="588.50" width="90.25" height="90.25" rx="2" ry="2" fill="#eef5ff" stroke="#467cc0" stroke-width="1" fill-opacity="0.86"/>
<text x="585.31" y="637.09" text-anchor="middle" font-family="Arial" font-size="10" fill="#101010">RAlt</text>
<rect x="635.44" y="588.50" width="90.25" height="90.25" rx="2" ry="2" fill="#eef5ff" stroke="#467cc0" stroke-width="1" fill-opacity="0.86"/>
<text x="680.56" y="637.09" text-anchor="middle" font-family="Arial" font-size="10" fill="#101010">Fn</text>
<rect x="730.69" y="588.50" width="90.25" height="90.25" rx="2" ry="2" fill="#eef5ff" stroke="#467cc0" stroke-width="1" fill-opacity="0.86"/>
<text x="775.81" y="637.09" text-anchor="middle" font-family="Arial" font-size="10" fill="#101010">RCtrl</text>
<rect x="825.94" y="588.50" width="90.25" height="90.25" rx="2" ry="2" fill="#eef5ff" stroke="#467cc0" stroke-width="1" fill-opacity="0.86"/>
<text x="871.06" y="637.09" text-anchor="middle" font-family="Arial" font-size="10" fill="#101010">Left</text>
<rect x="921.19" y="588.50" width="90.25" height="90.25" rx="2" ry="2" fill="#eef5ff" stroke="#467cc0" stroke-width="1" fill-opacity="0.86"/>
<text x="966.31" y="637.09" text-anchor="middle" font-family="Arial" font-size="10" fill="#101010">Down</text>
<rect x="1016.44" y="588.50" width="90.25" height="90.25" rx="2" ry="2" fill="#eef5ff" stroke="#467cc0" stroke-width="1" fill-opacity="0.86"/>
<text x="1061.56" y="637.09" text-anchor="middle" font-family="Arial" font-size="10" fill="#101010">Right</text>
<rect x="325.65" y="61.05" width="148.70" height="97.90" fill="none" stroke="#252525" stroke-width="1.5" stroke-dasharray="4 3"/>
<text x="400.00" y="57.05" text-anchor="middle" font-family="Arial" font-size="9" fill="#222">U1</text>
<circle cx="490.00" cy="85.00" r="7" fill="white" stroke="#555" stroke-width="1"/>
<circle cx="1116.69" cy="688.75" r="7" fill="white" stroke="#555" stroke-width="1"/>
<circle cx="1116.69" cy="483.75" r="7" fill="white" stroke="#555" stroke-width="1"/>
<circle cx="182.50" cy="688.75" r="7" fill="white" stroke="#555" stroke-width="1"/>
<g id="key-horizontal-clearance" data-key-horizontal-clearance-mm="1.8000" data-left-key="6" data-right-key="Y">
<line x1="167.50" y1="300.25" x2="176.50" y2="300.25" stroke="#1c5fb8" stroke-width="2.4"/>
<line x1="167.50" y1="300.25" x2="173.50" y2="296.25" stroke="#1c5fb8" stroke-width="2.4"/>
<line x1="167.50" y1="300.25" x2="173.50" y2="304.25" stroke="#1c5fb8" stroke-width="2.4"/>
<line x1="176.50" y1="300.25" x2="170.50" y2="296.25" stroke="#1c5fb8" stroke-width="2.4"/>
<line x1="176.50" y1="300.25" x2="170.50" y2="304.25" stroke="#1c5fb8" stroke-width="2.4"/>
<text x="172.00" y="292.25" text-anchor="middle" font-family="Arial" font-size="10" fill="#123e7d">6-Y X 1.8 mm</text>
</g>
</svg>
