<svg xmlns="http://www.w3.org/2000/svg" width="320" height="741" viewBox="0 0 320 741">
<rect width="100%" height="100%" fill="#f7f5ee"/>
<g id="interlock-clearance" data-placement-mode="interlock-clearance" data-clearance-mm="1.0000" data-clearance-width-px="5.00" data-measurement-width-px="5.00" data-key-horizontal-clearance-mm="1.8000" data-interlock-overlap-mm="13.2875">
<polygon points="105.56,40.62 108.11,41.88 109.36,43.12 110.17,44.38 110.71,45.62 111.09,46.88 111.23,48.12 111.37,49.38 111.44,50.62 111.44,51.88 111.44,53.12 111.44,54.38 111.44,55.62 111.44,56.88 111.44,58.12 111.44,59.38 111.44,60.62 111.44,61.88 111.44,63.12 111.44,64.38 111.44,65.62 111.44,66.88 111.44,68.12 111.44,69.38 111.44,70.62 111.44,71.88 111.44,73.12 111.44,74.38 111.44,75.62 111.44,76.88 111.44,78.12 111.44,79.38 111.44,80.62 111.44,81.88 111.44,83.12 111.44,84.38 111.44,85.62 111.44,86.88 111.44,88.12 111.44,89.38 111.44,90.62 111.44,91.88 111.44,93.12 111.44,94.38 111.44,95.62 111.44,96.88 111.44,98.12 111.44,99.38 111.44,100.62 111.44,101.88 111.44,103.12 111.44,104.38 111.44,105.62 111.44,106.88 111.44,108.12 111.44,109.38 111.44,110.62 111.44,111.88 111.44,113.12 111.44,114.38 111.44,115.62 111.44,116.88 111.44,118.12 111.44,119.38 111.44,120.62 111.44,121.88 111.44,123.12 111.44,124.38 111.44,125.62 111.44,126.88 111.44,128.12 111.44,129.38 111.44,130.62 111.44,131.88 111.44,133.12 111.44,134.38 111.44,135.62 111.44,136.88 111.44,138.12 111.44,139.38 111.44,140.62 111.44,141.88 111.44,143.12 111.44,144.38 111.44,145.62 111.44,146.88 111.44,148.12 111.44,149.38 111.44,150.62 111.44,151.88 111.44,153.12 111.44,154.38 111.44,155.62 111.44,156.88 111.44,158.12 111.44,159.38 111.44,160.62 111.44,161.88 111.44,163.12 111.44,164.38 111.51,165.62 111.65,166.88 111.78,168.12 112.17,169.38 112.71,170.62 117.31,171.88 199.25,173.12 201.80,174.38 203.05,175.62 203.86,176.88 204.39,178.12 204.78,179.38 204.92,180.62 205.06,181.88 205.12,183.12 205.12,184.38 205.12,185.62 205.12,186.88 205.12,188.12 205.12,189.38 205.12,190.62 205.12,191.88 205.12,193.12 205.12,194.38 205.12,195.62 205.12,196.88 205.12,198.12 205.12,199.38 205.12,200.62 205.12,201.88 205.12,203.12 205.12,204.38 205.12,205.62 205.12,206.88 205.12,208.12 205.12,209.38 205.12,210.62 205.12,211.88 205.12,213.12 205.12,214.38 205.12,215.62 205.12,216.88 205.12,218.12 205.12,219.38 205.12,220.62 205.12,221.88 205.12,223.12 205.12,224.38 205.12,225.62 205.12,226.88 205.12,228.12 205.12,229.38 205.12,230.62 205.12,231.88 205.12,233.12 205.12,234.38 205.12,235.62 205.12,236.88 205.12,238.12 205.12,239.38 205.12,240.62 205.12,241.88 205.12,243.12 205.12,244.38 205.12,245.62 205.12,246.88 205.12,248.12 205.12,249.38 205.12,250.62 205.12,251.88 205.12,253.12 205.12,254.38 205.12,255.62 205.12,256.88 205.12,258.12 205.12,259.38 205.12,260.62 205.12,261.88 205.12,263.12 205.12,264.38 205.12,265.62 205.12,266.88 205.12,268.12 205.12,269.38 205.12,270.62 205.12,271.88 205.12,273.12 205.12,274.38 205.12,275.62 205.12,276.88 205.12,278.12 205.12,279.38 205.12,280.62 205.12,281.88 205.12,283.12 205.12,284.38 205.12,285.62 205.12,286.88 205.12,288.12 205.12,289.38 205.08,290.62 204.94,291.88 204.81,293.12 204.50,294.38 203.96,295.62 203.30,296.88 202.05,298.12 199.83,299.38 164.12,300.62 161.08,301.88 159.83,303.12 158.87,304.38 158.34,305.62 157.87,306.88 157.74,308.12 157.60,309.38 157.50,310.62 157.50,311.88 157.50,313.12 157.50,314.38 157.50,315.62 157.50,316.88 157.50,318.12 157.50,319.38 157.50,320.62 157.50,321.88 157.50,323.12 157.50,324.38 157.50,325.62 157.50,326.88 157.50,328.12 157.50,329.38 157.50,330.62 157.50,331.88 157.50,333.12 157.50,334.38 157.50,335.62 157.50,336.88 157.50,338.12 157.50,339.38 157.50,340.62 157.50,341.88 157.50,343.12 157.50,344.38 157.50,345.62 157.50,346.88 157.50,348.12 157.50,349.38 157.50,350.62 157.50,351.88 157.50,353.12 157.50,354.38 157.50,355.62 157.50,356.88 157.50,358.12 157.50,359.38 157.50,360.62 157.50,361.88 157.50,363.12 157.50,364.38 157.50,365.62 157.50,366.88 157.50,368.12 157.50,369.38 157.50,370.62 157.50,371.88 157.50,373.12 157.50,374.38 157.50,375.62 157.50,376.88 157.50,378.12 157.50,379.38 157.50,380.62 157.50,381.88 157.50,383.12 157.50,384.38 157.51,385.62 157.65,386.88 157.79,388.12 158.02,389.38 158.55,390.62 159.09,391.88 160.32,393.12 162.21,394.38 172.44,395.62 177.19,396.88 178.74,398.12 179.83,399.38 180.37,400.62 180.90,401.88 181.05,403.12 181.19,404.38 181.31,405.62 181.31,406.88 181.31,408.12 181.31,409.38 181.31,410.62 181.31,411.88 181.31,413.12 181.31,414.38 181.31,415.62 181.31,416.88 181.31,418.12 181.31,419.38 181.31,420.62 181.31,421.88 181.31,423.12 181.31,424.38 181.31,425.62 181.31,426.88 181.31,428.12 181.31,429.38 181.31,430.62 181.31,431.88 181.31,433.12 181.31,434.38 181.31,435.62 181.31,436.88 181.31,438.12 181.31,439.38 181.31,440.62 181.31,441.88 181.31,443.12 181.31,444.38 181.31,445.62 181.31,446.88 181.31,448.12 181.31,449.38 181.31,450.62 181.31,451.88 181.31,453.12 181.31,454.38 181.31,455.62 181.31,456.88 181.31,458.12 181.31,459.38 181.31,460.62 181.31,461.88 181.31,463.12 181.31,464.38 181.31,465.62 181.31,466.88 181.31,468.12 181.31,469.38 181.31,470.62 181.31,471.88 181.31,473.12 181.31,474.38 181.31,475.62 181.31,476.88 181.31,478.12 181.31,479.38 181.31,480.62 181.44,481.88 181.58,483.12 181.72,484.38 182.26,485.62 182.79,486.88 183.89,488.12 185.44,489.38 190.19,490.62 224.23,491.88 226.11,493.12 227.35,494.38 227.88,495.62 228.42,496.88 228.65,498.12 228.78,499.38 228.92,500.62 228.94,501.88 228.94,503.12 228.94,504.38 228.94,505.62 228.94,506.88 228.94,508.12 228.94,509.38 228.94,510.62 228.94,511.88 228.94,513.12 228.94,514.38 228.94,515.62 228.94,516.88 228.94,518.12 228.94,519.38 228.94,520.62 228.94,521.88 228.94,523.12 228.94,524.38 228.94,525.62 228.94,526.88 228.94,528.12 228.94,529.38 228.94,530.62 228.94,531.88 228.94,533.12 228.94,534.38 228.94,535.62 228.94,536.88 228.94,538.12 228.94,539.38 228.94,540.62 228.94,541.88 228.94,543.12 228.94,544.38 228.94,545.62 228.94,546.88 228.94,548.12 228.94,549.38 228.94,550.62 228.94,551.88 228.94,553.12 228.94,554.38 228.94,555.62 228.94,556.88 228.94,558.12 228.94,559.38 228.94,560.62 228.94,561.88 228.94,563.12 228.94,564.38 228.94,565.62 228.94,566.88 228.94,568.12 228.94,569.38 228.94,570.62 228.94,571.88 228.94,573.12 228.94,574.38 228.94,575.62 228.94,576.88 228.94,578.12 228.94,579.38 228.94,580.62 228.94,581.88 228.94,583.12 228.94,584.38 228.94,585.62 228.94,586.88 228.94,588.12 228.94,589.38 228.94,590.62 228.94,591.88 228.94,593.12 228.94,594.38 228.94,595.62 228.94,596.88 228.94,598.12 228.94,599.38 228.94,600.62 228.94,601.88 228.94,603.12 228.94,604.38 228.94,605.62 228.94,606.88 228.94,608.12 228.94,609.38 228.94,610.62 228.94,611.88 228.94,613.12 228.94,614.38 228.94,615.62 228.94,616.88 228.94,618.12 228.94,619.38 228.94,620.62 228.94,621.88 228.94,623.12 228.94,624.38 228.94,625.62 228.94,626.88 228.94,628.12 228.94,629.38 228.94,630.62 228.94,631.88 228.94,633.12 228.94,634.38 228.94,635.62 228.94,636.88 228.94,638.12 228.94,639.38 228.94,640.62 228.94,641.88 228.94,643.12 228.94,644.38 228.94,645.62 228.94,646.88 228.94,648.12 228.94,649.38 228.94,650.62 228.94,651.88 228.94,653.12 228.94,654.38 228.94,655.62 228.94,656.88 228.94,658.12 228.94,659.38 228.94,660.62 228.94,661.88 228.94,663.12 228.94,664.38 228.94,665.62 228.94,666.88 228.94,668.12 228.94,669.38 228.94,670.62 228.94,671.88 228.94,673.12 228.94,674.38 228.94,675.62 228.94,676.88 228.94,678.12 228.94,679.38 228.94,680.62 228.94,681.88 228.94,683.12 228.94,684.38 228.94,685.62 228.94,686.88 228.94,688.12 228.94,689.38 228.94,690.62 228.94,691.88 228.84,693.12 228.70,694.38 228.52,695.62 227.98,696.88 227.38,698.12 226.13,699.38 223.80,700.62 239.81,700.62 237.26,699.38 236.01,698.12 235.21,696.88 234.67,695.62 234.28,694.38 234.15,693.12 234.01,691.88 233.94,690.62 233.94,689.38 233.94,688.12 233.94,686.88 233.94,685.62 233.94,684.38 233.94,683.12 233.94,681.88 233.94,680.62 233.94,679.38 233.94,678.12 233.94,676.88 233.94,675.62 233.94,674.38 233.94,673.12 233.94,671.88 233.94,670.62 233.94,669.38 233.94,668.12 233.94,666.88 233.94,665.62 233.94,664.38 233.94,663.12 233.94,661.88 233.94,660.62 233.94,659.38 233.94,658.12 233.94,656.88 233.94,655.62 233.94,654.38 233.94,653.12 233.94,651.88 233.94,650.62 233.94,649.38 233.94,648.12 233.94,646.88 233.94,645.62 233.94,644.38 233.94,643.12 233.94,641.88 233.94,640.62 233.94,639.38 233.94,638.12 233.94,636.88 233.94,635.62 233.94,634.38 233.94,633.12 233.94,631.88 233.94,630.62 233.94,629.38 233.94,628.12 233.94,626.88 233.94,625.62 233.94,624.38 233.94,623.12 233.94,621.88 233.94,620.62 233.94,619.38 233.94,618.12 233.94,616.88 233.94,615.62 233.94,614.38 233.94,613.12 233.94,611.88 233.94,610.62 233.94,609.38 233.94,608.12 233.94,606.88 233.94,605.62 233.94,604.38 233.94,603.12 233.94,601.88 233.94,600.62 233.94,599.38 233.94,598.12 233.94,596.88 233.94,595.62 233.94,594.38 233.94,593.12 233.94,591.88 233.94,590.62 233.94,589.38 233.94,588.12 233.94,586.88 233.94,585.62 233.94,584.38 233.94,583.12 233.94,581.88 233.94,580.62 233.94,579.38 233.94,578.12 233.94,576.88 233.94,575.62 233.94,574.38 233.94,573.12 233.94,571.88 233.94,570.62 233.94,569.38 233.94,568.12 233.94,566.88 233.94,565.62 233.94,564.38 233.94,563.12 233.94,561.88 233.94,560.62 233.94,559.38 233.94,558.12 233.94,556.88 233.94,555.62 233.94,554.38 233.94,553.12 233.94,551.88 233.94,550.62 233.94,549.38 233.94,548.12 233.94,546.88 233.94,545.62 233.94,544.38 233.94,543.12 233.94,541.88 233.94,540.62 233.94,539.38 233.94,538.12 233.94,536.88 233.94,535.62 233.94,534.38 233.94,533.12 233.94,531.88 233.94,530.62 233.94,529.38 233.94,528.12 233.94,526.88 233.94,525.62 233.94,524.38 233.94,523.12 233.94,521.88 233.94,520.62 233.94,519.38 233.94,518.12 233.94,516.88 233.94,515.62 233.94,514.38 233.94,513.12 233.94,511.88 233.94,510.62 233.94,509.38 233.94,508.12 233.94,506.88 233.94,505.62 233.94,504.38 233.94,503.12 233.94,501.88 233.92,500.62 233.78,499.38 233.65,498.12 233.42,496.88 232.88,495.62 232.35,494.38 231.11,493.12 229.23,491.88 197.94,490.62 190.44,489.38 188.89,488.12 187.79,486.88 187.26,485.62 186.72,484.38 186.58,483.12 186.44,481.88 186.31,480.62 186.31,479.38 186.31,478.12 186.31,476.88 186.31,475.62 186.31,474.38 186.31,473.12 186.31,471.88 186.31,470.62 186.31,469.38 186.31,468.12 186.31,466.88 186.31,465.62 186.31,464.38 186.31,463.12 186.31,461.88 186.31,460.62 186.31,459.38 186.31,458.12 186.31,456.88 186.31,455.62 186.31,454.38 186.31,453.12 186.31,451.88 186.31,450.62 186.31,449.38 186.31,448.12 186.31,446.88 186.31,445.62 186.31,444.38 186.31,443.12 186.31,441.88 186.31,440.62 186.31,439.38 186.31,438.12 186.31,436.88 186.31,435.62 186.31,434.38 186.31,433.12 186.31,431.88 186.31,430.62 186.31,429.38 186.31,428.12 186.31,426.88 186.31,425.62 186.31,424.38 186.31,423.12 186.31,421.88 186.31,420.62 186.31,419.38 186.31,418.12 186.31,416.88 186.31,415.62 186.31,414.38 186.31,413.12 186.31,411.88 186.31,410.62 186.31,409.38 186.31,408.12 186.31,406.88 186.31,405.62 186.19,404.38 186.05,403.12 185.90,401.88 185.37,400.62 184.83,399.38 183.74,398.12 182.19,396.88 177.44,395.62 167.21,394.38 165.32,393.12 164.09,391.88 163.55,390.62 163.02,389.38 162.79,388.12 162.65,386.88 162.51,385.62 162.50,384.38 162.50,383.12 162.50,381.88 162.50,380.62 162.50,379.38 162.50,378.12 162.50,376.88 162.50,375.62 162.50,374.38 162.50,373.12 162.50,371.88 162.50,370.62 162.50,369.38 162.50,368.12 162.50,366.88 162.50,365.62 162.50,364.38 162.50,363.12 162.50,361.88 162.50,360.62 162.50,359.38 162.50,358.12 162.50,356.88 162.50,355.62 162.50,354.38 162.50,353.12 162.50,351.88 162.50,350.62 162.50,349.38 162.50,348.12 162.50,346.88 162.50,345.62 162.50,344.38 162.50,343.12 162.50,341.88 162.50,340.62 162.50,339.38 162.50,338.12 162.50,336.88 162.50,335.62 162.50,334.38 162.50,333.12 162.50,331.88 162.50,330.62 162.50,329.38 162.50,328.12 162.50,326.88 162.50,325.62 162.50,324.38 162.50,323.12 162.50,321.88 162.50,320.62 162.50,319.38 162.50,318.12 162.50,316.88 162.50,315.62 162.50,314.38 162.50,313.12 162.50,311.88 162.50,310.62 162.60,309.38 162.74,308.12 162.87,306.88 163.34,305.62 163.88,304.38 164.83,303.12 166.08,301.88 169.37,300.62 204.83,299.38 207.05,298.12 208.30,296.88 208.96,295.62 209.50,294.38 209.81,293.12 209.94,291.88 210.08,290.62 210.13,289.38 210.13,288.12 210.13,286.88 210.13,285.62 210.13,284.38 210.13,283.12 210.13,281.88 210.13,280.62 210.13,279.38 210.13,278.12 210.13,276.88 210.13,275.62 210.13,274.38 210.13,273.12 210.13,271.88 210.13,270.62 210.13,269.38 210.13,268.12 210.13,266.88 210.13,265.62 210.13,264.38 210.13,263.12 210.13,261.88 210.13,260.62 210.13,259.38 210.13,258.12 210.13,256.88 210.13,255.62 210.13,254.38 210.13,253.12 210.13,251.88 210.13,250.62 210.13,249.38 210.13,248.12 210.13,246.88 210.13,245.62 210.13,244.38 210.13,243.12 210.13,241.88 210.13,240.62 210.13,239.38 210.13,238.12 210.13,236.88 210.13,235.62 210.13,234.38 210.13,233.12 210.13,231.88 210.13,230.62 210.13,229.38 210.13,228.12 210.13,226.88 210.13,225.62 210.13,224.38 210.13,223.12 210.13,221.88 210.13,220.62 210.13,219.38 210.13,218.12 210.13,216.88 210.13,215.62 210.13,214.38 210.13,213.12 210.13,211.88 210.13,210.62 210.13,209.38 210.13,208.12 210.13,206.88 210.13,205.62 210.13,204.38 210.13,203.12 210.13,201.88 210.13,200.62 210.13,199.38 210.13,198.12 210.13,196.88 210.13,195.62 210.13,194.38 210.13,193.12 210.13,191.88 210.13,190.62 210.13,189.38 210.13,188.12 210.13,186.88 210.13,185.62 210.13,184.38 210.13,183.12 210.13,181.88 210.13,180.62 210.14,179.38 210.28,178.12 210.42,176.88 210.64,175.62 211.18,174.38 211.71,173.12 212.95,171.88 214.83,170.62 296.12,169.38 300.88,168.12 304.27,166.88 304.65,165.62 304.79,164.38 304.93,163.12 305.00,161.88 305.00,160.62 305.00,159.38 305.00,158.12 305.00,156.88 305.00,155.62 305.00,154.38 305.00,153.12 305.00,151.88 305.00,150.62 305.00,149.38 305.00,148.12 305.00,146.88 305.00,145.62 305.00,144.38 305.00,143.12 305.00,141.88 305.00,140.62 305.00,139.38 305.00,138.12 305.00,136.88 305.00,135.62 305.00,134.38 305.00,133.12 305.00,131.88 305.00,130.62 305.00,129.38 305.00,128.12 305.00,126.88 305.00,125.62 305.00,124.38 305.00,123.12 305.00,121.88 305.00,120.62 305.00,119.38 305.00,118.12 305.00,116.88 305.00,115.62 305.00,114.38 305.00,113.12 305.00,111.88 305.00,110.62 305.00,109.38 305.00,108.12 305.00,106.88 305.00,105.62 305.00,104.38 305.00,103.12 305.00,101.88 305.00,100.62 305.00,99.38 305.00,98.12 305.00,96.88 305.00,95.62 305.00,94.38 305.00,93.12 305.00,91.88 305.00,90.62 305.00,89.38 305.00,88.12 305.00,86.88 305.00,85.62 305.00,84.38 305.00,83.12 305.00,81.88 305.00,80.62 305.00,79.38 305.00,78.12 305.00,76.88 305.00,75.62 305.00,74.38 305.00,73.12 305.00,71.88 305.00,70.62 305.00,69.38 305.00,68.12 305.00,66.88 305.00,65.62 305.00,64.38 305.00,63.12 305.00,61.88 305.00,60.62 305.00,59.38 305.00,58.12 305.00,56.88 305.00,55.62 305.00,54.38 305.00,53.12 305.00,51.88 305.00,50.62 305.07,49.38 305.21,48.12 305.35,46.88 305.73,45.62 306.27,44.38 307.07,43.12 308.32,41.88 310.88,40.62" fill="#f6b8a9" fill-opacity="0.55" stroke="none"/>
</g>
<rect x="8" y="8" width="320" height="48" fill="#f7f5ee" fill-opacity="0.94" stroke="none"/>
<text x="16" y="24" font-family="Arial" font-size="15" fill="#222">KC2 X3 interlocked joined top view, board-coordinate composite</text>
<text x="16" y="44" font-family="Arial" font-size="11" fill="#555">Scale: 5 px/mm. Min Edge.Cuts clearance: 1.00 mm. Interlock overlap: 13.29 mm.</text>
<line x1="157.50" y1="347.88" x2="162.50" y2="347.88" stroke="#d33b2f" stroke-width="2"/>
<line x1="157.50" y1="341.88" x2="157.50" y2="353.88" stroke="#d33b2f" stroke-width="2"/>
<line x1="162.50" y1="341.88" x2="162.50" y2="353.88" stroke="#d33b2f" stroke-width="2"/>
<text x="160.00" y="339.88" text-anchor="middle" font-family="Arial" font-size="10" fill="#8b2318">1.0 mm</text>
<line x1="-499.63" y1="182.50" x2="-499.23" y2="178.90" stroke="#102018" stroke-width="2" fill="none"/>
<line x1="-499.63" y1="195.00" x2="-499.63" y2="182.50" stroke="#102018" stroke-width="2" fill="none"/>
<line x1="-499.63" y1="199.00" x2="-499.63" y2="195.00" stroke="#102018" stroke-width="2" fill="none"/>
<line x1="-499.63" y1="203.00" x2="-499.63" y2="199.00" stroke="#102018" stroke-width="2" fill="none"/>
<line x1="-499.63" y1="207.00" x2="-499.63" y2="203.00" stroke="#102018" stroke-width="2" fill="none"/>
<line x1="-499.63" y1="211.00" x2="-499.63" y2="207.00" stroke="#102018" stroke-width="2" fill="none"/>
<line x1="-499.63" y1="215.00" x2="-499.63" y2="211.00" stroke="#102018" stroke-width="2" fill="none"/>
<line x1="-499.63" y1="290.25" x2="-499.63" y2="215.00" stroke="#102018" stroke-width="2" fill="none"/>
<line x1="-499.63" y1="294.25" x2="-499.63" y2="290.25" stroke="#102018" stroke-width="2" fill="none"/>
<line x1="-499.63" y1="298.25" x2="-499.63" y2="294.25" stroke="#102018" stroke-width="2" fill="none"/>
<line x1="-499.63" y1="302.25" x2="-499.63" y2="298.25" stroke="#102018" stroke-width="2" fill="none"/>
<line x1="-499.63" y1="306.25" x2="-499.63" y2="302.25" stroke="#102018" stroke-width="2" fill="none"/>
<line x1="-499.63" y1="310.25" x2="-499.63" y2="306.25" stroke="#102018" stroke-width="2" fill="none"/>
<line x1="-499.63" y1="385.50" x2="-499.63" y2="310.25" stroke="#102018" stroke-width="2" fill="none"/>
<line x1="-499.63" y1="389.50" x2="-499.63" y2="385.50" stroke="#102018" stroke-width="2" fill="none"/>
<line x1="-499.63" y1="393.50" x2="-499.63" y2="389.50" stroke="#102018" stroke-width="2" fill="none"/>
<line x1="-499.63" y1="397.50" x2="-499.63" y2="393.50" stroke="#102018" stroke-width="2" fill="none"/>
<line x1="-499.63" y1="401.50" x2="-499.63" y2="397.50" stroke="#102018" stroke-width="2" fill="none"/>
<line x1="-499.63" y1="405.50" x2="-499.63" y2="401.50" stroke="#102018" stroke-width="2" fill="none"/>
<line x1="-499.63" y1="480.75" x2="-499.63" y2="405.50" stroke="#102018" stroke-width="2" fill="none"/>
<line x1="-499.63" y1="484.75" x2="-499.63" y2="480.75" stroke="#102018" stroke-width="2" fill="none"/>
<line x1="-499.63" y1="488.75" x2="-499.63" y2="484.75" stroke="#102018" stroke-width="2" fill="none"/>
<line x1="-499.63" y1="492.75" x2="-499.63" y2="488.75" stroke="#102018" stroke-width="2" fill="none"/>
<line x1="-499.63" y1="496.75" x2="-499.63" y2="492.75" stroke="#102018" stroke-width="2" fill="none"/>
<line x1="-499.63" y1="500.75" x2="-499.63" y2="496.75" stroke="#102018" stroke-width="2" fill="none"/>
<line x1="-499.63" y1="576.00" x2="-499.63" y2="500.75" stroke="#102018" stroke-width="2" fill="none"/>
<line x1="-499.63" y1="580.00" x2="-499.63" y2="576.00" stroke="#102018" stroke-width="2" fill="none"/>
<line x1="-499.63" y1="584.00" x2="-499.63" y2="580.00" stroke="#102018" stroke-width="2" fill="none"/>
<line x1="-499.63" y1="588.00" x2="-499.63" y2="584.00" stroke="#102018" stroke-width="2" fill="none"/>
<line x1="-499.63" y1="592.00" x2="-499.63" y2="588.00" stroke="#102018" stroke-width="2" fill="none"/>
<line x1="-499.63" y1="596.00" x2="-499.63" y2="592.00" stroke="#102018" stroke-width="2" fill="none"/>
<line x1="-499.63" y1="691.25" x2="-499.63" y2="596.00" stroke="#102018" stroke-width="2" fill="none"/>
<line x1="-499.23" y1="178.90" x2="-498.03" y2="176.10" stroke="#102018" stroke-width="2" fill="none"/>
<line x1="-499.23" y1="694.85" x2="-499.63" y2="691.25" stroke="#102018" stroke-width="2" fill="none"/>
<line x1="-498.03" y1="176.10" x2="-496.03" y2="174.10" stroke="#102018" stroke-width="2" fill="none"/>
<line x1="-498.03" y1="697.65" x2="-499.23" y2="694.85" stroke="#102018" stroke-width="2" fill="none"/>
<line x1="-496.03" y1="174.10" x2="-493.23" y2="172.90" stroke="#102018" stroke-width="2" fill="none"/>
<line x1="-496.03" y1="699.65" x2="-498.03" y2="697.65" stroke="#102018" stroke-width="2" fill="none"/>
<line x1="-493.23" y1="172.90" x2="-489.63" y2="172.50" stroke="#102018" stroke-width="2" fill="none"/>
<line x1="-493.23" y1="700.85" x2="-496.03" y2="699.65" stroke="#102018" stroke-width="2" fill="none"/>
<line x1="-489.63" y1="172.50" x2="-111.06" y2="172.50" stroke="#102018" stroke-width="2" fill="none"/>
<line x1="-489.63" y1="701.25" x2="-493.23" y2="700.85" stroke="#102018" stroke-width="2" fill="none"/>
<line x1="-111.06" y1="172.50" x2="-107.46" y2="172.10" stroke="#102018" stroke-width="2" fill="none"/>
<line x1="-107.46" y1="172.10" x2="-104.66" y2="170.90" stroke="#102018" stroke-width="2" fill="none"/>
<line x1="-104.66" y1="170.90" x2="-102.66" y2="171.40" stroke="#102018" stroke-width="2" fill="none"/>
<line x1="-102.66" y1="171.40" x2="-101.46" y2="168.60" stroke="#102018" stroke-width="2" fill="none"/>
<line x1="-101.46" y1="168.60" x2="-101.06" y2="165.00" stroke="#102018" stroke-width="2" fill="none"/>
<line x1="-101.06" y1="50.00" x2="-100.66" y2="46.40" stroke="#102018" stroke-width="2" fill="none"/>
<line x1="-101.06" y1="165.00" x2="-101.06" y2="50.00" stroke="#102018" stroke-width="2" fill="none"/>
<line x1="-100.66" y1="46.40" x2="-99.46" y2="43.60" stroke="#102018" stroke-width="2" fill="none"/>
<line x1="-99.46" y1="43.60" x2="-97.46" y2="41.60" stroke="#102018" stroke-width="2" fill="none"/>
<line x1="-97.46" y1="41.60" x2="-94.66" y2="40.40" stroke="#102018" stroke-width="2" fill="none"/>
<line x1="-94.66" y1="40.40" x2="-91.06" y2="40.00" stroke="#102018" stroke-width="2" fill="none"/>
<line x1="-91.06" y1="40.00" x2="101.44" y2="40.00" stroke="#102018" stroke-width="2" fill="none"/>
<line x1="101.44" y1="40.00" x2="105.04" y2="40.40" stroke="#102018" stroke-width="2" fill="none"/>
<line x1="105.04" y1="40.40" x2="107.84" y2="41.60" stroke="#102018" stroke-width="2" fill="none"/>
<line x1="107.84" y1="41.60" x2="109.84" y2="43.60" stroke="#102018" stroke-width="2" fill="none"/>
<line x1="109.84" y1="43.60" x2="111.04" y2="46.40" stroke="#102018" stroke-width="2" fill="none"/>
<line x1="111.04" y1="46.40" x2="111.44" y2="50.00" stroke="#102018" stroke-width="2" fill="none"/>
<line x1="111.44" y1="50.00" x2="111.44" y2="165.00" stroke="#102018" stroke-width="2" fill="none"/>
<line x1="111.44" y1="165.00" x2="111.84" y2="168.60" stroke="#102018" stroke-width="2" fill="none"/>
<line x1="111.84" y1="168.60" x2="113.04" y2="171.40" stroke="#102018" stroke-width="2" fill="none"/>
<line x1="113.04" y1="171.40" x2="115.04" y2="170.90" stroke="#102018" stroke-width="2" fill="none"/>
<line x1="115.04" y1="170.90" x2="117.84" y2="172.10" stroke="#102018" stroke-width="2" fill="none"/>
<line x1="117.84" y1="172.10" x2="121.44" y2="172.50" stroke="#102018" stroke-width="2" fill="none"/>
<line x1="121.44" y1="172.50" x2="195.12" y2="172.50" stroke="#102018" stroke-width="2" fill="none"/>
<line x1="157.50" y1="310.25" x2="157.50" y2="385.50" stroke="#102018" stroke-width="2" fill="none"/>
<line x1="157.50" y1="385.50" x2="157.90" y2="389.10" stroke="#102018" stroke-width="2" fill="none"/>
<line x1="157.90" y1="306.65" x2="157.50" y2="310.25" stroke="#102018" stroke-width="2" fill="none"/>
<line x1="157.90" y1="389.10" x2="159.10" y2="391.90" stroke="#102018" stroke-width="2" fill="none"/>
<line x1="159.10" y1="303.85" x2="157.90" y2="306.65" stroke="#102018" stroke-width="2" fill="none"/>
<line x1="159.10" y1="391.90" x2="161.10" y2="393.90" stroke="#102018" stroke-width="2" fill="none"/>
<line x1="161.10" y1="301.85" x2="159.10" y2="303.85" stroke="#102018" stroke-width="2" fill="none"/>
<line x1="161.10" y1="393.90" x2="163.90" y2="395.10" stroke="#102018" stroke-width="2" fill="none"/>
<line x1="163.90" y1="300.65" x2="161.10" y2="301.85" stroke="#102018" stroke-width="2" fill="none"/>
<line x1="163.90" y1="395.10" x2="167.50" y2="395.50" stroke="#102018" stroke-width="2" fill="none"/>
<line x1="167.50" y1="300.25" x2="163.90" y2="300.65" stroke="#102018" stroke-width="2" fill="none"/>
<line x1="167.50" y1="395.50" x2="171.31" y2="395.50" stroke="#102018" stroke-width="2" fill="none"/>
<line x1="171.31" y1="395.50" x2="174.91" y2="395.90" stroke="#102018" stroke-width="2" fill="none"/>
<line x1="174.91" y1="395.90" x2="177.71" y2="397.10" stroke="#102018" stroke-width="2" fill="none"/>
<line x1="177.71" y1="397.10" x2="179.71" y2="399.10" stroke="#102018" stroke-width="2" fill="none"/>
<line x1="179.71" y1="399.10" x2="180.91" y2="401.90" stroke="#102018" stroke-width="2" fill="none"/>
<line x1="180.91" y1="401.90" x2="181.31" y2="405.50" stroke="#102018" stroke-width="2" fill="none"/>
<line x1="181.31" y1="405.50" x2="181.31" y2="480.75" stroke="#102018" stroke-width="2" fill="none"/>
<line x1="181.31" y1="480.75" x2="181.71" y2="484.35" stroke="#102018" stroke-width="2" fill="none"/>
<line x1="181.71" y1="484.35" x2="182.91" y2="487.15" stroke="#102018" stroke-width="2" fill="none"/>
<line x1="182.91" y1="487.15" x2="184.91" y2="489.15" stroke="#102018" stroke-width="2" fill="none"/>
<line x1="184.91" y1="489.15" x2="187.71" y2="490.35" stroke="#102018" stroke-width="2" fill="none"/>
<line x1="187.71" y1="490.35" x2="191.31" y2="490.75" stroke="#102018" stroke-width="2" fill="none"/>
<line x1="191.31" y1="490.75" x2="218.94" y2="490.75" stroke="#102018" stroke-width="2" fill="none"/>
<line x1="195.12" y1="172.50" x2="198.72" y2="172.90" stroke="#102018" stroke-width="2" fill="none"/>
<line x1="195.12" y1="300.25" x2="167.50" y2="300.25" stroke="#102018" stroke-width="2" fill="none"/>
<line x1="198.72" y1="172.90" x2="201.52" y2="174.10" stroke="#102018" stroke-width="2" fill="none"/>
<line x1="198.72" y1="299.85" x2="195.12" y2="300.25" stroke="#102018" stroke-width="2" fill="none"/>
<line x1="201.52" y1="174.10" x2="203.52" y2="176.10" stroke="#102018" stroke-width="2" fill="none"/>
<line x1="201.52" y1="298.65" x2="198.72" y2="299.85" stroke="#102018" stroke-width="2" fill="none"/>
<line x1="203.52" y1="176.10" x2="204.72" y2="178.90" stroke="#102018" stroke-width="2" fill="none"/>
<line x1="203.52" y1="296.65" x2="201.52" y2="298.65" stroke="#102018" stroke-width="2" fill="none"/>
<line x1="204.72" y1="178.90" x2="205.12" y2="182.50" stroke="#102018" stroke-width="2" fill="none"/>
<line x1="204.72" y1="293.85" x2="203.52" y2="296.65" stroke="#102018" stroke-width="2" fill="none"/>
<line x1="205.12" y1="182.50" x2="205.12" y2="290.25" stroke="#102018" stroke-width="2" fill="none"/>
<line x1="205.12" y1="290.25" x2="204.72" y2="293.85" stroke="#102018" stroke-width="2" fill="none"/>
<line x1="218.94" y1="490.75" x2="222.54" y2="491.15" stroke="#102018" stroke-width="2" fill="none"/>
<line x1="219.94" y1="701.25" x2="-489.63" y2="701.25" stroke="#102018" stroke-width="2" fill="none"/>
<line x1="222.54" y1="491.15" x2="225.34" y2="492.35" stroke="#102018" stroke-width="2" fill="none"/>
<line x1="223.18" y1="700.89" x2="219.94" y2="701.25" stroke="#102018" stroke-width="2" fill="none"/>
<line x1="225.34" y1="492.35" x2="227.34" y2="494.35" stroke="#102018" stroke-width="2" fill="none"/>
<line x1="225.70" y1="699.81" x2="223.18" y2="700.89" stroke="#102018" stroke-width="2" fill="none"/>
<line x1="227.34" y1="494.35" x2="228.54" y2="497.15" stroke="#102018" stroke-width="2" fill="none"/>
<line x1="227.50" y1="698.01" x2="225.70" y2="699.81" stroke="#102018" stroke-width="2" fill="none"/>
<line x1="228.54" y1="497.15" x2="228.94" y2="500.75" stroke="#102018" stroke-width="2" fill="none"/>
<line x1="228.58" y1="695.49" x2="227.50" y2="698.01" stroke="#102018" stroke-width="2" fill="none"/>
<line x1="228.94" y1="500.75" x2="228.94" y2="576.00" stroke="#102018" stroke-width="2" fill="none"/>
<line x1="228.94" y1="576.00" x2="228.94" y2="580.00" stroke="#102018" stroke-width="2" fill="none"/>
<line x1="228.94" y1="580.00" x2="228.94" y2="584.00" stroke="#102018" stroke-width="2" fill="none"/>
<line x1="228.94" y1="584.00" x2="228.94" y2="588.00" stroke="#102018" stroke-width="2" fill="none"/>
<line x1="228.94" y1="588.00" x2="228.94" y2="592.00" stroke="#102018" stroke-width="2" fill="none"/>
<line x1="228.94" y1="592.00" x2="228.94" y2="596.00" stroke="#102018" stroke-width="2" fill="none"/>
<line x1="228.94" y1="596.00" x2="228.94" y2="672.25" stroke="#102018" stroke-width="2" fill="none"/>
<line x1="228.94" y1="672.25" x2="228.94" y2="675.85" stroke="#102018" stroke-width="2" fill="none"/>
<line x1="228.94" y1="675.85" x2="228.94" y2="679.45" stroke="#102018" stroke-width="2" fill="none"/>
<line x1="228.94" y1="679.45" x2="228.94" y2="683.05" stroke="#102018" stroke-width="2" fill="none"/>
<line x1="228.94" y1="683.05" x2="228.94" y2="686.65" stroke="#102018" stroke-width="2" fill="none"/>
<line x1="228.94" y1="686.65" x2="228.94" y2="690.25" stroke="#102018" stroke-width="2" fill="none"/>
<line x1="228.94" y1="690.25" x2="228.94" y2="692.25" stroke="#102018" stroke-width="2" fill="none"/>
<line x1="228.94" y1="692.25" x2="228.58" y2="695.49" stroke="#102018" stroke-width="2" fill="none"/>
<line x1="162.50" y1="310.25" x2="162.90" y2="306.65" stroke="#101b2a" stroke-width="2" fill="none"/>
<line x1="162.50" y1="385.50" x2="162.50" y2="310.25" stroke="#101b2a" stroke-width="2" fill="none"/>
<line x1="162.90" y1="306.65" x2="164.10" y2="303.85" stroke="#101b2a" stroke-width="2" fill="none"/>
<line x1="162.90" y1="389.10" x2="162.50" y2="385.50" stroke="#101b2a" stroke-width="2" fill="none"/>
<line x1="164.10" y1="303.85" x2="166.10" y2="301.85" stroke="#101b2a" stroke-width="2" fill="none"/>
<line x1="164.10" y1="391.90" x2="162.90" y2="389.10" stroke="#101b2a" stroke-width="2" fill="none"/>
<line x1="166.10" y1="301.85" x2="168.90" y2="300.65" stroke="#101b2a" stroke-width="2" fill="none"/>
<line x1="166.10" y1="393.90" x2="164.10" y2="391.90" stroke="#101b2a" stroke-width="2" fill="none"/>
<line x1="168.90" y1="300.65" x2="176.50" y2="300.25" stroke="#101b2a" stroke-width="2" fill="none"/>
<line x1="168.90" y1="395.10" x2="166.10" y2="393.90" stroke="#101b2a" stroke-width="2" fill="none"/>
<line x1="176.31" y1="395.50" x2="176.50" y2="395.50" stroke="#101b2a" stroke-width="2" fill="none"/>
<line x1="176.50" y1="300.25" x2="200.13" y2="300.25" stroke="#101b2a" stroke-width="2" fill="none"/>
<line x1="176.50" y1="395.50" x2="168.90" y2="395.10" stroke="#101b2a" stroke-width="2" fill="none"/>
<line x1="179.91" y1="395.90" x2="176.31" y2="395.50" stroke="#101b2a" stroke-width="2" fill="none"/>
<line x1="182.71" y1="397.10" x2="179.91" y2="395.90" stroke="#101b2a" stroke-width="2" fill="none"/>
<line x1="184.71" y1="399.10" x2="182.71" y2="397.10" stroke="#101b2a" stroke-width="2" fill="none"/>
<line x1="185.91" y1="401.90" x2="184.71" y2="399.10" stroke="#101b2a" stroke-width="2" fill="none"/>
<line x1="186.31" y1="405.50" x2="185.91" y2="401.90" stroke="#101b2a" stroke-width="2" fill="none"/>
<line x1="186.31" y1="480.75" x2="186.31" y2="405.50" stroke="#101b2a" stroke-width="2" fill="none"/>
<line x1="186.71" y1="484.35" x2="186.31" y2="480.75" stroke="#101b2a" stroke-width="2" fill="none"/>
<line x1="187.91" y1="487.15" x2="186.71" y2="484.35" stroke="#101b2a" stroke-width="2" fill="none"/>
<line x1="189.91" y1="489.15" x2="187.91" y2="487.15" stroke="#101b2a" stroke-width="2" fill="none"/>
<line x1="192.71" y1="490.35" x2="189.91" y2="489.15" stroke="#101b2a" stroke-width="2" fill="none"/>
<line x1="200.13" y1="300.25" x2="203.73" y2="299.85" stroke="#101b2a" stroke-width="2" fill="none"/>
<line x1="200.31" y1="490.75" x2="192.71" y2="490.35" stroke="#101b2a" stroke-width="2" fill="none"/>
<line x1="203.73" y1="299.85" x2="206.53" y2="298.65" stroke="#101b2a" stroke-width="2" fill="none"/>
<line x1="206.53" y1="298.65" x2="208.52" y2="296.65" stroke="#101b2a" stroke-width="2" fill="none"/>
<line x1="208.52" y1="296.65" x2="209.72" y2="293.85" stroke="#101b2a" stroke-width="2" fill="none"/>
<line x1="209.72" y1="293.85" x2="210.13" y2="290.25" stroke="#101b2a" stroke-width="2" fill="none"/>
<line x1="210.13" y1="179.50" x2="210.52" y2="175.90" stroke="#101b2a" stroke-width="2" fill="none"/>
<line x1="210.13" y1="195.00" x2="210.13" y2="179.50" stroke="#101b2a" stroke-width="2" fill="none"/>
<line x1="210.13" y1="199.00" x2="210.13" y2="195.00" stroke="#101b2a" stroke-width="2" fill="none"/>
<line x1="210.13" y1="203.00" x2="210.13" y2="199.00" stroke="#101b2a" stroke-width="2" fill="none"/>
<line x1="210.13" y1="207.00" x2="210.13" y2="203.00" stroke="#101b2a" stroke-width="2" fill="none"/>
<line x1="210.13" y1="211.00" x2="210.13" y2="207.00" stroke="#101b2a" stroke-width="2" fill="none"/>
<line x1="210.13" y1="215.00" x2="210.13" y2="211.00" stroke="#101b2a" stroke-width="2" fill="none"/>
<line x1="210.13" y1="290.25" x2="210.13" y2="215.00" stroke="#101b2a" stroke-width="2" fill="none"/>
<line x1="210.52" y1="175.90" x2="211.72" y2="173.10" stroke="#101b2a" stroke-width="2" fill="none"/>
<line x1="211.72" y1="173.10" x2="213.73" y2="171.10" stroke="#101b2a" stroke-width="2" fill="none"/>
<line x1="213.73" y1="171.10" x2="216.53" y2="169.90" stroke="#101b2a" stroke-width="2" fill="none"/>
<line x1="216.53" y1="169.90" x2="220.13" y2="169.50" stroke="#101b2a" stroke-width="2" fill="none"/>
<line x1="220.13" y1="169.50" x2="295.00" y2="169.50" stroke="#101b2a" stroke-width="2" fill="none"/>
<line x1="223.94" y1="490.75" x2="200.31" y2="490.75" stroke="#101b2a" stroke-width="2" fill="none"/>
<line x1="227.54" y1="491.15" x2="223.94" y2="490.75" stroke="#101b2a" stroke-width="2" fill="none"/>
<line x1="230.34" y1="492.35" x2="227.54" y2="491.15" stroke="#101b2a" stroke-width="2" fill="none"/>
<line x1="232.34" y1="494.35" x2="230.34" y2="492.35" stroke="#101b2a" stroke-width="2" fill="none"/>
<line x1="233.54" y1="497.15" x2="232.34" y2="494.35" stroke="#101b2a" stroke-width="2" fill="none"/>
<line x1="233.94" y1="500.75" x2="233.54" y2="497.15" stroke="#101b2a" stroke-width="2" fill="none"/>
<line x1="233.94" y1="576.00" x2="233.94" y2="500.75" stroke="#101b2a" stroke-width="2" fill="none"/>
<line x1="233.94" y1="580.00" x2="233.94" y2="576.00" stroke="#101b2a" stroke-width="2" fill="none"/>
<line x1="233.94" y1="584.00" x2="233.94" y2="580.00" stroke="#101b2a" stroke-width="2" fill="none"/>
<line x1="233.94" y1="588.00" x2="233.94" y2="584.00" stroke="#101b2a" stroke-width="2" fill="none"/>
<line x1="233.94" y1="592.00" x2="233.94" y2="588.00" stroke="#101b2a" stroke-width="2" fill="none"/>
<line x1="233.94" y1="596.00" x2="233.94" y2="592.00" stroke="#101b2a" stroke-width="2" fill="none"/>
<line x1="233.94" y1="691.25" x2="233.94" y2="596.00" stroke="#101b2a" stroke-width="2" fill="none"/>
<line x1="234.34" y1="694.85" x2="233.94" y2="691.25" stroke="#101b2a" stroke-width="2" fill="none"/>
<line x1="235.54" y1="697.65" x2="234.34" y2="694.85" stroke="#101b2a" stroke-width="2" fill="none"/>
<line x1="237.54" y1="699.65" x2="235.54" y2="697.65" stroke="#101b2a" stroke-width="2" fill="none"/>
<line x1="240.34" y1="700.85" x2="237.54" y2="699.65" stroke="#101b2a" stroke-width="2" fill="none"/>
<line x1="243.94" y1="701.25" x2="240.34" y2="700.85" stroke="#101b2a" stroke-width="2" fill="none"/>
<line x1="295.00" y1="169.50" x2="298.60" y2="169.10" stroke="#101b2a" stroke-width="2" fill="none"/>
<line x1="298.60" y1="169.10" x2="301.40" y2="167.90" stroke="#101b2a" stroke-width="2" fill="none"/>
<line x1="301.40" y1="167.90" x2="303.40" y2="168.90" stroke="#101b2a" stroke-width="2" fill="none"/>
<line x1="303.40" y1="168.90" x2="304.60" y2="166.10" stroke="#101b2a" stroke-width="2" fill="none"/>
<line x1="304.60" y1="166.10" x2="305.00" y2="162.50" stroke="#101b2a" stroke-width="2" fill="none"/>
<line x1="305.00" y1="50.00" x2="305.40" y2="46.40" stroke="#101b2a" stroke-width="2" fill="none"/>
<line x1="305.00" y1="162.50" x2="305.00" y2="50.00" stroke="#101b2a" stroke-width="2" fill="none"/>
<line x1="305.40" y1="46.40" x2="306.60" y2="43.60" stroke="#101b2a" stroke-width="2" fill="none"/>
<line x1="306.60" y1="43.60" x2="308.60" y2="41.60" stroke="#101b2a" stroke-width="2" fill="none"/>
<line x1="308.60" y1="41.60" x2="311.40" y2="40.40" stroke="#101b2a" stroke-width="2" fill="none"/>
<line x1="311.40" y1="40.40" x2="315.00" y2="40.00" stroke="#101b2a" stroke-width="2" fill="none"/>
<line x1="315.00" y1="40.00" x2="507.50" y2="40.00" stroke="#101b2a" stroke-width="2" fill="none"/>
<line x1="507.50" y1="40.00" x2="511.10" y2="40.40" stroke="#101b2a" stroke-width="2" fill="none"/>
<line x1="511.10" y1="40.40" x2="513.90" y2="41.60" stroke="#101b2a" stroke-width="2" fill="none"/>
<line x1="513.90" y1="41.60" x2="515.90" y2="43.60" stroke="#101b2a" stroke-width="2" fill="none"/>
<line x1="515.90" y1="43.60" x2="517.10" y2="46.40" stroke="#101b2a" stroke-width="2" fill="none"/>
<line x1="517.10" y1="46.40" x2="517.50" y2="50.00" stroke="#101b2a" stroke-width="2" fill="none"/>
<line x1="517.50" y1="50.00" x2="517.50" y2="162.50" stroke="#101b2a" stroke-width="2" fill="none"/>
<line x1="517.50" y1="162.50" x2="517.90" y2="166.10" stroke="#101b2a" stroke-width="2" fill="none"/>
<line x1="517.90" y1="166.10" x2="519.10" y2="168.90" stroke="#101b2a" stroke-width="2" fill="none"/>
<line x1="519.10" y1="168.90" x2="521.10" y2="167.90" stroke="#101b2a" stroke-width="2" fill="none"/>
<line x1="521.10" y1="167.90" x2="523.90" y2="169.10" stroke="#101b2a" stroke-width="2" fill="none"/>
<line x1="523.90" y1="169.10" x2="527.50" y2="169.50" stroke="#101b2a" stroke-width="2" fill="none"/>
<line x1="527.50" y1="169.50" x2="1119.19" y2="169.50" stroke="#101b2a" stroke-width="2" fill="none"/>
<line x1="1119.19" y1="169.50" x2="1122.79" y2="169.90" stroke="#101b2a" stroke-width="2" fill="none"/>
<line x1="1120.19" y1="701.25" x2="243.94" y2="701.25" stroke="#101b2a" stroke-width="2" fill="none"/>
<line x1="1122.79" y1="169.90" x2="1125.59" y2="171.10" stroke="#101b2a" stroke-width="2" fill="none"/>
<line x1="1123.43" y1="700.89" x2="1120.19" y2="701.25" stroke="#101b2a" stroke-width="2" fill="none"/>
<line x1="1125.59" y1="171.10" x2="1127.59" y2="173.10" stroke="#101b2a" stroke-width="2" fill="none"/>
<line x1="1125.95" y1="699.81" x2="1123.43" y2="700.89" stroke="#101b2a" stroke-width="2" fill="none"/>
<line x1="1127.59" y1="173.10" x2="1128.79" y2="175.90" stroke="#101b2a" stroke-width="2" fill="none"/>
<line x1="1127.75" y1="698.01" x2="1125.95" y2="699.81" stroke="#101b2a" stroke-width="2" fill="none"/>
<line x1="1128.79" y1="175.90" x2="1129.19" y2="179.50" stroke="#101b2a" stroke-width="2" fill="none"/>
<line x1="1128.83" y1="695.49" x2="1127.75" y2="698.01" stroke="#101b2a" stroke-width="2" fill="none"/>
<line x1="1129.19" y1="179.50" x2="1129.19" y2="290.25" stroke="#101b2a" stroke-width="2" fill="none"/>
<line x1="1129.19" y1="290.25" x2="1129.19" y2="294.25" stroke="#101b2a" stroke-width="2" fill="none"/>
<line x1="1129.19" y1="294.25" x2="1129.19" y2="298.25" stroke="#101b2a" stroke-width="2" fill="none"/>
<line x1="1129.19" y1="298.25" x2="1129.19" y2="302.25" stroke="#101b2a" stroke-width="2" fill="none"/>
<line x1="1129.19" y1="302.25" x2="1129.19" y2="306.25" stroke="#101b2a" stroke-width="2" fill="none"/>
<line x1="1129.19" y1="306.25" x2="1129.19" y2="310.25" stroke="#101b2a" stroke-width="2" fill="none"/>
<line x1="1129.19" y1="310.25" x2="1129.19" y2="385.50" stroke="#101b2a" stroke-width="2" fill="none"/>
<line x1="1129.19" y1="385.50" x2="1129.19" y2="389.50" stroke="#101b2a" stroke-width="2" fill="none"/>
<line x1="1129.19" y1="389.50" x2="1129.19" y2="393.50" stroke="#101b2a" stroke-width="2" fill="none"/>
<line x1="1129.19" y1="393.50" x2="1129.19" y2="397.50" stroke="#101b2a" stroke-width="2" fill="none"/>
<line x1="1129.19" y1="397.50" x2="1129.19" y2="401.50" stroke="#101b2a" stroke-width="2" fill="none"/>
<line x1="1129.19" y1="401.50" x2="1129.19" y2="405.50" stroke="#101b2a" stroke-width="2" fill="none"/>
<line x1="1129.19" y1="405.50" x2="1129.19" y2="480.75" stroke="#101b2a" stroke-width="2" fill="none"/>
<line x1="1129.19" y1="480.75" x2="1129.19" y2="484.75" stroke="#101b2a" stroke-width="2" fill="none"/>
<line x1="1129.19" y1="484.75" x2="1129.19" y2="488.75" stroke="#101b2a" stroke-width="2" fill="none"/>
<line x1="1129.19" y1="488.75" x2="1129.19" y2="492.75" stroke="#101b2a" stroke-width="2" fill="none"/>
<line x1="1129.19" y1="492.75" x2="1129.19" y2="496.75" stroke="#101b2a" stroke-width="2" fill="none"/>
<line x1="1129.19" y1="496.75" x2="1129.19" y2="500.75" stroke="#101b2a" stroke-width="2" fill="none"/>
<line x1="1129.19" y1="500.75" x2="1129.19" y2="576.00" stroke="#101b2a" stroke-width="2" fill="none"/>
<line x1="1129.19" y1="576.00" x2="1129.19" y2="580.00" stroke="#101b2a" stroke-width="2" fill="none"/>
<line x1="1129.19" y1="580.00" x2="1129.19" y2="584.00" stroke="#101b2a" stroke-width="2" fill="none"/>
<line x1="1129.19" y1="584.00" x2="1129.19" y2="588.00" stroke="#101b2a" stroke-width="2" fill="none"/>
<line x1="1129.19" y1="588.00" x2="1129.19" y2="592.00" stroke="#101b2a" stroke-width="2" fill="none"/>
<line x1="1129.19" y1="592.00" x2="1129.19" y2="596.00" stroke="#101b2a" stroke-width="2" fill="none"/>
<line x1="1129.19" y1="596.00" x2="1129.19" y2="672.25" stroke="#101b2a" stroke-width="2" fill="none"/>
<line x1="1129.19" y1="672.25" x2="1129.19" y2="675.85" stroke="#101b2a" stroke-width="2" fill="none"/>
<line x1="1129.19" y1="675.85" x2="1129.19" y2="679.45" stroke="#101b2a" stroke-width="2" fill="none"/>
<line x1="1129.19" y1="679.45" x2="1129.19" y2="683.05" stroke="#101b2a" stroke-width="2" fill="none"/>
<line x1="1129.19" y1="683.05" x2="1129.19" y2="686.65" stroke="#101b2a" stroke-width="2" fill="none"/>
<line x1="1129.19" y1="686.65" x2="1129.19" y2="690.25" stroke="#101b2a" stroke-width="2" fill="none"/>
<line x1="1129.19" y1="690.25" x2="1129.19" y2="692.25" stroke="#101b2a" stroke-width="2" fill="none"/>
<line x1="1129.19" y1="692.25" x2="1128.83" y2="695.49" stroke="#101b2a" stroke-width="2" fill="none"/>
<rect x="-477.13" y="207.50" width="90.25" height="90.25" rx="2" ry="2" fill="#e9fff4" stroke="#2a8d66" stroke-width="1" fill-opacity="0.86"/>
<text x="-432.00" y="256.09" text-anchor="middle" font-family="Arial" font-size="10" fill="#101010">~</text>
<rect x="-381.88" y="207.50" width="90.25" height="90.25" rx="2" ry="2" fill="#e9fff4" stroke="#2a8d66" stroke-width="1" fill-opacity="0.86"/>
<text x="-336.75" y="256.09" text-anchor="middle" font-family="Arial" font-size="10" fill="#101010">1</text>
<rect x="-286.63" y="207.50" width="90.25" height="90.25" rx="2" ry="2" fill="#e9fff4" stroke="#2a8d66" stroke-width="1" fill-opacity="0.86"/>
<text x="-241.50" y="256.09" text-anchor="middle" font-family="Arial" font-size="10" fill="#101010">2</text>
<rect x="-191.38" y="207.50" width="90.25" height="90.25" rx="2" ry="2" fill="#e9fff4" stroke="#2a8d66" stroke-width="1" fill-opacity="0.86"/>
<text x="-146.25" y="256.09" text-anchor="middle" font-family="Arial" font-size="10" fill="#101010">3</text>
<rect x="-96.13" y="207.50" width="90.25" height="90.25" rx="2" ry="2" fill="#e9fff4" stroke="#2a8d66" stroke-width="1" fill-opacity="0.86"/>
<text x="-51.00" y="256.09" text-anchor="middle" font-family="Arial" font-size="10" fill="#101010">4</text>
<rect x="-0.88" y="207.50" width="90.25" height="90.25" rx="2" ry="2" fill="#e9fff4" stroke="#2a8d66" stroke-width="1" fill-opacity="0.86"/>
<text x="44.25" y="256.09" text-anchor="middle" font-family="Arial" font-size="10" fill="#101010">5</text>
<rect x="94.37" y="207.50" width="90.25" height="90.25" rx="2" ry="2" fill="#e9fff4" stroke="#2a8d66" stroke-width="1" fill-opacity="0.86"/>
<text x="139.50" y="256.09" text-anchor="middle" font-family="Arial" font-size="10" fill="#101010">6</text>
<rect x="-477.13" y="302.75" width="137.88" height="90.25" rx="2" ry="2" fill="#e9fff4" stroke="#2a8d66" stroke-width="1" fill-opacity="0.86"/>
<text x="-408.19" y="351.33" text-anchor="middle" font-family="Arial" font-size="10" fill="#101010">TAB</text>
<rect x="-334.25" y="302.75" width="90.25" height="90.25" rx="2" ry="2" fill="#e9fff4" stroke="#2a8d66" stroke-width="1" fill-opacity="0.86"/>
<text x="-289.13" y="351.33" text-anchor="middle" font-family="Arial" font-size="10" fill="#101010">Q</text>
<rect x="-239.00" y="302.75" width="90.25" height="90.25" rx="2" ry="2" fill="#e9fff4" stroke="#2a8d66" stroke-width="1" fill-opacity="0.86"/>
<text x="-193.88" y="351.33" text-anchor="middle" font-family="Arial" font-size="10" fill="#101010">W</text>
<rect x="-143.75" y="302.75" width="90.25" height="90.25" rx="2" ry="2" fill="#e9fff4" stroke="#2a8d66" stroke-width="1" fill-opacity="0.86"/>
<text x="-98.63" y="351.33" text-anchor="middle" font-family="Arial" font-size="10" fill="#101010">E</text>
<rect x="-48.50" y="302.75" width="90.25" height="90.25" rx="2" ry="2" fill="#e9fff4" stroke="#2a8d66" stroke-width="1" fill-opacity="0.86"/>
<text x="-3.38" y="351.33" text-anchor="middle" font-family="Arial" font-size="10" fill="#101010">R</text>
<rect x="46.75" y="302.75" width="90.25" height="90.25" rx="2" ry="2" fill="#e9fff4" stroke="#2a8d66" stroke-width="1" fill-opacity="0.86"/>
<text x="91.88" y="351.33" text-anchor="middle" font-family="Arial" font-size="10" fill="#101010">T</text>
<rect x="-477.12" y="398.00" width="161.69" height="90.25" rx="2" ry="2" fill="#e9fff4" stroke="#2a8d66" stroke-width="1" fill-opacity="0.86"/>
<text x="-396.28" y="446.58" text-anchor="middle" font-family="Arial" font-size="10" fill="#101010">Caps</text>
<rect x="-310.44" y="398.00" width="90.25" height="90.25" rx="2" ry="2" fill="#e9fff4" stroke="#2a8d66" stroke-width="1" fill-opacity="0.86"/>
<text x="-265.31" y="446.58" text-anchor="middle" font-family="Arial" font-size="10" fill="#101010">A</text>
<rect x="-215.19" y="398.00" width="90.25" height="90.25" rx="2" ry="2" fill="#e9fff4" stroke="#2a8d66" stroke-width="1" fill-opacity="0.86"/>
<text x="-170.06" y="446.58" text-anchor="middle" font-family="Arial" font-size="10" fill="#101010">S</text>
<rect x="-119.94" y="398.00" width="90.25" height="90.25" rx="2" ry="2" fill="#e9fff4" stroke="#2a8d66" stroke-width="1" fill-opacity="0.86"/>
<text x="-74.81" y="446.58" text-anchor="middle" font-family="Arial" font-size="10" fill="#101010">D</text>
<rect x="-24.69" y="398.00" width="90.25" height="90.25" rx="2" ry="2" fill="#e9fff4" stroke="#2a8d66" stroke-width="1" fill-opacity="0.86"/>
<text x="20.44" y="446.58" text-anchor="middle" font-family="Arial" font-size="10" fill="#101010">F</text>
<rect x="70.56" y="398.00" width="90.25" height="90.25" rx="2" ry="2" fill="#e9fff4" stroke="#2a8d66" stroke-width="1" fill-opacity="0.86"/>
<text x="115.69" y="446.58" text-anchor="middle" font-family="Arial" font-size="10" fill="#101010">G</text>
<rect x="-477.12" y="493.25" width="114.06" height="90.25" rx="2" ry="2" fill="#e9fff4" stroke="#2a8d66" stroke-width="1" fill-opacity="0.86"/>
<text x="-420.09" y="541.84" text-anchor="middle" font-family="Arial" font-size="10" fill="#101010">LShift</text>
<rect x="-358.06" y="493.25" width="90.25" height="90.25" rx="2" ry="2" fill="#e9fff4" stroke="#2a8d66" stroke-width="1" fill-opacity="0.86"/>
<text x="-312.94" y="541.84" text-anchor="middle" font-family="Arial" font-size="10" fill="#101010">LShift</text>
<rect x="-262.81" y="493.25" width="90.25" height="90.25" rx="2" ry="2" fill="#e9fff4" stroke="#2a8d66" stroke-width="1" fill-opacity="0.86"/>
<text x="-217.69" y="541.84" text-anchor="middle" font-family="Arial" font-size="10" fill="#101010">Z</text>
<rect x="-167.56" y="493.25" width="90.25" height="90.25" rx="2" ry="2" fill="#e9fff4" stroke="#2a8d66" stroke-width="1" fill-opacity="0.86"/>
<text x="-122.44" y="541.84" text-anchor="middle" font-family="Arial" font-size="10" fill="#101010">X</text>
<rect x="-72.31" y="493.25" width="90.25" height="90.25" rx="2" ry="2" fill="#e9fff4" stroke="#2a8d66" stroke-width="1" fill-opacity="0.86"/>
<text x="-27.19" y="541.84" text-anchor="middle" font-family="Arial" font-size="10" fill="#101010">C</text>
<rect x="22.94" y="493.25" width="90.25" height="90.25" rx="2" ry="2" fill="#e9fff4" stroke="#2a8d66" stroke-width="1" fill-opacity="0.86"/>
<text x="68.06" y="541.84" text-anchor="middle" font-family="Arial" font-size="10" fill="#101010">V</text>
<rect x="118.19" y="493.25" width="90.25" height="90.25" rx="2" ry="2" fill="#e9fff4" stroke="#2a8d66" stroke-width="1" fill-opacity="0.86"/>
<text x="163.31" y="541.84" text-anchor="middle" font-family="Arial" font-size="10" fill="#101010">B</text>
<rect x="-477.12" y="588.50" width="114.06" height="90.25" rx="2" ry="2" fill="#e9fff4" stroke="#2a8d66" stroke-width="1" fill-opacity="0.86"/>
<text x="-420.09" y="637.09" text-anchor="middle" font-family="Arial" font-size="10" fill="#101010">Ctrl</text>
<rect x="-358.06" y="588.50" width="114.06" height="90.25" rx="2" ry="2" fill="#e9fff4" stroke="#2a8d66" stroke-width="1" fill-opacity="0.86"/>
<text x="-301.03" y="637.09" text-anchor="middle" font-family="Arial" font-size="10" fill="#101010">Win</text>
<rect x="-239.00" y="588.50" width="114.06" height="90.25" rx="2" ry="2" fill="#e9fff4" stroke="#2a8d66" stroke-width="1" fill-opacity="0.86"/>
<text x="-181.97" y="637.09" text-anchor="middle" font-family="Arial" font-size="10" fill="#101010">Alt</text>
<rect x="-119.94" y="588.50" width="114.06" height="90.25" rx="2" ry="2" fill="#e9fff4" stroke="#2a8d66" stroke-width="1" fill-opacity="0.86"/>
<text x="-62.91" y="637.09" text-anchor="middle" font-family="Arial" font-size="10" fill="#101010">Fn</text>
<rect x="-0.88" y="588.50" width="90.25" height="90.25" rx="2" ry="2" fill="#e9fff4" stroke="#2a8d66" stroke-width="1" fill-opacity="0.86"/>
<text x="44.25" y="637.09" text-anchor="middle" font-family="Arial" font-size="10" fill="#101010">Space</text>
<rect x="94.38" y="588.50" width="114.06" height="90.25" rx="2" ry="2" fill="#e9fff4" stroke="#2a8d66" stroke-width="1" fill-opacity="0.86"/>
<text x="151.41" y="637.09" text-anchor="middle" font-family="Arial" font-size="10" fill="#101010">Space</text>
<rect x="-57.91" y="61.05" width="148.70" height="97.90" fill="none" stroke="#252525" stroke-width="1.5" stroke-dasharray="4 3"/>
<text x="16.44" y="57.05" text-anchor="middle" font-family="Arial" font-size="9" fill="#222">U1</text>
<circle cx="-341.98" cy="479.65" r="7" fill="white" stroke="#555" stroke-width="1"/>
<circle cx="-51.08" cy="320.15" r="7" fill="white" stroke="#555" stroke-width="1"/>
<circle cx="12.37" cy="576.60" r="7" fill="white" stroke="#555" stroke-width="1"/>
<circle cx="-128.58" cy="479.65" r="7" fill="white" stroke="#555" stroke-width="1"/>
<circle cx="52.37" cy="317.65" r="7" fill="white" stroke="#555" stroke-width="1"/>
<circle cx="59.87" cy="479.65" r="7" fill="white" stroke="#555" stroke-width="1"/>
<circle cx="-359.48" cy="375.15" r="7" fill="white" stroke="#555" stroke-width="1"/>
<circle cx="-367.02" cy="621.60" r="7" fill="white" stroke="#555" stroke-width="1"/>
<circle cx="-128.58" cy="621.60" r="7" fill="white" stroke="#555" stroke-width="1"/>
<rect x="230.62" y="207.50" width="90.25" height="90.25" rx="2" ry="2" fill="#eef5ff" stroke="#467cc0" stroke-width="1" fill-opacity="0.86"/>
<text x="275.75" y="256.09" text-anchor="middle" font-family="Arial" font-size="10" fill="#101010">7</text>
<rect x="325.87" y="207.50" width="90.25" height="90.25" rx="2" ry="2" fill="#eef5ff" stroke="#467cc0" stroke-width="1" fill-opacity="0.86"/>
<text x="371.00" y="256.09" text-anchor="middle" font-family="Arial" font-size="10" fill="#101010">8</text>
<rect x="421.12" y="207.50" width="90.25" height="90.25" rx="2" ry="2" fill="#eef5ff" stroke="#467cc0" stroke-width="1" fill-opacity="0.86"/>
<text x="466.25" y="256.09" text-anchor="middle" font-family="Arial" font-size="10" fill="#101010">9</text>
<rect x="516.38" y="207.50" width="90.25" height="90.25" rx="2" ry="2" fill="#eef5ff" stroke="#467cc0" stroke-width="1" fill-opacity="0.86"/>
<text x="561.50" y="256.09" text-anchor="middle" font-family="Arial" font-size="10" fill="#101010">0</text>
<rect x="611.62" y="207.50" width="90.25" height="90.25" rx="2" ry="2" fill="#eef5ff" stroke="#467cc0" stroke-width="1" fill-opacity="0.86"/>
<text x="656.75" y="256.09" text-anchor="middle" font-family="Arial" font-size="10" fill="#101010">-</text>
<rect x="706.88" y="207.50" width="90.25" height="90.25" rx="2" ry="2" fill="#eef5ff" stroke="#467cc0" stroke-width="1" fill-opacity="0.86"/>
<text x="752.00" y="256.09" text-anchor="middle" font-family="Arial" font-size="10" fill="#101010">=</text>
<rect x="802.12" y="207.50" width="90.25" height="90.25" rx="2" ry="2" fill="#eef5ff" stroke="#467cc0" stroke-width="1" fill-opacity="0.86"/>
<text x="847.25" y="256.09" text-anchor="middle" font-family="Arial" font-size="10" fill="#101010">BSPC</text>
<rect x="897.38" y="207.50" width="114.06" height="90.25" rx="2" ry="2" fill="#eef5ff" stroke="#467cc0" stroke-width="1" fill-opacity="0.86"/>
<text x="954.41" y="256.09" text-anchor="middle" font-family="Arial" font-size="10" fill="#101010">BSPC</text>
<rect x="1016.44" y="207.50" width="90.25" height="90.25" rx="2" ry="2" fill="#eef5ff" stroke="#467cc0" stroke-width="1" fill-opacity="0.86"/>
<text x="1061.56" y="256.09" text-anchor="middle" font-family="Arial" font-size="10" fill="#101010">Del</text>
<rect x="183.00" y="302.75" width="90.25" height="90.25" rx="2" ry="2" fill="#eef5ff" stroke="#467cc0" stroke-width="1" fill-opacity="0.86"/>
<text x="228.12" y="351.33" text-anchor="middle" font-family="Arial" font-size="10" fill="#101010">Y</text>
<rect x="278.25" y="302.75" width="90.25" height="90.25" rx="2" ry="2" fill="#eef5ff" stroke="#467cc0" stroke-width="1" fill-opacity="0.86"/>
<text x="323.38" y="351.33" text-anchor="middle" font-family="Arial" font-size="10" fill="#101010">U</text>
<rect x="373.50" y="302.75" width="90.25" height="90.25" rx="2" ry="2" fill="#eef5ff" stroke="#467cc0" stroke-width="1" fill-opacity="0.86"/>
<text x="418.62" y="351.33" text-anchor="middle" font-family="Arial" font-size="10" fill="#101010">I</text>
<rect x="468.75" y="302.75" width="90.25" height="90.25" rx="2" ry="2" fill="#eef5ff" stroke="#467cc0" stroke-width="1" fill-opacity="0.86"/>
<text x="513.88" y="351.33" text-anchor="middle" font-family="Arial" font-size="10" fill="#101010">O</text>
<rect x="564.00" y="302.75" width="90.25" height="90.25" rx="2" ry="2" fill="#eef5ff" stroke="#467cc0" stroke-width="1" fill-opacity="0.86"/>
<text x="609.12" y="351.33" text-anchor="middle" font-family="Arial" font-size="10" fill="#101010">P</text>
<rect x="659.25" y="302.75" width="90.25" height="90.25" rx="2" ry="2" fill="#eef5ff" stroke="#467cc0" stroke-width="1" fill-opacity="0.86"/>
<text x="704.38" y="351.33" text-anchor="middle" font-family="Arial" font-size="10" fill="#101010">[</text>
<rect x="754.50" y="302.75" width="90.25" height="90.25" rx="2" ry="2" fill="#eef5ff" stroke="#467cc0" stroke-width="1" fill-opacity="0.86"/>
<text x="799.62" y="351.33" text-anchor="middle" font-family="Arial" font-size="10" fill="#101010">]</text>
<rect x="849.75" y="302.75" width="161.69" height="90.25" rx="2" ry="2" fill="#eef5ff" stroke="#467cc0" stroke-width="1" fill-opacity="0.86"/>
<text x="930.59" y="351.33" text-anchor="middle" font-family="Arial" font-size="10" fill="#101010">\</text>
<rect x="1016.44" y="302.75" width="90.25" height="90.25" rx="2" ry="2" fill="#eef5ff" stroke="#467cc0" stroke-width="1" fill-opacity="0.86"/>
<text x="1061.56" y="351.33" text-anchor="middle" font-family="Arial" font-size="10" fill="#101010">Home</text>
<rect x="206.81" y="398.00" width="90.25" height="90.25" rx="2" ry="2" fill="#eef5ff" stroke="#467cc0" stroke-width="1" fill-opacity="0.86"/>
<text x="251.94" y="446.58" text-anchor="middle" font-family="Arial" font-size="10" fill="#101010">H</text>
<rect x="302.06" y="398.00" width="90.25" height="90.25" rx="2" ry="2" fill="#eef5ff" stroke="#467cc0" stroke-width="1" fill-opacity="0.86"/>
<text x="347.19" y="446.58" text-anchor="middle" font-family="Arial" font-size="10" fill="#101010">J</text>
<rect x="397.31" y="398.00" width="90.25" height="90.25" rx="2" ry="2" fill="#eef5ff" stroke="#467cc0" stroke-width="1" fill-opacity="0.86"/>
<text x="442.44" y="446.58" text-anchor="middle" font-family="Arial" font-size="10" fill="#101010">K</text>
<rect x="492.56" y="398.00" width="90.25" height="90.25" rx="2" ry="2" fill="#eef5ff" stroke="#467cc0" stroke-width="1" fill-opacity="0.86"/>
<text x="537.69" y="446.58" text-anchor="middle" font-family="Arial" font-size="10" fill="#101010">L</text>
<rect x="587.81" y="398.00" width="90.25" height="90.25" rx="2" ry="2" fill="#eef5ff" stroke="#467cc0" stroke-width="1" fill-opacity="0.86"/>
<text x="632.94" y="446.58" text-anchor="middle" font-family="Arial" font-size="10" fill="#101010">;</text>
<rect x="683.06" y="398.00" width="90.25" height="90.25" rx="2" ry="2" fill="#eef5ff" stroke="#467cc0" stroke-width="1" fill-opacity="0.86"/>
<text x="728.19" y="446.58" text-anchor="middle" font-family="Arial" font-size="10" fill="#101010">&#x27;</text>
<rect x="778.31" y="398.00" width="90.25" height="90.25" rx="2" ry="2" fill="#eef5ff" stroke="#467cc0" stroke-width="1" fill-opacity="0.86"/>
<text x="823.44" y="446.58" text-anchor="middle" font-family="Arial" font-size="10" fill="#101010">Enter</text>
<rect x="873.56" y="398.00" width="137.88" height="90.25" rx="2" ry="2" fill="#eef5ff" stroke="#467cc0" stroke-width="1" fill-opacity="0.86"/>
<text x="942.50" y="446.58" text-anchor="middle" font-family="Arial" font-size="10" fill="#101010">Enter</text>
<rect x="1016.44" y="398.00" width="90.25" height="90.25" rx="2" ry="2" fill="#eef5ff" stroke="#467cc0" stroke-width="1" fill-opacity="0.86"/>
<text x="1061.56" y="446.58" text-anchor="middle" font-family="Arial" font-size="10" fill="#101010">PgUp</text>
<rect x="254.44" y="493.25" width="90.25" height="90.25" rx="2" ry="2" fill="#eef5ff" stroke="#467cc0" stroke-width="1" fill-opacity="0.86"/>
<text x="299.56" y="541.84" text-anchor="middle" font-family="Arial" font-size="10" fill="#101010">N</text>
<rect x="349.69" y="493.25" width="90.25" height="90.25" rx="2" ry="2" fill="#eef5ff" stroke="#467cc0" stroke-width="1" fill-opacity="0.86"/>
<text x="394.81" y="541.84" text-anchor="middle" font-family="Arial" font-size="10" fill="#101010">M</text>
<rect x="444.94" y="493.25" width="90.25" height="90.25" rx="2" ry="2" fill="#eef5ff" stroke="#467cc0" stroke-width="1" fill-opacity="0.86"/>
<text x="490.06" y="541.84" text-anchor="middle" font-family="Arial" font-size="10" fill="#101010">,</text>
<rect x="540.19" y="493.25" width="90.25" height="90.25" rx="2" ry="2" fill="#eef5ff" stroke="#467cc0" stroke-width="1" fill-opacity="0.86"/>
<text x="585.31" y="541.84" text-anchor="middle" font-family="Arial" font-size="10" fill="#101010">.</text>
<rect x="635.44" y="493.25" width="90.25" height="90.25" rx="2" ry="2" fill="#eef5ff" stroke="#467cc0" stroke-width="1" fill-opacity="0.86"/>
<text x="680.56" y="541.84" text-anchor="middle" font-family="Arial" font-size="10" fill="#101010">/</text>
<rect x="730.69" y="493.25" width="90.25" height="90.25" rx="2" ry="2" fill="#eef5ff" stroke="#467cc0" stroke-width="1" fill-opacity="0.86"/>
<text x="775.81" y="541.84" text-anchor="middle" font-family="Arial" font-size="10" fill="#101010">RShift</text>
<rect x="825.94" y="493.25" width="90.25" height="90.25" rx="2" ry="2" fill="#eef5ff" stroke="#467cc0" stroke-width="1" fill-opacity="0.86"/>
<text x="871.06" y="541.84" text-anchor="middle" font-family="Arial" font-size="10" fill="#101010">Fn</text>
<rect x="921.19" y="493.25" width="90.25" height="90.25" rx="2" ry="2" fill="#eef5ff" stroke="#467cc0" stroke-width="1" fill-opacity="0.86"/>
<text x="966.31" y="541.84" text-anchor="middle" font-family="Arial" font-size="10" fill="#101010">Up</text>
<rect x="1016.44" y="493.25" width="90.25" height="90.25" rx="2" ry="2" fill="#eef5ff" stroke="#467cc0" stroke-width="1" fill-opacity="0.86"/>
<text x="1061.56" y="541.84" text-anchor="middle" font-family="Arial" font-size="10" fill="#101010">PgDn</text>
<rect x="254.44" y="588.50" width="90.25" height="90.25" rx="2" ry="2" fill="#eef5ff" stroke="#467cc0" stroke-width="1" fill-opacity="0.86"/>
<text x="299.56" y="637.09" text-anchor="middle" font-family="Arial" font-size="10" fill="#101010">B</text>
<rect x="349.69" y="588.50" width="90.25" height="90.25" rx="2" ry="2" fill="#eef5ff" stroke="#467cc0" stroke-width="1" fill-opacity="0.86"/>
<text x="394.81" y="637.09" text-anchor="middle" font-family="Arial" font-size="10" fill="#101010">Space</text>
<rect x="444.94" y="588.50" width="90.25" height="90.25" rx="2" ry="2" fill="#eef5ff" stroke="#467cc0" stroke-width="1" fill-opacity="0.86"/>
<text x="490.06" y="637.09" text-anchor="middle" font-family="Arial" font-size="10" fill="#101010">Space</text>
<rect x="540.19" y="588.50" width="90.25" height="90.25" rx="2" ry="2" fill="#eef5ff" stroke="#467cc0" stroke-width="1" fill-opacity="0.86"/>
<text x="585.31" y="637.09" text-anchor="middle" font-family="Arial" font-size="10" fill="#101010">RAlt</text>
<rect x="635.44" y="588.50" width="90.25" height="90.25" rx="2" ry="2" fill="#eef5ff" stroke="#467cc0" stroke-width="1" fill-opacity="0.86"/>
<text x="680.56" y="637.09" text-anchor="middle" font-family="Arial" font-size="10" fill="#101010">Fn</text>
<rect x="730.69" y="588.50" width="90.25" height="90.25" rx="2" ry="2" fill="#eef5ff" stroke="#467cc0" stroke-width="1" fill-opacity="0.86"/>
<text x="775.81" y="637.09" text-anchor="middle" font-family="Arial" font-size="10" fill="#101010">RCtrl</text>
<rect x="825.94" y="588.50" width="90.25" height="90.25" rx="2" ry="2" fill="#eef5ff" stroke="#467cc0" stroke-width="1" fill-opacity="0.86"/>
<text x="871.06" y="637.09" text-anchor="middle" font-family="Arial" font-size="10" fill="#101010">Left</text>
<rect x="921.19" y="588.50" width="90.25" height="90.25" rx="2" ry="2" fill="#eef5ff" stroke="#467cc0" stroke-width="1" fill-opacity="0.86"/>
<text x="966.31" y="637.09" text-anchor="middle" font-family="Arial" font-size="10" fill="#101010">Down</text>
<rect x="1016.44" y="588.50" width="90.25" height="90.25" rx="2" ry="2" fill="#eef5ff" stroke="#467cc0" stroke-width="1" fill-opacity="0.86"/>
<text x="1061.56" y="637.09" text-anchor="middle" font-family="Arial" font-size="10" fill="#101010">Right</text>
<rect x="325.65" y="61.05" width="148.70" height="97.90" fill="none" stroke="#252525" stroke-width="1.5" stroke-dasharray="4 3"/>
<text x="400.00" y="57.05" text-anchor="middle" font-family="Arial" font-size="9" fill="#222">U1</text>
<circle cx="259.40" cy="500.85" r="7" fill="white" stroke="#555" stroke-width="1"/>
<circle cx="988.75" cy="474.65" r="7" fill="white" stroke="#555" stroke-width="1"/>
<circle cx="503.10" cy="287.65" r="7" fill="white" stroke="#555" stroke-width="1"/>
<circle cx="991.25" cy="342.65" r="7" fill="white" stroke="#555" stroke-width="1"/>
<circle cx="1016.25" cy="516.60" r="7" fill="white" stroke="#555" stroke-width="1"/>
<circle cx="718.45" cy="574.10" r="7" fill="white" stroke="#555" stroke-width="1"/>
<circle cx="695.95" cy="285.15" r="7" fill="white" stroke="#555" stroke-width="1"/>
<circle cx="261.90" cy="587.85" r="7" fill="white" stroke="#555" stroke-width="1"/>
<circle cx="645.95" cy="494.65" r="7" fill="white" stroke="#555" stroke-width="1"/>
<g id="key-horizontal-clearance" data-key-horizontal-clearance-mm="1.8000" data-left-key="6" data-right-key="Y">
<line x1="167.50" y1="300.25" x2="176.50" y2="300.25" stroke="#1c5fb8" stroke-width="2.4"/>
<line x1="167.50" y1="300.25" x2="173.50" y2="296.25" stroke="#1c5fb8" stroke-width="2.4"/>
<line x1="167.50" y1="300.25" x2="173.50" y2="304.25" stroke="#1c5fb8" stroke-width="2.4"/>
<line x1="176.50" y1="300.25" x2="170.50" y2="296.25" stroke="#1c5fb8" stroke-width="2.4"/>
<line x1="176.50" y1="300.25" x2="170.50" y2="304.25" stroke="#1c5fb8" stroke-width="2.4"/>
<text x="172.00" y="292.25" text-anchor="middle" font-family="Arial" font-size="10" fill="#123e7d">6-Y X 1.8 mm</text>
</g>
</svg>
