<svg xmlns="http://www.w3.org/2000/svg" width="1709" height="741" viewBox="0 0 1709 741">
<rect width="100%" height="100%" fill="#f7f5ee"/>
<g id="interlock-clearance" data-placement-mode="interlock-clearance" data-clearance-mm="1.0000" data-clearance-width-px="5.00" data-measurement-width-px="5.00" data-key-horizontal-clearance-mm="1.8000" data-interlock-overlap-mm="13.2875">
<polygon points="645.19,40.62 647.74,41.88 648.99,43.12 649.79,44.38 650.33,45.62 650.72,46.88 650.85,48.12 650.99,49.38 651.06,50.62 651.06,51.88 651.06,53.12 651.06,54.38 651.06,55.62 651.06,56.88 651.06,58.12 651.06,59.38 651.06,60.62 651.06,61.88 651.06,63.12 651.06,64.38 651.06,65.62 651.06,66.88 651.06,68.12 651.06,69.38 651.06,70.62 651.06,71.88 651.06,73.12 651.06,74.38 651.06,75.62 651.06,76.88 651.06,78.12 651.06,79.38 651.06,80.62 651.06,81.88 651.06,83.12 651.06,84.38 651.06,85.62 651.06,86.88 651.06,88.12 651.06,89.38 651.06,90.62 651.06,91.88 651.06,93.12 651.06,94.38 651.06,95.62 651.06,96.88 651.06,98.12 651.06,99.38 651.06,100.62 651.06,101.88 651.06,103.12 651.06,104.38 651.06,105.62 651.06,106.88 651.06,108.12 651.06,109.38 651.06,110.62 651.06,111.88 651.06,113.12 651.06,114.38 651.06,115.62 651.06,116.88 651.06,118.12 651.06,119.38 651.06,120.62 651.06,121.88 651.06,123.12 651.06,124.38 651.06,125.62 651.06,126.88 651.06,128.12 651.06,129.38 651.06,130.62 651.06,131.88 651.06,133.12 651.06,134.38 651.06,135.62 651.06,136.88 651.06,138.12 651.06,139.38 651.06,140.62 651.06,141.88 651.06,143.12 651.06,144.38 651.06,145.62 651.06,146.88 651.06,148.12 651.06,149.38 651.06,150.62 651.06,151.88 651.06,153.12 651.06,154.38 651.06,155.62 651.06,156.88 651.06,158.12 651.06,159.38 651.06,160.62 651.06,161.88 651.06,163.12 651.06,164.38 651.13,165.62 651.27,166.88 651.41,168.12 651.79,169.38 652.33,170.62 656.94,171.88 738.87,173.12 741.42,174.38 742.67,175.62 743.48,176.88 744.02,178.12 744.40,179.38 744.54,180.62 744.68,181.88 744.75,183.12 744.75,184.38 744.75,185.62 744.75,186.88 744.75,188.12 744.75,189.38 744.75,190.62 744.75,191.88 744.75,193.12 744.75,194.38 744.75,195.62 744.75,196.88 744.75,198.12 744.75,199.38 744.75,200.62 744.75,201.88 744.75,203.12 744.75,204.38 744.75,205.62 744.75,206.88 744.75,208.12 744.75,209.38 744.75,210.62 744.75,211.88 744.75,213.12 744.75,214.38 744.75,215.62 744.75,216.88 744.75,218.12 744.75,219.38 744.75,220.62 744.75,221.88 744.75,223.12 744.75,224.38 744.75,225.62 744.75,226.88 744.75,228.12 744.75,229.38 744.75,230.62 744.75,231.88 744.75,233.12 744.75,234.38 744.75,235.62 744.75,236.88 744.75,238.12 744.75,239.38 744.75,240.62 744.75,241.88 744.75,243.12 744.75,244.38 744.75,245.62 744.75,246.88 744.75,248.12 744.75,249.38 744.75,250.62 744.75,251.88 744.75,253.12 744.75,254.38 744.75,255.62 744.75,256.88 744.75,258.12 744.75,259.38 744.75,260.62 744.75,261.88 744.75,263.12 744.75,264.38 744.75,265.62 744.75,266.88 744.75,268.12 744.75,269.38 744.75,270.62 744.75,271.88 744.75,273.12 744.75,274.38 744.75,275.62 744.75,276.88 744.75,278.12 744.75,279.38 744.75,280.62 744.75,281.88 744.75,283.12 744.75,284.38 744.75,285.62 744.75,286.88 744.75,288.12 744.75,289.38 744.71,290.62 744.57,291.88 744.43,293.12 744.12,294.38 743.59,295.62 742.92,296.88 741.67,298.12 739.46,299.38 703.75,300.62 700.70,301.88 699.45,303.12 698.50,304.38 697.96,305.62 697.50,306.88 697.36,308.12 697.22,309.38 697.12,310.62 697.12,311.88 697.12,313.12 697.12,314.38 697.12,315.62 697.12,316.88 697.12,318.12 697.12,319.38 697.12,320.62 697.12,321.88 697.12,323.12 697.12,324.38 697.12,325.62 697.12,326.88 697.12,328.12 697.12,329.38 697.12,330.62 697.12,331.88 697.12,333.12 697.12,334.38 697.12,335.62 697.12,336.88 697.12,338.12 697.12,339.38 697.12,340.62 697.12,341.88 697.12,343.12 697.12,344.38 697.12,345.62 697.12,346.88 697.12,348.12 697.12,349.38 697.12,350.62 697.12,351.88 697.12,353.12 697.12,354.38 697.12,355.62 697.12,356.88 697.12,358.12 697.12,359.38 697.12,360.62 697.12,361.88 697.12,363.12 697.12,364.38 697.12,365.62 697.12,366.88 697.12,368.12 697.12,369.38 697.12,370.62 697.12,371.88 697.12,373.12 697.12,374.38 697.12,375.62 697.12,376.88 697.12,378.12 697.12,379.38 697.12,380.62 697.12,381.88 697.12,383.12 697.12,384.38 697.14,385.62 697.28,386.88 697.42,388.12 697.64,389.38 698.18,390.62 698.71,391.88 699.95,393.12 701.83,394.38 712.06,395.62 716.81,396.88 718.36,398.12 719.46,399.38 719.99,400.62 720.53,401.88 720.67,403.12 720.81,404.38 720.94,405.62 720.94,406.88 720.94,408.12 720.94,409.38 720.94,410.62 720.94,411.88 720.94,413.12 720.94,414.38 720.94,415.62 720.94,416.88 720.94,418.12 720.94,419.38 720.94,420.62 720.94,421.88 720.94,423.12 720.94,424.38 720.94,425.62 720.94,426.88 720.94,428.12 720.94,429.38 720.94,430.62 720.94,431.88 720.94,433.12 720.94,434.38 720.94,435.62 720.94,436.88 720.94,438.12 720.94,439.38 720.94,440.62 720.94,441.88 720.94,443.12 720.94,444.38 720.94,445.62 720.94,446.88 720.94,448.12 720.94,449.38 720.94,450.62 720.94,451.88 720.94,453.12 720.94,454.38 720.94,455.62 720.94,456.88 720.94,458.12 720.94,459.38 720.94,460.62 720.94,461.88 720.94,463.12 720.94,464.38 720.94,465.62 720.94,466.88 720.94,468.12 720.94,469.38 720.94,470.62 720.94,471.88 720.94,473.12 720.94,474.38 720.94,475.62 720.94,476.88 720.94,478.12 720.94,479.38 720.94,480.62 721.06,481.88 721.20,483.12 721.35,484.38 721.88,485.62 722.42,486.88 723.51,488.12 725.06,489.38 729.81,490.62 763.85,491.88 765.74,493.12 766.97,494.38 767.51,495.62 768.04,496.88 768.27,498.12 768.41,499.38 768.55,500.62 768.56,501.88 768.56,503.12 768.56,504.38 768.56,505.62 768.56,506.88 768.56,508.12 768.56,509.38 768.56,510.62 768.56,511.88 768.56,513.12 768.56,514.38 768.56,515.62 768.56,516.88 768.56,518.12 768.56,519.38 768.56,520.62 768.56,521.88 768.56,523.12 768.56,524.38 768.56,525.62 768.56,526.88 768.56,528.12 768.56,529.38 768.56,530.62 768.56,531.88 768.56,533.12 768.56,534.38 768.56,535.62 768.56,536.88 768.56,538.12 768.56,539.38 768.56,540.62 768.56,541.88 768.56,543.12 768.56,544.38 768.56,545.62 768.56,546.88 768.56,548.12 768.56,549.38 768.56,550.62 768.56,551.88 768.56,553.12 768.56,554.38 768.56,555.62 768.56,556.88 768.56,558.12 768.56,559.38 768.56,560.62 768.56,561.88 768.56,563.12 768.56,564.38 768.56,565.62 768.56,566.88 768.56,568.12 768.56,569.38 768.56,570.62 768.56,571.88 768.56,573.12 768.56,574.38 768.56,575.62 768.56,576.88 768.56,578.12 768.56,579.38 768.56,580.62 768.56,581.88 768.56,583.12 768.56,584.38 768.56,585.62 768.56,586.88 768.56,588.12 768.56,589.38 768.56,590.62 768.56,591.88 768.56,593.12 768.56,594.38 768.56,595.62 768.56,596.88 768.56,598.12 768.56,599.38 768.56,600.62 768.56,601.88 768.56,603.12 768.56,604.38 768.56,605.62 768.56,606.88 768.56,608.12 768.56,609.38 768.56,610.62 768.56,611.88 768.56,613.12 768.56,614.38 768.56,615.62 768.56,616.88 768.56,618.12 768.56,619.38 768.56,620.62 768.56,621.88 768.56,623.12 768.56,624.38 768.56,625.62 768.56,626.88 768.56,628.12 768.56,629.38 768.56,630.62 768.56,631.88 768.56,633.12 768.56,634.38 768.56,635.62 768.56,636.88 768.56,638.12 768.56,639.38 768.56,640.62 768.56,641.88 768.56,643.12 768.56,644.38 768.56,645.62 768.56,646.88 768.56,648.12 768.56,649.38 768.56,650.62 768.56,651.88 768.56,653.12 768.56,654.38 768.56,655.62 768.56,656.88 768.56,658.12 768.56,659.38 768.56,660.62 768.56,661.88 768.56,663.12 768.56,664.38 768.56,665.62 768.56,666.88 768.56,668.12 768.56,669.38 768.56,670.62 768.56,671.88 768.56,673.12 768.56,674.38 768.56,675.62 768.56,676.88 768.56,678.12 768.56,679.38 768.56,680.62 768.56,681.88 768.56,683.12 768.56,684.38 768.56,685.62 768.56,686.88 768.56,688.12 768.56,689.38 768.56,690.62 768.56,691.88 768.47,693.12 768.33,694.38 768.14,695.62 767.61,696.88 767.01,698.12 765.76,699.38 763.42,700.62 779.44,700.62 776.89,699.38 775.64,698.12 774.83,696.88 774.29,695.62 773.91,694.38 773.77,693.12 773.63,691.88 773.56,690.62 773.56,689.38 773.56,688.12 773.56,686.88 773.56,685.62 773.56,684.38 773.56,683.12 773.56,681.88 773.56,680.62 773.56,679.38 773.56,678.12 773.56,676.88 773.56,675.62 773.56,674.38 773.56,673.12 773.56,671.88 773.56,670.62 773.56,669.38 773.56,668.12 773.56,666.88 773.56,665.62 773.56,664.38 773.56,663.12 773.56,661.88 773.56,660.62 773.56,659.38 773.56,658.12 773.56,656.88 773.56,655.62 773.56,654.38 773.56,653.12 773.56,651.88 773.56,650.62 773.56,649.38 773.56,648.12 773.56,646.88 773.56,645.62 773.56,644.38 773.56,643.12 773.56,641.88 773.56,640.62 773.56,639.38 773.56,638.12 773.56,636.88 773.56,635.62 773.56,634.38 773.56,633.12 773.56,631.88 773.56,630.62 773.56,629.38 773.56,628.12 773.56,626.88 773.56,625.62 773.56,624.38 773.56,623.12 773.56,621.88 773.56,620.62 773.56,619.38 773.56,618.12 773.56,616.88 773.56,615.62 773.56,614.38 773.56,613.12 773.56,611.88 773.56,610.62 773.56,609.38 773.56,608.12 773.56,606.88 773.56,605.62 773.56,604.38 773.56,603.12 773.56,601.88 773.56,600.62 773.56,599.38 773.56,598.12 773.56,596.88 773.56,595.62 773.56,594.38 773.56,593.12 773.56,591.88 773.56,590.62 773.56,589.38 773.56,588.12 773.56,586.88 773.56,585.62 773.56,584.38 773.56,583.12 773.56,581.88 773.56,580.62 773.56,579.38 773.56,578.12 773.56,576.88 773.56,575.62 773.56,574.38 773.56,573.12 773.56,571.88 773.56,570.62 773.56,569.38 773.56,568.12 773.56,566.88 773.56,565.62 773.56,564.38 773.56,563.12 773.56,561.88 773.56,560.62 773.56,559.38 773.56,558.12 773.56,556.88 773.56,555.62 773.56,554.38 773.56,553.12 773.56,551.88 773.56,550.62 773.56,549.38 773.56,548.12 773.56,546.88 773.56,545.62 773.56,544.38 773.56,543.12 773.56,541.88 773.56,540.62 773.56,539.38 773.56,538.12 773.56,536.88 773.56,535.62 773.56,534.38 773.56,533.12 773.56,531.88 773.56,530.62 773.56,529.38 773.56,528.12 773.56,526.88 773.56,525.62 773.56,524.38 773.56,523.12 773.56,521.88 773.56,520.62 773.56,519.38 773.56,518.12 773.56,516.88 773.56,515.62 773.56,514.38 773.56,513.12 773.56,511.88 773.56,510.62 773.56,509.38 773.56,508.12 773.56,506.88 773.56,505.62 773.56,504.38 773.56,503.12 773.56,501.88 773.55,500.62 773.41,499.38 773.27,498.12 773.04,496.88 772.51,495.62 771.97,494.38 770.74,493.12 768.85,491.88 737.56,490.62 730.06,489.38 728.51,488.12 727.42,486.88 726.88,485.62 726.35,484.38 726.20,483.12 726.06,481.88 725.94,480.62 725.94,479.38 725.94,478.12 725.94,476.88 725.94,475.62 725.94,474.38 725.94,473.12 725.94,471.88 725.94,470.62 725.94,469.38 725.94,468.12 725.94,466.88 725.94,465.62 725.94,464.38 725.94,463.12 725.94,461.88 725.94,460.62 725.94,459.38 725.94,458.12 725.94,456.88 725.94,455.62 725.94,454.38 725.94,453.12 725.94,451.88 725.94,450.62 725.94,449.38 725.94,448.12 725.94,446.88 725.94,445.62 725.94,444.38 725.94,443.12 725.94,441.88 725.94,440.62 725.94,439.38 725.94,438.12 725.94,436.88 725.94,435.62 725.94,434.38 725.94,433.12 725.94,431.88 725.94,430.62 725.94,429.38 725.94,428.12 725.94,426.88 725.94,425.62 725.94,424.38 725.94,423.12 725.94,421.88 725.94,420.62 725.94,419.38 725.94,418.12 725.94,416.88 725.94,415.62 725.94,414.38 725.94,413.12 725.94,411.88 725.94,410.62 725.94,409.38 725.94,408.12 725.94,406.88 725.94,405.62 725.81,404.38 725.67,403.12 725.53,401.88 724.99,400.62 724.46,399.38 723.36,398.12 721.81,396.88 717.06,395.62 706.83,394.38 704.95,393.12 703.71,391.88 703.18,390.62 702.64,389.38 702.42,388.12 702.28,386.88 702.14,385.62 702.12,384.38 702.12,383.12 702.12,381.88 702.12,380.62 702.12,379.38 702.12,378.12 702.12,376.88 702.12,375.62 702.12,374.38 702.12,373.12 702.12,371.88 702.12,370.62 702.12,369.38 702.12,368.12 702.12,366.88 702.12,365.62 702.12,364.38 702.12,363.12 702.12,361.88 702.12,360.62 702.12,359.38 702.12,358.12 702.12,356.88 702.12,355.62 702.12,354.38 702.12,353.12 702.12,351.88 702.12,350.62 702.12,349.38 702.12,348.12 702.12,346.88 702.12,345.62 702.12,344.38 702.12,343.12 702.12,341.88 702.12,340.62 702.12,339.38 702.12,338.12 702.12,336.88 702.12,335.62 702.12,334.38 702.12,333.12 702.12,331.88 702.12,330.62 702.12,329.38 702.12,328.12 702.12,326.88 702.12,325.62 702.12,324.38 702.12,323.12 702.12,321.88 702.12,320.62 702.12,319.38 702.12,318.12 702.12,316.88 702.12,315.62 702.12,314.38 702.12,313.12 702.12,311.88 702.12,310.62 702.22,309.38 702.36,308.12 702.50,306.88 702.96,305.62 703.50,304.38 704.45,303.12 705.70,301.88 709.00,300.62 744.46,299.38 746.68,298.12 747.93,296.88 748.59,295.62 749.13,294.38 749.43,293.12 749.57,291.88 749.71,290.62 749.75,289.38 749.75,288.12 749.75,286.88 749.75,285.62 749.75,284.38 749.75,283.12 749.75,281.88 749.75,280.62 749.75,279.38 749.75,278.12 749.75,276.88 749.75,275.62 749.75,274.38 749.75,273.12 749.75,271.88 749.75,270.62 749.75,269.38 749.75,268.12 749.75,266.88 749.75,265.62 749.75,264.38 749.75,263.12 749.75,261.88 749.75,260.62 749.75,259.38 749.75,258.12 749.75,256.88 749.75,255.62 749.75,254.38 749.75,253.12 749.75,251.88 749.75,250.62 749.75,249.38 749.75,248.12 749.75,246.88 749.75,245.62 749.75,244.38 749.75,243.12 749.75,241.88 749.75,240.62 749.75,239.38 749.75,238.12 749.75,236.88 749.75,235.62 749.75,234.38 749.75,233.12 749.75,231.88 749.75,230.62 749.75,229.38 749.75,228.12 749.75,226.88 749.75,225.62 749.75,224.38 749.75,223.12 749.75,221.88 749.75,220.62 749.75,219.38 749.75,218.12 749.75,216.88 749.75,215.62 749.75,214.38 749.75,213.12 749.75,211.88 749.75,210.62 749.75,209.38 749.75,208.12 749.75,206.88 749.75,205.62 749.75,204.38 749.75,203.12 749.75,201.88 749.75,200.62 749.75,199.38 749.75,198.12 749.75,196.88 749.75,195.62 749.75,194.38 749.75,193.12 749.75,191.88 749.75,190.62 749.75,189.38 749.75,188.12 749.75,186.88 749.75,185.62 749.75,184.38 749.75,183.12 749.75,181.88 749.75,180.62 749.76,179.38 749.90,178.12 750.04,176.88 750.27,175.62 750.80,174.38 751.34,173.12 752.58,171.88 754.46,170.62 835.75,169.38 840.50,168.12 843.89,166.88 844.28,165.62 844.42,164.38 844.56,163.12 844.62,161.88 844.62,160.62 844.62,159.38 844.62,158.12 844.62,156.88 844.62,155.62 844.62,154.38 844.62,153.12 844.62,151.88 844.62,150.62 844.62,149.38 844.62,148.12 844.62,146.88 844.62,145.62 844.62,144.38 844.62,143.12 844.62,141.88 844.62,140.62 844.62,139.38 844.62,138.12 844.62,136.88 844.62,135.62 844.62,134.38 844.62,133.12 844.62,131.88 844.62,130.62 844.62,129.38 844.62,128.12 844.62,126.88 844.62,125.62 844.62,124.38 844.62,123.12 844.62,121.88 844.62,120.62 844.62,119.38 844.62,118.12 844.62,116.88 844.62,115.62 844.62,114.38 844.62,113.12 844.62,111.88 844.62,110.62 844.62,109.38 844.62,108.12 844.62,106.88 844.62,105.62 844.62,104.38 844.62,103.12 844.62,101.88 844.62,100.62 844.62,99.38 844.62,98.12 844.62,96.88 844.62,95.62 844.62,94.38 844.62,93.12 844.62,91.88 844.62,90.62 844.62,89.38 844.62,88.12 844.62,86.88 844.62,85.62 844.62,84.38 844.62,83.12 844.62,81.88 844.62,80.62 844.62,79.38 844.62,78.12 844.62,76.88 844.62,75.62 844.62,74.38 844.62,73.12 844.62,71.88 844.62,70.62 844.62,69.38 844.62,68.12 844.62,66.88 844.62,65.62 844.62,64.38 844.62,63.12 844.62,61.88 844.62,60.62 844.62,59.38 844.62,58.12 844.62,56.88 844.62,55.62 844.62,54.38 844.62,53.12 844.62,51.88 844.62,50.62 844.69,49.38 844.83,48.12 844.97,46.88 845.36,45.62 845.89,44.38 846.70,43.12 847.95,41.88 850.50,40.62" fill="#f6b8a9" fill-opacity="0.55" stroke="none"/>
</g>
<rect x="8" y="8" width="760" height="48" fill="#f7f5ee" fill-opacity="0.94" stroke="none"/>
<text x="16" y="24" font-family="Arial" font-size="15" fill="#222">KC2 X3 interlocked joined top view, board-coordinate composite</text>
<text x="16" y="44" font-family="Arial" font-size="11" fill="#555">Scale: 5 px/mm. Min Edge.Cuts clearance: 1.00 mm. Interlock overlap: 13.29 mm.</text>
<line x1="697.12" y1="347.88" x2="702.12" y2="347.88" stroke="#d33b2f" stroke-width="2"/>
<line x1="697.12" y1="341.88" x2="697.12" y2="353.88" stroke="#d33b2f" stroke-width="2"/>
<line x1="702.12" y1="341.88" x2="702.12" y2="353.88" stroke="#d33b2f" stroke-width="2"/>
<text x="699.62" y="339.88" text-anchor="middle" font-family="Arial" font-size="10" fill="#8b2318">1.0 mm</text>
<line x1="40.00" y1="182.50" x2="40.40" y2="178.90" stroke="#102018" stroke-width="2" fill="none"/>
<line x1="40.00" y1="195.00" x2="40.00" y2="182.50" stroke="#102018" stroke-width="2" fill="none"/>
<line x1="40.00" y1="199.00" x2="40.00" y2="195.00" stroke="#102018" stroke-width="2" fill="none"/>
<line x1="40.00" y1="203.00" x2="40.00" y2="199.00" stroke="#102018" stroke-width="2" fill="none"/>
<line x1="40.00" y1="207.00" x2="40.00" y2="203.00" stroke="#102018" stroke-width="2" fill="none"/>
<line x1="40.00" y1="211.00" x2="40.00" y2="207.00" stroke="#102018" stroke-width="2" fill="none"/>
<line x1="40.00" y1="215.00" x2="40.00" y2="211.00" stroke="#102018" stroke-width="2" fill="none"/>
<line x1="40.00" y1="290.25" x2="40.00" y2="215.00" stroke="#102018" stroke-width="2" fill="none"/>
<line x1="40.00" y1="294.25" x2="40.00" y2="290.25" stroke="#102018" stroke-width="2" fill="none"/>
<line x1="40.00" y1="298.25" x2="40.00" y2="294.25" stroke="#102018" stroke-width="2" fill="none"/>
<line x1="40.00" y1="302.25" x2="40.00" y2="298.25" stroke="#102018" stroke-width="2" fill="none"/>
<line x1="40.00" y1="306.25" x2="40.00" y2="302.25" stroke="#102018" stroke-width="2" fill="none"/>
<line x1="40.00" y1="310.25" x2="40.00" y2="306.25" stroke="#102018" stroke-width="2" fill="none"/>
<line x1="40.00" y1="385.50" x2="40.00" y2="310.25" stroke="#102018" stroke-width="2" fill="none"/>
<line x1="40.00" y1="389.50" x2="40.00" y2="385.50" stroke="#102018" stroke-width="2" fill="none"/>
<line x1="40.00" y1="393.50" x2="40.00" y2="389.50" stroke="#102018" stroke-width="2" fill="none"/>
<line x1="40.00" y1="397.50" x2="40.00" y2="393.50" stroke="#102018" stroke-width="2" fill="none"/>
<line x1="40.00" y1="401.50" x2="40.00" y2="397.50" stroke="#102018" stroke-width="2" fill="none"/>
<line x1="40.00" y1="405.50" x2="40.00" y2="401.50" stroke="#102018" stroke-width="2" fill="none"/>
<line x1="40.00" y1="480.75" x2="40.00" y2="405.50" stroke="#102018" stroke-width="2" fill="none"/>
<line x1="40.00" y1="484.75" x2="40.00" y2="480.75" stroke="#102018" stroke-width="2" fill="none"/>
<line x1="40.00" y1="488.75" x2="40.00" y2="484.75" stroke="#102018" stroke-width="2" fill="none"/>
<line x1="40.00" y1="492.75" x2="40.00" y2="488.75" stroke="#102018" stroke-width="2" fill="none"/>
<line x1="40.00" y1="496.75" x2="40.00" y2="492.75" stroke="#102018" stroke-width="2" fill="none"/>
<line x1="40.00" y1="500.75" x2="40.00" y2="496.75" stroke="#102018" stroke-width="2" fill="none"/>
<line x1="40.00" y1="576.00" x2="40.00" y2="500.75" stroke="#102018" stroke-width="2" fill="none"/>
<line x1="40.00" y1="580.00" x2="40.00" y2="576.00" stroke="#102018" stroke-width="2" fill="none"/>
<line x1="40.00" y1="584.00" x2="40.00" y2="580.00" stroke="#102018" stroke-width="2" fill="none"/>
<line x1="40.00" y1="588.00" x2="40.00" y2="584.00" stroke="#102018" stroke-width="2" fill="none"/>
<line x1="40.00" y1="592.00" x2="40.00" y2="588.00" stroke="#102018" stroke-width="2" fill="none"/>
<line x1="40.00" y1="596.00" x2="40.00" y2="592.00" stroke="#102018" stroke-width="2" fill="none"/>
<line x1="40.00" y1="691.25" x2="40.00" y2="596.00" stroke="#102018" stroke-width="2" fill="none"/>
<line x1="40.40" y1="178.90" x2="41.60" y2="176.10" stroke="#102018" stroke-width="2" fill="none"/>
<line x1="40.40" y1="694.85" x2="40.00" y2="691.25" stroke="#102018" stroke-width="2" fill="none"/>
<line x1="41.60" y1="176.10" x2="43.60" y2="174.10" stroke="#102018" stroke-width="2" fill="none"/>
<line x1="41.60" y1="697.65" x2="40.40" y2="694.85" stroke="#102018" stroke-width="2" fill="none"/>
<line x1="43.60" y1="174.10" x2="46.40" y2="172.90" stroke="#102018" stroke-width="2" fill="none"/>
<line x1="43.60" y1="699.65" x2="41.60" y2="697.65" stroke="#102018" stroke-width="2" fill="none"/>
<line x1="46.40" y1="172.90" x2="50.00" y2="172.50" stroke="#102018" stroke-width="2" fill="none"/>
<line x1="46.40" y1="700.85" x2="43.60" y2="699.65" stroke="#102018" stroke-width="2" fill="none"/>
<line x1="50.00" y1="172.50" x2="428.56" y2="172.50" stroke="#102018" stroke-width="2" fill="none"/>
<line x1="50.00" y1="701.25" x2="46.40" y2="700.85" stroke="#102018" stroke-width="2" fill="none"/>
<line x1="428.56" y1="172.50" x2="432.16" y2="172.10" stroke="#102018" stroke-width="2" fill="none"/>
<line x1="432.16" y1="172.10" x2="434.96" y2="170.90" stroke="#102018" stroke-width="2" fill="none"/>
<line x1="434.96" y1="170.90" x2="436.96" y2="171.40" stroke="#102018" stroke-width="2" fill="none"/>
<line x1="436.96" y1="171.40" x2="438.16" y2="168.60" stroke="#102018" stroke-width="2" fill="none"/>
<line x1="438.16" y1="168.60" x2="438.56" y2="165.00" stroke="#102018" stroke-width="2" fill="none"/>
<line x1="438.56" y1="50.00" x2="438.96" y2="46.40" stroke="#102018" stroke-width="2" fill="none"/>
<line x1="438.56" y1="165.00" x2="438.56" y2="50.00" stroke="#102018" stroke-width="2" fill="none"/>
<line x1="438.96" y1="46.40" x2="440.16" y2="43.60" stroke="#102018" stroke-width="2" fill="none"/>
<line x1="440.16" y1="43.60" x2="442.16" y2="41.60" stroke="#102018" stroke-width="2" fill="none"/>
<line x1="442.16" y1="41.60" x2="444.96" y2="40.40" stroke="#102018" stroke-width="2" fill="none"/>
<line x1="444.96" y1="40.40" x2="448.56" y2="40.00" stroke="#102018" stroke-width="2" fill="none"/>
<line x1="448.56" y1="40.00" x2="641.06" y2="40.00" stroke="#102018" stroke-width="2" fill="none"/>
<line x1="641.06" y1="40.00" x2="644.66" y2="40.40" stroke="#102018" stroke-width="2" fill="none"/>
<line x1="644.66" y1="40.40" x2="647.46" y2="41.60" stroke="#102018" stroke-width="2" fill="none"/>
<line x1="647.46" y1="41.60" x2="649.46" y2="43.60" stroke="#102018" stroke-width="2" fill="none"/>
<line x1="649.46" y1="43.60" x2="650.66" y2="46.40" stroke="#102018" stroke-width="2" fill="none"/>
<line x1="650.66" y1="46.40" x2="651.06" y2="50.00" stroke="#102018" stroke-width="2" fill="none"/>
<line x1="651.06" y1="50.00" x2="651.06" y2="165.00" stroke="#102018" stroke-width="2" fill="none"/>
<line x1="651.06" y1="165.00" x2="651.46" y2="168.60" stroke="#102018" stroke-width="2" fill="none"/>
<line x1="651.46" y1="168.60" x2="652.66" y2="171.40" stroke="#102018" stroke-width="2" fill="none"/>
<line x1="652.66" y1="171.40" x2="654.66" y2="170.90" stroke="#102018" stroke-width="2" fill="none"/>
<line x1="654.66" y1="170.90" x2="657.46" y2="172.10" stroke="#102018" stroke-width="2" fill="none"/>
<line x1="657.46" y1="172.10" x2="661.06" y2="172.50" stroke="#102018" stroke-width="2" fill="none"/>
<line x1="661.06" y1="172.50" x2="734.75" y2="172.50" stroke="#102018" stroke-width="2" fill="none"/>
<line x1="697.12" y1="310.25" x2="697.12" y2="385.50" stroke="#102018" stroke-width="2" fill="none"/>
<line x1="697.12" y1="385.50" x2="697.52" y2="389.10" stroke="#102018" stroke-width="2" fill="none"/>
<line x1="697.52" y1="306.65" x2="697.12" y2="310.25" stroke="#102018" stroke-width="2" fill="none"/>
<line x1="697.52" y1="389.10" x2="698.73" y2="391.90" stroke="#102018" stroke-width="2" fill="none"/>
<line x1="698.73" y1="303.85" x2="697.52" y2="306.65" stroke="#102018" stroke-width="2" fill="none"/>
<line x1="698.73" y1="391.90" x2="700.72" y2="393.90" stroke="#102018" stroke-width="2" fill="none"/>
<line x1="700.73" y1="301.85" x2="698.73" y2="303.85" stroke="#102018" stroke-width="2" fill="none"/>
<line x1="700.72" y1="393.90" x2="703.53" y2="395.10" stroke="#102018" stroke-width="2" fill="none"/>
<line x1="703.53" y1="300.65" x2="700.73" y2="301.85" stroke="#102018" stroke-width="2" fill="none"/>
<line x1="703.53" y1="395.10" x2="707.12" y2="395.50" stroke="#102018" stroke-width="2" fill="none"/>
<line x1="707.12" y1="300.25" x2="703.53" y2="300.65" stroke="#102018" stroke-width="2" fill="none"/>
<line x1="707.12" y1="395.50" x2="710.94" y2="395.50" stroke="#102018" stroke-width="2" fill="none"/>
<line x1="710.94" y1="395.50" x2="714.54" y2="395.90" stroke="#102018" stroke-width="2" fill="none"/>
<line x1="714.54" y1="395.90" x2="717.34" y2="397.10" stroke="#102018" stroke-width="2" fill="none"/>
<line x1="717.34" y1="397.10" x2="719.34" y2="399.10" stroke="#102018" stroke-width="2" fill="none"/>
<line x1="719.34" y1="399.10" x2="720.54" y2="401.90" stroke="#102018" stroke-width="2" fill="none"/>
<line x1="720.54" y1="401.90" x2="720.94" y2="405.50" stroke="#102018" stroke-width="2" fill="none"/>
<line x1="720.94" y1="405.50" x2="720.94" y2="480.75" stroke="#102018" stroke-width="2" fill="none"/>
<line x1="720.94" y1="480.75" x2="721.34" y2="484.35" stroke="#102018" stroke-width="2" fill="none"/>
<line x1="721.34" y1="484.35" x2="722.54" y2="487.15" stroke="#102018" stroke-width="2" fill="none"/>
<line x1="722.54" y1="487.15" x2="724.54" y2="489.15" stroke="#102018" stroke-width="2" fill="none"/>
<line x1="724.54" y1="489.15" x2="727.34" y2="490.35" stroke="#102018" stroke-width="2" fill="none"/>
<line x1="727.34" y1="490.35" x2="730.94" y2="490.75" stroke="#102018" stroke-width="2" fill="none"/>
<line x1="730.94" y1="490.75" x2="758.56" y2="490.75" stroke="#102018" stroke-width="2" fill="none"/>
<line x1="734.75" y1="172.50" x2="738.35" y2="172.90" stroke="#102018" stroke-width="2" fill="none"/>
<line x1="734.75" y1="300.25" x2="707.12" y2="300.25" stroke="#102018" stroke-width="2" fill="none"/>
<line x1="738.35" y1="172.90" x2="741.15" y2="174.10" stroke="#102018" stroke-width="2" fill="none"/>
<line x1="738.35" y1="299.85" x2="734.75" y2="300.25" stroke="#102018" stroke-width="2" fill="none"/>
<line x1="741.15" y1="174.10" x2="743.15" y2="176.10" stroke="#102018" stroke-width="2" fill="none"/>
<line x1="741.15" y1="298.65" x2="738.35" y2="299.85" stroke="#102018" stroke-width="2" fill="none"/>
<line x1="743.15" y1="176.10" x2="744.35" y2="178.90" stroke="#102018" stroke-width="2" fill="none"/>
<line x1="743.15" y1="296.65" x2="741.15" y2="298.65" stroke="#102018" stroke-width="2" fill="none"/>
<line x1="744.35" y1="178.90" x2="744.75" y2="182.50" stroke="#102018" stroke-width="2" fill="none"/>
<line x1="744.35" y1="293.85" x2="743.15" y2="296.65" stroke="#102018" stroke-width="2" fill="none"/>
<line x1="744.75" y1="182.50" x2="744.75" y2="290.25" stroke="#102018" stroke-width="2" fill="none"/>
<line x1="744.75" y1="290.25" x2="744.35" y2="293.85" stroke="#102018" stroke-width="2" fill="none"/>
<line x1="758.56" y1="490.75" x2="762.16" y2="491.15" stroke="#102018" stroke-width="2" fill="none"/>
<line x1="759.56" y1="701.25" x2="50.00" y2="701.25" stroke="#102018" stroke-width="2" fill="none"/>
<line x1="762.16" y1="491.15" x2="764.96" y2="492.35" stroke="#102018" stroke-width="2" fill="none"/>
<line x1="762.80" y1="700.89" x2="759.56" y2="701.25" stroke="#102018" stroke-width="2" fill="none"/>
<line x1="764.96" y1="492.35" x2="766.96" y2="494.35" stroke="#102018" stroke-width="2" fill="none"/>
<line x1="765.32" y1="699.81" x2="762.80" y2="700.89" stroke="#102018" stroke-width="2" fill="none"/>
<line x1="766.96" y1="494.35" x2="768.16" y2="497.15" stroke="#102018" stroke-width="2" fill="none"/>
<line x1="767.12" y1="698.01" x2="765.32" y2="699.81" stroke="#102018" stroke-width="2" fill="none"/>
<line x1="768.16" y1="497.15" x2="768.56" y2="500.75" stroke="#102018" stroke-width="2" fill="none"/>
<line x1="768.20" y1="695.49" x2="767.12" y2="698.01" stroke="#102018" stroke-width="2" fill="none"/>
<line x1="768.56" y1="500.75" x2="768.56" y2="576.00" stroke="#102018" stroke-width="2" fill="none"/>
<line x1="768.56" y1="576.00" x2="768.56" y2="580.00" stroke="#102018" stroke-width="2" fill="none"/>
<line x1="768.56" y1="580.00" x2="768.56" y2="584.00" stroke="#102018" stroke-width="2" fill="none"/>
<line x1="768.56" y1="584.00" x2="768.56" y2="588.00" stroke="#102018" stroke-width="2" fill="none"/>
<line x1="768.56" y1="588.00" x2="768.56" y2="592.00" stroke="#102018" stroke-width="2" fill="none"/>
<line x1="768.56" y1="592.00" x2="768.56" y2="596.00" stroke="#102018" stroke-width="2" fill="none"/>
<line x1="768.56" y1="596.00" x2="768.56" y2="672.25" stroke="#102018" stroke-width="2" fill="none"/>
<line x1="768.56" y1="672.25" x2="768.56" y2="675.85" stroke="#102018" stroke-width="2" fill="none"/>
<line x1="768.56" y1="675.85" x2="768.56" y2="679.45" stroke="#102018" stroke-width="2" fill="none"/>
<line x1="768.56" y1="679.45" x2="768.56" y2="683.05" stroke="#102018" stroke-width="2" fill="none"/>
<line x1="768.56" y1="683.05" x2="768.56" y2="686.65" stroke="#102018" stroke-width="2" fill="none"/>
<line x1="768.56" y1="686.65" x2="768.56" y2="690.25" stroke="#102018" stroke-width="2" fill="none"/>
<line x1="768.56" y1="690.25" x2="768.56" y2="692.25" stroke="#102018" stroke-width="2" fill="none"/>
<line x1="768.56" y1="692.25" x2="768.20" y2="695.49" stroke="#102018" stroke-width="2" fill="none"/>
<line x1="702.12" y1="310.25" x2="702.52" y2="306.65" stroke="#101b2a" stroke-width="2" fill="none"/>
<line x1="702.12" y1="385.50" x2="702.12" y2="310.25" stroke="#101b2a" stroke-width="2" fill="none"/>
<line x1="702.52" y1="306.65" x2="703.73" y2="303.85" stroke="#101b2a" stroke-width="2" fill="none"/>
<line x1="702.52" y1="389.10" x2="702.12" y2="385.50" stroke="#101b2a" stroke-width="2" fill="none"/>
<line x1="703.73" y1="303.85" x2="705.73" y2="301.85" stroke="#101b2a" stroke-width="2" fill="none"/>
<line x1="703.73" y1="391.90" x2="702.52" y2="389.10" stroke="#101b2a" stroke-width="2" fill="none"/>
<line x1="705.73" y1="301.85" x2="708.53" y2="300.65" stroke="#101b2a" stroke-width="2" fill="none"/>
<line x1="705.73" y1="393.90" x2="703.73" y2="391.90" stroke="#101b2a" stroke-width="2" fill="none"/>
<line x1="708.53" y1="300.65" x2="716.13" y2="300.25" stroke="#101b2a" stroke-width="2" fill="none"/>
<line x1="708.53" y1="395.10" x2="705.73" y2="393.90" stroke="#101b2a" stroke-width="2" fill="none"/>
<line x1="715.94" y1="395.50" x2="716.13" y2="395.50" stroke="#101b2a" stroke-width="2" fill="none"/>
<line x1="716.13" y1="300.25" x2="739.75" y2="300.25" stroke="#101b2a" stroke-width="2" fill="none"/>
<line x1="716.13" y1="395.50" x2="708.53" y2="395.10" stroke="#101b2a" stroke-width="2" fill="none"/>
<line x1="719.54" y1="395.90" x2="715.94" y2="395.50" stroke="#101b2a" stroke-width="2" fill="none"/>
<line x1="722.34" y1="397.10" x2="719.54" y2="395.90" stroke="#101b2a" stroke-width="2" fill="none"/>
<line x1="724.34" y1="399.10" x2="722.34" y2="397.10" stroke="#101b2a" stroke-width="2" fill="none"/>
<line x1="725.54" y1="401.90" x2="724.34" y2="399.10" stroke="#101b2a" stroke-width="2" fill="none"/>
<line x1="725.94" y1="405.50" x2="725.54" y2="401.90" stroke="#101b2a" stroke-width="2" fill="none"/>
<line x1="725.94" y1="480.75" x2="725.94" y2="405.50" stroke="#101b2a" stroke-width="2" fill="none"/>
<line x1="726.34" y1="484.35" x2="725.94" y2="480.75" stroke="#101b2a" stroke-width="2" fill="none"/>
<line x1="727.54" y1="487.15" x2="726.34" y2="484.35" stroke="#101b2a" stroke-width="2" fill="none"/>
<line x1="729.54" y1="489.15" x2="727.54" y2="487.15" stroke="#101b2a" stroke-width="2" fill="none"/>
<line x1="732.34" y1="490.35" x2="729.54" y2="489.15" stroke="#101b2a" stroke-width="2" fill="none"/>
<line x1="739.75" y1="300.25" x2="743.35" y2="299.85" stroke="#101b2a" stroke-width="2" fill="none"/>
<line x1="739.94" y1="490.75" x2="732.34" y2="490.35" stroke="#101b2a" stroke-width="2" fill="none"/>
<line x1="743.35" y1="299.85" x2="746.15" y2="298.65" stroke="#101b2a" stroke-width="2" fill="none"/>
<line x1="746.15" y1="298.65" x2="748.15" y2="296.65" stroke="#101b2a" stroke-width="2" fill="none"/>
<line x1="748.15" y1="296.65" x2="749.35" y2="293.85" stroke="#101b2a" stroke-width="2" fill="none"/>
<line x1="749.35" y1="293.85" x2="749.75" y2="290.25" stroke="#101b2a" stroke-width="2" fill="none"/>
<line x1="749.75" y1="179.50" x2="750.15" y2="175.90" stroke="#101b2a" stroke-width="2" fill="none"/>
<line x1="749.75" y1="195.00" x2="749.75" y2="179.50" stroke="#101b2a" stroke-width="2" fill="none"/>
<line x1="749.75" y1="199.00" x2="749.75" y2="195.00" stroke="#101b2a" stroke-width="2" fill="none"/>
<line x1="749.75" y1="203.00" x2="749.75" y2="199.00" stroke="#101b2a" stroke-width="2" fill="none"/>
<line x1="749.75" y1="207.00" x2="749.75" y2="203.00" stroke="#101b2a" stroke-width="2" fill="none"/>
<line x1="749.75" y1="211.00" x2="749.75" y2="207.00" stroke="#101b2a" stroke-width="2" fill="none"/>
<line x1="749.75" y1="215.00" x2="749.75" y2="211.00" stroke="#101b2a" stroke-width="2" fill="none"/>
<line x1="749.75" y1="290.25" x2="749.75" y2="215.00" stroke="#101b2a" stroke-width="2" fill="none"/>
<line x1="750.15" y1="175.90" x2="751.35" y2="173.10" stroke="#101b2a" stroke-width="2" fill="none"/>
<line x1="751.35" y1="173.10" x2="753.35" y2="171.10" stroke="#101b2a" stroke-width="2" fill="none"/>
<line x1="753.35" y1="171.10" x2="756.15" y2="169.90" stroke="#101b2a" stroke-width="2" fill="none"/>
<line x1="756.15" y1="169.90" x2="759.75" y2="169.50" stroke="#101b2a" stroke-width="2" fill="none"/>
<line x1="759.75" y1="169.50" x2="834.62" y2="169.50" stroke="#101b2a" stroke-width="2" fill="none"/>
<line x1="763.56" y1="490.75" x2="739.94" y2="490.75" stroke="#101b2a" stroke-width="2" fill="none"/>
<line x1="767.16" y1="491.15" x2="763.56" y2="490.75" stroke="#101b2a" stroke-width="2" fill="none"/>
<line x1="769.96" y1="492.35" x2="767.16" y2="491.15" stroke="#101b2a" stroke-width="2" fill="none"/>
<line x1="771.96" y1="494.35" x2="769.96" y2="492.35" stroke="#101b2a" stroke-width="2" fill="none"/>
<line x1="773.16" y1="497.15" x2="771.96" y2="494.35" stroke="#101b2a" stroke-width="2" fill="none"/>
<line x1="773.56" y1="500.75" x2="773.16" y2="497.15" stroke="#101b2a" stroke-width="2" fill="none"/>
<line x1="773.56" y1="576.00" x2="773.56" y2="500.75" stroke="#101b2a" stroke-width="2" fill="none"/>
<line x1="773.56" y1="580.00" x2="773.56" y2="576.00" stroke="#101b2a" stroke-width="2" fill="none"/>
<line x1="773.56" y1="584.00" x2="773.56" y2="580.00" stroke="#101b2a" stroke-width="2" fill="none"/>
<line x1="773.56" y1="588.00" x2="773.56" y2="584.00" stroke="#101b2a" stroke-width="2" fill="none"/>
<line x1="773.56" y1="592.00" x2="773.56" y2="588.00" stroke="#101b2a" stroke-width="2" fill="none"/>
<line x1="773.56" y1="596.00" x2="773.56" y2="592.00" stroke="#101b2a" stroke-width="2" fill="none"/>
<line x1="773.56" y1="691.25" x2="773.56" y2="596.00" stroke="#101b2a" stroke-width="2" fill="none"/>
<line x1="773.96" y1="694.85" x2="773.56" y2="691.25" stroke="#101b2a" stroke-width="2" fill="none"/>
<line x1="775.16" y1="697.65" x2="773.96" y2="694.85" stroke="#101b2a" stroke-width="2" fill="none"/>
<line x1="777.16" y1="699.65" x2="775.16" y2="697.65" stroke="#101b2a" stroke-width="2" fill="none"/>
<line x1="779.96" y1="700.85" x2="777.16" y2="699.65" stroke="#101b2a" stroke-width="2" fill="none"/>
<line x1="783.56" y1="701.25" x2="779.96" y2="700.85" stroke="#101b2a" stroke-width="2" fill="none"/>
<line x1="834.62" y1="169.50" x2="838.23" y2="169.10" stroke="#101b2a" stroke-width="2" fill="none"/>
<line x1="838.23" y1="169.10" x2="841.03" y2="167.90" stroke="#101b2a" stroke-width="2" fill="none"/>
<line x1="841.03" y1="167.90" x2="843.03" y2="168.90" stroke="#101b2a" stroke-width="2" fill="none"/>
<line x1="843.03" y1="168.90" x2="844.23" y2="166.10" stroke="#101b2a" stroke-width="2" fill="none"/>
<line x1="844.23" y1="166.10" x2="844.62" y2="162.50" stroke="#101b2a" stroke-width="2" fill="none"/>
<line x1="844.62" y1="50.00" x2="845.02" y2="46.40" stroke="#101b2a" stroke-width="2" fill="none"/>
<line x1="844.62" y1="162.50" x2="844.62" y2="50.00" stroke="#101b2a" stroke-width="2" fill="none"/>
<line x1="845.02" y1="46.40" x2="846.23" y2="43.60" stroke="#101b2a" stroke-width="2" fill="none"/>
<line x1="846.23" y1="43.60" x2="848.23" y2="41.60" stroke="#101b2a" stroke-width="2" fill="none"/>
<line x1="848.23" y1="41.60" x2="851.03" y2="40.40" stroke="#101b2a" stroke-width="2" fill="none"/>
<line x1="851.03" y1="40.40" x2="854.62" y2="40.00" stroke="#101b2a" stroke-width="2" fill="none"/>
<line x1="854.62" y1="40.00" x2="1047.12" y2="40.00" stroke="#101b2a" stroke-width="2" fill="none"/>
<line x1="1047.12" y1="40.00" x2="1050.72" y2="40.40" stroke="#101b2a" stroke-width="2" fill="none"/>
<line x1="1050.72" y1="40.40" x2="1053.53" y2="41.60" stroke="#101b2a" stroke-width="2" fill="none"/>
<line x1="1053.53" y1="41.60" x2="1055.53" y2="43.60" stroke="#101b2a" stroke-width="2" fill="none"/>
<line x1="1055.53" y1="43.60" x2="1056.73" y2="46.40" stroke="#101b2a" stroke-width="2" fill="none"/>
<line x1="1056.73" y1="46.40" x2="1057.12" y2="50.00" stroke="#101b2a" stroke-width="2" fill="none"/>
<line x1="1057.12" y1="50.00" x2="1057.12" y2="162.50" stroke="#101b2a" stroke-width="2" fill="none"/>
<line x1="1057.12" y1="162.50" x2="1057.53" y2="166.10" stroke="#101b2a" stroke-width="2" fill="none"/>
<line x1="1057.53" y1="166.10" x2="1058.72" y2="168.90" stroke="#101b2a" stroke-width="2" fill="none"/>
<line x1="1058.72" y1="168.90" x2="1060.72" y2="167.90" stroke="#101b2a" stroke-width="2" fill="none"/>
<line x1="1060.72" y1="167.90" x2="1063.53" y2="169.10" stroke="#101b2a" stroke-width="2" fill="none"/>
<line x1="1063.53" y1="169.10" x2="1067.12" y2="169.50" stroke="#101b2a" stroke-width="2" fill="none"/>
<line x1="1067.12" y1="169.50" x2="1658.81" y2="169.50" stroke="#101b2a" stroke-width="2" fill="none"/>
<line x1="1658.81" y1="169.50" x2="1662.41" y2="169.90" stroke="#101b2a" stroke-width="2" fill="none"/>
<line x1="1659.81" y1="701.25" x2="783.56" y2="701.25" stroke="#101b2a" stroke-width="2" fill="none"/>
<line x1="1662.41" y1="169.90" x2="1665.21" y2="171.10" stroke="#101b2a" stroke-width="2" fill="none"/>
<line x1="1663.05" y1="700.89" x2="1659.81" y2="701.25" stroke="#101b2a" stroke-width="2" fill="none"/>
<line x1="1665.21" y1="171.10" x2="1667.21" y2="173.10" stroke="#101b2a" stroke-width="2" fill="none"/>
<line x1="1665.57" y1="699.81" x2="1663.05" y2="700.89" stroke="#101b2a" stroke-width="2" fill="none"/>
<line x1="1667.21" y1="173.10" x2="1668.41" y2="175.90" stroke="#101b2a" stroke-width="2" fill="none"/>
<line x1="1667.37" y1="698.01" x2="1665.57" y2="699.81" stroke="#101b2a" stroke-width="2" fill="none"/>
<line x1="1668.41" y1="175.90" x2="1668.81" y2="179.50" stroke="#101b2a" stroke-width="2" fill="none"/>
<line x1="1668.45" y1="695.49" x2="1667.37" y2="698.01" stroke="#101b2a" stroke-width="2" fill="none"/>
<line x1="1668.81" y1="179.50" x2="1668.81" y2="290.25" stroke="#101b2a" stroke-width="2" fill="none"/>
<line x1="1668.81" y1="290.25" x2="1668.81" y2="294.25" stroke="#101b2a" stroke-width="2" fill="none"/>
<line x1="1668.81" y1="294.25" x2="1668.81" y2="298.25" stroke="#101b2a" stroke-width="2" fill="none"/>
<line x1="1668.81" y1="298.25" x2="1668.81" y2="302.25" stroke="#101b2a" stroke-width="2" fill="none"/>
<line x1="1668.81" y1="302.25" x2="1668.81" y2="306.25" stroke="#101b2a" stroke-width="2" fill="none"/>
<line x1="1668.81" y1="306.25" x2="1668.81" y2="310.25" stroke="#101b2a" stroke-width="2" fill="none"/>
<line x1="1668.81" y1="310.25" x2="1668.81" y2="385.50" stroke="#101b2a" stroke-width="2" fill="none"/>
<line x1="1668.81" y1="385.50" x2="1668.81" y2="389.50" stroke="#101b2a" stroke-width="2" fill="none"/>
<line x1="1668.81" y1="389.50" x2="1668.81" y2="393.50" stroke="#101b2a" stroke-width="2" fill="none"/>
<line x1="1668.81" y1="393.50" x2="1668.81" y2="397.50" stroke="#101b2a" stroke-width="2" fill="none"/>
<line x1="1668.81" y1="397.50" x2="1668.81" y2="401.50" stroke="#101b2a" stroke-width="2" fill="none"/>
<line x1="1668.81" y1="401.50" x2="1668.81" y2="405.50" stroke="#101b2a" stroke-width="2" fill="none"/>
<line x1="1668.81" y1="405.50" x2="1668.81" y2="480.75" stroke="#101b2a" stroke-width="2" fill="none"/>
<line x1="1668.81" y1="480.75" x2="1668.81" y2="484.75" stroke="#101b2a" stroke-width="2" fill="none"/>
<line x1="1668.81" y1="484.75" x2="1668.81" y2="488.75" stroke="#101b2a" stroke-width="2" fill="none"/>
<line x1="1668.81" y1="488.75" x2="1668.81" y2="492.75" stroke="#101b2a" stroke-width="2" fill="none"/>
<line x1="1668.81" y1="492.75" x2="1668.81" y2="496.75" stroke="#101b2a" stroke-width="2" fill="none"/>
<line x1="1668.81" y1="496.75" x2="1668.81" y2="500.75" stroke="#101b2a" stroke-width="2" fill="none"/>
<line x1="1668.81" y1="500.75" x2="1668.81" y2="576.00" stroke="#101b2a" stroke-width="2" fill="none"/>
<line x1="1668.81" y1="576.00" x2="1668.81" y2="580.00" stroke="#101b2a" stroke-width="2" fill="none"/>
<line x1="1668.81" y1="580.00" x2="1668.81" y2="584.00" stroke="#101b2a" stroke-width="2" fill="none"/>
<line x1="1668.81" y1="584.00" x2="1668.81" y2="588.00" stroke="#101b2a" stroke-width="2" fill="none"/>
<line x1="1668.81" y1="588.00" x2="1668.81" y2="592.00" stroke="#101b2a" stroke-width="2" fill="none"/>
<line x1="1668.81" y1="592.00" x2="1668.81" y2="596.00" stroke="#101b2a" stroke-width="2" fill="none"/>
<line x1="1668.81" y1="596.00" x2="1668.81" y2="672.25" stroke="#101b2a" stroke-width="2" fill="none"/>
<line x1="1668.81" y1="672.25" x2="1668.81" y2="675.85" stroke="#101b2a" stroke-width="2" fill="none"/>
<line x1="1668.81" y1="675.85" x2="1668.81" y2="679.45" stroke="#101b2a" stroke-width="2" fill="none"/>
<line x1="1668.81" y1="679.45" x2="1668.81" y2="683.05" stroke="#101b2a" stroke-width="2" fill="none"/>
<line x1="1668.81" y1="683.05" x2="1668.81" y2="686.65" stroke="#101b2a" stroke-width="2" fill="none"/>
<line x1="1668.81" y1="686.65" x2="1668.81" y2="690.25" stroke="#101b2a" stroke-width="2" fill="none"/>
<line x1="1668.81" y1="690.25" x2="1668.81" y2="692.25" stroke="#101b2a" stroke-width="2" fill="none"/>
<line x1="1668.81" y1="692.25" x2="1668.45" y2="695.49" stroke="#101b2a" stroke-width="2" fill="none"/>
<rect x="62.50" y="207.50" width="90.25" height="90.25" rx="2" ry="2" fill="#e9fff4" stroke="#2a8d66" stroke-width="1" fill-opacity="0.86"/>
<text x="107.62" y="256.09" text-anchor="middle" font-family="Arial" font-size="10" fill="#101010">~</text>
<rect x="157.75" y="207.50" width="90.25" height="90.25" rx="2" ry="2" fill="#e9fff4" stroke="#2a8d66" stroke-width="1" fill-opacity="0.86"/>
<text x="202.88" y="256.09" text-anchor="middle" font-family="Arial" font-size="10" fill="#101010">1</text>
<rect x="253.00" y="207.50" width="90.25" height="90.25" rx="2" ry="2" fill="#e9fff4" stroke="#2a8d66" stroke-width="1" fill-opacity="0.86"/>
<text x="298.12" y="256.09" text-anchor="middle" font-family="Arial" font-size="10" fill="#101010">2</text>
<rect x="348.25" y="207.50" width="90.25" height="90.25" rx="2" ry="2" fill="#e9fff4" stroke="#2a8d66" stroke-width="1" fill-opacity="0.86"/>
<text x="393.38" y="256.09" text-anchor="middle" font-family="Arial" font-size="10" fill="#101010">3</text>
<rect x="443.50" y="207.50" width="90.25" height="90.25" rx="2" ry="2" fill="#e9fff4" stroke="#2a8d66" stroke-width="1" fill-opacity="0.86"/>
<text x="488.62" y="256.09" text-anchor="middle" font-family="Arial" font-size="10" fill="#101010">4</text>
<rect x="538.75" y="207.50" width="90.25" height="90.25" rx="2" ry="2" fill="#e9fff4" stroke="#2a8d66" stroke-width="1" fill-opacity="0.86"/>
<text x="583.88" y="256.09" text-anchor="middle" font-family="Arial" font-size="10" fill="#101010">5</text>
<rect x="634.00" y="207.50" width="90.25" height="90.25" rx="2" ry="2" fill="#e9fff4" stroke="#2a8d66" stroke-width="1" fill-opacity="0.86"/>
<text x="679.12" y="256.09" text-anchor="middle" font-family="Arial" font-size="10" fill="#101010">6</text>
<rect x="62.50" y="302.75" width="137.88" height="90.25" rx="2" ry="2" fill="#e9fff4" stroke="#2a8d66" stroke-width="1" fill-opacity="0.86"/>
<text x="131.44" y="351.33" text-anchor="middle" font-family="Arial" font-size="10" fill="#101010">TAB</text>
<rect x="205.37" y="302.75" width="90.25" height="90.25" rx="2" ry="2" fill="#e9fff4" stroke="#2a8d66" stroke-width="1" fill-opacity="0.86"/>
<text x="250.50" y="351.33" text-anchor="middle" font-family="Arial" font-size="10" fill="#101010">Q</text>
<rect x="300.62" y="302.75" width="90.25" height="90.25" rx="2" ry="2" fill="#e9fff4" stroke="#2a8d66" stroke-width="1" fill-opacity="0.86"/>
<text x="345.75" y="351.33" text-anchor="middle" font-family="Arial" font-size="10" fill="#101010">W</text>
<rect x="395.88" y="302.75" width="90.25" height="90.25" rx="2" ry="2" fill="#e9fff4" stroke="#2a8d66" stroke-width="1" fill-opacity="0.86"/>
<text x="441.00" y="351.33" text-anchor="middle" font-family="Arial" font-size="10" fill="#101010">E</text>
<rect x="491.12" y="302.75" width="90.25" height="90.25" rx="2" ry="2" fill="#e9fff4" stroke="#2a8d66" stroke-width="1" fill-opacity="0.86"/>
<text x="536.25" y="351.33" text-anchor="middle" font-family="Arial" font-size="10" fill="#101010">R</text>
<rect x="586.38" y="302.75" width="90.25" height="90.25" rx="2" ry="2" fill="#e9fff4" stroke="#2a8d66" stroke-width="1" fill-opacity="0.86"/>
<text x="631.50" y="351.33" text-anchor="middle" font-family="Arial" font-size="10" fill="#101010">T</text>
<rect x="62.50" y="398.00" width="161.69" height="90.25" rx="2" ry="2" fill="#e9fff4" stroke="#2a8d66" stroke-width="1" fill-opacity="0.86"/>
<text x="143.34" y="446.58" text-anchor="middle" font-family="Arial" font-size="10" fill="#101010">Caps</text>
<rect x="229.19" y="398.00" width="90.25" height="90.25" rx="2" ry="2" fill="#e9fff4" stroke="#2a8d66" stroke-width="1" fill-opacity="0.86"/>
<text x="274.31" y="446.58" text-anchor="middle" font-family="Arial" font-size="10" fill="#101010">A</text>
<rect x="324.44" y="398.00" width="90.25" height="90.25" rx="2" ry="2" fill="#e9fff4" stroke="#2a8d66" stroke-width="1" fill-opacity="0.86"/>
<text x="369.56" y="446.58" text-anchor="middle" font-family="Arial" font-size="10" fill="#101010">S</text>
<rect x="419.69" y="398.00" width="90.25" height="90.25" rx="2" ry="2" fill="#e9fff4" stroke="#2a8d66" stroke-width="1" fill-opacity="0.86"/>
<text x="464.81" y="446.58" text-anchor="middle" font-family="Arial" font-size="10" fill="#101010">D</text>
<rect x="514.94" y="398.00" width="90.25" height="90.25" rx="2" ry="2" fill="#e9fff4" stroke="#2a8d66" stroke-width="1" fill-opacity="0.86"/>
<text x="560.06" y="446.58" text-anchor="middle" font-family="Arial" font-size="10" fill="#101010">F</text>
<rect x="610.19" y="398.00" width="90.25" height="90.25" rx="2" ry="2" fill="#e9fff4" stroke="#2a8d66" stroke-width="1" fill-opacity="0.86"/>
<text x="655.31" y="446.58" text-anchor="middle" font-family="Arial" font-size="10" fill="#101010">G</text>
<rect x="62.50" y="493.25" width="114.06" height="90.25" rx="2" ry="2" fill="#e9fff4" stroke="#2a8d66" stroke-width="1" fill-opacity="0.86"/>
<text x="119.53" y="541.84" text-anchor="middle" font-family="Arial" font-size="10" fill="#101010">LShift</text>
<rect x="181.56" y="493.25" width="90.25" height="90.25" rx="2" ry="2" fill="#e9fff4" stroke="#2a8d66" stroke-width="1" fill-opacity="0.86"/>
<text x="226.69" y="541.84" text-anchor="middle" font-family="Arial" font-size="10" fill="#101010">LShift</text>
<rect x="276.81" y="493.25" width="90.25" height="90.25" rx="2" ry="2" fill="#e9fff4" stroke="#2a8d66" stroke-width="1" fill-opacity="0.86"/>
<text x="321.94" y="541.84" text-anchor="middle" font-family="Arial" font-size="10" fill="#101010">Z</text>
<rect x="372.06" y="493.25" width="90.25" height="90.25" rx="2" ry="2" fill="#e9fff4" stroke="#2a8d66" stroke-width="1" fill-opacity="0.86"/>
<text x="417.19" y="541.84" text-anchor="middle" font-family="Arial" font-size="10" fill="#101010">X</text>
<rect x="467.31" y="493.25" width="90.25" height="90.25" rx="2" ry="2" fill="#e9fff4" stroke="#2a8d66" stroke-width="1" fill-opacity="0.86"/>
<text x="512.44" y="541.84" text-anchor="middle" font-family="Arial" font-size="10" fill="#101010">C</text>
<rect x="562.56" y="493.25" width="90.25" height="90.25" rx="2" ry="2" fill="#e9fff4" stroke="#2a8d66" stroke-width="1" fill-opacity="0.86"/>
<text x="607.69" y="541.84" text-anchor="middle" font-family="Arial" font-size="10" fill="#101010">V</text>
<rect x="657.81" y="493.25" width="90.25" height="90.25" rx="2" ry="2" fill="#e9fff4" stroke="#2a8d66" stroke-width="1" fill-opacity="0.86"/>
<text x="702.94" y="541.84" text-anchor="middle" font-family="Arial" font-size="10" fill="#101010">B</text>
<rect x="62.50" y="588.50" width="114.06" height="90.25" rx="2" ry="2" fill="#e9fff4" stroke="#2a8d66" stroke-width="1" fill-opacity="0.86"/>
<text x="119.53" y="637.09" text-anchor="middle" font-family="Arial" font-size="10" fill="#101010">Ctrl</text>
<rect x="181.56" y="588.50" width="114.06" height="90.25" rx="2" ry="2" fill="#e9fff4" stroke="#2a8d66" stroke-width="1" fill-opacity="0.86"/>
<text x="238.59" y="637.09" text-anchor="middle" font-family="Arial" font-size="10" fill="#101010">Win</text>
<rect x="300.63" y="588.50" width="114.06" height="90.25" rx="2" ry="2" fill="#e9fff4" stroke="#2a8d66" stroke-width="1" fill-opacity="0.86"/>
<text x="357.66" y="637.09" text-anchor="middle" font-family="Arial" font-size="10" fill="#101010">Alt</text>
<rect x="419.69" y="588.50" width="114.06" height="90.25" rx="2" ry="2" fill="#e9fff4" stroke="#2a8d66" stroke-width="1" fill-opacity="0.86"/>
<text x="476.72" y="637.09" text-anchor="middle" font-family="Arial" font-size="10" fill="#101010">Fn</text>
<rect x="538.75" y="588.50" width="90.25" height="90.25" rx="2" ry="2" fill="#e9fff4" stroke="#2a8d66" stroke-width="1" fill-opacity="0.86"/>
<text x="583.88" y="637.09" text-anchor="middle" font-family="Arial" font-size="10" fill="#101010">Space</text>
<rect x="634.00" y="588.50" width="114.06" height="90.25" rx="2" ry="2" fill="#e9fff4" stroke="#2a8d66" stroke-width="1" fill-opacity="0.86"/>
<text x="691.03" y="637.09" text-anchor="middle" font-family="Arial" font-size="10" fill="#101010">Space</text>
<rect x="481.71" y="61.05" width="148.70" height="97.90" fill="none" stroke="#252525" stroke-width="1.5" stroke-dasharray="4 3"/>
<text x="556.06" y="57.05" text-anchor="middle" font-family="Arial" font-size="9" fill="#222">U1</text>
<circle cx="197.65" cy="479.65" r="7" fill="white" stroke="#555" stroke-width="1"/>
<circle cx="488.55" cy="320.15" r="7" fill="white" stroke="#555" stroke-width="1"/>
<circle cx="552.00" cy="576.60" r="7" fill="white" stroke="#555" stroke-width="1"/>
<circle cx="411.05" cy="479.65" r="7" fill="white" stroke="#555" stroke-width="1"/>
<circle cx="592.00" cy="317.65" r="7" fill="white" stroke="#555" stroke-width="1"/>
<circle cx="599.50" cy="479.65" r="7" fill="white" stroke="#555" stroke-width="1"/>
<circle cx="180.15" cy="375.15" r="7" fill="white" stroke="#555" stroke-width="1"/>
<circle cx="172.60" cy="621.60" r="7" fill="white" stroke="#555" stroke-width="1"/>
<circle cx="411.05" cy="621.60" r="7" fill="white" stroke="#555" stroke-width="1"/>
<rect x="770.25" y="207.50" width="90.25" height="90.25" rx="2" ry="2" fill="#eef5ff" stroke="#467cc0" stroke-width="1" fill-opacity="0.86"/>
<text x="815.38" y="256.09" text-anchor="middle" font-family="Arial" font-size="10" fill="#101010">7</text>
<rect x="865.50" y="207.50" width="90.25" height="90.25" rx="2" ry="2" fill="#eef5ff" stroke="#467cc0" stroke-width="1" fill-opacity="0.86"/>
<text x="910.62" y="256.09" text-anchor="middle" font-family="Arial" font-size="10" fill="#101010">8</text>
<rect x="960.75" y="207.50" width="90.25" height="90.25" rx="2" ry="2" fill="#eef5ff" stroke="#467cc0" stroke-width="1" fill-opacity="0.86"/>
<text x="1005.88" y="256.09" text-anchor="middle" font-family="Arial" font-size="10" fill="#101010">9</text>
<rect x="1056.00" y="207.50" width="90.25" height="90.25" rx="2" ry="2" fill="#eef5ff" stroke="#467cc0" stroke-width="1" fill-opacity="0.86"/>
<text x="1101.12" y="256.09" text-anchor="middle" font-family="Arial" font-size="10" fill="#101010">0</text>
<rect x="1151.25" y="207.50" width="90.25" height="90.25" rx="2" ry="2" fill="#eef5ff" stroke="#467cc0" stroke-width="1" fill-opacity="0.86"/>
<text x="1196.38" y="256.09" text-anchor="middle" font-family="Arial" font-size="10" fill="#101010">-</text>
<rect x="1246.50" y="207.50" width="90.25" height="90.25" rx="2" ry="2" fill="#eef5ff" stroke="#467cc0" stroke-width="1" fill-opacity="0.86"/>
<text x="1291.63" y="256.09" text-anchor="middle" font-family="Arial" font-size="10" fill="#101010">=</text>
<rect x="1341.75" y="207.50" width="90.25" height="90.25" rx="2" ry="2" fill="#eef5ff" stroke="#467cc0" stroke-width="1" fill-opacity="0.86"/>
<text x="1386.88" y="256.09" text-anchor="middle" font-family="Arial" font-size="10" fill="#101010">BSPC</text>
<rect x="1437.00" y="207.50" width="114.06" height="90.25" rx="2" ry="2" fill="#eef5ff" stroke="#467cc0" stroke-width="1" fill-opacity="0.86"/>
<text x="1494.03" y="256.09" text-anchor="middle" font-family="Arial" font-size="10" fill="#101010">BSPC</text>
<rect x="1556.06" y="207.50" width="90.25" height="90.25" rx="2" ry="2" fill="#eef5ff" stroke="#467cc0" stroke-width="1" fill-opacity="0.86"/>
<text x="1601.19" y="256.09" text-anchor="middle" font-family="Arial" font-size="10" fill="#101010">Del</text>
<rect x="722.62" y="302.75" width="90.25" height="90.25" rx="2" ry="2" fill="#eef5ff" stroke="#467cc0" stroke-width="1" fill-opacity="0.86"/>
<text x="767.75" y="351.33" text-anchor="middle" font-family="Arial" font-size="10" fill="#101010">Y</text>
<rect x="817.88" y="302.75" width="90.25" height="90.25" rx="2" ry="2" fill="#eef5ff" stroke="#467cc0" stroke-width="1" fill-opacity="0.86"/>
<text x="863.00" y="351.33" text-anchor="middle" font-family="Arial" font-size="10" fill="#101010">U</text>
<rect x="913.12" y="302.75" width="90.25" height="90.25" rx="2" ry="2" fill="#eef5ff" stroke="#467cc0" stroke-width="1" fill-opacity="0.86"/>
<text x="958.25" y="351.33" text-anchor="middle" font-family="Arial" font-size="10" fill="#101010">I</text>
<rect x="1008.38" y="302.75" width="90.25" height="90.25" rx="2" ry="2" fill="#eef5ff" stroke="#467cc0" stroke-width="1" fill-opacity="0.86"/>
<text x="1053.50" y="351.33" text-anchor="middle" font-family="Arial" font-size="10" fill="#101010">O</text>
<rect x="1103.62" y="302.75" width="90.25" height="90.25" rx="2" ry="2" fill="#eef5ff" stroke="#467cc0" stroke-width="1" fill-opacity="0.86"/>
<text x="1148.75" y="351.33" text-anchor="middle" font-family="Arial" font-size="10" fill="#101010">P</text>
<rect x="1198.88" y="302.75" width="90.25" height="90.25" rx="2" ry="2" fill="#eef5ff" stroke="#467cc0" stroke-width="1" fill-opacity="0.86"/>
<text x="1244.00" y="351.33" text-anchor="middle" font-family="Arial" font-size="10" fill="#101010">[</text>
<rect x="1294.13" y="302.75" width="90.25" height="90.25" rx="2" ry="2" fill="#eef5ff" stroke="#467cc0" stroke-width="1" fill-opacity="0.86"/>
<text x="1339.25" y="351.33" text-anchor="middle" font-family="Arial" font-size="10" fill="#101010">]</text>
<rect x="1389.38" y="302.75" width="161.69" height="90.25" rx="2" ry="2" fill="#eef5ff" stroke="#467cc0" stroke-width="1" fill-opacity="0.86"/>
<text x="1470.22" y="351.33" text-anchor="middle" font-family="Arial" font-size="10" fill="#101010">\</text>
<rect x="1556.06" y="302.75" width="90.25" height="90.25" rx="2" ry="2" fill="#eef5ff" stroke="#467cc0" stroke-width="1" fill-opacity="0.86"/>
<text x="1601.19" y="351.33" text-anchor="middle" font-family="Arial" font-size="10" fill="#101010">Home</text>
<rect x="746.44" y="398.00" width="90.25" height="90.25" rx="2" ry="2" fill="#eef5ff" stroke="#467cc0" stroke-width="1" fill-opacity="0.86"/>
<text x="791.56" y="446.58" text-anchor="middle" font-family="Arial" font-size="10" fill="#101010">H</text>
<rect x="841.69" y="398.00" width="90.25" height="90.25" rx="2" ry="2" fill="#eef5ff" stroke="#467cc0" stroke-width="1" fill-opacity="0.86"/>
<text x="886.81" y="446.58" text-anchor="middle" font-family="Arial" font-size="10" fill="#101010">J</text>
<rect x="936.94" y="398.00" width="90.25" height="90.25" rx="2" ry="2" fill="#eef5ff" stroke="#467cc0" stroke-width="1" fill-opacity="0.86"/>
<text x="982.06" y="446.58" text-anchor="middle" font-family="Arial" font-size="10" fill="#101010">K</text>
<rect x="1032.19" y="398.00" width="90.25" height="90.25" rx="2" ry="2" fill="#eef5ff" stroke="#467cc0" stroke-width="1" fill-opacity="0.86"/>
<text x="1077.31" y="446.58" text-anchor="middle" font-family="Arial" font-size="10" fill="#101010">L</text>
<rect x="1127.44" y="398.00" width="90.25" height="90.25" rx="2" ry="2" fill="#eef5ff" stroke="#467cc0" stroke-width="1" fill-opacity="0.86"/>
<text x="1172.56" y="446.58" text-anchor="middle" font-family="Arial" font-size="10" fill="#101010">;</text>
<rect x="1222.69" y="398.00" width="90.25" height="90.25" rx="2" ry="2" fill="#eef5ff" stroke="#467cc0" stroke-width="1" fill-opacity="0.86"/>
<text x="1267.81" y="446.58" text-anchor="middle" font-family="Arial" font-size="10" fill="#101010">&#x27;</text>
<rect x="1317.94" y="398.00" width="90.25" height="90.25" rx="2" ry="2" fill="#eef5ff" stroke="#467cc0" stroke-width="1" fill-opacity="0.86"/>
<text x="1363.06" y="446.58" text-anchor="middle" font-family="Arial" font-size="10" fill="#101010">Enter</text>
<rect x="1413.19" y="398.00" width="137.88" height="90.25" rx="2" ry="2" fill="#eef5ff" stroke="#467cc0" stroke-width="1" fill-opacity="0.86"/>
<text x="1482.12" y="446.58" text-anchor="middle" font-family="Arial" font-size="10" fill="#101010">Enter</text>
<rect x="1556.06" y="398.00" width="90.25" height="90.25" rx="2" ry="2" fill="#eef5ff" stroke="#467cc0" stroke-width="1" fill-opacity="0.86"/>
<text x="1601.19" y="446.58" text-anchor="middle" font-family="Arial" font-size="10" fill="#101010">PgUp</text>
<rect x="794.06" y="493.25" width="90.25" height="90.25" rx="2" ry="2" fill="#eef5ff" stroke="#467cc0" stroke-width="1" fill-opacity="0.86"/>
<text x="839.19" y="541.84" text-anchor="middle" font-family="Arial" font-size="10" fill="#101010">N</text>
<rect x="889.31" y="493.25" width="90.25" height="90.25" rx="2" ry="2" fill="#eef5ff" stroke="#467cc0" stroke-width="1" fill-opacity="0.86"/>
<text x="934.44" y="541.84" text-anchor="middle" font-family="Arial" font-size="10" fill="#101010">M</text>
<rect x="984.56" y="493.25" width="90.25" height="90.25" rx="2" ry="2" fill="#eef5ff" stroke="#467cc0" stroke-width="1" fill-opacity="0.86"/>
<text x="1029.69" y="541.84" text-anchor="middle" font-family="Arial" font-size="10" fill="#101010">,</text>
<rect x="1079.81" y="493.25" width="90.25" height="90.25" rx="2" ry="2" fill="#eef5ff" stroke="#467cc0" stroke-width="1" fill-opacity="0.86"/>
<text x="1124.94" y="541.84" text-anchor="middle" font-family="Arial" font-size="10" fill="#101010">.</text>
<rect x="1175.06" y="493.25" width="90.25" height="90.25" rx="2" ry="2" fill="#eef5ff" stroke="#467cc0" stroke-width="1" fill-opacity="0.86"/>
<text x="1220.19" y="541.84" text-anchor="middle" font-family="Arial" font-size="10" fill="#101010">/</text>
<rect x="1270.31" y="493.25" width="90.25" height="90.25" rx="2" ry="2" fill="#eef5ff" stroke="#467cc0" stroke-width="1" fill-opacity="0.86"/>
<text x="1315.44" y="541.84" text-anchor="middle" font-family="Arial" font-size="10" fill="#101010">RShift</text>
<rect x="1365.56" y="493.25" width="90.25" height="90.25" rx="2" ry="2" fill="#eef5ff" stroke="#467cc0" stroke-width="1" fill-opacity="0.86"/>
<text x="1410.69" y="541.84" text-anchor="middle" font-family="Arial" font-size="10" fill="#101010">Fn</text>
<rect x="1460.81" y="493.25" width="90.25" height="90.25" rx="2" ry="2" fill="#eef5ff" stroke="#467cc0" stroke-width="1" fill-opacity="0.86"/>
<text x="1505.94" y="541.84" text-anchor="middle" font-family="Arial" font-size="10" fill="#101010">Up</text>
<rect x="1556.06" y="493.25" width="90.25" height="90.25" rx="2" ry="2" fill="#eef5ff" stroke="#467cc0" stroke-width="1" fill-opacity="0.86"/>
<text x="1601.19" y="541.84" text-anchor="middle" font-family="Arial" font-size="10" fill="#101010">PgDn</text>
<rect x="794.06" y="588.50" width="90.25" height="90.25" rx="2" ry="2" fill="#eef5ff" stroke="#467cc0" stroke-width="1" fill-opacity="0.86"/>
<text x="839.19" y="637.09" text-anchor="middle" font-family="Arial" font-size="10" fill="#101010">B</text>
<rect x="889.31" y="588.50" width="90.25" height="90.25" rx="2" ry="2" fill="#eef5ff" stroke="#467cc0" stroke-width="1" fill-opacity="0.86"/>
<text x="934.44" y="637.09" text-anchor="middle" font-family="Arial" font-size="10" fill="#101010">Space</text>
<rect x="984.56" y="588.50" width="90.25" height="90.25" rx="2" ry="2" fill="#eef5ff" stroke="#467cc0" stroke-width="1" fill-opacity="0.86"/>
<text x="1029.69" y="637.09" text-anchor="middle" font-family="Arial" font-size="10" fill="#101010">Space</text>
<rect x="1079.81" y="588.50" width="90.25" height="90.25" rx="2" ry="2" fill="#eef5ff" stroke="#467cc0" stroke-width="1" fill-opacity="0.86"/>
<text x="1124.94" y="637.09" text-anchor="middle" font-family="Arial" font-size="10" fill="#101010">RAlt</text>
<rect x="1175.06" y="588.50" width="90.25" height="90.25" rx="2" ry="2" fill="#eef5ff" stroke="#467cc0" stroke-width="1" fill-opacity="0.86"/>
<text x="1220.19" y="637.09" text-anchor="middle" font-family="Arial" font-size="10" fill="#101010">Fn</text>
<rect x="1270.31" y="588.50" width="90.25" height="90.25" rx="2" ry="2" fill="#eef5ff" stroke="#467cc0" stroke-width="1" fill-opacity="0.86"/>
<text x="1315.44" y="637.09" text-anchor="middle" font-family="Arial" font-size="10" fill="#101010">RCtrl</text>
<rect x="1365.56" y="588.50" width="90.25" height="90.25" rx="2" ry="2" fill="#eef5ff" stroke="#467cc0" stroke-width="1" fill-opacity="0.86"/>
<text x="1410.69" y="637.09" text-anchor="middle" font-family="Arial" font-size="10" fill="#101010">Left</text>
<rect x="1460.81" y="588.50" width="90.25" height="90.25" rx="2" ry="2" fill="#eef5ff" stroke="#467cc0" stroke-width="1" fill-opacity="0.86"/>
<text x="1505.94" y="637.09" text-anchor="middle" font-family="Arial" font-size="10" fill="#101010">Down</text>
<rect x="1556.06" y="588.50" width="90.25" height="90.25" rx="2" ry="2" fill="#eef5ff" stroke="#467cc0" stroke-width="1" fill-opacity="0.86"/>
<text x="1601.19" y="637.09" text-anchor="middle" font-family="Arial" font-size="10" fill="#101010">Right</text>
<rect x="865.28" y="61.05" width="148.70" height="97.90" fill="none" stroke="#252525" stroke-width="1.5" stroke-dasharray="4 3"/>
<text x="939.62" y="57.05" text-anchor="middle" font-family="Arial" font-size="9" fill="#222">U1</text>
<circle cx="799.03" cy="500.85" r="7" fill="white" stroke="#555" stroke-width="1"/>
<circle cx="1528.38" cy="474.65" r="7" fill="white" stroke="#555" stroke-width="1"/>
<circle cx="1042.73" cy="287.65" r="7" fill="white" stroke="#555" stroke-width="1"/>
<circle cx="1530.88" cy="342.65" r="7" fill="white" stroke="#555" stroke-width="1"/>
<circle cx="1555.88" cy="516.60" r="7" fill="white" stroke="#555" stroke-width="1"/>
<circle cx="1258.08" cy="574.10" r="7" fill="white" stroke="#555" stroke-width="1"/>
<circle cx="1235.58" cy="285.15" r="7" fill="white" stroke="#555" stroke-width="1"/>
<circle cx="801.53" cy="587.85" r="7" fill="white" stroke="#555" stroke-width="1"/>
<circle cx="1185.58" cy="494.65" r="7" fill="white" stroke="#555" stroke-width="1"/>
<g id="key-horizontal-clearance" data-key-horizontal-clearance-mm="1.8000" data-left-key="6" data-right-key="Y">
<line x1="707.12" y1="300.25" x2="716.12" y2="300.25" stroke="#1c5fb8" stroke-width="2.4"/>
<line x1="707.12" y1="300.25" x2="713.12" y2="296.25" stroke="#1c5fb8" stroke-width="2.4"/>
<line x1="707.12" y1="300.25" x2="713.12" y2="304.25" stroke="#1c5fb8" stroke-width="2.4"/>
<line x1="716.12" y1="300.25" x2="710.12" y2="296.25" stroke="#1c5fb8" stroke-width="2.4"/>
<line x1="716.12" y1="300.25" x2="710.12" y2="304.25" stroke="#1c5fb8" stroke-width="2.4"/>
<text x="711.62" y="292.25" text-anchor="middle" font-family="Arial" font-size="10" fill="#123e7d">6-Y X 1.8 mm</text>
</g>
</svg>
