<svg xmlns="http://www.w3.org/2000/svg" width="1724" height="749" viewBox="0 0 1724 749">
<rect width="100%" height="100%" fill="#f7f5ee"/>
<g id="interlock-clearance" data-placement-mode="interlock-clearance" data-clearance-mm="1.0000" data-clearance-width-px="5.00" data-measurement-width-px="5.00" data-key-horizontal-clearance-mm="1.8000" data-interlock-overlap-mm="13.2875">
<polygon points="706.19,40.62 708.74,41.88 709.99,43.12 710.79,44.38 711.33,45.62 711.72,46.88 711.85,48.12 711.99,49.38 712.06,50.62 712.06,51.88 712.06,53.12 712.06,54.38 712.06,55.62 712.06,56.88 712.06,58.12 712.06,59.38 712.06,60.62 712.06,61.88 712.06,63.12 712.06,64.38 712.06,65.62 712.06,66.88 712.06,68.12 712.06,69.38 712.06,70.62 712.06,71.88 712.06,73.12 712.06,74.38 712.06,75.62 712.06,76.88 712.06,78.12 712.06,79.38 712.06,80.62 712.06,81.88 712.06,83.12 712.06,84.38 712.06,85.62 712.06,86.88 712.06,88.12 712.06,89.38 712.06,90.62 712.06,91.88 712.06,93.12 712.06,94.38 712.06,95.62 712.06,96.88 712.06,98.12 712.06,99.38 712.06,100.62 712.06,101.88 712.06,103.12 712.06,104.38 712.06,105.62 712.06,106.88 712.06,108.12 712.06,109.38 712.06,110.62 712.06,111.88 712.06,113.12 712.06,114.38 712.06,115.62 712.06,116.88 712.06,118.12 712.06,119.38 712.06,120.62 712.06,121.88 712.06,123.12 712.06,124.38 712.06,125.62 712.06,126.88 712.06,128.12 712.06,129.38 712.06,130.62 712.06,131.88 712.06,133.12 712.06,134.38 712.06,135.62 712.06,136.88 712.06,138.12 712.06,139.38 712.06,140.62 712.06,141.88 712.06,143.12 712.06,144.38 712.06,145.62 712.06,146.88 712.06,148.12 712.06,149.38 712.06,150.62 712.06,151.88 712.06,153.12 712.06,154.38 712.06,155.62 712.06,156.88 712.06,158.12 712.06,159.38 712.06,160.62 712.06,161.88 712.06,163.12 712.06,164.38 712.06,165.62 712.06,166.88 712.13,168.12 712.27,169.38 712.41,170.62 712.79,171.88 713.33,173.12 714.14,174.38 715.39,175.62 717.94,176.88 746.37,178.12 748.92,179.38 750.17,180.62 750.98,181.88 751.52,183.12 751.90,184.38 752.04,185.62 752.18,186.88 752.25,188.12 752.25,189.38 752.25,190.62 752.25,191.88 752.25,193.12 752.25,194.38 752.25,195.62 752.25,196.88 752.25,198.12 752.25,199.38 752.25,200.62 752.25,201.88 752.25,203.12 752.25,204.38 752.25,205.62 752.25,206.88 752.25,208.12 752.25,209.38 752.25,210.62 752.25,211.88 752.25,213.12 752.25,214.38 752.25,215.62 752.25,216.88 752.25,218.12 752.25,219.38 752.25,220.62 752.25,221.88 752.25,223.12 752.25,224.38 752.25,225.62 752.25,226.88 752.25,228.12 752.25,229.38 752.25,230.62 752.25,231.88 752.25,233.12 752.25,234.38 752.25,235.62 752.25,236.88 752.25,238.12 752.25,239.38 752.25,240.62 752.25,241.88 752.25,243.12 752.25,244.38 752.25,245.62 752.25,246.88 752.25,248.12 752.25,249.38 752.25,250.62 752.25,251.88 752.25,253.12 752.25,254.38 752.25,255.62 752.25,256.88 752.25,258.12 752.25,259.38 752.25,260.62 752.25,261.88 752.25,263.12 752.25,264.38 752.25,265.62 752.25,266.88 752.25,268.12 752.25,269.38 752.25,270.62 752.25,271.88 752.25,273.12 752.25,274.38 752.25,275.62 752.25,276.88 752.25,278.12 752.25,279.38 752.25,280.62 752.25,281.88 752.25,283.12 752.25,284.38 752.25,285.62 752.25,286.88 752.25,288.12 752.25,289.38 752.21,290.62 752.07,291.88 751.93,293.12 751.62,294.38 751.09,295.62 750.42,296.88 749.17,298.12 746.96,299.38 711.25,300.62 708.20,301.88 706.95,303.12 706.00,304.38 705.46,305.62 705.00,306.88 704.86,308.12 704.72,309.38 704.62,310.62 704.62,311.88 704.62,313.12 704.62,314.38 704.62,315.62 704.62,316.88 704.62,318.12 704.62,319.38 704.62,320.62 704.62,321.88 704.62,323.12 704.62,324.38 704.62,325.62 704.62,326.88 704.62,328.12 704.62,329.38 704.62,330.62 704.62,331.88 704.62,333.12 704.62,334.38 704.62,335.62 704.62,336.88 704.62,338.12 704.62,339.38 704.62,340.62 704.62,341.88 704.62,343.12 704.62,344.38 704.62,345.62 704.62,346.88 704.62,348.12 704.62,349.38 704.62,350.62 704.62,351.88 704.62,353.12 704.62,354.38 704.62,355.62 704.62,356.88 704.62,358.12 704.62,359.38 704.62,360.62 704.62,361.88 704.62,363.12 704.62,364.38 704.62,365.62 704.62,366.88 704.62,368.12 704.62,369.38 704.62,370.62 704.62,371.88 704.62,373.12 704.62,374.38 704.62,375.62 704.62,376.88 704.62,378.12 704.62,379.38 704.62,380.62 704.62,381.88 704.62,383.12 704.62,384.38 704.64,385.62 704.78,386.88 704.92,388.12 705.14,389.38 705.68,390.62 706.21,391.88 707.45,393.12 709.33,394.38 719.56,395.62 724.31,396.88 725.86,398.12 726.96,399.38 727.49,400.62 728.03,401.88 728.17,403.12 728.31,404.38 728.44,405.62 728.44,406.88 728.44,408.12 728.44,409.38 728.44,410.62 728.44,411.88 728.44,413.12 728.44,414.38 728.44,415.62 728.44,416.88 728.44,418.12 728.44,419.38 728.44,420.62 728.44,421.88 728.44,423.12 728.44,424.38 728.44,425.62 728.44,426.88 728.44,428.12 728.44,429.38 728.44,430.62 728.44,431.88 728.44,433.12 728.44,434.38 728.44,435.62 728.44,436.88 728.44,438.12 728.44,439.38 728.44,440.62 728.44,441.88 728.44,443.12 728.44,444.38 728.44,445.62 728.44,446.88 728.44,448.12 728.44,449.38 728.44,450.62 728.44,451.88 728.44,453.12 728.44,454.38 728.44,455.62 728.44,456.88 728.44,458.12 728.44,459.38 728.44,460.62 728.44,461.88 728.44,463.12 728.44,464.38 728.44,465.62 728.44,466.88 728.44,468.12 728.44,469.38 728.44,470.62 728.44,471.88 728.44,473.12 728.44,474.38 728.44,475.62 728.44,476.88 728.44,478.12 728.44,479.38 728.44,480.62 728.56,481.88 728.70,483.12 728.85,484.38 729.38,485.62 729.92,486.88 731.01,488.12 732.56,489.38 737.31,490.62 771.35,491.88 773.24,493.12 774.47,494.38 775.01,495.62 775.54,496.88 775.77,498.12 775.91,499.38 776.05,500.62 776.06,501.88 776.06,503.12 776.06,504.38 776.06,505.62 776.06,506.88 776.06,508.12 776.06,509.38 776.06,510.62 776.06,511.88 776.06,513.12 776.06,514.38 776.06,515.62 776.06,516.88 776.06,518.12 776.06,519.38 776.06,520.62 776.06,521.88 776.06,523.12 776.06,524.38 776.06,525.62 776.06,526.88 776.06,528.12 776.06,529.38 776.06,530.62 776.06,531.88 776.06,533.12 776.06,534.38 776.06,535.62 776.06,536.88 776.06,538.12 776.06,539.38 776.06,540.62 776.06,541.88 776.06,543.12 776.06,544.38 776.06,545.62 776.06,546.88 776.06,548.12 776.06,549.38 776.06,550.62 776.06,551.88 776.06,553.12 776.06,554.38 776.06,555.62 776.06,556.88 776.06,558.12 776.06,559.38 776.06,560.62 776.06,561.88 776.06,563.12 776.06,564.38 776.06,565.62 776.06,566.88 776.06,568.12 776.06,569.38 776.06,570.62 776.06,571.88 776.06,573.12 776.06,574.38 776.06,575.62 776.06,576.88 776.06,578.12 776.06,579.38 776.06,580.62 776.06,581.88 776.06,583.12 776.06,584.38 776.06,585.62 776.06,586.88 776.06,588.12 776.06,589.38 776.06,590.62 776.06,591.88 776.06,593.12 776.06,594.38 776.06,595.62 776.06,596.88 776.06,598.12 776.06,599.38 776.06,600.62 776.06,601.88 776.06,603.12 776.06,604.38 776.06,605.62 776.06,606.88 776.06,608.12 776.06,609.38 776.06,610.62 776.06,611.88 776.06,613.12 776.06,614.38 776.06,615.62 776.06,616.88 776.06,618.12 776.06,619.38 776.06,620.62 776.06,621.88 776.06,623.12 776.06,624.38 776.06,625.62 776.06,626.88 776.06,628.12 776.06,629.38 776.06,630.62 776.06,631.88 776.06,633.12 776.06,634.38 776.06,635.62 776.06,636.88 776.06,638.12 776.06,639.38 776.06,640.62 776.06,641.88 776.06,643.12 776.06,644.38 776.06,645.62 776.06,646.88 776.06,648.12 776.06,649.38 776.06,650.62 776.06,651.88 776.06,653.12 776.06,654.38 776.06,655.62 776.06,656.88 776.06,658.12 776.06,659.38 776.06,660.62 776.06,661.88 776.06,663.12 776.06,664.38 776.06,665.62 776.06,666.88 776.06,668.12 776.06,669.38 776.06,670.62 776.06,671.88 776.06,673.12 776.06,674.38 776.06,675.62 776.06,676.88 776.06,678.12 776.06,679.38 776.06,680.62 776.06,681.88 776.06,683.12 776.06,684.38 776.06,685.62 776.06,686.88 776.06,688.12 776.06,689.38 776.06,690.62 776.06,691.88 776.06,693.12 776.06,694.38 776.06,695.62 776.06,696.88 776.06,698.12 775.99,699.38 775.85,700.62 775.72,701.88 775.33,703.12 774.79,704.38 773.99,705.62 772.74,706.88 770.19,708.12 786.94,708.12 784.39,706.88 783.14,705.62 782.33,704.38 781.79,703.12 781.41,701.88 781.27,700.62 781.13,699.38 781.06,698.12 781.06,696.88 781.06,695.62 781.06,694.38 781.06,693.12 781.06,691.88 781.06,690.62 781.06,689.38 781.06,688.12 781.06,686.88 781.06,685.62 781.06,684.38 781.06,683.12 781.06,681.88 781.06,680.62 781.06,679.38 781.06,678.12 781.06,676.88 781.06,675.62 781.06,674.38 781.06,673.12 781.06,671.88 781.06,670.62 781.06,669.38 781.06,668.12 781.06,666.88 781.06,665.62 781.06,664.38 781.06,663.12 781.06,661.88 781.06,660.62 781.06,659.38 781.06,658.12 781.06,656.88 781.06,655.62 781.06,654.38 781.06,653.12 781.06,651.88 781.06,650.62 781.06,649.38 781.06,648.12 781.06,646.88 781.06,645.62 781.06,644.38 781.06,643.12 781.06,641.88 781.06,640.62 781.06,639.38 781.06,638.12 781.06,636.88 781.06,635.62 781.06,634.38 781.06,633.12 781.06,631.88 781.06,630.62 781.06,629.38 781.06,628.12 781.06,626.88 781.06,625.62 781.06,624.38 781.06,623.12 781.06,621.88 781.06,620.62 781.06,619.38 781.06,618.12 781.06,616.88 781.06,615.62 781.06,614.38 781.06,613.12 781.06,611.88 781.06,610.62 781.06,609.38 781.06,608.12 781.06,606.88 781.06,605.62 781.06,604.38 781.06,603.12 781.06,601.88 781.06,600.62 781.06,599.38 781.06,598.12 781.06,596.88 781.06,595.62 781.06,594.38 781.06,593.12 781.06,591.88 781.06,590.62 781.06,589.38 781.06,588.12 781.06,586.88 781.06,585.62 781.06,584.38 781.06,583.12 781.06,581.88 781.06,580.62 781.06,579.38 781.06,578.12 781.06,576.88 781.06,575.62 781.06,574.38 781.06,573.12 781.06,571.88 781.06,570.62 781.06,569.38 781.06,568.12 781.06,566.88 781.06,565.62 781.06,564.38 781.06,563.12 781.06,561.88 781.06,560.62 781.06,559.38 781.06,558.12 781.06,556.88 781.06,555.62 781.06,554.38 781.06,553.12 781.06,551.88 781.06,550.62 781.06,549.38 781.06,548.12 781.06,546.88 781.06,545.62 781.06,544.38 781.06,543.12 781.06,541.88 781.06,540.62 781.06,539.38 781.06,538.12 781.06,536.88 781.06,535.62 781.06,534.38 781.06,533.12 781.06,531.88 781.06,530.62 781.06,529.38 781.06,528.12 781.06,526.88 781.06,525.62 781.06,524.38 781.06,523.12 781.06,521.88 781.06,520.62 781.06,519.38 781.06,518.12 781.06,516.88 781.06,515.62 781.06,514.38 781.06,513.12 781.06,511.88 781.06,510.62 781.06,509.38 781.06,508.12 781.06,506.88 781.06,505.62 781.06,504.38 781.06,503.12 781.06,501.88 781.05,500.62 780.91,499.38 780.77,498.12 780.54,496.88 780.01,495.62 779.47,494.38 778.24,493.12 776.35,491.88 745.06,490.62 737.56,489.38 736.01,488.12 734.92,486.88 734.38,485.62 733.85,484.38 733.70,483.12 733.56,481.88 733.44,480.62 733.44,479.38 733.44,478.12 733.44,476.88 733.44,475.62 733.44,474.38 733.44,473.12 733.44,471.88 733.44,470.62 733.44,469.38 733.44,468.12 733.44,466.88 733.44,465.62 733.44,464.38 733.44,463.12 733.44,461.88 733.44,460.62 733.44,459.38 733.44,458.12 733.44,456.88 733.44,455.62 733.44,454.38 733.44,453.12 733.44,451.88 733.44,450.62 733.44,449.38 733.44,448.12 733.44,446.88 733.44,445.62 733.44,444.38 733.44,443.12 733.44,441.88 733.44,440.62 733.44,439.38 733.44,438.12 733.44,436.88 733.44,435.62 733.44,434.38 733.44,433.12 733.44,431.88 733.44,430.62 733.44,429.38 733.44,428.12 733.44,426.88 733.44,425.62 733.44,424.38 733.44,423.12 733.44,421.88 733.44,420.62 733.44,419.38 733.44,418.12 733.44,416.88 733.44,415.62 733.44,414.38 733.44,413.12 733.44,411.88 733.44,410.62 733.44,409.38 733.44,408.12 733.44,406.88 733.44,405.62 733.31,404.38 733.17,403.12 733.03,401.88 732.49,400.62 731.96,399.38 730.86,398.12 729.31,396.88 724.56,395.62 714.33,394.38 712.45,393.12 711.21,391.88 710.68,390.62 710.14,389.38 709.92,388.12 709.78,386.88 709.64,385.62 709.62,384.38 709.62,383.12 709.62,381.88 709.62,380.62 709.62,379.38 709.62,378.12 709.62,376.88 709.62,375.62 709.62,374.38 709.62,373.12 709.62,371.88 709.62,370.62 709.62,369.38 709.62,368.12 709.62,366.88 709.62,365.62 709.62,364.38 709.62,363.12 709.62,361.88 709.62,360.62 709.62,359.38 709.62,358.12 709.62,356.88 709.62,355.62 709.62,354.38 709.62,353.12 709.62,351.88 709.62,350.62 709.62,349.38 709.62,348.12 709.62,346.88 709.62,345.62 709.62,344.38 709.62,343.12 709.62,341.88 709.62,340.62 709.62,339.38 709.62,338.12 709.62,336.88 709.62,335.62 709.62,334.38 709.62,333.12 709.62,331.88 709.62,330.62 709.62,329.38 709.62,328.12 709.62,326.88 709.62,325.62 709.62,324.38 709.62,323.12 709.62,321.88 709.62,320.62 709.62,319.38 709.62,318.12 709.62,316.88 709.62,315.62 709.62,314.38 709.62,313.12 709.62,311.88 709.62,310.62 709.72,309.38 709.86,308.12 710.00,306.88 710.46,305.62 711.00,304.38 711.95,303.12 713.20,301.88 716.50,300.62 751.96,299.38 754.18,298.12 755.43,296.88 756.09,295.62 756.63,294.38 756.93,293.12 757.07,291.88 757.21,290.62 757.25,289.38 757.25,288.12 757.25,286.88 757.25,285.62 757.25,284.38 757.25,283.12 757.25,281.88 757.25,280.62 757.25,279.38 757.25,278.12 757.25,276.88 757.25,275.62 757.25,274.38 757.25,273.12 757.25,271.88 757.25,270.62 757.25,269.38 757.25,268.12 757.25,266.88 757.25,265.62 757.25,264.38 757.25,263.12 757.25,261.88 757.25,260.62 757.25,259.38 757.25,258.12 757.25,256.88 757.25,255.62 757.25,254.38 757.25,253.12 757.25,251.88 757.25,250.62 757.25,249.38 757.25,248.12 757.25,246.88 757.25,245.62 757.25,244.38 757.25,243.12 757.25,241.88 757.25,240.62 757.25,239.38 757.25,238.12 757.25,236.88 757.25,235.62 757.25,234.38 757.25,233.12 757.25,231.88 757.25,230.62 757.25,229.38 757.25,228.12 757.25,226.88 757.25,225.62 757.25,224.38 757.25,223.12 757.25,221.88 757.25,220.62 757.25,219.38 757.25,218.12 757.25,216.88 757.25,215.62 757.25,214.38 757.25,213.12 757.25,211.88 757.25,210.62 757.25,209.38 757.25,208.12 757.25,206.88 757.25,205.62 757.25,204.38 757.25,203.12 757.25,201.88 757.25,200.62 757.25,199.38 757.25,198.12 757.25,196.88 757.25,195.62 757.25,194.38 757.25,193.12 757.25,191.88 757.25,190.62 757.25,189.38 757.25,188.12 757.25,186.88 757.29,185.62 757.43,184.38 757.57,183.12 757.88,181.88 758.41,180.62 759.07,179.38 760.32,178.12 762.54,176.88 792.00,175.62 795.05,174.38 796.30,173.12 797.25,171.88 797.79,170.62 798.25,169.38 798.39,168.12 798.53,166.88 798.63,165.62 798.63,164.38 798.63,163.12 798.63,161.88 798.63,160.62 798.63,159.38 798.63,158.12 798.63,156.88 798.63,155.62 798.63,154.38 798.63,153.12 798.63,151.88 798.63,150.62 798.63,149.38 798.63,148.12 798.63,146.88 798.63,145.62 798.63,144.38 798.63,143.12 798.63,141.88 798.63,140.62 798.63,139.38 798.63,138.12 798.63,136.88 798.63,135.62 798.63,134.38 798.63,133.12 798.63,131.88 798.63,130.62 798.63,129.38 798.63,128.12 798.63,126.88 798.63,125.62 798.63,124.38 798.63,123.12 798.63,121.88 798.63,120.62 798.63,119.38 798.63,118.12 798.63,116.88 798.63,115.62 798.63,114.38 798.63,113.12 798.63,111.88 798.63,110.62 798.63,109.38 798.63,108.12 798.63,106.88 798.63,105.62 798.63,104.38 798.63,103.12 798.63,101.88 798.63,100.62 798.63,99.38 798.63,98.12 798.63,96.88 798.63,95.62 798.63,94.38 798.63,93.12 798.63,91.88 798.63,90.62 798.63,89.38 798.63,88.12 798.63,86.88 798.63,85.62 798.63,84.38 798.63,83.12 798.63,81.88 798.63,80.62 798.63,79.38 798.63,78.12 798.63,76.88 798.63,75.62 798.63,74.38 798.63,73.12 798.63,71.88 798.63,70.62 798.63,69.38 798.63,68.12 798.63,66.88 798.63,65.62 798.63,64.38 798.63,63.12 798.63,61.88 798.63,60.62 798.63,59.38 798.63,58.12 798.63,56.88 798.63,55.62 798.63,54.38 798.63,53.12 798.63,51.88 798.63,50.62 798.69,49.38 798.83,48.12 798.97,46.88 799.36,45.62 799.89,44.38 800.70,43.12 801.95,41.88 804.50,40.62" fill="#f6b8a9" fill-opacity="0.55" stroke="none"/>
</g>
<rect x="8" y="8" width="760" height="48" fill="#f7f5ee" fill-opacity="0.94" stroke="none"/>
<text x="16" y="24" font-family="Arial" font-size="15" fill="#222">KC2 X3 interlocked joined top view, board-coordinate composite</text>
<text x="16" y="44" font-family="Arial" font-size="11" fill="#555">Scale: 5 px/mm. Min Edge.Cuts clearance: 1.00 mm. Interlock overlap: 13.29 mm.</text>
<line x1="704.62" y1="347.88" x2="709.62" y2="347.88" stroke="#d33b2f" stroke-width="2"/>
<line x1="704.62" y1="341.88" x2="704.62" y2="353.88" stroke="#d33b2f" stroke-width="2"/>
<line x1="709.62" y1="341.88" x2="709.62" y2="353.88" stroke="#d33b2f" stroke-width="2"/>
<text x="707.12" y="339.88" text-anchor="middle" font-family="Arial" font-size="10" fill="#8b2318">1.0 mm</text>
<line x1="40.00" y1="187.50" x2="40.40" y2="183.90" stroke="#102018" stroke-width="2" fill="none"/>
<line x1="40.00" y1="195.00" x2="40.00" y2="187.50" stroke="#102018" stroke-width="2" fill="none"/>
<line x1="40.00" y1="199.00" x2="40.00" y2="195.00" stroke="#102018" stroke-width="2" fill="none"/>
<line x1="40.00" y1="203.00" x2="40.00" y2="199.00" stroke="#102018" stroke-width="2" fill="none"/>
<line x1="40.00" y1="207.00" x2="40.00" y2="203.00" stroke="#102018" stroke-width="2" fill="none"/>
<line x1="40.00" y1="211.00" x2="40.00" y2="207.00" stroke="#102018" stroke-width="2" fill="none"/>
<line x1="40.00" y1="215.00" x2="40.00" y2="211.00" stroke="#102018" stroke-width="2" fill="none"/>
<line x1="40.00" y1="290.25" x2="40.00" y2="215.00" stroke="#102018" stroke-width="2" fill="none"/>
<line x1="40.00" y1="294.25" x2="40.00" y2="290.25" stroke="#102018" stroke-width="2" fill="none"/>
<line x1="40.00" y1="298.25" x2="40.00" y2="294.25" stroke="#102018" stroke-width="2" fill="none"/>
<line x1="40.00" y1="302.25" x2="40.00" y2="298.25" stroke="#102018" stroke-width="2" fill="none"/>
<line x1="40.00" y1="306.25" x2="40.00" y2="302.25" stroke="#102018" stroke-width="2" fill="none"/>
<line x1="40.00" y1="310.25" x2="40.00" y2="306.25" stroke="#102018" stroke-width="2" fill="none"/>
<line x1="40.00" y1="385.50" x2="40.00" y2="310.25" stroke="#102018" stroke-width="2" fill="none"/>
<line x1="40.00" y1="389.50" x2="40.00" y2="385.50" stroke="#102018" stroke-width="2" fill="none"/>
<line x1="40.00" y1="393.50" x2="40.00" y2="389.50" stroke="#102018" stroke-width="2" fill="none"/>
<line x1="40.00" y1="397.50" x2="40.00" y2="393.50" stroke="#102018" stroke-width="2" fill="none"/>
<line x1="40.00" y1="401.50" x2="40.00" y2="397.50" stroke="#102018" stroke-width="2" fill="none"/>
<line x1="40.00" y1="405.50" x2="40.00" y2="401.50" stroke="#102018" stroke-width="2" fill="none"/>
<line x1="40.00" y1="480.75" x2="40.00" y2="405.50" stroke="#102018" stroke-width="2" fill="none"/>
<line x1="40.00" y1="484.75" x2="40.00" y2="480.75" stroke="#102018" stroke-width="2" fill="none"/>
<line x1="40.00" y1="488.75" x2="40.00" y2="484.75" stroke="#102018" stroke-width="2" fill="none"/>
<line x1="40.00" y1="492.75" x2="40.00" y2="488.75" stroke="#102018" stroke-width="2" fill="none"/>
<line x1="40.00" y1="496.75" x2="40.00" y2="492.75" stroke="#102018" stroke-width="2" fill="none"/>
<line x1="40.00" y1="500.75" x2="40.00" y2="496.75" stroke="#102018" stroke-width="2" fill="none"/>
<line x1="40.00" y1="576.00" x2="40.00" y2="500.75" stroke="#102018" stroke-width="2" fill="none"/>
<line x1="40.00" y1="580.00" x2="40.00" y2="576.00" stroke="#102018" stroke-width="2" fill="none"/>
<line x1="40.00" y1="584.00" x2="40.00" y2="580.00" stroke="#102018" stroke-width="2" fill="none"/>
<line x1="40.00" y1="588.00" x2="40.00" y2="584.00" stroke="#102018" stroke-width="2" fill="none"/>
<line x1="40.00" y1="592.00" x2="40.00" y2="588.00" stroke="#102018" stroke-width="2" fill="none"/>
<line x1="40.00" y1="596.00" x2="40.00" y2="592.00" stroke="#102018" stroke-width="2" fill="none"/>
<line x1="40.00" y1="698.75" x2="40.00" y2="596.00" stroke="#102018" stroke-width="2" fill="none"/>
<line x1="40.40" y1="183.90" x2="41.60" y2="181.10" stroke="#102018" stroke-width="2" fill="none"/>
<line x1="40.40" y1="702.35" x2="40.00" y2="698.75" stroke="#102018" stroke-width="2" fill="none"/>
<line x1="41.60" y1="181.10" x2="43.60" y2="179.10" stroke="#102018" stroke-width="2" fill="none"/>
<line x1="41.60" y1="705.15" x2="40.40" y2="702.35" stroke="#102018" stroke-width="2" fill="none"/>
<line x1="43.60" y1="179.10" x2="46.40" y2="177.90" stroke="#102018" stroke-width="2" fill="none"/>
<line x1="43.60" y1="707.15" x2="41.60" y2="705.15" stroke="#102018" stroke-width="2" fill="none"/>
<line x1="46.40" y1="177.90" x2="50.00" y2="177.50" stroke="#102018" stroke-width="2" fill="none"/>
<line x1="46.40" y1="708.35" x2="43.60" y2="707.15" stroke="#102018" stroke-width="2" fill="none"/>
<line x1="50.00" y1="177.50" x2="342.06" y2="177.50" stroke="#102018" stroke-width="2" fill="none"/>
<line x1="50.00" y1="708.75" x2="46.40" y2="708.35" stroke="#102018" stroke-width="2" fill="none"/>
<line x1="342.06" y1="177.50" x2="345.66" y2="177.10" stroke="#102018" stroke-width="2" fill="none"/>
<line x1="345.66" y1="177.10" x2="348.46" y2="175.90" stroke="#102018" stroke-width="2" fill="none"/>
<line x1="348.46" y1="175.90" x2="350.46" y2="173.90" stroke="#102018" stroke-width="2" fill="none"/>
<line x1="350.46" y1="173.90" x2="351.66" y2="171.10" stroke="#102018" stroke-width="2" fill="none"/>
<line x1="351.66" y1="171.10" x2="352.06" y2="167.50" stroke="#102018" stroke-width="2" fill="none"/>
<line x1="352.06" y1="50.00" x2="352.46" y2="46.40" stroke="#102018" stroke-width="2" fill="none"/>
<line x1="352.06" y1="167.50" x2="352.06" y2="50.00" stroke="#102018" stroke-width="2" fill="none"/>
<line x1="352.46" y1="46.40" x2="353.66" y2="43.60" stroke="#102018" stroke-width="2" fill="none"/>
<line x1="353.66" y1="43.60" x2="355.66" y2="41.60" stroke="#102018" stroke-width="2" fill="none"/>
<line x1="355.66" y1="41.60" x2="358.46" y2="40.40" stroke="#102018" stroke-width="2" fill="none"/>
<line x1="358.46" y1="40.40" x2="362.06" y2="40.00" stroke="#102018" stroke-width="2" fill="none"/>
<line x1="362.06" y1="40.00" x2="702.06" y2="40.00" stroke="#102018" stroke-width="2" fill="none"/>
<line x1="702.06" y1="40.00" x2="705.66" y2="40.40" stroke="#102018" stroke-width="2" fill="none"/>
<line x1="704.62" y1="310.25" x2="704.62" y2="385.50" stroke="#102018" stroke-width="2" fill="none"/>
<line x1="704.62" y1="385.50" x2="705.02" y2="389.10" stroke="#102018" stroke-width="2" fill="none"/>
<line x1="705.02" y1="306.65" x2="704.62" y2="310.25" stroke="#102018" stroke-width="2" fill="none"/>
<line x1="705.02" y1="389.10" x2="706.23" y2="391.90" stroke="#102018" stroke-width="2" fill="none"/>
<line x1="705.66" y1="40.40" x2="708.46" y2="41.60" stroke="#102018" stroke-width="2" fill="none"/>
<line x1="706.23" y1="303.85" x2="705.02" y2="306.65" stroke="#102018" stroke-width="2" fill="none"/>
<line x1="706.23" y1="391.90" x2="708.22" y2="393.90" stroke="#102018" stroke-width="2" fill="none"/>
<line x1="708.23" y1="301.85" x2="706.23" y2="303.85" stroke="#102018" stroke-width="2" fill="none"/>
<line x1="708.22" y1="393.90" x2="711.03" y2="395.10" stroke="#102018" stroke-width="2" fill="none"/>
<line x1="708.46" y1="41.60" x2="710.46" y2="43.60" stroke="#102018" stroke-width="2" fill="none"/>
<line x1="710.46" y1="43.60" x2="711.66" y2="46.40" stroke="#102018" stroke-width="2" fill="none"/>
<line x1="711.03" y1="300.65" x2="708.23" y2="301.85" stroke="#102018" stroke-width="2" fill="none"/>
<line x1="711.03" y1="395.10" x2="714.62" y2="395.50" stroke="#102018" stroke-width="2" fill="none"/>
<line x1="711.66" y1="46.40" x2="712.06" y2="50.00" stroke="#102018" stroke-width="2" fill="none"/>
<line x1="712.06" y1="50.00" x2="712.06" y2="167.50" stroke="#102018" stroke-width="2" fill="none"/>
<line x1="712.06" y1="167.50" x2="712.46" y2="171.10" stroke="#102018" stroke-width="2" fill="none"/>
<line x1="712.46" y1="171.10" x2="713.66" y2="173.90" stroke="#102018" stroke-width="2" fill="none"/>
<line x1="713.66" y1="173.90" x2="715.66" y2="175.90" stroke="#102018" stroke-width="2" fill="none"/>
<line x1="714.62" y1="300.25" x2="711.03" y2="300.65" stroke="#102018" stroke-width="2" fill="none"/>
<line x1="714.62" y1="395.50" x2="718.44" y2="395.50" stroke="#102018" stroke-width="2" fill="none"/>
<line x1="715.66" y1="175.90" x2="718.46" y2="177.10" stroke="#102018" stroke-width="2" fill="none"/>
<line x1="718.44" y1="395.50" x2="722.04" y2="395.90" stroke="#102018" stroke-width="2" fill="none"/>
<line x1="718.46" y1="177.10" x2="722.06" y2="177.50" stroke="#102018" stroke-width="2" fill="none"/>
<line x1="722.04" y1="395.90" x2="724.84" y2="397.10" stroke="#102018" stroke-width="2" fill="none"/>
<line x1="722.06" y1="177.50" x2="742.25" y2="177.50" stroke="#102018" stroke-width="2" fill="none"/>
<line x1="724.84" y1="397.10" x2="726.84" y2="399.10" stroke="#102018" stroke-width="2" fill="none"/>
<line x1="726.84" y1="399.10" x2="728.04" y2="401.90" stroke="#102018" stroke-width="2" fill="none"/>
<line x1="728.04" y1="401.90" x2="728.44" y2="405.50" stroke="#102018" stroke-width="2" fill="none"/>
<line x1="728.44" y1="405.50" x2="728.44" y2="480.75" stroke="#102018" stroke-width="2" fill="none"/>
<line x1="728.44" y1="480.75" x2="728.84" y2="484.35" stroke="#102018" stroke-width="2" fill="none"/>
<line x1="728.84" y1="484.35" x2="730.04" y2="487.15" stroke="#102018" stroke-width="2" fill="none"/>
<line x1="730.04" y1="487.15" x2="732.04" y2="489.15" stroke="#102018" stroke-width="2" fill="none"/>
<line x1="732.04" y1="489.15" x2="734.84" y2="490.35" stroke="#102018" stroke-width="2" fill="none"/>
<line x1="734.84" y1="490.35" x2="738.44" y2="490.75" stroke="#102018" stroke-width="2" fill="none"/>
<line x1="738.44" y1="490.75" x2="766.06" y2="490.75" stroke="#102018" stroke-width="2" fill="none"/>
<line x1="742.25" y1="177.50" x2="745.85" y2="177.90" stroke="#102018" stroke-width="2" fill="none"/>
<line x1="742.25" y1="300.25" x2="714.62" y2="300.25" stroke="#102018" stroke-width="2" fill="none"/>
<line x1="745.85" y1="177.90" x2="748.65" y2="179.10" stroke="#102018" stroke-width="2" fill="none"/>
<line x1="745.85" y1="299.85" x2="742.25" y2="300.25" stroke="#102018" stroke-width="2" fill="none"/>
<line x1="748.65" y1="179.10" x2="750.65" y2="181.10" stroke="#102018" stroke-width="2" fill="none"/>
<line x1="748.65" y1="298.65" x2="745.85" y2="299.85" stroke="#102018" stroke-width="2" fill="none"/>
<line x1="750.65" y1="181.10" x2="751.85" y2="183.90" stroke="#102018" stroke-width="2" fill="none"/>
<line x1="750.65" y1="296.65" x2="748.65" y2="298.65" stroke="#102018" stroke-width="2" fill="none"/>
<line x1="751.85" y1="183.90" x2="752.25" y2="187.50" stroke="#102018" stroke-width="2" fill="none"/>
<line x1="751.85" y1="293.85" x2="750.65" y2="296.65" stroke="#102018" stroke-width="2" fill="none"/>
<line x1="752.25" y1="187.50" x2="752.25" y2="290.25" stroke="#102018" stroke-width="2" fill="none"/>
<line x1="752.25" y1="290.25" x2="751.85" y2="293.85" stroke="#102018" stroke-width="2" fill="none"/>
<line x1="766.06" y1="490.75" x2="769.66" y2="491.15" stroke="#102018" stroke-width="2" fill="none"/>
<line x1="766.06" y1="708.75" x2="50.00" y2="708.75" stroke="#102018" stroke-width="2" fill="none"/>
<line x1="769.66" y1="491.15" x2="772.46" y2="492.35" stroke="#102018" stroke-width="2" fill="none"/>
<line x1="769.66" y1="708.35" x2="766.06" y2="708.75" stroke="#102018" stroke-width="2" fill="none"/>
<line x1="772.46" y1="492.35" x2="774.46" y2="494.35" stroke="#102018" stroke-width="2" fill="none"/>
<line x1="772.46" y1="707.15" x2="769.66" y2="708.35" stroke="#102018" stroke-width="2" fill="none"/>
<line x1="774.46" y1="494.35" x2="775.66" y2="497.15" stroke="#102018" stroke-width="2" fill="none"/>
<line x1="774.46" y1="705.15" x2="772.46" y2="707.15" stroke="#102018" stroke-width="2" fill="none"/>
<line x1="775.66" y1="497.15" x2="776.06" y2="500.75" stroke="#102018" stroke-width="2" fill="none"/>
<line x1="775.66" y1="702.35" x2="774.46" y2="705.15" stroke="#102018" stroke-width="2" fill="none"/>
<line x1="776.06" y1="500.75" x2="776.06" y2="576.00" stroke="#102018" stroke-width="2" fill="none"/>
<line x1="776.06" y1="576.00" x2="776.06" y2="580.00" stroke="#102018" stroke-width="2" fill="none"/>
<line x1="776.06" y1="580.00" x2="776.06" y2="584.00" stroke="#102018" stroke-width="2" fill="none"/>
<line x1="776.06" y1="584.00" x2="776.06" y2="588.00" stroke="#102018" stroke-width="2" fill="none"/>
<line x1="776.06" y1="588.00" x2="776.06" y2="592.00" stroke="#102018" stroke-width="2" fill="none"/>
<line x1="776.06" y1="592.00" x2="776.06" y2="596.00" stroke="#102018" stroke-width="2" fill="none"/>
<line x1="776.06" y1="596.00" x2="776.06" y2="671.25" stroke="#102018" stroke-width="2" fill="none"/>
<line x1="776.06" y1="671.25" x2="776.06" y2="675.25" stroke="#102018" stroke-width="2" fill="none"/>
<line x1="776.06" y1="675.25" x2="776.06" y2="679.25" stroke="#102018" stroke-width="2" fill="none"/>
<line x1="776.06" y1="679.25" x2="776.06" y2="683.25" stroke="#102018" stroke-width="2" fill="none"/>
<line x1="776.06" y1="683.25" x2="776.06" y2="687.25" stroke="#102018" stroke-width="2" fill="none"/>
<line x1="776.06" y1="687.25" x2="776.06" y2="691.25" stroke="#102018" stroke-width="2" fill="none"/>
<line x1="776.06" y1="691.25" x2="776.06" y2="698.75" stroke="#102018" stroke-width="2" fill="none"/>
<line x1="776.06" y1="698.75" x2="775.66" y2="702.35" stroke="#102018" stroke-width="2" fill="none"/>
<line x1="709.62" y1="310.25" x2="710.02" y2="306.65" stroke="#101b2a" stroke-width="2" fill="none"/>
<line x1="709.62" y1="385.50" x2="709.62" y2="310.25" stroke="#101b2a" stroke-width="2" fill="none"/>
<line x1="710.02" y1="306.65" x2="711.23" y2="303.85" stroke="#101b2a" stroke-width="2" fill="none"/>
<line x1="710.02" y1="389.10" x2="709.62" y2="385.50" stroke="#101b2a" stroke-width="2" fill="none"/>
<line x1="711.23" y1="303.85" x2="713.23" y2="301.85" stroke="#101b2a" stroke-width="2" fill="none"/>
<line x1="711.23" y1="391.90" x2="710.02" y2="389.10" stroke="#101b2a" stroke-width="2" fill="none"/>
<line x1="713.23" y1="301.85" x2="716.03" y2="300.65" stroke="#101b2a" stroke-width="2" fill="none"/>
<line x1="713.23" y1="393.90" x2="711.23" y2="391.90" stroke="#101b2a" stroke-width="2" fill="none"/>
<line x1="716.03" y1="300.65" x2="723.63" y2="300.25" stroke="#101b2a" stroke-width="2" fill="none"/>
<line x1="716.03" y1="395.10" x2="713.23" y2="393.90" stroke="#101b2a" stroke-width="2" fill="none"/>
<line x1="723.44" y1="395.50" x2="723.63" y2="395.50" stroke="#101b2a" stroke-width="2" fill="none"/>
<line x1="723.63" y1="300.25" x2="747.25" y2="300.25" stroke="#101b2a" stroke-width="2" fill="none"/>
<line x1="723.63" y1="395.50" x2="716.03" y2="395.10" stroke="#101b2a" stroke-width="2" fill="none"/>
<line x1="727.04" y1="395.90" x2="723.44" y2="395.50" stroke="#101b2a" stroke-width="2" fill="none"/>
<line x1="729.84" y1="397.10" x2="727.04" y2="395.90" stroke="#101b2a" stroke-width="2" fill="none"/>
<line x1="731.84" y1="399.10" x2="729.84" y2="397.10" stroke="#101b2a" stroke-width="2" fill="none"/>
<line x1="733.04" y1="401.90" x2="731.84" y2="399.10" stroke="#101b2a" stroke-width="2" fill="none"/>
<line x1="733.44" y1="405.50" x2="733.04" y2="401.90" stroke="#101b2a" stroke-width="2" fill="none"/>
<line x1="733.44" y1="480.75" x2="733.44" y2="405.50" stroke="#101b2a" stroke-width="2" fill="none"/>
<line x1="733.84" y1="484.35" x2="733.44" y2="480.75" stroke="#101b2a" stroke-width="2" fill="none"/>
<line x1="735.04" y1="487.15" x2="733.84" y2="484.35" stroke="#101b2a" stroke-width="2" fill="none"/>
<line x1="737.04" y1="489.15" x2="735.04" y2="487.15" stroke="#101b2a" stroke-width="2" fill="none"/>
<line x1="739.84" y1="490.35" x2="737.04" y2="489.15" stroke="#101b2a" stroke-width="2" fill="none"/>
<line x1="747.25" y1="300.25" x2="750.85" y2="299.85" stroke="#101b2a" stroke-width="2" fill="none"/>
<line x1="747.44" y1="490.75" x2="739.84" y2="490.35" stroke="#101b2a" stroke-width="2" fill="none"/>
<line x1="750.85" y1="299.85" x2="753.65" y2="298.65" stroke="#101b2a" stroke-width="2" fill="none"/>
<line x1="753.65" y1="298.65" x2="755.65" y2="296.65" stroke="#101b2a" stroke-width="2" fill="none"/>
<line x1="755.65" y1="296.65" x2="756.85" y2="293.85" stroke="#101b2a" stroke-width="2" fill="none"/>
<line x1="756.85" y1="293.85" x2="757.25" y2="290.25" stroke="#101b2a" stroke-width="2" fill="none"/>
<line x1="757.25" y1="186.00" x2="757.65" y2="182.40" stroke="#101b2a" stroke-width="2" fill="none"/>
<line x1="757.25" y1="195.00" x2="757.25" y2="186.00" stroke="#101b2a" stroke-width="2" fill="none"/>
<line x1="757.25" y1="199.00" x2="757.25" y2="195.00" stroke="#101b2a" stroke-width="2" fill="none"/>
<line x1="757.25" y1="203.00" x2="757.25" y2="199.00" stroke="#101b2a" stroke-width="2" fill="none"/>
<line x1="757.25" y1="207.00" x2="757.25" y2="203.00" stroke="#101b2a" stroke-width="2" fill="none"/>
<line x1="757.25" y1="211.00" x2="757.25" y2="207.00" stroke="#101b2a" stroke-width="2" fill="none"/>
<line x1="757.25" y1="215.00" x2="757.25" y2="211.00" stroke="#101b2a" stroke-width="2" fill="none"/>
<line x1="757.25" y1="290.25" x2="757.25" y2="215.00" stroke="#101b2a" stroke-width="2" fill="none"/>
<line x1="757.65" y1="182.40" x2="758.85" y2="179.60" stroke="#101b2a" stroke-width="2" fill="none"/>
<line x1="758.85" y1="179.60" x2="760.85" y2="177.60" stroke="#101b2a" stroke-width="2" fill="none"/>
<line x1="760.85" y1="177.60" x2="763.65" y2="176.40" stroke="#101b2a" stroke-width="2" fill="none"/>
<line x1="763.65" y1="176.40" x2="767.25" y2="176.00" stroke="#101b2a" stroke-width="2" fill="none"/>
<line x1="767.25" y1="176.00" x2="788.63" y2="176.00" stroke="#101b2a" stroke-width="2" fill="none"/>
<line x1="771.06" y1="490.75" x2="747.44" y2="490.75" stroke="#101b2a" stroke-width="2" fill="none"/>
<line x1="774.66" y1="491.15" x2="771.06" y2="490.75" stroke="#101b2a" stroke-width="2" fill="none"/>
<line x1="777.46" y1="492.35" x2="774.66" y2="491.15" stroke="#101b2a" stroke-width="2" fill="none"/>
<line x1="779.46" y1="494.35" x2="777.46" y2="492.35" stroke="#101b2a" stroke-width="2" fill="none"/>
<line x1="780.66" y1="497.15" x2="779.46" y2="494.35" stroke="#101b2a" stroke-width="2" fill="none"/>
<line x1="781.06" y1="500.75" x2="780.66" y2="497.15" stroke="#101b2a" stroke-width="2" fill="none"/>
<line x1="781.06" y1="576.00" x2="781.06" y2="500.75" stroke="#101b2a" stroke-width="2" fill="none"/>
<line x1="781.06" y1="580.00" x2="781.06" y2="576.00" stroke="#101b2a" stroke-width="2" fill="none"/>
<line x1="781.06" y1="584.00" x2="781.06" y2="580.00" stroke="#101b2a" stroke-width="2" fill="none"/>
<line x1="781.06" y1="588.00" x2="781.06" y2="584.00" stroke="#101b2a" stroke-width="2" fill="none"/>
<line x1="781.06" y1="592.00" x2="781.06" y2="588.00" stroke="#101b2a" stroke-width="2" fill="none"/>
<line x1="781.06" y1="596.00" x2="781.06" y2="592.00" stroke="#101b2a" stroke-width="2" fill="none"/>
<line x1="781.06" y1="698.75" x2="781.06" y2="596.00" stroke="#101b2a" stroke-width="2" fill="none"/>
<line x1="781.46" y1="702.35" x2="781.06" y2="698.75" stroke="#101b2a" stroke-width="2" fill="none"/>
<line x1="782.66" y1="705.15" x2="781.46" y2="702.35" stroke="#101b2a" stroke-width="2" fill="none"/>
<line x1="784.66" y1="707.15" x2="782.66" y2="705.15" stroke="#101b2a" stroke-width="2" fill="none"/>
<line x1="787.46" y1="708.35" x2="784.66" y2="707.15" stroke="#101b2a" stroke-width="2" fill="none"/>
<line x1="788.63" y1="176.00" x2="792.23" y2="175.60" stroke="#101b2a" stroke-width="2" fill="none"/>
<line x1="791.06" y1="708.75" x2="787.46" y2="708.35" stroke="#101b2a" stroke-width="2" fill="none"/>
<line x1="792.23" y1="175.60" x2="795.02" y2="174.40" stroke="#101b2a" stroke-width="2" fill="none"/>
<line x1="795.02" y1="174.40" x2="797.02" y2="172.40" stroke="#101b2a" stroke-width="2" fill="none"/>
<line x1="797.02" y1="172.40" x2="798.23" y2="169.60" stroke="#101b2a" stroke-width="2" fill="none"/>
<line x1="798.23" y1="169.60" x2="798.63" y2="166.00" stroke="#101b2a" stroke-width="2" fill="none"/>
<line x1="798.63" y1="50.00" x2="799.03" y2="46.40" stroke="#101b2a" stroke-width="2" fill="none"/>
<line x1="798.63" y1="166.00" x2="798.63" y2="50.00" stroke="#101b2a" stroke-width="2" fill="none"/>
<line x1="799.03" y1="46.40" x2="800.23" y2="43.60" stroke="#101b2a" stroke-width="2" fill="none"/>
<line x1="800.23" y1="43.60" x2="802.23" y2="41.60" stroke="#101b2a" stroke-width="2" fill="none"/>
<line x1="802.23" y1="41.60" x2="805.02" y2="40.40" stroke="#101b2a" stroke-width="2" fill="none"/>
<line x1="805.02" y1="40.40" x2="808.63" y2="40.00" stroke="#101b2a" stroke-width="2" fill="none"/>
<line x1="808.63" y1="40.00" x2="1148.62" y2="40.00" stroke="#101b2a" stroke-width="2" fill="none"/>
<line x1="1148.62" y1="40.00" x2="1152.22" y2="40.40" stroke="#101b2a" stroke-width="2" fill="none"/>
<line x1="1152.22" y1="40.40" x2="1155.03" y2="41.60" stroke="#101b2a" stroke-width="2" fill="none"/>
<line x1="1155.03" y1="41.60" x2="1157.02" y2="43.60" stroke="#101b2a" stroke-width="2" fill="none"/>
<line x1="1157.02" y1="43.60" x2="1158.22" y2="46.40" stroke="#101b2a" stroke-width="2" fill="none"/>
<line x1="1158.22" y1="46.40" x2="1158.62" y2="50.00" stroke="#101b2a" stroke-width="2" fill="none"/>
<line x1="1158.62" y1="50.00" x2="1158.62" y2="166.00" stroke="#101b2a" stroke-width="2" fill="none"/>
<line x1="1158.62" y1="166.00" x2="1159.03" y2="169.60" stroke="#101b2a" stroke-width="2" fill="none"/>
<line x1="1159.03" y1="169.60" x2="1160.23" y2="172.40" stroke="#101b2a" stroke-width="2" fill="none"/>
<line x1="1160.23" y1="172.40" x2="1162.22" y2="174.40" stroke="#101b2a" stroke-width="2" fill="none"/>
<line x1="1162.22" y1="174.40" x2="1165.03" y2="175.60" stroke="#101b2a" stroke-width="2" fill="none"/>
<line x1="1165.03" y1="175.60" x2="1168.62" y2="176.00" stroke="#101b2a" stroke-width="2" fill="none"/>
<line x1="1168.62" y1="176.00" x2="1673.81" y2="176.00" stroke="#101b2a" stroke-width="2" fill="none"/>
<line x1="1673.81" y1="176.00" x2="1677.41" y2="176.40" stroke="#101b2a" stroke-width="2" fill="none"/>
<line x1="1673.81" y1="708.75" x2="791.06" y2="708.75" stroke="#101b2a" stroke-width="2" fill="none"/>
<line x1="1677.41" y1="176.40" x2="1680.21" y2="177.60" stroke="#101b2a" stroke-width="2" fill="none"/>
<line x1="1677.41" y1="708.35" x2="1673.81" y2="708.75" stroke="#101b2a" stroke-width="2" fill="none"/>
<line x1="1680.21" y1="177.60" x2="1682.21" y2="179.60" stroke="#101b2a" stroke-width="2" fill="none"/>
<line x1="1680.21" y1="707.15" x2="1677.41" y2="708.35" stroke="#101b2a" stroke-width="2" fill="none"/>
<line x1="1682.21" y1="179.60" x2="1683.41" y2="182.40" stroke="#101b2a" stroke-width="2" fill="none"/>
<line x1="1682.21" y1="705.15" x2="1680.21" y2="707.15" stroke="#101b2a" stroke-width="2" fill="none"/>
<line x1="1683.41" y1="182.40" x2="1683.81" y2="186.00" stroke="#101b2a" stroke-width="2" fill="none"/>
<line x1="1683.41" y1="702.35" x2="1682.21" y2="705.15" stroke="#101b2a" stroke-width="2" fill="none"/>
<line x1="1683.81" y1="186.00" x2="1683.81" y2="290.25" stroke="#101b2a" stroke-width="2" fill="none"/>
<line x1="1683.81" y1="290.25" x2="1683.81" y2="294.25" stroke="#101b2a" stroke-width="2" fill="none"/>
<line x1="1683.81" y1="294.25" x2="1683.81" y2="298.25" stroke="#101b2a" stroke-width="2" fill="none"/>
<line x1="1683.81" y1="298.25" x2="1683.81" y2="302.25" stroke="#101b2a" stroke-width="2" fill="none"/>
<line x1="1683.81" y1="302.25" x2="1683.81" y2="306.25" stroke="#101b2a" stroke-width="2" fill="none"/>
<line x1="1683.81" y1="306.25" x2="1683.81" y2="310.25" stroke="#101b2a" stroke-width="2" fill="none"/>
<line x1="1683.81" y1="310.25" x2="1683.81" y2="385.50" stroke="#101b2a" stroke-width="2" fill="none"/>
<line x1="1683.81" y1="385.50" x2="1683.81" y2="389.50" stroke="#101b2a" stroke-width="2" fill="none"/>
<line x1="1683.81" y1="389.50" x2="1683.81" y2="393.50" stroke="#101b2a" stroke-width="2" fill="none"/>
<line x1="1683.81" y1="393.50" x2="1683.81" y2="397.50" stroke="#101b2a" stroke-width="2" fill="none"/>
<line x1="1683.81" y1="397.50" x2="1683.81" y2="401.50" stroke="#101b2a" stroke-width="2" fill="none"/>
<line x1="1683.81" y1="401.50" x2="1683.81" y2="405.50" stroke="#101b2a" stroke-width="2" fill="none"/>
<line x1="1683.81" y1="405.50" x2="1683.81" y2="480.75" stroke="#101b2a" stroke-width="2" fill="none"/>
<line x1="1683.81" y1="480.75" x2="1683.81" y2="484.75" stroke="#101b2a" stroke-width="2" fill="none"/>
<line x1="1683.81" y1="484.75" x2="1683.81" y2="488.75" stroke="#101b2a" stroke-width="2" fill="none"/>
<line x1="1683.81" y1="488.75" x2="1683.81" y2="492.75" stroke="#101b2a" stroke-width="2" fill="none"/>
<line x1="1683.81" y1="492.75" x2="1683.81" y2="496.75" stroke="#101b2a" stroke-width="2" fill="none"/>
<line x1="1683.81" y1="496.75" x2="1683.81" y2="500.75" stroke="#101b2a" stroke-width="2" fill="none"/>
<line x1="1683.81" y1="500.75" x2="1683.81" y2="576.00" stroke="#101b2a" stroke-width="2" fill="none"/>
<line x1="1683.81" y1="576.00" x2="1683.81" y2="580.00" stroke="#101b2a" stroke-width="2" fill="none"/>
<line x1="1683.81" y1="580.00" x2="1683.81" y2="584.00" stroke="#101b2a" stroke-width="2" fill="none"/>
<line x1="1683.81" y1="584.00" x2="1683.81" y2="588.00" stroke="#101b2a" stroke-width="2" fill="none"/>
<line x1="1683.81" y1="588.00" x2="1683.81" y2="592.00" stroke="#101b2a" stroke-width="2" fill="none"/>
<line x1="1683.81" y1="592.00" x2="1683.81" y2="596.00" stroke="#101b2a" stroke-width="2" fill="none"/>
<line x1="1683.81" y1="596.00" x2="1683.81" y2="671.25" stroke="#101b2a" stroke-width="2" fill="none"/>
<line x1="1683.81" y1="671.25" x2="1683.81" y2="675.25" stroke="#101b2a" stroke-width="2" fill="none"/>
<line x1="1683.81" y1="675.25" x2="1683.81" y2="679.25" stroke="#101b2a" stroke-width="2" fill="none"/>
<line x1="1683.81" y1="679.25" x2="1683.81" y2="683.25" stroke="#101b2a" stroke-width="2" fill="none"/>
<line x1="1683.81" y1="683.25" x2="1683.81" y2="687.25" stroke="#101b2a" stroke-width="2" fill="none"/>
<line x1="1683.81" y1="687.25" x2="1683.81" y2="691.25" stroke="#101b2a" stroke-width="2" fill="none"/>
<line x1="1683.81" y1="691.25" x2="1683.81" y2="698.75" stroke="#101b2a" stroke-width="2" fill="none"/>
<line x1="1683.81" y1="698.75" x2="1683.41" y2="702.35" stroke="#101b2a" stroke-width="2" fill="none"/>
<rect x="70.00" y="207.50" width="90.25" height="90.25" rx="2" ry="2" fill="#e9fff4" stroke="#2a8d66" stroke-width="1" fill-opacity="0.86"/>
<text x="115.12" y="256.09" text-anchor="middle" font-family="Arial" font-size="10" fill="#101010">~</text>
<rect x="165.25" y="207.50" width="90.25" height="90.25" rx="2" ry="2" fill="#e9fff4" stroke="#2a8d66" stroke-width="1" fill-opacity="0.86"/>
<text x="210.38" y="256.09" text-anchor="middle" font-family="Arial" font-size="10" fill="#101010">1</text>
<rect x="260.50" y="207.50" width="90.25" height="90.25" rx="2" ry="2" fill="#e9fff4" stroke="#2a8d66" stroke-width="1" fill-opacity="0.86"/>
<text x="305.62" y="256.09" text-anchor="middle" font-family="Arial" font-size="10" fill="#101010">2</text>
<rect x="355.75" y="207.50" width="90.25" height="90.25" rx="2" ry="2" fill="#e9fff4" stroke="#2a8d66" stroke-width="1" fill-opacity="0.86"/>
<text x="400.88" y="256.09" text-anchor="middle" font-family="Arial" font-size="10" fill="#101010">3</text>
<rect x="451.00" y="207.50" width="90.25" height="90.25" rx="2" ry="2" fill="#e9fff4" stroke="#2a8d66" stroke-width="1" fill-opacity="0.86"/>
<text x="496.12" y="256.09" text-anchor="middle" font-family="Arial" font-size="10" fill="#101010">4</text>
<rect x="546.25" y="207.50" width="90.25" height="90.25" rx="2" ry="2" fill="#e9fff4" stroke="#2a8d66" stroke-width="1" fill-opacity="0.86"/>
<text x="591.38" y="256.09" text-anchor="middle" font-family="Arial" font-size="10" fill="#101010">5</text>
<rect x="641.50" y="207.50" width="90.25" height="90.25" rx="2" ry="2" fill="#e9fff4" stroke="#2a8d66" stroke-width="1" fill-opacity="0.86"/>
<text x="686.62" y="256.09" text-anchor="middle" font-family="Arial" font-size="10" fill="#101010">6</text>
<rect x="70.00" y="302.75" width="137.88" height="90.25" rx="2" ry="2" fill="#e9fff4" stroke="#2a8d66" stroke-width="1" fill-opacity="0.86"/>
<text x="138.94" y="351.33" text-anchor="middle" font-family="Arial" font-size="10" fill="#101010">TAB</text>
<rect x="212.87" y="302.75" width="90.25" height="90.25" rx="2" ry="2" fill="#e9fff4" stroke="#2a8d66" stroke-width="1" fill-opacity="0.86"/>
<text x="258.00" y="351.33" text-anchor="middle" font-family="Arial" font-size="10" fill="#101010">Q</text>
<rect x="308.12" y="302.75" width="90.25" height="90.25" rx="2" ry="2" fill="#e9fff4" stroke="#2a8d66" stroke-width="1" fill-opacity="0.86"/>
<text x="353.25" y="351.33" text-anchor="middle" font-family="Arial" font-size="10" fill="#101010">W</text>
<rect x="403.38" y="302.75" width="90.25" height="90.25" rx="2" ry="2" fill="#e9fff4" stroke="#2a8d66" stroke-width="1" fill-opacity="0.86"/>
<text x="448.50" y="351.33" text-anchor="middle" font-family="Arial" font-size="10" fill="#101010">E</text>
<rect x="498.62" y="302.75" width="90.25" height="90.25" rx="2" ry="2" fill="#e9fff4" stroke="#2a8d66" stroke-width="1" fill-opacity="0.86"/>
<text x="543.75" y="351.33" text-anchor="middle" font-family="Arial" font-size="10" fill="#101010">R</text>
<rect x="593.88" y="302.75" width="90.25" height="90.25" rx="2" ry="2" fill="#e9fff4" stroke="#2a8d66" stroke-width="1" fill-opacity="0.86"/>
<text x="639.00" y="351.33" text-anchor="middle" font-family="Arial" font-size="10" fill="#101010">T</text>
<rect x="70.00" y="398.00" width="161.69" height="90.25" rx="2" ry="2" fill="#e9fff4" stroke="#2a8d66" stroke-width="1" fill-opacity="0.86"/>
<text x="150.84" y="446.58" text-anchor="middle" font-family="Arial" font-size="10" fill="#101010">Caps</text>
<rect x="236.69" y="398.00" width="90.25" height="90.25" rx="2" ry="2" fill="#e9fff4" stroke="#2a8d66" stroke-width="1" fill-opacity="0.86"/>
<text x="281.81" y="446.58" text-anchor="middle" font-family="Arial" font-size="10" fill="#101010">A</text>
<rect x="331.94" y="398.00" width="90.25" height="90.25" rx="2" ry="2" fill="#e9fff4" stroke="#2a8d66" stroke-width="1" fill-opacity="0.86"/>
<text x="377.06" y="446.58" text-anchor="middle" font-family="Arial" font-size="10" fill="#101010">S</text>
<rect x="427.19" y="398.00" width="90.25" height="90.25" rx="2" ry="2" fill="#e9fff4" stroke="#2a8d66" stroke-width="1" fill-opacity="0.86"/>
<text x="472.31" y="446.58" text-anchor="middle" font-family="Arial" font-size="10" fill="#101010">D</text>
<rect x="522.44" y="398.00" width="90.25" height="90.25" rx="2" ry="2" fill="#e9fff4" stroke="#2a8d66" stroke-width="1" fill-opacity="0.86"/>
<text x="567.56" y="446.58" text-anchor="middle" font-family="Arial" font-size="10" fill="#101010">F</text>
<rect x="617.69" y="398.00" width="90.25" height="90.25" rx="2" ry="2" fill="#e9fff4" stroke="#2a8d66" stroke-width="1" fill-opacity="0.86"/>
<text x="662.81" y="446.58" text-anchor="middle" font-family="Arial" font-size="10" fill="#101010">G</text>
<rect x="70.00" y="493.25" width="114.06" height="90.25" rx="2" ry="2" fill="#e9fff4" stroke="#2a8d66" stroke-width="1" fill-opacity="0.86"/>
<text x="127.03" y="541.84" text-anchor="middle" font-family="Arial" font-size="10" fill="#101010">LShift</text>
<rect x="189.06" y="493.25" width="90.25" height="90.25" rx="2" ry="2" fill="#e9fff4" stroke="#2a8d66" stroke-width="1" fill-opacity="0.86"/>
<text x="234.19" y="541.84" text-anchor="middle" font-family="Arial" font-size="10" fill="#101010">LShift</text>
<rect x="284.31" y="493.25" width="90.25" height="90.25" rx="2" ry="2" fill="#e9fff4" stroke="#2a8d66" stroke-width="1" fill-opacity="0.86"/>
<text x="329.44" y="541.84" text-anchor="middle" font-family="Arial" font-size="10" fill="#101010">Z</text>
<rect x="379.56" y="493.25" width="90.25" height="90.25" rx="2" ry="2" fill="#e9fff4" stroke="#2a8d66" stroke-width="1" fill-opacity="0.86"/>
<text x="424.69" y="541.84" text-anchor="middle" font-family="Arial" font-size="10" fill="#101010">X</text>
<rect x="474.81" y="493.25" width="90.25" height="90.25" rx="2" ry="2" fill="#e9fff4" stroke="#2a8d66" stroke-width="1" fill-opacity="0.86"/>
<text x="519.94" y="541.84" text-anchor="middle" font-family="Arial" font-size="10" fill="#101010">C</text>
<rect x="570.06" y="493.25" width="90.25" height="90.25" rx="2" ry="2" fill="#e9fff4" stroke="#2a8d66" stroke-width="1" fill-opacity="0.86"/>
<text x="615.19" y="541.84" text-anchor="middle" font-family="Arial" font-size="10" fill="#101010">V</text>
<rect x="665.31" y="493.25" width="90.25" height="90.25" rx="2" ry="2" fill="#e9fff4" stroke="#2a8d66" stroke-width="1" fill-opacity="0.86"/>
<text x="710.44" y="541.84" text-anchor="middle" font-family="Arial" font-size="10" fill="#101010">B</text>
<rect x="70.00" y="588.50" width="114.06" height="90.25" rx="2" ry="2" fill="#e9fff4" stroke="#2a8d66" stroke-width="1" fill-opacity="0.86"/>
<text x="127.03" y="637.09" text-anchor="middle" font-family="Arial" font-size="10" fill="#101010">Ctrl</text>
<rect x="189.06" y="588.50" width="114.06" height="90.25" rx="2" ry="2" fill="#e9fff4" stroke="#2a8d66" stroke-width="1" fill-opacity="0.86"/>
<text x="246.09" y="637.09" text-anchor="middle" font-family="Arial" font-size="10" fill="#101010">Win</text>
<rect x="308.13" y="588.50" width="114.06" height="90.25" rx="2" ry="2" fill="#e9fff4" stroke="#2a8d66" stroke-width="1" fill-opacity="0.86"/>
<text x="365.16" y="637.09" text-anchor="middle" font-family="Arial" font-size="10" fill="#101010">Alt</text>
<rect x="427.19" y="588.50" width="114.06" height="90.25" rx="2" ry="2" fill="#e9fff4" stroke="#2a8d66" stroke-width="1" fill-opacity="0.86"/>
<text x="484.22" y="637.09" text-anchor="middle" font-family="Arial" font-size="10" fill="#101010">Fn</text>
<rect x="546.25" y="588.50" width="90.25" height="90.25" rx="2" ry="2" fill="#e9fff4" stroke="#2a8d66" stroke-width="1" fill-opacity="0.86"/>
<text x="591.38" y="637.09" text-anchor="middle" font-family="Arial" font-size="10" fill="#101010">Space</text>
<rect x="641.50" y="588.50" width="114.06" height="90.25" rx="2" ry="2" fill="#e9fff4" stroke="#2a8d66" stroke-width="1" fill-opacity="0.86"/>
<text x="698.53" y="637.09" text-anchor="middle" font-family="Arial" font-size="10" fill="#101010">Space</text>
<rect x="457.71" y="61.05" width="148.70" height="97.90" fill="none" stroke="#252525" stroke-width="1.5" stroke-dasharray="4 3"/>
<text x="532.06" y="57.05" text-anchor="middle" font-family="Arial" font-size="9" fill="#222">U1</text>
<circle cx="60.00" cy="688.75" r="7" fill="white" stroke="#555" stroke-width="1"/>
<circle cx="62.50" cy="498.75" r="7" fill="white" stroke="#555" stroke-width="1"/>
<circle cx="442.06" cy="85.00" r="7" fill="white" stroke="#555" stroke-width="1"/>
<circle cx="622.06" cy="85.00" r="7" fill="white" stroke="#555" stroke-width="1"/>
<circle cx="756.06" cy="688.75" r="7" fill="white" stroke="#555" stroke-width="1"/>
<rect x="777.75" y="207.50" width="90.25" height="90.25" rx="2" ry="2" fill="#eef5ff" stroke="#467cc0" stroke-width="1" fill-opacity="0.86"/>
<text x="822.88" y="256.09" text-anchor="middle" font-family="Arial" font-size="10" fill="#101010">7</text>
<rect x="873.00" y="207.50" width="90.25" height="90.25" rx="2" ry="2" fill="#eef5ff" stroke="#467cc0" stroke-width="1" fill-opacity="0.86"/>
<text x="918.12" y="256.09" text-anchor="middle" font-family="Arial" font-size="10" fill="#101010">8</text>
<rect x="968.25" y="207.50" width="90.25" height="90.25" rx="2" ry="2" fill="#eef5ff" stroke="#467cc0" stroke-width="1" fill-opacity="0.86"/>
<text x="1013.38" y="256.09" text-anchor="middle" font-family="Arial" font-size="10" fill="#101010">9</text>
<rect x="1063.50" y="207.50" width="90.25" height="90.25" rx="2" ry="2" fill="#eef5ff" stroke="#467cc0" stroke-width="1" fill-opacity="0.86"/>
<text x="1108.62" y="256.09" text-anchor="middle" font-family="Arial" font-size="10" fill="#101010">0</text>
<rect x="1158.75" y="207.50" width="90.25" height="90.25" rx="2" ry="2" fill="#eef5ff" stroke="#467cc0" stroke-width="1" fill-opacity="0.86"/>
<text x="1203.88" y="256.09" text-anchor="middle" font-family="Arial" font-size="10" fill="#101010">-</text>
<rect x="1254.00" y="207.50" width="90.25" height="90.25" rx="2" ry="2" fill="#eef5ff" stroke="#467cc0" stroke-width="1" fill-opacity="0.86"/>
<text x="1299.13" y="256.09" text-anchor="middle" font-family="Arial" font-size="10" fill="#101010">=</text>
<rect x="1349.25" y="207.50" width="90.25" height="90.25" rx="2" ry="2" fill="#eef5ff" stroke="#467cc0" stroke-width="1" fill-opacity="0.86"/>
<text x="1394.38" y="256.09" text-anchor="middle" font-family="Arial" font-size="10" fill="#101010">BSPC</text>
<rect x="1444.50" y="207.50" width="114.06" height="90.25" rx="2" ry="2" fill="#eef5ff" stroke="#467cc0" stroke-width="1" fill-opacity="0.86"/>
<text x="1501.53" y="256.09" text-anchor="middle" font-family="Arial" font-size="10" fill="#101010">BSPC</text>
<rect x="1563.56" y="207.50" width="90.25" height="90.25" rx="2" ry="2" fill="#eef5ff" stroke="#467cc0" stroke-width="1" fill-opacity="0.86"/>
<text x="1608.69" y="256.09" text-anchor="middle" font-family="Arial" font-size="10" fill="#101010">Del</text>
<rect x="730.12" y="302.75" width="90.25" height="90.25" rx="2" ry="2" fill="#eef5ff" stroke="#467cc0" stroke-width="1" fill-opacity="0.86"/>
<text x="775.25" y="351.33" text-anchor="middle" font-family="Arial" font-size="10" fill="#101010">Y</text>
<rect x="825.38" y="302.75" width="90.25" height="90.25" rx="2" ry="2" fill="#eef5ff" stroke="#467cc0" stroke-width="1" fill-opacity="0.86"/>
<text x="870.50" y="351.33" text-anchor="middle" font-family="Arial" font-size="10" fill="#101010">U</text>
<rect x="920.62" y="302.75" width="90.25" height="90.25" rx="2" ry="2" fill="#eef5ff" stroke="#467cc0" stroke-width="1" fill-opacity="0.86"/>
<text x="965.75" y="351.33" text-anchor="middle" font-family="Arial" font-size="10" fill="#101010">I</text>
<rect x="1015.88" y="302.75" width="90.25" height="90.25" rx="2" ry="2" fill="#eef5ff" stroke="#467cc0" stroke-width="1" fill-opacity="0.86"/>
<text x="1061.00" y="351.33" text-anchor="middle" font-family="Arial" font-size="10" fill="#101010">O</text>
<rect x="1111.12" y="302.75" width="90.25" height="90.25" rx="2" ry="2" fill="#eef5ff" stroke="#467cc0" stroke-width="1" fill-opacity="0.86"/>
<text x="1156.25" y="351.33" text-anchor="middle" font-family="Arial" font-size="10" fill="#101010">P</text>
<rect x="1206.38" y="302.75" width="90.25" height="90.25" rx="2" ry="2" fill="#eef5ff" stroke="#467cc0" stroke-width="1" fill-opacity="0.86"/>
<text x="1251.50" y="351.33" text-anchor="middle" font-family="Arial" font-size="10" fill="#101010">[</text>
<rect x="1301.63" y="302.75" width="90.25" height="90.25" rx="2" ry="2" fill="#eef5ff" stroke="#467cc0" stroke-width="1" fill-opacity="0.86"/>
<text x="1346.75" y="351.33" text-anchor="middle" font-family="Arial" font-size="10" fill="#101010">]</text>
<rect x="1396.88" y="302.75" width="161.69" height="90.25" rx="2" ry="2" fill="#eef5ff" stroke="#467cc0" stroke-width="1" fill-opacity="0.86"/>
<text x="1477.72" y="351.33" text-anchor="middle" font-family="Arial" font-size="10" fill="#101010">\</text>
<rect x="1563.56" y="302.75" width="90.25" height="90.25" rx="2" ry="2" fill="#eef5ff" stroke="#467cc0" stroke-width="1" fill-opacity="0.86"/>
<text x="1608.69" y="351.33" text-anchor="middle" font-family="Arial" font-size="10" fill="#101010">Home</text>
<rect x="753.94" y="398.00" width="90.25" height="90.25" rx="2" ry="2" fill="#eef5ff" stroke="#467cc0" stroke-width="1" fill-opacity="0.86"/>
<text x="799.06" y="446.58" text-anchor="middle" font-family="Arial" font-size="10" fill="#101010">H</text>
<rect x="849.19" y="398.00" width="90.25" height="90.25" rx="2" ry="2" fill="#eef5ff" stroke="#467cc0" stroke-width="1" fill-opacity="0.86"/>
<text x="894.31" y="446.58" text-anchor="middle" font-family="Arial" font-size="10" fill="#101010">J</text>
<rect x="944.44" y="398.00" width="90.25" height="90.25" rx="2" ry="2" fill="#eef5ff" stroke="#467cc0" stroke-width="1" fill-opacity="0.86"/>
<text x="989.56" y="446.58" text-anchor="middle" font-family="Arial" font-size="10" fill="#101010">K</text>
<rect x="1039.69" y="398.00" width="90.25" height="90.25" rx="2" ry="2" fill="#eef5ff" stroke="#467cc0" stroke-width="1" fill-opacity="0.86"/>
<text x="1084.81" y="446.58" text-anchor="middle" font-family="Arial" font-size="10" fill="#101010">L</text>
<rect x="1134.94" y="398.00" width="90.25" height="90.25" rx="2" ry="2" fill="#eef5ff" stroke="#467cc0" stroke-width="1" fill-opacity="0.86"/>
<text x="1180.06" y="446.58" text-anchor="middle" font-family="Arial" font-size="10" fill="#101010">;</text>
<rect x="1230.19" y="398.00" width="90.25" height="90.25" rx="2" ry="2" fill="#eef5ff" stroke="#467cc0" stroke-width="1" fill-opacity="0.86"/>
<text x="1275.31" y="446.58" text-anchor="middle" font-family="Arial" font-size="10" fill="#101010">&#x27;</text>
<rect x="1325.44" y="398.00" width="90.25" height="90.25" rx="2" ry="2" fill="#eef5ff" stroke="#467cc0" stroke-width="1" fill-opacity="0.86"/>
<text x="1370.56" y="446.58" text-anchor="middle" font-family="Arial" font-size="10" fill="#101010">Enter</text>
<rect x="1420.69" y="398.00" width="137.88" height="90.25" rx="2" ry="2" fill="#eef5ff" stroke="#467cc0" stroke-width="1" fill-opacity="0.86"/>
<text x="1489.62" y="446.58" text-anchor="middle" font-family="Arial" font-size="10" fill="#101010">Enter</text>
<rect x="1563.56" y="398.00" width="90.25" height="90.25" rx="2" ry="2" fill="#eef5ff" stroke="#467cc0" stroke-width="1" fill-opacity="0.86"/>
<text x="1608.69" y="446.58" text-anchor="middle" font-family="Arial" font-size="10" fill="#101010">PgUp</text>
<rect x="801.56" y="493.25" width="90.25" height="90.25" rx="2" ry="2" fill="#eef5ff" stroke="#467cc0" stroke-width="1" fill-opacity="0.86"/>
<text x="846.69" y="541.84" text-anchor="middle" font-family="Arial" font-size="10" fill="#101010">N</text>
<rect x="896.81" y="493.25" width="90.25" height="90.25" rx="2" ry="2" fill="#eef5ff" stroke="#467cc0" stroke-width="1" fill-opacity="0.86"/>
<text x="941.94" y="541.84" text-anchor="middle" font-family="Arial" font-size="10" fill="#101010">M</text>
<rect x="992.06" y="493.25" width="90.25" height="90.25" rx="2" ry="2" fill="#eef5ff" stroke="#467cc0" stroke-width="1" fill-opacity="0.86"/>
<text x="1037.19" y="541.84" text-anchor="middle" font-family="Arial" font-size="10" fill="#101010">,</text>
<rect x="1087.31" y="493.25" width="90.25" height="90.25" rx="2" ry="2" fill="#eef5ff" stroke="#467cc0" stroke-width="1" fill-opacity="0.86"/>
<text x="1132.44" y="541.84" text-anchor="middle" font-family="Arial" font-size="10" fill="#101010">.</text>
<rect x="1182.56" y="493.25" width="90.25" height="90.25" rx="2" ry="2" fill="#eef5ff" stroke="#467cc0" stroke-width="1" fill-opacity="0.86"/>
<text x="1227.69" y="541.84" text-anchor="middle" font-family="Arial" font-size="10" fill="#101010">/</text>
<rect x="1277.81" y="493.25" width="90.25" height="90.25" rx="2" ry="2" fill="#eef5ff" stroke="#467cc0" stroke-width="1" fill-opacity="0.86"/>
<text x="1322.94" y="541.84" text-anchor="middle" font-family="Arial" font-size="10" fill="#101010">RShift</text>
<rect x="1373.06" y="493.25" width="90.25" height="90.25" rx="2" ry="2" fill="#eef5ff" stroke="#467cc0" stroke-width="1" fill-opacity="0.86"/>
<text x="1418.19" y="541.84" text-anchor="middle" font-family="Arial" font-size="10" fill="#101010">Fn</text>
<rect x="1468.31" y="493.25" width="90.25" height="90.25" rx="2" ry="2" fill="#eef5ff" stroke="#467cc0" stroke-width="1" fill-opacity="0.86"/>
<text x="1513.44" y="541.84" text-anchor="middle" font-family="Arial" font-size="10" fill="#101010">Up</text>
<rect x="1563.56" y="493.25" width="90.25" height="90.25" rx="2" ry="2" fill="#eef5ff" stroke="#467cc0" stroke-width="1" fill-opacity="0.86"/>
<text x="1608.69" y="541.84" text-anchor="middle" font-family="Arial" font-size="10" fill="#101010">PgDn</text>
<rect x="801.56" y="588.50" width="90.25" height="90.25" rx="2" ry="2" fill="#eef5ff" stroke="#467cc0" stroke-width="1" fill-opacity="0.86"/>
<text x="846.69" y="637.09" text-anchor="middle" font-family="Arial" font-size="10" fill="#101010">B</text>
<rect x="896.81" y="588.50" width="90.25" height="90.25" rx="2" ry="2" fill="#eef5ff" stroke="#467cc0" stroke-width="1" fill-opacity="0.86"/>
<text x="941.94" y="637.09" text-anchor="middle" font-family="Arial" font-size="10" fill="#101010">Space</text>
<rect x="992.06" y="588.50" width="90.25" height="90.25" rx="2" ry="2" fill="#eef5ff" stroke="#467cc0" stroke-width="1" fill-opacity="0.86"/>
<text x="1037.19" y="637.09" text-anchor="middle" font-family="Arial" font-size="10" fill="#101010">Space</text>
<rect x="1087.31" y="588.50" width="90.25" height="90.25" rx="2" ry="2" fill="#eef5ff" stroke="#467cc0" stroke-width="1" fill-opacity="0.86"/>
<text x="1132.44" y="637.09" text-anchor="middle" font-family="Arial" font-size="10" fill="#101010">RAlt</text>
<rect x="1182.56" y="588.50" width="90.25" height="90.25" rx="2" ry="2" fill="#eef5ff" stroke="#467cc0" stroke-width="1" fill-opacity="0.86"/>
<text x="1227.69" y="637.09" text-anchor="middle" font-family="Arial" font-size="10" fill="#101010">Fn</text>
<rect x="1277.81" y="588.50" width="90.25" height="90.25" rx="2" ry="2" fill="#eef5ff" stroke="#467cc0" stroke-width="1" fill-opacity="0.86"/>
<text x="1322.94" y="637.09" text-anchor="middle" font-family="Arial" font-size="10" fill="#101010">RCtrl</text>
<rect x="1373.06" y="588.50" width="90.25" height="90.25" rx="2" ry="2" fill="#eef5ff" stroke="#467cc0" stroke-width="1" fill-opacity="0.86"/>
<text x="1418.19" y="637.09" text-anchor="middle" font-family="Arial" font-size="10" fill="#101010">Left</text>
<rect x="1468.31" y="588.50" width="90.25" height="90.25" rx="2" ry="2" fill="#eef5ff" stroke="#467cc0" stroke-width="1" fill-opacity="0.86"/>
<text x="1513.44" y="637.09" text-anchor="middle" font-family="Arial" font-size="10" fill="#101010">Down</text>
<rect x="1563.56" y="588.50" width="90.25" height="90.25" rx="2" ry="2" fill="#eef5ff" stroke="#467cc0" stroke-width="1" fill-opacity="0.86"/>
<text x="1608.69" y="637.09" text-anchor="middle" font-family="Arial" font-size="10" fill="#101010">Right</text>
<rect x="904.28" y="61.05" width="148.70" height="97.90" fill="none" stroke="#252525" stroke-width="1.5" stroke-dasharray="4 3"/>
<text x="978.63" y="57.05" text-anchor="middle" font-family="Arial" font-size="9" fill="#222">U1</text>
<circle cx="888.63" cy="85.00" r="7" fill="white" stroke="#555" stroke-width="1"/>
<circle cx="729.62" cy="688.75" r="7" fill="white" stroke="#555" stroke-width="1"/>
<circle cx="1663.81" cy="688.75" r="7" fill="white" stroke="#555" stroke-width="1"/>
<circle cx="1068.62" cy="85.00" r="7" fill="white" stroke="#555" stroke-width="1"/>
<circle cx="1663.81" cy="483.75" r="7" fill="white" stroke="#555" stroke-width="1"/>
<g id="key-horizontal-clearance" data-key-horizontal-clearance-mm="1.8000" data-left-key="6" data-right-key="Y">
<line x1="714.62" y1="300.25" x2="723.62" y2="300.25" stroke="#1c5fb8" stroke-width="2.4"/>
<line x1="714.62" y1="300.25" x2="720.62" y2="296.25" stroke="#1c5fb8" stroke-width="2.4"/>
<line x1="714.62" y1="300.25" x2="720.62" y2="304.25" stroke="#1c5fb8" stroke-width="2.4"/>
<line x1="723.62" y1="300.25" x2="717.62" y2="296.25" stroke="#1c5fb8" stroke-width="2.4"/>
<line x1="723.62" y1="300.25" x2="717.62" y2="304.25" stroke="#1c5fb8" stroke-width="2.4"/>
<text x="719.12" y="292.25" text-anchor="middle" font-family="Arial" font-size="10" fill="#123e7d">6-Y X 1.8 mm</text>
</g>
</svg>
