<svg xmlns="http://www.w3.org/2000/svg" width="2098" height="938" viewBox="0 0 2098 938">
<rect width="100%" height="100%" fill="#f7f5ee"/>
<g id="joined-clearance" data-placement-mode="key-pitch" data-clearance-mm="1.1000" data-clearance-width-px="7.70" data-measurement-width-px="26.60" data-key-horizontal-clearance-mm="1.8000" data-outline-x-range-nesting-mm="10.4875">
<polygon points="848.76,40.88 852.33,42.62 854.08,44.38 855.21,46.12 855.96,47.88 856.50,49.62 856.70,51.38 856.89,53.12 856.99,54.88 856.99,56.62 856.99,58.38 856.99,60.12 856.99,61.88 856.99,63.62 856.99,65.38 856.99,67.12 856.99,68.88 856.99,70.62 856.99,72.38 856.99,74.12 856.99,75.88 856.99,77.62 856.99,79.38 856.99,81.12 856.99,82.88 856.99,84.62 856.99,86.38 856.99,88.12 856.99,89.88 856.99,91.62 856.99,93.38 856.99,95.12 856.99,96.88 856.99,98.62 856.99,100.38 856.99,102.12 856.99,103.88 856.99,105.62 856.99,107.38 856.99,109.12 856.99,110.88 856.99,112.62 856.99,114.38 856.99,116.12 856.99,117.88 856.99,119.62 856.99,121.38 856.99,123.12 856.99,124.88 856.99,126.62 856.99,128.38 856.99,130.12 856.99,131.88 856.99,133.62 856.99,135.38 856.99,137.12 856.99,138.88 856.99,140.62 856.99,142.38 856.99,144.12 856.99,145.88 856.99,147.62 856.99,149.38 856.99,151.12 856.99,152.88 856.99,154.62 856.99,156.38 856.99,158.12 856.99,159.88 856.99,161.62 856.99,163.38 856.99,165.12 856.99,166.88 856.99,168.62 856.99,170.38 856.99,172.12 856.99,173.88 856.99,175.62 856.99,177.38 856.99,179.12 856.99,180.88 856.99,182.62 856.99,184.38 856.99,186.12 856.99,187.88 856.99,189.62 856.99,191.38 856.99,193.12 856.99,194.88 856.99,196.62 856.99,198.38 856.99,200.12 856.99,201.88 856.99,203.62 856.99,205.38 856.99,207.12 856.99,208.88 856.99,210.62 856.99,212.38 856.99,214.12 856.99,215.88 856.99,217.62 856.99,219.38 856.99,221.12 856.99,222.88 856.99,224.62 856.99,226.38 856.99,228.12 856.99,229.88 856.99,231.62 856.99,233.38 856.99,235.12 856.99,236.88 857.08,238.62 857.28,240.38 857.47,242.12 858.01,243.88 858.76,245.62 859.89,247.38 861.64,249.12 865.21,250.88 944.23,252.62 947.79,254.38 949.54,256.12 950.67,257.88 951.42,259.62 951.96,261.38 952.16,263.12 952.35,264.88 952.45,266.62 952.45,268.38 952.45,270.12 952.45,271.88 952.45,273.62 952.45,275.38 952.45,277.12 952.45,278.88 952.45,280.62 952.45,282.38 952.45,284.12 952.45,285.88 952.45,287.62 952.45,289.38 952.45,291.12 952.45,292.88 952.45,294.62 952.45,296.38 952.45,298.12 952.45,299.88 952.45,301.62 952.45,303.38 952.45,305.12 952.45,306.88 952.45,308.62 952.45,310.38 952.45,312.12 952.45,313.88 952.45,315.62 952.45,317.38 952.45,319.12 952.45,320.88 952.45,322.62 952.45,324.38 952.45,326.12 952.45,327.88 952.45,329.62 952.45,331.38 952.45,333.12 952.45,334.88 952.45,336.62 952.45,338.38 952.45,340.12 952.45,341.88 952.45,343.62 952.45,345.38 952.45,347.12 952.45,348.88 952.45,350.62 952.45,352.38 952.45,354.12 952.45,355.88 952.35,357.62 952.16,359.38 951.96,361.12 951.42,362.88 950.68,364.62 949.55,366.38 947.80,368.12 944.23,369.88 894.00,371.62 890.43,373.38 888.68,375.12 887.55,376.88 886.80,378.62 886.26,380.38 886.07,382.12 885.87,383.88 885.77,385.62 885.77,387.38 885.77,389.12 885.77,390.88 885.77,392.62 885.77,394.38 885.77,396.12 885.77,397.88 885.77,399.62 885.77,401.38 885.77,403.12 885.77,404.88 885.77,406.62 885.77,408.38 885.77,410.12 885.77,411.88 885.77,413.62 885.77,415.38 885.77,417.12 885.77,418.88 885.77,420.62 885.77,422.38 885.77,424.12 885.77,425.88 885.77,427.62 885.77,429.38 885.77,431.12 885.77,432.88 885.77,434.62 885.77,436.38 885.77,438.12 885.77,439.88 885.77,441.62 885.77,443.38 885.77,445.12 885.77,446.88 885.77,448.62 885.77,450.38 885.77,452.12 885.77,453.88 885.77,455.62 885.77,457.38 885.77,459.12 885.77,460.88 885.77,462.62 885.77,464.38 885.77,466.12 885.77,467.88 885.77,469.62 885.77,471.38 885.77,473.12 885.77,474.88 885.77,476.62 885.77,478.38 885.77,480.12 885.77,481.88 885.77,483.62 885.77,485.38 885.77,487.12 885.77,488.88 885.77,490.62 885.77,492.38 885.77,494.12 885.77,495.88 885.77,497.62 885.95,499.38 886.14,501.12 886.35,502.88 887.10,504.62 887.85,506.38 889.38,508.12 891.55,509.88 898.20,511.62 912.52,513.38 915.16,515.12 916.89,516.88 917.64,518.62 918.39,520.38 918.70,522.12 918.90,523.88 919.09,525.62 919.11,527.38 919.11,529.12 919.11,530.88 919.11,532.62 919.11,534.38 919.11,536.12 919.11,537.88 919.11,539.62 919.11,541.38 919.11,543.12 919.11,544.88 919.11,546.62 919.11,548.38 919.11,550.12 919.11,551.88 919.11,553.62 919.11,555.38 919.11,557.12 919.11,558.88 919.11,560.62 919.11,562.38 919.11,564.12 919.11,565.88 919.11,567.62 919.11,569.38 919.11,571.12 919.11,572.88 919.11,574.62 919.11,576.38 919.11,578.12 919.11,579.88 919.11,581.62 919.11,583.38 919.11,585.12 919.11,586.88 919.11,588.62 919.11,590.38 919.11,592.12 919.11,593.88 919.11,595.62 919.11,597.38 919.11,599.12 919.11,600.88 919.11,602.62 919.11,604.38 919.11,606.12 919.11,607.88 919.11,609.62 919.11,611.38 919.11,613.12 919.11,614.88 919.11,616.62 919.11,618.38 919.11,620.12 919.11,621.88 919.11,623.62 919.11,625.38 919.11,627.12 919.11,628.88 919.11,630.62 919.25,632.38 919.44,634.12 919.64,635.88 920.29,637.62 921.04,639.38 922.37,641.12 924.12,642.88 928.39,644.62 978.38,646.38 981.48,648.12 983.23,649.88 984.16,651.62 984.91,653.38 985.34,655.12 985.53,656.88 985.73,658.62 985.79,660.38 985.79,662.12 985.79,663.88 985.79,665.62 985.79,667.38 985.79,669.12 985.79,670.88 985.79,672.62 985.79,674.38 985.79,676.12 985.79,677.88 985.79,679.62 985.79,681.38 985.79,683.12 985.79,684.88 985.79,686.62 985.79,688.38 985.79,690.12 985.79,691.88 985.79,693.62 985.79,695.38 985.79,697.12 985.79,698.88 985.79,700.62 985.79,702.38 985.79,704.12 985.79,705.88 985.79,707.62 985.79,709.38 985.79,711.12 985.79,712.88 985.79,714.62 985.79,716.38 985.79,718.12 985.79,719.88 985.79,721.62 985.79,723.38 985.79,725.12 985.79,726.88 985.79,728.62 985.79,730.38 985.79,732.12 985.79,733.88 985.79,735.62 985.79,737.38 985.79,739.12 985.79,740.88 985.79,742.62 985.79,744.38 985.79,746.12 985.79,747.88 985.79,749.62 985.79,751.38 985.79,753.12 985.79,754.88 985.79,756.62 985.79,758.38 985.79,760.12 985.79,761.88 985.79,763.62 985.79,765.38 985.79,767.12 985.79,768.88 985.79,770.62 985.79,772.38 985.79,774.12 985.79,775.88 985.79,777.62 985.79,779.38 985.79,781.12 985.79,782.88 985.79,784.62 985.79,786.38 985.79,788.12 985.79,789.88 985.79,791.62 985.79,793.38 985.79,795.12 985.79,796.88 985.79,798.62 985.79,800.38 985.79,802.12 985.79,803.88 985.79,805.62 985.79,807.38 985.79,809.12 985.79,810.88 985.79,812.62 985.79,814.38 985.79,816.12 985.79,817.88 985.79,819.62 985.79,821.38 985.79,823.12 985.79,824.88 985.79,826.62 985.79,828.38 985.79,830.12 985.79,831.88 985.79,833.62 985.79,835.38 985.79,837.12 985.79,838.88 985.79,840.62 985.79,842.38 985.79,844.12 985.79,845.88 985.79,847.62 985.79,849.38 985.79,851.12 985.79,852.88 985.79,854.62 985.79,856.38 985.79,858.12 985.79,859.88 985.79,861.62 985.79,863.38 985.79,865.12 985.79,866.88 985.79,868.62 985.79,870.38 985.79,872.12 985.79,873.88 985.79,875.62 985.79,877.38 985.79,879.12 985.79,880.88 985.79,882.62 985.69,884.38 985.50,886.12 985.30,887.88 984.76,889.62 984.01,891.38 982.88,893.12 981.13,894.88 977.56,896.62 1020.61,896.62 1017.04,894.88 1015.29,893.12 1014.16,891.38 1013.41,889.62 1012.87,887.88 1012.68,886.12 1012.48,884.38 1012.39,882.62 1012.39,880.88 1012.39,879.12 1012.39,877.38 1012.39,875.62 1012.39,873.88 1012.39,872.12 1012.39,870.38 1012.39,868.62 1012.39,866.88 1012.39,865.12 1012.39,863.38 1012.39,861.62 1012.39,859.88 1012.39,858.12 1012.39,856.38 1012.39,854.62 1012.39,852.88 1012.39,851.12 1012.39,849.38 1012.39,847.62 1012.39,845.88 1012.39,844.12 1012.39,842.38 1012.39,840.62 1012.39,838.88 1012.39,837.12 1012.39,835.38 1012.39,833.62 1012.39,831.88 1012.39,830.12 1012.39,828.38 1012.39,826.62 1012.39,824.88 1012.39,823.12 1012.39,821.38 1012.39,819.62 1012.39,817.88 1012.39,816.12 1012.39,814.38 1012.39,812.62 1012.39,810.88 1012.39,809.12 1012.39,807.38 1012.39,805.62 1012.39,803.88 1012.39,802.12 1012.39,800.38 1012.39,798.62 1012.39,796.88 1012.39,795.12 1012.39,793.38 1012.39,791.62 1012.39,789.88 1012.39,788.12 1012.39,786.38 1012.39,784.62 1012.39,782.88 1012.39,781.12 1012.39,779.38 1012.39,777.62 1012.39,775.88 1012.39,774.12 1012.39,772.38 1012.39,770.62 1012.39,768.88 1012.39,767.12 1012.39,765.38 1012.39,763.62 1012.39,761.88 1012.39,760.12 1012.39,758.38 1012.39,756.62 1012.39,754.88 1012.39,753.12 1012.39,751.38 1012.39,749.62 1012.39,747.88 1012.39,746.12 1012.39,744.38 1012.39,742.62 1012.39,740.88 1012.39,739.12 1012.39,737.38 1012.39,735.62 1012.39,733.88 1012.39,732.12 1012.39,730.38 1012.39,728.62 1012.39,726.88 1012.39,725.12 1012.39,723.38 1012.39,721.62 1012.39,719.88 1012.39,718.12 1012.39,716.38 1012.39,714.62 1012.39,712.88 1012.39,711.12 1012.39,709.38 1012.39,707.62 1012.39,705.88 1012.39,704.12 1012.39,702.38 1012.39,700.62 1012.39,698.88 1012.39,697.12 1012.39,695.38 1012.39,693.62 1012.39,691.88 1012.39,690.12 1012.39,688.38 1012.39,686.62 1012.39,684.88 1012.39,683.12 1012.39,681.38 1012.39,679.62 1012.39,677.88 1012.39,676.12 1012.39,674.38 1012.39,672.62 1012.39,670.88 1012.39,669.12 1012.39,667.38 1012.39,665.62 1012.39,663.88 1012.39,662.12 1012.39,660.38 1012.39,658.62 1012.39,656.88 1012.39,655.12 1012.39,653.38 1012.39,651.62 1012.21,649.88 1012.02,648.12 1011.81,646.38 1011.06,644.62 1010.31,642.88 1008.78,641.12 1006.61,639.38 999.96,637.62 952.30,635.88 949.67,634.12 947.94,632.38 947.19,630.62 946.44,628.88 946.12,627.12 945.93,625.38 945.73,623.62 945.71,621.88 945.71,620.12 945.71,618.38 945.71,616.62 945.71,614.88 945.71,613.12 945.71,611.38 945.71,609.62 945.71,607.88 945.71,606.12 945.71,604.38 945.71,602.62 945.71,600.88 945.71,599.12 945.71,597.38 945.71,595.62 945.71,593.88 945.71,592.12 945.71,590.38 945.71,588.62 945.71,586.88 945.71,585.12 945.71,583.38 945.71,581.62 945.71,579.88 945.71,578.12 945.71,576.38 945.71,574.62 945.71,572.88 945.71,571.12 945.71,569.38 945.71,567.62 945.71,565.88 945.71,564.12 945.71,562.38 945.71,560.62 945.71,558.88 945.71,557.12 945.71,555.38 945.71,553.62 945.71,551.88 945.71,550.12 945.71,548.38 945.71,546.62 945.71,544.88 945.71,543.12 945.71,541.38 945.71,539.62 945.71,537.88 945.71,536.12 945.71,534.38 945.71,532.62 945.71,530.88 945.71,529.12 945.71,527.38 945.71,525.62 945.71,523.88 945.71,522.12 945.71,520.38 945.71,518.62 945.58,516.88 945.38,515.12 945.19,513.38 944.54,511.62 943.79,509.88 942.46,508.12 940.71,506.38 936.44,504.62 919.78,502.88 916.68,501.12 914.93,499.38 914.00,497.62 913.25,495.88 912.82,494.12 912.63,492.38 912.43,490.62 912.38,488.88 912.38,487.12 912.38,485.38 912.38,483.62 912.38,481.88 912.38,480.12 912.38,478.38 912.38,476.62 912.38,474.88 912.38,473.12 912.38,471.38 912.38,469.62 912.38,467.88 912.38,466.12 912.38,464.38 912.38,462.62 912.38,460.88 912.38,459.12 912.38,457.38 912.38,455.62 912.38,453.88 912.38,452.12 912.38,450.38 912.38,448.62 912.38,446.88 912.38,445.12 912.38,443.38 912.38,441.62 912.38,439.88 912.38,438.12 912.38,436.38 912.38,434.62 912.38,432.88 912.38,431.12 912.38,429.38 912.38,427.62 912.38,425.88 912.38,424.12 912.38,422.38 912.38,420.62 912.38,418.88 912.38,417.12 912.38,415.38 912.38,413.62 912.38,411.88 912.38,410.12 912.38,408.38 912.38,406.62 912.38,404.88 912.38,403.12 912.38,401.38 912.38,399.62 912.38,397.88 912.38,396.12 912.38,394.38 912.38,392.62 912.55,390.88 912.74,389.12 912.95,387.38 913.70,385.62 914.45,383.88 915.98,382.12 918.15,380.38 924.80,378.62 972.46,376.88 975.09,375.12 976.83,373.38 977.57,371.62 978.32,369.88 978.64,368.12 978.84,366.38 979.03,364.62 979.05,362.88 979.05,361.12 979.05,359.38 979.05,357.62 979.05,355.88 979.05,354.12 979.05,352.38 979.05,350.62 979.05,348.88 979.05,347.12 979.05,345.38 979.05,343.62 979.05,341.88 979.05,340.12 979.05,338.38 979.05,336.62 979.05,334.88 979.05,333.12 979.05,331.38 979.05,329.62 979.05,327.88 979.05,326.12 979.05,324.38 979.05,322.62 979.05,320.88 979.05,319.12 979.05,317.38 979.05,315.62 979.05,313.88 979.05,312.12 979.05,310.38 979.05,308.62 979.05,306.88 979.05,305.12 979.05,303.38 979.05,301.62 979.05,299.88 979.05,298.12 979.05,296.38 979.05,294.62 979.05,292.88 979.05,291.12 979.05,289.38 979.05,287.62 979.05,285.88 979.05,284.12 979.05,282.38 979.05,280.62 979.05,278.88 979.05,277.12 979.05,275.38 979.05,273.62 979.05,271.88 979.05,270.12 979.05,268.38 979.05,266.62 979.15,264.88 979.34,263.12 979.54,261.38 980.07,259.62 980.82,257.88 981.95,256.12 983.70,254.38 987.27,252.62 1067.95,250.88 1071.52,249.12 1073.27,247.38 1074.40,245.62 1075.15,243.88 1075.69,242.12 1075.88,240.38 1076.08,238.62 1076.17,236.88 1076.17,235.12 1076.17,233.38 1076.17,231.62 1076.17,229.88 1076.17,228.12 1076.17,226.38 1076.17,224.62 1076.17,222.88 1076.17,221.12 1076.17,219.38 1076.17,217.62 1076.17,215.88 1076.17,214.12 1076.17,212.38 1076.17,210.62 1076.17,208.88 1076.17,207.12 1076.17,205.38 1076.17,203.62 1076.17,201.88 1076.17,200.12 1076.17,198.38 1076.17,196.62 1076.17,194.88 1076.17,193.12 1076.17,191.38 1076.17,189.62 1076.17,187.88 1076.17,186.12 1076.17,184.38 1076.17,182.62 1076.17,180.88 1076.17,179.12 1076.17,177.38 1076.17,175.62 1076.17,173.88 1076.17,172.12 1076.17,170.38 1076.17,168.62 1076.17,166.88 1076.17,165.12 1076.17,163.38 1076.17,161.62 1076.17,159.88 1076.17,158.12 1076.17,156.38 1076.17,154.62 1076.17,152.88 1076.17,151.12 1076.17,149.38 1076.17,147.62 1076.17,145.88 1076.17,144.12 1076.17,142.38 1076.17,140.62 1076.17,138.88 1076.17,137.12 1076.17,135.38 1076.17,133.62 1076.17,131.88 1076.17,130.12 1076.17,128.38 1076.17,126.62 1076.17,124.88 1076.17,123.12 1076.17,121.38 1076.17,119.62 1076.17,117.88 1076.17,116.12 1076.17,114.38 1076.17,112.62 1076.17,110.88 1076.17,109.12 1076.17,107.38 1076.17,105.62 1076.17,103.88 1076.17,102.12 1076.17,100.38 1076.17,98.62 1076.17,96.88 1076.17,95.12 1076.17,93.38 1076.17,91.62 1076.17,89.88 1076.17,88.12 1076.17,86.38 1076.17,84.62 1076.17,82.88 1076.17,81.12 1076.17,79.38 1076.17,77.62 1076.17,75.88 1076.17,74.12 1076.17,72.38 1076.17,70.62 1076.17,68.88 1076.17,67.12 1076.17,65.38 1076.17,63.62 1076.17,61.88 1076.17,60.12 1076.17,58.38 1076.17,56.62 1076.17,54.88 1076.27,53.12 1076.47,51.38 1076.66,49.62 1077.20,47.88 1077.95,46.12 1079.08,44.38 1080.83,42.62 1084.40,40.88" fill="#f6b8a9" fill-opacity="0.55" stroke="none"/>
</g>
<g id="seam-key-clearances" data-seam-pair-count="5">
<g data-row="0" data-pair="6-7" data-left-cap-width-mm="18.0500" data-right-cap-width-mm="18.0500" data-center-pitch-mm="19.8500" data-cap-gap-mm="1.8000" data-left-center-to-pcb-edge-mm="8.0250" data-right-center-to-pcb-edge-mm="8.0250" data-pcb-gap-mm="3.8000"/>
<g data-row="1" data-pair="T-Y" data-left-cap-width-mm="18.0500" data-right-cap-width-mm="18.0500" data-center-pitch-mm="19.8500" data-cap-gap-mm="1.8000" data-left-center-to-pcb-edge-mm="8.0250" data-right-center-to-pcb-edge-mm="8.0250" data-pcb-gap-mm="3.8000"/>
<g data-row="2" data-pair="G-H" data-left-cap-width-mm="18.0500" data-right-cap-width-mm="18.0500" data-center-pitch-mm="19.8500" data-cap-gap-mm="1.8000" data-left-center-to-pcb-edge-mm="8.0250" data-right-center-to-pcb-edge-mm="8.0250" data-pcb-gap-mm="3.8000"/>
<g data-row="3" data-pair="B-N" data-left-cap-width-mm="18.0500" data-right-cap-width-mm="18.0500" data-center-pitch-mm="19.8500" data-cap-gap-mm="1.8000" data-left-center-to-pcb-edge-mm="8.0250" data-right-center-to-pcb-edge-mm="8.0250" data-pcb-gap-mm="3.8000"/>
<g data-row="4" data-pair="Space-B" data-left-cap-width-mm="32.3375" data-right-cap-width-mm="18.0500" data-center-pitch-mm="26.9937" data-cap-gap-mm="1.7999" data-left-center-to-pcb-edge-mm="15.1687" data-right-center-to-pcb-edge-mm="8.0250" data-pcb-gap-mm="3.8000"/>
</g>
<line x1="885.77" y1="441.28" x2="912.38" y2="441.28" stroke="#d33b2f" stroke-width="2"/>
<line x1="885.77" y1="432.88" x2="885.77" y2="449.68" stroke="#d33b2f" stroke-width="2"/>
<line x1="912.38" y1="432.88" x2="912.38" y2="449.68" stroke="#d33b2f" stroke-width="2"/>
<line x1="40.00" y1="265.75" x2="40.56" y2="260.71" stroke="#102018" stroke-width="2" fill="none"/>
<line x1="40.00" y1="360.60" x2="40.00" y2="265.75" stroke="#102018" stroke-width="2" fill="none"/>
<line x1="40.00" y1="366.20" x2="40.00" y2="360.60" stroke="#102018" stroke-width="2" fill="none"/>
<line x1="40.00" y1="371.80" x2="40.00" y2="366.20" stroke="#102018" stroke-width="2" fill="none"/>
<line x1="40.00" y1="377.40" x2="40.00" y2="371.80" stroke="#102018" stroke-width="2" fill="none"/>
<line x1="40.00" y1="383.00" x2="40.00" y2="377.40" stroke="#102018" stroke-width="2" fill="none"/>
<line x1="40.00" y1="388.60" x2="40.00" y2="383.00" stroke="#102018" stroke-width="2" fill="none"/>
<line x1="40.00" y1="493.95" x2="40.00" y2="388.60" stroke="#102018" stroke-width="2" fill="none"/>
<line x1="40.00" y1="499.55" x2="40.00" y2="493.95" stroke="#102018" stroke-width="2" fill="none"/>
<line x1="40.00" y1="505.15" x2="40.00" y2="499.55" stroke="#102018" stroke-width="2" fill="none"/>
<line x1="40.00" y1="510.75" x2="40.00" y2="505.15" stroke="#102018" stroke-width="2" fill="none"/>
<line x1="40.00" y1="516.35" x2="40.00" y2="510.75" stroke="#102018" stroke-width="2" fill="none"/>
<line x1="40.00" y1="521.95" x2="40.00" y2="516.35" stroke="#102018" stroke-width="2" fill="none"/>
<line x1="40.00" y1="627.30" x2="40.00" y2="521.95" stroke="#102018" stroke-width="2" fill="none"/>
<line x1="40.00" y1="632.90" x2="40.00" y2="627.30" stroke="#102018" stroke-width="2" fill="none"/>
<line x1="40.00" y1="638.50" x2="40.00" y2="632.90" stroke="#102018" stroke-width="2" fill="none"/>
<line x1="40.00" y1="644.10" x2="40.00" y2="638.50" stroke="#102018" stroke-width="2" fill="none"/>
<line x1="40.00" y1="649.70" x2="40.00" y2="644.10" stroke="#102018" stroke-width="2" fill="none"/>
<line x1="40.00" y1="655.30" x2="40.00" y2="649.70" stroke="#102018" stroke-width="2" fill="none"/>
<line x1="40.00" y1="760.65" x2="40.00" y2="655.30" stroke="#102018" stroke-width="2" fill="none"/>
<line x1="40.00" y1="766.25" x2="40.00" y2="760.65" stroke="#102018" stroke-width="2" fill="none"/>
<line x1="40.00" y1="771.85" x2="40.00" y2="766.25" stroke="#102018" stroke-width="2" fill="none"/>
<line x1="40.00" y1="777.45" x2="40.00" y2="771.85" stroke="#102018" stroke-width="2" fill="none"/>
<line x1="40.00" y1="783.05" x2="40.00" y2="777.45" stroke="#102018" stroke-width="2" fill="none"/>
<line x1="40.00" y1="788.65" x2="40.00" y2="783.05" stroke="#102018" stroke-width="2" fill="none"/>
<line x1="40.00" y1="883.50" x2="40.00" y2="788.65" stroke="#102018" stroke-width="2" fill="none"/>
<line x1="40.56" y1="260.71" x2="42.24" y2="256.79" stroke="#102018" stroke-width="2" fill="none"/>
<line x1="40.56" y1="888.54" x2="40.00" y2="883.50" stroke="#102018" stroke-width="2" fill="none"/>
<line x1="42.24" y1="256.79" x2="45.04" y2="253.99" stroke="#102018" stroke-width="2" fill="none"/>
<line x1="42.24" y1="892.46" x2="40.56" y2="888.54" stroke="#102018" stroke-width="2" fill="none"/>
<line x1="45.04" y1="253.99" x2="48.96" y2="252.31" stroke="#102018" stroke-width="2" fill="none"/>
<line x1="45.04" y1="895.26" x2="42.24" y2="892.46" stroke="#102018" stroke-width="2" fill="none"/>
<line x1="48.96" y1="252.31" x2="54.00" y2="251.75" stroke="#102018" stroke-width="2" fill="none"/>
<line x1="48.96" y1="896.94" x2="45.04" y2="895.26" stroke="#102018" stroke-width="2" fill="none"/>
<line x1="54.00" y1="251.75" x2="545.49" y2="251.75" stroke="#102018" stroke-width="2" fill="none"/>
<line x1="54.00" y1="897.50" x2="48.96" y2="896.94" stroke="#102018" stroke-width="2" fill="none"/>
<line x1="545.49" y1="251.75" x2="550.53" y2="251.19" stroke="#102018" stroke-width="2" fill="none"/>
<line x1="550.53" y1="251.19" x2="554.45" y2="249.51" stroke="#102018" stroke-width="2" fill="none"/>
<line x1="554.45" y1="249.51" x2="557.25" y2="246.71" stroke="#102018" stroke-width="2" fill="none"/>
<line x1="557.25" y1="246.71" x2="558.93" y2="242.79" stroke="#102018" stroke-width="2" fill="none"/>
<line x1="558.93" y1="242.79" x2="559.49" y2="237.75" stroke="#102018" stroke-width="2" fill="none"/>
<line x1="559.49" y1="54.00" x2="560.05" y2="48.96" stroke="#102018" stroke-width="2" fill="none"/>
<line x1="559.49" y1="237.75" x2="559.49" y2="54.00" stroke="#102018" stroke-width="2" fill="none"/>
<line x1="560.05" y1="48.96" x2="561.73" y2="45.04" stroke="#102018" stroke-width="2" fill="none"/>
<line x1="561.73" y1="45.04" x2="564.53" y2="42.24" stroke="#102018" stroke-width="2" fill="none"/>
<line x1="564.53" y1="42.24" x2="568.45" y2="40.56" stroke="#102018" stroke-width="2" fill="none"/>
<line x1="568.45" y1="40.56" x2="573.49" y2="40.00" stroke="#102018" stroke-width="2" fill="none"/>
<line x1="573.49" y1="40.00" x2="842.99" y2="40.00" stroke="#102018" stroke-width="2" fill="none"/>
<line x1="842.99" y1="40.00" x2="848.03" y2="40.56" stroke="#102018" stroke-width="2" fill="none"/>
<line x1="848.03" y1="40.56" x2="851.95" y2="42.24" stroke="#102018" stroke-width="2" fill="none"/>
<line x1="851.95" y1="42.24" x2="854.75" y2="45.04" stroke="#102018" stroke-width="2" fill="none"/>
<line x1="854.75" y1="45.04" x2="856.43" y2="48.96" stroke="#102018" stroke-width="2" fill="none"/>
<line x1="856.43" y1="48.96" x2="856.99" y2="54.00" stroke="#102018" stroke-width="2" fill="none"/>
<line x1="856.99" y1="54.00" x2="856.99" y2="237.75" stroke="#102018" stroke-width="2" fill="none"/>
<line x1="856.99" y1="237.75" x2="857.55" y2="242.79" stroke="#102018" stroke-width="2" fill="none"/>
<line x1="857.55" y1="242.79" x2="859.23" y2="246.71" stroke="#102018" stroke-width="2" fill="none"/>
<line x1="859.23" y1="246.71" x2="862.03" y2="249.51" stroke="#102018" stroke-width="2" fill="none"/>
<line x1="862.03" y1="249.51" x2="865.95" y2="251.19" stroke="#102018" stroke-width="2" fill="none"/>
<line x1="865.95" y1="251.19" x2="870.99" y2="251.75" stroke="#102018" stroke-width="2" fill="none"/>
<line x1="870.99" y1="251.75" x2="938.45" y2="251.75" stroke="#102018" stroke-width="2" fill="none"/>
<line x1="885.77" y1="384.75" x2="885.77" y2="497.80" stroke="#102018" stroke-width="2" fill="none"/>
<line x1="885.77" y1="497.80" x2="886.34" y2="502.84" stroke="#102018" stroke-width="2" fill="none"/>
<line x1="886.34" y1="379.71" x2="885.77" y2="384.75" stroke="#102018" stroke-width="2" fill="none"/>
<line x1="886.34" y1="502.84" x2="888.02" y2="506.76" stroke="#102018" stroke-width="2" fill="none"/>
<line x1="888.02" y1="375.79" x2="886.34" y2="379.71" stroke="#102018" stroke-width="2" fill="none"/>
<line x1="888.02" y1="506.76" x2="890.81" y2="509.56" stroke="#102018" stroke-width="2" fill="none"/>
<line x1="890.81" y1="372.99" x2="888.02" y2="375.79" stroke="#102018" stroke-width="2" fill="none"/>
<line x1="890.81" y1="509.56" x2="894.73" y2="511.24" stroke="#102018" stroke-width="2" fill="none"/>
<line x1="894.73" y1="371.31" x2="890.81" y2="372.99" stroke="#102018" stroke-width="2" fill="none"/>
<line x1="894.73" y1="511.24" x2="899.77" y2="511.80" stroke="#102018" stroke-width="2" fill="none"/>
<line x1="899.77" y1="370.75" x2="894.73" y2="371.31" stroke="#102018" stroke-width="2" fill="none"/>
<line x1="899.77" y1="511.80" x2="905.11" y2="511.80" stroke="#102018" stroke-width="2" fill="none"/>
<line x1="905.11" y1="511.80" x2="910.15" y2="512.36" stroke="#102018" stroke-width="2" fill="none"/>
<line x1="910.15" y1="512.36" x2="914.07" y2="514.04" stroke="#102018" stroke-width="2" fill="none"/>
<line x1="914.07" y1="514.04" x2="916.87" y2="516.84" stroke="#102018" stroke-width="2" fill="none"/>
<line x1="916.87" y1="516.84" x2="918.55" y2="520.76" stroke="#102018" stroke-width="2" fill="none"/>
<line x1="918.55" y1="520.76" x2="919.11" y2="525.80" stroke="#102018" stroke-width="2" fill="none"/>
<line x1="919.11" y1="525.80" x2="919.11" y2="631.15" stroke="#102018" stroke-width="2" fill="none"/>
<line x1="919.11" y1="631.15" x2="919.67" y2="636.19" stroke="#102018" stroke-width="2" fill="none"/>
<line x1="919.67" y1="636.19" x2="921.35" y2="640.11" stroke="#102018" stroke-width="2" fill="none"/>
<line x1="921.35" y1="640.11" x2="924.15" y2="642.91" stroke="#102018" stroke-width="2" fill="none"/>
<line x1="924.15" y1="642.91" x2="928.07" y2="644.59" stroke="#102018" stroke-width="2" fill="none"/>
<line x1="928.07" y1="644.59" x2="933.11" y2="645.15" stroke="#102018" stroke-width="2" fill="none"/>
<line x1="933.11" y1="645.15" x2="971.79" y2="645.15" stroke="#102018" stroke-width="2" fill="none"/>
<line x1="938.45" y1="251.75" x2="943.49" y2="252.31" stroke="#102018" stroke-width="2" fill="none"/>
<line x1="938.45" y1="370.75" x2="899.77" y2="370.75" stroke="#102018" stroke-width="2" fill="none"/>
<line x1="943.49" y1="252.31" x2="947.41" y2="253.99" stroke="#102018" stroke-width="2" fill="none"/>
<line x1="943.49" y1="370.19" x2="938.45" y2="370.75" stroke="#102018" stroke-width="2" fill="none"/>
<line x1="947.41" y1="253.99" x2="950.21" y2="256.79" stroke="#102018" stroke-width="2" fill="none"/>
<line x1="947.41" y1="368.51" x2="943.49" y2="370.19" stroke="#102018" stroke-width="2" fill="none"/>
<line x1="950.21" y1="256.79" x2="951.89" y2="260.71" stroke="#102018" stroke-width="2" fill="none"/>
<line x1="950.21" y1="365.71" x2="947.41" y2="368.51" stroke="#102018" stroke-width="2" fill="none"/>
<line x1="951.89" y1="260.71" x2="952.45" y2="265.75" stroke="#102018" stroke-width="2" fill="none"/>
<line x1="951.89" y1="361.79" x2="950.21" y2="365.71" stroke="#102018" stroke-width="2" fill="none"/>
<line x1="952.45" y1="265.75" x2="952.45" y2="356.75" stroke="#102018" stroke-width="2" fill="none"/>
<line x1="952.45" y1="356.75" x2="951.89" y2="361.79" stroke="#102018" stroke-width="2" fill="none"/>
<line x1="971.79" y1="645.15" x2="976.83" y2="645.71" stroke="#102018" stroke-width="2" fill="none"/>
<line x1="971.79" y1="897.50" x2="54.00" y2="897.50" stroke="#102018" stroke-width="2" fill="none"/>
<line x1="976.83" y1="645.71" x2="980.75" y2="647.39" stroke="#102018" stroke-width="2" fill="none"/>
<line x1="976.83" y1="896.94" x2="971.79" y2="897.50" stroke="#102018" stroke-width="2" fill="none"/>
<line x1="980.75" y1="647.39" x2="983.55" y2="650.19" stroke="#102018" stroke-width="2" fill="none"/>
<line x1="980.75" y1="895.26" x2="976.83" y2="896.94" stroke="#102018" stroke-width="2" fill="none"/>
<line x1="983.55" y1="650.19" x2="985.23" y2="654.11" stroke="#102018" stroke-width="2" fill="none"/>
<line x1="983.55" y1="892.46" x2="980.75" y2="895.26" stroke="#102018" stroke-width="2" fill="none"/>
<line x1="985.23" y1="654.11" x2="985.79" y2="659.15" stroke="#102018" stroke-width="2" fill="none"/>
<line x1="985.23" y1="888.54" x2="983.55" y2="892.46" stroke="#102018" stroke-width="2" fill="none"/>
<line x1="985.79" y1="659.15" x2="985.79" y2="764.50" stroke="#102018" stroke-width="2" fill="none"/>
<line x1="985.79" y1="764.50" x2="985.79" y2="770.10" stroke="#102018" stroke-width="2" fill="none"/>
<line x1="985.79" y1="770.10" x2="985.79" y2="775.70" stroke="#102018" stroke-width="2" fill="none"/>
<line x1="985.79" y1="775.70" x2="985.79" y2="781.30" stroke="#102018" stroke-width="2" fill="none"/>
<line x1="985.79" y1="781.30" x2="985.79" y2="786.90" stroke="#102018" stroke-width="2" fill="none"/>
<line x1="985.79" y1="786.90" x2="985.79" y2="792.50" stroke="#102018" stroke-width="2" fill="none"/>
<line x1="985.79" y1="792.50" x2="985.79" y2="883.50" stroke="#102018" stroke-width="2" fill="none"/>
<line x1="985.79" y1="883.50" x2="985.23" y2="888.54" stroke="#102018" stroke-width="2" fill="none"/>
<line x1="912.38" y1="392.45" x2="912.93" y2="387.41" stroke="#101b2a" stroke-width="2" fill="none"/>
<line x1="912.38" y1="490.10" x2="912.38" y2="392.45" stroke="#101b2a" stroke-width="2" fill="none"/>
<line x1="912.93" y1="387.41" x2="914.62" y2="383.49" stroke="#101b2a" stroke-width="2" fill="none"/>
<line x1="912.93" y1="495.14" x2="912.38" y2="490.10" stroke="#101b2a" stroke-width="2" fill="none"/>
<line x1="914.62" y1="383.49" x2="917.41" y2="380.69" stroke="#101b2a" stroke-width="2" fill="none"/>
<line x1="914.62" y1="499.06" x2="912.93" y2="495.14" stroke="#101b2a" stroke-width="2" fill="none"/>
<line x1="917.41" y1="380.69" x2="921.33" y2="379.01" stroke="#101b2a" stroke-width="2" fill="none"/>
<line x1="917.41" y1="501.86" x2="914.62" y2="499.06" stroke="#101b2a" stroke-width="2" fill="none"/>
<line x1="921.33" y1="379.01" x2="926.38" y2="378.45" stroke="#101b2a" stroke-width="2" fill="none"/>
<line x1="921.33" y1="503.54" x2="917.41" y2="501.86" stroke="#101b2a" stroke-width="2" fill="none"/>
<line x1="926.38" y1="378.45" x2="965.05" y2="378.45" stroke="#101b2a" stroke-width="2" fill="none"/>
<line x1="926.38" y1="504.10" x2="921.33" y2="503.54" stroke="#101b2a" stroke-width="2" fill="none"/>
<line x1="931.71" y1="504.10" x2="926.38" y2="504.10" stroke="#101b2a" stroke-width="2" fill="none"/>
<line x1="936.75" y1="504.66" x2="931.71" y2="504.10" stroke="#101b2a" stroke-width="2" fill="none"/>
<line x1="940.67" y1="506.34" x2="936.75" y2="504.66" stroke="#101b2a" stroke-width="2" fill="none"/>
<line x1="943.47" y1="509.14" x2="940.67" y2="506.34" stroke="#101b2a" stroke-width="2" fill="none"/>
<line x1="945.15" y1="513.06" x2="943.47" y2="509.14" stroke="#101b2a" stroke-width="2" fill="none"/>
<line x1="945.71" y1="518.10" x2="945.15" y2="513.06" stroke="#101b2a" stroke-width="2" fill="none"/>
<line x1="945.71" y1="623.45" x2="945.71" y2="518.10" stroke="#101b2a" stroke-width="2" fill="none"/>
<line x1="946.27" y1="628.49" x2="945.71" y2="623.45" stroke="#101b2a" stroke-width="2" fill="none"/>
<line x1="947.95" y1="632.41" x2="946.27" y2="628.49" stroke="#101b2a" stroke-width="2" fill="none"/>
<line x1="950.75" y1="635.21" x2="947.95" y2="632.41" stroke="#101b2a" stroke-width="2" fill="none"/>
<line x1="954.67" y1="636.89" x2="950.75" y2="635.21" stroke="#101b2a" stroke-width="2" fill="none"/>
<line x1="959.71" y1="637.45" x2="954.67" y2="636.89" stroke="#101b2a" stroke-width="2" fill="none"/>
<line x1="965.05" y1="378.45" x2="970.09" y2="377.89" stroke="#101b2a" stroke-width="2" fill="none"/>
<line x1="970.09" y1="377.89" x2="974.01" y2="376.21" stroke="#101b2a" stroke-width="2" fill="none"/>
<line x1="974.01" y1="376.21" x2="976.81" y2="373.41" stroke="#101b2a" stroke-width="2" fill="none"/>
<line x1="976.81" y1="373.41" x2="978.49" y2="369.49" stroke="#101b2a" stroke-width="2" fill="none"/>
<line x1="978.49" y1="369.49" x2="979.05" y2="364.45" stroke="#101b2a" stroke-width="2" fill="none"/>
<line x1="979.05" y1="265.75" x2="979.61" y2="260.71" stroke="#101b2a" stroke-width="2" fill="none"/>
<line x1="979.05" y1="364.45" x2="979.05" y2="265.75" stroke="#101b2a" stroke-width="2" fill="none"/>
<line x1="979.61" y1="260.71" x2="981.29" y2="256.79" stroke="#101b2a" stroke-width="2" fill="none"/>
<line x1="981.29" y1="256.79" x2="984.09" y2="253.99" stroke="#101b2a" stroke-width="2" fill="none"/>
<line x1="984.09" y1="253.99" x2="988.01" y2="252.31" stroke="#101b2a" stroke-width="2" fill="none"/>
<line x1="988.01" y1="252.31" x2="993.05" y2="251.75" stroke="#101b2a" stroke-width="2" fill="none"/>
<line x1="993.05" y1="251.75" x2="1062.17" y2="251.75" stroke="#101b2a" stroke-width="2" fill="none"/>
<line x1="998.39" y1="637.45" x2="959.71" y2="637.45" stroke="#101b2a" stroke-width="2" fill="none"/>
<line x1="1003.43" y1="638.01" x2="998.39" y2="637.45" stroke="#101b2a" stroke-width="2" fill="none"/>
<line x1="1007.35" y1="639.69" x2="1003.43" y2="638.01" stroke="#101b2a" stroke-width="2" fill="none"/>
<line x1="1010.15" y1="642.49" x2="1007.35" y2="639.69" stroke="#101b2a" stroke-width="2" fill="none"/>
<line x1="1011.83" y1="646.41" x2="1010.15" y2="642.49" stroke="#101b2a" stroke-width="2" fill="none"/>
<line x1="1012.39" y1="651.45" x2="1011.83" y2="646.41" stroke="#101b2a" stroke-width="2" fill="none"/>
<line x1="1012.39" y1="756.80" x2="1012.39" y2="651.45" stroke="#101b2a" stroke-width="2" fill="none"/>
<line x1="1012.39" y1="762.40" x2="1012.39" y2="756.80" stroke="#101b2a" stroke-width="2" fill="none"/>
<line x1="1012.39" y1="768.00" x2="1012.39" y2="762.40" stroke="#101b2a" stroke-width="2" fill="none"/>
<line x1="1012.39" y1="773.60" x2="1012.39" y2="768.00" stroke="#101b2a" stroke-width="2" fill="none"/>
<line x1="1012.39" y1="779.20" x2="1012.39" y2="773.60" stroke="#101b2a" stroke-width="2" fill="none"/>
<line x1="1012.39" y1="784.80" x2="1012.39" y2="779.20" stroke="#101b2a" stroke-width="2" fill="none"/>
<line x1="1012.39" y1="883.50" x2="1012.39" y2="784.80" stroke="#101b2a" stroke-width="2" fill="none"/>
<line x1="1012.95" y1="888.54" x2="1012.39" y2="883.50" stroke="#101b2a" stroke-width="2" fill="none"/>
<line x1="1014.63" y1="892.46" x2="1012.95" y2="888.54" stroke="#101b2a" stroke-width="2" fill="none"/>
<line x1="1017.43" y1="895.26" x2="1014.63" y2="892.46" stroke="#101b2a" stroke-width="2" fill="none"/>
<line x1="1021.35" y1="896.94" x2="1017.43" y2="895.26" stroke="#101b2a" stroke-width="2" fill="none"/>
<line x1="1026.39" y1="897.50" x2="1021.35" y2="896.94" stroke="#101b2a" stroke-width="2" fill="none"/>
<line x1="1062.17" y1="251.75" x2="1067.21" y2="251.19" stroke="#101b2a" stroke-width="2" fill="none"/>
<line x1="1067.21" y1="251.19" x2="1071.13" y2="249.51" stroke="#101b2a" stroke-width="2" fill="none"/>
<line x1="1071.13" y1="249.51" x2="1073.93" y2="246.71" stroke="#101b2a" stroke-width="2" fill="none"/>
<line x1="1073.93" y1="246.71" x2="1075.62" y2="242.79" stroke="#101b2a" stroke-width="2" fill="none"/>
<line x1="1075.62" y1="242.79" x2="1076.17" y2="237.75" stroke="#101b2a" stroke-width="2" fill="none"/>
<line x1="1076.17" y1="54.00" x2="1076.73" y2="48.96" stroke="#101b2a" stroke-width="2" fill="none"/>
<line x1="1076.17" y1="237.75" x2="1076.17" y2="54.00" stroke="#101b2a" stroke-width="2" fill="none"/>
<line x1="1076.73" y1="48.96" x2="1078.41" y2="45.04" stroke="#101b2a" stroke-width="2" fill="none"/>
<line x1="1078.41" y1="45.04" x2="1081.21" y2="42.24" stroke="#101b2a" stroke-width="2" fill="none"/>
<line x1="1081.21" y1="42.24" x2="1085.13" y2="40.56" stroke="#101b2a" stroke-width="2" fill="none"/>
<line x1="1085.13" y1="40.56" x2="1090.17" y2="40.00" stroke="#101b2a" stroke-width="2" fill="none"/>
<line x1="1090.17" y1="40.00" x2="1359.67" y2="40.00" stroke="#101b2a" stroke-width="2" fill="none"/>
<line x1="1359.67" y1="40.00" x2="1364.72" y2="40.56" stroke="#101b2a" stroke-width="2" fill="none"/>
<line x1="1364.72" y1="40.56" x2="1368.63" y2="42.24" stroke="#101b2a" stroke-width="2" fill="none"/>
<line x1="1368.63" y1="42.24" x2="1371.43" y2="45.04" stroke="#101b2a" stroke-width="2" fill="none"/>
<line x1="1371.43" y1="45.04" x2="1373.12" y2="48.96" stroke="#101b2a" stroke-width="2" fill="none"/>
<line x1="1373.12" y1="48.96" x2="1373.67" y2="54.00" stroke="#101b2a" stroke-width="2" fill="none"/>
<line x1="1373.67" y1="54.00" x2="1373.67" y2="237.75" stroke="#101b2a" stroke-width="2" fill="none"/>
<line x1="1373.67" y1="237.75" x2="1374.23" y2="242.79" stroke="#101b2a" stroke-width="2" fill="none"/>
<line x1="1374.23" y1="242.79" x2="1375.91" y2="246.71" stroke="#101b2a" stroke-width="2" fill="none"/>
<line x1="1375.91" y1="246.71" x2="1378.72" y2="249.51" stroke="#101b2a" stroke-width="2" fill="none"/>
<line x1="1378.72" y1="249.51" x2="1382.63" y2="251.19" stroke="#101b2a" stroke-width="2" fill="none"/>
<line x1="1382.63" y1="251.19" x2="1387.67" y2="251.75" stroke="#101b2a" stroke-width="2" fill="none"/>
<line x1="1387.67" y1="251.75" x2="2044.19" y2="251.75" stroke="#101b2a" stroke-width="2" fill="none"/>
<line x1="2044.19" y1="251.75" x2="2049.23" y2="252.31" stroke="#101b2a" stroke-width="2" fill="none"/>
<line x1="2044.19" y1="897.50" x2="1026.39" y2="897.50" stroke="#101b2a" stroke-width="2" fill="none"/>
<line x1="2049.23" y1="252.31" x2="2053.15" y2="253.99" stroke="#101b2a" stroke-width="2" fill="none"/>
<line x1="2049.23" y1="896.94" x2="2044.19" y2="897.50" stroke="#101b2a" stroke-width="2" fill="none"/>
<line x1="2053.15" y1="253.99" x2="2055.95" y2="256.79" stroke="#101b2a" stroke-width="2" fill="none"/>
<line x1="2053.15" y1="895.26" x2="2049.23" y2="896.94" stroke="#101b2a" stroke-width="2" fill="none"/>
<line x1="2055.95" y1="256.79" x2="2057.63" y2="260.71" stroke="#101b2a" stroke-width="2" fill="none"/>
<line x1="2055.95" y1="892.46" x2="2053.15" y2="895.26" stroke="#101b2a" stroke-width="2" fill="none"/>
<line x1="2057.63" y1="260.71" x2="2058.19" y2="265.75" stroke="#101b2a" stroke-width="2" fill="none"/>
<line x1="2057.63" y1="888.54" x2="2055.95" y2="892.46" stroke="#101b2a" stroke-width="2" fill="none"/>
<line x1="2058.19" y1="265.75" x2="2058.19" y2="360.60" stroke="#101b2a" stroke-width="2" fill="none"/>
<line x1="2058.19" y1="360.60" x2="2058.19" y2="366.20" stroke="#101b2a" stroke-width="2" fill="none"/>
<line x1="2058.19" y1="366.20" x2="2058.19" y2="371.80" stroke="#101b2a" stroke-width="2" fill="none"/>
<line x1="2058.19" y1="371.80" x2="2058.19" y2="377.40" stroke="#101b2a" stroke-width="2" fill="none"/>
<line x1="2058.19" y1="377.40" x2="2058.19" y2="383.00" stroke="#101b2a" stroke-width="2" fill="none"/>
<line x1="2058.19" y1="383.00" x2="2058.19" y2="388.60" stroke="#101b2a" stroke-width="2" fill="none"/>
<line x1="2058.19" y1="388.60" x2="2058.19" y2="493.95" stroke="#101b2a" stroke-width="2" fill="none"/>
<line x1="2058.19" y1="493.95" x2="2058.19" y2="499.55" stroke="#101b2a" stroke-width="2" fill="none"/>
<line x1="2058.19" y1="499.55" x2="2058.19" y2="505.15" stroke="#101b2a" stroke-width="2" fill="none"/>
<line x1="2058.19" y1="505.15" x2="2058.19" y2="510.75" stroke="#101b2a" stroke-width="2" fill="none"/>
<line x1="2058.19" y1="510.75" x2="2058.19" y2="516.35" stroke="#101b2a" stroke-width="2" fill="none"/>
<line x1="2058.19" y1="516.35" x2="2058.19" y2="521.95" stroke="#101b2a" stroke-width="2" fill="none"/>
<line x1="2058.19" y1="521.95" x2="2058.19" y2="627.30" stroke="#101b2a" stroke-width="2" fill="none"/>
<line x1="2058.19" y1="627.30" x2="2058.19" y2="632.90" stroke="#101b2a" stroke-width="2" fill="none"/>
<line x1="2058.19" y1="632.90" x2="2058.19" y2="638.50" stroke="#101b2a" stroke-width="2" fill="none"/>
<line x1="2058.19" y1="638.50" x2="2058.19" y2="644.10" stroke="#101b2a" stroke-width="2" fill="none"/>
<line x1="2058.19" y1="644.10" x2="2058.19" y2="649.70" stroke="#101b2a" stroke-width="2" fill="none"/>
<line x1="2058.19" y1="649.70" x2="2058.19" y2="655.30" stroke="#101b2a" stroke-width="2" fill="none"/>
<line x1="2058.19" y1="655.30" x2="2058.19" y2="760.65" stroke="#101b2a" stroke-width="2" fill="none"/>
<line x1="2058.19" y1="760.65" x2="2058.19" y2="766.25" stroke="#101b2a" stroke-width="2" fill="none"/>
<line x1="2058.19" y1="766.25" x2="2058.19" y2="771.85" stroke="#101b2a" stroke-width="2" fill="none"/>
<line x1="2058.19" y1="771.85" x2="2058.19" y2="777.45" stroke="#101b2a" stroke-width="2" fill="none"/>
<line x1="2058.19" y1="777.45" x2="2058.19" y2="783.05" stroke="#101b2a" stroke-width="2" fill="none"/>
<line x1="2058.19" y1="783.05" x2="2058.19" y2="788.65" stroke="#101b2a" stroke-width="2" fill="none"/>
<line x1="2058.19" y1="788.65" x2="2058.19" y2="883.50" stroke="#101b2a" stroke-width="2" fill="none"/>
<line x1="2058.19" y1="883.50" x2="2057.63" y2="888.54" stroke="#101b2a" stroke-width="2" fill="none"/>
<rect x="33.00" y="244.75" width="126.35" height="126.35" rx="2" ry="2" fill="#e9fff4" stroke="#2a8d66" stroke-width="1"/>
<text x="96.17" y="311.39" text-anchor="middle" font-family="Arial" font-size="10" fill="#101010">~</text>
<rect x="166.35" y="244.75" width="126.35" height="126.35" rx="2" ry="2" fill="#e9fff4" stroke="#2a8d66" stroke-width="1"/>
<text x="229.53" y="311.39" text-anchor="middle" font-family="Arial" font-size="10" fill="#101010">1</text>
<rect x="299.70" y="244.75" width="126.35" height="126.35" rx="2" ry="2" fill="#e9fff4" stroke="#2a8d66" stroke-width="1"/>
<text x="362.88" y="311.39" text-anchor="middle" font-family="Arial" font-size="10" fill="#101010">2</text>
<rect x="433.05" y="244.75" width="126.35" height="126.35" rx="2" ry="2" fill="#e9fff4" stroke="#2a8d66" stroke-width="1"/>
<text x="496.22" y="311.39" text-anchor="middle" font-family="Arial" font-size="10" fill="#101010">3</text>
<rect x="566.40" y="244.75" width="126.35" height="126.35" rx="2" ry="2" fill="#e9fff4" stroke="#2a8d66" stroke-width="1"/>
<text x="629.57" y="311.39" text-anchor="middle" font-family="Arial" font-size="10" fill="#101010">4</text>
<rect x="699.75" y="244.75" width="126.35" height="126.35" rx="2" ry="2" fill="#e9fff4" stroke="#2a8d66" stroke-width="1"/>
<text x="762.93" y="311.39" text-anchor="middle" font-family="Arial" font-size="10" fill="#101010">5</text>
<rect x="833.10" y="244.75" width="126.35" height="126.35" rx="2" ry="2" fill="#e9fff4" stroke="#2a8d66" stroke-width="1"/>
<text x="896.27" y="311.39" text-anchor="middle" font-family="Arial" font-size="10" fill="#101010">6</text>
<rect x="33.00" y="378.10" width="193.03" height="126.35" rx="2" ry="2" fill="#e9fff4" stroke="#2a8d66" stroke-width="1"/>
<text x="129.51" y="444.74" text-anchor="middle" font-family="Arial" font-size="10" fill="#101010">TAB</text>
<rect x="233.02" y="378.10" width="126.35" height="126.35" rx="2" ry="2" fill="#e9fff4" stroke="#2a8d66" stroke-width="1"/>
<text x="296.20" y="444.74" text-anchor="middle" font-family="Arial" font-size="10" fill="#101010">Q</text>
<rect x="366.38" y="378.10" width="126.35" height="126.35" rx="2" ry="2" fill="#e9fff4" stroke="#2a8d66" stroke-width="1"/>
<text x="429.55" y="444.74" text-anchor="middle" font-family="Arial" font-size="10" fill="#101010">W</text>
<rect x="499.72" y="378.10" width="126.35" height="126.35" rx="2" ry="2" fill="#e9fff4" stroke="#2a8d66" stroke-width="1"/>
<text x="562.90" y="444.74" text-anchor="middle" font-family="Arial" font-size="10" fill="#101010">E</text>
<rect x="633.07" y="378.10" width="126.35" height="126.35" rx="2" ry="2" fill="#e9fff4" stroke="#2a8d66" stroke-width="1"/>
<text x="696.25" y="444.74" text-anchor="middle" font-family="Arial" font-size="10" fill="#101010">R</text>
<rect x="766.43" y="378.10" width="126.35" height="126.35" rx="2" ry="2" fill="#e9fff4" stroke="#2a8d66" stroke-width="1"/>
<text x="829.60" y="444.74" text-anchor="middle" font-family="Arial" font-size="10" fill="#101010">T</text>
<rect x="33.00" y="511.45" width="226.36" height="126.35" rx="2" ry="2" fill="#e9fff4" stroke="#2a8d66" stroke-width="1"/>
<text x="146.18" y="578.09" text-anchor="middle" font-family="Arial" font-size="10" fill="#101010">Caps</text>
<rect x="266.36" y="511.45" width="126.35" height="126.35" rx="2" ry="2" fill="#e9fff4" stroke="#2a8d66" stroke-width="1"/>
<text x="329.54" y="578.09" text-anchor="middle" font-family="Arial" font-size="10" fill="#101010">A</text>
<rect x="399.71" y="511.45" width="126.35" height="126.35" rx="2" ry="2" fill="#e9fff4" stroke="#2a8d66" stroke-width="1"/>
<text x="462.89" y="578.09" text-anchor="middle" font-family="Arial" font-size="10" fill="#101010">S</text>
<rect x="533.06" y="511.45" width="126.35" height="126.35" rx="2" ry="2" fill="#e9fff4" stroke="#2a8d66" stroke-width="1"/>
<text x="596.24" y="578.09" text-anchor="middle" font-family="Arial" font-size="10" fill="#101010">D</text>
<rect x="666.41" y="511.45" width="126.35" height="126.35" rx="2" ry="2" fill="#e9fff4" stroke="#2a8d66" stroke-width="1"/>
<text x="729.59" y="578.09" text-anchor="middle" font-family="Arial" font-size="10" fill="#101010">F</text>
<rect x="799.76" y="511.45" width="126.35" height="126.35" rx="2" ry="2" fill="#e9fff4" stroke="#2a8d66" stroke-width="1"/>
<text x="862.94" y="578.09" text-anchor="middle" font-family="Arial" font-size="10" fill="#101010">G</text>
<rect x="33.00" y="644.80" width="126.35" height="126.35" rx="2" ry="2" fill="#e9fff4" stroke="#2a8d66" stroke-width="1"/>
<text x="96.17" y="711.44" text-anchor="middle" font-family="Arial" font-size="10" fill="#101010">LShift</text>
<rect x="166.35" y="644.80" width="159.69" height="126.35" rx="2" ry="2" fill="#e9fff4" stroke="#2a8d66" stroke-width="1"/>
<text x="246.19" y="711.44" text-anchor="middle" font-family="Arial" font-size="10" fill="#101010">LShift</text>
<rect x="333.04" y="644.80" width="126.35" height="126.35" rx="2" ry="2" fill="#e9fff4" stroke="#2a8d66" stroke-width="1"/>
<text x="396.21" y="711.44" text-anchor="middle" font-family="Arial" font-size="10" fill="#101010">Z</text>
<rect x="466.39" y="644.80" width="126.35" height="126.35" rx="2" ry="2" fill="#e9fff4" stroke="#2a8d66" stroke-width="1"/>
<text x="529.56" y="711.44" text-anchor="middle" font-family="Arial" font-size="10" fill="#101010">X</text>
<rect x="599.74" y="644.80" width="126.35" height="126.35" rx="2" ry="2" fill="#e9fff4" stroke="#2a8d66" stroke-width="1"/>
<text x="662.91" y="711.44" text-anchor="middle" font-family="Arial" font-size="10" fill="#101010">C</text>
<rect x="733.09" y="644.80" width="126.35" height="126.35" rx="2" ry="2" fill="#e9fff4" stroke="#2a8d66" stroke-width="1"/>
<text x="796.26" y="711.44" text-anchor="middle" font-family="Arial" font-size="10" fill="#101010">V</text>
<rect x="866.44" y="644.80" width="126.35" height="126.35" rx="2" ry="2" fill="#e9fff4" stroke="#2a8d66" stroke-width="1"/>
<text x="929.61" y="711.44" text-anchor="middle" font-family="Arial" font-size="10" fill="#101010">B</text>
<rect x="33.00" y="778.15" width="159.69" height="126.35" rx="2" ry="2" fill="#e9fff4" stroke="#2a8d66" stroke-width="1"/>
<text x="112.84" y="844.78" text-anchor="middle" font-family="Arial" font-size="10" fill="#101010">Ctrl</text>
<rect x="199.69" y="778.15" width="159.69" height="126.35" rx="2" ry="2" fill="#e9fff4" stroke="#2a8d66" stroke-width="1"/>
<text x="279.53" y="844.78" text-anchor="middle" font-family="Arial" font-size="10" fill="#101010">Fn</text>
<rect x="366.38" y="778.15" width="159.69" height="126.35" rx="2" ry="2" fill="#e9fff4" stroke="#2a8d66" stroke-width="1"/>
<text x="446.22" y="844.78" text-anchor="middle" font-family="Arial" font-size="10" fill="#101010">Alt</text>
<rect x="533.06" y="778.15" width="226.36" height="126.35" rx="2" ry="2" fill="#e9fff4" stroke="#2a8d66" stroke-width="1"/>
<text x="646.24" y="844.78" text-anchor="middle" font-family="Arial" font-size="10" fill="#101010">Space</text>
<rect x="766.43" y="778.15" width="226.36" height="126.35" rx="2" ry="2" fill="#e9fff4" stroke="#2a8d66" stroke-width="1"/>
<text x="879.61" y="844.78" text-anchor="middle" font-family="Arial" font-size="10" fill="#101010">Space</text>
<rect x="619.90" y="60.86" width="208.18" height="119.28" fill="none" stroke="#252525" stroke-width="1.5" stroke-dasharray="4 3"/>
<text x="723.99" y="55.26" text-anchor="middle" font-family="Arial" font-size="9" fill="#222">U1</text>
<rect x="972.05" y="244.75" width="126.35" height="126.35" rx="2" ry="2" fill="#eef5ff" stroke="#467cc0" stroke-width="1"/>
<text x="1035.22" y="311.39" text-anchor="middle" font-family="Arial" font-size="10" fill="#101010">7</text>
<rect x="1105.40" y="244.75" width="126.35" height="126.35" rx="2" ry="2" fill="#eef5ff" stroke="#467cc0" stroke-width="1"/>
<text x="1168.57" y="311.39" text-anchor="middle" font-family="Arial" font-size="10" fill="#101010">8</text>
<rect x="1238.75" y="244.75" width="126.35" height="126.35" rx="2" ry="2" fill="#eef5ff" stroke="#467cc0" stroke-width="1"/>
<text x="1301.92" y="311.39" text-anchor="middle" font-family="Arial" font-size="10" fill="#101010">9</text>
<rect x="1372.10" y="244.75" width="126.35" height="126.35" rx="2" ry="2" fill="#eef5ff" stroke="#467cc0" stroke-width="1"/>
<text x="1435.27" y="311.39" text-anchor="middle" font-family="Arial" font-size="10" fill="#101010">0</text>
<rect x="1505.45" y="244.75" width="126.35" height="126.35" rx="2" ry="2" fill="#eef5ff" stroke="#467cc0" stroke-width="1"/>
<text x="1568.62" y="311.39" text-anchor="middle" font-family="Arial" font-size="10" fill="#101010">-</text>
<rect x="1638.80" y="244.75" width="126.35" height="126.35" rx="2" ry="2" fill="#eef5ff" stroke="#467cc0" stroke-width="1"/>
<text x="1701.98" y="311.39" text-anchor="middle" font-family="Arial" font-size="10" fill="#101010">=</text>
<rect x="1772.15" y="244.75" width="159.69" height="126.35" rx="2" ry="2" fill="#eef5ff" stroke="#467cc0" stroke-width="1"/>
<text x="1851.99" y="311.39" text-anchor="middle" font-family="Arial" font-size="10" fill="#101010">BSPC</text>
<rect x="1938.84" y="244.75" width="126.35" height="126.35" rx="2" ry="2" fill="#eef5ff" stroke="#467cc0" stroke-width="1"/>
<text x="2002.01" y="311.39" text-anchor="middle" font-family="Arial" font-size="10" fill="#101010">Del</text>
<rect x="905.37" y="378.10" width="126.35" height="126.35" rx="2" ry="2" fill="#eef5ff" stroke="#467cc0" stroke-width="1"/>
<text x="968.55" y="444.74" text-anchor="middle" font-family="Arial" font-size="10" fill="#101010">Y</text>
<rect x="1038.72" y="378.10" width="126.35" height="126.35" rx="2" ry="2" fill="#eef5ff" stroke="#467cc0" stroke-width="1"/>
<text x="1101.90" y="444.74" text-anchor="middle" font-family="Arial" font-size="10" fill="#101010">U</text>
<rect x="1172.08" y="378.10" width="126.35" height="126.35" rx="2" ry="2" fill="#eef5ff" stroke="#467cc0" stroke-width="1"/>
<text x="1235.25" y="444.74" text-anchor="middle" font-family="Arial" font-size="10" fill="#101010">I</text>
<rect x="1305.42" y="378.10" width="126.35" height="126.35" rx="2" ry="2" fill="#eef5ff" stroke="#467cc0" stroke-width="1"/>
<text x="1368.60" y="444.74" text-anchor="middle" font-family="Arial" font-size="10" fill="#101010">O</text>
<rect x="1438.77" y="378.10" width="126.35" height="126.35" rx="2" ry="2" fill="#eef5ff" stroke="#467cc0" stroke-width="1"/>
<text x="1501.95" y="444.74" text-anchor="middle" font-family="Arial" font-size="10" fill="#101010">P</text>
<rect x="1572.12" y="378.10" width="126.35" height="126.35" rx="2" ry="2" fill="#eef5ff" stroke="#467cc0" stroke-width="1"/>
<text x="1635.30" y="444.74" text-anchor="middle" font-family="Arial" font-size="10" fill="#101010">[</text>
<rect x="1705.48" y="378.10" width="126.35" height="126.35" rx="2" ry="2" fill="#eef5ff" stroke="#467cc0" stroke-width="1"/>
<text x="1768.65" y="444.74" text-anchor="middle" font-family="Arial" font-size="10" fill="#101010">]</text>
<rect x="1838.83" y="378.10" width="226.36" height="126.35" rx="2" ry="2" fill="#eef5ff" stroke="#467cc0" stroke-width="1"/>
<text x="1952.01" y="444.74" text-anchor="middle" font-family="Arial" font-size="10" fill="#101010">\</text>
<rect x="938.71" y="511.45" width="126.35" height="126.35" rx="2" ry="2" fill="#eef5ff" stroke="#467cc0" stroke-width="1"/>
<text x="1001.89" y="578.09" text-anchor="middle" font-family="Arial" font-size="10" fill="#101010">H</text>
<rect x="1072.06" y="511.45" width="126.35" height="126.35" rx="2" ry="2" fill="#eef5ff" stroke="#467cc0" stroke-width="1"/>
<text x="1135.24" y="578.09" text-anchor="middle" font-family="Arial" font-size="10" fill="#101010">J</text>
<rect x="1205.41" y="511.45" width="126.35" height="126.35" rx="2" ry="2" fill="#eef5ff" stroke="#467cc0" stroke-width="1"/>
<text x="1268.59" y="578.09" text-anchor="middle" font-family="Arial" font-size="10" fill="#101010">K</text>
<rect x="1338.76" y="511.45" width="126.35" height="126.35" rx="2" ry="2" fill="#eef5ff" stroke="#467cc0" stroke-width="1"/>
<text x="1401.94" y="578.09" text-anchor="middle" font-family="Arial" font-size="10" fill="#101010">L</text>
<rect x="1472.11" y="511.45" width="126.35" height="126.35" rx="2" ry="2" fill="#eef5ff" stroke="#467cc0" stroke-width="1"/>
<text x="1535.29" y="578.09" text-anchor="middle" font-family="Arial" font-size="10" fill="#101010">;</text>
<rect x="1605.46" y="511.45" width="126.35" height="126.35" rx="2" ry="2" fill="#eef5ff" stroke="#467cc0" stroke-width="1"/>
<text x="1668.64" y="578.09" text-anchor="middle" font-family="Arial" font-size="10" fill="#101010">&#x27;</text>
<rect x="1738.81" y="511.45" width="193.03" height="126.35" rx="2" ry="2" fill="#eef5ff" stroke="#467cc0" stroke-width="1"/>
<text x="1835.32" y="578.09" text-anchor="middle" font-family="Arial" font-size="10" fill="#101010">Enter</text>
<rect x="1938.84" y="511.45" width="126.35" height="126.35" rx="2" ry="2" fill="#eef5ff" stroke="#467cc0" stroke-width="1"/>
<text x="2002.01" y="578.09" text-anchor="middle" font-family="Arial" font-size="10" fill="#101010">Enter</text>
<rect x="1005.39" y="644.80" width="126.35" height="126.35" rx="2" ry="2" fill="#eef5ff" stroke="#467cc0" stroke-width="1"/>
<text x="1068.56" y="711.44" text-anchor="middle" font-family="Arial" font-size="10" fill="#101010">N</text>
<rect x="1138.74" y="644.80" width="126.35" height="126.35" rx="2" ry="2" fill="#eef5ff" stroke="#467cc0" stroke-width="1"/>
<text x="1201.91" y="711.44" text-anchor="middle" font-family="Arial" font-size="10" fill="#101010">M</text>
<rect x="1272.09" y="644.80" width="126.35" height="126.35" rx="2" ry="2" fill="#eef5ff" stroke="#467cc0" stroke-width="1"/>
<text x="1335.26" y="711.44" text-anchor="middle" font-family="Arial" font-size="10" fill="#101010">,</text>
<rect x="1405.44" y="644.80" width="126.35" height="126.35" rx="2" ry="2" fill="#eef5ff" stroke="#467cc0" stroke-width="1"/>
<text x="1468.61" y="711.44" text-anchor="middle" font-family="Arial" font-size="10" fill="#101010">.</text>
<rect x="1538.79" y="644.80" width="126.35" height="126.35" rx="2" ry="2" fill="#eef5ff" stroke="#467cc0" stroke-width="1"/>
<text x="1601.96" y="711.44" text-anchor="middle" font-family="Arial" font-size="10" fill="#101010">/</text>
<rect x="1672.14" y="644.80" width="126.35" height="126.35" rx="2" ry="2" fill="#eef5ff" stroke="#467cc0" stroke-width="1"/>
<text x="1735.31" y="711.44" text-anchor="middle" font-family="Arial" font-size="10" fill="#101010">RShift</text>
<rect x="1805.49" y="644.80" width="126.35" height="126.35" rx="2" ry="2" fill="#eef5ff" stroke="#467cc0" stroke-width="1"/>
<text x="1868.66" y="711.44" text-anchor="middle" font-family="Arial" font-size="10" fill="#101010">Up</text>
<rect x="1938.84" y="644.80" width="126.35" height="126.35" rx="2" ry="2" fill="#eef5ff" stroke="#467cc0" stroke-width="1"/>
<text x="2002.01" y="711.44" text-anchor="middle" font-family="Arial" font-size="10" fill="#101010">Fn</text>
<rect x="1005.39" y="778.15" width="126.35" height="126.35" rx="2" ry="2" fill="#eef5ff" stroke="#467cc0" stroke-width="1"/>
<text x="1068.56" y="844.78" text-anchor="middle" font-family="Arial" font-size="10" fill="#101010">B</text>
<rect x="1138.74" y="778.15" width="226.36" height="126.35" rx="2" ry="2" fill="#eef5ff" stroke="#467cc0" stroke-width="1"/>
<text x="1251.92" y="844.78" text-anchor="middle" font-family="Arial" font-size="10" fill="#101010">Space</text>
<rect x="1372.10" y="778.15" width="159.69" height="126.35" rx="2" ry="2" fill="#eef5ff" stroke="#467cc0" stroke-width="1"/>
<text x="1451.94" y="844.78" text-anchor="middle" font-family="Arial" font-size="10" fill="#101010">RAlt</text>
<rect x="1538.79" y="778.15" width="126.35" height="126.35" rx="2" ry="2" fill="#eef5ff" stroke="#467cc0" stroke-width="1"/>
<text x="1601.96" y="844.78" text-anchor="middle" font-family="Arial" font-size="10" fill="#101010">RCtrl</text>
<rect x="1672.14" y="778.15" width="126.35" height="126.35" rx="2" ry="2" fill="#eef5ff" stroke="#467cc0" stroke-width="1"/>
<text x="1735.31" y="844.78" text-anchor="middle" font-family="Arial" font-size="10" fill="#101010">Left</text>
<rect x="1805.49" y="778.15" width="126.35" height="126.35" rx="2" ry="2" fill="#eef5ff" stroke="#467cc0" stroke-width="1"/>
<text x="1868.66" y="844.78" text-anchor="middle" font-family="Arial" font-size="10" fill="#101010">Down</text>
<rect x="1938.84" y="778.15" width="126.35" height="126.35" rx="2" ry="2" fill="#eef5ff" stroke="#467cc0" stroke-width="1"/>
<text x="2002.01" y="844.78" text-anchor="middle" font-family="Arial" font-size="10" fill="#101010">Right</text>
<rect x="1105.08" y="60.86" width="208.18" height="119.28" fill="none" stroke="#252525" stroke-width="1.5" stroke-dasharray="4 3"/>
<text x="1209.17" y="55.26" text-anchor="middle" font-family="Arial" font-size="9" fill="#222">U1</text>
<g id="key-horizontal-clearance" data-key-horizontal-clearance-mm="1.8000" data-left-key="6" data-right-key="7">
<line x1="959.45" y1="307.93" x2="972.05" y2="307.93" stroke="#1c5fb8" stroke-width="2.4"/>
<line x1="959.45" y1="307.93" x2="967.85" y2="302.33" stroke="#1c5fb8" stroke-width="2.4"/>
<line x1="959.45" y1="307.93" x2="967.85" y2="313.53" stroke="#1c5fb8" stroke-width="2.4"/>
<line x1="972.05" y1="307.93" x2="963.65" y2="302.33" stroke="#1c5fb8" stroke-width="2.4"/>
<line x1="972.05" y1="307.93" x2="963.65" y2="313.53" stroke="#1c5fb8" stroke-width="2.4"/>
<text x="965.75" y="299.93" text-anchor="middle" font-family="Arial" font-size="10" fill="#123e7d">6-7 X 1.8 mm</text>
</g>
<rect x="8" y="8" width="2082" height="66" fill="#f7f5ee" fill-opacity="0.98" stroke="none"/>
<text x="16" y="24" font-family="Arial" font-size="15" fill="#222">KC2 X3-V2 joined top view, board-coordinate composite</text>
<text x="16" y="44" font-family="Arial" font-size="11" fill="#555">Scale: 7 px/mm. Min Edge.Cuts clearance: 1.10 mm. Row-center PCB gap: 3.80 mm. Outline X-range nesting: 10.49 mm.</text>
<text x="16" y="61" font-family="Arial" font-size="11" fill="#7a2f25">Empty PCB clearance corridor (salmon); 5 actual cap pairs 6-7/T-Y/G-H/B-N/Space-B = 1.8 mm.</text>
</svg>
