<svg xmlns="http://www.w3.org/2000/svg" width="1528" height="719" viewBox="0 0 1528 719">
<rect width="100%" height="100%" fill="#f7f5ee"/>
<g id="interlock-clearance" data-placement-mode="key-pitch" data-clearance-mm="2.6000" data-clearance-width-px="13.00" data-measurement-width-px="13.00" data-key-horizontal-clearance-mm="1.0000" data-interlock-overlap-mm="11.6875">
<polygon points="622.69,40.62 625.24,41.88 626.49,43.12 627.29,44.38 627.83,45.62 628.22,46.88 628.35,48.12 628.49,49.38 628.56,50.62 628.56,51.88 628.56,53.12 628.56,54.38 628.56,55.62 628.56,56.88 628.56,58.12 628.56,59.38 628.56,60.62 628.56,61.88 628.56,63.12 628.56,64.38 628.56,65.62 628.56,66.88 628.56,68.12 628.56,69.38 628.56,70.62 628.56,71.88 628.56,73.12 628.56,74.38 628.56,75.62 628.56,76.88 628.56,78.12 628.56,79.38 628.56,80.62 628.56,81.88 628.56,83.12 628.56,84.38 628.56,85.62 628.56,86.88 628.56,88.12 628.56,89.38 628.56,90.62 628.56,91.88 628.56,93.12 628.56,94.38 628.56,95.62 628.56,96.88 628.56,98.12 628.56,99.38 628.56,100.62 628.56,101.88 628.56,103.12 628.56,104.38 628.56,105.62 628.56,106.88 628.56,108.12 628.56,109.38 628.56,110.62 628.56,111.88 628.56,113.12 628.56,114.38 628.56,115.62 628.56,116.88 628.56,118.12 628.56,119.38 628.56,120.62 628.56,121.88 628.56,123.12 628.56,124.38 628.56,125.62 628.56,126.88 628.56,128.12 628.56,129.38 628.56,130.62 628.56,131.88 628.56,133.12 628.56,134.38 628.56,135.62 628.56,136.88 628.56,138.12 628.56,139.38 628.56,140.62 628.56,141.88 628.56,143.12 628.56,144.38 628.56,145.62 628.56,146.88 628.56,148.12 628.56,149.38 628.56,150.62 628.56,151.88 628.56,153.12 628.56,154.38 628.56,155.62 628.56,156.88 628.56,158.12 628.56,159.38 628.56,160.62 628.56,161.88 628.56,163.12 628.56,164.38 628.56,165.62 628.56,166.88 628.56,168.12 628.56,169.38 628.56,170.62 628.56,171.88 628.56,173.12 628.56,174.38 628.56,175.62 628.56,176.88 628.56,178.12 628.56,179.38 628.56,180.62 628.56,181.88 628.56,183.12 628.56,184.38 628.56,185.62 628.56,186.88 628.56,188.12 628.56,189.38 628.56,190.62 628.56,191.88 628.56,193.12 628.56,194.38 628.56,195.62 628.56,196.88 628.63,198.12 628.77,199.38 628.91,200.62 629.29,201.88 629.83,203.12 630.64,204.38 631.89,205.62 634.44,206.88 691.87,208.12 694.42,209.38 695.67,210.62 696.48,211.88 697.02,213.12 697.40,214.38 697.54,215.62 697.68,216.88 697.75,218.12 697.75,219.38 697.75,220.62 697.75,221.88 697.75,223.12 697.75,224.38 697.75,225.62 697.75,226.88 697.75,228.12 697.75,229.38 697.75,230.62 697.75,231.88 697.75,233.12 697.75,234.38 697.75,235.62 697.75,236.88 697.75,238.12 697.75,239.38 697.75,240.62 697.75,241.88 697.75,243.12 697.75,244.38 697.75,245.62 697.75,246.88 697.75,248.12 697.75,249.38 697.75,250.62 697.75,251.88 697.75,253.12 697.75,254.38 697.75,255.62 697.75,256.88 697.75,258.12 697.75,259.38 697.75,260.62 697.75,261.88 697.75,263.12 697.75,264.38 697.75,265.62 697.75,266.88 697.75,268.12 697.75,269.38 697.75,270.62 697.75,271.88 697.75,273.12 697.75,274.38 697.75,275.62 697.75,276.88 697.75,278.12 697.75,279.38 697.75,280.62 697.75,281.88 697.75,283.12 697.75,284.38 697.75,285.62 697.75,286.88 697.75,288.12 697.75,289.38 697.71,290.62 697.57,291.88 697.43,293.12 697.12,294.38 696.59,295.62 695.92,296.88 694.67,298.12 692.46,299.38 656.75,300.62 653.70,301.88 652.45,303.12 651.50,304.38 650.96,305.62 650.50,306.88 650.36,308.12 650.22,309.38 650.12,310.62 650.12,311.88 650.12,313.12 650.12,314.38 650.12,315.62 650.12,316.88 650.12,318.12 650.12,319.38 650.12,320.62 650.12,321.88 650.12,323.12 650.12,324.38 650.12,325.62 650.12,326.88 650.12,328.12 650.12,329.38 650.12,330.62 650.12,331.88 650.12,333.12 650.12,334.38 650.12,335.62 650.12,336.88 650.12,338.12 650.12,339.38 650.12,340.62 650.12,341.88 650.12,343.12 650.12,344.38 650.12,345.62 650.12,346.88 650.12,348.12 650.12,349.38 650.12,350.62 650.12,351.88 650.12,353.12 650.12,354.38 650.12,355.62 650.12,356.88 650.12,358.12 650.12,359.38 650.12,360.62 650.12,361.88 650.12,363.12 650.12,364.38 650.12,365.62 650.12,366.88 650.12,368.12 650.12,369.38 650.12,370.62 650.12,371.88 650.12,373.12 650.12,374.38 650.12,375.62 650.12,376.88 650.12,378.12 650.12,379.38 650.12,380.62 650.12,381.88 650.12,383.12 650.12,384.38 650.14,385.62 650.28,386.88 650.42,388.12 650.64,389.38 651.18,390.62 651.71,391.88 652.95,393.12 654.83,394.38 665.06,395.62 669.81,396.88 671.36,398.12 672.46,399.38 672.99,400.62 673.53,401.88 673.67,403.12 673.81,404.38 673.94,405.62 673.94,406.88 673.94,408.12 673.94,409.38 673.94,410.62 673.94,411.88 673.94,413.12 673.94,414.38 673.94,415.62 673.94,416.88 673.94,418.12 673.94,419.38 673.94,420.62 673.94,421.88 673.94,423.12 673.94,424.38 673.94,425.62 673.94,426.88 673.94,428.12 673.94,429.38 673.94,430.62 673.94,431.88 673.94,433.12 673.94,434.38 673.94,435.62 673.94,436.88 673.94,438.12 673.94,439.38 673.94,440.62 673.94,441.88 673.94,443.12 673.94,444.38 673.94,445.62 673.94,446.88 673.94,448.12 673.94,449.38 673.94,450.62 673.94,451.88 673.94,453.12 673.94,454.38 673.94,455.62 673.94,456.88 673.94,458.12 673.94,459.38 673.94,460.62 673.94,461.88 673.94,463.12 673.94,464.38 673.94,465.62 673.94,466.88 673.94,468.12 673.94,469.38 673.94,470.62 673.94,471.88 673.94,473.12 673.94,474.38 673.94,475.62 673.94,476.88 673.94,478.12 673.94,479.38 673.94,480.62 674.06,481.88 674.20,483.12 674.35,484.38 674.88,485.62 675.42,486.88 676.51,488.12 678.06,489.38 682.81,490.62 716.85,491.88 718.74,493.12 719.97,494.38 720.51,495.62 721.04,496.88 721.27,498.12 721.41,499.38 721.55,500.62 721.56,501.88 721.56,503.12 721.56,504.38 721.56,505.62 721.56,506.88 721.56,508.12 721.56,509.38 721.56,510.62 721.56,511.88 721.56,513.12 721.56,514.38 721.56,515.62 721.56,516.88 721.56,518.12 721.56,519.38 721.56,520.62 721.56,521.88 721.56,523.12 721.56,524.38 721.56,525.62 721.56,526.88 721.56,528.12 721.56,529.38 721.56,530.62 721.56,531.88 721.56,533.12 721.56,534.38 721.56,535.62 721.56,536.88 721.56,538.12 721.56,539.38 721.56,540.62 721.56,541.88 721.56,543.12 721.56,544.38 721.56,545.62 721.56,546.88 721.56,548.12 721.56,549.38 721.56,550.62 721.56,551.88 721.56,553.12 721.56,554.38 721.56,555.62 721.56,556.88 721.56,558.12 721.56,559.38 721.56,560.62 721.56,561.88 721.56,563.12 721.56,564.38 721.56,565.62 721.56,566.88 721.56,568.12 721.56,569.38 721.56,570.62 721.56,571.88 721.56,573.12 721.56,574.38 721.56,575.62 721.56,576.88 721.56,578.12 721.56,579.38 721.56,580.62 721.56,581.88 721.56,583.12 721.56,584.38 721.56,585.62 721.56,586.88 721.56,588.12 721.56,589.38 721.56,590.62 721.56,591.88 721.56,593.12 721.56,594.38 721.56,595.62 721.56,596.88 721.56,598.12 721.56,599.38 721.56,600.62 721.56,601.88 721.56,603.12 721.56,604.38 721.56,605.62 721.56,606.88 721.56,608.12 721.56,609.38 721.56,610.62 721.56,611.88 721.56,613.12 721.56,614.38 721.56,615.62 721.56,616.88 721.56,618.12 721.56,619.38 721.56,620.62 721.56,621.88 721.56,623.12 721.56,624.38 721.56,625.62 721.56,626.88 721.56,628.12 721.56,629.38 721.56,630.62 721.56,631.88 721.56,633.12 721.56,634.38 721.56,635.62 721.56,636.88 721.56,638.12 721.56,639.38 721.56,640.62 721.56,641.88 721.56,643.12 721.56,644.38 721.56,645.62 721.56,646.88 721.56,648.12 721.56,649.38 721.56,650.62 721.56,651.88 721.56,653.12 721.56,654.38 721.56,655.62 721.56,656.88 721.56,658.12 721.56,659.38 721.56,660.62 721.56,661.88 721.56,663.12 721.56,664.38 721.56,665.62 721.56,666.88 721.56,668.12 721.49,669.38 721.35,670.62 721.22,671.88 720.83,673.12 720.29,674.38 719.49,675.62 718.24,676.88 715.69,678.12 740.44,678.12 737.89,676.88 736.64,675.62 735.83,674.38 735.29,673.12 734.91,671.88 734.77,670.62 734.63,669.38 734.56,668.12 734.56,666.88 734.56,665.62 734.56,664.38 734.56,663.12 734.56,661.88 734.56,660.62 734.56,659.38 734.56,658.12 734.56,656.88 734.56,655.62 734.56,654.38 734.56,653.12 734.56,651.88 734.56,650.62 734.56,649.38 734.56,648.12 734.56,646.88 734.56,645.62 734.56,644.38 734.56,643.12 734.56,641.88 734.56,640.62 734.56,639.38 734.56,638.12 734.56,636.88 734.56,635.62 734.56,634.38 734.56,633.12 734.56,631.88 734.56,630.62 734.56,629.38 734.56,628.12 734.56,626.88 734.56,625.62 734.56,624.38 734.56,623.12 734.56,621.88 734.56,620.62 734.56,619.38 734.56,618.12 734.56,616.88 734.56,615.62 734.56,614.38 734.56,613.12 734.56,611.88 734.56,610.62 734.56,609.38 734.56,608.12 734.56,606.88 734.56,605.62 734.56,604.38 734.56,603.12 734.56,601.88 734.56,600.62 734.56,599.38 734.56,598.12 734.56,596.88 734.56,595.62 734.56,594.38 734.56,593.12 734.56,591.88 734.56,590.62 734.56,589.38 734.56,588.12 734.56,586.88 734.56,585.62 734.56,584.38 734.56,583.12 734.56,581.88 734.56,580.62 734.56,579.38 734.56,578.12 734.56,576.88 734.56,575.62 734.56,574.38 734.56,573.12 734.56,571.88 734.56,570.62 734.56,569.38 734.56,568.12 734.56,566.88 734.56,565.62 734.56,564.38 734.56,563.12 734.56,561.88 734.56,560.62 734.56,559.38 734.56,558.12 734.56,556.88 734.56,555.62 734.56,554.38 734.56,553.12 734.56,551.88 734.56,550.62 734.56,549.38 734.56,548.12 734.56,546.88 734.56,545.62 734.56,544.38 734.56,543.12 734.56,541.88 734.56,540.62 734.56,539.38 734.56,538.12 734.56,536.88 734.56,535.62 734.56,534.38 734.56,533.12 734.56,531.88 734.56,530.62 734.56,529.38 734.56,528.12 734.56,526.88 734.56,525.62 734.56,524.38 734.56,523.12 734.56,521.88 734.56,520.62 734.56,519.38 734.56,518.12 734.56,516.88 734.56,515.62 734.56,514.38 734.56,513.12 734.56,511.88 734.56,510.62 734.56,509.38 734.56,508.12 734.56,506.88 734.56,505.62 734.56,504.38 734.56,503.12 734.56,501.88 734.55,500.62 734.41,499.38 734.27,498.12 734.04,496.88 733.51,495.62 732.97,494.38 731.74,493.12 729.85,491.88 695.81,490.62 691.06,489.38 689.51,488.12 688.42,486.88 687.88,485.62 687.35,484.38 687.20,483.12 687.06,481.88 686.94,480.62 686.94,479.38 686.94,478.12 686.94,476.88 686.94,475.62 686.94,474.38 686.94,473.12 686.94,471.88 686.94,470.62 686.94,469.38 686.94,468.12 686.94,466.88 686.94,465.62 686.94,464.38 686.94,463.12 686.94,461.88 686.94,460.62 686.94,459.38 686.94,458.12 686.94,456.88 686.94,455.62 686.94,454.38 686.94,453.12 686.94,451.88 686.94,450.62 686.94,449.38 686.94,448.12 686.94,446.88 686.94,445.62 686.94,444.38 686.94,443.12 686.94,441.88 686.94,440.62 686.94,439.38 686.94,438.12 686.94,436.88 686.94,435.62 686.94,434.38 686.94,433.12 686.94,431.88 686.94,430.62 686.94,429.38 686.94,428.12 686.94,426.88 686.94,425.62 686.94,424.38 686.94,423.12 686.94,421.88 686.94,420.62 686.94,419.38 686.94,418.12 686.94,416.88 686.94,415.62 686.94,414.38 686.94,413.12 686.94,411.88 686.94,410.62 686.94,409.38 686.94,408.12 686.94,406.88 686.94,405.62 686.81,404.38 686.67,403.12 686.53,401.88 685.99,400.62 685.46,399.38 684.36,398.12 682.81,396.88 678.06,395.62 667.83,394.38 665.95,393.12 664.71,391.88 664.18,390.62 663.64,389.38 663.42,388.12 663.28,386.88 663.14,385.62 663.12,384.38 663.12,383.12 663.12,381.88 663.12,380.62 663.12,379.38 663.12,378.12 663.12,376.88 663.12,375.62 663.12,374.38 663.12,373.12 663.12,371.88 663.12,370.62 663.12,369.38 663.12,368.12 663.12,366.88 663.12,365.62 663.12,364.38 663.12,363.12 663.12,361.88 663.12,360.62 663.12,359.38 663.12,358.12 663.12,356.88 663.12,355.62 663.12,354.38 663.12,353.12 663.12,351.88 663.12,350.62 663.12,349.38 663.12,348.12 663.12,346.88 663.12,345.62 663.12,344.38 663.12,343.12 663.12,341.88 663.12,340.62 663.12,339.38 663.12,338.12 663.12,336.88 663.12,335.62 663.12,334.38 663.12,333.12 663.12,331.88 663.12,330.62 663.12,329.38 663.12,328.12 663.12,326.88 663.12,325.62 663.12,324.38 663.12,323.12 663.12,321.88 663.12,320.62 663.12,319.38 663.12,318.12 663.12,316.88 663.12,315.62 663.12,314.38 663.12,313.12 663.12,311.88 663.12,310.62 663.22,309.38 663.36,308.12 663.50,306.88 663.96,305.62 664.50,304.38 665.45,303.12 666.70,301.88 669.75,300.62 705.46,299.38 707.67,298.12 708.92,296.88 709.59,295.62 710.12,294.38 710.43,293.12 710.57,291.88 710.71,290.62 710.75,289.38 710.75,288.12 710.75,286.88 710.75,285.62 710.75,284.38 710.75,283.12 710.75,281.88 710.75,280.62 710.75,279.38 710.75,278.12 710.75,276.88 710.75,275.62 710.75,274.38 710.75,273.12 710.75,271.88 710.75,270.62 710.75,269.38 710.75,268.12 710.75,266.88 710.75,265.62 710.75,264.38 710.75,263.12 710.75,261.88 710.75,260.62 710.75,259.38 710.75,258.12 710.75,256.88 710.75,255.62 710.75,254.38 710.75,253.12 710.75,251.88 710.75,250.62 710.75,249.38 710.75,248.12 710.75,246.88 710.75,245.62 710.75,244.38 710.75,243.12 710.75,241.88 710.75,240.62 710.75,239.38 710.75,238.12 710.75,236.88 710.75,235.62 710.75,234.38 710.75,233.12 710.75,231.88 710.75,230.62 710.75,229.38 710.75,228.12 710.75,226.88 710.75,225.62 710.75,224.38 710.75,223.12 710.75,221.88 710.75,220.62 710.75,219.38 710.75,218.12 710.82,216.88 710.96,215.62 711.10,214.38 711.48,213.12 712.02,211.88 712.83,210.62 714.08,209.38 716.62,208.12 775.25,206.88 777.80,205.62 779.05,204.38 779.86,203.12 780.39,201.88 780.78,200.62 780.92,199.38 781.06,198.12 781.12,196.88 781.12,195.62 781.12,194.38 781.12,193.12 781.12,191.88 781.12,190.62 781.12,189.38 781.12,188.12 781.12,186.88 781.12,185.62 781.12,184.38 781.12,183.12 781.12,181.88 781.12,180.62 781.12,179.38 781.12,178.12 781.12,176.88 781.12,175.62 781.12,174.38 781.12,173.12 781.12,171.88 781.12,170.62 781.12,169.38 781.12,168.12 781.12,166.88 781.12,165.62 781.12,164.38 781.12,163.12 781.12,161.88 781.12,160.62 781.12,159.38 781.12,158.12 781.12,156.88 781.12,155.62 781.12,154.38 781.12,153.12 781.12,151.88 781.12,150.62 781.12,149.38 781.12,148.12 781.12,146.88 781.12,145.62 781.12,144.38 781.12,143.12 781.12,141.88 781.12,140.62 781.12,139.38 781.12,138.12 781.12,136.88 781.12,135.62 781.12,134.38 781.12,133.12 781.12,131.88 781.12,130.62 781.12,129.38 781.12,128.12 781.12,126.88 781.12,125.62 781.12,124.38 781.12,123.12 781.12,121.88 781.12,120.62 781.12,119.38 781.12,118.12 781.12,116.88 781.12,115.62 781.12,114.38 781.12,113.12 781.12,111.88 781.12,110.62 781.12,109.38 781.12,108.12 781.12,106.88 781.12,105.62 781.12,104.38 781.12,103.12 781.12,101.88 781.12,100.62 781.12,99.38 781.12,98.12 781.12,96.88 781.12,95.62 781.12,94.38 781.12,93.12 781.12,91.88 781.12,90.62 781.12,89.38 781.12,88.12 781.12,86.88 781.12,85.62 781.12,84.38 781.12,83.12 781.12,81.88 781.12,80.62 781.12,79.38 781.12,78.12 781.12,76.88 781.12,75.62 781.12,74.38 781.12,73.12 781.12,71.88 781.12,70.62 781.12,69.38 781.12,68.12 781.12,66.88 781.12,65.62 781.12,64.38 781.12,63.12 781.12,61.88 781.12,60.62 781.12,59.38 781.12,58.12 781.12,56.88 781.12,55.62 781.12,54.38 781.12,53.12 781.12,51.88 781.12,50.62 781.19,49.38 781.33,48.12 781.47,46.88 781.86,45.62 782.39,44.38 783.20,43.12 784.45,41.88 787.00,40.62" fill="#f6b8a9" fill-opacity="0.55" stroke="none"/>
</g>
<rect x="8" y="8" width="760" height="48" fill="#f7f5ee" fill-opacity="0.94" stroke="none"/>
<text x="16" y="24" font-family="Arial" font-size="15" fill="#222">KC2 X3-V2 joined top view, board-coordinate composite</text>
<text x="16" y="44" font-family="Arial" font-size="11" fill="#555">Scale: 5 px/mm. Min Edge.Cuts clearance: 2.60 mm. Interlock overlap: 11.69 mm.</text>
<line x1="650.12" y1="347.88" x2="663.12" y2="347.88" stroke="#d33b2f" stroke-width="2"/>
<line x1="650.12" y1="341.88" x2="650.12" y2="353.88" stroke="#d33b2f" stroke-width="2"/>
<line x1="663.12" y1="341.88" x2="663.12" y2="353.88" stroke="#d33b2f" stroke-width="2"/>
<text x="656.62" y="339.88" text-anchor="middle" font-family="Arial" font-size="10" fill="#8b2318">2.6 mm</text>
<line x1="40.00" y1="217.50" x2="40.40" y2="213.90" stroke="#102018" stroke-width="2" fill="none"/>
<line x1="40.00" y1="290.25" x2="40.00" y2="217.50" stroke="#102018" stroke-width="2" fill="none"/>
<line x1="40.00" y1="294.25" x2="40.00" y2="290.25" stroke="#102018" stroke-width="2" fill="none"/>
<line x1="40.00" y1="298.25" x2="40.00" y2="294.25" stroke="#102018" stroke-width="2" fill="none"/>
<line x1="40.00" y1="302.25" x2="40.00" y2="298.25" stroke="#102018" stroke-width="2" fill="none"/>
<line x1="40.00" y1="306.25" x2="40.00" y2="302.25" stroke="#102018" stroke-width="2" fill="none"/>
<line x1="40.00" y1="310.25" x2="40.00" y2="306.25" stroke="#102018" stroke-width="2" fill="none"/>
<line x1="40.00" y1="385.50" x2="40.00" y2="310.25" stroke="#102018" stroke-width="2" fill="none"/>
<line x1="40.00" y1="389.50" x2="40.00" y2="385.50" stroke="#102018" stroke-width="2" fill="none"/>
<line x1="40.00" y1="393.50" x2="40.00" y2="389.50" stroke="#102018" stroke-width="2" fill="none"/>
<line x1="40.00" y1="397.50" x2="40.00" y2="393.50" stroke="#102018" stroke-width="2" fill="none"/>
<line x1="40.00" y1="401.50" x2="40.00" y2="397.50" stroke="#102018" stroke-width="2" fill="none"/>
<line x1="40.00" y1="405.50" x2="40.00" y2="401.50" stroke="#102018" stroke-width="2" fill="none"/>
<line x1="40.00" y1="480.75" x2="40.00" y2="405.50" stroke="#102018" stroke-width="2" fill="none"/>
<line x1="40.00" y1="484.75" x2="40.00" y2="480.75" stroke="#102018" stroke-width="2" fill="none"/>
<line x1="40.00" y1="488.75" x2="40.00" y2="484.75" stroke="#102018" stroke-width="2" fill="none"/>
<line x1="40.00" y1="492.75" x2="40.00" y2="488.75" stroke="#102018" stroke-width="2" fill="none"/>
<line x1="40.00" y1="496.75" x2="40.00" y2="492.75" stroke="#102018" stroke-width="2" fill="none"/>
<line x1="40.00" y1="500.75" x2="40.00" y2="496.75" stroke="#102018" stroke-width="2" fill="none"/>
<line x1="40.00" y1="576.00" x2="40.00" y2="500.75" stroke="#102018" stroke-width="2" fill="none"/>
<line x1="40.00" y1="580.00" x2="40.00" y2="576.00" stroke="#102018" stroke-width="2" fill="none"/>
<line x1="40.00" y1="584.00" x2="40.00" y2="580.00" stroke="#102018" stroke-width="2" fill="none"/>
<line x1="40.00" y1="588.00" x2="40.00" y2="584.00" stroke="#102018" stroke-width="2" fill="none"/>
<line x1="40.00" y1="592.00" x2="40.00" y2="588.00" stroke="#102018" stroke-width="2" fill="none"/>
<line x1="40.00" y1="596.00" x2="40.00" y2="592.00" stroke="#102018" stroke-width="2" fill="none"/>
<line x1="40.00" y1="668.75" x2="40.00" y2="596.00" stroke="#102018" stroke-width="2" fill="none"/>
<line x1="40.40" y1="213.90" x2="41.60" y2="211.10" stroke="#102018" stroke-width="2" fill="none"/>
<line x1="40.40" y1="672.35" x2="40.00" y2="668.75" stroke="#102018" stroke-width="2" fill="none"/>
<line x1="41.60" y1="211.10" x2="43.60" y2="209.10" stroke="#102018" stroke-width="2" fill="none"/>
<line x1="41.60" y1="675.15" x2="40.40" y2="672.35" stroke="#102018" stroke-width="2" fill="none"/>
<line x1="43.60" y1="209.10" x2="46.40" y2="207.90" stroke="#102018" stroke-width="2" fill="none"/>
<line x1="43.60" y1="677.15" x2="41.60" y2="675.15" stroke="#102018" stroke-width="2" fill="none"/>
<line x1="46.40" y1="207.90" x2="50.00" y2="207.50" stroke="#102018" stroke-width="2" fill="none"/>
<line x1="46.40" y1="678.35" x2="43.60" y2="677.15" stroke="#102018" stroke-width="2" fill="none"/>
<line x1="50.00" y1="207.50" x2="406.06" y2="207.50" stroke="#102018" stroke-width="2" fill="none"/>
<line x1="50.00" y1="678.75" x2="46.40" y2="678.35" stroke="#102018" stroke-width="2" fill="none"/>
<line x1="406.06" y1="207.50" x2="409.66" y2="207.10" stroke="#102018" stroke-width="2" fill="none"/>
<line x1="409.66" y1="207.10" x2="412.46" y2="205.90" stroke="#102018" stroke-width="2" fill="none"/>
<line x1="412.46" y1="205.90" x2="414.46" y2="203.90" stroke="#102018" stroke-width="2" fill="none"/>
<line x1="414.46" y1="203.90" x2="415.66" y2="201.10" stroke="#102018" stroke-width="2" fill="none"/>
<line x1="415.66" y1="201.10" x2="416.06" y2="197.50" stroke="#102018" stroke-width="2" fill="none"/>
<line x1="416.06" y1="50.00" x2="416.46" y2="46.40" stroke="#102018" stroke-width="2" fill="none"/>
<line x1="416.06" y1="197.50" x2="416.06" y2="50.00" stroke="#102018" stroke-width="2" fill="none"/>
<line x1="416.46" y1="46.40" x2="417.66" y2="43.60" stroke="#102018" stroke-width="2" fill="none"/>
<line x1="417.66" y1="43.60" x2="419.66" y2="41.60" stroke="#102018" stroke-width="2" fill="none"/>
<line x1="419.66" y1="41.60" x2="422.46" y2="40.40" stroke="#102018" stroke-width="2" fill="none"/>
<line x1="422.46" y1="40.40" x2="426.06" y2="40.00" stroke="#102018" stroke-width="2" fill="none"/>
<line x1="426.06" y1="40.00" x2="618.56" y2="40.00" stroke="#102018" stroke-width="2" fill="none"/>
<line x1="618.56" y1="40.00" x2="622.16" y2="40.40" stroke="#102018" stroke-width="2" fill="none"/>
<line x1="622.16" y1="40.40" x2="624.96" y2="41.60" stroke="#102018" stroke-width="2" fill="none"/>
<line x1="624.96" y1="41.60" x2="626.96" y2="43.60" stroke="#102018" stroke-width="2" fill="none"/>
<line x1="626.96" y1="43.60" x2="628.16" y2="46.40" stroke="#102018" stroke-width="2" fill="none"/>
<line x1="628.16" y1="46.40" x2="628.56" y2="50.00" stroke="#102018" stroke-width="2" fill="none"/>
<line x1="628.56" y1="50.00" x2="628.56" y2="197.50" stroke="#102018" stroke-width="2" fill="none"/>
<line x1="628.56" y1="197.50" x2="628.96" y2="201.10" stroke="#102018" stroke-width="2" fill="none"/>
<line x1="628.96" y1="201.10" x2="630.16" y2="203.90" stroke="#102018" stroke-width="2" fill="none"/>
<line x1="630.16" y1="203.90" x2="632.16" y2="205.90" stroke="#102018" stroke-width="2" fill="none"/>
<line x1="632.16" y1="205.90" x2="634.96" y2="207.10" stroke="#102018" stroke-width="2" fill="none"/>
<line x1="634.96" y1="207.10" x2="638.56" y2="207.50" stroke="#102018" stroke-width="2" fill="none"/>
<line x1="638.56" y1="207.50" x2="687.75" y2="207.50" stroke="#102018" stroke-width="2" fill="none"/>
<line x1="650.12" y1="310.25" x2="650.12" y2="385.50" stroke="#102018" stroke-width="2" fill="none"/>
<line x1="650.12" y1="385.50" x2="650.52" y2="389.10" stroke="#102018" stroke-width="2" fill="none"/>
<line x1="650.52" y1="306.65" x2="650.12" y2="310.25" stroke="#102018" stroke-width="2" fill="none"/>
<line x1="650.52" y1="389.10" x2="651.73" y2="391.90" stroke="#102018" stroke-width="2" fill="none"/>
<line x1="651.73" y1="303.85" x2="650.52" y2="306.65" stroke="#102018" stroke-width="2" fill="none"/>
<line x1="651.73" y1="391.90" x2="653.73" y2="393.90" stroke="#102018" stroke-width="2" fill="none"/>
<line x1="653.73" y1="301.85" x2="651.73" y2="303.85" stroke="#102018" stroke-width="2" fill="none"/>
<line x1="653.73" y1="393.90" x2="656.53" y2="395.10" stroke="#102018" stroke-width="2" fill="none"/>
<line x1="656.53" y1="300.65" x2="653.73" y2="301.85" stroke="#102018" stroke-width="2" fill="none"/>
<line x1="656.53" y1="395.10" x2="660.12" y2="395.50" stroke="#102018" stroke-width="2" fill="none"/>
<line x1="660.12" y1="300.25" x2="656.53" y2="300.65" stroke="#102018" stroke-width="2" fill="none"/>
<line x1="660.12" y1="395.50" x2="663.94" y2="395.50" stroke="#102018" stroke-width="2" fill="none"/>
<line x1="663.94" y1="395.50" x2="667.54" y2="395.90" stroke="#102018" stroke-width="2" fill="none"/>
<line x1="667.54" y1="395.90" x2="670.34" y2="397.10" stroke="#102018" stroke-width="2" fill="none"/>
<line x1="670.34" y1="397.10" x2="672.34" y2="399.10" stroke="#102018" stroke-width="2" fill="none"/>
<line x1="672.34" y1="399.10" x2="673.54" y2="401.90" stroke="#102018" stroke-width="2" fill="none"/>
<line x1="673.54" y1="401.90" x2="673.94" y2="405.50" stroke="#102018" stroke-width="2" fill="none"/>
<line x1="673.94" y1="405.50" x2="673.94" y2="480.75" stroke="#102018" stroke-width="2" fill="none"/>
<line x1="673.94" y1="480.75" x2="674.34" y2="484.35" stroke="#102018" stroke-width="2" fill="none"/>
<line x1="674.34" y1="484.35" x2="675.54" y2="487.15" stroke="#102018" stroke-width="2" fill="none"/>
<line x1="675.54" y1="487.15" x2="677.54" y2="489.15" stroke="#102018" stroke-width="2" fill="none"/>
<line x1="677.54" y1="489.15" x2="680.34" y2="490.35" stroke="#102018" stroke-width="2" fill="none"/>
<line x1="680.34" y1="490.35" x2="683.94" y2="490.75" stroke="#102018" stroke-width="2" fill="none"/>
<line x1="683.94" y1="490.75" x2="711.56" y2="490.75" stroke="#102018" stroke-width="2" fill="none"/>
<line x1="687.75" y1="207.50" x2="691.35" y2="207.90" stroke="#102018" stroke-width="2" fill="none"/>
<line x1="687.75" y1="300.25" x2="660.12" y2="300.25" stroke="#102018" stroke-width="2" fill="none"/>
<line x1="691.35" y1="207.90" x2="694.15" y2="209.10" stroke="#102018" stroke-width="2" fill="none"/>
<line x1="691.35" y1="299.85" x2="687.75" y2="300.25" stroke="#102018" stroke-width="2" fill="none"/>
<line x1="694.15" y1="209.10" x2="696.15" y2="211.10" stroke="#102018" stroke-width="2" fill="none"/>
<line x1="694.15" y1="298.65" x2="691.35" y2="299.85" stroke="#102018" stroke-width="2" fill="none"/>
<line x1="696.15" y1="211.10" x2="697.35" y2="213.90" stroke="#102018" stroke-width="2" fill="none"/>
<line x1="696.15" y1="296.65" x2="694.15" y2="298.65" stroke="#102018" stroke-width="2" fill="none"/>
<line x1="697.35" y1="213.90" x2="697.75" y2="217.50" stroke="#102018" stroke-width="2" fill="none"/>
<line x1="697.35" y1="293.85" x2="696.15" y2="296.65" stroke="#102018" stroke-width="2" fill="none"/>
<line x1="697.75" y1="217.50" x2="697.75" y2="290.25" stroke="#102018" stroke-width="2" fill="none"/>
<line x1="697.75" y1="290.25" x2="697.35" y2="293.85" stroke="#102018" stroke-width="2" fill="none"/>
<line x1="711.56" y1="490.75" x2="715.16" y2="491.15" stroke="#102018" stroke-width="2" fill="none"/>
<line x1="711.56" y1="678.75" x2="50.00" y2="678.75" stroke="#102018" stroke-width="2" fill="none"/>
<line x1="715.16" y1="491.15" x2="717.96" y2="492.35" stroke="#102018" stroke-width="2" fill="none"/>
<line x1="715.16" y1="678.35" x2="711.56" y2="678.75" stroke="#102018" stroke-width="2" fill="none"/>
<line x1="717.96" y1="492.35" x2="719.96" y2="494.35" stroke="#102018" stroke-width="2" fill="none"/>
<line x1="717.96" y1="677.15" x2="715.16" y2="678.35" stroke="#102018" stroke-width="2" fill="none"/>
<line x1="719.96" y1="494.35" x2="721.16" y2="497.15" stroke="#102018" stroke-width="2" fill="none"/>
<line x1="719.96" y1="675.15" x2="717.96" y2="677.15" stroke="#102018" stroke-width="2" fill="none"/>
<line x1="721.16" y1="497.15" x2="721.56" y2="500.75" stroke="#102018" stroke-width="2" fill="none"/>
<line x1="721.16" y1="672.35" x2="719.96" y2="675.15" stroke="#102018" stroke-width="2" fill="none"/>
<line x1="721.56" y1="500.75" x2="721.56" y2="576.00" stroke="#102018" stroke-width="2" fill="none"/>
<line x1="721.56" y1="576.00" x2="721.56" y2="580.00" stroke="#102018" stroke-width="2" fill="none"/>
<line x1="721.56" y1="580.00" x2="721.56" y2="584.00" stroke="#102018" stroke-width="2" fill="none"/>
<line x1="721.56" y1="584.00" x2="721.56" y2="588.00" stroke="#102018" stroke-width="2" fill="none"/>
<line x1="721.56" y1="588.00" x2="721.56" y2="592.00" stroke="#102018" stroke-width="2" fill="none"/>
<line x1="721.56" y1="592.00" x2="721.56" y2="596.00" stroke="#102018" stroke-width="2" fill="none"/>
<line x1="721.56" y1="596.00" x2="721.56" y2="668.75" stroke="#102018" stroke-width="2" fill="none"/>
<line x1="721.56" y1="668.75" x2="721.16" y2="672.35" stroke="#102018" stroke-width="2" fill="none"/>
<line x1="663.12" y1="310.25" x2="663.52" y2="306.65" stroke="#101b2a" stroke-width="2" fill="none"/>
<line x1="663.12" y1="385.50" x2="663.12" y2="310.25" stroke="#101b2a" stroke-width="2" fill="none"/>
<line x1="663.52" y1="306.65" x2="664.72" y2="303.85" stroke="#101b2a" stroke-width="2" fill="none"/>
<line x1="663.52" y1="389.10" x2="663.12" y2="385.50" stroke="#101b2a" stroke-width="2" fill="none"/>
<line x1="664.72" y1="303.85" x2="666.73" y2="301.85" stroke="#101b2a" stroke-width="2" fill="none"/>
<line x1="664.72" y1="391.90" x2="663.52" y2="389.10" stroke="#101b2a" stroke-width="2" fill="none"/>
<line x1="666.73" y1="301.85" x2="669.52" y2="300.65" stroke="#101b2a" stroke-width="2" fill="none"/>
<line x1="666.73" y1="393.90" x2="664.72" y2="391.90" stroke="#101b2a" stroke-width="2" fill="none"/>
<line x1="669.52" y1="300.65" x2="673.12" y2="300.25" stroke="#101b2a" stroke-width="2" fill="none"/>
<line x1="669.52" y1="395.10" x2="666.73" y2="393.90" stroke="#101b2a" stroke-width="2" fill="none"/>
<line x1="673.12" y1="300.25" x2="700.75" y2="300.25" stroke="#101b2a" stroke-width="2" fill="none"/>
<line x1="673.12" y1="395.50" x2="669.52" y2="395.10" stroke="#101b2a" stroke-width="2" fill="none"/>
<line x1="676.94" y1="395.50" x2="673.12" y2="395.50" stroke="#101b2a" stroke-width="2" fill="none"/>
<line x1="680.54" y1="395.90" x2="676.94" y2="395.50" stroke="#101b2a" stroke-width="2" fill="none"/>
<line x1="683.34" y1="397.10" x2="680.54" y2="395.90" stroke="#101b2a" stroke-width="2" fill="none"/>
<line x1="685.34" y1="399.10" x2="683.34" y2="397.10" stroke="#101b2a" stroke-width="2" fill="none"/>
<line x1="686.54" y1="401.90" x2="685.34" y2="399.10" stroke="#101b2a" stroke-width="2" fill="none"/>
<line x1="686.94" y1="405.50" x2="686.54" y2="401.90" stroke="#101b2a" stroke-width="2" fill="none"/>
<line x1="686.94" y1="480.75" x2="686.94" y2="405.50" stroke="#101b2a" stroke-width="2" fill="none"/>
<line x1="687.34" y1="484.35" x2="686.94" y2="480.75" stroke="#101b2a" stroke-width="2" fill="none"/>
<line x1="688.54" y1="487.15" x2="687.34" y2="484.35" stroke="#101b2a" stroke-width="2" fill="none"/>
<line x1="690.54" y1="489.15" x2="688.54" y2="487.15" stroke="#101b2a" stroke-width="2" fill="none"/>
<line x1="693.34" y1="490.35" x2="690.54" y2="489.15" stroke="#101b2a" stroke-width="2" fill="none"/>
<line x1="696.94" y1="490.75" x2="693.34" y2="490.35" stroke="#101b2a" stroke-width="2" fill="none"/>
<line x1="700.75" y1="300.25" x2="704.35" y2="299.85" stroke="#101b2a" stroke-width="2" fill="none"/>
<line x1="704.35" y1="299.85" x2="707.15" y2="298.65" stroke="#101b2a" stroke-width="2" fill="none"/>
<line x1="707.15" y1="298.65" x2="709.15" y2="296.65" stroke="#101b2a" stroke-width="2" fill="none"/>
<line x1="709.15" y1="296.65" x2="710.35" y2="293.85" stroke="#101b2a" stroke-width="2" fill="none"/>
<line x1="710.35" y1="293.85" x2="710.75" y2="290.25" stroke="#101b2a" stroke-width="2" fill="none"/>
<line x1="710.75" y1="217.50" x2="711.15" y2="213.90" stroke="#101b2a" stroke-width="2" fill="none"/>
<line x1="710.75" y1="290.25" x2="710.75" y2="217.50" stroke="#101b2a" stroke-width="2" fill="none"/>
<line x1="711.15" y1="213.90" x2="712.35" y2="211.10" stroke="#101b2a" stroke-width="2" fill="none"/>
<line x1="712.35" y1="211.10" x2="714.35" y2="209.10" stroke="#101b2a" stroke-width="2" fill="none"/>
<line x1="714.35" y1="209.10" x2="717.15" y2="207.90" stroke="#101b2a" stroke-width="2" fill="none"/>
<line x1="717.15" y1="207.90" x2="720.75" y2="207.50" stroke="#101b2a" stroke-width="2" fill="none"/>
<line x1="720.75" y1="207.50" x2="771.12" y2="207.50" stroke="#101b2a" stroke-width="2" fill="none"/>
<line x1="724.56" y1="490.75" x2="696.94" y2="490.75" stroke="#101b2a" stroke-width="2" fill="none"/>
<line x1="728.16" y1="491.15" x2="724.56" y2="490.75" stroke="#101b2a" stroke-width="2" fill="none"/>
<line x1="730.96" y1="492.35" x2="728.16" y2="491.15" stroke="#101b2a" stroke-width="2" fill="none"/>
<line x1="732.96" y1="494.35" x2="730.96" y2="492.35" stroke="#101b2a" stroke-width="2" fill="none"/>
<line x1="734.16" y1="497.15" x2="732.96" y2="494.35" stroke="#101b2a" stroke-width="2" fill="none"/>
<line x1="734.56" y1="500.75" x2="734.16" y2="497.15" stroke="#101b2a" stroke-width="2" fill="none"/>
<line x1="734.56" y1="576.00" x2="734.56" y2="500.75" stroke="#101b2a" stroke-width="2" fill="none"/>
<line x1="734.56" y1="580.00" x2="734.56" y2="576.00" stroke="#101b2a" stroke-width="2" fill="none"/>
<line x1="734.56" y1="584.00" x2="734.56" y2="580.00" stroke="#101b2a" stroke-width="2" fill="none"/>
<line x1="734.56" y1="588.00" x2="734.56" y2="584.00" stroke="#101b2a" stroke-width="2" fill="none"/>
<line x1="734.56" y1="592.00" x2="734.56" y2="588.00" stroke="#101b2a" stroke-width="2" fill="none"/>
<line x1="734.56" y1="596.00" x2="734.56" y2="592.00" stroke="#101b2a" stroke-width="2" fill="none"/>
<line x1="734.56" y1="668.75" x2="734.56" y2="596.00" stroke="#101b2a" stroke-width="2" fill="none"/>
<line x1="734.96" y1="672.35" x2="734.56" y2="668.75" stroke="#101b2a" stroke-width="2" fill="none"/>
<line x1="736.16" y1="675.15" x2="734.96" y2="672.35" stroke="#101b2a" stroke-width="2" fill="none"/>
<line x1="738.16" y1="677.15" x2="736.16" y2="675.15" stroke="#101b2a" stroke-width="2" fill="none"/>
<line x1="740.96" y1="678.35" x2="738.16" y2="677.15" stroke="#101b2a" stroke-width="2" fill="none"/>
<line x1="744.56" y1="678.75" x2="740.96" y2="678.35" stroke="#101b2a" stroke-width="2" fill="none"/>
<line x1="771.12" y1="207.50" x2="774.72" y2="207.10" stroke="#101b2a" stroke-width="2" fill="none"/>
<line x1="774.72" y1="207.10" x2="777.52" y2="205.90" stroke="#101b2a" stroke-width="2" fill="none"/>
<line x1="777.52" y1="205.90" x2="779.52" y2="203.90" stroke="#101b2a" stroke-width="2" fill="none"/>
<line x1="779.52" y1="203.90" x2="780.73" y2="201.10" stroke="#101b2a" stroke-width="2" fill="none"/>
<line x1="780.73" y1="201.10" x2="781.12" y2="197.50" stroke="#101b2a" stroke-width="2" fill="none"/>
<line x1="781.12" y1="50.00" x2="781.53" y2="46.40" stroke="#101b2a" stroke-width="2" fill="none"/>
<line x1="781.12" y1="197.50" x2="781.12" y2="50.00" stroke="#101b2a" stroke-width="2" fill="none"/>
<line x1="781.53" y1="46.40" x2="782.73" y2="43.60" stroke="#101b2a" stroke-width="2" fill="none"/>
<line x1="782.73" y1="43.60" x2="784.72" y2="41.60" stroke="#101b2a" stroke-width="2" fill="none"/>
<line x1="784.72" y1="41.60" x2="787.52" y2="40.40" stroke="#101b2a" stroke-width="2" fill="none"/>
<line x1="787.52" y1="40.40" x2="791.12" y2="40.00" stroke="#101b2a" stroke-width="2" fill="none"/>
<line x1="791.12" y1="40.00" x2="983.62" y2="40.00" stroke="#101b2a" stroke-width="2" fill="none"/>
<line x1="983.62" y1="40.00" x2="987.22" y2="40.40" stroke="#101b2a" stroke-width="2" fill="none"/>
<line x1="987.22" y1="40.40" x2="990.02" y2="41.60" stroke="#101b2a" stroke-width="2" fill="none"/>
<line x1="990.02" y1="41.60" x2="992.02" y2="43.60" stroke="#101b2a" stroke-width="2" fill="none"/>
<line x1="992.02" y1="43.60" x2="993.22" y2="46.40" stroke="#101b2a" stroke-width="2" fill="none"/>
<line x1="993.22" y1="46.40" x2="993.62" y2="50.00" stroke="#101b2a" stroke-width="2" fill="none"/>
<line x1="993.62" y1="50.00" x2="993.62" y2="197.50" stroke="#101b2a" stroke-width="2" fill="none"/>
<line x1="993.62" y1="197.50" x2="994.03" y2="201.10" stroke="#101b2a" stroke-width="2" fill="none"/>
<line x1="994.03" y1="201.10" x2="995.23" y2="203.90" stroke="#101b2a" stroke-width="2" fill="none"/>
<line x1="995.23" y1="203.90" x2="997.22" y2="205.90" stroke="#101b2a" stroke-width="2" fill="none"/>
<line x1="997.22" y1="205.90" x2="1000.02" y2="207.10" stroke="#101b2a" stroke-width="2" fill="none"/>
<line x1="1000.02" y1="207.10" x2="1003.62" y2="207.50" stroke="#101b2a" stroke-width="2" fill="none"/>
<line x1="1003.62" y1="207.50" x2="1477.56" y2="207.50" stroke="#101b2a" stroke-width="2" fill="none"/>
<line x1="1477.56" y1="207.50" x2="1481.16" y2="207.90" stroke="#101b2a" stroke-width="2" fill="none"/>
<line x1="1477.56" y1="678.75" x2="744.56" y2="678.75" stroke="#101b2a" stroke-width="2" fill="none"/>
<line x1="1481.16" y1="207.90" x2="1483.96" y2="209.10" stroke="#101b2a" stroke-width="2" fill="none"/>
<line x1="1481.16" y1="678.35" x2="1477.56" y2="678.75" stroke="#101b2a" stroke-width="2" fill="none"/>
<line x1="1483.96" y1="209.10" x2="1485.96" y2="211.10" stroke="#101b2a" stroke-width="2" fill="none"/>
<line x1="1483.96" y1="677.15" x2="1481.16" y2="678.35" stroke="#101b2a" stroke-width="2" fill="none"/>
<line x1="1485.96" y1="211.10" x2="1487.16" y2="213.90" stroke="#101b2a" stroke-width="2" fill="none"/>
<line x1="1485.96" y1="675.15" x2="1483.96" y2="677.15" stroke="#101b2a" stroke-width="2" fill="none"/>
<line x1="1487.16" y1="213.90" x2="1487.56" y2="217.50" stroke="#101b2a" stroke-width="2" fill="none"/>
<line x1="1487.16" y1="672.35" x2="1485.96" y2="675.15" stroke="#101b2a" stroke-width="2" fill="none"/>
<line x1="1487.56" y1="217.50" x2="1487.56" y2="290.25" stroke="#101b2a" stroke-width="2" fill="none"/>
<line x1="1487.56" y1="290.25" x2="1487.56" y2="294.25" stroke="#101b2a" stroke-width="2" fill="none"/>
<line x1="1487.56" y1="294.25" x2="1487.56" y2="298.25" stroke="#101b2a" stroke-width="2" fill="none"/>
<line x1="1487.56" y1="298.25" x2="1487.56" y2="302.25" stroke="#101b2a" stroke-width="2" fill="none"/>
<line x1="1487.56" y1="302.25" x2="1487.56" y2="306.25" stroke="#101b2a" stroke-width="2" fill="none"/>
<line x1="1487.56" y1="306.25" x2="1487.56" y2="310.25" stroke="#101b2a" stroke-width="2" fill="none"/>
<line x1="1487.56" y1="310.25" x2="1487.56" y2="385.50" stroke="#101b2a" stroke-width="2" fill="none"/>
<line x1="1487.56" y1="385.50" x2="1487.56" y2="389.50" stroke="#101b2a" stroke-width="2" fill="none"/>
<line x1="1487.56" y1="389.50" x2="1487.56" y2="393.50" stroke="#101b2a" stroke-width="2" fill="none"/>
<line x1="1487.56" y1="393.50" x2="1487.56" y2="397.50" stroke="#101b2a" stroke-width="2" fill="none"/>
<line x1="1487.56" y1="397.50" x2="1487.56" y2="401.50" stroke="#101b2a" stroke-width="2" fill="none"/>
<line x1="1487.56" y1="401.50" x2="1487.56" y2="405.50" stroke="#101b2a" stroke-width="2" fill="none"/>
<line x1="1487.56" y1="405.50" x2="1487.56" y2="480.75" stroke="#101b2a" stroke-width="2" fill="none"/>
<line x1="1487.56" y1="480.75" x2="1487.56" y2="484.75" stroke="#101b2a" stroke-width="2" fill="none"/>
<line x1="1487.56" y1="484.75" x2="1487.56" y2="488.75" stroke="#101b2a" stroke-width="2" fill="none"/>
<line x1="1487.56" y1="488.75" x2="1487.56" y2="492.75" stroke="#101b2a" stroke-width="2" fill="none"/>
<line x1="1487.56" y1="492.75" x2="1487.56" y2="496.75" stroke="#101b2a" stroke-width="2" fill="none"/>
<line x1="1487.56" y1="496.75" x2="1487.56" y2="500.75" stroke="#101b2a" stroke-width="2" fill="none"/>
<line x1="1487.56" y1="500.75" x2="1487.56" y2="576.00" stroke="#101b2a" stroke-width="2" fill="none"/>
<line x1="1487.56" y1="576.00" x2="1487.56" y2="580.00" stroke="#101b2a" stroke-width="2" fill="none"/>
<line x1="1487.56" y1="580.00" x2="1487.56" y2="584.00" stroke="#101b2a" stroke-width="2" fill="none"/>
<line x1="1487.56" y1="584.00" x2="1487.56" y2="588.00" stroke="#101b2a" stroke-width="2" fill="none"/>
<line x1="1487.56" y1="588.00" x2="1487.56" y2="592.00" stroke="#101b2a" stroke-width="2" fill="none"/>
<line x1="1487.56" y1="592.00" x2="1487.56" y2="596.00" stroke="#101b2a" stroke-width="2" fill="none"/>
<line x1="1487.56" y1="596.00" x2="1487.56" y2="668.75" stroke="#101b2a" stroke-width="2" fill="none"/>
<line x1="1487.56" y1="668.75" x2="1487.16" y2="672.35" stroke="#101b2a" stroke-width="2" fill="none"/>
<rect x="40.00" y="207.50" width="90.25" height="90.25" rx="2" ry="2" fill="#e9fff4" stroke="#2a8d66" stroke-width="1" fill-opacity="0.86"/>
<text x="85.12" y="256.09" text-anchor="middle" font-family="Arial" font-size="10" fill="#101010">~</text>
<rect x="135.25" y="207.50" width="90.25" height="90.25" rx="2" ry="2" fill="#e9fff4" stroke="#2a8d66" stroke-width="1" fill-opacity="0.86"/>
<text x="180.38" y="256.09" text-anchor="middle" font-family="Arial" font-size="10" fill="#101010">1</text>
<rect x="230.50" y="207.50" width="90.25" height="90.25" rx="2" ry="2" fill="#e9fff4" stroke="#2a8d66" stroke-width="1" fill-opacity="0.86"/>
<text x="275.62" y="256.09" text-anchor="middle" font-family="Arial" font-size="10" fill="#101010">2</text>
<rect x="325.75" y="207.50" width="90.25" height="90.25" rx="2" ry="2" fill="#e9fff4" stroke="#2a8d66" stroke-width="1" fill-opacity="0.86"/>
<text x="370.88" y="256.09" text-anchor="middle" font-family="Arial" font-size="10" fill="#101010">3</text>
<rect x="421.00" y="207.50" width="90.25" height="90.25" rx="2" ry="2" fill="#e9fff4" stroke="#2a8d66" stroke-width="1" fill-opacity="0.86"/>
<text x="466.12" y="256.09" text-anchor="middle" font-family="Arial" font-size="10" fill="#101010">4</text>
<rect x="516.25" y="207.50" width="90.25" height="90.25" rx="2" ry="2" fill="#e9fff4" stroke="#2a8d66" stroke-width="1" fill-opacity="0.86"/>
<text x="561.38" y="256.09" text-anchor="middle" font-family="Arial" font-size="10" fill="#101010">5</text>
<rect x="611.50" y="207.50" width="90.25" height="90.25" rx="2" ry="2" fill="#e9fff4" stroke="#2a8d66" stroke-width="1" fill-opacity="0.86"/>
<text x="656.62" y="256.09" text-anchor="middle" font-family="Arial" font-size="10" fill="#101010">6</text>
<rect x="40.00" y="302.75" width="137.88" height="90.25" rx="2" ry="2" fill="#e9fff4" stroke="#2a8d66" stroke-width="1" fill-opacity="0.86"/>
<text x="108.94" y="351.33" text-anchor="middle" font-family="Arial" font-size="10" fill="#101010">TAB</text>
<rect x="182.87" y="302.75" width="90.25" height="90.25" rx="2" ry="2" fill="#e9fff4" stroke="#2a8d66" stroke-width="1" fill-opacity="0.86"/>
<text x="228.00" y="351.33" text-anchor="middle" font-family="Arial" font-size="10" fill="#101010">Q</text>
<rect x="278.12" y="302.75" width="90.25" height="90.25" rx="2" ry="2" fill="#e9fff4" stroke="#2a8d66" stroke-width="1" fill-opacity="0.86"/>
<text x="323.25" y="351.33" text-anchor="middle" font-family="Arial" font-size="10" fill="#101010">W</text>
<rect x="373.38" y="302.75" width="90.25" height="90.25" rx="2" ry="2" fill="#e9fff4" stroke="#2a8d66" stroke-width="1" fill-opacity="0.86"/>
<text x="418.50" y="351.33" text-anchor="middle" font-family="Arial" font-size="10" fill="#101010">E</text>
<rect x="468.62" y="302.75" width="90.25" height="90.25" rx="2" ry="2" fill="#e9fff4" stroke="#2a8d66" stroke-width="1" fill-opacity="0.86"/>
<text x="513.75" y="351.33" text-anchor="middle" font-family="Arial" font-size="10" fill="#101010">R</text>
<rect x="563.88" y="302.75" width="90.25" height="90.25" rx="2" ry="2" fill="#e9fff4" stroke="#2a8d66" stroke-width="1" fill-opacity="0.86"/>
<text x="609.00" y="351.33" text-anchor="middle" font-family="Arial" font-size="10" fill="#101010">T</text>
<rect x="40.00" y="398.00" width="161.69" height="90.25" rx="2" ry="2" fill="#e9fff4" stroke="#2a8d66" stroke-width="1" fill-opacity="0.86"/>
<text x="120.84" y="446.58" text-anchor="middle" font-family="Arial" font-size="10" fill="#101010">Caps</text>
<rect x="206.69" y="398.00" width="90.25" height="90.25" rx="2" ry="2" fill="#e9fff4" stroke="#2a8d66" stroke-width="1" fill-opacity="0.86"/>
<text x="251.81" y="446.58" text-anchor="middle" font-family="Arial" font-size="10" fill="#101010">A</text>
<rect x="301.94" y="398.00" width="90.25" height="90.25" rx="2" ry="2" fill="#e9fff4" stroke="#2a8d66" stroke-width="1" fill-opacity="0.86"/>
<text x="347.06" y="446.58" text-anchor="middle" font-family="Arial" font-size="10" fill="#101010">S</text>
<rect x="397.19" y="398.00" width="90.25" height="90.25" rx="2" ry="2" fill="#e9fff4" stroke="#2a8d66" stroke-width="1" fill-opacity="0.86"/>
<text x="442.31" y="446.58" text-anchor="middle" font-family="Arial" font-size="10" fill="#101010">D</text>
<rect x="492.44" y="398.00" width="90.25" height="90.25" rx="2" ry="2" fill="#e9fff4" stroke="#2a8d66" stroke-width="1" fill-opacity="0.86"/>
<text x="537.56" y="446.58" text-anchor="middle" font-family="Arial" font-size="10" fill="#101010">F</text>
<rect x="587.69" y="398.00" width="90.25" height="90.25" rx="2" ry="2" fill="#e9fff4" stroke="#2a8d66" stroke-width="1" fill-opacity="0.86"/>
<text x="632.81" y="446.58" text-anchor="middle" font-family="Arial" font-size="10" fill="#101010">G</text>
<rect x="40.00" y="493.25" width="114.06" height="90.25" rx="2" ry="2" fill="#e9fff4" stroke="#2a8d66" stroke-width="1" fill-opacity="0.86"/>
<text x="97.03" y="541.84" text-anchor="middle" font-family="Arial" font-size="10" fill="#101010">LShift</text>
<rect x="159.06" y="493.25" width="90.25" height="90.25" rx="2" ry="2" fill="#e9fff4" stroke="#2a8d66" stroke-width="1" fill-opacity="0.86"/>
<text x="204.19" y="541.84" text-anchor="middle" font-family="Arial" font-size="10" fill="#101010">LShift</text>
<rect x="254.31" y="493.25" width="90.25" height="90.25" rx="2" ry="2" fill="#e9fff4" stroke="#2a8d66" stroke-width="1" fill-opacity="0.86"/>
<text x="299.44" y="541.84" text-anchor="middle" font-family="Arial" font-size="10" fill="#101010">Z</text>
<rect x="349.56" y="493.25" width="90.25" height="90.25" rx="2" ry="2" fill="#e9fff4" stroke="#2a8d66" stroke-width="1" fill-opacity="0.86"/>
<text x="394.69" y="541.84" text-anchor="middle" font-family="Arial" font-size="10" fill="#101010">X</text>
<rect x="444.81" y="493.25" width="90.25" height="90.25" rx="2" ry="2" fill="#e9fff4" stroke="#2a8d66" stroke-width="1" fill-opacity="0.86"/>
<text x="489.94" y="541.84" text-anchor="middle" font-family="Arial" font-size="10" fill="#101010">C</text>
<rect x="540.06" y="493.25" width="90.25" height="90.25" rx="2" ry="2" fill="#e9fff4" stroke="#2a8d66" stroke-width="1" fill-opacity="0.86"/>
<text x="585.19" y="541.84" text-anchor="middle" font-family="Arial" font-size="10" fill="#101010">V</text>
<rect x="635.31" y="493.25" width="90.25" height="90.25" rx="2" ry="2" fill="#e9fff4" stroke="#2a8d66" stroke-width="1" fill-opacity="0.86"/>
<text x="680.44" y="541.84" text-anchor="middle" font-family="Arial" font-size="10" fill="#101010">B</text>
<rect x="40.00" y="588.50" width="114.06" height="90.25" rx="2" ry="2" fill="#e9fff4" stroke="#2a8d66" stroke-width="1" fill-opacity="0.86"/>
<text x="97.03" y="637.09" text-anchor="middle" font-family="Arial" font-size="10" fill="#101010">Ctrl</text>
<rect x="159.06" y="588.50" width="114.06" height="90.25" rx="2" ry="2" fill="#e9fff4" stroke="#2a8d66" stroke-width="1" fill-opacity="0.86"/>
<text x="216.09" y="637.09" text-anchor="middle" font-family="Arial" font-size="10" fill="#101010">Win</text>
<rect x="278.13" y="588.50" width="114.06" height="90.25" rx="2" ry="2" fill="#e9fff4" stroke="#2a8d66" stroke-width="1" fill-opacity="0.86"/>
<text x="335.16" y="637.09" text-anchor="middle" font-family="Arial" font-size="10" fill="#101010">Alt</text>
<rect x="397.19" y="588.50" width="90.25" height="90.25" rx="2" ry="2" fill="#e9fff4" stroke="#2a8d66" stroke-width="1" fill-opacity="0.86"/>
<text x="442.31" y="637.09" text-anchor="middle" font-family="Arial" font-size="10" fill="#101010">Fn</text>
<rect x="492.44" y="588.50" width="114.06" height="90.25" rx="2" ry="2" fill="#e9fff4" stroke="#2a8d66" stroke-width="1" fill-opacity="0.86"/>
<text x="549.47" y="637.09" text-anchor="middle" font-family="Arial" font-size="10" fill="#101010">Space</text>
<rect x="611.50" y="588.50" width="114.06" height="90.25" rx="2" ry="2" fill="#e9fff4" stroke="#2a8d66" stroke-width="1" fill-opacity="0.86"/>
<text x="668.53" y="637.09" text-anchor="middle" font-family="Arial" font-size="10" fill="#101010">Space</text>
<rect x="459.21" y="67.40" width="148.70" height="85.20" fill="none" stroke="#252525" stroke-width="1.5" stroke-dasharray="4 3"/>
<text x="533.56" y="63.40" text-anchor="middle" font-family="Arial" font-size="9" fill="#222">U1</text>
<rect x="706.75" y="207.50" width="90.25" height="90.25" rx="2" ry="2" fill="#eef5ff" stroke="#467cc0" stroke-width="1" fill-opacity="0.86"/>
<text x="751.88" y="256.09" text-anchor="middle" font-family="Arial" font-size="10" fill="#101010">7</text>
<rect x="802.00" y="207.50" width="90.25" height="90.25" rx="2" ry="2" fill="#eef5ff" stroke="#467cc0" stroke-width="1" fill-opacity="0.86"/>
<text x="847.12" y="256.09" text-anchor="middle" font-family="Arial" font-size="10" fill="#101010">8</text>
<rect x="897.25" y="207.50" width="90.25" height="90.25" rx="2" ry="2" fill="#eef5ff" stroke="#467cc0" stroke-width="1" fill-opacity="0.86"/>
<text x="942.38" y="256.09" text-anchor="middle" font-family="Arial" font-size="10" fill="#101010">9</text>
<rect x="992.50" y="207.50" width="90.25" height="90.25" rx="2" ry="2" fill="#eef5ff" stroke="#467cc0" stroke-width="1" fill-opacity="0.86"/>
<text x="1037.62" y="256.09" text-anchor="middle" font-family="Arial" font-size="10" fill="#101010">0</text>
<rect x="1087.75" y="207.50" width="90.25" height="90.25" rx="2" ry="2" fill="#eef5ff" stroke="#467cc0" stroke-width="1" fill-opacity="0.86"/>
<text x="1132.88" y="256.09" text-anchor="middle" font-family="Arial" font-size="10" fill="#101010">-</text>
<rect x="1183.00" y="207.50" width="90.25" height="90.25" rx="2" ry="2" fill="#eef5ff" stroke="#467cc0" stroke-width="1" fill-opacity="0.86"/>
<text x="1228.12" y="256.09" text-anchor="middle" font-family="Arial" font-size="10" fill="#101010">=</text>
<rect x="1278.25" y="207.50" width="114.06" height="90.25" rx="2" ry="2" fill="#eef5ff" stroke="#467cc0" stroke-width="1" fill-opacity="0.86"/>
<text x="1335.28" y="256.09" text-anchor="middle" font-family="Arial" font-size="10" fill="#101010">BSPC</text>
<rect x="1397.31" y="207.50" width="90.25" height="90.25" rx="2" ry="2" fill="#eef5ff" stroke="#467cc0" stroke-width="1" fill-opacity="0.86"/>
<text x="1442.44" y="256.09" text-anchor="middle" font-family="Arial" font-size="10" fill="#101010">Del</text>
<rect x="659.12" y="302.75" width="90.25" height="90.25" rx="2" ry="2" fill="#eef5ff" stroke="#467cc0" stroke-width="1" fill-opacity="0.86"/>
<text x="704.25" y="351.33" text-anchor="middle" font-family="Arial" font-size="10" fill="#101010">Y</text>
<rect x="754.38" y="302.75" width="90.25" height="90.25" rx="2" ry="2" fill="#eef5ff" stroke="#467cc0" stroke-width="1" fill-opacity="0.86"/>
<text x="799.50" y="351.33" text-anchor="middle" font-family="Arial" font-size="10" fill="#101010">U</text>
<rect x="849.62" y="302.75" width="90.25" height="90.25" rx="2" ry="2" fill="#eef5ff" stroke="#467cc0" stroke-width="1" fill-opacity="0.86"/>
<text x="894.75" y="351.33" text-anchor="middle" font-family="Arial" font-size="10" fill="#101010">I</text>
<rect x="944.88" y="302.75" width="90.25" height="90.25" rx="2" ry="2" fill="#eef5ff" stroke="#467cc0" stroke-width="1" fill-opacity="0.86"/>
<text x="990.00" y="351.33" text-anchor="middle" font-family="Arial" font-size="10" fill="#101010">O</text>
<rect x="1040.12" y="302.75" width="90.25" height="90.25" rx="2" ry="2" fill="#eef5ff" stroke="#467cc0" stroke-width="1" fill-opacity="0.86"/>
<text x="1085.25" y="351.33" text-anchor="middle" font-family="Arial" font-size="10" fill="#101010">P</text>
<rect x="1135.38" y="302.75" width="90.25" height="90.25" rx="2" ry="2" fill="#eef5ff" stroke="#467cc0" stroke-width="1" fill-opacity="0.86"/>
<text x="1180.50" y="351.33" text-anchor="middle" font-family="Arial" font-size="10" fill="#101010">[</text>
<rect x="1230.62" y="302.75" width="90.25" height="90.25" rx="2" ry="2" fill="#eef5ff" stroke="#467cc0" stroke-width="1" fill-opacity="0.86"/>
<text x="1275.75" y="351.33" text-anchor="middle" font-family="Arial" font-size="10" fill="#101010">]</text>
<rect x="1325.88" y="302.75" width="161.69" height="90.25" rx="2" ry="2" fill="#eef5ff" stroke="#467cc0" stroke-width="1" fill-opacity="0.86"/>
<text x="1406.72" y="351.33" text-anchor="middle" font-family="Arial" font-size="10" fill="#101010">\</text>
<rect x="682.94" y="398.00" width="90.25" height="90.25" rx="2" ry="2" fill="#eef5ff" stroke="#467cc0" stroke-width="1" fill-opacity="0.86"/>
<text x="728.06" y="446.58" text-anchor="middle" font-family="Arial" font-size="10" fill="#101010">H</text>
<rect x="778.19" y="398.00" width="90.25" height="90.25" rx="2" ry="2" fill="#eef5ff" stroke="#467cc0" stroke-width="1" fill-opacity="0.86"/>
<text x="823.31" y="446.58" text-anchor="middle" font-family="Arial" font-size="10" fill="#101010">J</text>
<rect x="873.44" y="398.00" width="90.25" height="90.25" rx="2" ry="2" fill="#eef5ff" stroke="#467cc0" stroke-width="1" fill-opacity="0.86"/>
<text x="918.56" y="446.58" text-anchor="middle" font-family="Arial" font-size="10" fill="#101010">K</text>
<rect x="968.69" y="398.00" width="90.25" height="90.25" rx="2" ry="2" fill="#eef5ff" stroke="#467cc0" stroke-width="1" fill-opacity="0.86"/>
<text x="1013.81" y="446.58" text-anchor="middle" font-family="Arial" font-size="10" fill="#101010">L</text>
<rect x="1063.94" y="398.00" width="90.25" height="90.25" rx="2" ry="2" fill="#eef5ff" stroke="#467cc0" stroke-width="1" fill-opacity="0.86"/>
<text x="1109.06" y="446.58" text-anchor="middle" font-family="Arial" font-size="10" fill="#101010">;</text>
<rect x="1159.19" y="398.00" width="90.25" height="90.25" rx="2" ry="2" fill="#eef5ff" stroke="#467cc0" stroke-width="1" fill-opacity="0.86"/>
<text x="1204.31" y="446.58" text-anchor="middle" font-family="Arial" font-size="10" fill="#101010">&#x27;</text>
<rect x="1254.44" y="398.00" width="137.88" height="90.25" rx="2" ry="2" fill="#eef5ff" stroke="#467cc0" stroke-width="1" fill-opacity="0.86"/>
<text x="1323.38" y="446.58" text-anchor="middle" font-family="Arial" font-size="10" fill="#101010">Enter</text>
<rect x="1397.31" y="398.00" width="90.25" height="90.25" rx="2" ry="2" fill="#eef5ff" stroke="#467cc0" stroke-width="1" fill-opacity="0.86"/>
<text x="1442.44" y="446.58" text-anchor="middle" font-family="Arial" font-size="10" fill="#101010">Enter</text>
<rect x="730.56" y="493.25" width="90.25" height="90.25" rx="2" ry="2" fill="#eef5ff" stroke="#467cc0" stroke-width="1" fill-opacity="0.86"/>
<text x="775.69" y="541.84" text-anchor="middle" font-family="Arial" font-size="10" fill="#101010">N</text>
<rect x="825.81" y="493.25" width="90.25" height="90.25" rx="2" ry="2" fill="#eef5ff" stroke="#467cc0" stroke-width="1" fill-opacity="0.86"/>
<text x="870.94" y="541.84" text-anchor="middle" font-family="Arial" font-size="10" fill="#101010">M</text>
<rect x="921.06" y="493.25" width="90.25" height="90.25" rx="2" ry="2" fill="#eef5ff" stroke="#467cc0" stroke-width="1" fill-opacity="0.86"/>
<text x="966.19" y="541.84" text-anchor="middle" font-family="Arial" font-size="10" fill="#101010">,</text>
<rect x="1016.31" y="493.25" width="90.25" height="90.25" rx="2" ry="2" fill="#eef5ff" stroke="#467cc0" stroke-width="1" fill-opacity="0.86"/>
<text x="1061.44" y="541.84" text-anchor="middle" font-family="Arial" font-size="10" fill="#101010">.</text>
<rect x="1111.56" y="493.25" width="90.25" height="90.25" rx="2" ry="2" fill="#eef5ff" stroke="#467cc0" stroke-width="1" fill-opacity="0.86"/>
<text x="1156.69" y="541.84" text-anchor="middle" font-family="Arial" font-size="10" fill="#101010">/</text>
<rect x="1206.81" y="493.25" width="90.25" height="90.25" rx="2" ry="2" fill="#eef5ff" stroke="#467cc0" stroke-width="1" fill-opacity="0.86"/>
<text x="1251.94" y="541.84" text-anchor="middle" font-family="Arial" font-size="10" fill="#101010">RShift</text>
<rect x="1302.06" y="493.25" width="90.25" height="90.25" rx="2" ry="2" fill="#eef5ff" stroke="#467cc0" stroke-width="1" fill-opacity="0.86"/>
<text x="1347.19" y="541.84" text-anchor="middle" font-family="Arial" font-size="10" fill="#101010">Up</text>
<rect x="1397.31" y="493.25" width="90.25" height="90.25" rx="2" ry="2" fill="#eef5ff" stroke="#467cc0" stroke-width="1" fill-opacity="0.86"/>
<text x="1442.44" y="541.84" text-anchor="middle" font-family="Arial" font-size="10" fill="#101010">Fn</text>
<rect x="730.56" y="588.50" width="90.25" height="90.25" rx="2" ry="2" fill="#eef5ff" stroke="#467cc0" stroke-width="1" fill-opacity="0.86"/>
<text x="775.69" y="637.09" text-anchor="middle" font-family="Arial" font-size="10" fill="#101010">B</text>
<rect x="825.81" y="588.50" width="161.69" height="90.25" rx="2" ry="2" fill="#eef5ff" stroke="#467cc0" stroke-width="1" fill-opacity="0.86"/>
<text x="906.66" y="637.09" text-anchor="middle" font-family="Arial" font-size="10" fill="#101010">Space</text>
<rect x="992.50" y="588.50" width="114.06" height="90.25" rx="2" ry="2" fill="#eef5ff" stroke="#467cc0" stroke-width="1" fill-opacity="0.86"/>
<text x="1049.53" y="637.09" text-anchor="middle" font-family="Arial" font-size="10" fill="#101010">RAlt</text>
<rect x="1111.56" y="588.50" width="90.25" height="90.25" rx="2" ry="2" fill="#eef5ff" stroke="#467cc0" stroke-width="1" fill-opacity="0.86"/>
<text x="1156.69" y="637.09" text-anchor="middle" font-family="Arial" font-size="10" fill="#101010">RCtrl</text>
<rect x="1206.81" y="588.50" width="90.25" height="90.25" rx="2" ry="2" fill="#eef5ff" stroke="#467cc0" stroke-width="1" fill-opacity="0.86"/>
<text x="1251.94" y="637.09" text-anchor="middle" font-family="Arial" font-size="10" fill="#101010">Left</text>
<rect x="1302.06" y="588.50" width="90.25" height="90.25" rx="2" ry="2" fill="#eef5ff" stroke="#467cc0" stroke-width="1" fill-opacity="0.86"/>
<text x="1347.19" y="637.09" text-anchor="middle" font-family="Arial" font-size="10" fill="#101010">Down</text>
<rect x="1397.31" y="588.50" width="90.25" height="90.25" rx="2" ry="2" fill="#eef5ff" stroke="#467cc0" stroke-width="1" fill-opacity="0.86"/>
<text x="1442.44" y="637.09" text-anchor="middle" font-family="Arial" font-size="10" fill="#101010">Right</text>
<rect x="801.77" y="67.40" width="148.70" height="85.20" fill="none" stroke="#252525" stroke-width="1.5" stroke-dasharray="4 3"/>
<text x="876.12" y="63.40" text-anchor="middle" font-family="Arial" font-size="9" fill="#222">U1</text>
<g id="key-horizontal-clearance" data-key-horizontal-clearance-mm="1.0000" data-left-key="6" data-right-key="7">
<line x1="701.75" y1="252.63" x2="706.75" y2="252.63" stroke="#1c5fb8" stroke-width="2.4"/>
<line x1="701.75" y1="252.63" x2="707.75" y2="248.63" stroke="#1c5fb8" stroke-width="2.4"/>
<line x1="701.75" y1="252.63" x2="707.75" y2="256.62" stroke="#1c5fb8" stroke-width="2.4"/>
<line x1="706.75" y1="252.63" x2="700.75" y2="248.63" stroke="#1c5fb8" stroke-width="2.4"/>
<line x1="706.75" y1="252.63" x2="700.75" y2="256.62" stroke="#1c5fb8" stroke-width="2.4"/>
<text x="704.25" y="244.63" text-anchor="middle" font-family="Arial" font-size="10" fill="#123e7d">6-7 X 1.0 mm</text>
</g>
</svg>
