%TF.GenerationSoftware,KiCad,Pcbnew,10.0.3*%
%TF.CreationDate,2026-08-20T07:58:23+09:00*%
%TF.ProjectId,kc2_x3_v2_switch_coupon,6b63325f-7833-45f7-9632-5f7377697463,coupon-1*%
%TF.SameCoordinates,Original*%
%TF.FileFunction,Drillmap*%
%TF.FilePolarity,Positive*%
%FSLAX45Y45*%
G04 Gerber Fmt 4.5, Leading zero omitted, Abs format (unit mm)*
G04 Created by KiCad (PCBNEW 10.0.3) date 2026-08-20 07:58:23*
%MOMM*%
%LPD*%
G01*
G04 APERTURE LIST*
%ADD10C,0.100000*%
%ADD11C,0.200000*%
%ADD12C,0.165000*%
%ADD13C,0.170000*%
%ADD14C,0.300000*%
%ADD15C,0.500000*%
G04 APERTURE END LIST*
D10*
X1500000Y-2400000D02*
X7900000Y-2400000D01*
X1500000Y-5600000D02*
X1500000Y-2400000D01*
X7900000Y-2400000D02*
X7900000Y-5600000D01*
X7900000Y-5600000D02*
X1500000Y-5600000D01*
D11*
D12*
X3217500Y-3402500D02*
X3382500Y-3567500D01*
X3382500Y-3402500D02*
X3217500Y-3567500D01*
X5122500Y-3402500D02*
X5287500Y-3567500D01*
X5287500Y-3402500D02*
X5122500Y-3567500D01*
X6027500Y-4432500D02*
X6192500Y-4597500D01*
X6192500Y-4432500D02*
X6027500Y-4597500D01*
D13*
X2377000Y-4000000D02*
G75*
G02*
X2207000Y-4000000I-85000J0D01*
G01*
X2207000Y-4000000D02*
G75*
G02*
X2377000Y-4000000I85000J0D01*
G01*
X3393000Y-4000000D02*
G75*
G02*
X3223000Y-4000000I-85000J0D01*
G01*
X3223000Y-4000000D02*
G75*
G02*
X3393000Y-4000000I85000J0D01*
G01*
X4282000Y-4000000D02*
G75*
G02*
X4112000Y-4000000I-85000J0D01*
G01*
X4112000Y-4000000D02*
G75*
G02*
X4282000Y-4000000I85000J0D01*
G01*
X5298000Y-4000000D02*
G75*
G02*
X5128000Y-4000000I-85000J0D01*
G01*
X5128000Y-4000000D02*
G75*
G02*
X5298000Y-4000000I85000J0D01*
G01*
X6187000Y-4000000D02*
G75*
G02*
X6017000Y-4000000I-85000J0D01*
G01*
X6017000Y-4000000D02*
G75*
G02*
X6187000Y-4000000I85000J0D01*
G01*
X7203000Y-4000000D02*
G75*
G02*
X7033000Y-4000000I-85000J0D01*
G01*
X7033000Y-4000000D02*
G75*
G02*
X7203000Y-4000000I85000J0D01*
G01*
D14*
X2300000Y-4230000D02*
X2300000Y-4530000D01*
X2150000Y-4380000D02*
X2450000Y-4380000D01*
X2800000Y-4440000D02*
X2800000Y-4740000D01*
X2650000Y-4590000D02*
X2950000Y-4590000D01*
X4205000Y-4230000D02*
X4205000Y-4530000D01*
X4055000Y-4380000D02*
X4355000Y-4380000D01*
X4705000Y-4440000D02*
X4705000Y-4740000D01*
X4555000Y-4590000D02*
X4855000Y-4590000D01*
X6610000Y-3260000D02*
X6610000Y-3560000D01*
X6460000Y-3410000D02*
X6760000Y-3410000D01*
X7110000Y-3470000D02*
X7110000Y-3770000D01*
X6960000Y-3620000D02*
X7260000Y-3620000D01*
D15*
X2976778Y-4176778D02*
X2976778Y-3823222D01*
X2623222Y-3823222D01*
X2623222Y-4176778D01*
X2976778Y-4176778D01*
X4881778Y-4176778D02*
X4881778Y-3823222D01*
X4528222Y-3823222D01*
X4528222Y-4176778D01*
X4881778Y-4176778D01*
X6786778Y-4176778D02*
X6786778Y-3823222D01*
X6433221Y-3823222D01*
X6433221Y-4176778D01*
X6786778Y-4176778D01*
D11*
X1755777Y-5916484D02*
X1755777Y-5716484D01*
X1755777Y-5716484D02*
X1803396Y-5716484D01*
X1803396Y-5716484D02*
X1831967Y-5726008D01*
X1831967Y-5726008D02*
X1851015Y-5745055D01*
X1851015Y-5745055D02*
X1860539Y-5764103D01*
X1860539Y-5764103D02*
X1870062Y-5802198D01*
X1870062Y-5802198D02*
X1870062Y-5830769D01*
X1870062Y-5830769D02*
X1860539Y-5868865D01*
X1860539Y-5868865D02*
X1851015Y-5887912D01*
X1851015Y-5887912D02*
X1831967Y-5906960D01*
X1831967Y-5906960D02*
X1803396Y-5916484D01*
X1803396Y-5916484D02*
X1755777Y-5916484D01*
X1955777Y-5916484D02*
X1955777Y-5783150D01*
X1955777Y-5821246D02*
X1965301Y-5802198D01*
X1965301Y-5802198D02*
X1974824Y-5792674D01*
X1974824Y-5792674D02*
X1993872Y-5783150D01*
X1993872Y-5783150D02*
X2012920Y-5783150D01*
X2079586Y-5916484D02*
X2079586Y-5783150D01*
X2079586Y-5716484D02*
X2070062Y-5726008D01*
X2070062Y-5726008D02*
X2079586Y-5735531D01*
X2079586Y-5735531D02*
X2089110Y-5726008D01*
X2089110Y-5726008D02*
X2079586Y-5716484D01*
X2079586Y-5716484D02*
X2079586Y-5735531D01*
X2203396Y-5916484D02*
X2184348Y-5906960D01*
X2184348Y-5906960D02*
X2174824Y-5887912D01*
X2174824Y-5887912D02*
X2174824Y-5716484D01*
X2308158Y-5916484D02*
X2289110Y-5906960D01*
X2289110Y-5906960D02*
X2279586Y-5887912D01*
X2279586Y-5887912D02*
X2279586Y-5716484D01*
X2536729Y-5916484D02*
X2536729Y-5716484D01*
X2536729Y-5716484D02*
X2603396Y-5859341D01*
X2603396Y-5859341D02*
X2670063Y-5716484D01*
X2670063Y-5716484D02*
X2670063Y-5916484D01*
X2851015Y-5916484D02*
X2851015Y-5811722D01*
X2851015Y-5811722D02*
X2841491Y-5792674D01*
X2841491Y-5792674D02*
X2822443Y-5783150D01*
X2822443Y-5783150D02*
X2784348Y-5783150D01*
X2784348Y-5783150D02*
X2765301Y-5792674D01*
X2851015Y-5906960D02*
X2831967Y-5916484D01*
X2831967Y-5916484D02*
X2784348Y-5916484D01*
X2784348Y-5916484D02*
X2765301Y-5906960D01*
X2765301Y-5906960D02*
X2755777Y-5887912D01*
X2755777Y-5887912D02*
X2755777Y-5868865D01*
X2755777Y-5868865D02*
X2765301Y-5849817D01*
X2765301Y-5849817D02*
X2784348Y-5840293D01*
X2784348Y-5840293D02*
X2831967Y-5840293D01*
X2831967Y-5840293D02*
X2851015Y-5830769D01*
X2946253Y-5783150D02*
X2946253Y-5983150D01*
X2946253Y-5792674D02*
X2965301Y-5783150D01*
X2965301Y-5783150D02*
X3003396Y-5783150D01*
X3003396Y-5783150D02*
X3022443Y-5792674D01*
X3022443Y-5792674D02*
X3031967Y-5802198D01*
X3031967Y-5802198D02*
X3041491Y-5821246D01*
X3041491Y-5821246D02*
X3041491Y-5878388D01*
X3041491Y-5878388D02*
X3031967Y-5897436D01*
X3031967Y-5897436D02*
X3022443Y-5906960D01*
X3022443Y-5906960D02*
X3003396Y-5916484D01*
X3003396Y-5916484D02*
X2965301Y-5916484D01*
X2965301Y-5916484D02*
X2946253Y-5906960D01*
X3127205Y-5897436D02*
X3136729Y-5906960D01*
X3136729Y-5906960D02*
X3127205Y-5916484D01*
X3127205Y-5916484D02*
X3117682Y-5906960D01*
X3117682Y-5906960D02*
X3127205Y-5897436D01*
X3127205Y-5897436D02*
X3127205Y-5916484D01*
X3127205Y-5792674D02*
X3136729Y-5802198D01*
X3136729Y-5802198D02*
X3127205Y-5811722D01*
X3127205Y-5811722D02*
X3117682Y-5802198D01*
X3117682Y-5802198D02*
X3127205Y-5792674D01*
X3127205Y-5792674D02*
X3127205Y-5811722D01*
D12*
X1330000Y-6162500D02*
X1495000Y-6327500D01*
X1495000Y-6162500D02*
X1330000Y-6327500D01*
D11*
X1860539Y-6336484D02*
X1746253Y-6336484D01*
X1803396Y-6336484D02*
X1803396Y-6136484D01*
X1803396Y-6136484D02*
X1784348Y-6165055D01*
X1784348Y-6165055D02*
X1765301Y-6184103D01*
X1765301Y-6184103D02*
X1746253Y-6193627D01*
X1946253Y-6317436D02*
X1955777Y-6326960D01*
X1955777Y-6326960D02*
X1946253Y-6336484D01*
X1946253Y-6336484D02*
X1936729Y-6326960D01*
X1936729Y-6326960D02*
X1946253Y-6317436D01*
X1946253Y-6317436D02*
X1946253Y-6336484D01*
X2127205Y-6136484D02*
X2089110Y-6136484D01*
X2089110Y-6136484D02*
X2070062Y-6146008D01*
X2070062Y-6146008D02*
X2060539Y-6155531D01*
X2060539Y-6155531D02*
X2041491Y-6184103D01*
X2041491Y-6184103D02*
X2031967Y-6222198D01*
X2031967Y-6222198D02*
X2031967Y-6298388D01*
X2031967Y-6298388D02*
X2041491Y-6317436D01*
X2041491Y-6317436D02*
X2051015Y-6326960D01*
X2051015Y-6326960D02*
X2070062Y-6336484D01*
X2070062Y-6336484D02*
X2108158Y-6336484D01*
X2108158Y-6336484D02*
X2127205Y-6326960D01*
X2127205Y-6326960D02*
X2136729Y-6317436D01*
X2136729Y-6317436D02*
X2146253Y-6298388D01*
X2146253Y-6298388D02*
X2146253Y-6250769D01*
X2146253Y-6250769D02*
X2136729Y-6231722D01*
X2136729Y-6231722D02*
X2127205Y-6222198D01*
X2127205Y-6222198D02*
X2108158Y-6212674D01*
X2108158Y-6212674D02*
X2070062Y-6212674D01*
X2070062Y-6212674D02*
X2051015Y-6222198D01*
X2051015Y-6222198D02*
X2041491Y-6231722D01*
X2041491Y-6231722D02*
X2031967Y-6250769D01*
X2327205Y-6136484D02*
X2231967Y-6136484D01*
X2231967Y-6136484D02*
X2222444Y-6231722D01*
X2222444Y-6231722D02*
X2231967Y-6222198D01*
X2231967Y-6222198D02*
X2251015Y-6212674D01*
X2251015Y-6212674D02*
X2298634Y-6212674D01*
X2298634Y-6212674D02*
X2317682Y-6222198D01*
X2317682Y-6222198D02*
X2327205Y-6231722D01*
X2327205Y-6231722D02*
X2336729Y-6250769D01*
X2336729Y-6250769D02*
X2336729Y-6298388D01*
X2336729Y-6298388D02*
X2327205Y-6317436D01*
X2327205Y-6317436D02*
X2317682Y-6326960D01*
X2317682Y-6326960D02*
X2298634Y-6336484D01*
X2298634Y-6336484D02*
X2251015Y-6336484D01*
X2251015Y-6336484D02*
X2231967Y-6326960D01*
X2231967Y-6326960D02*
X2222444Y-6317436D01*
X2460539Y-6136484D02*
X2479586Y-6136484D01*
X2479586Y-6136484D02*
X2498634Y-6146008D01*
X2498634Y-6146008D02*
X2508158Y-6155531D01*
X2508158Y-6155531D02*
X2517682Y-6174579D01*
X2517682Y-6174579D02*
X2527205Y-6212674D01*
X2527205Y-6212674D02*
X2527205Y-6260293D01*
X2527205Y-6260293D02*
X2517682Y-6298388D01*
X2517682Y-6298388D02*
X2508158Y-6317436D01*
X2508158Y-6317436D02*
X2498634Y-6326960D01*
X2498634Y-6326960D02*
X2479586Y-6336484D01*
X2479586Y-6336484D02*
X2460539Y-6336484D01*
X2460539Y-6336484D02*
X2441491Y-6326960D01*
X2441491Y-6326960D02*
X2431967Y-6317436D01*
X2431967Y-6317436D02*
X2422444Y-6298388D01*
X2422444Y-6298388D02*
X2412920Y-6260293D01*
X2412920Y-6260293D02*
X2412920Y-6212674D01*
X2412920Y-6212674D02*
X2422444Y-6174579D01*
X2422444Y-6174579D02*
X2431967Y-6155531D01*
X2431967Y-6155531D02*
X2441491Y-6146008D01*
X2441491Y-6146008D02*
X2460539Y-6136484D01*
X2612920Y-6336484D02*
X2612920Y-6203150D01*
X2612920Y-6222198D02*
X2622444Y-6212674D01*
X2622444Y-6212674D02*
X2641491Y-6203150D01*
X2641491Y-6203150D02*
X2670063Y-6203150D01*
X2670063Y-6203150D02*
X2689110Y-6212674D01*
X2689110Y-6212674D02*
X2698634Y-6231722D01*
X2698634Y-6231722D02*
X2698634Y-6336484D01*
X2698634Y-6231722D02*
X2708158Y-6212674D01*
X2708158Y-6212674D02*
X2727205Y-6203150D01*
X2727205Y-6203150D02*
X2755777Y-6203150D01*
X2755777Y-6203150D02*
X2774825Y-6212674D01*
X2774825Y-6212674D02*
X2784348Y-6231722D01*
X2784348Y-6231722D02*
X2784348Y-6336484D01*
X2879586Y-6336484D02*
X2879586Y-6203150D01*
X2879586Y-6222198D02*
X2889110Y-6212674D01*
X2889110Y-6212674D02*
X2908158Y-6203150D01*
X2908158Y-6203150D02*
X2936729Y-6203150D01*
X2936729Y-6203150D02*
X2955777Y-6212674D01*
X2955777Y-6212674D02*
X2965301Y-6231722D01*
X2965301Y-6231722D02*
X2965301Y-6336484D01*
X2965301Y-6231722D02*
X2974824Y-6212674D01*
X2974824Y-6212674D02*
X2993872Y-6203150D01*
X2993872Y-6203150D02*
X3022443Y-6203150D01*
X3022443Y-6203150D02*
X3041491Y-6212674D01*
X3041491Y-6212674D02*
X3051015Y-6231722D01*
X3051015Y-6231722D02*
X3051015Y-6336484D01*
X3441491Y-6126960D02*
X3270063Y-6384103D01*
X3698634Y-6136484D02*
X3717682Y-6136484D01*
X3717682Y-6136484D02*
X3736729Y-6146008D01*
X3736729Y-6146008D02*
X3746253Y-6155531D01*
X3746253Y-6155531D02*
X3755777Y-6174579D01*
X3755777Y-6174579D02*
X3765301Y-6212674D01*
X3765301Y-6212674D02*
X3765301Y-6260293D01*
X3765301Y-6260293D02*
X3755777Y-6298388D01*
X3755777Y-6298388D02*
X3746253Y-6317436D01*
X3746253Y-6317436D02*
X3736729Y-6326960D01*
X3736729Y-6326960D02*
X3717682Y-6336484D01*
X3717682Y-6336484D02*
X3698634Y-6336484D01*
X3698634Y-6336484D02*
X3679586Y-6326960D01*
X3679586Y-6326960D02*
X3670063Y-6317436D01*
X3670063Y-6317436D02*
X3660539Y-6298388D01*
X3660539Y-6298388D02*
X3651015Y-6260293D01*
X3651015Y-6260293D02*
X3651015Y-6212674D01*
X3651015Y-6212674D02*
X3660539Y-6174579D01*
X3660539Y-6174579D02*
X3670063Y-6155531D01*
X3670063Y-6155531D02*
X3679586Y-6146008D01*
X3679586Y-6146008D02*
X3698634Y-6136484D01*
X3851015Y-6317436D02*
X3860539Y-6326960D01*
X3860539Y-6326960D02*
X3851015Y-6336484D01*
X3851015Y-6336484D02*
X3841491Y-6326960D01*
X3841491Y-6326960D02*
X3851015Y-6317436D01*
X3851015Y-6317436D02*
X3851015Y-6336484D01*
X3984348Y-6136484D02*
X4003396Y-6136484D01*
X4003396Y-6136484D02*
X4022444Y-6146008D01*
X4022444Y-6146008D02*
X4031967Y-6155531D01*
X4031967Y-6155531D02*
X4041491Y-6174579D01*
X4041491Y-6174579D02*
X4051015Y-6212674D01*
X4051015Y-6212674D02*
X4051015Y-6260293D01*
X4051015Y-6260293D02*
X4041491Y-6298388D01*
X4041491Y-6298388D02*
X4031967Y-6317436D01*
X4031967Y-6317436D02*
X4022444Y-6326960D01*
X4022444Y-6326960D02*
X4003396Y-6336484D01*
X4003396Y-6336484D02*
X3984348Y-6336484D01*
X3984348Y-6336484D02*
X3965301Y-6326960D01*
X3965301Y-6326960D02*
X3955777Y-6317436D01*
X3955777Y-6317436D02*
X3946253Y-6298388D01*
X3946253Y-6298388D02*
X3936729Y-6260293D01*
X3936729Y-6260293D02*
X3936729Y-6212674D01*
X3936729Y-6212674D02*
X3946253Y-6174579D01*
X3946253Y-6174579D02*
X3955777Y-6155531D01*
X3955777Y-6155531D02*
X3965301Y-6146008D01*
X3965301Y-6146008D02*
X3984348Y-6136484D01*
X4222444Y-6136484D02*
X4184348Y-6136484D01*
X4184348Y-6136484D02*
X4165301Y-6146008D01*
X4165301Y-6146008D02*
X4155777Y-6155531D01*
X4155777Y-6155531D02*
X4136729Y-6184103D01*
X4136729Y-6184103D02*
X4127206Y-6222198D01*
X4127206Y-6222198D02*
X4127206Y-6298388D01*
X4127206Y-6298388D02*
X4136729Y-6317436D01*
X4136729Y-6317436D02*
X4146253Y-6326960D01*
X4146253Y-6326960D02*
X4165301Y-6336484D01*
X4165301Y-6336484D02*
X4203396Y-6336484D01*
X4203396Y-6336484D02*
X4222444Y-6326960D01*
X4222444Y-6326960D02*
X4231968Y-6317436D01*
X4231968Y-6317436D02*
X4241491Y-6298388D01*
X4241491Y-6298388D02*
X4241491Y-6250769D01*
X4241491Y-6250769D02*
X4231968Y-6231722D01*
X4231968Y-6231722D02*
X4222444Y-6222198D01*
X4222444Y-6222198D02*
X4203396Y-6212674D01*
X4203396Y-6212674D02*
X4165301Y-6212674D01*
X4165301Y-6212674D02*
X4146253Y-6222198D01*
X4146253Y-6222198D02*
X4136729Y-6231722D01*
X4136729Y-6231722D02*
X4127206Y-6250769D01*
X4422444Y-6136484D02*
X4327206Y-6136484D01*
X4327206Y-6136484D02*
X4317682Y-6231722D01*
X4317682Y-6231722D02*
X4327206Y-6222198D01*
X4327206Y-6222198D02*
X4346253Y-6212674D01*
X4346253Y-6212674D02*
X4393872Y-6212674D01*
X4393872Y-6212674D02*
X4412920Y-6222198D01*
X4412920Y-6222198D02*
X4422444Y-6231722D01*
X4422444Y-6231722D02*
X4431968Y-6250769D01*
X4431968Y-6250769D02*
X4431968Y-6298388D01*
X4431968Y-6298388D02*
X4422444Y-6317436D01*
X4422444Y-6317436D02*
X4412920Y-6326960D01*
X4412920Y-6326960D02*
X4393872Y-6336484D01*
X4393872Y-6336484D02*
X4346253Y-6336484D01*
X4346253Y-6336484D02*
X4327206Y-6326960D01*
X4327206Y-6326960D02*
X4317682Y-6317436D01*
X4555777Y-6136484D02*
X4574825Y-6136484D01*
X4574825Y-6136484D02*
X4593872Y-6146008D01*
X4593872Y-6146008D02*
X4603396Y-6155531D01*
X4603396Y-6155531D02*
X4612920Y-6174579D01*
X4612920Y-6174579D02*
X4622444Y-6212674D01*
X4622444Y-6212674D02*
X4622444Y-6260293D01*
X4622444Y-6260293D02*
X4612920Y-6298388D01*
X4612920Y-6298388D02*
X4603396Y-6317436D01*
X4603396Y-6317436D02*
X4593872Y-6326960D01*
X4593872Y-6326960D02*
X4574825Y-6336484D01*
X4574825Y-6336484D02*
X4555777Y-6336484D01*
X4555777Y-6336484D02*
X4536729Y-6326960D01*
X4536729Y-6326960D02*
X4527206Y-6317436D01*
X4527206Y-6317436D02*
X4517682Y-6298388D01*
X4517682Y-6298388D02*
X4508158Y-6260293D01*
X4508158Y-6260293D02*
X4508158Y-6212674D01*
X4508158Y-6212674D02*
X4517682Y-6174579D01*
X4517682Y-6174579D02*
X4527206Y-6155531D01*
X4527206Y-6155531D02*
X4536729Y-6146008D01*
X4536729Y-6146008D02*
X4555777Y-6136484D01*
X4698634Y-6136484D02*
X4698634Y-6174579D01*
X4774825Y-6136484D02*
X4774825Y-6174579D01*
X5070063Y-6412674D02*
X5060539Y-6403150D01*
X5060539Y-6403150D02*
X5041491Y-6374579D01*
X5041491Y-6374579D02*
X5031968Y-6355531D01*
X5031968Y-6355531D02*
X5022444Y-6326960D01*
X5022444Y-6326960D02*
X5012920Y-6279341D01*
X5012920Y-6279341D02*
X5012920Y-6241246D01*
X5012920Y-6241246D02*
X5022444Y-6193627D01*
X5022444Y-6193627D02*
X5031968Y-6165055D01*
X5031968Y-6165055D02*
X5041491Y-6146008D01*
X5041491Y-6146008D02*
X5060539Y-6117436D01*
X5060539Y-6117436D02*
X5070063Y-6107912D01*
X5127206Y-6136484D02*
X5251015Y-6136484D01*
X5251015Y-6136484D02*
X5184349Y-6212674D01*
X5184349Y-6212674D02*
X5212920Y-6212674D01*
X5212920Y-6212674D02*
X5231968Y-6222198D01*
X5231968Y-6222198D02*
X5241491Y-6231722D01*
X5241491Y-6231722D02*
X5251015Y-6250769D01*
X5251015Y-6250769D02*
X5251015Y-6298388D01*
X5251015Y-6298388D02*
X5241491Y-6317436D01*
X5241491Y-6317436D02*
X5231968Y-6326960D01*
X5231968Y-6326960D02*
X5212920Y-6336484D01*
X5212920Y-6336484D02*
X5155777Y-6336484D01*
X5155777Y-6336484D02*
X5136730Y-6326960D01*
X5136730Y-6326960D02*
X5127206Y-6317436D01*
X5489111Y-6336484D02*
X5489111Y-6136484D01*
X5574825Y-6336484D02*
X5574825Y-6231722D01*
X5574825Y-6231722D02*
X5565301Y-6212674D01*
X5565301Y-6212674D02*
X5546253Y-6203150D01*
X5546253Y-6203150D02*
X5517682Y-6203150D01*
X5517682Y-6203150D02*
X5498634Y-6212674D01*
X5498634Y-6212674D02*
X5489111Y-6222198D01*
X5698634Y-6336484D02*
X5679587Y-6326960D01*
X5679587Y-6326960D02*
X5670063Y-6317436D01*
X5670063Y-6317436D02*
X5660539Y-6298388D01*
X5660539Y-6298388D02*
X5660539Y-6241246D01*
X5660539Y-6241246D02*
X5670063Y-6222198D01*
X5670063Y-6222198D02*
X5679587Y-6212674D01*
X5679587Y-6212674D02*
X5698634Y-6203150D01*
X5698634Y-6203150D02*
X5727206Y-6203150D01*
X5727206Y-6203150D02*
X5746253Y-6212674D01*
X5746253Y-6212674D02*
X5755777Y-6222198D01*
X5755777Y-6222198D02*
X5765301Y-6241246D01*
X5765301Y-6241246D02*
X5765301Y-6298388D01*
X5765301Y-6298388D02*
X5755777Y-6317436D01*
X5755777Y-6317436D02*
X5746253Y-6326960D01*
X5746253Y-6326960D02*
X5727206Y-6336484D01*
X5727206Y-6336484D02*
X5698634Y-6336484D01*
X5879587Y-6336484D02*
X5860539Y-6326960D01*
X5860539Y-6326960D02*
X5851015Y-6307912D01*
X5851015Y-6307912D02*
X5851015Y-6136484D01*
X6031968Y-6326960D02*
X6012920Y-6336484D01*
X6012920Y-6336484D02*
X5974825Y-6336484D01*
X5974825Y-6336484D02*
X5955777Y-6326960D01*
X5955777Y-6326960D02*
X5946253Y-6307912D01*
X5946253Y-6307912D02*
X5946253Y-6231722D01*
X5946253Y-6231722D02*
X5955777Y-6212674D01*
X5955777Y-6212674D02*
X5974825Y-6203150D01*
X5974825Y-6203150D02*
X6012920Y-6203150D01*
X6012920Y-6203150D02*
X6031968Y-6212674D01*
X6031968Y-6212674D02*
X6041491Y-6231722D01*
X6041491Y-6231722D02*
X6041491Y-6250769D01*
X6041491Y-6250769D02*
X5946253Y-6269817D01*
X6117682Y-6326960D02*
X6136730Y-6336484D01*
X6136730Y-6336484D02*
X6174825Y-6336484D01*
X6174825Y-6336484D02*
X6193872Y-6326960D01*
X6193872Y-6326960D02*
X6203396Y-6307912D01*
X6203396Y-6307912D02*
X6203396Y-6298388D01*
X6203396Y-6298388D02*
X6193872Y-6279341D01*
X6193872Y-6279341D02*
X6174825Y-6269817D01*
X6174825Y-6269817D02*
X6146253Y-6269817D01*
X6146253Y-6269817D02*
X6127206Y-6260293D01*
X6127206Y-6260293D02*
X6117682Y-6241246D01*
X6117682Y-6241246D02*
X6117682Y-6231722D01*
X6117682Y-6231722D02*
X6127206Y-6212674D01*
X6127206Y-6212674D02*
X6146253Y-6203150D01*
X6146253Y-6203150D02*
X6174825Y-6203150D01*
X6174825Y-6203150D02*
X6193872Y-6212674D01*
X6270063Y-6412674D02*
X6279587Y-6403150D01*
X6279587Y-6403150D02*
X6298634Y-6374579D01*
X6298634Y-6374579D02*
X6308158Y-6355531D01*
X6308158Y-6355531D02*
X6317682Y-6326960D01*
X6317682Y-6326960D02*
X6327206Y-6279341D01*
X6327206Y-6279341D02*
X6327206Y-6241246D01*
X6327206Y-6241246D02*
X6317682Y-6193627D01*
X6317682Y-6193627D02*
X6308158Y-6165055D01*
X6308158Y-6165055D02*
X6298634Y-6146008D01*
X6298634Y-6146008D02*
X6279587Y-6117436D01*
X6279587Y-6117436D02*
X6270063Y-6107912D01*
X6631968Y-6412674D02*
X6622444Y-6403150D01*
X6622444Y-6403150D02*
X6603396Y-6374579D01*
X6603396Y-6374579D02*
X6593872Y-6355531D01*
X6593872Y-6355531D02*
X6584349Y-6326960D01*
X6584349Y-6326960D02*
X6574825Y-6279341D01*
X6574825Y-6279341D02*
X6574825Y-6241246D01*
X6574825Y-6241246D02*
X6584349Y-6193627D01*
X6584349Y-6193627D02*
X6593872Y-6165055D01*
X6593872Y-6165055D02*
X6603396Y-6146008D01*
X6603396Y-6146008D02*
X6622444Y-6117436D01*
X6622444Y-6117436D02*
X6631968Y-6107912D01*
X6708158Y-6203150D02*
X6708158Y-6336484D01*
X6708158Y-6222198D02*
X6717682Y-6212674D01*
X6717682Y-6212674D02*
X6736730Y-6203150D01*
X6736730Y-6203150D02*
X6765301Y-6203150D01*
X6765301Y-6203150D02*
X6784349Y-6212674D01*
X6784349Y-6212674D02*
X6793872Y-6231722D01*
X6793872Y-6231722D02*
X6793872Y-6336484D01*
X6917682Y-6336484D02*
X6898634Y-6326960D01*
X6898634Y-6326960D02*
X6889111Y-6317436D01*
X6889111Y-6317436D02*
X6879587Y-6298388D01*
X6879587Y-6298388D02*
X6879587Y-6241246D01*
X6879587Y-6241246D02*
X6889111Y-6222198D01*
X6889111Y-6222198D02*
X6898634Y-6212674D01*
X6898634Y-6212674D02*
X6917682Y-6203150D01*
X6917682Y-6203150D02*
X6946253Y-6203150D01*
X6946253Y-6203150D02*
X6965301Y-6212674D01*
X6965301Y-6212674D02*
X6974825Y-6222198D01*
X6974825Y-6222198D02*
X6984349Y-6241246D01*
X6984349Y-6241246D02*
X6984349Y-6298388D01*
X6984349Y-6298388D02*
X6974825Y-6317436D01*
X6974825Y-6317436D02*
X6965301Y-6326960D01*
X6965301Y-6326960D02*
X6946253Y-6336484D01*
X6946253Y-6336484D02*
X6917682Y-6336484D01*
X7041492Y-6203150D02*
X7117682Y-6203150D01*
X7070063Y-6136484D02*
X7070063Y-6307912D01*
X7070063Y-6307912D02*
X7079587Y-6326960D01*
X7079587Y-6326960D02*
X7098634Y-6336484D01*
X7098634Y-6336484D02*
X7117682Y-6336484D01*
X7336730Y-6203150D02*
X7336730Y-6403150D01*
X7336730Y-6212674D02*
X7355777Y-6203150D01*
X7355777Y-6203150D02*
X7393873Y-6203150D01*
X7393873Y-6203150D02*
X7412920Y-6212674D01*
X7412920Y-6212674D02*
X7422444Y-6222198D01*
X7422444Y-6222198D02*
X7431968Y-6241246D01*
X7431968Y-6241246D02*
X7431968Y-6298388D01*
X7431968Y-6298388D02*
X7422444Y-6317436D01*
X7422444Y-6317436D02*
X7412920Y-6326960D01*
X7412920Y-6326960D02*
X7393873Y-6336484D01*
X7393873Y-6336484D02*
X7355777Y-6336484D01*
X7355777Y-6336484D02*
X7336730Y-6326960D01*
X7546253Y-6336484D02*
X7527206Y-6326960D01*
X7527206Y-6326960D02*
X7517682Y-6307912D01*
X7517682Y-6307912D02*
X7517682Y-6136484D01*
X7708158Y-6336484D02*
X7708158Y-6231722D01*
X7708158Y-6231722D02*
X7698634Y-6212674D01*
X7698634Y-6212674D02*
X7679587Y-6203150D01*
X7679587Y-6203150D02*
X7641492Y-6203150D01*
X7641492Y-6203150D02*
X7622444Y-6212674D01*
X7708158Y-6326960D02*
X7689111Y-6336484D01*
X7689111Y-6336484D02*
X7641492Y-6336484D01*
X7641492Y-6336484D02*
X7622444Y-6326960D01*
X7622444Y-6326960D02*
X7612920Y-6307912D01*
X7612920Y-6307912D02*
X7612920Y-6288865D01*
X7612920Y-6288865D02*
X7622444Y-6269817D01*
X7622444Y-6269817D02*
X7641492Y-6260293D01*
X7641492Y-6260293D02*
X7689111Y-6260293D01*
X7689111Y-6260293D02*
X7708158Y-6250769D01*
X7774825Y-6203150D02*
X7851015Y-6203150D01*
X7803396Y-6136484D02*
X7803396Y-6307912D01*
X7803396Y-6307912D02*
X7812920Y-6326960D01*
X7812920Y-6326960D02*
X7831968Y-6336484D01*
X7831968Y-6336484D02*
X7851015Y-6336484D01*
X7993873Y-6326960D02*
X7974825Y-6336484D01*
X7974825Y-6336484D02*
X7936730Y-6336484D01*
X7936730Y-6336484D02*
X7917682Y-6326960D01*
X7917682Y-6326960D02*
X7908158Y-6307912D01*
X7908158Y-6307912D02*
X7908158Y-6231722D01*
X7908158Y-6231722D02*
X7917682Y-6212674D01*
X7917682Y-6212674D02*
X7936730Y-6203150D01*
X7936730Y-6203150D02*
X7974825Y-6203150D01*
X7974825Y-6203150D02*
X7993873Y-6212674D01*
X7993873Y-6212674D02*
X8003396Y-6231722D01*
X8003396Y-6231722D02*
X8003396Y-6250769D01*
X8003396Y-6250769D02*
X7908158Y-6269817D01*
X8174825Y-6336484D02*
X8174825Y-6136484D01*
X8174825Y-6326960D02*
X8155777Y-6336484D01*
X8155777Y-6336484D02*
X8117682Y-6336484D01*
X8117682Y-6336484D02*
X8098634Y-6326960D01*
X8098634Y-6326960D02*
X8089111Y-6317436D01*
X8089111Y-6317436D02*
X8079587Y-6298388D01*
X8079587Y-6298388D02*
X8079587Y-6241246D01*
X8079587Y-6241246D02*
X8089111Y-6222198D01*
X8089111Y-6222198D02*
X8098634Y-6212674D01*
X8098634Y-6212674D02*
X8117682Y-6203150D01*
X8117682Y-6203150D02*
X8155777Y-6203150D01*
X8155777Y-6203150D02*
X8174825Y-6212674D01*
X8251015Y-6412674D02*
X8260539Y-6403150D01*
X8260539Y-6403150D02*
X8279587Y-6374579D01*
X8279587Y-6374579D02*
X8289111Y-6355531D01*
X8289111Y-6355531D02*
X8298634Y-6326960D01*
X8298634Y-6326960D02*
X8308158Y-6279341D01*
X8308158Y-6279341D02*
X8308158Y-6241246D01*
X8308158Y-6241246D02*
X8298634Y-6193627D01*
X8298634Y-6193627D02*
X8289111Y-6165055D01*
X8289111Y-6165055D02*
X8279587Y-6146008D01*
X8279587Y-6146008D02*
X8260539Y-6117436D01*
X8260539Y-6117436D02*
X8251015Y-6107912D01*
D13*
X1495000Y-6530000D02*
G75*
G02*
X1325000Y-6530000I-85000J0D01*
G01*
X1325000Y-6530000D02*
G75*
G02*
X1495000Y-6530000I85000J0D01*
G01*
D11*
X1860539Y-6621484D02*
X1746253Y-6621484D01*
X1803396Y-6621484D02*
X1803396Y-6421484D01*
X1803396Y-6421484D02*
X1784348Y-6450055D01*
X1784348Y-6450055D02*
X1765301Y-6469103D01*
X1765301Y-6469103D02*
X1746253Y-6478627D01*
X1946253Y-6602436D02*
X1955777Y-6611960D01*
X1955777Y-6611960D02*
X1946253Y-6621484D01*
X1946253Y-6621484D02*
X1936729Y-6611960D01*
X1936729Y-6611960D02*
X1946253Y-6602436D01*
X1946253Y-6602436D02*
X1946253Y-6621484D01*
X2022443Y-6421484D02*
X2155777Y-6421484D01*
X2155777Y-6421484D02*
X2070062Y-6621484D01*
X2270063Y-6421484D02*
X2289110Y-6421484D01*
X2289110Y-6421484D02*
X2308158Y-6431008D01*
X2308158Y-6431008D02*
X2317682Y-6440531D01*
X2317682Y-6440531D02*
X2327205Y-6459579D01*
X2327205Y-6459579D02*
X2336729Y-6497674D01*
X2336729Y-6497674D02*
X2336729Y-6545293D01*
X2336729Y-6545293D02*
X2327205Y-6583388D01*
X2327205Y-6583388D02*
X2317682Y-6602436D01*
X2317682Y-6602436D02*
X2308158Y-6611960D01*
X2308158Y-6611960D02*
X2289110Y-6621484D01*
X2289110Y-6621484D02*
X2270063Y-6621484D01*
X2270063Y-6621484D02*
X2251015Y-6611960D01*
X2251015Y-6611960D02*
X2241491Y-6602436D01*
X2241491Y-6602436D02*
X2231967Y-6583388D01*
X2231967Y-6583388D02*
X2222444Y-6545293D01*
X2222444Y-6545293D02*
X2222444Y-6497674D01*
X2222444Y-6497674D02*
X2231967Y-6459579D01*
X2231967Y-6459579D02*
X2241491Y-6440531D01*
X2241491Y-6440531D02*
X2251015Y-6431008D01*
X2251015Y-6431008D02*
X2270063Y-6421484D01*
X2460539Y-6421484D02*
X2479586Y-6421484D01*
X2479586Y-6421484D02*
X2498634Y-6431008D01*
X2498634Y-6431008D02*
X2508158Y-6440531D01*
X2508158Y-6440531D02*
X2517682Y-6459579D01*
X2517682Y-6459579D02*
X2527205Y-6497674D01*
X2527205Y-6497674D02*
X2527205Y-6545293D01*
X2527205Y-6545293D02*
X2517682Y-6583388D01*
X2517682Y-6583388D02*
X2508158Y-6602436D01*
X2508158Y-6602436D02*
X2498634Y-6611960D01*
X2498634Y-6611960D02*
X2479586Y-6621484D01*
X2479586Y-6621484D02*
X2460539Y-6621484D01*
X2460539Y-6621484D02*
X2441491Y-6611960D01*
X2441491Y-6611960D02*
X2431967Y-6602436D01*
X2431967Y-6602436D02*
X2422444Y-6583388D01*
X2422444Y-6583388D02*
X2412920Y-6545293D01*
X2412920Y-6545293D02*
X2412920Y-6497674D01*
X2412920Y-6497674D02*
X2422444Y-6459579D01*
X2422444Y-6459579D02*
X2431967Y-6440531D01*
X2431967Y-6440531D02*
X2441491Y-6431008D01*
X2441491Y-6431008D02*
X2460539Y-6421484D01*
X2612920Y-6621484D02*
X2612920Y-6488150D01*
X2612920Y-6507198D02*
X2622444Y-6497674D01*
X2622444Y-6497674D02*
X2641491Y-6488150D01*
X2641491Y-6488150D02*
X2670063Y-6488150D01*
X2670063Y-6488150D02*
X2689110Y-6497674D01*
X2689110Y-6497674D02*
X2698634Y-6516722D01*
X2698634Y-6516722D02*
X2698634Y-6621484D01*
X2698634Y-6516722D02*
X2708158Y-6497674D01*
X2708158Y-6497674D02*
X2727205Y-6488150D01*
X2727205Y-6488150D02*
X2755777Y-6488150D01*
X2755777Y-6488150D02*
X2774825Y-6497674D01*
X2774825Y-6497674D02*
X2784348Y-6516722D01*
X2784348Y-6516722D02*
X2784348Y-6621484D01*
X2879586Y-6621484D02*
X2879586Y-6488150D01*
X2879586Y-6507198D02*
X2889110Y-6497674D01*
X2889110Y-6497674D02*
X2908158Y-6488150D01*
X2908158Y-6488150D02*
X2936729Y-6488150D01*
X2936729Y-6488150D02*
X2955777Y-6497674D01*
X2955777Y-6497674D02*
X2965301Y-6516722D01*
X2965301Y-6516722D02*
X2965301Y-6621484D01*
X2965301Y-6516722D02*
X2974824Y-6497674D01*
X2974824Y-6497674D02*
X2993872Y-6488150D01*
X2993872Y-6488150D02*
X3022443Y-6488150D01*
X3022443Y-6488150D02*
X3041491Y-6497674D01*
X3041491Y-6497674D02*
X3051015Y-6516722D01*
X3051015Y-6516722D02*
X3051015Y-6621484D01*
X3441491Y-6411960D02*
X3270063Y-6669103D01*
X3698634Y-6421484D02*
X3717682Y-6421484D01*
X3717682Y-6421484D02*
X3736729Y-6431008D01*
X3736729Y-6431008D02*
X3746253Y-6440531D01*
X3746253Y-6440531D02*
X3755777Y-6459579D01*
X3755777Y-6459579D02*
X3765301Y-6497674D01*
X3765301Y-6497674D02*
X3765301Y-6545293D01*
X3765301Y-6545293D02*
X3755777Y-6583388D01*
X3755777Y-6583388D02*
X3746253Y-6602436D01*
X3746253Y-6602436D02*
X3736729Y-6611960D01*
X3736729Y-6611960D02*
X3717682Y-6621484D01*
X3717682Y-6621484D02*
X3698634Y-6621484D01*
X3698634Y-6621484D02*
X3679586Y-6611960D01*
X3679586Y-6611960D02*
X3670063Y-6602436D01*
X3670063Y-6602436D02*
X3660539Y-6583388D01*
X3660539Y-6583388D02*
X3651015Y-6545293D01*
X3651015Y-6545293D02*
X3651015Y-6497674D01*
X3651015Y-6497674D02*
X3660539Y-6459579D01*
X3660539Y-6459579D02*
X3670063Y-6440531D01*
X3670063Y-6440531D02*
X3679586Y-6431008D01*
X3679586Y-6431008D02*
X3698634Y-6421484D01*
X3851015Y-6602436D02*
X3860539Y-6611960D01*
X3860539Y-6611960D02*
X3851015Y-6621484D01*
X3851015Y-6621484D02*
X3841491Y-6611960D01*
X3841491Y-6611960D02*
X3851015Y-6602436D01*
X3851015Y-6602436D02*
X3851015Y-6621484D01*
X3984348Y-6421484D02*
X4003396Y-6421484D01*
X4003396Y-6421484D02*
X4022444Y-6431008D01*
X4022444Y-6431008D02*
X4031967Y-6440531D01*
X4031967Y-6440531D02*
X4041491Y-6459579D01*
X4041491Y-6459579D02*
X4051015Y-6497674D01*
X4051015Y-6497674D02*
X4051015Y-6545293D01*
X4051015Y-6545293D02*
X4041491Y-6583388D01*
X4041491Y-6583388D02*
X4031967Y-6602436D01*
X4031967Y-6602436D02*
X4022444Y-6611960D01*
X4022444Y-6611960D02*
X4003396Y-6621484D01*
X4003396Y-6621484D02*
X3984348Y-6621484D01*
X3984348Y-6621484D02*
X3965301Y-6611960D01*
X3965301Y-6611960D02*
X3955777Y-6602436D01*
X3955777Y-6602436D02*
X3946253Y-6583388D01*
X3946253Y-6583388D02*
X3936729Y-6545293D01*
X3936729Y-6545293D02*
X3936729Y-6497674D01*
X3936729Y-6497674D02*
X3946253Y-6459579D01*
X3946253Y-6459579D02*
X3955777Y-6440531D01*
X3955777Y-6440531D02*
X3965301Y-6431008D01*
X3965301Y-6431008D02*
X3984348Y-6421484D01*
X4222444Y-6421484D02*
X4184348Y-6421484D01*
X4184348Y-6421484D02*
X4165301Y-6431008D01*
X4165301Y-6431008D02*
X4155777Y-6440531D01*
X4155777Y-6440531D02*
X4136729Y-6469103D01*
X4136729Y-6469103D02*
X4127206Y-6507198D01*
X4127206Y-6507198D02*
X4127206Y-6583388D01*
X4127206Y-6583388D02*
X4136729Y-6602436D01*
X4136729Y-6602436D02*
X4146253Y-6611960D01*
X4146253Y-6611960D02*
X4165301Y-6621484D01*
X4165301Y-6621484D02*
X4203396Y-6621484D01*
X4203396Y-6621484D02*
X4222444Y-6611960D01*
X4222444Y-6611960D02*
X4231968Y-6602436D01*
X4231968Y-6602436D02*
X4241491Y-6583388D01*
X4241491Y-6583388D02*
X4241491Y-6535769D01*
X4241491Y-6535769D02*
X4231968Y-6516722D01*
X4231968Y-6516722D02*
X4222444Y-6507198D01*
X4222444Y-6507198D02*
X4203396Y-6497674D01*
X4203396Y-6497674D02*
X4165301Y-6497674D01*
X4165301Y-6497674D02*
X4146253Y-6507198D01*
X4146253Y-6507198D02*
X4136729Y-6516722D01*
X4136729Y-6516722D02*
X4127206Y-6535769D01*
X4412920Y-6421484D02*
X4374825Y-6421484D01*
X4374825Y-6421484D02*
X4355777Y-6431008D01*
X4355777Y-6431008D02*
X4346253Y-6440531D01*
X4346253Y-6440531D02*
X4327206Y-6469103D01*
X4327206Y-6469103D02*
X4317682Y-6507198D01*
X4317682Y-6507198D02*
X4317682Y-6583388D01*
X4317682Y-6583388D02*
X4327206Y-6602436D01*
X4327206Y-6602436D02*
X4336729Y-6611960D01*
X4336729Y-6611960D02*
X4355777Y-6621484D01*
X4355777Y-6621484D02*
X4393872Y-6621484D01*
X4393872Y-6621484D02*
X4412920Y-6611960D01*
X4412920Y-6611960D02*
X4422444Y-6602436D01*
X4422444Y-6602436D02*
X4431968Y-6583388D01*
X4431968Y-6583388D02*
X4431968Y-6535769D01*
X4431968Y-6535769D02*
X4422444Y-6516722D01*
X4422444Y-6516722D02*
X4412920Y-6507198D01*
X4412920Y-6507198D02*
X4393872Y-6497674D01*
X4393872Y-6497674D02*
X4355777Y-6497674D01*
X4355777Y-6497674D02*
X4336729Y-6507198D01*
X4336729Y-6507198D02*
X4327206Y-6516722D01*
X4327206Y-6516722D02*
X4317682Y-6535769D01*
X4527206Y-6621484D02*
X4565301Y-6621484D01*
X4565301Y-6621484D02*
X4584349Y-6611960D01*
X4584349Y-6611960D02*
X4593872Y-6602436D01*
X4593872Y-6602436D02*
X4612920Y-6573865D01*
X4612920Y-6573865D02*
X4622444Y-6535769D01*
X4622444Y-6535769D02*
X4622444Y-6459579D01*
X4622444Y-6459579D02*
X4612920Y-6440531D01*
X4612920Y-6440531D02*
X4603396Y-6431008D01*
X4603396Y-6431008D02*
X4584349Y-6421484D01*
X4584349Y-6421484D02*
X4546253Y-6421484D01*
X4546253Y-6421484D02*
X4527206Y-6431008D01*
X4527206Y-6431008D02*
X4517682Y-6440531D01*
X4517682Y-6440531D02*
X4508158Y-6459579D01*
X4508158Y-6459579D02*
X4508158Y-6507198D01*
X4508158Y-6507198D02*
X4517682Y-6526246D01*
X4517682Y-6526246D02*
X4527206Y-6535769D01*
X4527206Y-6535769D02*
X4546253Y-6545293D01*
X4546253Y-6545293D02*
X4584349Y-6545293D01*
X4584349Y-6545293D02*
X4603396Y-6535769D01*
X4603396Y-6535769D02*
X4612920Y-6526246D01*
X4612920Y-6526246D02*
X4622444Y-6507198D01*
X4698634Y-6421484D02*
X4698634Y-6459579D01*
X4774825Y-6421484D02*
X4774825Y-6459579D01*
X5070063Y-6697674D02*
X5060539Y-6688150D01*
X5060539Y-6688150D02*
X5041491Y-6659579D01*
X5041491Y-6659579D02*
X5031968Y-6640531D01*
X5031968Y-6640531D02*
X5022444Y-6611960D01*
X5022444Y-6611960D02*
X5012920Y-6564341D01*
X5012920Y-6564341D02*
X5012920Y-6526246D01*
X5012920Y-6526246D02*
X5022444Y-6478627D01*
X5022444Y-6478627D02*
X5031968Y-6450055D01*
X5031968Y-6450055D02*
X5041491Y-6431008D01*
X5041491Y-6431008D02*
X5060539Y-6402436D01*
X5060539Y-6402436D02*
X5070063Y-6392912D01*
X5231968Y-6421484D02*
X5193872Y-6421484D01*
X5193872Y-6421484D02*
X5174825Y-6431008D01*
X5174825Y-6431008D02*
X5165301Y-6440531D01*
X5165301Y-6440531D02*
X5146253Y-6469103D01*
X5146253Y-6469103D02*
X5136730Y-6507198D01*
X5136730Y-6507198D02*
X5136730Y-6583388D01*
X5136730Y-6583388D02*
X5146253Y-6602436D01*
X5146253Y-6602436D02*
X5155777Y-6611960D01*
X5155777Y-6611960D02*
X5174825Y-6621484D01*
X5174825Y-6621484D02*
X5212920Y-6621484D01*
X5212920Y-6621484D02*
X5231968Y-6611960D01*
X5231968Y-6611960D02*
X5241491Y-6602436D01*
X5241491Y-6602436D02*
X5251015Y-6583388D01*
X5251015Y-6583388D02*
X5251015Y-6535769D01*
X5251015Y-6535769D02*
X5241491Y-6516722D01*
X5241491Y-6516722D02*
X5231968Y-6507198D01*
X5231968Y-6507198D02*
X5212920Y-6497674D01*
X5212920Y-6497674D02*
X5174825Y-6497674D01*
X5174825Y-6497674D02*
X5155777Y-6507198D01*
X5155777Y-6507198D02*
X5146253Y-6516722D01*
X5146253Y-6516722D02*
X5136730Y-6535769D01*
X5489111Y-6621484D02*
X5489111Y-6421484D01*
X5574825Y-6621484D02*
X5574825Y-6516722D01*
X5574825Y-6516722D02*
X5565301Y-6497674D01*
X5565301Y-6497674D02*
X5546253Y-6488150D01*
X5546253Y-6488150D02*
X5517682Y-6488150D01*
X5517682Y-6488150D02*
X5498634Y-6497674D01*
X5498634Y-6497674D02*
X5489111Y-6507198D01*
X5698634Y-6621484D02*
X5679587Y-6611960D01*
X5679587Y-6611960D02*
X5670063Y-6602436D01*
X5670063Y-6602436D02*
X5660539Y-6583388D01*
X5660539Y-6583388D02*
X5660539Y-6526246D01*
X5660539Y-6526246D02*
X5670063Y-6507198D01*
X5670063Y-6507198D02*
X5679587Y-6497674D01*
X5679587Y-6497674D02*
X5698634Y-6488150D01*
X5698634Y-6488150D02*
X5727206Y-6488150D01*
X5727206Y-6488150D02*
X5746253Y-6497674D01*
X5746253Y-6497674D02*
X5755777Y-6507198D01*
X5755777Y-6507198D02*
X5765301Y-6526246D01*
X5765301Y-6526246D02*
X5765301Y-6583388D01*
X5765301Y-6583388D02*
X5755777Y-6602436D01*
X5755777Y-6602436D02*
X5746253Y-6611960D01*
X5746253Y-6611960D02*
X5727206Y-6621484D01*
X5727206Y-6621484D02*
X5698634Y-6621484D01*
X5879587Y-6621484D02*
X5860539Y-6611960D01*
X5860539Y-6611960D02*
X5851015Y-6592912D01*
X5851015Y-6592912D02*
X5851015Y-6421484D01*
X6031968Y-6611960D02*
X6012920Y-6621484D01*
X6012920Y-6621484D02*
X5974825Y-6621484D01*
X5974825Y-6621484D02*
X5955777Y-6611960D01*
X5955777Y-6611960D02*
X5946253Y-6592912D01*
X5946253Y-6592912D02*
X5946253Y-6516722D01*
X5946253Y-6516722D02*
X5955777Y-6497674D01*
X5955777Y-6497674D02*
X5974825Y-6488150D01*
X5974825Y-6488150D02*
X6012920Y-6488150D01*
X6012920Y-6488150D02*
X6031968Y-6497674D01*
X6031968Y-6497674D02*
X6041491Y-6516722D01*
X6041491Y-6516722D02*
X6041491Y-6535769D01*
X6041491Y-6535769D02*
X5946253Y-6554817D01*
X6117682Y-6611960D02*
X6136730Y-6621484D01*
X6136730Y-6621484D02*
X6174825Y-6621484D01*
X6174825Y-6621484D02*
X6193872Y-6611960D01*
X6193872Y-6611960D02*
X6203396Y-6592912D01*
X6203396Y-6592912D02*
X6203396Y-6583388D01*
X6203396Y-6583388D02*
X6193872Y-6564341D01*
X6193872Y-6564341D02*
X6174825Y-6554817D01*
X6174825Y-6554817D02*
X6146253Y-6554817D01*
X6146253Y-6554817D02*
X6127206Y-6545293D01*
X6127206Y-6545293D02*
X6117682Y-6526246D01*
X6117682Y-6526246D02*
X6117682Y-6516722D01*
X6117682Y-6516722D02*
X6127206Y-6497674D01*
X6127206Y-6497674D02*
X6146253Y-6488150D01*
X6146253Y-6488150D02*
X6174825Y-6488150D01*
X6174825Y-6488150D02*
X6193872Y-6497674D01*
X6270063Y-6697674D02*
X6279587Y-6688150D01*
X6279587Y-6688150D02*
X6298634Y-6659579D01*
X6298634Y-6659579D02*
X6308158Y-6640531D01*
X6308158Y-6640531D02*
X6317682Y-6611960D01*
X6317682Y-6611960D02*
X6327206Y-6564341D01*
X6327206Y-6564341D02*
X6327206Y-6526246D01*
X6327206Y-6526246D02*
X6317682Y-6478627D01*
X6317682Y-6478627D02*
X6308158Y-6450055D01*
X6308158Y-6450055D02*
X6298634Y-6431008D01*
X6298634Y-6431008D02*
X6279587Y-6402436D01*
X6279587Y-6402436D02*
X6270063Y-6392912D01*
X6631968Y-6697674D02*
X6622444Y-6688150D01*
X6622444Y-6688150D02*
X6603396Y-6659579D01*
X6603396Y-6659579D02*
X6593872Y-6640531D01*
X6593872Y-6640531D02*
X6584349Y-6611960D01*
X6584349Y-6611960D02*
X6574825Y-6564341D01*
X6574825Y-6564341D02*
X6574825Y-6526246D01*
X6574825Y-6526246D02*
X6584349Y-6478627D01*
X6584349Y-6478627D02*
X6593872Y-6450055D01*
X6593872Y-6450055D02*
X6603396Y-6431008D01*
X6603396Y-6431008D02*
X6622444Y-6402436D01*
X6622444Y-6402436D02*
X6631968Y-6392912D01*
X6708158Y-6488150D02*
X6708158Y-6621484D01*
X6708158Y-6507198D02*
X6717682Y-6497674D01*
X6717682Y-6497674D02*
X6736730Y-6488150D01*
X6736730Y-6488150D02*
X6765301Y-6488150D01*
X6765301Y-6488150D02*
X6784349Y-6497674D01*
X6784349Y-6497674D02*
X6793872Y-6516722D01*
X6793872Y-6516722D02*
X6793872Y-6621484D01*
X6917682Y-6621484D02*
X6898634Y-6611960D01*
X6898634Y-6611960D02*
X6889111Y-6602436D01*
X6889111Y-6602436D02*
X6879587Y-6583388D01*
X6879587Y-6583388D02*
X6879587Y-6526246D01*
X6879587Y-6526246D02*
X6889111Y-6507198D01*
X6889111Y-6507198D02*
X6898634Y-6497674D01*
X6898634Y-6497674D02*
X6917682Y-6488150D01*
X6917682Y-6488150D02*
X6946253Y-6488150D01*
X6946253Y-6488150D02*
X6965301Y-6497674D01*
X6965301Y-6497674D02*
X6974825Y-6507198D01*
X6974825Y-6507198D02*
X6984349Y-6526246D01*
X6984349Y-6526246D02*
X6984349Y-6583388D01*
X6984349Y-6583388D02*
X6974825Y-6602436D01*
X6974825Y-6602436D02*
X6965301Y-6611960D01*
X6965301Y-6611960D02*
X6946253Y-6621484D01*
X6946253Y-6621484D02*
X6917682Y-6621484D01*
X7041492Y-6488150D02*
X7117682Y-6488150D01*
X7070063Y-6421484D02*
X7070063Y-6592912D01*
X7070063Y-6592912D02*
X7079587Y-6611960D01*
X7079587Y-6611960D02*
X7098634Y-6621484D01*
X7098634Y-6621484D02*
X7117682Y-6621484D01*
X7336730Y-6488150D02*
X7336730Y-6688150D01*
X7336730Y-6497674D02*
X7355777Y-6488150D01*
X7355777Y-6488150D02*
X7393873Y-6488150D01*
X7393873Y-6488150D02*
X7412920Y-6497674D01*
X7412920Y-6497674D02*
X7422444Y-6507198D01*
X7422444Y-6507198D02*
X7431968Y-6526246D01*
X7431968Y-6526246D02*
X7431968Y-6583388D01*
X7431968Y-6583388D02*
X7422444Y-6602436D01*
X7422444Y-6602436D02*
X7412920Y-6611960D01*
X7412920Y-6611960D02*
X7393873Y-6621484D01*
X7393873Y-6621484D02*
X7355777Y-6621484D01*
X7355777Y-6621484D02*
X7336730Y-6611960D01*
X7546253Y-6621484D02*
X7527206Y-6611960D01*
X7527206Y-6611960D02*
X7517682Y-6592912D01*
X7517682Y-6592912D02*
X7517682Y-6421484D01*
X7708158Y-6621484D02*
X7708158Y-6516722D01*
X7708158Y-6516722D02*
X7698634Y-6497674D01*
X7698634Y-6497674D02*
X7679587Y-6488150D01*
X7679587Y-6488150D02*
X7641492Y-6488150D01*
X7641492Y-6488150D02*
X7622444Y-6497674D01*
X7708158Y-6611960D02*
X7689111Y-6621484D01*
X7689111Y-6621484D02*
X7641492Y-6621484D01*
X7641492Y-6621484D02*
X7622444Y-6611960D01*
X7622444Y-6611960D02*
X7612920Y-6592912D01*
X7612920Y-6592912D02*
X7612920Y-6573865D01*
X7612920Y-6573865D02*
X7622444Y-6554817D01*
X7622444Y-6554817D02*
X7641492Y-6545293D01*
X7641492Y-6545293D02*
X7689111Y-6545293D01*
X7689111Y-6545293D02*
X7708158Y-6535769D01*
X7774825Y-6488150D02*
X7851015Y-6488150D01*
X7803396Y-6421484D02*
X7803396Y-6592912D01*
X7803396Y-6592912D02*
X7812920Y-6611960D01*
X7812920Y-6611960D02*
X7831968Y-6621484D01*
X7831968Y-6621484D02*
X7851015Y-6621484D01*
X7993873Y-6611960D02*
X7974825Y-6621484D01*
X7974825Y-6621484D02*
X7936730Y-6621484D01*
X7936730Y-6621484D02*
X7917682Y-6611960D01*
X7917682Y-6611960D02*
X7908158Y-6592912D01*
X7908158Y-6592912D02*
X7908158Y-6516722D01*
X7908158Y-6516722D02*
X7917682Y-6497674D01*
X7917682Y-6497674D02*
X7936730Y-6488150D01*
X7936730Y-6488150D02*
X7974825Y-6488150D01*
X7974825Y-6488150D02*
X7993873Y-6497674D01*
X7993873Y-6497674D02*
X8003396Y-6516722D01*
X8003396Y-6516722D02*
X8003396Y-6535769D01*
X8003396Y-6535769D02*
X7908158Y-6554817D01*
X8174825Y-6621484D02*
X8174825Y-6421484D01*
X8174825Y-6611960D02*
X8155777Y-6621484D01*
X8155777Y-6621484D02*
X8117682Y-6621484D01*
X8117682Y-6621484D02*
X8098634Y-6611960D01*
X8098634Y-6611960D02*
X8089111Y-6602436D01*
X8089111Y-6602436D02*
X8079587Y-6583388D01*
X8079587Y-6583388D02*
X8079587Y-6526246D01*
X8079587Y-6526246D02*
X8089111Y-6507198D01*
X8089111Y-6507198D02*
X8098634Y-6497674D01*
X8098634Y-6497674D02*
X8117682Y-6488150D01*
X8117682Y-6488150D02*
X8155777Y-6488150D01*
X8155777Y-6488150D02*
X8174825Y-6497674D01*
X8251015Y-6697674D02*
X8260539Y-6688150D01*
X8260539Y-6688150D02*
X8279587Y-6659579D01*
X8279587Y-6659579D02*
X8289111Y-6640531D01*
X8289111Y-6640531D02*
X8298634Y-6611960D01*
X8298634Y-6611960D02*
X8308158Y-6564341D01*
X8308158Y-6564341D02*
X8308158Y-6526246D01*
X8308158Y-6526246D02*
X8298634Y-6478627D01*
X8298634Y-6478627D02*
X8289111Y-6450055D01*
X8289111Y-6450055D02*
X8279587Y-6431008D01*
X8279587Y-6431008D02*
X8260539Y-6402436D01*
X8260539Y-6402436D02*
X8251015Y-6392912D01*
X1395000Y-6720000D02*
X1395000Y-6920000D01*
X1295000Y-6820000D02*
X1495000Y-6820000D01*
X1736729Y-6711484D02*
X1860539Y-6711484D01*
X1860539Y-6711484D02*
X1793872Y-6787674D01*
X1793872Y-6787674D02*
X1822443Y-6787674D01*
X1822443Y-6787674D02*
X1841491Y-6797198D01*
X1841491Y-6797198D02*
X1851015Y-6806722D01*
X1851015Y-6806722D02*
X1860539Y-6825769D01*
X1860539Y-6825769D02*
X1860539Y-6873388D01*
X1860539Y-6873388D02*
X1851015Y-6892436D01*
X1851015Y-6892436D02*
X1841491Y-6901960D01*
X1841491Y-6901960D02*
X1822443Y-6911484D01*
X1822443Y-6911484D02*
X1765301Y-6911484D01*
X1765301Y-6911484D02*
X1746253Y-6901960D01*
X1746253Y-6901960D02*
X1736729Y-6892436D01*
X1946253Y-6892436D02*
X1955777Y-6901960D01*
X1955777Y-6901960D02*
X1946253Y-6911484D01*
X1946253Y-6911484D02*
X1936729Y-6901960D01*
X1936729Y-6901960D02*
X1946253Y-6892436D01*
X1946253Y-6892436D02*
X1946253Y-6911484D01*
X2079586Y-6711484D02*
X2098634Y-6711484D01*
X2098634Y-6711484D02*
X2117682Y-6721008D01*
X2117682Y-6721008D02*
X2127205Y-6730531D01*
X2127205Y-6730531D02*
X2136729Y-6749579D01*
X2136729Y-6749579D02*
X2146253Y-6787674D01*
X2146253Y-6787674D02*
X2146253Y-6835293D01*
X2146253Y-6835293D02*
X2136729Y-6873388D01*
X2136729Y-6873388D02*
X2127205Y-6892436D01*
X2127205Y-6892436D02*
X2117682Y-6901960D01*
X2117682Y-6901960D02*
X2098634Y-6911484D01*
X2098634Y-6911484D02*
X2079586Y-6911484D01*
X2079586Y-6911484D02*
X2060539Y-6901960D01*
X2060539Y-6901960D02*
X2051015Y-6892436D01*
X2051015Y-6892436D02*
X2041491Y-6873388D01*
X2041491Y-6873388D02*
X2031967Y-6835293D01*
X2031967Y-6835293D02*
X2031967Y-6787674D01*
X2031967Y-6787674D02*
X2041491Y-6749579D01*
X2041491Y-6749579D02*
X2051015Y-6730531D01*
X2051015Y-6730531D02*
X2060539Y-6721008D01*
X2060539Y-6721008D02*
X2079586Y-6711484D01*
X2270063Y-6711484D02*
X2289110Y-6711484D01*
X2289110Y-6711484D02*
X2308158Y-6721008D01*
X2308158Y-6721008D02*
X2317682Y-6730531D01*
X2317682Y-6730531D02*
X2327205Y-6749579D01*
X2327205Y-6749579D02*
X2336729Y-6787674D01*
X2336729Y-6787674D02*
X2336729Y-6835293D01*
X2336729Y-6835293D02*
X2327205Y-6873388D01*
X2327205Y-6873388D02*
X2317682Y-6892436D01*
X2317682Y-6892436D02*
X2308158Y-6901960D01*
X2308158Y-6901960D02*
X2289110Y-6911484D01*
X2289110Y-6911484D02*
X2270063Y-6911484D01*
X2270063Y-6911484D02*
X2251015Y-6901960D01*
X2251015Y-6901960D02*
X2241491Y-6892436D01*
X2241491Y-6892436D02*
X2231967Y-6873388D01*
X2231967Y-6873388D02*
X2222444Y-6835293D01*
X2222444Y-6835293D02*
X2222444Y-6787674D01*
X2222444Y-6787674D02*
X2231967Y-6749579D01*
X2231967Y-6749579D02*
X2241491Y-6730531D01*
X2241491Y-6730531D02*
X2251015Y-6721008D01*
X2251015Y-6721008D02*
X2270063Y-6711484D01*
X2460539Y-6711484D02*
X2479586Y-6711484D01*
X2479586Y-6711484D02*
X2498634Y-6721008D01*
X2498634Y-6721008D02*
X2508158Y-6730531D01*
X2508158Y-6730531D02*
X2517682Y-6749579D01*
X2517682Y-6749579D02*
X2527205Y-6787674D01*
X2527205Y-6787674D02*
X2527205Y-6835293D01*
X2527205Y-6835293D02*
X2517682Y-6873388D01*
X2517682Y-6873388D02*
X2508158Y-6892436D01*
X2508158Y-6892436D02*
X2498634Y-6901960D01*
X2498634Y-6901960D02*
X2479586Y-6911484D01*
X2479586Y-6911484D02*
X2460539Y-6911484D01*
X2460539Y-6911484D02*
X2441491Y-6901960D01*
X2441491Y-6901960D02*
X2431967Y-6892436D01*
X2431967Y-6892436D02*
X2422444Y-6873388D01*
X2422444Y-6873388D02*
X2412920Y-6835293D01*
X2412920Y-6835293D02*
X2412920Y-6787674D01*
X2412920Y-6787674D02*
X2422444Y-6749579D01*
X2422444Y-6749579D02*
X2431967Y-6730531D01*
X2431967Y-6730531D02*
X2441491Y-6721008D01*
X2441491Y-6721008D02*
X2460539Y-6711484D01*
X2612920Y-6911484D02*
X2612920Y-6778150D01*
X2612920Y-6797198D02*
X2622444Y-6787674D01*
X2622444Y-6787674D02*
X2641491Y-6778150D01*
X2641491Y-6778150D02*
X2670063Y-6778150D01*
X2670063Y-6778150D02*
X2689110Y-6787674D01*
X2689110Y-6787674D02*
X2698634Y-6806722D01*
X2698634Y-6806722D02*
X2698634Y-6911484D01*
X2698634Y-6806722D02*
X2708158Y-6787674D01*
X2708158Y-6787674D02*
X2727205Y-6778150D01*
X2727205Y-6778150D02*
X2755777Y-6778150D01*
X2755777Y-6778150D02*
X2774825Y-6787674D01*
X2774825Y-6787674D02*
X2784348Y-6806722D01*
X2784348Y-6806722D02*
X2784348Y-6911484D01*
X2879586Y-6911484D02*
X2879586Y-6778150D01*
X2879586Y-6797198D02*
X2889110Y-6787674D01*
X2889110Y-6787674D02*
X2908158Y-6778150D01*
X2908158Y-6778150D02*
X2936729Y-6778150D01*
X2936729Y-6778150D02*
X2955777Y-6787674D01*
X2955777Y-6787674D02*
X2965301Y-6806722D01*
X2965301Y-6806722D02*
X2965301Y-6911484D01*
X2965301Y-6806722D02*
X2974824Y-6787674D01*
X2974824Y-6787674D02*
X2993872Y-6778150D01*
X2993872Y-6778150D02*
X3022443Y-6778150D01*
X3022443Y-6778150D02*
X3041491Y-6787674D01*
X3041491Y-6787674D02*
X3051015Y-6806722D01*
X3051015Y-6806722D02*
X3051015Y-6911484D01*
X3441491Y-6701960D02*
X3270063Y-6959103D01*
X3698634Y-6711484D02*
X3717682Y-6711484D01*
X3717682Y-6711484D02*
X3736729Y-6721008D01*
X3736729Y-6721008D02*
X3746253Y-6730531D01*
X3746253Y-6730531D02*
X3755777Y-6749579D01*
X3755777Y-6749579D02*
X3765301Y-6787674D01*
X3765301Y-6787674D02*
X3765301Y-6835293D01*
X3765301Y-6835293D02*
X3755777Y-6873388D01*
X3755777Y-6873388D02*
X3746253Y-6892436D01*
X3746253Y-6892436D02*
X3736729Y-6901960D01*
X3736729Y-6901960D02*
X3717682Y-6911484D01*
X3717682Y-6911484D02*
X3698634Y-6911484D01*
X3698634Y-6911484D02*
X3679586Y-6901960D01*
X3679586Y-6901960D02*
X3670063Y-6892436D01*
X3670063Y-6892436D02*
X3660539Y-6873388D01*
X3660539Y-6873388D02*
X3651015Y-6835293D01*
X3651015Y-6835293D02*
X3651015Y-6787674D01*
X3651015Y-6787674D02*
X3660539Y-6749579D01*
X3660539Y-6749579D02*
X3670063Y-6730531D01*
X3670063Y-6730531D02*
X3679586Y-6721008D01*
X3679586Y-6721008D02*
X3698634Y-6711484D01*
X3851015Y-6892436D02*
X3860539Y-6901960D01*
X3860539Y-6901960D02*
X3851015Y-6911484D01*
X3851015Y-6911484D02*
X3841491Y-6901960D01*
X3841491Y-6901960D02*
X3851015Y-6892436D01*
X3851015Y-6892436D02*
X3851015Y-6911484D01*
X4051015Y-6911484D02*
X3936729Y-6911484D01*
X3993872Y-6911484D02*
X3993872Y-6711484D01*
X3993872Y-6711484D02*
X3974825Y-6740055D01*
X3974825Y-6740055D02*
X3955777Y-6759103D01*
X3955777Y-6759103D02*
X3936729Y-6768627D01*
X4241491Y-6911484D02*
X4127206Y-6911484D01*
X4184348Y-6911484D02*
X4184348Y-6711484D01*
X4184348Y-6711484D02*
X4165301Y-6740055D01*
X4165301Y-6740055D02*
X4146253Y-6759103D01*
X4146253Y-6759103D02*
X4127206Y-6768627D01*
X4355777Y-6797198D02*
X4336729Y-6787674D01*
X4336729Y-6787674D02*
X4327206Y-6778150D01*
X4327206Y-6778150D02*
X4317682Y-6759103D01*
X4317682Y-6759103D02*
X4317682Y-6749579D01*
X4317682Y-6749579D02*
X4327206Y-6730531D01*
X4327206Y-6730531D02*
X4336729Y-6721008D01*
X4336729Y-6721008D02*
X4355777Y-6711484D01*
X4355777Y-6711484D02*
X4393872Y-6711484D01*
X4393872Y-6711484D02*
X4412920Y-6721008D01*
X4412920Y-6721008D02*
X4422444Y-6730531D01*
X4422444Y-6730531D02*
X4431968Y-6749579D01*
X4431968Y-6749579D02*
X4431968Y-6759103D01*
X4431968Y-6759103D02*
X4422444Y-6778150D01*
X4422444Y-6778150D02*
X4412920Y-6787674D01*
X4412920Y-6787674D02*
X4393872Y-6797198D01*
X4393872Y-6797198D02*
X4355777Y-6797198D01*
X4355777Y-6797198D02*
X4336729Y-6806722D01*
X4336729Y-6806722D02*
X4327206Y-6816246D01*
X4327206Y-6816246D02*
X4317682Y-6835293D01*
X4317682Y-6835293D02*
X4317682Y-6873388D01*
X4317682Y-6873388D02*
X4327206Y-6892436D01*
X4327206Y-6892436D02*
X4336729Y-6901960D01*
X4336729Y-6901960D02*
X4355777Y-6911484D01*
X4355777Y-6911484D02*
X4393872Y-6911484D01*
X4393872Y-6911484D02*
X4412920Y-6901960D01*
X4412920Y-6901960D02*
X4422444Y-6892436D01*
X4422444Y-6892436D02*
X4431968Y-6873388D01*
X4431968Y-6873388D02*
X4431968Y-6835293D01*
X4431968Y-6835293D02*
X4422444Y-6816246D01*
X4422444Y-6816246D02*
X4412920Y-6806722D01*
X4412920Y-6806722D02*
X4393872Y-6797198D01*
X4622444Y-6911484D02*
X4508158Y-6911484D01*
X4565301Y-6911484D02*
X4565301Y-6711484D01*
X4565301Y-6711484D02*
X4546253Y-6740055D01*
X4546253Y-6740055D02*
X4527206Y-6759103D01*
X4527206Y-6759103D02*
X4508158Y-6768627D01*
X4698634Y-6711484D02*
X4698634Y-6749579D01*
X4774825Y-6711484D02*
X4774825Y-6749579D01*
X5070063Y-6987674D02*
X5060539Y-6978150D01*
X5060539Y-6978150D02*
X5041491Y-6949579D01*
X5041491Y-6949579D02*
X5031968Y-6930531D01*
X5031968Y-6930531D02*
X5022444Y-6901960D01*
X5022444Y-6901960D02*
X5012920Y-6854341D01*
X5012920Y-6854341D02*
X5012920Y-6816246D01*
X5012920Y-6816246D02*
X5022444Y-6768627D01*
X5022444Y-6768627D02*
X5031968Y-6740055D01*
X5031968Y-6740055D02*
X5041491Y-6721008D01*
X5041491Y-6721008D02*
X5060539Y-6692436D01*
X5060539Y-6692436D02*
X5070063Y-6682912D01*
X5231968Y-6711484D02*
X5193872Y-6711484D01*
X5193872Y-6711484D02*
X5174825Y-6721008D01*
X5174825Y-6721008D02*
X5165301Y-6730531D01*
X5165301Y-6730531D02*
X5146253Y-6759103D01*
X5146253Y-6759103D02*
X5136730Y-6797198D01*
X5136730Y-6797198D02*
X5136730Y-6873388D01*
X5136730Y-6873388D02*
X5146253Y-6892436D01*
X5146253Y-6892436D02*
X5155777Y-6901960D01*
X5155777Y-6901960D02*
X5174825Y-6911484D01*
X5174825Y-6911484D02*
X5212920Y-6911484D01*
X5212920Y-6911484D02*
X5231968Y-6901960D01*
X5231968Y-6901960D02*
X5241491Y-6892436D01*
X5241491Y-6892436D02*
X5251015Y-6873388D01*
X5251015Y-6873388D02*
X5251015Y-6825769D01*
X5251015Y-6825769D02*
X5241491Y-6806722D01*
X5241491Y-6806722D02*
X5231968Y-6797198D01*
X5231968Y-6797198D02*
X5212920Y-6787674D01*
X5212920Y-6787674D02*
X5174825Y-6787674D01*
X5174825Y-6787674D02*
X5155777Y-6797198D01*
X5155777Y-6797198D02*
X5146253Y-6806722D01*
X5146253Y-6806722D02*
X5136730Y-6825769D01*
X5489111Y-6911484D02*
X5489111Y-6711484D01*
X5574825Y-6911484D02*
X5574825Y-6806722D01*
X5574825Y-6806722D02*
X5565301Y-6787674D01*
X5565301Y-6787674D02*
X5546253Y-6778150D01*
X5546253Y-6778150D02*
X5517682Y-6778150D01*
X5517682Y-6778150D02*
X5498634Y-6787674D01*
X5498634Y-6787674D02*
X5489111Y-6797198D01*
X5698634Y-6911484D02*
X5679587Y-6901960D01*
X5679587Y-6901960D02*
X5670063Y-6892436D01*
X5670063Y-6892436D02*
X5660539Y-6873388D01*
X5660539Y-6873388D02*
X5660539Y-6816246D01*
X5660539Y-6816246D02*
X5670063Y-6797198D01*
X5670063Y-6797198D02*
X5679587Y-6787674D01*
X5679587Y-6787674D02*
X5698634Y-6778150D01*
X5698634Y-6778150D02*
X5727206Y-6778150D01*
X5727206Y-6778150D02*
X5746253Y-6787674D01*
X5746253Y-6787674D02*
X5755777Y-6797198D01*
X5755777Y-6797198D02*
X5765301Y-6816246D01*
X5765301Y-6816246D02*
X5765301Y-6873388D01*
X5765301Y-6873388D02*
X5755777Y-6892436D01*
X5755777Y-6892436D02*
X5746253Y-6901960D01*
X5746253Y-6901960D02*
X5727206Y-6911484D01*
X5727206Y-6911484D02*
X5698634Y-6911484D01*
X5879587Y-6911484D02*
X5860539Y-6901960D01*
X5860539Y-6901960D02*
X5851015Y-6882912D01*
X5851015Y-6882912D02*
X5851015Y-6711484D01*
X6031968Y-6901960D02*
X6012920Y-6911484D01*
X6012920Y-6911484D02*
X5974825Y-6911484D01*
X5974825Y-6911484D02*
X5955777Y-6901960D01*
X5955777Y-6901960D02*
X5946253Y-6882912D01*
X5946253Y-6882912D02*
X5946253Y-6806722D01*
X5946253Y-6806722D02*
X5955777Y-6787674D01*
X5955777Y-6787674D02*
X5974825Y-6778150D01*
X5974825Y-6778150D02*
X6012920Y-6778150D01*
X6012920Y-6778150D02*
X6031968Y-6787674D01*
X6031968Y-6787674D02*
X6041491Y-6806722D01*
X6041491Y-6806722D02*
X6041491Y-6825769D01*
X6041491Y-6825769D02*
X5946253Y-6844817D01*
X6117682Y-6901960D02*
X6136730Y-6911484D01*
X6136730Y-6911484D02*
X6174825Y-6911484D01*
X6174825Y-6911484D02*
X6193872Y-6901960D01*
X6193872Y-6901960D02*
X6203396Y-6882912D01*
X6203396Y-6882912D02*
X6203396Y-6873388D01*
X6203396Y-6873388D02*
X6193872Y-6854341D01*
X6193872Y-6854341D02*
X6174825Y-6844817D01*
X6174825Y-6844817D02*
X6146253Y-6844817D01*
X6146253Y-6844817D02*
X6127206Y-6835293D01*
X6127206Y-6835293D02*
X6117682Y-6816246D01*
X6117682Y-6816246D02*
X6117682Y-6806722D01*
X6117682Y-6806722D02*
X6127206Y-6787674D01*
X6127206Y-6787674D02*
X6146253Y-6778150D01*
X6146253Y-6778150D02*
X6174825Y-6778150D01*
X6174825Y-6778150D02*
X6193872Y-6787674D01*
X6270063Y-6987674D02*
X6279587Y-6978150D01*
X6279587Y-6978150D02*
X6298634Y-6949579D01*
X6298634Y-6949579D02*
X6308158Y-6930531D01*
X6308158Y-6930531D02*
X6317682Y-6901960D01*
X6317682Y-6901960D02*
X6327206Y-6854341D01*
X6327206Y-6854341D02*
X6327206Y-6816246D01*
X6327206Y-6816246D02*
X6317682Y-6768627D01*
X6317682Y-6768627D02*
X6308158Y-6740055D01*
X6308158Y-6740055D02*
X6298634Y-6721008D01*
X6298634Y-6721008D02*
X6279587Y-6692436D01*
X6279587Y-6692436D02*
X6270063Y-6682912D01*
X6631968Y-6987674D02*
X6622444Y-6978150D01*
X6622444Y-6978150D02*
X6603396Y-6949579D01*
X6603396Y-6949579D02*
X6593872Y-6930531D01*
X6593872Y-6930531D02*
X6584349Y-6901960D01*
X6584349Y-6901960D02*
X6574825Y-6854341D01*
X6574825Y-6854341D02*
X6574825Y-6816246D01*
X6574825Y-6816246D02*
X6584349Y-6768627D01*
X6584349Y-6768627D02*
X6593872Y-6740055D01*
X6593872Y-6740055D02*
X6603396Y-6721008D01*
X6603396Y-6721008D02*
X6622444Y-6692436D01*
X6622444Y-6692436D02*
X6631968Y-6682912D01*
X6708158Y-6778150D02*
X6708158Y-6911484D01*
X6708158Y-6797198D02*
X6717682Y-6787674D01*
X6717682Y-6787674D02*
X6736730Y-6778150D01*
X6736730Y-6778150D02*
X6765301Y-6778150D01*
X6765301Y-6778150D02*
X6784349Y-6787674D01*
X6784349Y-6787674D02*
X6793872Y-6806722D01*
X6793872Y-6806722D02*
X6793872Y-6911484D01*
X6917682Y-6911484D02*
X6898634Y-6901960D01*
X6898634Y-6901960D02*
X6889111Y-6892436D01*
X6889111Y-6892436D02*
X6879587Y-6873388D01*
X6879587Y-6873388D02*
X6879587Y-6816246D01*
X6879587Y-6816246D02*
X6889111Y-6797198D01*
X6889111Y-6797198D02*
X6898634Y-6787674D01*
X6898634Y-6787674D02*
X6917682Y-6778150D01*
X6917682Y-6778150D02*
X6946253Y-6778150D01*
X6946253Y-6778150D02*
X6965301Y-6787674D01*
X6965301Y-6787674D02*
X6974825Y-6797198D01*
X6974825Y-6797198D02*
X6984349Y-6816246D01*
X6984349Y-6816246D02*
X6984349Y-6873388D01*
X6984349Y-6873388D02*
X6974825Y-6892436D01*
X6974825Y-6892436D02*
X6965301Y-6901960D01*
X6965301Y-6901960D02*
X6946253Y-6911484D01*
X6946253Y-6911484D02*
X6917682Y-6911484D01*
X7041492Y-6778150D02*
X7117682Y-6778150D01*
X7070063Y-6711484D02*
X7070063Y-6882912D01*
X7070063Y-6882912D02*
X7079587Y-6901960D01*
X7079587Y-6901960D02*
X7098634Y-6911484D01*
X7098634Y-6911484D02*
X7117682Y-6911484D01*
X7336730Y-6778150D02*
X7336730Y-6978150D01*
X7336730Y-6787674D02*
X7355777Y-6778150D01*
X7355777Y-6778150D02*
X7393873Y-6778150D01*
X7393873Y-6778150D02*
X7412920Y-6787674D01*
X7412920Y-6787674D02*
X7422444Y-6797198D01*
X7422444Y-6797198D02*
X7431968Y-6816246D01*
X7431968Y-6816246D02*
X7431968Y-6873388D01*
X7431968Y-6873388D02*
X7422444Y-6892436D01*
X7422444Y-6892436D02*
X7412920Y-6901960D01*
X7412920Y-6901960D02*
X7393873Y-6911484D01*
X7393873Y-6911484D02*
X7355777Y-6911484D01*
X7355777Y-6911484D02*
X7336730Y-6901960D01*
X7546253Y-6911484D02*
X7527206Y-6901960D01*
X7527206Y-6901960D02*
X7517682Y-6882912D01*
X7517682Y-6882912D02*
X7517682Y-6711484D01*
X7708158Y-6911484D02*
X7708158Y-6806722D01*
X7708158Y-6806722D02*
X7698634Y-6787674D01*
X7698634Y-6787674D02*
X7679587Y-6778150D01*
X7679587Y-6778150D02*
X7641492Y-6778150D01*
X7641492Y-6778150D02*
X7622444Y-6787674D01*
X7708158Y-6901960D02*
X7689111Y-6911484D01*
X7689111Y-6911484D02*
X7641492Y-6911484D01*
X7641492Y-6911484D02*
X7622444Y-6901960D01*
X7622444Y-6901960D02*
X7612920Y-6882912D01*
X7612920Y-6882912D02*
X7612920Y-6863865D01*
X7612920Y-6863865D02*
X7622444Y-6844817D01*
X7622444Y-6844817D02*
X7641492Y-6835293D01*
X7641492Y-6835293D02*
X7689111Y-6835293D01*
X7689111Y-6835293D02*
X7708158Y-6825769D01*
X7774825Y-6778150D02*
X7851015Y-6778150D01*
X7803396Y-6711484D02*
X7803396Y-6882912D01*
X7803396Y-6882912D02*
X7812920Y-6901960D01*
X7812920Y-6901960D02*
X7831968Y-6911484D01*
X7831968Y-6911484D02*
X7851015Y-6911484D01*
X7993873Y-6901960D02*
X7974825Y-6911484D01*
X7974825Y-6911484D02*
X7936730Y-6911484D01*
X7936730Y-6911484D02*
X7917682Y-6901960D01*
X7917682Y-6901960D02*
X7908158Y-6882912D01*
X7908158Y-6882912D02*
X7908158Y-6806722D01*
X7908158Y-6806722D02*
X7917682Y-6787674D01*
X7917682Y-6787674D02*
X7936730Y-6778150D01*
X7936730Y-6778150D02*
X7974825Y-6778150D01*
X7974825Y-6778150D02*
X7993873Y-6787674D01*
X7993873Y-6787674D02*
X8003396Y-6806722D01*
X8003396Y-6806722D02*
X8003396Y-6825769D01*
X8003396Y-6825769D02*
X7908158Y-6844817D01*
X8174825Y-6911484D02*
X8174825Y-6711484D01*
X8174825Y-6901960D02*
X8155777Y-6911484D01*
X8155777Y-6911484D02*
X8117682Y-6911484D01*
X8117682Y-6911484D02*
X8098634Y-6901960D01*
X8098634Y-6901960D02*
X8089111Y-6892436D01*
X8089111Y-6892436D02*
X8079587Y-6873388D01*
X8079587Y-6873388D02*
X8079587Y-6816246D01*
X8079587Y-6816246D02*
X8089111Y-6797198D01*
X8089111Y-6797198D02*
X8098634Y-6787674D01*
X8098634Y-6787674D02*
X8117682Y-6778150D01*
X8117682Y-6778150D02*
X8155777Y-6778150D01*
X8155777Y-6778150D02*
X8174825Y-6787674D01*
X8251015Y-6987674D02*
X8260539Y-6978150D01*
X8260539Y-6978150D02*
X8279587Y-6949579D01*
X8279587Y-6949579D02*
X8289111Y-6930531D01*
X8289111Y-6930531D02*
X8298634Y-6901960D01*
X8298634Y-6901960D02*
X8308158Y-6854341D01*
X8308158Y-6854341D02*
X8308158Y-6816246D01*
X8308158Y-6816246D02*
X8298634Y-6768627D01*
X8298634Y-6768627D02*
X8289111Y-6740055D01*
X8289111Y-6740055D02*
X8279587Y-6721008D01*
X8279587Y-6721008D02*
X8260539Y-6692436D01*
X8260539Y-6692436D02*
X8251015Y-6682912D01*
X1465711Y-7210711D02*
X1465711Y-7069289D01*
X1324289Y-7069289D01*
X1324289Y-7210711D01*
X1465711Y-7210711D01*
X1851015Y-7031484D02*
X1755777Y-7031484D01*
X1755777Y-7031484D02*
X1746253Y-7126722D01*
X1746253Y-7126722D02*
X1755777Y-7117198D01*
X1755777Y-7117198D02*
X1774824Y-7107674D01*
X1774824Y-7107674D02*
X1822443Y-7107674D01*
X1822443Y-7107674D02*
X1841491Y-7117198D01*
X1841491Y-7117198D02*
X1851015Y-7126722D01*
X1851015Y-7126722D02*
X1860539Y-7145769D01*
X1860539Y-7145769D02*
X1860539Y-7193388D01*
X1860539Y-7193388D02*
X1851015Y-7212436D01*
X1851015Y-7212436D02*
X1841491Y-7221960D01*
X1841491Y-7221960D02*
X1822443Y-7231484D01*
X1822443Y-7231484D02*
X1774824Y-7231484D01*
X1774824Y-7231484D02*
X1755777Y-7221960D01*
X1755777Y-7221960D02*
X1746253Y-7212436D01*
X1946253Y-7212436D02*
X1955777Y-7221960D01*
X1955777Y-7221960D02*
X1946253Y-7231484D01*
X1946253Y-7231484D02*
X1936729Y-7221960D01*
X1936729Y-7221960D02*
X1946253Y-7212436D01*
X1946253Y-7212436D02*
X1946253Y-7231484D01*
X2079586Y-7031484D02*
X2098634Y-7031484D01*
X2098634Y-7031484D02*
X2117682Y-7041008D01*
X2117682Y-7041008D02*
X2127205Y-7050531D01*
X2127205Y-7050531D02*
X2136729Y-7069579D01*
X2136729Y-7069579D02*
X2146253Y-7107674D01*
X2146253Y-7107674D02*
X2146253Y-7155293D01*
X2146253Y-7155293D02*
X2136729Y-7193388D01*
X2136729Y-7193388D02*
X2127205Y-7212436D01*
X2127205Y-7212436D02*
X2117682Y-7221960D01*
X2117682Y-7221960D02*
X2098634Y-7231484D01*
X2098634Y-7231484D02*
X2079586Y-7231484D01*
X2079586Y-7231484D02*
X2060539Y-7221960D01*
X2060539Y-7221960D02*
X2051015Y-7212436D01*
X2051015Y-7212436D02*
X2041491Y-7193388D01*
X2041491Y-7193388D02*
X2031967Y-7155293D01*
X2031967Y-7155293D02*
X2031967Y-7107674D01*
X2031967Y-7107674D02*
X2041491Y-7069579D01*
X2041491Y-7069579D02*
X2051015Y-7050531D01*
X2051015Y-7050531D02*
X2060539Y-7041008D01*
X2060539Y-7041008D02*
X2079586Y-7031484D01*
X2270063Y-7031484D02*
X2289110Y-7031484D01*
X2289110Y-7031484D02*
X2308158Y-7041008D01*
X2308158Y-7041008D02*
X2317682Y-7050531D01*
X2317682Y-7050531D02*
X2327205Y-7069579D01*
X2327205Y-7069579D02*
X2336729Y-7107674D01*
X2336729Y-7107674D02*
X2336729Y-7155293D01*
X2336729Y-7155293D02*
X2327205Y-7193388D01*
X2327205Y-7193388D02*
X2317682Y-7212436D01*
X2317682Y-7212436D02*
X2308158Y-7221960D01*
X2308158Y-7221960D02*
X2289110Y-7231484D01*
X2289110Y-7231484D02*
X2270063Y-7231484D01*
X2270063Y-7231484D02*
X2251015Y-7221960D01*
X2251015Y-7221960D02*
X2241491Y-7212436D01*
X2241491Y-7212436D02*
X2231967Y-7193388D01*
X2231967Y-7193388D02*
X2222444Y-7155293D01*
X2222444Y-7155293D02*
X2222444Y-7107674D01*
X2222444Y-7107674D02*
X2231967Y-7069579D01*
X2231967Y-7069579D02*
X2241491Y-7050531D01*
X2241491Y-7050531D02*
X2251015Y-7041008D01*
X2251015Y-7041008D02*
X2270063Y-7031484D01*
X2460539Y-7031484D02*
X2479586Y-7031484D01*
X2479586Y-7031484D02*
X2498634Y-7041008D01*
X2498634Y-7041008D02*
X2508158Y-7050531D01*
X2508158Y-7050531D02*
X2517682Y-7069579D01*
X2517682Y-7069579D02*
X2527205Y-7107674D01*
X2527205Y-7107674D02*
X2527205Y-7155293D01*
X2527205Y-7155293D02*
X2517682Y-7193388D01*
X2517682Y-7193388D02*
X2508158Y-7212436D01*
X2508158Y-7212436D02*
X2498634Y-7221960D01*
X2498634Y-7221960D02*
X2479586Y-7231484D01*
X2479586Y-7231484D02*
X2460539Y-7231484D01*
X2460539Y-7231484D02*
X2441491Y-7221960D01*
X2441491Y-7221960D02*
X2431967Y-7212436D01*
X2431967Y-7212436D02*
X2422444Y-7193388D01*
X2422444Y-7193388D02*
X2412920Y-7155293D01*
X2412920Y-7155293D02*
X2412920Y-7107674D01*
X2412920Y-7107674D02*
X2422444Y-7069579D01*
X2422444Y-7069579D02*
X2431967Y-7050531D01*
X2431967Y-7050531D02*
X2441491Y-7041008D01*
X2441491Y-7041008D02*
X2460539Y-7031484D01*
X2612920Y-7231484D02*
X2612920Y-7098150D01*
X2612920Y-7117198D02*
X2622444Y-7107674D01*
X2622444Y-7107674D02*
X2641491Y-7098150D01*
X2641491Y-7098150D02*
X2670063Y-7098150D01*
X2670063Y-7098150D02*
X2689110Y-7107674D01*
X2689110Y-7107674D02*
X2698634Y-7126722D01*
X2698634Y-7126722D02*
X2698634Y-7231484D01*
X2698634Y-7126722D02*
X2708158Y-7107674D01*
X2708158Y-7107674D02*
X2727205Y-7098150D01*
X2727205Y-7098150D02*
X2755777Y-7098150D01*
X2755777Y-7098150D02*
X2774825Y-7107674D01*
X2774825Y-7107674D02*
X2784348Y-7126722D01*
X2784348Y-7126722D02*
X2784348Y-7231484D01*
X2879586Y-7231484D02*
X2879586Y-7098150D01*
X2879586Y-7117198D02*
X2889110Y-7107674D01*
X2889110Y-7107674D02*
X2908158Y-7098150D01*
X2908158Y-7098150D02*
X2936729Y-7098150D01*
X2936729Y-7098150D02*
X2955777Y-7107674D01*
X2955777Y-7107674D02*
X2965301Y-7126722D01*
X2965301Y-7126722D02*
X2965301Y-7231484D01*
X2965301Y-7126722D02*
X2974824Y-7107674D01*
X2974824Y-7107674D02*
X2993872Y-7098150D01*
X2993872Y-7098150D02*
X3022443Y-7098150D01*
X3022443Y-7098150D02*
X3041491Y-7107674D01*
X3041491Y-7107674D02*
X3051015Y-7126722D01*
X3051015Y-7126722D02*
X3051015Y-7231484D01*
X3441491Y-7021960D02*
X3270063Y-7279103D01*
X3698634Y-7031484D02*
X3717682Y-7031484D01*
X3717682Y-7031484D02*
X3736729Y-7041008D01*
X3736729Y-7041008D02*
X3746253Y-7050531D01*
X3746253Y-7050531D02*
X3755777Y-7069579D01*
X3755777Y-7069579D02*
X3765301Y-7107674D01*
X3765301Y-7107674D02*
X3765301Y-7155293D01*
X3765301Y-7155293D02*
X3755777Y-7193388D01*
X3755777Y-7193388D02*
X3746253Y-7212436D01*
X3746253Y-7212436D02*
X3736729Y-7221960D01*
X3736729Y-7221960D02*
X3717682Y-7231484D01*
X3717682Y-7231484D02*
X3698634Y-7231484D01*
X3698634Y-7231484D02*
X3679586Y-7221960D01*
X3679586Y-7221960D02*
X3670063Y-7212436D01*
X3670063Y-7212436D02*
X3660539Y-7193388D01*
X3660539Y-7193388D02*
X3651015Y-7155293D01*
X3651015Y-7155293D02*
X3651015Y-7107674D01*
X3651015Y-7107674D02*
X3660539Y-7069579D01*
X3660539Y-7069579D02*
X3670063Y-7050531D01*
X3670063Y-7050531D02*
X3679586Y-7041008D01*
X3679586Y-7041008D02*
X3698634Y-7031484D01*
X3851015Y-7212436D02*
X3860539Y-7221960D01*
X3860539Y-7221960D02*
X3851015Y-7231484D01*
X3851015Y-7231484D02*
X3841491Y-7221960D01*
X3841491Y-7221960D02*
X3851015Y-7212436D01*
X3851015Y-7212436D02*
X3851015Y-7231484D01*
X4051015Y-7231484D02*
X3936729Y-7231484D01*
X3993872Y-7231484D02*
X3993872Y-7031484D01*
X3993872Y-7031484D02*
X3974825Y-7060055D01*
X3974825Y-7060055D02*
X3955777Y-7079103D01*
X3955777Y-7079103D02*
X3936729Y-7088627D01*
X4146253Y-7231484D02*
X4184348Y-7231484D01*
X4184348Y-7231484D02*
X4203396Y-7221960D01*
X4203396Y-7221960D02*
X4212920Y-7212436D01*
X4212920Y-7212436D02*
X4231968Y-7183865D01*
X4231968Y-7183865D02*
X4241491Y-7145769D01*
X4241491Y-7145769D02*
X4241491Y-7069579D01*
X4241491Y-7069579D02*
X4231968Y-7050531D01*
X4231968Y-7050531D02*
X4222444Y-7041008D01*
X4222444Y-7041008D02*
X4203396Y-7031484D01*
X4203396Y-7031484D02*
X4165301Y-7031484D01*
X4165301Y-7031484D02*
X4146253Y-7041008D01*
X4146253Y-7041008D02*
X4136729Y-7050531D01*
X4136729Y-7050531D02*
X4127206Y-7069579D01*
X4127206Y-7069579D02*
X4127206Y-7117198D01*
X4127206Y-7117198D02*
X4136729Y-7136246D01*
X4136729Y-7136246D02*
X4146253Y-7145769D01*
X4146253Y-7145769D02*
X4165301Y-7155293D01*
X4165301Y-7155293D02*
X4203396Y-7155293D01*
X4203396Y-7155293D02*
X4222444Y-7145769D01*
X4222444Y-7145769D02*
X4231968Y-7136246D01*
X4231968Y-7136246D02*
X4241491Y-7117198D01*
X4412920Y-7031484D02*
X4374825Y-7031484D01*
X4374825Y-7031484D02*
X4355777Y-7041008D01*
X4355777Y-7041008D02*
X4346253Y-7050531D01*
X4346253Y-7050531D02*
X4327206Y-7079103D01*
X4327206Y-7079103D02*
X4317682Y-7117198D01*
X4317682Y-7117198D02*
X4317682Y-7193388D01*
X4317682Y-7193388D02*
X4327206Y-7212436D01*
X4327206Y-7212436D02*
X4336729Y-7221960D01*
X4336729Y-7221960D02*
X4355777Y-7231484D01*
X4355777Y-7231484D02*
X4393872Y-7231484D01*
X4393872Y-7231484D02*
X4412920Y-7221960D01*
X4412920Y-7221960D02*
X4422444Y-7212436D01*
X4422444Y-7212436D02*
X4431968Y-7193388D01*
X4431968Y-7193388D02*
X4431968Y-7145769D01*
X4431968Y-7145769D02*
X4422444Y-7126722D01*
X4422444Y-7126722D02*
X4412920Y-7117198D01*
X4412920Y-7117198D02*
X4393872Y-7107674D01*
X4393872Y-7107674D02*
X4355777Y-7107674D01*
X4355777Y-7107674D02*
X4336729Y-7117198D01*
X4336729Y-7117198D02*
X4327206Y-7126722D01*
X4327206Y-7126722D02*
X4317682Y-7145769D01*
X4527206Y-7231484D02*
X4565301Y-7231484D01*
X4565301Y-7231484D02*
X4584349Y-7221960D01*
X4584349Y-7221960D02*
X4593872Y-7212436D01*
X4593872Y-7212436D02*
X4612920Y-7183865D01*
X4612920Y-7183865D02*
X4622444Y-7145769D01*
X4622444Y-7145769D02*
X4622444Y-7069579D01*
X4622444Y-7069579D02*
X4612920Y-7050531D01*
X4612920Y-7050531D02*
X4603396Y-7041008D01*
X4603396Y-7041008D02*
X4584349Y-7031484D01*
X4584349Y-7031484D02*
X4546253Y-7031484D01*
X4546253Y-7031484D02*
X4527206Y-7041008D01*
X4527206Y-7041008D02*
X4517682Y-7050531D01*
X4517682Y-7050531D02*
X4508158Y-7069579D01*
X4508158Y-7069579D02*
X4508158Y-7117198D01*
X4508158Y-7117198D02*
X4517682Y-7136246D01*
X4517682Y-7136246D02*
X4527206Y-7145769D01*
X4527206Y-7145769D02*
X4546253Y-7155293D01*
X4546253Y-7155293D02*
X4584349Y-7155293D01*
X4584349Y-7155293D02*
X4603396Y-7145769D01*
X4603396Y-7145769D02*
X4612920Y-7136246D01*
X4612920Y-7136246D02*
X4622444Y-7117198D01*
X4698634Y-7031484D02*
X4698634Y-7069579D01*
X4774825Y-7031484D02*
X4774825Y-7069579D01*
X5070063Y-7307674D02*
X5060539Y-7298150D01*
X5060539Y-7298150D02*
X5041491Y-7269579D01*
X5041491Y-7269579D02*
X5031968Y-7250531D01*
X5031968Y-7250531D02*
X5022444Y-7221960D01*
X5022444Y-7221960D02*
X5012920Y-7174341D01*
X5012920Y-7174341D02*
X5012920Y-7136246D01*
X5012920Y-7136246D02*
X5022444Y-7088627D01*
X5022444Y-7088627D02*
X5031968Y-7060055D01*
X5031968Y-7060055D02*
X5041491Y-7041008D01*
X5041491Y-7041008D02*
X5060539Y-7012436D01*
X5060539Y-7012436D02*
X5070063Y-7002912D01*
X5127206Y-7031484D02*
X5251015Y-7031484D01*
X5251015Y-7031484D02*
X5184349Y-7107674D01*
X5184349Y-7107674D02*
X5212920Y-7107674D01*
X5212920Y-7107674D02*
X5231968Y-7117198D01*
X5231968Y-7117198D02*
X5241491Y-7126722D01*
X5241491Y-7126722D02*
X5251015Y-7145769D01*
X5251015Y-7145769D02*
X5251015Y-7193388D01*
X5251015Y-7193388D02*
X5241491Y-7212436D01*
X5241491Y-7212436D02*
X5231968Y-7221960D01*
X5231968Y-7221960D02*
X5212920Y-7231484D01*
X5212920Y-7231484D02*
X5155777Y-7231484D01*
X5155777Y-7231484D02*
X5136730Y-7221960D01*
X5136730Y-7221960D02*
X5127206Y-7212436D01*
X5489111Y-7231484D02*
X5489111Y-7031484D01*
X5574825Y-7231484D02*
X5574825Y-7126722D01*
X5574825Y-7126722D02*
X5565301Y-7107674D01*
X5565301Y-7107674D02*
X5546253Y-7098150D01*
X5546253Y-7098150D02*
X5517682Y-7098150D01*
X5517682Y-7098150D02*
X5498634Y-7107674D01*
X5498634Y-7107674D02*
X5489111Y-7117198D01*
X5698634Y-7231484D02*
X5679587Y-7221960D01*
X5679587Y-7221960D02*
X5670063Y-7212436D01*
X5670063Y-7212436D02*
X5660539Y-7193388D01*
X5660539Y-7193388D02*
X5660539Y-7136246D01*
X5660539Y-7136246D02*
X5670063Y-7117198D01*
X5670063Y-7117198D02*
X5679587Y-7107674D01*
X5679587Y-7107674D02*
X5698634Y-7098150D01*
X5698634Y-7098150D02*
X5727206Y-7098150D01*
X5727206Y-7098150D02*
X5746253Y-7107674D01*
X5746253Y-7107674D02*
X5755777Y-7117198D01*
X5755777Y-7117198D02*
X5765301Y-7136246D01*
X5765301Y-7136246D02*
X5765301Y-7193388D01*
X5765301Y-7193388D02*
X5755777Y-7212436D01*
X5755777Y-7212436D02*
X5746253Y-7221960D01*
X5746253Y-7221960D02*
X5727206Y-7231484D01*
X5727206Y-7231484D02*
X5698634Y-7231484D01*
X5879587Y-7231484D02*
X5860539Y-7221960D01*
X5860539Y-7221960D02*
X5851015Y-7202912D01*
X5851015Y-7202912D02*
X5851015Y-7031484D01*
X6031968Y-7221960D02*
X6012920Y-7231484D01*
X6012920Y-7231484D02*
X5974825Y-7231484D01*
X5974825Y-7231484D02*
X5955777Y-7221960D01*
X5955777Y-7221960D02*
X5946253Y-7202912D01*
X5946253Y-7202912D02*
X5946253Y-7126722D01*
X5946253Y-7126722D02*
X5955777Y-7107674D01*
X5955777Y-7107674D02*
X5974825Y-7098150D01*
X5974825Y-7098150D02*
X6012920Y-7098150D01*
X6012920Y-7098150D02*
X6031968Y-7107674D01*
X6031968Y-7107674D02*
X6041491Y-7126722D01*
X6041491Y-7126722D02*
X6041491Y-7145769D01*
X6041491Y-7145769D02*
X5946253Y-7164817D01*
X6117682Y-7221960D02*
X6136730Y-7231484D01*
X6136730Y-7231484D02*
X6174825Y-7231484D01*
X6174825Y-7231484D02*
X6193872Y-7221960D01*
X6193872Y-7221960D02*
X6203396Y-7202912D01*
X6203396Y-7202912D02*
X6203396Y-7193388D01*
X6203396Y-7193388D02*
X6193872Y-7174341D01*
X6193872Y-7174341D02*
X6174825Y-7164817D01*
X6174825Y-7164817D02*
X6146253Y-7164817D01*
X6146253Y-7164817D02*
X6127206Y-7155293D01*
X6127206Y-7155293D02*
X6117682Y-7136246D01*
X6117682Y-7136246D02*
X6117682Y-7126722D01*
X6117682Y-7126722D02*
X6127206Y-7107674D01*
X6127206Y-7107674D02*
X6146253Y-7098150D01*
X6146253Y-7098150D02*
X6174825Y-7098150D01*
X6174825Y-7098150D02*
X6193872Y-7107674D01*
X6270063Y-7307674D02*
X6279587Y-7298150D01*
X6279587Y-7298150D02*
X6298634Y-7269579D01*
X6298634Y-7269579D02*
X6308158Y-7250531D01*
X6308158Y-7250531D02*
X6317682Y-7221960D01*
X6317682Y-7221960D02*
X6327206Y-7174341D01*
X6327206Y-7174341D02*
X6327206Y-7136246D01*
X6327206Y-7136246D02*
X6317682Y-7088627D01*
X6317682Y-7088627D02*
X6308158Y-7060055D01*
X6308158Y-7060055D02*
X6298634Y-7041008D01*
X6298634Y-7041008D02*
X6279587Y-7012436D01*
X6279587Y-7012436D02*
X6270063Y-7002912D01*
X6631968Y-7307674D02*
X6622444Y-7298150D01*
X6622444Y-7298150D02*
X6603396Y-7269579D01*
X6603396Y-7269579D02*
X6593872Y-7250531D01*
X6593872Y-7250531D02*
X6584349Y-7221960D01*
X6584349Y-7221960D02*
X6574825Y-7174341D01*
X6574825Y-7174341D02*
X6574825Y-7136246D01*
X6574825Y-7136246D02*
X6584349Y-7088627D01*
X6584349Y-7088627D02*
X6593872Y-7060055D01*
X6593872Y-7060055D02*
X6603396Y-7041008D01*
X6603396Y-7041008D02*
X6622444Y-7012436D01*
X6622444Y-7012436D02*
X6631968Y-7002912D01*
X6708158Y-7098150D02*
X6708158Y-7231484D01*
X6708158Y-7117198D02*
X6717682Y-7107674D01*
X6717682Y-7107674D02*
X6736730Y-7098150D01*
X6736730Y-7098150D02*
X6765301Y-7098150D01*
X6765301Y-7098150D02*
X6784349Y-7107674D01*
X6784349Y-7107674D02*
X6793872Y-7126722D01*
X6793872Y-7126722D02*
X6793872Y-7231484D01*
X6917682Y-7231484D02*
X6898634Y-7221960D01*
X6898634Y-7221960D02*
X6889111Y-7212436D01*
X6889111Y-7212436D02*
X6879587Y-7193388D01*
X6879587Y-7193388D02*
X6879587Y-7136246D01*
X6879587Y-7136246D02*
X6889111Y-7117198D01*
X6889111Y-7117198D02*
X6898634Y-7107674D01*
X6898634Y-7107674D02*
X6917682Y-7098150D01*
X6917682Y-7098150D02*
X6946253Y-7098150D01*
X6946253Y-7098150D02*
X6965301Y-7107674D01*
X6965301Y-7107674D02*
X6974825Y-7117198D01*
X6974825Y-7117198D02*
X6984349Y-7136246D01*
X6984349Y-7136246D02*
X6984349Y-7193388D01*
X6984349Y-7193388D02*
X6974825Y-7212436D01*
X6974825Y-7212436D02*
X6965301Y-7221960D01*
X6965301Y-7221960D02*
X6946253Y-7231484D01*
X6946253Y-7231484D02*
X6917682Y-7231484D01*
X7041492Y-7098150D02*
X7117682Y-7098150D01*
X7070063Y-7031484D02*
X7070063Y-7202912D01*
X7070063Y-7202912D02*
X7079587Y-7221960D01*
X7079587Y-7221960D02*
X7098634Y-7231484D01*
X7098634Y-7231484D02*
X7117682Y-7231484D01*
X7336730Y-7098150D02*
X7336730Y-7298150D01*
X7336730Y-7107674D02*
X7355777Y-7098150D01*
X7355777Y-7098150D02*
X7393873Y-7098150D01*
X7393873Y-7098150D02*
X7412920Y-7107674D01*
X7412920Y-7107674D02*
X7422444Y-7117198D01*
X7422444Y-7117198D02*
X7431968Y-7136246D01*
X7431968Y-7136246D02*
X7431968Y-7193388D01*
X7431968Y-7193388D02*
X7422444Y-7212436D01*
X7422444Y-7212436D02*
X7412920Y-7221960D01*
X7412920Y-7221960D02*
X7393873Y-7231484D01*
X7393873Y-7231484D02*
X7355777Y-7231484D01*
X7355777Y-7231484D02*
X7336730Y-7221960D01*
X7546253Y-7231484D02*
X7527206Y-7221960D01*
X7527206Y-7221960D02*
X7517682Y-7202912D01*
X7517682Y-7202912D02*
X7517682Y-7031484D01*
X7708158Y-7231484D02*
X7708158Y-7126722D01*
X7708158Y-7126722D02*
X7698634Y-7107674D01*
X7698634Y-7107674D02*
X7679587Y-7098150D01*
X7679587Y-7098150D02*
X7641492Y-7098150D01*
X7641492Y-7098150D02*
X7622444Y-7107674D01*
X7708158Y-7221960D02*
X7689111Y-7231484D01*
X7689111Y-7231484D02*
X7641492Y-7231484D01*
X7641492Y-7231484D02*
X7622444Y-7221960D01*
X7622444Y-7221960D02*
X7612920Y-7202912D01*
X7612920Y-7202912D02*
X7612920Y-7183865D01*
X7612920Y-7183865D02*
X7622444Y-7164817D01*
X7622444Y-7164817D02*
X7641492Y-7155293D01*
X7641492Y-7155293D02*
X7689111Y-7155293D01*
X7689111Y-7155293D02*
X7708158Y-7145769D01*
X7774825Y-7098150D02*
X7851015Y-7098150D01*
X7803396Y-7031484D02*
X7803396Y-7202912D01*
X7803396Y-7202912D02*
X7812920Y-7221960D01*
X7812920Y-7221960D02*
X7831968Y-7231484D01*
X7831968Y-7231484D02*
X7851015Y-7231484D01*
X7993873Y-7221960D02*
X7974825Y-7231484D01*
X7974825Y-7231484D02*
X7936730Y-7231484D01*
X7936730Y-7231484D02*
X7917682Y-7221960D01*
X7917682Y-7221960D02*
X7908158Y-7202912D01*
X7908158Y-7202912D02*
X7908158Y-7126722D01*
X7908158Y-7126722D02*
X7917682Y-7107674D01*
X7917682Y-7107674D02*
X7936730Y-7098150D01*
X7936730Y-7098150D02*
X7974825Y-7098150D01*
X7974825Y-7098150D02*
X7993873Y-7107674D01*
X7993873Y-7107674D02*
X8003396Y-7126722D01*
X8003396Y-7126722D02*
X8003396Y-7145769D01*
X8003396Y-7145769D02*
X7908158Y-7164817D01*
X8174825Y-7231484D02*
X8174825Y-7031484D01*
X8174825Y-7221960D02*
X8155777Y-7231484D01*
X8155777Y-7231484D02*
X8117682Y-7231484D01*
X8117682Y-7231484D02*
X8098634Y-7221960D01*
X8098634Y-7221960D02*
X8089111Y-7212436D01*
X8089111Y-7212436D02*
X8079587Y-7193388D01*
X8079587Y-7193388D02*
X8079587Y-7136246D01*
X8079587Y-7136246D02*
X8089111Y-7117198D01*
X8089111Y-7117198D02*
X8098634Y-7107674D01*
X8098634Y-7107674D02*
X8117682Y-7098150D01*
X8117682Y-7098150D02*
X8155777Y-7098150D01*
X8155777Y-7098150D02*
X8174825Y-7107674D01*
X8251015Y-7307674D02*
X8260539Y-7298150D01*
X8260539Y-7298150D02*
X8279587Y-7269579D01*
X8279587Y-7269579D02*
X8289111Y-7250531D01*
X8289111Y-7250531D02*
X8298634Y-7221960D01*
X8298634Y-7221960D02*
X8308158Y-7174341D01*
X8308158Y-7174341D02*
X8308158Y-7136246D01*
X8308158Y-7136246D02*
X8298634Y-7088627D01*
X8298634Y-7088627D02*
X8289111Y-7060055D01*
X8289111Y-7060055D02*
X8279587Y-7041008D01*
X8279587Y-7041008D02*
X8260539Y-7012436D01*
X8260539Y-7012436D02*
X8251015Y-7002912D01*
M02*
