%TF.GenerationSoftware,KiCad,Pcbnew,10.0.3*%
%TF.CreationDate,2026-08-29T02:59:52+09:00*%
%TF.ProjectId,kc2_x3_v2_switch_coupon,6b63325f-7833-45f7-9632-5f7377697463,coupon-2-es1b*%
%TF.SameCoordinates,Original*%
%TF.FileFunction,Drillmap*%
%TF.FilePolarity,Positive*%
%FSLAX45Y45*%
G04 Gerber Fmt 4.5, Leading zero omitted, Abs format (unit mm)*
G04 Created by KiCad (PCBNEW 10.0.3) date 2026-08-29 02:59:52*
%MOMM*%
%LPD*%
G01*
G04 APERTURE LIST*
%ADD10C,0.100000*%
%ADD11C,0.200000*%
%ADD12C,0.165000*%
%ADD13C,0.170000*%
%ADD14C,0.300000*%
%ADD15C,0.500000*%
G04 APERTURE END LIST*
D10*
X1500000Y-1000000D02*
X7900000Y-1000000D01*
X1500000Y-7000000D02*
X1500000Y-1000000D01*
X7900000Y-1000000D02*
X7900000Y-7000000D01*
X7900000Y-7000000D02*
X1500000Y-7000000D01*
D11*
D12*
X3217500Y-3402500D02*
X3382500Y-3567500D01*
X3382500Y-3402500D02*
X3217500Y-3567500D01*
X5122500Y-3402500D02*
X5287500Y-3567500D01*
X5287500Y-3402500D02*
X5122500Y-3567500D01*
X6027500Y-4432500D02*
X6192500Y-4597500D01*
X6192500Y-4432500D02*
X6027500Y-4597500D01*
D13*
X2377000Y-4000000D02*
G75*
G02*
X2207000Y-4000000I-85000J0D01*
G01*
X2207000Y-4000000D02*
G75*
G02*
X2377000Y-4000000I85000J0D01*
G01*
X3393000Y-4000000D02*
G75*
G02*
X3223000Y-4000000I-85000J0D01*
G01*
X3223000Y-4000000D02*
G75*
G02*
X3393000Y-4000000I85000J0D01*
G01*
X4282000Y-4000000D02*
G75*
G02*
X4112000Y-4000000I-85000J0D01*
G01*
X4112000Y-4000000D02*
G75*
G02*
X4282000Y-4000000I85000J0D01*
G01*
X5298000Y-4000000D02*
G75*
G02*
X5128000Y-4000000I-85000J0D01*
G01*
X5128000Y-4000000D02*
G75*
G02*
X5298000Y-4000000I85000J0D01*
G01*
X6187000Y-4000000D02*
G75*
G02*
X6017000Y-4000000I-85000J0D01*
G01*
X6017000Y-4000000D02*
G75*
G02*
X6187000Y-4000000I85000J0D01*
G01*
X7203000Y-4000000D02*
G75*
G02*
X7033000Y-4000000I-85000J0D01*
G01*
X7033000Y-4000000D02*
G75*
G02*
X7203000Y-4000000I85000J0D01*
G01*
D14*
X2300000Y-4230000D02*
X2300000Y-4530000D01*
X2150000Y-4380000D02*
X2450000Y-4380000D01*
X2800000Y-4440000D02*
X2800000Y-4740000D01*
X2650000Y-4590000D02*
X2950000Y-4590000D01*
X4205000Y-4230000D02*
X4205000Y-4530000D01*
X4055000Y-4380000D02*
X4355000Y-4380000D01*
X4705000Y-4440000D02*
X4705000Y-4740000D01*
X4555000Y-4590000D02*
X4855000Y-4590000D01*
X6610000Y-3260000D02*
X6610000Y-3560000D01*
X6460000Y-3410000D02*
X6760000Y-3410000D01*
X7110000Y-3470000D02*
X7110000Y-3770000D01*
X6960000Y-3620000D02*
X7260000Y-3620000D01*
D15*
X2976778Y-4176778D02*
X2976778Y-3823222D01*
X2623222Y-3823222D01*
X2623222Y-4176778D01*
X2976778Y-4176778D01*
X4881778Y-4176778D02*
X4881778Y-3823222D01*
X4528222Y-3823222D01*
X4528222Y-4176778D01*
X4881778Y-4176778D01*
X6786778Y-4176778D02*
X6786778Y-3823222D01*
X6433221Y-3823222D01*
X6433221Y-4176778D01*
X6786778Y-4176778D01*
D11*
X1755777Y-7316484D02*
X1755777Y-7116484D01*
X1755777Y-7116484D02*
X1803396Y-7116484D01*
X1803396Y-7116484D02*
X1831967Y-7126008D01*
X1831967Y-7126008D02*
X1851015Y-7145055D01*
X1851015Y-7145055D02*
X1860539Y-7164103D01*
X1860539Y-7164103D02*
X1870062Y-7202198D01*
X1870062Y-7202198D02*
X1870062Y-7230769D01*
X1870062Y-7230769D02*
X1860539Y-7268865D01*
X1860539Y-7268865D02*
X1851015Y-7287912D01*
X1851015Y-7287912D02*
X1831967Y-7306960D01*
X1831967Y-7306960D02*
X1803396Y-7316484D01*
X1803396Y-7316484D02*
X1755777Y-7316484D01*
X1955777Y-7316484D02*
X1955777Y-7183150D01*
X1955777Y-7221246D02*
X1965301Y-7202198D01*
X1965301Y-7202198D02*
X1974824Y-7192674D01*
X1974824Y-7192674D02*
X1993872Y-7183150D01*
X1993872Y-7183150D02*
X2012920Y-7183150D01*
X2079586Y-7316484D02*
X2079586Y-7183150D01*
X2079586Y-7116484D02*
X2070062Y-7126008D01*
X2070062Y-7126008D02*
X2079586Y-7135531D01*
X2079586Y-7135531D02*
X2089110Y-7126008D01*
X2089110Y-7126008D02*
X2079586Y-7116484D01*
X2079586Y-7116484D02*
X2079586Y-7135531D01*
X2203396Y-7316484D02*
X2184348Y-7306960D01*
X2184348Y-7306960D02*
X2174824Y-7287912D01*
X2174824Y-7287912D02*
X2174824Y-7116484D01*
X2308158Y-7316484D02*
X2289110Y-7306960D01*
X2289110Y-7306960D02*
X2279586Y-7287912D01*
X2279586Y-7287912D02*
X2279586Y-7116484D01*
X2536729Y-7316484D02*
X2536729Y-7116484D01*
X2536729Y-7116484D02*
X2603396Y-7259341D01*
X2603396Y-7259341D02*
X2670063Y-7116484D01*
X2670063Y-7116484D02*
X2670063Y-7316484D01*
X2851015Y-7316484D02*
X2851015Y-7211722D01*
X2851015Y-7211722D02*
X2841491Y-7192674D01*
X2841491Y-7192674D02*
X2822443Y-7183150D01*
X2822443Y-7183150D02*
X2784348Y-7183150D01*
X2784348Y-7183150D02*
X2765301Y-7192674D01*
X2851015Y-7306960D02*
X2831967Y-7316484D01*
X2831967Y-7316484D02*
X2784348Y-7316484D01*
X2784348Y-7316484D02*
X2765301Y-7306960D01*
X2765301Y-7306960D02*
X2755777Y-7287912D01*
X2755777Y-7287912D02*
X2755777Y-7268865D01*
X2755777Y-7268865D02*
X2765301Y-7249817D01*
X2765301Y-7249817D02*
X2784348Y-7240293D01*
X2784348Y-7240293D02*
X2831967Y-7240293D01*
X2831967Y-7240293D02*
X2851015Y-7230769D01*
X2946253Y-7183150D02*
X2946253Y-7383150D01*
X2946253Y-7192674D02*
X2965301Y-7183150D01*
X2965301Y-7183150D02*
X3003396Y-7183150D01*
X3003396Y-7183150D02*
X3022443Y-7192674D01*
X3022443Y-7192674D02*
X3031967Y-7202198D01*
X3031967Y-7202198D02*
X3041491Y-7221246D01*
X3041491Y-7221246D02*
X3041491Y-7278388D01*
X3041491Y-7278388D02*
X3031967Y-7297436D01*
X3031967Y-7297436D02*
X3022443Y-7306960D01*
X3022443Y-7306960D02*
X3003396Y-7316484D01*
X3003396Y-7316484D02*
X2965301Y-7316484D01*
X2965301Y-7316484D02*
X2946253Y-7306960D01*
X3127205Y-7297436D02*
X3136729Y-7306960D01*
X3136729Y-7306960D02*
X3127205Y-7316484D01*
X3127205Y-7316484D02*
X3117682Y-7306960D01*
X3117682Y-7306960D02*
X3127205Y-7297436D01*
X3127205Y-7297436D02*
X3127205Y-7316484D01*
X3127205Y-7192674D02*
X3136729Y-7202198D01*
X3136729Y-7202198D02*
X3127205Y-7211722D01*
X3127205Y-7211722D02*
X3117682Y-7202198D01*
X3117682Y-7202198D02*
X3127205Y-7192674D01*
X3127205Y-7192674D02*
X3127205Y-7211722D01*
D12*
X1330000Y-7562500D02*
X1495000Y-7727500D01*
X1495000Y-7562500D02*
X1330000Y-7727500D01*
D11*
X1860539Y-7736484D02*
X1746253Y-7736484D01*
X1803396Y-7736484D02*
X1803396Y-7536484D01*
X1803396Y-7536484D02*
X1784348Y-7565055D01*
X1784348Y-7565055D02*
X1765301Y-7584103D01*
X1765301Y-7584103D02*
X1746253Y-7593627D01*
X1946253Y-7717436D02*
X1955777Y-7726960D01*
X1955777Y-7726960D02*
X1946253Y-7736484D01*
X1946253Y-7736484D02*
X1936729Y-7726960D01*
X1936729Y-7726960D02*
X1946253Y-7717436D01*
X1946253Y-7717436D02*
X1946253Y-7736484D01*
X2127205Y-7536484D02*
X2089110Y-7536484D01*
X2089110Y-7536484D02*
X2070062Y-7546008D01*
X2070062Y-7546008D02*
X2060539Y-7555531D01*
X2060539Y-7555531D02*
X2041491Y-7584103D01*
X2041491Y-7584103D02*
X2031967Y-7622198D01*
X2031967Y-7622198D02*
X2031967Y-7698388D01*
X2031967Y-7698388D02*
X2041491Y-7717436D01*
X2041491Y-7717436D02*
X2051015Y-7726960D01*
X2051015Y-7726960D02*
X2070062Y-7736484D01*
X2070062Y-7736484D02*
X2108158Y-7736484D01*
X2108158Y-7736484D02*
X2127205Y-7726960D01*
X2127205Y-7726960D02*
X2136729Y-7717436D01*
X2136729Y-7717436D02*
X2146253Y-7698388D01*
X2146253Y-7698388D02*
X2146253Y-7650769D01*
X2146253Y-7650769D02*
X2136729Y-7631722D01*
X2136729Y-7631722D02*
X2127205Y-7622198D01*
X2127205Y-7622198D02*
X2108158Y-7612674D01*
X2108158Y-7612674D02*
X2070062Y-7612674D01*
X2070062Y-7612674D02*
X2051015Y-7622198D01*
X2051015Y-7622198D02*
X2041491Y-7631722D01*
X2041491Y-7631722D02*
X2031967Y-7650769D01*
X2327205Y-7536484D02*
X2231967Y-7536484D01*
X2231967Y-7536484D02*
X2222444Y-7631722D01*
X2222444Y-7631722D02*
X2231967Y-7622198D01*
X2231967Y-7622198D02*
X2251015Y-7612674D01*
X2251015Y-7612674D02*
X2298634Y-7612674D01*
X2298634Y-7612674D02*
X2317682Y-7622198D01*
X2317682Y-7622198D02*
X2327205Y-7631722D01*
X2327205Y-7631722D02*
X2336729Y-7650769D01*
X2336729Y-7650769D02*
X2336729Y-7698388D01*
X2336729Y-7698388D02*
X2327205Y-7717436D01*
X2327205Y-7717436D02*
X2317682Y-7726960D01*
X2317682Y-7726960D02*
X2298634Y-7736484D01*
X2298634Y-7736484D02*
X2251015Y-7736484D01*
X2251015Y-7736484D02*
X2231967Y-7726960D01*
X2231967Y-7726960D02*
X2222444Y-7717436D01*
X2460539Y-7536484D02*
X2479586Y-7536484D01*
X2479586Y-7536484D02*
X2498634Y-7546008D01*
X2498634Y-7546008D02*
X2508158Y-7555531D01*
X2508158Y-7555531D02*
X2517682Y-7574579D01*
X2517682Y-7574579D02*
X2527205Y-7612674D01*
X2527205Y-7612674D02*
X2527205Y-7660293D01*
X2527205Y-7660293D02*
X2517682Y-7698388D01*
X2517682Y-7698388D02*
X2508158Y-7717436D01*
X2508158Y-7717436D02*
X2498634Y-7726960D01*
X2498634Y-7726960D02*
X2479586Y-7736484D01*
X2479586Y-7736484D02*
X2460539Y-7736484D01*
X2460539Y-7736484D02*
X2441491Y-7726960D01*
X2441491Y-7726960D02*
X2431967Y-7717436D01*
X2431967Y-7717436D02*
X2422444Y-7698388D01*
X2422444Y-7698388D02*
X2412920Y-7660293D01*
X2412920Y-7660293D02*
X2412920Y-7612674D01*
X2412920Y-7612674D02*
X2422444Y-7574579D01*
X2422444Y-7574579D02*
X2431967Y-7555531D01*
X2431967Y-7555531D02*
X2441491Y-7546008D01*
X2441491Y-7546008D02*
X2460539Y-7536484D01*
X2612920Y-7736484D02*
X2612920Y-7603150D01*
X2612920Y-7622198D02*
X2622444Y-7612674D01*
X2622444Y-7612674D02*
X2641491Y-7603150D01*
X2641491Y-7603150D02*
X2670063Y-7603150D01*
X2670063Y-7603150D02*
X2689110Y-7612674D01*
X2689110Y-7612674D02*
X2698634Y-7631722D01*
X2698634Y-7631722D02*
X2698634Y-7736484D01*
X2698634Y-7631722D02*
X2708158Y-7612674D01*
X2708158Y-7612674D02*
X2727205Y-7603150D01*
X2727205Y-7603150D02*
X2755777Y-7603150D01*
X2755777Y-7603150D02*
X2774825Y-7612674D01*
X2774825Y-7612674D02*
X2784348Y-7631722D01*
X2784348Y-7631722D02*
X2784348Y-7736484D01*
X2879586Y-7736484D02*
X2879586Y-7603150D01*
X2879586Y-7622198D02*
X2889110Y-7612674D01*
X2889110Y-7612674D02*
X2908158Y-7603150D01*
X2908158Y-7603150D02*
X2936729Y-7603150D01*
X2936729Y-7603150D02*
X2955777Y-7612674D01*
X2955777Y-7612674D02*
X2965301Y-7631722D01*
X2965301Y-7631722D02*
X2965301Y-7736484D01*
X2965301Y-7631722D02*
X2974824Y-7612674D01*
X2974824Y-7612674D02*
X2993872Y-7603150D01*
X2993872Y-7603150D02*
X3022443Y-7603150D01*
X3022443Y-7603150D02*
X3041491Y-7612674D01*
X3041491Y-7612674D02*
X3051015Y-7631722D01*
X3051015Y-7631722D02*
X3051015Y-7736484D01*
X3441491Y-7526960D02*
X3270063Y-7784103D01*
X3698634Y-7536484D02*
X3717682Y-7536484D01*
X3717682Y-7536484D02*
X3736729Y-7546008D01*
X3736729Y-7546008D02*
X3746253Y-7555531D01*
X3746253Y-7555531D02*
X3755777Y-7574579D01*
X3755777Y-7574579D02*
X3765301Y-7612674D01*
X3765301Y-7612674D02*
X3765301Y-7660293D01*
X3765301Y-7660293D02*
X3755777Y-7698388D01*
X3755777Y-7698388D02*
X3746253Y-7717436D01*
X3746253Y-7717436D02*
X3736729Y-7726960D01*
X3736729Y-7726960D02*
X3717682Y-7736484D01*
X3717682Y-7736484D02*
X3698634Y-7736484D01*
X3698634Y-7736484D02*
X3679586Y-7726960D01*
X3679586Y-7726960D02*
X3670063Y-7717436D01*
X3670063Y-7717436D02*
X3660539Y-7698388D01*
X3660539Y-7698388D02*
X3651015Y-7660293D01*
X3651015Y-7660293D02*
X3651015Y-7612674D01*
X3651015Y-7612674D02*
X3660539Y-7574579D01*
X3660539Y-7574579D02*
X3670063Y-7555531D01*
X3670063Y-7555531D02*
X3679586Y-7546008D01*
X3679586Y-7546008D02*
X3698634Y-7536484D01*
X3851015Y-7717436D02*
X3860539Y-7726960D01*
X3860539Y-7726960D02*
X3851015Y-7736484D01*
X3851015Y-7736484D02*
X3841491Y-7726960D01*
X3841491Y-7726960D02*
X3851015Y-7717436D01*
X3851015Y-7717436D02*
X3851015Y-7736484D01*
X3984348Y-7536484D02*
X4003396Y-7536484D01*
X4003396Y-7536484D02*
X4022444Y-7546008D01*
X4022444Y-7546008D02*
X4031967Y-7555531D01*
X4031967Y-7555531D02*
X4041491Y-7574579D01*
X4041491Y-7574579D02*
X4051015Y-7612674D01*
X4051015Y-7612674D02*
X4051015Y-7660293D01*
X4051015Y-7660293D02*
X4041491Y-7698388D01*
X4041491Y-7698388D02*
X4031967Y-7717436D01*
X4031967Y-7717436D02*
X4022444Y-7726960D01*
X4022444Y-7726960D02*
X4003396Y-7736484D01*
X4003396Y-7736484D02*
X3984348Y-7736484D01*
X3984348Y-7736484D02*
X3965301Y-7726960D01*
X3965301Y-7726960D02*
X3955777Y-7717436D01*
X3955777Y-7717436D02*
X3946253Y-7698388D01*
X3946253Y-7698388D02*
X3936729Y-7660293D01*
X3936729Y-7660293D02*
X3936729Y-7612674D01*
X3936729Y-7612674D02*
X3946253Y-7574579D01*
X3946253Y-7574579D02*
X3955777Y-7555531D01*
X3955777Y-7555531D02*
X3965301Y-7546008D01*
X3965301Y-7546008D02*
X3984348Y-7536484D01*
X4222444Y-7536484D02*
X4184348Y-7536484D01*
X4184348Y-7536484D02*
X4165301Y-7546008D01*
X4165301Y-7546008D02*
X4155777Y-7555531D01*
X4155777Y-7555531D02*
X4136729Y-7584103D01*
X4136729Y-7584103D02*
X4127206Y-7622198D01*
X4127206Y-7622198D02*
X4127206Y-7698388D01*
X4127206Y-7698388D02*
X4136729Y-7717436D01*
X4136729Y-7717436D02*
X4146253Y-7726960D01*
X4146253Y-7726960D02*
X4165301Y-7736484D01*
X4165301Y-7736484D02*
X4203396Y-7736484D01*
X4203396Y-7736484D02*
X4222444Y-7726960D01*
X4222444Y-7726960D02*
X4231968Y-7717436D01*
X4231968Y-7717436D02*
X4241491Y-7698388D01*
X4241491Y-7698388D02*
X4241491Y-7650769D01*
X4241491Y-7650769D02*
X4231968Y-7631722D01*
X4231968Y-7631722D02*
X4222444Y-7622198D01*
X4222444Y-7622198D02*
X4203396Y-7612674D01*
X4203396Y-7612674D02*
X4165301Y-7612674D01*
X4165301Y-7612674D02*
X4146253Y-7622198D01*
X4146253Y-7622198D02*
X4136729Y-7631722D01*
X4136729Y-7631722D02*
X4127206Y-7650769D01*
X4422444Y-7536484D02*
X4327206Y-7536484D01*
X4327206Y-7536484D02*
X4317682Y-7631722D01*
X4317682Y-7631722D02*
X4327206Y-7622198D01*
X4327206Y-7622198D02*
X4346253Y-7612674D01*
X4346253Y-7612674D02*
X4393872Y-7612674D01*
X4393872Y-7612674D02*
X4412920Y-7622198D01*
X4412920Y-7622198D02*
X4422444Y-7631722D01*
X4422444Y-7631722D02*
X4431968Y-7650769D01*
X4431968Y-7650769D02*
X4431968Y-7698388D01*
X4431968Y-7698388D02*
X4422444Y-7717436D01*
X4422444Y-7717436D02*
X4412920Y-7726960D01*
X4412920Y-7726960D02*
X4393872Y-7736484D01*
X4393872Y-7736484D02*
X4346253Y-7736484D01*
X4346253Y-7736484D02*
X4327206Y-7726960D01*
X4327206Y-7726960D02*
X4317682Y-7717436D01*
X4555777Y-7536484D02*
X4574825Y-7536484D01*
X4574825Y-7536484D02*
X4593872Y-7546008D01*
X4593872Y-7546008D02*
X4603396Y-7555531D01*
X4603396Y-7555531D02*
X4612920Y-7574579D01*
X4612920Y-7574579D02*
X4622444Y-7612674D01*
X4622444Y-7612674D02*
X4622444Y-7660293D01*
X4622444Y-7660293D02*
X4612920Y-7698388D01*
X4612920Y-7698388D02*
X4603396Y-7717436D01*
X4603396Y-7717436D02*
X4593872Y-7726960D01*
X4593872Y-7726960D02*
X4574825Y-7736484D01*
X4574825Y-7736484D02*
X4555777Y-7736484D01*
X4555777Y-7736484D02*
X4536729Y-7726960D01*
X4536729Y-7726960D02*
X4527206Y-7717436D01*
X4527206Y-7717436D02*
X4517682Y-7698388D01*
X4517682Y-7698388D02*
X4508158Y-7660293D01*
X4508158Y-7660293D02*
X4508158Y-7612674D01*
X4508158Y-7612674D02*
X4517682Y-7574579D01*
X4517682Y-7574579D02*
X4527206Y-7555531D01*
X4527206Y-7555531D02*
X4536729Y-7546008D01*
X4536729Y-7546008D02*
X4555777Y-7536484D01*
X4698634Y-7536484D02*
X4698634Y-7574579D01*
X4774825Y-7536484D02*
X4774825Y-7574579D01*
X5070063Y-7812674D02*
X5060539Y-7803150D01*
X5060539Y-7803150D02*
X5041491Y-7774579D01*
X5041491Y-7774579D02*
X5031968Y-7755531D01*
X5031968Y-7755531D02*
X5022444Y-7726960D01*
X5022444Y-7726960D02*
X5012920Y-7679341D01*
X5012920Y-7679341D02*
X5012920Y-7641246D01*
X5012920Y-7641246D02*
X5022444Y-7593627D01*
X5022444Y-7593627D02*
X5031968Y-7565055D01*
X5031968Y-7565055D02*
X5041491Y-7546008D01*
X5041491Y-7546008D02*
X5060539Y-7517436D01*
X5060539Y-7517436D02*
X5070063Y-7507912D01*
X5127206Y-7536484D02*
X5251015Y-7536484D01*
X5251015Y-7536484D02*
X5184349Y-7612674D01*
X5184349Y-7612674D02*
X5212920Y-7612674D01*
X5212920Y-7612674D02*
X5231968Y-7622198D01*
X5231968Y-7622198D02*
X5241491Y-7631722D01*
X5241491Y-7631722D02*
X5251015Y-7650769D01*
X5251015Y-7650769D02*
X5251015Y-7698388D01*
X5251015Y-7698388D02*
X5241491Y-7717436D01*
X5241491Y-7717436D02*
X5231968Y-7726960D01*
X5231968Y-7726960D02*
X5212920Y-7736484D01*
X5212920Y-7736484D02*
X5155777Y-7736484D01*
X5155777Y-7736484D02*
X5136730Y-7726960D01*
X5136730Y-7726960D02*
X5127206Y-7717436D01*
X5489111Y-7736484D02*
X5489111Y-7536484D01*
X5574825Y-7736484D02*
X5574825Y-7631722D01*
X5574825Y-7631722D02*
X5565301Y-7612674D01*
X5565301Y-7612674D02*
X5546253Y-7603150D01*
X5546253Y-7603150D02*
X5517682Y-7603150D01*
X5517682Y-7603150D02*
X5498634Y-7612674D01*
X5498634Y-7612674D02*
X5489111Y-7622198D01*
X5698634Y-7736484D02*
X5679587Y-7726960D01*
X5679587Y-7726960D02*
X5670063Y-7717436D01*
X5670063Y-7717436D02*
X5660539Y-7698388D01*
X5660539Y-7698388D02*
X5660539Y-7641246D01*
X5660539Y-7641246D02*
X5670063Y-7622198D01*
X5670063Y-7622198D02*
X5679587Y-7612674D01*
X5679587Y-7612674D02*
X5698634Y-7603150D01*
X5698634Y-7603150D02*
X5727206Y-7603150D01*
X5727206Y-7603150D02*
X5746253Y-7612674D01*
X5746253Y-7612674D02*
X5755777Y-7622198D01*
X5755777Y-7622198D02*
X5765301Y-7641246D01*
X5765301Y-7641246D02*
X5765301Y-7698388D01*
X5765301Y-7698388D02*
X5755777Y-7717436D01*
X5755777Y-7717436D02*
X5746253Y-7726960D01*
X5746253Y-7726960D02*
X5727206Y-7736484D01*
X5727206Y-7736484D02*
X5698634Y-7736484D01*
X5879587Y-7736484D02*
X5860539Y-7726960D01*
X5860539Y-7726960D02*
X5851015Y-7707912D01*
X5851015Y-7707912D02*
X5851015Y-7536484D01*
X6031968Y-7726960D02*
X6012920Y-7736484D01*
X6012920Y-7736484D02*
X5974825Y-7736484D01*
X5974825Y-7736484D02*
X5955777Y-7726960D01*
X5955777Y-7726960D02*
X5946253Y-7707912D01*
X5946253Y-7707912D02*
X5946253Y-7631722D01*
X5946253Y-7631722D02*
X5955777Y-7612674D01*
X5955777Y-7612674D02*
X5974825Y-7603150D01*
X5974825Y-7603150D02*
X6012920Y-7603150D01*
X6012920Y-7603150D02*
X6031968Y-7612674D01*
X6031968Y-7612674D02*
X6041491Y-7631722D01*
X6041491Y-7631722D02*
X6041491Y-7650769D01*
X6041491Y-7650769D02*
X5946253Y-7669817D01*
X6117682Y-7726960D02*
X6136730Y-7736484D01*
X6136730Y-7736484D02*
X6174825Y-7736484D01*
X6174825Y-7736484D02*
X6193872Y-7726960D01*
X6193872Y-7726960D02*
X6203396Y-7707912D01*
X6203396Y-7707912D02*
X6203396Y-7698388D01*
X6203396Y-7698388D02*
X6193872Y-7679341D01*
X6193872Y-7679341D02*
X6174825Y-7669817D01*
X6174825Y-7669817D02*
X6146253Y-7669817D01*
X6146253Y-7669817D02*
X6127206Y-7660293D01*
X6127206Y-7660293D02*
X6117682Y-7641246D01*
X6117682Y-7641246D02*
X6117682Y-7631722D01*
X6117682Y-7631722D02*
X6127206Y-7612674D01*
X6127206Y-7612674D02*
X6146253Y-7603150D01*
X6146253Y-7603150D02*
X6174825Y-7603150D01*
X6174825Y-7603150D02*
X6193872Y-7612674D01*
X6270063Y-7812674D02*
X6279587Y-7803150D01*
X6279587Y-7803150D02*
X6298634Y-7774579D01*
X6298634Y-7774579D02*
X6308158Y-7755531D01*
X6308158Y-7755531D02*
X6317682Y-7726960D01*
X6317682Y-7726960D02*
X6327206Y-7679341D01*
X6327206Y-7679341D02*
X6327206Y-7641246D01*
X6327206Y-7641246D02*
X6317682Y-7593627D01*
X6317682Y-7593627D02*
X6308158Y-7565055D01*
X6308158Y-7565055D02*
X6298634Y-7546008D01*
X6298634Y-7546008D02*
X6279587Y-7517436D01*
X6279587Y-7517436D02*
X6270063Y-7507912D01*
X6631968Y-7812674D02*
X6622444Y-7803150D01*
X6622444Y-7803150D02*
X6603396Y-7774579D01*
X6603396Y-7774579D02*
X6593872Y-7755531D01*
X6593872Y-7755531D02*
X6584349Y-7726960D01*
X6584349Y-7726960D02*
X6574825Y-7679341D01*
X6574825Y-7679341D02*
X6574825Y-7641246D01*
X6574825Y-7641246D02*
X6584349Y-7593627D01*
X6584349Y-7593627D02*
X6593872Y-7565055D01*
X6593872Y-7565055D02*
X6603396Y-7546008D01*
X6603396Y-7546008D02*
X6622444Y-7517436D01*
X6622444Y-7517436D02*
X6631968Y-7507912D01*
X6708158Y-7603150D02*
X6708158Y-7736484D01*
X6708158Y-7622198D02*
X6717682Y-7612674D01*
X6717682Y-7612674D02*
X6736730Y-7603150D01*
X6736730Y-7603150D02*
X6765301Y-7603150D01*
X6765301Y-7603150D02*
X6784349Y-7612674D01*
X6784349Y-7612674D02*
X6793872Y-7631722D01*
X6793872Y-7631722D02*
X6793872Y-7736484D01*
X6917682Y-7736484D02*
X6898634Y-7726960D01*
X6898634Y-7726960D02*
X6889111Y-7717436D01*
X6889111Y-7717436D02*
X6879587Y-7698388D01*
X6879587Y-7698388D02*
X6879587Y-7641246D01*
X6879587Y-7641246D02*
X6889111Y-7622198D01*
X6889111Y-7622198D02*
X6898634Y-7612674D01*
X6898634Y-7612674D02*
X6917682Y-7603150D01*
X6917682Y-7603150D02*
X6946253Y-7603150D01*
X6946253Y-7603150D02*
X6965301Y-7612674D01*
X6965301Y-7612674D02*
X6974825Y-7622198D01*
X6974825Y-7622198D02*
X6984349Y-7641246D01*
X6984349Y-7641246D02*
X6984349Y-7698388D01*
X6984349Y-7698388D02*
X6974825Y-7717436D01*
X6974825Y-7717436D02*
X6965301Y-7726960D01*
X6965301Y-7726960D02*
X6946253Y-7736484D01*
X6946253Y-7736484D02*
X6917682Y-7736484D01*
X7041492Y-7603150D02*
X7117682Y-7603150D01*
X7070063Y-7536484D02*
X7070063Y-7707912D01*
X7070063Y-7707912D02*
X7079587Y-7726960D01*
X7079587Y-7726960D02*
X7098634Y-7736484D01*
X7098634Y-7736484D02*
X7117682Y-7736484D01*
X7336730Y-7603150D02*
X7336730Y-7803150D01*
X7336730Y-7612674D02*
X7355777Y-7603150D01*
X7355777Y-7603150D02*
X7393873Y-7603150D01*
X7393873Y-7603150D02*
X7412920Y-7612674D01*
X7412920Y-7612674D02*
X7422444Y-7622198D01*
X7422444Y-7622198D02*
X7431968Y-7641246D01*
X7431968Y-7641246D02*
X7431968Y-7698388D01*
X7431968Y-7698388D02*
X7422444Y-7717436D01*
X7422444Y-7717436D02*
X7412920Y-7726960D01*
X7412920Y-7726960D02*
X7393873Y-7736484D01*
X7393873Y-7736484D02*
X7355777Y-7736484D01*
X7355777Y-7736484D02*
X7336730Y-7726960D01*
X7546253Y-7736484D02*
X7527206Y-7726960D01*
X7527206Y-7726960D02*
X7517682Y-7707912D01*
X7517682Y-7707912D02*
X7517682Y-7536484D01*
X7708158Y-7736484D02*
X7708158Y-7631722D01*
X7708158Y-7631722D02*
X7698634Y-7612674D01*
X7698634Y-7612674D02*
X7679587Y-7603150D01*
X7679587Y-7603150D02*
X7641492Y-7603150D01*
X7641492Y-7603150D02*
X7622444Y-7612674D01*
X7708158Y-7726960D02*
X7689111Y-7736484D01*
X7689111Y-7736484D02*
X7641492Y-7736484D01*
X7641492Y-7736484D02*
X7622444Y-7726960D01*
X7622444Y-7726960D02*
X7612920Y-7707912D01*
X7612920Y-7707912D02*
X7612920Y-7688865D01*
X7612920Y-7688865D02*
X7622444Y-7669817D01*
X7622444Y-7669817D02*
X7641492Y-7660293D01*
X7641492Y-7660293D02*
X7689111Y-7660293D01*
X7689111Y-7660293D02*
X7708158Y-7650769D01*
X7774825Y-7603150D02*
X7851015Y-7603150D01*
X7803396Y-7536484D02*
X7803396Y-7707912D01*
X7803396Y-7707912D02*
X7812920Y-7726960D01*
X7812920Y-7726960D02*
X7831968Y-7736484D01*
X7831968Y-7736484D02*
X7851015Y-7736484D01*
X7993873Y-7726960D02*
X7974825Y-7736484D01*
X7974825Y-7736484D02*
X7936730Y-7736484D01*
X7936730Y-7736484D02*
X7917682Y-7726960D01*
X7917682Y-7726960D02*
X7908158Y-7707912D01*
X7908158Y-7707912D02*
X7908158Y-7631722D01*
X7908158Y-7631722D02*
X7917682Y-7612674D01*
X7917682Y-7612674D02*
X7936730Y-7603150D01*
X7936730Y-7603150D02*
X7974825Y-7603150D01*
X7974825Y-7603150D02*
X7993873Y-7612674D01*
X7993873Y-7612674D02*
X8003396Y-7631722D01*
X8003396Y-7631722D02*
X8003396Y-7650769D01*
X8003396Y-7650769D02*
X7908158Y-7669817D01*
X8174825Y-7736484D02*
X8174825Y-7536484D01*
X8174825Y-7726960D02*
X8155777Y-7736484D01*
X8155777Y-7736484D02*
X8117682Y-7736484D01*
X8117682Y-7736484D02*
X8098634Y-7726960D01*
X8098634Y-7726960D02*
X8089111Y-7717436D01*
X8089111Y-7717436D02*
X8079587Y-7698388D01*
X8079587Y-7698388D02*
X8079587Y-7641246D01*
X8079587Y-7641246D02*
X8089111Y-7622198D01*
X8089111Y-7622198D02*
X8098634Y-7612674D01*
X8098634Y-7612674D02*
X8117682Y-7603150D01*
X8117682Y-7603150D02*
X8155777Y-7603150D01*
X8155777Y-7603150D02*
X8174825Y-7612674D01*
X8251015Y-7812674D02*
X8260539Y-7803150D01*
X8260539Y-7803150D02*
X8279587Y-7774579D01*
X8279587Y-7774579D02*
X8289111Y-7755531D01*
X8289111Y-7755531D02*
X8298634Y-7726960D01*
X8298634Y-7726960D02*
X8308158Y-7679341D01*
X8308158Y-7679341D02*
X8308158Y-7641246D01*
X8308158Y-7641246D02*
X8298634Y-7593627D01*
X8298634Y-7593627D02*
X8289111Y-7565055D01*
X8289111Y-7565055D02*
X8279587Y-7546008D01*
X8279587Y-7546008D02*
X8260539Y-7517436D01*
X8260539Y-7517436D02*
X8251015Y-7507912D01*
D13*
X1495000Y-7930000D02*
G75*
G02*
X1325000Y-7930000I-85000J0D01*
G01*
X1325000Y-7930000D02*
G75*
G02*
X1495000Y-7930000I85000J0D01*
G01*
D11*
X1860539Y-8021484D02*
X1746253Y-8021484D01*
X1803396Y-8021484D02*
X1803396Y-7821484D01*
X1803396Y-7821484D02*
X1784348Y-7850055D01*
X1784348Y-7850055D02*
X1765301Y-7869103D01*
X1765301Y-7869103D02*
X1746253Y-7878627D01*
X1946253Y-8002436D02*
X1955777Y-8011960D01*
X1955777Y-8011960D02*
X1946253Y-8021484D01*
X1946253Y-8021484D02*
X1936729Y-8011960D01*
X1936729Y-8011960D02*
X1946253Y-8002436D01*
X1946253Y-8002436D02*
X1946253Y-8021484D01*
X2022443Y-7821484D02*
X2155777Y-7821484D01*
X2155777Y-7821484D02*
X2070062Y-8021484D01*
X2270063Y-7821484D02*
X2289110Y-7821484D01*
X2289110Y-7821484D02*
X2308158Y-7831008D01*
X2308158Y-7831008D02*
X2317682Y-7840531D01*
X2317682Y-7840531D02*
X2327205Y-7859579D01*
X2327205Y-7859579D02*
X2336729Y-7897674D01*
X2336729Y-7897674D02*
X2336729Y-7945293D01*
X2336729Y-7945293D02*
X2327205Y-7983388D01*
X2327205Y-7983388D02*
X2317682Y-8002436D01*
X2317682Y-8002436D02*
X2308158Y-8011960D01*
X2308158Y-8011960D02*
X2289110Y-8021484D01*
X2289110Y-8021484D02*
X2270063Y-8021484D01*
X2270063Y-8021484D02*
X2251015Y-8011960D01*
X2251015Y-8011960D02*
X2241491Y-8002436D01*
X2241491Y-8002436D02*
X2231967Y-7983388D01*
X2231967Y-7983388D02*
X2222444Y-7945293D01*
X2222444Y-7945293D02*
X2222444Y-7897674D01*
X2222444Y-7897674D02*
X2231967Y-7859579D01*
X2231967Y-7859579D02*
X2241491Y-7840531D01*
X2241491Y-7840531D02*
X2251015Y-7831008D01*
X2251015Y-7831008D02*
X2270063Y-7821484D01*
X2460539Y-7821484D02*
X2479586Y-7821484D01*
X2479586Y-7821484D02*
X2498634Y-7831008D01*
X2498634Y-7831008D02*
X2508158Y-7840531D01*
X2508158Y-7840531D02*
X2517682Y-7859579D01*
X2517682Y-7859579D02*
X2527205Y-7897674D01*
X2527205Y-7897674D02*
X2527205Y-7945293D01*
X2527205Y-7945293D02*
X2517682Y-7983388D01*
X2517682Y-7983388D02*
X2508158Y-8002436D01*
X2508158Y-8002436D02*
X2498634Y-8011960D01*
X2498634Y-8011960D02*
X2479586Y-8021484D01*
X2479586Y-8021484D02*
X2460539Y-8021484D01*
X2460539Y-8021484D02*
X2441491Y-8011960D01*
X2441491Y-8011960D02*
X2431967Y-8002436D01*
X2431967Y-8002436D02*
X2422444Y-7983388D01*
X2422444Y-7983388D02*
X2412920Y-7945293D01*
X2412920Y-7945293D02*
X2412920Y-7897674D01*
X2412920Y-7897674D02*
X2422444Y-7859579D01*
X2422444Y-7859579D02*
X2431967Y-7840531D01*
X2431967Y-7840531D02*
X2441491Y-7831008D01*
X2441491Y-7831008D02*
X2460539Y-7821484D01*
X2612920Y-8021484D02*
X2612920Y-7888150D01*
X2612920Y-7907198D02*
X2622444Y-7897674D01*
X2622444Y-7897674D02*
X2641491Y-7888150D01*
X2641491Y-7888150D02*
X2670063Y-7888150D01*
X2670063Y-7888150D02*
X2689110Y-7897674D01*
X2689110Y-7897674D02*
X2698634Y-7916722D01*
X2698634Y-7916722D02*
X2698634Y-8021484D01*
X2698634Y-7916722D02*
X2708158Y-7897674D01*
X2708158Y-7897674D02*
X2727205Y-7888150D01*
X2727205Y-7888150D02*
X2755777Y-7888150D01*
X2755777Y-7888150D02*
X2774825Y-7897674D01*
X2774825Y-7897674D02*
X2784348Y-7916722D01*
X2784348Y-7916722D02*
X2784348Y-8021484D01*
X2879586Y-8021484D02*
X2879586Y-7888150D01*
X2879586Y-7907198D02*
X2889110Y-7897674D01*
X2889110Y-7897674D02*
X2908158Y-7888150D01*
X2908158Y-7888150D02*
X2936729Y-7888150D01*
X2936729Y-7888150D02*
X2955777Y-7897674D01*
X2955777Y-7897674D02*
X2965301Y-7916722D01*
X2965301Y-7916722D02*
X2965301Y-8021484D01*
X2965301Y-7916722D02*
X2974824Y-7897674D01*
X2974824Y-7897674D02*
X2993872Y-7888150D01*
X2993872Y-7888150D02*
X3022443Y-7888150D01*
X3022443Y-7888150D02*
X3041491Y-7897674D01*
X3041491Y-7897674D02*
X3051015Y-7916722D01*
X3051015Y-7916722D02*
X3051015Y-8021484D01*
X3441491Y-7811960D02*
X3270063Y-8069103D01*
X3698634Y-7821484D02*
X3717682Y-7821484D01*
X3717682Y-7821484D02*
X3736729Y-7831008D01*
X3736729Y-7831008D02*
X3746253Y-7840531D01*
X3746253Y-7840531D02*
X3755777Y-7859579D01*
X3755777Y-7859579D02*
X3765301Y-7897674D01*
X3765301Y-7897674D02*
X3765301Y-7945293D01*
X3765301Y-7945293D02*
X3755777Y-7983388D01*
X3755777Y-7983388D02*
X3746253Y-8002436D01*
X3746253Y-8002436D02*
X3736729Y-8011960D01*
X3736729Y-8011960D02*
X3717682Y-8021484D01*
X3717682Y-8021484D02*
X3698634Y-8021484D01*
X3698634Y-8021484D02*
X3679586Y-8011960D01*
X3679586Y-8011960D02*
X3670063Y-8002436D01*
X3670063Y-8002436D02*
X3660539Y-7983388D01*
X3660539Y-7983388D02*
X3651015Y-7945293D01*
X3651015Y-7945293D02*
X3651015Y-7897674D01*
X3651015Y-7897674D02*
X3660539Y-7859579D01*
X3660539Y-7859579D02*
X3670063Y-7840531D01*
X3670063Y-7840531D02*
X3679586Y-7831008D01*
X3679586Y-7831008D02*
X3698634Y-7821484D01*
X3851015Y-8002436D02*
X3860539Y-8011960D01*
X3860539Y-8011960D02*
X3851015Y-8021484D01*
X3851015Y-8021484D02*
X3841491Y-8011960D01*
X3841491Y-8011960D02*
X3851015Y-8002436D01*
X3851015Y-8002436D02*
X3851015Y-8021484D01*
X3984348Y-7821484D02*
X4003396Y-7821484D01*
X4003396Y-7821484D02*
X4022444Y-7831008D01*
X4022444Y-7831008D02*
X4031967Y-7840531D01*
X4031967Y-7840531D02*
X4041491Y-7859579D01*
X4041491Y-7859579D02*
X4051015Y-7897674D01*
X4051015Y-7897674D02*
X4051015Y-7945293D01*
X4051015Y-7945293D02*
X4041491Y-7983388D01*
X4041491Y-7983388D02*
X4031967Y-8002436D01*
X4031967Y-8002436D02*
X4022444Y-8011960D01*
X4022444Y-8011960D02*
X4003396Y-8021484D01*
X4003396Y-8021484D02*
X3984348Y-8021484D01*
X3984348Y-8021484D02*
X3965301Y-8011960D01*
X3965301Y-8011960D02*
X3955777Y-8002436D01*
X3955777Y-8002436D02*
X3946253Y-7983388D01*
X3946253Y-7983388D02*
X3936729Y-7945293D01*
X3936729Y-7945293D02*
X3936729Y-7897674D01*
X3936729Y-7897674D02*
X3946253Y-7859579D01*
X3946253Y-7859579D02*
X3955777Y-7840531D01*
X3955777Y-7840531D02*
X3965301Y-7831008D01*
X3965301Y-7831008D02*
X3984348Y-7821484D01*
X4222444Y-7821484D02*
X4184348Y-7821484D01*
X4184348Y-7821484D02*
X4165301Y-7831008D01*
X4165301Y-7831008D02*
X4155777Y-7840531D01*
X4155777Y-7840531D02*
X4136729Y-7869103D01*
X4136729Y-7869103D02*
X4127206Y-7907198D01*
X4127206Y-7907198D02*
X4127206Y-7983388D01*
X4127206Y-7983388D02*
X4136729Y-8002436D01*
X4136729Y-8002436D02*
X4146253Y-8011960D01*
X4146253Y-8011960D02*
X4165301Y-8021484D01*
X4165301Y-8021484D02*
X4203396Y-8021484D01*
X4203396Y-8021484D02*
X4222444Y-8011960D01*
X4222444Y-8011960D02*
X4231968Y-8002436D01*
X4231968Y-8002436D02*
X4241491Y-7983388D01*
X4241491Y-7983388D02*
X4241491Y-7935769D01*
X4241491Y-7935769D02*
X4231968Y-7916722D01*
X4231968Y-7916722D02*
X4222444Y-7907198D01*
X4222444Y-7907198D02*
X4203396Y-7897674D01*
X4203396Y-7897674D02*
X4165301Y-7897674D01*
X4165301Y-7897674D02*
X4146253Y-7907198D01*
X4146253Y-7907198D02*
X4136729Y-7916722D01*
X4136729Y-7916722D02*
X4127206Y-7935769D01*
X4412920Y-7821484D02*
X4374825Y-7821484D01*
X4374825Y-7821484D02*
X4355777Y-7831008D01*
X4355777Y-7831008D02*
X4346253Y-7840531D01*
X4346253Y-7840531D02*
X4327206Y-7869103D01*
X4327206Y-7869103D02*
X4317682Y-7907198D01*
X4317682Y-7907198D02*
X4317682Y-7983388D01*
X4317682Y-7983388D02*
X4327206Y-8002436D01*
X4327206Y-8002436D02*
X4336729Y-8011960D01*
X4336729Y-8011960D02*
X4355777Y-8021484D01*
X4355777Y-8021484D02*
X4393872Y-8021484D01*
X4393872Y-8021484D02*
X4412920Y-8011960D01*
X4412920Y-8011960D02*
X4422444Y-8002436D01*
X4422444Y-8002436D02*
X4431968Y-7983388D01*
X4431968Y-7983388D02*
X4431968Y-7935769D01*
X4431968Y-7935769D02*
X4422444Y-7916722D01*
X4422444Y-7916722D02*
X4412920Y-7907198D01*
X4412920Y-7907198D02*
X4393872Y-7897674D01*
X4393872Y-7897674D02*
X4355777Y-7897674D01*
X4355777Y-7897674D02*
X4336729Y-7907198D01*
X4336729Y-7907198D02*
X4327206Y-7916722D01*
X4327206Y-7916722D02*
X4317682Y-7935769D01*
X4527206Y-8021484D02*
X4565301Y-8021484D01*
X4565301Y-8021484D02*
X4584349Y-8011960D01*
X4584349Y-8011960D02*
X4593872Y-8002436D01*
X4593872Y-8002436D02*
X4612920Y-7973865D01*
X4612920Y-7973865D02*
X4622444Y-7935769D01*
X4622444Y-7935769D02*
X4622444Y-7859579D01*
X4622444Y-7859579D02*
X4612920Y-7840531D01*
X4612920Y-7840531D02*
X4603396Y-7831008D01*
X4603396Y-7831008D02*
X4584349Y-7821484D01*
X4584349Y-7821484D02*
X4546253Y-7821484D01*
X4546253Y-7821484D02*
X4527206Y-7831008D01*
X4527206Y-7831008D02*
X4517682Y-7840531D01*
X4517682Y-7840531D02*
X4508158Y-7859579D01*
X4508158Y-7859579D02*
X4508158Y-7907198D01*
X4508158Y-7907198D02*
X4517682Y-7926246D01*
X4517682Y-7926246D02*
X4527206Y-7935769D01*
X4527206Y-7935769D02*
X4546253Y-7945293D01*
X4546253Y-7945293D02*
X4584349Y-7945293D01*
X4584349Y-7945293D02*
X4603396Y-7935769D01*
X4603396Y-7935769D02*
X4612920Y-7926246D01*
X4612920Y-7926246D02*
X4622444Y-7907198D01*
X4698634Y-7821484D02*
X4698634Y-7859579D01*
X4774825Y-7821484D02*
X4774825Y-7859579D01*
X5070063Y-8097674D02*
X5060539Y-8088150D01*
X5060539Y-8088150D02*
X5041491Y-8059579D01*
X5041491Y-8059579D02*
X5031968Y-8040531D01*
X5031968Y-8040531D02*
X5022444Y-8011960D01*
X5022444Y-8011960D02*
X5012920Y-7964341D01*
X5012920Y-7964341D02*
X5012920Y-7926246D01*
X5012920Y-7926246D02*
X5022444Y-7878627D01*
X5022444Y-7878627D02*
X5031968Y-7850055D01*
X5031968Y-7850055D02*
X5041491Y-7831008D01*
X5041491Y-7831008D02*
X5060539Y-7802436D01*
X5060539Y-7802436D02*
X5070063Y-7792912D01*
X5231968Y-7821484D02*
X5193872Y-7821484D01*
X5193872Y-7821484D02*
X5174825Y-7831008D01*
X5174825Y-7831008D02*
X5165301Y-7840531D01*
X5165301Y-7840531D02*
X5146253Y-7869103D01*
X5146253Y-7869103D02*
X5136730Y-7907198D01*
X5136730Y-7907198D02*
X5136730Y-7983388D01*
X5136730Y-7983388D02*
X5146253Y-8002436D01*
X5146253Y-8002436D02*
X5155777Y-8011960D01*
X5155777Y-8011960D02*
X5174825Y-8021484D01*
X5174825Y-8021484D02*
X5212920Y-8021484D01*
X5212920Y-8021484D02*
X5231968Y-8011960D01*
X5231968Y-8011960D02*
X5241491Y-8002436D01*
X5241491Y-8002436D02*
X5251015Y-7983388D01*
X5251015Y-7983388D02*
X5251015Y-7935769D01*
X5251015Y-7935769D02*
X5241491Y-7916722D01*
X5241491Y-7916722D02*
X5231968Y-7907198D01*
X5231968Y-7907198D02*
X5212920Y-7897674D01*
X5212920Y-7897674D02*
X5174825Y-7897674D01*
X5174825Y-7897674D02*
X5155777Y-7907198D01*
X5155777Y-7907198D02*
X5146253Y-7916722D01*
X5146253Y-7916722D02*
X5136730Y-7935769D01*
X5489111Y-8021484D02*
X5489111Y-7821484D01*
X5574825Y-8021484D02*
X5574825Y-7916722D01*
X5574825Y-7916722D02*
X5565301Y-7897674D01*
X5565301Y-7897674D02*
X5546253Y-7888150D01*
X5546253Y-7888150D02*
X5517682Y-7888150D01*
X5517682Y-7888150D02*
X5498634Y-7897674D01*
X5498634Y-7897674D02*
X5489111Y-7907198D01*
X5698634Y-8021484D02*
X5679587Y-8011960D01*
X5679587Y-8011960D02*
X5670063Y-8002436D01*
X5670063Y-8002436D02*
X5660539Y-7983388D01*
X5660539Y-7983388D02*
X5660539Y-7926246D01*
X5660539Y-7926246D02*
X5670063Y-7907198D01*
X5670063Y-7907198D02*
X5679587Y-7897674D01*
X5679587Y-7897674D02*
X5698634Y-7888150D01*
X5698634Y-7888150D02*
X5727206Y-7888150D01*
X5727206Y-7888150D02*
X5746253Y-7897674D01*
X5746253Y-7897674D02*
X5755777Y-7907198D01*
X5755777Y-7907198D02*
X5765301Y-7926246D01*
X5765301Y-7926246D02*
X5765301Y-7983388D01*
X5765301Y-7983388D02*
X5755777Y-8002436D01*
X5755777Y-8002436D02*
X5746253Y-8011960D01*
X5746253Y-8011960D02*
X5727206Y-8021484D01*
X5727206Y-8021484D02*
X5698634Y-8021484D01*
X5879587Y-8021484D02*
X5860539Y-8011960D01*
X5860539Y-8011960D02*
X5851015Y-7992912D01*
X5851015Y-7992912D02*
X5851015Y-7821484D01*
X6031968Y-8011960D02*
X6012920Y-8021484D01*
X6012920Y-8021484D02*
X5974825Y-8021484D01*
X5974825Y-8021484D02*
X5955777Y-8011960D01*
X5955777Y-8011960D02*
X5946253Y-7992912D01*
X5946253Y-7992912D02*
X5946253Y-7916722D01*
X5946253Y-7916722D02*
X5955777Y-7897674D01*
X5955777Y-7897674D02*
X5974825Y-7888150D01*
X5974825Y-7888150D02*
X6012920Y-7888150D01*
X6012920Y-7888150D02*
X6031968Y-7897674D01*
X6031968Y-7897674D02*
X6041491Y-7916722D01*
X6041491Y-7916722D02*
X6041491Y-7935769D01*
X6041491Y-7935769D02*
X5946253Y-7954817D01*
X6117682Y-8011960D02*
X6136730Y-8021484D01*
X6136730Y-8021484D02*
X6174825Y-8021484D01*
X6174825Y-8021484D02*
X6193872Y-8011960D01*
X6193872Y-8011960D02*
X6203396Y-7992912D01*
X6203396Y-7992912D02*
X6203396Y-7983388D01*
X6203396Y-7983388D02*
X6193872Y-7964341D01*
X6193872Y-7964341D02*
X6174825Y-7954817D01*
X6174825Y-7954817D02*
X6146253Y-7954817D01*
X6146253Y-7954817D02*
X6127206Y-7945293D01*
X6127206Y-7945293D02*
X6117682Y-7926246D01*
X6117682Y-7926246D02*
X6117682Y-7916722D01*
X6117682Y-7916722D02*
X6127206Y-7897674D01*
X6127206Y-7897674D02*
X6146253Y-7888150D01*
X6146253Y-7888150D02*
X6174825Y-7888150D01*
X6174825Y-7888150D02*
X6193872Y-7897674D01*
X6270063Y-8097674D02*
X6279587Y-8088150D01*
X6279587Y-8088150D02*
X6298634Y-8059579D01*
X6298634Y-8059579D02*
X6308158Y-8040531D01*
X6308158Y-8040531D02*
X6317682Y-8011960D01*
X6317682Y-8011960D02*
X6327206Y-7964341D01*
X6327206Y-7964341D02*
X6327206Y-7926246D01*
X6327206Y-7926246D02*
X6317682Y-7878627D01*
X6317682Y-7878627D02*
X6308158Y-7850055D01*
X6308158Y-7850055D02*
X6298634Y-7831008D01*
X6298634Y-7831008D02*
X6279587Y-7802436D01*
X6279587Y-7802436D02*
X6270063Y-7792912D01*
X6631968Y-8097674D02*
X6622444Y-8088150D01*
X6622444Y-8088150D02*
X6603396Y-8059579D01*
X6603396Y-8059579D02*
X6593872Y-8040531D01*
X6593872Y-8040531D02*
X6584349Y-8011960D01*
X6584349Y-8011960D02*
X6574825Y-7964341D01*
X6574825Y-7964341D02*
X6574825Y-7926246D01*
X6574825Y-7926246D02*
X6584349Y-7878627D01*
X6584349Y-7878627D02*
X6593872Y-7850055D01*
X6593872Y-7850055D02*
X6603396Y-7831008D01*
X6603396Y-7831008D02*
X6622444Y-7802436D01*
X6622444Y-7802436D02*
X6631968Y-7792912D01*
X6708158Y-7888150D02*
X6708158Y-8021484D01*
X6708158Y-7907198D02*
X6717682Y-7897674D01*
X6717682Y-7897674D02*
X6736730Y-7888150D01*
X6736730Y-7888150D02*
X6765301Y-7888150D01*
X6765301Y-7888150D02*
X6784349Y-7897674D01*
X6784349Y-7897674D02*
X6793872Y-7916722D01*
X6793872Y-7916722D02*
X6793872Y-8021484D01*
X6917682Y-8021484D02*
X6898634Y-8011960D01*
X6898634Y-8011960D02*
X6889111Y-8002436D01*
X6889111Y-8002436D02*
X6879587Y-7983388D01*
X6879587Y-7983388D02*
X6879587Y-7926246D01*
X6879587Y-7926246D02*
X6889111Y-7907198D01*
X6889111Y-7907198D02*
X6898634Y-7897674D01*
X6898634Y-7897674D02*
X6917682Y-7888150D01*
X6917682Y-7888150D02*
X6946253Y-7888150D01*
X6946253Y-7888150D02*
X6965301Y-7897674D01*
X6965301Y-7897674D02*
X6974825Y-7907198D01*
X6974825Y-7907198D02*
X6984349Y-7926246D01*
X6984349Y-7926246D02*
X6984349Y-7983388D01*
X6984349Y-7983388D02*
X6974825Y-8002436D01*
X6974825Y-8002436D02*
X6965301Y-8011960D01*
X6965301Y-8011960D02*
X6946253Y-8021484D01*
X6946253Y-8021484D02*
X6917682Y-8021484D01*
X7041492Y-7888150D02*
X7117682Y-7888150D01*
X7070063Y-7821484D02*
X7070063Y-7992912D01*
X7070063Y-7992912D02*
X7079587Y-8011960D01*
X7079587Y-8011960D02*
X7098634Y-8021484D01*
X7098634Y-8021484D02*
X7117682Y-8021484D01*
X7336730Y-7888150D02*
X7336730Y-8088150D01*
X7336730Y-7897674D02*
X7355777Y-7888150D01*
X7355777Y-7888150D02*
X7393873Y-7888150D01*
X7393873Y-7888150D02*
X7412920Y-7897674D01*
X7412920Y-7897674D02*
X7422444Y-7907198D01*
X7422444Y-7907198D02*
X7431968Y-7926246D01*
X7431968Y-7926246D02*
X7431968Y-7983388D01*
X7431968Y-7983388D02*
X7422444Y-8002436D01*
X7422444Y-8002436D02*
X7412920Y-8011960D01*
X7412920Y-8011960D02*
X7393873Y-8021484D01*
X7393873Y-8021484D02*
X7355777Y-8021484D01*
X7355777Y-8021484D02*
X7336730Y-8011960D01*
X7546253Y-8021484D02*
X7527206Y-8011960D01*
X7527206Y-8011960D02*
X7517682Y-7992912D01*
X7517682Y-7992912D02*
X7517682Y-7821484D01*
X7708158Y-8021484D02*
X7708158Y-7916722D01*
X7708158Y-7916722D02*
X7698634Y-7897674D01*
X7698634Y-7897674D02*
X7679587Y-7888150D01*
X7679587Y-7888150D02*
X7641492Y-7888150D01*
X7641492Y-7888150D02*
X7622444Y-7897674D01*
X7708158Y-8011960D02*
X7689111Y-8021484D01*
X7689111Y-8021484D02*
X7641492Y-8021484D01*
X7641492Y-8021484D02*
X7622444Y-8011960D01*
X7622444Y-8011960D02*
X7612920Y-7992912D01*
X7612920Y-7992912D02*
X7612920Y-7973865D01*
X7612920Y-7973865D02*
X7622444Y-7954817D01*
X7622444Y-7954817D02*
X7641492Y-7945293D01*
X7641492Y-7945293D02*
X7689111Y-7945293D01*
X7689111Y-7945293D02*
X7708158Y-7935769D01*
X7774825Y-7888150D02*
X7851015Y-7888150D01*
X7803396Y-7821484D02*
X7803396Y-7992912D01*
X7803396Y-7992912D02*
X7812920Y-8011960D01*
X7812920Y-8011960D02*
X7831968Y-8021484D01*
X7831968Y-8021484D02*
X7851015Y-8021484D01*
X7993873Y-8011960D02*
X7974825Y-8021484D01*
X7974825Y-8021484D02*
X7936730Y-8021484D01*
X7936730Y-8021484D02*
X7917682Y-8011960D01*
X7917682Y-8011960D02*
X7908158Y-7992912D01*
X7908158Y-7992912D02*
X7908158Y-7916722D01*
X7908158Y-7916722D02*
X7917682Y-7897674D01*
X7917682Y-7897674D02*
X7936730Y-7888150D01*
X7936730Y-7888150D02*
X7974825Y-7888150D01*
X7974825Y-7888150D02*
X7993873Y-7897674D01*
X7993873Y-7897674D02*
X8003396Y-7916722D01*
X8003396Y-7916722D02*
X8003396Y-7935769D01*
X8003396Y-7935769D02*
X7908158Y-7954817D01*
X8174825Y-8021484D02*
X8174825Y-7821484D01*
X8174825Y-8011960D02*
X8155777Y-8021484D01*
X8155777Y-8021484D02*
X8117682Y-8021484D01*
X8117682Y-8021484D02*
X8098634Y-8011960D01*
X8098634Y-8011960D02*
X8089111Y-8002436D01*
X8089111Y-8002436D02*
X8079587Y-7983388D01*
X8079587Y-7983388D02*
X8079587Y-7926246D01*
X8079587Y-7926246D02*
X8089111Y-7907198D01*
X8089111Y-7907198D02*
X8098634Y-7897674D01*
X8098634Y-7897674D02*
X8117682Y-7888150D01*
X8117682Y-7888150D02*
X8155777Y-7888150D01*
X8155777Y-7888150D02*
X8174825Y-7897674D01*
X8251015Y-8097674D02*
X8260539Y-8088150D01*
X8260539Y-8088150D02*
X8279587Y-8059579D01*
X8279587Y-8059579D02*
X8289111Y-8040531D01*
X8289111Y-8040531D02*
X8298634Y-8011960D01*
X8298634Y-8011960D02*
X8308158Y-7964341D01*
X8308158Y-7964341D02*
X8308158Y-7926246D01*
X8308158Y-7926246D02*
X8298634Y-7878627D01*
X8298634Y-7878627D02*
X8289111Y-7850055D01*
X8289111Y-7850055D02*
X8279587Y-7831008D01*
X8279587Y-7831008D02*
X8260539Y-7802436D01*
X8260539Y-7802436D02*
X8251015Y-7792912D01*
X1395000Y-8120000D02*
X1395000Y-8320000D01*
X1295000Y-8220000D02*
X1495000Y-8220000D01*
X1736729Y-8111484D02*
X1860539Y-8111484D01*
X1860539Y-8111484D02*
X1793872Y-8187674D01*
X1793872Y-8187674D02*
X1822443Y-8187674D01*
X1822443Y-8187674D02*
X1841491Y-8197198D01*
X1841491Y-8197198D02*
X1851015Y-8206722D01*
X1851015Y-8206722D02*
X1860539Y-8225769D01*
X1860539Y-8225769D02*
X1860539Y-8273388D01*
X1860539Y-8273388D02*
X1851015Y-8292436D01*
X1851015Y-8292436D02*
X1841491Y-8301960D01*
X1841491Y-8301960D02*
X1822443Y-8311484D01*
X1822443Y-8311484D02*
X1765301Y-8311484D01*
X1765301Y-8311484D02*
X1746253Y-8301960D01*
X1746253Y-8301960D02*
X1736729Y-8292436D01*
X1946253Y-8292436D02*
X1955777Y-8301960D01*
X1955777Y-8301960D02*
X1946253Y-8311484D01*
X1946253Y-8311484D02*
X1936729Y-8301960D01*
X1936729Y-8301960D02*
X1946253Y-8292436D01*
X1946253Y-8292436D02*
X1946253Y-8311484D01*
X2079586Y-8111484D02*
X2098634Y-8111484D01*
X2098634Y-8111484D02*
X2117682Y-8121008D01*
X2117682Y-8121008D02*
X2127205Y-8130531D01*
X2127205Y-8130531D02*
X2136729Y-8149579D01*
X2136729Y-8149579D02*
X2146253Y-8187674D01*
X2146253Y-8187674D02*
X2146253Y-8235293D01*
X2146253Y-8235293D02*
X2136729Y-8273388D01*
X2136729Y-8273388D02*
X2127205Y-8292436D01*
X2127205Y-8292436D02*
X2117682Y-8301960D01*
X2117682Y-8301960D02*
X2098634Y-8311484D01*
X2098634Y-8311484D02*
X2079586Y-8311484D01*
X2079586Y-8311484D02*
X2060539Y-8301960D01*
X2060539Y-8301960D02*
X2051015Y-8292436D01*
X2051015Y-8292436D02*
X2041491Y-8273388D01*
X2041491Y-8273388D02*
X2031967Y-8235293D01*
X2031967Y-8235293D02*
X2031967Y-8187674D01*
X2031967Y-8187674D02*
X2041491Y-8149579D01*
X2041491Y-8149579D02*
X2051015Y-8130531D01*
X2051015Y-8130531D02*
X2060539Y-8121008D01*
X2060539Y-8121008D02*
X2079586Y-8111484D01*
X2270063Y-8111484D02*
X2289110Y-8111484D01*
X2289110Y-8111484D02*
X2308158Y-8121008D01*
X2308158Y-8121008D02*
X2317682Y-8130531D01*
X2317682Y-8130531D02*
X2327205Y-8149579D01*
X2327205Y-8149579D02*
X2336729Y-8187674D01*
X2336729Y-8187674D02*
X2336729Y-8235293D01*
X2336729Y-8235293D02*
X2327205Y-8273388D01*
X2327205Y-8273388D02*
X2317682Y-8292436D01*
X2317682Y-8292436D02*
X2308158Y-8301960D01*
X2308158Y-8301960D02*
X2289110Y-8311484D01*
X2289110Y-8311484D02*
X2270063Y-8311484D01*
X2270063Y-8311484D02*
X2251015Y-8301960D01*
X2251015Y-8301960D02*
X2241491Y-8292436D01*
X2241491Y-8292436D02*
X2231967Y-8273388D01*
X2231967Y-8273388D02*
X2222444Y-8235293D01*
X2222444Y-8235293D02*
X2222444Y-8187674D01*
X2222444Y-8187674D02*
X2231967Y-8149579D01*
X2231967Y-8149579D02*
X2241491Y-8130531D01*
X2241491Y-8130531D02*
X2251015Y-8121008D01*
X2251015Y-8121008D02*
X2270063Y-8111484D01*
X2460539Y-8111484D02*
X2479586Y-8111484D01*
X2479586Y-8111484D02*
X2498634Y-8121008D01*
X2498634Y-8121008D02*
X2508158Y-8130531D01*
X2508158Y-8130531D02*
X2517682Y-8149579D01*
X2517682Y-8149579D02*
X2527205Y-8187674D01*
X2527205Y-8187674D02*
X2527205Y-8235293D01*
X2527205Y-8235293D02*
X2517682Y-8273388D01*
X2517682Y-8273388D02*
X2508158Y-8292436D01*
X2508158Y-8292436D02*
X2498634Y-8301960D01*
X2498634Y-8301960D02*
X2479586Y-8311484D01*
X2479586Y-8311484D02*
X2460539Y-8311484D01*
X2460539Y-8311484D02*
X2441491Y-8301960D01*
X2441491Y-8301960D02*
X2431967Y-8292436D01*
X2431967Y-8292436D02*
X2422444Y-8273388D01*
X2422444Y-8273388D02*
X2412920Y-8235293D01*
X2412920Y-8235293D02*
X2412920Y-8187674D01*
X2412920Y-8187674D02*
X2422444Y-8149579D01*
X2422444Y-8149579D02*
X2431967Y-8130531D01*
X2431967Y-8130531D02*
X2441491Y-8121008D01*
X2441491Y-8121008D02*
X2460539Y-8111484D01*
X2612920Y-8311484D02*
X2612920Y-8178150D01*
X2612920Y-8197198D02*
X2622444Y-8187674D01*
X2622444Y-8187674D02*
X2641491Y-8178150D01*
X2641491Y-8178150D02*
X2670063Y-8178150D01*
X2670063Y-8178150D02*
X2689110Y-8187674D01*
X2689110Y-8187674D02*
X2698634Y-8206722D01*
X2698634Y-8206722D02*
X2698634Y-8311484D01*
X2698634Y-8206722D02*
X2708158Y-8187674D01*
X2708158Y-8187674D02*
X2727205Y-8178150D01*
X2727205Y-8178150D02*
X2755777Y-8178150D01*
X2755777Y-8178150D02*
X2774825Y-8187674D01*
X2774825Y-8187674D02*
X2784348Y-8206722D01*
X2784348Y-8206722D02*
X2784348Y-8311484D01*
X2879586Y-8311484D02*
X2879586Y-8178150D01*
X2879586Y-8197198D02*
X2889110Y-8187674D01*
X2889110Y-8187674D02*
X2908158Y-8178150D01*
X2908158Y-8178150D02*
X2936729Y-8178150D01*
X2936729Y-8178150D02*
X2955777Y-8187674D01*
X2955777Y-8187674D02*
X2965301Y-8206722D01*
X2965301Y-8206722D02*
X2965301Y-8311484D01*
X2965301Y-8206722D02*
X2974824Y-8187674D01*
X2974824Y-8187674D02*
X2993872Y-8178150D01*
X2993872Y-8178150D02*
X3022443Y-8178150D01*
X3022443Y-8178150D02*
X3041491Y-8187674D01*
X3041491Y-8187674D02*
X3051015Y-8206722D01*
X3051015Y-8206722D02*
X3051015Y-8311484D01*
X3441491Y-8101960D02*
X3270063Y-8359103D01*
X3698634Y-8111484D02*
X3717682Y-8111484D01*
X3717682Y-8111484D02*
X3736729Y-8121008D01*
X3736729Y-8121008D02*
X3746253Y-8130531D01*
X3746253Y-8130531D02*
X3755777Y-8149579D01*
X3755777Y-8149579D02*
X3765301Y-8187674D01*
X3765301Y-8187674D02*
X3765301Y-8235293D01*
X3765301Y-8235293D02*
X3755777Y-8273388D01*
X3755777Y-8273388D02*
X3746253Y-8292436D01*
X3746253Y-8292436D02*
X3736729Y-8301960D01*
X3736729Y-8301960D02*
X3717682Y-8311484D01*
X3717682Y-8311484D02*
X3698634Y-8311484D01*
X3698634Y-8311484D02*
X3679586Y-8301960D01*
X3679586Y-8301960D02*
X3670063Y-8292436D01*
X3670063Y-8292436D02*
X3660539Y-8273388D01*
X3660539Y-8273388D02*
X3651015Y-8235293D01*
X3651015Y-8235293D02*
X3651015Y-8187674D01*
X3651015Y-8187674D02*
X3660539Y-8149579D01*
X3660539Y-8149579D02*
X3670063Y-8130531D01*
X3670063Y-8130531D02*
X3679586Y-8121008D01*
X3679586Y-8121008D02*
X3698634Y-8111484D01*
X3851015Y-8292436D02*
X3860539Y-8301960D01*
X3860539Y-8301960D02*
X3851015Y-8311484D01*
X3851015Y-8311484D02*
X3841491Y-8301960D01*
X3841491Y-8301960D02*
X3851015Y-8292436D01*
X3851015Y-8292436D02*
X3851015Y-8311484D01*
X4051015Y-8311484D02*
X3936729Y-8311484D01*
X3993872Y-8311484D02*
X3993872Y-8111484D01*
X3993872Y-8111484D02*
X3974825Y-8140055D01*
X3974825Y-8140055D02*
X3955777Y-8159103D01*
X3955777Y-8159103D02*
X3936729Y-8168627D01*
X4241491Y-8311484D02*
X4127206Y-8311484D01*
X4184348Y-8311484D02*
X4184348Y-8111484D01*
X4184348Y-8111484D02*
X4165301Y-8140055D01*
X4165301Y-8140055D02*
X4146253Y-8159103D01*
X4146253Y-8159103D02*
X4127206Y-8168627D01*
X4355777Y-8197198D02*
X4336729Y-8187674D01*
X4336729Y-8187674D02*
X4327206Y-8178150D01*
X4327206Y-8178150D02*
X4317682Y-8159103D01*
X4317682Y-8159103D02*
X4317682Y-8149579D01*
X4317682Y-8149579D02*
X4327206Y-8130531D01*
X4327206Y-8130531D02*
X4336729Y-8121008D01*
X4336729Y-8121008D02*
X4355777Y-8111484D01*
X4355777Y-8111484D02*
X4393872Y-8111484D01*
X4393872Y-8111484D02*
X4412920Y-8121008D01*
X4412920Y-8121008D02*
X4422444Y-8130531D01*
X4422444Y-8130531D02*
X4431968Y-8149579D01*
X4431968Y-8149579D02*
X4431968Y-8159103D01*
X4431968Y-8159103D02*
X4422444Y-8178150D01*
X4422444Y-8178150D02*
X4412920Y-8187674D01*
X4412920Y-8187674D02*
X4393872Y-8197198D01*
X4393872Y-8197198D02*
X4355777Y-8197198D01*
X4355777Y-8197198D02*
X4336729Y-8206722D01*
X4336729Y-8206722D02*
X4327206Y-8216246D01*
X4327206Y-8216246D02*
X4317682Y-8235293D01*
X4317682Y-8235293D02*
X4317682Y-8273388D01*
X4317682Y-8273388D02*
X4327206Y-8292436D01*
X4327206Y-8292436D02*
X4336729Y-8301960D01*
X4336729Y-8301960D02*
X4355777Y-8311484D01*
X4355777Y-8311484D02*
X4393872Y-8311484D01*
X4393872Y-8311484D02*
X4412920Y-8301960D01*
X4412920Y-8301960D02*
X4422444Y-8292436D01*
X4422444Y-8292436D02*
X4431968Y-8273388D01*
X4431968Y-8273388D02*
X4431968Y-8235293D01*
X4431968Y-8235293D02*
X4422444Y-8216246D01*
X4422444Y-8216246D02*
X4412920Y-8206722D01*
X4412920Y-8206722D02*
X4393872Y-8197198D01*
X4622444Y-8311484D02*
X4508158Y-8311484D01*
X4565301Y-8311484D02*
X4565301Y-8111484D01*
X4565301Y-8111484D02*
X4546253Y-8140055D01*
X4546253Y-8140055D02*
X4527206Y-8159103D01*
X4527206Y-8159103D02*
X4508158Y-8168627D01*
X4698634Y-8111484D02*
X4698634Y-8149579D01*
X4774825Y-8111484D02*
X4774825Y-8149579D01*
X5070063Y-8387674D02*
X5060539Y-8378150D01*
X5060539Y-8378150D02*
X5041491Y-8349579D01*
X5041491Y-8349579D02*
X5031968Y-8330531D01*
X5031968Y-8330531D02*
X5022444Y-8301960D01*
X5022444Y-8301960D02*
X5012920Y-8254341D01*
X5012920Y-8254341D02*
X5012920Y-8216246D01*
X5012920Y-8216246D02*
X5022444Y-8168627D01*
X5022444Y-8168627D02*
X5031968Y-8140055D01*
X5031968Y-8140055D02*
X5041491Y-8121008D01*
X5041491Y-8121008D02*
X5060539Y-8092436D01*
X5060539Y-8092436D02*
X5070063Y-8082912D01*
X5231968Y-8111484D02*
X5193872Y-8111484D01*
X5193872Y-8111484D02*
X5174825Y-8121008D01*
X5174825Y-8121008D02*
X5165301Y-8130531D01*
X5165301Y-8130531D02*
X5146253Y-8159103D01*
X5146253Y-8159103D02*
X5136730Y-8197198D01*
X5136730Y-8197198D02*
X5136730Y-8273388D01*
X5136730Y-8273388D02*
X5146253Y-8292436D01*
X5146253Y-8292436D02*
X5155777Y-8301960D01*
X5155777Y-8301960D02*
X5174825Y-8311484D01*
X5174825Y-8311484D02*
X5212920Y-8311484D01*
X5212920Y-8311484D02*
X5231968Y-8301960D01*
X5231968Y-8301960D02*
X5241491Y-8292436D01*
X5241491Y-8292436D02*
X5251015Y-8273388D01*
X5251015Y-8273388D02*
X5251015Y-8225769D01*
X5251015Y-8225769D02*
X5241491Y-8206722D01*
X5241491Y-8206722D02*
X5231968Y-8197198D01*
X5231968Y-8197198D02*
X5212920Y-8187674D01*
X5212920Y-8187674D02*
X5174825Y-8187674D01*
X5174825Y-8187674D02*
X5155777Y-8197198D01*
X5155777Y-8197198D02*
X5146253Y-8206722D01*
X5146253Y-8206722D02*
X5136730Y-8225769D01*
X5489111Y-8311484D02*
X5489111Y-8111484D01*
X5574825Y-8311484D02*
X5574825Y-8206722D01*
X5574825Y-8206722D02*
X5565301Y-8187674D01*
X5565301Y-8187674D02*
X5546253Y-8178150D01*
X5546253Y-8178150D02*
X5517682Y-8178150D01*
X5517682Y-8178150D02*
X5498634Y-8187674D01*
X5498634Y-8187674D02*
X5489111Y-8197198D01*
X5698634Y-8311484D02*
X5679587Y-8301960D01*
X5679587Y-8301960D02*
X5670063Y-8292436D01*
X5670063Y-8292436D02*
X5660539Y-8273388D01*
X5660539Y-8273388D02*
X5660539Y-8216246D01*
X5660539Y-8216246D02*
X5670063Y-8197198D01*
X5670063Y-8197198D02*
X5679587Y-8187674D01*
X5679587Y-8187674D02*
X5698634Y-8178150D01*
X5698634Y-8178150D02*
X5727206Y-8178150D01*
X5727206Y-8178150D02*
X5746253Y-8187674D01*
X5746253Y-8187674D02*
X5755777Y-8197198D01*
X5755777Y-8197198D02*
X5765301Y-8216246D01*
X5765301Y-8216246D02*
X5765301Y-8273388D01*
X5765301Y-8273388D02*
X5755777Y-8292436D01*
X5755777Y-8292436D02*
X5746253Y-8301960D01*
X5746253Y-8301960D02*
X5727206Y-8311484D01*
X5727206Y-8311484D02*
X5698634Y-8311484D01*
X5879587Y-8311484D02*
X5860539Y-8301960D01*
X5860539Y-8301960D02*
X5851015Y-8282912D01*
X5851015Y-8282912D02*
X5851015Y-8111484D01*
X6031968Y-8301960D02*
X6012920Y-8311484D01*
X6012920Y-8311484D02*
X5974825Y-8311484D01*
X5974825Y-8311484D02*
X5955777Y-8301960D01*
X5955777Y-8301960D02*
X5946253Y-8282912D01*
X5946253Y-8282912D02*
X5946253Y-8206722D01*
X5946253Y-8206722D02*
X5955777Y-8187674D01*
X5955777Y-8187674D02*
X5974825Y-8178150D01*
X5974825Y-8178150D02*
X6012920Y-8178150D01*
X6012920Y-8178150D02*
X6031968Y-8187674D01*
X6031968Y-8187674D02*
X6041491Y-8206722D01*
X6041491Y-8206722D02*
X6041491Y-8225769D01*
X6041491Y-8225769D02*
X5946253Y-8244817D01*
X6117682Y-8301960D02*
X6136730Y-8311484D01*
X6136730Y-8311484D02*
X6174825Y-8311484D01*
X6174825Y-8311484D02*
X6193872Y-8301960D01*
X6193872Y-8301960D02*
X6203396Y-8282912D01*
X6203396Y-8282912D02*
X6203396Y-8273388D01*
X6203396Y-8273388D02*
X6193872Y-8254341D01*
X6193872Y-8254341D02*
X6174825Y-8244817D01*
X6174825Y-8244817D02*
X6146253Y-8244817D01*
X6146253Y-8244817D02*
X6127206Y-8235293D01*
X6127206Y-8235293D02*
X6117682Y-8216246D01*
X6117682Y-8216246D02*
X6117682Y-8206722D01*
X6117682Y-8206722D02*
X6127206Y-8187674D01*
X6127206Y-8187674D02*
X6146253Y-8178150D01*
X6146253Y-8178150D02*
X6174825Y-8178150D01*
X6174825Y-8178150D02*
X6193872Y-8187674D01*
X6270063Y-8387674D02*
X6279587Y-8378150D01*
X6279587Y-8378150D02*
X6298634Y-8349579D01*
X6298634Y-8349579D02*
X6308158Y-8330531D01*
X6308158Y-8330531D02*
X6317682Y-8301960D01*
X6317682Y-8301960D02*
X6327206Y-8254341D01*
X6327206Y-8254341D02*
X6327206Y-8216246D01*
X6327206Y-8216246D02*
X6317682Y-8168627D01*
X6317682Y-8168627D02*
X6308158Y-8140055D01*
X6308158Y-8140055D02*
X6298634Y-8121008D01*
X6298634Y-8121008D02*
X6279587Y-8092436D01*
X6279587Y-8092436D02*
X6270063Y-8082912D01*
X6631968Y-8387674D02*
X6622444Y-8378150D01*
X6622444Y-8378150D02*
X6603396Y-8349579D01*
X6603396Y-8349579D02*
X6593872Y-8330531D01*
X6593872Y-8330531D02*
X6584349Y-8301960D01*
X6584349Y-8301960D02*
X6574825Y-8254341D01*
X6574825Y-8254341D02*
X6574825Y-8216246D01*
X6574825Y-8216246D02*
X6584349Y-8168627D01*
X6584349Y-8168627D02*
X6593872Y-8140055D01*
X6593872Y-8140055D02*
X6603396Y-8121008D01*
X6603396Y-8121008D02*
X6622444Y-8092436D01*
X6622444Y-8092436D02*
X6631968Y-8082912D01*
X6708158Y-8178150D02*
X6708158Y-8311484D01*
X6708158Y-8197198D02*
X6717682Y-8187674D01*
X6717682Y-8187674D02*
X6736730Y-8178150D01*
X6736730Y-8178150D02*
X6765301Y-8178150D01*
X6765301Y-8178150D02*
X6784349Y-8187674D01*
X6784349Y-8187674D02*
X6793872Y-8206722D01*
X6793872Y-8206722D02*
X6793872Y-8311484D01*
X6917682Y-8311484D02*
X6898634Y-8301960D01*
X6898634Y-8301960D02*
X6889111Y-8292436D01*
X6889111Y-8292436D02*
X6879587Y-8273388D01*
X6879587Y-8273388D02*
X6879587Y-8216246D01*
X6879587Y-8216246D02*
X6889111Y-8197198D01*
X6889111Y-8197198D02*
X6898634Y-8187674D01*
X6898634Y-8187674D02*
X6917682Y-8178150D01*
X6917682Y-8178150D02*
X6946253Y-8178150D01*
X6946253Y-8178150D02*
X6965301Y-8187674D01*
X6965301Y-8187674D02*
X6974825Y-8197198D01*
X6974825Y-8197198D02*
X6984349Y-8216246D01*
X6984349Y-8216246D02*
X6984349Y-8273388D01*
X6984349Y-8273388D02*
X6974825Y-8292436D01*
X6974825Y-8292436D02*
X6965301Y-8301960D01*
X6965301Y-8301960D02*
X6946253Y-8311484D01*
X6946253Y-8311484D02*
X6917682Y-8311484D01*
X7041492Y-8178150D02*
X7117682Y-8178150D01*
X7070063Y-8111484D02*
X7070063Y-8282912D01*
X7070063Y-8282912D02*
X7079587Y-8301960D01*
X7079587Y-8301960D02*
X7098634Y-8311484D01*
X7098634Y-8311484D02*
X7117682Y-8311484D01*
X7336730Y-8178150D02*
X7336730Y-8378150D01*
X7336730Y-8187674D02*
X7355777Y-8178150D01*
X7355777Y-8178150D02*
X7393873Y-8178150D01*
X7393873Y-8178150D02*
X7412920Y-8187674D01*
X7412920Y-8187674D02*
X7422444Y-8197198D01*
X7422444Y-8197198D02*
X7431968Y-8216246D01*
X7431968Y-8216246D02*
X7431968Y-8273388D01*
X7431968Y-8273388D02*
X7422444Y-8292436D01*
X7422444Y-8292436D02*
X7412920Y-8301960D01*
X7412920Y-8301960D02*
X7393873Y-8311484D01*
X7393873Y-8311484D02*
X7355777Y-8311484D01*
X7355777Y-8311484D02*
X7336730Y-8301960D01*
X7546253Y-8311484D02*
X7527206Y-8301960D01*
X7527206Y-8301960D02*
X7517682Y-8282912D01*
X7517682Y-8282912D02*
X7517682Y-8111484D01*
X7708158Y-8311484D02*
X7708158Y-8206722D01*
X7708158Y-8206722D02*
X7698634Y-8187674D01*
X7698634Y-8187674D02*
X7679587Y-8178150D01*
X7679587Y-8178150D02*
X7641492Y-8178150D01*
X7641492Y-8178150D02*
X7622444Y-8187674D01*
X7708158Y-8301960D02*
X7689111Y-8311484D01*
X7689111Y-8311484D02*
X7641492Y-8311484D01*
X7641492Y-8311484D02*
X7622444Y-8301960D01*
X7622444Y-8301960D02*
X7612920Y-8282912D01*
X7612920Y-8282912D02*
X7612920Y-8263865D01*
X7612920Y-8263865D02*
X7622444Y-8244817D01*
X7622444Y-8244817D02*
X7641492Y-8235293D01*
X7641492Y-8235293D02*
X7689111Y-8235293D01*
X7689111Y-8235293D02*
X7708158Y-8225769D01*
X7774825Y-8178150D02*
X7851015Y-8178150D01*
X7803396Y-8111484D02*
X7803396Y-8282912D01*
X7803396Y-8282912D02*
X7812920Y-8301960D01*
X7812920Y-8301960D02*
X7831968Y-8311484D01*
X7831968Y-8311484D02*
X7851015Y-8311484D01*
X7993873Y-8301960D02*
X7974825Y-8311484D01*
X7974825Y-8311484D02*
X7936730Y-8311484D01*
X7936730Y-8311484D02*
X7917682Y-8301960D01*
X7917682Y-8301960D02*
X7908158Y-8282912D01*
X7908158Y-8282912D02*
X7908158Y-8206722D01*
X7908158Y-8206722D02*
X7917682Y-8187674D01*
X7917682Y-8187674D02*
X7936730Y-8178150D01*
X7936730Y-8178150D02*
X7974825Y-8178150D01*
X7974825Y-8178150D02*
X7993873Y-8187674D01*
X7993873Y-8187674D02*
X8003396Y-8206722D01*
X8003396Y-8206722D02*
X8003396Y-8225769D01*
X8003396Y-8225769D02*
X7908158Y-8244817D01*
X8174825Y-8311484D02*
X8174825Y-8111484D01*
X8174825Y-8301960D02*
X8155777Y-8311484D01*
X8155777Y-8311484D02*
X8117682Y-8311484D01*
X8117682Y-8311484D02*
X8098634Y-8301960D01*
X8098634Y-8301960D02*
X8089111Y-8292436D01*
X8089111Y-8292436D02*
X8079587Y-8273388D01*
X8079587Y-8273388D02*
X8079587Y-8216246D01*
X8079587Y-8216246D02*
X8089111Y-8197198D01*
X8089111Y-8197198D02*
X8098634Y-8187674D01*
X8098634Y-8187674D02*
X8117682Y-8178150D01*
X8117682Y-8178150D02*
X8155777Y-8178150D01*
X8155777Y-8178150D02*
X8174825Y-8187674D01*
X8251015Y-8387674D02*
X8260539Y-8378150D01*
X8260539Y-8378150D02*
X8279587Y-8349579D01*
X8279587Y-8349579D02*
X8289111Y-8330531D01*
X8289111Y-8330531D02*
X8298634Y-8301960D01*
X8298634Y-8301960D02*
X8308158Y-8254341D01*
X8308158Y-8254341D02*
X8308158Y-8216246D01*
X8308158Y-8216246D02*
X8298634Y-8168627D01*
X8298634Y-8168627D02*
X8289111Y-8140055D01*
X8289111Y-8140055D02*
X8279587Y-8121008D01*
X8279587Y-8121008D02*
X8260539Y-8092436D01*
X8260539Y-8092436D02*
X8251015Y-8082912D01*
X1465711Y-8610711D02*
X1465711Y-8469289D01*
X1324289Y-8469289D01*
X1324289Y-8610711D01*
X1465711Y-8610711D01*
X1851015Y-8431484D02*
X1755777Y-8431484D01*
X1755777Y-8431484D02*
X1746253Y-8526722D01*
X1746253Y-8526722D02*
X1755777Y-8517198D01*
X1755777Y-8517198D02*
X1774824Y-8507674D01*
X1774824Y-8507674D02*
X1822443Y-8507674D01*
X1822443Y-8507674D02*
X1841491Y-8517198D01*
X1841491Y-8517198D02*
X1851015Y-8526722D01*
X1851015Y-8526722D02*
X1860539Y-8545770D01*
X1860539Y-8545770D02*
X1860539Y-8593389D01*
X1860539Y-8593389D02*
X1851015Y-8612436D01*
X1851015Y-8612436D02*
X1841491Y-8621960D01*
X1841491Y-8621960D02*
X1822443Y-8631484D01*
X1822443Y-8631484D02*
X1774824Y-8631484D01*
X1774824Y-8631484D02*
X1755777Y-8621960D01*
X1755777Y-8621960D02*
X1746253Y-8612436D01*
X1946253Y-8612436D02*
X1955777Y-8621960D01*
X1955777Y-8621960D02*
X1946253Y-8631484D01*
X1946253Y-8631484D02*
X1936729Y-8621960D01*
X1936729Y-8621960D02*
X1946253Y-8612436D01*
X1946253Y-8612436D02*
X1946253Y-8631484D01*
X2079586Y-8431484D02*
X2098634Y-8431484D01*
X2098634Y-8431484D02*
X2117682Y-8441008D01*
X2117682Y-8441008D02*
X2127205Y-8450531D01*
X2127205Y-8450531D02*
X2136729Y-8469579D01*
X2136729Y-8469579D02*
X2146253Y-8507674D01*
X2146253Y-8507674D02*
X2146253Y-8555293D01*
X2146253Y-8555293D02*
X2136729Y-8593389D01*
X2136729Y-8593389D02*
X2127205Y-8612436D01*
X2127205Y-8612436D02*
X2117682Y-8621960D01*
X2117682Y-8621960D02*
X2098634Y-8631484D01*
X2098634Y-8631484D02*
X2079586Y-8631484D01*
X2079586Y-8631484D02*
X2060539Y-8621960D01*
X2060539Y-8621960D02*
X2051015Y-8612436D01*
X2051015Y-8612436D02*
X2041491Y-8593389D01*
X2041491Y-8593389D02*
X2031967Y-8555293D01*
X2031967Y-8555293D02*
X2031967Y-8507674D01*
X2031967Y-8507674D02*
X2041491Y-8469579D01*
X2041491Y-8469579D02*
X2051015Y-8450531D01*
X2051015Y-8450531D02*
X2060539Y-8441008D01*
X2060539Y-8441008D02*
X2079586Y-8431484D01*
X2270063Y-8431484D02*
X2289110Y-8431484D01*
X2289110Y-8431484D02*
X2308158Y-8441008D01*
X2308158Y-8441008D02*
X2317682Y-8450531D01*
X2317682Y-8450531D02*
X2327205Y-8469579D01*
X2327205Y-8469579D02*
X2336729Y-8507674D01*
X2336729Y-8507674D02*
X2336729Y-8555293D01*
X2336729Y-8555293D02*
X2327205Y-8593389D01*
X2327205Y-8593389D02*
X2317682Y-8612436D01*
X2317682Y-8612436D02*
X2308158Y-8621960D01*
X2308158Y-8621960D02*
X2289110Y-8631484D01*
X2289110Y-8631484D02*
X2270063Y-8631484D01*
X2270063Y-8631484D02*
X2251015Y-8621960D01*
X2251015Y-8621960D02*
X2241491Y-8612436D01*
X2241491Y-8612436D02*
X2231967Y-8593389D01*
X2231967Y-8593389D02*
X2222444Y-8555293D01*
X2222444Y-8555293D02*
X2222444Y-8507674D01*
X2222444Y-8507674D02*
X2231967Y-8469579D01*
X2231967Y-8469579D02*
X2241491Y-8450531D01*
X2241491Y-8450531D02*
X2251015Y-8441008D01*
X2251015Y-8441008D02*
X2270063Y-8431484D01*
X2460539Y-8431484D02*
X2479586Y-8431484D01*
X2479586Y-8431484D02*
X2498634Y-8441008D01*
X2498634Y-8441008D02*
X2508158Y-8450531D01*
X2508158Y-8450531D02*
X2517682Y-8469579D01*
X2517682Y-8469579D02*
X2527205Y-8507674D01*
X2527205Y-8507674D02*
X2527205Y-8555293D01*
X2527205Y-8555293D02*
X2517682Y-8593389D01*
X2517682Y-8593389D02*
X2508158Y-8612436D01*
X2508158Y-8612436D02*
X2498634Y-8621960D01*
X2498634Y-8621960D02*
X2479586Y-8631484D01*
X2479586Y-8631484D02*
X2460539Y-8631484D01*
X2460539Y-8631484D02*
X2441491Y-8621960D01*
X2441491Y-8621960D02*
X2431967Y-8612436D01*
X2431967Y-8612436D02*
X2422444Y-8593389D01*
X2422444Y-8593389D02*
X2412920Y-8555293D01*
X2412920Y-8555293D02*
X2412920Y-8507674D01*
X2412920Y-8507674D02*
X2422444Y-8469579D01*
X2422444Y-8469579D02*
X2431967Y-8450531D01*
X2431967Y-8450531D02*
X2441491Y-8441008D01*
X2441491Y-8441008D02*
X2460539Y-8431484D01*
X2612920Y-8631484D02*
X2612920Y-8498150D01*
X2612920Y-8517198D02*
X2622444Y-8507674D01*
X2622444Y-8507674D02*
X2641491Y-8498150D01*
X2641491Y-8498150D02*
X2670063Y-8498150D01*
X2670063Y-8498150D02*
X2689110Y-8507674D01*
X2689110Y-8507674D02*
X2698634Y-8526722D01*
X2698634Y-8526722D02*
X2698634Y-8631484D01*
X2698634Y-8526722D02*
X2708158Y-8507674D01*
X2708158Y-8507674D02*
X2727205Y-8498150D01*
X2727205Y-8498150D02*
X2755777Y-8498150D01*
X2755777Y-8498150D02*
X2774825Y-8507674D01*
X2774825Y-8507674D02*
X2784348Y-8526722D01*
X2784348Y-8526722D02*
X2784348Y-8631484D01*
X2879586Y-8631484D02*
X2879586Y-8498150D01*
X2879586Y-8517198D02*
X2889110Y-8507674D01*
X2889110Y-8507674D02*
X2908158Y-8498150D01*
X2908158Y-8498150D02*
X2936729Y-8498150D01*
X2936729Y-8498150D02*
X2955777Y-8507674D01*
X2955777Y-8507674D02*
X2965301Y-8526722D01*
X2965301Y-8526722D02*
X2965301Y-8631484D01*
X2965301Y-8526722D02*
X2974824Y-8507674D01*
X2974824Y-8507674D02*
X2993872Y-8498150D01*
X2993872Y-8498150D02*
X3022443Y-8498150D01*
X3022443Y-8498150D02*
X3041491Y-8507674D01*
X3041491Y-8507674D02*
X3051015Y-8526722D01*
X3051015Y-8526722D02*
X3051015Y-8631484D01*
X3441491Y-8421960D02*
X3270063Y-8679103D01*
X3698634Y-8431484D02*
X3717682Y-8431484D01*
X3717682Y-8431484D02*
X3736729Y-8441008D01*
X3736729Y-8441008D02*
X3746253Y-8450531D01*
X3746253Y-8450531D02*
X3755777Y-8469579D01*
X3755777Y-8469579D02*
X3765301Y-8507674D01*
X3765301Y-8507674D02*
X3765301Y-8555293D01*
X3765301Y-8555293D02*
X3755777Y-8593389D01*
X3755777Y-8593389D02*
X3746253Y-8612436D01*
X3746253Y-8612436D02*
X3736729Y-8621960D01*
X3736729Y-8621960D02*
X3717682Y-8631484D01*
X3717682Y-8631484D02*
X3698634Y-8631484D01*
X3698634Y-8631484D02*
X3679586Y-8621960D01*
X3679586Y-8621960D02*
X3670063Y-8612436D01*
X3670063Y-8612436D02*
X3660539Y-8593389D01*
X3660539Y-8593389D02*
X3651015Y-8555293D01*
X3651015Y-8555293D02*
X3651015Y-8507674D01*
X3651015Y-8507674D02*
X3660539Y-8469579D01*
X3660539Y-8469579D02*
X3670063Y-8450531D01*
X3670063Y-8450531D02*
X3679586Y-8441008D01*
X3679586Y-8441008D02*
X3698634Y-8431484D01*
X3851015Y-8612436D02*
X3860539Y-8621960D01*
X3860539Y-8621960D02*
X3851015Y-8631484D01*
X3851015Y-8631484D02*
X3841491Y-8621960D01*
X3841491Y-8621960D02*
X3851015Y-8612436D01*
X3851015Y-8612436D02*
X3851015Y-8631484D01*
X4051015Y-8631484D02*
X3936729Y-8631484D01*
X3993872Y-8631484D02*
X3993872Y-8431484D01*
X3993872Y-8431484D02*
X3974825Y-8460055D01*
X3974825Y-8460055D02*
X3955777Y-8479103D01*
X3955777Y-8479103D02*
X3936729Y-8488627D01*
X4146253Y-8631484D02*
X4184348Y-8631484D01*
X4184348Y-8631484D02*
X4203396Y-8621960D01*
X4203396Y-8621960D02*
X4212920Y-8612436D01*
X4212920Y-8612436D02*
X4231968Y-8583865D01*
X4231968Y-8583865D02*
X4241491Y-8545770D01*
X4241491Y-8545770D02*
X4241491Y-8469579D01*
X4241491Y-8469579D02*
X4231968Y-8450531D01*
X4231968Y-8450531D02*
X4222444Y-8441008D01*
X4222444Y-8441008D02*
X4203396Y-8431484D01*
X4203396Y-8431484D02*
X4165301Y-8431484D01*
X4165301Y-8431484D02*
X4146253Y-8441008D01*
X4146253Y-8441008D02*
X4136729Y-8450531D01*
X4136729Y-8450531D02*
X4127206Y-8469579D01*
X4127206Y-8469579D02*
X4127206Y-8517198D01*
X4127206Y-8517198D02*
X4136729Y-8536246D01*
X4136729Y-8536246D02*
X4146253Y-8545770D01*
X4146253Y-8545770D02*
X4165301Y-8555293D01*
X4165301Y-8555293D02*
X4203396Y-8555293D01*
X4203396Y-8555293D02*
X4222444Y-8545770D01*
X4222444Y-8545770D02*
X4231968Y-8536246D01*
X4231968Y-8536246D02*
X4241491Y-8517198D01*
X4412920Y-8431484D02*
X4374825Y-8431484D01*
X4374825Y-8431484D02*
X4355777Y-8441008D01*
X4355777Y-8441008D02*
X4346253Y-8450531D01*
X4346253Y-8450531D02*
X4327206Y-8479103D01*
X4327206Y-8479103D02*
X4317682Y-8517198D01*
X4317682Y-8517198D02*
X4317682Y-8593389D01*
X4317682Y-8593389D02*
X4327206Y-8612436D01*
X4327206Y-8612436D02*
X4336729Y-8621960D01*
X4336729Y-8621960D02*
X4355777Y-8631484D01*
X4355777Y-8631484D02*
X4393872Y-8631484D01*
X4393872Y-8631484D02*
X4412920Y-8621960D01*
X4412920Y-8621960D02*
X4422444Y-8612436D01*
X4422444Y-8612436D02*
X4431968Y-8593389D01*
X4431968Y-8593389D02*
X4431968Y-8545770D01*
X4431968Y-8545770D02*
X4422444Y-8526722D01*
X4422444Y-8526722D02*
X4412920Y-8517198D01*
X4412920Y-8517198D02*
X4393872Y-8507674D01*
X4393872Y-8507674D02*
X4355777Y-8507674D01*
X4355777Y-8507674D02*
X4336729Y-8517198D01*
X4336729Y-8517198D02*
X4327206Y-8526722D01*
X4327206Y-8526722D02*
X4317682Y-8545770D01*
X4527206Y-8631484D02*
X4565301Y-8631484D01*
X4565301Y-8631484D02*
X4584349Y-8621960D01*
X4584349Y-8621960D02*
X4593872Y-8612436D01*
X4593872Y-8612436D02*
X4612920Y-8583865D01*
X4612920Y-8583865D02*
X4622444Y-8545770D01*
X4622444Y-8545770D02*
X4622444Y-8469579D01*
X4622444Y-8469579D02*
X4612920Y-8450531D01*
X4612920Y-8450531D02*
X4603396Y-8441008D01*
X4603396Y-8441008D02*
X4584349Y-8431484D01*
X4584349Y-8431484D02*
X4546253Y-8431484D01*
X4546253Y-8431484D02*
X4527206Y-8441008D01*
X4527206Y-8441008D02*
X4517682Y-8450531D01*
X4517682Y-8450531D02*
X4508158Y-8469579D01*
X4508158Y-8469579D02*
X4508158Y-8517198D01*
X4508158Y-8517198D02*
X4517682Y-8536246D01*
X4517682Y-8536246D02*
X4527206Y-8545770D01*
X4527206Y-8545770D02*
X4546253Y-8555293D01*
X4546253Y-8555293D02*
X4584349Y-8555293D01*
X4584349Y-8555293D02*
X4603396Y-8545770D01*
X4603396Y-8545770D02*
X4612920Y-8536246D01*
X4612920Y-8536246D02*
X4622444Y-8517198D01*
X4698634Y-8431484D02*
X4698634Y-8469579D01*
X4774825Y-8431484D02*
X4774825Y-8469579D01*
X5070063Y-8707674D02*
X5060539Y-8698150D01*
X5060539Y-8698150D02*
X5041491Y-8669579D01*
X5041491Y-8669579D02*
X5031968Y-8650531D01*
X5031968Y-8650531D02*
X5022444Y-8621960D01*
X5022444Y-8621960D02*
X5012920Y-8574341D01*
X5012920Y-8574341D02*
X5012920Y-8536246D01*
X5012920Y-8536246D02*
X5022444Y-8488627D01*
X5022444Y-8488627D02*
X5031968Y-8460055D01*
X5031968Y-8460055D02*
X5041491Y-8441008D01*
X5041491Y-8441008D02*
X5060539Y-8412436D01*
X5060539Y-8412436D02*
X5070063Y-8402912D01*
X5127206Y-8431484D02*
X5251015Y-8431484D01*
X5251015Y-8431484D02*
X5184349Y-8507674D01*
X5184349Y-8507674D02*
X5212920Y-8507674D01*
X5212920Y-8507674D02*
X5231968Y-8517198D01*
X5231968Y-8517198D02*
X5241491Y-8526722D01*
X5241491Y-8526722D02*
X5251015Y-8545770D01*
X5251015Y-8545770D02*
X5251015Y-8593389D01*
X5251015Y-8593389D02*
X5241491Y-8612436D01*
X5241491Y-8612436D02*
X5231968Y-8621960D01*
X5231968Y-8621960D02*
X5212920Y-8631484D01*
X5212920Y-8631484D02*
X5155777Y-8631484D01*
X5155777Y-8631484D02*
X5136730Y-8621960D01*
X5136730Y-8621960D02*
X5127206Y-8612436D01*
X5489111Y-8631484D02*
X5489111Y-8431484D01*
X5574825Y-8631484D02*
X5574825Y-8526722D01*
X5574825Y-8526722D02*
X5565301Y-8507674D01*
X5565301Y-8507674D02*
X5546253Y-8498150D01*
X5546253Y-8498150D02*
X5517682Y-8498150D01*
X5517682Y-8498150D02*
X5498634Y-8507674D01*
X5498634Y-8507674D02*
X5489111Y-8517198D01*
X5698634Y-8631484D02*
X5679587Y-8621960D01*
X5679587Y-8621960D02*
X5670063Y-8612436D01*
X5670063Y-8612436D02*
X5660539Y-8593389D01*
X5660539Y-8593389D02*
X5660539Y-8536246D01*
X5660539Y-8536246D02*
X5670063Y-8517198D01*
X5670063Y-8517198D02*
X5679587Y-8507674D01*
X5679587Y-8507674D02*
X5698634Y-8498150D01*
X5698634Y-8498150D02*
X5727206Y-8498150D01*
X5727206Y-8498150D02*
X5746253Y-8507674D01*
X5746253Y-8507674D02*
X5755777Y-8517198D01*
X5755777Y-8517198D02*
X5765301Y-8536246D01*
X5765301Y-8536246D02*
X5765301Y-8593389D01*
X5765301Y-8593389D02*
X5755777Y-8612436D01*
X5755777Y-8612436D02*
X5746253Y-8621960D01*
X5746253Y-8621960D02*
X5727206Y-8631484D01*
X5727206Y-8631484D02*
X5698634Y-8631484D01*
X5879587Y-8631484D02*
X5860539Y-8621960D01*
X5860539Y-8621960D02*
X5851015Y-8602912D01*
X5851015Y-8602912D02*
X5851015Y-8431484D01*
X6031968Y-8621960D02*
X6012920Y-8631484D01*
X6012920Y-8631484D02*
X5974825Y-8631484D01*
X5974825Y-8631484D02*
X5955777Y-8621960D01*
X5955777Y-8621960D02*
X5946253Y-8602912D01*
X5946253Y-8602912D02*
X5946253Y-8526722D01*
X5946253Y-8526722D02*
X5955777Y-8507674D01*
X5955777Y-8507674D02*
X5974825Y-8498150D01*
X5974825Y-8498150D02*
X6012920Y-8498150D01*
X6012920Y-8498150D02*
X6031968Y-8507674D01*
X6031968Y-8507674D02*
X6041491Y-8526722D01*
X6041491Y-8526722D02*
X6041491Y-8545770D01*
X6041491Y-8545770D02*
X5946253Y-8564817D01*
X6117682Y-8621960D02*
X6136730Y-8631484D01*
X6136730Y-8631484D02*
X6174825Y-8631484D01*
X6174825Y-8631484D02*
X6193872Y-8621960D01*
X6193872Y-8621960D02*
X6203396Y-8602912D01*
X6203396Y-8602912D02*
X6203396Y-8593389D01*
X6203396Y-8593389D02*
X6193872Y-8574341D01*
X6193872Y-8574341D02*
X6174825Y-8564817D01*
X6174825Y-8564817D02*
X6146253Y-8564817D01*
X6146253Y-8564817D02*
X6127206Y-8555293D01*
X6127206Y-8555293D02*
X6117682Y-8536246D01*
X6117682Y-8536246D02*
X6117682Y-8526722D01*
X6117682Y-8526722D02*
X6127206Y-8507674D01*
X6127206Y-8507674D02*
X6146253Y-8498150D01*
X6146253Y-8498150D02*
X6174825Y-8498150D01*
X6174825Y-8498150D02*
X6193872Y-8507674D01*
X6270063Y-8707674D02*
X6279587Y-8698150D01*
X6279587Y-8698150D02*
X6298634Y-8669579D01*
X6298634Y-8669579D02*
X6308158Y-8650531D01*
X6308158Y-8650531D02*
X6317682Y-8621960D01*
X6317682Y-8621960D02*
X6327206Y-8574341D01*
X6327206Y-8574341D02*
X6327206Y-8536246D01*
X6327206Y-8536246D02*
X6317682Y-8488627D01*
X6317682Y-8488627D02*
X6308158Y-8460055D01*
X6308158Y-8460055D02*
X6298634Y-8441008D01*
X6298634Y-8441008D02*
X6279587Y-8412436D01*
X6279587Y-8412436D02*
X6270063Y-8402912D01*
X6631968Y-8707674D02*
X6622444Y-8698150D01*
X6622444Y-8698150D02*
X6603396Y-8669579D01*
X6603396Y-8669579D02*
X6593872Y-8650531D01*
X6593872Y-8650531D02*
X6584349Y-8621960D01*
X6584349Y-8621960D02*
X6574825Y-8574341D01*
X6574825Y-8574341D02*
X6574825Y-8536246D01*
X6574825Y-8536246D02*
X6584349Y-8488627D01*
X6584349Y-8488627D02*
X6593872Y-8460055D01*
X6593872Y-8460055D02*
X6603396Y-8441008D01*
X6603396Y-8441008D02*
X6622444Y-8412436D01*
X6622444Y-8412436D02*
X6631968Y-8402912D01*
X6708158Y-8498150D02*
X6708158Y-8631484D01*
X6708158Y-8517198D02*
X6717682Y-8507674D01*
X6717682Y-8507674D02*
X6736730Y-8498150D01*
X6736730Y-8498150D02*
X6765301Y-8498150D01*
X6765301Y-8498150D02*
X6784349Y-8507674D01*
X6784349Y-8507674D02*
X6793872Y-8526722D01*
X6793872Y-8526722D02*
X6793872Y-8631484D01*
X6917682Y-8631484D02*
X6898634Y-8621960D01*
X6898634Y-8621960D02*
X6889111Y-8612436D01*
X6889111Y-8612436D02*
X6879587Y-8593389D01*
X6879587Y-8593389D02*
X6879587Y-8536246D01*
X6879587Y-8536246D02*
X6889111Y-8517198D01*
X6889111Y-8517198D02*
X6898634Y-8507674D01*
X6898634Y-8507674D02*
X6917682Y-8498150D01*
X6917682Y-8498150D02*
X6946253Y-8498150D01*
X6946253Y-8498150D02*
X6965301Y-8507674D01*
X6965301Y-8507674D02*
X6974825Y-8517198D01*
X6974825Y-8517198D02*
X6984349Y-8536246D01*
X6984349Y-8536246D02*
X6984349Y-8593389D01*
X6984349Y-8593389D02*
X6974825Y-8612436D01*
X6974825Y-8612436D02*
X6965301Y-8621960D01*
X6965301Y-8621960D02*
X6946253Y-8631484D01*
X6946253Y-8631484D02*
X6917682Y-8631484D01*
X7041492Y-8498150D02*
X7117682Y-8498150D01*
X7070063Y-8431484D02*
X7070063Y-8602912D01*
X7070063Y-8602912D02*
X7079587Y-8621960D01*
X7079587Y-8621960D02*
X7098634Y-8631484D01*
X7098634Y-8631484D02*
X7117682Y-8631484D01*
X7336730Y-8498150D02*
X7336730Y-8698150D01*
X7336730Y-8507674D02*
X7355777Y-8498150D01*
X7355777Y-8498150D02*
X7393873Y-8498150D01*
X7393873Y-8498150D02*
X7412920Y-8507674D01*
X7412920Y-8507674D02*
X7422444Y-8517198D01*
X7422444Y-8517198D02*
X7431968Y-8536246D01*
X7431968Y-8536246D02*
X7431968Y-8593389D01*
X7431968Y-8593389D02*
X7422444Y-8612436D01*
X7422444Y-8612436D02*
X7412920Y-8621960D01*
X7412920Y-8621960D02*
X7393873Y-8631484D01*
X7393873Y-8631484D02*
X7355777Y-8631484D01*
X7355777Y-8631484D02*
X7336730Y-8621960D01*
X7546253Y-8631484D02*
X7527206Y-8621960D01*
X7527206Y-8621960D02*
X7517682Y-8602912D01*
X7517682Y-8602912D02*
X7517682Y-8431484D01*
X7708158Y-8631484D02*
X7708158Y-8526722D01*
X7708158Y-8526722D02*
X7698634Y-8507674D01*
X7698634Y-8507674D02*
X7679587Y-8498150D01*
X7679587Y-8498150D02*
X7641492Y-8498150D01*
X7641492Y-8498150D02*
X7622444Y-8507674D01*
X7708158Y-8621960D02*
X7689111Y-8631484D01*
X7689111Y-8631484D02*
X7641492Y-8631484D01*
X7641492Y-8631484D02*
X7622444Y-8621960D01*
X7622444Y-8621960D02*
X7612920Y-8602912D01*
X7612920Y-8602912D02*
X7612920Y-8583865D01*
X7612920Y-8583865D02*
X7622444Y-8564817D01*
X7622444Y-8564817D02*
X7641492Y-8555293D01*
X7641492Y-8555293D02*
X7689111Y-8555293D01*
X7689111Y-8555293D02*
X7708158Y-8545770D01*
X7774825Y-8498150D02*
X7851015Y-8498150D01*
X7803396Y-8431484D02*
X7803396Y-8602912D01*
X7803396Y-8602912D02*
X7812920Y-8621960D01*
X7812920Y-8621960D02*
X7831968Y-8631484D01*
X7831968Y-8631484D02*
X7851015Y-8631484D01*
X7993873Y-8621960D02*
X7974825Y-8631484D01*
X7974825Y-8631484D02*
X7936730Y-8631484D01*
X7936730Y-8631484D02*
X7917682Y-8621960D01*
X7917682Y-8621960D02*
X7908158Y-8602912D01*
X7908158Y-8602912D02*
X7908158Y-8526722D01*
X7908158Y-8526722D02*
X7917682Y-8507674D01*
X7917682Y-8507674D02*
X7936730Y-8498150D01*
X7936730Y-8498150D02*
X7974825Y-8498150D01*
X7974825Y-8498150D02*
X7993873Y-8507674D01*
X7993873Y-8507674D02*
X8003396Y-8526722D01*
X8003396Y-8526722D02*
X8003396Y-8545770D01*
X8003396Y-8545770D02*
X7908158Y-8564817D01*
X8174825Y-8631484D02*
X8174825Y-8431484D01*
X8174825Y-8621960D02*
X8155777Y-8631484D01*
X8155777Y-8631484D02*
X8117682Y-8631484D01*
X8117682Y-8631484D02*
X8098634Y-8621960D01*
X8098634Y-8621960D02*
X8089111Y-8612436D01*
X8089111Y-8612436D02*
X8079587Y-8593389D01*
X8079587Y-8593389D02*
X8079587Y-8536246D01*
X8079587Y-8536246D02*
X8089111Y-8517198D01*
X8089111Y-8517198D02*
X8098634Y-8507674D01*
X8098634Y-8507674D02*
X8117682Y-8498150D01*
X8117682Y-8498150D02*
X8155777Y-8498150D01*
X8155777Y-8498150D02*
X8174825Y-8507674D01*
X8251015Y-8707674D02*
X8260539Y-8698150D01*
X8260539Y-8698150D02*
X8279587Y-8669579D01*
X8279587Y-8669579D02*
X8289111Y-8650531D01*
X8289111Y-8650531D02*
X8298634Y-8621960D01*
X8298634Y-8621960D02*
X8308158Y-8574341D01*
X8308158Y-8574341D02*
X8308158Y-8536246D01*
X8308158Y-8536246D02*
X8298634Y-8488627D01*
X8298634Y-8488627D02*
X8289111Y-8460055D01*
X8289111Y-8460055D02*
X8279587Y-8441008D01*
X8279587Y-8441008D02*
X8260539Y-8412436D01*
X8260539Y-8412436D02*
X8251015Y-8402912D01*
M02*
