%TF.GenerationSoftware,KiCad,Pcbnew,10.0.3*%
%TF.CreationDate,2026-09-02T08:03:44+09:00*%
%TF.ProjectId,kc2_x3_v2_switch_coupon,6b63325f-7833-45f7-9632-5f7377697463,coupon-2-es1b*%
%TF.SameCoordinates,Original*%
%TF.FileFunction,Legend,Bot*%
%TF.FilePolarity,Positive*%
%FSLAX46Y46*%
G04 Gerber Fmt 4.6, Leading zero omitted, Abs format (unit mm)*
G04 Created by KiCad (PCBNEW 10.0.3) date 2026-09-02 08:03:44*
%MOMM*%
%LPD*%
G01*
G04 APERTURE LIST*
G04 Aperture macros list*
%AMRoundRect*
0 Rectangle with rounded corners*
0 $1 Rounding radius*
0 $2 $3 $4 $5 $6 $7 $8 $9 X,Y pos of 4 corners*
0 Add a 4 corners polygon primitive as box body*
4,1,4,$2,$3,$4,$5,$6,$7,$8,$9,$2,$3,0*
0 Add four circle primitives for the rounded corners*
1,1,$1+$1,$2,$3*
1,1,$1+$1,$4,$5*
1,1,$1+$1,$6,$7*
1,1,$1+$1,$8,$9*
0 Add four rect primitives between the rounded corners*
20,1,$1+$1,$2,$3,$4,$5,0*
20,1,$1+$1,$4,$5,$6,$7,0*
20,1,$1+$1,$6,$7,$8,$9,0*
20,1,$1+$1,$8,$9,$2,$3,0*%
G04 Aperture macros list end*
%ADD10C,0.120000*%
%ADD11C,0.150000*%
%ADD12C,0.200000*%
%ADD13C,3.000000*%
%ADD14C,1.700000*%
%ADD15C,5.000000*%
%ADD16C,1.650000*%
%ADD17C,2.500000*%
%ADD18RoundRect,0.520000X-0.780000X-0.780000X0.780000X-0.780000X0.780000X0.780000X-0.780000X0.780000X0*%
%ADD19RoundRect,0.520000X0.780000X0.780000X-0.780000X0.780000X-0.780000X-0.780000X0.780000X-0.780000X0*%
%ADD20RoundRect,0.252000X0.448000X0.523000X-0.448000X0.523000X-0.448000X-0.523000X0.448000X-0.523000X0*%
%ADD21RoundRect,0.252000X-0.448000X-0.523000X0.448000X-0.523000X0.448000X0.523000X-0.448000X0.523000X0*%
G04 APERTURE END LIST*
D10*
X33142856Y-27763855D02*
X33142856Y-26963855D01*
X33142856Y-26963855D02*
X32952380Y-26963855D01*
X32952380Y-26963855D02*
X32838094Y-27001950D01*
X32838094Y-27001950D02*
X32761904Y-27078140D01*
X32761904Y-27078140D02*
X32723809Y-27154331D01*
X32723809Y-27154331D02*
X32685713Y-27306712D01*
X32685713Y-27306712D02*
X32685713Y-27420998D01*
X32685713Y-27420998D02*
X32723809Y-27573379D01*
X32723809Y-27573379D02*
X32761904Y-27649569D01*
X32761904Y-27649569D02*
X32838094Y-27725760D01*
X32838094Y-27725760D02*
X32952380Y-27763855D01*
X32952380Y-27763855D02*
X33142856Y-27763855D01*
X32533333Y-27840045D02*
X31923809Y-27840045D01*
X31352380Y-27763855D02*
X31733332Y-27763855D01*
X31733332Y-27763855D02*
X31733332Y-26963855D01*
X30514285Y-27535283D02*
X30133332Y-27535283D01*
X30590475Y-27763855D02*
X30323808Y-26963855D01*
X30323808Y-26963855D02*
X30057142Y-27763855D01*
X29219047Y-26925760D02*
X29904761Y-27954331D01*
X28952380Y-27763855D02*
X28952380Y-26963855D01*
X28952380Y-26963855D02*
X28647618Y-26963855D01*
X28647618Y-26963855D02*
X28571428Y-27001950D01*
X28571428Y-27001950D02*
X28533333Y-27040045D01*
X28533333Y-27040045D02*
X28495237Y-27116236D01*
X28495237Y-27116236D02*
X28495237Y-27230521D01*
X28495237Y-27230521D02*
X28533333Y-27306712D01*
X28533333Y-27306712D02*
X28571428Y-27344807D01*
X28571428Y-27344807D02*
X28647618Y-27382902D01*
X28647618Y-27382902D02*
X28952380Y-27382902D01*
X28190476Y-27040045D02*
X28152380Y-27001950D01*
X28152380Y-27001950D02*
X28076190Y-26963855D01*
X28076190Y-26963855D02*
X27885714Y-26963855D01*
X27885714Y-26963855D02*
X27809523Y-27001950D01*
X27809523Y-27001950D02*
X27771428Y-27040045D01*
X27771428Y-27040045D02*
X27733333Y-27116236D01*
X27733333Y-27116236D02*
X27733333Y-27192426D01*
X27733333Y-27192426D02*
X27771428Y-27306712D01*
X27771428Y-27306712D02*
X28228571Y-27763855D01*
X28228571Y-27763855D02*
X27733333Y-27763855D01*
X26819047Y-27725760D02*
X26704761Y-27763855D01*
X26704761Y-27763855D02*
X26514285Y-27763855D01*
X26514285Y-27763855D02*
X26438094Y-27725760D01*
X26438094Y-27725760D02*
X26399999Y-27687664D01*
X26399999Y-27687664D02*
X26361904Y-27611474D01*
X26361904Y-27611474D02*
X26361904Y-27535283D01*
X26361904Y-27535283D02*
X26399999Y-27459093D01*
X26399999Y-27459093D02*
X26438094Y-27420998D01*
X26438094Y-27420998D02*
X26514285Y-27382902D01*
X26514285Y-27382902D02*
X26666666Y-27344807D01*
X26666666Y-27344807D02*
X26742856Y-27306712D01*
X26742856Y-27306712D02*
X26780951Y-27268617D01*
X26780951Y-27268617D02*
X26819047Y-27192426D01*
X26819047Y-27192426D02*
X26819047Y-27116236D01*
X26819047Y-27116236D02*
X26780951Y-27040045D01*
X26780951Y-27040045D02*
X26742856Y-27001950D01*
X26742856Y-27001950D02*
X26666666Y-26963855D01*
X26666666Y-26963855D02*
X26476189Y-26963855D01*
X26476189Y-26963855D02*
X26361904Y-27001950D01*
X26095237Y-26963855D02*
X25904761Y-27763855D01*
X25904761Y-27763855D02*
X25752380Y-27192426D01*
X25752380Y-27192426D02*
X25599999Y-27763855D01*
X25599999Y-27763855D02*
X25409523Y-26963855D01*
X25104760Y-27763855D02*
X25104760Y-26963855D01*
X24838094Y-26963855D02*
X24380951Y-26963855D01*
X24609523Y-27763855D02*
X24609523Y-26963855D01*
X23657141Y-27687664D02*
X23695237Y-27725760D01*
X23695237Y-27725760D02*
X23809522Y-27763855D01*
X23809522Y-27763855D02*
X23885713Y-27763855D01*
X23885713Y-27763855D02*
X23999999Y-27725760D01*
X23999999Y-27725760D02*
X24076189Y-27649569D01*
X24076189Y-27649569D02*
X24114284Y-27573379D01*
X24114284Y-27573379D02*
X24152380Y-27420998D01*
X24152380Y-27420998D02*
X24152380Y-27306712D01*
X24152380Y-27306712D02*
X24114284Y-27154331D01*
X24114284Y-27154331D02*
X24076189Y-27078140D01*
X24076189Y-27078140D02*
X23999999Y-27001950D01*
X23999999Y-27001950D02*
X23885713Y-26963855D01*
X23885713Y-26963855D02*
X23809522Y-26963855D01*
X23809522Y-26963855D02*
X23695237Y-27001950D01*
X23695237Y-27001950D02*
X23657141Y-27040045D01*
X23314284Y-27763855D02*
X23314284Y-26963855D01*
X23314284Y-27344807D02*
X22857141Y-27344807D01*
X22857141Y-27763855D02*
X22857141Y-26963855D01*
X32323809Y-29263855D02*
X32323809Y-28463855D01*
X32323809Y-28463855D02*
X32133333Y-28463855D01*
X32133333Y-28463855D02*
X32019047Y-28501950D01*
X32019047Y-28501950D02*
X31942857Y-28578140D01*
X31942857Y-28578140D02*
X31904762Y-28654331D01*
X31904762Y-28654331D02*
X31866666Y-28806712D01*
X31866666Y-28806712D02*
X31866666Y-28920998D01*
X31866666Y-28920998D02*
X31904762Y-29073379D01*
X31904762Y-29073379D02*
X31942857Y-29149569D01*
X31942857Y-29149569D02*
X32019047Y-29225760D01*
X32019047Y-29225760D02*
X32133333Y-29263855D01*
X32133333Y-29263855D02*
X32323809Y-29263855D01*
X31714286Y-29340045D02*
X31104762Y-29340045D01*
X30533333Y-29263855D02*
X30914285Y-29263855D01*
X30914285Y-29263855D02*
X30914285Y-28463855D01*
X29657142Y-29263855D02*
X29657142Y-28463855D01*
X29199999Y-29263855D02*
X29542857Y-28806712D01*
X29199999Y-28463855D02*
X29657142Y-28920998D01*
X28285714Y-28425760D02*
X28971428Y-29454331D01*
X28019047Y-29263855D02*
X28019047Y-28463855D01*
X28019047Y-28463855D02*
X27714285Y-28463855D01*
X27714285Y-28463855D02*
X27638095Y-28501950D01*
X27638095Y-28501950D02*
X27600000Y-28540045D01*
X27600000Y-28540045D02*
X27561904Y-28616236D01*
X27561904Y-28616236D02*
X27561904Y-28730521D01*
X27561904Y-28730521D02*
X27600000Y-28806712D01*
X27600000Y-28806712D02*
X27638095Y-28844807D01*
X27638095Y-28844807D02*
X27714285Y-28882902D01*
X27714285Y-28882902D02*
X28019047Y-28882902D01*
X26800000Y-29263855D02*
X27257143Y-29263855D01*
X27028571Y-29263855D02*
X27028571Y-28463855D01*
X27028571Y-28463855D02*
X27104762Y-28578140D01*
X27104762Y-28578140D02*
X27180952Y-28654331D01*
X27180952Y-28654331D02*
X27257143Y-28692426D01*
X25390475Y-29263855D02*
X25657142Y-28882902D01*
X25847618Y-29263855D02*
X25847618Y-28463855D01*
X25847618Y-28463855D02*
X25542856Y-28463855D01*
X25542856Y-28463855D02*
X25466666Y-28501950D01*
X25466666Y-28501950D02*
X25428571Y-28540045D01*
X25428571Y-28540045D02*
X25390475Y-28616236D01*
X25390475Y-28616236D02*
X25390475Y-28730521D01*
X25390475Y-28730521D02*
X25428571Y-28806712D01*
X25428571Y-28806712D02*
X25466666Y-28844807D01*
X25466666Y-28844807D02*
X25542856Y-28882902D01*
X25542856Y-28882902D02*
X25847618Y-28882902D01*
X24895237Y-28463855D02*
X24742856Y-28463855D01*
X24742856Y-28463855D02*
X24666666Y-28501950D01*
X24666666Y-28501950D02*
X24590475Y-28578140D01*
X24590475Y-28578140D02*
X24552380Y-28730521D01*
X24552380Y-28730521D02*
X24552380Y-28997188D01*
X24552380Y-28997188D02*
X24590475Y-29149569D01*
X24590475Y-29149569D02*
X24666666Y-29225760D01*
X24666666Y-29225760D02*
X24742856Y-29263855D01*
X24742856Y-29263855D02*
X24895237Y-29263855D01*
X24895237Y-29263855D02*
X24971428Y-29225760D01*
X24971428Y-29225760D02*
X25047618Y-29149569D01*
X25047618Y-29149569D02*
X25085714Y-28997188D01*
X25085714Y-28997188D02*
X25085714Y-28730521D01*
X25085714Y-28730521D02*
X25047618Y-28578140D01*
X25047618Y-28578140D02*
X24971428Y-28501950D01*
X24971428Y-28501950D02*
X24895237Y-28463855D01*
X24285714Y-28463855D02*
X24095238Y-29263855D01*
X24095238Y-29263855D02*
X23942857Y-28692426D01*
X23942857Y-28692426D02*
X23790476Y-29263855D01*
X23790476Y-29263855D02*
X23600000Y-28463855D01*
X52707142Y-27763855D02*
X52707142Y-26963855D01*
X52707142Y-26963855D02*
X52516666Y-26963855D01*
X52516666Y-26963855D02*
X52402380Y-27001950D01*
X52402380Y-27001950D02*
X52326190Y-27078140D01*
X52326190Y-27078140D02*
X52288095Y-27154331D01*
X52288095Y-27154331D02*
X52249999Y-27306712D01*
X52249999Y-27306712D02*
X52249999Y-27420998D01*
X52249999Y-27420998D02*
X52288095Y-27573379D01*
X52288095Y-27573379D02*
X52326190Y-27649569D01*
X52326190Y-27649569D02*
X52402380Y-27725760D01*
X52402380Y-27725760D02*
X52516666Y-27763855D01*
X52516666Y-27763855D02*
X52707142Y-27763855D01*
X52097619Y-27840045D02*
X51488095Y-27840045D01*
X51297618Y-27763855D02*
X51297618Y-26963855D01*
X51297618Y-26963855D02*
X51030952Y-27535283D01*
X51030952Y-27535283D02*
X50764285Y-26963855D01*
X50764285Y-26963855D02*
X50764285Y-27763855D01*
X50459523Y-26963855D02*
X49926189Y-27763855D01*
X49926189Y-26963855D02*
X50459523Y-27763855D01*
X49049999Y-27535283D02*
X48669046Y-27535283D01*
X49126189Y-27763855D02*
X48859522Y-26963855D01*
X48859522Y-26963855D02*
X48592856Y-27763855D01*
X47754761Y-26925760D02*
X48440475Y-27954331D01*
X47488094Y-27763855D02*
X47488094Y-26963855D01*
X47488094Y-26963855D02*
X47183332Y-26963855D01*
X47183332Y-26963855D02*
X47107142Y-27001950D01*
X47107142Y-27001950D02*
X47069047Y-27040045D01*
X47069047Y-27040045D02*
X47030951Y-27116236D01*
X47030951Y-27116236D02*
X47030951Y-27230521D01*
X47030951Y-27230521D02*
X47069047Y-27306712D01*
X47069047Y-27306712D02*
X47107142Y-27344807D01*
X47107142Y-27344807D02*
X47183332Y-27382902D01*
X47183332Y-27382902D02*
X47488094Y-27382902D01*
X46726190Y-27040045D02*
X46688094Y-27001950D01*
X46688094Y-27001950D02*
X46611904Y-26963855D01*
X46611904Y-26963855D02*
X46421428Y-26963855D01*
X46421428Y-26963855D02*
X46345237Y-27001950D01*
X46345237Y-27001950D02*
X46307142Y-27040045D01*
X46307142Y-27040045D02*
X46269047Y-27116236D01*
X46269047Y-27116236D02*
X46269047Y-27192426D01*
X46269047Y-27192426D02*
X46307142Y-27306712D01*
X46307142Y-27306712D02*
X46764285Y-27763855D01*
X46764285Y-27763855D02*
X46269047Y-27763855D01*
X45354761Y-27725760D02*
X45240475Y-27763855D01*
X45240475Y-27763855D02*
X45049999Y-27763855D01*
X45049999Y-27763855D02*
X44973808Y-27725760D01*
X44973808Y-27725760D02*
X44935713Y-27687664D01*
X44935713Y-27687664D02*
X44897618Y-27611474D01*
X44897618Y-27611474D02*
X44897618Y-27535283D01*
X44897618Y-27535283D02*
X44935713Y-27459093D01*
X44935713Y-27459093D02*
X44973808Y-27420998D01*
X44973808Y-27420998D02*
X45049999Y-27382902D01*
X45049999Y-27382902D02*
X45202380Y-27344807D01*
X45202380Y-27344807D02*
X45278570Y-27306712D01*
X45278570Y-27306712D02*
X45316665Y-27268617D01*
X45316665Y-27268617D02*
X45354761Y-27192426D01*
X45354761Y-27192426D02*
X45354761Y-27116236D01*
X45354761Y-27116236D02*
X45316665Y-27040045D01*
X45316665Y-27040045D02*
X45278570Y-27001950D01*
X45278570Y-27001950D02*
X45202380Y-26963855D01*
X45202380Y-26963855D02*
X45011903Y-26963855D01*
X45011903Y-26963855D02*
X44897618Y-27001950D01*
X44630951Y-26963855D02*
X44440475Y-27763855D01*
X44440475Y-27763855D02*
X44288094Y-27192426D01*
X44288094Y-27192426D02*
X44135713Y-27763855D01*
X44135713Y-27763855D02*
X43945237Y-26963855D01*
X43640474Y-27763855D02*
X43640474Y-26963855D01*
X43373808Y-26963855D02*
X42916665Y-26963855D01*
X43145237Y-27763855D02*
X43145237Y-26963855D01*
X42192855Y-27687664D02*
X42230951Y-27725760D01*
X42230951Y-27725760D02*
X42345236Y-27763855D01*
X42345236Y-27763855D02*
X42421427Y-27763855D01*
X42421427Y-27763855D02*
X42535713Y-27725760D01*
X42535713Y-27725760D02*
X42611903Y-27649569D01*
X42611903Y-27649569D02*
X42649998Y-27573379D01*
X42649998Y-27573379D02*
X42688094Y-27420998D01*
X42688094Y-27420998D02*
X42688094Y-27306712D01*
X42688094Y-27306712D02*
X42649998Y-27154331D01*
X42649998Y-27154331D02*
X42611903Y-27078140D01*
X42611903Y-27078140D02*
X42535713Y-27001950D01*
X42535713Y-27001950D02*
X42421427Y-26963855D01*
X42421427Y-26963855D02*
X42345236Y-26963855D01*
X42345236Y-26963855D02*
X42230951Y-27001950D01*
X42230951Y-27001950D02*
X42192855Y-27040045D01*
X41849998Y-27763855D02*
X41849998Y-26963855D01*
X41849998Y-27344807D02*
X41392855Y-27344807D01*
X41392855Y-27763855D02*
X41392855Y-26963855D01*
X51888095Y-29263855D02*
X51888095Y-28463855D01*
X51888095Y-28463855D02*
X51697619Y-28463855D01*
X51697619Y-28463855D02*
X51583333Y-28501950D01*
X51583333Y-28501950D02*
X51507143Y-28578140D01*
X51507143Y-28578140D02*
X51469048Y-28654331D01*
X51469048Y-28654331D02*
X51430952Y-28806712D01*
X51430952Y-28806712D02*
X51430952Y-28920998D01*
X51430952Y-28920998D02*
X51469048Y-29073379D01*
X51469048Y-29073379D02*
X51507143Y-29149569D01*
X51507143Y-29149569D02*
X51583333Y-29225760D01*
X51583333Y-29225760D02*
X51697619Y-29263855D01*
X51697619Y-29263855D02*
X51888095Y-29263855D01*
X51278572Y-29340045D02*
X50669048Y-29340045D01*
X50478571Y-29263855D02*
X50478571Y-28463855D01*
X50478571Y-28463855D02*
X50211905Y-29035283D01*
X50211905Y-29035283D02*
X49945238Y-28463855D01*
X49945238Y-28463855D02*
X49945238Y-29263855D01*
X49640476Y-28463855D02*
X49107142Y-29263855D01*
X49107142Y-28463855D02*
X49640476Y-29263855D01*
X48192856Y-29263855D02*
X48192856Y-28463855D01*
X47735713Y-29263855D02*
X48078571Y-28806712D01*
X47735713Y-28463855D02*
X48192856Y-28920998D01*
X46821428Y-28425760D02*
X47507142Y-29454331D01*
X46554761Y-29263855D02*
X46554761Y-28463855D01*
X46554761Y-28463855D02*
X46249999Y-28463855D01*
X46249999Y-28463855D02*
X46173809Y-28501950D01*
X46173809Y-28501950D02*
X46135714Y-28540045D01*
X46135714Y-28540045D02*
X46097618Y-28616236D01*
X46097618Y-28616236D02*
X46097618Y-28730521D01*
X46097618Y-28730521D02*
X46135714Y-28806712D01*
X46135714Y-28806712D02*
X46173809Y-28844807D01*
X46173809Y-28844807D02*
X46249999Y-28882902D01*
X46249999Y-28882902D02*
X46554761Y-28882902D01*
X45335714Y-29263855D02*
X45792857Y-29263855D01*
X45564285Y-29263855D02*
X45564285Y-28463855D01*
X45564285Y-28463855D02*
X45640476Y-28578140D01*
X45640476Y-28578140D02*
X45716666Y-28654331D01*
X45716666Y-28654331D02*
X45792857Y-28692426D01*
X43926189Y-29263855D02*
X44192856Y-28882902D01*
X44383332Y-29263855D02*
X44383332Y-28463855D01*
X44383332Y-28463855D02*
X44078570Y-28463855D01*
X44078570Y-28463855D02*
X44002380Y-28501950D01*
X44002380Y-28501950D02*
X43964285Y-28540045D01*
X43964285Y-28540045D02*
X43926189Y-28616236D01*
X43926189Y-28616236D02*
X43926189Y-28730521D01*
X43926189Y-28730521D02*
X43964285Y-28806712D01*
X43964285Y-28806712D02*
X44002380Y-28844807D01*
X44002380Y-28844807D02*
X44078570Y-28882902D01*
X44078570Y-28882902D02*
X44383332Y-28882902D01*
X43430951Y-28463855D02*
X43278570Y-28463855D01*
X43278570Y-28463855D02*
X43202380Y-28501950D01*
X43202380Y-28501950D02*
X43126189Y-28578140D01*
X43126189Y-28578140D02*
X43088094Y-28730521D01*
X43088094Y-28730521D02*
X43088094Y-28997188D01*
X43088094Y-28997188D02*
X43126189Y-29149569D01*
X43126189Y-29149569D02*
X43202380Y-29225760D01*
X43202380Y-29225760D02*
X43278570Y-29263855D01*
X43278570Y-29263855D02*
X43430951Y-29263855D01*
X43430951Y-29263855D02*
X43507142Y-29225760D01*
X43507142Y-29225760D02*
X43583332Y-29149569D01*
X43583332Y-29149569D02*
X43621428Y-28997188D01*
X43621428Y-28997188D02*
X43621428Y-28730521D01*
X43621428Y-28730521D02*
X43583332Y-28578140D01*
X43583332Y-28578140D02*
X43507142Y-28501950D01*
X43507142Y-28501950D02*
X43430951Y-28463855D01*
X42821428Y-28463855D02*
X42630952Y-29263855D01*
X42630952Y-29263855D02*
X42478571Y-28692426D01*
X42478571Y-28692426D02*
X42326190Y-29263855D01*
X42326190Y-29263855D02*
X42135714Y-28463855D01*
X70499998Y-51463855D02*
X70499998Y-50663855D01*
X70499998Y-50663855D02*
X70309522Y-50663855D01*
X70309522Y-50663855D02*
X70195236Y-50701950D01*
X70195236Y-50701950D02*
X70119046Y-50778140D01*
X70119046Y-50778140D02*
X70080951Y-50854331D01*
X70080951Y-50854331D02*
X70042855Y-51006712D01*
X70042855Y-51006712D02*
X70042855Y-51120998D01*
X70042855Y-51120998D02*
X70080951Y-51273379D01*
X70080951Y-51273379D02*
X70119046Y-51349569D01*
X70119046Y-51349569D02*
X70195236Y-51425760D01*
X70195236Y-51425760D02*
X70309522Y-51463855D01*
X70309522Y-51463855D02*
X70499998Y-51463855D01*
X69890475Y-51540045D02*
X69280951Y-51540045D01*
X68633331Y-51463855D02*
X68899998Y-51082902D01*
X69090474Y-51463855D02*
X69090474Y-50663855D01*
X69090474Y-50663855D02*
X68785712Y-50663855D01*
X68785712Y-50663855D02*
X68709522Y-50701950D01*
X68709522Y-50701950D02*
X68671427Y-50740045D01*
X68671427Y-50740045D02*
X68633331Y-50816236D01*
X68633331Y-50816236D02*
X68633331Y-50930521D01*
X68633331Y-50930521D02*
X68671427Y-51006712D01*
X68671427Y-51006712D02*
X68709522Y-51044807D01*
X68709522Y-51044807D02*
X68785712Y-51082902D01*
X68785712Y-51082902D02*
X69090474Y-51082902D01*
X67680950Y-51463855D02*
X67680950Y-50663855D01*
X67223807Y-51463855D02*
X67566665Y-51006712D01*
X67223807Y-50663855D02*
X67680950Y-51120998D01*
X66309522Y-50625760D02*
X66995236Y-51654331D01*
X66042855Y-51463855D02*
X66042855Y-50663855D01*
X66042855Y-50663855D02*
X65738093Y-50663855D01*
X65738093Y-50663855D02*
X65661903Y-50701950D01*
X65661903Y-50701950D02*
X65623808Y-50740045D01*
X65623808Y-50740045D02*
X65585712Y-50816236D01*
X65585712Y-50816236D02*
X65585712Y-50930521D01*
X65585712Y-50930521D02*
X65623808Y-51006712D01*
X65623808Y-51006712D02*
X65661903Y-51044807D01*
X65661903Y-51044807D02*
X65738093Y-51082902D01*
X65738093Y-51082902D02*
X66042855Y-51082902D01*
X64823808Y-51463855D02*
X65280951Y-51463855D01*
X65052379Y-51463855D02*
X65052379Y-50663855D01*
X65052379Y-50663855D02*
X65128570Y-50778140D01*
X65128570Y-50778140D02*
X65204760Y-50854331D01*
X65204760Y-50854331D02*
X65280951Y-50892426D01*
X63414283Y-51463855D02*
X63680950Y-51082902D01*
X63871426Y-51463855D02*
X63871426Y-50663855D01*
X63871426Y-50663855D02*
X63566664Y-50663855D01*
X63566664Y-50663855D02*
X63490474Y-50701950D01*
X63490474Y-50701950D02*
X63452379Y-50740045D01*
X63452379Y-50740045D02*
X63414283Y-50816236D01*
X63414283Y-50816236D02*
X63414283Y-50930521D01*
X63414283Y-50930521D02*
X63452379Y-51006712D01*
X63452379Y-51006712D02*
X63490474Y-51044807D01*
X63490474Y-51044807D02*
X63566664Y-51082902D01*
X63566664Y-51082902D02*
X63871426Y-51082902D01*
X62919045Y-50663855D02*
X62766664Y-50663855D01*
X62766664Y-50663855D02*
X62690474Y-50701950D01*
X62690474Y-50701950D02*
X62614283Y-50778140D01*
X62614283Y-50778140D02*
X62576188Y-50930521D01*
X62576188Y-50930521D02*
X62576188Y-51197188D01*
X62576188Y-51197188D02*
X62614283Y-51349569D01*
X62614283Y-51349569D02*
X62690474Y-51425760D01*
X62690474Y-51425760D02*
X62766664Y-51463855D01*
X62766664Y-51463855D02*
X62919045Y-51463855D01*
X62919045Y-51463855D02*
X62995236Y-51425760D01*
X62995236Y-51425760D02*
X63071426Y-51349569D01*
X63071426Y-51349569D02*
X63109522Y-51197188D01*
X63109522Y-51197188D02*
X63109522Y-50930521D01*
X63109522Y-50930521D02*
X63071426Y-50778140D01*
X63071426Y-50778140D02*
X62995236Y-50701950D01*
X62995236Y-50701950D02*
X62919045Y-50663855D01*
X62309522Y-50663855D02*
X62119046Y-51463855D01*
X62119046Y-51463855D02*
X61966665Y-50892426D01*
X61966665Y-50892426D02*
X61814284Y-51463855D01*
X61814284Y-51463855D02*
X61623808Y-50663855D01*
X71319046Y-52963855D02*
X71319046Y-52163855D01*
X71319046Y-52163855D02*
X71128570Y-52163855D01*
X71128570Y-52163855D02*
X71014284Y-52201950D01*
X71014284Y-52201950D02*
X70938094Y-52278140D01*
X70938094Y-52278140D02*
X70899999Y-52354331D01*
X70899999Y-52354331D02*
X70861903Y-52506712D01*
X70861903Y-52506712D02*
X70861903Y-52620998D01*
X70861903Y-52620998D02*
X70899999Y-52773379D01*
X70899999Y-52773379D02*
X70938094Y-52849569D01*
X70938094Y-52849569D02*
X71014284Y-52925760D01*
X71014284Y-52925760D02*
X71128570Y-52963855D01*
X71128570Y-52963855D02*
X71319046Y-52963855D01*
X70709523Y-53040045D02*
X70099999Y-53040045D01*
X69452379Y-52963855D02*
X69719046Y-52582902D01*
X69909522Y-52963855D02*
X69909522Y-52163855D01*
X69909522Y-52163855D02*
X69604760Y-52163855D01*
X69604760Y-52163855D02*
X69528570Y-52201950D01*
X69528570Y-52201950D02*
X69490475Y-52240045D01*
X69490475Y-52240045D02*
X69452379Y-52316236D01*
X69452379Y-52316236D02*
X69452379Y-52430521D01*
X69452379Y-52430521D02*
X69490475Y-52506712D01*
X69490475Y-52506712D02*
X69528570Y-52544807D01*
X69528570Y-52544807D02*
X69604760Y-52582902D01*
X69604760Y-52582902D02*
X69909522Y-52582902D01*
X68538094Y-52735283D02*
X68157141Y-52735283D01*
X68614284Y-52963855D02*
X68347617Y-52163855D01*
X68347617Y-52163855D02*
X68080951Y-52963855D01*
X67242856Y-52125760D02*
X67928570Y-53154331D01*
X66976189Y-52963855D02*
X66976189Y-52163855D01*
X66976189Y-52163855D02*
X66671427Y-52163855D01*
X66671427Y-52163855D02*
X66595237Y-52201950D01*
X66595237Y-52201950D02*
X66557142Y-52240045D01*
X66557142Y-52240045D02*
X66519046Y-52316236D01*
X66519046Y-52316236D02*
X66519046Y-52430521D01*
X66519046Y-52430521D02*
X66557142Y-52506712D01*
X66557142Y-52506712D02*
X66595237Y-52544807D01*
X66595237Y-52544807D02*
X66671427Y-52582902D01*
X66671427Y-52582902D02*
X66976189Y-52582902D01*
X66214285Y-52240045D02*
X66176189Y-52201950D01*
X66176189Y-52201950D02*
X66099999Y-52163855D01*
X66099999Y-52163855D02*
X65909523Y-52163855D01*
X65909523Y-52163855D02*
X65833332Y-52201950D01*
X65833332Y-52201950D02*
X65795237Y-52240045D01*
X65795237Y-52240045D02*
X65757142Y-52316236D01*
X65757142Y-52316236D02*
X65757142Y-52392426D01*
X65757142Y-52392426D02*
X65795237Y-52506712D01*
X65795237Y-52506712D02*
X66252380Y-52963855D01*
X66252380Y-52963855D02*
X65757142Y-52963855D01*
X64842856Y-52925760D02*
X64728570Y-52963855D01*
X64728570Y-52963855D02*
X64538094Y-52963855D01*
X64538094Y-52963855D02*
X64461903Y-52925760D01*
X64461903Y-52925760D02*
X64423808Y-52887664D01*
X64423808Y-52887664D02*
X64385713Y-52811474D01*
X64385713Y-52811474D02*
X64385713Y-52735283D01*
X64385713Y-52735283D02*
X64423808Y-52659093D01*
X64423808Y-52659093D02*
X64461903Y-52620998D01*
X64461903Y-52620998D02*
X64538094Y-52582902D01*
X64538094Y-52582902D02*
X64690475Y-52544807D01*
X64690475Y-52544807D02*
X64766665Y-52506712D01*
X64766665Y-52506712D02*
X64804760Y-52468617D01*
X64804760Y-52468617D02*
X64842856Y-52392426D01*
X64842856Y-52392426D02*
X64842856Y-52316236D01*
X64842856Y-52316236D02*
X64804760Y-52240045D01*
X64804760Y-52240045D02*
X64766665Y-52201950D01*
X64766665Y-52201950D02*
X64690475Y-52163855D01*
X64690475Y-52163855D02*
X64499998Y-52163855D01*
X64499998Y-52163855D02*
X64385713Y-52201950D01*
X64119046Y-52163855D02*
X63928570Y-52963855D01*
X63928570Y-52963855D02*
X63776189Y-52392426D01*
X63776189Y-52392426D02*
X63623808Y-52963855D01*
X63623808Y-52963855D02*
X63433332Y-52163855D01*
X63128569Y-52963855D02*
X63128569Y-52163855D01*
X62861903Y-52163855D02*
X62404760Y-52163855D01*
X62633332Y-52963855D02*
X62633332Y-52163855D01*
X61680950Y-52887664D02*
X61719046Y-52925760D01*
X61719046Y-52925760D02*
X61833331Y-52963855D01*
X61833331Y-52963855D02*
X61909522Y-52963855D01*
X61909522Y-52963855D02*
X62023808Y-52925760D01*
X62023808Y-52925760D02*
X62099998Y-52849569D01*
X62099998Y-52849569D02*
X62138093Y-52773379D01*
X62138093Y-52773379D02*
X62176189Y-52620998D01*
X62176189Y-52620998D02*
X62176189Y-52506712D01*
X62176189Y-52506712D02*
X62138093Y-52354331D01*
X62138093Y-52354331D02*
X62099998Y-52278140D01*
X62099998Y-52278140D02*
X62023808Y-52201950D01*
X62023808Y-52201950D02*
X61909522Y-52163855D01*
X61909522Y-52163855D02*
X61833331Y-52163855D01*
X61833331Y-52163855D02*
X61719046Y-52201950D01*
X61719046Y-52201950D02*
X61680950Y-52240045D01*
X61338093Y-52963855D02*
X61338093Y-52163855D01*
X61338093Y-52544807D02*
X60880950Y-52544807D01*
X60880950Y-52963855D02*
X60880950Y-52163855D01*
%TO.C,D_MX*%
D11*
X47800000Y-30550000D02*
X47600000Y-30550000D01*
D12*
X47800000Y-30550000D02*
X47800000Y-32250000D01*
D11*
X47800000Y-32250000D02*
X47600000Y-32250000D01*
%TO.C,D_R*%
X65349999Y-47750000D02*
X65549999Y-47750000D01*
D12*
X65349999Y-49450000D02*
X65349999Y-47750000D01*
D11*
X65349999Y-49450000D02*
X65549999Y-49450000D01*
%TO.C,D_L*%
X28750000Y-30550000D02*
X28550000Y-30550000D01*
D12*
X28750000Y-30550000D02*
X28750000Y-32250000D01*
D11*
X28750000Y-32250000D02*
X28550000Y-32250000D01*
%TD*%
%LPC*%
D13*
%TO.C,TP_L_COL*%
X28000000Y-66000000D03*
%TD*%
D14*
%TO.C,SW_MX*%
X41970000Y-40000000D03*
D13*
X42050000Y-43800000D03*
D15*
X47050000Y-40000000D03*
D13*
X47050000Y-45900000D03*
D16*
X52050000Y-34850000D03*
D14*
X52130000Y-40000000D03*
D17*
X49590000Y-34920000D03*
D18*
X50750000Y-45900000D03*
X38350000Y-43800000D03*
D17*
X43240000Y-37460000D03*
%TD*%
D13*
%TO.C,TP_MX_COL*%
X47050000Y-66000000D03*
%TD*%
%TO.C,TP_R_COL*%
X66099999Y-14000000D03*
%TD*%
D14*
%TO.C,SW_L*%
X22920000Y-40000000D03*
D13*
X23000000Y-43800000D03*
D15*
X28000000Y-40000000D03*
D13*
X28000000Y-45900000D03*
D16*
X33000000Y-34850000D03*
D14*
X33080000Y-40000000D03*
D17*
X30540000Y-34920000D03*
D18*
X31700000Y-45900000D03*
X19300000Y-43800000D03*
D17*
X24190000Y-37460000D03*
%TD*%
D13*
%TO.C,TP_L_ROW*%
X29800000Y-14000000D03*
%TD*%
%TO.C,TP_MX_ANODE*%
X45250000Y-14000000D03*
%TD*%
%TO.C,TP_MX_ROW*%
X48850000Y-14000000D03*
%TD*%
%TO.C,TP_L_ANODE*%
X26200000Y-14000000D03*
%TD*%
D14*
%TO.C,SW_R*%
X71179999Y-40000000D03*
D13*
X71099999Y-36200000D03*
D15*
X66099999Y-40000000D03*
D13*
X66099999Y-34100000D03*
D16*
X61099999Y-45150000D03*
D14*
X61019999Y-40000000D03*
D17*
X63559999Y-45080000D03*
D19*
X62399999Y-34100000D03*
X74799999Y-36200000D03*
D17*
X69909999Y-42540000D03*
%TD*%
D13*
%TO.C,TP_R_ANODE*%
X67899999Y-66000000D03*
%TD*%
%TO.C,TP_R_ROW*%
X64299999Y-66000000D03*
%TD*%
D20*
%TO.C,D_MX*%
X48850000Y-31400000D03*
X45250000Y-31400000D03*
%TD*%
D21*
%TO.C,D_R*%
X64299999Y-48600000D03*
X67899999Y-48600000D03*
%TD*%
D20*
%TO.C,D_L*%
X29800000Y-31400000D03*
X26200000Y-31400000D03*
%TD*%
%LPD*%
M02*
