%TF.GenerationSoftware,KiCad,Pcbnew,10.0.3*%
%TF.CreationDate,2026-08-29T10:22:02+09:00*%
%TF.ProjectId,kc2_x3_v2_switch_coupon,6b63325f-7833-45f7-9632-5f7377697463,coupon-2-es1b*%
%TF.SameCoordinates,Original*%
%TF.FileFunction,Legend,Top*%
%TF.FilePolarity,Positive*%
%FSLAX46Y46*%
G04 Gerber Fmt 4.6, Leading zero omitted, Abs format (unit mm)*
G04 Created by KiCad (PCBNEW 10.0.3) date 2026-08-29 10:22:02*
%MOMM*%
%LPD*%
G01*
G04 APERTURE LIST*
%ADD10C,0.120000*%
%ADD11C,3.000000*%
%ADD12C,1.700000*%
%ADD13C,5.000000*%
%ADD14C,1.650000*%
%ADD15C,2.500000*%
G04 APERTURE END LIST*
D10*
X25309524Y-17363855D02*
X24928572Y-17363855D01*
X24928572Y-17363855D02*
X24928572Y-16563855D01*
X25576191Y-17059093D02*
X26185715Y-17059093D01*
X26528571Y-17135283D02*
X26909524Y-17135283D01*
X26452381Y-17363855D02*
X26719048Y-16563855D01*
X26719048Y-16563855D02*
X26985714Y-17363855D01*
X26609524Y-63363855D02*
X26228572Y-63363855D01*
X26228572Y-63363855D02*
X26228572Y-62563855D01*
X26876191Y-63059093D02*
X27485715Y-63059093D01*
X28323810Y-63287664D02*
X28285714Y-63325760D01*
X28285714Y-63325760D02*
X28171429Y-63363855D01*
X28171429Y-63363855D02*
X28095238Y-63363855D01*
X28095238Y-63363855D02*
X27980952Y-63325760D01*
X27980952Y-63325760D02*
X27904762Y-63249569D01*
X27904762Y-63249569D02*
X27866667Y-63173379D01*
X27866667Y-63173379D02*
X27828571Y-63020998D01*
X27828571Y-63020998D02*
X27828571Y-62906712D01*
X27828571Y-62906712D02*
X27866667Y-62754331D01*
X27866667Y-62754331D02*
X27904762Y-62678140D01*
X27904762Y-62678140D02*
X27980952Y-62601950D01*
X27980952Y-62601950D02*
X28095238Y-62563855D01*
X28095238Y-62563855D02*
X28171429Y-62563855D01*
X28171429Y-62563855D02*
X28285714Y-62601950D01*
X28285714Y-62601950D02*
X28323810Y-62640045D01*
X28819048Y-62563855D02*
X28971429Y-62563855D01*
X28971429Y-62563855D02*
X29047619Y-62601950D01*
X29047619Y-62601950D02*
X29123810Y-62678140D01*
X29123810Y-62678140D02*
X29161905Y-62830521D01*
X29161905Y-62830521D02*
X29161905Y-63097188D01*
X29161905Y-63097188D02*
X29123810Y-63249569D01*
X29123810Y-63249569D02*
X29047619Y-63325760D01*
X29047619Y-63325760D02*
X28971429Y-63363855D01*
X28971429Y-63363855D02*
X28819048Y-63363855D01*
X28819048Y-63363855D02*
X28742857Y-63325760D01*
X28742857Y-63325760D02*
X28666667Y-63249569D01*
X28666667Y-63249569D02*
X28628571Y-63097188D01*
X28628571Y-63097188D02*
X28628571Y-62830521D01*
X28628571Y-62830521D02*
X28666667Y-62678140D01*
X28666667Y-62678140D02*
X28742857Y-62601950D01*
X28742857Y-62601950D02*
X28819048Y-62563855D01*
X29885714Y-63363855D02*
X29504762Y-63363855D01*
X29504762Y-63363855D02*
X29504762Y-62563855D01*
X29452381Y-17363855D02*
X29071429Y-17363855D01*
X29071429Y-17363855D02*
X29071429Y-16563855D01*
X29719048Y-17059093D02*
X30328572Y-17059093D01*
X30709524Y-17363855D02*
X30709524Y-16563855D01*
X31166667Y-17363855D02*
X30823809Y-16906712D01*
X31166667Y-16563855D02*
X30709524Y-17020998D01*
X43464286Y-17363855D02*
X43464286Y-16563855D01*
X43464286Y-16563855D02*
X43730952Y-17135283D01*
X43730952Y-17135283D02*
X43997619Y-16563855D01*
X43997619Y-16563855D02*
X43997619Y-17363855D01*
X44302381Y-16563855D02*
X44835715Y-17363855D01*
X44835715Y-16563855D02*
X44302381Y-17363855D01*
X45140477Y-17059093D02*
X45750001Y-17059093D01*
X46092857Y-17135283D02*
X46473810Y-17135283D01*
X46016667Y-17363855D02*
X46283334Y-16563855D01*
X46283334Y-16563855D02*
X46550000Y-17363855D01*
X44764286Y-63363855D02*
X44764286Y-62563855D01*
X44764286Y-62563855D02*
X45030952Y-63135283D01*
X45030952Y-63135283D02*
X45297619Y-62563855D01*
X45297619Y-62563855D02*
X45297619Y-63363855D01*
X45602381Y-62563855D02*
X46135715Y-63363855D01*
X46135715Y-62563855D02*
X45602381Y-63363855D01*
X46440477Y-63059093D02*
X47050001Y-63059093D01*
X47888096Y-63287664D02*
X47850000Y-63325760D01*
X47850000Y-63325760D02*
X47735715Y-63363855D01*
X47735715Y-63363855D02*
X47659524Y-63363855D01*
X47659524Y-63363855D02*
X47545238Y-63325760D01*
X47545238Y-63325760D02*
X47469048Y-63249569D01*
X47469048Y-63249569D02*
X47430953Y-63173379D01*
X47430953Y-63173379D02*
X47392857Y-63020998D01*
X47392857Y-63020998D02*
X47392857Y-62906712D01*
X47392857Y-62906712D02*
X47430953Y-62754331D01*
X47430953Y-62754331D02*
X47469048Y-62678140D01*
X47469048Y-62678140D02*
X47545238Y-62601950D01*
X47545238Y-62601950D02*
X47659524Y-62563855D01*
X47659524Y-62563855D02*
X47735715Y-62563855D01*
X47735715Y-62563855D02*
X47850000Y-62601950D01*
X47850000Y-62601950D02*
X47888096Y-62640045D01*
X48383334Y-62563855D02*
X48535715Y-62563855D01*
X48535715Y-62563855D02*
X48611905Y-62601950D01*
X48611905Y-62601950D02*
X48688096Y-62678140D01*
X48688096Y-62678140D02*
X48726191Y-62830521D01*
X48726191Y-62830521D02*
X48726191Y-63097188D01*
X48726191Y-63097188D02*
X48688096Y-63249569D01*
X48688096Y-63249569D02*
X48611905Y-63325760D01*
X48611905Y-63325760D02*
X48535715Y-63363855D01*
X48535715Y-63363855D02*
X48383334Y-63363855D01*
X48383334Y-63363855D02*
X48307143Y-63325760D01*
X48307143Y-63325760D02*
X48230953Y-63249569D01*
X48230953Y-63249569D02*
X48192857Y-63097188D01*
X48192857Y-63097188D02*
X48192857Y-62830521D01*
X48192857Y-62830521D02*
X48230953Y-62678140D01*
X48230953Y-62678140D02*
X48307143Y-62601950D01*
X48307143Y-62601950D02*
X48383334Y-62563855D01*
X49450000Y-63363855D02*
X49069048Y-63363855D01*
X49069048Y-63363855D02*
X49069048Y-62563855D01*
X47607143Y-17363855D02*
X47607143Y-16563855D01*
X47607143Y-16563855D02*
X47873809Y-17135283D01*
X47873809Y-17135283D02*
X48140476Y-16563855D01*
X48140476Y-16563855D02*
X48140476Y-17363855D01*
X48445238Y-16563855D02*
X48978572Y-17363855D01*
X48978572Y-16563855D02*
X48445238Y-17363855D01*
X49283334Y-17059093D02*
X49892858Y-17059093D01*
X50273810Y-17363855D02*
X50273810Y-16563855D01*
X50730953Y-17363855D02*
X50388095Y-16906712D01*
X50730953Y-16563855D02*
X50273810Y-17020998D01*
X63352380Y-63363855D02*
X63085713Y-62982902D01*
X62895237Y-63363855D02*
X62895237Y-62563855D01*
X62895237Y-62563855D02*
X63199999Y-62563855D01*
X63199999Y-62563855D02*
X63276189Y-62601950D01*
X63276189Y-62601950D02*
X63314284Y-62640045D01*
X63314284Y-62640045D02*
X63352380Y-62716236D01*
X63352380Y-62716236D02*
X63352380Y-62830521D01*
X63352380Y-62830521D02*
X63314284Y-62906712D01*
X63314284Y-62906712D02*
X63276189Y-62944807D01*
X63276189Y-62944807D02*
X63199999Y-62982902D01*
X63199999Y-62982902D02*
X62895237Y-62982902D01*
X63695237Y-63059093D02*
X64304761Y-63059093D01*
X64685713Y-63363855D02*
X64685713Y-62563855D01*
X65142856Y-63363855D02*
X64799998Y-62906712D01*
X65142856Y-62563855D02*
X64685713Y-63020998D01*
X64709523Y-17363855D02*
X64442856Y-16982902D01*
X64252380Y-17363855D02*
X64252380Y-16563855D01*
X64252380Y-16563855D02*
X64557142Y-16563855D01*
X64557142Y-16563855D02*
X64633332Y-16601950D01*
X64633332Y-16601950D02*
X64671427Y-16640045D01*
X64671427Y-16640045D02*
X64709523Y-16716236D01*
X64709523Y-16716236D02*
X64709523Y-16830521D01*
X64709523Y-16830521D02*
X64671427Y-16906712D01*
X64671427Y-16906712D02*
X64633332Y-16944807D01*
X64633332Y-16944807D02*
X64557142Y-16982902D01*
X64557142Y-16982902D02*
X64252380Y-16982902D01*
X65052380Y-17059093D02*
X65661904Y-17059093D01*
X66499999Y-17287664D02*
X66461903Y-17325760D01*
X66461903Y-17325760D02*
X66347618Y-17363855D01*
X66347618Y-17363855D02*
X66271427Y-17363855D01*
X66271427Y-17363855D02*
X66157141Y-17325760D01*
X66157141Y-17325760D02*
X66080951Y-17249569D01*
X66080951Y-17249569D02*
X66042856Y-17173379D01*
X66042856Y-17173379D02*
X66004760Y-17020998D01*
X66004760Y-17020998D02*
X66004760Y-16906712D01*
X66004760Y-16906712D02*
X66042856Y-16754331D01*
X66042856Y-16754331D02*
X66080951Y-16678140D01*
X66080951Y-16678140D02*
X66157141Y-16601950D01*
X66157141Y-16601950D02*
X66271427Y-16563855D01*
X66271427Y-16563855D02*
X66347618Y-16563855D01*
X66347618Y-16563855D02*
X66461903Y-16601950D01*
X66461903Y-16601950D02*
X66499999Y-16640045D01*
X66995237Y-16563855D02*
X67147618Y-16563855D01*
X67147618Y-16563855D02*
X67223808Y-16601950D01*
X67223808Y-16601950D02*
X67299999Y-16678140D01*
X67299999Y-16678140D02*
X67338094Y-16830521D01*
X67338094Y-16830521D02*
X67338094Y-17097188D01*
X67338094Y-17097188D02*
X67299999Y-17249569D01*
X67299999Y-17249569D02*
X67223808Y-17325760D01*
X67223808Y-17325760D02*
X67147618Y-17363855D01*
X67147618Y-17363855D02*
X66995237Y-17363855D01*
X66995237Y-17363855D02*
X66919046Y-17325760D01*
X66919046Y-17325760D02*
X66842856Y-17249569D01*
X66842856Y-17249569D02*
X66804760Y-17097188D01*
X66804760Y-17097188D02*
X66804760Y-16830521D01*
X66804760Y-16830521D02*
X66842856Y-16678140D01*
X66842856Y-16678140D02*
X66919046Y-16601950D01*
X66919046Y-16601950D02*
X66995237Y-16563855D01*
X68061903Y-17363855D02*
X67680951Y-17363855D01*
X67680951Y-17363855D02*
X67680951Y-16563855D01*
X67609523Y-63363855D02*
X67342856Y-62982902D01*
X67152380Y-63363855D02*
X67152380Y-62563855D01*
X67152380Y-62563855D02*
X67457142Y-62563855D01*
X67457142Y-62563855D02*
X67533332Y-62601950D01*
X67533332Y-62601950D02*
X67571427Y-62640045D01*
X67571427Y-62640045D02*
X67609523Y-62716236D01*
X67609523Y-62716236D02*
X67609523Y-62830521D01*
X67609523Y-62830521D02*
X67571427Y-62906712D01*
X67571427Y-62906712D02*
X67533332Y-62944807D01*
X67533332Y-62944807D02*
X67457142Y-62982902D01*
X67457142Y-62982902D02*
X67152380Y-62982902D01*
X67952380Y-63059093D02*
X68561904Y-63059093D01*
X68904760Y-63135283D02*
X69285713Y-63135283D01*
X68828570Y-63363855D02*
X69095237Y-62563855D01*
X69095237Y-62563855D02*
X69361903Y-63363855D01*
%TO.C,TP_R_ROW*%
X65699999Y-66000000D02*
G75*
G02*
X62299999Y-66000000I-1700000J0D01*
G01*
X62299999Y-66000000D02*
G75*
G02*
X65699999Y-66000000I1700000J0D01*
G01*
%TO.C,TP_MX_ROW*%
X50850000Y-14000000D02*
G75*
G02*
X47450000Y-14000000I-1700000J0D01*
G01*
X47450000Y-14000000D02*
G75*
G02*
X50850000Y-14000000I1700000J0D01*
G01*
%TO.C,TP_MX_COL*%
X48750000Y-66000000D02*
G75*
G02*
X45350000Y-66000000I-1700000J0D01*
G01*
X45350000Y-66000000D02*
G75*
G02*
X48750000Y-66000000I1700000J0D01*
G01*
%TO.C,TP_L_ROW*%
X31800000Y-14000000D02*
G75*
G02*
X28400000Y-14000000I-1700000J0D01*
G01*
X28400000Y-14000000D02*
G75*
G02*
X31800000Y-14000000I1700000J0D01*
G01*
%TO.C,TP_L_ANODE*%
X27600000Y-14000000D02*
G75*
G02*
X24200000Y-14000000I-1700000J0D01*
G01*
X24200000Y-14000000D02*
G75*
G02*
X27600000Y-14000000I1700000J0D01*
G01*
%TO.C,TP_R_COL*%
X67799999Y-14000000D02*
G75*
G02*
X64399999Y-14000000I-1700000J0D01*
G01*
X64399999Y-14000000D02*
G75*
G02*
X67799999Y-14000000I1700000J0D01*
G01*
%TO.C,TP_R_ANODE*%
X69899999Y-66000000D02*
G75*
G02*
X66499999Y-66000000I-1700000J0D01*
G01*
X66499999Y-66000000D02*
G75*
G02*
X69899999Y-66000000I1700000J0D01*
G01*
%TO.C,TP_L_COL*%
X29700000Y-66000000D02*
G75*
G02*
X26300000Y-66000000I-1700000J0D01*
G01*
X26300000Y-66000000D02*
G75*
G02*
X29700000Y-66000000I1700000J0D01*
G01*
%TO.C,TP_MX_ANODE*%
X46650000Y-14000000D02*
G75*
G02*
X43250000Y-14000000I-1700000J0D01*
G01*
X43250000Y-14000000D02*
G75*
G02*
X46650000Y-14000000I1700000J0D01*
G01*
%TD*%
%LPC*%
D11*
%TO.C,TP_R_ROW*%
X63999999Y-66000000D03*
%TD*%
%TO.C,TP_MX_ROW*%
X49150000Y-14000000D03*
%TD*%
%TO.C,TP_MX_COL*%
X47050000Y-66000000D03*
%TD*%
D12*
%TO.C,SW_R*%
X71179999Y-40000000D03*
D11*
X71099999Y-36200000D03*
D13*
X66099999Y-40000000D03*
D11*
X66099999Y-34100000D03*
D14*
X61099999Y-45150000D03*
D12*
X61019999Y-40000000D03*
D15*
X63559999Y-45080000D03*
X69909999Y-42540000D03*
%TD*%
D12*
%TO.C,SW_MX*%
X41970000Y-40000000D03*
D11*
X42050000Y-43800000D03*
D13*
X47050000Y-40000000D03*
D11*
X47050000Y-45900000D03*
D14*
X52050000Y-34850000D03*
D12*
X52130000Y-40000000D03*
D15*
X49590000Y-34920000D03*
X43240000Y-37460000D03*
%TD*%
D11*
%TO.C,TP_L_ROW*%
X30100000Y-14000000D03*
%TD*%
D12*
%TO.C,SW_L*%
X22920000Y-40000000D03*
D11*
X23000000Y-43800000D03*
D13*
X28000000Y-40000000D03*
D11*
X28000000Y-45900000D03*
D14*
X33000000Y-34850000D03*
D12*
X33080000Y-40000000D03*
D15*
X30540000Y-34920000D03*
X24190000Y-37460000D03*
%TD*%
D11*
%TO.C,TP_L_ANODE*%
X25900000Y-14000000D03*
%TD*%
%TO.C,TP_R_COL*%
X66099999Y-14000000D03*
%TD*%
%TO.C,TP_R_ANODE*%
X68199999Y-66000000D03*
%TD*%
%TO.C,TP_L_COL*%
X28000000Y-66000000D03*
%TD*%
%TO.C,TP_MX_ANODE*%
X44950000Y-14000000D03*
%TD*%
%LPD*%
M02*
