M48
; DRILL file KiCad 10.0.3 date 2026-06-04T18:27:55
; FORMAT={-:-/ absolute / metric / decimal}
; #@! TF.CreationDate,2026-06-04T18:27:55+09:00
; #@! TF.GenerationSoftware,Kicad,Pcbnew,10.0.3
; #@! TF.FileFunction,NonPlated,1,2,NPTH
FMAT,2
METRIC
; #@! TA.AperFunction,NonPlated,NPTH,ComponentDrill
T1C1.300
; #@! TA.AperFunction,NonPlated,NPTH,ComponentDrill
T2C1.702
; #@! TA.AperFunction,NonPlated,NPTH,ComponentDrill
T3C2.200
; #@! TA.AperFunction,NonPlated,NPTH,ComponentDrill
T4C3.000
; #@! TA.AperFunction,NonPlated,NPTH,ComponentDrill
T5C3.429
%
G90
G05
T1
X98.912Y-47.8
X98.912Y-52.2
X111.912Y-47.8
X111.912Y-52.2
T2
X44.525Y-77.525
X46.906Y-134.675
X46.906Y-153.725
X49.287Y-96.575
X51.669Y-115.625
X55.525Y-77.525
X57.906Y-134.675
X57.906Y-153.725
X60.287Y-96.575
X62.669Y-115.625
X63.575Y-77.525
X68.337Y-134.675
X70.719Y-153.725
X73.1Y-96.575
X74.575Y-77.525
X77.862Y-115.625
X79.337Y-134.675
X81.719Y-153.725
X82.625Y-77.525
X84.1Y-96.575
X87.388Y-134.675
X88.862Y-115.625
X92.15Y-96.575
X93.625Y-77.525
X94.531Y-153.725
X96.912Y-115.625
X98.387Y-134.675
X101.675Y-77.525
X103.15Y-96.575
X105.531Y-153.725
X106.438Y-134.675
X107.912Y-115.625
X111.2Y-96.575
X112.675Y-77.525
X115.962Y-115.625
X117.438Y-134.675
X118.344Y-153.725
X120.725Y-77.525
X122.2Y-96.575
X125.487Y-134.675
X126.962Y-115.625
X129.344Y-153.725
X130.25Y-96.575
X131.725Y-77.525
X135.012Y-115.625
X136.487Y-134.675
X139.775Y-77.525
X139.775Y-153.725
X141.25Y-96.575
X144.537Y-134.675
X146.012Y-115.625
X149.3Y-96.575
X150.775Y-77.525
X150.775Y-153.725
X154.062Y-115.625
X155.537Y-134.675
X158.825Y-77.525
X160.3Y-96.575
X161.206Y-153.725
X163.588Y-134.675
X165.062Y-115.625
X169.825Y-77.525
X172.206Y-153.725
X174.588Y-134.675
T3
X39.0Y-164.75
X39.5Y-126.75
X115.412Y-44.0
X151.412Y-44.0
X178.213Y-164.75
T4
X45.025Y-81.325
X47.406Y-138.475
X47.406Y-157.525
X49.787Y-100.375
X50.025Y-83.425
X52.169Y-119.425
X52.406Y-140.575
X52.406Y-159.625
X54.787Y-102.475
X57.169Y-121.525
X64.075Y-81.325
X68.837Y-138.475
X69.075Y-83.425
X71.219Y-157.525
X73.6Y-100.375
X73.837Y-140.575
X76.219Y-159.625
X78.362Y-119.425
X78.6Y-102.475
X83.125Y-81.325
X83.362Y-121.525
X87.888Y-138.475
X88.125Y-83.425
X92.65Y-100.375
X92.888Y-140.575
X95.031Y-157.525
X97.412Y-119.425
X97.65Y-102.475
X100.031Y-159.625
X102.175Y-81.325
X102.412Y-121.525
X106.938Y-138.475
X107.175Y-83.425
X111.7Y-100.375
X111.938Y-140.575
X116.462Y-119.425
X116.7Y-102.475
X118.844Y-157.525
X121.225Y-81.325
X121.462Y-121.525
X123.844Y-159.625
X125.987Y-138.475
X126.225Y-83.425
X130.75Y-100.375
X130.987Y-140.575
X135.512Y-119.425
X135.75Y-102.475
X140.275Y-81.325
X140.275Y-157.525
X140.512Y-121.525
X145.037Y-138.475
X145.275Y-83.425
X145.275Y-159.625
X149.8Y-100.375
X150.037Y-140.575
X154.562Y-119.425
X154.8Y-102.475
X159.325Y-81.325
X159.562Y-121.525
X161.706Y-157.525
X164.088Y-138.475
X164.325Y-83.425
X166.706Y-159.625
X169.088Y-140.575
T5
X50.025Y-77.525
X52.406Y-134.675
X52.406Y-153.725
X54.787Y-96.575
X57.169Y-115.625
X69.075Y-77.525
X73.837Y-134.675
X76.219Y-153.725
X78.6Y-96.575
X83.362Y-115.625
X88.125Y-77.525
X92.888Y-134.675
X97.65Y-96.575
X100.031Y-153.725
X102.412Y-115.625
X107.175Y-77.525
X111.938Y-134.675
X116.7Y-96.575
X121.462Y-115.625
X123.844Y-153.725
X126.225Y-77.525
X130.987Y-134.675
X135.75Y-96.575
X140.512Y-115.625
X145.275Y-77.525
X145.275Y-153.725
X150.037Y-134.675
X154.8Y-96.575
X159.562Y-115.625
X164.325Y-77.525
X166.706Y-153.725
X169.088Y-134.675
M30
