%TF.GenerationSoftware,KiCad,Pcbnew,10.0.3*%
%TF.CreationDate,2026-06-05T13:36:11+09:00*%
%TF.ProjectId,kc2_left-x3,6b63325f-6c65-4667-942d-78332e6b6963,draft-1*%
%TF.SameCoordinates,Original*%
%TF.FileFunction,Copper,L1,Top*%
%TF.FilePolarity,Positive*%
%FSLAX46Y46*%
G04 Gerber Fmt 4.6, Leading zero omitted, Abs format (unit mm)*
G04 Created by KiCad (PCBNEW 10.0.3) date 2026-06-05 13:36:11*
%MOMM*%
%LPD*%
G01*
G04 APERTURE LIST*
%TA.AperFunction,ComponentPad*%
%ADD10C,2.000000*%
%TD*%
%TA.AperFunction,ComponentPad*%
%ADD11O,2.600000X1.800000*%
%TD*%
%TA.AperFunction,SMDPad,CuDef*%
%ADD12R,1.750000X1.000000*%
%TD*%
%TA.AperFunction,ComponentPad*%
%ADD13C,1.800000*%
%TD*%
%TA.AperFunction,ViaPad*%
%ADD14C,0.600000*%
%TD*%
%TA.AperFunction,Conductor*%
%ADD15C,0.250000*%
%TD*%
G04 APERTURE END LIST*
D10*
%TO.P,SW13,1*%
%TO.N,L_COL5*%
X154800000Y-90675000D03*
%TO.P,SW13,2*%
%TO.N,LK13_D*%
X159800000Y-92775000D03*
%TD*%
%TO.P,SW11,1*%
%TO.N,L_COL3*%
X116700000Y-90675000D03*
%TO.P,SW11,2*%
%TO.N,LK11_D*%
X121700000Y-92775000D03*
%TD*%
%TO.P,SW22,1*%
%TO.N,L_COL2*%
X92887500Y-128775000D03*
%TO.P,SW22,2*%
%TO.N,LK22_D*%
X97887500Y-130875000D03*
%TD*%
D11*
%TO.P,J_PWR1,BAT+*%
%TO.N,BAT+*%
X102412500Y-47800000D03*
%TO.P,J_PWR1,BAT-*%
%TO.N,BAT-*%
X102412500Y-52200000D03*
%TO.P,J_PWR1,NN_B+*%
%TO.N,BAT+*%
X108412500Y-47800000D03*
%TO.P,J_PWR1,NN_B-*%
%TO.N,BAT-*%
X108412500Y-52200000D03*
%TD*%
D10*
%TO.P,SW7,1*%
%TO.N,L_COL6*%
X164325000Y-71625000D03*
%TO.P,SW7,2*%
%TO.N,LK07_D*%
X169325000Y-73725000D03*
%TD*%
%TO.P,SW3,1*%
%TO.N,L_COL2*%
X88125000Y-71625000D03*
%TO.P,SW3,2*%
%TO.N,LK03_D*%
X93125000Y-73725000D03*
%TD*%
%TO.P,SW12,1*%
%TO.N,L_COL4*%
X135750000Y-90675000D03*
%TO.P,SW12,2*%
%TO.N,LK12_D*%
X140750000Y-92775000D03*
%TD*%
%TO.P,SW15,1*%
%TO.N,L_COL1*%
X83362500Y-109725000D03*
%TO.P,SW15,2*%
%TO.N,LK15_D*%
X88362500Y-111825000D03*
%TD*%
%TO.P,SW31,1*%
%TO.N,L_COL4*%
X145275000Y-147825000D03*
%TO.P,SW31,2*%
%TO.N,LK31_D*%
X150275000Y-149925000D03*
%TD*%
%TO.P,SW27,1*%
%TO.N,L_COL0*%
X52406300Y-147825000D03*
%TO.P,SW27,2*%
%TO.N,LK27_D*%
X57406300Y-149925000D03*
%TD*%
%TO.P,SW19,1*%
%TO.N,L_COL5*%
X159562500Y-109725000D03*
%TO.P,SW19,2*%
%TO.N,LK19_D*%
X164562500Y-111825000D03*
%TD*%
%TO.P,SW2,1*%
%TO.N,L_COL1*%
X69075000Y-71625000D03*
%TO.P,SW2,2*%
%TO.N,LK02_D*%
X74075000Y-73725000D03*
%TD*%
%TO.P,SW20,1*%
%TO.N,L_COL0*%
X52406300Y-128775000D03*
%TO.P,SW20,2*%
%TO.N,LK20_D*%
X57406300Y-130875000D03*
%TD*%
%TO.P,SW8,1*%
%TO.N,L_COL0*%
X54787500Y-90675000D03*
%TO.P,SW8,2*%
%TO.N,LK08_D*%
X59787500Y-92775000D03*
%TD*%
%TO.P,SW32,1*%
%TO.N,L_COL5*%
X166706300Y-147825000D03*
%TO.P,SW32,2*%
%TO.N,LK32_D*%
X171706300Y-149925000D03*
%TD*%
%TO.P,SW17,1*%
%TO.N,L_COL3*%
X121462500Y-109725000D03*
%TO.P,SW17,2*%
%TO.N,LK17_D*%
X126462500Y-111825000D03*
%TD*%
%TO.P,SW6,1*%
%TO.N,L_COL5*%
X145275000Y-71625000D03*
%TO.P,SW6,2*%
%TO.N,LK06_D*%
X150275000Y-73725000D03*
%TD*%
%TO.P,SW9,1*%
%TO.N,L_COL1*%
X78600000Y-90675000D03*
%TO.P,SW9,2*%
%TO.N,LK09_D*%
X83600000Y-92775000D03*
%TD*%
%TO.P,SW26,1*%
%TO.N,L_COL6*%
X169087500Y-128775000D03*
%TO.P,SW26,2*%
%TO.N,LK26_D*%
X174087500Y-130875000D03*
%TD*%
%TO.P,SW24,1*%
%TO.N,L_COL4*%
X130987500Y-128775000D03*
%TO.P,SW24,2*%
%TO.N,LK24_D*%
X135987500Y-130875000D03*
%TD*%
%TO.P,SW16,1*%
%TO.N,L_COL2*%
X102412500Y-109725000D03*
%TO.P,SW16,2*%
%TO.N,LK16_D*%
X107412500Y-111825000D03*
%TD*%
%TO.P,SW4,1*%
%TO.N,L_COL3*%
X107175000Y-71625000D03*
%TO.P,SW4,2*%
%TO.N,LK04_D*%
X112175000Y-73725000D03*
%TD*%
%TO.P,SW14,1*%
%TO.N,L_COL0*%
X57168700Y-109725000D03*
%TO.P,SW14,2*%
%TO.N,LK14_D*%
X62168700Y-111825000D03*
%TD*%
%TO.P,SW21,1*%
%TO.N,L_COL1*%
X73837500Y-128775000D03*
%TO.P,SW21,2*%
%TO.N,LK21_D*%
X78837500Y-130875000D03*
%TD*%
%TO.P,SW25,1*%
%TO.N,L_COL5*%
X150037500Y-128775000D03*
%TO.P,SW25,2*%
%TO.N,LK25_D*%
X155037500Y-130875000D03*
%TD*%
%TO.P,SW5,1*%
%TO.N,L_COL4*%
X126225000Y-71625000D03*
%TO.P,SW5,2*%
%TO.N,LK05_D*%
X131225000Y-73725000D03*
%TD*%
%TO.P,SW18,1*%
%TO.N,L_COL4*%
X140512500Y-109725000D03*
%TO.P,SW18,2*%
%TO.N,LK18_D*%
X145512500Y-111825000D03*
%TD*%
D12*
%TO.P,SW_RST1,1*%
%TO.N,RST*%
X119637500Y-62150000D03*
%TO.P,SW_RST1,2*%
%TO.N,GND*%
X127387500Y-62150000D03*
%TD*%
D10*
%TO.P,SW29,1*%
%TO.N,L_COL2*%
X100031300Y-147825000D03*
%TO.P,SW29,2*%
%TO.N,LK29_D*%
X105031300Y-149925000D03*
%TD*%
%TO.P,SW23,1*%
%TO.N,L_COL3*%
X111937500Y-128775000D03*
%TO.P,SW23,2*%
%TO.N,LK23_D*%
X116937500Y-130875000D03*
%TD*%
%TO.P,SW28,1*%
%TO.N,L_COL1*%
X76218800Y-147825000D03*
%TO.P,SW28,2*%
%TO.N,LK28_D*%
X81218800Y-149925000D03*
%TD*%
%TO.P,SW1,1*%
%TO.N,L_COL0*%
X50025000Y-71625000D03*
%TO.P,SW1,2*%
%TO.N,LK01_D*%
X55025000Y-73725000D03*
%TD*%
%TO.P,SW10,1*%
%TO.N,L_COL2*%
X97650000Y-90675000D03*
%TO.P,SW10,2*%
%TO.N,LK10_D*%
X102650000Y-92775000D03*
%TD*%
%TO.P,SW30,1*%
%TO.N,L_COL3*%
X123843800Y-147825000D03*
%TO.P,SW30,2*%
%TO.N,LK30_D*%
X128843800Y-149925000D03*
%TD*%
D13*
%TO.P,U1,D0*%
%TO.N,N/C*%
X121982500Y-57890000D03*
%TO.P,U1,D1*%
X119442500Y-57890000D03*
%TO.P,U1,D2*%
X129602500Y-57890000D03*
%TO.P,U1,D3*%
%TO.N,L_COL0*%
X132142500Y-57890000D03*
%TO.P,U1,D4*%
%TO.N,L_COL2*%
X134682500Y-57890000D03*
%TO.P,U1,D5*%
%TO.N,L_COL1*%
X137222500Y-57890000D03*
%TO.P,U1,D6*%
%TO.N,L_COL3*%
X139762500Y-57890000D03*
%TO.P,U1,D7*%
%TO.N,L_COL4*%
X142302500Y-57890000D03*
%TO.P,U1,D8*%
%TO.N,L_COL5*%
X144842500Y-57890000D03*
%TO.P,U1,D9*%
%TO.N,L_COL6*%
X147382500Y-57890000D03*
%TO.P,U1,D10*%
%TO.N,L_ROW0*%
X147382500Y-40110000D03*
%TO.P,U1,D14*%
%TO.N,L_ROW2*%
X142302500Y-40110000D03*
%TO.P,U1,D15*%
%TO.N,L_ROW3*%
X139762500Y-40110000D03*
%TO.P,U1,D16*%
%TO.N,L_ROW1*%
X144842500Y-40110000D03*
%TO.P,U1,D18*%
%TO.N,L_ROW4*%
X137222500Y-40110000D03*
%TO.P,U1,D19*%
%TO.N,N/C*%
X134682500Y-40110000D03*
%TO.P,U1,D20*%
X132142500Y-40110000D03*
%TO.P,U1,D21*%
X129602500Y-40110000D03*
%TO.P,U1,GND_A*%
X124522500Y-57890000D03*
%TO.P,U1,GND_B*%
X127062500Y-57890000D03*
%TO.P,U1,GND_C*%
%TO.N,GND*%
X121982500Y-40110000D03*
%TO.P,U1,RAW*%
%TO.N,N/C*%
X119442500Y-40110000D03*
%TO.P,U1,RST*%
%TO.N,RST*%
X124522500Y-40110000D03*
%TO.P,U1,VCC*%
%TO.N,N/C*%
X127062500Y-40110000D03*
%TD*%
D14*
%TO.N,L_COL5*%
X160311100Y-113085000D03*
X158160700Y-105082200D03*
%TO.N,L_COL3*%
X118580900Y-122711100D03*
X124514000Y-72906100D03*
X120145000Y-105110700D03*
X118925000Y-140571300D03*
%TO.N,L_COL2*%
X92391900Y-68169700D03*
X92391900Y-80836000D03*
X101010700Y-105058100D03*
X95377600Y-143446900D03*
%TO.N,L_COL4*%
X145461300Y-143468500D03*
X139110700Y-105058100D03*
%TO.N,L_COL1*%
X76218800Y-137594600D03*
X71391100Y-80836000D03*
X74702100Y-65860300D03*
%TO.N,L_ROW0*%
X145670800Y-69958000D03*
%TO.N,L_ROW2*%
X160208800Y-106871300D03*
%TO.N,L_ROW3*%
X124823200Y-125917900D03*
%TO.N,L_ROW1*%
X142159100Y-78333400D03*
%TO.N,L_ROW4*%
X118946900Y-137574300D03*
%TD*%
%TO.N,L_COL5*%
D15*
X144842500Y-71192500D02*
X144842500Y-57890000D01*
X148635700Y-74985700D02*
X145275000Y-71625000D01*
X154800000Y-90675000D02*
X148635700Y-84510700D01*
X154512700Y-117200400D02*
X159099100Y-112614000D01*
X154800000Y-90675000D02*
X158160700Y-94035700D01*
X159099100Y-112614000D02*
X159099100Y-109725000D01*
X145275000Y-71625000D02*
X144842500Y-71192500D01*
X159570100Y-113085000D02*
X159099100Y-112614000D01*
X153803800Y-117200400D02*
X154512700Y-117200400D01*
X158160700Y-108786600D02*
X159099100Y-109725000D01*
X150037500Y-120966700D02*
X153803800Y-117200400D01*
X150037500Y-128775000D02*
X150037500Y-120966700D01*
X160311100Y-113085000D02*
X159570100Y-113085000D01*
X159099100Y-109725000D02*
X159562500Y-109725000D01*
X158160700Y-94035700D02*
X158160700Y-105082200D01*
X148635700Y-84510700D02*
X148635700Y-74985700D01*
X158160700Y-105082200D02*
X158160700Y-108786600D01*
%TO.N,L_COL3*%
X109491100Y-73941100D02*
X109491100Y-83466100D01*
X114550500Y-136196800D02*
X114550500Y-128775000D01*
X120145000Y-94120000D02*
X120145000Y-105110700D01*
X124514000Y-72906100D02*
X124514000Y-71454100D01*
X109491100Y-83466100D02*
X116700000Y-90675000D01*
X114550500Y-128775000D02*
X118580900Y-124744600D01*
X134490200Y-63162300D02*
X139762500Y-57890000D01*
X118925000Y-142906200D02*
X118925000Y-140571300D01*
X116700000Y-90675000D02*
X120145000Y-94120000D01*
X118925000Y-140571300D02*
X114550500Y-136196800D01*
X124514000Y-71454100D02*
X132805800Y-63162300D01*
X123843800Y-147825000D02*
X118925000Y-142906200D01*
X121462500Y-109725000D02*
X118580900Y-112606600D01*
X120145000Y-108407500D02*
X121462500Y-109725000D01*
X118580900Y-124744600D02*
X118580900Y-122711100D01*
X118580900Y-112606600D02*
X118580900Y-122711100D01*
X107175000Y-71625000D02*
X109491100Y-73941100D01*
X114550500Y-128775000D02*
X111937500Y-128775000D01*
X120145000Y-105110700D02*
X120145000Y-108407500D01*
X132805800Y-63162300D02*
X134490200Y-63162300D01*
%TO.N,L_COL2*%
X101010700Y-94035700D02*
X97650000Y-90675000D01*
X92391900Y-85416900D02*
X92391900Y-80836000D01*
X95653200Y-143446900D02*
X100031300Y-147825000D01*
X92391900Y-80836000D02*
X91019200Y-79463300D01*
X95377600Y-143446900D02*
X95377600Y-131265100D01*
X91019200Y-79463300D02*
X91019200Y-71625000D01*
X97650000Y-90675000D02*
X92391900Y-85416900D01*
X101010700Y-105058100D02*
X101010700Y-94035700D01*
X91019200Y-71625000D02*
X91019200Y-69542400D01*
X91019200Y-71625000D02*
X88125000Y-71625000D01*
X99939700Y-121722800D02*
X99939700Y-112197800D01*
X95377600Y-143446900D02*
X95653200Y-143446900D01*
X101010700Y-108323200D02*
X101010700Y-105058100D01*
X99939700Y-112197800D02*
X102412500Y-109725000D01*
X92887500Y-128775000D02*
X99939700Y-121722800D01*
X95377600Y-131265100D02*
X92887500Y-128775000D01*
X102412500Y-109725000D02*
X101010700Y-108323200D01*
X91019200Y-69542400D02*
X92391900Y-68169700D01*
%TO.N,L_COL6*%
X166900000Y-74365600D02*
X164325000Y-71625000D01*
X169087500Y-128775000D02*
X166900000Y-126753100D01*
X166900000Y-126753100D02*
X166900000Y-74365600D01*
%TO.N,L_COL4*%
X139110700Y-94035700D02*
X139110700Y-105058100D01*
X140512500Y-109725000D02*
X139110700Y-108323200D01*
X142302500Y-57890000D02*
X135750000Y-64442500D01*
X139110700Y-108323200D02*
X139110700Y-105058100D01*
X145461300Y-147638700D02*
X145461300Y-143468500D01*
X130987500Y-120986400D02*
X134773500Y-117200400D01*
X135750000Y-90675000D02*
X139110700Y-94035700D01*
X130987500Y-128775000D02*
X130987500Y-120986400D01*
X145275000Y-147825000D02*
X145461300Y-147638700D01*
X135750000Y-64442500D02*
X135750000Y-71625000D01*
X126225000Y-71625000D02*
X135750000Y-71625000D01*
X134773500Y-117200400D02*
X135467600Y-117200400D01*
X140512500Y-112155500D02*
X140512500Y-109725000D01*
X135750000Y-71625000D02*
X135750000Y-90675000D01*
X135467600Y-117200400D02*
X140512500Y-112155500D01*
%TO.N,L_COL1*%
X82045000Y-108407500D02*
X82539100Y-108901500D01*
X74702100Y-65860300D02*
X74702100Y-65997900D01*
X82539100Y-108901500D02*
X75902000Y-115538600D01*
X74702100Y-65997900D02*
X69075000Y-71625000D01*
X76218800Y-129091800D02*
X75902000Y-128775000D01*
X69075000Y-71625000D02*
X71391100Y-73941100D01*
X71391100Y-73941100D02*
X71391100Y-80836000D01*
X76218800Y-147825000D02*
X76218800Y-137594600D01*
X75902000Y-115538600D02*
X75902000Y-128775000D01*
X71391100Y-80836000D02*
X71391100Y-83466100D01*
X71391100Y-83466100D02*
X78600000Y-90675000D01*
X82045000Y-94120000D02*
X82045000Y-108407500D01*
X82539100Y-108901500D02*
X83362500Y-109725000D01*
X76218800Y-137594600D02*
X76218800Y-129091800D01*
X75902000Y-128775000D02*
X73837500Y-128775000D01*
X78600000Y-90675000D02*
X82045000Y-94120000D01*
%TO.N,L_COL0*%
X53385700Y-74985700D02*
X50025000Y-71625000D01*
X54787500Y-90675000D02*
X53385700Y-89273200D01*
X57168700Y-109725000D02*
X54793200Y-112100500D01*
X57168700Y-93056200D02*
X57168700Y-109725000D01*
X50105300Y-145524000D02*
X52406300Y-147825000D01*
X54793200Y-112100500D02*
X54793200Y-126388100D01*
X53385700Y-89273200D02*
X53385700Y-74985700D01*
X54793200Y-126388100D02*
X52406300Y-128775000D01*
X52406300Y-128775000D02*
X50105300Y-131076000D01*
X50105300Y-131076000D02*
X50105300Y-145524000D01*
X54787500Y-90675000D02*
X57168700Y-93056200D01*
%TO.N,RST*%
X124522500Y-40110000D02*
X120712500Y-43920000D01*
X120712500Y-43920000D02*
X120712500Y-60248300D01*
X119637500Y-62150000D02*
X119637500Y-61323300D01*
X120712500Y-60248300D02*
X119637500Y-61323300D01*
%TO.N,GND*%
X125035500Y-38882300D02*
X123210200Y-38882300D01*
X125792500Y-39639300D02*
X125035500Y-38882300D01*
X123210200Y-38882300D02*
X121982500Y-40110000D01*
X127387500Y-62150000D02*
X127387500Y-61323300D01*
X127387500Y-61323300D02*
X125792500Y-59728300D01*
X125792500Y-59728300D02*
X125792500Y-39639300D01*
%TO.N,L_ROW0*%
X147382500Y-40110000D02*
X146112500Y-41380000D01*
X146112500Y-69516300D02*
X145670800Y-69958000D01*
X146112500Y-41380000D02*
X146112500Y-69516300D01*
%TO.N,L_ROW2*%
X142302500Y-40110000D02*
X143531200Y-38881300D01*
X148624800Y-39610100D02*
X148624800Y-58971600D01*
X158785900Y-98001100D02*
X160208800Y-99424000D01*
X158785900Y-93829600D02*
X158785900Y-98001100D01*
X160208800Y-99424000D02*
X160208800Y-106871300D01*
X156125200Y-90066300D02*
X158385700Y-92326800D01*
X148624800Y-58971600D02*
X156125200Y-66472000D01*
X156125200Y-66472000D02*
X156125200Y-90066300D01*
X158385700Y-92326800D02*
X158385700Y-93429400D01*
X147896000Y-38881300D02*
X148624800Y-39610100D01*
X143531200Y-38881300D02*
X147896000Y-38881300D01*
X158385700Y-93429400D02*
X158785900Y-93829600D01*
%TO.N,L_ROW3*%
X135952500Y-58405400D02*
X135952500Y-43920000D01*
X123886100Y-70471800D02*
X135952500Y-58405400D01*
X123886100Y-124980800D02*
X123886100Y-70471800D01*
X124823200Y-125917900D02*
X123886100Y-124980800D01*
X135952500Y-43920000D02*
X139762500Y-40110000D01*
%TO.N,L_ROW1*%
X142159100Y-73451400D02*
X142159100Y-78333400D01*
X143572500Y-41380000D02*
X143572500Y-72038000D01*
X143572500Y-72038000D02*
X142159100Y-73451400D01*
X144842500Y-40110000D02*
X143572500Y-41380000D01*
%TO.N,L_ROW4*%
X122845100Y-110963500D02*
X122845100Y-106926600D01*
X135994700Y-38882200D02*
X137222500Y-40110000D01*
X119168100Y-119715800D02*
X119168100Y-114640500D01*
X130872500Y-43733300D02*
X133412500Y-41193300D01*
X119233500Y-119781200D02*
X119168100Y-119715800D01*
X123301700Y-68145000D02*
X130872500Y-60574200D01*
X133412500Y-41193300D02*
X133412500Y-39639200D01*
X120772400Y-93785800D02*
X120360300Y-93373700D01*
X134169500Y-38882200D02*
X135994700Y-38882200D01*
X120360300Y-93373700D02*
X120360300Y-87143500D01*
X122845100Y-106926600D02*
X120772400Y-104853900D01*
X123301700Y-84202100D02*
X123301700Y-68145000D01*
X120360300Y-87143500D02*
X123301700Y-84202100D01*
X130872500Y-60574200D02*
X130872500Y-43733300D01*
X119168100Y-114640500D02*
X122845100Y-110963500D01*
X133412500Y-39639200D02*
X134169500Y-38882200D01*
X118946900Y-137574300D02*
X119233500Y-137287700D01*
X120772400Y-104853900D02*
X120772400Y-93785800D01*
X119233500Y-137287700D02*
X119233500Y-119781200D01*
%TD*%
M02*
