%TF.GenerationSoftware,KiCad,Pcbnew,10.0.3*%
%TF.CreationDate,2026-06-04T18:27:54+09:00*%
%TF.ProjectId,kc2_left-x3,6b63325f-6c65-4667-942d-78332e6b6963,draft-1*%
%TF.SameCoordinates,Original*%
%TF.FileFunction,Soldermask,Top*%
%TF.FilePolarity,Negative*%
%FSLAX46Y46*%
G04 Gerber Fmt 4.6, Leading zero omitted, Abs format (unit mm)*
G04 Created by KiCad (PCBNEW 10.0.3) date 2026-06-04 18:27:54*
%MOMM*%
%LPD*%
G01*
G04 APERTURE LIST*
%ADD10C,1.701800*%
%ADD11C,3.000000*%
%ADD12C,3.429000*%
%ADD13C,2.200000*%
%ADD14C,1.300000*%
%ADD15R,1.750000X1.000000*%
G04 APERTURE END LIST*
D10*
%TO.C,SW10*%
X92150000Y-96575000D03*
D11*
X92650000Y-100375000D03*
D12*
X97650000Y-96575000D03*
D11*
X97650000Y-102475000D03*
D10*
X103150000Y-96575000D03*
%TD*%
%TO.C,SW22*%
X87387500Y-134675000D03*
D11*
X87887500Y-138475000D03*
D12*
X92887500Y-134675000D03*
D11*
X92887500Y-140575000D03*
D10*
X98387500Y-134675000D03*
%TD*%
%TO.C,SW31*%
X139775000Y-153725000D03*
D11*
X140275000Y-157525000D03*
D12*
X145275000Y-153725000D03*
D11*
X145275000Y-159625000D03*
D10*
X150775000Y-153725000D03*
%TD*%
%TO.C,SW14*%
X51668700Y-115625000D03*
D11*
X52168700Y-119425000D03*
D12*
X57168700Y-115625000D03*
D11*
X57168700Y-121525000D03*
D10*
X62668700Y-115625000D03*
%TD*%
%TO.C,SW4*%
X101675000Y-77525000D03*
D11*
X102175000Y-81325000D03*
D12*
X107175000Y-77525000D03*
D11*
X107175000Y-83425000D03*
D10*
X112675000Y-77525000D03*
%TD*%
%TO.C,SW15*%
X77862500Y-115625000D03*
D11*
X78362500Y-119425000D03*
D12*
X83362500Y-115625000D03*
D11*
X83362500Y-121525000D03*
D10*
X88862500Y-115625000D03*
%TD*%
%TO.C,SW8*%
X49287500Y-96575000D03*
D11*
X49787500Y-100375000D03*
D12*
X54787500Y-96575000D03*
D11*
X54787500Y-102475000D03*
D10*
X60287500Y-96575000D03*
%TD*%
%TO.C,SW9*%
X73100000Y-96575000D03*
D11*
X73600000Y-100375000D03*
D12*
X78600000Y-96575000D03*
D11*
X78600000Y-102475000D03*
D10*
X84100000Y-96575000D03*
%TD*%
%TO.C,SW26*%
X163587500Y-134675000D03*
D11*
X164087500Y-138475000D03*
D12*
X169087500Y-134675000D03*
D11*
X169087500Y-140575000D03*
D10*
X174587500Y-134675000D03*
%TD*%
%TO.C,SW29*%
X94531300Y-153725000D03*
D11*
X95031300Y-157525000D03*
D12*
X100031300Y-153725000D03*
D11*
X100031300Y-159625000D03*
D10*
X105531300Y-153725000D03*
%TD*%
%TO.C,SW2*%
X63575000Y-77525000D03*
D11*
X64075000Y-81325000D03*
D12*
X69075000Y-77525000D03*
D11*
X69075000Y-83425000D03*
D10*
X74575000Y-77525000D03*
%TD*%
%TO.C,SW5*%
X120725000Y-77525000D03*
D11*
X121225000Y-81325000D03*
D12*
X126225000Y-77525000D03*
D11*
X126225000Y-83425000D03*
D10*
X131725000Y-77525000D03*
%TD*%
%TO.C,SW3*%
X82625000Y-77525000D03*
D11*
X83125000Y-81325000D03*
D12*
X88125000Y-77525000D03*
D11*
X88125000Y-83425000D03*
D10*
X93625000Y-77525000D03*
%TD*%
%TO.C,SW19*%
X154062500Y-115625000D03*
D11*
X154562500Y-119425000D03*
D12*
X159562500Y-115625000D03*
D11*
X159562500Y-121525000D03*
D10*
X165062500Y-115625000D03*
%TD*%
%TO.C,SW7*%
X158825000Y-77525000D03*
D11*
X159325000Y-81325000D03*
D12*
X164325000Y-77525000D03*
D11*
X164325000Y-83425000D03*
D10*
X169825000Y-77525000D03*
%TD*%
%TO.C,SW18*%
X135012500Y-115625000D03*
D11*
X135512500Y-119425000D03*
D12*
X140512500Y-115625000D03*
D11*
X140512500Y-121525000D03*
D10*
X146012500Y-115625000D03*
%TD*%
%TO.C,SW24*%
X125487500Y-134675000D03*
D11*
X125987500Y-138475000D03*
D12*
X130987500Y-134675000D03*
D11*
X130987500Y-140575000D03*
D10*
X136487500Y-134675000D03*
%TD*%
%TO.C,SW25*%
X144537500Y-134675000D03*
D11*
X145037500Y-138475000D03*
D12*
X150037500Y-134675000D03*
D11*
X150037500Y-140575000D03*
D10*
X155537500Y-134675000D03*
%TD*%
%TO.C,SW13*%
X149300000Y-96575000D03*
D11*
X149800000Y-100375000D03*
D12*
X154800000Y-96575000D03*
D11*
X154800000Y-102475000D03*
D10*
X160300000Y-96575000D03*
%TD*%
%TO.C,SW6*%
X139775000Y-77525000D03*
D11*
X140275000Y-81325000D03*
D12*
X145275000Y-77525000D03*
D11*
X145275000Y-83425000D03*
D10*
X150775000Y-77525000D03*
%TD*%
%TO.C,SW21*%
X68337500Y-134675000D03*
D11*
X68837500Y-138475000D03*
D12*
X73837500Y-134675000D03*
D11*
X73837500Y-140575000D03*
D10*
X79337500Y-134675000D03*
%TD*%
%TO.C,SW20*%
X46906300Y-134675000D03*
D11*
X47406300Y-138475000D03*
D12*
X52406300Y-134675000D03*
D11*
X52406300Y-140575000D03*
D10*
X57906300Y-134675000D03*
%TD*%
%TO.C,SW16*%
X96912500Y-115625000D03*
D11*
X97412500Y-119425000D03*
D12*
X102412500Y-115625000D03*
D11*
X102412500Y-121525000D03*
D10*
X107912500Y-115625000D03*
%TD*%
D13*
%TO.C,H1*%
X39000000Y-164750000D03*
%TD*%
D14*
%TO.C,J_PWR1*%
X98912500Y-47800000D03*
X98912500Y-52200000D03*
X111912500Y-47800000D03*
X111912500Y-52200000D03*
%TD*%
D10*
%TO.C,SW32*%
X161206300Y-153725000D03*
D11*
X161706300Y-157525000D03*
D12*
X166706300Y-153725000D03*
D11*
X166706300Y-159625000D03*
D10*
X172206300Y-153725000D03*
%TD*%
D13*
%TO.C,H3*%
X115412500Y-44000000D03*
%TD*%
D10*
%TO.C,SW27*%
X46906300Y-153725000D03*
D11*
X47406300Y-157525000D03*
D12*
X52406300Y-153725000D03*
D11*
X52406300Y-159625000D03*
D10*
X57906300Y-153725000D03*
%TD*%
%TO.C,SW1*%
X44525000Y-77525000D03*
D11*
X45025000Y-81325000D03*
D12*
X50025000Y-77525000D03*
D11*
X50025000Y-83425000D03*
D10*
X55525000Y-77525000D03*
%TD*%
%TO.C,SW28*%
X70718800Y-153725000D03*
D11*
X71218800Y-157525000D03*
D12*
X76218800Y-153725000D03*
D11*
X76218800Y-159625000D03*
D10*
X81718800Y-153725000D03*
%TD*%
%TO.C,SW17*%
X115962500Y-115625000D03*
D11*
X116462500Y-119425000D03*
D12*
X121462500Y-115625000D03*
D11*
X121462500Y-121525000D03*
D10*
X126962500Y-115625000D03*
%TD*%
D13*
%TO.C,H5*%
X39500000Y-126750000D03*
%TD*%
D10*
%TO.C,SW12*%
X130250000Y-96575000D03*
D11*
X130750000Y-100375000D03*
D12*
X135750000Y-96575000D03*
D11*
X135750000Y-102475000D03*
D10*
X141250000Y-96575000D03*
%TD*%
D15*
%TO.C,SW_RST1*%
X119637500Y-62150000D03*
X127387500Y-62150000D03*
%TD*%
D13*
%TO.C,H2*%
X178212500Y-164750000D03*
%TD*%
%TO.C,H4*%
X151412500Y-44000000D03*
%TD*%
D10*
%TO.C,SW23*%
X106437500Y-134675000D03*
D11*
X106937500Y-138475000D03*
D12*
X111937500Y-134675000D03*
D11*
X111937500Y-140575000D03*
D10*
X117437500Y-134675000D03*
%TD*%
%TO.C,SW30*%
X118343800Y-153725000D03*
D11*
X118843800Y-157525000D03*
D12*
X123843800Y-153725000D03*
D11*
X123843800Y-159625000D03*
D10*
X129343800Y-153725000D03*
%TD*%
%TO.C,SW11*%
X111200000Y-96575000D03*
D11*
X111700000Y-100375000D03*
D12*
X116700000Y-96575000D03*
D11*
X116700000Y-102475000D03*
D10*
X122200000Y-96575000D03*
%TD*%
M02*
