M48
; DRILL file KiCad 10.0.3 date 2026-06-05T13:36:12
; FORMAT={-:-/ absolute / metric / decimal}
; #@! TF.CreationDate,2026-06-05T13:36:12+09:00
; #@! TF.GenerationSoftware,Kicad,Pcbnew,10.0.3
; #@! TF.FileFunction,Plated,1,2,PTH
FMAT,2
METRIC
; #@! TA.AperFunction,Plated,PTH,ViaDrill
T1C0.300
; #@! TA.AperFunction,Plated,PTH,ComponentDrill
T2C0.900
; #@! TA.AperFunction,Plated,PTH,ComponentDrill
T3C0.950
; #@! TA.AperFunction,Plated,PTH,ComponentDrill
T4C1.270
%
G90
G05
T1
X71.391Y-80.836
X74.702Y-65.86
X76.219Y-137.595
X92.392Y-68.17
X92.392Y-80.836
X95.378Y-143.447
X101.011Y-105.058
X118.581Y-122.711
X118.925Y-140.571
X118.947Y-137.574
X120.145Y-105.111
X124.514Y-72.906
X124.823Y-125.918
X139.111Y-105.058
X142.159Y-78.333
X145.461Y-143.469
X145.671Y-69.958
X158.161Y-105.082
X160.209Y-106.871
X160.311Y-113.085
T2
X102.412Y-47.8
X102.412Y-52.2
X108.412Y-47.8
X108.412Y-52.2
T3
X119.442Y-40.11
X119.442Y-57.89
X121.982Y-40.11
X121.982Y-57.89
X124.522Y-40.11
X124.522Y-57.89
X127.062Y-40.11
X127.062Y-57.89
X129.602Y-40.11
X129.602Y-57.89
X132.142Y-40.11
X132.142Y-57.89
X134.683Y-40.11
X134.683Y-57.89
X137.222Y-40.11
X137.222Y-57.89
X139.762Y-40.11
X139.762Y-57.89
X142.302Y-40.11
X142.302Y-57.89
X144.843Y-40.11
X144.843Y-57.89
X147.382Y-40.11
X147.382Y-57.89
T4
X50.025Y-71.625
X52.406Y-128.775
X52.406Y-147.825
X54.787Y-90.675
X55.025Y-73.725
X57.169Y-109.725
X57.406Y-130.875
X57.406Y-149.925
X59.787Y-92.775
X62.169Y-111.825
X69.075Y-71.625
X73.837Y-128.775
X74.075Y-73.725
X76.219Y-147.825
X78.6Y-90.675
X78.837Y-130.875
X81.219Y-149.925
X83.362Y-109.725
X83.6Y-92.775
X88.125Y-71.625
X88.362Y-111.825
X92.888Y-128.775
X93.125Y-73.725
X97.65Y-90.675
X97.887Y-130.875
X100.031Y-147.825
X102.412Y-109.725
X102.65Y-92.775
X105.031Y-149.925
X107.175Y-71.625
X107.412Y-111.825
X111.938Y-128.775
X112.175Y-73.725
X116.7Y-90.675
X116.938Y-130.875
X121.462Y-109.725
X121.7Y-92.775
X123.844Y-147.825
X126.225Y-71.625
X126.462Y-111.825
X128.844Y-149.925
X130.987Y-128.775
X131.225Y-73.725
X135.75Y-90.675
X135.987Y-130.875
X140.512Y-109.725
X140.75Y-92.775
X145.275Y-71.625
X145.275Y-147.825
X145.512Y-111.825
X150.037Y-128.775
X150.275Y-73.725
X150.275Y-149.925
X154.8Y-90.675
X155.037Y-130.875
X159.562Y-109.725
X159.8Y-92.775
X164.325Y-71.625
X164.562Y-111.825
X166.706Y-147.825
X169.088Y-128.775
X169.325Y-73.725
X171.706Y-149.925
X174.088Y-130.875
M30
