%TF.GenerationSoftware,KiCad,Pcbnew,10.0.3*%
%TF.CreationDate,2026-09-06T15:17:37+09:00*%
%TF.ProjectId,kc2_right,6b63325f-7269-4676-9874-2e6b69636164,draft-v2*%
%TF.SameCoordinates,Original*%
%TF.FileFunction,Legend,Bot*%
%TF.FilePolarity,Positive*%
%FSLAX46Y46*%
G04 Gerber Fmt 4.6, Leading zero omitted, Abs format (unit mm)*
G04 Created by KiCad (PCBNEW 10.0.3) date 2026-09-06 15:17:37*
%MOMM*%
%LPD*%
G01*
G04 APERTURE LIST*
%ADD10C,0.150000*%
%ADD11C,0.200000*%
G04 APERTURE END LIST*
%TO.C,D38*%
D10*
X165362500Y-145875000D02*
X165162500Y-145875000D01*
D11*
X165362500Y-145875000D02*
X165362500Y-147575000D01*
D10*
X165362500Y-147575000D02*
X165162500Y-147575000D01*
%TO.C,D35*%
X105831300Y-145875000D02*
X105631300Y-145875000D01*
D11*
X105831300Y-145875000D02*
X105831300Y-147575000D01*
D10*
X105831300Y-147575000D02*
X105631300Y-147575000D01*
%TO.C,D18*%
X60587500Y-107775000D02*
X60387500Y-107775000D01*
D11*
X60587500Y-107775000D02*
X60587500Y-109475000D01*
D10*
X60587500Y-109475000D02*
X60387500Y-109475000D01*
%TO.C,D8*%
X181062500Y-73525000D02*
X181062500Y-73725000D01*
D11*
X181062500Y-73525000D02*
X182762500Y-73525000D01*
D10*
X182762500Y-73525000D02*
X182762500Y-73725000D01*
%TO.C,D3*%
X81050000Y-73525000D02*
X81050000Y-73725000D01*
D11*
X81050000Y-73525000D02*
X82750000Y-73525000D01*
D10*
X82750000Y-73525000D02*
X82750000Y-73725000D01*
%TO.C,D9*%
X50775000Y-102725000D02*
X50575000Y-102725000D01*
D11*
X50775000Y-102725000D02*
X50775000Y-104425000D01*
D10*
X50775000Y-104425000D02*
X50575000Y-104425000D01*
%TO.C,D20*%
X98687500Y-107775000D02*
X98487500Y-107775000D01*
D11*
X98687500Y-107775000D02*
X98687500Y-109475000D01*
D10*
X98687500Y-109475000D02*
X98487500Y-109475000D01*
%TO.C,D16*%
X177268800Y-88725000D02*
X177068800Y-88725000D01*
D11*
X177268800Y-88725000D02*
X177268800Y-90425000D01*
D10*
X177268800Y-90425000D02*
X177068800Y-90425000D01*
%TO.C,D26*%
X70112500Y-126825000D02*
X69912500Y-126825000D01*
D11*
X70112500Y-126825000D02*
X70112500Y-128525000D01*
D10*
X70112500Y-128525000D02*
X69912500Y-128525000D01*
%TO.C,D5*%
X119150000Y-73525000D02*
X119150000Y-73725000D01*
D11*
X119150000Y-73525000D02*
X120850000Y-73525000D01*
D10*
X120850000Y-73525000D02*
X120850000Y-73725000D01*
%TO.C,D11*%
X74875000Y-88725000D02*
X74675000Y-88725000D01*
D11*
X74875000Y-88725000D02*
X74875000Y-90425000D01*
D10*
X74875000Y-90425000D02*
X74675000Y-90425000D01*
%TO.C,D25*%
X65062500Y-140825000D02*
X64862500Y-140825000D01*
D11*
X65062500Y-140825000D02*
X65062500Y-142525000D01*
D10*
X65062500Y-142525000D02*
X64862500Y-142525000D01*
%TO.C,D34*%
X77256300Y-145875000D02*
X77056300Y-145875000D01*
D11*
X77256300Y-145875000D02*
X77256300Y-147575000D01*
D10*
X77256300Y-147575000D02*
X77056300Y-147575000D01*
%TO.C,D14*%
X132025000Y-88725000D02*
X131825000Y-88725000D01*
D11*
X132025000Y-88725000D02*
X132025000Y-90425000D01*
D10*
X132025000Y-90425000D02*
X131825000Y-90425000D01*
%TO.C,D36*%
X127262500Y-145875000D02*
X127062500Y-145875000D01*
D11*
X127262500Y-145875000D02*
X127262500Y-147575000D01*
D10*
X127262500Y-147575000D02*
X127062500Y-147575000D01*
%TO.C,D39*%
X184412500Y-145875000D02*
X184212500Y-145875000D01*
D11*
X184412500Y-145875000D02*
X184412500Y-147575000D01*
D10*
X184412500Y-147575000D02*
X184212500Y-147575000D01*
%TO.C,D22*%
X136787500Y-107775000D02*
X136587500Y-107775000D01*
D11*
X136787500Y-107775000D02*
X136787500Y-109475000D01*
D10*
X136787500Y-109475000D02*
X136587500Y-109475000D01*
%TO.C,D1*%
X60300000Y-83675000D02*
X60100000Y-83675000D01*
D11*
X60300000Y-83675000D02*
X60300000Y-85375000D01*
D10*
X60300000Y-85375000D02*
X60100000Y-85375000D01*
%TO.C,D29*%
X127262500Y-126825000D02*
X127062500Y-126825000D01*
D11*
X127262500Y-126825000D02*
X127262500Y-128525000D01*
D10*
X127262500Y-128525000D02*
X127062500Y-128525000D01*
%TO.C,D12*%
X93925000Y-88725000D02*
X93725000Y-88725000D01*
D11*
X93925000Y-88725000D02*
X93925000Y-90425000D01*
D10*
X93925000Y-90425000D02*
X93725000Y-90425000D01*
%TO.C,D27*%
X89162500Y-126825000D02*
X88962500Y-126825000D01*
D11*
X89162500Y-126825000D02*
X89162500Y-128525000D01*
D10*
X89162500Y-128525000D02*
X88962500Y-128525000D01*
%TO.C,D19*%
X79637500Y-107775000D02*
X79437500Y-107775000D01*
D11*
X79637500Y-107775000D02*
X79637500Y-109475000D01*
D10*
X79637500Y-109475000D02*
X79437500Y-109475000D01*
%TO.C,D24*%
X184412500Y-107775000D02*
X184212500Y-107775000D01*
D11*
X184412500Y-107775000D02*
X184412500Y-109475000D01*
D10*
X184412500Y-109475000D02*
X184212500Y-109475000D01*
%TO.C,D2*%
X77750000Y-85275000D02*
X77750000Y-85075000D01*
D11*
X79450000Y-85275000D02*
X77750000Y-85275000D01*
D10*
X79450000Y-85275000D02*
X79450000Y-85075000D01*
%TO.C,D31*%
X165362500Y-126825000D02*
X165162500Y-126825000D01*
D11*
X165362500Y-126825000D02*
X165362500Y-128525000D01*
D10*
X165362500Y-128525000D02*
X165162500Y-128525000D01*
%TO.C,D28*%
X108212500Y-126825000D02*
X108012500Y-126825000D01*
D11*
X108212500Y-126825000D02*
X108212500Y-128525000D01*
D10*
X108212500Y-128525000D02*
X108012500Y-128525000D01*
%TO.C,D33*%
X67562500Y-156125000D02*
X67362500Y-156125000D01*
D11*
X67562500Y-156125000D02*
X67562500Y-157825000D01*
D10*
X67562500Y-157825000D02*
X67362500Y-157825000D01*
%TO.C,D10*%
X55825000Y-88725000D02*
X55625000Y-88725000D01*
D11*
X55825000Y-88725000D02*
X55825000Y-90425000D01*
D10*
X55825000Y-90425000D02*
X55625000Y-90425000D01*
%TO.C,D13*%
X112975000Y-88725000D02*
X112775000Y-88725000D01*
D11*
X112975000Y-88725000D02*
X112975000Y-90425000D01*
D10*
X112975000Y-90425000D02*
X112775000Y-90425000D01*
%TO.C,D15*%
X151075000Y-88725000D02*
X150875000Y-88725000D01*
D11*
X151075000Y-88725000D02*
X151075000Y-90425000D01*
D10*
X151075000Y-90425000D02*
X150875000Y-90425000D01*
%TO.C,D30*%
X146312500Y-126825000D02*
X146112500Y-126825000D01*
D11*
X146312500Y-126825000D02*
X146312500Y-128525000D01*
D10*
X146312500Y-128525000D02*
X146112500Y-128525000D01*
%TO.C,D7*%
X159631300Y-73525000D02*
X159631300Y-73725000D01*
D11*
X159631300Y-73525000D02*
X161331300Y-73525000D01*
D10*
X161331300Y-73525000D02*
X161331300Y-73725000D01*
%TO.C,D17*%
X55537500Y-121775000D02*
X55337500Y-121775000D01*
D11*
X55537500Y-121775000D02*
X55537500Y-123475000D01*
D10*
X55537500Y-123475000D02*
X55337500Y-123475000D01*
%TO.C,D6*%
X138200000Y-73525000D02*
X138200000Y-73725000D01*
D11*
X138200000Y-73525000D02*
X139900000Y-73525000D01*
D10*
X139900000Y-73525000D02*
X139900000Y-73725000D01*
%TO.C,D23*%
X160600000Y-107775000D02*
X160400000Y-107775000D01*
D11*
X160600000Y-107775000D02*
X160600000Y-109475000D01*
D10*
X160600000Y-109475000D02*
X160400000Y-109475000D01*
%TO.C,D4*%
X100100000Y-73525000D02*
X100100000Y-73725000D01*
D11*
X100100000Y-73525000D02*
X101800000Y-73525000D01*
D10*
X101800000Y-73525000D02*
X101800000Y-73725000D01*
%TO.C,D32*%
X184412500Y-126825000D02*
X184212500Y-126825000D01*
D11*
X184412500Y-126825000D02*
X184412500Y-128525000D01*
D10*
X184412500Y-128525000D02*
X184212500Y-128525000D01*
%TO.C,D37*%
X146312500Y-145875000D02*
X146112500Y-145875000D01*
D11*
X146312500Y-145875000D02*
X146312500Y-147575000D01*
D10*
X146312500Y-147575000D02*
X146112500Y-147575000D01*
%TO.C,D21*%
X117737500Y-107775000D02*
X117537500Y-107775000D01*
D11*
X117737500Y-107775000D02*
X117737500Y-109475000D01*
D10*
X117737500Y-109475000D02*
X117537500Y-109475000D01*
%TD*%
M02*
