M48
; DRILL file KiCad 10.0.3 date 2026-09-06T21:24:54
; FORMAT={-:-/ absolute / metric / decimal}
; #@! TF.CreationDate,2026-09-06T21:24:54+09:00
; #@! TF.GenerationSoftware,Kicad,Pcbnew,10.0.3
; #@! TF.FileFunction,NonPlated,1,2,NPTH
FMAT,2
METRIC
; #@! TA.AperFunction,NonPlated,NPTH,ComponentDrill
T1C1.600
; #@! TA.AperFunction,NonPlated,NPTH,ComponentDrill
T2C1.650
; #@! TA.AperFunction,NonPlated,NPTH,ComponentDrill
T3C2.200
; #@! TA.AperFunction,NonPlated,NPTH,ComponentDrill
T4C2.600
; #@! TA.AperFunction,NonPlated,NPTH,ComponentDrill
T5C3.000
; #@! TA.AperFunction,NonPlated,NPTH,ComponentDrill
T6C5.000
%
G90
G05
T1
X70.188Y-146.75
X72.438Y-67.0
X97.188Y-43.25
X97.688Y-152.0
X122.688Y-151.0
X155.938Y-112.5
X170.438Y-95.25
X177.75Y-117.25
X194.438Y-98.75
T2
X38.025Y-101.725
X42.788Y-120.775
X47.55Y-82.675
X52.312Y-139.825
X52.312Y-158.875
X67.075Y-91.425
X71.837Y-110.475
X76.6Y-72.375
X81.362Y-129.525
X86.125Y-91.425
X88.506Y-148.575
X90.888Y-110.475
X95.65Y-72.375
X100.412Y-129.525
X105.175Y-91.425
X109.938Y-110.475
X114.7Y-72.375
X117.081Y-148.575
X119.462Y-129.525
X124.225Y-91.425
X128.987Y-110.475
X133.75Y-72.375
X138.512Y-129.525
X138.512Y-148.575
X143.275Y-91.425
X148.037Y-110.475
X152.8Y-72.375
X157.562Y-129.525
X157.562Y-148.575
X162.325Y-91.425
X171.85Y-110.475
X174.231Y-72.375
X176.612Y-129.525
X176.612Y-148.575
X188.519Y-91.425
X195.662Y-72.375
X195.662Y-110.475
X195.662Y-129.525
X195.662Y-148.575
T4
X37.575Y-96.575
X42.337Y-115.625
X47.1Y-77.525
X48.475Y-96.575
X51.862Y-134.675
X51.862Y-153.725
X53.237Y-115.625
X56.625Y-96.575
X58.0Y-77.525
X61.387Y-115.625
X62.762Y-134.675
X62.762Y-153.725
X66.15Y-77.525
X67.525Y-96.575
X70.912Y-134.675
X72.287Y-115.625
X75.675Y-96.575
X77.05Y-77.525
X78.056Y-153.725
X80.438Y-115.625
X81.812Y-134.675
X85.2Y-77.525
X86.575Y-96.575
X88.956Y-153.725
X89.962Y-134.675
X91.337Y-115.625
X94.725Y-96.575
X96.1Y-77.525
X99.487Y-115.625
X100.862Y-134.675
X104.25Y-77.525
X105.625Y-96.575
X106.631Y-153.725
X109.012Y-134.675
X110.387Y-115.625
X113.775Y-96.575
X115.15Y-77.525
X117.531Y-153.725
X118.537Y-115.625
X119.912Y-134.675
X123.3Y-77.525
X124.675Y-96.575
X128.062Y-134.675
X128.062Y-153.725
X129.438Y-115.625
X132.825Y-96.575
X134.2Y-77.525
X137.588Y-115.625
X138.963Y-134.675
X138.963Y-153.725
X142.35Y-77.525
X143.725Y-96.575
X147.112Y-134.675
X147.112Y-153.725
X148.487Y-115.625
X151.875Y-96.575
X153.25Y-77.525
X158.012Y-134.675
X158.012Y-153.725
X161.4Y-115.625
X162.775Y-96.575
X163.781Y-77.525
X166.162Y-134.675
X166.162Y-153.725
X172.3Y-115.625
X174.681Y-77.525
X177.062Y-134.675
X177.062Y-153.725
X178.069Y-96.575
X185.213Y-77.525
X185.213Y-115.625
X185.213Y-134.675
X185.213Y-153.725
X188.969Y-96.575
X196.112Y-77.525
X196.112Y-115.625
X196.112Y-134.675
X196.112Y-153.725
T5
X43.025Y-90.675
X47.787Y-109.725
X48.025Y-92.775
X52.55Y-71.625
X52.787Y-111.825
X57.075Y-100.375
X57.312Y-128.775
X57.312Y-147.825
X57.55Y-73.725
X61.837Y-119.425
X62.075Y-102.475
X62.312Y-130.875
X62.312Y-149.925
X66.6Y-81.325
X66.837Y-121.525
X71.362Y-138.475
X71.6Y-83.425
X76.125Y-100.375
X76.362Y-140.575
X78.506Y-157.525
X80.888Y-119.425
X81.125Y-102.475
X83.506Y-159.625
X85.65Y-81.325
X85.888Y-121.525
X90.412Y-138.475
X90.65Y-83.425
X95.175Y-100.375
X95.412Y-140.575
X99.938Y-119.425
X100.175Y-102.475
X104.7Y-81.325
X104.938Y-121.525
X107.081Y-157.525
X109.462Y-138.475
X109.7Y-83.425
X112.081Y-159.625
X114.225Y-100.375
X114.462Y-140.575
X118.987Y-119.425
X119.225Y-102.475
X123.75Y-81.325
X123.987Y-121.525
X128.512Y-138.475
X128.512Y-157.525
X128.75Y-83.425
X133.275Y-100.375
X133.512Y-140.575
X133.512Y-159.625
X138.037Y-119.425
X138.275Y-102.475
X142.8Y-81.325
X143.037Y-121.525
X147.562Y-138.475
X147.562Y-157.525
X147.8Y-83.425
X152.325Y-100.375
X152.562Y-140.575
X152.562Y-159.625
X157.325Y-102.475
X161.85Y-119.425
X164.231Y-81.325
X166.612Y-138.475
X166.612Y-157.525
X166.85Y-121.525
X169.231Y-83.425
X171.612Y-140.575
X171.612Y-159.625
X178.519Y-100.375
X183.519Y-102.475
X185.662Y-81.325
X185.662Y-119.425
X185.662Y-138.475
X185.662Y-157.525
X190.662Y-83.425
X190.662Y-121.525
X190.662Y-140.575
X190.662Y-159.625
T6
X43.025Y-96.575
X47.787Y-115.625
X52.55Y-77.525
X57.312Y-134.675
X57.312Y-153.725
X62.075Y-96.575
X66.837Y-115.625
X71.6Y-77.525
X76.362Y-134.675
X81.125Y-96.575
X83.506Y-153.725
X85.888Y-115.625
X90.65Y-77.525
X95.412Y-134.675
X100.175Y-96.575
X104.938Y-115.625
X109.7Y-77.525
X112.081Y-153.725
X114.462Y-134.675
X119.225Y-96.575
X123.987Y-115.625
X128.75Y-77.525
X133.512Y-134.675
X133.512Y-153.725
X138.275Y-96.575
X143.037Y-115.625
X147.8Y-77.525
X152.562Y-134.675
X152.562Y-153.725
X157.325Y-96.575
X166.85Y-115.625
X169.231Y-77.525
X171.612Y-134.675
X171.612Y-153.725
X183.519Y-96.575
X190.662Y-77.525
X190.662Y-115.625
X190.662Y-134.675
X190.662Y-153.725
T3
X91.5Y-50.75G85X92.9Y-50.75
G05
M30
