<?xml version="1.0" encoding="utf-8"?>
<svg width="137.21250000000003mm" height="124.60000000000001mm" viewBox="33.95 -162.8 137.21250000000003 124.60000000000001" style="background-color:white" xmlns="http://www.w3.org/2000/svg" xmlns:xlink="http://www.w3.org/1999/xlink">
  <g transform="translate(33.95 -38.2) scale(1 -1) translate(-33.95 162.8)">
    <path d="M 55.5375 -102.725 L 55.3375 -102.725" fill="none" stroke="black" stroke-linecap="round" stroke-linejoin="round" stroke-width="0.15"/>
    <path d="M 55.5375 -102.725 L 55.5375 -104.425" fill="none" stroke="black" stroke-linecap="round" stroke-linejoin="round" stroke-width="0.2"/>
    <path d="M 55.5375 -104.425 L 55.3375 -104.425" fill="none" stroke="black" stroke-linecap="round" stroke-linejoin="round" stroke-width="0.15"/>
    <path d="M 79.6375 -126.825 L 79.4375 -126.825" fill="none" stroke="black" stroke-linecap="round" stroke-linejoin="round" stroke-width="0.15"/>
    <path d="M 79.6375 -126.825 L 79.6375 -128.525" fill="none" stroke="black" stroke-linecap="round" stroke-linejoin="round" stroke-width="0.2"/>
    <path d="M 79.6375 -128.525 L 79.4375 -128.525" fill="none" stroke="black" stroke-linecap="round" stroke-linejoin="round" stroke-width="0.15"/>
    <path d="M 146.312 -107.775 L 146.113 -107.775" fill="none" stroke="black" stroke-linecap="round" stroke-linejoin="round" stroke-width="0.15"/>
    <path d="M 146.312 -107.775 L 146.312 -109.475" fill="none" stroke="black" stroke-linecap="round" stroke-linejoin="round" stroke-width="0.2"/>
    <path d="M 146.312 -109.475 L 146.113 -109.475" fill="none" stroke="black" stroke-linecap="round" stroke-linejoin="round" stroke-width="0.15"/>
    <path d="M 117.737 -126.825 L 117.537 -126.825" fill="none" stroke="black" stroke-linecap="round" stroke-linejoin="round" stroke-width="0.15"/>
    <path d="M 117.737 -126.825 L 117.737 -128.525" fill="none" stroke="black" stroke-linecap="round" stroke-linejoin="round" stroke-width="0.2"/>
    <path d="M 117.737 -128.525 L 117.537 -128.525" fill="none" stroke="black" stroke-linecap="round" stroke-linejoin="round" stroke-width="0.15"/>
    <path d="M 115.356 -145.875 L 115.156 -145.875" fill="none" stroke="black" stroke-linecap="round" stroke-linejoin="round" stroke-width="0.15"/>
    <path d="M 115.356 -145.875 L 115.356 -147.575" fill="none" stroke="black" stroke-linecap="round" stroke-linejoin="round" stroke-width="0.2"/>
    <path d="M 115.356 -147.575 L 115.156 -147.575" fill="none" stroke="black" stroke-linecap="round" stroke-linejoin="round" stroke-width="0.15"/>
    <path d="M 90.575 -73.525 L 90.575 -73.725" fill="none" stroke="black" stroke-linecap="round" stroke-linejoin="round" stroke-width="0.15"/>
    <path d="M 90.575 -73.525 L 92.275 -73.525" fill="none" stroke="black" stroke-linecap="round" stroke-linejoin="round" stroke-width="0.2"/>
    <path d="M 92.275 -73.525 L 92.275 -73.725" fill="none" stroke="black" stroke-linecap="round" stroke-linejoin="round" stroke-width="0.15"/>
    <path d="M 136.787 -126.825 L 136.588 -126.825" fill="none" stroke="black" stroke-linecap="round" stroke-linejoin="round" stroke-width="0.15"/>
    <path d="M 136.787 -126.825 L 136.787 -128.525" fill="none" stroke="black" stroke-linecap="round" stroke-linejoin="round" stroke-width="0.2"/>
    <path d="M 136.787 -128.525 L 136.588 -128.525" fill="none" stroke="black" stroke-linecap="round" stroke-linejoin="round" stroke-width="0.15"/>
    <path d="M 103.45 -88.725 L 103.25 -88.725" fill="none" stroke="black" stroke-linecap="round" stroke-linejoin="round" stroke-width="0.15"/>
    <path d="M 103.45 -88.725 L 103.45 -90.425" fill="none" stroke="black" stroke-linecap="round" stroke-linejoin="round" stroke-width="0.2"/>
    <path d="M 103.45 -90.425 L 103.25 -90.425" fill="none" stroke="black" stroke-linecap="round" stroke-linejoin="round" stroke-width="0.15"/>
    <path d="M 108.213 -107.775 L 108.013 -107.775" fill="none" stroke="black" stroke-linecap="round" stroke-linejoin="round" stroke-width="0.15"/>
    <path d="M 108.213 -107.775 L 108.213 -109.475" fill="none" stroke="black" stroke-linecap="round" stroke-linejoin="round" stroke-width="0.2"/>
    <path d="M 108.213 -109.475 L 108.013 -109.475" fill="none" stroke="black" stroke-linecap="round" stroke-linejoin="round" stroke-width="0.15"/>
    <path d="M 55.6563 -156.125 L 55.4563 -156.125" fill="none" stroke="black" stroke-linecap="round" stroke-linejoin="round" stroke-width="0.15"/>
    <path d="M 55.6563 -156.125 L 55.6563 -157.825" fill="none" stroke="black" stroke-linecap="round" stroke-linejoin="round" stroke-width="0.2"/>
    <path d="M 55.6563 -157.825 L 55.4563 -157.825" fill="none" stroke="black" stroke-linecap="round" stroke-linejoin="round" stroke-width="0.15"/>
    <path d="M 50.775 -83.675 L 50.575 -83.675" fill="none" stroke="black" stroke-linecap="round" stroke-linejoin="round" stroke-width="0.15"/>
    <path d="M 50.775 -83.675 L 50.775 -85.375" fill="none" stroke="black" stroke-linecap="round" stroke-linejoin="round" stroke-width="0.2"/>
    <path d="M 50.775 -85.375 L 50.575 -85.375" fill="none" stroke="black" stroke-linecap="round" stroke-linejoin="round" stroke-width="0.15"/>
    <path d="M 141.55 -88.725 L 141.35 -88.725" fill="none" stroke="black" stroke-linecap="round" stroke-linejoin="round" stroke-width="0.15"/>
    <path d="M 141.55 -88.725 L 141.55 -90.425" fill="none" stroke="black" stroke-linecap="round" stroke-linejoin="round" stroke-width="0.2"/>
    <path d="M 141.55 -90.425 L 141.35 -90.425" fill="none" stroke="black" stroke-linecap="round" stroke-linejoin="round" stroke-width="0.15"/>
    <path d="M 57.9187 -121.775 L 57.7187 -121.775" fill="none" stroke="black" stroke-linecap="round" stroke-linejoin="round" stroke-width="0.15"/>
    <path d="M 57.9187 -121.775 L 57.9187 -123.475" fill="none" stroke="black" stroke-linecap="round" stroke-linejoin="round" stroke-width="0.2"/>
    <path d="M 57.9187 -123.475 L 57.7187 -123.475" fill="none" stroke="black" stroke-linecap="round" stroke-linejoin="round" stroke-width="0.15"/>
    <path d="M 155.838 -126.825 L 155.637 -126.825" fill="none" stroke="black" stroke-linecap="round" stroke-linejoin="round" stroke-width="0.15"/>
    <path d="M 155.838 -126.825 L 155.838 -128.525" fill="none" stroke="black" stroke-linecap="round" stroke-linejoin="round" stroke-width="0.2"/>
    <path d="M 155.838 -128.525 L 155.637 -128.525" fill="none" stroke="black" stroke-linecap="round" stroke-linejoin="round" stroke-width="0.15"/>
    <path d="M 122.5 -88.725 L 122.3 -88.725" fill="none" stroke="black" stroke-linecap="round" stroke-linejoin="round" stroke-width="0.15"/>
    <path d="M 122.5 -88.725 L 122.5 -90.425" fill="none" stroke="black" stroke-linecap="round" stroke-linejoin="round" stroke-width="0.2"/>
    <path d="M 122.5 -90.425 L 122.3 -90.425" fill="none" stroke="black" stroke-linecap="round" stroke-linejoin="round" stroke-width="0.15"/>
    <path d="M 84.4 -88.725 L 84.2 -88.725" fill="none" stroke="black" stroke-linecap="round" stroke-linejoin="round" stroke-width="0.15"/>
    <path d="M 84.4 -88.725 L 84.4 -90.425" fill="none" stroke="black" stroke-linecap="round" stroke-linejoin="round" stroke-width="0.2"/>
    <path d="M 84.4 -90.425 L 84.2 -90.425" fill="none" stroke="black" stroke-linecap="round" stroke-linejoin="round" stroke-width="0.15"/>
    <path d="M 62.9688 -145.875 L 62.7688 -145.875" fill="none" stroke="black" stroke-linecap="round" stroke-linejoin="round" stroke-width="0.15"/>
    <path d="M 62.9688 -145.875 L 62.9688 -147.575" fill="none" stroke="black" stroke-linecap="round" stroke-linejoin="round" stroke-width="0.2"/>
    <path d="M 62.9688 -147.575 L 62.7688 -147.575" fill="none" stroke="black" stroke-linecap="round" stroke-linejoin="round" stroke-width="0.15"/>
    <path d="M 128.675 -73.525 L 128.675 -73.725" fill="none" stroke="black" stroke-linecap="round" stroke-linejoin="round" stroke-width="0.15"/>
    <path d="M 128.675 -73.525 L 130.375 -73.525" fill="none" stroke="black" stroke-linecap="round" stroke-linejoin="round" stroke-width="0.2"/>
    <path d="M 130.375 -73.525 L 130.375 -73.725" fill="none" stroke="black" stroke-linecap="round" stroke-linejoin="round" stroke-width="0.15"/>
    <path d="M 127.263 -107.775 L 127.062 -107.775" fill="none" stroke="black" stroke-linecap="round" stroke-linejoin="round" stroke-width="0.15"/>
    <path d="M 127.263 -107.775 L 127.263 -109.475" fill="none" stroke="black" stroke-linecap="round" stroke-linejoin="round" stroke-width="0.2"/>
    <path d="M 127.263 -109.475 L 127.062 -109.475" fill="none" stroke="black" stroke-linecap="round" stroke-linejoin="round" stroke-width="0.15"/>
    <path d="M 71.525 -73.525 L 71.525 -73.725" fill="none" stroke="black" stroke-linecap="round" stroke-linejoin="round" stroke-width="0.15"/>
    <path d="M 71.525 -73.525 L 73.225 -73.525" fill="none" stroke="black" stroke-linecap="round" stroke-linejoin="round" stroke-width="0.2"/>
    <path d="M 73.225 -73.525 L 73.225 -73.725" fill="none" stroke="black" stroke-linecap="round" stroke-linejoin="round" stroke-width="0.15"/>
    <path d="M 50.775 -140.825 L 50.575 -140.825" fill="none" stroke="black" stroke-linecap="round" stroke-linejoin="round" stroke-width="0.15"/>
    <path d="M 50.775 -140.825 L 50.775 -142.525" fill="none" stroke="black" stroke-linecap="round" stroke-linejoin="round" stroke-width="0.2"/>
    <path d="M 50.775 -142.525 L 50.575 -142.525" fill="none" stroke="black" stroke-linecap="round" stroke-linejoin="round" stroke-width="0.15"/>
    <path d="M 65.35 -88.725 L 65.15 -88.725" fill="none" stroke="black" stroke-linecap="round" stroke-linejoin="round" stroke-width="0.15"/>
    <path d="M 65.35 -88.725 L 65.35 -90.425" fill="none" stroke="black" stroke-linecap="round" stroke-linejoin="round" stroke-width="0.2"/>
    <path d="M 65.35 -90.425 L 65.15 -90.425" fill="none" stroke="black" stroke-linecap="round" stroke-linejoin="round" stroke-width="0.15"/>
    <path d="M 86.7813 -145.875 L 86.5813 -145.875" fill="none" stroke="black" stroke-linecap="round" stroke-linejoin="round" stroke-width="0.15"/>
    <path d="M 86.7813 -145.875 L 86.7813 -147.575" fill="none" stroke="black" stroke-linecap="round" stroke-linejoin="round" stroke-width="0.2"/>
    <path d="M 86.7813 -147.575 L 86.5813 -147.575" fill="none" stroke="black" stroke-linecap="round" stroke-linejoin="round" stroke-width="0.15"/>
    <path d="M 98.6875 -126.825 L 98.4875 -126.825" fill="none" stroke="black" stroke-linecap="round" stroke-linejoin="round" stroke-width="0.15"/>
    <path d="M 98.6875 -126.825 L 98.6875 -128.525" fill="none" stroke="black" stroke-linecap="round" stroke-linejoin="round" stroke-width="0.2"/>
    <path d="M 98.6875 -128.525 L 98.4875 -128.525" fill="none" stroke="black" stroke-linecap="round" stroke-linejoin="round" stroke-width="0.15"/>
    <path d="M 147.725 -73.525 L 147.725 -73.725" fill="none" stroke="black" stroke-linecap="round" stroke-linejoin="round" stroke-width="0.15"/>
    <path d="M 147.725 -73.525 L 149.425 -73.525" fill="none" stroke="black" stroke-linecap="round" stroke-linejoin="round" stroke-width="0.2"/>
    <path d="M 149.425 -73.525 L 149.425 -73.725" fill="none" stroke="black" stroke-linecap="round" stroke-linejoin="round" stroke-width="0.15"/>
    <path d="M 89.1625 -107.775 L 88.9625 -107.775" fill="none" stroke="black" stroke-linecap="round" stroke-linejoin="round" stroke-width="0.15"/>
    <path d="M 89.1625 -107.775 L 89.1625 -109.475" fill="none" stroke="black" stroke-linecap="round" stroke-linejoin="round" stroke-width="0.2"/>
    <path d="M 89.1625 -109.475 L 88.9625 -109.475" fill="none" stroke="black" stroke-linecap="round" stroke-linejoin="round" stroke-width="0.15"/>
    <path d="M 68.225 -85.275 L 68.225 -85.075" fill="none" stroke="black" stroke-linecap="round" stroke-linejoin="round" stroke-width="0.15"/>
    <path d="M 69.925 -85.275 L 68.225 -85.275" fill="none" stroke="black" stroke-linecap="round" stroke-linejoin="round" stroke-width="0.2"/>
    <path d="M 69.925 -85.275 L 69.925 -85.075" fill="none" stroke="black" stroke-linecap="round" stroke-linejoin="round" stroke-width="0.15"/>
    <path d="M 58.2063 -126.825 L 58.0063 -126.825" fill="none" stroke="black" stroke-linecap="round" stroke-linejoin="round" stroke-width="0.15"/>
    <path d="M 58.2063 -126.825 L 58.2063 -128.525" fill="none" stroke="black" stroke-linecap="round" stroke-linejoin="round" stroke-width="0.2"/>
    <path d="M 58.2063 -128.525 L 58.0063 -128.525" fill="none" stroke="black" stroke-linecap="round" stroke-linejoin="round" stroke-width="0.15"/>
    <path d="M 148.694 -145.875 L 148.494 -145.875" fill="none" stroke="black" stroke-linecap="round" stroke-linejoin="round" stroke-width="0.15"/>
    <path d="M 148.694 -145.875 L 148.694 -147.575" fill="none" stroke="black" stroke-linecap="round" stroke-linejoin="round" stroke-width="0.2"/>
    <path d="M 148.694 -147.575 L 148.494 -147.575" fill="none" stroke="black" stroke-linecap="round" stroke-linejoin="round" stroke-width="0.15"/>
    <path d="M 70.1125 -107.775 L 69.9125 -107.775" fill="none" stroke="black" stroke-linecap="round" stroke-linejoin="round" stroke-width="0.15"/>
    <path d="M 70.1125 -107.775 L 70.1125 -109.475" fill="none" stroke="black" stroke-linecap="round" stroke-linejoin="round" stroke-width="0.2"/>
    <path d="M 70.1125 -109.475 L 69.9125 -109.475" fill="none" stroke="black" stroke-linecap="round" stroke-linejoin="round" stroke-width="0.15"/>
    <path d="M 109.625 -73.525 L 109.625 -73.725" fill="none" stroke="black" stroke-linecap="round" stroke-linejoin="round" stroke-width="0.15"/>
    <path d="M 109.625 -73.525 L 111.325 -73.525" fill="none" stroke="black" stroke-linecap="round" stroke-linejoin="round" stroke-width="0.2"/>
    <path d="M 111.325 -73.525 L 111.325 -73.725" fill="none" stroke="black" stroke-linecap="round" stroke-linejoin="round" stroke-width="0.15"/>
  </g>
</svg>