<?xml version="1.0" encoding="utf-8"?>
<svg width="137.21250000000003mm" height="124.60000000000001mm" viewBox="33.95 -162.8 137.21250000000003 124.60000000000001" style="background-color:white" xmlns="http://www.w3.org/2000/svg" xmlns:xlink="http://www.w3.org/1999/xlink">
  <g transform="translate(33.95 -38.2) scale(1 -1) translate(-33.95 162.8)">
    <circle cx="112.862" cy="-43.0" r="0.8" fill="black"/>
    <circle cx="64.1388" cy="-153.725" r="0.85" fill="black"/>
    <circle cx="64.2188" cy="-157.525" r="1.5" fill="black"/>
    <circle cx="69.2188" cy="-153.725" r="2.5" fill="black"/>
    <circle cx="69.2188" cy="-159.625" r="1.5" fill="black"/>
    <circle cx="74.2188" cy="-148.575" r="0.825" fill="black"/>
    <circle cx="74.2988" cy="-153.725" r="0.85" fill="black"/>
    <path d="M 71.7588 -148.995 L 71.7588 -148.295" fill="none" stroke="black" stroke-linecap="round" stroke-linejoin="round" stroke-width="2.5"/>
    <path d="M 65.4088 -151.535 L 65.4088 -150.835" fill="none" stroke="black" stroke-linecap="round" stroke-linejoin="round" stroke-width="2.5"/>
    <circle cx="152.245" cy="-77.525" r="0.85" fill="black"/>
    <circle cx="152.325" cy="-81.325" r="1.5" fill="black"/>
    <circle cx="157.325" cy="-77.525" r="2.5" fill="black"/>
    <circle cx="157.325" cy="-83.425" r="1.5" fill="black"/>
    <circle cx="162.325" cy="-72.375" r="0.825" fill="black"/>
    <circle cx="162.405" cy="-77.525" r="0.85" fill="black"/>
    <path d="M 159.865 -72.795 L 159.865 -72.095" fill="none" stroke="black" stroke-linecap="round" stroke-linejoin="round" stroke-width="2.5"/>
    <path d="M 153.515 -75.335 L 153.515 -74.635" fill="none" stroke="black" stroke-linecap="round" stroke-linejoin="round" stroke-width="2.5"/>
    <circle cx="87.9513" cy="-153.725" r="0.85" fill="black"/>
    <circle cx="88.0313" cy="-157.525" r="1.5" fill="black"/>
    <circle cx="93.0313" cy="-153.725" r="2.5" fill="black"/>
    <circle cx="93.0313" cy="-159.625" r="1.5" fill="black"/>
    <circle cx="98.0313" cy="-148.575" r="0.825" fill="black"/>
    <circle cx="98.1113" cy="-153.725" r="0.85" fill="black"/>
    <path d="M 95.5713 -148.995 L 95.5713 -148.295" fill="none" stroke="black" stroke-linecap="round" stroke-linejoin="round" stroke-width="2.5"/>
    <path d="M 89.2213 -151.535 L 89.2213 -150.835" fill="none" stroke="black" stroke-linecap="round" stroke-linejoin="round" stroke-width="2.5"/>
    <circle cx="137.958" cy="-134.675" r="0.85" fill="black"/>
    <circle cx="138.037" cy="-138.475" r="1.5" fill="black"/>
    <circle cx="143.037" cy="-134.675" r="2.5" fill="black"/>
    <circle cx="143.037" cy="-140.575" r="1.5" fill="black"/>
    <circle cx="148.037" cy="-129.525" r="0.825" fill="black"/>
    <circle cx="148.118" cy="-134.675" r="0.85" fill="black"/>
    <path d="M 145.577 -129.945 L 145.577 -129.245" fill="none" stroke="black" stroke-linecap="round" stroke-linejoin="round" stroke-width="2.5"/>
    <path d="M 139.227 -132.485 L 139.227 -131.785" fill="none" stroke="black" stroke-linecap="round" stroke-linejoin="round" stroke-width="2.5"/>
    <circle cx="115.812" cy="-63.45" r="0.8" fill="black"/>
    <circle cx="113.272" cy="-63.45" r="0.8" fill="black"/>
    <circle cx="118.353" cy="-63.45" r="0.8" fill="black"/>
    <circle cx="66.52" cy="-96.575" r="0.85" fill="black"/>
    <circle cx="66.6" cy="-100.375" r="1.5" fill="black"/>
    <circle cx="71.6" cy="-96.575" r="2.5" fill="black"/>
    <circle cx="71.6" cy="-102.475" r="1.5" fill="black"/>
    <circle cx="76.6" cy="-91.425" r="0.825" fill="black"/>
    <circle cx="76.68" cy="-96.575" r="0.85" fill="black"/>
    <path d="M 74.14 -91.845 L 74.14 -91.145" fill="none" stroke="black" stroke-linecap="round" stroke-linejoin="round" stroke-width="2.5"/>
    <path d="M 67.79 -94.385 L 67.79 -93.685" fill="none" stroke="black" stroke-linecap="round" stroke-linejoin="round" stroke-width="2.5"/>
    <path d="M 121.282 -58.67 L 121.282 -58.07" fill="none" stroke="black" stroke-linecap="round" stroke-linejoin="round" stroke-width="1.8"/>
    <path d="M 118.743 -58.67 L 118.743 -58.07" fill="none" stroke="black" stroke-linecap="round" stroke-linejoin="round" stroke-width="1.8"/>
    <path d="M 128.903 -58.67 L 128.903 -58.07" fill="none" stroke="black" stroke-linecap="round" stroke-linejoin="round" stroke-width="1.8"/>
    <path d="M 131.442 -58.67 L 131.442 -58.07" fill="none" stroke="black" stroke-linecap="round" stroke-linejoin="round" stroke-width="1.8"/>
    <path d="M 133.982 -58.67 L 133.982 -58.07" fill="none" stroke="black" stroke-linecap="round" stroke-linejoin="round" stroke-width="1.8"/>
    <path d="M 136.523 -58.67 L 136.523 -58.07" fill="none" stroke="black" stroke-linecap="round" stroke-linejoin="round" stroke-width="1.8"/>
    <path d="M 139.062 -58.67 L 139.062 -58.07" fill="none" stroke="black" stroke-linecap="round" stroke-linejoin="round" stroke-width="1.8"/>
    <path d="M 141.602 -58.67 L 141.602 -58.07" fill="none" stroke="black" stroke-linecap="round" stroke-linejoin="round" stroke-width="1.8"/>
    <path d="M 144.143 -58.67 L 144.143 -58.07" fill="none" stroke="black" stroke-linecap="round" stroke-linejoin="round" stroke-width="1.8"/>
    <path d="M 146.683 -58.67 L 146.683 -58.07" fill="none" stroke="black" stroke-linecap="round" stroke-linejoin="round" stroke-width="1.8"/>
    <path d="M 146.683 -43.43 L 146.683 -42.83" fill="none" stroke="black" stroke-linecap="round" stroke-linejoin="round" stroke-width="1.8"/>
    <path d="M 141.602 -43.43 L 141.602 -42.83" fill="none" stroke="black" stroke-linecap="round" stroke-linejoin="round" stroke-width="1.8"/>
    <path d="M 139.062 -43.43 L 139.062 -42.83" fill="none" stroke="black" stroke-linecap="round" stroke-linejoin="round" stroke-width="1.8"/>
    <path d="M 144.143 -43.43 L 144.143 -42.83" fill="none" stroke="black" stroke-linecap="round" stroke-linejoin="round" stroke-width="1.8"/>
    <path d="M 136.523 -43.43 L 136.523 -42.83" fill="none" stroke="black" stroke-linecap="round" stroke-linejoin="round" stroke-width="1.8"/>
    <path d="M 133.982 -43.43 L 133.982 -42.83" fill="none" stroke="black" stroke-linecap="round" stroke-linejoin="round" stroke-width="1.8"/>
    <path d="M 131.442 -43.43 L 131.442 -42.83" fill="none" stroke="black" stroke-linecap="round" stroke-linejoin="round" stroke-width="1.8"/>
    <path d="M 128.903 -43.43 L 128.903 -42.83" fill="none" stroke="black" stroke-linecap="round" stroke-linejoin="round" stroke-width="1.8"/>
    <path d="M 123.823 -58.67 L 123.823 -58.07" fill="none" stroke="black" stroke-linecap="round" stroke-linejoin="round" stroke-width="1.8"/>
    <path d="M 126.362 -58.67 L 126.362 -58.07" fill="none" stroke="black" stroke-linecap="round" stroke-linejoin="round" stroke-width="1.8"/>
    <path d="M 121.282 -43.43 L 121.282 -42.83" fill="none" stroke="black" stroke-linecap="round" stroke-linejoin="round" stroke-width="1.8"/>
    <path d="M 118.743 -43.43 L 118.743 -42.83" fill="none" stroke="black" stroke-linecap="round" stroke-linejoin="round" stroke-width="1.8"/>
    <path d="M 123.823 -43.43 L 123.823 -42.83" fill="none" stroke="black" stroke-linecap="round" stroke-linejoin="round" stroke-width="1.8"/>
    <path d="M 126.362 -43.43 L 126.362 -42.83" fill="none" stroke="black" stroke-linecap="round" stroke-linejoin="round" stroke-width="1.8"/>
    <circle cx="123.67" cy="-96.575" r="0.85" fill="black"/>
    <circle cx="123.75" cy="-100.375" r="1.5" fill="black"/>
    <circle cx="128.75" cy="-96.575" r="2.5" fill="black"/>
    <circle cx="128.75" cy="-102.475" r="1.5" fill="black"/>
    <circle cx="133.75" cy="-91.425" r="0.825" fill="black"/>
    <circle cx="133.83" cy="-96.575" r="0.85" fill="black"/>
    <path d="M 131.29 -91.845 L 131.29 -91.145" fill="none" stroke="black" stroke-linecap="round" stroke-linejoin="round" stroke-width="2.5"/>
    <path d="M 124.94 -94.385 L 124.94 -93.685" fill="none" stroke="black" stroke-linecap="round" stroke-linejoin="round" stroke-width="2.5"/>
    <circle cx="80.8075" cy="-134.675" r="0.85" fill="black"/>
    <circle cx="80.8875" cy="-138.475" r="1.5" fill="black"/>
    <circle cx="85.8875" cy="-134.675" r="2.5" fill="black"/>
    <circle cx="85.8875" cy="-140.575" r="1.5" fill="black"/>
    <circle cx="90.8875" cy="-129.525" r="0.825" fill="black"/>
    <circle cx="90.9675" cy="-134.675" r="0.85" fill="black"/>
    <path d="M 88.4275 -129.945 L 88.4275 -129.245" fill="none" stroke="black" stroke-linecap="round" stroke-linejoin="round" stroke-width="2.5"/>
    <path d="M 82.0775 -132.485 L 82.0775 -131.785" fill="none" stroke="black" stroke-linecap="round" stroke-linejoin="round" stroke-width="2.5"/>
    <circle cx="99.8575" cy="-134.675" r="0.85" fill="black"/>
    <circle cx="99.9375" cy="-138.475" r="1.5" fill="black"/>
    <circle cx="104.938" cy="-134.675" r="2.5" fill="black"/>
    <circle cx="104.938" cy="-140.575" r="1.5" fill="black"/>
    <circle cx="109.938" cy="-129.525" r="0.825" fill="black"/>
    <circle cx="110.017" cy="-134.675" r="0.85" fill="black"/>
    <path d="M 107.478 -129.945 L 107.478 -129.245" fill="none" stroke="black" stroke-linecap="round" stroke-linejoin="round" stroke-width="2.5"/>
    <path d="M 101.127 -132.485 L 101.127 -131.785" fill="none" stroke="black" stroke-linecap="round" stroke-linejoin="round" stroke-width="2.5"/>
    <circle cx="147.482" cy="-115.625" r="0.85" fill="black"/>
    <circle cx="147.562" cy="-119.425" r="1.5" fill="black"/>
    <circle cx="152.562" cy="-115.625" r="2.5" fill="black"/>
    <circle cx="152.562" cy="-121.525" r="1.5" fill="black"/>
    <circle cx="157.562" cy="-110.475" r="0.825" fill="black"/>
    <circle cx="157.643" cy="-115.625" r="0.85" fill="black"/>
    <path d="M 155.102 -110.895 L 155.102 -110.195" fill="none" stroke="black" stroke-linecap="round" stroke-linejoin="round" stroke-width="2.5"/>
    <path d="M 148.752 -113.435 L 148.752 -112.735" fill="none" stroke="black" stroke-linecap="round" stroke-linejoin="round" stroke-width="2.5"/>
    <circle cx="149.864" cy="-153.725" r="0.85" fill="black"/>
    <circle cx="149.944" cy="-157.525" r="1.5" fill="black"/>
    <circle cx="154.944" cy="-153.725" r="2.5" fill="black"/>
    <circle cx="154.944" cy="-159.625" r="1.5" fill="black"/>
    <circle cx="159.944" cy="-148.575" r="0.825" fill="black"/>
    <circle cx="160.024" cy="-153.725" r="0.85" fill="black"/>
    <path d="M 157.484 -148.995 L 157.484 -148.295" fill="none" stroke="black" stroke-linecap="round" stroke-linejoin="round" stroke-width="2.5"/>
    <path d="M 151.134 -151.535 L 151.134 -150.835" fill="none" stroke="black" stroke-linecap="round" stroke-linejoin="round" stroke-width="2.5"/>
    <circle cx="52.8675" cy="-96.575" r="0.85" fill="black"/>
    <circle cx="52.7875" cy="-92.775" r="1.5" fill="black"/>
    <circle cx="47.7875" cy="-96.575" r="2.5" fill="black"/>
    <circle cx="47.7875" cy="-90.675" r="1.5" fill="black"/>
    <circle cx="42.7875" cy="-101.725" r="0.825" fill="black"/>
    <circle cx="42.7075" cy="-96.575" r="0.85" fill="black"/>
    <path d="M 45.2475 -102.005 L 45.2475 -101.305" fill="none" stroke="black" stroke-linecap="round" stroke-linejoin="round" stroke-width="2.5"/>
    <path d="M 51.5975 -99.465 L 51.5975 -98.765" fill="none" stroke="black" stroke-linecap="round" stroke-linejoin="round" stroke-width="2.5"/>
    <circle cx="75.25" cy="-134.0" r="0.8" fill="black"/>
    <circle cx="116.526" cy="-153.725" r="0.85" fill="black"/>
    <circle cx="116.606" cy="-157.525" r="1.5" fill="black"/>
    <circle cx="121.606" cy="-153.725" r="2.5" fill="black"/>
    <circle cx="121.606" cy="-159.625" r="1.5" fill="black"/>
    <circle cx="126.606" cy="-148.575" r="0.825" fill="black"/>
    <circle cx="126.686" cy="-153.725" r="0.85" fill="black"/>
    <path d="M 124.146 -148.995 L 124.146 -148.295" fill="none" stroke="black" stroke-linecap="round" stroke-linejoin="round" stroke-width="2.5"/>
    <path d="M 117.796 -151.535 L 117.796 -150.835" fill="none" stroke="black" stroke-linecap="round" stroke-linejoin="round" stroke-width="2.5"/>
    <circle cx="144.113" cy="-66.25" r="0.8" fill="black"/>
    <circle cx="95.095" cy="-77.525" r="0.85" fill="black"/>
    <circle cx="95.175" cy="-81.325" r="1.5" fill="black"/>
    <circle cx="100.175" cy="-77.525" r="2.5" fill="black"/>
    <circle cx="100.175" cy="-83.425" r="1.5" fill="black"/>
    <circle cx="105.175" cy="-72.375" r="0.825" fill="black"/>
    <circle cx="105.255" cy="-77.525" r="0.85" fill="black"/>
    <path d="M 102.715 -72.795 L 102.715 -72.095" fill="none" stroke="black" stroke-linecap="round" stroke-linejoin="round" stroke-width="2.5"/>
    <path d="M 96.365 -75.335 L 96.365 -74.635" fill="none" stroke="black" stroke-linecap="round" stroke-linejoin="round" stroke-width="2.5"/>
    <circle cx="142.72" cy="-96.575" r="0.85" fill="black"/>
    <circle cx="142.8" cy="-100.375" r="1.5" fill="black"/>
    <circle cx="147.8" cy="-96.575" r="2.5" fill="black"/>
    <circle cx="147.8" cy="-102.475" r="1.5" fill="black"/>
    <circle cx="152.8" cy="-91.425" r="0.825" fill="black"/>
    <circle cx="152.88" cy="-96.575" r="0.85" fill="black"/>
    <path d="M 150.34 -91.845 L 150.34 -91.145" fill="none" stroke="black" stroke-linecap="round" stroke-linejoin="round" stroke-width="2.5"/>
    <path d="M 143.99 -94.385 L 143.99 -93.685" fill="none" stroke="black" stroke-linecap="round" stroke-linejoin="round" stroke-width="2.5"/>
    <circle cx="165.863" cy="-148.75" r="0.8" fill="black"/>
    <circle cx="50.4863" cy="-153.725" r="0.85" fill="black"/>
    <circle cx="50.4063" cy="-149.925" r="1.5" fill="black"/>
    <circle cx="45.4063" cy="-153.725" r="2.5" fill="black"/>
    <circle cx="45.4063" cy="-147.825" r="1.5" fill="black"/>
    <circle cx="40.4063" cy="-158.875" r="0.825" fill="black"/>
    <circle cx="40.3263" cy="-153.725" r="0.85" fill="black"/>
    <path d="M 42.8663 -159.155 L 42.8663 -158.455" fill="none" stroke="black" stroke-linecap="round" stroke-linejoin="round" stroke-width="2.5"/>
    <path d="M 49.2163 -156.615 L 49.2163 -155.915" fill="none" stroke="black" stroke-linecap="round" stroke-linejoin="round" stroke-width="2.5"/>
    <rect x="121.312" y="-63.95" width="1.75" height="1.0" fill="black"/>
    <rect x="129.062" y="-63.95" width="1.75" height="1.0" fill="black"/>
    <circle cx="133.195" cy="-77.525" r="0.85" fill="black"/>
    <circle cx="133.275" cy="-81.325" r="1.5" fill="black"/>
    <circle cx="138.275" cy="-77.525" r="2.5" fill="black"/>
    <circle cx="138.275" cy="-83.425" r="1.5" fill="black"/>
    <circle cx="143.275" cy="-72.375" r="0.825" fill="black"/>
    <circle cx="143.355" cy="-77.525" r="0.85" fill="black"/>
    <path d="M 140.815 -72.795 L 140.815 -72.095" fill="none" stroke="black" stroke-linecap="round" stroke-linejoin="round" stroke-width="2.5"/>
    <path d="M 134.465 -75.335 L 134.465 -74.635" fill="none" stroke="black" stroke-linecap="round" stroke-linejoin="round" stroke-width="2.5"/>
    <circle cx="85.57" cy="-96.575" r="0.85" fill="black"/>
    <circle cx="85.65" cy="-100.375" r="1.5" fill="black"/>
    <circle cx="90.65" cy="-96.575" r="2.5" fill="black"/>
    <circle cx="90.65" cy="-102.475" r="1.5" fill="black"/>
    <circle cx="95.65" cy="-91.425" r="0.825" fill="black"/>
    <circle cx="95.73" cy="-96.575" r="0.85" fill="black"/>
    <path d="M 93.19 -91.845 L 93.19 -91.145" fill="none" stroke="black" stroke-linecap="round" stroke-linejoin="round" stroke-width="2.5"/>
    <path d="M 86.84 -94.385 L 86.84 -93.685" fill="none" stroke="black" stroke-linecap="round" stroke-linejoin="round" stroke-width="2.5"/>
    <circle cx="137.363" cy="-153.5" r="0.8" fill="black"/>
    <circle cx="128.433" cy="-115.625" r="0.85" fill="black"/>
    <circle cx="128.512" cy="-119.425" r="1.5" fill="black"/>
    <circle cx="133.512" cy="-115.625" r="2.5" fill="black"/>
    <circle cx="133.512" cy="-121.525" r="1.5" fill="black"/>
    <circle cx="138.512" cy="-110.475" r="0.825" fill="black"/>
    <circle cx="138.593" cy="-115.625" r="0.85" fill="black"/>
    <path d="M 136.053 -110.895 L 136.053 -110.195" fill="none" stroke="black" stroke-linecap="round" stroke-linejoin="round" stroke-width="2.5"/>
    <path d="M 129.702 -113.435 L 129.702 -112.735" fill="none" stroke="black" stroke-linecap="round" stroke-linejoin="round" stroke-width="2.5"/>
    <circle cx="63.6125" cy="-123.0" r="0.8" fill="black"/>
    <circle cx="104.62" cy="-96.575" r="0.85" fill="black"/>
    <circle cx="104.7" cy="-100.375" r="1.5" fill="black"/>
    <circle cx="109.7" cy="-96.575" r="2.5" fill="black"/>
    <circle cx="109.7" cy="-102.475" r="1.5" fill="black"/>
    <circle cx="114.7" cy="-91.425" r="0.825" fill="black"/>
    <circle cx="114.78" cy="-96.575" r="0.85" fill="black"/>
    <path d="M 112.24 -91.845 L 112.24 -91.145" fill="none" stroke="black" stroke-linecap="round" stroke-linejoin="round" stroke-width="2.5"/>
    <path d="M 105.89 -94.385 L 105.89 -93.685" fill="none" stroke="black" stroke-linecap="round" stroke-linejoin="round" stroke-width="2.5"/>
    <circle cx="59.3763" cy="-134.675" r="0.85" fill="black"/>
    <circle cx="59.4563" cy="-138.475" r="1.5" fill="black"/>
    <circle cx="64.4563" cy="-134.675" r="2.5" fill="black"/>
    <circle cx="64.4563" cy="-140.575" r="1.5" fill="black"/>
    <circle cx="69.4563" cy="-129.525" r="0.825" fill="black"/>
    <circle cx="69.5363" cy="-134.675" r="0.85" fill="black"/>
    <path d="M 66.9963 -129.945 L 66.9963 -129.245" fill="none" stroke="black" stroke-linecap="round" stroke-linejoin="round" stroke-width="2.5"/>
    <path d="M 60.6463 -132.485 L 60.6463 -131.785" fill="none" stroke="black" stroke-linecap="round" stroke-linejoin="round" stroke-width="2.5"/>
    <circle cx="39.3625" cy="-111.0" r="0.8" fill="black"/>
    <circle cx="76.045" cy="-77.525" r="0.85" fill="black"/>
    <circle cx="76.125" cy="-81.325" r="1.5" fill="black"/>
    <circle cx="81.125" cy="-77.525" r="2.5" fill="black"/>
    <circle cx="81.125" cy="-83.425" r="1.5" fill="black"/>
    <circle cx="86.125" cy="-72.375" r="0.825" fill="black"/>
    <circle cx="86.205" cy="-77.525" r="0.85" fill="black"/>
    <path d="M 83.665 -72.795 L 83.665 -72.095" fill="none" stroke="black" stroke-linecap="round" stroke-linejoin="round" stroke-width="2.5"/>
    <path d="M 77.315 -75.335 L 77.315 -74.635" fill="none" stroke="black" stroke-linecap="round" stroke-linejoin="round" stroke-width="2.5"/>
    <circle cx="157.007" cy="-134.675" r="0.85" fill="black"/>
    <circle cx="157.088" cy="-138.475" r="1.5" fill="black"/>
    <circle cx="162.088" cy="-134.675" r="2.5" fill="black"/>
    <circle cx="162.088" cy="-140.575" r="1.5" fill="black"/>
    <circle cx="167.088" cy="-129.525" r="0.825" fill="black"/>
    <circle cx="167.167" cy="-134.675" r="0.85" fill="black"/>
    <path d="M 164.627 -129.945 L 164.627 -129.245" fill="none" stroke="black" stroke-linecap="round" stroke-linejoin="round" stroke-width="2.5"/>
    <path d="M 158.278 -132.485 L 158.278 -131.785" fill="none" stroke="black" stroke-linecap="round" stroke-linejoin="round" stroke-width="2.5"/>
    <circle cx="114.145" cy="-77.525" r="0.85" fill="black"/>
    <circle cx="114.225" cy="-81.325" r="1.5" fill="black"/>
    <circle cx="119.225" cy="-77.525" r="2.5" fill="black"/>
    <circle cx="119.225" cy="-83.425" r="1.5" fill="black"/>
    <circle cx="124.225" cy="-72.375" r="0.825" fill="black"/>
    <circle cx="124.305" cy="-77.525" r="0.85" fill="black"/>
    <path d="M 121.765 -72.795 L 121.765 -72.095" fill="none" stroke="black" stroke-linecap="round" stroke-linejoin="round" stroke-width="2.5"/>
    <path d="M 115.415 -75.335 L 115.415 -74.635" fill="none" stroke="black" stroke-linecap="round" stroke-linejoin="round" stroke-width="2.5"/>
    <circle cx="55.2487" cy="-115.625" r="0.85" fill="black"/>
    <circle cx="55.1687" cy="-111.825" r="1.5" fill="black"/>
    <circle cx="50.1687" cy="-115.625" r="2.5" fill="black"/>
    <circle cx="50.1687" cy="-109.725" r="1.5" fill="black"/>
    <circle cx="45.1687" cy="-120.775" r="0.825" fill="black"/>
    <circle cx="45.0887" cy="-115.625" r="0.85" fill="black"/>
    <path d="M 47.6287 -121.055 L 47.6287 -120.355" fill="none" stroke="black" stroke-linecap="round" stroke-linejoin="round" stroke-width="2.5"/>
    <path d="M 53.9787 -118.515 L 53.9787 -117.815" fill="none" stroke="black" stroke-linecap="round" stroke-linejoin="round" stroke-width="2.5"/>
    <circle cx="90.3325" cy="-115.625" r="0.85" fill="black"/>
    <circle cx="90.4125" cy="-119.425" r="1.5" fill="black"/>
    <circle cx="95.4125" cy="-115.625" r="2.5" fill="black"/>
    <circle cx="95.4125" cy="-121.525" r="1.5" fill="black"/>
    <circle cx="100.412" cy="-110.475" r="0.825" fill="black"/>
    <circle cx="100.493" cy="-115.625" r="0.85" fill="black"/>
    <path d="M 97.9525 -110.895 L 97.9525 -110.195" fill="none" stroke="black" stroke-linecap="round" stroke-linejoin="round" stroke-width="2.5"/>
    <path d="M 91.6025 -113.435 L 91.6025 -112.735" fill="none" stroke="black" stroke-linecap="round" stroke-linejoin="round" stroke-width="2.5"/>
    <circle cx="118.907" cy="-134.675" r="0.85" fill="black"/>
    <circle cx="118.987" cy="-138.475" r="1.5" fill="black"/>
    <circle cx="123.987" cy="-134.675" r="2.5" fill="black"/>
    <circle cx="123.987" cy="-140.575" r="1.5" fill="black"/>
    <circle cx="128.988" cy="-129.525" r="0.825" fill="black"/>
    <circle cx="129.067" cy="-134.675" r="0.85" fill="black"/>
    <path d="M 126.528 -129.945 L 126.528 -129.245" fill="none" stroke="black" stroke-linecap="round" stroke-linejoin="round" stroke-width="2.5"/>
    <path d="M 120.177 -132.485 L 120.177 -131.785" fill="none" stroke="black" stroke-linecap="round" stroke-linejoin="round" stroke-width="2.5"/>
    <circle cx="48.105" cy="-77.525" r="0.85" fill="black"/>
    <circle cx="48.025" cy="-73.725" r="1.5" fill="black"/>
    <circle cx="43.025" cy="-77.525" r="2.5" fill="black"/>
    <circle cx="43.025" cy="-71.625" r="1.5" fill="black"/>
    <circle cx="38.025" cy="-82.675" r="0.825" fill="black"/>
    <circle cx="37.945" cy="-77.525" r="0.85" fill="black"/>
    <path d="M 40.485 -82.955 L 40.485 -82.255" fill="none" stroke="black" stroke-linecap="round" stroke-linejoin="round" stroke-width="2.5"/>
    <path d="M 46.835 -80.415 L 46.835 -79.715" fill="none" stroke="black" stroke-linecap="round" stroke-linejoin="round" stroke-width="2.5"/>
    <circle cx="81.1125" cy="-151.75" r="0.8" fill="black"/>
    <path d="M 117.212 -50.75 L 118.612 -50.75" fill="none" stroke="black" stroke-linecap="round" stroke-linejoin="round" stroke-width="2.2"/>
    <path d="M 115.612 -59.4 L 116.013 -59.4" fill="none" stroke="black" stroke-linecap="round" stroke-linejoin="round" stroke-width="1.8"/>
    <path d="M 113.072 -59.4 L 113.472 -59.4" fill="none" stroke="black" stroke-linecap="round" stroke-linejoin="round" stroke-width="1.8"/>
    <circle cx="71.2825" cy="-115.625" r="0.85" fill="black"/>
    <circle cx="71.3625" cy="-119.425" r="1.5" fill="black"/>
    <circle cx="76.3625" cy="-115.625" r="2.5" fill="black"/>
    <circle cx="76.3625" cy="-121.525" r="1.5" fill="black"/>
    <circle cx="81.3625" cy="-110.475" r="0.825" fill="black"/>
    <circle cx="81.4425" cy="-115.625" r="0.85" fill="black"/>
    <path d="M 78.9025 -110.895 L 78.9025 -110.195" fill="none" stroke="black" stroke-linecap="round" stroke-linejoin="round" stroke-width="2.5"/>
    <path d="M 72.5525 -113.435 L 72.5525 -112.735" fill="none" stroke="black" stroke-linecap="round" stroke-linejoin="round" stroke-width="2.5"/>
    <circle cx="48.105" cy="-134.675" r="0.85" fill="black"/>
    <circle cx="48.025" cy="-130.875" r="1.5" fill="black"/>
    <circle cx="43.025" cy="-134.675" r="2.5" fill="black"/>
    <circle cx="43.025" cy="-128.775" r="1.5" fill="black"/>
    <circle cx="38.025" cy="-139.825" r="0.825" fill="black"/>
    <circle cx="37.945" cy="-134.675" r="0.85" fill="black"/>
    <path d="M 40.485 -140.105 L 40.485 -139.405" fill="none" stroke="black" stroke-linecap="round" stroke-linejoin="round" stroke-width="2.5"/>
    <path d="M 46.835 -137.565 L 46.835 -136.865" fill="none" stroke="black" stroke-linecap="round" stroke-linejoin="round" stroke-width="2.5"/>
    <circle cx="56.995" cy="-77.525" r="0.85" fill="black"/>
    <circle cx="57.075" cy="-81.325" r="1.5" fill="black"/>
    <circle cx="62.075" cy="-77.525" r="2.5" fill="black"/>
    <circle cx="62.075" cy="-83.425" r="1.5" fill="black"/>
    <circle cx="67.075" cy="-72.375" r="0.825" fill="black"/>
    <circle cx="67.155" cy="-77.525" r="0.85" fill="black"/>
    <path d="M 64.615 -72.795 L 64.615 -72.095" fill="none" stroke="black" stroke-linecap="round" stroke-linejoin="round" stroke-width="2.5"/>
    <path d="M 58.265 -75.335 L 58.265 -74.635" fill="none" stroke="black" stroke-linecap="round" stroke-linejoin="round" stroke-width="2.5"/>
    <circle cx="109.382" cy="-115.625" r="0.85" fill="black"/>
    <circle cx="109.463" cy="-119.425" r="1.5" fill="black"/>
    <circle cx="114.463" cy="-115.625" r="2.5" fill="black"/>
    <circle cx="114.463" cy="-121.525" r="1.5" fill="black"/>
    <circle cx="119.463" cy="-110.475" r="0.825" fill="black"/>
    <circle cx="119.543" cy="-115.625" r="0.85" fill="black"/>
    <path d="M 117.002 -110.895 L 117.002 -110.195" fill="none" stroke="black" stroke-linecap="round" stroke-linejoin="round" stroke-width="2.5"/>
    <path d="M 110.653 -113.435 L 110.653 -112.735" fill="none" stroke="black" stroke-linecap="round" stroke-linejoin="round" stroke-width="2.5"/>
  </g>
</svg>