<?xml version="1.0" encoding="utf-8"?>
<svg width="165.78750000000002mm" height="124.60000000000001mm" viewBox="33.95 -162.8 165.78750000000002 124.60000000000001" style="background-color:white" xmlns="http://www.w3.org/2000/svg" xmlns:xlink="http://www.w3.org/1999/xlink">
  <g transform="translate(33.95 -38.2) scale(1 -1) translate(-33.95 162.8)">
    <path d="M 74.14 -72.795 L 74.14 -72.095" fill="none" stroke="black" stroke-linecap="round" stroke-linejoin="round" stroke-width="2.5"/>
    <path d="M 67.79 -75.335 L 67.79 -74.635" fill="none" stroke="black" stroke-linecap="round" stroke-linejoin="round" stroke-width="2.5"/>
    <path d="M 136.053 -129.945 L 136.053 -129.245" fill="none" stroke="black" stroke-linecap="round" stroke-linejoin="round" stroke-width="2.5"/>
    <path d="M 129.702 -132.485 L 129.702 -131.785" fill="none" stroke="black" stroke-linecap="round" stroke-linejoin="round" stroke-width="2.5"/>
    <path d="M 193.202 -148.995 L 193.202 -148.295" fill="none" stroke="black" stroke-linecap="round" stroke-linejoin="round" stroke-width="2.5"/>
    <path d="M 186.852 -151.535 L 186.852 -150.835" fill="none" stroke="black" stroke-linecap="round" stroke-linejoin="round" stroke-width="2.5"/>
    <path d="M 140.815 -91.845 L 140.815 -91.145" fill="none" stroke="black" stroke-linecap="round" stroke-linejoin="round" stroke-width="2.5"/>
    <path d="M 134.465 -94.385 L 134.465 -93.685" fill="none" stroke="black" stroke-linecap="round" stroke-linejoin="round" stroke-width="2.5"/>
    <path d="M 93.19 -72.795 L 93.19 -72.095" fill="none" stroke="black" stroke-linecap="round" stroke-linejoin="round" stroke-width="2.5"/>
    <path d="M 86.84 -75.335 L 86.84 -74.635" fill="none" stroke="black" stroke-linecap="round" stroke-linejoin="round" stroke-width="2.5"/>
    <path d="M 155.102 -129.945 L 155.102 -129.245" fill="none" stroke="black" stroke-linecap="round" stroke-linejoin="round" stroke-width="2.5"/>
    <path d="M 148.752 -132.485 L 148.752 -131.785" fill="none" stroke="black" stroke-linecap="round" stroke-linejoin="round" stroke-width="2.5"/>
    <path d="M 193.202 -110.895 L 193.202 -110.195" fill="none" stroke="black" stroke-linecap="round" stroke-linejoin="round" stroke-width="2.5"/>
    <path d="M 186.852 -113.435 L 186.852 -112.735" fill="none" stroke="black" stroke-linecap="round" stroke-linejoin="round" stroke-width="2.5"/>
    <path d="M 169.39 -110.895 L 169.39 -110.195" fill="none" stroke="black" stroke-linecap="round" stroke-linejoin="round" stroke-width="2.5"/>
    <path d="M 163.04 -113.435 L 163.04 -112.735" fill="none" stroke="black" stroke-linecap="round" stroke-linejoin="round" stroke-width="2.5"/>
    <path d="M 193.202 -72.795 L 193.202 -72.095" fill="none" stroke="black" stroke-linecap="round" stroke-linejoin="round" stroke-width="2.5"/>
    <path d="M 186.852 -75.335 L 186.852 -74.635" fill="none" stroke="black" stroke-linecap="round" stroke-linejoin="round" stroke-width="2.5"/>
    <path d="M 117.002 -129.945 L 117.002 -129.245" fill="none" stroke="black" stroke-linecap="round" stroke-linejoin="round" stroke-width="2.5"/>
    <path d="M 110.653 -132.485 L 110.653 -131.785" fill="none" stroke="black" stroke-linecap="round" stroke-linejoin="round" stroke-width="2.5"/>
    <path d="M 107.478 -110.895 L 107.478 -110.195" fill="none" stroke="black" stroke-linecap="round" stroke-linejoin="round" stroke-width="2.5"/>
    <path d="M 101.127 -113.435 L 101.127 -112.735" fill="none" stroke="black" stroke-linecap="round" stroke-linejoin="round" stroke-width="2.5"/>
    <path d="M 112.24 -72.795 L 112.24 -72.095" fill="none" stroke="black" stroke-linecap="round" stroke-linejoin="round" stroke-width="2.5"/>
    <path d="M 105.89 -75.335 L 105.89 -74.635" fill="none" stroke="black" stroke-linecap="round" stroke-linejoin="round" stroke-width="2.5"/>
    <circle cx="94.3" cy="-63.45" r="0.8" fill="black"/>
    <circle cx="96.84" cy="-63.45" r="0.8" fill="black"/>
    <circle cx="91.76" cy="-63.45" r="0.8" fill="black"/>
    <path d="M 102.715 -91.845 L 102.715 -91.145" fill="none" stroke="black" stroke-linecap="round" stroke-linejoin="round" stroke-width="2.5"/>
    <path d="M 96.365 -94.385 L 96.365 -93.685" fill="none" stroke="black" stroke-linecap="round" stroke-linejoin="round" stroke-width="2.5"/>
    <path d="M 126.528 -110.895 L 126.528 -110.195" fill="none" stroke="black" stroke-linecap="round" stroke-linejoin="round" stroke-width="2.5"/>
    <path d="M 120.177 -113.435 L 120.177 -112.735" fill="none" stroke="black" stroke-linecap="round" stroke-linejoin="round" stroke-width="2.5"/>
    <path d="M 136.053 -148.995 L 136.053 -148.295" fill="none" stroke="black" stroke-linecap="round" stroke-linejoin="round" stroke-width="2.5"/>
    <path d="M 129.702 -151.535 L 129.702 -150.835" fill="none" stroke="black" stroke-linecap="round" stroke-linejoin="round" stroke-width="2.5"/>
    <path d="M 174.153 -148.995 L 174.153 -148.295" fill="none" stroke="black" stroke-linecap="round" stroke-linejoin="round" stroke-width="2.5"/>
    <path d="M 167.803 -151.535 L 167.803 -150.835" fill="none" stroke="black" stroke-linecap="round" stroke-linejoin="round" stroke-width="2.5"/>
    <path d="M 78.9025 -129.945 L 78.9025 -129.245" fill="none" stroke="black" stroke-linecap="round" stroke-linejoin="round" stroke-width="2.5"/>
    <path d="M 72.5525 -132.485 L 72.5525 -131.785" fill="none" stroke="black" stroke-linecap="round" stroke-linejoin="round" stroke-width="2.5"/>
    <path d="M 64.615 -91.845 L 64.615 -91.145" fill="none" stroke="black" stroke-linecap="round" stroke-linejoin="round" stroke-width="2.5"/>
    <path d="M 58.265 -94.385 L 58.265 -93.685" fill="none" stroke="black" stroke-linecap="round" stroke-linejoin="round" stroke-width="2.5"/>
    <path d="M 88.83 -43.43 L 88.83 -42.83" fill="none" stroke="black" stroke-linecap="round" stroke-linejoin="round" stroke-width="1.8"/>
    <path d="M 91.37 -43.43 L 91.37 -42.83" fill="none" stroke="black" stroke-linecap="round" stroke-linejoin="round" stroke-width="1.8"/>
    <path d="M 81.21 -43.43 L 81.21 -42.83" fill="none" stroke="black" stroke-linecap="round" stroke-linejoin="round" stroke-width="1.8"/>
    <path d="M 78.67 -43.43 L 78.67 -42.83" fill="none" stroke="black" stroke-linecap="round" stroke-linejoin="round" stroke-width="1.8"/>
    <path d="M 76.13 -43.43 L 76.13 -42.83" fill="none" stroke="black" stroke-linecap="round" stroke-linejoin="round" stroke-width="1.8"/>
    <path d="M 73.59 -43.43 L 73.59 -42.83" fill="none" stroke="black" stroke-linecap="round" stroke-linejoin="round" stroke-width="1.8"/>
    <path d="M 71.05 -43.43 L 71.05 -42.83" fill="none" stroke="black" stroke-linecap="round" stroke-linejoin="round" stroke-width="1.8"/>
    <path d="M 68.51 -43.43 L 68.51 -42.83" fill="none" stroke="black" stroke-linecap="round" stroke-linejoin="round" stroke-width="1.8"/>
    <path d="M 65.97 -43.43 L 65.97 -42.83" fill="none" stroke="black" stroke-linecap="round" stroke-linejoin="round" stroke-width="1.8"/>
    <path d="M 63.43 -43.43 L 63.43 -42.83" fill="none" stroke="black" stroke-linecap="round" stroke-linejoin="round" stroke-width="1.8"/>
    <path d="M 63.43 -58.67 L 63.43 -58.07" fill="none" stroke="black" stroke-linecap="round" stroke-linejoin="round" stroke-width="1.8"/>
    <path d="M 68.51 -58.67 L 68.51 -58.07" fill="none" stroke="black" stroke-linecap="round" stroke-linejoin="round" stroke-width="1.8"/>
    <path d="M 71.05 -58.67 L 71.05 -58.07" fill="none" stroke="black" stroke-linecap="round" stroke-linejoin="round" stroke-width="1.8"/>
    <path d="M 65.97 -58.67 L 65.97 -58.07" fill="none" stroke="black" stroke-linecap="round" stroke-linejoin="round" stroke-width="1.8"/>
    <path d="M 73.59 -58.67 L 73.59 -58.07" fill="none" stroke="black" stroke-linecap="round" stroke-linejoin="round" stroke-width="1.8"/>
    <path d="M 76.13 -58.67 L 76.13 -58.07" fill="none" stroke="black" stroke-linecap="round" stroke-linejoin="round" stroke-width="1.8"/>
    <path d="M 78.67 -58.67 L 78.67 -58.07" fill="none" stroke="black" stroke-linecap="round" stroke-linejoin="round" stroke-width="1.8"/>
    <path d="M 81.21 -58.67 L 81.21 -58.07" fill="none" stroke="black" stroke-linecap="round" stroke-linejoin="round" stroke-width="1.8"/>
    <path d="M 86.29 -43.43 L 86.29 -42.83" fill="none" stroke="black" stroke-linecap="round" stroke-linejoin="round" stroke-width="1.8"/>
    <path d="M 83.75 -43.43 L 83.75 -42.83" fill="none" stroke="black" stroke-linecap="round" stroke-linejoin="round" stroke-width="1.8"/>
    <path d="M 88.83 -58.67 L 88.83 -58.07" fill="none" stroke="black" stroke-linecap="round" stroke-linejoin="round" stroke-width="1.8"/>
    <path d="M 91.37 -58.67 L 91.37 -58.07" fill="none" stroke="black" stroke-linecap="round" stroke-linejoin="round" stroke-width="1.8"/>
    <path d="M 86.29 -58.67 L 86.29 -58.07" fill="none" stroke="black" stroke-linecap="round" stroke-linejoin="round" stroke-width="1.8"/>
    <path d="M 83.75 -58.67 L 83.75 -58.07" fill="none" stroke="black" stroke-linecap="round" stroke-linejoin="round" stroke-width="1.8"/>
    <path d="M 121.765 -91.845 L 121.765 -91.145" fill="none" stroke="black" stroke-linecap="round" stroke-linejoin="round" stroke-width="2.5"/>
    <path d="M 115.415 -94.385 L 115.415 -93.685" fill="none" stroke="black" stroke-linecap="round" stroke-linejoin="round" stroke-width="2.5"/>
    <path d="M 86.0463 -148.995 L 86.0463 -148.295" fill="none" stroke="black" stroke-linecap="round" stroke-linejoin="round" stroke-width="2.5"/>
    <path d="M 79.6963 -151.535 L 79.6963 -150.835" fill="none" stroke="black" stroke-linecap="round" stroke-linejoin="round" stroke-width="2.5"/>
    <path d="M 50.01 -82.955 L 50.01 -82.255" fill="none" stroke="black" stroke-linecap="round" stroke-linejoin="round" stroke-width="2.5"/>
    <path d="M 56.36 -80.415 L 56.36 -79.715" fill="none" stroke="black" stroke-linecap="round" stroke-linejoin="round" stroke-width="2.5"/>
    <path d="M 145.577 -110.895 L 145.577 -110.195" fill="none" stroke="black" stroke-linecap="round" stroke-linejoin="round" stroke-width="2.5"/>
    <path d="M 139.227 -113.435 L 139.227 -112.735" fill="none" stroke="black" stroke-linecap="round" stroke-linejoin="round" stroke-width="2.5"/>
    <path d="M 45.2475 -121.055 L 45.2475 -120.355" fill="none" stroke="black" stroke-linecap="round" stroke-linejoin="round" stroke-width="2.5"/>
    <path d="M 51.5975 -118.515 L 51.5975 -117.815" fill="none" stroke="black" stroke-linecap="round" stroke-linejoin="round" stroke-width="2.5"/>
    <path d="M 114.621 -148.995 L 114.621 -148.295" fill="none" stroke="black" stroke-linecap="round" stroke-linejoin="round" stroke-width="2.5"/>
    <path d="M 108.271 -151.535 L 108.271 -150.835" fill="none" stroke="black" stroke-linecap="round" stroke-linejoin="round" stroke-width="2.5"/>
    <path d="M 54.7725 -140.105 L 54.7725 -139.405" fill="none" stroke="black" stroke-linecap="round" stroke-linejoin="round" stroke-width="2.5"/>
    <path d="M 61.1225 -137.565 L 61.1225 -136.865" fill="none" stroke="black" stroke-linecap="round" stroke-linejoin="round" stroke-width="2.5"/>
    <path d="M 88.4275 -110.895 L 88.4275 -110.195" fill="none" stroke="black" stroke-linecap="round" stroke-linejoin="round" stroke-width="2.5"/>
    <path d="M 82.0775 -113.435 L 82.0775 -112.735" fill="none" stroke="black" stroke-linecap="round" stroke-linejoin="round" stroke-width="2.5"/>
    <path d="M 171.771 -72.795 L 171.771 -72.095" fill="none" stroke="black" stroke-linecap="round" stroke-linejoin="round" stroke-width="2.5"/>
    <path d="M 165.421 -75.335 L 165.421 -74.635" fill="none" stroke="black" stroke-linecap="round" stroke-linejoin="round" stroke-width="2.5"/>
    <path d="M 174.153 -129.945 L 174.153 -129.245" fill="none" stroke="black" stroke-linecap="round" stroke-linejoin="round" stroke-width="2.5"/>
    <path d="M 167.803 -132.485 L 167.803 -131.785" fill="none" stroke="black" stroke-linecap="round" stroke-linejoin="round" stroke-width="2.5"/>
    <path d="M 97.9525 -129.945 L 97.9525 -129.245" fill="none" stroke="black" stroke-linecap="round" stroke-linejoin="round" stroke-width="2.5"/>
    <path d="M 91.6025 -132.485 L 91.6025 -131.785" fill="none" stroke="black" stroke-linecap="round" stroke-linejoin="round" stroke-width="2.5"/>
    <path d="M 94.1 -59.4 L 94.5 -59.4" fill="none" stroke="black" stroke-linecap="round" stroke-linejoin="round" stroke-width="1.8"/>
    <path d="M 96.64 -59.4 L 97.04 -59.4" fill="none" stroke="black" stroke-linecap="round" stroke-linejoin="round" stroke-width="1.8"/>
    <path d="M 40.485 -102.005 L 40.485 -101.305" fill="none" stroke="black" stroke-linecap="round" stroke-linejoin="round" stroke-width="2.5"/>
    <path d="M 46.835 -99.465 L 46.835 -98.765" fill="none" stroke="black" stroke-linecap="round" stroke-linejoin="round" stroke-width="2.5"/>
    <rect x="87.05" y="-63.95" width="1.75" height="1.0" fill="black"/>
    <rect x="79.3" y="-63.95" width="1.75" height="1.0" fill="black"/>
    <path d="M 186.059 -91.845 L 186.059 -91.145" fill="none" stroke="black" stroke-linecap="round" stroke-linejoin="round" stroke-width="2.5"/>
    <path d="M 179.709 -94.385 L 179.709 -93.685" fill="none" stroke="black" stroke-linecap="round" stroke-linejoin="round" stroke-width="2.5"/>
    <path d="M 193.202 -129.945 L 193.202 -129.245" fill="none" stroke="black" stroke-linecap="round" stroke-linejoin="round" stroke-width="2.5"/>
    <path d="M 186.852 -132.485 L 186.852 -131.785" fill="none" stroke="black" stroke-linecap="round" stroke-linejoin="round" stroke-width="2.5"/>
    <path d="M 159.865 -91.845 L 159.865 -91.145" fill="none" stroke="black" stroke-linecap="round" stroke-linejoin="round" stroke-width="2.5"/>
    <path d="M 153.515 -94.385 L 153.515 -93.685" fill="none" stroke="black" stroke-linecap="round" stroke-linejoin="round" stroke-width="2.5"/>
    <path d="M 155.102 -148.995 L 155.102 -148.295" fill="none" stroke="black" stroke-linecap="round" stroke-linejoin="round" stroke-width="2.5"/>
    <path d="M 148.752 -151.535 L 148.752 -150.835" fill="none" stroke="black" stroke-linecap="round" stroke-linejoin="round" stroke-width="2.5"/>
    <path d="M 131.29 -72.795 L 131.29 -72.095" fill="none" stroke="black" stroke-linecap="round" stroke-linejoin="round" stroke-width="2.5"/>
    <path d="M 124.94 -75.335 L 124.94 -74.635" fill="none" stroke="black" stroke-linecap="round" stroke-linejoin="round" stroke-width="2.5"/>
    <path d="M 150.34 -72.795 L 150.34 -72.095" fill="none" stroke="black" stroke-linecap="round" stroke-linejoin="round" stroke-width="2.5"/>
    <path d="M 143.99 -75.335 L 143.99 -74.635" fill="none" stroke="black" stroke-linecap="round" stroke-linejoin="round" stroke-width="2.5"/>
    <path d="M 69.3775 -110.895 L 69.3775 -110.195" fill="none" stroke="black" stroke-linecap="round" stroke-linejoin="round" stroke-width="2.5"/>
    <path d="M 63.0275 -113.435 L 63.0275 -112.735" fill="none" stroke="black" stroke-linecap="round" stroke-linejoin="round" stroke-width="2.5"/>
    <path d="M 54.7725 -159.155 L 54.7725 -158.455" fill="none" stroke="black" stroke-linecap="round" stroke-linejoin="round" stroke-width="2.5"/>
    <path d="M 61.1225 -156.615 L 61.1225 -155.915" fill="none" stroke="black" stroke-linecap="round" stroke-linejoin="round" stroke-width="2.5"/>
    <path d="M 83.665 -91.845 L 83.665 -91.145" fill="none" stroke="black" stroke-linecap="round" stroke-linejoin="round" stroke-width="2.5"/>
    <path d="M 77.315 -94.385 L 77.315 -93.685" fill="none" stroke="black" stroke-linecap="round" stroke-linejoin="round" stroke-width="2.5"/>
    <circle cx="69.3775" cy="-100.5" r="0.3" fill="black"/>
    <circle cx="86.0463" cy="-142.397" r="0.3" fill="black"/>
    <circle cx="64.3743" cy="-85.5484" r="0.3" fill="black"/>
    <circle cx="82.3259" cy="-79.0387" r="0.3" fill="black"/>
    <circle cx="150.925" cy="-142.634" r="0.3" fill="black"/>
    <circle cx="134.723" cy="-124.441" r="0.3" fill="black"/>
    <circle cx="97.05" cy="-89.1791" r="0.3" fill="black"/>
    <circle cx="158.562" cy="-87.5756" r="0.3" fill="black"/>
    <circle cx="174.153" cy="-121.448" r="0.3" fill="black"/>
    <circle cx="77.5" cy="-66.0" r="0.3" fill="black"/>
    <circle cx="73.5" cy="-59.5" r="0.3" fill="black"/>
    <circle cx="155.102" cy="-121.448" r="0.3" fill="black"/>
    <circle cx="82.0" cy="-67.5" r="0.3" fill="black"/>
    <circle cx="93.1736" cy="-86.0472" r="0.3" fill="black"/>
    <circle cx="72.5" cy="-61.0" r="0.3" fill="black"/>
    <circle cx="173.461" cy="-144.583" r="0.3" fill="black"/>
    <circle cx="86.0" cy="-68.5" r="0.3" fill="black"/>
    <circle cx="96.457" cy="-82.7741" r="0.3" fill="black"/>
    <circle cx="79.5" cy="-65.5" r="0.3" fill="black"/>
    <circle cx="110.885" cy="-142.397" r="0.3" fill="black"/>
    <circle cx="87.3317" cy="-103.492" r="0.3" fill="black"/>
    <circle cx="90.65" cy="-70.3" r="0.3" fill="black"/>
    <circle cx="84.1414" cy="-60.1414" r="0.3" fill="black"/>
    <circle cx="87.0" cy="-62.0" r="0.3" fill="black"/>
    <circle cx="107.478" cy="-103.492" r="0.3" fill="black"/>
    <circle cx="134.723" cy="-144.562" r="0.3" fill="black"/>
    <circle cx="110.495" cy="-71.0" r="0.3" fill="black"/>
    <circle cx="101.0" cy="-71.0" r="0.3" fill="black"/>
    <circle cx="109.91" cy="-86.1037" r="0.3" fill="black"/>
    <circle cx="108.612" cy="-129.595" r="0.3" fill="black"/>
    <circle cx="111.8" cy="-125.3" r="0.3" fill="black"/>
    <circle cx="69.3625" cy="-127.434" r="0.3" fill="black"/>
    <circle cx="71.4625" cy="-129.205" r="0.3" fill="black"/>
    <circle cx="90.7545" cy="-127.917" r="0.3" fill="black"/>
    <circle cx="78.0429" cy="-131.603" r="0.3" fill="black"/>
    <circle cx="107.54" cy="-127.434" r="0.3" fill="black"/>
    <circle cx="129.817" cy="-70.9212" r="0.3" fill="black"/>
    <circle cx="159.216" cy="-70.9097" r="0.3" fill="black"/>
    <circle cx="112.511" cy="-74.6489" r="0.3" fill="black"/>
    <circle cx="180.647" cy="-70.9097" r="0.3" fill="black"/>
    <circle cx="117.055" cy="-73.5653" r="0.3" fill="black"/>
    <circle cx="148.79" cy="-70.9683" r="0.3" fill="black"/>
    <circle cx="98.5" cy="-67.5" r="0.3" fill="black"/>
    <circle cx="98.0" cy="-55.0" r="0.3" fill="black"/>
    <circle cx="137.688" cy="-70.9212" r="0.3" fill="black"/>
    <circle cx="98.7624" cy="-71.4811" r="0.3" fill="black"/>
    <circle cx="170.221" cy="-70.9683" r="0.3" fill="black"/>
    <circle cx="63.2081" cy="-88.5288" r="0.3" fill="black"/>
    <circle cx="60.75" cy="-67.5" r="0.3" fill="black"/>
    <circle cx="61.25" cy="-71.25" r="0.3" fill="black"/>
    <circle cx="58.1493" cy="-113.432" r="0.3" fill="black"/>
    <circle cx="59.9824" cy="-108.585" r="0.3" fill="black"/>
    <circle cx="61.0" cy="-54.5" r="0.3" fill="black"/>
    <circle cx="60.25" cy="-79.75" r="0.3" fill="black"/>
    <circle cx="76.0221" cy="-146.264" r="0.3" fill="black"/>
    <circle cx="78.8" cy="-63.45" r="0.3" fill="black"/>
    <circle cx="74.9655" cy="-148.676" r="0.3" fill="black"/>
    <circle cx="150.859" cy="-90.3681" r="0.3" fill="black"/>
    <circle cx="74.4807" cy="-89.7742" r="0.3" fill="black"/>
    <path d="M 69.5 -67.0 L 69.5 -70.0" fill="none" stroke="black" stroke-linecap="round" stroke-linejoin="round" stroke-width="0.25"/>
    <path d="M 63.43 -58.37 L 63.43 -61.8416" fill="none" stroke="black" stroke-linecap="round" stroke-linejoin="round" stroke-width="0.25"/>
    <path d="M 69.5 -70.0 L 64.3743 -75.981" fill="none" stroke="black" stroke-linecap="round" stroke-linejoin="round" stroke-width="0.25"/>
    <path d="M 64.615 -91.495 L 64.3743 -91.2543" fill="none" stroke="black" stroke-linecap="round" stroke-linejoin="round" stroke-width="0.25"/>
    <path d="M 86.0463 -142.397 L 86.0463 -148.645" fill="none" stroke="black" stroke-linecap="round" stroke-linejoin="round" stroke-width="0.25"/>
    <path d="M 64.3743 -91.2543 L 64.3743 -85.5484" fill="none" stroke="black" stroke-linecap="round" stroke-linejoin="round" stroke-width="0.25"/>
    <path d="M 78.9025 -129.595 L 86.0463 -136.739" fill="none" stroke="black" stroke-linecap="round" stroke-linejoin="round" stroke-width="0.25"/>
    <path d="M 63.43 -61.8416 L 69.5 -67.0" fill="none" stroke="black" stroke-linecap="round" stroke-linejoin="round" stroke-width="0.25"/>
    <path d="M 69.3775 -96.2575 L 64.615 -91.495" fill="none" stroke="black" stroke-linecap="round" stroke-linejoin="round" stroke-width="0.25"/>
    <path d="M 69.5 -70.0 L 74.0334 -72.445" fill="none" stroke="black" stroke-linecap="round" stroke-linejoin="round" stroke-width="0.25"/>
    <path d="M 64.3743 -85.5484 L 64.3743 -75.981" fill="none" stroke="black" stroke-linecap="round" stroke-linejoin="round" stroke-width="0.25"/>
    <path d="M 74.0334 -72.445 L 74.14 -72.445" fill="none" stroke="black" stroke-linecap="round" stroke-linejoin="round" stroke-width="0.25"/>
    <path d="M 69.3775 -100.5 L 69.3775 -96.2575" fill="none" stroke="black" stroke-linecap="round" stroke-linejoin="round" stroke-width="0.25"/>
    <path d="M 86.0463 -136.739 L 86.0463 -142.397" fill="none" stroke="black" stroke-linecap="round" stroke-linejoin="round" stroke-width="0.25"/>
    <path d="M 69.3775 -110.545 L 69.3775 -100.5" fill="none" stroke="black" stroke-linecap="round" stroke-linejoin="round" stroke-width="0.25"/>
    <path d="M 126.528 -96.2575 L 126.528 -110.545" fill="none" stroke="black" stroke-linecap="round" stroke-linejoin="round" stroke-width="0.25"/>
    <path d="M 131.968 -73.1227 L 131.968 -85.8316" fill="none" stroke="black" stroke-linecap="round" stroke-linejoin="round" stroke-width="0.25"/>
    <path d="M 82.3259 -69.6459 L 71.05 -58.37" fill="none" stroke="black" stroke-linecap="round" stroke-linejoin="round" stroke-width="0.25"/>
    <path d="M 131.29 -72.445 L 131.968 -73.1227" fill="none" stroke="black" stroke-linecap="round" stroke-linejoin="round" stroke-width="0.25"/>
    <path d="M 136.053 -125.77 L 136.053 -129.595" fill="none" stroke="black" stroke-linecap="round" stroke-linejoin="round" stroke-width="0.25"/>
    <path d="M 155.102 -148.645 L 150.925 -144.467 L 150.925 -142.634" fill="none" stroke="black" stroke-linecap="round" stroke-linejoin="round" stroke-width="0.25"/>
    <path d="M 124.035 -93.7646 L 126.528 -96.2575" fill="none" stroke="black" stroke-linecap="round" stroke-linejoin="round" stroke-width="0.25"/>
    <path d="M 131.968 -85.8316 L 124.035 -93.7646" fill="none" stroke="black" stroke-linecap="round" stroke-linejoin="round" stroke-width="0.25"/>
    <path d="M 82.3259 -79.0387 L 82.3259 -69.6459" fill="none" stroke="black" stroke-linecap="round" stroke-linejoin="round" stroke-width="0.25"/>
    <path d="M 134.723 -124.441 L 136.053 -125.77" fill="none" stroke="black" stroke-linecap="round" stroke-linejoin="round" stroke-width="0.25"/>
    <path d="M 121.765 -91.495 L 124.035 -93.7646" fill="none" stroke="black" stroke-linecap="round" stroke-linejoin="round" stroke-width="0.25"/>
    <path d="M 159.865 -88.8789 L 159.865 -91.495" fill="none" stroke="black" stroke-linecap="round" stroke-linejoin="round" stroke-width="0.25"/>
    <path d="M 77.7745 -59.6757 L 85.0 -65.0" fill="none" stroke="black" stroke-linecap="round" stroke-linejoin="round" stroke-width="0.25"/>
    <path d="M 174.153 -115.308 L 169.39 -110.545" fill="none" stroke="black" stroke-linecap="round" stroke-linejoin="round" stroke-width="0.25"/>
    <path d="M 174.153 -121.448 L 174.153 -115.308" fill="none" stroke="black" stroke-linecap="round" stroke-linejoin="round" stroke-width="0.25"/>
    <path d="M 97.05 -89.1791 L 94.1212 -86.4744" fill="none" stroke="black" stroke-linecap="round" stroke-linejoin="round" stroke-width="0.25"/>
    <path d="M 85.0 -65.0 L 91.9324 -73.934" fill="none" stroke="black" stroke-linecap="round" stroke-linejoin="round" stroke-width="0.25"/>
    <path d="M 94.1212 -86.4744 L 94.1212 -76.3612" fill="none" stroke="black" stroke-linecap="round" stroke-linejoin="round" stroke-width="0.25"/>
    <path d="M 91.9324 -73.934 L 94.1212 -76.3612" fill="none" stroke="black" stroke-linecap="round" stroke-linejoin="round" stroke-width="0.25"/>
    <path d="M 76.13 -58.37 L 77.7745 -59.6757" fill="none" stroke="black" stroke-linecap="round" stroke-linejoin="round" stroke-width="0.25"/>
    <path d="M 174.153 -129.595 L 174.153 -121.448" fill="none" stroke="black" stroke-linecap="round" stroke-linejoin="round" stroke-width="0.25"/>
    <path d="M 158.562 -87.5756 L 159.865 -88.8789" fill="none" stroke="black" stroke-linecap="round" stroke-linejoin="round" stroke-width="0.25"/>
    <path d="M 174.153 -145.275 L 174.153 -148.645" fill="none" stroke="black" stroke-linecap="round" stroke-linejoin="round" stroke-width="0.25"/>
    <path d="M 155.102 -121.448 L 155.102 -129.595" fill="none" stroke="black" stroke-linecap="round" stroke-linejoin="round" stroke-width="0.25"/>
    <path d="M 83.162 -81.9398 L 87.2694 -86.0472 L 93.1736 -86.0472" fill="none" stroke="black" stroke-linecap="round" stroke-linejoin="round" stroke-width="0.25"/>
    <path d="M 145.577 -108.966 L 145.577 -110.545" fill="none" stroke="black" stroke-linecap="round" stroke-linejoin="round" stroke-width="0.25"/>
    <path d="M 145.577 -108.966 L 148.746 -108.966" fill="none" stroke="black" stroke-linecap="round" stroke-linejoin="round" stroke-width="0.25"/>
    <path d="M 145.577 -96.2575 L 145.577 -108.966" fill="none" stroke="black" stroke-linecap="round" stroke-linejoin="round" stroke-width="0.25"/>
    <path d="M 73.59 -58.37 L 73.5 -59.5" fill="none" stroke="black" stroke-linecap="round" stroke-linejoin="round" stroke-width="0.25"/>
    <path d="M 72.5 -61.0 L 77.5 -66.0" fill="none" stroke="black" stroke-linecap="round" stroke-linejoin="round" stroke-width="0.25"/>
    <path d="M 82.0 -67.5 L 83.162 -67.942" fill="none" stroke="black" stroke-linecap="round" stroke-linejoin="round" stroke-width="0.25"/>
    <path d="M 148.746 -108.966 L 155.102 -115.322" fill="none" stroke="black" stroke-linecap="round" stroke-linejoin="round" stroke-width="0.25"/>
    <path d="M 83.162 -67.942 L 83.162 -81.9398" fill="none" stroke="black" stroke-linecap="round" stroke-linejoin="round" stroke-width="0.25"/>
    <path d="M 140.815 -91.495 L 145.577 -96.2575" fill="none" stroke="black" stroke-linecap="round" stroke-linejoin="round" stroke-width="0.25"/>
    <path d="M 155.102 -115.322 L 155.102 -121.448" fill="none" stroke="black" stroke-linecap="round" stroke-linejoin="round" stroke-width="0.25"/>
    <path d="M 173.461 -144.583 L 174.153 -145.275" fill="none" stroke="black" stroke-linecap="round" stroke-linejoin="round" stroke-width="0.25"/>
    <path d="M 114.621 -148.645 L 110.885 -144.909 L 110.885 -142.397" fill="none" stroke="black" stroke-linecap="round" stroke-linejoin="round" stroke-width="0.25"/>
    <path d="M 83.0 -65.5 L 86.0 -68.5" fill="none" stroke="black" stroke-linecap="round" stroke-linejoin="round" stroke-width="0.25"/>
    <path d="M 97.285 -81.9461 L 96.457 -82.7741" fill="none" stroke="black" stroke-linecap="round" stroke-linejoin="round" stroke-width="0.25"/>
    <path d="M 88.4275 -104.588 L 87.3317 -103.492 L 84.6248 -100.785" fill="none" stroke="black" stroke-linecap="round" stroke-linejoin="round" stroke-width="0.25"/>
    <path d="M 79.5 -65.5 L 83.0 -65.5" fill="none" stroke="black" stroke-linecap="round" stroke-linejoin="round" stroke-width="0.25"/>
    <path d="M 84.6248 -100.785 L 84.6248 -92.4548" fill="none" stroke="black" stroke-linecap="round" stroke-linejoin="round" stroke-width="0.25"/>
    <path d="M 93.19 -72.445 L 97.285 -76.54" fill="none" stroke="black" stroke-linecap="round" stroke-linejoin="round" stroke-width="0.25"/>
    <path d="M 84.6248 -92.4548 L 83.665 -91.495" fill="none" stroke="black" stroke-linecap="round" stroke-linejoin="round" stroke-width="0.25"/>
    <path d="M 90.65 -70.3 L 93.19 -72.445" fill="none" stroke="black" stroke-linecap="round" stroke-linejoin="round" stroke-width="0.25"/>
    <path d="M 97.285 -76.54 L 97.285 -81.9461" fill="none" stroke="black" stroke-linecap="round" stroke-linejoin="round" stroke-width="0.25"/>
    <path d="M 88.4275 -110.545 L 88.4275 -104.588" fill="none" stroke="black" stroke-linecap="round" stroke-linejoin="round" stroke-width="0.25"/>
    <path d="M 84.1414 -60.1414 L 87.0 -62.0" fill="none" stroke="black" stroke-linecap="round" stroke-linejoin="round" stroke-width="0.25"/>
    <path d="M 193.862 -111.205 L 193.862 -128.935" fill="none" stroke="black" stroke-linecap="round" stroke-linejoin="round" stroke-width="0.25"/>
    <path d="M 193.202 -110.545 L 193.862 -111.205" fill="none" stroke="black" stroke-linecap="round" stroke-linejoin="round" stroke-width="0.25"/>
    <path d="M 193.862 -128.935 L 193.202 -129.595" fill="none" stroke="black" stroke-linecap="round" stroke-linejoin="round" stroke-width="0.25"/>
    <path d="M 101.0 -71.0 L 110.495 -71.0" fill="none" stroke="black" stroke-linecap="round" stroke-linejoin="round" stroke-width="0.25"/>
    <path d="M 107.472 -92.9654 L 104.185 -92.9654" fill="none" stroke="black" stroke-linecap="round" stroke-linejoin="round" stroke-width="0.25"/>
    <path d="M 136.053 -145.891 L 134.723 -144.562" fill="none" stroke="black" stroke-linecap="round" stroke-linejoin="round" stroke-width="0.25"/>
    <path d="M 107.478 -110.545 L 107.478 -103.492" fill="none" stroke="black" stroke-linecap="round" stroke-linejoin="round" stroke-width="0.25"/>
    <path d="M 107.478 -92.971 L 107.472 -92.9654" fill="none" stroke="black" stroke-linecap="round" stroke-linejoin="round" stroke-width="0.25"/>
    <path d="M 107.472 -88.5418 L 109.91 -86.1037" fill="none" stroke="black" stroke-linecap="round" stroke-linejoin="round" stroke-width="0.25"/>
    <path d="M 104.185 -92.9654 L 102.715 -91.495" fill="none" stroke="black" stroke-linecap="round" stroke-linejoin="round" stroke-width="0.25"/>
    <path d="M 107.478 -103.492 L 107.478 -92.971" fill="none" stroke="black" stroke-linecap="round" stroke-linejoin="round" stroke-width="0.25"/>
    <path d="M 136.053 -148.645 L 136.053 -145.891" fill="none" stroke="black" stroke-linecap="round" stroke-linejoin="round" stroke-width="0.25"/>
    <path d="M 108.612 -129.595 L 111.8 -125.3" fill="none" stroke="black" stroke-linecap="round" stroke-linejoin="round" stroke-width="0.25"/>
    <path d="M 107.472 -92.9654 L 107.472 -88.5418" fill="none" stroke="black" stroke-linecap="round" stroke-linejoin="round" stroke-width="0.25"/>
    <path d="M 94.3 -59.4 L 94.3 -63.45" fill="none" stroke="black" stroke-linecap="round" stroke-linejoin="round" stroke-width="0.75"/>
    <path d="M 98.8 -56.0 L 91.37 -58.37" fill="none" stroke="black" stroke-linecap="round" stroke-linejoin="round" stroke-width="0.75"/>
    <path d="M 98.8 -63.45 L 98.8 -56.0" fill="none" stroke="black" stroke-linecap="round" stroke-linejoin="round" stroke-width="0.75"/>
    <path d="M 96.84 -63.45 L 98.8 -63.45" fill="none" stroke="black" stroke-linecap="round" stroke-linejoin="round" stroke-width="0.75"/>
    <path d="M 69.3625 -128.945 L 69.3625 -127.434" fill="none" stroke="black" stroke-linecap="round" stroke-linejoin="round" stroke-width="0.25"/>
    <path d="M 72.5525 -132.135 L 69.3625 -128.945" fill="none" stroke="black" stroke-linecap="round" stroke-linejoin="round" stroke-width="0.25"/>
    <path d="M 92.5 -54.2 L 100.2 -54.2" fill="none" stroke="black" stroke-linecap="round" stroke-linejoin="round" stroke-width="0.25"/>
    <path d="M 91.7219 -54.177 L 90.4951 -54.177" fill="none" stroke="black" stroke-linecap="round" stroke-linejoin="round" stroke-width="0.25"/>
    <path d="M 91.7219 -54.177 L 92.5 -54.2" fill="none" stroke="black" stroke-linecap="round" stroke-linejoin="round" stroke-width="0.25"/>
    <path d="M 100.2 -91.6911 L 100.459 -91.6911" fill="none" stroke="black" stroke-linecap="round" stroke-linejoin="round" stroke-width="0.25"/>
    <path d="M 108.143 -126.831 L 108.143 -114.01" fill="none" stroke="black" stroke-linecap="round" stroke-linejoin="round" stroke-width="0.25"/>
    <path d="M 100.2 -62.6551 L 100.2 -91.6911" fill="none" stroke="black" stroke-linecap="round" stroke-linejoin="round" stroke-width="0.25"/>
    <path d="M 71.4625 -129.205 L 78.0429 -131.603" fill="none" stroke="black" stroke-linecap="round" stroke-linejoin="round" stroke-width="0.25"/>
    <path d="M 107.057 -127.917 L 107.54 -127.434" fill="none" stroke="black" stroke-linecap="round" stroke-linejoin="round" stroke-width="0.25"/>
    <path d="M 98.1348 -127.558 L 107.057 -127.917" fill="none" stroke="black" stroke-linecap="round" stroke-linejoin="round" stroke-width="0.25"/>
    <path d="M 103.691 -94.9224 L 101.576 -93.1028" fill="none" stroke="black" stroke-linecap="round" stroke-linejoin="round" stroke-width="0.25"/>
    <path d="M 90.4951 -54.177 L 81.21 -44.8919" fill="none" stroke="black" stroke-linecap="round" stroke-linejoin="round" stroke-width="0.25"/>
    <path d="M 101.576 -93.1028 L 101.393 -92.9089" fill="none" stroke="black" stroke-linecap="round" stroke-linejoin="round" stroke-width="0.25"/>
    <path d="M 108.143 -114.01 L 103.691 -109.558" fill="none" stroke="black" stroke-linecap="round" stroke-linejoin="round" stroke-width="0.25"/>
    <path d="M 101.393 -92.9089 L 100.459 -91.6911" fill="none" stroke="black" stroke-linecap="round" stroke-linejoin="round" stroke-width="0.25"/>
    <path d="M 90.7545 -127.917 L 97.8684 -127.55" fill="none" stroke="black" stroke-linecap="round" stroke-linejoin="round" stroke-width="0.25"/>
    <path d="M 81.21 -44.8919 L 81.21 -43.13" fill="none" stroke="black" stroke-linecap="round" stroke-linejoin="round" stroke-width="0.25"/>
    <path d="M 97.8684 -127.55 L 98.1348 -127.558" fill="none" stroke="black" stroke-linecap="round" stroke-linejoin="round" stroke-width="0.25"/>
    <path d="M 103.691 -109.558 L 103.691 -94.9224" fill="none" stroke="black" stroke-linecap="round" stroke-linejoin="round" stroke-width="0.25"/>
    <path d="M 100.2 -54.2 L 100.2 -62.6551" fill="none" stroke="black" stroke-linecap="round" stroke-linejoin="round" stroke-width="0.25"/>
    <path d="M 107.54 -127.434 L 108.143 -126.831" fill="none" stroke="black" stroke-linecap="round" stroke-linejoin="round" stroke-width="0.25"/>
    <path d="M 78.67 -43.13 L 78.67 -43.2275" fill="none" stroke="black" stroke-linecap="round" stroke-linejoin="round" stroke-width="0.25"/>
    <path d="M 171.855 -70.4004 L 171.589 -70.4081" fill="none" stroke="black" stroke-linecap="round" stroke-linejoin="round" stroke-width="0.25"/>
    <path d="M 129.817 -70.9212 L 130.595 -70.547" fill="none" stroke="black" stroke-linecap="round" stroke-linejoin="round" stroke-width="0.25"/>
    <path d="M 90.3658 -54.9233 L 91.6389 -54.9233" fill="none" stroke="black" stroke-linecap="round" stroke-linejoin="round" stroke-width="0.25"/>
    <path d="M 116.242 -74.3783 L 112.511 -74.6489" fill="none" stroke="black" stroke-linecap="round" stroke-linejoin="round" stroke-width="0.25"/>
    <path d="M 131.374 -70.4004 L 137.688 -70.9212" fill="none" stroke="black" stroke-linecap="round" stroke-linejoin="round" stroke-width="0.25"/>
    <path d="M 130.595 -70.547 L 130.846 -70.4574" fill="none" stroke="black" stroke-linecap="round" stroke-linejoin="round" stroke-width="0.25"/>
    <path d="M 171.327 -70.4574 L 171.077 -70.547" fill="none" stroke="black" stroke-linecap="round" stroke-linejoin="round" stroke-width="0.25"/>
    <path d="M 117.055 -73.5653 L 116.242 -74.3783" fill="none" stroke="black" stroke-linecap="round" stroke-linejoin="round" stroke-width="0.25"/>
    <path d="M 149.645 -70.547 L 148.79 -70.9683" fill="none" stroke="black" stroke-linecap="round" stroke-linejoin="round" stroke-width="0.25"/>
    <path d="M 150.158 -70.4081 L 149.896 -70.4574" fill="none" stroke="black" stroke-linecap="round" stroke-linejoin="round" stroke-width="0.25"/>
    <path d="M 150.424 -70.4004 L 150.158 -70.4081" fill="none" stroke="black" stroke-linecap="round" stroke-linejoin="round" stroke-width="0.25"/>
    <path d="M 171.589 -70.4081 L 171.327 -70.4574" fill="none" stroke="black" stroke-linecap="round" stroke-linejoin="round" stroke-width="0.25"/>
    <path d="M 91.6389 -54.9233 L 98.0 -55.0" fill="none" stroke="black" stroke-linecap="round" stroke-linejoin="round" stroke-width="0.25"/>
    <path d="M 180.647 -70.9097 L 171.855 -70.4004" fill="none" stroke="black" stroke-linecap="round" stroke-linejoin="round" stroke-width="0.25"/>
    <path d="M 98.5 -67.5 L 98.7624 -71.4811" fill="none" stroke="black" stroke-linecap="round" stroke-linejoin="round" stroke-width="0.25"/>
    <path d="M 159.216 -70.9097 L 150.424 -70.4004" fill="none" stroke="black" stroke-linecap="round" stroke-linejoin="round" stroke-width="0.25"/>
    <path d="M 171.077 -70.547 L 170.221 -70.9683" fill="none" stroke="black" stroke-linecap="round" stroke-linejoin="round" stroke-width="0.25"/>
    <path d="M 131.108 -70.4081 L 131.374 -70.4004" fill="none" stroke="black" stroke-linecap="round" stroke-linejoin="round" stroke-width="0.25"/>
    <path d="M 78.67 -43.2275 L 90.3658 -54.9233" fill="none" stroke="black" stroke-linecap="round" stroke-linejoin="round" stroke-width="0.25"/>
    <path d="M 149.896 -70.4574 L 149.645 -70.547" fill="none" stroke="black" stroke-linecap="round" stroke-linejoin="round" stroke-width="0.25"/>
    <path d="M 130.846 -70.4574 L 131.108 -70.4081" fill="none" stroke="black" stroke-linecap="round" stroke-linejoin="round" stroke-width="0.25"/>
    <path d="M 62.077 -57.183 L 76.13 -43.13" fill="none" stroke="black" stroke-linecap="round" stroke-linejoin="round" stroke-width="0.25"/>
    <path d="M 62.077 -87.3977 L 64.0 -69.25" fill="none" stroke="black" stroke-linecap="round" stroke-linejoin="round" stroke-width="0.25"/>
    <path d="M 63.2081 -88.5288 L 62.077 -87.3977" fill="none" stroke="black" stroke-linecap="round" stroke-linejoin="round" stroke-width="0.25"/>
    <path d="M 62.0 -59.25 L 62.077 -57.183" fill="none" stroke="black" stroke-linecap="round" stroke-linejoin="round" stroke-width="0.25"/>
    <path d="M 62.75 -61.25 L 62.0 -59.25" fill="none" stroke="black" stroke-linecap="round" stroke-linejoin="round" stroke-width="0.25"/>
    <path d="M 64.0 -69.25 L 62.75 -61.25" fill="none" stroke="black" stroke-linecap="round" stroke-linejoin="round" stroke-width="0.25"/>
    <path d="M 59.9824 -108.585 L 54.8836 -103.486" fill="none" stroke="black" stroke-linecap="round" stroke-linejoin="round" stroke-width="0.25"/>
    <path d="M 58.1493 -110.418 L 59.9824 -108.585" fill="none" stroke="black" stroke-linecap="round" stroke-linejoin="round" stroke-width="0.25"/>
    <path d="M 54.8836 -94.388 L 61.0903 -88.1813" fill="none" stroke="black" stroke-linecap="round" stroke-linejoin="round" stroke-width="0.25"/>
    <path d="M 60.75 -67.5 L 61.0903 -55.6297" fill="none" stroke="black" stroke-linecap="round" stroke-linejoin="round" stroke-width="0.25"/>
    <path d="M 58.1493 -113.432 L 58.1493 -110.418" fill="none" stroke="black" stroke-linecap="round" stroke-linejoin="round" stroke-width="0.25"/>
    <path d="M 54.8836 -103.486 L 54.8836 -94.388" fill="none" stroke="black" stroke-linecap="round" stroke-linejoin="round" stroke-width="0.25"/>
    <path d="M 61.0903 -88.1813 L 61.25 -71.25" fill="none" stroke="black" stroke-linecap="round" stroke-linejoin="round" stroke-width="0.25"/>
    <path d="M 61.0903 -55.6297 L 73.59 -43.13" fill="none" stroke="black" stroke-linecap="round" stroke-linejoin="round" stroke-width="0.25"/>
    <path d="M 54.3319 -86.2729 L 60.5386 -80.0662 L 60.25 -79.75" fill="none" stroke="black" stroke-linecap="round" stroke-linejoin="round" stroke-width="0.25"/>
    <path d="M 60.5386 -51.1014 L 68.51 -43.13" fill="none" stroke="black" stroke-linecap="round" stroke-linejoin="round" stroke-width="0.25"/>
    <path d="M 54.3319 -110.251 L 54.3319 -86.2729" fill="none" stroke="black" stroke-linecap="round" stroke-linejoin="round" stroke-width="0.25"/>
    <path d="M 67.9849 -133.304 L 57.265 -122.584" fill="none" stroke="black" stroke-linecap="round" stroke-linejoin="round" stroke-width="0.25"/>
    <path d="M 61.0 -54.5 L 60.5386 -51.1014" fill="none" stroke="black" stroke-linecap="round" stroke-linejoin="round" stroke-width="0.25"/>
    <path d="M 57.265 -122.584 L 57.265 -113.184" fill="none" stroke="black" stroke-linecap="round" stroke-linejoin="round" stroke-width="0.25"/>
    <path d="M 67.9849 -138.227 L 67.9849 -133.304" fill="none" stroke="black" stroke-linecap="round" stroke-linejoin="round" stroke-width="0.25"/>
    <path d="M 76.0221 -146.264 L 67.9849 -138.227" fill="none" stroke="black" stroke-linecap="round" stroke-linejoin="round" stroke-width="0.25"/>
    <path d="M 57.265 -113.184 L 54.3319 -110.251" fill="none" stroke="black" stroke-linecap="round" stroke-linejoin="round" stroke-width="0.25"/>
    <path d="M 57.3172 -81.816 L 57.4988 -81.6728" fill="none" stroke="black" stroke-linecap="round" stroke-linejoin="round" stroke-width="0.25"/>
    <path d="M 54.1126 -140.415 L 54.1126 -158.145 L 54.7725 -158.805" fill="none" stroke="black" stroke-linecap="round" stroke-linejoin="round" stroke-width="0.25"/>
    <path d="M 45.2475 -120.705 L 53.8127 -129.27" fill="none" stroke="black" stroke-linecap="round" stroke-linejoin="round" stroke-width="0.25"/>
    <path d="M 53.8127 -138.795 L 54.7725 -139.755" fill="none" stroke="black" stroke-linecap="round" stroke-linejoin="round" stroke-width="0.25"/>
    <path d="M 57.6178 -81.5538 L 59.9869 -78.8363" fill="none" stroke="black" stroke-linecap="round" stroke-linejoin="round" stroke-width="0.25"/>
    <path d="M 59.9869 -46.5731 L 63.43 -43.13" fill="none" stroke="black" stroke-linecap="round" stroke-linejoin="round" stroke-width="0.25"/>
    <path d="M 40.485 -115.942 L 45.2475 -120.705" fill="none" stroke="black" stroke-linecap="round" stroke-linejoin="round" stroke-width="0.25"/>
    <path d="M 56.2182 -82.605 L 57.3172 -81.816" fill="none" stroke="black" stroke-linecap="round" stroke-linejoin="round" stroke-width="0.25"/>
    <path d="M 50.01 -82.605 L 56.2182 -82.605" fill="none" stroke="black" stroke-linecap="round" stroke-linejoin="round" stroke-width="0.25"/>
    <path d="M 59.9869 -78.8363 L 59.9869 -46.5731" fill="none" stroke="black" stroke-linecap="round" stroke-linejoin="round" stroke-width="0.25"/>
    <path d="M 53.8127 -129.27 L 53.8127 -138.795" fill="none" stroke="black" stroke-linecap="round" stroke-linejoin="round" stroke-width="0.25"/>
    <path d="M 40.485 -101.655 L 40.485 -115.942" fill="none" stroke="black" stroke-linecap="round" stroke-linejoin="round" stroke-width="0.25"/>
    <path d="M 54.7725 -139.755 L 54.1126 -140.415" fill="none" stroke="black" stroke-linecap="round" stroke-linejoin="round" stroke-width="0.25"/>
    <path d="M 57.4988 -81.6728 L 57.6178 -81.5538" fill="none" stroke="black" stroke-linecap="round" stroke-linejoin="round" stroke-width="0.25"/>
    <path d="M 80.175 -63.45 L 78.8 -63.45" fill="none" stroke="black" stroke-linecap="round" stroke-linejoin="round" stroke-width="0.25"/>
    <path d="M 87.925 -61.0 L 86.29 -58.37" fill="none" stroke="black" stroke-linecap="round" stroke-linejoin="round" stroke-width="0.25"/>
    <path d="M 87.925 -63.45 L 87.925 -61.0" fill="none" stroke="black" stroke-linecap="round" stroke-linejoin="round" stroke-width="0.25"/>
    <path d="M 79.6963 -151.185 L 77.4749 -151.185 L 74.9655 -148.676" fill="none" stroke="black" stroke-linecap="round" stroke-linejoin="round" stroke-width="0.25"/>
    <path d="M 153.515 -93.0237 L 150.859 -90.3681" fill="none" stroke="black" stroke-linecap="round" stroke-linejoin="round" stroke-width="0.25"/>
    <path d="M 153.515 -94.035 L 153.515 -93.0237" fill="none" stroke="black" stroke-linecap="round" stroke-linejoin="round" stroke-width="0.25"/>
    <path d="M 74.4807 -91.2007 L 74.4807 -89.7742" fill="none" stroke="black" stroke-linecap="round" stroke-linejoin="round" stroke-width="0.25"/>
    <path d="M 77.315 -94.035 L 74.4807 -91.2007" fill="none" stroke="black" stroke-linecap="round" stroke-linejoin="round" stroke-width="0.25"/>
  </g>
</svg>