<?xml version="1.0" encoding="utf-8"?>
<svg width="165.78750000000002mm" height="124.60000000000001mm" viewBox="33.95 -162.8 165.78750000000002 124.60000000000001" style="background-color:white" xmlns="http://www.w3.org/2000/svg" xmlns:xlink="http://www.w3.org/1999/xlink">
  <g transform="translate(33.95 -38.2) scale(1 -1) translate(-33.95 162.8)">
    <circle cx="66.52" cy="-77.525" r="0.85" fill="black"/>
    <circle cx="66.6" cy="-81.325" r="1.5" fill="black"/>
    <circle cx="71.6" cy="-77.525" r="2.5" fill="black"/>
    <circle cx="71.6" cy="-83.425" r="1.5" fill="black"/>
    <circle cx="76.6" cy="-72.375" r="0.825" fill="black"/>
    <circle cx="76.68" cy="-77.525" r="0.85" fill="black"/>
    <path d="M 74.14 -72.795 L 74.14 -72.095" fill="none" stroke="black" stroke-linecap="round" stroke-linejoin="round" stroke-width="2.5"/>
    <path d="M 67.79 -75.335 L 67.79 -74.635" fill="none" stroke="black" stroke-linecap="round" stroke-linejoin="round" stroke-width="2.5"/>
    <path d="M 91.5 -50.75 L 92.9 -50.75" fill="none" stroke="black" stroke-linecap="round" stroke-linejoin="round" stroke-width="2.2"/>
    <circle cx="128.433" cy="-134.675" r="0.85" fill="black"/>
    <circle cx="128.512" cy="-138.475" r="1.5" fill="black"/>
    <circle cx="133.512" cy="-134.675" r="2.5" fill="black"/>
    <circle cx="133.512" cy="-140.575" r="1.5" fill="black"/>
    <circle cx="138.512" cy="-129.525" r="0.825" fill="black"/>
    <circle cx="138.593" cy="-134.675" r="0.85" fill="black"/>
    <path d="M 136.053 -129.945 L 136.053 -129.245" fill="none" stroke="black" stroke-linecap="round" stroke-linejoin="round" stroke-width="2.5"/>
    <path d="M 129.702 -132.485 L 129.702 -131.785" fill="none" stroke="black" stroke-linecap="round" stroke-linejoin="round" stroke-width="2.5"/>
    <circle cx="185.583" cy="-153.725" r="0.85" fill="black"/>
    <circle cx="185.662" cy="-157.525" r="1.5" fill="black"/>
    <circle cx="190.662" cy="-153.725" r="2.5" fill="black"/>
    <circle cx="190.662" cy="-159.625" r="1.5" fill="black"/>
    <circle cx="195.662" cy="-148.575" r="0.825" fill="black"/>
    <circle cx="195.743" cy="-153.725" r="0.85" fill="black"/>
    <path d="M 193.202 -148.995 L 193.202 -148.295" fill="none" stroke="black" stroke-linecap="round" stroke-linejoin="round" stroke-width="2.5"/>
    <path d="M 186.852 -151.535 L 186.852 -150.835" fill="none" stroke="black" stroke-linecap="round" stroke-linejoin="round" stroke-width="2.5"/>
    <circle cx="133.195" cy="-96.575" r="0.85" fill="black"/>
    <circle cx="133.275" cy="-100.375" r="1.5" fill="black"/>
    <circle cx="138.275" cy="-96.575" r="2.5" fill="black"/>
    <circle cx="138.275" cy="-102.475" r="1.5" fill="black"/>
    <circle cx="143.275" cy="-91.425" r="0.825" fill="black"/>
    <circle cx="143.355" cy="-96.575" r="0.85" fill="black"/>
    <path d="M 140.815 -91.845 L 140.815 -91.145" fill="none" stroke="black" stroke-linecap="round" stroke-linejoin="round" stroke-width="2.5"/>
    <path d="M 134.465 -94.385 L 134.465 -93.685" fill="none" stroke="black" stroke-linecap="round" stroke-linejoin="round" stroke-width="2.5"/>
    <circle cx="85.57" cy="-77.525" r="0.85" fill="black"/>
    <circle cx="85.65" cy="-81.325" r="1.5" fill="black"/>
    <circle cx="90.65" cy="-77.525" r="2.5" fill="black"/>
    <circle cx="90.65" cy="-83.425" r="1.5" fill="black"/>
    <circle cx="95.65" cy="-72.375" r="0.825" fill="black"/>
    <circle cx="95.73" cy="-77.525" r="0.85" fill="black"/>
    <path d="M 93.19 -72.795 L 93.19 -72.095" fill="none" stroke="black" stroke-linecap="round" stroke-linejoin="round" stroke-width="2.5"/>
    <path d="M 86.84 -75.335 L 86.84 -74.635" fill="none" stroke="black" stroke-linecap="round" stroke-linejoin="round" stroke-width="2.5"/>
    <circle cx="147.482" cy="-134.675" r="0.85" fill="black"/>
    <circle cx="147.562" cy="-138.475" r="1.5" fill="black"/>
    <circle cx="152.562" cy="-134.675" r="2.5" fill="black"/>
    <circle cx="152.562" cy="-140.575" r="1.5" fill="black"/>
    <circle cx="157.562" cy="-129.525" r="0.825" fill="black"/>
    <circle cx="157.643" cy="-134.675" r="0.85" fill="black"/>
    <path d="M 155.102 -129.945 L 155.102 -129.245" fill="none" stroke="black" stroke-linecap="round" stroke-linejoin="round" stroke-width="2.5"/>
    <path d="M 148.752 -132.485 L 148.752 -131.785" fill="none" stroke="black" stroke-linecap="round" stroke-linejoin="round" stroke-width="2.5"/>
    <circle cx="185.583" cy="-115.625" r="0.85" fill="black"/>
    <circle cx="185.662" cy="-119.425" r="1.5" fill="black"/>
    <circle cx="190.662" cy="-115.625" r="2.5" fill="black"/>
    <circle cx="190.662" cy="-121.525" r="1.5" fill="black"/>
    <circle cx="195.662" cy="-110.475" r="0.825" fill="black"/>
    <circle cx="195.743" cy="-115.625" r="0.85" fill="black"/>
    <path d="M 193.202 -110.895 L 193.202 -110.195" fill="none" stroke="black" stroke-linecap="round" stroke-linejoin="round" stroke-width="2.5"/>
    <path d="M 186.852 -113.435 L 186.852 -112.735" fill="none" stroke="black" stroke-linecap="round" stroke-linejoin="round" stroke-width="2.5"/>
    <circle cx="161.77" cy="-115.625" r="0.85" fill="black"/>
    <circle cx="161.85" cy="-119.425" r="1.5" fill="black"/>
    <circle cx="166.85" cy="-115.625" r="2.5" fill="black"/>
    <circle cx="166.85" cy="-121.525" r="1.5" fill="black"/>
    <circle cx="171.85" cy="-110.475" r="0.825" fill="black"/>
    <circle cx="171.93" cy="-115.625" r="0.85" fill="black"/>
    <path d="M 169.39 -110.895 L 169.39 -110.195" fill="none" stroke="black" stroke-linecap="round" stroke-linejoin="round" stroke-width="2.5"/>
    <path d="M 163.04 -113.435 L 163.04 -112.735" fill="none" stroke="black" stroke-linecap="round" stroke-linejoin="round" stroke-width="2.5"/>
    <circle cx="185.583" cy="-77.525" r="0.85" fill="black"/>
    <circle cx="185.662" cy="-81.325" r="1.5" fill="black"/>
    <circle cx="190.662" cy="-77.525" r="2.5" fill="black"/>
    <circle cx="190.662" cy="-83.425" r="1.5" fill="black"/>
    <circle cx="195.662" cy="-72.375" r="0.825" fill="black"/>
    <circle cx="195.743" cy="-77.525" r="0.85" fill="black"/>
    <path d="M 193.202 -72.795 L 193.202 -72.095" fill="none" stroke="black" stroke-linecap="round" stroke-linejoin="round" stroke-width="2.5"/>
    <path d="M 186.852 -75.335 L 186.852 -74.635" fill="none" stroke="black" stroke-linecap="round" stroke-linejoin="round" stroke-width="2.5"/>
    <circle cx="155.938" cy="-112.5" r="0.8" fill="black"/>
    <circle cx="109.382" cy="-134.675" r="0.85" fill="black"/>
    <circle cx="109.463" cy="-138.475" r="1.5" fill="black"/>
    <circle cx="114.463" cy="-134.675" r="2.5" fill="black"/>
    <circle cx="114.463" cy="-140.575" r="1.5" fill="black"/>
    <circle cx="119.463" cy="-129.525" r="0.825" fill="black"/>
    <circle cx="119.543" cy="-134.675" r="0.85" fill="black"/>
    <path d="M 117.002 -129.945 L 117.002 -129.245" fill="none" stroke="black" stroke-linecap="round" stroke-linejoin="round" stroke-width="2.5"/>
    <path d="M 110.653 -132.485 L 110.653 -131.785" fill="none" stroke="black" stroke-linecap="round" stroke-linejoin="round" stroke-width="2.5"/>
    <circle cx="99.8575" cy="-115.625" r="0.85" fill="black"/>
    <circle cx="99.9375" cy="-119.425" r="1.5" fill="black"/>
    <circle cx="104.938" cy="-115.625" r="2.5" fill="black"/>
    <circle cx="104.938" cy="-121.525" r="1.5" fill="black"/>
    <circle cx="109.938" cy="-110.475" r="0.825" fill="black"/>
    <circle cx="110.017" cy="-115.625" r="0.85" fill="black"/>
    <path d="M 107.478 -110.895 L 107.478 -110.195" fill="none" stroke="black" stroke-linecap="round" stroke-linejoin="round" stroke-width="2.5"/>
    <path d="M 101.127 -113.435 L 101.127 -112.735" fill="none" stroke="black" stroke-linecap="round" stroke-linejoin="round" stroke-width="2.5"/>
    <circle cx="104.62" cy="-77.525" r="0.85" fill="black"/>
    <circle cx="104.7" cy="-81.325" r="1.5" fill="black"/>
    <circle cx="109.7" cy="-77.525" r="2.5" fill="black"/>
    <circle cx="109.7" cy="-83.425" r="1.5" fill="black"/>
    <circle cx="114.7" cy="-72.375" r="0.825" fill="black"/>
    <circle cx="114.78" cy="-77.525" r="0.85" fill="black"/>
    <path d="M 112.24 -72.795 L 112.24 -72.095" fill="none" stroke="black" stroke-linecap="round" stroke-linejoin="round" stroke-width="2.5"/>
    <path d="M 105.89 -75.335 L 105.89 -74.635" fill="none" stroke="black" stroke-linecap="round" stroke-linejoin="round" stroke-width="2.5"/>
    <circle cx="94.3" cy="-63.45" r="0.8" fill="black"/>
    <circle cx="96.84" cy="-63.45" r="0.8" fill="black"/>
    <circle cx="91.76" cy="-63.45" r="0.8" fill="black"/>
    <circle cx="95.095" cy="-96.575" r="0.85" fill="black"/>
    <circle cx="95.175" cy="-100.375" r="1.5" fill="black"/>
    <circle cx="100.175" cy="-96.575" r="2.5" fill="black"/>
    <circle cx="100.175" cy="-102.475" r="1.5" fill="black"/>
    <circle cx="105.175" cy="-91.425" r="0.825" fill="black"/>
    <circle cx="105.255" cy="-96.575" r="0.85" fill="black"/>
    <path d="M 102.715 -91.845 L 102.715 -91.145" fill="none" stroke="black" stroke-linecap="round" stroke-linejoin="round" stroke-width="2.5"/>
    <path d="M 96.365 -94.385 L 96.365 -93.685" fill="none" stroke="black" stroke-linecap="round" stroke-linejoin="round" stroke-width="2.5"/>
    <circle cx="118.907" cy="-115.625" r="0.85" fill="black"/>
    <circle cx="118.987" cy="-119.425" r="1.5" fill="black"/>
    <circle cx="123.987" cy="-115.625" r="2.5" fill="black"/>
    <circle cx="123.987" cy="-121.525" r="1.5" fill="black"/>
    <circle cx="128.988" cy="-110.475" r="0.825" fill="black"/>
    <circle cx="129.067" cy="-115.625" r="0.85" fill="black"/>
    <path d="M 126.528 -110.895 L 126.528 -110.195" fill="none" stroke="black" stroke-linecap="round" stroke-linejoin="round" stroke-width="2.5"/>
    <path d="M 120.177 -113.435 L 120.177 -112.735" fill="none" stroke="black" stroke-linecap="round" stroke-linejoin="round" stroke-width="2.5"/>
    <circle cx="128.433" cy="-153.725" r="0.85" fill="black"/>
    <circle cx="128.512" cy="-157.525" r="1.5" fill="black"/>
    <circle cx="133.512" cy="-153.725" r="2.5" fill="black"/>
    <circle cx="133.512" cy="-159.625" r="1.5" fill="black"/>
    <circle cx="138.512" cy="-148.575" r="0.825" fill="black"/>
    <circle cx="138.593" cy="-153.725" r="0.85" fill="black"/>
    <path d="M 136.053 -148.995 L 136.053 -148.295" fill="none" stroke="black" stroke-linecap="round" stroke-linejoin="round" stroke-width="2.5"/>
    <path d="M 129.702 -151.535 L 129.702 -150.835" fill="none" stroke="black" stroke-linecap="round" stroke-linejoin="round" stroke-width="2.5"/>
    <circle cx="97.6875" cy="-152.0" r="0.8" fill="black"/>
    <circle cx="166.532" cy="-153.725" r="0.85" fill="black"/>
    <circle cx="166.613" cy="-157.525" r="1.5" fill="black"/>
    <circle cx="171.613" cy="-153.725" r="2.5" fill="black"/>
    <circle cx="171.613" cy="-159.625" r="1.5" fill="black"/>
    <circle cx="176.613" cy="-148.575" r="0.825" fill="black"/>
    <circle cx="176.692" cy="-153.725" r="0.85" fill="black"/>
    <path d="M 174.153 -148.995 L 174.153 -148.295" fill="none" stroke="black" stroke-linecap="round" stroke-linejoin="round" stroke-width="2.5"/>
    <path d="M 167.803 -151.535 L 167.803 -150.835" fill="none" stroke="black" stroke-linecap="round" stroke-linejoin="round" stroke-width="2.5"/>
    <circle cx="71.2825" cy="-134.675" r="0.85" fill="black"/>
    <circle cx="71.3625" cy="-138.475" r="1.5" fill="black"/>
    <circle cx="76.3625" cy="-134.675" r="2.5" fill="black"/>
    <circle cx="76.3625" cy="-140.575" r="1.5" fill="black"/>
    <circle cx="81.3625" cy="-129.525" r="0.825" fill="black"/>
    <circle cx="81.4425" cy="-134.675" r="0.85" fill="black"/>
    <path d="M 78.9025 -129.945 L 78.9025 -129.245" fill="none" stroke="black" stroke-linecap="round" stroke-linejoin="round" stroke-width="2.5"/>
    <path d="M 72.5525 -132.485 L 72.5525 -131.785" fill="none" stroke="black" stroke-linecap="round" stroke-linejoin="round" stroke-width="2.5"/>
    <circle cx="56.995" cy="-96.575" r="0.85" fill="black"/>
    <circle cx="57.075" cy="-100.375" r="1.5" fill="black"/>
    <circle cx="62.075" cy="-96.575" r="2.5" fill="black"/>
    <circle cx="62.075" cy="-102.475" r="1.5" fill="black"/>
    <circle cx="67.075" cy="-91.425" r="0.825" fill="black"/>
    <circle cx="67.155" cy="-96.575" r="0.85" fill="black"/>
    <path d="M 64.615 -91.845 L 64.615 -91.145" fill="none" stroke="black" stroke-linecap="round" stroke-linejoin="round" stroke-width="2.5"/>
    <path d="M 58.265 -94.385 L 58.265 -93.685" fill="none" stroke="black" stroke-linecap="round" stroke-linejoin="round" stroke-width="2.5"/>
    <circle cx="177.75" cy="-117.25" r="0.8" fill="black"/>
    <path d="M 88.83 -43.43 L 88.83 -42.83" fill="none" stroke="black" stroke-linecap="round" stroke-linejoin="round" stroke-width="1.8"/>
    <path d="M 91.37 -43.43 L 91.37 -42.83" fill="none" stroke="black" stroke-linecap="round" stroke-linejoin="round" stroke-width="1.8"/>
    <path d="M 81.21 -43.43 L 81.21 -42.83" fill="none" stroke="black" stroke-linecap="round" stroke-linejoin="round" stroke-width="1.8"/>
    <path d="M 78.67 -43.43 L 78.67 -42.83" fill="none" stroke="black" stroke-linecap="round" stroke-linejoin="round" stroke-width="1.8"/>
    <path d="M 76.13 -43.43 L 76.13 -42.83" fill="none" stroke="black" stroke-linecap="round" stroke-linejoin="round" stroke-width="1.8"/>
    <path d="M 73.59 -43.43 L 73.59 -42.83" fill="none" stroke="black" stroke-linecap="round" stroke-linejoin="round" stroke-width="1.8"/>
    <path d="M 71.05 -43.43 L 71.05 -42.83" fill="none" stroke="black" stroke-linecap="round" stroke-linejoin="round" stroke-width="1.8"/>
    <path d="M 68.51 -43.43 L 68.51 -42.83" fill="none" stroke="black" stroke-linecap="round" stroke-linejoin="round" stroke-width="1.8"/>
    <path d="M 65.97 -43.43 L 65.97 -42.83" fill="none" stroke="black" stroke-linecap="round" stroke-linejoin="round" stroke-width="1.8"/>
    <path d="M 63.43 -43.43 L 63.43 -42.83" fill="none" stroke="black" stroke-linecap="round" stroke-linejoin="round" stroke-width="1.8"/>
    <path d="M 63.43 -58.67 L 63.43 -58.07" fill="none" stroke="black" stroke-linecap="round" stroke-linejoin="round" stroke-width="1.8"/>
    <path d="M 68.51 -58.67 L 68.51 -58.07" fill="none" stroke="black" stroke-linecap="round" stroke-linejoin="round" stroke-width="1.8"/>
    <path d="M 71.05 -58.67 L 71.05 -58.07" fill="none" stroke="black" stroke-linecap="round" stroke-linejoin="round" stroke-width="1.8"/>
    <path d="M 65.97 -58.67 L 65.97 -58.07" fill="none" stroke="black" stroke-linecap="round" stroke-linejoin="round" stroke-width="1.8"/>
    <path d="M 73.59 -58.67 L 73.59 -58.07" fill="none" stroke="black" stroke-linecap="round" stroke-linejoin="round" stroke-width="1.8"/>
    <path d="M 76.13 -58.67 L 76.13 -58.07" fill="none" stroke="black" stroke-linecap="round" stroke-linejoin="round" stroke-width="1.8"/>
    <path d="M 78.67 -58.67 L 78.67 -58.07" fill="none" stroke="black" stroke-linecap="round" stroke-linejoin="round" stroke-width="1.8"/>
    <path d="M 81.21 -58.67 L 81.21 -58.07" fill="none" stroke="black" stroke-linecap="round" stroke-linejoin="round" stroke-width="1.8"/>
    <path d="M 86.29 -43.43 L 86.29 -42.83" fill="none" stroke="black" stroke-linecap="round" stroke-linejoin="round" stroke-width="1.8"/>
    <path d="M 83.75 -43.43 L 83.75 -42.83" fill="none" stroke="black" stroke-linecap="round" stroke-linejoin="round" stroke-width="1.8"/>
    <path d="M 88.83 -58.67 L 88.83 -58.07" fill="none" stroke="black" stroke-linecap="round" stroke-linejoin="round" stroke-width="1.8"/>
    <path d="M 91.37 -58.67 L 91.37 -58.07" fill="none" stroke="black" stroke-linecap="round" stroke-linejoin="round" stroke-width="1.8"/>
    <path d="M 86.29 -58.67 L 86.29 -58.07" fill="none" stroke="black" stroke-linecap="round" stroke-linejoin="round" stroke-width="1.8"/>
    <path d="M 83.75 -58.67 L 83.75 -58.07" fill="none" stroke="black" stroke-linecap="round" stroke-linejoin="round" stroke-width="1.8"/>
    <circle cx="114.145" cy="-96.575" r="0.85" fill="black"/>
    <circle cx="114.225" cy="-100.375" r="1.5" fill="black"/>
    <circle cx="119.225" cy="-96.575" r="2.5" fill="black"/>
    <circle cx="119.225" cy="-102.475" r="1.5" fill="black"/>
    <circle cx="124.225" cy="-91.425" r="0.825" fill="black"/>
    <circle cx="124.305" cy="-96.575" r="0.85" fill="black"/>
    <path d="M 121.765 -91.845 L 121.765 -91.145" fill="none" stroke="black" stroke-linecap="round" stroke-linejoin="round" stroke-width="2.5"/>
    <path d="M 115.415 -94.385 L 115.415 -93.685" fill="none" stroke="black" stroke-linecap="round" stroke-linejoin="round" stroke-width="2.5"/>
    <circle cx="122.688" cy="-151.0" r="0.8" fill="black"/>
    <circle cx="78.4263" cy="-153.725" r="0.85" fill="black"/>
    <circle cx="78.5063" cy="-157.525" r="1.5" fill="black"/>
    <circle cx="83.5063" cy="-153.725" r="2.5" fill="black"/>
    <circle cx="83.5063" cy="-159.625" r="1.5" fill="black"/>
    <circle cx="88.5063" cy="-148.575" r="0.825" fill="black"/>
    <circle cx="88.5863" cy="-153.725" r="0.85" fill="black"/>
    <path d="M 86.0463 -148.995 L 86.0463 -148.295" fill="none" stroke="black" stroke-linecap="round" stroke-linejoin="round" stroke-width="2.5"/>
    <path d="M 79.6963 -151.535 L 79.6963 -150.835" fill="none" stroke="black" stroke-linecap="round" stroke-linejoin="round" stroke-width="2.5"/>
    <circle cx="57.63" cy="-77.525" r="0.85" fill="black"/>
    <circle cx="57.55" cy="-73.725" r="1.5" fill="black"/>
    <circle cx="52.55" cy="-77.525" r="2.5" fill="black"/>
    <circle cx="52.55" cy="-71.625" r="1.5" fill="black"/>
    <circle cx="47.55" cy="-82.675" r="0.825" fill="black"/>
    <circle cx="47.47" cy="-77.525" r="0.85" fill="black"/>
    <path d="M 50.01 -82.955 L 50.01 -82.255" fill="none" stroke="black" stroke-linecap="round" stroke-linejoin="round" stroke-width="2.5"/>
    <path d="M 56.36 -80.415 L 56.36 -79.715" fill="none" stroke="black" stroke-linecap="round" stroke-linejoin="round" stroke-width="2.5"/>
    <circle cx="137.958" cy="-115.625" r="0.85" fill="black"/>
    <circle cx="138.037" cy="-119.425" r="1.5" fill="black"/>
    <circle cx="143.037" cy="-115.625" r="2.5" fill="black"/>
    <circle cx="143.037" cy="-121.525" r="1.5" fill="black"/>
    <circle cx="148.037" cy="-110.475" r="0.825" fill="black"/>
    <circle cx="148.118" cy="-115.625" r="0.85" fill="black"/>
    <path d="M 145.577 -110.895 L 145.577 -110.195" fill="none" stroke="black" stroke-linecap="round" stroke-linejoin="round" stroke-width="2.5"/>
    <path d="M 139.227 -113.435 L 139.227 -112.735" fill="none" stroke="black" stroke-linecap="round" stroke-linejoin="round" stroke-width="2.5"/>
    <circle cx="52.8675" cy="-115.625" r="0.85" fill="black"/>
    <circle cx="52.7875" cy="-111.825" r="1.5" fill="black"/>
    <circle cx="47.7875" cy="-115.625" r="2.5" fill="black"/>
    <circle cx="47.7875" cy="-109.725" r="1.5" fill="black"/>
    <circle cx="42.7875" cy="-120.775" r="0.825" fill="black"/>
    <circle cx="42.7075" cy="-115.625" r="0.85" fill="black"/>
    <path d="M 45.2475 -121.055 L 45.2475 -120.355" fill="none" stroke="black" stroke-linecap="round" stroke-linejoin="round" stroke-width="2.5"/>
    <path d="M 51.5975 -118.515 L 51.5975 -117.815" fill="none" stroke="black" stroke-linecap="round" stroke-linejoin="round" stroke-width="2.5"/>
    <circle cx="107.001" cy="-153.725" r="0.85" fill="black"/>
    <circle cx="107.081" cy="-157.525" r="1.5" fill="black"/>
    <circle cx="112.081" cy="-153.725" r="2.5" fill="black"/>
    <circle cx="112.081" cy="-159.625" r="1.5" fill="black"/>
    <circle cx="117.081" cy="-148.575" r="0.825" fill="black"/>
    <circle cx="117.161" cy="-153.725" r="0.85" fill="black"/>
    <path d="M 114.621 -148.995 L 114.621 -148.295" fill="none" stroke="black" stroke-linecap="round" stroke-linejoin="round" stroke-width="2.5"/>
    <path d="M 108.271 -151.535 L 108.271 -150.835" fill="none" stroke="black" stroke-linecap="round" stroke-linejoin="round" stroke-width="2.5"/>
    <circle cx="194.438" cy="-98.75" r="0.8" fill="black"/>
    <circle cx="62.3925" cy="-134.675" r="0.85" fill="black"/>
    <circle cx="62.3125" cy="-130.875" r="1.5" fill="black"/>
    <circle cx="57.3125" cy="-134.675" r="2.5" fill="black"/>
    <circle cx="57.3125" cy="-128.775" r="1.5" fill="black"/>
    <circle cx="52.3125" cy="-139.825" r="0.825" fill="black"/>
    <circle cx="52.2325" cy="-134.675" r="0.85" fill="black"/>
    <path d="M 54.7725 -140.105 L 54.7725 -139.405" fill="none" stroke="black" stroke-linecap="round" stroke-linejoin="round" stroke-width="2.5"/>
    <path d="M 61.1225 -137.565 L 61.1225 -136.865" fill="none" stroke="black" stroke-linecap="round" stroke-linejoin="round" stroke-width="2.5"/>
    <circle cx="80.8075" cy="-115.625" r="0.85" fill="black"/>
    <circle cx="80.8875" cy="-119.425" r="1.5" fill="black"/>
    <circle cx="85.8875" cy="-115.625" r="2.5" fill="black"/>
    <circle cx="85.8875" cy="-121.525" r="1.5" fill="black"/>
    <circle cx="90.8875" cy="-110.475" r="0.825" fill="black"/>
    <circle cx="90.9675" cy="-115.625" r="0.85" fill="black"/>
    <path d="M 88.4275 -110.895 L 88.4275 -110.195" fill="none" stroke="black" stroke-linecap="round" stroke-linejoin="round" stroke-width="2.5"/>
    <path d="M 82.0775 -113.435 L 82.0775 -112.735" fill="none" stroke="black" stroke-linecap="round" stroke-linejoin="round" stroke-width="2.5"/>
    <circle cx="164.151" cy="-77.525" r="0.85" fill="black"/>
    <circle cx="164.231" cy="-81.325" r="1.5" fill="black"/>
    <circle cx="169.231" cy="-77.525" r="2.5" fill="black"/>
    <circle cx="169.231" cy="-83.425" r="1.5" fill="black"/>
    <circle cx="174.231" cy="-72.375" r="0.825" fill="black"/>
    <circle cx="174.311" cy="-77.525" r="0.85" fill="black"/>
    <path d="M 171.771 -72.795 L 171.771 -72.095" fill="none" stroke="black" stroke-linecap="round" stroke-linejoin="round" stroke-width="2.5"/>
    <path d="M 165.421 -75.335 L 165.421 -74.635" fill="none" stroke="black" stroke-linecap="round" stroke-linejoin="round" stroke-width="2.5"/>
    <circle cx="72.4375" cy="-67.0" r="0.8" fill="black"/>
    <circle cx="166.532" cy="-134.675" r="0.85" fill="black"/>
    <circle cx="166.613" cy="-138.475" r="1.5" fill="black"/>
    <circle cx="171.613" cy="-134.675" r="2.5" fill="black"/>
    <circle cx="171.613" cy="-140.575" r="1.5" fill="black"/>
    <circle cx="176.613" cy="-129.525" r="0.825" fill="black"/>
    <circle cx="176.692" cy="-134.675" r="0.85" fill="black"/>
    <path d="M 174.153 -129.945 L 174.153 -129.245" fill="none" stroke="black" stroke-linecap="round" stroke-linejoin="round" stroke-width="2.5"/>
    <path d="M 167.803 -132.485 L 167.803 -131.785" fill="none" stroke="black" stroke-linecap="round" stroke-linejoin="round" stroke-width="2.5"/>
    <circle cx="90.3325" cy="-134.675" r="0.85" fill="black"/>
    <circle cx="90.4125" cy="-138.475" r="1.5" fill="black"/>
    <circle cx="95.4125" cy="-134.675" r="2.5" fill="black"/>
    <circle cx="95.4125" cy="-140.575" r="1.5" fill="black"/>
    <circle cx="100.412" cy="-129.525" r="0.825" fill="black"/>
    <circle cx="100.493" cy="-134.675" r="0.85" fill="black"/>
    <path d="M 97.9525 -129.945 L 97.9525 -129.245" fill="none" stroke="black" stroke-linecap="round" stroke-linejoin="round" stroke-width="2.5"/>
    <path d="M 91.6025 -132.485 L 91.6025 -131.785" fill="none" stroke="black" stroke-linecap="round" stroke-linejoin="round" stroke-width="2.5"/>
    <path d="M 94.1 -59.4 L 94.5 -59.4" fill="none" stroke="black" stroke-linecap="round" stroke-linejoin="round" stroke-width="1.8"/>
    <path d="M 96.64 -59.4 L 97.04 -59.4" fill="none" stroke="black" stroke-linecap="round" stroke-linejoin="round" stroke-width="1.8"/>
    <circle cx="48.105" cy="-96.575" r="0.85" fill="black"/>
    <circle cx="48.025" cy="-92.775" r="1.5" fill="black"/>
    <circle cx="43.025" cy="-96.575" r="2.5" fill="black"/>
    <circle cx="43.025" cy="-90.675" r="1.5" fill="black"/>
    <circle cx="38.025" cy="-101.725" r="0.825" fill="black"/>
    <circle cx="37.945" cy="-96.575" r="0.85" fill="black"/>
    <path d="M 40.485 -102.005 L 40.485 -101.305" fill="none" stroke="black" stroke-linecap="round" stroke-linejoin="round" stroke-width="2.5"/>
    <path d="M 46.835 -99.465 L 46.835 -98.765" fill="none" stroke="black" stroke-linecap="round" stroke-linejoin="round" stroke-width="2.5"/>
    <circle cx="170.438" cy="-95.25" r="0.8" fill="black"/>
    <rect x="87.05" y="-63.95" width="1.75" height="1.0" fill="black"/>
    <rect x="79.3" y="-63.95" width="1.75" height="1.0" fill="black"/>
    <circle cx="70.1875" cy="-146.75" r="0.8" fill="black"/>
    <circle cx="178.439" cy="-96.575" r="0.85" fill="black"/>
    <circle cx="178.519" cy="-100.375" r="1.5" fill="black"/>
    <circle cx="183.519" cy="-96.575" r="2.5" fill="black"/>
    <circle cx="183.519" cy="-102.475" r="1.5" fill="black"/>
    <circle cx="188.519" cy="-91.425" r="0.825" fill="black"/>
    <circle cx="188.599" cy="-96.575" r="0.85" fill="black"/>
    <path d="M 186.059 -91.845 L 186.059 -91.145" fill="none" stroke="black" stroke-linecap="round" stroke-linejoin="round" stroke-width="2.5"/>
    <path d="M 179.709 -94.385 L 179.709 -93.685" fill="none" stroke="black" stroke-linecap="round" stroke-linejoin="round" stroke-width="2.5"/>
    <circle cx="185.583" cy="-134.675" r="0.85" fill="black"/>
    <circle cx="185.662" cy="-138.475" r="1.5" fill="black"/>
    <circle cx="190.662" cy="-134.675" r="2.5" fill="black"/>
    <circle cx="190.662" cy="-140.575" r="1.5" fill="black"/>
    <circle cx="195.662" cy="-129.525" r="0.825" fill="black"/>
    <circle cx="195.743" cy="-134.675" r="0.85" fill="black"/>
    <path d="M 193.202 -129.945 L 193.202 -129.245" fill="none" stroke="black" stroke-linecap="round" stroke-linejoin="round" stroke-width="2.5"/>
    <path d="M 186.852 -132.485 L 186.852 -131.785" fill="none" stroke="black" stroke-linecap="round" stroke-linejoin="round" stroke-width="2.5"/>
    <circle cx="152.245" cy="-96.575" r="0.85" fill="black"/>
    <circle cx="152.325" cy="-100.375" r="1.5" fill="black"/>
    <circle cx="157.325" cy="-96.575" r="2.5" fill="black"/>
    <circle cx="157.325" cy="-102.475" r="1.5" fill="black"/>
    <circle cx="162.325" cy="-91.425" r="0.825" fill="black"/>
    <circle cx="162.405" cy="-96.575" r="0.85" fill="black"/>
    <path d="M 159.865 -91.845 L 159.865 -91.145" fill="none" stroke="black" stroke-linecap="round" stroke-linejoin="round" stroke-width="2.5"/>
    <path d="M 153.515 -94.385 L 153.515 -93.685" fill="none" stroke="black" stroke-linecap="round" stroke-linejoin="round" stroke-width="2.5"/>
    <circle cx="147.482" cy="-153.725" r="0.85" fill="black"/>
    <circle cx="147.562" cy="-157.525" r="1.5" fill="black"/>
    <circle cx="152.562" cy="-153.725" r="2.5" fill="black"/>
    <circle cx="152.562" cy="-159.625" r="1.5" fill="black"/>
    <circle cx="157.562" cy="-148.575" r="0.825" fill="black"/>
    <circle cx="157.643" cy="-153.725" r="0.85" fill="black"/>
    <path d="M 155.102 -148.995 L 155.102 -148.295" fill="none" stroke="black" stroke-linecap="round" stroke-linejoin="round" stroke-width="2.5"/>
    <path d="M 148.752 -151.535 L 148.752 -150.835" fill="none" stroke="black" stroke-linecap="round" stroke-linejoin="round" stroke-width="2.5"/>
    <circle cx="123.67" cy="-77.525" r="0.85" fill="black"/>
    <circle cx="123.75" cy="-81.325" r="1.5" fill="black"/>
    <circle cx="128.75" cy="-77.525" r="2.5" fill="black"/>
    <circle cx="128.75" cy="-83.425" r="1.5" fill="black"/>
    <circle cx="133.75" cy="-72.375" r="0.825" fill="black"/>
    <circle cx="133.83" cy="-77.525" r="0.85" fill="black"/>
    <path d="M 131.29 -72.795 L 131.29 -72.095" fill="none" stroke="black" stroke-linecap="round" stroke-linejoin="round" stroke-width="2.5"/>
    <path d="M 124.94 -75.335 L 124.94 -74.635" fill="none" stroke="black" stroke-linecap="round" stroke-linejoin="round" stroke-width="2.5"/>
    <circle cx="142.72" cy="-77.525" r="0.85" fill="black"/>
    <circle cx="142.8" cy="-81.325" r="1.5" fill="black"/>
    <circle cx="147.8" cy="-77.525" r="2.5" fill="black"/>
    <circle cx="147.8" cy="-83.425" r="1.5" fill="black"/>
    <circle cx="152.8" cy="-72.375" r="0.825" fill="black"/>
    <circle cx="152.88" cy="-77.525" r="0.85" fill="black"/>
    <path d="M 150.34 -72.795 L 150.34 -72.095" fill="none" stroke="black" stroke-linecap="round" stroke-linejoin="round" stroke-width="2.5"/>
    <path d="M 143.99 -75.335 L 143.99 -74.635" fill="none" stroke="black" stroke-linecap="round" stroke-linejoin="round" stroke-width="2.5"/>
    <circle cx="61.7575" cy="-115.625" r="0.85" fill="black"/>
    <circle cx="61.8375" cy="-119.425" r="1.5" fill="black"/>
    <circle cx="66.8375" cy="-115.625" r="2.5" fill="black"/>
    <circle cx="66.8375" cy="-121.525" r="1.5" fill="black"/>
    <circle cx="71.8375" cy="-110.475" r="0.825" fill="black"/>
    <circle cx="71.9175" cy="-115.625" r="0.85" fill="black"/>
    <path d="M 69.3775 -110.895 L 69.3775 -110.195" fill="none" stroke="black" stroke-linecap="round" stroke-linejoin="round" stroke-width="2.5"/>
    <path d="M 63.0275 -113.435 L 63.0275 -112.735" fill="none" stroke="black" stroke-linecap="round" stroke-linejoin="round" stroke-width="2.5"/>
    <circle cx="97.1875" cy="-43.25" r="0.8" fill="black"/>
    <circle cx="62.3925" cy="-153.725" r="0.85" fill="black"/>
    <circle cx="62.3125" cy="-149.925" r="1.5" fill="black"/>
    <circle cx="57.3125" cy="-153.725" r="2.5" fill="black"/>
    <circle cx="57.3125" cy="-147.825" r="1.5" fill="black"/>
    <circle cx="52.3125" cy="-158.875" r="0.825" fill="black"/>
    <circle cx="52.2325" cy="-153.725" r="0.85" fill="black"/>
    <path d="M 54.7725 -159.155 L 54.7725 -158.455" fill="none" stroke="black" stroke-linecap="round" stroke-linejoin="round" stroke-width="2.5"/>
    <path d="M 61.1225 -156.615 L 61.1225 -155.915" fill="none" stroke="black" stroke-linecap="round" stroke-linejoin="round" stroke-width="2.5"/>
    <circle cx="76.045" cy="-96.575" r="0.85" fill="black"/>
    <circle cx="76.125" cy="-100.375" r="1.5" fill="black"/>
    <circle cx="81.125" cy="-96.575" r="2.5" fill="black"/>
    <circle cx="81.125" cy="-102.475" r="1.5" fill="black"/>
    <circle cx="86.125" cy="-91.425" r="0.825" fill="black"/>
    <circle cx="86.205" cy="-96.575" r="0.85" fill="black"/>
    <path d="M 83.665 -91.845 L 83.665 -91.145" fill="none" stroke="black" stroke-linecap="round" stroke-linejoin="round" stroke-width="2.5"/>
    <path d="M 77.315 -94.385 L 77.315 -93.685" fill="none" stroke="black" stroke-linecap="round" stroke-linejoin="round" stroke-width="2.5"/>
  </g>
</svg>