M48
; DRILL file KiCad 10.0.3 date 2026-06-08T15:47:59
; FORMAT={-:-/ absolute / metric / decimal}
; #@! TF.CreationDate,2026-06-08T15:47:59+09:00
; #@! TF.GenerationSoftware,Kicad,Pcbnew,10.0.3
; #@! TF.FileFunction,Plated,1,2,PTH
FMAT,2
METRIC
; #@! TA.AperFunction,Plated,PTH,ViaDrill
T1C0.300
; #@! TA.AperFunction,Plated,PTH,ComponentDrill
T2C0.950
; #@! TA.AperFunction,Plated,PTH,ComponentDrill
T3C1.270
%
G90
G05
T1
X66.165Y-59.917
X68.53Y-69.575
X70.224Y-104.714
X75.088Y-108.0
X75.098Y-144.981
X76.941Y-56.673
X78.809Y-116.777
X79.141Y-142.331
X81.053Y-87.825
X81.313Y-68.804
X83.846Y-122.019
X89.986Y-66.261
X92.858Y-86.325
X104.687Y-59.916
X108.636Y-104.668
X127.77Y-104.658
X131.142Y-83.701
X134.055Y-69.585
X135.114Y-121.727
X146.479Y-104.658
X146.559Y-63.46
X167.403Y-63.167
X188.246Y-63.166
X191.0Y-100.412
X194.675Y-124.512
T2
X68.53Y-40.11
X68.53Y-57.89
X71.07Y-40.11
X71.07Y-57.89
X73.61Y-40.11
X73.61Y-57.89
X76.15Y-40.11
X76.15Y-57.89
X78.69Y-40.11
X78.69Y-57.89
X81.23Y-40.11
X81.23Y-57.89
X83.77Y-40.11
X83.77Y-57.89
X86.31Y-40.11
X86.31Y-57.89
X88.85Y-40.11
X88.85Y-57.89
X91.39Y-40.11
X91.39Y-57.89
X93.93Y-40.11
X93.93Y-57.89
X96.47Y-40.11
X96.47Y-57.89
T3
X48.125Y-90.675
X52.887Y-109.725
X53.125Y-92.775
X57.65Y-71.625
X57.887Y-111.825
X62.412Y-128.775
X62.412Y-147.825
X62.65Y-73.725
X67.175Y-90.675
X67.412Y-130.875
X67.412Y-149.925
X71.938Y-109.725
X72.175Y-92.775
X76.7Y-71.625
X76.938Y-111.825
X81.462Y-128.775
X81.462Y-147.825
X81.7Y-73.725
X86.225Y-90.675
X86.462Y-130.875
X86.462Y-149.925
X90.987Y-109.725
X91.225Y-92.775
X95.75Y-71.625
X95.987Y-111.825
X100.512Y-128.775
X100.512Y-147.825
X100.75Y-73.725
X105.275Y-90.675
X105.512Y-130.875
X105.512Y-149.925
X110.037Y-109.725
X110.275Y-92.775
X114.8Y-71.625
X115.037Y-111.825
X119.562Y-128.775
X119.562Y-147.825
X119.8Y-73.725
X124.325Y-90.675
X124.562Y-130.875
X124.562Y-149.925
X129.088Y-109.725
X129.325Y-92.775
X133.85Y-71.625
X134.088Y-111.825
X138.612Y-128.775
X138.612Y-147.825
X138.85Y-73.725
X143.375Y-90.675
X143.612Y-130.875
X143.612Y-149.925
X148.137Y-109.725
X148.375Y-92.775
X152.9Y-71.625
X153.137Y-111.825
X157.662Y-128.775
X157.662Y-147.825
X157.9Y-73.725
X162.425Y-90.675
X162.662Y-130.875
X162.662Y-149.925
X167.188Y-109.725
X167.425Y-92.775
X171.95Y-71.625
X172.188Y-111.825
X176.713Y-128.775
X176.713Y-147.825
X176.95Y-73.725
X181.713Y-130.875
X181.713Y-149.925
X188.619Y-90.675
X191.0Y-109.725
X193.381Y-71.625
X193.619Y-92.775
X195.762Y-128.775
X195.762Y-147.825
X196.0Y-111.825
X198.381Y-73.725
X200.762Y-130.875
X200.762Y-149.925
X214.812Y-71.625
X214.812Y-90.675
X214.812Y-109.725
X214.812Y-128.775
X214.812Y-147.825
X219.812Y-73.725
X219.812Y-92.775
X219.812Y-111.825
X219.812Y-130.875
X219.812Y-149.925
M30
