%TF.GenerationSoftware,KiCad,Pcbnew,10.0.3*%
%TF.CreationDate,2026-06-08T15:47:45+09:00*%
%TF.ProjectId,kc2_right,6b63325f-7269-4676-9874-2e6b69636164,draft-1*%
%TF.SameCoordinates,Original*%
%TF.FileFunction,Soldermask,Top*%
%TF.FilePolarity,Negative*%
%FSLAX46Y46*%
G04 Gerber Fmt 4.6, Leading zero omitted, Abs format (unit mm)*
G04 Created by KiCad (PCBNEW 10.0.3) date 2026-06-08 15:47:45*
%MOMM*%
%LPD*%
G01*
G04 APERTURE LIST*
%ADD10C,3.000000*%
%ADD11O,3.600000X2.200000*%
%ADD12C,1.701800*%
%ADD13C,3.429000*%
%ADD14R,1.750000X1.000000*%
G04 APERTURE END LIST*
D10*
%TO.C,REG4*%
X54380000Y-127170000D03*
%TD*%
D11*
%TO.C,BAT_LEAD_SLOT1*%
X66629999Y-49000000D03*
%TD*%
D12*
%TO.C,SW18*%
X209312500Y-96575000D03*
D10*
X209812500Y-100375000D03*
D13*
X214812500Y-96575000D03*
D10*
X214812500Y-102475000D03*
D12*
X220312500Y-96575000D03*
%TD*%
%TO.C,SW10*%
X42625000Y-96575000D03*
D10*
X43125000Y-100375000D03*
D13*
X48125000Y-96575000D03*
D10*
X48125000Y-102475000D03*
D12*
X53625000Y-96575000D03*
%TD*%
%TO.C,SW16*%
X156925000Y-96575000D03*
D10*
X157425000Y-100375000D03*
D13*
X162425000Y-96575000D03*
D10*
X162425000Y-102475000D03*
D12*
X167925000Y-96575000D03*
%TD*%
%TO.C,SW40*%
X114062500Y-153725000D03*
D10*
X114562500Y-157525000D03*
D13*
X119562500Y-153725000D03*
D10*
X119562500Y-159625000D03*
D12*
X125062500Y-153725000D03*
%TD*%
%TO.C,SW32*%
X133112500Y-134675000D03*
D10*
X133612500Y-138475000D03*
D13*
X138612500Y-134675000D03*
D10*
X138612500Y-140575000D03*
D12*
X144112500Y-134675000D03*
%TD*%
%TO.C,SW13*%
X99775000Y-96575000D03*
D10*
X100275000Y-100375000D03*
D13*
X105275000Y-96575000D03*
D10*
X105275000Y-102475000D03*
D12*
X110775000Y-96575000D03*
%TD*%
%TO.C,SW4*%
X109300000Y-77525000D03*
D10*
X109800000Y-81325000D03*
D13*
X114800000Y-77525000D03*
D10*
X114800000Y-83425000D03*
D12*
X120300000Y-77525000D03*
%TD*%
%TO.C,SW26*%
X185500000Y-115625000D03*
D10*
X186000000Y-119425000D03*
D13*
X191000000Y-115625000D03*
D10*
X191000000Y-121525000D03*
D12*
X196500000Y-115625000D03*
%TD*%
%TO.C,SW25*%
X161687500Y-115625000D03*
D10*
X162187500Y-119425000D03*
D13*
X167187500Y-115625000D03*
D10*
X167187500Y-121525000D03*
D12*
X172687500Y-115625000D03*
%TD*%
%TO.C,SW7*%
X166450000Y-77525000D03*
D10*
X166950000Y-81325000D03*
D13*
X171950000Y-77525000D03*
D10*
X171950000Y-83425000D03*
D12*
X177450000Y-77525000D03*
%TD*%
%TO.C,SW2*%
X71200000Y-77525000D03*
D10*
X71700000Y-81325000D03*
D13*
X76700000Y-77525000D03*
D10*
X76700000Y-83425000D03*
D12*
X82200000Y-77525000D03*
%TD*%
%TO.C,SW34*%
X171212500Y-134675000D03*
D10*
X171712500Y-138475000D03*
D13*
X176712500Y-134675000D03*
D10*
X176712500Y-140575000D03*
D12*
X182212500Y-134675000D03*
%TD*%
%TO.C,SW31*%
X114062500Y-134675000D03*
D10*
X114562500Y-138475000D03*
D13*
X119562500Y-134675000D03*
D10*
X119562500Y-140575000D03*
D12*
X125062500Y-134675000D03*
%TD*%
%TO.C,SW38*%
X75962500Y-153725000D03*
D10*
X76462500Y-157525000D03*
D13*
X81462500Y-153725000D03*
D10*
X81462500Y-159625000D03*
D12*
X86962500Y-153725000D03*
%TD*%
%TO.C,SW41*%
X133112500Y-153725000D03*
D10*
X133612500Y-157525000D03*
D13*
X138612500Y-153725000D03*
D10*
X138612500Y-159625000D03*
D12*
X144112500Y-153725000D03*
%TD*%
%TO.C,SW22*%
X104537500Y-115625000D03*
D10*
X105037500Y-119425000D03*
D13*
X110037500Y-115625000D03*
D10*
X110037500Y-121525000D03*
D12*
X115537500Y-115625000D03*
%TD*%
D10*
%TO.C,REG6*%
X200250000Y-121930000D03*
%TD*%
%TO.C,REG1*%
X103120000Y-84530000D03*
%TD*%
D12*
%TO.C,SW21*%
X85487500Y-115625000D03*
D10*
X85987500Y-119425000D03*
D13*
X90987500Y-115625000D03*
D10*
X90987500Y-121525000D03*
D12*
X96487500Y-115625000D03*
%TD*%
%TO.C,SW24*%
X142637500Y-115625000D03*
D10*
X143137500Y-119425000D03*
D13*
X148137500Y-115625000D03*
D10*
X148137500Y-121525000D03*
D12*
X153637500Y-115625000D03*
%TD*%
D10*
%TO.C,REG3*%
X200750000Y-95530000D03*
%TD*%
D12*
%TO.C,SW15*%
X137875000Y-96575000D03*
D10*
X138375000Y-100375000D03*
D13*
X143375000Y-96575000D03*
D10*
X143375000Y-102475000D03*
D12*
X148875000Y-96575000D03*
%TD*%
%TO.C,SW39*%
X95012500Y-153725000D03*
D10*
X95512500Y-157525000D03*
D13*
X100512500Y-153725000D03*
D10*
X100512500Y-159625000D03*
D12*
X106012500Y-153725000D03*
%TD*%
%TO.C,SW6*%
X147400000Y-77525000D03*
D10*
X147900000Y-81325000D03*
D13*
X152900000Y-77525000D03*
D10*
X152900000Y-83425000D03*
D12*
X158400000Y-77525000D03*
%TD*%
%TO.C,SW43*%
X171212500Y-153725000D03*
D10*
X171712500Y-157525000D03*
D13*
X176712500Y-153725000D03*
D10*
X176712500Y-159625000D03*
D12*
X182212500Y-153725000D03*
%TD*%
%TO.C,SW9*%
X209312500Y-77525000D03*
D10*
X209812500Y-81325000D03*
D13*
X214812500Y-77525000D03*
D10*
X214812500Y-83425000D03*
D12*
X220312500Y-77525000D03*
%TD*%
%TO.C,SW23*%
X123587500Y-115625000D03*
D10*
X124087500Y-119425000D03*
D13*
X129087500Y-115625000D03*
D10*
X129087500Y-121525000D03*
D12*
X134587500Y-115625000D03*
%TD*%
%TO.C,SW36*%
X209312500Y-134675000D03*
D10*
X209812500Y-138475000D03*
D13*
X214812500Y-134675000D03*
D10*
X214812500Y-140575000D03*
D12*
X220312500Y-134675000D03*
%TD*%
%TO.C,SW27*%
X209312500Y-115625000D03*
D10*
X209812500Y-119425000D03*
D13*
X214812500Y-115625000D03*
D10*
X214812500Y-121525000D03*
D12*
X220312500Y-115625000D03*
%TD*%
%TO.C,SW35*%
X190262500Y-134675000D03*
D10*
X190762500Y-138475000D03*
D13*
X195762500Y-134675000D03*
D10*
X195762500Y-140575000D03*
D12*
X201262500Y-134675000D03*
%TD*%
D10*
%TO.C,REG9*%
X205750000Y-130320000D03*
%TD*%
D14*
%TO.C,SW_RST1*%
X66575000Y-62150000D03*
X74325000Y-62150000D03*
%TD*%
D12*
%TO.C,SW11*%
X61675000Y-96575000D03*
D10*
X62175000Y-100375000D03*
D13*
X67175000Y-96575000D03*
D10*
X67175000Y-102475000D03*
D12*
X72675000Y-96575000D03*
%TD*%
%TO.C,SW44*%
X190262500Y-153725000D03*
D10*
X190762500Y-157525000D03*
D13*
X195762500Y-153725000D03*
D10*
X195762500Y-159625000D03*
D12*
X201262500Y-153725000D03*
%TD*%
%TO.C,SW20*%
X66437500Y-115625000D03*
D10*
X66937500Y-119425000D03*
D13*
X71937500Y-115625000D03*
D10*
X71937500Y-121525000D03*
D12*
X77437500Y-115625000D03*
%TD*%
%TO.C,SW30*%
X95012500Y-134675000D03*
D10*
X95512500Y-138475000D03*
D13*
X100512500Y-134675000D03*
D10*
X100512500Y-140575000D03*
D12*
X106012500Y-134675000D03*
%TD*%
%TO.C,SW8*%
X187881300Y-77525000D03*
D10*
X188381300Y-81325000D03*
D13*
X193381300Y-77525000D03*
D10*
X193381300Y-83425000D03*
D12*
X198881300Y-77525000D03*
%TD*%
%TO.C,SW28*%
X56912500Y-134675000D03*
D10*
X57412500Y-138475000D03*
D13*
X62412500Y-134675000D03*
D10*
X62412500Y-140575000D03*
D12*
X67912500Y-134675000D03*
%TD*%
%TO.C,SW45*%
X209312500Y-153725000D03*
D10*
X209812500Y-157525000D03*
D13*
X214812500Y-153725000D03*
D10*
X214812500Y-159625000D03*
D12*
X220312500Y-153725000D03*
%TD*%
%TO.C,SW29*%
X75962500Y-134675000D03*
D10*
X76462500Y-138475000D03*
D13*
X81462500Y-134675000D03*
D10*
X81462500Y-140575000D03*
D12*
X86962500Y-134675000D03*
%TD*%
D10*
%TO.C,REG8*%
X146190000Y-141820000D03*
%TD*%
%TO.C,REG2*%
X141690000Y-84030000D03*
%TD*%
D12*
%TO.C,SW33*%
X152162500Y-134675000D03*
D10*
X152662500Y-138475000D03*
D13*
X157662500Y-134675000D03*
D10*
X157662500Y-140575000D03*
D12*
X163162500Y-134675000D03*
%TD*%
%TO.C,SW17*%
X183118800Y-96575000D03*
D10*
X183618800Y-100375000D03*
D13*
X188618800Y-96575000D03*
D10*
X188618800Y-102475000D03*
D12*
X194118800Y-96575000D03*
%TD*%
%TO.C,SW37*%
X56912500Y-153725000D03*
D10*
X57412500Y-157525000D03*
D13*
X62412500Y-153725000D03*
D10*
X62412500Y-159625000D03*
D12*
X67912500Y-153725000D03*
%TD*%
%TO.C,SW42*%
X152162500Y-153725000D03*
D10*
X152662500Y-157525000D03*
D13*
X157662500Y-153725000D03*
D10*
X157662500Y-159625000D03*
D12*
X163162500Y-153725000D03*
%TD*%
%TO.C,SW14*%
X118825000Y-96575000D03*
D10*
X119325000Y-100375000D03*
D13*
X124325000Y-96575000D03*
D10*
X124325000Y-102475000D03*
D12*
X129825000Y-96575000D03*
%TD*%
%TO.C,SW3*%
X90250000Y-77525000D03*
D10*
X90750000Y-81325000D03*
D13*
X95750000Y-77525000D03*
D10*
X95750000Y-83425000D03*
D12*
X101250000Y-77525000D03*
%TD*%
%TO.C,SW19*%
X47387500Y-115625000D03*
D10*
X47887500Y-119425000D03*
D13*
X52887500Y-115625000D03*
D10*
X52887500Y-121525000D03*
D12*
X58387500Y-115625000D03*
%TD*%
%TO.C,SW12*%
X80725000Y-96575000D03*
D10*
X81225000Y-100375000D03*
D13*
X86225000Y-96575000D03*
D10*
X86225000Y-102475000D03*
D12*
X91725000Y-96575000D03*
%TD*%
D10*
%TO.C,REG7*%
X54880000Y-144570000D03*
%TD*%
D12*
%TO.C,SW1*%
X52150000Y-77525000D03*
D10*
X52650000Y-81325000D03*
D13*
X57650000Y-77525000D03*
D10*
X57650000Y-83425000D03*
D12*
X63150000Y-77525000D03*
%TD*%
D10*
%TO.C,REG5*%
X131690000Y-125930000D03*
%TD*%
D12*
%TO.C,SW5*%
X128350000Y-77525000D03*
D10*
X128850000Y-81325000D03*
D13*
X133850000Y-77525000D03*
D10*
X133850000Y-83425000D03*
D12*
X139350000Y-77525000D03*
%TD*%
M02*
