%TF.GenerationSoftware,KiCad,Pcbnew,10.0.3*%
%TF.CreationDate,2026-06-06T01:50:45+09:00*%
%TF.ProjectId,kc2_right,6b63325f-7269-4676-9874-2e6b69636164,draft-1*%
%TF.SameCoordinates,Original*%
%TF.FileFunction,Copper,L2,Bot*%
%TF.FilePolarity,Positive*%
%FSLAX46Y46*%
G04 Gerber Fmt 4.6, Leading zero omitted, Abs format (unit mm)*
G04 Created by KiCad (PCBNEW 10.0.3) date 2026-06-06 01:50:45*
%MOMM*%
%LPD*%
G01*
G04 APERTURE LIST*
G04 Aperture macros list*
%AMRoundRect*
0 Rectangle with rounded corners*
0 $1 Rounding radius*
0 $2 $3 $4 $5 $6 $7 $8 $9 X,Y pos of 4 corners*
0 Add a 4 corners polygon primitive as box body*
4,1,4,$2,$3,$4,$5,$6,$7,$8,$9,$2,$3,0*
0 Add four circle primitives for the rounded corners*
1,1,$1+$1,$2,$3*
1,1,$1+$1,$4,$5*
1,1,$1+$1,$6,$7*
1,1,$1+$1,$8,$9*
0 Add four rect primitives between the rounded corners*
20,1,$1+$1,$2,$3,$4,$5,0*
20,1,$1+$1,$4,$5,$6,$7,0*
20,1,$1+$1,$6,$7,$8,$9,0*
20,1,$1+$1,$8,$9,$2,$3,0*%
G04 Aperture macros list end*
%TA.AperFunction,ComponentPad*%
%ADD10C,2.000000*%
%TD*%
%TA.AperFunction,SMDPad,CuDef*%
%ADD11RoundRect,0.520000X-0.780000X-0.780000X0.780000X-0.780000X0.780000X0.780000X-0.780000X0.780000X0*%
%TD*%
%TA.AperFunction,ComponentPad*%
%ADD12C,1.800000*%
%TD*%
%TA.AperFunction,SMDPad,CuDef*%
%ADD13RoundRect,0.252000X0.448000X0.523000X-0.448000X0.523000X-0.448000X-0.523000X0.448000X-0.523000X0*%
%TD*%
%TA.AperFunction,ViaPad*%
%ADD14C,0.600000*%
%TD*%
%TA.AperFunction,Conductor*%
%ADD15C,0.250000*%
%TD*%
G04 APERTURE END LIST*
D10*
%TO.P,SW7,1*%
%TO.N,R_COL6*%
X171950000Y-71625000D03*
D11*
X175650000Y-83425000D03*
%TO.P,SW7,2*%
%TO.N,RK07_D*%
X163250000Y-81325000D03*
D10*
X176950000Y-73725000D03*
%TD*%
%TO.P,SW11,1*%
%TO.N,R_COL1*%
X67175000Y-90675000D03*
D11*
X70875000Y-102475000D03*
%TO.P,SW11,2*%
%TO.N,RK11_D*%
X58475000Y-100375000D03*
D10*
X72175000Y-92775000D03*
%TD*%
%TO.P,SW6,1*%
%TO.N,R_COL5*%
X152900000Y-71625000D03*
D11*
X156600000Y-83425000D03*
%TO.P,SW6,2*%
%TO.N,RK06_D*%
X144200000Y-81325000D03*
D10*
X157900000Y-73725000D03*
%TD*%
%TO.P,SW1,1*%
%TO.N,R_COL0*%
X57650000Y-71625000D03*
D11*
X61350000Y-83425000D03*
%TO.P,SW1,2*%
%TO.N,RK01_D*%
X48950000Y-81325000D03*
D10*
X62650000Y-73725000D03*
%TD*%
D12*
%TO.P,U1,D0*%
%TO.N,N/C*%
X93930000Y-40110000D03*
%TO.P,U1,D1*%
X96470000Y-40110000D03*
%TO.P,U1,D2*%
%TO.N,R_ROW3*%
X86310000Y-40110000D03*
%TO.P,U1,D3*%
%TO.N,R_ROW0*%
X83770000Y-40110000D03*
%TO.P,U1,D4*%
%TO.N,R_ROW1*%
X81230000Y-40110000D03*
%TO.P,U1,D5*%
%TO.N,R_ROW2*%
X78690000Y-40110000D03*
%TO.P,U1,D6*%
%TO.N,N/C*%
X76150000Y-40110000D03*
%TO.P,U1,D7*%
%TO.N,R_ROW4*%
X73610000Y-40110000D03*
%TO.P,U1,D8*%
%TO.N,N/C*%
X71070000Y-40110000D03*
%TO.P,U1,D9*%
%TO.N,R_COL0*%
X68530000Y-40110000D03*
%TO.P,U1,D10*%
%TO.N,R_COL1*%
X68530000Y-57890000D03*
%TO.P,U1,D14*%
%TO.N,R_COL3*%
X73610000Y-57890000D03*
%TO.P,U1,D15*%
%TO.N,R_COL4*%
X76150000Y-57890000D03*
%TO.P,U1,D16*%
%TO.N,R_COL2*%
X71070000Y-57890000D03*
%TO.P,U1,D18*%
%TO.N,R_COL5*%
X78690000Y-57890000D03*
%TO.P,U1,D19*%
%TO.N,R_COL6*%
X81230000Y-57890000D03*
%TO.P,U1,D20*%
%TO.N,R_COL8*%
X83770000Y-57890000D03*
%TO.P,U1,D21*%
%TO.N,R_COL7*%
X86310000Y-57890000D03*
%TO.P,U1,GND_A*%
%TO.N,N/C*%
X91390000Y-40110000D03*
%TO.P,U1,GND_B*%
X88850000Y-40110000D03*
%TO.P,U1,GND_C*%
%TO.N,GND*%
X93930000Y-57890000D03*
%TO.P,U1,RAW*%
%TO.N,N/C*%
X96470000Y-57890000D03*
%TO.P,U1,RST*%
%TO.N,RST*%
X91390000Y-57890000D03*
%TO.P,U1,VCC*%
%TO.N,N/C*%
X88850000Y-57890000D03*
%TD*%
D10*
%TO.P,SW38,1*%
%TO.N,R_COL1*%
X81462500Y-147825000D03*
D11*
X85162500Y-159625000D03*
%TO.P,SW38,2*%
%TO.N,RK38_D*%
X72762500Y-157525000D03*
D10*
X86462500Y-149925000D03*
%TD*%
%TO.P,SW17,1*%
%TO.N,R_COL7*%
X188618800Y-90675000D03*
D11*
X192318800Y-102475000D03*
%TO.P,SW17,2*%
%TO.N,RK17_D*%
X179918800Y-100375000D03*
D10*
X193618800Y-92775000D03*
%TD*%
%TO.P,SW30,1*%
%TO.N,R_COL2*%
X100512500Y-128775000D03*
D11*
X104212500Y-140575000D03*
%TO.P,SW30,2*%
%TO.N,RK30_D*%
X91812500Y-138475000D03*
D10*
X105512500Y-130875000D03*
%TD*%
%TO.P,SW34,1*%
%TO.N,R_COL6*%
X176712500Y-128775000D03*
D11*
X180412500Y-140575000D03*
%TO.P,SW34,2*%
%TO.N,RK34_D*%
X168012500Y-138475000D03*
D10*
X181712500Y-130875000D03*
%TD*%
%TO.P,SW41,1*%
%TO.N,R_COL4*%
X138612500Y-147825000D03*
D11*
X142312500Y-159625000D03*
%TO.P,SW41,2*%
%TO.N,RK41_D*%
X129912500Y-157525000D03*
D10*
X143612500Y-149925000D03*
%TD*%
%TO.P,SW9,1*%
%TO.N,R_COL8*%
X214812500Y-71625000D03*
D11*
X218512500Y-83425000D03*
%TO.P,SW9,2*%
%TO.N,RK09_D*%
X206112500Y-81325000D03*
D10*
X219812500Y-73725000D03*
%TD*%
%TO.P,SW8,1*%
%TO.N,R_COL7*%
X193381300Y-71625000D03*
D11*
X197081300Y-83425000D03*
%TO.P,SW8,2*%
%TO.N,RK08_D*%
X184681300Y-81325000D03*
D10*
X198381300Y-73725000D03*
%TD*%
%TO.P,SW23,1*%
%TO.N,R_COL4*%
X129087500Y-109725000D03*
D11*
X132787500Y-121525000D03*
%TO.P,SW23,2*%
%TO.N,RK23_D*%
X120387500Y-119425000D03*
D10*
X134087500Y-111825000D03*
%TD*%
%TO.P,SW15,1*%
%TO.N,R_COL5*%
X143375000Y-90675000D03*
D11*
X147075000Y-102475000D03*
%TO.P,SW15,2*%
%TO.N,RK15_D*%
X134675000Y-100375000D03*
D10*
X148375000Y-92775000D03*
%TD*%
%TO.P,SW16,1*%
%TO.N,R_COL6*%
X162425000Y-90675000D03*
D11*
X166125000Y-102475000D03*
%TO.P,SW16,2*%
%TO.N,RK16_D*%
X153725000Y-100375000D03*
D10*
X167425000Y-92775000D03*
%TD*%
%TO.P,SW29,1*%
%TO.N,R_COL1*%
X81462500Y-128775000D03*
D11*
X85162500Y-140575000D03*
%TO.P,SW29,2*%
%TO.N,RK29_D*%
X72762500Y-138475000D03*
D10*
X86462500Y-130875000D03*
%TD*%
%TO.P,SW3,1*%
%TO.N,R_COL2*%
X95750000Y-71625000D03*
D11*
X99450000Y-83425000D03*
%TO.P,SW3,2*%
%TO.N,RK03_D*%
X87050000Y-81325000D03*
D10*
X100750000Y-73725000D03*
%TD*%
%TO.P,SW12,1*%
%TO.N,R_COL2*%
X86225000Y-90675000D03*
D11*
X89925000Y-102475000D03*
%TO.P,SW12,2*%
%TO.N,RK12_D*%
X77525000Y-100375000D03*
D10*
X91225000Y-92775000D03*
%TD*%
%TO.P,SW44,1*%
%TO.N,R_COL7*%
X195762500Y-147825000D03*
D11*
X199462500Y-159625000D03*
%TO.P,SW44,2*%
%TO.N,RK44_D*%
X187062500Y-157525000D03*
D10*
X200762500Y-149925000D03*
%TD*%
%TO.P,SW33,1*%
%TO.N,R_COL5*%
X157662500Y-128775000D03*
D11*
X161362500Y-140575000D03*
%TO.P,SW33,2*%
%TO.N,RK33_D*%
X148962500Y-138475000D03*
D10*
X162662500Y-130875000D03*
%TD*%
%TO.P,SW27,1*%
%TO.N,R_COL8*%
X214812500Y-109725000D03*
D11*
X218512500Y-121525000D03*
%TO.P,SW27,2*%
%TO.N,RK27_D*%
X206112500Y-119425000D03*
D10*
X219812500Y-111825000D03*
%TD*%
%TO.P,SW39,1*%
%TO.N,R_COL2*%
X100512500Y-147825000D03*
D11*
X104212500Y-159625000D03*
%TO.P,SW39,2*%
%TO.N,RK39_D*%
X91812500Y-157525000D03*
D10*
X105512500Y-149925000D03*
%TD*%
%TO.P,SW19,1*%
%TO.N,R_COL0*%
X52887500Y-109725000D03*
D11*
X56587500Y-121525000D03*
%TO.P,SW19,2*%
%TO.N,RK19_D*%
X44187500Y-119425000D03*
D10*
X57887500Y-111825000D03*
%TD*%
%TO.P,SW10,1*%
%TO.N,R_COL0*%
X48125000Y-90675000D03*
D11*
X51825000Y-102475000D03*
%TO.P,SW10,2*%
%TO.N,RK10_D*%
X39425000Y-100375000D03*
D10*
X53125000Y-92775000D03*
%TD*%
%TO.P,SW5,1*%
%TO.N,R_COL4*%
X133850000Y-71625000D03*
D11*
X137550000Y-83425000D03*
%TO.P,SW5,2*%
%TO.N,RK05_D*%
X125150000Y-81325000D03*
D10*
X138850000Y-73725000D03*
%TD*%
%TO.P,SW21,1*%
%TO.N,R_COL2*%
X90987500Y-109725000D03*
D11*
X94687500Y-121525000D03*
%TO.P,SW21,2*%
%TO.N,RK21_D*%
X82287500Y-119425000D03*
D10*
X95987500Y-111825000D03*
%TD*%
%TO.P,SW2,1*%
%TO.N,R_COL1*%
X76700000Y-71625000D03*
D11*
X80400000Y-83425000D03*
%TO.P,SW2,2*%
%TO.N,RK02_D*%
X68000000Y-81325000D03*
D10*
X81700000Y-73725000D03*
%TD*%
%TO.P,SW42,1*%
%TO.N,R_COL5*%
X157662500Y-147825000D03*
D11*
X161362500Y-159625000D03*
%TO.P,SW42,2*%
%TO.N,RK42_D*%
X148962500Y-157525000D03*
D10*
X162662500Y-149925000D03*
%TD*%
%TO.P,SW45,1*%
%TO.N,R_COL8*%
X214812500Y-147825000D03*
D11*
X218512500Y-159625000D03*
%TO.P,SW45,2*%
%TO.N,RK45_D*%
X206112500Y-157525000D03*
D10*
X219812500Y-149925000D03*
%TD*%
%TO.P,SW25,1*%
%TO.N,R_COL6*%
X167187500Y-109725000D03*
D11*
X170887500Y-121525000D03*
%TO.P,SW25,2*%
%TO.N,RK25_D*%
X158487500Y-119425000D03*
D10*
X172187500Y-111825000D03*
%TD*%
%TO.P,SW26,1*%
%TO.N,R_COL7*%
X191000000Y-109725000D03*
D11*
X194700000Y-121525000D03*
%TO.P,SW26,2*%
%TO.N,RK26_D*%
X182300000Y-119425000D03*
D10*
X196000000Y-111825000D03*
%TD*%
%TO.P,SW36,1*%
%TO.N,R_COL8*%
X214812500Y-128775000D03*
D11*
X218512500Y-140575000D03*
%TO.P,SW36,2*%
%TO.N,RK36_D*%
X206112500Y-138475000D03*
D10*
X219812500Y-130875000D03*
%TD*%
%TO.P,SW43,1*%
%TO.N,R_COL6*%
X176712500Y-147825000D03*
D11*
X180412500Y-159625000D03*
%TO.P,SW43,2*%
%TO.N,RK43_D*%
X168012500Y-157525000D03*
D10*
X181712500Y-149925000D03*
%TD*%
%TO.P,SW32,1*%
%TO.N,R_COL4*%
X138612500Y-128775000D03*
D11*
X142312500Y-140575000D03*
%TO.P,SW32,2*%
%TO.N,RK32_D*%
X129912500Y-138475000D03*
D10*
X143612500Y-130875000D03*
%TD*%
%TO.P,SW13,1*%
%TO.N,R_COL3*%
X105275000Y-90675000D03*
D11*
X108975000Y-102475000D03*
%TO.P,SW13,2*%
%TO.N,RK13_D*%
X96575000Y-100375000D03*
D10*
X110275000Y-92775000D03*
%TD*%
%TO.P,SW24,1*%
%TO.N,R_COL5*%
X148137500Y-109725000D03*
D11*
X151837500Y-121525000D03*
%TO.P,SW24,2*%
%TO.N,RK24_D*%
X139437500Y-119425000D03*
D10*
X153137500Y-111825000D03*
%TD*%
%TO.P,SW35,1*%
%TO.N,R_COL7*%
X195762500Y-128775000D03*
D11*
X199462500Y-140575000D03*
%TO.P,SW35,2*%
%TO.N,RK35_D*%
X187062500Y-138475000D03*
D10*
X200762500Y-130875000D03*
%TD*%
%TO.P,SW4,1*%
%TO.N,R_COL3*%
X114800000Y-71625000D03*
D11*
X118500000Y-83425000D03*
%TO.P,SW4,2*%
%TO.N,RK04_D*%
X106100000Y-81325000D03*
D10*
X119800000Y-73725000D03*
%TD*%
%TO.P,SW20,1*%
%TO.N,R_COL1*%
X71937500Y-109725000D03*
D11*
X75637500Y-121525000D03*
%TO.P,SW20,2*%
%TO.N,RK20_D*%
X63237500Y-119425000D03*
D10*
X76937500Y-111825000D03*
%TD*%
%TO.P,SW37,1*%
%TO.N,R_COL0*%
X62412500Y-147825000D03*
D11*
X66112500Y-159625000D03*
%TO.P,SW37,2*%
%TO.N,RK37_D*%
X53712500Y-157525000D03*
D10*
X67412500Y-149925000D03*
%TD*%
%TO.P,SW14,1*%
%TO.N,R_COL4*%
X124325000Y-90675000D03*
D11*
X128025000Y-102475000D03*
%TO.P,SW14,2*%
%TO.N,RK14_D*%
X115625000Y-100375000D03*
D10*
X129325000Y-92775000D03*
%TD*%
%TO.P,SW22,1*%
%TO.N,R_COL3*%
X110037500Y-109725000D03*
D11*
X113737500Y-121525000D03*
%TO.P,SW22,2*%
%TO.N,RK22_D*%
X101337500Y-119425000D03*
D10*
X115037500Y-111825000D03*
%TD*%
%TO.P,SW40,1*%
%TO.N,R_COL3*%
X119562500Y-147825000D03*
D11*
X123262500Y-159625000D03*
%TO.P,SW40,2*%
%TO.N,RK40_D*%
X110862500Y-157525000D03*
D10*
X124562500Y-149925000D03*
%TD*%
%TO.P,SW18,1*%
%TO.N,R_COL8*%
X214812500Y-90675000D03*
D11*
X218512500Y-102475000D03*
%TO.P,SW18,2*%
%TO.N,RK18_D*%
X206112500Y-100375000D03*
D10*
X219812500Y-92775000D03*
%TD*%
%TO.P,SW31,1*%
%TO.N,R_COL3*%
X119562500Y-128775000D03*
D11*
X123262500Y-140575000D03*
%TO.P,SW31,2*%
%TO.N,RK31_D*%
X110862500Y-138475000D03*
D10*
X124562500Y-130875000D03*
%TD*%
%TO.P,SW28,1*%
%TO.N,R_COL0*%
X62412500Y-128775000D03*
D11*
X66112500Y-140575000D03*
%TO.P,SW28,2*%
%TO.N,RK28_D*%
X53712500Y-138475000D03*
D10*
X67412500Y-130875000D03*
%TD*%
D13*
%TO.P,D5,1*%
%TO.N,R_ROW0*%
X135650000Y-69925000D03*
%TO.P,D5,2*%
%TO.N,RK05_D*%
X132050000Y-69925000D03*
%TD*%
%TO.P,D6,1*%
%TO.N,R_ROW0*%
X154700000Y-69925000D03*
%TO.P,D6,2*%
%TO.N,RK06_D*%
X151100000Y-69925000D03*
%TD*%
%TO.P,D9,1*%
%TO.N,R_ROW0*%
X216612500Y-69925000D03*
%TO.P,D9,2*%
%TO.N,RK09_D*%
X213012500Y-69925000D03*
%TD*%
%TO.P,D16,1*%
%TO.N,R_ROW1*%
X164225000Y-88975000D03*
%TO.P,D16,2*%
%TO.N,RK16_D*%
X160625000Y-88975000D03*
%TD*%
%TO.P,D17,1*%
%TO.N,R_ROW1*%
X190418800Y-88975000D03*
%TO.P,D17,2*%
%TO.N,RK17_D*%
X186818800Y-88975000D03*
%TD*%
%TO.P,D13,1*%
%TO.N,R_ROW1*%
X107075000Y-88975000D03*
%TO.P,D13,2*%
%TO.N,RK13_D*%
X103475000Y-88975000D03*
%TD*%
%TO.P,D1,1*%
%TO.N,R_ROW0*%
X59450000Y-69925000D03*
%TO.P,D1,2*%
%TO.N,RK01_D*%
X55850000Y-69925000D03*
%TD*%
%TO.P,D28,1*%
%TO.N,R_ROW3*%
X64212500Y-127075000D03*
%TO.P,D28,2*%
%TO.N,RK28_D*%
X60612500Y-127075000D03*
%TD*%
%TO.P,D2,1*%
%TO.N,R_ROW0*%
X78500000Y-69925000D03*
%TO.P,D2,2*%
%TO.N,RK02_D*%
X74900000Y-69925000D03*
%TD*%
%TO.P,D42,1*%
%TO.N,R_ROW4*%
X159462500Y-146125000D03*
%TO.P,D42,2*%
%TO.N,RK42_D*%
X155862500Y-146125000D03*
%TD*%
%TO.P,D8,1*%
%TO.N,R_ROW0*%
X195181300Y-69925000D03*
%TO.P,D8,2*%
%TO.N,RK08_D*%
X191581300Y-69925000D03*
%TD*%
%TO.P,D38,1*%
%TO.N,R_ROW4*%
X83262500Y-146125000D03*
%TO.P,D38,2*%
%TO.N,RK38_D*%
X79662500Y-146125000D03*
%TD*%
%TO.P,D37,1*%
%TO.N,R_ROW4*%
X64212500Y-146125000D03*
%TO.P,D37,2*%
%TO.N,RK37_D*%
X60612500Y-146125000D03*
%TD*%
%TO.P,D27,1*%
%TO.N,R_ROW2*%
X216612500Y-108025000D03*
%TO.P,D27,2*%
%TO.N,RK27_D*%
X213012500Y-108025000D03*
%TD*%
%TO.P,D22,1*%
%TO.N,R_ROW2*%
X111837500Y-108025000D03*
%TO.P,D22,2*%
%TO.N,RK22_D*%
X108237500Y-108025000D03*
%TD*%
%TO.P,D18,1*%
%TO.N,R_ROW1*%
X216612500Y-88975000D03*
%TO.P,D18,2*%
%TO.N,RK18_D*%
X213012500Y-88975000D03*
%TD*%
%TO.P,D43,1*%
%TO.N,R_ROW4*%
X178512500Y-146125000D03*
%TO.P,D43,2*%
%TO.N,RK43_D*%
X174912500Y-146125000D03*
%TD*%
%TO.P,D35,1*%
%TO.N,R_ROW3*%
X197562500Y-127075000D03*
%TO.P,D35,2*%
%TO.N,RK35_D*%
X193962500Y-127075000D03*
%TD*%
%TO.P,D19,1*%
%TO.N,R_ROW2*%
X54687500Y-108025000D03*
%TO.P,D19,2*%
%TO.N,RK19_D*%
X51087500Y-108025000D03*
%TD*%
%TO.P,D30,1*%
%TO.N,R_ROW3*%
X102312500Y-127075000D03*
%TO.P,D30,2*%
%TO.N,RK30_D*%
X98712500Y-127075000D03*
%TD*%
%TO.P,D23,1*%
%TO.N,R_ROW2*%
X130887500Y-108025000D03*
%TO.P,D23,2*%
%TO.N,RK23_D*%
X127287500Y-108025000D03*
%TD*%
%TO.P,D3,1*%
%TO.N,R_ROW0*%
X97550000Y-69925000D03*
%TO.P,D3,2*%
%TO.N,RK03_D*%
X93950000Y-69925000D03*
%TD*%
%TO.P,D20,1*%
%TO.N,R_ROW2*%
X73737500Y-108025000D03*
%TO.P,D20,2*%
%TO.N,RK20_D*%
X70137500Y-108025000D03*
%TD*%
%TO.P,D34,1*%
%TO.N,R_ROW3*%
X178512500Y-127075000D03*
%TO.P,D34,2*%
%TO.N,RK34_D*%
X174912500Y-127075000D03*
%TD*%
%TO.P,D44,1*%
%TO.N,R_ROW4*%
X197562500Y-146125000D03*
%TO.P,D44,2*%
%TO.N,RK44_D*%
X193962500Y-146125000D03*
%TD*%
%TO.P,D14,1*%
%TO.N,R_ROW1*%
X126125000Y-88975000D03*
%TO.P,D14,2*%
%TO.N,RK14_D*%
X122525000Y-88975000D03*
%TD*%
%TO.P,D36,1*%
%TO.N,R_ROW3*%
X216612500Y-127075000D03*
%TO.P,D36,2*%
%TO.N,RK36_D*%
X213012500Y-127075000D03*
%TD*%
%TO.P,D24,1*%
%TO.N,R_ROW2*%
X149937500Y-108025000D03*
%TO.P,D24,2*%
%TO.N,RK24_D*%
X146337500Y-108025000D03*
%TD*%
%TO.P,D31,1*%
%TO.N,R_ROW3*%
X121362500Y-127075000D03*
%TO.P,D31,2*%
%TO.N,RK31_D*%
X117762500Y-127075000D03*
%TD*%
%TO.P,D7,1*%
%TO.N,R_ROW0*%
X173750000Y-69925000D03*
%TO.P,D7,2*%
%TO.N,RK07_D*%
X170150000Y-69925000D03*
%TD*%
%TO.P,D41,1*%
%TO.N,R_ROW4*%
X140412500Y-146125000D03*
%TO.P,D41,2*%
%TO.N,RK41_D*%
X136812500Y-146125000D03*
%TD*%
%TO.P,D33,1*%
%TO.N,R_ROW3*%
X159462500Y-127075000D03*
%TO.P,D33,2*%
%TO.N,RK33_D*%
X155862500Y-127075000D03*
%TD*%
%TO.P,D32,1*%
%TO.N,R_ROW3*%
X140412500Y-127075000D03*
%TO.P,D32,2*%
%TO.N,RK32_D*%
X136812500Y-127075000D03*
%TD*%
%TO.P,D21,1*%
%TO.N,R_ROW2*%
X92787500Y-108025000D03*
%TO.P,D21,2*%
%TO.N,RK21_D*%
X89187500Y-108025000D03*
%TD*%
%TO.P,D40,1*%
%TO.N,R_ROW4*%
X121362500Y-146125000D03*
%TO.P,D40,2*%
%TO.N,RK40_D*%
X117762500Y-146125000D03*
%TD*%
%TO.P,D25,1*%
%TO.N,R_ROW2*%
X168987500Y-108025000D03*
%TO.P,D25,2*%
%TO.N,RK25_D*%
X165387500Y-108025000D03*
%TD*%
%TO.P,D26,1*%
%TO.N,R_ROW2*%
X192800000Y-108025000D03*
%TO.P,D26,2*%
%TO.N,RK26_D*%
X189200000Y-108025000D03*
%TD*%
%TO.P,D15,1*%
%TO.N,R_ROW1*%
X145175000Y-88975000D03*
%TO.P,D15,2*%
%TO.N,RK15_D*%
X141575000Y-88975000D03*
%TD*%
%TO.P,D12,1*%
%TO.N,R_ROW1*%
X88025000Y-88975000D03*
%TO.P,D12,2*%
%TO.N,RK12_D*%
X84425000Y-88975000D03*
%TD*%
%TO.P,D4,1*%
%TO.N,R_ROW0*%
X116600000Y-69925000D03*
%TO.P,D4,2*%
%TO.N,RK04_D*%
X113000000Y-69925000D03*
%TD*%
%TO.P,D10,1*%
%TO.N,R_ROW1*%
X49925000Y-88975000D03*
%TO.P,D10,2*%
%TO.N,RK10_D*%
X46325000Y-88975000D03*
%TD*%
%TO.P,D45,1*%
%TO.N,R_ROW4*%
X216612500Y-146125000D03*
%TO.P,D45,2*%
%TO.N,RK45_D*%
X213012500Y-146125000D03*
%TD*%
%TO.P,D29,1*%
%TO.N,R_ROW3*%
X83262500Y-127075000D03*
%TO.P,D29,2*%
%TO.N,RK29_D*%
X79662500Y-127075000D03*
%TD*%
%TO.P,D39,1*%
%TO.N,R_ROW4*%
X102312500Y-146125000D03*
%TO.P,D39,2*%
%TO.N,RK39_D*%
X98712500Y-146125000D03*
%TD*%
%TO.P,D11,1*%
%TO.N,R_ROW1*%
X68975000Y-88975000D03*
%TO.P,D11,2*%
%TO.N,RK11_D*%
X65375000Y-88975000D03*
%TD*%
D14*
%TO.N,R_COL1*%
X74627600Y-112121300D03*
%TO.N,RK11_D*%
X65313500Y-90603400D03*
%TO.N,R_COL5*%
X154134800Y-126494500D03*
%TO.N,R_ROW3*%
X107302400Y-125687800D03*
X63956800Y-125625700D03*
X196661800Y-125249200D03*
X125033600Y-125687800D03*
X158031000Y-126553600D03*
X84551000Y-126811700D03*
X139371000Y-125687800D03*
X178227200Y-125249200D03*
%TO.N,R_ROW0*%
X60760100Y-70670200D03*
X125033600Y-67804300D03*
X193381300Y-69130500D03*
X78587600Y-68395600D03*
X175094200Y-71930400D03*
X155125000Y-72004900D03*
X136997300Y-70123300D03*
X118222800Y-73453200D03*
X89571200Y-72672800D03*
X217110900Y-72004900D03*
%TO.N,R_ROW1*%
X145786300Y-90603400D03*
X105487400Y-89077000D03*
X124900400Y-89077000D03*
X189194200Y-88752900D03*
X88409800Y-90603400D03*
X165870300Y-90211600D03*
X69963600Y-86906300D03*
X214440400Y-88752900D03*
X50693500Y-86636200D03*
%TO.N,R_ROW2*%
X57079600Y-108002300D03*
X75203100Y-107827600D03*
X213012300Y-109546400D03*
X148805100Y-106849700D03*
X113614500Y-107827600D03*
X193520900Y-110523800D03*
X129339500Y-107532100D03*
X98436800Y-107827600D03*
%TO.N,R_ROW4*%
X103947300Y-145930700D03*
X197849800Y-147457000D03*
X63734100Y-143963700D03*
X179974100Y-146075000D03*
X160128000Y-143548000D03*
X120144200Y-145930700D03*
X83645600Y-143963700D03*
X215052400Y-145930700D03*
%TO.N,R_COL3*%
X112886400Y-112121300D03*
%TO.N,R_COL7*%
X91547600Y-66391000D03*
%TO.N,RK38_D*%
X81273400Y-145930700D03*
%TO.N,RK30_D*%
X98235900Y-129001900D03*
%TO.N,RK34_D*%
X174753500Y-129001900D03*
%TO.N,RK41_D*%
X136494700Y-147457000D03*
%TO.N,RK23_D*%
X127299400Y-109546400D03*
%TO.N,RK29_D*%
X79845300Y-129001900D03*
%TO.N,RK19_D*%
X50781800Y-110804300D03*
%TO.N,RK10_D*%
X48107400Y-93144700D03*
%TO.N,RK21_D*%
X90305500Y-111704800D03*
%TO.N,RK02_D*%
X74508800Y-72148300D03*
%TO.N,RK45_D*%
X216213300Y-150178000D03*
%TO.N,RK25_D*%
X165558200Y-109546400D03*
%TO.N,RK26_D*%
X192161500Y-111746100D03*
%TO.N,RK36_D*%
X213012300Y-129001900D03*
%TO.N,RK32_D*%
X136494700Y-129001900D03*
%TO.N,RK24_D*%
X145690000Y-110804300D03*
%TO.N,RK35_D*%
X195899400Y-131490700D03*
%TO.N,RK37_D*%
X60736100Y-147457000D03*
%TO.N,RK40_D*%
X121297900Y-150258700D03*
%TO.N,RK18_D*%
X213689600Y-93053700D03*
%TO.N,RK31_D*%
X118323700Y-129744300D03*
%TO.N,RK28_D*%
X59977100Y-129001900D03*
%TD*%
%TO.N,R_COL6*%
D15*
X183648900Y-149382700D02*
X180600800Y-146334600D01*
X175650000Y-83425000D02*
X175650000Y-92950000D01*
X175650000Y-75325000D02*
X171950000Y-71625000D01*
X183648900Y-156388600D02*
X183648900Y-149382700D01*
X170887500Y-121525000D02*
X170887500Y-113425000D01*
X180412500Y-159625000D02*
X183648900Y-156388600D01*
X175650000Y-92950000D02*
X166125000Y-102475000D01*
X180600800Y-140763300D02*
X180412500Y-140575000D01*
X168140500Y-110677900D02*
X170032400Y-108786000D01*
X170032400Y-106382400D02*
X166125000Y-102475000D01*
X168140500Y-110677900D02*
X167187500Y-109725000D01*
X176712500Y-128775000D02*
X180412500Y-132475000D01*
X170032400Y-108786000D02*
X170032400Y-106382400D01*
X170887500Y-113425000D02*
X168140500Y-110677900D01*
X179110400Y-147825000D02*
X180600800Y-146334600D01*
X166125000Y-102475000D02*
X166125000Y-94375000D01*
X176712500Y-147825000D02*
X179110400Y-147825000D01*
X180600800Y-146334600D02*
X180600800Y-140763300D01*
X170887500Y-121525000D02*
X171181200Y-121525000D01*
X180412500Y-132475000D02*
X180412500Y-140575000D01*
X166125000Y-94375000D02*
X162425000Y-90675000D01*
X176712500Y-127056300D02*
X176712500Y-128775000D01*
X175650000Y-83425000D02*
X175650000Y-75325000D01*
X171181200Y-121525000D02*
X176712500Y-127056300D01*
%TO.N,RK07_D*%
X176950000Y-71318100D02*
X174411400Y-68779500D01*
X163250000Y-81325000D02*
X163250000Y-76825000D01*
X171295500Y-68779500D02*
X170150000Y-69925000D01*
X174411400Y-68779500D02*
X171295500Y-68779500D01*
X163250000Y-76825000D02*
X170150000Y-69925000D01*
X176950000Y-73725000D02*
X176950000Y-71318100D01*
%TO.N,R_COL1*%
X79948300Y-74873300D02*
X79948300Y-82883100D01*
X85162400Y-146074200D02*
X82437100Y-148799500D01*
X70875000Y-102475000D02*
X71937500Y-103537500D01*
X85162400Y-142205400D02*
X85162400Y-146074200D01*
X82437100Y-148799500D02*
X81462500Y-147825000D01*
X74627600Y-120515100D02*
X75637500Y-121525000D01*
X81462500Y-128775000D02*
X85162500Y-132475000D01*
X75637500Y-121525000D02*
X75923800Y-121525000D01*
X85162500Y-142205400D02*
X85162400Y-142205400D01*
X79948300Y-82883100D02*
X79948300Y-86906600D01*
X74627600Y-112121300D02*
X74627600Y-120515100D01*
X76700000Y-71625000D02*
X79948300Y-74873300D01*
X76700000Y-66060000D02*
X76700000Y-71625000D01*
X85162500Y-140575000D02*
X85162500Y-142205400D01*
X68530000Y-57890000D02*
X76700000Y-66060000D01*
X70875000Y-94375000D02*
X70875000Y-102475000D01*
X85162500Y-132475000D02*
X85162500Y-140575000D01*
X81462500Y-127063700D02*
X81462500Y-128775000D01*
X79948300Y-82883100D02*
X79948300Y-82973300D01*
X85162500Y-151525000D02*
X82437100Y-148799500D01*
X71937500Y-103537500D02*
X71937500Y-109725000D01*
X72479900Y-94375000D02*
X70875000Y-94375000D01*
X67175000Y-90675000D02*
X70875000Y-94375000D01*
X79948300Y-86906600D02*
X72479900Y-94375000D01*
X85162500Y-159625000D02*
X85162500Y-151525000D01*
X79948300Y-82973300D02*
X80400000Y-83425000D01*
X75923800Y-121525000D02*
X81462500Y-127063700D01*
%TO.N,RK11_D*%
X58475000Y-95875000D02*
X65375000Y-88975000D01*
X58475000Y-100375000D02*
X58475000Y-95875000D01*
X65313500Y-90603400D02*
X65375000Y-90541900D01*
X65375000Y-90541900D02*
X65375000Y-88975000D01*
%TO.N,R_COL5*%
X161362500Y-140575000D02*
X161362500Y-146098000D01*
X161362500Y-159625000D02*
X164624500Y-156363000D01*
X152900000Y-71625000D02*
X156600000Y-75325000D01*
X151548900Y-88476100D02*
X151548900Y-98001100D01*
X143375000Y-90675000D02*
X147075000Y-94375000D01*
X151548900Y-98001100D02*
X147075000Y-102475000D01*
X148137500Y-109725000D02*
X151837500Y-113425000D01*
X161038700Y-146421800D02*
X159635500Y-147825000D01*
X159635500Y-147825000D02*
X157662500Y-147825000D01*
X161362500Y-132475000D02*
X161362500Y-140575000D01*
X161362500Y-146098000D02*
X161038700Y-146421800D01*
X156600000Y-75325000D02*
X156600000Y-83425000D01*
X148137500Y-103537500D02*
X147075000Y-102475000D01*
X164624500Y-150007600D02*
X161038700Y-146421800D01*
X164624500Y-156363000D02*
X164624500Y-150007600D01*
X156600000Y-83425000D02*
X151548900Y-88476100D01*
X147075000Y-94375000D02*
X147075000Y-102475000D01*
X154134800Y-123822300D02*
X151837500Y-121525000D01*
X151837500Y-113425000D02*
X151837500Y-121525000D01*
X148137500Y-109725000D02*
X148137500Y-103537500D01*
X157662500Y-128775000D02*
X161362500Y-132475000D01*
X154134800Y-126494500D02*
X154134800Y-123822300D01*
%TO.N,RK06_D*%
X157900000Y-73725000D02*
X157900000Y-71318100D01*
X144200000Y-76825000D02*
X151100000Y-69925000D01*
X157900000Y-71318100D02*
X155361400Y-68779500D01*
X155361400Y-68779500D02*
X152245500Y-68779500D01*
X152245500Y-68779500D02*
X151100000Y-69925000D01*
X144200000Y-81325000D02*
X144200000Y-76825000D01*
%TO.N,R_COL0*%
X65081200Y-131443700D02*
X65081200Y-139543700D01*
X62957000Y-75325000D02*
X61350000Y-75325000D01*
X65081200Y-139543700D02*
X66112500Y-140575000D01*
X61350000Y-86430000D02*
X53405000Y-94375000D01*
X62412500Y-147825000D02*
X66112500Y-151525000D01*
X52887500Y-109725000D02*
X56587500Y-113425000D01*
X66112500Y-140575000D02*
X62412500Y-144275000D01*
X53405000Y-94375000D02*
X51825000Y-94375000D01*
X51825000Y-95001700D02*
X51825000Y-102475000D01*
X51825000Y-102475000D02*
X52887500Y-103537500D01*
X56587500Y-121525000D02*
X56853400Y-121525000D01*
X61350000Y-83425000D02*
X61350000Y-86430000D01*
X68530000Y-40110000D02*
X66395400Y-42244600D01*
X62412500Y-144275000D02*
X62412500Y-147825000D01*
X66112500Y-151525000D02*
X66112500Y-159625000D01*
X56587500Y-113425000D02*
X56587500Y-121525000D01*
X51825000Y-94375000D02*
X51825000Y-95001700D01*
X48125000Y-90675000D02*
X51825000Y-94375000D01*
X66395400Y-42244600D02*
X66395400Y-71886600D01*
X52887500Y-103537500D02*
X52887500Y-109725000D01*
X61350000Y-75325000D02*
X61350000Y-83425000D01*
X56853400Y-121525000D02*
X62412500Y-127084100D01*
X62412500Y-128775000D02*
X65081200Y-131443700D01*
X57650000Y-71625000D02*
X61350000Y-75325000D01*
X62412500Y-127084100D02*
X62412500Y-128775000D01*
X66395400Y-71886600D02*
X62957000Y-75325000D01*
%TO.N,RK01_D*%
X56952700Y-68822300D02*
X60138200Y-68822300D01*
X55850000Y-69925000D02*
X56952700Y-68822300D01*
X62650000Y-71334100D02*
X62650000Y-73725000D01*
X60138200Y-68822300D02*
X62650000Y-71334100D01*
X48950000Y-81325000D02*
X48950000Y-76825000D01*
X48950000Y-76825000D02*
X55850000Y-69925000D01*
%TO.N,R_ROW3*%
X83262500Y-126811700D02*
X78871400Y-122420600D01*
X216612500Y-127075000D02*
X215509200Y-125971700D01*
X197562500Y-127075000D02*
X196661800Y-126174300D01*
X75880400Y-107285200D02*
X75880400Y-93053100D01*
X83262500Y-126811700D02*
X83262500Y-127075000D01*
X178227200Y-125249200D02*
X178512500Y-125534500D01*
X82500000Y-67815300D02*
X82500000Y-39629400D01*
X215509200Y-125971700D02*
X198665800Y-125971700D01*
X121362500Y-127075000D02*
X123646400Y-127075000D01*
X63956800Y-126819300D02*
X63956800Y-125625700D01*
X75880400Y-93053100D02*
X83651800Y-85281700D01*
X78871400Y-110276200D02*
X75880400Y-107285200D01*
X105915200Y-127075000D02*
X107302400Y-125687800D01*
X83651800Y-68967100D02*
X82500000Y-67815300D01*
X123646400Y-127075000D02*
X125033600Y-125687800D01*
X158552400Y-127075000D02*
X158031000Y-126553600D01*
X85083200Y-38883200D02*
X86310000Y-40110000D01*
X82500000Y-39629400D02*
X83246200Y-38883200D01*
X178512500Y-125534500D02*
X178512500Y-127075000D01*
X102312500Y-127075000D02*
X105915200Y-127075000D01*
X196661800Y-126174300D02*
X196661800Y-125249200D01*
X140412500Y-126729300D02*
X140412500Y-127075000D01*
X83262500Y-126811700D02*
X84551000Y-126811700D01*
X83246200Y-38883200D02*
X85083200Y-38883200D01*
X198665800Y-125971700D02*
X197562500Y-127075000D01*
X83651800Y-85281700D02*
X83651800Y-68967100D01*
X159462500Y-127075000D02*
X158552400Y-127075000D01*
X64212500Y-127075000D02*
X63956800Y-126819300D01*
X139371000Y-125687800D02*
X140412500Y-126729300D01*
X78871400Y-122420600D02*
X78871400Y-110276200D01*
%TO.N,R_ROW0*%
X120379500Y-75070700D02*
X125033600Y-70416600D01*
X125033600Y-70416600D02*
X125033600Y-67804300D01*
X217110900Y-72004900D02*
X216612500Y-71506500D01*
X136799000Y-69925000D02*
X136997300Y-70123300D01*
X155125000Y-70350000D02*
X154700000Y-69925000D01*
X59450000Y-69925000D02*
X60195200Y-70670200D01*
X216612500Y-71506500D02*
X216612500Y-69925000D01*
X175094200Y-71930400D02*
X173750000Y-70586200D01*
X93138000Y-66564100D02*
X89571200Y-70130900D01*
X119215600Y-75070700D02*
X120379500Y-75070700D01*
X60195200Y-70670200D02*
X60760100Y-70670200D01*
X195181300Y-69925000D02*
X194175800Y-69925000D01*
X92660000Y-66086100D02*
X92660000Y-49000000D01*
X155125000Y-72004900D02*
X155125000Y-70350000D01*
X135650000Y-69925000D02*
X136799000Y-69925000D01*
X78587600Y-68395600D02*
X78500000Y-68483200D01*
X118222800Y-74077900D02*
X119215600Y-75070700D01*
X92660000Y-49000000D02*
X83770000Y-40110000D01*
X194175800Y-69925000D02*
X193381300Y-69130500D01*
X78500000Y-68483200D02*
X78500000Y-69925000D01*
X94189100Y-66564100D02*
X93138000Y-66564100D01*
X93138000Y-66564100D02*
X92660000Y-66086100D01*
X116600000Y-71830400D02*
X118222800Y-73453200D01*
X173750000Y-70586200D02*
X173750000Y-69925000D01*
X89571200Y-70130900D02*
X89571200Y-72672800D01*
X97550000Y-69925000D02*
X94189100Y-66564100D01*
X116600000Y-69925000D02*
X116600000Y-71830400D01*
X118222800Y-73453200D02*
X118222800Y-74077900D01*
%TO.N,R_ROW1*%
X69963600Y-86906300D02*
X69963600Y-87986400D01*
X214662500Y-88975000D02*
X214440400Y-88752900D01*
X69963600Y-87986400D02*
X68975000Y-88975000D01*
X107075000Y-88975000D02*
X105589400Y-88975000D01*
X67298800Y-56789700D02*
X67298800Y-78661700D01*
X66340000Y-86340000D02*
X68975000Y-88975000D01*
X49925000Y-87404700D02*
X50693500Y-86636200D01*
X67298800Y-78661700D02*
X66340000Y-79620500D01*
X145175000Y-89992100D02*
X145175000Y-88975000D01*
X165461600Y-90211600D02*
X164225000Y-88975000D01*
X88409800Y-90603400D02*
X88025000Y-90218600D01*
X190418800Y-88975000D02*
X189416300Y-88975000D01*
X77420000Y-39629400D02*
X77420000Y-46668500D01*
X145786300Y-90603400D02*
X145175000Y-89992100D01*
X165870300Y-90211600D02*
X165461600Y-90211600D01*
X78166200Y-38883200D02*
X77420000Y-39629400D01*
X66340000Y-79620500D02*
X66340000Y-86340000D01*
X124900400Y-89077000D02*
X126023000Y-89077000D01*
X80003200Y-38883200D02*
X78166200Y-38883200D01*
X49925000Y-88975000D02*
X49925000Y-87404700D01*
X126023000Y-89077000D02*
X126125000Y-88975000D01*
X216612500Y-88975000D02*
X214662500Y-88975000D01*
X189416300Y-88975000D02*
X189194200Y-88752900D01*
X105589400Y-88975000D02*
X105487400Y-89077000D01*
X81230000Y-40110000D02*
X80003200Y-38883200D01*
X77420000Y-46668500D02*
X67298800Y-56789700D01*
X88025000Y-90218600D02*
X88025000Y-88975000D01*
%TO.N,R_ROW2*%
X112034900Y-107827600D02*
X111837500Y-108025000D01*
X73934900Y-107827600D02*
X75203100Y-107827600D01*
X92787500Y-108025000D02*
X98239400Y-108025000D01*
X193520900Y-108745900D02*
X192800000Y-108025000D01*
X82032100Y-80561500D02*
X82032100Y-86037400D01*
X113614500Y-107827600D02*
X112034900Y-107827600D01*
X148805100Y-106849700D02*
X149937500Y-107982100D01*
X193520900Y-110523800D02*
X193520900Y-108745900D01*
X54687500Y-108025000D02*
X57056900Y-108025000D01*
X215359500Y-111074300D02*
X214285500Y-111074300D01*
X216612500Y-109821300D02*
X215359500Y-111074300D01*
X149937500Y-107982100D02*
X149937500Y-108025000D01*
X216612500Y-108025000D02*
X216612500Y-109821300D01*
X75203100Y-92866400D02*
X75203100Y-107827600D01*
X80427000Y-78956400D02*
X82032100Y-80561500D01*
X57056900Y-108025000D02*
X57079600Y-108002300D01*
X130394600Y-107532100D02*
X129339500Y-107532100D01*
X149937500Y-108025000D02*
X151073500Y-106889000D01*
X213012300Y-109801100D02*
X213012300Y-109546400D01*
X79960000Y-41380000D02*
X79960000Y-73947000D01*
X167851500Y-106889000D02*
X168987500Y-108025000D01*
X98239400Y-108025000D02*
X98436800Y-107827600D01*
X78690000Y-40110000D02*
X79960000Y-41380000D01*
X214285500Y-111074300D02*
X213012300Y-109801100D01*
X73737500Y-108025000D02*
X73934900Y-107827600D01*
X79960000Y-73947000D02*
X80427000Y-74414000D01*
X82032100Y-86037400D02*
X75203100Y-92866400D01*
X80427000Y-74414000D02*
X80427000Y-78956400D01*
X151073500Y-106889000D02*
X167851500Y-106889000D01*
X130887500Y-108025000D02*
X130394600Y-107532100D01*
%TO.N,R_ROW4*%
X215393900Y-145930700D02*
X215052400Y-145930700D01*
X66847100Y-77838000D02*
X66847100Y-46872900D01*
X64212500Y-144442100D02*
X65020800Y-144442100D01*
X121362500Y-145930700D02*
X122308400Y-144984800D01*
X159462500Y-144213500D02*
X159462500Y-146125000D01*
X103753000Y-146125000D02*
X103947300Y-145930700D01*
X160128000Y-143548000D02*
X159462500Y-144213500D01*
X64327800Y-86846000D02*
X64327800Y-80357300D01*
X67763900Y-141699000D02*
X67763900Y-137593700D01*
X67763900Y-137593700D02*
X65998500Y-135828300D01*
X64212500Y-144442100D02*
X64212500Y-146125000D01*
X59815100Y-120597700D02*
X59815100Y-109794600D01*
X197562500Y-147169700D02*
X197562500Y-146125000D01*
X197849800Y-147457000D02*
X197562500Y-147169700D01*
X83645600Y-143963700D02*
X83262500Y-144346800D01*
X121362500Y-145930700D02*
X120144200Y-145930700D01*
X59815100Y-109794600D02*
X56776900Y-106756400D01*
X66847100Y-46872900D02*
X73610000Y-40110000D01*
X139272300Y-144984800D02*
X140412500Y-146125000D01*
X64327800Y-80357300D02*
X66847100Y-77838000D01*
X178562500Y-146075000D02*
X179974100Y-146075000D01*
X56776900Y-106756400D02*
X56776900Y-94396900D01*
X65020800Y-144442100D02*
X67763900Y-141699000D01*
X215052400Y-145930700D02*
X215393900Y-145930700D01*
X178512500Y-146125000D02*
X178562500Y-146075000D01*
X122308400Y-144984800D02*
X139272300Y-144984800D01*
X121362500Y-146125000D02*
X121362500Y-145930700D01*
X83262500Y-144346800D02*
X83262500Y-146125000D01*
X65998500Y-126781100D02*
X59815100Y-120597700D01*
X56776900Y-94396900D02*
X64327800Y-86846000D01*
X102312500Y-146125000D02*
X103753000Y-146125000D01*
X216612500Y-146125000D02*
X216418200Y-145930700D01*
X216418200Y-145930700D02*
X215052400Y-145930700D01*
X63734100Y-143963700D02*
X64212500Y-144442100D01*
X65998500Y-135828300D02*
X65998500Y-126781100D01*
%TO.N,R_COL3*%
X105275000Y-90675000D02*
X108975000Y-94375000D01*
X118500000Y-86457000D02*
X110582000Y-94375000D01*
X114003400Y-121525000D02*
X119562500Y-127084100D01*
X110582000Y-94375000D02*
X108975000Y-94375000D01*
X110037500Y-103537500D02*
X108975000Y-102475000D01*
X110037500Y-109725000D02*
X110037500Y-103537500D01*
X114800000Y-71625000D02*
X118500000Y-75325000D01*
X118500000Y-75325000D02*
X118500000Y-83425000D01*
X118500000Y-83425000D02*
X118500000Y-86457000D01*
X123262500Y-132475000D02*
X123262500Y-140575000D01*
X119517500Y-144320000D02*
X119517500Y-147780000D01*
X123262500Y-159625000D02*
X123262500Y-151303000D01*
X123262500Y-151303000D02*
X119784500Y-147825000D01*
X112886400Y-112121300D02*
X112886400Y-120673900D01*
X112886400Y-120673900D02*
X113737500Y-121525000D01*
X119562500Y-128775000D02*
X123262500Y-132475000D01*
X123262500Y-140575000D02*
X119517500Y-144320000D01*
X119784500Y-147825000D02*
X119562500Y-147825000D01*
X119562500Y-127084100D02*
X119562500Y-128775000D01*
X108975000Y-94375000D02*
X108975000Y-102475000D01*
X113737500Y-121525000D02*
X114003400Y-121525000D01*
X119517500Y-147780000D02*
X119562500Y-147825000D01*
%TO.N,R_COL4*%
X138612500Y-128775000D02*
X142312500Y-132475000D01*
X129087500Y-108166200D02*
X129087500Y-109725000D01*
X138612500Y-127029300D02*
X138612500Y-128775000D01*
X128025000Y-102475000D02*
X128712800Y-103162800D01*
X136466300Y-84425600D02*
X136466300Y-87540700D01*
X128712800Y-107791600D02*
X129087400Y-108166200D01*
X137550000Y-80084800D02*
X137550000Y-83341900D01*
X142076400Y-147825000D02*
X142076400Y-140811100D01*
X128712800Y-103162800D02*
X128712800Y-107791600D01*
X137550000Y-75325000D02*
X133850000Y-71625000D01*
X137550000Y-80084800D02*
X137550000Y-75325000D01*
X124325000Y-90675000D02*
X128025000Y-94375000D01*
X142076400Y-140811100D02*
X142312500Y-140575000D01*
X142076400Y-147825000D02*
X138612500Y-147825000D01*
X132787500Y-113425000D02*
X129087500Y-109725000D01*
X137550000Y-83341900D02*
X136466300Y-84425600D01*
X142312500Y-159625000D02*
X142076400Y-159388900D01*
X137550000Y-83425000D02*
X137550000Y-80084800D01*
X129087400Y-108166200D02*
X129087500Y-108166200D01*
X133108200Y-121525000D02*
X138612500Y-127029300D01*
X128025000Y-94375000D02*
X128025000Y-102475000D01*
X129632000Y-94375000D02*
X128025000Y-94375000D01*
X136466300Y-87540700D02*
X129632000Y-94375000D01*
X132787500Y-121525000D02*
X132787500Y-113425000D01*
X142312500Y-132475000D02*
X142312500Y-140575000D01*
X132787500Y-121525000D02*
X133108200Y-121525000D01*
X142076400Y-159388900D02*
X142076400Y-147825000D01*
%TO.N,R_COL2*%
X99450000Y-83425000D02*
X94947800Y-87927200D01*
X104586400Y-140948900D02*
X104212500Y-140575000D01*
X94957500Y-121525000D02*
X94687500Y-121525000D01*
X100512500Y-147825000D02*
X102986300Y-147825000D01*
X86225000Y-90675000D02*
X89925000Y-94375000D01*
X104148900Y-146662400D02*
X104586400Y-146224900D01*
X102680400Y-73768200D02*
X102680400Y-80194600D01*
X89925000Y-94375000D02*
X89925000Y-102475000D01*
X104586400Y-146224900D02*
X104586400Y-140948900D01*
X90987500Y-109725000D02*
X94687500Y-113425000D01*
X89925000Y-102475000D02*
X90987500Y-103537500D01*
X107453200Y-156384300D02*
X107453200Y-149966800D01*
X94947800Y-87927200D02*
X94947800Y-97452200D01*
X94687500Y-113425000D02*
X94687500Y-121525000D01*
X104212500Y-159625000D02*
X107453200Y-156384300D01*
X100512500Y-127080000D02*
X94957500Y-121525000D01*
X102986300Y-147825000D02*
X104148900Y-146662400D01*
X95750000Y-71625000D02*
X100537200Y-71625000D01*
X104212500Y-132475000D02*
X100512500Y-128775000D01*
X100537200Y-71625000D02*
X102680400Y-73768200D01*
X102680400Y-80194600D02*
X99450000Y-83425000D01*
X100512500Y-128775000D02*
X100512500Y-127080000D01*
X90987500Y-103537500D02*
X90987500Y-109725000D01*
X107453200Y-149966800D02*
X104148900Y-146662400D01*
X104212500Y-140575000D02*
X104212500Y-132475000D01*
X94947800Y-97452200D02*
X89925000Y-102475000D01*
%TO.N,R_COL8*%
X218512500Y-102475000D02*
X217694800Y-102475000D01*
X217694800Y-103292700D02*
X214812500Y-106175000D01*
X218512500Y-75325000D02*
X218512500Y-83425000D01*
X216777400Y-128775000D02*
X218512500Y-127039900D01*
X218512500Y-140575000D02*
X214425700Y-144661800D01*
X218512500Y-83425000D02*
X218512500Y-88910500D01*
X214812500Y-147825000D02*
X218512500Y-151525000D01*
X221162500Y-112751400D02*
X221162500Y-105125000D01*
X218512500Y-151525000D02*
X218512500Y-159625000D01*
X221162500Y-105125000D02*
X218512500Y-102475000D01*
X218512500Y-127039900D02*
X218512500Y-121525000D01*
X215780300Y-91642700D02*
X214812500Y-90675000D01*
X214812400Y-146576900D02*
X214812500Y-146576900D01*
X214812500Y-128775000D02*
X216777400Y-128775000D01*
X214425700Y-144661800D02*
X214425700Y-146190200D01*
X218512500Y-115401400D02*
X221162500Y-112751400D01*
X218512500Y-88910500D02*
X215780300Y-91642700D01*
X214812500Y-106175000D02*
X214812500Y-109725000D01*
X217694800Y-93557300D02*
X217694800Y-102475000D01*
X214812500Y-146576900D02*
X214812500Y-147825000D01*
X218512500Y-140575000D02*
X218512500Y-132724600D01*
X217694800Y-102475000D02*
X217694800Y-103292700D01*
X214812500Y-71625000D02*
X218512500Y-75325000D01*
X218512500Y-132724600D02*
X216777400Y-130989500D01*
X218512500Y-121525000D02*
X218512500Y-115401400D01*
X215780300Y-91642700D02*
X217694800Y-93557300D01*
X214425700Y-146190200D02*
X214812400Y-146576900D01*
X216777400Y-130989500D02*
X216777400Y-128775000D01*
%TO.N,R_COL7*%
X202720600Y-143833100D02*
X199462500Y-140575000D01*
X191499500Y-109725000D02*
X191499500Y-103294300D01*
X199462500Y-140575000D02*
X199462500Y-132475000D01*
X197081300Y-83425000D02*
X197081300Y-91219500D01*
X193925800Y-94375000D02*
X192318800Y-94375000D01*
X195762500Y-144275000D02*
X199462500Y-140575000D01*
X195762500Y-122587500D02*
X194700000Y-121525000D01*
X193381300Y-71625000D02*
X197081300Y-75325000D01*
X197081300Y-75325000D02*
X197081300Y-83425000D01*
X195762500Y-128775000D02*
X195762500Y-122587500D01*
X86310000Y-61153400D02*
X91547600Y-66391000D01*
X199462500Y-159625000D02*
X202720600Y-156366900D01*
X191499500Y-109725000D02*
X191000000Y-109725000D01*
X199462500Y-132475000D02*
X195762500Y-128775000D01*
X86310000Y-57890000D02*
X86310000Y-61153400D01*
X191499500Y-103294300D02*
X192318800Y-102475000D01*
X192318800Y-94375000D02*
X192318800Y-102475000D01*
X197081300Y-91219500D02*
X193925800Y-94375000D01*
X202720600Y-156366900D02*
X202720600Y-143833100D01*
X194700000Y-121525000D02*
X194700000Y-112925500D01*
X195762500Y-147825000D02*
X195762500Y-144275000D01*
X188618800Y-90675000D02*
X192318800Y-94375000D01*
X194700000Y-112925500D02*
X191499500Y-109725000D01*
%TO.N,RK38_D*%
X79662500Y-146125000D02*
X72762500Y-153025000D01*
X79856800Y-145930700D02*
X79662500Y-146125000D01*
X81273400Y-145930700D02*
X79856800Y-145930700D01*
X72762500Y-153025000D02*
X72762500Y-157525000D01*
%TO.N,RK17_D*%
X191060000Y-87825300D02*
X187968500Y-87825300D01*
X179918800Y-95875000D02*
X186818800Y-88975000D01*
X193618800Y-90384100D02*
X191060000Y-87825300D01*
X187968500Y-87825300D02*
X186818800Y-88975000D01*
X179918800Y-100375000D02*
X179918800Y-95875000D01*
X193618800Y-92775000D02*
X193618800Y-90384100D01*
%TO.N,RK30_D*%
X91812500Y-138475000D02*
X91812500Y-135425300D01*
X98712500Y-128525300D02*
X98712500Y-127075000D01*
X91812500Y-135425300D02*
X98235900Y-129001900D01*
X98235900Y-129001900D02*
X98712500Y-128525300D01*
%TO.N,RK34_D*%
X174753500Y-129001900D02*
X174753500Y-127234000D01*
X174912500Y-127075000D02*
X168012500Y-133975000D01*
X174753500Y-127234000D02*
X174912500Y-127075000D01*
X168012500Y-133975000D02*
X168012500Y-138475000D01*
%TO.N,RK41_D*%
X136812500Y-147139200D02*
X136812500Y-146125000D01*
X136494700Y-147457000D02*
X136812500Y-147139200D01*
X129912500Y-157525000D02*
X129912500Y-154039200D01*
X129912500Y-154039200D02*
X136494700Y-147457000D01*
%TO.N,RK09_D*%
X206112500Y-81325000D02*
X206112500Y-76825000D01*
X217320800Y-68822300D02*
X214115200Y-68822300D01*
X206112500Y-76825000D02*
X213012500Y-69925000D01*
X219812500Y-73725000D02*
X219812500Y-71314000D01*
X214115200Y-68822300D02*
X213012500Y-69925000D01*
X219812500Y-71314000D02*
X217320800Y-68822300D01*
%TO.N,RK08_D*%
X184681300Y-76825000D02*
X191581300Y-69925000D01*
X191581300Y-69925000D02*
X193029900Y-68476400D01*
X193029900Y-68476400D02*
X195591600Y-68476400D01*
X195591600Y-68476400D02*
X198381300Y-71266100D01*
X198381300Y-71266100D02*
X198381300Y-73725000D01*
X184681300Y-81325000D02*
X184681300Y-76825000D01*
%TO.N,RK23_D*%
X127299400Y-109546400D02*
X127287500Y-109534500D01*
X120387500Y-114925000D02*
X120387500Y-119425000D01*
X127287500Y-109534500D02*
X127287500Y-108025000D01*
X127287500Y-108025000D02*
X120387500Y-114925000D01*
%TO.N,RK15_D*%
X141575000Y-88975000D02*
X134675000Y-95875000D01*
X145862200Y-87839400D02*
X142710600Y-87839400D01*
X148375000Y-90352200D02*
X145862200Y-87839400D01*
X134675000Y-95875000D02*
X134675000Y-100375000D01*
X142710600Y-87839400D02*
X141575000Y-88975000D01*
X148375000Y-92775000D02*
X148375000Y-90352200D01*
%TO.N,RK16_D*%
X164855900Y-87811300D02*
X167425000Y-90380400D01*
X153725000Y-95875000D02*
X160625000Y-88975000D01*
X153725000Y-100375000D02*
X153725000Y-95875000D01*
X161788700Y-87811300D02*
X164855900Y-87811300D01*
X167425000Y-90380400D02*
X167425000Y-92775000D01*
X160625000Y-88975000D02*
X161788700Y-87811300D01*
%TO.N,RK29_D*%
X79662500Y-128819100D02*
X79662500Y-127075000D01*
X72762500Y-133975000D02*
X79662500Y-127075000D01*
X79845300Y-129100700D02*
X79845300Y-129001900D01*
X79845300Y-129001900D02*
X79845300Y-129100700D01*
X72762500Y-138475000D02*
X72762500Y-133975000D01*
X79845300Y-129001900D02*
X79662500Y-128819100D01*
%TO.N,RK03_D*%
X93931300Y-71778800D02*
X95877500Y-73725000D01*
X87050000Y-78660100D02*
X93931300Y-71778800D01*
X87050000Y-81325000D02*
X87050000Y-78660100D01*
X93950000Y-69925000D02*
X93931300Y-69943700D01*
X93931300Y-69943700D02*
X93931300Y-71778800D01*
X95877500Y-73725000D02*
X100750000Y-73725000D01*
%TO.N,RK12_D*%
X77525000Y-100375000D02*
X77525000Y-95875000D01*
X91225000Y-92775000D02*
X91225000Y-90359100D01*
X91225000Y-90359100D02*
X88709000Y-87843100D01*
X85556900Y-87843100D02*
X84425000Y-88975000D01*
X77525000Y-95875000D02*
X84425000Y-88975000D01*
X88709000Y-87843100D02*
X85556900Y-87843100D01*
%TO.N,RK44_D*%
X187062500Y-154806300D02*
X191943700Y-149925100D01*
X187062500Y-157525000D02*
X187062500Y-154806300D01*
X193962500Y-149925100D02*
X193962500Y-149925000D01*
X193962500Y-149925000D02*
X200762500Y-149925000D01*
X191943700Y-149925100D02*
X193962500Y-149925100D01*
X193962500Y-149925000D02*
X193962500Y-146125000D01*
%TO.N,RK33_D*%
X162662500Y-130875000D02*
X162662500Y-128483600D01*
X157044500Y-125893000D02*
X155862500Y-127075000D01*
X160071900Y-125893000D02*
X157044500Y-125893000D01*
X162662500Y-128483600D02*
X160071900Y-125893000D01*
X148962500Y-133975000D02*
X148962500Y-138475000D01*
X155862500Y-127075000D02*
X148962500Y-133975000D01*
%TO.N,RK27_D*%
X206112500Y-119425000D02*
X206112500Y-116777400D01*
X212332300Y-111825000D02*
X212332300Y-108705200D01*
X212332300Y-108705200D02*
X213012500Y-108025000D01*
X212332300Y-111825100D02*
X212332300Y-111825000D01*
X206112500Y-116777400D02*
X211064800Y-111825100D01*
X212332300Y-111825000D02*
X219812500Y-111825000D01*
X211064800Y-111825100D02*
X212332300Y-111825100D01*
%TO.N,RK39_D*%
X91812500Y-154806300D02*
X96693700Y-149925100D01*
X91812500Y-157525000D02*
X91812500Y-154806300D01*
X98712500Y-149925000D02*
X105512500Y-149925000D01*
X98712500Y-149925100D02*
X98712500Y-149925000D01*
X98712500Y-146125000D02*
X98712500Y-149925000D01*
X96693700Y-149925100D02*
X98712500Y-149925100D01*
%TO.N,RK19_D*%
X44187500Y-116752100D02*
X50135300Y-110804300D01*
X44187500Y-119425000D02*
X44187500Y-116752100D01*
X50135300Y-110804300D02*
X50781800Y-110804300D01*
X50781800Y-108330700D02*
X51087500Y-108025000D01*
X50781800Y-110804300D02*
X50781800Y-108330700D01*
%TO.N,RK10_D*%
X46325000Y-90845600D02*
X46066700Y-91103900D01*
X46325000Y-88975000D02*
X46325000Y-90845600D01*
X39425000Y-97745600D02*
X46066700Y-91103900D01*
X39425000Y-100375000D02*
X39425000Y-97745600D01*
X46066700Y-91103900D02*
X48107400Y-93144700D01*
%TO.N,RK05_D*%
X125150000Y-81325000D02*
X125150000Y-76825000D01*
X125150000Y-76825000D02*
X132050000Y-69925000D01*
X136539800Y-68779500D02*
X133195500Y-68779500D01*
X138850000Y-73725000D02*
X138850000Y-71089700D01*
X133195500Y-68779500D02*
X132050000Y-69925000D01*
X138850000Y-71089700D02*
X136539800Y-68779500D01*
%TO.N,RK21_D*%
X89187500Y-108025000D02*
X89187500Y-110586800D01*
X82287500Y-119425000D02*
X82287500Y-114925000D01*
X82287500Y-114925000D02*
X89187500Y-108025000D01*
X89187500Y-110586800D02*
X90305500Y-111704800D01*
%TO.N,RK02_D*%
X74508800Y-72148300D02*
X74508800Y-70316200D01*
X74508800Y-70316200D02*
X74900000Y-69925000D01*
X68000000Y-78657100D02*
X74508800Y-72148300D01*
X68000000Y-81325000D02*
X68000000Y-78657100D01*
%TO.N,RK42_D*%
X154587600Y-149263200D02*
X155862500Y-149263200D01*
X148962500Y-157525000D02*
X148962500Y-154888300D01*
X148962500Y-154888300D02*
X154587600Y-149263200D01*
X162000700Y-149263200D02*
X162662500Y-149925000D01*
X155862500Y-149263200D02*
X155862500Y-146125000D01*
X155862500Y-149263200D02*
X162000700Y-149263200D01*
%TO.N,RK45_D*%
X206112500Y-157525000D02*
X206112500Y-153025000D01*
X213012500Y-146125000D02*
X213012500Y-147938900D01*
X206112500Y-153025000D02*
X213012500Y-146125000D01*
X213012500Y-147938900D02*
X215251600Y-150178000D01*
X215251600Y-150178000D02*
X216213300Y-150178000D01*
%TO.N,RK25_D*%
X165558200Y-109546400D02*
X165387500Y-109375700D01*
X158487500Y-114925000D02*
X165387500Y-108025000D01*
X165387500Y-109375700D02*
X165387500Y-108025000D01*
X158487500Y-119425000D02*
X158487500Y-114925000D01*
%TO.N,RK26_D*%
X191135300Y-111746100D02*
X189200000Y-109810800D01*
X182300000Y-114925000D02*
X189200000Y-108025000D01*
X192161500Y-111746100D02*
X191135300Y-111746100D01*
X182300000Y-119425000D02*
X182300000Y-114925000D01*
X189200000Y-109810800D02*
X189200000Y-108025000D01*
%TO.N,RK36_D*%
X206112500Y-138475000D02*
X206112500Y-135817600D01*
X212928200Y-129001900D02*
X213012300Y-129001900D01*
X206112500Y-135817600D02*
X212928200Y-129001900D01*
X213012300Y-129001900D02*
X213012300Y-127075200D01*
X213012300Y-127075200D02*
X213012500Y-127075000D01*
%TO.N,RK43_D*%
X174912500Y-146125000D02*
X174912500Y-149925000D01*
X174912500Y-149925100D02*
X174912500Y-149925000D01*
X172893700Y-149925100D02*
X174912500Y-149925100D01*
X174912500Y-149925000D02*
X181712500Y-149925000D01*
X168012500Y-154806300D02*
X172893700Y-149925100D01*
X168012500Y-157525000D02*
X168012500Y-154806300D01*
%TO.N,RK32_D*%
X136812500Y-128684100D02*
X136812500Y-127075000D01*
X136494700Y-129001900D02*
X136812500Y-128684100D01*
X129912500Y-138475000D02*
X129912500Y-133975000D01*
X129912500Y-133975000D02*
X136812500Y-127075000D01*
%TO.N,RK13_D*%
X110275000Y-92775000D02*
X110275000Y-90352200D01*
X110275000Y-90352200D02*
X107762200Y-87839400D01*
X104610600Y-87839400D02*
X103475000Y-88975000D01*
X96575000Y-95875000D02*
X96575000Y-100375000D01*
X103475000Y-88975000D02*
X96575000Y-95875000D01*
X107762200Y-87839400D02*
X104610600Y-87839400D01*
%TO.N,RK24_D*%
X145690000Y-108672500D02*
X146337500Y-108025000D01*
X145690000Y-110804300D02*
X145690000Y-108672500D01*
X139437500Y-114925000D02*
X146337500Y-108025000D01*
X139437500Y-119425000D02*
X139437500Y-114925000D01*
%TO.N,RK35_D*%
X193962500Y-127075000D02*
X193962500Y-129553800D01*
X187062500Y-133975000D02*
X193962500Y-127075000D01*
X187062500Y-138475000D02*
X187062500Y-133975000D01*
X193962500Y-129553800D02*
X195899400Y-131490700D01*
%TO.N,RK04_D*%
X119800000Y-71318100D02*
X117261400Y-68779500D01*
X106100000Y-76825000D02*
X106100000Y-81325000D01*
X119800000Y-73725000D02*
X119800000Y-71318100D01*
X117261400Y-68779500D02*
X114145500Y-68779500D01*
X113000000Y-69925000D02*
X106100000Y-76825000D01*
X114145500Y-68779500D02*
X113000000Y-69925000D01*
%TO.N,RK20_D*%
X70137500Y-109801700D02*
X70137500Y-108025000D01*
X76937500Y-111825000D02*
X76607100Y-111494600D01*
X76607100Y-111494600D02*
X71830400Y-111494600D01*
X63237500Y-119425000D02*
X63237500Y-114925000D01*
X71830400Y-111494600D02*
X70137500Y-109801700D01*
X63237500Y-114925000D02*
X70137500Y-108025000D01*
%TO.N,RK37_D*%
X53712500Y-153025000D02*
X60612500Y-146125000D01*
X60612500Y-147333400D02*
X60612500Y-146125000D01*
X53712500Y-157525000D02*
X53712500Y-153025000D01*
X60736100Y-147457000D02*
X60612500Y-147333400D01*
%TO.N,RK14_D*%
X129325000Y-90326000D02*
X129325000Y-92775000D01*
X123663400Y-87836600D02*
X126835600Y-87836600D01*
X126835600Y-87836600D02*
X129325000Y-90326000D01*
X115625000Y-100375000D02*
X115625000Y-95875000D01*
X122525000Y-88975000D02*
X123663400Y-87836600D01*
X115625000Y-95875000D02*
X122525000Y-88975000D01*
%TO.N,RK22_D*%
X101337500Y-114925000D02*
X108237500Y-108025000D01*
X114707100Y-111494600D02*
X109930400Y-111494600D01*
X101337500Y-119425000D02*
X101337500Y-114925000D01*
X108237500Y-109801700D02*
X108237500Y-108025000D01*
X115037500Y-111825000D02*
X114707100Y-111494600D01*
X109930400Y-111494600D02*
X108237500Y-109801700D01*
%TO.N,RK40_D*%
X117762500Y-150258700D02*
X117762500Y-146125000D01*
X110862500Y-157525000D02*
X110862500Y-154860100D01*
X110862500Y-154860100D02*
X115463900Y-150258700D01*
X115463900Y-150258700D02*
X117762500Y-150258700D01*
X117762500Y-150258700D02*
X121297900Y-150258700D01*
%TO.N,RK18_D*%
X206112500Y-100375000D02*
X206112500Y-97656300D01*
X213012500Y-92775100D02*
X213012500Y-88975000D01*
X213012500Y-92775100D02*
X213411000Y-92775100D01*
X210993700Y-92775100D02*
X213012500Y-92775100D01*
X213411000Y-92775100D02*
X213689600Y-93053700D01*
X206112500Y-97656300D02*
X210993700Y-92775100D01*
%TO.N,RK31_D*%
X118323700Y-129744300D02*
X117762500Y-129183100D01*
X110862500Y-133975000D02*
X117762500Y-127075000D01*
X117762500Y-129183100D02*
X117762500Y-127075000D01*
X110862500Y-138475000D02*
X110862500Y-133975000D01*
%TO.N,RK28_D*%
X60612500Y-128366500D02*
X60612500Y-127075000D01*
X53712500Y-138475000D02*
X53712500Y-133975000D01*
X53712500Y-133975000D02*
X60612500Y-127075000D01*
X59977100Y-129001900D02*
X60612500Y-128366500D01*
%TD*%
M02*
