M48
; DRILL file KiCad 10.0.3 date 2026-06-06T01:50:45
; FORMAT={-:-/ absolute / metric / decimal}
; #@! TF.CreationDate,2026-06-06T01:50:45+09:00
; #@! TF.GenerationSoftware,Kicad,Pcbnew,10.0.3
; #@! TF.FileFunction,Plated,1,2,PTH
FMAT,2
METRIC
; #@! TA.AperFunction,Plated,PTH,ViaDrill
T1C0.300
; #@! TA.AperFunction,Plated,PTH,ComponentDrill
T2C0.950
; #@! TA.AperFunction,Plated,PTH,ComponentDrill
T3C1.270
%
G90
G05
T1
X48.107Y-93.145
X50.694Y-86.636
X50.782Y-110.804
X57.08Y-108.002
X59.977Y-129.002
X60.736Y-147.457
X60.76Y-70.67
X63.734Y-143.964
X63.957Y-125.626
X65.313Y-90.603
X69.964Y-86.906
X74.509Y-72.148
X74.628Y-112.121
X75.203Y-107.828
X78.588Y-68.396
X79.845Y-129.002
X81.273Y-145.931
X83.646Y-143.964
X84.551Y-126.812
X88.41Y-90.603
X89.571Y-72.673
X90.305Y-111.705
X91.548Y-66.391
X98.236Y-129.002
X98.437Y-107.828
X103.947Y-145.931
X105.487Y-89.077
X107.302Y-125.688
X112.886Y-112.121
X113.614Y-107.828
X118.223Y-73.453
X118.324Y-129.744
X120.144Y-145.931
X121.298Y-150.259
X124.9Y-89.077
X125.034Y-67.804
X125.034Y-125.688
X127.299Y-109.546
X129.339Y-107.532
X136.495Y-129.002
X136.495Y-147.457
X136.997Y-70.123
X139.371Y-125.688
X145.69Y-110.804
X145.786Y-90.603
X148.805Y-106.85
X154.135Y-126.494
X155.125Y-72.005
X158.031Y-126.554
X160.128Y-143.548
X165.558Y-109.546
X165.87Y-90.212
X174.754Y-129.002
X175.094Y-71.93
X178.227Y-125.249
X179.974Y-146.075
X189.194Y-88.753
X192.161Y-111.746
X193.381Y-69.13
X193.521Y-110.524
X195.899Y-131.491
X196.662Y-125.249
X197.85Y-147.457
X213.012Y-109.546
X213.012Y-129.002
X213.69Y-93.054
X214.44Y-88.753
X215.052Y-145.931
X216.213Y-150.178
X217.111Y-72.005
T2
X68.53Y-40.11
X68.53Y-57.89
X71.07Y-40.11
X71.07Y-57.89
X73.61Y-40.11
X73.61Y-57.89
X76.15Y-40.11
X76.15Y-57.89
X78.69Y-40.11
X78.69Y-57.89
X81.23Y-40.11
X81.23Y-57.89
X83.77Y-40.11
X83.77Y-57.89
X86.31Y-40.11
X86.31Y-57.89
X88.85Y-40.11
X88.85Y-57.89
X91.39Y-40.11
X91.39Y-57.89
X93.93Y-40.11
X93.93Y-57.89
X96.47Y-40.11
X96.47Y-57.89
T3
X48.125Y-90.675
X52.887Y-109.725
X53.125Y-92.775
X57.65Y-71.625
X57.887Y-111.825
X62.412Y-128.775
X62.412Y-147.825
X62.65Y-73.725
X67.175Y-90.675
X67.412Y-130.875
X67.412Y-149.925
X71.938Y-109.725
X72.175Y-92.775
X76.7Y-71.625
X76.938Y-111.825
X81.462Y-128.775
X81.462Y-147.825
X81.7Y-73.725
X86.225Y-90.675
X86.462Y-130.875
X86.462Y-149.925
X90.987Y-109.725
X91.225Y-92.775
X95.75Y-71.625
X95.987Y-111.825
X100.512Y-128.775
X100.512Y-147.825
X100.75Y-73.725
X105.275Y-90.675
X105.512Y-130.875
X105.512Y-149.925
X110.037Y-109.725
X110.275Y-92.775
X114.8Y-71.625
X115.037Y-111.825
X119.562Y-128.775
X119.562Y-147.825
X119.8Y-73.725
X124.325Y-90.675
X124.562Y-130.875
X124.562Y-149.925
X129.088Y-109.725
X129.325Y-92.775
X133.85Y-71.625
X134.088Y-111.825
X138.612Y-128.775
X138.612Y-147.825
X138.85Y-73.725
X143.375Y-90.675
X143.612Y-130.875
X143.612Y-149.925
X148.137Y-109.725
X148.375Y-92.775
X152.9Y-71.625
X153.137Y-111.825
X157.662Y-128.775
X157.662Y-147.825
X157.9Y-73.725
X162.425Y-90.675
X162.662Y-130.875
X162.662Y-149.925
X167.188Y-109.725
X167.425Y-92.775
X171.95Y-71.625
X172.188Y-111.825
X176.713Y-128.775
X176.713Y-147.825
X176.95Y-73.725
X181.713Y-130.875
X181.713Y-149.925
X188.619Y-90.675
X191.0Y-109.725
X193.381Y-71.625
X193.619Y-92.775
X195.762Y-128.775
X195.762Y-147.825
X196.0Y-111.825
X198.381Y-73.725
X200.762Y-130.875
X200.762Y-149.925
X214.812Y-71.625
X214.812Y-90.675
X214.812Y-109.725
X214.812Y-128.775
X214.812Y-147.825
X219.812Y-73.725
X219.812Y-92.775
X219.812Y-111.825
X219.812Y-130.875
X219.812Y-149.925
M30
