%TF.GenerationSoftware,KiCad,Pcbnew,10.0.3*%
%TF.CreationDate,2026-06-06T08:41:42+09:00*%
%TF.ProjectId,kc2_right,6b63325f-7269-4676-9874-2e6b69636164,draft-1*%
%TF.SameCoordinates,Original*%
%TF.FileFunction,Copper,L1,Top*%
%TF.FilePolarity,Positive*%
%FSLAX46Y46*%
G04 Gerber Fmt 4.6, Leading zero omitted, Abs format (unit mm)*
G04 Created by KiCad (PCBNEW 10.0.3) date 2026-06-06 08:41:42*
%MOMM*%
%LPD*%
G01*
G04 APERTURE LIST*
%TA.AperFunction,ComponentPad*%
%ADD10C,2.000000*%
%TD*%
%TA.AperFunction,ComponentPad*%
%ADD11C,1.800000*%
%TD*%
%TA.AperFunction,SMDPad,CuDef*%
%ADD12R,1.750000X1.000000*%
%TD*%
%TA.AperFunction,ViaPad*%
%ADD13C,0.600000*%
%TD*%
%TA.AperFunction,Conductor*%
%ADD14C,0.250000*%
%TD*%
G04 APERTURE END LIST*
D10*
%TO.P,SW7,1*%
%TO.N,R_COL6*%
X171950000Y-71625000D03*
%TO.P,SW7,2*%
%TO.N,RK07_D*%
X176950000Y-73725000D03*
%TD*%
%TO.P,SW11,1*%
%TO.N,R_COL1*%
X67175000Y-90675000D03*
%TO.P,SW11,2*%
%TO.N,RK11_D*%
X72175000Y-92775000D03*
%TD*%
%TO.P,SW6,1*%
%TO.N,R_COL5*%
X152900000Y-71625000D03*
%TO.P,SW6,2*%
%TO.N,RK06_D*%
X157900000Y-73725000D03*
%TD*%
%TO.P,SW1,1*%
%TO.N,R_COL0*%
X57650000Y-71625000D03*
%TO.P,SW1,2*%
%TO.N,RK01_D*%
X62650000Y-73725000D03*
%TD*%
D11*
%TO.P,U1,D0*%
%TO.N,N/C*%
X93930000Y-40110000D03*
%TO.P,U1,D1*%
X96470000Y-40110000D03*
%TO.P,U1,D2*%
%TO.N,R_ROW3*%
X86310000Y-40110000D03*
%TO.P,U1,D3*%
%TO.N,R_ROW0*%
X83770000Y-40110000D03*
%TO.P,U1,D4*%
%TO.N,R_ROW1*%
X81230000Y-40110000D03*
%TO.P,U1,D5*%
%TO.N,R_ROW2*%
X78690000Y-40110000D03*
%TO.P,U1,D6*%
%TO.N,N/C*%
X76150000Y-40110000D03*
%TO.P,U1,D7*%
%TO.N,R_ROW4*%
X73610000Y-40110000D03*
%TO.P,U1,D8*%
%TO.N,N/C*%
X71070000Y-40110000D03*
%TO.P,U1,D9*%
%TO.N,R_COL0*%
X68530000Y-40110000D03*
%TO.P,U1,D10*%
%TO.N,R_COL1*%
X68530000Y-57890000D03*
%TO.P,U1,D14*%
%TO.N,R_COL3*%
X73610000Y-57890000D03*
%TO.P,U1,D15*%
%TO.N,R_COL4*%
X76150000Y-57890000D03*
%TO.P,U1,D16*%
%TO.N,R_COL2*%
X71070000Y-57890000D03*
%TO.P,U1,D18*%
%TO.N,R_COL5*%
X78690000Y-57890000D03*
%TO.P,U1,D19*%
%TO.N,R_COL6*%
X81230000Y-57890000D03*
%TO.P,U1,D20*%
%TO.N,R_COL8*%
X83770000Y-57890000D03*
%TO.P,U1,D21*%
%TO.N,R_COL7*%
X86310000Y-57890000D03*
%TO.P,U1,GND_A*%
%TO.N,N/C*%
X91390000Y-40110000D03*
%TO.P,U1,GND_B*%
X88850000Y-40110000D03*
%TO.P,U1,GND_C*%
%TO.N,GND*%
X93930000Y-57890000D03*
%TO.P,U1,RAW*%
%TO.N,N/C*%
X96470000Y-57890000D03*
%TO.P,U1,RST*%
%TO.N,RST*%
X91390000Y-57890000D03*
%TO.P,U1,VCC*%
%TO.N,N/C*%
X88850000Y-57890000D03*
%TD*%
D10*
%TO.P,SW38,1*%
%TO.N,R_COL1*%
X81462500Y-147825000D03*
%TO.P,SW38,2*%
%TO.N,RK38_D*%
X86462500Y-149925000D03*
%TD*%
%TO.P,SW17,1*%
%TO.N,R_COL7*%
X188618800Y-90675000D03*
%TO.P,SW17,2*%
%TO.N,RK17_D*%
X193618800Y-92775000D03*
%TD*%
%TO.P,SW30,1*%
%TO.N,R_COL2*%
X100512500Y-128775000D03*
%TO.P,SW30,2*%
%TO.N,RK30_D*%
X105512500Y-130875000D03*
%TD*%
%TO.P,SW34,1*%
%TO.N,R_COL6*%
X176712500Y-128775000D03*
%TO.P,SW34,2*%
%TO.N,RK34_D*%
X181712500Y-130875000D03*
%TD*%
%TO.P,SW41,1*%
%TO.N,R_COL4*%
X138612500Y-147825000D03*
%TO.P,SW41,2*%
%TO.N,RK41_D*%
X143612500Y-149925000D03*
%TD*%
%TO.P,SW9,1*%
%TO.N,R_COL8*%
X214812500Y-71625000D03*
%TO.P,SW9,2*%
%TO.N,RK09_D*%
X219812500Y-73725000D03*
%TD*%
%TO.P,SW8,1*%
%TO.N,R_COL7*%
X193381300Y-71625000D03*
%TO.P,SW8,2*%
%TO.N,RK08_D*%
X198381300Y-73725000D03*
%TD*%
%TO.P,SW23,1*%
%TO.N,R_COL4*%
X129087500Y-109725000D03*
%TO.P,SW23,2*%
%TO.N,RK23_D*%
X134087500Y-111825000D03*
%TD*%
%TO.P,SW15,1*%
%TO.N,R_COL5*%
X143375000Y-90675000D03*
%TO.P,SW15,2*%
%TO.N,RK15_D*%
X148375000Y-92775000D03*
%TD*%
%TO.P,SW16,1*%
%TO.N,R_COL6*%
X162425000Y-90675000D03*
%TO.P,SW16,2*%
%TO.N,RK16_D*%
X167425000Y-92775000D03*
%TD*%
%TO.P,SW29,1*%
%TO.N,R_COL1*%
X81462500Y-128775000D03*
%TO.P,SW29,2*%
%TO.N,RK29_D*%
X86462500Y-130875000D03*
%TD*%
%TO.P,SW3,1*%
%TO.N,R_COL2*%
X95750000Y-71625000D03*
%TO.P,SW3,2*%
%TO.N,RK03_D*%
X100750000Y-73725000D03*
%TD*%
%TO.P,SW12,1*%
%TO.N,R_COL2*%
X86225000Y-90675000D03*
%TO.P,SW12,2*%
%TO.N,RK12_D*%
X91225000Y-92775000D03*
%TD*%
%TO.P,SW44,1*%
%TO.N,R_COL7*%
X195762500Y-147825000D03*
%TO.P,SW44,2*%
%TO.N,RK44_D*%
X200762500Y-149925000D03*
%TD*%
%TO.P,SW33,1*%
%TO.N,R_COL5*%
X157662500Y-128775000D03*
%TO.P,SW33,2*%
%TO.N,RK33_D*%
X162662500Y-130875000D03*
%TD*%
%TO.P,SW27,1*%
%TO.N,R_COL8*%
X214812500Y-109725000D03*
%TO.P,SW27,2*%
%TO.N,RK27_D*%
X219812500Y-111825000D03*
%TD*%
%TO.P,SW39,1*%
%TO.N,R_COL2*%
X100512500Y-147825000D03*
%TO.P,SW39,2*%
%TO.N,RK39_D*%
X105512500Y-149925000D03*
%TD*%
%TO.P,SW19,1*%
%TO.N,R_COL0*%
X52887500Y-109725000D03*
%TO.P,SW19,2*%
%TO.N,RK19_D*%
X57887500Y-111825000D03*
%TD*%
%TO.P,SW10,1*%
%TO.N,R_COL0*%
X48125000Y-90675000D03*
%TO.P,SW10,2*%
%TO.N,RK10_D*%
X53125000Y-92775000D03*
%TD*%
%TO.P,SW5,1*%
%TO.N,R_COL4*%
X133850000Y-71625000D03*
%TO.P,SW5,2*%
%TO.N,RK05_D*%
X138850000Y-73725000D03*
%TD*%
%TO.P,SW21,1*%
%TO.N,R_COL2*%
X90987500Y-109725000D03*
%TO.P,SW21,2*%
%TO.N,RK21_D*%
X95987500Y-111825000D03*
%TD*%
%TO.P,SW2,1*%
%TO.N,R_COL1*%
X76700000Y-71625000D03*
%TO.P,SW2,2*%
%TO.N,RK02_D*%
X81700000Y-73725000D03*
%TD*%
%TO.P,SW42,1*%
%TO.N,R_COL5*%
X157662500Y-147825000D03*
%TO.P,SW42,2*%
%TO.N,RK42_D*%
X162662500Y-149925000D03*
%TD*%
%TO.P,SW45,1*%
%TO.N,R_COL8*%
X214812500Y-147825000D03*
%TO.P,SW45,2*%
%TO.N,RK45_D*%
X219812500Y-149925000D03*
%TD*%
%TO.P,SW25,1*%
%TO.N,R_COL6*%
X167187500Y-109725000D03*
%TO.P,SW25,2*%
%TO.N,RK25_D*%
X172187500Y-111825000D03*
%TD*%
%TO.P,SW26,1*%
%TO.N,R_COL7*%
X191000000Y-109725000D03*
%TO.P,SW26,2*%
%TO.N,RK26_D*%
X196000000Y-111825000D03*
%TD*%
%TO.P,SW36,1*%
%TO.N,R_COL8*%
X214812500Y-128775000D03*
%TO.P,SW36,2*%
%TO.N,RK36_D*%
X219812500Y-130875000D03*
%TD*%
D12*
%TO.P,SW_RST1,1*%
%TO.N,RST*%
X92825000Y-62150000D03*
%TO.P,SW_RST1,2*%
%TO.N,GND*%
X100575000Y-62150000D03*
%TD*%
D10*
%TO.P,SW43,1*%
%TO.N,R_COL6*%
X176712500Y-147825000D03*
%TO.P,SW43,2*%
%TO.N,RK43_D*%
X181712500Y-149925000D03*
%TD*%
%TO.P,SW32,1*%
%TO.N,R_COL4*%
X138612500Y-128775000D03*
%TO.P,SW32,2*%
%TO.N,RK32_D*%
X143612500Y-130875000D03*
%TD*%
%TO.P,SW13,1*%
%TO.N,R_COL3*%
X105275000Y-90675000D03*
%TO.P,SW13,2*%
%TO.N,RK13_D*%
X110275000Y-92775000D03*
%TD*%
%TO.P,SW24,1*%
%TO.N,R_COL5*%
X148137500Y-109725000D03*
%TO.P,SW24,2*%
%TO.N,RK24_D*%
X153137500Y-111825000D03*
%TD*%
%TO.P,SW35,1*%
%TO.N,R_COL7*%
X195762500Y-128775000D03*
%TO.P,SW35,2*%
%TO.N,RK35_D*%
X200762500Y-130875000D03*
%TD*%
%TO.P,SW4,1*%
%TO.N,R_COL3*%
X114800000Y-71625000D03*
%TO.P,SW4,2*%
%TO.N,RK04_D*%
X119800000Y-73725000D03*
%TD*%
%TO.P,SW20,1*%
%TO.N,R_COL1*%
X71937500Y-109725000D03*
%TO.P,SW20,2*%
%TO.N,RK20_D*%
X76937500Y-111825000D03*
%TD*%
%TO.P,SW37,1*%
%TO.N,R_COL0*%
X62412500Y-147825000D03*
%TO.P,SW37,2*%
%TO.N,RK37_D*%
X67412500Y-149925000D03*
%TD*%
%TO.P,SW14,1*%
%TO.N,R_COL4*%
X124325000Y-90675000D03*
%TO.P,SW14,2*%
%TO.N,RK14_D*%
X129325000Y-92775000D03*
%TD*%
%TO.P,SW22,1*%
%TO.N,R_COL3*%
X110037500Y-109725000D03*
%TO.P,SW22,2*%
%TO.N,RK22_D*%
X115037500Y-111825000D03*
%TD*%
%TO.P,SW40,1*%
%TO.N,R_COL3*%
X119562500Y-147825000D03*
%TO.P,SW40,2*%
%TO.N,RK40_D*%
X124562500Y-149925000D03*
%TD*%
%TO.P,SW18,1*%
%TO.N,R_COL8*%
X214812500Y-90675000D03*
%TO.P,SW18,2*%
%TO.N,RK18_D*%
X219812500Y-92775000D03*
%TD*%
%TO.P,SW31,1*%
%TO.N,R_COL3*%
X119562500Y-128775000D03*
%TO.P,SW31,2*%
%TO.N,RK31_D*%
X124562500Y-130875000D03*
%TD*%
%TO.P,SW28,1*%
%TO.N,R_COL0*%
X62412500Y-128775000D03*
%TO.P,SW28,2*%
%TO.N,RK28_D*%
X67412500Y-130875000D03*
%TD*%
D13*
%TO.N,R_COL1*%
X74627600Y-112121300D03*
%TO.N,RK11_D*%
X65313500Y-90603400D03*
%TO.N,R_COL5*%
X154134800Y-126494500D03*
%TO.N,R_ROW3*%
X107302400Y-125687800D03*
X63956800Y-125625700D03*
X196661800Y-125249200D03*
X125033600Y-125687800D03*
X158031000Y-126553600D03*
X84551000Y-126811700D03*
X139371000Y-125687800D03*
X178227200Y-125249200D03*
%TO.N,R_ROW0*%
X60760100Y-70670200D03*
X125033600Y-67804300D03*
X193381300Y-69130500D03*
X78587600Y-68395600D03*
X175094200Y-71930400D03*
X155125000Y-72004900D03*
X136997300Y-70123300D03*
X118222800Y-73453200D03*
X89571200Y-72672800D03*
X217110900Y-72004900D03*
%TO.N,R_ROW1*%
X145786300Y-90603400D03*
X105487400Y-89077000D03*
X124900400Y-89077000D03*
X189194200Y-88752900D03*
X88409800Y-90603400D03*
X165870300Y-90211600D03*
X69963600Y-86906300D03*
X214440400Y-88752900D03*
X50693500Y-86636200D03*
%TO.N,R_ROW2*%
X57079600Y-108002300D03*
X75203100Y-107827600D03*
X213012300Y-109546400D03*
X148805100Y-106849700D03*
X113614500Y-107827600D03*
X193520900Y-110523800D03*
X129339500Y-107532100D03*
X98436800Y-107827600D03*
%TO.N,R_ROW4*%
X103947300Y-145930700D03*
X197849800Y-147457000D03*
X63734100Y-143963700D03*
X179974100Y-146075000D03*
X160128000Y-143548000D03*
X120144200Y-145930700D03*
X83645600Y-143963700D03*
X215052400Y-145930700D03*
%TO.N,R_COL3*%
X112886400Y-112121300D03*
%TO.N,R_COL7*%
X91547600Y-66391000D03*
%TO.N,RK38_D*%
X81273400Y-145930700D03*
%TO.N,RK30_D*%
X98235900Y-129001900D03*
%TO.N,RK34_D*%
X174753500Y-129001900D03*
%TO.N,RK41_D*%
X136494700Y-147457000D03*
%TO.N,RK23_D*%
X127299400Y-109546400D03*
%TO.N,RK29_D*%
X79845300Y-129001900D03*
%TO.N,RK19_D*%
X50781800Y-110804300D03*
%TO.N,RK10_D*%
X48107400Y-93144700D03*
%TO.N,RK21_D*%
X90305500Y-111704800D03*
%TO.N,RK02_D*%
X74508800Y-72148300D03*
%TO.N,RK45_D*%
X216213300Y-150178000D03*
%TO.N,RK25_D*%
X165558200Y-109546400D03*
%TO.N,RK26_D*%
X192161500Y-111746100D03*
%TO.N,RK36_D*%
X213012300Y-129001900D03*
%TO.N,RK32_D*%
X136494700Y-129001900D03*
%TO.N,RK24_D*%
X145690000Y-110804300D03*
%TO.N,RK35_D*%
X195899400Y-131490700D03*
%TO.N,RK37_D*%
X60736100Y-147457000D03*
%TO.N,RK40_D*%
X121297900Y-150258700D03*
%TO.N,RK18_D*%
X213689600Y-93053700D03*
%TO.N,RK31_D*%
X118323700Y-129744300D03*
%TO.N,RK28_D*%
X59977100Y-129001900D03*
%TD*%
%TO.N,R_COL6*%
D14*
X167502600Y-67177600D02*
X90517600Y-67177600D01*
X171950000Y-71625000D02*
X167502600Y-67177600D01*
X90517600Y-67177600D02*
X81230000Y-57890000D01*
%TO.N,R_COL1*%
X74333800Y-112121300D02*
X74627600Y-112121300D01*
X71937500Y-109725000D02*
X74333800Y-112121300D01*
%TO.N,RK11_D*%
X72175000Y-92775000D02*
X67372400Y-92775000D01*
X65313500Y-90716100D02*
X65313500Y-90603400D01*
X67372400Y-92775000D02*
X65313500Y-90716100D01*
%TO.N,R_COL5*%
X156415300Y-128775000D02*
X154134800Y-126494500D01*
X157662500Y-128775000D02*
X156415300Y-128775000D01*
X137533400Y-71625000D02*
X152900000Y-71625000D01*
X78690000Y-57890000D02*
X89343200Y-68543200D01*
X89343200Y-68543200D02*
X134451600Y-68543200D01*
X134451600Y-68543200D02*
X137533400Y-71625000D01*
%TO.N,R_ROW3*%
X157165200Y-125687800D02*
X158031000Y-126553600D01*
X158031000Y-126553600D02*
X176922800Y-126553600D01*
X139371000Y-125687800D02*
X157165200Y-125687800D01*
X107302400Y-125687800D02*
X125033600Y-125687800D01*
X106178500Y-126811700D02*
X107302400Y-125687800D01*
X176922800Y-126553600D02*
X178227200Y-125249200D01*
X84551000Y-126811700D02*
X106178500Y-126811700D01*
X63956800Y-125625700D02*
X83365000Y-125625700D01*
X125033600Y-125687800D02*
X139371000Y-125687800D01*
X83365000Y-125625700D02*
X84551000Y-126811700D01*
X196661800Y-125249200D02*
X178227200Y-125249200D01*
%TO.N,R_ROW0*%
X155125000Y-72004900D02*
X155125000Y-71912400D01*
X60760100Y-70670200D02*
X63034700Y-68395600D01*
X158668000Y-72004900D02*
X155125000Y-72004900D01*
X194708000Y-72174700D02*
X194708000Y-70457200D01*
X191810400Y-71930400D02*
X192831700Y-72951700D01*
X153335900Y-70123300D02*
X136997300Y-70123300D01*
X194708000Y-70457200D02*
X193381300Y-69130500D01*
X193931000Y-72951700D02*
X194708000Y-72174700D01*
X89571200Y-72672800D02*
X82864800Y-72672800D01*
X96913700Y-72954600D02*
X89853000Y-72954600D01*
X175094200Y-71930400D02*
X174028500Y-72996100D01*
X82864800Y-72672800D02*
X78587600Y-68395600D01*
X125033600Y-67804300D02*
X134678300Y-67804300D01*
X174028500Y-72996100D02*
X159659200Y-72996100D01*
X118222800Y-73453200D02*
X102966100Y-73453200D01*
X134678300Y-67804300D02*
X136997300Y-70123300D01*
X101902800Y-72389900D02*
X97478400Y-72389900D01*
X159659200Y-72996100D02*
X158668000Y-72004900D01*
X216164100Y-72951700D02*
X217110900Y-72004900D01*
X193381300Y-69130500D02*
X210441700Y-69130500D01*
X175094200Y-71930400D02*
X191810400Y-71930400D01*
X210441700Y-69130500D02*
X214262900Y-72951700D01*
X63034700Y-68395600D02*
X78587600Y-68395600D01*
X89853000Y-72954600D02*
X89571200Y-72672800D01*
X192831700Y-72951700D02*
X193931000Y-72951700D01*
X214262900Y-72951700D02*
X216164100Y-72951700D01*
X155125000Y-71912400D02*
X153335900Y-70123300D01*
X97478400Y-72389900D02*
X96913700Y-72954600D01*
X102966100Y-73453200D02*
X101902800Y-72389900D01*
%TO.N,R_ROW1*%
X147089800Y-89299900D02*
X145786300Y-90603400D01*
X105487400Y-89077000D02*
X124900400Y-89077000D01*
X105487400Y-89077000D02*
X88409800Y-89077000D01*
X124900400Y-89077000D02*
X144259900Y-89077000D01*
X72134300Y-89077000D02*
X69963600Y-86906300D01*
X165870300Y-89299900D02*
X147089800Y-89299900D01*
X165870300Y-89299900D02*
X165870300Y-90211600D01*
X144259900Y-89077000D02*
X145786300Y-90603400D01*
X166417300Y-88752900D02*
X165870300Y-89299900D01*
X88409800Y-89077000D02*
X88409800Y-90603400D01*
X69693500Y-86636200D02*
X69963600Y-86906300D01*
X189194200Y-88752900D02*
X166417300Y-88752900D01*
X88409800Y-89077000D02*
X72134300Y-89077000D01*
X214440400Y-88752900D02*
X189194200Y-88752900D01*
X50693500Y-86636200D02*
X69693500Y-86636200D01*
%TO.N,R_ROW2*%
X193520900Y-110523800D02*
X192970100Y-111074600D01*
X75203100Y-107827600D02*
X98436800Y-107827600D01*
X194498300Y-109546400D02*
X193520900Y-110523800D01*
X113910000Y-107532100D02*
X129339500Y-107532100D01*
X98436800Y-107827600D02*
X113614500Y-107827600D01*
X184517500Y-106849700D02*
X148805100Y-106849700D01*
X213012300Y-109546400D02*
X194498300Y-109546400D01*
X57254300Y-107827600D02*
X75203100Y-107827600D01*
X129339500Y-107532100D02*
X148122700Y-107532100D01*
X57079600Y-108002300D02*
X57254300Y-107827600D01*
X188742400Y-111074600D02*
X184517500Y-106849700D01*
X148122700Y-107532100D02*
X148805100Y-106849700D01*
X113614500Y-107827600D02*
X113910000Y-107532100D01*
X192970100Y-111074600D02*
X188742400Y-111074600D01*
%TO.N,R_ROW4*%
X199376100Y-145930700D02*
X197849800Y-147457000D01*
X196467800Y-146075000D02*
X197849800Y-147457000D01*
X103947300Y-145930700D02*
X120144200Y-145930700D01*
X85612600Y-145930700D02*
X83645600Y-143963700D01*
X179974100Y-146075000D02*
X196467800Y-146075000D01*
X215052400Y-145930700D02*
X215393900Y-145930700D01*
X215393900Y-145930700D02*
X215052400Y-145930700D01*
X160128000Y-145930700D02*
X160128000Y-143548000D01*
X83645600Y-143963700D02*
X63734100Y-143963700D01*
X215052400Y-145930700D02*
X199376100Y-145930700D01*
X160128000Y-145930700D02*
X179829800Y-145930700D01*
X179829800Y-145930700D02*
X179974100Y-146075000D01*
X120144200Y-145930700D02*
X160128000Y-145930700D01*
X103947300Y-145930700D02*
X85612600Y-145930700D01*
%TO.N,R_COL3*%
X113313100Y-70138100D02*
X85858100Y-70138100D01*
X114800000Y-71625000D02*
X113313100Y-70138100D01*
X112433800Y-112121300D02*
X112886400Y-112121300D01*
X85858100Y-70138100D02*
X73610000Y-57890000D01*
X110037500Y-109725000D02*
X112433800Y-112121300D01*
%TO.N,R_COL4*%
X133850000Y-71625000D02*
X131858300Y-69633300D01*
X87893300Y-69633300D02*
X76150000Y-57890000D01*
X131858300Y-69633300D02*
X87893300Y-69633300D01*
%TO.N,R_COL2*%
X95750000Y-71625000D02*
X84805000Y-71625000D01*
X84805000Y-71625000D02*
X71070000Y-57890000D01*
%TO.N,R_COL8*%
X214812500Y-71625000D02*
X208196500Y-65009000D01*
X208196500Y-65009000D02*
X90889000Y-65009000D01*
X90889000Y-65009000D02*
X83770000Y-57890000D01*
%TO.N,R_COL7*%
X188147300Y-66391000D02*
X193381300Y-71625000D01*
X91547600Y-66391000D02*
X188147300Y-66391000D01*
%TO.N,GND*%
X100575000Y-62150000D02*
X98190000Y-62150000D01*
X98190000Y-62150000D02*
X93930000Y-57890000D01*
%TO.N,RST*%
X91390000Y-59888300D02*
X91390000Y-57890000D01*
X92825000Y-61323300D02*
X91390000Y-59888300D01*
X92825000Y-62150000D02*
X92825000Y-61323300D01*
%TO.N,RK38_D*%
X86462500Y-149925000D02*
X82468200Y-145930700D01*
X82468200Y-145930700D02*
X81273400Y-145930700D01*
%TO.N,RK30_D*%
X105512500Y-130875000D02*
X100109000Y-130875000D01*
X100109000Y-130875000D02*
X98235900Y-129001900D01*
%TO.N,RK34_D*%
X176626600Y-130875000D02*
X174753500Y-129001900D01*
X174753500Y-129001900D02*
X176626600Y-130875000D01*
X176626600Y-130875000D02*
X174753500Y-129001900D01*
X181712500Y-130875000D02*
X176626600Y-130875000D01*
%TO.N,RK41_D*%
X143612500Y-149925000D02*
X138821300Y-149925000D01*
X138821300Y-149925000D02*
X136494700Y-147598400D01*
X136494700Y-147598400D02*
X136494700Y-147457000D01*
%TO.N,RK23_D*%
X134087500Y-111825000D02*
X129282800Y-111825000D01*
X127299400Y-109841600D02*
X127299400Y-109546400D01*
X129282800Y-111825000D02*
X127299400Y-109841600D01*
%TO.N,RK29_D*%
X79845300Y-129100700D02*
X79845300Y-129001900D01*
X86462500Y-130875000D02*
X81619600Y-130875000D01*
X81619600Y-130875000D02*
X79845300Y-129100700D01*
X79845300Y-129100700D02*
X79845300Y-129001900D01*
X79845300Y-129001900D02*
X79845300Y-129100700D01*
%TO.N,RK19_D*%
X51802500Y-111825000D02*
X50781800Y-110804300D01*
X57887500Y-111825000D02*
X51802500Y-111825000D01*
%TO.N,RK10_D*%
X52755300Y-93144700D02*
X53125000Y-92775000D01*
X48107400Y-93144700D02*
X52755300Y-93144700D01*
%TO.N,RK21_D*%
X95987500Y-111825000D02*
X95867300Y-111704800D01*
X95867300Y-111704800D02*
X90305500Y-111704800D01*
%TO.N,RK02_D*%
X81700000Y-73725000D02*
X76085500Y-73725000D01*
X76085500Y-73725000D02*
X74508800Y-72148300D01*
%TO.N,RK45_D*%
X216213300Y-150178000D02*
X219559500Y-150178000D01*
X219559500Y-150178000D02*
X219812500Y-149925000D01*
%TO.N,RK25_D*%
X172187500Y-111825000D02*
X167382800Y-111825000D01*
X165558200Y-110000400D02*
X165558200Y-109546400D01*
X167382800Y-111825000D02*
X165558200Y-110000400D01*
%TO.N,RK26_D*%
X196000000Y-111825000D02*
X192240400Y-111825000D01*
X192240400Y-111825000D02*
X192161500Y-111746100D01*
%TO.N,RK36_D*%
X219812500Y-130875000D02*
X214885400Y-130875000D01*
X214885400Y-130875000D02*
X213012300Y-129001900D01*
%TO.N,RK32_D*%
X143612500Y-130875000D02*
X138367800Y-130875000D01*
X138367800Y-130875000D02*
X136494700Y-129001900D01*
%TO.N,RK24_D*%
X146710700Y-111825000D02*
X145690000Y-110804300D01*
X153137500Y-111825000D02*
X146710700Y-111825000D01*
%TO.N,RK35_D*%
X200146800Y-131490700D02*
X200762500Y-130875000D01*
X195899400Y-131490700D02*
X200146800Y-131490700D01*
%TO.N,RK37_D*%
X67412500Y-149925000D02*
X62614400Y-149925000D01*
X60736100Y-148046700D02*
X60736100Y-147457000D01*
X62614400Y-149925000D02*
X60736100Y-148046700D01*
%TO.N,RK40_D*%
X124228800Y-150258700D02*
X121297900Y-150258700D01*
X124562500Y-149925000D02*
X124228800Y-150258700D01*
%TO.N,RK18_D*%
X213968300Y-92775000D02*
X219812500Y-92775000D01*
X213689600Y-93053700D02*
X213968300Y-92775000D01*
%TO.N,RK31_D*%
X119454400Y-130875000D02*
X118323700Y-129744300D01*
X124562500Y-130875000D02*
X119454400Y-130875000D01*
%TO.N,RK28_D*%
X67412500Y-130875000D02*
X61850200Y-130875000D01*
X61850200Y-130875000D02*
X59977100Y-129001900D01*
%TD*%
M02*
