%TF.GenerationSoftware,KiCad,Pcbnew,10.0.3*%
%TF.CreationDate,2026-06-08T15:47:45+09:00*%
%TF.ProjectId,kc2_right,6b63325f-7269-4676-9874-2e6b69636164,draft-1*%
%TF.SameCoordinates,Original*%
%TF.FileFunction,Soldermask,Bot*%
%TF.FilePolarity,Negative*%
%FSLAX46Y46*%
G04 Gerber Fmt 4.6, Leading zero omitted, Abs format (unit mm)*
G04 Created by KiCad (PCBNEW 10.0.3) date 2026-06-08 15:47:45*
%MOMM*%
%LPD*%
G01*
G04 APERTURE LIST*
G04 Aperture macros list*
%AMRoundRect*
0 Rectangle with rounded corners*
0 $1 Rounding radius*
0 $2 $3 $4 $5 $6 $7 $8 $9 X,Y pos of 4 corners*
0 Add a 4 corners polygon primitive as box body*
4,1,4,$2,$3,$4,$5,$6,$7,$8,$9,$2,$3,0*
0 Add four circle primitives for the rounded corners*
1,1,$1+$1,$2,$3*
1,1,$1+$1,$4,$5*
1,1,$1+$1,$6,$7*
1,1,$1+$1,$8,$9*
0 Add four rect primitives between the rounded corners*
20,1,$1+$1,$2,$3,$4,$5,0*
20,1,$1+$1,$4,$5,$6,$7,0*
20,1,$1+$1,$6,$7,$8,$9,0*
20,1,$1+$1,$8,$9,$2,$3,0*%
G04 Aperture macros list end*
%ADD10C,3.000000*%
%ADD11O,3.600000X2.200000*%
%ADD12C,1.701800*%
%ADD13C,3.429000*%
%ADD14C,2.000000*%
%ADD15RoundRect,0.520000X-0.780000X-0.780000X0.780000X-0.780000X0.780000X0.780000X-0.780000X0.780000X0*%
%ADD16RoundRect,0.252000X0.448000X0.523000X-0.448000X0.523000X-0.448000X-0.523000X0.448000X-0.523000X0*%
G04 APERTURE END LIST*
D10*
%TO.C,REG4*%
X54380000Y-127170000D03*
%TD*%
D11*
%TO.C,BAT_LEAD_SLOT1*%
X66629999Y-49000000D03*
%TD*%
D12*
%TO.C,SW18*%
X209312500Y-96575000D03*
D10*
X209812500Y-100375000D03*
D13*
X214812500Y-96575000D03*
D10*
X214812500Y-102475000D03*
D12*
X220312500Y-96575000D03*
D14*
X214812500Y-90675000D03*
D15*
X218512500Y-102475000D03*
X206112500Y-100375000D03*
D14*
X219812500Y-92775000D03*
%TD*%
D12*
%TO.C,SW10*%
X42625000Y-96575000D03*
D10*
X43125000Y-100375000D03*
D13*
X48125000Y-96575000D03*
D10*
X48125000Y-102475000D03*
D12*
X53625000Y-96575000D03*
D14*
X48125000Y-90675000D03*
D15*
X51825000Y-102475000D03*
X39425000Y-100375000D03*
D14*
X53125000Y-92775000D03*
%TD*%
D12*
%TO.C,SW16*%
X156925000Y-96575000D03*
D10*
X157425000Y-100375000D03*
D13*
X162425000Y-96575000D03*
D10*
X162425000Y-102475000D03*
D12*
X167925000Y-96575000D03*
D14*
X162425000Y-90675000D03*
D15*
X166125000Y-102475000D03*
X153725000Y-100375000D03*
D14*
X167425000Y-92775000D03*
%TD*%
D12*
%TO.C,SW40*%
X114062500Y-153725000D03*
D10*
X114562500Y-157525000D03*
D13*
X119562500Y-153725000D03*
D10*
X119562500Y-159625000D03*
D12*
X125062500Y-153725000D03*
D14*
X119562500Y-147825000D03*
D15*
X123262500Y-159625000D03*
X110862500Y-157525000D03*
D14*
X124562500Y-149925000D03*
%TD*%
D12*
%TO.C,SW32*%
X133112500Y-134675000D03*
D10*
X133612500Y-138475000D03*
D13*
X138612500Y-134675000D03*
D10*
X138612500Y-140575000D03*
D12*
X144112500Y-134675000D03*
D14*
X138612500Y-128775000D03*
D15*
X142312500Y-140575000D03*
X129912500Y-138475000D03*
D14*
X143612500Y-130875000D03*
%TD*%
D12*
%TO.C,SW13*%
X99775000Y-96575000D03*
D10*
X100275000Y-100375000D03*
D13*
X105275000Y-96575000D03*
D10*
X105275000Y-102475000D03*
D12*
X110775000Y-96575000D03*
D14*
X105275000Y-90675000D03*
D15*
X108975000Y-102475000D03*
X96575000Y-100375000D03*
D14*
X110275000Y-92775000D03*
%TD*%
D12*
%TO.C,SW4*%
X109300000Y-77525000D03*
D10*
X109800000Y-81325000D03*
D13*
X114800000Y-77525000D03*
D10*
X114800000Y-83425000D03*
D12*
X120300000Y-77525000D03*
D14*
X114800000Y-71625000D03*
D15*
X118500000Y-83425000D03*
X106100000Y-81325000D03*
D14*
X119800000Y-73725000D03*
%TD*%
D12*
%TO.C,SW26*%
X185500000Y-115625000D03*
D10*
X186000000Y-119425000D03*
D13*
X191000000Y-115625000D03*
D10*
X191000000Y-121525000D03*
D12*
X196500000Y-115625000D03*
D14*
X191000000Y-109725000D03*
D15*
X194700000Y-121525000D03*
X182300000Y-119425000D03*
D14*
X196000000Y-111825000D03*
%TD*%
D12*
%TO.C,SW25*%
X161687500Y-115625000D03*
D10*
X162187500Y-119425000D03*
D13*
X167187500Y-115625000D03*
D10*
X167187500Y-121525000D03*
D12*
X172687500Y-115625000D03*
D14*
X167187500Y-109725000D03*
D15*
X170887500Y-121525000D03*
X158487500Y-119425000D03*
D14*
X172187500Y-111825000D03*
%TD*%
D12*
%TO.C,SW7*%
X166450000Y-77525000D03*
D10*
X166950000Y-81325000D03*
D13*
X171950000Y-77525000D03*
D10*
X171950000Y-83425000D03*
D12*
X177450000Y-77525000D03*
D14*
X171950000Y-71625000D03*
D15*
X175650000Y-83425000D03*
X163250000Y-81325000D03*
D14*
X176950000Y-73725000D03*
%TD*%
D12*
%TO.C,SW2*%
X71200000Y-77525000D03*
D10*
X71700000Y-81325000D03*
D13*
X76700000Y-77525000D03*
D10*
X76700000Y-83425000D03*
D12*
X82200000Y-77525000D03*
D14*
X76700000Y-71625000D03*
D15*
X80400000Y-83425000D03*
X68000000Y-81325000D03*
D14*
X81700000Y-73725000D03*
%TD*%
D12*
%TO.C,SW34*%
X171212500Y-134675000D03*
D10*
X171712500Y-138475000D03*
D13*
X176712500Y-134675000D03*
D10*
X176712500Y-140575000D03*
D12*
X182212500Y-134675000D03*
D14*
X176712500Y-128775000D03*
D15*
X180412500Y-140575000D03*
X168012500Y-138475000D03*
D14*
X181712500Y-130875000D03*
%TD*%
D12*
%TO.C,SW31*%
X114062500Y-134675000D03*
D10*
X114562500Y-138475000D03*
D13*
X119562500Y-134675000D03*
D10*
X119562500Y-140575000D03*
D12*
X125062500Y-134675000D03*
D14*
X119562500Y-128775000D03*
D15*
X123262500Y-140575000D03*
X110862500Y-138475000D03*
D14*
X124562500Y-130875000D03*
%TD*%
D12*
%TO.C,SW38*%
X75962500Y-153725000D03*
D10*
X76462500Y-157525000D03*
D13*
X81462500Y-153725000D03*
D10*
X81462500Y-159625000D03*
D12*
X86962500Y-153725000D03*
D14*
X81462500Y-147825000D03*
D15*
X85162500Y-159625000D03*
X72762500Y-157525000D03*
D14*
X86462500Y-149925000D03*
%TD*%
D12*
%TO.C,SW41*%
X133112500Y-153725000D03*
D10*
X133612500Y-157525000D03*
D13*
X138612500Y-153725000D03*
D10*
X138612500Y-159625000D03*
D12*
X144112500Y-153725000D03*
D14*
X138612500Y-147825000D03*
D15*
X142312500Y-159625000D03*
X129912500Y-157525000D03*
D14*
X143612500Y-149925000D03*
%TD*%
D12*
%TO.C,SW22*%
X104537500Y-115625000D03*
D10*
X105037500Y-119425000D03*
D13*
X110037500Y-115625000D03*
D10*
X110037500Y-121525000D03*
D12*
X115537500Y-115625000D03*
D14*
X110037500Y-109725000D03*
D15*
X113737500Y-121525000D03*
X101337500Y-119425000D03*
D14*
X115037500Y-111825000D03*
%TD*%
D10*
%TO.C,REG6*%
X200250000Y-121930000D03*
%TD*%
%TO.C,REG1*%
X103120000Y-84530000D03*
%TD*%
D12*
%TO.C,SW21*%
X85487500Y-115625000D03*
D10*
X85987500Y-119425000D03*
D13*
X90987500Y-115625000D03*
D10*
X90987500Y-121525000D03*
D12*
X96487500Y-115625000D03*
D14*
X90987500Y-109725000D03*
D15*
X94687500Y-121525000D03*
X82287500Y-119425000D03*
D14*
X95987500Y-111825000D03*
%TD*%
D12*
%TO.C,SW24*%
X142637500Y-115625000D03*
D10*
X143137500Y-119425000D03*
D13*
X148137500Y-115625000D03*
D10*
X148137500Y-121525000D03*
D12*
X153637500Y-115625000D03*
D14*
X148137500Y-109725000D03*
D15*
X151837500Y-121525000D03*
X139437500Y-119425000D03*
D14*
X153137500Y-111825000D03*
%TD*%
D10*
%TO.C,REG3*%
X200750000Y-95530000D03*
%TD*%
D12*
%TO.C,SW15*%
X137875000Y-96575000D03*
D10*
X138375000Y-100375000D03*
D13*
X143375000Y-96575000D03*
D10*
X143375000Y-102475000D03*
D12*
X148875000Y-96575000D03*
D14*
X143375000Y-90675000D03*
D15*
X147075000Y-102475000D03*
X134675000Y-100375000D03*
D14*
X148375000Y-92775000D03*
%TD*%
D12*
%TO.C,SW39*%
X95012500Y-153725000D03*
D10*
X95512500Y-157525000D03*
D13*
X100512500Y-153725000D03*
D10*
X100512500Y-159625000D03*
D12*
X106012500Y-153725000D03*
D14*
X100512500Y-147825000D03*
D15*
X104212500Y-159625000D03*
X91812500Y-157525000D03*
D14*
X105512500Y-149925000D03*
%TD*%
D12*
%TO.C,SW6*%
X147400000Y-77525000D03*
D10*
X147900000Y-81325000D03*
D13*
X152900000Y-77525000D03*
D10*
X152900000Y-83425000D03*
D12*
X158400000Y-77525000D03*
D14*
X152900000Y-71625000D03*
D15*
X156600000Y-83425000D03*
X144200000Y-81325000D03*
D14*
X157900000Y-73725000D03*
%TD*%
D12*
%TO.C,SW43*%
X171212500Y-153725000D03*
D10*
X171712500Y-157525000D03*
D13*
X176712500Y-153725000D03*
D10*
X176712500Y-159625000D03*
D12*
X182212500Y-153725000D03*
D14*
X176712500Y-147825000D03*
D15*
X180412500Y-159625000D03*
X168012500Y-157525000D03*
D14*
X181712500Y-149925000D03*
%TD*%
D12*
%TO.C,SW9*%
X209312500Y-77525000D03*
D10*
X209812500Y-81325000D03*
D13*
X214812500Y-77525000D03*
D10*
X214812500Y-83425000D03*
D12*
X220312500Y-77525000D03*
D14*
X214812500Y-71625000D03*
D15*
X218512500Y-83425000D03*
X206112500Y-81325000D03*
D14*
X219812500Y-73725000D03*
%TD*%
D12*
%TO.C,SW23*%
X123587500Y-115625000D03*
D10*
X124087500Y-119425000D03*
D13*
X129087500Y-115625000D03*
D10*
X129087500Y-121525000D03*
D12*
X134587500Y-115625000D03*
D14*
X129087500Y-109725000D03*
D15*
X132787500Y-121525000D03*
X120387500Y-119425000D03*
D14*
X134087500Y-111825000D03*
%TD*%
D12*
%TO.C,SW36*%
X209312500Y-134675000D03*
D10*
X209812500Y-138475000D03*
D13*
X214812500Y-134675000D03*
D10*
X214812500Y-140575000D03*
D12*
X220312500Y-134675000D03*
D14*
X214812500Y-128775000D03*
D15*
X218512500Y-140575000D03*
X206112500Y-138475000D03*
D14*
X219812500Y-130875000D03*
%TD*%
D12*
%TO.C,SW27*%
X209312500Y-115625000D03*
D10*
X209812500Y-119425000D03*
D13*
X214812500Y-115625000D03*
D10*
X214812500Y-121525000D03*
D12*
X220312500Y-115625000D03*
D14*
X214812500Y-109725000D03*
D15*
X218512500Y-121525000D03*
X206112500Y-119425000D03*
D14*
X219812500Y-111825000D03*
%TD*%
D12*
%TO.C,SW35*%
X190262500Y-134675000D03*
D10*
X190762500Y-138475000D03*
D13*
X195762500Y-134675000D03*
D10*
X195762500Y-140575000D03*
D12*
X201262500Y-134675000D03*
D14*
X195762500Y-128775000D03*
D15*
X199462500Y-140575000D03*
X187062500Y-138475000D03*
D14*
X200762500Y-130875000D03*
%TD*%
D10*
%TO.C,REG9*%
X205750000Y-130320000D03*
%TD*%
D12*
%TO.C,SW11*%
X61675000Y-96575000D03*
D10*
X62175000Y-100375000D03*
D13*
X67175000Y-96575000D03*
D10*
X67175000Y-102475000D03*
D12*
X72675000Y-96575000D03*
D14*
X67175000Y-90675000D03*
D15*
X70875000Y-102475000D03*
X58475000Y-100375000D03*
D14*
X72175000Y-92775000D03*
%TD*%
D12*
%TO.C,SW44*%
X190262500Y-153725000D03*
D10*
X190762500Y-157525000D03*
D13*
X195762500Y-153725000D03*
D10*
X195762500Y-159625000D03*
D12*
X201262500Y-153725000D03*
D14*
X195762500Y-147825000D03*
D15*
X199462500Y-159625000D03*
X187062500Y-157525000D03*
D14*
X200762500Y-149925000D03*
%TD*%
D12*
%TO.C,SW20*%
X66437500Y-115625000D03*
D10*
X66937500Y-119425000D03*
D13*
X71937500Y-115625000D03*
D10*
X71937500Y-121525000D03*
D12*
X77437500Y-115625000D03*
D14*
X71937500Y-109725000D03*
D15*
X75637500Y-121525000D03*
X63237500Y-119425000D03*
D14*
X76937500Y-111825000D03*
%TD*%
D12*
%TO.C,SW30*%
X95012500Y-134675000D03*
D10*
X95512500Y-138475000D03*
D13*
X100512500Y-134675000D03*
D10*
X100512500Y-140575000D03*
D12*
X106012500Y-134675000D03*
D14*
X100512500Y-128775000D03*
D15*
X104212500Y-140575000D03*
X91812500Y-138475000D03*
D14*
X105512500Y-130875000D03*
%TD*%
D12*
%TO.C,SW8*%
X187881300Y-77525000D03*
D10*
X188381300Y-81325000D03*
D13*
X193381300Y-77525000D03*
D10*
X193381300Y-83425000D03*
D12*
X198881300Y-77525000D03*
D14*
X193381300Y-71625000D03*
D15*
X197081300Y-83425000D03*
X184681300Y-81325000D03*
D14*
X198381300Y-73725000D03*
%TD*%
D12*
%TO.C,SW28*%
X56912500Y-134675000D03*
D10*
X57412500Y-138475000D03*
D13*
X62412500Y-134675000D03*
D10*
X62412500Y-140575000D03*
D12*
X67912500Y-134675000D03*
D14*
X62412500Y-128775000D03*
D15*
X66112500Y-140575000D03*
X53712500Y-138475000D03*
D14*
X67412500Y-130875000D03*
%TD*%
D12*
%TO.C,SW45*%
X209312500Y-153725000D03*
D10*
X209812500Y-157525000D03*
D13*
X214812500Y-153725000D03*
D10*
X214812500Y-159625000D03*
D12*
X220312500Y-153725000D03*
D14*
X214812500Y-147825000D03*
D15*
X218512500Y-159625000D03*
X206112500Y-157525000D03*
D14*
X219812500Y-149925000D03*
%TD*%
D12*
%TO.C,SW29*%
X75962500Y-134675000D03*
D10*
X76462500Y-138475000D03*
D13*
X81462500Y-134675000D03*
D10*
X81462500Y-140575000D03*
D12*
X86962500Y-134675000D03*
D14*
X81462500Y-128775000D03*
D15*
X85162500Y-140575000D03*
X72762500Y-138475000D03*
D14*
X86462500Y-130875000D03*
%TD*%
D10*
%TO.C,REG8*%
X146190000Y-141820000D03*
%TD*%
%TO.C,REG2*%
X141690000Y-84030000D03*
%TD*%
D12*
%TO.C,SW33*%
X152162500Y-134675000D03*
D10*
X152662500Y-138475000D03*
D13*
X157662500Y-134675000D03*
D10*
X157662500Y-140575000D03*
D12*
X163162500Y-134675000D03*
D14*
X157662500Y-128775000D03*
D15*
X161362500Y-140575000D03*
X148962500Y-138475000D03*
D14*
X162662500Y-130875000D03*
%TD*%
D12*
%TO.C,SW17*%
X183118800Y-96575000D03*
D10*
X183618800Y-100375000D03*
D13*
X188618800Y-96575000D03*
D10*
X188618800Y-102475000D03*
D12*
X194118800Y-96575000D03*
D14*
X188618800Y-90675000D03*
D15*
X192318800Y-102475000D03*
X179918800Y-100375000D03*
D14*
X193618800Y-92775000D03*
%TD*%
D12*
%TO.C,SW37*%
X56912500Y-153725000D03*
D10*
X57412500Y-157525000D03*
D13*
X62412500Y-153725000D03*
D10*
X62412500Y-159625000D03*
D12*
X67912500Y-153725000D03*
D14*
X62412500Y-147825000D03*
D15*
X66112500Y-159625000D03*
X53712500Y-157525000D03*
D14*
X67412500Y-149925000D03*
%TD*%
D12*
%TO.C,SW42*%
X152162500Y-153725000D03*
D10*
X152662500Y-157525000D03*
D13*
X157662500Y-153725000D03*
D10*
X157662500Y-159625000D03*
D12*
X163162500Y-153725000D03*
D14*
X157662500Y-147825000D03*
D15*
X161362500Y-159625000D03*
X148962500Y-157525000D03*
D14*
X162662500Y-149925000D03*
%TD*%
D12*
%TO.C,SW14*%
X118825000Y-96575000D03*
D10*
X119325000Y-100375000D03*
D13*
X124325000Y-96575000D03*
D10*
X124325000Y-102475000D03*
D12*
X129825000Y-96575000D03*
D14*
X124325000Y-90675000D03*
D15*
X128025000Y-102475000D03*
X115625000Y-100375000D03*
D14*
X129325000Y-92775000D03*
%TD*%
D12*
%TO.C,SW3*%
X90250000Y-77525000D03*
D10*
X90750000Y-81325000D03*
D13*
X95750000Y-77525000D03*
D10*
X95750000Y-83425000D03*
D12*
X101250000Y-77525000D03*
D14*
X95750000Y-71625000D03*
D15*
X99450000Y-83425000D03*
X87050000Y-81325000D03*
D14*
X100750000Y-73725000D03*
%TD*%
D12*
%TO.C,SW19*%
X47387500Y-115625000D03*
D10*
X47887500Y-119425000D03*
D13*
X52887500Y-115625000D03*
D10*
X52887500Y-121525000D03*
D12*
X58387500Y-115625000D03*
D14*
X52887500Y-109725000D03*
D15*
X56587500Y-121525000D03*
X44187500Y-119425000D03*
D14*
X57887500Y-111825000D03*
%TD*%
D12*
%TO.C,SW12*%
X80725000Y-96575000D03*
D10*
X81225000Y-100375000D03*
D13*
X86225000Y-96575000D03*
D10*
X86225000Y-102475000D03*
D12*
X91725000Y-96575000D03*
D14*
X86225000Y-90675000D03*
D15*
X89925000Y-102475000D03*
X77525000Y-100375000D03*
D14*
X91225000Y-92775000D03*
%TD*%
D10*
%TO.C,REG7*%
X54880000Y-144570000D03*
%TD*%
D12*
%TO.C,SW1*%
X52150000Y-77525000D03*
D10*
X52650000Y-81325000D03*
D13*
X57650000Y-77525000D03*
D10*
X57650000Y-83425000D03*
D12*
X63150000Y-77525000D03*
D14*
X57650000Y-71625000D03*
D15*
X61350000Y-83425000D03*
X48950000Y-81325000D03*
D14*
X62650000Y-73725000D03*
%TD*%
D10*
%TO.C,REG5*%
X131690000Y-125930000D03*
%TD*%
D12*
%TO.C,SW5*%
X128350000Y-77525000D03*
D10*
X128850000Y-81325000D03*
D13*
X133850000Y-77525000D03*
D10*
X133850000Y-83425000D03*
D12*
X139350000Y-77525000D03*
D14*
X133850000Y-71625000D03*
D15*
X137550000Y-83425000D03*
X125150000Y-81325000D03*
D14*
X138850000Y-73725000D03*
%TD*%
D16*
%TO.C,D30*%
X102312500Y-127075000D03*
X98712500Y-127075000D03*
%TD*%
%TO.C,D29*%
X83262500Y-127075000D03*
X79662500Y-127075000D03*
%TD*%
%TO.C,D16*%
X164225000Y-88975000D03*
X160625000Y-88975000D03*
%TD*%
%TO.C,D19*%
X54687500Y-108025000D03*
X51087500Y-108025000D03*
%TD*%
%TO.C,D22*%
X111837500Y-108025000D03*
X108237500Y-108025000D03*
%TD*%
%TO.C,D17*%
X190418800Y-88975000D03*
X186818800Y-88975000D03*
%TD*%
%TO.C,D40*%
X121362500Y-146125000D03*
X117762500Y-146125000D03*
%TD*%
%TO.C,D39*%
X102312500Y-146125000D03*
X98712500Y-146125000D03*
%TD*%
%TO.C,D31*%
X121362500Y-127075000D03*
X117762500Y-127075000D03*
%TD*%
%TO.C,D23*%
X130887500Y-108025000D03*
X127287500Y-108025000D03*
%TD*%
%TO.C,D33*%
X159462500Y-127075000D03*
X155862500Y-127075000D03*
%TD*%
%TO.C,D26*%
X192800000Y-108025000D03*
X189200000Y-108025000D03*
%TD*%
%TO.C,D8*%
X195181300Y-69925000D03*
X191581300Y-69925000D03*
%TD*%
%TO.C,D2*%
X78500000Y-69925000D03*
X74900000Y-69925000D03*
%TD*%
%TO.C,D27*%
X216612500Y-108025000D03*
X213012500Y-108025000D03*
%TD*%
%TO.C,D42*%
X159462500Y-146125000D03*
X155862500Y-146125000D03*
%TD*%
%TO.C,D18*%
X216612500Y-88975000D03*
X213012500Y-88975000D03*
%TD*%
%TO.C,D45*%
X216612500Y-146125000D03*
X213012500Y-146125000D03*
%TD*%
%TO.C,D12*%
X88025000Y-88975000D03*
X84425000Y-88975000D03*
%TD*%
%TO.C,D14*%
X126125000Y-88975000D03*
X122525000Y-88975000D03*
%TD*%
%TO.C,D11*%
X68975000Y-88975000D03*
X65375000Y-88975000D03*
%TD*%
%TO.C,D9*%
X216612500Y-69925000D03*
X213012500Y-69925000D03*
%TD*%
%TO.C,D1*%
X59450000Y-69925000D03*
X55850000Y-69925000D03*
%TD*%
%TO.C,D4*%
X116600000Y-69925000D03*
X113000000Y-69925000D03*
%TD*%
%TO.C,D38*%
X83262500Y-146125000D03*
X79662500Y-146125000D03*
%TD*%
%TO.C,D20*%
X73737500Y-108025000D03*
X70137500Y-108025000D03*
%TD*%
%TO.C,D43*%
X178512500Y-146125000D03*
X174912500Y-146125000D03*
%TD*%
%TO.C,D10*%
X49925000Y-88975000D03*
X46325000Y-88975000D03*
%TD*%
%TO.C,D37*%
X64212500Y-146125000D03*
X60612500Y-146125000D03*
%TD*%
%TO.C,D3*%
X97550000Y-69925000D03*
X93950000Y-69925000D03*
%TD*%
%TO.C,D34*%
X178512500Y-127075000D03*
X174912500Y-127075000D03*
%TD*%
%TO.C,D35*%
X197562500Y-127075000D03*
X193962500Y-127075000D03*
%TD*%
%TO.C,D25*%
X168987500Y-108025000D03*
X165387500Y-108025000D03*
%TD*%
%TO.C,D36*%
X216612500Y-127075000D03*
X213012500Y-127075000D03*
%TD*%
%TO.C,D6*%
X154700000Y-69925000D03*
X151100000Y-69925000D03*
%TD*%
%TO.C,D24*%
X149937500Y-108025000D03*
X146337500Y-108025000D03*
%TD*%
%TO.C,D44*%
X197562500Y-146125000D03*
X193962500Y-146125000D03*
%TD*%
%TO.C,D15*%
X145175000Y-88975000D03*
X141575000Y-88975000D03*
%TD*%
%TO.C,D13*%
X107075000Y-88975000D03*
X103475000Y-88975000D03*
%TD*%
%TO.C,D28*%
X64212500Y-127075000D03*
X60612500Y-127075000D03*
%TD*%
%TO.C,D7*%
X173750000Y-69925000D03*
X170150000Y-69925000D03*
%TD*%
%TO.C,D32*%
X140412500Y-127075000D03*
X136812500Y-127075000D03*
%TD*%
%TO.C,D21*%
X92787500Y-108025000D03*
X89187500Y-108025000D03*
%TD*%
%TO.C,D41*%
X140412500Y-146125000D03*
X136812500Y-146125000D03*
%TD*%
%TO.C,D5*%
X135650000Y-69925000D03*
X132050000Y-69925000D03*
%TD*%
M02*
