%TF.GenerationSoftware,KiCad,Pcbnew,10.0.3*%
%TF.CreationDate,2026-06-08T15:47:45+09:00*%
%TF.ProjectId,kc2_right,6b63325f-7269-4676-9874-2e6b69636164,draft-1*%
%TF.SameCoordinates,Original*%
%TF.FileFunction,Profile,NP*%
%FSLAX46Y46*%
G04 Gerber Fmt 4.6, Leading zero omitted, Abs format (unit mm)*
G04 Created by KiCad (PCBNEW 10.0.3) date 2026-06-08 15:47:45*
%MOMM*%
%LPD*%
G01*
G04 APERTURE LIST*
%TA.AperFunction,Profile*%
%ADD10C,0.100000*%
%TD*%
G04 APERTURE END LIST*
D10*
X35000000Y-89050000D02*
X35080000Y-88330000D01*
X35000000Y-104100000D02*
X35000000Y-89050000D01*
X35080000Y-88330000D02*
X35320000Y-87770000D01*
X35080000Y-104820000D02*
X35000000Y-104100000D01*
X35320000Y-87770000D02*
X35720000Y-87370000D01*
X35320000Y-105380000D02*
X35080000Y-104820000D01*
X35720000Y-87370000D02*
X36280000Y-87130000D01*
X35720000Y-105780000D02*
X35320000Y-105380000D01*
X36280000Y-87130000D02*
X37800000Y-87050000D01*
X36280000Y-106020000D02*
X35720000Y-105780000D01*
X37762500Y-106100000D02*
X37800000Y-106100000D01*
X37800000Y-87050000D02*
X42525000Y-87050000D01*
X37800000Y-106100000D02*
X36280000Y-106020000D01*
X38482500Y-106180000D02*
X37762500Y-106100000D01*
X39042500Y-106420000D02*
X38482500Y-106180000D01*
X39442500Y-106820000D02*
X39042500Y-106420000D01*
X39682500Y-107380000D02*
X39442500Y-106820000D01*
X39762500Y-108100000D02*
X39682500Y-107380000D01*
X39762500Y-123150000D02*
X39762500Y-108100000D01*
X39842500Y-123870000D02*
X39762500Y-123150000D01*
X40082500Y-124430000D02*
X39842500Y-123870000D01*
X40482500Y-124830000D02*
X40082500Y-124430000D01*
X41042500Y-125070000D02*
X40482500Y-124830000D01*
X42525000Y-87050000D02*
X43245000Y-86970000D01*
X42562500Y-125150000D02*
X41042500Y-125070000D01*
X43245000Y-86970000D02*
X43805000Y-86730000D01*
X43805000Y-86730000D02*
X44205000Y-86330000D01*
X44205000Y-86330000D02*
X44445000Y-85770000D01*
X44445000Y-85770000D02*
X44525000Y-85050000D01*
X44525000Y-62900000D02*
X44605000Y-62180000D01*
X44525000Y-66000000D02*
X44525000Y-62900000D01*
X44525000Y-66800000D02*
X44525000Y-66000000D01*
X44525000Y-67600000D02*
X44525000Y-66800000D01*
X44525000Y-68400000D02*
X44525000Y-67600000D01*
X44525000Y-69200000D02*
X44525000Y-68400000D01*
X44525000Y-70000000D02*
X44525000Y-69200000D01*
X44525000Y-85050000D02*
X44525000Y-70000000D01*
X44605000Y-62180000D02*
X44845000Y-61620000D01*
X44845000Y-61620000D02*
X45245000Y-61220000D01*
X45245000Y-61220000D02*
X45805000Y-60980000D01*
X45805000Y-60980000D02*
X46525000Y-60900000D01*
X46525000Y-60900000D02*
X61500000Y-60900000D01*
X47287500Y-125150000D02*
X42562500Y-125150000D01*
X48007500Y-125230000D02*
X47287500Y-125150000D01*
X48567500Y-125470000D02*
X48007500Y-125230000D01*
X48967500Y-125870000D02*
X48567500Y-125470000D01*
X49207500Y-126430000D02*
X48967500Y-125870000D01*
X49287500Y-127150000D02*
X49207500Y-126430000D01*
X49287500Y-142200000D02*
X49287500Y-127150000D01*
X49287500Y-143000000D02*
X49287500Y-142200000D01*
X49287500Y-143800000D02*
X49287500Y-143000000D01*
X49287500Y-144600000D02*
X49287500Y-143800000D01*
X49287500Y-145400000D02*
X49287500Y-144600000D01*
X49287500Y-146200000D02*
X49287500Y-145400000D01*
X49287500Y-165250000D02*
X49287500Y-146200000D01*
X49367500Y-165970000D02*
X49287500Y-165250000D01*
X49607500Y-166530000D02*
X49367500Y-165970000D01*
X50007500Y-166930000D02*
X49607500Y-166530000D01*
X50567500Y-167170000D02*
X50007500Y-166930000D01*
X51287500Y-167250000D02*
X50567500Y-167170000D01*
X61500000Y-60900000D02*
X62220000Y-60820000D01*
X62220000Y-60820000D02*
X62780000Y-60580000D01*
X62780000Y-60580000D02*
X63180000Y-60780000D01*
X63180000Y-60780000D02*
X63420000Y-60220000D01*
X63420000Y-60220000D02*
X63500000Y-59500000D01*
X63500000Y-37000000D02*
X63580000Y-36279999D01*
X63500000Y-59500000D02*
X63500000Y-37000000D01*
X63580000Y-36279999D02*
X63820000Y-35720000D01*
X63820000Y-35720000D02*
X64220000Y-35320000D01*
X64220000Y-35320000D02*
X64780000Y-35080000D01*
X64780000Y-35080000D02*
X65500000Y-35000000D01*
X65500000Y-35000000D02*
X104000000Y-35000000D01*
X104000000Y-35000000D02*
X104720000Y-35079999D01*
X104720000Y-35079999D02*
X105280000Y-35320000D01*
X105280000Y-35320000D02*
X105680000Y-35720000D01*
X105680000Y-35720000D02*
X105920000Y-36280000D01*
X105920000Y-36280000D02*
X106000000Y-37000000D01*
X106000000Y-37000000D02*
X106000000Y-59500000D01*
X106000000Y-59500000D02*
X106080000Y-60220000D01*
X106080000Y-60220000D02*
X106320000Y-60780000D01*
X106320000Y-60780000D02*
X106720000Y-60580000D01*
X106720000Y-60580000D02*
X107280000Y-60820000D01*
X107280000Y-60820000D02*
X108000000Y-60900000D01*
X108000000Y-60900000D02*
X226337500Y-60900000D01*
X226337500Y-60900000D02*
X227057500Y-60980000D01*
X226537500Y-167250000D02*
X51287500Y-167250000D01*
X227057500Y-60980000D02*
X227617499Y-61220000D01*
X227185500Y-167178000D02*
X226537500Y-167250000D01*
X227617499Y-61220000D02*
X228017500Y-61620000D01*
X227689499Y-166962000D02*
X227185500Y-167178000D01*
X228017500Y-61620000D02*
X228257500Y-62180000D01*
X228049500Y-166602000D02*
X227689499Y-166962000D01*
X228257500Y-62180000D02*
X228337500Y-62900000D01*
X228265500Y-166098000D02*
X228049500Y-166602000D01*
X228337500Y-62900000D02*
X228337500Y-85050000D01*
X228337500Y-85050000D02*
X228337500Y-85850000D01*
X228337500Y-85850000D02*
X228337500Y-86650000D01*
X228337500Y-86650000D02*
X228337500Y-87450000D01*
X228337500Y-87450000D02*
X228337500Y-88250000D01*
X228337500Y-88250000D02*
X228337500Y-89050000D01*
X228337500Y-89050000D02*
X228337500Y-104100000D01*
X228337500Y-104100000D02*
X228337500Y-104900000D01*
X228337500Y-104900000D02*
X228337500Y-105700000D01*
X228337500Y-105700000D02*
X228337500Y-106500000D01*
X228337500Y-106500000D02*
X228337500Y-107300000D01*
X228337500Y-107300000D02*
X228337500Y-108100000D01*
X228337500Y-108100000D02*
X228337500Y-123150000D01*
X228337500Y-123150000D02*
X228337500Y-123950000D01*
X228337500Y-123950000D02*
X228337500Y-124750000D01*
X228337500Y-124750000D02*
X228337500Y-125550000D01*
X228337500Y-125550000D02*
X228337500Y-126350000D01*
X228337500Y-126350000D02*
X228337500Y-127150000D01*
X228337500Y-127150000D02*
X228337500Y-142200000D01*
X228337500Y-142200000D02*
X228337500Y-143000000D01*
X228337500Y-143000000D02*
X228337500Y-143800000D01*
X228337500Y-143800000D02*
X228337500Y-144600000D01*
X228337500Y-144600000D02*
X228337500Y-145400000D01*
X228337500Y-145400000D02*
X228337500Y-146200000D01*
X228337500Y-146200000D02*
X228337500Y-161450000D01*
X228337500Y-161450000D02*
X228337500Y-162170000D01*
X228337500Y-162170000D02*
X228337500Y-162890000D01*
X228337500Y-162890000D02*
X228337500Y-163610000D01*
X228337500Y-163610000D02*
X228337500Y-164330000D01*
X228337500Y-164330000D02*
X228337500Y-165050000D01*
X228337500Y-165050000D02*
X228337500Y-165450000D01*
X228337500Y-165450000D02*
X228265500Y-166098000D01*
M02*
