%TF.GenerationSoftware,KiCad,Pcbnew,10.0.3*%
%TF.CreationDate,2026-06-08T15:47:45+09:00*%
%TF.ProjectId,kc2_right,6b63325f-7269-4676-9874-2e6b69636164,draft-1*%
%TF.SameCoordinates,Original*%
%TF.FileFunction,Copper,L2,Bot*%
%TF.FilePolarity,Positive*%
%FSLAX46Y46*%
G04 Gerber Fmt 4.6, Leading zero omitted, Abs format (unit mm)*
G04 Created by KiCad (PCBNEW 10.0.3) date 2026-06-08 15:47:45*
%MOMM*%
%LPD*%
G01*
G04 APERTURE LIST*
G04 Aperture macros list*
%AMRoundRect*
0 Rectangle with rounded corners*
0 $1 Rounding radius*
0 $2 $3 $4 $5 $6 $7 $8 $9 X,Y pos of 4 corners*
0 Add a 4 corners polygon primitive as box body*
4,1,4,$2,$3,$4,$5,$6,$7,$8,$9,$2,$3,0*
0 Add four circle primitives for the rounded corners*
1,1,$1+$1,$2,$3*
1,1,$1+$1,$4,$5*
1,1,$1+$1,$6,$7*
1,1,$1+$1,$8,$9*
0 Add four rect primitives between the rounded corners*
20,1,$1+$1,$2,$3,$4,$5,0*
20,1,$1+$1,$4,$5,$6,$7,0*
20,1,$1+$1,$6,$7,$8,$9,0*
20,1,$1+$1,$8,$9,$2,$3,0*%
G04 Aperture macros list end*
%TA.AperFunction,ComponentPad*%
%ADD10C,2.000000*%
%TD*%
%TA.AperFunction,SMDPad,CuDef*%
%ADD11RoundRect,0.520000X-0.780000X-0.780000X0.780000X-0.780000X0.780000X0.780000X-0.780000X0.780000X0*%
%TD*%
%TA.AperFunction,ComponentPad*%
%ADD12C,1.800000*%
%TD*%
%TA.AperFunction,SMDPad,CuDef*%
%ADD13RoundRect,0.252000X0.448000X0.523000X-0.448000X0.523000X-0.448000X-0.523000X0.448000X-0.523000X0*%
%TD*%
%TA.AperFunction,ViaPad*%
%ADD14C,0.600000*%
%TD*%
%TA.AperFunction,Conductor*%
%ADD15C,0.250000*%
%TD*%
G04 APERTURE END LIST*
D10*
%TO.P,SW18,1*%
%TO.N,R_COL8*%
X214812500Y-90675000D03*
D11*
X218512500Y-102475000D03*
%TO.P,SW18,2*%
%TO.N,RK18_D*%
X206112500Y-100375000D03*
D10*
X219812500Y-92775000D03*
%TD*%
%TO.P,SW10,1*%
%TO.N,R_COL0*%
X48125000Y-90675000D03*
D11*
X51825000Y-102475000D03*
%TO.P,SW10,2*%
%TO.N,RK10_D*%
X39425000Y-100375000D03*
D10*
X53125000Y-92775000D03*
%TD*%
%TO.P,SW16,1*%
%TO.N,R_COL6*%
X162425000Y-90675000D03*
D11*
X166125000Y-102475000D03*
%TO.P,SW16,2*%
%TO.N,RK16_D*%
X153725000Y-100375000D03*
D10*
X167425000Y-92775000D03*
%TD*%
%TO.P,SW40,1*%
%TO.N,R_COL3*%
X119562500Y-147825000D03*
D11*
X123262500Y-159625000D03*
%TO.P,SW40,2*%
%TO.N,RK40_D*%
X110862500Y-157525000D03*
D10*
X124562500Y-149925000D03*
%TD*%
%TO.P,SW32,1*%
%TO.N,R_COL4*%
X138612500Y-128775000D03*
D11*
X142312500Y-140575000D03*
%TO.P,SW32,2*%
%TO.N,RK32_D*%
X129912500Y-138475000D03*
D10*
X143612500Y-130875000D03*
%TD*%
%TO.P,SW13,1*%
%TO.N,R_COL3*%
X105275000Y-90675000D03*
D11*
X108975000Y-102475000D03*
%TO.P,SW13,2*%
%TO.N,RK13_D*%
X96575000Y-100375000D03*
D10*
X110275000Y-92775000D03*
%TD*%
%TO.P,SW4,1*%
%TO.N,R_COL3*%
X114800000Y-71625000D03*
D11*
X118500000Y-83425000D03*
%TO.P,SW4,2*%
%TO.N,RK04_D*%
X106100000Y-81325000D03*
D10*
X119800000Y-73725000D03*
%TD*%
%TO.P,SW26,1*%
%TO.N,R_COL7*%
X191000000Y-109725000D03*
D11*
X194700000Y-121525000D03*
%TO.P,SW26,2*%
%TO.N,RK26_D*%
X182300000Y-119425000D03*
D10*
X196000000Y-111825000D03*
%TD*%
%TO.P,SW25,1*%
%TO.N,R_COL6*%
X167187500Y-109725000D03*
D11*
X170887500Y-121525000D03*
%TO.P,SW25,2*%
%TO.N,RK25_D*%
X158487500Y-119425000D03*
D10*
X172187500Y-111825000D03*
%TD*%
%TO.P,SW7,1*%
%TO.N,R_COL6*%
X171950000Y-71625000D03*
D11*
X175650000Y-83425000D03*
%TO.P,SW7,2*%
%TO.N,RK07_D*%
X163250000Y-81325000D03*
D10*
X176950000Y-73725000D03*
%TD*%
%TO.P,SW2,1*%
%TO.N,R_COL1*%
X76700000Y-71625000D03*
D11*
X80400000Y-83425000D03*
%TO.P,SW2,2*%
%TO.N,RK02_D*%
X68000000Y-81325000D03*
D10*
X81700000Y-73725000D03*
%TD*%
%TO.P,SW34,1*%
%TO.N,R_COL6*%
X176712500Y-128775000D03*
D11*
X180412500Y-140575000D03*
%TO.P,SW34,2*%
%TO.N,RK34_D*%
X168012500Y-138475000D03*
D10*
X181712500Y-130875000D03*
%TD*%
%TO.P,SW31,1*%
%TO.N,R_COL3*%
X119562500Y-128775000D03*
D11*
X123262500Y-140575000D03*
%TO.P,SW31,2*%
%TO.N,RK31_D*%
X110862500Y-138475000D03*
D10*
X124562500Y-130875000D03*
%TD*%
%TO.P,SW38,1*%
%TO.N,R_COL1*%
X81462500Y-147825000D03*
D11*
X85162500Y-159625000D03*
%TO.P,SW38,2*%
%TO.N,RK38_D*%
X72762500Y-157525000D03*
D10*
X86462500Y-149925000D03*
%TD*%
%TO.P,SW41,1*%
%TO.N,R_COL4*%
X138612500Y-147825000D03*
D11*
X142312500Y-159625000D03*
%TO.P,SW41,2*%
%TO.N,RK41_D*%
X129912500Y-157525000D03*
D10*
X143612500Y-149925000D03*
%TD*%
%TO.P,SW22,1*%
%TO.N,R_COL3*%
X110037500Y-109725000D03*
D11*
X113737500Y-121525000D03*
%TO.P,SW22,2*%
%TO.N,RK22_D*%
X101337500Y-119425000D03*
D10*
X115037500Y-111825000D03*
%TD*%
%TO.P,SW21,1*%
%TO.N,R_COL2*%
X90987500Y-109725000D03*
D11*
X94687500Y-121525000D03*
%TO.P,SW21,2*%
%TO.N,RK21_D*%
X82287500Y-119425000D03*
D10*
X95987500Y-111825000D03*
%TD*%
%TO.P,SW24,1*%
%TO.N,R_COL5*%
X148137500Y-109725000D03*
D11*
X151837500Y-121525000D03*
%TO.P,SW24,2*%
%TO.N,RK24_D*%
X139437500Y-119425000D03*
D10*
X153137500Y-111825000D03*
%TD*%
%TO.P,SW15,1*%
%TO.N,R_COL5*%
X143375000Y-90675000D03*
D11*
X147075000Y-102475000D03*
%TO.P,SW15,2*%
%TO.N,RK15_D*%
X134675000Y-100375000D03*
D10*
X148375000Y-92775000D03*
%TD*%
%TO.P,SW39,1*%
%TO.N,R_COL2*%
X100512500Y-147825000D03*
D11*
X104212500Y-159625000D03*
%TO.P,SW39,2*%
%TO.N,RK39_D*%
X91812500Y-157525000D03*
D10*
X105512500Y-149925000D03*
%TD*%
%TO.P,SW6,1*%
%TO.N,R_COL5*%
X152900000Y-71625000D03*
D11*
X156600000Y-83425000D03*
%TO.P,SW6,2*%
%TO.N,RK06_D*%
X144200000Y-81325000D03*
D10*
X157900000Y-73725000D03*
%TD*%
%TO.P,SW43,1*%
%TO.N,R_COL6*%
X176712500Y-147825000D03*
D11*
X180412500Y-159625000D03*
%TO.P,SW43,2*%
%TO.N,RK43_D*%
X168012500Y-157525000D03*
D10*
X181712500Y-149925000D03*
%TD*%
%TO.P,SW9,1*%
%TO.N,R_COL8*%
X214812500Y-71625000D03*
D11*
X218512500Y-83425000D03*
%TO.P,SW9,2*%
%TO.N,RK09_D*%
X206112500Y-81325000D03*
D10*
X219812500Y-73725000D03*
%TD*%
%TO.P,SW23,1*%
%TO.N,R_COL4*%
X129087500Y-109725000D03*
D11*
X132787500Y-121525000D03*
%TO.P,SW23,2*%
%TO.N,RK23_D*%
X120387500Y-119425000D03*
D10*
X134087500Y-111825000D03*
%TD*%
%TO.P,SW36,1*%
%TO.N,R_COL8*%
X214812500Y-128775000D03*
D11*
X218512500Y-140575000D03*
%TO.P,SW36,2*%
%TO.N,RK36_D*%
X206112500Y-138475000D03*
D10*
X219812500Y-130875000D03*
%TD*%
%TO.P,SW27,1*%
%TO.N,R_COL8*%
X214812500Y-109725000D03*
D11*
X218512500Y-121525000D03*
%TO.P,SW27,2*%
%TO.N,RK27_D*%
X206112500Y-119425000D03*
D10*
X219812500Y-111825000D03*
%TD*%
%TO.P,SW35,1*%
%TO.N,R_COL7*%
X195762500Y-128775000D03*
D11*
X199462500Y-140575000D03*
%TO.P,SW35,2*%
%TO.N,RK35_D*%
X187062500Y-138475000D03*
D10*
X200762500Y-130875000D03*
%TD*%
%TO.P,SW11,1*%
%TO.N,R_COL1*%
X67175000Y-90675000D03*
D11*
X70875000Y-102475000D03*
%TO.P,SW11,2*%
%TO.N,RK11_D*%
X58475000Y-100375000D03*
D10*
X72175000Y-92775000D03*
%TD*%
%TO.P,SW44,1*%
%TO.N,R_COL7*%
X195762500Y-147825000D03*
D11*
X199462500Y-159625000D03*
%TO.P,SW44,2*%
%TO.N,RK44_D*%
X187062500Y-157525000D03*
D10*
X200762500Y-149925000D03*
%TD*%
%TO.P,SW20,1*%
%TO.N,R_COL1*%
X71937500Y-109725000D03*
D11*
X75637500Y-121525000D03*
%TO.P,SW20,2*%
%TO.N,RK20_D*%
X63237500Y-119425000D03*
D10*
X76937500Y-111825000D03*
%TD*%
%TO.P,SW30,1*%
%TO.N,R_COL2*%
X100512500Y-128775000D03*
D11*
X104212500Y-140575000D03*
%TO.P,SW30,2*%
%TO.N,RK30_D*%
X91812500Y-138475000D03*
D10*
X105512500Y-130875000D03*
%TD*%
%TO.P,SW8,1*%
%TO.N,R_COL7*%
X193381300Y-71625000D03*
D11*
X197081300Y-83425000D03*
%TO.P,SW8,2*%
%TO.N,RK08_D*%
X184681300Y-81325000D03*
D10*
X198381300Y-73725000D03*
%TD*%
%TO.P,SW28,1*%
%TO.N,R_COL0*%
X62412500Y-128775000D03*
D11*
X66112500Y-140575000D03*
%TO.P,SW28,2*%
%TO.N,RK28_D*%
X53712500Y-138475000D03*
D10*
X67412500Y-130875000D03*
%TD*%
%TO.P,SW45,1*%
%TO.N,R_COL8*%
X214812500Y-147825000D03*
D11*
X218512500Y-159625000D03*
%TO.P,SW45,2*%
%TO.N,RK45_D*%
X206112500Y-157525000D03*
D10*
X219812500Y-149925000D03*
%TD*%
%TO.P,SW29,1*%
%TO.N,R_COL1*%
X81462500Y-128775000D03*
D11*
X85162500Y-140575000D03*
%TO.P,SW29,2*%
%TO.N,RK29_D*%
X72762500Y-138475000D03*
D10*
X86462500Y-130875000D03*
%TD*%
%TO.P,SW33,1*%
%TO.N,R_COL5*%
X157662500Y-128775000D03*
D11*
X161362500Y-140575000D03*
%TO.P,SW33,2*%
%TO.N,RK33_D*%
X148962500Y-138475000D03*
D10*
X162662500Y-130875000D03*
%TD*%
D12*
%TO.P,U1,D0*%
%TO.N,N/C*%
X93930000Y-40110000D03*
%TO.P,U1,D1*%
X96470000Y-40110000D03*
%TO.P,U1,D2*%
%TO.N,R_ROW3*%
X86310000Y-40110000D03*
%TO.P,U1,D3*%
%TO.N,R_ROW0*%
X83770000Y-40110000D03*
%TO.P,U1,D4*%
%TO.N,R_ROW1*%
X81230000Y-40110000D03*
%TO.P,U1,D5*%
%TO.N,R_ROW2*%
X78690000Y-40110000D03*
%TO.P,U1,D6*%
%TO.N,N/C*%
X76150000Y-40110000D03*
%TO.P,U1,D7*%
%TO.N,R_ROW4*%
X73610000Y-40110000D03*
%TO.P,U1,D8*%
%TO.N,N/C*%
X71070000Y-40110000D03*
%TO.P,U1,D9*%
%TO.N,R_COL0*%
X68530000Y-40110000D03*
%TO.P,U1,D10*%
%TO.N,R_COL1*%
X68530000Y-57890000D03*
%TO.P,U1,D14*%
%TO.N,R_COL3*%
X73610000Y-57890000D03*
%TO.P,U1,D15*%
%TO.N,R_COL4*%
X76150000Y-57890000D03*
%TO.P,U1,D16*%
%TO.N,R_COL2*%
X71070000Y-57890000D03*
%TO.P,U1,D18*%
%TO.N,R_COL5*%
X78690000Y-57890000D03*
%TO.P,U1,D19*%
%TO.N,R_COL6*%
X81230000Y-57890000D03*
%TO.P,U1,D20*%
%TO.N,R_COL8*%
X83770000Y-57890000D03*
%TO.P,U1,D21*%
%TO.N,R_COL7*%
X86310000Y-57890000D03*
%TO.P,U1,GND_A*%
%TO.N,N/C*%
X91390000Y-40110000D03*
%TO.P,U1,GND_B*%
X88850000Y-40110000D03*
%TO.P,U1,GND_C*%
%TO.N,GND*%
X93930000Y-57890000D03*
%TO.P,U1,RAW*%
%TO.N,N/C*%
X96470000Y-57890000D03*
%TO.P,U1,RST*%
%TO.N,RST*%
X91390000Y-57890000D03*
%TO.P,U1,VCC*%
%TO.N,N/C*%
X88850000Y-57890000D03*
%TD*%
D10*
%TO.P,SW17,1*%
%TO.N,R_COL7*%
X188618800Y-90675000D03*
D11*
X192318800Y-102475000D03*
%TO.P,SW17,2*%
%TO.N,RK17_D*%
X179918800Y-100375000D03*
D10*
X193618800Y-92775000D03*
%TD*%
%TO.P,SW37,1*%
%TO.N,R_COL0*%
X62412500Y-147825000D03*
D11*
X66112500Y-159625000D03*
%TO.P,SW37,2*%
%TO.N,RK37_D*%
X53712500Y-157525000D03*
D10*
X67412500Y-149925000D03*
%TD*%
%TO.P,SW42,1*%
%TO.N,R_COL5*%
X157662500Y-147825000D03*
D11*
X161362500Y-159625000D03*
%TO.P,SW42,2*%
%TO.N,RK42_D*%
X148962500Y-157525000D03*
D10*
X162662500Y-149925000D03*
%TD*%
%TO.P,SW14,1*%
%TO.N,R_COL4*%
X124325000Y-90675000D03*
D11*
X128025000Y-102475000D03*
%TO.P,SW14,2*%
%TO.N,RK14_D*%
X115625000Y-100375000D03*
D10*
X129325000Y-92775000D03*
%TD*%
%TO.P,SW3,1*%
%TO.N,R_COL2*%
X95750000Y-71625000D03*
D11*
X99450000Y-83425000D03*
%TO.P,SW3,2*%
%TO.N,RK03_D*%
X87050000Y-81325000D03*
D10*
X100750000Y-73725000D03*
%TD*%
%TO.P,SW19,1*%
%TO.N,R_COL0*%
X52887500Y-109725000D03*
D11*
X56587500Y-121525000D03*
%TO.P,SW19,2*%
%TO.N,RK19_D*%
X44187500Y-119425000D03*
D10*
X57887500Y-111825000D03*
%TD*%
%TO.P,SW12,1*%
%TO.N,R_COL2*%
X86225000Y-90675000D03*
D11*
X89925000Y-102475000D03*
%TO.P,SW12,2*%
%TO.N,RK12_D*%
X77525000Y-100375000D03*
D10*
X91225000Y-92775000D03*
%TD*%
%TO.P,SW1,1*%
%TO.N,R_COL0*%
X57650000Y-71625000D03*
D11*
X61350000Y-83425000D03*
%TO.P,SW1,2*%
%TO.N,RK01_D*%
X48950000Y-81325000D03*
D10*
X62650000Y-73725000D03*
%TD*%
%TO.P,SW5,1*%
%TO.N,R_COL4*%
X133850000Y-71625000D03*
D11*
X137550000Y-83425000D03*
%TO.P,SW5,2*%
%TO.N,RK05_D*%
X125150000Y-81325000D03*
D10*
X138850000Y-73725000D03*
%TD*%
D13*
%TO.P,D30,1*%
%TO.N,R_ROW3*%
X102312500Y-127075000D03*
%TO.P,D30,2*%
%TO.N,RK30_D*%
X98712500Y-127075000D03*
%TD*%
%TO.P,D29,1*%
%TO.N,R_ROW3*%
X83262500Y-127075000D03*
%TO.P,D29,2*%
%TO.N,RK29_D*%
X79662500Y-127075000D03*
%TD*%
%TO.P,D16,1*%
%TO.N,R_ROW1*%
X164225000Y-88975000D03*
%TO.P,D16,2*%
%TO.N,RK16_D*%
X160625000Y-88975000D03*
%TD*%
%TO.P,D19,1*%
%TO.N,R_ROW2*%
X54687500Y-108025000D03*
%TO.P,D19,2*%
%TO.N,RK19_D*%
X51087500Y-108025000D03*
%TD*%
%TO.P,D22,1*%
%TO.N,R_ROW2*%
X111837500Y-108025000D03*
%TO.P,D22,2*%
%TO.N,RK22_D*%
X108237500Y-108025000D03*
%TD*%
%TO.P,D17,1*%
%TO.N,R_ROW1*%
X190418800Y-88975000D03*
%TO.P,D17,2*%
%TO.N,RK17_D*%
X186818800Y-88975000D03*
%TD*%
%TO.P,D40,1*%
%TO.N,R_ROW4*%
X121362500Y-146125000D03*
%TO.P,D40,2*%
%TO.N,RK40_D*%
X117762500Y-146125000D03*
%TD*%
%TO.P,D39,1*%
%TO.N,R_ROW4*%
X102312500Y-146125000D03*
%TO.P,D39,2*%
%TO.N,RK39_D*%
X98712500Y-146125000D03*
%TD*%
%TO.P,D31,1*%
%TO.N,R_ROW3*%
X121362500Y-127075000D03*
%TO.P,D31,2*%
%TO.N,RK31_D*%
X117762500Y-127075000D03*
%TD*%
%TO.P,D23,1*%
%TO.N,R_ROW2*%
X130887500Y-108025000D03*
%TO.P,D23,2*%
%TO.N,RK23_D*%
X127287500Y-108025000D03*
%TD*%
%TO.P,D33,1*%
%TO.N,R_ROW3*%
X159462500Y-127075000D03*
%TO.P,D33,2*%
%TO.N,RK33_D*%
X155862500Y-127075000D03*
%TD*%
%TO.P,D26,1*%
%TO.N,R_ROW2*%
X192800000Y-108025000D03*
%TO.P,D26,2*%
%TO.N,RK26_D*%
X189200000Y-108025000D03*
%TD*%
%TO.P,D8,1*%
%TO.N,R_ROW0*%
X195181300Y-69925000D03*
%TO.P,D8,2*%
%TO.N,RK08_D*%
X191581300Y-69925000D03*
%TD*%
%TO.P,D2,1*%
%TO.N,R_ROW0*%
X78500000Y-69925000D03*
%TO.P,D2,2*%
%TO.N,RK02_D*%
X74900000Y-69925000D03*
%TD*%
%TO.P,D27,1*%
%TO.N,R_ROW2*%
X216612500Y-108025000D03*
%TO.P,D27,2*%
%TO.N,RK27_D*%
X213012500Y-108025000D03*
%TD*%
%TO.P,D42,1*%
%TO.N,R_ROW4*%
X159462500Y-146125000D03*
%TO.P,D42,2*%
%TO.N,RK42_D*%
X155862500Y-146125000D03*
%TD*%
%TO.P,D18,1*%
%TO.N,R_ROW1*%
X216612500Y-88975000D03*
%TO.P,D18,2*%
%TO.N,RK18_D*%
X213012500Y-88975000D03*
%TD*%
%TO.P,D45,1*%
%TO.N,R_ROW4*%
X216612500Y-146125000D03*
%TO.P,D45,2*%
%TO.N,RK45_D*%
X213012500Y-146125000D03*
%TD*%
%TO.P,D12,1*%
%TO.N,R_ROW1*%
X88025000Y-88975000D03*
%TO.P,D12,2*%
%TO.N,RK12_D*%
X84425000Y-88975000D03*
%TD*%
%TO.P,D14,1*%
%TO.N,R_ROW1*%
X126125000Y-88975000D03*
%TO.P,D14,2*%
%TO.N,RK14_D*%
X122525000Y-88975000D03*
%TD*%
%TO.P,D11,1*%
%TO.N,R_ROW1*%
X68975000Y-88975000D03*
%TO.P,D11,2*%
%TO.N,RK11_D*%
X65375000Y-88975000D03*
%TD*%
%TO.P,D9,1*%
%TO.N,R_ROW0*%
X216612500Y-69925000D03*
%TO.P,D9,2*%
%TO.N,RK09_D*%
X213012500Y-69925000D03*
%TD*%
%TO.P,D1,1*%
%TO.N,R_ROW0*%
X59450000Y-69925000D03*
%TO.P,D1,2*%
%TO.N,RK01_D*%
X55850000Y-69925000D03*
%TD*%
%TO.P,D4,1*%
%TO.N,R_ROW0*%
X116600000Y-69925000D03*
%TO.P,D4,2*%
%TO.N,RK04_D*%
X113000000Y-69925000D03*
%TD*%
%TO.P,D38,1*%
%TO.N,R_ROW4*%
X83262500Y-146125000D03*
%TO.P,D38,2*%
%TO.N,RK38_D*%
X79662500Y-146125000D03*
%TD*%
%TO.P,D20,1*%
%TO.N,R_ROW2*%
X73737500Y-108025000D03*
%TO.P,D20,2*%
%TO.N,RK20_D*%
X70137500Y-108025000D03*
%TD*%
%TO.P,D43,1*%
%TO.N,R_ROW4*%
X178512500Y-146125000D03*
%TO.P,D43,2*%
%TO.N,RK43_D*%
X174912500Y-146125000D03*
%TD*%
%TO.P,D10,1*%
%TO.N,R_ROW1*%
X49925000Y-88975000D03*
%TO.P,D10,2*%
%TO.N,RK10_D*%
X46325000Y-88975000D03*
%TD*%
%TO.P,D37,1*%
%TO.N,R_ROW4*%
X64212500Y-146125000D03*
%TO.P,D37,2*%
%TO.N,RK37_D*%
X60612500Y-146125000D03*
%TD*%
%TO.P,D3,1*%
%TO.N,R_ROW0*%
X97550000Y-69925000D03*
%TO.P,D3,2*%
%TO.N,RK03_D*%
X93950000Y-69925000D03*
%TD*%
%TO.P,D34,1*%
%TO.N,R_ROW3*%
X178512500Y-127075000D03*
%TO.P,D34,2*%
%TO.N,RK34_D*%
X174912500Y-127075000D03*
%TD*%
%TO.P,D35,1*%
%TO.N,R_ROW3*%
X197562500Y-127075000D03*
%TO.P,D35,2*%
%TO.N,RK35_D*%
X193962500Y-127075000D03*
%TD*%
%TO.P,D25,1*%
%TO.N,R_ROW2*%
X168987500Y-108025000D03*
%TO.P,D25,2*%
%TO.N,RK25_D*%
X165387500Y-108025000D03*
%TD*%
%TO.P,D36,1*%
%TO.N,R_ROW3*%
X216612500Y-127075000D03*
%TO.P,D36,2*%
%TO.N,RK36_D*%
X213012500Y-127075000D03*
%TD*%
%TO.P,D6,1*%
%TO.N,R_ROW0*%
X154700000Y-69925000D03*
%TO.P,D6,2*%
%TO.N,RK06_D*%
X151100000Y-69925000D03*
%TD*%
%TO.P,D24,1*%
%TO.N,R_ROW2*%
X149937500Y-108025000D03*
%TO.P,D24,2*%
%TO.N,RK24_D*%
X146337500Y-108025000D03*
%TD*%
%TO.P,D44,1*%
%TO.N,R_ROW4*%
X197562500Y-146125000D03*
%TO.P,D44,2*%
%TO.N,RK44_D*%
X193962500Y-146125000D03*
%TD*%
%TO.P,D15,1*%
%TO.N,R_ROW1*%
X145175000Y-88975000D03*
%TO.P,D15,2*%
%TO.N,RK15_D*%
X141575000Y-88975000D03*
%TD*%
%TO.P,D13,1*%
%TO.N,R_ROW1*%
X107075000Y-88975000D03*
%TO.P,D13,2*%
%TO.N,RK13_D*%
X103475000Y-88975000D03*
%TD*%
%TO.P,D28,1*%
%TO.N,R_ROW3*%
X64212500Y-127075000D03*
%TO.P,D28,2*%
%TO.N,RK28_D*%
X60612500Y-127075000D03*
%TD*%
%TO.P,D7,1*%
%TO.N,R_ROW0*%
X173750000Y-69925000D03*
%TO.P,D7,2*%
%TO.N,RK07_D*%
X170150000Y-69925000D03*
%TD*%
%TO.P,D32,1*%
%TO.N,R_ROW3*%
X140412500Y-127075000D03*
%TO.P,D32,2*%
%TO.N,RK32_D*%
X136812500Y-127075000D03*
%TD*%
%TO.P,D21,1*%
%TO.N,R_ROW2*%
X92787500Y-108025000D03*
%TO.P,D21,2*%
%TO.N,RK21_D*%
X89187500Y-108025000D03*
%TD*%
%TO.P,D41,1*%
%TO.N,R_ROW4*%
X140412500Y-146125000D03*
%TO.P,D41,2*%
%TO.N,RK41_D*%
X136812500Y-146125000D03*
%TD*%
%TO.P,D5,1*%
%TO.N,R_ROW0*%
X135650000Y-69925000D03*
%TO.P,D5,2*%
%TO.N,RK05_D*%
X132050000Y-69925000D03*
%TD*%
D14*
%TO.N,R_COL6*%
X167403200Y-63167100D03*
%TO.N,R_COL3*%
X104687400Y-59915900D03*
X108635700Y-104668500D03*
%TO.N,R_COL4*%
X131141600Y-83700700D03*
X135114000Y-121727300D03*
X127770000Y-104657800D03*
%TO.N,R_COL7*%
X188246400Y-63166400D03*
X191000000Y-100412400D03*
X194674800Y-124511700D03*
%TO.N,R_COL1*%
X78809400Y-116777200D03*
X68530000Y-69575100D03*
X79141000Y-142331100D03*
X70223700Y-104713800D03*
%TO.N,R_COL2*%
X92857800Y-86324900D03*
X89985600Y-66260900D03*
%TO.N,R_COL5*%
X146479300Y-104657800D03*
X146558800Y-63460200D03*
%TO.N,RST*%
X66164800Y-59917500D03*
%TO.N,GND*%
X76940700Y-56673000D03*
%TO.N,R_ROW3*%
X83846200Y-122019000D03*
%TO.N,R_ROW0*%
X81313300Y-68803700D03*
%TO.N,R_ROW1*%
X81052800Y-87824800D03*
%TO.N,R_ROW2*%
X75088400Y-108000500D03*
%TO.N,R_ROW4*%
X75097600Y-144981100D03*
%TO.N,RK05_D*%
X134054900Y-69585200D03*
%TD*%
%TO.N,R_COL8*%
D15*
X214812500Y-71625000D02*
X216711900Y-71625000D01*
X216743400Y-90675000D02*
X218512500Y-88905900D01*
X214812500Y-90675000D02*
X216743400Y-90675000D01*
X218512500Y-159625000D02*
X221757300Y-156380200D01*
X218512500Y-147825000D02*
X218512500Y-140575000D01*
X216711900Y-71625000D02*
X217645900Y-70691000D01*
X218512500Y-121525000D02*
X218512500Y-126974400D01*
X218512500Y-88905900D02*
X218512500Y-83425000D01*
X219625000Y-147825000D02*
X218512500Y-147825000D01*
X217645900Y-69098600D02*
X210422700Y-61875400D01*
X216711900Y-128775000D02*
X214812500Y-128775000D01*
X86814500Y-56659500D02*
X85000500Y-56659500D01*
X221757300Y-156380200D02*
X221757300Y-149957300D01*
X210422700Y-61875400D02*
X91017500Y-61875400D01*
X218512500Y-107955900D02*
X218512500Y-102475000D01*
X218512500Y-147825000D02*
X214812500Y-147825000D01*
X87623300Y-57468300D02*
X86814500Y-56659500D01*
X217645900Y-70691000D02*
X217645900Y-69098600D01*
X218512500Y-126974400D02*
X216711900Y-128775000D01*
X216743400Y-109725000D02*
X218512500Y-107955900D01*
X85000500Y-56659500D02*
X83770000Y-57890000D01*
X87623300Y-58481200D02*
X87623300Y-57468300D01*
X91017500Y-61875400D02*
X87623300Y-58481200D01*
X221757300Y-149957300D02*
X219625000Y-147825000D01*
X214812500Y-109725000D02*
X216743400Y-109725000D01*
%TO.N,RK18_D*%
X209761200Y-98150400D02*
X214173000Y-93738600D01*
X206112500Y-100375000D02*
X208337100Y-98150400D01*
X219812500Y-92775000D02*
X214173000Y-92775000D01*
X213012500Y-91614500D02*
X213012500Y-88975000D01*
X208337100Y-98150400D02*
X209761200Y-98150400D01*
X214173000Y-92775000D02*
X213012500Y-91614500D01*
X214173000Y-93738600D02*
X214173000Y-92775000D01*
%TO.N,R_COL0*%
X63162000Y-147825000D02*
X63162000Y-143525500D01*
X49943800Y-87144900D02*
X48125000Y-88963700D01*
X67225000Y-147825000D02*
X63162000Y-147825000D01*
X69342400Y-156395100D02*
X69342400Y-149942400D01*
X56587500Y-121525000D02*
X56873800Y-121525000D01*
X56873800Y-121525000D02*
X62412500Y-127063700D01*
X57630100Y-87144900D02*
X49943800Y-87144900D01*
X62412500Y-127063700D02*
X62412500Y-128775000D01*
X63162000Y-147825000D02*
X62412500Y-147825000D01*
X52887500Y-109725000D02*
X52887500Y-103537500D01*
X61350000Y-83425000D02*
X57630100Y-87144900D01*
X48125000Y-88963700D02*
X48125000Y-90675000D01*
X52887500Y-103537500D02*
X51825000Y-102475000D01*
X63162000Y-143525500D02*
X66112500Y-140575000D01*
X69342400Y-149942400D02*
X67225000Y-147825000D01*
X66112500Y-159625000D02*
X69342400Y-156395100D01*
%TO.N,RK10_D*%
X39425000Y-97728500D02*
X39425000Y-100375000D01*
X46325000Y-92775000D02*
X44378500Y-92775000D01*
X44378500Y-92775000D02*
X39425000Y-97728500D01*
X46325000Y-88975000D02*
X46325000Y-92775000D01*
X53125000Y-92775000D02*
X46325000Y-92775000D01*
%TO.N,R_COL6*%
X183689600Y-130928500D02*
X181536100Y-128775000D01*
X166125000Y-102475000D02*
X169409100Y-99190900D01*
X169409100Y-91684100D02*
X168400000Y-90675000D01*
X183648900Y-149950300D02*
X181523600Y-147825000D01*
X180412500Y-159625000D02*
X183648900Y-156388600D01*
X174122800Y-111829900D02*
X172017900Y-109725000D01*
X170887500Y-121525000D02*
X174122800Y-118289700D01*
X86173400Y-62833400D02*
X167069500Y-62833400D01*
X181536100Y-128775000D02*
X176712500Y-128775000D01*
X168400000Y-90675000D02*
X162425000Y-90675000D01*
X183648900Y-156388600D02*
X183648900Y-149950300D01*
X183689600Y-137297900D02*
X183689600Y-130928500D01*
X174122800Y-118289700D02*
X174122800Y-111829900D01*
X81230000Y-57890000D02*
X86173400Y-62833400D01*
X175650000Y-83425000D02*
X168400000Y-90675000D01*
X169409100Y-99190900D02*
X169409100Y-91684100D01*
X181523600Y-147825000D02*
X176712500Y-147825000D01*
X180412500Y-140575000D02*
X183689600Y-137297900D01*
X172017900Y-109725000D02*
X167187500Y-109725000D01*
X167069500Y-62833400D02*
X167403200Y-63167100D01*
%TO.N,RK16_D*%
X153725000Y-100375000D02*
X155949600Y-98150400D01*
X161645600Y-93878500D02*
X161645600Y-92775000D01*
X160625000Y-91754400D02*
X160625000Y-88975000D01*
X161645600Y-92775000D02*
X160625000Y-91754400D01*
X167425000Y-92775000D02*
X161645600Y-92775000D01*
X157373700Y-98150400D02*
X161645600Y-93878500D01*
X155949600Y-98150400D02*
X157373700Y-98150400D01*
%TO.N,R_COL3*%
X126525300Y-149974600D02*
X124375700Y-147825000D01*
X104687400Y-59915900D02*
X100035600Y-55264100D01*
X77493800Y-55701000D02*
X77387400Y-55594600D01*
X121732200Y-80192800D02*
X121732200Y-73775900D01*
X119581300Y-71625000D02*
X114800000Y-71625000D01*
X113737500Y-121525000D02*
X116977700Y-118284800D01*
X123262500Y-159625000D02*
X126525300Y-156362200D01*
X83095200Y-55701000D02*
X77493800Y-55701000D01*
X108635700Y-104668500D02*
X108635700Y-102814300D01*
X77387400Y-55594600D02*
X75905400Y-55594600D01*
X126535300Y-137302200D02*
X126535300Y-130936700D01*
X124375700Y-147825000D02*
X119562500Y-147825000D01*
X100035600Y-55264100D02*
X83532100Y-55264100D01*
X114871600Y-109725000D02*
X110037500Y-109725000D01*
X124373600Y-128775000D02*
X119562500Y-128775000D01*
X123262500Y-140575000D02*
X126535300Y-137302200D01*
X75905400Y-55594600D02*
X73610000Y-57890000D01*
X83532100Y-55264100D02*
X83095200Y-55701000D01*
X116977700Y-118284800D02*
X116977700Y-111831100D01*
X108635700Y-102814300D02*
X108975000Y-102475000D01*
X126525300Y-156362200D02*
X126525300Y-149974600D01*
X121732200Y-73775900D02*
X119581300Y-71625000D01*
X126535300Y-130936700D02*
X124373600Y-128775000D01*
X118500000Y-83425000D02*
X121732200Y-80192800D01*
X116977700Y-111831100D02*
X114871600Y-109725000D01*
%TO.N,RK40_D*%
X110862500Y-154894400D02*
X110862500Y-157525000D01*
X115831900Y-149925000D02*
X110862500Y-154894400D01*
X124562500Y-149925000D02*
X117762500Y-149925000D01*
X117762500Y-149925000D02*
X115831900Y-149925000D01*
X117762500Y-146125000D02*
X117762500Y-149925000D01*
%TO.N,R_COL4*%
X137550000Y-83425000D02*
X135468700Y-85506300D01*
X133850000Y-71625000D02*
X121988600Y-71625000D01*
X143450700Y-128775000D02*
X138612500Y-128775000D01*
X121988600Y-71625000D02*
X115486100Y-65122500D01*
X135114000Y-121727300D02*
X132989800Y-121727300D01*
X132989800Y-121727300D02*
X132787500Y-121525000D01*
X128025000Y-104402800D02*
X127770000Y-104657800D01*
X145545200Y-156392300D02*
X145545200Y-149929200D01*
X128025000Y-102475000D02*
X128025000Y-104402800D01*
X143441000Y-147825000D02*
X138612500Y-147825000D01*
X115486100Y-65122500D02*
X83382500Y-65122500D01*
X145545200Y-149929200D02*
X143441000Y-147825000D01*
X132947200Y-85506300D02*
X131141600Y-83700700D01*
X145558400Y-130882700D02*
X143450700Y-128775000D01*
X142312500Y-159625000D02*
X145545200Y-156392300D01*
X135468700Y-85506300D02*
X132947200Y-85506300D01*
X145558400Y-137329100D02*
X145558400Y-130882700D01*
X83382500Y-65122500D02*
X76150000Y-57890000D01*
X142312500Y-140575000D02*
X145558400Y-137329100D01*
%TO.N,RK32_D*%
X137757600Y-130875000D02*
X136812500Y-129929900D01*
X137757600Y-132054000D02*
X137757600Y-130875000D01*
X133561200Y-136250400D02*
X137757600Y-132054000D01*
X132137100Y-136250400D02*
X133561200Y-136250400D01*
X143612500Y-130875000D02*
X137757600Y-130875000D01*
X129912500Y-138475000D02*
X132137100Y-136250400D01*
X136812500Y-129929900D02*
X136812500Y-127075000D01*
%TO.N,RK13_D*%
X96575000Y-97688000D02*
X96575000Y-100375000D01*
X101488000Y-92775000D02*
X96575000Y-97688000D01*
X103475000Y-92775000D02*
X101488000Y-92775000D01*
X103475000Y-92775000D02*
X103475000Y-88975000D01*
X110275000Y-92775000D02*
X103475000Y-92775000D01*
%TO.N,RK04_D*%
X109748700Y-79100400D02*
X114014200Y-74834900D01*
X108324600Y-79100400D02*
X109748700Y-79100400D01*
X119800000Y-73725000D02*
X114014200Y-73725000D01*
X106100000Y-81325000D02*
X108324600Y-79100400D01*
X114014200Y-74834900D02*
X114014200Y-73725000D01*
X113000000Y-72710800D02*
X113000000Y-69925000D01*
X114014200Y-73725000D02*
X113000000Y-72710800D01*
%TO.N,R_COL7*%
X192318800Y-102475000D02*
X192318800Y-101731200D01*
X202697800Y-156389700D02*
X202697800Y-149929900D01*
X202698600Y-137338900D02*
X202698600Y-130907400D01*
X200310000Y-80196300D02*
X200310000Y-73730500D01*
X90801700Y-62381700D02*
X187461700Y-62381700D01*
X199462500Y-159625000D02*
X202697800Y-156389700D01*
X202697800Y-149929900D02*
X200592900Y-147825000D01*
X86310000Y-57890000D02*
X90801700Y-62381700D01*
X200592900Y-147825000D02*
X195762500Y-147825000D01*
X187461700Y-62381700D02*
X188246400Y-63166400D01*
X199462500Y-140575000D02*
X202698600Y-137338900D01*
X200566200Y-128775000D02*
X195762500Y-128775000D01*
X197081300Y-83425000D02*
X200310000Y-80196300D01*
X192318800Y-101731200D02*
X191000000Y-100412400D01*
X198204500Y-71625000D02*
X193381300Y-71625000D01*
X194674800Y-121550200D02*
X194700000Y-121525000D01*
X202698600Y-130907400D02*
X200566200Y-128775000D01*
X194674800Y-124511700D02*
X194674800Y-121550200D01*
X200310000Y-73730500D02*
X198204500Y-71625000D01*
%TO.N,RK26_D*%
X191185100Y-112050200D02*
X191185100Y-111825000D01*
X189200000Y-109839900D02*
X191185100Y-111825000D01*
X189200000Y-108025000D02*
X189200000Y-109839900D01*
X191185100Y-111825000D02*
X196000000Y-111825000D01*
X186034900Y-117200400D02*
X191185100Y-112050200D01*
X182300000Y-119425000D02*
X184524600Y-117200400D01*
X184524600Y-117200400D02*
X186034900Y-117200400D01*
%TO.N,RK25_D*%
X160596500Y-117316000D02*
X158487500Y-119425000D01*
X167408100Y-111825000D02*
X165387500Y-109804400D01*
X167408100Y-111986900D02*
X162079000Y-117316000D01*
X165387500Y-109804400D02*
X165387500Y-108025000D01*
X172187500Y-111825000D02*
X167408100Y-111825000D01*
X162079000Y-117316000D02*
X160596500Y-117316000D01*
X167408100Y-111825000D02*
X167408100Y-111986900D01*
%TO.N,RK07_D*%
X176281600Y-73056600D02*
X176950000Y-73725000D01*
X163250000Y-81325000D02*
X163250000Y-78684400D01*
X163250000Y-78684400D02*
X168877800Y-73056600D01*
X170150000Y-73056600D02*
X170150000Y-69925000D01*
X168877800Y-73056600D02*
X170150000Y-73056600D01*
X170150000Y-73056600D02*
X176281600Y-73056600D01*
%TO.N,R_COL1*%
X86283500Y-147825000D02*
X81462500Y-147825000D01*
X76700000Y-69934100D02*
X76700000Y-71625000D01*
X83640700Y-80184300D02*
X83640700Y-73733200D01*
X79536200Y-142726300D02*
X83011200Y-142726300D01*
X69297600Y-68807500D02*
X75573400Y-68807500D01*
X76716200Y-109725000D02*
X78886200Y-111895000D01*
X80400000Y-83425000D02*
X83640700Y-80184300D01*
X85162500Y-159625000D02*
X88411900Y-156375600D01*
X81532500Y-71625000D02*
X76700000Y-71625000D01*
X83011200Y-142726300D02*
X85162500Y-140575000D01*
X88411900Y-149953400D02*
X86283500Y-147825000D01*
X70223700Y-103126300D02*
X70875000Y-102475000D01*
X75573400Y-68807500D02*
X76700000Y-69934100D01*
X78886200Y-116700400D02*
X78809400Y-116777200D01*
X70223700Y-104713800D02*
X70223700Y-103126300D01*
X68530000Y-69575100D02*
X69297600Y-68807500D01*
X78809400Y-118353100D02*
X75637500Y-121525000D01*
X78886200Y-111895000D02*
X78886200Y-116700400D01*
X83640700Y-73733200D02*
X81532500Y-71625000D01*
X88411900Y-156375600D02*
X88411900Y-149953400D01*
X78809400Y-116777200D02*
X78809400Y-118353100D01*
X79141000Y-142331100D02*
X79536200Y-142726300D01*
X71937500Y-109725000D02*
X76716200Y-109725000D01*
%TO.N,RK02_D*%
X68000000Y-78653100D02*
X74895300Y-71757800D01*
X76862500Y-73725000D02*
X81700000Y-73725000D01*
X74895300Y-71757800D02*
X76862500Y-73725000D01*
X68000000Y-81325000D02*
X68000000Y-78653100D01*
X74895300Y-69929700D02*
X74895300Y-71757800D01*
X74900000Y-69925000D02*
X74895300Y-69929700D01*
%TO.N,RK34_D*%
X176897600Y-131100200D02*
X176897600Y-130875000D01*
X176897600Y-130875000D02*
X181712500Y-130875000D01*
X170237100Y-136250400D02*
X171747400Y-136250400D01*
X174912500Y-127075000D02*
X174912500Y-128889900D01*
X174912500Y-128889900D02*
X176897600Y-130875000D01*
X171747400Y-136250400D02*
X176897600Y-131100200D01*
X168012500Y-138475000D02*
X170237100Y-136250400D01*
%TO.N,RK31_D*%
X124562500Y-130875000D02*
X117762500Y-130875000D01*
X115818500Y-130875000D02*
X110862500Y-135831000D01*
X117762500Y-130875000D02*
X115818500Y-130875000D01*
X117762500Y-130875000D02*
X117762500Y-127075000D01*
X110862500Y-135831000D02*
X110862500Y-138475000D01*
%TO.N,RK38_D*%
X79662500Y-149925000D02*
X79662500Y-146125000D01*
X77731900Y-149925000D02*
X72762500Y-154894400D01*
X79662500Y-149925000D02*
X77731900Y-149925000D01*
X72762500Y-154894400D02*
X72762500Y-157525000D01*
X86462500Y-149925000D02*
X79662500Y-149925000D01*
%TO.N,RK41_D*%
X136812500Y-146125000D02*
X136812500Y-147901700D01*
X132137100Y-155300400D02*
X133647400Y-155300400D01*
X133647400Y-155300400D02*
X138835800Y-150112000D01*
X129912500Y-157525000D02*
X132137100Y-155300400D01*
X136812500Y-147901700D02*
X138835800Y-149925000D01*
X138835800Y-149925000D02*
X143612500Y-149925000D01*
X138835800Y-150112000D02*
X138835800Y-149925000D01*
%TO.N,RK22_D*%
X101337500Y-119425000D02*
X103562100Y-117200400D01*
X110222600Y-111825000D02*
X115037500Y-111825000D01*
X103562100Y-117200400D02*
X105072400Y-117200400D01*
X108237500Y-109839900D02*
X110222600Y-111825000D01*
X110222600Y-112050200D02*
X110222600Y-111825000D01*
X108237500Y-108025000D02*
X108237500Y-109839900D01*
X105072400Y-117200400D02*
X110222600Y-112050200D01*
%TO.N,R_COL2*%
X97933700Y-118278800D02*
X97933700Y-111832700D01*
X107478400Y-130902700D02*
X105350700Y-128775000D01*
X107453200Y-156384300D02*
X107453200Y-149932700D01*
X95826000Y-109725000D02*
X90987500Y-109725000D01*
X65532900Y-59647400D02*
X65532900Y-60237800D01*
X97933700Y-111832700D02*
X95826000Y-109725000D01*
X107453200Y-149932700D02*
X105345500Y-147825000D01*
X92857800Y-86324900D02*
X96550100Y-86324900D01*
X105345500Y-147825000D02*
X100512500Y-147825000D01*
X94687500Y-121525000D02*
X97933700Y-118278800D01*
X69669300Y-59290700D02*
X65889600Y-59290700D01*
X71070000Y-57890000D02*
X69669300Y-59290700D01*
X107478400Y-137309100D02*
X107478400Y-130902700D01*
X105350700Y-128775000D02*
X100512500Y-128775000D01*
X65532900Y-60237800D02*
X71556000Y-66260900D01*
X104212500Y-140575000D02*
X107478400Y-137309100D01*
X90987500Y-103537500D02*
X89925000Y-102475000D01*
X96550100Y-86324900D02*
X99450000Y-83425000D01*
X65889600Y-59290700D02*
X65532900Y-59647400D01*
X90987500Y-109725000D02*
X90987500Y-103537500D01*
X104212500Y-159625000D02*
X107453200Y-156384300D01*
X71556000Y-66260900D02*
X89985600Y-66260900D01*
%TO.N,RK21_D*%
X85861200Y-117316000D02*
X91082300Y-112094900D01*
X84396500Y-117316000D02*
X85861200Y-117316000D01*
X82287500Y-119425000D02*
X84396500Y-117316000D01*
X91082300Y-111825000D02*
X89187500Y-109930200D01*
X95987500Y-111825000D02*
X91082300Y-111825000D01*
X91082300Y-112094900D02*
X91082300Y-111825000D01*
X89187500Y-109930200D02*
X89187500Y-108025000D01*
%TO.N,R_COL5*%
X161362500Y-140575000D02*
X164639600Y-137297900D01*
X151837500Y-121525000D02*
X155072800Y-118289700D01*
X159848700Y-80176300D02*
X156600000Y-83425000D01*
X147075000Y-102475000D02*
X146479300Y-103070700D01*
X164639600Y-137297900D02*
X164639600Y-130928500D01*
X155072800Y-111829900D02*
X152967900Y-109725000D01*
X155072800Y-118289700D02*
X155072800Y-111829900D01*
X162494700Y-147825000D02*
X157662500Y-147825000D01*
X159848700Y-73795000D02*
X159848700Y-80176300D01*
X161362500Y-159625000D02*
X164600200Y-156387300D01*
X152900000Y-71625000D02*
X157678700Y-71625000D01*
X157678700Y-71625000D02*
X159848700Y-73795000D01*
X84260200Y-63460200D02*
X146558800Y-63460200D01*
X164600200Y-149930500D02*
X162494700Y-147825000D01*
X152967900Y-109725000D02*
X148137500Y-109725000D01*
X78690000Y-57890000D02*
X84260200Y-63460200D01*
X146479300Y-103070700D02*
X146479300Y-104657800D01*
X164639600Y-130928500D02*
X162486100Y-128775000D01*
X164600200Y-156387300D02*
X164600200Y-149930500D01*
X162486100Y-128775000D02*
X157662500Y-128775000D01*
%TO.N,RK24_D*%
X148266500Y-111825000D02*
X146337500Y-109896000D01*
X148266500Y-112038900D02*
X148266500Y-111825000D01*
X142989400Y-117316000D02*
X148266500Y-112038900D01*
X139437500Y-119425000D02*
X141546500Y-117316000D01*
X141546500Y-117316000D02*
X142989400Y-117316000D01*
X146337500Y-109896000D02*
X146337500Y-108025000D01*
X153137500Y-111825000D02*
X148266500Y-111825000D01*
%TO.N,RK15_D*%
X136899600Y-98150400D02*
X138323700Y-98150400D01*
X148375000Y-92775000D02*
X142595600Y-92775000D01*
X134675000Y-100375000D02*
X136899600Y-98150400D01*
X142595600Y-92775000D02*
X141575000Y-91754400D01*
X138323700Y-98150400D02*
X142595600Y-93878500D01*
X142595600Y-93878500D02*
X142595600Y-92775000D01*
X141575000Y-91754400D02*
X141575000Y-88975000D01*
%TO.N,RK39_D*%
X91812500Y-157525000D02*
X91812500Y-154884400D01*
X91812500Y-154884400D02*
X97440300Y-149256600D01*
X97440300Y-149256600D02*
X98712500Y-149256600D01*
X98712500Y-149256600D02*
X98712500Y-146125000D01*
X98712500Y-149256600D02*
X104844100Y-149256600D01*
X104844100Y-149256600D02*
X105512500Y-149925000D01*
%TO.N,RK06_D*%
X153224000Y-73725000D02*
X153172000Y-73777000D01*
X144200000Y-81325000D02*
X146424600Y-79100400D01*
X153172000Y-73777000D02*
X151100000Y-71705100D01*
X146424600Y-79100400D02*
X147848600Y-79100400D01*
X151100000Y-71705100D02*
X151100000Y-69925000D01*
X157900000Y-73725000D02*
X153224000Y-73725000D01*
X147848600Y-79100400D02*
X153172000Y-73777000D01*
%TO.N,RK43_D*%
X174912500Y-147998600D02*
X174912500Y-146125000D01*
X176838900Y-149925000D02*
X174912500Y-147998600D01*
X176838900Y-150140200D02*
X176838900Y-149925000D01*
X168012500Y-157525000D02*
X170121500Y-155416000D01*
X170121500Y-155416000D02*
X171563100Y-155416000D01*
X171563100Y-155416000D02*
X176838900Y-150140200D01*
X181712500Y-149925000D02*
X176838900Y-149925000D01*
%TO.N,RK09_D*%
X206112500Y-81325000D02*
X208337100Y-79100400D01*
X208337100Y-79100400D02*
X209761200Y-79100400D01*
X213012500Y-72704400D02*
X213012500Y-69925000D01*
X214033100Y-74828500D02*
X214033100Y-73725000D01*
X209761200Y-79100400D02*
X214033100Y-74828500D01*
X219812500Y-73725000D02*
X214033100Y-73725000D01*
X214033100Y-73725000D02*
X213012500Y-72704400D01*
%TO.N,RK23_D*%
X127287500Y-110810800D02*
X127287500Y-108025000D01*
X128301700Y-111825000D02*
X127287500Y-110810800D01*
X134087500Y-111825000D02*
X128301700Y-111825000D01*
X128301700Y-112934900D02*
X128301700Y-111825000D01*
X124036200Y-117200400D02*
X128301700Y-112934900D01*
X120387500Y-119425000D02*
X122612100Y-117200400D01*
X122612100Y-117200400D02*
X124036200Y-117200400D01*
%TO.N,RK36_D*%
X213012500Y-128855100D02*
X213012500Y-127075000D01*
X209761100Y-136250400D02*
X215084500Y-130927000D01*
X208337100Y-136250400D02*
X209761100Y-136250400D01*
X215084500Y-130927000D02*
X213012500Y-128855100D01*
X206112500Y-138475000D02*
X208337100Y-136250400D01*
X219812500Y-130875000D02*
X215136500Y-130875000D01*
X215136500Y-130875000D02*
X215084500Y-130927000D01*
%TO.N,RK27_D*%
X206112500Y-119425000D02*
X208337100Y-117200400D01*
X214997600Y-111825000D02*
X219812500Y-111825000D01*
X213012500Y-108025000D02*
X213012500Y-109839900D01*
X209847400Y-117200400D02*
X214997600Y-112050200D01*
X208337100Y-117200400D02*
X209847400Y-117200400D01*
X213012500Y-109839900D02*
X214997600Y-111825000D01*
X214997600Y-112050200D02*
X214997600Y-111825000D01*
%TO.N,RK35_D*%
X195947600Y-130875000D02*
X200762500Y-130875000D01*
X189171500Y-136366000D02*
X187062500Y-138475000D01*
X190636300Y-136366000D02*
X189171500Y-136366000D01*
X193962500Y-128889900D02*
X195947600Y-130875000D01*
X195947600Y-130875000D02*
X195947600Y-131054700D01*
X195947600Y-131054700D02*
X190636300Y-136366000D01*
X193962500Y-127075000D02*
X193962500Y-128889900D01*
%TO.N,RST*%
X83267500Y-56167500D02*
X77321500Y-56167500D01*
X77321500Y-56167500D02*
X77200300Y-56046300D01*
X73331300Y-59917500D02*
X66164800Y-59917500D01*
X91390000Y-57890000D02*
X89215800Y-55715800D01*
X74880000Y-58368800D02*
X73331300Y-59917500D01*
X76184700Y-56046300D02*
X74880000Y-57351000D01*
X83719200Y-55715800D02*
X83454600Y-55980400D01*
X89215800Y-55715800D02*
X83719200Y-55715800D01*
X83454600Y-55980400D02*
X83267500Y-56167500D01*
X77200300Y-56046300D02*
X76184700Y-56046300D01*
X74880000Y-57351000D02*
X74880000Y-58368800D01*
X83454600Y-55980400D02*
X83267500Y-56167500D01*
%TO.N,GND*%
X93930000Y-57890000D02*
X92635200Y-59184800D01*
X92635200Y-59184800D02*
X90880900Y-59184800D01*
X76950400Y-56663300D02*
X76940700Y-56673000D01*
X90163300Y-57385300D02*
X88945500Y-56167500D01*
X90163300Y-58467200D02*
X90163300Y-57385300D01*
X84131500Y-56167500D02*
X83635700Y-56663300D01*
X83635700Y-56663300D02*
X76950400Y-56663300D01*
X90880900Y-59184800D02*
X90163300Y-58467200D01*
X88945500Y-56167500D02*
X84131500Y-56167500D01*
%TO.N,RK11_D*%
X72175000Y-92775000D02*
X65375000Y-92775000D01*
X58475000Y-97731000D02*
X58475000Y-100375000D01*
X63431000Y-92775000D02*
X58475000Y-97731000D01*
X65375000Y-88975000D02*
X65375000Y-92775000D01*
X65375000Y-92775000D02*
X63431000Y-92775000D01*
%TO.N,RK44_D*%
X200762500Y-149925000D02*
X193962500Y-149925000D01*
X193962500Y-146125000D02*
X193962500Y-149925000D01*
X192031900Y-149925000D02*
X187062500Y-154894400D01*
X187062500Y-154894400D02*
X187062500Y-157525000D01*
X193962500Y-149925000D02*
X192031900Y-149925000D01*
%TO.N,RK20_D*%
X68194600Y-111825000D02*
X63237500Y-116782100D01*
X63237500Y-116782100D02*
X63237500Y-119425000D01*
X70137500Y-111825000D02*
X68194600Y-111825000D01*
X76937500Y-111825000D02*
X70137500Y-111825000D01*
X70137500Y-111825000D02*
X70137500Y-108025000D01*
%TO.N,RK30_D*%
X98712500Y-127075000D02*
X98712500Y-128906100D01*
X94037100Y-136250400D02*
X95461100Y-136250400D01*
X95461100Y-136250400D02*
X100681400Y-131030100D01*
X98712500Y-128906100D02*
X100681400Y-130875000D01*
X91812500Y-138475000D02*
X94037100Y-136250400D01*
X100681400Y-130875000D02*
X105512500Y-130875000D01*
X100681400Y-131030100D02*
X100681400Y-130875000D01*
%TO.N,RK08_D*%
X184681300Y-78683800D02*
X184681300Y-81325000D01*
X198381300Y-73725000D02*
X191581300Y-73725000D01*
X191581300Y-73725000D02*
X189640100Y-73725000D01*
X191581300Y-69925000D02*
X191581300Y-73725000D01*
X189640100Y-73725000D02*
X184681300Y-78683800D01*
%TO.N,RK28_D*%
X53712500Y-135821600D02*
X53712500Y-138475000D01*
X67412500Y-130875000D02*
X60612500Y-130875000D01*
X60612500Y-130875000D02*
X60612500Y-127075000D01*
X58659100Y-130875000D02*
X53712500Y-135821600D01*
X60612500Y-130875000D02*
X58659100Y-130875000D01*
%TO.N,RK45_D*%
X214997600Y-149925000D02*
X219812500Y-149925000D01*
X208337100Y-155300400D02*
X209847400Y-155300400D01*
X213012500Y-147939900D02*
X214997600Y-149925000D01*
X209847400Y-155300400D02*
X214997600Y-150150200D01*
X214997600Y-150150200D02*
X214997600Y-149925000D01*
X213012500Y-146125000D02*
X213012500Y-147939900D01*
X206112500Y-157525000D02*
X208337100Y-155300400D01*
%TO.N,RK29_D*%
X72762500Y-138475000D02*
X74987100Y-136250400D01*
X81647600Y-131100200D02*
X81647600Y-130875000D01*
X79662500Y-128889900D02*
X81647600Y-130875000D01*
X76497400Y-136250400D02*
X81647600Y-131100200D01*
X81647600Y-130875000D02*
X86462500Y-130875000D01*
X74987100Y-136250400D02*
X76497400Y-136250400D01*
X79662500Y-127075000D02*
X79662500Y-128889900D01*
%TO.N,RK33_D*%
X148962500Y-138475000D02*
X151187100Y-136250400D01*
X157847600Y-131100200D02*
X157847600Y-130875000D01*
X151187100Y-136250400D02*
X152697400Y-136250400D01*
X155862500Y-128889900D02*
X157847600Y-130875000D01*
X152697400Y-136250400D02*
X157847600Y-131100200D01*
X155862500Y-127075000D02*
X155862500Y-128889900D01*
X157847600Y-130875000D02*
X162662500Y-130875000D01*
%TO.N,R_ROW3*%
X84419600Y-125917900D02*
X83262500Y-127075000D01*
X178512500Y-125949500D02*
X160588000Y-125949500D01*
X196437000Y-125949500D02*
X178512500Y-125949500D01*
X84419600Y-122592400D02*
X83846200Y-122019000D01*
X65337800Y-125949700D02*
X82137200Y-125949700D01*
X215461300Y-125923800D02*
X198713700Y-125923800D01*
X141569600Y-125917900D02*
X140412500Y-127075000D01*
X121362500Y-127075000D02*
X120205400Y-125917900D01*
X82137200Y-125949700D02*
X83262500Y-127075000D01*
X137156300Y-123818800D02*
X124618700Y-123818800D01*
X197562500Y-127075000D02*
X196437000Y-125949500D01*
X124618700Y-123818800D02*
X121362500Y-127075000D01*
X178512500Y-127075000D02*
X178512500Y-125949500D01*
X159462500Y-127075000D02*
X158305400Y-125917900D01*
X198713700Y-125923800D02*
X197562500Y-127075000D01*
X160588000Y-125949500D02*
X159462500Y-127075000D01*
X84419600Y-125917900D02*
X84419600Y-122592400D01*
X64212500Y-127075000D02*
X65337800Y-125949700D01*
X120205400Y-125917900D02*
X102312500Y-125917900D01*
X216612500Y-127075000D02*
X215461300Y-125923800D01*
X102312500Y-127075000D02*
X102312500Y-125917900D01*
X140412500Y-127075000D02*
X137156300Y-123818800D01*
X102312500Y-125917900D02*
X84419600Y-125917900D01*
X158305400Y-125917900D02*
X141569600Y-125917900D01*
%TO.N,R_ROW0*%
X97550000Y-68803700D02*
X97550000Y-69925000D01*
X155824600Y-68800400D02*
X154700000Y-69925000D01*
X134390700Y-72999200D02*
X122461600Y-72999200D01*
X97550000Y-68803700D02*
X81313300Y-68803700D01*
X122461600Y-72999200D02*
X119387400Y-69925000D01*
X153571000Y-68796000D02*
X154700000Y-69925000D01*
X174915800Y-68759200D02*
X194015500Y-68759200D01*
X135650000Y-69925000D02*
X135650000Y-71739900D01*
X194015500Y-68759200D02*
X195181300Y-69925000D01*
X135650000Y-71739900D02*
X134390700Y-72999200D01*
X196305900Y-68800400D02*
X215487900Y-68800400D01*
X215487900Y-68800400D02*
X216612500Y-69925000D01*
X173750000Y-69925000D02*
X172625400Y-68800400D01*
X135650000Y-69925000D02*
X136779000Y-68796000D01*
X81313300Y-68803700D02*
X79621300Y-68803700D01*
X78500000Y-69925000D02*
X76930800Y-68355800D01*
X119387400Y-69925000D02*
X116600000Y-69925000D01*
X136779000Y-68796000D02*
X153571000Y-68796000D01*
X79621300Y-68803700D02*
X78500000Y-69925000D01*
X115478700Y-68803700D02*
X97550000Y-68803700D01*
X116600000Y-69925000D02*
X115478700Y-68803700D01*
X173750000Y-69925000D02*
X174915800Y-68759200D01*
X172625400Y-68800400D02*
X155824600Y-68800400D01*
X76930800Y-68355800D02*
X61019200Y-68355800D01*
X61019200Y-68355800D02*
X59450000Y-69925000D01*
X195181300Y-69925000D02*
X196305900Y-68800400D01*
%TO.N,R_ROW1*%
X164225000Y-87824800D02*
X170725500Y-81324300D01*
X68975000Y-88975000D02*
X70125200Y-87824800D01*
X185554800Y-87632700D02*
X189076500Y-87632700D01*
X146325200Y-87824800D02*
X164225000Y-87824800D01*
X107075000Y-88975000D02*
X108192300Y-87857700D01*
X51082100Y-87817900D02*
X67817900Y-87817900D01*
X144013300Y-87813300D02*
X145175000Y-88975000D01*
X88025000Y-88975000D02*
X89159900Y-87840100D01*
X164225000Y-87824800D02*
X164225000Y-88975000D01*
X81052800Y-87824800D02*
X86874800Y-87824800D01*
X125007700Y-87857700D02*
X126125000Y-88975000D01*
X179246400Y-81324300D02*
X185554800Y-87632700D01*
X127286700Y-87813300D02*
X144013300Y-87813300D01*
X70125200Y-87824800D02*
X81052800Y-87824800D01*
X145175000Y-88975000D02*
X146325200Y-87824800D01*
X191524900Y-87868900D02*
X190418800Y-88975000D01*
X89159900Y-87840100D02*
X105940100Y-87840100D01*
X108192300Y-87857700D02*
X125007700Y-87857700D01*
X49925000Y-88975000D02*
X51082100Y-87817900D01*
X67817900Y-87817900D02*
X68975000Y-88975000D01*
X126125000Y-88975000D02*
X127286700Y-87813300D01*
X86874800Y-87824800D02*
X88025000Y-88975000D01*
X105940100Y-87840100D02*
X107075000Y-88975000D01*
X189076500Y-87632700D02*
X190418800Y-88975000D01*
X170725500Y-81324300D02*
X179246400Y-81324300D01*
X216612500Y-88975000D02*
X215506400Y-87868900D01*
X215506400Y-87868900D02*
X191524900Y-87868900D01*
%TO.N,R_ROW2*%
X131990200Y-106922300D02*
X130887500Y-108025000D01*
X216612500Y-108025000D02*
X215472300Y-106884800D01*
X55831800Y-106880700D02*
X54687500Y-108025000D01*
X84308400Y-100358300D02*
X90620500Y-100358300D01*
X215472300Y-106884800D02*
X192800000Y-106884800D01*
X73762000Y-108000500D02*
X73737500Y-108025000D01*
X110679600Y-106867100D02*
X111837500Y-108025000D01*
X73737500Y-108025000D02*
X72593200Y-106880700D01*
X148834800Y-106922300D02*
X131990200Y-106922300D01*
X151077700Y-106884800D02*
X149937500Y-108025000D01*
X92787500Y-108025000D02*
X93945400Y-106867100D01*
X90620500Y-100358300D02*
X93945400Y-103683200D01*
X130887500Y-108025000D02*
X129739400Y-106876900D01*
X76666200Y-108000500D02*
X84308400Y-100358300D01*
X112985600Y-106876900D02*
X111837500Y-108025000D01*
X75088400Y-108000500D02*
X73762000Y-108000500D01*
X149937500Y-108025000D02*
X148834800Y-106922300D01*
X75088400Y-108000500D02*
X76666200Y-108000500D01*
X129739400Y-106876900D02*
X112985600Y-106876900D01*
X192800000Y-108025000D02*
X192800000Y-106884800D01*
X93945400Y-103683200D02*
X93945400Y-106867100D01*
X168987500Y-106884800D02*
X168987500Y-108025000D01*
X93945400Y-106867100D02*
X110679600Y-106867100D01*
X72593200Y-106880700D02*
X55831800Y-106880700D01*
X168987500Y-106884800D02*
X151077700Y-106884800D01*
X192800000Y-106884800D02*
X168987500Y-106884800D01*
%TO.N,R_ROW4*%
X75097600Y-144981100D02*
X82118600Y-144981100D01*
X122465200Y-145022300D02*
X121362500Y-146125000D01*
X160606400Y-144981100D02*
X159462500Y-146125000D01*
X140412500Y-146125000D02*
X141548400Y-144989100D01*
X64212500Y-146125000D02*
X65356400Y-144981100D01*
X158326600Y-144989100D02*
X159462500Y-146125000D01*
X140412500Y-146125000D02*
X139309800Y-145022300D01*
X197562500Y-146125000D02*
X198702700Y-144984800D01*
X196418600Y-144981100D02*
X178512500Y-144981100D01*
X178512500Y-146125000D02*
X178512500Y-144981100D01*
X215472300Y-144984800D02*
X216612500Y-146125000D01*
X84382300Y-145005200D02*
X83262500Y-146125000D01*
X178512500Y-144981100D02*
X160606400Y-144981100D01*
X139309800Y-145022300D02*
X122465200Y-145022300D01*
X65356400Y-144981100D02*
X75097600Y-144981100D01*
X102312500Y-146125000D02*
X102312500Y-145005200D01*
X120242700Y-145005200D02*
X102312500Y-145005200D01*
X197562500Y-146125000D02*
X196418600Y-144981100D01*
X102312500Y-145005200D02*
X84382300Y-145005200D01*
X198702700Y-144984800D02*
X215472300Y-144984800D01*
X141548400Y-144989100D02*
X158326600Y-144989100D01*
X82118600Y-144981100D02*
X83262500Y-146125000D01*
X121362500Y-146125000D02*
X120242700Y-145005200D01*
%TO.N,RK17_D*%
X186818800Y-88975000D02*
X186818800Y-90834100D01*
X183567400Y-98150400D02*
X188759700Y-92958100D01*
X188759700Y-92958100D02*
X188759700Y-92775000D01*
X188759700Y-92775000D02*
X193618800Y-92775000D01*
X182143400Y-98150400D02*
X183567400Y-98150400D01*
X179918800Y-100375000D02*
X182143400Y-98150400D01*
X186818800Y-90834100D02*
X188759700Y-92775000D01*
%TO.N,RK37_D*%
X60725000Y-149925000D02*
X60725000Y-146237500D01*
X57361100Y-155300400D02*
X60725000Y-151936500D01*
X53712500Y-157525000D02*
X55937100Y-155300400D01*
X55937100Y-155300400D02*
X57361100Y-155300400D01*
X60725000Y-151936500D02*
X60725000Y-149925000D01*
X60725000Y-146237500D02*
X60612500Y-146125000D01*
X60725000Y-149925000D02*
X67412500Y-149925000D01*
%TO.N,RK42_D*%
X148962500Y-157525000D02*
X151187100Y-155300400D01*
X157934500Y-149977000D02*
X155862500Y-147905100D01*
X155862500Y-147905100D02*
X155862500Y-146125000D01*
X152611100Y-155300400D02*
X157934500Y-149977000D01*
X157986500Y-149925000D02*
X157934500Y-149977000D01*
X151187100Y-155300400D02*
X152611100Y-155300400D01*
X162662500Y-149925000D02*
X157986500Y-149925000D01*
%TO.N,RK14_D*%
X129325000Y-92775000D02*
X124649000Y-92775000D01*
X115625000Y-100375000D02*
X117849600Y-98150400D01*
X122525000Y-90755100D02*
X122525000Y-88975000D01*
X117849600Y-98150400D02*
X119273600Y-98150400D01*
X119273600Y-98150400D02*
X124597000Y-92827000D01*
X124597000Y-92827000D02*
X122525000Y-90755100D01*
X124649000Y-92775000D02*
X124597000Y-92827000D01*
%TO.N,RK03_D*%
X87050000Y-81325000D02*
X89274600Y-79100400D01*
X100750000Y-73725000D02*
X96074000Y-73725000D01*
X93950000Y-71705100D02*
X93950000Y-69925000D01*
X96022000Y-73777000D02*
X93950000Y-71705100D01*
X89274600Y-79100400D02*
X90698600Y-79100400D01*
X96074000Y-73725000D02*
X96022000Y-73777000D01*
X90698600Y-79100400D02*
X96022000Y-73777000D01*
%TO.N,RK19_D*%
X44187500Y-119425000D02*
X46412100Y-117200400D01*
X53072600Y-111825000D02*
X57887500Y-111825000D01*
X51087500Y-108025000D02*
X51087500Y-109839900D01*
X51087500Y-109839900D02*
X53072600Y-111825000D01*
X47922400Y-117200400D02*
X53072600Y-112050200D01*
X53072600Y-112050200D02*
X53072600Y-111825000D01*
X46412100Y-117200400D02*
X47922400Y-117200400D01*
%TO.N,RK12_D*%
X84425000Y-88975000D02*
X84425000Y-90790900D01*
X86409100Y-92914900D02*
X86409100Y-92775000D01*
X84425000Y-90790900D02*
X86409100Y-92775000D01*
X79749600Y-98150400D02*
X81173600Y-98150400D01*
X81173600Y-98150400D02*
X86409100Y-92914900D01*
X86409100Y-92775000D02*
X91225000Y-92775000D01*
X77525000Y-100375000D02*
X79749600Y-98150400D01*
%TO.N,RK01_D*%
X57835100Y-73725000D02*
X62650000Y-73725000D01*
X55850000Y-71739900D02*
X57835100Y-73725000D01*
X48950000Y-81325000D02*
X51174600Y-79100400D01*
X52684900Y-79100400D02*
X57835100Y-73950200D01*
X51174600Y-79100400D02*
X52684900Y-79100400D01*
X55850000Y-69925000D02*
X55850000Y-71739900D01*
X57835100Y-73950200D02*
X57835100Y-73725000D01*
%TO.N,RK05_D*%
X125150000Y-81325000D02*
X127374600Y-79100400D01*
X132389800Y-69585200D02*
X132050000Y-69925000D01*
X128926200Y-79100400D02*
X134301600Y-73725000D01*
X134054900Y-69585200D02*
X132389800Y-69585200D01*
X134301600Y-73725000D02*
X138850000Y-73725000D01*
X127374600Y-79100400D02*
X128926200Y-79100400D01*
%TD*%
M02*
