%TF.GenerationSoftware,KiCad,Pcbnew,10.0.3*%
%TF.CreationDate,2026-06-08T15:47:45+09:00*%
%TF.ProjectId,kc2_right,6b63325f-7269-4676-9874-2e6b69636164,draft-1*%
%TF.SameCoordinates,Original*%
%TF.FileFunction,Legend,Bot*%
%TF.FilePolarity,Positive*%
%FSLAX46Y46*%
G04 Gerber Fmt 4.6, Leading zero omitted, Abs format (unit mm)*
G04 Created by KiCad (PCBNEW 10.0.3) date 2026-06-08 15:47:45*
%MOMM*%
%LPD*%
G01*
G04 APERTURE LIST*
G04 Aperture macros list*
%AMRoundRect*
0 Rectangle with rounded corners*
0 $1 Rounding radius*
0 $2 $3 $4 $5 $6 $7 $8 $9 X,Y pos of 4 corners*
0 Add a 4 corners polygon primitive as box body*
4,1,4,$2,$3,$4,$5,$6,$7,$8,$9,$2,$3,0*
0 Add four circle primitives for the rounded corners*
1,1,$1+$1,$2,$3*
1,1,$1+$1,$4,$5*
1,1,$1+$1,$6,$7*
1,1,$1+$1,$8,$9*
0 Add four rect primitives between the rounded corners*
20,1,$1+$1,$2,$3,$4,$5,0*
20,1,$1+$1,$4,$5,$6,$7,0*
20,1,$1+$1,$6,$7,$8,$9,0*
20,1,$1+$1,$8,$9,$2,$3,0*%
G04 Aperture macros list end*
%ADD10C,0.100000*%
%ADD11C,0.160000*%
%ADD12C,0.150000*%
%ADD13C,3.000000*%
%ADD14O,3.600000X2.200000*%
%ADD15C,1.701800*%
%ADD16C,3.429000*%
%ADD17C,2.000000*%
%ADD18RoundRect,0.520000X-0.780000X-0.780000X0.780000X-0.780000X0.780000X0.780000X-0.780000X0.780000X0*%
%ADD19RoundRect,0.252000X0.448000X0.523000X-0.448000X0.523000X-0.448000X-0.523000X0.448000X-0.523000X0*%
G04 APERTURE END LIST*
D10*
X57589523Y-124934895D02*
X57589523Y-124134895D01*
X57589523Y-124515847D02*
X57132380Y-124515847D01*
X57132380Y-124934895D02*
X57132380Y-124134895D01*
X56408571Y-124401561D02*
X56408571Y-124934895D01*
X56599047Y-124096800D02*
X56789524Y-124668228D01*
X56789524Y-124668228D02*
X56294285Y-124668228D01*
X58089523Y-142334895D02*
X58089523Y-141534895D01*
X58089523Y-141915847D02*
X57632380Y-141915847D01*
X57632380Y-142334895D02*
X57632380Y-141534895D01*
X57327619Y-141534895D02*
X56794285Y-141534895D01*
X56794285Y-141534895D02*
X57137143Y-142334895D01*
X106329523Y-82294895D02*
X106329523Y-81494895D01*
X106329523Y-81875847D02*
X105872380Y-81875847D01*
X105872380Y-82294895D02*
X105872380Y-81494895D01*
X105072381Y-82294895D02*
X105529524Y-82294895D01*
X105300952Y-82294895D02*
X105300952Y-81494895D01*
X105300952Y-81494895D02*
X105377143Y-81609180D01*
X105377143Y-81609180D02*
X105453333Y-81685371D01*
X105453333Y-81685371D02*
X105529524Y-81723466D01*
X134899523Y-123694895D02*
X134899523Y-122894895D01*
X134899523Y-123275847D02*
X134442380Y-123275847D01*
X134442380Y-123694895D02*
X134442380Y-122894895D01*
X133680476Y-122894895D02*
X134061428Y-122894895D01*
X134061428Y-122894895D02*
X134099524Y-123275847D01*
X134099524Y-123275847D02*
X134061428Y-123237752D01*
X134061428Y-123237752D02*
X133985238Y-123199657D01*
X133985238Y-123199657D02*
X133794762Y-123199657D01*
X133794762Y-123199657D02*
X133718571Y-123237752D01*
X133718571Y-123237752D02*
X133680476Y-123275847D01*
X133680476Y-123275847D02*
X133642381Y-123352038D01*
X133642381Y-123352038D02*
X133642381Y-123542514D01*
X133642381Y-123542514D02*
X133680476Y-123618704D01*
X133680476Y-123618704D02*
X133718571Y-123656800D01*
X133718571Y-123656800D02*
X133794762Y-123694895D01*
X133794762Y-123694895D02*
X133985238Y-123694895D01*
X133985238Y-123694895D02*
X134061428Y-123656800D01*
X134061428Y-123656800D02*
X134099524Y-123618704D01*
X144899523Y-81794895D02*
X144899523Y-80994895D01*
X144899523Y-81375847D02*
X144442380Y-81375847D01*
X144442380Y-81794895D02*
X144442380Y-80994895D01*
X144099524Y-81071085D02*
X144061428Y-81032990D01*
X144061428Y-81032990D02*
X143985238Y-80994895D01*
X143985238Y-80994895D02*
X143794762Y-80994895D01*
X143794762Y-80994895D02*
X143718571Y-81032990D01*
X143718571Y-81032990D02*
X143680476Y-81071085D01*
X143680476Y-81071085D02*
X143642381Y-81147276D01*
X143642381Y-81147276D02*
X143642381Y-81223466D01*
X143642381Y-81223466D02*
X143680476Y-81337752D01*
X143680476Y-81337752D02*
X144137619Y-81794895D01*
X144137619Y-81794895D02*
X143642381Y-81794895D01*
X149399523Y-139584895D02*
X149399523Y-138784895D01*
X149399523Y-139165847D02*
X148942380Y-139165847D01*
X148942380Y-139584895D02*
X148942380Y-138784895D01*
X148447143Y-139127752D02*
X148523333Y-139089657D01*
X148523333Y-139089657D02*
X148561428Y-139051561D01*
X148561428Y-139051561D02*
X148599524Y-138975371D01*
X148599524Y-138975371D02*
X148599524Y-138937276D01*
X148599524Y-138937276D02*
X148561428Y-138861085D01*
X148561428Y-138861085D02*
X148523333Y-138822990D01*
X148523333Y-138822990D02*
X148447143Y-138784895D01*
X148447143Y-138784895D02*
X148294762Y-138784895D01*
X148294762Y-138784895D02*
X148218571Y-138822990D01*
X148218571Y-138822990D02*
X148180476Y-138861085D01*
X148180476Y-138861085D02*
X148142381Y-138937276D01*
X148142381Y-138937276D02*
X148142381Y-138975371D01*
X148142381Y-138975371D02*
X148180476Y-139051561D01*
X148180476Y-139051561D02*
X148218571Y-139089657D01*
X148218571Y-139089657D02*
X148294762Y-139127752D01*
X148294762Y-139127752D02*
X148447143Y-139127752D01*
X148447143Y-139127752D02*
X148523333Y-139165847D01*
X148523333Y-139165847D02*
X148561428Y-139203942D01*
X148561428Y-139203942D02*
X148599524Y-139280133D01*
X148599524Y-139280133D02*
X148599524Y-139432514D01*
X148599524Y-139432514D02*
X148561428Y-139508704D01*
X148561428Y-139508704D02*
X148523333Y-139546800D01*
X148523333Y-139546800D02*
X148447143Y-139584895D01*
X148447143Y-139584895D02*
X148294762Y-139584895D01*
X148294762Y-139584895D02*
X148218571Y-139546800D01*
X148218571Y-139546800D02*
X148180476Y-139508704D01*
X148180476Y-139508704D02*
X148142381Y-139432514D01*
X148142381Y-139432514D02*
X148142381Y-139280133D01*
X148142381Y-139280133D02*
X148180476Y-139203942D01*
X148180476Y-139203942D02*
X148218571Y-139165847D01*
X148218571Y-139165847D02*
X148294762Y-139127752D01*
X203459523Y-119694895D02*
X203459523Y-118894895D01*
X203459523Y-119275847D02*
X203002380Y-119275847D01*
X203002380Y-119694895D02*
X203002380Y-118894895D01*
X202278571Y-118894895D02*
X202430952Y-118894895D01*
X202430952Y-118894895D02*
X202507143Y-118932990D01*
X202507143Y-118932990D02*
X202545238Y-118971085D01*
X202545238Y-118971085D02*
X202621428Y-119085371D01*
X202621428Y-119085371D02*
X202659524Y-119237752D01*
X202659524Y-119237752D02*
X202659524Y-119542514D01*
X202659524Y-119542514D02*
X202621428Y-119618704D01*
X202621428Y-119618704D02*
X202583333Y-119656800D01*
X202583333Y-119656800D02*
X202507143Y-119694895D01*
X202507143Y-119694895D02*
X202354762Y-119694895D01*
X202354762Y-119694895D02*
X202278571Y-119656800D01*
X202278571Y-119656800D02*
X202240476Y-119618704D01*
X202240476Y-119618704D02*
X202202381Y-119542514D01*
X202202381Y-119542514D02*
X202202381Y-119352038D01*
X202202381Y-119352038D02*
X202240476Y-119275847D01*
X202240476Y-119275847D02*
X202278571Y-119237752D01*
X202278571Y-119237752D02*
X202354762Y-119199657D01*
X202354762Y-119199657D02*
X202507143Y-119199657D01*
X202507143Y-119199657D02*
X202583333Y-119237752D01*
X202583333Y-119237752D02*
X202621428Y-119275847D01*
X202621428Y-119275847D02*
X202659524Y-119352038D01*
X203959523Y-93294895D02*
X203959523Y-92494895D01*
X203959523Y-92875847D02*
X203502380Y-92875847D01*
X203502380Y-93294895D02*
X203502380Y-92494895D01*
X203197619Y-92494895D02*
X202702381Y-92494895D01*
X202702381Y-92494895D02*
X202969047Y-92799657D01*
X202969047Y-92799657D02*
X202854762Y-92799657D01*
X202854762Y-92799657D02*
X202778571Y-92837752D01*
X202778571Y-92837752D02*
X202740476Y-92875847D01*
X202740476Y-92875847D02*
X202702381Y-92952038D01*
X202702381Y-92952038D02*
X202702381Y-93142514D01*
X202702381Y-93142514D02*
X202740476Y-93218704D01*
X202740476Y-93218704D02*
X202778571Y-93256800D01*
X202778571Y-93256800D02*
X202854762Y-93294895D01*
X202854762Y-93294895D02*
X203083333Y-93294895D01*
X203083333Y-93294895D02*
X203159524Y-93256800D01*
X203159524Y-93256800D02*
X203197619Y-93218704D01*
X208959523Y-128084895D02*
X208959523Y-127284895D01*
X208959523Y-127665847D02*
X208502380Y-127665847D01*
X208502380Y-128084895D02*
X208502380Y-127284895D01*
X208083333Y-128084895D02*
X207930952Y-128084895D01*
X207930952Y-128084895D02*
X207854762Y-128046800D01*
X207854762Y-128046800D02*
X207816666Y-128008704D01*
X207816666Y-128008704D02*
X207740476Y-127894419D01*
X207740476Y-127894419D02*
X207702381Y-127742038D01*
X207702381Y-127742038D02*
X207702381Y-127437276D01*
X207702381Y-127437276D02*
X207740476Y-127361085D01*
X207740476Y-127361085D02*
X207778571Y-127322990D01*
X207778571Y-127322990D02*
X207854762Y-127284895D01*
X207854762Y-127284895D02*
X208007143Y-127284895D01*
X208007143Y-127284895D02*
X208083333Y-127322990D01*
X208083333Y-127322990D02*
X208121428Y-127361085D01*
X208121428Y-127361085D02*
X208159524Y-127437276D01*
X208159524Y-127437276D02*
X208159524Y-127627752D01*
X208159524Y-127627752D02*
X208121428Y-127703942D01*
X208121428Y-127703942D02*
X208083333Y-127742038D01*
X208083333Y-127742038D02*
X208007143Y-127780133D01*
X208007143Y-127780133D02*
X207854762Y-127780133D01*
X207854762Y-127780133D02*
X207778571Y-127742038D01*
X207778571Y-127742038D02*
X207740476Y-127703942D01*
X207740476Y-127703942D02*
X207702381Y-127627752D01*
D11*
X137368749Y-163639346D02*
X137368749Y-162239346D01*
X136568749Y-163639346D02*
X137168749Y-162839346D01*
X136568749Y-162239346D02*
X137368749Y-163039346D01*
X135168749Y-163506013D02*
X135235416Y-163572680D01*
X135235416Y-163572680D02*
X135435416Y-163639346D01*
X135435416Y-163639346D02*
X135568749Y-163639346D01*
X135568749Y-163639346D02*
X135768749Y-163572680D01*
X135768749Y-163572680D02*
X135902083Y-163439346D01*
X135902083Y-163439346D02*
X135968749Y-163306013D01*
X135968749Y-163306013D02*
X136035416Y-163039346D01*
X136035416Y-163039346D02*
X136035416Y-162839346D01*
X136035416Y-162839346D02*
X135968749Y-162572680D01*
X135968749Y-162572680D02*
X135902083Y-162439346D01*
X135902083Y-162439346D02*
X135768749Y-162306013D01*
X135768749Y-162306013D02*
X135568749Y-162239346D01*
X135568749Y-162239346D02*
X135435416Y-162239346D01*
X135435416Y-162239346D02*
X135235416Y-162306013D01*
X135235416Y-162306013D02*
X135168749Y-162372680D01*
X134635416Y-162372680D02*
X134568749Y-162306013D01*
X134568749Y-162306013D02*
X134435416Y-162239346D01*
X134435416Y-162239346D02*
X134102083Y-162239346D01*
X134102083Y-162239346D02*
X133968749Y-162306013D01*
X133968749Y-162306013D02*
X133902083Y-162372680D01*
X133902083Y-162372680D02*
X133835416Y-162506013D01*
X133835416Y-162506013D02*
X133835416Y-162639346D01*
X133835416Y-162639346D02*
X133902083Y-162839346D01*
X133902083Y-162839346D02*
X134702083Y-163639346D01*
X134702083Y-163639346D02*
X133835416Y-163639346D01*
X132302083Y-162706013D02*
X131968749Y-163639346D01*
X131968749Y-163639346D02*
X131635416Y-162706013D01*
X130368749Y-163639346D02*
X131168749Y-163639346D01*
X130768749Y-163639346D02*
X130768749Y-162239346D01*
X130768749Y-162239346D02*
X130902082Y-162439346D01*
X130902082Y-162439346D02*
X131035416Y-162572680D01*
X131035416Y-162572680D02*
X131168749Y-162639346D01*
X129768749Y-163506013D02*
X129702083Y-163572680D01*
X129702083Y-163572680D02*
X129768749Y-163639346D01*
X129768749Y-163639346D02*
X129835416Y-163572680D01*
X129835416Y-163572680D02*
X129768749Y-163506013D01*
X129768749Y-163506013D02*
X129768749Y-163639346D01*
X128835416Y-162239346D02*
X128702082Y-162239346D01*
X128702082Y-162239346D02*
X128568749Y-162306013D01*
X128568749Y-162306013D02*
X128502082Y-162372680D01*
X128502082Y-162372680D02*
X128435416Y-162506013D01*
X128435416Y-162506013D02*
X128368749Y-162772680D01*
X128368749Y-162772680D02*
X128368749Y-163106013D01*
X128368749Y-163106013D02*
X128435416Y-163372680D01*
X128435416Y-163372680D02*
X128502082Y-163506013D01*
X128502082Y-163506013D02*
X128568749Y-163572680D01*
X128568749Y-163572680D02*
X128702082Y-163639346D01*
X128702082Y-163639346D02*
X128835416Y-163639346D01*
X128835416Y-163639346D02*
X128968749Y-163572680D01*
X128968749Y-163572680D02*
X129035416Y-163506013D01*
X129035416Y-163506013D02*
X129102082Y-163372680D01*
X129102082Y-163372680D02*
X129168749Y-163106013D01*
X129168749Y-163106013D02*
X129168749Y-162772680D01*
X129168749Y-162772680D02*
X129102082Y-162506013D01*
X129102082Y-162506013D02*
X129035416Y-162372680D01*
X129035416Y-162372680D02*
X128968749Y-162306013D01*
X128968749Y-162306013D02*
X128835416Y-162239346D01*
X125902082Y-163639346D02*
X126368749Y-162972680D01*
X126702082Y-163639346D02*
X126702082Y-162239346D01*
X126702082Y-162239346D02*
X126168749Y-162239346D01*
X126168749Y-162239346D02*
X126035416Y-162306013D01*
X126035416Y-162306013D02*
X125968749Y-162372680D01*
X125968749Y-162372680D02*
X125902082Y-162506013D01*
X125902082Y-162506013D02*
X125902082Y-162706013D01*
X125902082Y-162706013D02*
X125968749Y-162839346D01*
X125968749Y-162839346D02*
X126035416Y-162906013D01*
X126035416Y-162906013D02*
X126168749Y-162972680D01*
X126168749Y-162972680D02*
X126702082Y-162972680D01*
D12*
X101726785Y-125129819D02*
X101726785Y-124129819D01*
X101726785Y-124129819D02*
X101488690Y-124129819D01*
X101488690Y-124129819D02*
X101345833Y-124177438D01*
X101345833Y-124177438D02*
X101250595Y-124272676D01*
X101250595Y-124272676D02*
X101202976Y-124367914D01*
X101202976Y-124367914D02*
X101155357Y-124558390D01*
X101155357Y-124558390D02*
X101155357Y-124701247D01*
X101155357Y-124701247D02*
X101202976Y-124891723D01*
X101202976Y-124891723D02*
X101250595Y-124986961D01*
X101250595Y-124986961D02*
X101345833Y-125082200D01*
X101345833Y-125082200D02*
X101488690Y-125129819D01*
X101488690Y-125129819D02*
X101726785Y-125129819D01*
X100822023Y-124129819D02*
X100202976Y-124129819D01*
X100202976Y-124129819D02*
X100536309Y-124510771D01*
X100536309Y-124510771D02*
X100393452Y-124510771D01*
X100393452Y-124510771D02*
X100298214Y-124558390D01*
X100298214Y-124558390D02*
X100250595Y-124606009D01*
X100250595Y-124606009D02*
X100202976Y-124701247D01*
X100202976Y-124701247D02*
X100202976Y-124939342D01*
X100202976Y-124939342D02*
X100250595Y-125034580D01*
X100250595Y-125034580D02*
X100298214Y-125082200D01*
X100298214Y-125082200D02*
X100393452Y-125129819D01*
X100393452Y-125129819D02*
X100679166Y-125129819D01*
X100679166Y-125129819D02*
X100774404Y-125082200D01*
X100774404Y-125082200D02*
X100822023Y-125034580D01*
X99583928Y-124129819D02*
X99488690Y-124129819D01*
X99488690Y-124129819D02*
X99393452Y-124177438D01*
X99393452Y-124177438D02*
X99345833Y-124225057D01*
X99345833Y-124225057D02*
X99298214Y-124320295D01*
X99298214Y-124320295D02*
X99250595Y-124510771D01*
X99250595Y-124510771D02*
X99250595Y-124748866D01*
X99250595Y-124748866D02*
X99298214Y-124939342D01*
X99298214Y-124939342D02*
X99345833Y-125034580D01*
X99345833Y-125034580D02*
X99393452Y-125082200D01*
X99393452Y-125082200D02*
X99488690Y-125129819D01*
X99488690Y-125129819D02*
X99583928Y-125129819D01*
X99583928Y-125129819D02*
X99679166Y-125082200D01*
X99679166Y-125082200D02*
X99726785Y-125034580D01*
X99726785Y-125034580D02*
X99774404Y-124939342D01*
X99774404Y-124939342D02*
X99822023Y-124748866D01*
X99822023Y-124748866D02*
X99822023Y-124510771D01*
X99822023Y-124510771D02*
X99774404Y-124320295D01*
X99774404Y-124320295D02*
X99726785Y-124225057D01*
X99726785Y-124225057D02*
X99679166Y-124177438D01*
X99679166Y-124177438D02*
X99583928Y-124129819D01*
X82676785Y-125129819D02*
X82676785Y-124129819D01*
X82676785Y-124129819D02*
X82438690Y-124129819D01*
X82438690Y-124129819D02*
X82295833Y-124177438D01*
X82295833Y-124177438D02*
X82200595Y-124272676D01*
X82200595Y-124272676D02*
X82152976Y-124367914D01*
X82152976Y-124367914D02*
X82105357Y-124558390D01*
X82105357Y-124558390D02*
X82105357Y-124701247D01*
X82105357Y-124701247D02*
X82152976Y-124891723D01*
X82152976Y-124891723D02*
X82200595Y-124986961D01*
X82200595Y-124986961D02*
X82295833Y-125082200D01*
X82295833Y-125082200D02*
X82438690Y-125129819D01*
X82438690Y-125129819D02*
X82676785Y-125129819D01*
X81724404Y-124225057D02*
X81676785Y-124177438D01*
X81676785Y-124177438D02*
X81581547Y-124129819D01*
X81581547Y-124129819D02*
X81343452Y-124129819D01*
X81343452Y-124129819D02*
X81248214Y-124177438D01*
X81248214Y-124177438D02*
X81200595Y-124225057D01*
X81200595Y-124225057D02*
X81152976Y-124320295D01*
X81152976Y-124320295D02*
X81152976Y-124415533D01*
X81152976Y-124415533D02*
X81200595Y-124558390D01*
X81200595Y-124558390D02*
X81772023Y-125129819D01*
X81772023Y-125129819D02*
X81152976Y-125129819D01*
X80676785Y-125129819D02*
X80486309Y-125129819D01*
X80486309Y-125129819D02*
X80391071Y-125082200D01*
X80391071Y-125082200D02*
X80343452Y-125034580D01*
X80343452Y-125034580D02*
X80248214Y-124891723D01*
X80248214Y-124891723D02*
X80200595Y-124701247D01*
X80200595Y-124701247D02*
X80200595Y-124320295D01*
X80200595Y-124320295D02*
X80248214Y-124225057D01*
X80248214Y-124225057D02*
X80295833Y-124177438D01*
X80295833Y-124177438D02*
X80391071Y-124129819D01*
X80391071Y-124129819D02*
X80581547Y-124129819D01*
X80581547Y-124129819D02*
X80676785Y-124177438D01*
X80676785Y-124177438D02*
X80724404Y-124225057D01*
X80724404Y-124225057D02*
X80772023Y-124320295D01*
X80772023Y-124320295D02*
X80772023Y-124558390D01*
X80772023Y-124558390D02*
X80724404Y-124653628D01*
X80724404Y-124653628D02*
X80676785Y-124701247D01*
X80676785Y-124701247D02*
X80581547Y-124748866D01*
X80581547Y-124748866D02*
X80391071Y-124748866D01*
X80391071Y-124748866D02*
X80295833Y-124701247D01*
X80295833Y-124701247D02*
X80248214Y-124653628D01*
X80248214Y-124653628D02*
X80200595Y-124558390D01*
X163639285Y-87029819D02*
X163639285Y-86029819D01*
X163639285Y-86029819D02*
X163401190Y-86029819D01*
X163401190Y-86029819D02*
X163258333Y-86077438D01*
X163258333Y-86077438D02*
X163163095Y-86172676D01*
X163163095Y-86172676D02*
X163115476Y-86267914D01*
X163115476Y-86267914D02*
X163067857Y-86458390D01*
X163067857Y-86458390D02*
X163067857Y-86601247D01*
X163067857Y-86601247D02*
X163115476Y-86791723D01*
X163115476Y-86791723D02*
X163163095Y-86886961D01*
X163163095Y-86886961D02*
X163258333Y-86982200D01*
X163258333Y-86982200D02*
X163401190Y-87029819D01*
X163401190Y-87029819D02*
X163639285Y-87029819D01*
X162115476Y-87029819D02*
X162686904Y-87029819D01*
X162401190Y-87029819D02*
X162401190Y-86029819D01*
X162401190Y-86029819D02*
X162496428Y-86172676D01*
X162496428Y-86172676D02*
X162591666Y-86267914D01*
X162591666Y-86267914D02*
X162686904Y-86315533D01*
X161258333Y-86029819D02*
X161448809Y-86029819D01*
X161448809Y-86029819D02*
X161544047Y-86077438D01*
X161544047Y-86077438D02*
X161591666Y-86125057D01*
X161591666Y-86125057D02*
X161686904Y-86267914D01*
X161686904Y-86267914D02*
X161734523Y-86458390D01*
X161734523Y-86458390D02*
X161734523Y-86839342D01*
X161734523Y-86839342D02*
X161686904Y-86934580D01*
X161686904Y-86934580D02*
X161639285Y-86982200D01*
X161639285Y-86982200D02*
X161544047Y-87029819D01*
X161544047Y-87029819D02*
X161353571Y-87029819D01*
X161353571Y-87029819D02*
X161258333Y-86982200D01*
X161258333Y-86982200D02*
X161210714Y-86934580D01*
X161210714Y-86934580D02*
X161163095Y-86839342D01*
X161163095Y-86839342D02*
X161163095Y-86601247D01*
X161163095Y-86601247D02*
X161210714Y-86506009D01*
X161210714Y-86506009D02*
X161258333Y-86458390D01*
X161258333Y-86458390D02*
X161353571Y-86410771D01*
X161353571Y-86410771D02*
X161544047Y-86410771D01*
X161544047Y-86410771D02*
X161639285Y-86458390D01*
X161639285Y-86458390D02*
X161686904Y-86506009D01*
X161686904Y-86506009D02*
X161734523Y-86601247D01*
X54101785Y-106079819D02*
X54101785Y-105079819D01*
X54101785Y-105079819D02*
X53863690Y-105079819D01*
X53863690Y-105079819D02*
X53720833Y-105127438D01*
X53720833Y-105127438D02*
X53625595Y-105222676D01*
X53625595Y-105222676D02*
X53577976Y-105317914D01*
X53577976Y-105317914D02*
X53530357Y-105508390D01*
X53530357Y-105508390D02*
X53530357Y-105651247D01*
X53530357Y-105651247D02*
X53577976Y-105841723D01*
X53577976Y-105841723D02*
X53625595Y-105936961D01*
X53625595Y-105936961D02*
X53720833Y-106032200D01*
X53720833Y-106032200D02*
X53863690Y-106079819D01*
X53863690Y-106079819D02*
X54101785Y-106079819D01*
X52577976Y-106079819D02*
X53149404Y-106079819D01*
X52863690Y-106079819D02*
X52863690Y-105079819D01*
X52863690Y-105079819D02*
X52958928Y-105222676D01*
X52958928Y-105222676D02*
X53054166Y-105317914D01*
X53054166Y-105317914D02*
X53149404Y-105365533D01*
X52101785Y-106079819D02*
X51911309Y-106079819D01*
X51911309Y-106079819D02*
X51816071Y-106032200D01*
X51816071Y-106032200D02*
X51768452Y-105984580D01*
X51768452Y-105984580D02*
X51673214Y-105841723D01*
X51673214Y-105841723D02*
X51625595Y-105651247D01*
X51625595Y-105651247D02*
X51625595Y-105270295D01*
X51625595Y-105270295D02*
X51673214Y-105175057D01*
X51673214Y-105175057D02*
X51720833Y-105127438D01*
X51720833Y-105127438D02*
X51816071Y-105079819D01*
X51816071Y-105079819D02*
X52006547Y-105079819D01*
X52006547Y-105079819D02*
X52101785Y-105127438D01*
X52101785Y-105127438D02*
X52149404Y-105175057D01*
X52149404Y-105175057D02*
X52197023Y-105270295D01*
X52197023Y-105270295D02*
X52197023Y-105508390D01*
X52197023Y-105508390D02*
X52149404Y-105603628D01*
X52149404Y-105603628D02*
X52101785Y-105651247D01*
X52101785Y-105651247D02*
X52006547Y-105698866D01*
X52006547Y-105698866D02*
X51816071Y-105698866D01*
X51816071Y-105698866D02*
X51720833Y-105651247D01*
X51720833Y-105651247D02*
X51673214Y-105603628D01*
X51673214Y-105603628D02*
X51625595Y-105508390D01*
X111251785Y-106079819D02*
X111251785Y-105079819D01*
X111251785Y-105079819D02*
X111013690Y-105079819D01*
X111013690Y-105079819D02*
X110870833Y-105127438D01*
X110870833Y-105127438D02*
X110775595Y-105222676D01*
X110775595Y-105222676D02*
X110727976Y-105317914D01*
X110727976Y-105317914D02*
X110680357Y-105508390D01*
X110680357Y-105508390D02*
X110680357Y-105651247D01*
X110680357Y-105651247D02*
X110727976Y-105841723D01*
X110727976Y-105841723D02*
X110775595Y-105936961D01*
X110775595Y-105936961D02*
X110870833Y-106032200D01*
X110870833Y-106032200D02*
X111013690Y-106079819D01*
X111013690Y-106079819D02*
X111251785Y-106079819D01*
X110299404Y-105175057D02*
X110251785Y-105127438D01*
X110251785Y-105127438D02*
X110156547Y-105079819D01*
X110156547Y-105079819D02*
X109918452Y-105079819D01*
X109918452Y-105079819D02*
X109823214Y-105127438D01*
X109823214Y-105127438D02*
X109775595Y-105175057D01*
X109775595Y-105175057D02*
X109727976Y-105270295D01*
X109727976Y-105270295D02*
X109727976Y-105365533D01*
X109727976Y-105365533D02*
X109775595Y-105508390D01*
X109775595Y-105508390D02*
X110347023Y-106079819D01*
X110347023Y-106079819D02*
X109727976Y-106079819D01*
X109347023Y-105175057D02*
X109299404Y-105127438D01*
X109299404Y-105127438D02*
X109204166Y-105079819D01*
X109204166Y-105079819D02*
X108966071Y-105079819D01*
X108966071Y-105079819D02*
X108870833Y-105127438D01*
X108870833Y-105127438D02*
X108823214Y-105175057D01*
X108823214Y-105175057D02*
X108775595Y-105270295D01*
X108775595Y-105270295D02*
X108775595Y-105365533D01*
X108775595Y-105365533D02*
X108823214Y-105508390D01*
X108823214Y-105508390D02*
X109394642Y-106079819D01*
X109394642Y-106079819D02*
X108775595Y-106079819D01*
X189833085Y-87029819D02*
X189833085Y-86029819D01*
X189833085Y-86029819D02*
X189594990Y-86029819D01*
X189594990Y-86029819D02*
X189452133Y-86077438D01*
X189452133Y-86077438D02*
X189356895Y-86172676D01*
X189356895Y-86172676D02*
X189309276Y-86267914D01*
X189309276Y-86267914D02*
X189261657Y-86458390D01*
X189261657Y-86458390D02*
X189261657Y-86601247D01*
X189261657Y-86601247D02*
X189309276Y-86791723D01*
X189309276Y-86791723D02*
X189356895Y-86886961D01*
X189356895Y-86886961D02*
X189452133Y-86982200D01*
X189452133Y-86982200D02*
X189594990Y-87029819D01*
X189594990Y-87029819D02*
X189833085Y-87029819D01*
X188309276Y-87029819D02*
X188880704Y-87029819D01*
X188594990Y-87029819D02*
X188594990Y-86029819D01*
X188594990Y-86029819D02*
X188690228Y-86172676D01*
X188690228Y-86172676D02*
X188785466Y-86267914D01*
X188785466Y-86267914D02*
X188880704Y-86315533D01*
X187975942Y-86029819D02*
X187309276Y-86029819D01*
X187309276Y-86029819D02*
X187737847Y-87029819D01*
X120776785Y-144179819D02*
X120776785Y-143179819D01*
X120776785Y-143179819D02*
X120538690Y-143179819D01*
X120538690Y-143179819D02*
X120395833Y-143227438D01*
X120395833Y-143227438D02*
X120300595Y-143322676D01*
X120300595Y-143322676D02*
X120252976Y-143417914D01*
X120252976Y-143417914D02*
X120205357Y-143608390D01*
X120205357Y-143608390D02*
X120205357Y-143751247D01*
X120205357Y-143751247D02*
X120252976Y-143941723D01*
X120252976Y-143941723D02*
X120300595Y-144036961D01*
X120300595Y-144036961D02*
X120395833Y-144132200D01*
X120395833Y-144132200D02*
X120538690Y-144179819D01*
X120538690Y-144179819D02*
X120776785Y-144179819D01*
X119348214Y-143513152D02*
X119348214Y-144179819D01*
X119586309Y-143132200D02*
X119824404Y-143846485D01*
X119824404Y-143846485D02*
X119205357Y-143846485D01*
X118633928Y-143179819D02*
X118538690Y-143179819D01*
X118538690Y-143179819D02*
X118443452Y-143227438D01*
X118443452Y-143227438D02*
X118395833Y-143275057D01*
X118395833Y-143275057D02*
X118348214Y-143370295D01*
X118348214Y-143370295D02*
X118300595Y-143560771D01*
X118300595Y-143560771D02*
X118300595Y-143798866D01*
X118300595Y-143798866D02*
X118348214Y-143989342D01*
X118348214Y-143989342D02*
X118395833Y-144084580D01*
X118395833Y-144084580D02*
X118443452Y-144132200D01*
X118443452Y-144132200D02*
X118538690Y-144179819D01*
X118538690Y-144179819D02*
X118633928Y-144179819D01*
X118633928Y-144179819D02*
X118729166Y-144132200D01*
X118729166Y-144132200D02*
X118776785Y-144084580D01*
X118776785Y-144084580D02*
X118824404Y-143989342D01*
X118824404Y-143989342D02*
X118872023Y-143798866D01*
X118872023Y-143798866D02*
X118872023Y-143560771D01*
X118872023Y-143560771D02*
X118824404Y-143370295D01*
X118824404Y-143370295D02*
X118776785Y-143275057D01*
X118776785Y-143275057D02*
X118729166Y-143227438D01*
X118729166Y-143227438D02*
X118633928Y-143179819D01*
X101726785Y-144179819D02*
X101726785Y-143179819D01*
X101726785Y-143179819D02*
X101488690Y-143179819D01*
X101488690Y-143179819D02*
X101345833Y-143227438D01*
X101345833Y-143227438D02*
X101250595Y-143322676D01*
X101250595Y-143322676D02*
X101202976Y-143417914D01*
X101202976Y-143417914D02*
X101155357Y-143608390D01*
X101155357Y-143608390D02*
X101155357Y-143751247D01*
X101155357Y-143751247D02*
X101202976Y-143941723D01*
X101202976Y-143941723D02*
X101250595Y-144036961D01*
X101250595Y-144036961D02*
X101345833Y-144132200D01*
X101345833Y-144132200D02*
X101488690Y-144179819D01*
X101488690Y-144179819D02*
X101726785Y-144179819D01*
X100822023Y-143179819D02*
X100202976Y-143179819D01*
X100202976Y-143179819D02*
X100536309Y-143560771D01*
X100536309Y-143560771D02*
X100393452Y-143560771D01*
X100393452Y-143560771D02*
X100298214Y-143608390D01*
X100298214Y-143608390D02*
X100250595Y-143656009D01*
X100250595Y-143656009D02*
X100202976Y-143751247D01*
X100202976Y-143751247D02*
X100202976Y-143989342D01*
X100202976Y-143989342D02*
X100250595Y-144084580D01*
X100250595Y-144084580D02*
X100298214Y-144132200D01*
X100298214Y-144132200D02*
X100393452Y-144179819D01*
X100393452Y-144179819D02*
X100679166Y-144179819D01*
X100679166Y-144179819D02*
X100774404Y-144132200D01*
X100774404Y-144132200D02*
X100822023Y-144084580D01*
X99726785Y-144179819D02*
X99536309Y-144179819D01*
X99536309Y-144179819D02*
X99441071Y-144132200D01*
X99441071Y-144132200D02*
X99393452Y-144084580D01*
X99393452Y-144084580D02*
X99298214Y-143941723D01*
X99298214Y-143941723D02*
X99250595Y-143751247D01*
X99250595Y-143751247D02*
X99250595Y-143370295D01*
X99250595Y-143370295D02*
X99298214Y-143275057D01*
X99298214Y-143275057D02*
X99345833Y-143227438D01*
X99345833Y-143227438D02*
X99441071Y-143179819D01*
X99441071Y-143179819D02*
X99631547Y-143179819D01*
X99631547Y-143179819D02*
X99726785Y-143227438D01*
X99726785Y-143227438D02*
X99774404Y-143275057D01*
X99774404Y-143275057D02*
X99822023Y-143370295D01*
X99822023Y-143370295D02*
X99822023Y-143608390D01*
X99822023Y-143608390D02*
X99774404Y-143703628D01*
X99774404Y-143703628D02*
X99726785Y-143751247D01*
X99726785Y-143751247D02*
X99631547Y-143798866D01*
X99631547Y-143798866D02*
X99441071Y-143798866D01*
X99441071Y-143798866D02*
X99345833Y-143751247D01*
X99345833Y-143751247D02*
X99298214Y-143703628D01*
X99298214Y-143703628D02*
X99250595Y-143608390D01*
X120776785Y-125129819D02*
X120776785Y-124129819D01*
X120776785Y-124129819D02*
X120538690Y-124129819D01*
X120538690Y-124129819D02*
X120395833Y-124177438D01*
X120395833Y-124177438D02*
X120300595Y-124272676D01*
X120300595Y-124272676D02*
X120252976Y-124367914D01*
X120252976Y-124367914D02*
X120205357Y-124558390D01*
X120205357Y-124558390D02*
X120205357Y-124701247D01*
X120205357Y-124701247D02*
X120252976Y-124891723D01*
X120252976Y-124891723D02*
X120300595Y-124986961D01*
X120300595Y-124986961D02*
X120395833Y-125082200D01*
X120395833Y-125082200D02*
X120538690Y-125129819D01*
X120538690Y-125129819D02*
X120776785Y-125129819D01*
X119872023Y-124129819D02*
X119252976Y-124129819D01*
X119252976Y-124129819D02*
X119586309Y-124510771D01*
X119586309Y-124510771D02*
X119443452Y-124510771D01*
X119443452Y-124510771D02*
X119348214Y-124558390D01*
X119348214Y-124558390D02*
X119300595Y-124606009D01*
X119300595Y-124606009D02*
X119252976Y-124701247D01*
X119252976Y-124701247D02*
X119252976Y-124939342D01*
X119252976Y-124939342D02*
X119300595Y-125034580D01*
X119300595Y-125034580D02*
X119348214Y-125082200D01*
X119348214Y-125082200D02*
X119443452Y-125129819D01*
X119443452Y-125129819D02*
X119729166Y-125129819D01*
X119729166Y-125129819D02*
X119824404Y-125082200D01*
X119824404Y-125082200D02*
X119872023Y-125034580D01*
X118300595Y-125129819D02*
X118872023Y-125129819D01*
X118586309Y-125129819D02*
X118586309Y-124129819D01*
X118586309Y-124129819D02*
X118681547Y-124272676D01*
X118681547Y-124272676D02*
X118776785Y-124367914D01*
X118776785Y-124367914D02*
X118872023Y-124415533D01*
X130301785Y-106079819D02*
X130301785Y-105079819D01*
X130301785Y-105079819D02*
X130063690Y-105079819D01*
X130063690Y-105079819D02*
X129920833Y-105127438D01*
X129920833Y-105127438D02*
X129825595Y-105222676D01*
X129825595Y-105222676D02*
X129777976Y-105317914D01*
X129777976Y-105317914D02*
X129730357Y-105508390D01*
X129730357Y-105508390D02*
X129730357Y-105651247D01*
X129730357Y-105651247D02*
X129777976Y-105841723D01*
X129777976Y-105841723D02*
X129825595Y-105936961D01*
X129825595Y-105936961D02*
X129920833Y-106032200D01*
X129920833Y-106032200D02*
X130063690Y-106079819D01*
X130063690Y-106079819D02*
X130301785Y-106079819D01*
X129349404Y-105175057D02*
X129301785Y-105127438D01*
X129301785Y-105127438D02*
X129206547Y-105079819D01*
X129206547Y-105079819D02*
X128968452Y-105079819D01*
X128968452Y-105079819D02*
X128873214Y-105127438D01*
X128873214Y-105127438D02*
X128825595Y-105175057D01*
X128825595Y-105175057D02*
X128777976Y-105270295D01*
X128777976Y-105270295D02*
X128777976Y-105365533D01*
X128777976Y-105365533D02*
X128825595Y-105508390D01*
X128825595Y-105508390D02*
X129397023Y-106079819D01*
X129397023Y-106079819D02*
X128777976Y-106079819D01*
X128444642Y-105079819D02*
X127825595Y-105079819D01*
X127825595Y-105079819D02*
X128158928Y-105460771D01*
X128158928Y-105460771D02*
X128016071Y-105460771D01*
X128016071Y-105460771D02*
X127920833Y-105508390D01*
X127920833Y-105508390D02*
X127873214Y-105556009D01*
X127873214Y-105556009D02*
X127825595Y-105651247D01*
X127825595Y-105651247D02*
X127825595Y-105889342D01*
X127825595Y-105889342D02*
X127873214Y-105984580D01*
X127873214Y-105984580D02*
X127920833Y-106032200D01*
X127920833Y-106032200D02*
X128016071Y-106079819D01*
X128016071Y-106079819D02*
X128301785Y-106079819D01*
X128301785Y-106079819D02*
X128397023Y-106032200D01*
X128397023Y-106032200D02*
X128444642Y-105984580D01*
X158876785Y-125129819D02*
X158876785Y-124129819D01*
X158876785Y-124129819D02*
X158638690Y-124129819D01*
X158638690Y-124129819D02*
X158495833Y-124177438D01*
X158495833Y-124177438D02*
X158400595Y-124272676D01*
X158400595Y-124272676D02*
X158352976Y-124367914D01*
X158352976Y-124367914D02*
X158305357Y-124558390D01*
X158305357Y-124558390D02*
X158305357Y-124701247D01*
X158305357Y-124701247D02*
X158352976Y-124891723D01*
X158352976Y-124891723D02*
X158400595Y-124986961D01*
X158400595Y-124986961D02*
X158495833Y-125082200D01*
X158495833Y-125082200D02*
X158638690Y-125129819D01*
X158638690Y-125129819D02*
X158876785Y-125129819D01*
X157972023Y-124129819D02*
X157352976Y-124129819D01*
X157352976Y-124129819D02*
X157686309Y-124510771D01*
X157686309Y-124510771D02*
X157543452Y-124510771D01*
X157543452Y-124510771D02*
X157448214Y-124558390D01*
X157448214Y-124558390D02*
X157400595Y-124606009D01*
X157400595Y-124606009D02*
X157352976Y-124701247D01*
X157352976Y-124701247D02*
X157352976Y-124939342D01*
X157352976Y-124939342D02*
X157400595Y-125034580D01*
X157400595Y-125034580D02*
X157448214Y-125082200D01*
X157448214Y-125082200D02*
X157543452Y-125129819D01*
X157543452Y-125129819D02*
X157829166Y-125129819D01*
X157829166Y-125129819D02*
X157924404Y-125082200D01*
X157924404Y-125082200D02*
X157972023Y-125034580D01*
X157019642Y-124129819D02*
X156400595Y-124129819D01*
X156400595Y-124129819D02*
X156733928Y-124510771D01*
X156733928Y-124510771D02*
X156591071Y-124510771D01*
X156591071Y-124510771D02*
X156495833Y-124558390D01*
X156495833Y-124558390D02*
X156448214Y-124606009D01*
X156448214Y-124606009D02*
X156400595Y-124701247D01*
X156400595Y-124701247D02*
X156400595Y-124939342D01*
X156400595Y-124939342D02*
X156448214Y-125034580D01*
X156448214Y-125034580D02*
X156495833Y-125082200D01*
X156495833Y-125082200D02*
X156591071Y-125129819D01*
X156591071Y-125129819D02*
X156876785Y-125129819D01*
X156876785Y-125129819D02*
X156972023Y-125082200D01*
X156972023Y-125082200D02*
X157019642Y-125034580D01*
X192214285Y-106079819D02*
X192214285Y-105079819D01*
X192214285Y-105079819D02*
X191976190Y-105079819D01*
X191976190Y-105079819D02*
X191833333Y-105127438D01*
X191833333Y-105127438D02*
X191738095Y-105222676D01*
X191738095Y-105222676D02*
X191690476Y-105317914D01*
X191690476Y-105317914D02*
X191642857Y-105508390D01*
X191642857Y-105508390D02*
X191642857Y-105651247D01*
X191642857Y-105651247D02*
X191690476Y-105841723D01*
X191690476Y-105841723D02*
X191738095Y-105936961D01*
X191738095Y-105936961D02*
X191833333Y-106032200D01*
X191833333Y-106032200D02*
X191976190Y-106079819D01*
X191976190Y-106079819D02*
X192214285Y-106079819D01*
X191261904Y-105175057D02*
X191214285Y-105127438D01*
X191214285Y-105127438D02*
X191119047Y-105079819D01*
X191119047Y-105079819D02*
X190880952Y-105079819D01*
X190880952Y-105079819D02*
X190785714Y-105127438D01*
X190785714Y-105127438D02*
X190738095Y-105175057D01*
X190738095Y-105175057D02*
X190690476Y-105270295D01*
X190690476Y-105270295D02*
X190690476Y-105365533D01*
X190690476Y-105365533D02*
X190738095Y-105508390D01*
X190738095Y-105508390D02*
X191309523Y-106079819D01*
X191309523Y-106079819D02*
X190690476Y-106079819D01*
X189833333Y-105079819D02*
X190023809Y-105079819D01*
X190023809Y-105079819D02*
X190119047Y-105127438D01*
X190119047Y-105127438D02*
X190166666Y-105175057D01*
X190166666Y-105175057D02*
X190261904Y-105317914D01*
X190261904Y-105317914D02*
X190309523Y-105508390D01*
X190309523Y-105508390D02*
X190309523Y-105889342D01*
X190309523Y-105889342D02*
X190261904Y-105984580D01*
X190261904Y-105984580D02*
X190214285Y-106032200D01*
X190214285Y-106032200D02*
X190119047Y-106079819D01*
X190119047Y-106079819D02*
X189928571Y-106079819D01*
X189928571Y-106079819D02*
X189833333Y-106032200D01*
X189833333Y-106032200D02*
X189785714Y-105984580D01*
X189785714Y-105984580D02*
X189738095Y-105889342D01*
X189738095Y-105889342D02*
X189738095Y-105651247D01*
X189738095Y-105651247D02*
X189785714Y-105556009D01*
X189785714Y-105556009D02*
X189833333Y-105508390D01*
X189833333Y-105508390D02*
X189928571Y-105460771D01*
X189928571Y-105460771D02*
X190119047Y-105460771D01*
X190119047Y-105460771D02*
X190214285Y-105508390D01*
X190214285Y-105508390D02*
X190261904Y-105556009D01*
X190261904Y-105556009D02*
X190309523Y-105651247D01*
X194119394Y-67979819D02*
X194119394Y-66979819D01*
X194119394Y-66979819D02*
X193881299Y-66979819D01*
X193881299Y-66979819D02*
X193738442Y-67027438D01*
X193738442Y-67027438D02*
X193643204Y-67122676D01*
X193643204Y-67122676D02*
X193595585Y-67217914D01*
X193595585Y-67217914D02*
X193547966Y-67408390D01*
X193547966Y-67408390D02*
X193547966Y-67551247D01*
X193547966Y-67551247D02*
X193595585Y-67741723D01*
X193595585Y-67741723D02*
X193643204Y-67836961D01*
X193643204Y-67836961D02*
X193738442Y-67932200D01*
X193738442Y-67932200D02*
X193881299Y-67979819D01*
X193881299Y-67979819D02*
X194119394Y-67979819D01*
X192976537Y-67408390D02*
X193071775Y-67360771D01*
X193071775Y-67360771D02*
X193119394Y-67313152D01*
X193119394Y-67313152D02*
X193167013Y-67217914D01*
X193167013Y-67217914D02*
X193167013Y-67170295D01*
X193167013Y-67170295D02*
X193119394Y-67075057D01*
X193119394Y-67075057D02*
X193071775Y-67027438D01*
X193071775Y-67027438D02*
X192976537Y-66979819D01*
X192976537Y-66979819D02*
X192786061Y-66979819D01*
X192786061Y-66979819D02*
X192690823Y-67027438D01*
X192690823Y-67027438D02*
X192643204Y-67075057D01*
X192643204Y-67075057D02*
X192595585Y-67170295D01*
X192595585Y-67170295D02*
X192595585Y-67217914D01*
X192595585Y-67217914D02*
X192643204Y-67313152D01*
X192643204Y-67313152D02*
X192690823Y-67360771D01*
X192690823Y-67360771D02*
X192786061Y-67408390D01*
X192786061Y-67408390D02*
X192976537Y-67408390D01*
X192976537Y-67408390D02*
X193071775Y-67456009D01*
X193071775Y-67456009D02*
X193119394Y-67503628D01*
X193119394Y-67503628D02*
X193167013Y-67598866D01*
X193167013Y-67598866D02*
X193167013Y-67789342D01*
X193167013Y-67789342D02*
X193119394Y-67884580D01*
X193119394Y-67884580D02*
X193071775Y-67932200D01*
X193071775Y-67932200D02*
X192976537Y-67979819D01*
X192976537Y-67979819D02*
X192786061Y-67979819D01*
X192786061Y-67979819D02*
X192690823Y-67932200D01*
X192690823Y-67932200D02*
X192643204Y-67884580D01*
X192643204Y-67884580D02*
X192595585Y-67789342D01*
X192595585Y-67789342D02*
X192595585Y-67598866D01*
X192595585Y-67598866D02*
X192643204Y-67503628D01*
X192643204Y-67503628D02*
X192690823Y-67456009D01*
X192690823Y-67456009D02*
X192786061Y-67408390D01*
X77438094Y-67979819D02*
X77438094Y-66979819D01*
X77438094Y-66979819D02*
X77199999Y-66979819D01*
X77199999Y-66979819D02*
X77057142Y-67027438D01*
X77057142Y-67027438D02*
X76961904Y-67122676D01*
X76961904Y-67122676D02*
X76914285Y-67217914D01*
X76914285Y-67217914D02*
X76866666Y-67408390D01*
X76866666Y-67408390D02*
X76866666Y-67551247D01*
X76866666Y-67551247D02*
X76914285Y-67741723D01*
X76914285Y-67741723D02*
X76961904Y-67836961D01*
X76961904Y-67836961D02*
X77057142Y-67932200D01*
X77057142Y-67932200D02*
X77199999Y-67979819D01*
X77199999Y-67979819D02*
X77438094Y-67979819D01*
X76485713Y-67075057D02*
X76438094Y-67027438D01*
X76438094Y-67027438D02*
X76342856Y-66979819D01*
X76342856Y-66979819D02*
X76104761Y-66979819D01*
X76104761Y-66979819D02*
X76009523Y-67027438D01*
X76009523Y-67027438D02*
X75961904Y-67075057D01*
X75961904Y-67075057D02*
X75914285Y-67170295D01*
X75914285Y-67170295D02*
X75914285Y-67265533D01*
X75914285Y-67265533D02*
X75961904Y-67408390D01*
X75961904Y-67408390D02*
X76533332Y-67979819D01*
X76533332Y-67979819D02*
X75914285Y-67979819D01*
X216026785Y-106079819D02*
X216026785Y-105079819D01*
X216026785Y-105079819D02*
X215788690Y-105079819D01*
X215788690Y-105079819D02*
X215645833Y-105127438D01*
X215645833Y-105127438D02*
X215550595Y-105222676D01*
X215550595Y-105222676D02*
X215502976Y-105317914D01*
X215502976Y-105317914D02*
X215455357Y-105508390D01*
X215455357Y-105508390D02*
X215455357Y-105651247D01*
X215455357Y-105651247D02*
X215502976Y-105841723D01*
X215502976Y-105841723D02*
X215550595Y-105936961D01*
X215550595Y-105936961D02*
X215645833Y-106032200D01*
X215645833Y-106032200D02*
X215788690Y-106079819D01*
X215788690Y-106079819D02*
X216026785Y-106079819D01*
X215074404Y-105175057D02*
X215026785Y-105127438D01*
X215026785Y-105127438D02*
X214931547Y-105079819D01*
X214931547Y-105079819D02*
X214693452Y-105079819D01*
X214693452Y-105079819D02*
X214598214Y-105127438D01*
X214598214Y-105127438D02*
X214550595Y-105175057D01*
X214550595Y-105175057D02*
X214502976Y-105270295D01*
X214502976Y-105270295D02*
X214502976Y-105365533D01*
X214502976Y-105365533D02*
X214550595Y-105508390D01*
X214550595Y-105508390D02*
X215122023Y-106079819D01*
X215122023Y-106079819D02*
X214502976Y-106079819D01*
X214169642Y-105079819D02*
X213502976Y-105079819D01*
X213502976Y-105079819D02*
X213931547Y-106079819D01*
X158876785Y-144179819D02*
X158876785Y-143179819D01*
X158876785Y-143179819D02*
X158638690Y-143179819D01*
X158638690Y-143179819D02*
X158495833Y-143227438D01*
X158495833Y-143227438D02*
X158400595Y-143322676D01*
X158400595Y-143322676D02*
X158352976Y-143417914D01*
X158352976Y-143417914D02*
X158305357Y-143608390D01*
X158305357Y-143608390D02*
X158305357Y-143751247D01*
X158305357Y-143751247D02*
X158352976Y-143941723D01*
X158352976Y-143941723D02*
X158400595Y-144036961D01*
X158400595Y-144036961D02*
X158495833Y-144132200D01*
X158495833Y-144132200D02*
X158638690Y-144179819D01*
X158638690Y-144179819D02*
X158876785Y-144179819D01*
X157448214Y-143513152D02*
X157448214Y-144179819D01*
X157686309Y-143132200D02*
X157924404Y-143846485D01*
X157924404Y-143846485D02*
X157305357Y-143846485D01*
X156972023Y-143275057D02*
X156924404Y-143227438D01*
X156924404Y-143227438D02*
X156829166Y-143179819D01*
X156829166Y-143179819D02*
X156591071Y-143179819D01*
X156591071Y-143179819D02*
X156495833Y-143227438D01*
X156495833Y-143227438D02*
X156448214Y-143275057D01*
X156448214Y-143275057D02*
X156400595Y-143370295D01*
X156400595Y-143370295D02*
X156400595Y-143465533D01*
X156400595Y-143465533D02*
X156448214Y-143608390D01*
X156448214Y-143608390D02*
X157019642Y-144179819D01*
X157019642Y-144179819D02*
X156400595Y-144179819D01*
X216026785Y-87029819D02*
X216026785Y-86029819D01*
X216026785Y-86029819D02*
X215788690Y-86029819D01*
X215788690Y-86029819D02*
X215645833Y-86077438D01*
X215645833Y-86077438D02*
X215550595Y-86172676D01*
X215550595Y-86172676D02*
X215502976Y-86267914D01*
X215502976Y-86267914D02*
X215455357Y-86458390D01*
X215455357Y-86458390D02*
X215455357Y-86601247D01*
X215455357Y-86601247D02*
X215502976Y-86791723D01*
X215502976Y-86791723D02*
X215550595Y-86886961D01*
X215550595Y-86886961D02*
X215645833Y-86982200D01*
X215645833Y-86982200D02*
X215788690Y-87029819D01*
X215788690Y-87029819D02*
X216026785Y-87029819D01*
X214502976Y-87029819D02*
X215074404Y-87029819D01*
X214788690Y-87029819D02*
X214788690Y-86029819D01*
X214788690Y-86029819D02*
X214883928Y-86172676D01*
X214883928Y-86172676D02*
X214979166Y-86267914D01*
X214979166Y-86267914D02*
X215074404Y-86315533D01*
X213931547Y-86458390D02*
X214026785Y-86410771D01*
X214026785Y-86410771D02*
X214074404Y-86363152D01*
X214074404Y-86363152D02*
X214122023Y-86267914D01*
X214122023Y-86267914D02*
X214122023Y-86220295D01*
X214122023Y-86220295D02*
X214074404Y-86125057D01*
X214074404Y-86125057D02*
X214026785Y-86077438D01*
X214026785Y-86077438D02*
X213931547Y-86029819D01*
X213931547Y-86029819D02*
X213741071Y-86029819D01*
X213741071Y-86029819D02*
X213645833Y-86077438D01*
X213645833Y-86077438D02*
X213598214Y-86125057D01*
X213598214Y-86125057D02*
X213550595Y-86220295D01*
X213550595Y-86220295D02*
X213550595Y-86267914D01*
X213550595Y-86267914D02*
X213598214Y-86363152D01*
X213598214Y-86363152D02*
X213645833Y-86410771D01*
X213645833Y-86410771D02*
X213741071Y-86458390D01*
X213741071Y-86458390D02*
X213931547Y-86458390D01*
X213931547Y-86458390D02*
X214026785Y-86506009D01*
X214026785Y-86506009D02*
X214074404Y-86553628D01*
X214074404Y-86553628D02*
X214122023Y-86648866D01*
X214122023Y-86648866D02*
X214122023Y-86839342D01*
X214122023Y-86839342D02*
X214074404Y-86934580D01*
X214074404Y-86934580D02*
X214026785Y-86982200D01*
X214026785Y-86982200D02*
X213931547Y-87029819D01*
X213931547Y-87029819D02*
X213741071Y-87029819D01*
X213741071Y-87029819D02*
X213645833Y-86982200D01*
X213645833Y-86982200D02*
X213598214Y-86934580D01*
X213598214Y-86934580D02*
X213550595Y-86839342D01*
X213550595Y-86839342D02*
X213550595Y-86648866D01*
X213550595Y-86648866D02*
X213598214Y-86553628D01*
X213598214Y-86553628D02*
X213645833Y-86506009D01*
X213645833Y-86506009D02*
X213741071Y-86458390D01*
X216026785Y-144179819D02*
X216026785Y-143179819D01*
X216026785Y-143179819D02*
X215788690Y-143179819D01*
X215788690Y-143179819D02*
X215645833Y-143227438D01*
X215645833Y-143227438D02*
X215550595Y-143322676D01*
X215550595Y-143322676D02*
X215502976Y-143417914D01*
X215502976Y-143417914D02*
X215455357Y-143608390D01*
X215455357Y-143608390D02*
X215455357Y-143751247D01*
X215455357Y-143751247D02*
X215502976Y-143941723D01*
X215502976Y-143941723D02*
X215550595Y-144036961D01*
X215550595Y-144036961D02*
X215645833Y-144132200D01*
X215645833Y-144132200D02*
X215788690Y-144179819D01*
X215788690Y-144179819D02*
X216026785Y-144179819D01*
X214598214Y-143513152D02*
X214598214Y-144179819D01*
X214836309Y-143132200D02*
X215074404Y-143846485D01*
X215074404Y-143846485D02*
X214455357Y-143846485D01*
X213598214Y-143179819D02*
X214074404Y-143179819D01*
X214074404Y-143179819D02*
X214122023Y-143656009D01*
X214122023Y-143656009D02*
X214074404Y-143608390D01*
X214074404Y-143608390D02*
X213979166Y-143560771D01*
X213979166Y-143560771D02*
X213741071Y-143560771D01*
X213741071Y-143560771D02*
X213645833Y-143608390D01*
X213645833Y-143608390D02*
X213598214Y-143656009D01*
X213598214Y-143656009D02*
X213550595Y-143751247D01*
X213550595Y-143751247D02*
X213550595Y-143989342D01*
X213550595Y-143989342D02*
X213598214Y-144084580D01*
X213598214Y-144084580D02*
X213645833Y-144132200D01*
X213645833Y-144132200D02*
X213741071Y-144179819D01*
X213741071Y-144179819D02*
X213979166Y-144179819D01*
X213979166Y-144179819D02*
X214074404Y-144132200D01*
X214074404Y-144132200D02*
X214122023Y-144084580D01*
X87439285Y-87029819D02*
X87439285Y-86029819D01*
X87439285Y-86029819D02*
X87201190Y-86029819D01*
X87201190Y-86029819D02*
X87058333Y-86077438D01*
X87058333Y-86077438D02*
X86963095Y-86172676D01*
X86963095Y-86172676D02*
X86915476Y-86267914D01*
X86915476Y-86267914D02*
X86867857Y-86458390D01*
X86867857Y-86458390D02*
X86867857Y-86601247D01*
X86867857Y-86601247D02*
X86915476Y-86791723D01*
X86915476Y-86791723D02*
X86963095Y-86886961D01*
X86963095Y-86886961D02*
X87058333Y-86982200D01*
X87058333Y-86982200D02*
X87201190Y-87029819D01*
X87201190Y-87029819D02*
X87439285Y-87029819D01*
X85915476Y-87029819D02*
X86486904Y-87029819D01*
X86201190Y-87029819D02*
X86201190Y-86029819D01*
X86201190Y-86029819D02*
X86296428Y-86172676D01*
X86296428Y-86172676D02*
X86391666Y-86267914D01*
X86391666Y-86267914D02*
X86486904Y-86315533D01*
X85534523Y-86125057D02*
X85486904Y-86077438D01*
X85486904Y-86077438D02*
X85391666Y-86029819D01*
X85391666Y-86029819D02*
X85153571Y-86029819D01*
X85153571Y-86029819D02*
X85058333Y-86077438D01*
X85058333Y-86077438D02*
X85010714Y-86125057D01*
X85010714Y-86125057D02*
X84963095Y-86220295D01*
X84963095Y-86220295D02*
X84963095Y-86315533D01*
X84963095Y-86315533D02*
X85010714Y-86458390D01*
X85010714Y-86458390D02*
X85582142Y-87029819D01*
X85582142Y-87029819D02*
X84963095Y-87029819D01*
X125539285Y-87029819D02*
X125539285Y-86029819D01*
X125539285Y-86029819D02*
X125301190Y-86029819D01*
X125301190Y-86029819D02*
X125158333Y-86077438D01*
X125158333Y-86077438D02*
X125063095Y-86172676D01*
X125063095Y-86172676D02*
X125015476Y-86267914D01*
X125015476Y-86267914D02*
X124967857Y-86458390D01*
X124967857Y-86458390D02*
X124967857Y-86601247D01*
X124967857Y-86601247D02*
X125015476Y-86791723D01*
X125015476Y-86791723D02*
X125063095Y-86886961D01*
X125063095Y-86886961D02*
X125158333Y-86982200D01*
X125158333Y-86982200D02*
X125301190Y-87029819D01*
X125301190Y-87029819D02*
X125539285Y-87029819D01*
X124015476Y-87029819D02*
X124586904Y-87029819D01*
X124301190Y-87029819D02*
X124301190Y-86029819D01*
X124301190Y-86029819D02*
X124396428Y-86172676D01*
X124396428Y-86172676D02*
X124491666Y-86267914D01*
X124491666Y-86267914D02*
X124586904Y-86315533D01*
X123158333Y-86363152D02*
X123158333Y-87029819D01*
X123396428Y-85982200D02*
X123634523Y-86696485D01*
X123634523Y-86696485D02*
X123015476Y-86696485D01*
X68389285Y-87029819D02*
X68389285Y-86029819D01*
X68389285Y-86029819D02*
X68151190Y-86029819D01*
X68151190Y-86029819D02*
X68008333Y-86077438D01*
X68008333Y-86077438D02*
X67913095Y-86172676D01*
X67913095Y-86172676D02*
X67865476Y-86267914D01*
X67865476Y-86267914D02*
X67817857Y-86458390D01*
X67817857Y-86458390D02*
X67817857Y-86601247D01*
X67817857Y-86601247D02*
X67865476Y-86791723D01*
X67865476Y-86791723D02*
X67913095Y-86886961D01*
X67913095Y-86886961D02*
X68008333Y-86982200D01*
X68008333Y-86982200D02*
X68151190Y-87029819D01*
X68151190Y-87029819D02*
X68389285Y-87029819D01*
X66865476Y-87029819D02*
X67436904Y-87029819D01*
X67151190Y-87029819D02*
X67151190Y-86029819D01*
X67151190Y-86029819D02*
X67246428Y-86172676D01*
X67246428Y-86172676D02*
X67341666Y-86267914D01*
X67341666Y-86267914D02*
X67436904Y-86315533D01*
X65913095Y-87029819D02*
X66484523Y-87029819D01*
X66198809Y-87029819D02*
X66198809Y-86029819D01*
X66198809Y-86029819D02*
X66294047Y-86172676D01*
X66294047Y-86172676D02*
X66389285Y-86267914D01*
X66389285Y-86267914D02*
X66484523Y-86315533D01*
X215550594Y-67979819D02*
X215550594Y-66979819D01*
X215550594Y-66979819D02*
X215312499Y-66979819D01*
X215312499Y-66979819D02*
X215169642Y-67027438D01*
X215169642Y-67027438D02*
X215074404Y-67122676D01*
X215074404Y-67122676D02*
X215026785Y-67217914D01*
X215026785Y-67217914D02*
X214979166Y-67408390D01*
X214979166Y-67408390D02*
X214979166Y-67551247D01*
X214979166Y-67551247D02*
X215026785Y-67741723D01*
X215026785Y-67741723D02*
X215074404Y-67836961D01*
X215074404Y-67836961D02*
X215169642Y-67932200D01*
X215169642Y-67932200D02*
X215312499Y-67979819D01*
X215312499Y-67979819D02*
X215550594Y-67979819D01*
X214502975Y-67979819D02*
X214312499Y-67979819D01*
X214312499Y-67979819D02*
X214217261Y-67932200D01*
X214217261Y-67932200D02*
X214169642Y-67884580D01*
X214169642Y-67884580D02*
X214074404Y-67741723D01*
X214074404Y-67741723D02*
X214026785Y-67551247D01*
X214026785Y-67551247D02*
X214026785Y-67170295D01*
X214026785Y-67170295D02*
X214074404Y-67075057D01*
X214074404Y-67075057D02*
X214122023Y-67027438D01*
X214122023Y-67027438D02*
X214217261Y-66979819D01*
X214217261Y-66979819D02*
X214407737Y-66979819D01*
X214407737Y-66979819D02*
X214502975Y-67027438D01*
X214502975Y-67027438D02*
X214550594Y-67075057D01*
X214550594Y-67075057D02*
X214598213Y-67170295D01*
X214598213Y-67170295D02*
X214598213Y-67408390D01*
X214598213Y-67408390D02*
X214550594Y-67503628D01*
X214550594Y-67503628D02*
X214502975Y-67551247D01*
X214502975Y-67551247D02*
X214407737Y-67598866D01*
X214407737Y-67598866D02*
X214217261Y-67598866D01*
X214217261Y-67598866D02*
X214122023Y-67551247D01*
X214122023Y-67551247D02*
X214074404Y-67503628D01*
X214074404Y-67503628D02*
X214026785Y-67408390D01*
X58388094Y-67979819D02*
X58388094Y-66979819D01*
X58388094Y-66979819D02*
X58149999Y-66979819D01*
X58149999Y-66979819D02*
X58007142Y-67027438D01*
X58007142Y-67027438D02*
X57911904Y-67122676D01*
X57911904Y-67122676D02*
X57864285Y-67217914D01*
X57864285Y-67217914D02*
X57816666Y-67408390D01*
X57816666Y-67408390D02*
X57816666Y-67551247D01*
X57816666Y-67551247D02*
X57864285Y-67741723D01*
X57864285Y-67741723D02*
X57911904Y-67836961D01*
X57911904Y-67836961D02*
X58007142Y-67932200D01*
X58007142Y-67932200D02*
X58149999Y-67979819D01*
X58149999Y-67979819D02*
X58388094Y-67979819D01*
X56864285Y-67979819D02*
X57435713Y-67979819D01*
X57149999Y-67979819D02*
X57149999Y-66979819D01*
X57149999Y-66979819D02*
X57245237Y-67122676D01*
X57245237Y-67122676D02*
X57340475Y-67217914D01*
X57340475Y-67217914D02*
X57435713Y-67265533D01*
X115538094Y-67979819D02*
X115538094Y-66979819D01*
X115538094Y-66979819D02*
X115299999Y-66979819D01*
X115299999Y-66979819D02*
X115157142Y-67027438D01*
X115157142Y-67027438D02*
X115061904Y-67122676D01*
X115061904Y-67122676D02*
X115014285Y-67217914D01*
X115014285Y-67217914D02*
X114966666Y-67408390D01*
X114966666Y-67408390D02*
X114966666Y-67551247D01*
X114966666Y-67551247D02*
X115014285Y-67741723D01*
X115014285Y-67741723D02*
X115061904Y-67836961D01*
X115061904Y-67836961D02*
X115157142Y-67932200D01*
X115157142Y-67932200D02*
X115299999Y-67979819D01*
X115299999Y-67979819D02*
X115538094Y-67979819D01*
X114109523Y-67313152D02*
X114109523Y-67979819D01*
X114347618Y-66932200D02*
X114585713Y-67646485D01*
X114585713Y-67646485D02*
X113966666Y-67646485D01*
X82676785Y-144179819D02*
X82676785Y-143179819D01*
X82676785Y-143179819D02*
X82438690Y-143179819D01*
X82438690Y-143179819D02*
X82295833Y-143227438D01*
X82295833Y-143227438D02*
X82200595Y-143322676D01*
X82200595Y-143322676D02*
X82152976Y-143417914D01*
X82152976Y-143417914D02*
X82105357Y-143608390D01*
X82105357Y-143608390D02*
X82105357Y-143751247D01*
X82105357Y-143751247D02*
X82152976Y-143941723D01*
X82152976Y-143941723D02*
X82200595Y-144036961D01*
X82200595Y-144036961D02*
X82295833Y-144132200D01*
X82295833Y-144132200D02*
X82438690Y-144179819D01*
X82438690Y-144179819D02*
X82676785Y-144179819D01*
X81772023Y-143179819D02*
X81152976Y-143179819D01*
X81152976Y-143179819D02*
X81486309Y-143560771D01*
X81486309Y-143560771D02*
X81343452Y-143560771D01*
X81343452Y-143560771D02*
X81248214Y-143608390D01*
X81248214Y-143608390D02*
X81200595Y-143656009D01*
X81200595Y-143656009D02*
X81152976Y-143751247D01*
X81152976Y-143751247D02*
X81152976Y-143989342D01*
X81152976Y-143989342D02*
X81200595Y-144084580D01*
X81200595Y-144084580D02*
X81248214Y-144132200D01*
X81248214Y-144132200D02*
X81343452Y-144179819D01*
X81343452Y-144179819D02*
X81629166Y-144179819D01*
X81629166Y-144179819D02*
X81724404Y-144132200D01*
X81724404Y-144132200D02*
X81772023Y-144084580D01*
X80581547Y-143608390D02*
X80676785Y-143560771D01*
X80676785Y-143560771D02*
X80724404Y-143513152D01*
X80724404Y-143513152D02*
X80772023Y-143417914D01*
X80772023Y-143417914D02*
X80772023Y-143370295D01*
X80772023Y-143370295D02*
X80724404Y-143275057D01*
X80724404Y-143275057D02*
X80676785Y-143227438D01*
X80676785Y-143227438D02*
X80581547Y-143179819D01*
X80581547Y-143179819D02*
X80391071Y-143179819D01*
X80391071Y-143179819D02*
X80295833Y-143227438D01*
X80295833Y-143227438D02*
X80248214Y-143275057D01*
X80248214Y-143275057D02*
X80200595Y-143370295D01*
X80200595Y-143370295D02*
X80200595Y-143417914D01*
X80200595Y-143417914D02*
X80248214Y-143513152D01*
X80248214Y-143513152D02*
X80295833Y-143560771D01*
X80295833Y-143560771D02*
X80391071Y-143608390D01*
X80391071Y-143608390D02*
X80581547Y-143608390D01*
X80581547Y-143608390D02*
X80676785Y-143656009D01*
X80676785Y-143656009D02*
X80724404Y-143703628D01*
X80724404Y-143703628D02*
X80772023Y-143798866D01*
X80772023Y-143798866D02*
X80772023Y-143989342D01*
X80772023Y-143989342D02*
X80724404Y-144084580D01*
X80724404Y-144084580D02*
X80676785Y-144132200D01*
X80676785Y-144132200D02*
X80581547Y-144179819D01*
X80581547Y-144179819D02*
X80391071Y-144179819D01*
X80391071Y-144179819D02*
X80295833Y-144132200D01*
X80295833Y-144132200D02*
X80248214Y-144084580D01*
X80248214Y-144084580D02*
X80200595Y-143989342D01*
X80200595Y-143989342D02*
X80200595Y-143798866D01*
X80200595Y-143798866D02*
X80248214Y-143703628D01*
X80248214Y-143703628D02*
X80295833Y-143656009D01*
X80295833Y-143656009D02*
X80391071Y-143608390D01*
X73151785Y-106079819D02*
X73151785Y-105079819D01*
X73151785Y-105079819D02*
X72913690Y-105079819D01*
X72913690Y-105079819D02*
X72770833Y-105127438D01*
X72770833Y-105127438D02*
X72675595Y-105222676D01*
X72675595Y-105222676D02*
X72627976Y-105317914D01*
X72627976Y-105317914D02*
X72580357Y-105508390D01*
X72580357Y-105508390D02*
X72580357Y-105651247D01*
X72580357Y-105651247D02*
X72627976Y-105841723D01*
X72627976Y-105841723D02*
X72675595Y-105936961D01*
X72675595Y-105936961D02*
X72770833Y-106032200D01*
X72770833Y-106032200D02*
X72913690Y-106079819D01*
X72913690Y-106079819D02*
X73151785Y-106079819D01*
X72199404Y-105175057D02*
X72151785Y-105127438D01*
X72151785Y-105127438D02*
X72056547Y-105079819D01*
X72056547Y-105079819D02*
X71818452Y-105079819D01*
X71818452Y-105079819D02*
X71723214Y-105127438D01*
X71723214Y-105127438D02*
X71675595Y-105175057D01*
X71675595Y-105175057D02*
X71627976Y-105270295D01*
X71627976Y-105270295D02*
X71627976Y-105365533D01*
X71627976Y-105365533D02*
X71675595Y-105508390D01*
X71675595Y-105508390D02*
X72247023Y-106079819D01*
X72247023Y-106079819D02*
X71627976Y-106079819D01*
X71008928Y-105079819D02*
X70913690Y-105079819D01*
X70913690Y-105079819D02*
X70818452Y-105127438D01*
X70818452Y-105127438D02*
X70770833Y-105175057D01*
X70770833Y-105175057D02*
X70723214Y-105270295D01*
X70723214Y-105270295D02*
X70675595Y-105460771D01*
X70675595Y-105460771D02*
X70675595Y-105698866D01*
X70675595Y-105698866D02*
X70723214Y-105889342D01*
X70723214Y-105889342D02*
X70770833Y-105984580D01*
X70770833Y-105984580D02*
X70818452Y-106032200D01*
X70818452Y-106032200D02*
X70913690Y-106079819D01*
X70913690Y-106079819D02*
X71008928Y-106079819D01*
X71008928Y-106079819D02*
X71104166Y-106032200D01*
X71104166Y-106032200D02*
X71151785Y-105984580D01*
X71151785Y-105984580D02*
X71199404Y-105889342D01*
X71199404Y-105889342D02*
X71247023Y-105698866D01*
X71247023Y-105698866D02*
X71247023Y-105460771D01*
X71247023Y-105460771D02*
X71199404Y-105270295D01*
X71199404Y-105270295D02*
X71151785Y-105175057D01*
X71151785Y-105175057D02*
X71104166Y-105127438D01*
X71104166Y-105127438D02*
X71008928Y-105079819D01*
X177926785Y-144179819D02*
X177926785Y-143179819D01*
X177926785Y-143179819D02*
X177688690Y-143179819D01*
X177688690Y-143179819D02*
X177545833Y-143227438D01*
X177545833Y-143227438D02*
X177450595Y-143322676D01*
X177450595Y-143322676D02*
X177402976Y-143417914D01*
X177402976Y-143417914D02*
X177355357Y-143608390D01*
X177355357Y-143608390D02*
X177355357Y-143751247D01*
X177355357Y-143751247D02*
X177402976Y-143941723D01*
X177402976Y-143941723D02*
X177450595Y-144036961D01*
X177450595Y-144036961D02*
X177545833Y-144132200D01*
X177545833Y-144132200D02*
X177688690Y-144179819D01*
X177688690Y-144179819D02*
X177926785Y-144179819D01*
X176498214Y-143513152D02*
X176498214Y-144179819D01*
X176736309Y-143132200D02*
X176974404Y-143846485D01*
X176974404Y-143846485D02*
X176355357Y-143846485D01*
X176069642Y-143179819D02*
X175450595Y-143179819D01*
X175450595Y-143179819D02*
X175783928Y-143560771D01*
X175783928Y-143560771D02*
X175641071Y-143560771D01*
X175641071Y-143560771D02*
X175545833Y-143608390D01*
X175545833Y-143608390D02*
X175498214Y-143656009D01*
X175498214Y-143656009D02*
X175450595Y-143751247D01*
X175450595Y-143751247D02*
X175450595Y-143989342D01*
X175450595Y-143989342D02*
X175498214Y-144084580D01*
X175498214Y-144084580D02*
X175545833Y-144132200D01*
X175545833Y-144132200D02*
X175641071Y-144179819D01*
X175641071Y-144179819D02*
X175926785Y-144179819D01*
X175926785Y-144179819D02*
X176022023Y-144132200D01*
X176022023Y-144132200D02*
X176069642Y-144084580D01*
X49339285Y-87029819D02*
X49339285Y-86029819D01*
X49339285Y-86029819D02*
X49101190Y-86029819D01*
X49101190Y-86029819D02*
X48958333Y-86077438D01*
X48958333Y-86077438D02*
X48863095Y-86172676D01*
X48863095Y-86172676D02*
X48815476Y-86267914D01*
X48815476Y-86267914D02*
X48767857Y-86458390D01*
X48767857Y-86458390D02*
X48767857Y-86601247D01*
X48767857Y-86601247D02*
X48815476Y-86791723D01*
X48815476Y-86791723D02*
X48863095Y-86886961D01*
X48863095Y-86886961D02*
X48958333Y-86982200D01*
X48958333Y-86982200D02*
X49101190Y-87029819D01*
X49101190Y-87029819D02*
X49339285Y-87029819D01*
X47815476Y-87029819D02*
X48386904Y-87029819D01*
X48101190Y-87029819D02*
X48101190Y-86029819D01*
X48101190Y-86029819D02*
X48196428Y-86172676D01*
X48196428Y-86172676D02*
X48291666Y-86267914D01*
X48291666Y-86267914D02*
X48386904Y-86315533D01*
X47196428Y-86029819D02*
X47101190Y-86029819D01*
X47101190Y-86029819D02*
X47005952Y-86077438D01*
X47005952Y-86077438D02*
X46958333Y-86125057D01*
X46958333Y-86125057D02*
X46910714Y-86220295D01*
X46910714Y-86220295D02*
X46863095Y-86410771D01*
X46863095Y-86410771D02*
X46863095Y-86648866D01*
X46863095Y-86648866D02*
X46910714Y-86839342D01*
X46910714Y-86839342D02*
X46958333Y-86934580D01*
X46958333Y-86934580D02*
X47005952Y-86982200D01*
X47005952Y-86982200D02*
X47101190Y-87029819D01*
X47101190Y-87029819D02*
X47196428Y-87029819D01*
X47196428Y-87029819D02*
X47291666Y-86982200D01*
X47291666Y-86982200D02*
X47339285Y-86934580D01*
X47339285Y-86934580D02*
X47386904Y-86839342D01*
X47386904Y-86839342D02*
X47434523Y-86648866D01*
X47434523Y-86648866D02*
X47434523Y-86410771D01*
X47434523Y-86410771D02*
X47386904Y-86220295D01*
X47386904Y-86220295D02*
X47339285Y-86125057D01*
X47339285Y-86125057D02*
X47291666Y-86077438D01*
X47291666Y-86077438D02*
X47196428Y-86029819D01*
X63626785Y-144179819D02*
X63626785Y-143179819D01*
X63626785Y-143179819D02*
X63388690Y-143179819D01*
X63388690Y-143179819D02*
X63245833Y-143227438D01*
X63245833Y-143227438D02*
X63150595Y-143322676D01*
X63150595Y-143322676D02*
X63102976Y-143417914D01*
X63102976Y-143417914D02*
X63055357Y-143608390D01*
X63055357Y-143608390D02*
X63055357Y-143751247D01*
X63055357Y-143751247D02*
X63102976Y-143941723D01*
X63102976Y-143941723D02*
X63150595Y-144036961D01*
X63150595Y-144036961D02*
X63245833Y-144132200D01*
X63245833Y-144132200D02*
X63388690Y-144179819D01*
X63388690Y-144179819D02*
X63626785Y-144179819D01*
X62722023Y-143179819D02*
X62102976Y-143179819D01*
X62102976Y-143179819D02*
X62436309Y-143560771D01*
X62436309Y-143560771D02*
X62293452Y-143560771D01*
X62293452Y-143560771D02*
X62198214Y-143608390D01*
X62198214Y-143608390D02*
X62150595Y-143656009D01*
X62150595Y-143656009D02*
X62102976Y-143751247D01*
X62102976Y-143751247D02*
X62102976Y-143989342D01*
X62102976Y-143989342D02*
X62150595Y-144084580D01*
X62150595Y-144084580D02*
X62198214Y-144132200D01*
X62198214Y-144132200D02*
X62293452Y-144179819D01*
X62293452Y-144179819D02*
X62579166Y-144179819D01*
X62579166Y-144179819D02*
X62674404Y-144132200D01*
X62674404Y-144132200D02*
X62722023Y-144084580D01*
X61769642Y-143179819D02*
X61102976Y-143179819D01*
X61102976Y-143179819D02*
X61531547Y-144179819D01*
X96488094Y-67979819D02*
X96488094Y-66979819D01*
X96488094Y-66979819D02*
X96249999Y-66979819D01*
X96249999Y-66979819D02*
X96107142Y-67027438D01*
X96107142Y-67027438D02*
X96011904Y-67122676D01*
X96011904Y-67122676D02*
X95964285Y-67217914D01*
X95964285Y-67217914D02*
X95916666Y-67408390D01*
X95916666Y-67408390D02*
X95916666Y-67551247D01*
X95916666Y-67551247D02*
X95964285Y-67741723D01*
X95964285Y-67741723D02*
X96011904Y-67836961D01*
X96011904Y-67836961D02*
X96107142Y-67932200D01*
X96107142Y-67932200D02*
X96249999Y-67979819D01*
X96249999Y-67979819D02*
X96488094Y-67979819D01*
X95583332Y-66979819D02*
X94964285Y-66979819D01*
X94964285Y-66979819D02*
X95297618Y-67360771D01*
X95297618Y-67360771D02*
X95154761Y-67360771D01*
X95154761Y-67360771D02*
X95059523Y-67408390D01*
X95059523Y-67408390D02*
X95011904Y-67456009D01*
X95011904Y-67456009D02*
X94964285Y-67551247D01*
X94964285Y-67551247D02*
X94964285Y-67789342D01*
X94964285Y-67789342D02*
X95011904Y-67884580D01*
X95011904Y-67884580D02*
X95059523Y-67932200D01*
X95059523Y-67932200D02*
X95154761Y-67979819D01*
X95154761Y-67979819D02*
X95440475Y-67979819D01*
X95440475Y-67979819D02*
X95535713Y-67932200D01*
X95535713Y-67932200D02*
X95583332Y-67884580D01*
X177926785Y-125129819D02*
X177926785Y-124129819D01*
X177926785Y-124129819D02*
X177688690Y-124129819D01*
X177688690Y-124129819D02*
X177545833Y-124177438D01*
X177545833Y-124177438D02*
X177450595Y-124272676D01*
X177450595Y-124272676D02*
X177402976Y-124367914D01*
X177402976Y-124367914D02*
X177355357Y-124558390D01*
X177355357Y-124558390D02*
X177355357Y-124701247D01*
X177355357Y-124701247D02*
X177402976Y-124891723D01*
X177402976Y-124891723D02*
X177450595Y-124986961D01*
X177450595Y-124986961D02*
X177545833Y-125082200D01*
X177545833Y-125082200D02*
X177688690Y-125129819D01*
X177688690Y-125129819D02*
X177926785Y-125129819D01*
X177022023Y-124129819D02*
X176402976Y-124129819D01*
X176402976Y-124129819D02*
X176736309Y-124510771D01*
X176736309Y-124510771D02*
X176593452Y-124510771D01*
X176593452Y-124510771D02*
X176498214Y-124558390D01*
X176498214Y-124558390D02*
X176450595Y-124606009D01*
X176450595Y-124606009D02*
X176402976Y-124701247D01*
X176402976Y-124701247D02*
X176402976Y-124939342D01*
X176402976Y-124939342D02*
X176450595Y-125034580D01*
X176450595Y-125034580D02*
X176498214Y-125082200D01*
X176498214Y-125082200D02*
X176593452Y-125129819D01*
X176593452Y-125129819D02*
X176879166Y-125129819D01*
X176879166Y-125129819D02*
X176974404Y-125082200D01*
X176974404Y-125082200D02*
X177022023Y-125034580D01*
X175545833Y-124463152D02*
X175545833Y-125129819D01*
X175783928Y-124082200D02*
X176022023Y-124796485D01*
X176022023Y-124796485D02*
X175402976Y-124796485D01*
X196976785Y-125129819D02*
X196976785Y-124129819D01*
X196976785Y-124129819D02*
X196738690Y-124129819D01*
X196738690Y-124129819D02*
X196595833Y-124177438D01*
X196595833Y-124177438D02*
X196500595Y-124272676D01*
X196500595Y-124272676D02*
X196452976Y-124367914D01*
X196452976Y-124367914D02*
X196405357Y-124558390D01*
X196405357Y-124558390D02*
X196405357Y-124701247D01*
X196405357Y-124701247D02*
X196452976Y-124891723D01*
X196452976Y-124891723D02*
X196500595Y-124986961D01*
X196500595Y-124986961D02*
X196595833Y-125082200D01*
X196595833Y-125082200D02*
X196738690Y-125129819D01*
X196738690Y-125129819D02*
X196976785Y-125129819D01*
X196072023Y-124129819D02*
X195452976Y-124129819D01*
X195452976Y-124129819D02*
X195786309Y-124510771D01*
X195786309Y-124510771D02*
X195643452Y-124510771D01*
X195643452Y-124510771D02*
X195548214Y-124558390D01*
X195548214Y-124558390D02*
X195500595Y-124606009D01*
X195500595Y-124606009D02*
X195452976Y-124701247D01*
X195452976Y-124701247D02*
X195452976Y-124939342D01*
X195452976Y-124939342D02*
X195500595Y-125034580D01*
X195500595Y-125034580D02*
X195548214Y-125082200D01*
X195548214Y-125082200D02*
X195643452Y-125129819D01*
X195643452Y-125129819D02*
X195929166Y-125129819D01*
X195929166Y-125129819D02*
X196024404Y-125082200D01*
X196024404Y-125082200D02*
X196072023Y-125034580D01*
X194548214Y-124129819D02*
X195024404Y-124129819D01*
X195024404Y-124129819D02*
X195072023Y-124606009D01*
X195072023Y-124606009D02*
X195024404Y-124558390D01*
X195024404Y-124558390D02*
X194929166Y-124510771D01*
X194929166Y-124510771D02*
X194691071Y-124510771D01*
X194691071Y-124510771D02*
X194595833Y-124558390D01*
X194595833Y-124558390D02*
X194548214Y-124606009D01*
X194548214Y-124606009D02*
X194500595Y-124701247D01*
X194500595Y-124701247D02*
X194500595Y-124939342D01*
X194500595Y-124939342D02*
X194548214Y-125034580D01*
X194548214Y-125034580D02*
X194595833Y-125082200D01*
X194595833Y-125082200D02*
X194691071Y-125129819D01*
X194691071Y-125129819D02*
X194929166Y-125129819D01*
X194929166Y-125129819D02*
X195024404Y-125082200D01*
X195024404Y-125082200D02*
X195072023Y-125034580D01*
X168401785Y-106079819D02*
X168401785Y-105079819D01*
X168401785Y-105079819D02*
X168163690Y-105079819D01*
X168163690Y-105079819D02*
X168020833Y-105127438D01*
X168020833Y-105127438D02*
X167925595Y-105222676D01*
X167925595Y-105222676D02*
X167877976Y-105317914D01*
X167877976Y-105317914D02*
X167830357Y-105508390D01*
X167830357Y-105508390D02*
X167830357Y-105651247D01*
X167830357Y-105651247D02*
X167877976Y-105841723D01*
X167877976Y-105841723D02*
X167925595Y-105936961D01*
X167925595Y-105936961D02*
X168020833Y-106032200D01*
X168020833Y-106032200D02*
X168163690Y-106079819D01*
X168163690Y-106079819D02*
X168401785Y-106079819D01*
X167449404Y-105175057D02*
X167401785Y-105127438D01*
X167401785Y-105127438D02*
X167306547Y-105079819D01*
X167306547Y-105079819D02*
X167068452Y-105079819D01*
X167068452Y-105079819D02*
X166973214Y-105127438D01*
X166973214Y-105127438D02*
X166925595Y-105175057D01*
X166925595Y-105175057D02*
X166877976Y-105270295D01*
X166877976Y-105270295D02*
X166877976Y-105365533D01*
X166877976Y-105365533D02*
X166925595Y-105508390D01*
X166925595Y-105508390D02*
X167497023Y-106079819D01*
X167497023Y-106079819D02*
X166877976Y-106079819D01*
X165973214Y-105079819D02*
X166449404Y-105079819D01*
X166449404Y-105079819D02*
X166497023Y-105556009D01*
X166497023Y-105556009D02*
X166449404Y-105508390D01*
X166449404Y-105508390D02*
X166354166Y-105460771D01*
X166354166Y-105460771D02*
X166116071Y-105460771D01*
X166116071Y-105460771D02*
X166020833Y-105508390D01*
X166020833Y-105508390D02*
X165973214Y-105556009D01*
X165973214Y-105556009D02*
X165925595Y-105651247D01*
X165925595Y-105651247D02*
X165925595Y-105889342D01*
X165925595Y-105889342D02*
X165973214Y-105984580D01*
X165973214Y-105984580D02*
X166020833Y-106032200D01*
X166020833Y-106032200D02*
X166116071Y-106079819D01*
X166116071Y-106079819D02*
X166354166Y-106079819D01*
X166354166Y-106079819D02*
X166449404Y-106032200D01*
X166449404Y-106032200D02*
X166497023Y-105984580D01*
X216026785Y-125129819D02*
X216026785Y-124129819D01*
X216026785Y-124129819D02*
X215788690Y-124129819D01*
X215788690Y-124129819D02*
X215645833Y-124177438D01*
X215645833Y-124177438D02*
X215550595Y-124272676D01*
X215550595Y-124272676D02*
X215502976Y-124367914D01*
X215502976Y-124367914D02*
X215455357Y-124558390D01*
X215455357Y-124558390D02*
X215455357Y-124701247D01*
X215455357Y-124701247D02*
X215502976Y-124891723D01*
X215502976Y-124891723D02*
X215550595Y-124986961D01*
X215550595Y-124986961D02*
X215645833Y-125082200D01*
X215645833Y-125082200D02*
X215788690Y-125129819D01*
X215788690Y-125129819D02*
X216026785Y-125129819D01*
X215122023Y-124129819D02*
X214502976Y-124129819D01*
X214502976Y-124129819D02*
X214836309Y-124510771D01*
X214836309Y-124510771D02*
X214693452Y-124510771D01*
X214693452Y-124510771D02*
X214598214Y-124558390D01*
X214598214Y-124558390D02*
X214550595Y-124606009D01*
X214550595Y-124606009D02*
X214502976Y-124701247D01*
X214502976Y-124701247D02*
X214502976Y-124939342D01*
X214502976Y-124939342D02*
X214550595Y-125034580D01*
X214550595Y-125034580D02*
X214598214Y-125082200D01*
X214598214Y-125082200D02*
X214693452Y-125129819D01*
X214693452Y-125129819D02*
X214979166Y-125129819D01*
X214979166Y-125129819D02*
X215074404Y-125082200D01*
X215074404Y-125082200D02*
X215122023Y-125034580D01*
X213645833Y-124129819D02*
X213836309Y-124129819D01*
X213836309Y-124129819D02*
X213931547Y-124177438D01*
X213931547Y-124177438D02*
X213979166Y-124225057D01*
X213979166Y-124225057D02*
X214074404Y-124367914D01*
X214074404Y-124367914D02*
X214122023Y-124558390D01*
X214122023Y-124558390D02*
X214122023Y-124939342D01*
X214122023Y-124939342D02*
X214074404Y-125034580D01*
X214074404Y-125034580D02*
X214026785Y-125082200D01*
X214026785Y-125082200D02*
X213931547Y-125129819D01*
X213931547Y-125129819D02*
X213741071Y-125129819D01*
X213741071Y-125129819D02*
X213645833Y-125082200D01*
X213645833Y-125082200D02*
X213598214Y-125034580D01*
X213598214Y-125034580D02*
X213550595Y-124939342D01*
X213550595Y-124939342D02*
X213550595Y-124701247D01*
X213550595Y-124701247D02*
X213598214Y-124606009D01*
X213598214Y-124606009D02*
X213645833Y-124558390D01*
X213645833Y-124558390D02*
X213741071Y-124510771D01*
X213741071Y-124510771D02*
X213931547Y-124510771D01*
X213931547Y-124510771D02*
X214026785Y-124558390D01*
X214026785Y-124558390D02*
X214074404Y-124606009D01*
X214074404Y-124606009D02*
X214122023Y-124701247D01*
X153638094Y-67979819D02*
X153638094Y-66979819D01*
X153638094Y-66979819D02*
X153399999Y-66979819D01*
X153399999Y-66979819D02*
X153257142Y-67027438D01*
X153257142Y-67027438D02*
X153161904Y-67122676D01*
X153161904Y-67122676D02*
X153114285Y-67217914D01*
X153114285Y-67217914D02*
X153066666Y-67408390D01*
X153066666Y-67408390D02*
X153066666Y-67551247D01*
X153066666Y-67551247D02*
X153114285Y-67741723D01*
X153114285Y-67741723D02*
X153161904Y-67836961D01*
X153161904Y-67836961D02*
X153257142Y-67932200D01*
X153257142Y-67932200D02*
X153399999Y-67979819D01*
X153399999Y-67979819D02*
X153638094Y-67979819D01*
X152209523Y-66979819D02*
X152399999Y-66979819D01*
X152399999Y-66979819D02*
X152495237Y-67027438D01*
X152495237Y-67027438D02*
X152542856Y-67075057D01*
X152542856Y-67075057D02*
X152638094Y-67217914D01*
X152638094Y-67217914D02*
X152685713Y-67408390D01*
X152685713Y-67408390D02*
X152685713Y-67789342D01*
X152685713Y-67789342D02*
X152638094Y-67884580D01*
X152638094Y-67884580D02*
X152590475Y-67932200D01*
X152590475Y-67932200D02*
X152495237Y-67979819D01*
X152495237Y-67979819D02*
X152304761Y-67979819D01*
X152304761Y-67979819D02*
X152209523Y-67932200D01*
X152209523Y-67932200D02*
X152161904Y-67884580D01*
X152161904Y-67884580D02*
X152114285Y-67789342D01*
X152114285Y-67789342D02*
X152114285Y-67551247D01*
X152114285Y-67551247D02*
X152161904Y-67456009D01*
X152161904Y-67456009D02*
X152209523Y-67408390D01*
X152209523Y-67408390D02*
X152304761Y-67360771D01*
X152304761Y-67360771D02*
X152495237Y-67360771D01*
X152495237Y-67360771D02*
X152590475Y-67408390D01*
X152590475Y-67408390D02*
X152638094Y-67456009D01*
X152638094Y-67456009D02*
X152685713Y-67551247D01*
X149351785Y-106079819D02*
X149351785Y-105079819D01*
X149351785Y-105079819D02*
X149113690Y-105079819D01*
X149113690Y-105079819D02*
X148970833Y-105127438D01*
X148970833Y-105127438D02*
X148875595Y-105222676D01*
X148875595Y-105222676D02*
X148827976Y-105317914D01*
X148827976Y-105317914D02*
X148780357Y-105508390D01*
X148780357Y-105508390D02*
X148780357Y-105651247D01*
X148780357Y-105651247D02*
X148827976Y-105841723D01*
X148827976Y-105841723D02*
X148875595Y-105936961D01*
X148875595Y-105936961D02*
X148970833Y-106032200D01*
X148970833Y-106032200D02*
X149113690Y-106079819D01*
X149113690Y-106079819D02*
X149351785Y-106079819D01*
X148399404Y-105175057D02*
X148351785Y-105127438D01*
X148351785Y-105127438D02*
X148256547Y-105079819D01*
X148256547Y-105079819D02*
X148018452Y-105079819D01*
X148018452Y-105079819D02*
X147923214Y-105127438D01*
X147923214Y-105127438D02*
X147875595Y-105175057D01*
X147875595Y-105175057D02*
X147827976Y-105270295D01*
X147827976Y-105270295D02*
X147827976Y-105365533D01*
X147827976Y-105365533D02*
X147875595Y-105508390D01*
X147875595Y-105508390D02*
X148447023Y-106079819D01*
X148447023Y-106079819D02*
X147827976Y-106079819D01*
X146970833Y-105413152D02*
X146970833Y-106079819D01*
X147208928Y-105032200D02*
X147447023Y-105746485D01*
X147447023Y-105746485D02*
X146827976Y-105746485D01*
X196976785Y-144179819D02*
X196976785Y-143179819D01*
X196976785Y-143179819D02*
X196738690Y-143179819D01*
X196738690Y-143179819D02*
X196595833Y-143227438D01*
X196595833Y-143227438D02*
X196500595Y-143322676D01*
X196500595Y-143322676D02*
X196452976Y-143417914D01*
X196452976Y-143417914D02*
X196405357Y-143608390D01*
X196405357Y-143608390D02*
X196405357Y-143751247D01*
X196405357Y-143751247D02*
X196452976Y-143941723D01*
X196452976Y-143941723D02*
X196500595Y-144036961D01*
X196500595Y-144036961D02*
X196595833Y-144132200D01*
X196595833Y-144132200D02*
X196738690Y-144179819D01*
X196738690Y-144179819D02*
X196976785Y-144179819D01*
X195548214Y-143513152D02*
X195548214Y-144179819D01*
X195786309Y-143132200D02*
X196024404Y-143846485D01*
X196024404Y-143846485D02*
X195405357Y-143846485D01*
X194595833Y-143513152D02*
X194595833Y-144179819D01*
X194833928Y-143132200D02*
X195072023Y-143846485D01*
X195072023Y-143846485D02*
X194452976Y-143846485D01*
X144589285Y-87029819D02*
X144589285Y-86029819D01*
X144589285Y-86029819D02*
X144351190Y-86029819D01*
X144351190Y-86029819D02*
X144208333Y-86077438D01*
X144208333Y-86077438D02*
X144113095Y-86172676D01*
X144113095Y-86172676D02*
X144065476Y-86267914D01*
X144065476Y-86267914D02*
X144017857Y-86458390D01*
X144017857Y-86458390D02*
X144017857Y-86601247D01*
X144017857Y-86601247D02*
X144065476Y-86791723D01*
X144065476Y-86791723D02*
X144113095Y-86886961D01*
X144113095Y-86886961D02*
X144208333Y-86982200D01*
X144208333Y-86982200D02*
X144351190Y-87029819D01*
X144351190Y-87029819D02*
X144589285Y-87029819D01*
X143065476Y-87029819D02*
X143636904Y-87029819D01*
X143351190Y-87029819D02*
X143351190Y-86029819D01*
X143351190Y-86029819D02*
X143446428Y-86172676D01*
X143446428Y-86172676D02*
X143541666Y-86267914D01*
X143541666Y-86267914D02*
X143636904Y-86315533D01*
X142160714Y-86029819D02*
X142636904Y-86029819D01*
X142636904Y-86029819D02*
X142684523Y-86506009D01*
X142684523Y-86506009D02*
X142636904Y-86458390D01*
X142636904Y-86458390D02*
X142541666Y-86410771D01*
X142541666Y-86410771D02*
X142303571Y-86410771D01*
X142303571Y-86410771D02*
X142208333Y-86458390D01*
X142208333Y-86458390D02*
X142160714Y-86506009D01*
X142160714Y-86506009D02*
X142113095Y-86601247D01*
X142113095Y-86601247D02*
X142113095Y-86839342D01*
X142113095Y-86839342D02*
X142160714Y-86934580D01*
X142160714Y-86934580D02*
X142208333Y-86982200D01*
X142208333Y-86982200D02*
X142303571Y-87029819D01*
X142303571Y-87029819D02*
X142541666Y-87029819D01*
X142541666Y-87029819D02*
X142636904Y-86982200D01*
X142636904Y-86982200D02*
X142684523Y-86934580D01*
X106489285Y-87029819D02*
X106489285Y-86029819D01*
X106489285Y-86029819D02*
X106251190Y-86029819D01*
X106251190Y-86029819D02*
X106108333Y-86077438D01*
X106108333Y-86077438D02*
X106013095Y-86172676D01*
X106013095Y-86172676D02*
X105965476Y-86267914D01*
X105965476Y-86267914D02*
X105917857Y-86458390D01*
X105917857Y-86458390D02*
X105917857Y-86601247D01*
X105917857Y-86601247D02*
X105965476Y-86791723D01*
X105965476Y-86791723D02*
X106013095Y-86886961D01*
X106013095Y-86886961D02*
X106108333Y-86982200D01*
X106108333Y-86982200D02*
X106251190Y-87029819D01*
X106251190Y-87029819D02*
X106489285Y-87029819D01*
X104965476Y-87029819D02*
X105536904Y-87029819D01*
X105251190Y-87029819D02*
X105251190Y-86029819D01*
X105251190Y-86029819D02*
X105346428Y-86172676D01*
X105346428Y-86172676D02*
X105441666Y-86267914D01*
X105441666Y-86267914D02*
X105536904Y-86315533D01*
X104632142Y-86029819D02*
X104013095Y-86029819D01*
X104013095Y-86029819D02*
X104346428Y-86410771D01*
X104346428Y-86410771D02*
X104203571Y-86410771D01*
X104203571Y-86410771D02*
X104108333Y-86458390D01*
X104108333Y-86458390D02*
X104060714Y-86506009D01*
X104060714Y-86506009D02*
X104013095Y-86601247D01*
X104013095Y-86601247D02*
X104013095Y-86839342D01*
X104013095Y-86839342D02*
X104060714Y-86934580D01*
X104060714Y-86934580D02*
X104108333Y-86982200D01*
X104108333Y-86982200D02*
X104203571Y-87029819D01*
X104203571Y-87029819D02*
X104489285Y-87029819D01*
X104489285Y-87029819D02*
X104584523Y-86982200D01*
X104584523Y-86982200D02*
X104632142Y-86934580D01*
X63626785Y-125129819D02*
X63626785Y-124129819D01*
X63626785Y-124129819D02*
X63388690Y-124129819D01*
X63388690Y-124129819D02*
X63245833Y-124177438D01*
X63245833Y-124177438D02*
X63150595Y-124272676D01*
X63150595Y-124272676D02*
X63102976Y-124367914D01*
X63102976Y-124367914D02*
X63055357Y-124558390D01*
X63055357Y-124558390D02*
X63055357Y-124701247D01*
X63055357Y-124701247D02*
X63102976Y-124891723D01*
X63102976Y-124891723D02*
X63150595Y-124986961D01*
X63150595Y-124986961D02*
X63245833Y-125082200D01*
X63245833Y-125082200D02*
X63388690Y-125129819D01*
X63388690Y-125129819D02*
X63626785Y-125129819D01*
X62674404Y-124225057D02*
X62626785Y-124177438D01*
X62626785Y-124177438D02*
X62531547Y-124129819D01*
X62531547Y-124129819D02*
X62293452Y-124129819D01*
X62293452Y-124129819D02*
X62198214Y-124177438D01*
X62198214Y-124177438D02*
X62150595Y-124225057D01*
X62150595Y-124225057D02*
X62102976Y-124320295D01*
X62102976Y-124320295D02*
X62102976Y-124415533D01*
X62102976Y-124415533D02*
X62150595Y-124558390D01*
X62150595Y-124558390D02*
X62722023Y-125129819D01*
X62722023Y-125129819D02*
X62102976Y-125129819D01*
X61531547Y-124558390D02*
X61626785Y-124510771D01*
X61626785Y-124510771D02*
X61674404Y-124463152D01*
X61674404Y-124463152D02*
X61722023Y-124367914D01*
X61722023Y-124367914D02*
X61722023Y-124320295D01*
X61722023Y-124320295D02*
X61674404Y-124225057D01*
X61674404Y-124225057D02*
X61626785Y-124177438D01*
X61626785Y-124177438D02*
X61531547Y-124129819D01*
X61531547Y-124129819D02*
X61341071Y-124129819D01*
X61341071Y-124129819D02*
X61245833Y-124177438D01*
X61245833Y-124177438D02*
X61198214Y-124225057D01*
X61198214Y-124225057D02*
X61150595Y-124320295D01*
X61150595Y-124320295D02*
X61150595Y-124367914D01*
X61150595Y-124367914D02*
X61198214Y-124463152D01*
X61198214Y-124463152D02*
X61245833Y-124510771D01*
X61245833Y-124510771D02*
X61341071Y-124558390D01*
X61341071Y-124558390D02*
X61531547Y-124558390D01*
X61531547Y-124558390D02*
X61626785Y-124606009D01*
X61626785Y-124606009D02*
X61674404Y-124653628D01*
X61674404Y-124653628D02*
X61722023Y-124748866D01*
X61722023Y-124748866D02*
X61722023Y-124939342D01*
X61722023Y-124939342D02*
X61674404Y-125034580D01*
X61674404Y-125034580D02*
X61626785Y-125082200D01*
X61626785Y-125082200D02*
X61531547Y-125129819D01*
X61531547Y-125129819D02*
X61341071Y-125129819D01*
X61341071Y-125129819D02*
X61245833Y-125082200D01*
X61245833Y-125082200D02*
X61198214Y-125034580D01*
X61198214Y-125034580D02*
X61150595Y-124939342D01*
X61150595Y-124939342D02*
X61150595Y-124748866D01*
X61150595Y-124748866D02*
X61198214Y-124653628D01*
X61198214Y-124653628D02*
X61245833Y-124606009D01*
X61245833Y-124606009D02*
X61341071Y-124558390D01*
X172688094Y-67979819D02*
X172688094Y-66979819D01*
X172688094Y-66979819D02*
X172449999Y-66979819D01*
X172449999Y-66979819D02*
X172307142Y-67027438D01*
X172307142Y-67027438D02*
X172211904Y-67122676D01*
X172211904Y-67122676D02*
X172164285Y-67217914D01*
X172164285Y-67217914D02*
X172116666Y-67408390D01*
X172116666Y-67408390D02*
X172116666Y-67551247D01*
X172116666Y-67551247D02*
X172164285Y-67741723D01*
X172164285Y-67741723D02*
X172211904Y-67836961D01*
X172211904Y-67836961D02*
X172307142Y-67932200D01*
X172307142Y-67932200D02*
X172449999Y-67979819D01*
X172449999Y-67979819D02*
X172688094Y-67979819D01*
X171783332Y-66979819D02*
X171116666Y-66979819D01*
X171116666Y-66979819D02*
X171545237Y-67979819D01*
X139826785Y-125129819D02*
X139826785Y-124129819D01*
X139826785Y-124129819D02*
X139588690Y-124129819D01*
X139588690Y-124129819D02*
X139445833Y-124177438D01*
X139445833Y-124177438D02*
X139350595Y-124272676D01*
X139350595Y-124272676D02*
X139302976Y-124367914D01*
X139302976Y-124367914D02*
X139255357Y-124558390D01*
X139255357Y-124558390D02*
X139255357Y-124701247D01*
X139255357Y-124701247D02*
X139302976Y-124891723D01*
X139302976Y-124891723D02*
X139350595Y-124986961D01*
X139350595Y-124986961D02*
X139445833Y-125082200D01*
X139445833Y-125082200D02*
X139588690Y-125129819D01*
X139588690Y-125129819D02*
X139826785Y-125129819D01*
X138922023Y-124129819D02*
X138302976Y-124129819D01*
X138302976Y-124129819D02*
X138636309Y-124510771D01*
X138636309Y-124510771D02*
X138493452Y-124510771D01*
X138493452Y-124510771D02*
X138398214Y-124558390D01*
X138398214Y-124558390D02*
X138350595Y-124606009D01*
X138350595Y-124606009D02*
X138302976Y-124701247D01*
X138302976Y-124701247D02*
X138302976Y-124939342D01*
X138302976Y-124939342D02*
X138350595Y-125034580D01*
X138350595Y-125034580D02*
X138398214Y-125082200D01*
X138398214Y-125082200D02*
X138493452Y-125129819D01*
X138493452Y-125129819D02*
X138779166Y-125129819D01*
X138779166Y-125129819D02*
X138874404Y-125082200D01*
X138874404Y-125082200D02*
X138922023Y-125034580D01*
X137922023Y-124225057D02*
X137874404Y-124177438D01*
X137874404Y-124177438D02*
X137779166Y-124129819D01*
X137779166Y-124129819D02*
X137541071Y-124129819D01*
X137541071Y-124129819D02*
X137445833Y-124177438D01*
X137445833Y-124177438D02*
X137398214Y-124225057D01*
X137398214Y-124225057D02*
X137350595Y-124320295D01*
X137350595Y-124320295D02*
X137350595Y-124415533D01*
X137350595Y-124415533D02*
X137398214Y-124558390D01*
X137398214Y-124558390D02*
X137969642Y-125129819D01*
X137969642Y-125129819D02*
X137350595Y-125129819D01*
X92201785Y-106079819D02*
X92201785Y-105079819D01*
X92201785Y-105079819D02*
X91963690Y-105079819D01*
X91963690Y-105079819D02*
X91820833Y-105127438D01*
X91820833Y-105127438D02*
X91725595Y-105222676D01*
X91725595Y-105222676D02*
X91677976Y-105317914D01*
X91677976Y-105317914D02*
X91630357Y-105508390D01*
X91630357Y-105508390D02*
X91630357Y-105651247D01*
X91630357Y-105651247D02*
X91677976Y-105841723D01*
X91677976Y-105841723D02*
X91725595Y-105936961D01*
X91725595Y-105936961D02*
X91820833Y-106032200D01*
X91820833Y-106032200D02*
X91963690Y-106079819D01*
X91963690Y-106079819D02*
X92201785Y-106079819D01*
X91249404Y-105175057D02*
X91201785Y-105127438D01*
X91201785Y-105127438D02*
X91106547Y-105079819D01*
X91106547Y-105079819D02*
X90868452Y-105079819D01*
X90868452Y-105079819D02*
X90773214Y-105127438D01*
X90773214Y-105127438D02*
X90725595Y-105175057D01*
X90725595Y-105175057D02*
X90677976Y-105270295D01*
X90677976Y-105270295D02*
X90677976Y-105365533D01*
X90677976Y-105365533D02*
X90725595Y-105508390D01*
X90725595Y-105508390D02*
X91297023Y-106079819D01*
X91297023Y-106079819D02*
X90677976Y-106079819D01*
X89725595Y-106079819D02*
X90297023Y-106079819D01*
X90011309Y-106079819D02*
X90011309Y-105079819D01*
X90011309Y-105079819D02*
X90106547Y-105222676D01*
X90106547Y-105222676D02*
X90201785Y-105317914D01*
X90201785Y-105317914D02*
X90297023Y-105365533D01*
X139826785Y-144179819D02*
X139826785Y-143179819D01*
X139826785Y-143179819D02*
X139588690Y-143179819D01*
X139588690Y-143179819D02*
X139445833Y-143227438D01*
X139445833Y-143227438D02*
X139350595Y-143322676D01*
X139350595Y-143322676D02*
X139302976Y-143417914D01*
X139302976Y-143417914D02*
X139255357Y-143608390D01*
X139255357Y-143608390D02*
X139255357Y-143751247D01*
X139255357Y-143751247D02*
X139302976Y-143941723D01*
X139302976Y-143941723D02*
X139350595Y-144036961D01*
X139350595Y-144036961D02*
X139445833Y-144132200D01*
X139445833Y-144132200D02*
X139588690Y-144179819D01*
X139588690Y-144179819D02*
X139826785Y-144179819D01*
X138398214Y-143513152D02*
X138398214Y-144179819D01*
X138636309Y-143132200D02*
X138874404Y-143846485D01*
X138874404Y-143846485D02*
X138255357Y-143846485D01*
X137350595Y-144179819D02*
X137922023Y-144179819D01*
X137636309Y-144179819D02*
X137636309Y-143179819D01*
X137636309Y-143179819D02*
X137731547Y-143322676D01*
X137731547Y-143322676D02*
X137826785Y-143417914D01*
X137826785Y-143417914D02*
X137922023Y-143465533D01*
X134588094Y-67979819D02*
X134588094Y-66979819D01*
X134588094Y-66979819D02*
X134349999Y-66979819D01*
X134349999Y-66979819D02*
X134207142Y-67027438D01*
X134207142Y-67027438D02*
X134111904Y-67122676D01*
X134111904Y-67122676D02*
X134064285Y-67217914D01*
X134064285Y-67217914D02*
X134016666Y-67408390D01*
X134016666Y-67408390D02*
X134016666Y-67551247D01*
X134016666Y-67551247D02*
X134064285Y-67741723D01*
X134064285Y-67741723D02*
X134111904Y-67836961D01*
X134111904Y-67836961D02*
X134207142Y-67932200D01*
X134207142Y-67932200D02*
X134349999Y-67979819D01*
X134349999Y-67979819D02*
X134588094Y-67979819D01*
X133111904Y-66979819D02*
X133588094Y-66979819D01*
X133588094Y-66979819D02*
X133635713Y-67456009D01*
X133635713Y-67456009D02*
X133588094Y-67408390D01*
X133588094Y-67408390D02*
X133492856Y-67360771D01*
X133492856Y-67360771D02*
X133254761Y-67360771D01*
X133254761Y-67360771D02*
X133159523Y-67408390D01*
X133159523Y-67408390D02*
X133111904Y-67456009D01*
X133111904Y-67456009D02*
X133064285Y-67551247D01*
X133064285Y-67551247D02*
X133064285Y-67789342D01*
X133064285Y-67789342D02*
X133111904Y-67884580D01*
X133111904Y-67884580D02*
X133159523Y-67932200D01*
X133159523Y-67932200D02*
X133254761Y-67979819D01*
X133254761Y-67979819D02*
X133492856Y-67979819D01*
X133492856Y-67979819D02*
X133588094Y-67932200D01*
X133588094Y-67932200D02*
X133635713Y-67884580D01*
%TO.C,SW18*%
D10*
X207537500Y-102350000D02*
X207537500Y-98400000D01*
X207912500Y-98025000D02*
X211387500Y-98025000D01*
X207912500Y-102725000D02*
X210212305Y-102725000D01*
X212337500Y-104825000D02*
X211837500Y-104325000D01*
X213487500Y-100125000D02*
X216587500Y-100125000D01*
X216587500Y-104825000D02*
X212337500Y-104825000D01*
X217087500Y-100625000D02*
X216587500Y-100125000D01*
X217087500Y-100625000D02*
X217087500Y-104325000D01*
X217087500Y-104325000D02*
X216587500Y-104825000D01*
X207537500Y-98400000D02*
G75*
G02*
X207912500Y-98025000I375000J0D01*
G01*
X207912500Y-102725000D02*
G75*
G02*
X207537500Y-102350000I0J375000D01*
G01*
X210212305Y-102725000D02*
G75*
G02*
X211837499Y-104325000I25000J-1599999D01*
G01*
X211387500Y-98025000D02*
G75*
G02*
X211762500Y-98400000I0J-375000D01*
G01*
X213487500Y-100125000D02*
G75*
G02*
X211762500Y-98400000I1J1725001D01*
G01*
%TO.C,SW10*%
X40850000Y-102350000D02*
X40850000Y-98400000D01*
X41225000Y-98025000D02*
X44700000Y-98025000D01*
X41225000Y-102725000D02*
X43524805Y-102725000D01*
X45650000Y-104825000D02*
X45150000Y-104325000D01*
X46800000Y-100125000D02*
X49900000Y-100125000D01*
X49900000Y-104825000D02*
X45650000Y-104825000D01*
X50400000Y-100625000D02*
X49900000Y-100125000D01*
X50400000Y-100625000D02*
X50400000Y-104325000D01*
X50400000Y-104325000D02*
X49900000Y-104825000D01*
X40850000Y-98400000D02*
G75*
G02*
X41225000Y-98025000I375000J0D01*
G01*
X41225000Y-102725000D02*
G75*
G02*
X40850000Y-102350000I0J375000D01*
G01*
X43524805Y-102725000D02*
G75*
G02*
X45149999Y-104325000I25000J-1599999D01*
G01*
X44700000Y-98025000D02*
G75*
G02*
X45075000Y-98400000I0J-375000D01*
G01*
X46800000Y-100125000D02*
G75*
G02*
X45075000Y-98400000I1J1725001D01*
G01*
%TO.C,SW16*%
X155150000Y-102350000D02*
X155150000Y-98400000D01*
X155525000Y-98025000D02*
X159000000Y-98025000D01*
X155525000Y-102725000D02*
X157824805Y-102725000D01*
X159950000Y-104825000D02*
X159450000Y-104325000D01*
X161100000Y-100125000D02*
X164200000Y-100125000D01*
X164200000Y-104825000D02*
X159950000Y-104825000D01*
X164700000Y-100625000D02*
X164200000Y-100125000D01*
X164700000Y-100625000D02*
X164700000Y-104325000D01*
X164700000Y-104325000D02*
X164200000Y-104825000D01*
X155150000Y-98400000D02*
G75*
G02*
X155525000Y-98025000I375000J0D01*
G01*
X155525000Y-102725000D02*
G75*
G02*
X155150000Y-102350000I0J375000D01*
G01*
X157824805Y-102725000D02*
G75*
G02*
X159449999Y-104325000I25000J-1599999D01*
G01*
X159000000Y-98025000D02*
G75*
G02*
X159375000Y-98400000I0J-375000D01*
G01*
X161100000Y-100125000D02*
G75*
G02*
X159375000Y-98400000I1J1725001D01*
G01*
%TO.C,SW40*%
X112287500Y-159500000D02*
X112287500Y-155550000D01*
X112662500Y-155175000D02*
X116137500Y-155175000D01*
X112662500Y-159875000D02*
X114962305Y-159875000D01*
X117087500Y-161975000D02*
X116587500Y-161475000D01*
X118237500Y-157275000D02*
X121337500Y-157275000D01*
X121337500Y-161975000D02*
X117087500Y-161975000D01*
X121837500Y-157775000D02*
X121337500Y-157275000D01*
X121837500Y-157775000D02*
X121837500Y-161475000D01*
X121837500Y-161475000D02*
X121337500Y-161975000D01*
X112287500Y-155550000D02*
G75*
G02*
X112662500Y-155175000I375000J0D01*
G01*
X112662500Y-159875000D02*
G75*
G02*
X112287500Y-159500000I0J375000D01*
G01*
X114962305Y-159875000D02*
G75*
G02*
X116587499Y-161475000I25000J-1599999D01*
G01*
X116137500Y-155175000D02*
G75*
G02*
X116512500Y-155550000I0J-375000D01*
G01*
X118237500Y-157275000D02*
G75*
G02*
X116512500Y-155550000I1J1725001D01*
G01*
%TO.C,SW32*%
X131337500Y-140450000D02*
X131337500Y-136500000D01*
X131712500Y-136125000D02*
X135187500Y-136125000D01*
X131712500Y-140825000D02*
X134012305Y-140825000D01*
X136137500Y-142925000D02*
X135637500Y-142425000D01*
X137287500Y-138225000D02*
X140387500Y-138225000D01*
X140387500Y-142925000D02*
X136137500Y-142925000D01*
X140887500Y-138725000D02*
X140387500Y-138225000D01*
X140887500Y-138725000D02*
X140887500Y-142425000D01*
X140887500Y-142425000D02*
X140387500Y-142925000D01*
X131337500Y-136500000D02*
G75*
G02*
X131712500Y-136125000I375000J0D01*
G01*
X131712500Y-140825000D02*
G75*
G02*
X131337500Y-140450000I0J375000D01*
G01*
X134012305Y-140825000D02*
G75*
G02*
X135637499Y-142425000I25000J-1599999D01*
G01*
X135187500Y-136125000D02*
G75*
G02*
X135562500Y-136500000I0J-375000D01*
G01*
X137287500Y-138225000D02*
G75*
G02*
X135562500Y-136500000I1J1725001D01*
G01*
%TO.C,SW13*%
X98000000Y-102350000D02*
X98000000Y-98400000D01*
X98375000Y-98025000D02*
X101850000Y-98025000D01*
X98375000Y-102725000D02*
X100674805Y-102725000D01*
X102800000Y-104825000D02*
X102300000Y-104325000D01*
X103950000Y-100125000D02*
X107050000Y-100125000D01*
X107050000Y-104825000D02*
X102800000Y-104825000D01*
X107550000Y-100625000D02*
X107050000Y-100125000D01*
X107550000Y-100625000D02*
X107550000Y-104325000D01*
X107550000Y-104325000D02*
X107050000Y-104825000D01*
X98000000Y-98400000D02*
G75*
G02*
X98375000Y-98025000I375000J0D01*
G01*
X98375000Y-102725000D02*
G75*
G02*
X98000000Y-102350000I0J375000D01*
G01*
X100674805Y-102725000D02*
G75*
G02*
X102299999Y-104325000I25000J-1599999D01*
G01*
X101850000Y-98025000D02*
G75*
G02*
X102225000Y-98400000I0J-375000D01*
G01*
X103950000Y-100125000D02*
G75*
G02*
X102225000Y-98400000I1J1725001D01*
G01*
%TO.C,SW4*%
X107525000Y-83300000D02*
X107525000Y-79350000D01*
X107900000Y-78975000D02*
X111375000Y-78975000D01*
X107900000Y-83675000D02*
X110199805Y-83675000D01*
X112325000Y-85775000D02*
X111825000Y-85275000D01*
X113475000Y-81075000D02*
X116575000Y-81075000D01*
X116575000Y-85775000D02*
X112325000Y-85775000D01*
X117075000Y-81575000D02*
X116575000Y-81075000D01*
X117075000Y-81575000D02*
X117075000Y-85275000D01*
X117075000Y-85275000D02*
X116575000Y-85775000D01*
X107525000Y-79350000D02*
G75*
G02*
X107900000Y-78975000I375000J0D01*
G01*
X107900000Y-83675000D02*
G75*
G02*
X107525000Y-83300000I0J375000D01*
G01*
X110199805Y-83675000D02*
G75*
G02*
X111824999Y-85275000I25000J-1599999D01*
G01*
X111375000Y-78975000D02*
G75*
G02*
X111750000Y-79350000I0J-375000D01*
G01*
X113475000Y-81075000D02*
G75*
G02*
X111750000Y-79350000I1J1725001D01*
G01*
%TO.C,SW26*%
X183725000Y-121400000D02*
X183725000Y-117450000D01*
X184100000Y-117075000D02*
X187575000Y-117075000D01*
X184100000Y-121775000D02*
X186399805Y-121775000D01*
X188525000Y-123875000D02*
X188025000Y-123375000D01*
X189675000Y-119175000D02*
X192775000Y-119175000D01*
X192775000Y-123875000D02*
X188525000Y-123875000D01*
X193275000Y-119675000D02*
X192775000Y-119175000D01*
X193275000Y-119675000D02*
X193275000Y-123375000D01*
X193275000Y-123375000D02*
X192775000Y-123875000D01*
X183725000Y-117450000D02*
G75*
G02*
X184100000Y-117075000I375000J0D01*
G01*
X184100000Y-121775000D02*
G75*
G02*
X183725000Y-121400000I0J375000D01*
G01*
X186399805Y-121775000D02*
G75*
G02*
X188024999Y-123375000I25000J-1599999D01*
G01*
X187575000Y-117075000D02*
G75*
G02*
X187950000Y-117450000I0J-375000D01*
G01*
X189675000Y-119175000D02*
G75*
G02*
X187950000Y-117450000I1J1725001D01*
G01*
%TO.C,SW25*%
X159912500Y-121400000D02*
X159912500Y-117450000D01*
X160287500Y-117075000D02*
X163762500Y-117075000D01*
X160287500Y-121775000D02*
X162587305Y-121775000D01*
X164712500Y-123875000D02*
X164212500Y-123375000D01*
X165862500Y-119175000D02*
X168962500Y-119175000D01*
X168962500Y-123875000D02*
X164712500Y-123875000D01*
X169462500Y-119675000D02*
X168962500Y-119175000D01*
X169462500Y-119675000D02*
X169462500Y-123375000D01*
X169462500Y-123375000D02*
X168962500Y-123875000D01*
X159912500Y-117450000D02*
G75*
G02*
X160287500Y-117075000I375000J0D01*
G01*
X160287500Y-121775000D02*
G75*
G02*
X159912500Y-121400000I0J375000D01*
G01*
X162587305Y-121775000D02*
G75*
G02*
X164212499Y-123375000I25000J-1599999D01*
G01*
X163762500Y-117075000D02*
G75*
G02*
X164137500Y-117450000I0J-375000D01*
G01*
X165862500Y-119175000D02*
G75*
G02*
X164137500Y-117450000I1J1725001D01*
G01*
%TO.C,SW7*%
X164675000Y-83300000D02*
X164675000Y-79350000D01*
X165050000Y-78975000D02*
X168525000Y-78975000D01*
X165050000Y-83675000D02*
X167349805Y-83675000D01*
X169475000Y-85775000D02*
X168975000Y-85275000D01*
X170625000Y-81075000D02*
X173725000Y-81075000D01*
X173725000Y-85775000D02*
X169475000Y-85775000D01*
X174225000Y-81575000D02*
X173725000Y-81075000D01*
X174225000Y-81575000D02*
X174225000Y-85275000D01*
X174225000Y-85275000D02*
X173725000Y-85775000D01*
X164675000Y-79350000D02*
G75*
G02*
X165050000Y-78975000I375000J0D01*
G01*
X165050000Y-83675000D02*
G75*
G02*
X164675000Y-83300000I0J375000D01*
G01*
X167349805Y-83675000D02*
G75*
G02*
X168974999Y-85275000I25000J-1599999D01*
G01*
X168525000Y-78975000D02*
G75*
G02*
X168900000Y-79350000I0J-375000D01*
G01*
X170625000Y-81075000D02*
G75*
G02*
X168900000Y-79350000I1J1725001D01*
G01*
%TO.C,SW2*%
X69425000Y-83300000D02*
X69425000Y-79350000D01*
X69800000Y-78975000D02*
X73275000Y-78975000D01*
X69800000Y-83675000D02*
X72099805Y-83675000D01*
X74225000Y-85775000D02*
X73725000Y-85275000D01*
X75375000Y-81075000D02*
X78475000Y-81075000D01*
X78475000Y-85775000D02*
X74225000Y-85775000D01*
X78975000Y-81575000D02*
X78475000Y-81075000D01*
X78975000Y-81575000D02*
X78975000Y-85275000D01*
X78975000Y-85275000D02*
X78475000Y-85775000D01*
X69425000Y-79350000D02*
G75*
G02*
X69800000Y-78975000I375000J0D01*
G01*
X69800000Y-83675000D02*
G75*
G02*
X69425000Y-83300000I0J375000D01*
G01*
X72099805Y-83675000D02*
G75*
G02*
X73724999Y-85275000I25000J-1599999D01*
G01*
X73275000Y-78975000D02*
G75*
G02*
X73650000Y-79350000I0J-375000D01*
G01*
X75375000Y-81075000D02*
G75*
G02*
X73650000Y-79350000I1J1725001D01*
G01*
%TO.C,SW34*%
X169437500Y-140450000D02*
X169437500Y-136500000D01*
X169812500Y-136125000D02*
X173287500Y-136125000D01*
X169812500Y-140825000D02*
X172112305Y-140825000D01*
X174237500Y-142925000D02*
X173737500Y-142425000D01*
X175387500Y-138225000D02*
X178487500Y-138225000D01*
X178487500Y-142925000D02*
X174237500Y-142925000D01*
X178987500Y-138725000D02*
X178487500Y-138225000D01*
X178987500Y-138725000D02*
X178987500Y-142425000D01*
X178987500Y-142425000D02*
X178487500Y-142925000D01*
X169437500Y-136500000D02*
G75*
G02*
X169812500Y-136125000I375000J0D01*
G01*
X169812500Y-140825000D02*
G75*
G02*
X169437500Y-140450000I0J375000D01*
G01*
X172112305Y-140825000D02*
G75*
G02*
X173737499Y-142425000I25000J-1599999D01*
G01*
X173287500Y-136125000D02*
G75*
G02*
X173662500Y-136500000I0J-375000D01*
G01*
X175387500Y-138225000D02*
G75*
G02*
X173662500Y-136500000I1J1725001D01*
G01*
%TO.C,SW31*%
X112287500Y-140450000D02*
X112287500Y-136500000D01*
X112662500Y-136125000D02*
X116137500Y-136125000D01*
X112662500Y-140825000D02*
X114962305Y-140825000D01*
X117087500Y-142925000D02*
X116587500Y-142425000D01*
X118237500Y-138225000D02*
X121337500Y-138225000D01*
X121337500Y-142925000D02*
X117087500Y-142925000D01*
X121837500Y-138725000D02*
X121337500Y-138225000D01*
X121837500Y-138725000D02*
X121837500Y-142425000D01*
X121837500Y-142425000D02*
X121337500Y-142925000D01*
X112287500Y-136500000D02*
G75*
G02*
X112662500Y-136125000I375000J0D01*
G01*
X112662500Y-140825000D02*
G75*
G02*
X112287500Y-140450000I0J375000D01*
G01*
X114962305Y-140825000D02*
G75*
G02*
X116587499Y-142425000I25000J-1599999D01*
G01*
X116137500Y-136125000D02*
G75*
G02*
X116512500Y-136500000I0J-375000D01*
G01*
X118237500Y-138225000D02*
G75*
G02*
X116512500Y-136500000I1J1725001D01*
G01*
%TO.C,SW38*%
X74187500Y-159500000D02*
X74187500Y-155550000D01*
X74562500Y-155175000D02*
X78037500Y-155175000D01*
X74562500Y-159875000D02*
X76862305Y-159875000D01*
X78987500Y-161975000D02*
X78487500Y-161475000D01*
X80137500Y-157275000D02*
X83237500Y-157275000D01*
X83237500Y-161975000D02*
X78987500Y-161975000D01*
X83737500Y-157775000D02*
X83237500Y-157275000D01*
X83737500Y-157775000D02*
X83737500Y-161475000D01*
X83737500Y-161475000D02*
X83237500Y-161975000D01*
X74187500Y-155550000D02*
G75*
G02*
X74562500Y-155175000I375000J0D01*
G01*
X74562500Y-159875000D02*
G75*
G02*
X74187500Y-159500000I0J375000D01*
G01*
X76862305Y-159875000D02*
G75*
G02*
X78487499Y-161475000I25000J-1599999D01*
G01*
X78037500Y-155175000D02*
G75*
G02*
X78412500Y-155550000I0J-375000D01*
G01*
X80137500Y-157275000D02*
G75*
G02*
X78412500Y-155550000I1J1725001D01*
G01*
%TO.C,SW41*%
X131337500Y-159500000D02*
X131337500Y-155550000D01*
X131712500Y-155175000D02*
X135187500Y-155175000D01*
X131712500Y-159875000D02*
X134012305Y-159875000D01*
X136137500Y-161975000D02*
X135637500Y-161475000D01*
X137287500Y-157275000D02*
X140387500Y-157275000D01*
X140387500Y-161975000D02*
X136137500Y-161975000D01*
X140887500Y-157775000D02*
X140387500Y-157275000D01*
X140887500Y-157775000D02*
X140887500Y-161475000D01*
X140887500Y-161475000D02*
X140387500Y-161975000D01*
X131337500Y-155550000D02*
G75*
G02*
X131712500Y-155175000I375000J0D01*
G01*
X131712500Y-159875000D02*
G75*
G02*
X131337500Y-159500000I0J375000D01*
G01*
X134012305Y-159875000D02*
G75*
G02*
X135637499Y-161475000I25000J-1599999D01*
G01*
X135187500Y-155175000D02*
G75*
G02*
X135562500Y-155550000I0J-375000D01*
G01*
X137287500Y-157275000D02*
G75*
G02*
X135562500Y-155550000I1J1725001D01*
G01*
%TO.C,SW22*%
X102762500Y-121400000D02*
X102762500Y-117450000D01*
X103137500Y-117075000D02*
X106612500Y-117075000D01*
X103137500Y-121775000D02*
X105437305Y-121775000D01*
X107562500Y-123875000D02*
X107062500Y-123375000D01*
X108712500Y-119175000D02*
X111812500Y-119175000D01*
X111812500Y-123875000D02*
X107562500Y-123875000D01*
X112312500Y-119675000D02*
X111812500Y-119175000D01*
X112312500Y-119675000D02*
X112312500Y-123375000D01*
X112312500Y-123375000D02*
X111812500Y-123875000D01*
X102762500Y-117450000D02*
G75*
G02*
X103137500Y-117075000I375000J0D01*
G01*
X103137500Y-121775000D02*
G75*
G02*
X102762500Y-121400000I0J375000D01*
G01*
X105437305Y-121775000D02*
G75*
G02*
X107062499Y-123375000I25000J-1599999D01*
G01*
X106612500Y-117075000D02*
G75*
G02*
X106987500Y-117450000I0J-375000D01*
G01*
X108712500Y-119175000D02*
G75*
G02*
X106987500Y-117450000I1J1725001D01*
G01*
%TO.C,SW21*%
X83712500Y-121400000D02*
X83712500Y-117450000D01*
X84087500Y-117075000D02*
X87562500Y-117075000D01*
X84087500Y-121775000D02*
X86387305Y-121775000D01*
X88512500Y-123875000D02*
X88012500Y-123375000D01*
X89662500Y-119175000D02*
X92762500Y-119175000D01*
X92762500Y-123875000D02*
X88512500Y-123875000D01*
X93262500Y-119675000D02*
X92762500Y-119175000D01*
X93262500Y-119675000D02*
X93262500Y-123375000D01*
X93262500Y-123375000D02*
X92762500Y-123875000D01*
X83712500Y-117450000D02*
G75*
G02*
X84087500Y-117075000I375000J0D01*
G01*
X84087500Y-121775000D02*
G75*
G02*
X83712500Y-121400000I0J375000D01*
G01*
X86387305Y-121775000D02*
G75*
G02*
X88012499Y-123375000I25000J-1599999D01*
G01*
X87562500Y-117075000D02*
G75*
G02*
X87937500Y-117450000I0J-375000D01*
G01*
X89662500Y-119175000D02*
G75*
G02*
X87937500Y-117450000I1J1725001D01*
G01*
%TO.C,SW24*%
X140862500Y-121400000D02*
X140862500Y-117450000D01*
X141237500Y-117075000D02*
X144712500Y-117075000D01*
X141237500Y-121775000D02*
X143537305Y-121775000D01*
X145662500Y-123875000D02*
X145162500Y-123375000D01*
X146812500Y-119175000D02*
X149912500Y-119175000D01*
X149912500Y-123875000D02*
X145662500Y-123875000D01*
X150412500Y-119675000D02*
X149912500Y-119175000D01*
X150412500Y-119675000D02*
X150412500Y-123375000D01*
X150412500Y-123375000D02*
X149912500Y-123875000D01*
X140862500Y-117450000D02*
G75*
G02*
X141237500Y-117075000I375000J0D01*
G01*
X141237500Y-121775000D02*
G75*
G02*
X140862500Y-121400000I0J375000D01*
G01*
X143537305Y-121775000D02*
G75*
G02*
X145162499Y-123375000I25000J-1599999D01*
G01*
X144712500Y-117075000D02*
G75*
G02*
X145087500Y-117450000I0J-375000D01*
G01*
X146812500Y-119175000D02*
G75*
G02*
X145087500Y-117450000I1J1725001D01*
G01*
%TO.C,SW15*%
X136100000Y-102350000D02*
X136100000Y-98400000D01*
X136475000Y-98025000D02*
X139950000Y-98025000D01*
X136475000Y-102725000D02*
X138774805Y-102725000D01*
X140900000Y-104825000D02*
X140400000Y-104325000D01*
X142050000Y-100125000D02*
X145150000Y-100125000D01*
X145150000Y-104825000D02*
X140900000Y-104825000D01*
X145650000Y-100625000D02*
X145150000Y-100125000D01*
X145650000Y-100625000D02*
X145650000Y-104325000D01*
X145650000Y-104325000D02*
X145150000Y-104825000D01*
X136100000Y-98400000D02*
G75*
G02*
X136475000Y-98025000I375000J0D01*
G01*
X136475000Y-102725000D02*
G75*
G02*
X136100000Y-102350000I0J375000D01*
G01*
X138774805Y-102725000D02*
G75*
G02*
X140399999Y-104325000I25000J-1599999D01*
G01*
X139950000Y-98025000D02*
G75*
G02*
X140325000Y-98400000I0J-375000D01*
G01*
X142050000Y-100125000D02*
G75*
G02*
X140325000Y-98400000I1J1725001D01*
G01*
%TO.C,SW39*%
X93237500Y-159500000D02*
X93237500Y-155550000D01*
X93612500Y-155175000D02*
X97087500Y-155175000D01*
X93612500Y-159875000D02*
X95912305Y-159875000D01*
X98037500Y-161975000D02*
X97537500Y-161475000D01*
X99187500Y-157275000D02*
X102287500Y-157275000D01*
X102287500Y-161975000D02*
X98037500Y-161975000D01*
X102787500Y-157775000D02*
X102287500Y-157275000D01*
X102787500Y-157775000D02*
X102787500Y-161475000D01*
X102787500Y-161475000D02*
X102287500Y-161975000D01*
X93237500Y-155550000D02*
G75*
G02*
X93612500Y-155175000I375000J0D01*
G01*
X93612500Y-159875000D02*
G75*
G02*
X93237500Y-159500000I0J375000D01*
G01*
X95912305Y-159875000D02*
G75*
G02*
X97537499Y-161475000I25000J-1599999D01*
G01*
X97087500Y-155175000D02*
G75*
G02*
X97462500Y-155550000I0J-375000D01*
G01*
X99187500Y-157275000D02*
G75*
G02*
X97462500Y-155550000I1J1725001D01*
G01*
%TO.C,SW6*%
X145625000Y-83300000D02*
X145625000Y-79350000D01*
X146000000Y-78975000D02*
X149475000Y-78975000D01*
X146000000Y-83675000D02*
X148299805Y-83675000D01*
X150425000Y-85775000D02*
X149925000Y-85275000D01*
X151575000Y-81075000D02*
X154675000Y-81075000D01*
X154675000Y-85775000D02*
X150425000Y-85775000D01*
X155175000Y-81575000D02*
X154675000Y-81075000D01*
X155175000Y-81575000D02*
X155175000Y-85275000D01*
X155175000Y-85275000D02*
X154675000Y-85775000D01*
X145625000Y-79350000D02*
G75*
G02*
X146000000Y-78975000I375000J0D01*
G01*
X146000000Y-83675000D02*
G75*
G02*
X145625000Y-83300000I0J375000D01*
G01*
X148299805Y-83675000D02*
G75*
G02*
X149924999Y-85275000I25000J-1599999D01*
G01*
X149475000Y-78975000D02*
G75*
G02*
X149850000Y-79350000I0J-375000D01*
G01*
X151575000Y-81075000D02*
G75*
G02*
X149850000Y-79350000I1J1725001D01*
G01*
%TO.C,SW43*%
X169437500Y-159500000D02*
X169437500Y-155550000D01*
X169812500Y-155175000D02*
X173287500Y-155175000D01*
X169812500Y-159875000D02*
X172112305Y-159875000D01*
X174237500Y-161975000D02*
X173737500Y-161475000D01*
X175387500Y-157275000D02*
X178487500Y-157275000D01*
X178487500Y-161975000D02*
X174237500Y-161975000D01*
X178987500Y-157775000D02*
X178487500Y-157275000D01*
X178987500Y-157775000D02*
X178987500Y-161475000D01*
X178987500Y-161475000D02*
X178487500Y-161975000D01*
X169437500Y-155550000D02*
G75*
G02*
X169812500Y-155175000I375000J0D01*
G01*
X169812500Y-159875000D02*
G75*
G02*
X169437500Y-159500000I0J375000D01*
G01*
X172112305Y-159875000D02*
G75*
G02*
X173737499Y-161475000I25000J-1599999D01*
G01*
X173287500Y-155175000D02*
G75*
G02*
X173662500Y-155550000I0J-375000D01*
G01*
X175387500Y-157275000D02*
G75*
G02*
X173662500Y-155550000I1J1725001D01*
G01*
%TO.C,SW9*%
X207537500Y-83300000D02*
X207537500Y-79350000D01*
X207912500Y-78975000D02*
X211387500Y-78975000D01*
X207912500Y-83675000D02*
X210212305Y-83675000D01*
X212337500Y-85775000D02*
X211837500Y-85275000D01*
X213487500Y-81075000D02*
X216587500Y-81075000D01*
X216587500Y-85775000D02*
X212337500Y-85775000D01*
X217087500Y-81575000D02*
X216587500Y-81075000D01*
X217087500Y-81575000D02*
X217087500Y-85275000D01*
X217087500Y-85275000D02*
X216587500Y-85775000D01*
X207537500Y-79350000D02*
G75*
G02*
X207912500Y-78975000I375000J0D01*
G01*
X207912500Y-83675000D02*
G75*
G02*
X207537500Y-83300000I0J375000D01*
G01*
X210212305Y-83675000D02*
G75*
G02*
X211837499Y-85275000I25000J-1599999D01*
G01*
X211387500Y-78975000D02*
G75*
G02*
X211762500Y-79350000I0J-375000D01*
G01*
X213487500Y-81075000D02*
G75*
G02*
X211762500Y-79350000I1J1725001D01*
G01*
%TO.C,SW23*%
X121812500Y-121400000D02*
X121812500Y-117450000D01*
X122187500Y-117075000D02*
X125662500Y-117075000D01*
X122187500Y-121775000D02*
X124487305Y-121775000D01*
X126612500Y-123875000D02*
X126112500Y-123375000D01*
X127762500Y-119175000D02*
X130862500Y-119175000D01*
X130862500Y-123875000D02*
X126612500Y-123875000D01*
X131362500Y-119675000D02*
X130862500Y-119175000D01*
X131362500Y-119675000D02*
X131362500Y-123375000D01*
X131362500Y-123375000D02*
X130862500Y-123875000D01*
X121812500Y-117450000D02*
G75*
G02*
X122187500Y-117075000I375000J0D01*
G01*
X122187500Y-121775000D02*
G75*
G02*
X121812500Y-121400000I0J375000D01*
G01*
X124487305Y-121775000D02*
G75*
G02*
X126112499Y-123375000I25000J-1599999D01*
G01*
X125662500Y-117075000D02*
G75*
G02*
X126037500Y-117450000I0J-375000D01*
G01*
X127762500Y-119175000D02*
G75*
G02*
X126037500Y-117450000I1J1725001D01*
G01*
%TO.C,SW36*%
X207537500Y-140450000D02*
X207537500Y-136500000D01*
X207912500Y-136125000D02*
X211387500Y-136125000D01*
X207912500Y-140825000D02*
X210212305Y-140825000D01*
X212337500Y-142925000D02*
X211837500Y-142425000D01*
X213487500Y-138225000D02*
X216587500Y-138225000D01*
X216587500Y-142925000D02*
X212337500Y-142925000D01*
X217087500Y-138725000D02*
X216587500Y-138225000D01*
X217087500Y-138725000D02*
X217087500Y-142425000D01*
X217087500Y-142425000D02*
X216587500Y-142925000D01*
X207537500Y-136500000D02*
G75*
G02*
X207912500Y-136125000I375000J0D01*
G01*
X207912500Y-140825000D02*
G75*
G02*
X207537500Y-140450000I0J375000D01*
G01*
X210212305Y-140825000D02*
G75*
G02*
X211837499Y-142425000I25000J-1599999D01*
G01*
X211387500Y-136125000D02*
G75*
G02*
X211762500Y-136500000I0J-375000D01*
G01*
X213487500Y-138225000D02*
G75*
G02*
X211762500Y-136500000I1J1725001D01*
G01*
%TO.C,SW27*%
X207537500Y-121400000D02*
X207537500Y-117450000D01*
X207912500Y-117075000D02*
X211387500Y-117075000D01*
X207912500Y-121775000D02*
X210212305Y-121775000D01*
X212337500Y-123875000D02*
X211837500Y-123375000D01*
X213487500Y-119175000D02*
X216587500Y-119175000D01*
X216587500Y-123875000D02*
X212337500Y-123875000D01*
X217087500Y-119675000D02*
X216587500Y-119175000D01*
X217087500Y-119675000D02*
X217087500Y-123375000D01*
X217087500Y-123375000D02*
X216587500Y-123875000D01*
X207537500Y-117450000D02*
G75*
G02*
X207912500Y-117075000I375000J0D01*
G01*
X207912500Y-121775000D02*
G75*
G02*
X207537500Y-121400000I0J375000D01*
G01*
X210212305Y-121775000D02*
G75*
G02*
X211837499Y-123375000I25000J-1599999D01*
G01*
X211387500Y-117075000D02*
G75*
G02*
X211762500Y-117450000I0J-375000D01*
G01*
X213487500Y-119175000D02*
G75*
G02*
X211762500Y-117450000I1J1725001D01*
G01*
%TO.C,SW35*%
X188487500Y-140450000D02*
X188487500Y-136500000D01*
X188862500Y-136125000D02*
X192337500Y-136125000D01*
X188862500Y-140825000D02*
X191162305Y-140825000D01*
X193287500Y-142925000D02*
X192787500Y-142425000D01*
X194437500Y-138225000D02*
X197537500Y-138225000D01*
X197537500Y-142925000D02*
X193287500Y-142925000D01*
X198037500Y-138725000D02*
X197537500Y-138225000D01*
X198037500Y-138725000D02*
X198037500Y-142425000D01*
X198037500Y-142425000D02*
X197537500Y-142925000D01*
X188487500Y-136500000D02*
G75*
G02*
X188862500Y-136125000I375000J0D01*
G01*
X188862500Y-140825000D02*
G75*
G02*
X188487500Y-140450000I0J375000D01*
G01*
X191162305Y-140825000D02*
G75*
G02*
X192787499Y-142425000I25000J-1599999D01*
G01*
X192337500Y-136125000D02*
G75*
G02*
X192712500Y-136500000I0J-375000D01*
G01*
X194437500Y-138225000D02*
G75*
G02*
X192712500Y-136500000I1J1725001D01*
G01*
%TO.C,SW11*%
X59900000Y-102350000D02*
X59900000Y-98400000D01*
X60275000Y-98025000D02*
X63750000Y-98025000D01*
X60275000Y-102725000D02*
X62574805Y-102725000D01*
X64700000Y-104825000D02*
X64200000Y-104325000D01*
X65850000Y-100125000D02*
X68950000Y-100125000D01*
X68950000Y-104825000D02*
X64700000Y-104825000D01*
X69450000Y-100625000D02*
X68950000Y-100125000D01*
X69450000Y-100625000D02*
X69450000Y-104325000D01*
X69450000Y-104325000D02*
X68950000Y-104825000D01*
X59900000Y-98400000D02*
G75*
G02*
X60275000Y-98025000I375000J0D01*
G01*
X60275000Y-102725000D02*
G75*
G02*
X59900000Y-102350000I0J375000D01*
G01*
X62574805Y-102725000D02*
G75*
G02*
X64199999Y-104325000I25000J-1599999D01*
G01*
X63750000Y-98025000D02*
G75*
G02*
X64125000Y-98400000I0J-375000D01*
G01*
X65850000Y-100125000D02*
G75*
G02*
X64125000Y-98400000I1J1725001D01*
G01*
%TO.C,SW44*%
X188487500Y-159500000D02*
X188487500Y-155550000D01*
X188862500Y-155175000D02*
X192337500Y-155175000D01*
X188862500Y-159875000D02*
X191162305Y-159875000D01*
X193287500Y-161975000D02*
X192787500Y-161475000D01*
X194437500Y-157275000D02*
X197537500Y-157275000D01*
X197537500Y-161975000D02*
X193287500Y-161975000D01*
X198037500Y-157775000D02*
X197537500Y-157275000D01*
X198037500Y-157775000D02*
X198037500Y-161475000D01*
X198037500Y-161475000D02*
X197537500Y-161975000D01*
X188487500Y-155550000D02*
G75*
G02*
X188862500Y-155175000I375000J0D01*
G01*
X188862500Y-159875000D02*
G75*
G02*
X188487500Y-159500000I0J375000D01*
G01*
X191162305Y-159875000D02*
G75*
G02*
X192787499Y-161475000I25000J-1599999D01*
G01*
X192337500Y-155175000D02*
G75*
G02*
X192712500Y-155550000I0J-375000D01*
G01*
X194437500Y-157275000D02*
G75*
G02*
X192712500Y-155550000I1J1725001D01*
G01*
%TO.C,SW20*%
X64662500Y-121400000D02*
X64662500Y-117450000D01*
X65037500Y-117075000D02*
X68512500Y-117075000D01*
X65037500Y-121775000D02*
X67337305Y-121775000D01*
X69462500Y-123875000D02*
X68962500Y-123375000D01*
X70612500Y-119175000D02*
X73712500Y-119175000D01*
X73712500Y-123875000D02*
X69462500Y-123875000D01*
X74212500Y-119675000D02*
X73712500Y-119175000D01*
X74212500Y-119675000D02*
X74212500Y-123375000D01*
X74212500Y-123375000D02*
X73712500Y-123875000D01*
X64662500Y-117450000D02*
G75*
G02*
X65037500Y-117075000I375000J0D01*
G01*
X65037500Y-121775000D02*
G75*
G02*
X64662500Y-121400000I0J375000D01*
G01*
X67337305Y-121775000D02*
G75*
G02*
X68962499Y-123375000I25000J-1599999D01*
G01*
X68512500Y-117075000D02*
G75*
G02*
X68887500Y-117450000I0J-375000D01*
G01*
X70612500Y-119175000D02*
G75*
G02*
X68887500Y-117450000I1J1725001D01*
G01*
%TO.C,SW30*%
X93237500Y-140450000D02*
X93237500Y-136500000D01*
X93612500Y-136125000D02*
X97087500Y-136125000D01*
X93612500Y-140825000D02*
X95912305Y-140825000D01*
X98037500Y-142925000D02*
X97537500Y-142425000D01*
X99187500Y-138225000D02*
X102287500Y-138225000D01*
X102287500Y-142925000D02*
X98037500Y-142925000D01*
X102787500Y-138725000D02*
X102287500Y-138225000D01*
X102787500Y-138725000D02*
X102787500Y-142425000D01*
X102787500Y-142425000D02*
X102287500Y-142925000D01*
X93237500Y-136500000D02*
G75*
G02*
X93612500Y-136125000I375000J0D01*
G01*
X93612500Y-140825000D02*
G75*
G02*
X93237500Y-140450000I0J375000D01*
G01*
X95912305Y-140825000D02*
G75*
G02*
X97537499Y-142425000I25000J-1599999D01*
G01*
X97087500Y-136125000D02*
G75*
G02*
X97462500Y-136500000I0J-375000D01*
G01*
X99187500Y-138225000D02*
G75*
G02*
X97462500Y-136500000I1J1725001D01*
G01*
%TO.C,SW8*%
X186106300Y-83300000D02*
X186106300Y-79350000D01*
X186481300Y-78975000D02*
X189956300Y-78975000D01*
X186481300Y-83675000D02*
X188781105Y-83675000D01*
X190906300Y-85775000D02*
X190406300Y-85275000D01*
X192056300Y-81075000D02*
X195156300Y-81075000D01*
X195156300Y-85775000D02*
X190906300Y-85775000D01*
X195656300Y-81575000D02*
X195156300Y-81075000D01*
X195656300Y-81575000D02*
X195656300Y-85275000D01*
X195656300Y-85275000D02*
X195156300Y-85775000D01*
X186106300Y-79350000D02*
G75*
G02*
X186481300Y-78975000I375000J0D01*
G01*
X186481300Y-83675000D02*
G75*
G02*
X186106300Y-83300000I0J375000D01*
G01*
X188781105Y-83675000D02*
G75*
G02*
X190406299Y-85275000I25000J-1599999D01*
G01*
X189956300Y-78975000D02*
G75*
G02*
X190331300Y-79350000I0J-375000D01*
G01*
X192056300Y-81075000D02*
G75*
G02*
X190331300Y-79350000I1J1725001D01*
G01*
%TO.C,SW28*%
X55137500Y-140450000D02*
X55137500Y-136500000D01*
X55512500Y-136125000D02*
X58987500Y-136125000D01*
X55512500Y-140825000D02*
X57812305Y-140825000D01*
X59937500Y-142925000D02*
X59437500Y-142425000D01*
X61087500Y-138225000D02*
X64187500Y-138225000D01*
X64187500Y-142925000D02*
X59937500Y-142925000D01*
X64687500Y-138725000D02*
X64187500Y-138225000D01*
X64687500Y-138725000D02*
X64687500Y-142425000D01*
X64687500Y-142425000D02*
X64187500Y-142925000D01*
X55137500Y-136500000D02*
G75*
G02*
X55512500Y-136125000I375000J0D01*
G01*
X55512500Y-140825000D02*
G75*
G02*
X55137500Y-140450000I0J375000D01*
G01*
X57812305Y-140825000D02*
G75*
G02*
X59437499Y-142425000I25000J-1599999D01*
G01*
X58987500Y-136125000D02*
G75*
G02*
X59362500Y-136500000I0J-375000D01*
G01*
X61087500Y-138225000D02*
G75*
G02*
X59362500Y-136500000I1J1725001D01*
G01*
%TO.C,SW45*%
X207537500Y-159500000D02*
X207537500Y-155550000D01*
X207912500Y-155175000D02*
X211387500Y-155175000D01*
X207912500Y-159875000D02*
X210212305Y-159875000D01*
X212337500Y-161975000D02*
X211837500Y-161475000D01*
X213487500Y-157275000D02*
X216587500Y-157275000D01*
X216587500Y-161975000D02*
X212337500Y-161975000D01*
X217087500Y-157775000D02*
X216587500Y-157275000D01*
X217087500Y-157775000D02*
X217087500Y-161475000D01*
X217087500Y-161475000D02*
X216587500Y-161975000D01*
X207537500Y-155550000D02*
G75*
G02*
X207912500Y-155175000I375000J0D01*
G01*
X207912500Y-159875000D02*
G75*
G02*
X207537500Y-159500000I0J375000D01*
G01*
X210212305Y-159875000D02*
G75*
G02*
X211837499Y-161475000I25000J-1599999D01*
G01*
X211387500Y-155175000D02*
G75*
G02*
X211762500Y-155550000I0J-375000D01*
G01*
X213487500Y-157275000D02*
G75*
G02*
X211762500Y-155550000I1J1725001D01*
G01*
%TO.C,SW29*%
X74187500Y-140450000D02*
X74187500Y-136500000D01*
X74562500Y-136125000D02*
X78037500Y-136125000D01*
X74562500Y-140825000D02*
X76862305Y-140825000D01*
X78987500Y-142925000D02*
X78487500Y-142425000D01*
X80137500Y-138225000D02*
X83237500Y-138225000D01*
X83237500Y-142925000D02*
X78987500Y-142925000D01*
X83737500Y-138725000D02*
X83237500Y-138225000D01*
X83737500Y-138725000D02*
X83737500Y-142425000D01*
X83737500Y-142425000D02*
X83237500Y-142925000D01*
X74187500Y-136500000D02*
G75*
G02*
X74562500Y-136125000I375000J0D01*
G01*
X74562500Y-140825000D02*
G75*
G02*
X74187500Y-140450000I0J375000D01*
G01*
X76862305Y-140825000D02*
G75*
G02*
X78487499Y-142425000I25000J-1599999D01*
G01*
X78037500Y-136125000D02*
G75*
G02*
X78412500Y-136500000I0J-375000D01*
G01*
X80137500Y-138225000D02*
G75*
G02*
X78412500Y-136500000I1J1725001D01*
G01*
%TO.C,SW33*%
X150387500Y-140450000D02*
X150387500Y-136500000D01*
X150762500Y-136125000D02*
X154237500Y-136125000D01*
X150762500Y-140825000D02*
X153062305Y-140825000D01*
X155187500Y-142925000D02*
X154687500Y-142425000D01*
X156337500Y-138225000D02*
X159437500Y-138225000D01*
X159437500Y-142925000D02*
X155187500Y-142925000D01*
X159937500Y-138725000D02*
X159437500Y-138225000D01*
X159937500Y-138725000D02*
X159937500Y-142425000D01*
X159937500Y-142425000D02*
X159437500Y-142925000D01*
X150387500Y-136500000D02*
G75*
G02*
X150762500Y-136125000I375000J0D01*
G01*
X150762500Y-140825000D02*
G75*
G02*
X150387500Y-140450000I0J375000D01*
G01*
X153062305Y-140825000D02*
G75*
G02*
X154687499Y-142425000I25000J-1599999D01*
G01*
X154237500Y-136125000D02*
G75*
G02*
X154612500Y-136500000I0J-375000D01*
G01*
X156337500Y-138225000D02*
G75*
G02*
X154612500Y-136500000I1J1725001D01*
G01*
%TO.C,SW17*%
X181343800Y-102350000D02*
X181343800Y-98400000D01*
X181718800Y-98025000D02*
X185193800Y-98025000D01*
X181718800Y-102725000D02*
X184018605Y-102725000D01*
X186143800Y-104825000D02*
X185643800Y-104325000D01*
X187293800Y-100125000D02*
X190393800Y-100125000D01*
X190393800Y-104825000D02*
X186143800Y-104825000D01*
X190893800Y-100625000D02*
X190393800Y-100125000D01*
X190893800Y-100625000D02*
X190893800Y-104325000D01*
X190893800Y-104325000D02*
X190393800Y-104825000D01*
X181343800Y-98400000D02*
G75*
G02*
X181718800Y-98025000I375000J0D01*
G01*
X181718800Y-102725000D02*
G75*
G02*
X181343800Y-102350000I0J375000D01*
G01*
X184018605Y-102725000D02*
G75*
G02*
X185643799Y-104325000I25000J-1599999D01*
G01*
X185193800Y-98025000D02*
G75*
G02*
X185568800Y-98400000I0J-375000D01*
G01*
X187293800Y-100125000D02*
G75*
G02*
X185568800Y-98400000I1J1725001D01*
G01*
%TO.C,SW37*%
X55137500Y-159500000D02*
X55137500Y-155550000D01*
X55512500Y-155175000D02*
X58987500Y-155175000D01*
X55512500Y-159875000D02*
X57812305Y-159875000D01*
X59937500Y-161975000D02*
X59437500Y-161475000D01*
X61087500Y-157275000D02*
X64187500Y-157275000D01*
X64187500Y-161975000D02*
X59937500Y-161975000D01*
X64687500Y-157775000D02*
X64187500Y-157275000D01*
X64687500Y-157775000D02*
X64687500Y-161475000D01*
X64687500Y-161475000D02*
X64187500Y-161975000D01*
X55137500Y-155550000D02*
G75*
G02*
X55512500Y-155175000I375000J0D01*
G01*
X55512500Y-159875000D02*
G75*
G02*
X55137500Y-159500000I0J375000D01*
G01*
X57812305Y-159875000D02*
G75*
G02*
X59437499Y-161475000I25000J-1599999D01*
G01*
X58987500Y-155175000D02*
G75*
G02*
X59362500Y-155550000I0J-375000D01*
G01*
X61087500Y-157275000D02*
G75*
G02*
X59362500Y-155550000I1J1725001D01*
G01*
%TO.C,SW42*%
X150387500Y-159500000D02*
X150387500Y-155550000D01*
X150762500Y-155175000D02*
X154237500Y-155175000D01*
X150762500Y-159875000D02*
X153062305Y-159875000D01*
X155187500Y-161975000D02*
X154687500Y-161475000D01*
X156337500Y-157275000D02*
X159437500Y-157275000D01*
X159437500Y-161975000D02*
X155187500Y-161975000D01*
X159937500Y-157775000D02*
X159437500Y-157275000D01*
X159937500Y-157775000D02*
X159937500Y-161475000D01*
X159937500Y-161475000D02*
X159437500Y-161975000D01*
X150387500Y-155550000D02*
G75*
G02*
X150762500Y-155175000I375000J0D01*
G01*
X150762500Y-159875000D02*
G75*
G02*
X150387500Y-159500000I0J375000D01*
G01*
X153062305Y-159875000D02*
G75*
G02*
X154687499Y-161475000I25000J-1599999D01*
G01*
X154237500Y-155175000D02*
G75*
G02*
X154612500Y-155550000I0J-375000D01*
G01*
X156337500Y-157275000D02*
G75*
G02*
X154612500Y-155550000I1J1725001D01*
G01*
%TO.C,SW14*%
X117050000Y-102350000D02*
X117050000Y-98400000D01*
X117425000Y-98025000D02*
X120900000Y-98025000D01*
X117425000Y-102725000D02*
X119724805Y-102725000D01*
X121850000Y-104825000D02*
X121350000Y-104325000D01*
X123000000Y-100125000D02*
X126100000Y-100125000D01*
X126100000Y-104825000D02*
X121850000Y-104825000D01*
X126600000Y-100625000D02*
X126100000Y-100125000D01*
X126600000Y-100625000D02*
X126600000Y-104325000D01*
X126600000Y-104325000D02*
X126100000Y-104825000D01*
X117050000Y-98400000D02*
G75*
G02*
X117425000Y-98025000I375000J0D01*
G01*
X117425000Y-102725000D02*
G75*
G02*
X117050000Y-102350000I0J375000D01*
G01*
X119724805Y-102725000D02*
G75*
G02*
X121349999Y-104325000I25000J-1599999D01*
G01*
X120900000Y-98025000D02*
G75*
G02*
X121275000Y-98400000I0J-375000D01*
G01*
X123000000Y-100125000D02*
G75*
G02*
X121275000Y-98400000I1J1725001D01*
G01*
%TO.C,SW3*%
X88475000Y-83300000D02*
X88475000Y-79350000D01*
X88850000Y-78975000D02*
X92325000Y-78975000D01*
X88850000Y-83675000D02*
X91149805Y-83675000D01*
X93275000Y-85775000D02*
X92775000Y-85275000D01*
X94425000Y-81075000D02*
X97525000Y-81075000D01*
X97525000Y-85775000D02*
X93275000Y-85775000D01*
X98025000Y-81575000D02*
X97525000Y-81075000D01*
X98025000Y-81575000D02*
X98025000Y-85275000D01*
X98025000Y-85275000D02*
X97525000Y-85775000D01*
X88475000Y-79350000D02*
G75*
G02*
X88850000Y-78975000I375000J0D01*
G01*
X88850000Y-83675000D02*
G75*
G02*
X88475000Y-83300000I0J375000D01*
G01*
X91149805Y-83675000D02*
G75*
G02*
X92774999Y-85275000I25000J-1599999D01*
G01*
X92325000Y-78975000D02*
G75*
G02*
X92700000Y-79350000I0J-375000D01*
G01*
X94425000Y-81075000D02*
G75*
G02*
X92700000Y-79350000I1J1725001D01*
G01*
%TO.C,SW19*%
X45612500Y-121400000D02*
X45612500Y-117450000D01*
X45987500Y-117075000D02*
X49462500Y-117075000D01*
X45987500Y-121775000D02*
X48287305Y-121775000D01*
X50412500Y-123875000D02*
X49912500Y-123375000D01*
X51562500Y-119175000D02*
X54662500Y-119175000D01*
X54662500Y-123875000D02*
X50412500Y-123875000D01*
X55162500Y-119675000D02*
X54662500Y-119175000D01*
X55162500Y-119675000D02*
X55162500Y-123375000D01*
X55162500Y-123375000D02*
X54662500Y-123875000D01*
X45612500Y-117450000D02*
G75*
G02*
X45987500Y-117075000I375000J0D01*
G01*
X45987500Y-121775000D02*
G75*
G02*
X45612500Y-121400000I0J375000D01*
G01*
X48287305Y-121775000D02*
G75*
G02*
X49912499Y-123375000I25000J-1599999D01*
G01*
X49462500Y-117075000D02*
G75*
G02*
X49837500Y-117450000I0J-375000D01*
G01*
X51562500Y-119175000D02*
G75*
G02*
X49837500Y-117450000I1J1725001D01*
G01*
%TO.C,SW12*%
X78950000Y-102350000D02*
X78950000Y-98400000D01*
X79325000Y-98025000D02*
X82800000Y-98025000D01*
X79325000Y-102725000D02*
X81624805Y-102725000D01*
X83750000Y-104825000D02*
X83250000Y-104325000D01*
X84900000Y-100125000D02*
X88000000Y-100125000D01*
X88000000Y-104825000D02*
X83750000Y-104825000D01*
X88500000Y-100625000D02*
X88000000Y-100125000D01*
X88500000Y-100625000D02*
X88500000Y-104325000D01*
X88500000Y-104325000D02*
X88000000Y-104825000D01*
X78950000Y-98400000D02*
G75*
G02*
X79325000Y-98025000I375000J0D01*
G01*
X79325000Y-102725000D02*
G75*
G02*
X78950000Y-102350000I0J375000D01*
G01*
X81624805Y-102725000D02*
G75*
G02*
X83249999Y-104325000I25000J-1599999D01*
G01*
X82800000Y-98025000D02*
G75*
G02*
X83175000Y-98400000I0J-375000D01*
G01*
X84900000Y-100125000D02*
G75*
G02*
X83175000Y-98400000I1J1725001D01*
G01*
%TO.C,SW1*%
X50375000Y-83300000D02*
X50375000Y-79350000D01*
X50750000Y-78975000D02*
X54225000Y-78975000D01*
X50750000Y-83675000D02*
X53049805Y-83675000D01*
X55175000Y-85775000D02*
X54675000Y-85275000D01*
X56325000Y-81075000D02*
X59425000Y-81075000D01*
X59425000Y-85775000D02*
X55175000Y-85775000D01*
X59925000Y-81575000D02*
X59425000Y-81075000D01*
X59925000Y-81575000D02*
X59925000Y-85275000D01*
X59925000Y-85275000D02*
X59425000Y-85775000D01*
X50375000Y-79350000D02*
G75*
G02*
X50750000Y-78975000I375000J0D01*
G01*
X50750000Y-83675000D02*
G75*
G02*
X50375000Y-83300000I0J375000D01*
G01*
X53049805Y-83675000D02*
G75*
G02*
X54674999Y-85275000I25000J-1599999D01*
G01*
X54225000Y-78975000D02*
G75*
G02*
X54600000Y-79350000I0J-375000D01*
G01*
X56325000Y-81075000D02*
G75*
G02*
X54600000Y-79350000I1J1725001D01*
G01*
%TO.C,SW5*%
X126575000Y-83300000D02*
X126575000Y-79350000D01*
X126950000Y-78975000D02*
X130425000Y-78975000D01*
X126950000Y-83675000D02*
X129249805Y-83675000D01*
X131375000Y-85775000D02*
X130875000Y-85275000D01*
X132525000Y-81075000D02*
X135625000Y-81075000D01*
X135625000Y-85775000D02*
X131375000Y-85775000D01*
X136125000Y-81575000D02*
X135625000Y-81075000D01*
X136125000Y-81575000D02*
X136125000Y-85275000D01*
X136125000Y-85275000D02*
X135625000Y-85775000D01*
X126575000Y-79350000D02*
G75*
G02*
X126950000Y-78975000I375000J0D01*
G01*
X126950000Y-83675000D02*
G75*
G02*
X126575000Y-83300000I0J375000D01*
G01*
X129249805Y-83675000D02*
G75*
G02*
X130874999Y-85275000I25000J-1599999D01*
G01*
X130425000Y-78975000D02*
G75*
G02*
X130800000Y-79350000I0J-375000D01*
G01*
X132525000Y-81075000D02*
G75*
G02*
X130800000Y-79350000I1J1725001D01*
G01*
%TD*%
%LPC*%
D13*
%TO.C,REG4*%
X54380000Y-127170000D03*
%TD*%
D14*
%TO.C,BAT_LEAD_SLOT1*%
X66629999Y-49000000D03*
%TD*%
D15*
%TO.C,SW18*%
X209312500Y-96575000D03*
D13*
X209812500Y-100375000D03*
D16*
X214812500Y-96575000D03*
D13*
X214812500Y-102475000D03*
D15*
X220312500Y-96575000D03*
D17*
X214812500Y-90675000D03*
D18*
X218512500Y-102475000D03*
X206112500Y-100375000D03*
D17*
X219812500Y-92775000D03*
%TD*%
D15*
%TO.C,SW10*%
X42625000Y-96575000D03*
D13*
X43125000Y-100375000D03*
D16*
X48125000Y-96575000D03*
D13*
X48125000Y-102475000D03*
D15*
X53625000Y-96575000D03*
D17*
X48125000Y-90675000D03*
D18*
X51825000Y-102475000D03*
X39425000Y-100375000D03*
D17*
X53125000Y-92775000D03*
%TD*%
D15*
%TO.C,SW16*%
X156925000Y-96575000D03*
D13*
X157425000Y-100375000D03*
D16*
X162425000Y-96575000D03*
D13*
X162425000Y-102475000D03*
D15*
X167925000Y-96575000D03*
D17*
X162425000Y-90675000D03*
D18*
X166125000Y-102475000D03*
X153725000Y-100375000D03*
D17*
X167425000Y-92775000D03*
%TD*%
D15*
%TO.C,SW40*%
X114062500Y-153725000D03*
D13*
X114562500Y-157525000D03*
D16*
X119562500Y-153725000D03*
D13*
X119562500Y-159625000D03*
D15*
X125062500Y-153725000D03*
D17*
X119562500Y-147825000D03*
D18*
X123262500Y-159625000D03*
X110862500Y-157525000D03*
D17*
X124562500Y-149925000D03*
%TD*%
D15*
%TO.C,SW32*%
X133112500Y-134675000D03*
D13*
X133612500Y-138475000D03*
D16*
X138612500Y-134675000D03*
D13*
X138612500Y-140575000D03*
D15*
X144112500Y-134675000D03*
D17*
X138612500Y-128775000D03*
D18*
X142312500Y-140575000D03*
X129912500Y-138475000D03*
D17*
X143612500Y-130875000D03*
%TD*%
D15*
%TO.C,SW13*%
X99775000Y-96575000D03*
D13*
X100275000Y-100375000D03*
D16*
X105275000Y-96575000D03*
D13*
X105275000Y-102475000D03*
D15*
X110775000Y-96575000D03*
D17*
X105275000Y-90675000D03*
D18*
X108975000Y-102475000D03*
X96575000Y-100375000D03*
D17*
X110275000Y-92775000D03*
%TD*%
D15*
%TO.C,SW4*%
X109300000Y-77525000D03*
D13*
X109800000Y-81325000D03*
D16*
X114800000Y-77525000D03*
D13*
X114800000Y-83425000D03*
D15*
X120300000Y-77525000D03*
D17*
X114800000Y-71625000D03*
D18*
X118500000Y-83425000D03*
X106100000Y-81325000D03*
D17*
X119800000Y-73725000D03*
%TD*%
D15*
%TO.C,SW26*%
X185500000Y-115625000D03*
D13*
X186000000Y-119425000D03*
D16*
X191000000Y-115625000D03*
D13*
X191000000Y-121525000D03*
D15*
X196500000Y-115625000D03*
D17*
X191000000Y-109725000D03*
D18*
X194700000Y-121525000D03*
X182300000Y-119425000D03*
D17*
X196000000Y-111825000D03*
%TD*%
D15*
%TO.C,SW25*%
X161687500Y-115625000D03*
D13*
X162187500Y-119425000D03*
D16*
X167187500Y-115625000D03*
D13*
X167187500Y-121525000D03*
D15*
X172687500Y-115625000D03*
D17*
X167187500Y-109725000D03*
D18*
X170887500Y-121525000D03*
X158487500Y-119425000D03*
D17*
X172187500Y-111825000D03*
%TD*%
D15*
%TO.C,SW7*%
X166450000Y-77525000D03*
D13*
X166950000Y-81325000D03*
D16*
X171950000Y-77525000D03*
D13*
X171950000Y-83425000D03*
D15*
X177450000Y-77525000D03*
D17*
X171950000Y-71625000D03*
D18*
X175650000Y-83425000D03*
X163250000Y-81325000D03*
D17*
X176950000Y-73725000D03*
%TD*%
D15*
%TO.C,SW2*%
X71200000Y-77525000D03*
D13*
X71700000Y-81325000D03*
D16*
X76700000Y-77525000D03*
D13*
X76700000Y-83425000D03*
D15*
X82200000Y-77525000D03*
D17*
X76700000Y-71625000D03*
D18*
X80400000Y-83425000D03*
X68000000Y-81325000D03*
D17*
X81700000Y-73725000D03*
%TD*%
D15*
%TO.C,SW34*%
X171212500Y-134675000D03*
D13*
X171712500Y-138475000D03*
D16*
X176712500Y-134675000D03*
D13*
X176712500Y-140575000D03*
D15*
X182212500Y-134675000D03*
D17*
X176712500Y-128775000D03*
D18*
X180412500Y-140575000D03*
X168012500Y-138475000D03*
D17*
X181712500Y-130875000D03*
%TD*%
D15*
%TO.C,SW31*%
X114062500Y-134675000D03*
D13*
X114562500Y-138475000D03*
D16*
X119562500Y-134675000D03*
D13*
X119562500Y-140575000D03*
D15*
X125062500Y-134675000D03*
D17*
X119562500Y-128775000D03*
D18*
X123262500Y-140575000D03*
X110862500Y-138475000D03*
D17*
X124562500Y-130875000D03*
%TD*%
D15*
%TO.C,SW38*%
X75962500Y-153725000D03*
D13*
X76462500Y-157525000D03*
D16*
X81462500Y-153725000D03*
D13*
X81462500Y-159625000D03*
D15*
X86962500Y-153725000D03*
D17*
X81462500Y-147825000D03*
D18*
X85162500Y-159625000D03*
X72762500Y-157525000D03*
D17*
X86462500Y-149925000D03*
%TD*%
D15*
%TO.C,SW41*%
X133112500Y-153725000D03*
D13*
X133612500Y-157525000D03*
D16*
X138612500Y-153725000D03*
D13*
X138612500Y-159625000D03*
D15*
X144112500Y-153725000D03*
D17*
X138612500Y-147825000D03*
D18*
X142312500Y-159625000D03*
X129912500Y-157525000D03*
D17*
X143612500Y-149925000D03*
%TD*%
D15*
%TO.C,SW22*%
X104537500Y-115625000D03*
D13*
X105037500Y-119425000D03*
D16*
X110037500Y-115625000D03*
D13*
X110037500Y-121525000D03*
D15*
X115537500Y-115625000D03*
D17*
X110037500Y-109725000D03*
D18*
X113737500Y-121525000D03*
X101337500Y-119425000D03*
D17*
X115037500Y-111825000D03*
%TD*%
D13*
%TO.C,REG6*%
X200250000Y-121930000D03*
%TD*%
%TO.C,REG1*%
X103120000Y-84530000D03*
%TD*%
D15*
%TO.C,SW21*%
X85487500Y-115625000D03*
D13*
X85987500Y-119425000D03*
D16*
X90987500Y-115625000D03*
D13*
X90987500Y-121525000D03*
D15*
X96487500Y-115625000D03*
D17*
X90987500Y-109725000D03*
D18*
X94687500Y-121525000D03*
X82287500Y-119425000D03*
D17*
X95987500Y-111825000D03*
%TD*%
D15*
%TO.C,SW24*%
X142637500Y-115625000D03*
D13*
X143137500Y-119425000D03*
D16*
X148137500Y-115625000D03*
D13*
X148137500Y-121525000D03*
D15*
X153637500Y-115625000D03*
D17*
X148137500Y-109725000D03*
D18*
X151837500Y-121525000D03*
X139437500Y-119425000D03*
D17*
X153137500Y-111825000D03*
%TD*%
D13*
%TO.C,REG3*%
X200750000Y-95530000D03*
%TD*%
D15*
%TO.C,SW15*%
X137875000Y-96575000D03*
D13*
X138375000Y-100375000D03*
D16*
X143375000Y-96575000D03*
D13*
X143375000Y-102475000D03*
D15*
X148875000Y-96575000D03*
D17*
X143375000Y-90675000D03*
D18*
X147075000Y-102475000D03*
X134675000Y-100375000D03*
D17*
X148375000Y-92775000D03*
%TD*%
D15*
%TO.C,SW39*%
X95012500Y-153725000D03*
D13*
X95512500Y-157525000D03*
D16*
X100512500Y-153725000D03*
D13*
X100512500Y-159625000D03*
D15*
X106012500Y-153725000D03*
D17*
X100512500Y-147825000D03*
D18*
X104212500Y-159625000D03*
X91812500Y-157525000D03*
D17*
X105512500Y-149925000D03*
%TD*%
D15*
%TO.C,SW6*%
X147400000Y-77525000D03*
D13*
X147900000Y-81325000D03*
D16*
X152900000Y-77525000D03*
D13*
X152900000Y-83425000D03*
D15*
X158400000Y-77525000D03*
D17*
X152900000Y-71625000D03*
D18*
X156600000Y-83425000D03*
X144200000Y-81325000D03*
D17*
X157900000Y-73725000D03*
%TD*%
D15*
%TO.C,SW43*%
X171212500Y-153725000D03*
D13*
X171712500Y-157525000D03*
D16*
X176712500Y-153725000D03*
D13*
X176712500Y-159625000D03*
D15*
X182212500Y-153725000D03*
D17*
X176712500Y-147825000D03*
D18*
X180412500Y-159625000D03*
X168012500Y-157525000D03*
D17*
X181712500Y-149925000D03*
%TD*%
D15*
%TO.C,SW9*%
X209312500Y-77525000D03*
D13*
X209812500Y-81325000D03*
D16*
X214812500Y-77525000D03*
D13*
X214812500Y-83425000D03*
D15*
X220312500Y-77525000D03*
D17*
X214812500Y-71625000D03*
D18*
X218512500Y-83425000D03*
X206112500Y-81325000D03*
D17*
X219812500Y-73725000D03*
%TD*%
D15*
%TO.C,SW23*%
X123587500Y-115625000D03*
D13*
X124087500Y-119425000D03*
D16*
X129087500Y-115625000D03*
D13*
X129087500Y-121525000D03*
D15*
X134587500Y-115625000D03*
D17*
X129087500Y-109725000D03*
D18*
X132787500Y-121525000D03*
X120387500Y-119425000D03*
D17*
X134087500Y-111825000D03*
%TD*%
D15*
%TO.C,SW36*%
X209312500Y-134675000D03*
D13*
X209812500Y-138475000D03*
D16*
X214812500Y-134675000D03*
D13*
X214812500Y-140575000D03*
D15*
X220312500Y-134675000D03*
D17*
X214812500Y-128775000D03*
D18*
X218512500Y-140575000D03*
X206112500Y-138475000D03*
D17*
X219812500Y-130875000D03*
%TD*%
D15*
%TO.C,SW27*%
X209312500Y-115625000D03*
D13*
X209812500Y-119425000D03*
D16*
X214812500Y-115625000D03*
D13*
X214812500Y-121525000D03*
D15*
X220312500Y-115625000D03*
D17*
X214812500Y-109725000D03*
D18*
X218512500Y-121525000D03*
X206112500Y-119425000D03*
D17*
X219812500Y-111825000D03*
%TD*%
D15*
%TO.C,SW35*%
X190262500Y-134675000D03*
D13*
X190762500Y-138475000D03*
D16*
X195762500Y-134675000D03*
D13*
X195762500Y-140575000D03*
D15*
X201262500Y-134675000D03*
D17*
X195762500Y-128775000D03*
D18*
X199462500Y-140575000D03*
X187062500Y-138475000D03*
D17*
X200762500Y-130875000D03*
%TD*%
D13*
%TO.C,REG9*%
X205750000Y-130320000D03*
%TD*%
D15*
%TO.C,SW11*%
X61675000Y-96575000D03*
D13*
X62175000Y-100375000D03*
D16*
X67175000Y-96575000D03*
D13*
X67175000Y-102475000D03*
D15*
X72675000Y-96575000D03*
D17*
X67175000Y-90675000D03*
D18*
X70875000Y-102475000D03*
X58475000Y-100375000D03*
D17*
X72175000Y-92775000D03*
%TD*%
D15*
%TO.C,SW44*%
X190262500Y-153725000D03*
D13*
X190762500Y-157525000D03*
D16*
X195762500Y-153725000D03*
D13*
X195762500Y-159625000D03*
D15*
X201262500Y-153725000D03*
D17*
X195762500Y-147825000D03*
D18*
X199462500Y-159625000D03*
X187062500Y-157525000D03*
D17*
X200762500Y-149925000D03*
%TD*%
D15*
%TO.C,SW20*%
X66437500Y-115625000D03*
D13*
X66937500Y-119425000D03*
D16*
X71937500Y-115625000D03*
D13*
X71937500Y-121525000D03*
D15*
X77437500Y-115625000D03*
D17*
X71937500Y-109725000D03*
D18*
X75637500Y-121525000D03*
X63237500Y-119425000D03*
D17*
X76937500Y-111825000D03*
%TD*%
D15*
%TO.C,SW30*%
X95012500Y-134675000D03*
D13*
X95512500Y-138475000D03*
D16*
X100512500Y-134675000D03*
D13*
X100512500Y-140575000D03*
D15*
X106012500Y-134675000D03*
D17*
X100512500Y-128775000D03*
D18*
X104212500Y-140575000D03*
X91812500Y-138475000D03*
D17*
X105512500Y-130875000D03*
%TD*%
D15*
%TO.C,SW8*%
X187881300Y-77525000D03*
D13*
X188381300Y-81325000D03*
D16*
X193381300Y-77525000D03*
D13*
X193381300Y-83425000D03*
D15*
X198881300Y-77525000D03*
D17*
X193381300Y-71625000D03*
D18*
X197081300Y-83425000D03*
X184681300Y-81325000D03*
D17*
X198381300Y-73725000D03*
%TD*%
D15*
%TO.C,SW28*%
X56912500Y-134675000D03*
D13*
X57412500Y-138475000D03*
D16*
X62412500Y-134675000D03*
D13*
X62412500Y-140575000D03*
D15*
X67912500Y-134675000D03*
D17*
X62412500Y-128775000D03*
D18*
X66112500Y-140575000D03*
X53712500Y-138475000D03*
D17*
X67412500Y-130875000D03*
%TD*%
D15*
%TO.C,SW45*%
X209312500Y-153725000D03*
D13*
X209812500Y-157525000D03*
D16*
X214812500Y-153725000D03*
D13*
X214812500Y-159625000D03*
D15*
X220312500Y-153725000D03*
D17*
X214812500Y-147825000D03*
D18*
X218512500Y-159625000D03*
X206112500Y-157525000D03*
D17*
X219812500Y-149925000D03*
%TD*%
D15*
%TO.C,SW29*%
X75962500Y-134675000D03*
D13*
X76462500Y-138475000D03*
D16*
X81462500Y-134675000D03*
D13*
X81462500Y-140575000D03*
D15*
X86962500Y-134675000D03*
D17*
X81462500Y-128775000D03*
D18*
X85162500Y-140575000D03*
X72762500Y-138475000D03*
D17*
X86462500Y-130875000D03*
%TD*%
D13*
%TO.C,REG8*%
X146190000Y-141820000D03*
%TD*%
%TO.C,REG2*%
X141690000Y-84030000D03*
%TD*%
D15*
%TO.C,SW33*%
X152162500Y-134675000D03*
D13*
X152662500Y-138475000D03*
D16*
X157662500Y-134675000D03*
D13*
X157662500Y-140575000D03*
D15*
X163162500Y-134675000D03*
D17*
X157662500Y-128775000D03*
D18*
X161362500Y-140575000D03*
X148962500Y-138475000D03*
D17*
X162662500Y-130875000D03*
%TD*%
D15*
%TO.C,SW17*%
X183118800Y-96575000D03*
D13*
X183618800Y-100375000D03*
D16*
X188618800Y-96575000D03*
D13*
X188618800Y-102475000D03*
D15*
X194118800Y-96575000D03*
D17*
X188618800Y-90675000D03*
D18*
X192318800Y-102475000D03*
X179918800Y-100375000D03*
D17*
X193618800Y-92775000D03*
%TD*%
D15*
%TO.C,SW37*%
X56912500Y-153725000D03*
D13*
X57412500Y-157525000D03*
D16*
X62412500Y-153725000D03*
D13*
X62412500Y-159625000D03*
D15*
X67912500Y-153725000D03*
D17*
X62412500Y-147825000D03*
D18*
X66112500Y-159625000D03*
X53712500Y-157525000D03*
D17*
X67412500Y-149925000D03*
%TD*%
D15*
%TO.C,SW42*%
X152162500Y-153725000D03*
D13*
X152662500Y-157525000D03*
D16*
X157662500Y-153725000D03*
D13*
X157662500Y-159625000D03*
D15*
X163162500Y-153725000D03*
D17*
X157662500Y-147825000D03*
D18*
X161362500Y-159625000D03*
X148962500Y-157525000D03*
D17*
X162662500Y-149925000D03*
%TD*%
D15*
%TO.C,SW14*%
X118825000Y-96575000D03*
D13*
X119325000Y-100375000D03*
D16*
X124325000Y-96575000D03*
D13*
X124325000Y-102475000D03*
D15*
X129825000Y-96575000D03*
D17*
X124325000Y-90675000D03*
D18*
X128025000Y-102475000D03*
X115625000Y-100375000D03*
D17*
X129325000Y-92775000D03*
%TD*%
D15*
%TO.C,SW3*%
X90250000Y-77525000D03*
D13*
X90750000Y-81325000D03*
D16*
X95750000Y-77525000D03*
D13*
X95750000Y-83425000D03*
D15*
X101250000Y-77525000D03*
D17*
X95750000Y-71625000D03*
D18*
X99450000Y-83425000D03*
X87050000Y-81325000D03*
D17*
X100750000Y-73725000D03*
%TD*%
D15*
%TO.C,SW19*%
X47387500Y-115625000D03*
D13*
X47887500Y-119425000D03*
D16*
X52887500Y-115625000D03*
D13*
X52887500Y-121525000D03*
D15*
X58387500Y-115625000D03*
D17*
X52887500Y-109725000D03*
D18*
X56587500Y-121525000D03*
X44187500Y-119425000D03*
D17*
X57887500Y-111825000D03*
%TD*%
D15*
%TO.C,SW12*%
X80725000Y-96575000D03*
D13*
X81225000Y-100375000D03*
D16*
X86225000Y-96575000D03*
D13*
X86225000Y-102475000D03*
D15*
X91725000Y-96575000D03*
D17*
X86225000Y-90675000D03*
D18*
X89925000Y-102475000D03*
X77525000Y-100375000D03*
D17*
X91225000Y-92775000D03*
%TD*%
D13*
%TO.C,REG7*%
X54880000Y-144570000D03*
%TD*%
D15*
%TO.C,SW1*%
X52150000Y-77525000D03*
D13*
X52650000Y-81325000D03*
D16*
X57650000Y-77525000D03*
D13*
X57650000Y-83425000D03*
D15*
X63150000Y-77525000D03*
D17*
X57650000Y-71625000D03*
D18*
X61350000Y-83425000D03*
X48950000Y-81325000D03*
D17*
X62650000Y-73725000D03*
%TD*%
D13*
%TO.C,REG5*%
X131690000Y-125930000D03*
%TD*%
D15*
%TO.C,SW5*%
X128350000Y-77525000D03*
D13*
X128850000Y-81325000D03*
D16*
X133850000Y-77525000D03*
D13*
X133850000Y-83425000D03*
D15*
X139350000Y-77525000D03*
D17*
X133850000Y-71625000D03*
D18*
X137550000Y-83425000D03*
X125150000Y-81325000D03*
D17*
X138850000Y-73725000D03*
%TD*%
D19*
%TO.C,D30*%
X102312500Y-127075000D03*
X98712500Y-127075000D03*
%TD*%
%TO.C,D29*%
X83262500Y-127075000D03*
X79662500Y-127075000D03*
%TD*%
%TO.C,D16*%
X164225000Y-88975000D03*
X160625000Y-88975000D03*
%TD*%
%TO.C,D19*%
X54687500Y-108025000D03*
X51087500Y-108025000D03*
%TD*%
%TO.C,D22*%
X111837500Y-108025000D03*
X108237500Y-108025000D03*
%TD*%
%TO.C,D17*%
X190418800Y-88975000D03*
X186818800Y-88975000D03*
%TD*%
%TO.C,D40*%
X121362500Y-146125000D03*
X117762500Y-146125000D03*
%TD*%
%TO.C,D39*%
X102312500Y-146125000D03*
X98712500Y-146125000D03*
%TD*%
%TO.C,D31*%
X121362500Y-127075000D03*
X117762500Y-127075000D03*
%TD*%
%TO.C,D23*%
X130887500Y-108025000D03*
X127287500Y-108025000D03*
%TD*%
%TO.C,D33*%
X159462500Y-127075000D03*
X155862500Y-127075000D03*
%TD*%
%TO.C,D26*%
X192800000Y-108025000D03*
X189200000Y-108025000D03*
%TD*%
%TO.C,D8*%
X195181300Y-69925000D03*
X191581300Y-69925000D03*
%TD*%
%TO.C,D2*%
X78500000Y-69925000D03*
X74900000Y-69925000D03*
%TD*%
%TO.C,D27*%
X216612500Y-108025000D03*
X213012500Y-108025000D03*
%TD*%
%TO.C,D42*%
X159462500Y-146125000D03*
X155862500Y-146125000D03*
%TD*%
%TO.C,D18*%
X216612500Y-88975000D03*
X213012500Y-88975000D03*
%TD*%
%TO.C,D45*%
X216612500Y-146125000D03*
X213012500Y-146125000D03*
%TD*%
%TO.C,D12*%
X88025000Y-88975000D03*
X84425000Y-88975000D03*
%TD*%
%TO.C,D14*%
X126125000Y-88975000D03*
X122525000Y-88975000D03*
%TD*%
%TO.C,D11*%
X68975000Y-88975000D03*
X65375000Y-88975000D03*
%TD*%
%TO.C,D9*%
X216612500Y-69925000D03*
X213012500Y-69925000D03*
%TD*%
%TO.C,D1*%
X59450000Y-69925000D03*
X55850000Y-69925000D03*
%TD*%
%TO.C,D4*%
X116600000Y-69925000D03*
X113000000Y-69925000D03*
%TD*%
%TO.C,D38*%
X83262500Y-146125000D03*
X79662500Y-146125000D03*
%TD*%
%TO.C,D20*%
X73737500Y-108025000D03*
X70137500Y-108025000D03*
%TD*%
%TO.C,D43*%
X178512500Y-146125000D03*
X174912500Y-146125000D03*
%TD*%
%TO.C,D10*%
X49925000Y-88975000D03*
X46325000Y-88975000D03*
%TD*%
%TO.C,D37*%
X64212500Y-146125000D03*
X60612500Y-146125000D03*
%TD*%
%TO.C,D3*%
X97550000Y-69925000D03*
X93950000Y-69925000D03*
%TD*%
%TO.C,D34*%
X178512500Y-127075000D03*
X174912500Y-127075000D03*
%TD*%
%TO.C,D35*%
X197562500Y-127075000D03*
X193962500Y-127075000D03*
%TD*%
%TO.C,D25*%
X168987500Y-108025000D03*
X165387500Y-108025000D03*
%TD*%
%TO.C,D36*%
X216612500Y-127075000D03*
X213012500Y-127075000D03*
%TD*%
%TO.C,D6*%
X154700000Y-69925000D03*
X151100000Y-69925000D03*
%TD*%
%TO.C,D24*%
X149937500Y-108025000D03*
X146337500Y-108025000D03*
%TD*%
%TO.C,D44*%
X197562500Y-146125000D03*
X193962500Y-146125000D03*
%TD*%
%TO.C,D15*%
X145175000Y-88975000D03*
X141575000Y-88975000D03*
%TD*%
%TO.C,D13*%
X107075000Y-88975000D03*
X103475000Y-88975000D03*
%TD*%
%TO.C,D28*%
X64212500Y-127075000D03*
X60612500Y-127075000D03*
%TD*%
%TO.C,D7*%
X173750000Y-69925000D03*
X170150000Y-69925000D03*
%TD*%
%TO.C,D32*%
X140412500Y-127075000D03*
X136812500Y-127075000D03*
%TD*%
%TO.C,D21*%
X92787500Y-108025000D03*
X89187500Y-108025000D03*
%TD*%
%TO.C,D41*%
X140412500Y-146125000D03*
X136812500Y-146125000D03*
%TD*%
%TO.C,D5*%
X135650000Y-69925000D03*
X132050000Y-69925000D03*
%TD*%
%LPD*%
M02*
