M48
; DRILL file KiCad 10.0.3 date 2026-06-05T16:35:25
; FORMAT={-:-/ absolute / metric / decimal}
; #@! TF.CreationDate,2026-06-05T16:35:25+09:00
; #@! TF.GenerationSoftware,Kicad,Pcbnew,10.0.3
; #@! TF.FileFunction,Plated,1,2,PTH
FMAT,2
METRIC
; #@! TA.AperFunction,Plated,PTH,ViaDrill
T1C0.300
; #@! TA.AperFunction,Plated,PTH,ComponentDrill
T2C0.900
; #@! TA.AperFunction,Plated,PTH,ComponentDrill
T3C0.950
; #@! TA.AperFunction,Plated,PTH,ComponentDrill
T4C1.270
%
G90
G05
T1
X70.62Y-104.312
X81.789Y-145.952
X86.225Y-86.241
X87.325Y-145.022
X87.885Y-78.061
X89.986Y-105.058
X91.111Y-56.489
X91.655Y-106.85
X92.526Y-125.968
X98.437Y-119.734
X107.464Y-100.894
X110.258Y-60.2
X110.917Y-86.625
X119.123Y-60.2
X127.77Y-105.058
X138.867Y-150.62
X145.988Y-105.096
X148.675Y-63.55
X166.446Y-105.058
X171.95Y-69.13
X175.913Y-80.875
X190.048Y-86.619
X190.924Y-99.039
X193.381Y-69.13
X195.762Y-119.234
T2
X113.8Y-47.8
X113.8Y-52.2
X119.8Y-47.8
X119.8Y-52.2
T3
X74.83Y-40.11
X74.83Y-57.89
X77.37Y-40.11
X77.37Y-57.89
X79.91Y-40.11
X79.91Y-57.89
X82.45Y-40.11
X82.45Y-57.89
X84.99Y-40.11
X84.99Y-57.89
X87.53Y-40.11
X87.53Y-57.89
X90.07Y-40.11
X90.07Y-57.89
X92.61Y-40.11
X92.61Y-57.89
X95.15Y-40.11
X95.15Y-57.89
X97.69Y-40.11
X97.69Y-57.89
X100.23Y-40.11
X100.23Y-57.89
X102.77Y-40.11
X102.77Y-57.89
T4
X48.125Y-90.675
X52.887Y-109.725
X53.125Y-92.775
X57.65Y-71.625
X57.887Y-111.825
X62.412Y-128.775
X62.412Y-147.825
X62.65Y-73.725
X67.175Y-90.675
X67.412Y-130.875
X67.412Y-149.925
X71.938Y-109.725
X72.175Y-92.775
X76.7Y-71.625
X76.938Y-111.825
X81.462Y-128.775
X81.462Y-147.825
X81.7Y-73.725
X86.225Y-90.675
X86.462Y-130.875
X86.462Y-149.925
X90.987Y-109.725
X91.225Y-92.775
X95.75Y-71.625
X95.987Y-111.825
X100.512Y-128.775
X100.512Y-147.825
X100.75Y-73.725
X105.275Y-90.675
X105.512Y-130.875
X105.512Y-149.925
X110.037Y-109.725
X110.275Y-92.775
X114.8Y-71.625
X115.037Y-111.825
X119.562Y-128.775
X119.562Y-147.825
X119.8Y-73.725
X124.325Y-90.675
X124.562Y-130.875
X124.562Y-149.925
X129.088Y-109.725
X129.325Y-92.775
X133.85Y-71.625
X134.088Y-111.825
X138.612Y-128.775
X138.612Y-147.825
X138.85Y-73.725
X143.375Y-90.675
X143.612Y-130.875
X143.612Y-149.925
X148.137Y-109.725
X148.375Y-92.775
X152.9Y-71.625
X153.137Y-111.825
X157.662Y-128.775
X157.662Y-147.825
X157.9Y-73.725
X162.425Y-90.675
X162.662Y-130.875
X162.662Y-149.925
X167.188Y-109.725
X167.425Y-92.775
X171.95Y-71.625
X172.188Y-111.825
X176.713Y-128.775
X176.713Y-147.825
X176.95Y-73.725
X181.713Y-130.875
X181.713Y-149.925
X188.619Y-90.675
X191.0Y-109.725
X193.381Y-71.625
X193.619Y-92.775
X195.762Y-128.775
X195.762Y-147.825
X196.0Y-111.825
X198.381Y-73.725
X200.762Y-130.875
X200.762Y-149.925
X214.812Y-71.625
X214.812Y-90.675
X214.812Y-109.725
X214.812Y-128.775
X214.812Y-147.825
X219.812Y-73.725
X219.812Y-92.775
X219.812Y-111.825
X219.812Y-130.875
X219.812Y-149.925
M30
