M48
; DRILL file KiCad 10.0.3 date 2026-06-06T08:41:42
; FORMAT={-:-/ absolute / metric / decimal}
; #@! TF.CreationDate,2026-06-06T08:41:42+09:00
; #@! TF.GenerationSoftware,Kicad,Pcbnew,10.0.3
; #@! TF.FileFunction,NonPlated,1,2,NPTH
FMAT,2
METRIC
; #@! TA.AperFunction,NonPlated,NPTH,ComponentDrill
T1C1.702
; #@! TA.AperFunction,NonPlated,NPTH,ComponentDrill
T2C2.200
; #@! TA.AperFunction,NonPlated,NPTH,ComponentDrill
T3C3.000
; #@! TA.AperFunction,NonPlated,NPTH,ComponentDrill
T4C3.429
%
G90
G05
T1
X42.625Y-96.575
X47.387Y-115.625
X52.15Y-77.525
X53.625Y-96.575
X56.912Y-134.675
X56.912Y-153.725
X58.387Y-115.625
X61.675Y-96.575
X63.15Y-77.525
X66.438Y-115.625
X67.912Y-134.675
X67.912Y-153.725
X71.2Y-77.525
X72.675Y-96.575
X75.962Y-134.675
X75.962Y-153.725
X77.438Y-115.625
X80.725Y-96.575
X82.2Y-77.525
X85.487Y-115.625
X86.962Y-134.675
X86.962Y-153.725
X90.25Y-77.525
X91.725Y-96.575
X95.012Y-134.675
X95.012Y-153.725
X96.487Y-115.625
X99.775Y-96.575
X101.25Y-77.525
X104.537Y-115.625
X106.012Y-134.675
X106.012Y-153.725
X109.3Y-77.525
X110.775Y-96.575
X114.062Y-134.675
X114.062Y-153.725
X115.537Y-115.625
X118.825Y-96.575
X120.3Y-77.525
X123.587Y-115.625
X125.062Y-134.675
X125.062Y-153.725
X128.35Y-77.525
X129.825Y-96.575
X133.112Y-134.675
X133.112Y-153.725
X134.588Y-115.625
X137.875Y-96.575
X139.35Y-77.525
X142.637Y-115.625
X144.112Y-134.675
X144.112Y-153.725
X147.4Y-77.525
X148.875Y-96.575
X152.162Y-134.675
X152.162Y-153.725
X153.637Y-115.625
X156.925Y-96.575
X158.4Y-77.525
X161.688Y-115.625
X163.162Y-134.675
X163.162Y-153.725
X166.45Y-77.525
X167.925Y-96.575
X171.213Y-134.675
X171.213Y-153.725
X172.688Y-115.625
X177.45Y-77.525
X182.213Y-134.675
X182.213Y-153.725
X183.119Y-96.575
X185.5Y-115.625
X187.881Y-77.525
X190.262Y-134.675
X190.262Y-153.725
X194.119Y-96.575
X196.5Y-115.625
X198.881Y-77.525
X201.262Y-134.675
X201.262Y-153.725
X209.312Y-77.525
X209.312Y-96.575
X209.312Y-115.625
X209.312Y-134.675
X209.312Y-153.725
X220.312Y-77.525
X220.312Y-96.575
X220.312Y-115.625
X220.312Y-134.675
X220.312Y-153.725
T2
X39.0Y-164.75
X100.5Y-44.0
X225.837Y-66.2
X225.837Y-107.75
X225.837Y-164.75
T3
X43.125Y-100.375
X47.887Y-119.425
X48.125Y-102.475
X52.65Y-81.325
X52.887Y-121.525
X57.412Y-138.475
X57.412Y-157.525
X57.65Y-83.425
X62.175Y-100.375
X62.412Y-140.575
X62.412Y-159.625
X66.938Y-119.425
X67.175Y-102.475
X71.7Y-81.325
X71.938Y-121.525
X76.462Y-138.475
X76.462Y-157.525
X76.7Y-83.425
X81.225Y-100.375
X81.462Y-140.575
X81.462Y-159.625
X85.987Y-119.425
X86.225Y-102.475
X90.75Y-81.325
X90.987Y-121.525
X95.512Y-138.475
X95.512Y-157.525
X95.75Y-83.425
X100.275Y-100.375
X100.512Y-140.575
X100.512Y-159.625
X105.037Y-119.425
X105.275Y-102.475
X109.8Y-81.325
X110.037Y-121.525
X114.562Y-138.475
X114.562Y-157.525
X114.8Y-83.425
X119.325Y-100.375
X119.562Y-140.575
X119.562Y-159.625
X124.087Y-119.425
X124.325Y-102.475
X128.85Y-81.325
X129.088Y-121.525
X133.612Y-138.475
X133.612Y-157.525
X133.85Y-83.425
X138.375Y-100.375
X138.612Y-140.575
X138.612Y-159.625
X143.137Y-119.425
X143.375Y-102.475
X147.9Y-81.325
X148.137Y-121.525
X152.662Y-138.475
X152.662Y-157.525
X152.9Y-83.425
X157.425Y-100.375
X157.662Y-140.575
X157.662Y-159.625
X162.188Y-119.425
X162.425Y-102.475
X166.95Y-81.325
X167.188Y-121.525
X171.713Y-138.475
X171.713Y-157.525
X171.95Y-83.425
X176.713Y-140.575
X176.713Y-159.625
X183.619Y-100.375
X186.0Y-119.425
X188.381Y-81.325
X188.619Y-102.475
X190.762Y-138.475
X190.762Y-157.525
X191.0Y-121.525
X193.381Y-83.425
X195.762Y-140.575
X195.762Y-159.625
X209.812Y-81.325
X209.812Y-100.375
X209.812Y-119.425
X209.812Y-138.475
X209.812Y-157.525
X214.812Y-83.425
X214.812Y-102.475
X214.812Y-121.525
X214.812Y-140.575
X214.812Y-159.625
T4
X48.125Y-96.575
X52.887Y-115.625
X57.65Y-77.525
X62.412Y-134.675
X62.412Y-153.725
X67.175Y-96.575
X71.938Y-115.625
X76.7Y-77.525
X81.462Y-134.675
X81.462Y-153.725
X86.225Y-96.575
X90.987Y-115.625
X95.75Y-77.525
X100.512Y-134.675
X100.512Y-153.725
X105.275Y-96.575
X110.037Y-115.625
X114.8Y-77.525
X119.562Y-134.675
X119.562Y-153.725
X124.325Y-96.575
X129.088Y-115.625
X133.85Y-77.525
X138.612Y-134.675
X138.612Y-153.725
X143.375Y-96.575
X148.137Y-115.625
X152.9Y-77.525
X157.662Y-134.675
X157.662Y-153.725
X162.425Y-96.575
X167.188Y-115.625
X171.95Y-77.525
X176.713Y-134.675
X176.713Y-153.725
X188.619Y-96.575
X191.0Y-115.625
X193.381Y-77.525
X195.762Y-134.675
X195.762Y-153.725
X214.812Y-77.525
X214.812Y-96.575
X214.812Y-115.625
X214.812Y-134.675
X214.812Y-153.725
M30
