%TF.GenerationSoftware,KiCad,Pcbnew,10.0.3*%
%TF.CreationDate,2026-06-08T15:47:45+09:00*%
%TF.ProjectId,kc2_left,6b63325f-6c65-4667-942e-6b696361645f,draft-1*%
%TF.SameCoordinates,Original*%
%TF.FileFunction,Legend,Bot*%
%TF.FilePolarity,Positive*%
%FSLAX46Y46*%
G04 Gerber Fmt 4.6, Leading zero omitted, Abs format (unit mm)*
G04 Created by KiCad (PCBNEW 10.0.3) date 2026-06-08 15:47:45*
%MOMM*%
%LPD*%
G01*
G04 APERTURE LIST*
G04 Aperture macros list*
%AMRoundRect*
0 Rectangle with rounded corners*
0 $1 Rounding radius*
0 $2 $3 $4 $5 $6 $7 $8 $9 X,Y pos of 4 corners*
0 Add a 4 corners polygon primitive as box body*
4,1,4,$2,$3,$4,$5,$6,$7,$8,$9,$2,$3,0*
0 Add four circle primitives for the rounded corners*
1,1,$1+$1,$2,$3*
1,1,$1+$1,$4,$5*
1,1,$1+$1,$6,$7*
1,1,$1+$1,$8,$9*
0 Add four rect primitives between the rounded corners*
20,1,$1+$1,$2,$3,$4,$5,0*
20,1,$1+$1,$4,$5,$6,$7,0*
20,1,$1+$1,$6,$7,$8,$9,0*
20,1,$1+$1,$8,$9,$2,$3,0*%
G04 Aperture macros list end*
%ADD10C,0.100000*%
%ADD11C,0.160000*%
%ADD12C,0.150000*%
%ADD13C,1.701800*%
%ADD14C,3.000000*%
%ADD15C,3.429000*%
%ADD16C,2.000000*%
%ADD17RoundRect,0.520000X-0.780000X-0.780000X0.780000X-0.780000X0.780000X0.780000X-0.780000X0.780000X0*%
%ADD18O,3.600000X2.200000*%
%ADD19RoundRect,0.252000X0.448000X0.523000X-0.448000X0.523000X-0.448000X-0.523000X0.448000X-0.523000X0*%
G04 APERTURE END LIST*
D10*
X64729522Y-149084895D02*
X64729522Y-148284895D01*
X64729522Y-148665847D02*
X64272379Y-148665847D01*
X64272379Y-149084895D02*
X64272379Y-148284895D01*
X63967618Y-148284895D02*
X63434284Y-148284895D01*
X63434284Y-148284895D02*
X63777142Y-149084895D01*
X66239522Y-99794895D02*
X66239522Y-98994895D01*
X66239522Y-99375847D02*
X65782379Y-99375847D01*
X65782379Y-99794895D02*
X65782379Y-98994895D01*
X64982380Y-99794895D02*
X65439523Y-99794895D01*
X65210951Y-99794895D02*
X65210951Y-98994895D01*
X65210951Y-98994895D02*
X65287142Y-99109180D01*
X65287142Y-99109180D02*
X65363332Y-99185371D01*
X65363332Y-99185371D02*
X65439523Y-99223466D01*
X69739523Y-120694895D02*
X69739523Y-119894895D01*
X69739523Y-120275847D02*
X69282380Y-120275847D01*
X69282380Y-120694895D02*
X69282380Y-119894895D01*
X68558571Y-120161561D02*
X68558571Y-120694895D01*
X68749047Y-119856800D02*
X68939524Y-120428228D01*
X68939524Y-120428228D02*
X68444285Y-120428228D01*
X112419523Y-120694895D02*
X112419523Y-119894895D01*
X112419523Y-120275847D02*
X111962380Y-120275847D01*
X111962380Y-120694895D02*
X111962380Y-119894895D01*
X111200476Y-119894895D02*
X111581428Y-119894895D01*
X111581428Y-119894895D02*
X111619524Y-120275847D01*
X111619524Y-120275847D02*
X111581428Y-120237752D01*
X111581428Y-120237752D02*
X111505238Y-120199657D01*
X111505238Y-120199657D02*
X111314762Y-120199657D01*
X111314762Y-120199657D02*
X111238571Y-120237752D01*
X111238571Y-120237752D02*
X111200476Y-120275847D01*
X111200476Y-120275847D02*
X111162381Y-120352038D01*
X111162381Y-120352038D02*
X111162381Y-120542514D01*
X111162381Y-120542514D02*
X111200476Y-120618704D01*
X111200476Y-120618704D02*
X111238571Y-120656800D01*
X111238571Y-120656800D02*
X111314762Y-120694895D01*
X111314762Y-120694895D02*
X111505238Y-120694895D01*
X111505238Y-120694895D02*
X111581428Y-120656800D01*
X111581428Y-120656800D02*
X111619524Y-120618704D01*
X112419523Y-149084895D02*
X112419523Y-148284895D01*
X112419523Y-148665847D02*
X111962380Y-148665847D01*
X111962380Y-149084895D02*
X111962380Y-148284895D01*
X111467143Y-148627752D02*
X111543333Y-148589657D01*
X111543333Y-148589657D02*
X111581428Y-148551561D01*
X111581428Y-148551561D02*
X111619524Y-148475371D01*
X111619524Y-148475371D02*
X111619524Y-148437276D01*
X111619524Y-148437276D02*
X111581428Y-148361085D01*
X111581428Y-148361085D02*
X111543333Y-148322990D01*
X111543333Y-148322990D02*
X111467143Y-148284895D01*
X111467143Y-148284895D02*
X111314762Y-148284895D01*
X111314762Y-148284895D02*
X111238571Y-148322990D01*
X111238571Y-148322990D02*
X111200476Y-148361085D01*
X111200476Y-148361085D02*
X111162381Y-148437276D01*
X111162381Y-148437276D02*
X111162381Y-148475371D01*
X111162381Y-148475371D02*
X111200476Y-148551561D01*
X111200476Y-148551561D02*
X111238571Y-148589657D01*
X111238571Y-148589657D02*
X111314762Y-148627752D01*
X111314762Y-148627752D02*
X111467143Y-148627752D01*
X111467143Y-148627752D02*
X111543333Y-148665847D01*
X111543333Y-148665847D02*
X111581428Y-148703942D01*
X111581428Y-148703942D02*
X111619524Y-148780133D01*
X111619524Y-148780133D02*
X111619524Y-148932514D01*
X111619524Y-148932514D02*
X111581428Y-149008704D01*
X111581428Y-149008704D02*
X111543333Y-149046800D01*
X111543333Y-149046800D02*
X111467143Y-149084895D01*
X111467143Y-149084895D02*
X111314762Y-149084895D01*
X111314762Y-149084895D02*
X111238571Y-149046800D01*
X111238571Y-149046800D02*
X111200476Y-149008704D01*
X111200476Y-149008704D02*
X111162381Y-148932514D01*
X111162381Y-148932514D02*
X111162381Y-148780133D01*
X111162381Y-148780133D02*
X111200476Y-148703942D01*
X111200476Y-148703942D02*
X111238571Y-148665847D01*
X111238571Y-148665847D02*
X111314762Y-148627752D01*
X127919523Y-88794895D02*
X127919523Y-87994895D01*
X127919523Y-88375847D02*
X127462380Y-88375847D01*
X127462380Y-88794895D02*
X127462380Y-87994895D01*
X127119524Y-88071085D02*
X127081428Y-88032990D01*
X127081428Y-88032990D02*
X127005238Y-87994895D01*
X127005238Y-87994895D02*
X126814762Y-87994895D01*
X126814762Y-87994895D02*
X126738571Y-88032990D01*
X126738571Y-88032990D02*
X126700476Y-88071085D01*
X126700476Y-88071085D02*
X126662381Y-88147276D01*
X126662381Y-88147276D02*
X126662381Y-88223466D01*
X126662381Y-88223466D02*
X126700476Y-88337752D01*
X126700476Y-88337752D02*
X127157619Y-88794895D01*
X127157619Y-88794895D02*
X126662381Y-88794895D01*
X140609523Y-140084895D02*
X140609523Y-139284895D01*
X140609523Y-139665847D02*
X140152380Y-139665847D01*
X140152380Y-140084895D02*
X140152380Y-139284895D01*
X139733333Y-140084895D02*
X139580952Y-140084895D01*
X139580952Y-140084895D02*
X139504762Y-140046800D01*
X139504762Y-140046800D02*
X139466666Y-140008704D01*
X139466666Y-140008704D02*
X139390476Y-139894419D01*
X139390476Y-139894419D02*
X139352381Y-139742038D01*
X139352381Y-139742038D02*
X139352381Y-139437276D01*
X139352381Y-139437276D02*
X139390476Y-139361085D01*
X139390476Y-139361085D02*
X139428571Y-139322990D01*
X139428571Y-139322990D02*
X139504762Y-139284895D01*
X139504762Y-139284895D02*
X139657143Y-139284895D01*
X139657143Y-139284895D02*
X139733333Y-139322990D01*
X139733333Y-139322990D02*
X139771428Y-139361085D01*
X139771428Y-139361085D02*
X139809524Y-139437276D01*
X139809524Y-139437276D02*
X139809524Y-139627752D01*
X139809524Y-139627752D02*
X139771428Y-139703942D01*
X139771428Y-139703942D02*
X139733333Y-139742038D01*
X139733333Y-139742038D02*
X139657143Y-139780133D01*
X139657143Y-139780133D02*
X139504762Y-139780133D01*
X139504762Y-139780133D02*
X139428571Y-139742038D01*
X139428571Y-139742038D02*
X139390476Y-139703942D01*
X139390476Y-139703942D02*
X139352381Y-139627752D01*
X148609523Y-88294895D02*
X148609523Y-87494895D01*
X148609523Y-87875847D02*
X148152380Y-87875847D01*
X148152380Y-88294895D02*
X148152380Y-87494895D01*
X147847619Y-87494895D02*
X147352381Y-87494895D01*
X147352381Y-87494895D02*
X147619047Y-87799657D01*
X147619047Y-87799657D02*
X147504762Y-87799657D01*
X147504762Y-87799657D02*
X147428571Y-87837752D01*
X147428571Y-87837752D02*
X147390476Y-87875847D01*
X147390476Y-87875847D02*
X147352381Y-87952038D01*
X147352381Y-87952038D02*
X147352381Y-88142514D01*
X147352381Y-88142514D02*
X147390476Y-88218704D01*
X147390476Y-88218704D02*
X147428571Y-88256800D01*
X147428571Y-88256800D02*
X147504762Y-88294895D01*
X147504762Y-88294895D02*
X147733333Y-88294895D01*
X147733333Y-88294895D02*
X147809524Y-88256800D01*
X147809524Y-88256800D02*
X147847619Y-88218704D01*
X150109523Y-120694895D02*
X150109523Y-119894895D01*
X150109523Y-120275847D02*
X149652380Y-120275847D01*
X149652380Y-120694895D02*
X149652380Y-119894895D01*
X148928571Y-119894895D02*
X149080952Y-119894895D01*
X149080952Y-119894895D02*
X149157143Y-119932990D01*
X149157143Y-119932990D02*
X149195238Y-119971085D01*
X149195238Y-119971085D02*
X149271428Y-120085371D01*
X149271428Y-120085371D02*
X149309524Y-120237752D01*
X149309524Y-120237752D02*
X149309524Y-120542514D01*
X149309524Y-120542514D02*
X149271428Y-120618704D01*
X149271428Y-120618704D02*
X149233333Y-120656800D01*
X149233333Y-120656800D02*
X149157143Y-120694895D01*
X149157143Y-120694895D02*
X149004762Y-120694895D01*
X149004762Y-120694895D02*
X148928571Y-120656800D01*
X148928571Y-120656800D02*
X148890476Y-120618704D01*
X148890476Y-120618704D02*
X148852381Y-120542514D01*
X148852381Y-120542514D02*
X148852381Y-120352038D01*
X148852381Y-120352038D02*
X148890476Y-120275847D01*
X148890476Y-120275847D02*
X148928571Y-120237752D01*
X148928571Y-120237752D02*
X149004762Y-120199657D01*
X149004762Y-120199657D02*
X149157143Y-120199657D01*
X149157143Y-120199657D02*
X149233333Y-120237752D01*
X149233333Y-120237752D02*
X149271428Y-120275847D01*
X149271428Y-120275847D02*
X149309524Y-120352038D01*
D11*
X113422916Y-163639346D02*
X113422916Y-162239346D01*
X112622916Y-163639346D02*
X113222916Y-162839346D01*
X112622916Y-162239346D02*
X113422916Y-163039346D01*
X111222916Y-163506013D02*
X111289583Y-163572680D01*
X111289583Y-163572680D02*
X111489583Y-163639346D01*
X111489583Y-163639346D02*
X111622916Y-163639346D01*
X111622916Y-163639346D02*
X111822916Y-163572680D01*
X111822916Y-163572680D02*
X111956250Y-163439346D01*
X111956250Y-163439346D02*
X112022916Y-163306013D01*
X112022916Y-163306013D02*
X112089583Y-163039346D01*
X112089583Y-163039346D02*
X112089583Y-162839346D01*
X112089583Y-162839346D02*
X112022916Y-162572680D01*
X112022916Y-162572680D02*
X111956250Y-162439346D01*
X111956250Y-162439346D02*
X111822916Y-162306013D01*
X111822916Y-162306013D02*
X111622916Y-162239346D01*
X111622916Y-162239346D02*
X111489583Y-162239346D01*
X111489583Y-162239346D02*
X111289583Y-162306013D01*
X111289583Y-162306013D02*
X111222916Y-162372680D01*
X110689583Y-162372680D02*
X110622916Y-162306013D01*
X110622916Y-162306013D02*
X110489583Y-162239346D01*
X110489583Y-162239346D02*
X110156250Y-162239346D01*
X110156250Y-162239346D02*
X110022916Y-162306013D01*
X110022916Y-162306013D02*
X109956250Y-162372680D01*
X109956250Y-162372680D02*
X109889583Y-162506013D01*
X109889583Y-162506013D02*
X109889583Y-162639346D01*
X109889583Y-162639346D02*
X109956250Y-162839346D01*
X109956250Y-162839346D02*
X110756250Y-163639346D01*
X110756250Y-163639346D02*
X109889583Y-163639346D01*
X108356250Y-162706013D02*
X108022916Y-163639346D01*
X108022916Y-163639346D02*
X107689583Y-162706013D01*
X106422916Y-163639346D02*
X107222916Y-163639346D01*
X106822916Y-163639346D02*
X106822916Y-162239346D01*
X106822916Y-162239346D02*
X106956249Y-162439346D01*
X106956249Y-162439346D02*
X107089583Y-162572680D01*
X107089583Y-162572680D02*
X107222916Y-162639346D01*
X105822916Y-163506013D02*
X105756250Y-163572680D01*
X105756250Y-163572680D02*
X105822916Y-163639346D01*
X105822916Y-163639346D02*
X105889583Y-163572680D01*
X105889583Y-163572680D02*
X105822916Y-163506013D01*
X105822916Y-163506013D02*
X105822916Y-163639346D01*
X104889583Y-162239346D02*
X104756249Y-162239346D01*
X104756249Y-162239346D02*
X104622916Y-162306013D01*
X104622916Y-162306013D02*
X104556249Y-162372680D01*
X104556249Y-162372680D02*
X104489583Y-162506013D01*
X104489583Y-162506013D02*
X104422916Y-162772680D01*
X104422916Y-162772680D02*
X104422916Y-163106013D01*
X104422916Y-163106013D02*
X104489583Y-163372680D01*
X104489583Y-163372680D02*
X104556249Y-163506013D01*
X104556249Y-163506013D02*
X104622916Y-163572680D01*
X104622916Y-163572680D02*
X104756249Y-163639346D01*
X104756249Y-163639346D02*
X104889583Y-163639346D01*
X104889583Y-163639346D02*
X105022916Y-163572680D01*
X105022916Y-163572680D02*
X105089583Y-163506013D01*
X105089583Y-163506013D02*
X105156249Y-163372680D01*
X105156249Y-163372680D02*
X105222916Y-163106013D01*
X105222916Y-163106013D02*
X105222916Y-162772680D01*
X105222916Y-162772680D02*
X105156249Y-162506013D01*
X105156249Y-162506013D02*
X105089583Y-162372680D01*
X105089583Y-162372680D02*
X105022916Y-162306013D01*
X105022916Y-162306013D02*
X104889583Y-162239346D01*
X102089583Y-163639346D02*
X102756249Y-163639346D01*
X102756249Y-163639346D02*
X102756249Y-162239346D01*
D12*
X102126785Y-106079819D02*
X102126785Y-105079819D01*
X102126785Y-105079819D02*
X101888690Y-105079819D01*
X101888690Y-105079819D02*
X101745833Y-105127438D01*
X101745833Y-105127438D02*
X101650595Y-105222676D01*
X101650595Y-105222676D02*
X101602976Y-105317914D01*
X101602976Y-105317914D02*
X101555357Y-105508390D01*
X101555357Y-105508390D02*
X101555357Y-105651247D01*
X101555357Y-105651247D02*
X101602976Y-105841723D01*
X101602976Y-105841723D02*
X101650595Y-105936961D01*
X101650595Y-105936961D02*
X101745833Y-106032200D01*
X101745833Y-106032200D02*
X101888690Y-106079819D01*
X101888690Y-106079819D02*
X102126785Y-106079819D01*
X100602976Y-106079819D02*
X101174404Y-106079819D01*
X100888690Y-106079819D02*
X100888690Y-105079819D01*
X100888690Y-105079819D02*
X100983928Y-105222676D01*
X100983928Y-105222676D02*
X101079166Y-105317914D01*
X101079166Y-105317914D02*
X101174404Y-105365533D01*
X99745833Y-105079819D02*
X99936309Y-105079819D01*
X99936309Y-105079819D02*
X100031547Y-105127438D01*
X100031547Y-105127438D02*
X100079166Y-105175057D01*
X100079166Y-105175057D02*
X100174404Y-105317914D01*
X100174404Y-105317914D02*
X100222023Y-105508390D01*
X100222023Y-105508390D02*
X100222023Y-105889342D01*
X100222023Y-105889342D02*
X100174404Y-105984580D01*
X100174404Y-105984580D02*
X100126785Y-106032200D01*
X100126785Y-106032200D02*
X100031547Y-106079819D01*
X100031547Y-106079819D02*
X99841071Y-106079819D01*
X99841071Y-106079819D02*
X99745833Y-106032200D01*
X99745833Y-106032200D02*
X99698214Y-105984580D01*
X99698214Y-105984580D02*
X99650595Y-105889342D01*
X99650595Y-105889342D02*
X99650595Y-105651247D01*
X99650595Y-105651247D02*
X99698214Y-105556009D01*
X99698214Y-105556009D02*
X99745833Y-105508390D01*
X99745833Y-105508390D02*
X99841071Y-105460771D01*
X99841071Y-105460771D02*
X100031547Y-105460771D01*
X100031547Y-105460771D02*
X100126785Y-105508390D01*
X100126785Y-105508390D02*
X100174404Y-105556009D01*
X100174404Y-105556009D02*
X100222023Y-105651247D01*
X99745585Y-144179819D02*
X99745585Y-143179819D01*
X99745585Y-143179819D02*
X99507490Y-143179819D01*
X99507490Y-143179819D02*
X99364633Y-143227438D01*
X99364633Y-143227438D02*
X99269395Y-143322676D01*
X99269395Y-143322676D02*
X99221776Y-143417914D01*
X99221776Y-143417914D02*
X99174157Y-143608390D01*
X99174157Y-143608390D02*
X99174157Y-143751247D01*
X99174157Y-143751247D02*
X99221776Y-143941723D01*
X99221776Y-143941723D02*
X99269395Y-144036961D01*
X99269395Y-144036961D02*
X99364633Y-144132200D01*
X99364633Y-144132200D02*
X99507490Y-144179819D01*
X99507490Y-144179819D02*
X99745585Y-144179819D01*
X98793204Y-143275057D02*
X98745585Y-143227438D01*
X98745585Y-143227438D02*
X98650347Y-143179819D01*
X98650347Y-143179819D02*
X98412252Y-143179819D01*
X98412252Y-143179819D02*
X98317014Y-143227438D01*
X98317014Y-143227438D02*
X98269395Y-143275057D01*
X98269395Y-143275057D02*
X98221776Y-143370295D01*
X98221776Y-143370295D02*
X98221776Y-143465533D01*
X98221776Y-143465533D02*
X98269395Y-143608390D01*
X98269395Y-143608390D02*
X98840823Y-144179819D01*
X98840823Y-144179819D02*
X98221776Y-144179819D01*
X97745585Y-144179819D02*
X97555109Y-144179819D01*
X97555109Y-144179819D02*
X97459871Y-144132200D01*
X97459871Y-144132200D02*
X97412252Y-144084580D01*
X97412252Y-144084580D02*
X97317014Y-143941723D01*
X97317014Y-143941723D02*
X97269395Y-143751247D01*
X97269395Y-143751247D02*
X97269395Y-143370295D01*
X97269395Y-143370295D02*
X97317014Y-143275057D01*
X97317014Y-143275057D02*
X97364633Y-143227438D01*
X97364633Y-143227438D02*
X97459871Y-143179819D01*
X97459871Y-143179819D02*
X97650347Y-143179819D01*
X97650347Y-143179819D02*
X97745585Y-143227438D01*
X97745585Y-143227438D02*
X97793204Y-143275057D01*
X97793204Y-143275057D02*
X97840823Y-143370295D01*
X97840823Y-143370295D02*
X97840823Y-143608390D01*
X97840823Y-143608390D02*
X97793204Y-143703628D01*
X97793204Y-143703628D02*
X97745585Y-143751247D01*
X97745585Y-143751247D02*
X97650347Y-143798866D01*
X97650347Y-143798866D02*
X97459871Y-143798866D01*
X97459871Y-143798866D02*
X97364633Y-143751247D01*
X97364633Y-143751247D02*
X97317014Y-143703628D01*
X97317014Y-143703628D02*
X97269395Y-143608390D01*
X125463094Y-67979819D02*
X125463094Y-66979819D01*
X125463094Y-66979819D02*
X125224999Y-66979819D01*
X125224999Y-66979819D02*
X125082142Y-67027438D01*
X125082142Y-67027438D02*
X124986904Y-67122676D01*
X124986904Y-67122676D02*
X124939285Y-67217914D01*
X124939285Y-67217914D02*
X124891666Y-67408390D01*
X124891666Y-67408390D02*
X124891666Y-67551247D01*
X124891666Y-67551247D02*
X124939285Y-67741723D01*
X124939285Y-67741723D02*
X124986904Y-67836961D01*
X124986904Y-67836961D02*
X125082142Y-67932200D01*
X125082142Y-67932200D02*
X125224999Y-67979819D01*
X125224999Y-67979819D02*
X125463094Y-67979819D01*
X123986904Y-66979819D02*
X124463094Y-66979819D01*
X124463094Y-66979819D02*
X124510713Y-67456009D01*
X124510713Y-67456009D02*
X124463094Y-67408390D01*
X124463094Y-67408390D02*
X124367856Y-67360771D01*
X124367856Y-67360771D02*
X124129761Y-67360771D01*
X124129761Y-67360771D02*
X124034523Y-67408390D01*
X124034523Y-67408390D02*
X123986904Y-67456009D01*
X123986904Y-67456009D02*
X123939285Y-67551247D01*
X123939285Y-67551247D02*
X123939285Y-67789342D01*
X123939285Y-67789342D02*
X123986904Y-67884580D01*
X123986904Y-67884580D02*
X124034523Y-67932200D01*
X124034523Y-67932200D02*
X124129761Y-67979819D01*
X124129761Y-67979819D02*
X124367856Y-67979819D01*
X124367856Y-67979819D02*
X124463094Y-67932200D01*
X124463094Y-67932200D02*
X124510713Y-67884580D01*
X52120585Y-125129819D02*
X52120585Y-124129819D01*
X52120585Y-124129819D02*
X51882490Y-124129819D01*
X51882490Y-124129819D02*
X51739633Y-124177438D01*
X51739633Y-124177438D02*
X51644395Y-124272676D01*
X51644395Y-124272676D02*
X51596776Y-124367914D01*
X51596776Y-124367914D02*
X51549157Y-124558390D01*
X51549157Y-124558390D02*
X51549157Y-124701247D01*
X51549157Y-124701247D02*
X51596776Y-124891723D01*
X51596776Y-124891723D02*
X51644395Y-124986961D01*
X51644395Y-124986961D02*
X51739633Y-125082200D01*
X51739633Y-125082200D02*
X51882490Y-125129819D01*
X51882490Y-125129819D02*
X52120585Y-125129819D01*
X51168204Y-124225057D02*
X51120585Y-124177438D01*
X51120585Y-124177438D02*
X51025347Y-124129819D01*
X51025347Y-124129819D02*
X50787252Y-124129819D01*
X50787252Y-124129819D02*
X50692014Y-124177438D01*
X50692014Y-124177438D02*
X50644395Y-124225057D01*
X50644395Y-124225057D02*
X50596776Y-124320295D01*
X50596776Y-124320295D02*
X50596776Y-124415533D01*
X50596776Y-124415533D02*
X50644395Y-124558390D01*
X50644395Y-124558390D02*
X51215823Y-125129819D01*
X51215823Y-125129819D02*
X50596776Y-125129819D01*
X49977728Y-124129819D02*
X49882490Y-124129819D01*
X49882490Y-124129819D02*
X49787252Y-124177438D01*
X49787252Y-124177438D02*
X49739633Y-124225057D01*
X49739633Y-124225057D02*
X49692014Y-124320295D01*
X49692014Y-124320295D02*
X49644395Y-124510771D01*
X49644395Y-124510771D02*
X49644395Y-124748866D01*
X49644395Y-124748866D02*
X49692014Y-124939342D01*
X49692014Y-124939342D02*
X49739633Y-125034580D01*
X49739633Y-125034580D02*
X49787252Y-125082200D01*
X49787252Y-125082200D02*
X49882490Y-125129819D01*
X49882490Y-125129819D02*
X49977728Y-125129819D01*
X49977728Y-125129819D02*
X50072966Y-125082200D01*
X50072966Y-125082200D02*
X50120585Y-125034580D01*
X50120585Y-125034580D02*
X50168204Y-124939342D01*
X50168204Y-124939342D02*
X50215823Y-124748866D01*
X50215823Y-124748866D02*
X50215823Y-124510771D01*
X50215823Y-124510771D02*
X50168204Y-124320295D01*
X50168204Y-124320295D02*
X50120585Y-124225057D01*
X50120585Y-124225057D02*
X50072966Y-124177438D01*
X50072966Y-124177438D02*
X49977728Y-124129819D01*
X135464285Y-87029819D02*
X135464285Y-86029819D01*
X135464285Y-86029819D02*
X135226190Y-86029819D01*
X135226190Y-86029819D02*
X135083333Y-86077438D01*
X135083333Y-86077438D02*
X134988095Y-86172676D01*
X134988095Y-86172676D02*
X134940476Y-86267914D01*
X134940476Y-86267914D02*
X134892857Y-86458390D01*
X134892857Y-86458390D02*
X134892857Y-86601247D01*
X134892857Y-86601247D02*
X134940476Y-86791723D01*
X134940476Y-86791723D02*
X134988095Y-86886961D01*
X134988095Y-86886961D02*
X135083333Y-86982200D01*
X135083333Y-86982200D02*
X135226190Y-87029819D01*
X135226190Y-87029819D02*
X135464285Y-87029819D01*
X133940476Y-87029819D02*
X134511904Y-87029819D01*
X134226190Y-87029819D02*
X134226190Y-86029819D01*
X134226190Y-86029819D02*
X134321428Y-86172676D01*
X134321428Y-86172676D02*
X134416666Y-86267914D01*
X134416666Y-86267914D02*
X134511904Y-86315533D01*
X133559523Y-86125057D02*
X133511904Y-86077438D01*
X133511904Y-86077438D02*
X133416666Y-86029819D01*
X133416666Y-86029819D02*
X133178571Y-86029819D01*
X133178571Y-86029819D02*
X133083333Y-86077438D01*
X133083333Y-86077438D02*
X133035714Y-86125057D01*
X133035714Y-86125057D02*
X132988095Y-86220295D01*
X132988095Y-86220295D02*
X132988095Y-86315533D01*
X132988095Y-86315533D02*
X133035714Y-86458390D01*
X133035714Y-86458390D02*
X133607142Y-87029819D01*
X133607142Y-87029819D02*
X132988095Y-87029819D01*
X116414285Y-87029819D02*
X116414285Y-86029819D01*
X116414285Y-86029819D02*
X116176190Y-86029819D01*
X116176190Y-86029819D02*
X116033333Y-86077438D01*
X116033333Y-86077438D02*
X115938095Y-86172676D01*
X115938095Y-86172676D02*
X115890476Y-86267914D01*
X115890476Y-86267914D02*
X115842857Y-86458390D01*
X115842857Y-86458390D02*
X115842857Y-86601247D01*
X115842857Y-86601247D02*
X115890476Y-86791723D01*
X115890476Y-86791723D02*
X115938095Y-86886961D01*
X115938095Y-86886961D02*
X116033333Y-86982200D01*
X116033333Y-86982200D02*
X116176190Y-87029819D01*
X116176190Y-87029819D02*
X116414285Y-87029819D01*
X114890476Y-87029819D02*
X115461904Y-87029819D01*
X115176190Y-87029819D02*
X115176190Y-86029819D01*
X115176190Y-86029819D02*
X115271428Y-86172676D01*
X115271428Y-86172676D02*
X115366666Y-86267914D01*
X115366666Y-86267914D02*
X115461904Y-86315533D01*
X113938095Y-87029819D02*
X114509523Y-87029819D01*
X114223809Y-87029819D02*
X114223809Y-86029819D01*
X114223809Y-86029819D02*
X114319047Y-86172676D01*
X114319047Y-86172676D02*
X114414285Y-86267914D01*
X114414285Y-86267914D02*
X114509523Y-86315533D01*
X49263094Y-67979819D02*
X49263094Y-66979819D01*
X49263094Y-66979819D02*
X49024999Y-66979819D01*
X49024999Y-66979819D02*
X48882142Y-67027438D01*
X48882142Y-67027438D02*
X48786904Y-67122676D01*
X48786904Y-67122676D02*
X48739285Y-67217914D01*
X48739285Y-67217914D02*
X48691666Y-67408390D01*
X48691666Y-67408390D02*
X48691666Y-67551247D01*
X48691666Y-67551247D02*
X48739285Y-67741723D01*
X48739285Y-67741723D02*
X48786904Y-67836961D01*
X48786904Y-67836961D02*
X48882142Y-67932200D01*
X48882142Y-67932200D02*
X49024999Y-67979819D01*
X49024999Y-67979819D02*
X49263094Y-67979819D01*
X47739285Y-67979819D02*
X48310713Y-67979819D01*
X48024999Y-67979819D02*
X48024999Y-66979819D01*
X48024999Y-66979819D02*
X48120237Y-67122676D01*
X48120237Y-67122676D02*
X48215475Y-67217914D01*
X48215475Y-67217914D02*
X48310713Y-67265533D01*
X163563094Y-67979819D02*
X163563094Y-66979819D01*
X163563094Y-66979819D02*
X163324999Y-66979819D01*
X163324999Y-66979819D02*
X163182142Y-67027438D01*
X163182142Y-67027438D02*
X163086904Y-67122676D01*
X163086904Y-67122676D02*
X163039285Y-67217914D01*
X163039285Y-67217914D02*
X162991666Y-67408390D01*
X162991666Y-67408390D02*
X162991666Y-67551247D01*
X162991666Y-67551247D02*
X163039285Y-67741723D01*
X163039285Y-67741723D02*
X163086904Y-67836961D01*
X163086904Y-67836961D02*
X163182142Y-67932200D01*
X163182142Y-67932200D02*
X163324999Y-67979819D01*
X163324999Y-67979819D02*
X163563094Y-67979819D01*
X162658332Y-66979819D02*
X161991666Y-66979819D01*
X161991666Y-66979819D02*
X162420237Y-67979819D01*
X56883085Y-106079819D02*
X56883085Y-105079819D01*
X56883085Y-105079819D02*
X56644990Y-105079819D01*
X56644990Y-105079819D02*
X56502133Y-105127438D01*
X56502133Y-105127438D02*
X56406895Y-105222676D01*
X56406895Y-105222676D02*
X56359276Y-105317914D01*
X56359276Y-105317914D02*
X56311657Y-105508390D01*
X56311657Y-105508390D02*
X56311657Y-105651247D01*
X56311657Y-105651247D02*
X56359276Y-105841723D01*
X56359276Y-105841723D02*
X56406895Y-105936961D01*
X56406895Y-105936961D02*
X56502133Y-106032200D01*
X56502133Y-106032200D02*
X56644990Y-106079819D01*
X56644990Y-106079819D02*
X56883085Y-106079819D01*
X55359276Y-106079819D02*
X55930704Y-106079819D01*
X55644990Y-106079819D02*
X55644990Y-105079819D01*
X55644990Y-105079819D02*
X55740228Y-105222676D01*
X55740228Y-105222676D02*
X55835466Y-105317914D01*
X55835466Y-105317914D02*
X55930704Y-105365533D01*
X54502133Y-105413152D02*
X54502133Y-106079819D01*
X54740228Y-105032200D02*
X54978323Y-105746485D01*
X54978323Y-105746485D02*
X54359276Y-105746485D01*
X159276785Y-106079819D02*
X159276785Y-105079819D01*
X159276785Y-105079819D02*
X159038690Y-105079819D01*
X159038690Y-105079819D02*
X158895833Y-105127438D01*
X158895833Y-105127438D02*
X158800595Y-105222676D01*
X158800595Y-105222676D02*
X158752976Y-105317914D01*
X158752976Y-105317914D02*
X158705357Y-105508390D01*
X158705357Y-105508390D02*
X158705357Y-105651247D01*
X158705357Y-105651247D02*
X158752976Y-105841723D01*
X158752976Y-105841723D02*
X158800595Y-105936961D01*
X158800595Y-105936961D02*
X158895833Y-106032200D01*
X158895833Y-106032200D02*
X159038690Y-106079819D01*
X159038690Y-106079819D02*
X159276785Y-106079819D01*
X157752976Y-106079819D02*
X158324404Y-106079819D01*
X158038690Y-106079819D02*
X158038690Y-105079819D01*
X158038690Y-105079819D02*
X158133928Y-105222676D01*
X158133928Y-105222676D02*
X158229166Y-105317914D01*
X158229166Y-105317914D02*
X158324404Y-105365533D01*
X157276785Y-106079819D02*
X157086309Y-106079819D01*
X157086309Y-106079819D02*
X156991071Y-106032200D01*
X156991071Y-106032200D02*
X156943452Y-105984580D01*
X156943452Y-105984580D02*
X156848214Y-105841723D01*
X156848214Y-105841723D02*
X156800595Y-105651247D01*
X156800595Y-105651247D02*
X156800595Y-105270295D01*
X156800595Y-105270295D02*
X156848214Y-105175057D01*
X156848214Y-105175057D02*
X156895833Y-105127438D01*
X156895833Y-105127438D02*
X156991071Y-105079819D01*
X156991071Y-105079819D02*
X157181547Y-105079819D01*
X157181547Y-105079819D02*
X157276785Y-105127438D01*
X157276785Y-105127438D02*
X157324404Y-105175057D01*
X157324404Y-105175057D02*
X157372023Y-105270295D01*
X157372023Y-105270295D02*
X157372023Y-105508390D01*
X157372023Y-105508390D02*
X157324404Y-105603628D01*
X157324404Y-105603628D02*
X157276785Y-105651247D01*
X157276785Y-105651247D02*
X157181547Y-105698866D01*
X157181547Y-105698866D02*
X156991071Y-105698866D01*
X156991071Y-105698866D02*
X156895833Y-105651247D01*
X156895833Y-105651247D02*
X156848214Y-105603628D01*
X156848214Y-105603628D02*
X156800595Y-105508390D01*
X130701785Y-125129819D02*
X130701785Y-124129819D01*
X130701785Y-124129819D02*
X130463690Y-124129819D01*
X130463690Y-124129819D02*
X130320833Y-124177438D01*
X130320833Y-124177438D02*
X130225595Y-124272676D01*
X130225595Y-124272676D02*
X130177976Y-124367914D01*
X130177976Y-124367914D02*
X130130357Y-124558390D01*
X130130357Y-124558390D02*
X130130357Y-124701247D01*
X130130357Y-124701247D02*
X130177976Y-124891723D01*
X130177976Y-124891723D02*
X130225595Y-124986961D01*
X130225595Y-124986961D02*
X130320833Y-125082200D01*
X130320833Y-125082200D02*
X130463690Y-125129819D01*
X130463690Y-125129819D02*
X130701785Y-125129819D01*
X129749404Y-124225057D02*
X129701785Y-124177438D01*
X129701785Y-124177438D02*
X129606547Y-124129819D01*
X129606547Y-124129819D02*
X129368452Y-124129819D01*
X129368452Y-124129819D02*
X129273214Y-124177438D01*
X129273214Y-124177438D02*
X129225595Y-124225057D01*
X129225595Y-124225057D02*
X129177976Y-124320295D01*
X129177976Y-124320295D02*
X129177976Y-124415533D01*
X129177976Y-124415533D02*
X129225595Y-124558390D01*
X129225595Y-124558390D02*
X129797023Y-125129819D01*
X129797023Y-125129819D02*
X129177976Y-125129819D01*
X128320833Y-124463152D02*
X128320833Y-125129819D01*
X128558928Y-124082200D02*
X128797023Y-124796485D01*
X128797023Y-124796485D02*
X128177976Y-124796485D01*
X144513094Y-67979819D02*
X144513094Y-66979819D01*
X144513094Y-66979819D02*
X144274999Y-66979819D01*
X144274999Y-66979819D02*
X144132142Y-67027438D01*
X144132142Y-67027438D02*
X144036904Y-67122676D01*
X144036904Y-67122676D02*
X143989285Y-67217914D01*
X143989285Y-67217914D02*
X143941666Y-67408390D01*
X143941666Y-67408390D02*
X143941666Y-67551247D01*
X143941666Y-67551247D02*
X143989285Y-67741723D01*
X143989285Y-67741723D02*
X144036904Y-67836961D01*
X144036904Y-67836961D02*
X144132142Y-67932200D01*
X144132142Y-67932200D02*
X144274999Y-67979819D01*
X144274999Y-67979819D02*
X144513094Y-67979819D01*
X143084523Y-66979819D02*
X143274999Y-66979819D01*
X143274999Y-66979819D02*
X143370237Y-67027438D01*
X143370237Y-67027438D02*
X143417856Y-67075057D01*
X143417856Y-67075057D02*
X143513094Y-67217914D01*
X143513094Y-67217914D02*
X143560713Y-67408390D01*
X143560713Y-67408390D02*
X143560713Y-67789342D01*
X143560713Y-67789342D02*
X143513094Y-67884580D01*
X143513094Y-67884580D02*
X143465475Y-67932200D01*
X143465475Y-67932200D02*
X143370237Y-67979819D01*
X143370237Y-67979819D02*
X143179761Y-67979819D01*
X143179761Y-67979819D02*
X143084523Y-67932200D01*
X143084523Y-67932200D02*
X143036904Y-67884580D01*
X143036904Y-67884580D02*
X142989285Y-67789342D01*
X142989285Y-67789342D02*
X142989285Y-67551247D01*
X142989285Y-67551247D02*
X143036904Y-67456009D01*
X143036904Y-67456009D02*
X143084523Y-67408390D01*
X143084523Y-67408390D02*
X143179761Y-67360771D01*
X143179761Y-67360771D02*
X143370237Y-67360771D01*
X143370237Y-67360771D02*
X143465475Y-67408390D01*
X143465475Y-67408390D02*
X143513094Y-67456009D01*
X143513094Y-67456009D02*
X143560713Y-67551247D01*
X52120585Y-144179819D02*
X52120585Y-143179819D01*
X52120585Y-143179819D02*
X51882490Y-143179819D01*
X51882490Y-143179819D02*
X51739633Y-143227438D01*
X51739633Y-143227438D02*
X51644395Y-143322676D01*
X51644395Y-143322676D02*
X51596776Y-143417914D01*
X51596776Y-143417914D02*
X51549157Y-143608390D01*
X51549157Y-143608390D02*
X51549157Y-143751247D01*
X51549157Y-143751247D02*
X51596776Y-143941723D01*
X51596776Y-143941723D02*
X51644395Y-144036961D01*
X51644395Y-144036961D02*
X51739633Y-144132200D01*
X51739633Y-144132200D02*
X51882490Y-144179819D01*
X51882490Y-144179819D02*
X52120585Y-144179819D01*
X51168204Y-143275057D02*
X51120585Y-143227438D01*
X51120585Y-143227438D02*
X51025347Y-143179819D01*
X51025347Y-143179819D02*
X50787252Y-143179819D01*
X50787252Y-143179819D02*
X50692014Y-143227438D01*
X50692014Y-143227438D02*
X50644395Y-143275057D01*
X50644395Y-143275057D02*
X50596776Y-143370295D01*
X50596776Y-143370295D02*
X50596776Y-143465533D01*
X50596776Y-143465533D02*
X50644395Y-143608390D01*
X50644395Y-143608390D02*
X51215823Y-144179819D01*
X51215823Y-144179819D02*
X50596776Y-144179819D01*
X50263442Y-143179819D02*
X49596776Y-143179819D01*
X49596776Y-143179819D02*
X50025347Y-144179819D01*
X149751785Y-125129819D02*
X149751785Y-124129819D01*
X149751785Y-124129819D02*
X149513690Y-124129819D01*
X149513690Y-124129819D02*
X149370833Y-124177438D01*
X149370833Y-124177438D02*
X149275595Y-124272676D01*
X149275595Y-124272676D02*
X149227976Y-124367914D01*
X149227976Y-124367914D02*
X149180357Y-124558390D01*
X149180357Y-124558390D02*
X149180357Y-124701247D01*
X149180357Y-124701247D02*
X149227976Y-124891723D01*
X149227976Y-124891723D02*
X149275595Y-124986961D01*
X149275595Y-124986961D02*
X149370833Y-125082200D01*
X149370833Y-125082200D02*
X149513690Y-125129819D01*
X149513690Y-125129819D02*
X149751785Y-125129819D01*
X148799404Y-124225057D02*
X148751785Y-124177438D01*
X148751785Y-124177438D02*
X148656547Y-124129819D01*
X148656547Y-124129819D02*
X148418452Y-124129819D01*
X148418452Y-124129819D02*
X148323214Y-124177438D01*
X148323214Y-124177438D02*
X148275595Y-124225057D01*
X148275595Y-124225057D02*
X148227976Y-124320295D01*
X148227976Y-124320295D02*
X148227976Y-124415533D01*
X148227976Y-124415533D02*
X148275595Y-124558390D01*
X148275595Y-124558390D02*
X148847023Y-125129819D01*
X148847023Y-125129819D02*
X148227976Y-125129819D01*
X147323214Y-124129819D02*
X147799404Y-124129819D01*
X147799404Y-124129819D02*
X147847023Y-124606009D01*
X147847023Y-124606009D02*
X147799404Y-124558390D01*
X147799404Y-124558390D02*
X147704166Y-124510771D01*
X147704166Y-124510771D02*
X147466071Y-124510771D01*
X147466071Y-124510771D02*
X147370833Y-124558390D01*
X147370833Y-124558390D02*
X147323214Y-124606009D01*
X147323214Y-124606009D02*
X147275595Y-124701247D01*
X147275595Y-124701247D02*
X147275595Y-124939342D01*
X147275595Y-124939342D02*
X147323214Y-125034580D01*
X147323214Y-125034580D02*
X147370833Y-125082200D01*
X147370833Y-125082200D02*
X147466071Y-125129819D01*
X147466071Y-125129819D02*
X147704166Y-125129819D01*
X147704166Y-125129819D02*
X147799404Y-125082200D01*
X147799404Y-125082200D02*
X147847023Y-125034580D01*
X154514285Y-87029819D02*
X154514285Y-86029819D01*
X154514285Y-86029819D02*
X154276190Y-86029819D01*
X154276190Y-86029819D02*
X154133333Y-86077438D01*
X154133333Y-86077438D02*
X154038095Y-86172676D01*
X154038095Y-86172676D02*
X153990476Y-86267914D01*
X153990476Y-86267914D02*
X153942857Y-86458390D01*
X153942857Y-86458390D02*
X153942857Y-86601247D01*
X153942857Y-86601247D02*
X153990476Y-86791723D01*
X153990476Y-86791723D02*
X154038095Y-86886961D01*
X154038095Y-86886961D02*
X154133333Y-86982200D01*
X154133333Y-86982200D02*
X154276190Y-87029819D01*
X154276190Y-87029819D02*
X154514285Y-87029819D01*
X152990476Y-87029819D02*
X153561904Y-87029819D01*
X153276190Y-87029819D02*
X153276190Y-86029819D01*
X153276190Y-86029819D02*
X153371428Y-86172676D01*
X153371428Y-86172676D02*
X153466666Y-86267914D01*
X153466666Y-86267914D02*
X153561904Y-86315533D01*
X152657142Y-86029819D02*
X152038095Y-86029819D01*
X152038095Y-86029819D02*
X152371428Y-86410771D01*
X152371428Y-86410771D02*
X152228571Y-86410771D01*
X152228571Y-86410771D02*
X152133333Y-86458390D01*
X152133333Y-86458390D02*
X152085714Y-86506009D01*
X152085714Y-86506009D02*
X152038095Y-86601247D01*
X152038095Y-86601247D02*
X152038095Y-86839342D01*
X152038095Y-86839342D02*
X152085714Y-86934580D01*
X152085714Y-86934580D02*
X152133333Y-86982200D01*
X152133333Y-86982200D02*
X152228571Y-87029819D01*
X152228571Y-87029819D02*
X152514285Y-87029819D01*
X152514285Y-87029819D02*
X152609523Y-86982200D01*
X152609523Y-86982200D02*
X152657142Y-86934580D01*
X166420585Y-144179819D02*
X166420585Y-143179819D01*
X166420585Y-143179819D02*
X166182490Y-143179819D01*
X166182490Y-143179819D02*
X166039633Y-143227438D01*
X166039633Y-143227438D02*
X165944395Y-143322676D01*
X165944395Y-143322676D02*
X165896776Y-143417914D01*
X165896776Y-143417914D02*
X165849157Y-143608390D01*
X165849157Y-143608390D02*
X165849157Y-143751247D01*
X165849157Y-143751247D02*
X165896776Y-143941723D01*
X165896776Y-143941723D02*
X165944395Y-144036961D01*
X165944395Y-144036961D02*
X166039633Y-144132200D01*
X166039633Y-144132200D02*
X166182490Y-144179819D01*
X166182490Y-144179819D02*
X166420585Y-144179819D01*
X165515823Y-143179819D02*
X164896776Y-143179819D01*
X164896776Y-143179819D02*
X165230109Y-143560771D01*
X165230109Y-143560771D02*
X165087252Y-143560771D01*
X165087252Y-143560771D02*
X164992014Y-143608390D01*
X164992014Y-143608390D02*
X164944395Y-143656009D01*
X164944395Y-143656009D02*
X164896776Y-143751247D01*
X164896776Y-143751247D02*
X164896776Y-143989342D01*
X164896776Y-143989342D02*
X164944395Y-144084580D01*
X164944395Y-144084580D02*
X164992014Y-144132200D01*
X164992014Y-144132200D02*
X165087252Y-144179819D01*
X165087252Y-144179819D02*
X165372966Y-144179819D01*
X165372966Y-144179819D02*
X165468204Y-144132200D01*
X165468204Y-144132200D02*
X165515823Y-144084580D01*
X164515823Y-143275057D02*
X164468204Y-143227438D01*
X164468204Y-143227438D02*
X164372966Y-143179819D01*
X164372966Y-143179819D02*
X164134871Y-143179819D01*
X164134871Y-143179819D02*
X164039633Y-143227438D01*
X164039633Y-143227438D02*
X163992014Y-143275057D01*
X163992014Y-143275057D02*
X163944395Y-143370295D01*
X163944395Y-143370295D02*
X163944395Y-143465533D01*
X163944395Y-143465533D02*
X163992014Y-143608390D01*
X163992014Y-143608390D02*
X164563442Y-144179819D01*
X164563442Y-144179819D02*
X163944395Y-144179819D01*
X144989285Y-144179819D02*
X144989285Y-143179819D01*
X144989285Y-143179819D02*
X144751190Y-143179819D01*
X144751190Y-143179819D02*
X144608333Y-143227438D01*
X144608333Y-143227438D02*
X144513095Y-143322676D01*
X144513095Y-143322676D02*
X144465476Y-143417914D01*
X144465476Y-143417914D02*
X144417857Y-143608390D01*
X144417857Y-143608390D02*
X144417857Y-143751247D01*
X144417857Y-143751247D02*
X144465476Y-143941723D01*
X144465476Y-143941723D02*
X144513095Y-144036961D01*
X144513095Y-144036961D02*
X144608333Y-144132200D01*
X144608333Y-144132200D02*
X144751190Y-144179819D01*
X144751190Y-144179819D02*
X144989285Y-144179819D01*
X144084523Y-143179819D02*
X143465476Y-143179819D01*
X143465476Y-143179819D02*
X143798809Y-143560771D01*
X143798809Y-143560771D02*
X143655952Y-143560771D01*
X143655952Y-143560771D02*
X143560714Y-143608390D01*
X143560714Y-143608390D02*
X143513095Y-143656009D01*
X143513095Y-143656009D02*
X143465476Y-143751247D01*
X143465476Y-143751247D02*
X143465476Y-143989342D01*
X143465476Y-143989342D02*
X143513095Y-144084580D01*
X143513095Y-144084580D02*
X143560714Y-144132200D01*
X143560714Y-144132200D02*
X143655952Y-144179819D01*
X143655952Y-144179819D02*
X143941666Y-144179819D01*
X143941666Y-144179819D02*
X144036904Y-144132200D01*
X144036904Y-144132200D02*
X144084523Y-144084580D01*
X142513095Y-144179819D02*
X143084523Y-144179819D01*
X142798809Y-144179819D02*
X142798809Y-143179819D01*
X142798809Y-143179819D02*
X142894047Y-143322676D01*
X142894047Y-143322676D02*
X142989285Y-143417914D01*
X142989285Y-143417914D02*
X143084523Y-143465533D01*
X140226785Y-106079819D02*
X140226785Y-105079819D01*
X140226785Y-105079819D02*
X139988690Y-105079819D01*
X139988690Y-105079819D02*
X139845833Y-105127438D01*
X139845833Y-105127438D02*
X139750595Y-105222676D01*
X139750595Y-105222676D02*
X139702976Y-105317914D01*
X139702976Y-105317914D02*
X139655357Y-105508390D01*
X139655357Y-105508390D02*
X139655357Y-105651247D01*
X139655357Y-105651247D02*
X139702976Y-105841723D01*
X139702976Y-105841723D02*
X139750595Y-105936961D01*
X139750595Y-105936961D02*
X139845833Y-106032200D01*
X139845833Y-106032200D02*
X139988690Y-106079819D01*
X139988690Y-106079819D02*
X140226785Y-106079819D01*
X138702976Y-106079819D02*
X139274404Y-106079819D01*
X138988690Y-106079819D02*
X138988690Y-105079819D01*
X138988690Y-105079819D02*
X139083928Y-105222676D01*
X139083928Y-105222676D02*
X139179166Y-105317914D01*
X139179166Y-105317914D02*
X139274404Y-105365533D01*
X138131547Y-105508390D02*
X138226785Y-105460771D01*
X138226785Y-105460771D02*
X138274404Y-105413152D01*
X138274404Y-105413152D02*
X138322023Y-105317914D01*
X138322023Y-105317914D02*
X138322023Y-105270295D01*
X138322023Y-105270295D02*
X138274404Y-105175057D01*
X138274404Y-105175057D02*
X138226785Y-105127438D01*
X138226785Y-105127438D02*
X138131547Y-105079819D01*
X138131547Y-105079819D02*
X137941071Y-105079819D01*
X137941071Y-105079819D02*
X137845833Y-105127438D01*
X137845833Y-105127438D02*
X137798214Y-105175057D01*
X137798214Y-105175057D02*
X137750595Y-105270295D01*
X137750595Y-105270295D02*
X137750595Y-105317914D01*
X137750595Y-105317914D02*
X137798214Y-105413152D01*
X137798214Y-105413152D02*
X137845833Y-105460771D01*
X137845833Y-105460771D02*
X137941071Y-105508390D01*
X137941071Y-105508390D02*
X138131547Y-105508390D01*
X138131547Y-105508390D02*
X138226785Y-105556009D01*
X138226785Y-105556009D02*
X138274404Y-105603628D01*
X138274404Y-105603628D02*
X138322023Y-105698866D01*
X138322023Y-105698866D02*
X138322023Y-105889342D01*
X138322023Y-105889342D02*
X138274404Y-105984580D01*
X138274404Y-105984580D02*
X138226785Y-106032200D01*
X138226785Y-106032200D02*
X138131547Y-106079819D01*
X138131547Y-106079819D02*
X137941071Y-106079819D01*
X137941071Y-106079819D02*
X137845833Y-106032200D01*
X137845833Y-106032200D02*
X137798214Y-105984580D01*
X137798214Y-105984580D02*
X137750595Y-105889342D01*
X137750595Y-105889342D02*
X137750595Y-105698866D01*
X137750595Y-105698866D02*
X137798214Y-105603628D01*
X137798214Y-105603628D02*
X137845833Y-105556009D01*
X137845833Y-105556009D02*
X137941071Y-105508390D01*
X77838094Y-87029819D02*
X77838094Y-86029819D01*
X77838094Y-86029819D02*
X77599999Y-86029819D01*
X77599999Y-86029819D02*
X77457142Y-86077438D01*
X77457142Y-86077438D02*
X77361904Y-86172676D01*
X77361904Y-86172676D02*
X77314285Y-86267914D01*
X77314285Y-86267914D02*
X77266666Y-86458390D01*
X77266666Y-86458390D02*
X77266666Y-86601247D01*
X77266666Y-86601247D02*
X77314285Y-86791723D01*
X77314285Y-86791723D02*
X77361904Y-86886961D01*
X77361904Y-86886961D02*
X77457142Y-86982200D01*
X77457142Y-86982200D02*
X77599999Y-87029819D01*
X77599999Y-87029819D02*
X77838094Y-87029819D01*
X76790475Y-87029819D02*
X76599999Y-87029819D01*
X76599999Y-87029819D02*
X76504761Y-86982200D01*
X76504761Y-86982200D02*
X76457142Y-86934580D01*
X76457142Y-86934580D02*
X76361904Y-86791723D01*
X76361904Y-86791723D02*
X76314285Y-86601247D01*
X76314285Y-86601247D02*
X76314285Y-86220295D01*
X76314285Y-86220295D02*
X76361904Y-86125057D01*
X76361904Y-86125057D02*
X76409523Y-86077438D01*
X76409523Y-86077438D02*
X76504761Y-86029819D01*
X76504761Y-86029819D02*
X76695237Y-86029819D01*
X76695237Y-86029819D02*
X76790475Y-86077438D01*
X76790475Y-86077438D02*
X76838094Y-86125057D01*
X76838094Y-86125057D02*
X76885713Y-86220295D01*
X76885713Y-86220295D02*
X76885713Y-86458390D01*
X76885713Y-86458390D02*
X76838094Y-86553628D01*
X76838094Y-86553628D02*
X76790475Y-86601247D01*
X76790475Y-86601247D02*
X76695237Y-86648866D01*
X76695237Y-86648866D02*
X76504761Y-86648866D01*
X76504761Y-86648866D02*
X76409523Y-86601247D01*
X76409523Y-86601247D02*
X76361904Y-86553628D01*
X76361904Y-86553628D02*
X76314285Y-86458390D01*
X106413094Y-67979819D02*
X106413094Y-66979819D01*
X106413094Y-66979819D02*
X106174999Y-66979819D01*
X106174999Y-66979819D02*
X106032142Y-67027438D01*
X106032142Y-67027438D02*
X105936904Y-67122676D01*
X105936904Y-67122676D02*
X105889285Y-67217914D01*
X105889285Y-67217914D02*
X105841666Y-67408390D01*
X105841666Y-67408390D02*
X105841666Y-67551247D01*
X105841666Y-67551247D02*
X105889285Y-67741723D01*
X105889285Y-67741723D02*
X105936904Y-67836961D01*
X105936904Y-67836961D02*
X106032142Y-67932200D01*
X106032142Y-67932200D02*
X106174999Y-67979819D01*
X106174999Y-67979819D02*
X106413094Y-67979819D01*
X104984523Y-67313152D02*
X104984523Y-67979819D01*
X105222618Y-66932200D02*
X105460713Y-67646485D01*
X105460713Y-67646485D02*
X104841666Y-67646485D01*
X168801785Y-125129819D02*
X168801785Y-124129819D01*
X168801785Y-124129819D02*
X168563690Y-124129819D01*
X168563690Y-124129819D02*
X168420833Y-124177438D01*
X168420833Y-124177438D02*
X168325595Y-124272676D01*
X168325595Y-124272676D02*
X168277976Y-124367914D01*
X168277976Y-124367914D02*
X168230357Y-124558390D01*
X168230357Y-124558390D02*
X168230357Y-124701247D01*
X168230357Y-124701247D02*
X168277976Y-124891723D01*
X168277976Y-124891723D02*
X168325595Y-124986961D01*
X168325595Y-124986961D02*
X168420833Y-125082200D01*
X168420833Y-125082200D02*
X168563690Y-125129819D01*
X168563690Y-125129819D02*
X168801785Y-125129819D01*
X167849404Y-124225057D02*
X167801785Y-124177438D01*
X167801785Y-124177438D02*
X167706547Y-124129819D01*
X167706547Y-124129819D02*
X167468452Y-124129819D01*
X167468452Y-124129819D02*
X167373214Y-124177438D01*
X167373214Y-124177438D02*
X167325595Y-124225057D01*
X167325595Y-124225057D02*
X167277976Y-124320295D01*
X167277976Y-124320295D02*
X167277976Y-124415533D01*
X167277976Y-124415533D02*
X167325595Y-124558390D01*
X167325595Y-124558390D02*
X167897023Y-125129819D01*
X167897023Y-125129819D02*
X167277976Y-125129819D01*
X166420833Y-124129819D02*
X166611309Y-124129819D01*
X166611309Y-124129819D02*
X166706547Y-124177438D01*
X166706547Y-124177438D02*
X166754166Y-124225057D01*
X166754166Y-124225057D02*
X166849404Y-124367914D01*
X166849404Y-124367914D02*
X166897023Y-124558390D01*
X166897023Y-124558390D02*
X166897023Y-124939342D01*
X166897023Y-124939342D02*
X166849404Y-125034580D01*
X166849404Y-125034580D02*
X166801785Y-125082200D01*
X166801785Y-125082200D02*
X166706547Y-125129819D01*
X166706547Y-125129819D02*
X166516071Y-125129819D01*
X166516071Y-125129819D02*
X166420833Y-125082200D01*
X166420833Y-125082200D02*
X166373214Y-125034580D01*
X166373214Y-125034580D02*
X166325595Y-124939342D01*
X166325595Y-124939342D02*
X166325595Y-124701247D01*
X166325595Y-124701247D02*
X166373214Y-124606009D01*
X166373214Y-124606009D02*
X166420833Y-124558390D01*
X166420833Y-124558390D02*
X166516071Y-124510771D01*
X166516071Y-124510771D02*
X166706547Y-124510771D01*
X166706547Y-124510771D02*
X166801785Y-124558390D01*
X166801785Y-124558390D02*
X166849404Y-124606009D01*
X166849404Y-124606009D02*
X166897023Y-124701247D01*
X68313094Y-67979819D02*
X68313094Y-66979819D01*
X68313094Y-66979819D02*
X68074999Y-66979819D01*
X68074999Y-66979819D02*
X67932142Y-67027438D01*
X67932142Y-67027438D02*
X67836904Y-67122676D01*
X67836904Y-67122676D02*
X67789285Y-67217914D01*
X67789285Y-67217914D02*
X67741666Y-67408390D01*
X67741666Y-67408390D02*
X67741666Y-67551247D01*
X67741666Y-67551247D02*
X67789285Y-67741723D01*
X67789285Y-67741723D02*
X67836904Y-67836961D01*
X67836904Y-67836961D02*
X67932142Y-67932200D01*
X67932142Y-67932200D02*
X68074999Y-67979819D01*
X68074999Y-67979819D02*
X68313094Y-67979819D01*
X67360713Y-67075057D02*
X67313094Y-67027438D01*
X67313094Y-67027438D02*
X67217856Y-66979819D01*
X67217856Y-66979819D02*
X66979761Y-66979819D01*
X66979761Y-66979819D02*
X66884523Y-67027438D01*
X66884523Y-67027438D02*
X66836904Y-67075057D01*
X66836904Y-67075057D02*
X66789285Y-67170295D01*
X66789285Y-67170295D02*
X66789285Y-67265533D01*
X66789285Y-67265533D02*
X66836904Y-67408390D01*
X66836904Y-67408390D02*
X67408332Y-67979819D01*
X67408332Y-67979819D02*
X66789285Y-67979819D01*
X121176785Y-106079819D02*
X121176785Y-105079819D01*
X121176785Y-105079819D02*
X120938690Y-105079819D01*
X120938690Y-105079819D02*
X120795833Y-105127438D01*
X120795833Y-105127438D02*
X120700595Y-105222676D01*
X120700595Y-105222676D02*
X120652976Y-105317914D01*
X120652976Y-105317914D02*
X120605357Y-105508390D01*
X120605357Y-105508390D02*
X120605357Y-105651247D01*
X120605357Y-105651247D02*
X120652976Y-105841723D01*
X120652976Y-105841723D02*
X120700595Y-105936961D01*
X120700595Y-105936961D02*
X120795833Y-106032200D01*
X120795833Y-106032200D02*
X120938690Y-106079819D01*
X120938690Y-106079819D02*
X121176785Y-106079819D01*
X119652976Y-106079819D02*
X120224404Y-106079819D01*
X119938690Y-106079819D02*
X119938690Y-105079819D01*
X119938690Y-105079819D02*
X120033928Y-105222676D01*
X120033928Y-105222676D02*
X120129166Y-105317914D01*
X120129166Y-105317914D02*
X120224404Y-105365533D01*
X119319642Y-105079819D02*
X118652976Y-105079819D01*
X118652976Y-105079819D02*
X119081547Y-106079819D01*
X75933085Y-144179819D02*
X75933085Y-143179819D01*
X75933085Y-143179819D02*
X75694990Y-143179819D01*
X75694990Y-143179819D02*
X75552133Y-143227438D01*
X75552133Y-143227438D02*
X75456895Y-143322676D01*
X75456895Y-143322676D02*
X75409276Y-143417914D01*
X75409276Y-143417914D02*
X75361657Y-143608390D01*
X75361657Y-143608390D02*
X75361657Y-143751247D01*
X75361657Y-143751247D02*
X75409276Y-143941723D01*
X75409276Y-143941723D02*
X75456895Y-144036961D01*
X75456895Y-144036961D02*
X75552133Y-144132200D01*
X75552133Y-144132200D02*
X75694990Y-144179819D01*
X75694990Y-144179819D02*
X75933085Y-144179819D01*
X74980704Y-143275057D02*
X74933085Y-143227438D01*
X74933085Y-143227438D02*
X74837847Y-143179819D01*
X74837847Y-143179819D02*
X74599752Y-143179819D01*
X74599752Y-143179819D02*
X74504514Y-143227438D01*
X74504514Y-143227438D02*
X74456895Y-143275057D01*
X74456895Y-143275057D02*
X74409276Y-143370295D01*
X74409276Y-143370295D02*
X74409276Y-143465533D01*
X74409276Y-143465533D02*
X74456895Y-143608390D01*
X74456895Y-143608390D02*
X75028323Y-144179819D01*
X75028323Y-144179819D02*
X74409276Y-144179819D01*
X73837847Y-143608390D02*
X73933085Y-143560771D01*
X73933085Y-143560771D02*
X73980704Y-143513152D01*
X73980704Y-143513152D02*
X74028323Y-143417914D01*
X74028323Y-143417914D02*
X74028323Y-143370295D01*
X74028323Y-143370295D02*
X73980704Y-143275057D01*
X73980704Y-143275057D02*
X73933085Y-143227438D01*
X73933085Y-143227438D02*
X73837847Y-143179819D01*
X73837847Y-143179819D02*
X73647371Y-143179819D01*
X73647371Y-143179819D02*
X73552133Y-143227438D01*
X73552133Y-143227438D02*
X73504514Y-143275057D01*
X73504514Y-143275057D02*
X73456895Y-143370295D01*
X73456895Y-143370295D02*
X73456895Y-143417914D01*
X73456895Y-143417914D02*
X73504514Y-143513152D01*
X73504514Y-143513152D02*
X73552133Y-143560771D01*
X73552133Y-143560771D02*
X73647371Y-143608390D01*
X73647371Y-143608390D02*
X73837847Y-143608390D01*
X73837847Y-143608390D02*
X73933085Y-143656009D01*
X73933085Y-143656009D02*
X73980704Y-143703628D01*
X73980704Y-143703628D02*
X74028323Y-143798866D01*
X74028323Y-143798866D02*
X74028323Y-143989342D01*
X74028323Y-143989342D02*
X73980704Y-144084580D01*
X73980704Y-144084580D02*
X73933085Y-144132200D01*
X73933085Y-144132200D02*
X73837847Y-144179819D01*
X73837847Y-144179819D02*
X73647371Y-144179819D01*
X73647371Y-144179819D02*
X73552133Y-144132200D01*
X73552133Y-144132200D02*
X73504514Y-144084580D01*
X73504514Y-144084580D02*
X73456895Y-143989342D01*
X73456895Y-143989342D02*
X73456895Y-143798866D01*
X73456895Y-143798866D02*
X73504514Y-143703628D01*
X73504514Y-143703628D02*
X73552133Y-143656009D01*
X73552133Y-143656009D02*
X73647371Y-143608390D01*
X83076785Y-106079819D02*
X83076785Y-105079819D01*
X83076785Y-105079819D02*
X82838690Y-105079819D01*
X82838690Y-105079819D02*
X82695833Y-105127438D01*
X82695833Y-105127438D02*
X82600595Y-105222676D01*
X82600595Y-105222676D02*
X82552976Y-105317914D01*
X82552976Y-105317914D02*
X82505357Y-105508390D01*
X82505357Y-105508390D02*
X82505357Y-105651247D01*
X82505357Y-105651247D02*
X82552976Y-105841723D01*
X82552976Y-105841723D02*
X82600595Y-105936961D01*
X82600595Y-105936961D02*
X82695833Y-106032200D01*
X82695833Y-106032200D02*
X82838690Y-106079819D01*
X82838690Y-106079819D02*
X83076785Y-106079819D01*
X81552976Y-106079819D02*
X82124404Y-106079819D01*
X81838690Y-106079819D02*
X81838690Y-105079819D01*
X81838690Y-105079819D02*
X81933928Y-105222676D01*
X81933928Y-105222676D02*
X82029166Y-105317914D01*
X82029166Y-105317914D02*
X82124404Y-105365533D01*
X80648214Y-105079819D02*
X81124404Y-105079819D01*
X81124404Y-105079819D02*
X81172023Y-105556009D01*
X81172023Y-105556009D02*
X81124404Y-105508390D01*
X81124404Y-105508390D02*
X81029166Y-105460771D01*
X81029166Y-105460771D02*
X80791071Y-105460771D01*
X80791071Y-105460771D02*
X80695833Y-105508390D01*
X80695833Y-105508390D02*
X80648214Y-105556009D01*
X80648214Y-105556009D02*
X80600595Y-105651247D01*
X80600595Y-105651247D02*
X80600595Y-105889342D01*
X80600595Y-105889342D02*
X80648214Y-105984580D01*
X80648214Y-105984580D02*
X80695833Y-106032200D01*
X80695833Y-106032200D02*
X80791071Y-106079819D01*
X80791071Y-106079819D02*
X81029166Y-106079819D01*
X81029166Y-106079819D02*
X81124404Y-106032200D01*
X81124404Y-106032200D02*
X81172023Y-105984580D01*
X97364285Y-87029819D02*
X97364285Y-86029819D01*
X97364285Y-86029819D02*
X97126190Y-86029819D01*
X97126190Y-86029819D02*
X96983333Y-86077438D01*
X96983333Y-86077438D02*
X96888095Y-86172676D01*
X96888095Y-86172676D02*
X96840476Y-86267914D01*
X96840476Y-86267914D02*
X96792857Y-86458390D01*
X96792857Y-86458390D02*
X96792857Y-86601247D01*
X96792857Y-86601247D02*
X96840476Y-86791723D01*
X96840476Y-86791723D02*
X96888095Y-86886961D01*
X96888095Y-86886961D02*
X96983333Y-86982200D01*
X96983333Y-86982200D02*
X97126190Y-87029819D01*
X97126190Y-87029819D02*
X97364285Y-87029819D01*
X95840476Y-87029819D02*
X96411904Y-87029819D01*
X96126190Y-87029819D02*
X96126190Y-86029819D01*
X96126190Y-86029819D02*
X96221428Y-86172676D01*
X96221428Y-86172676D02*
X96316666Y-86267914D01*
X96316666Y-86267914D02*
X96411904Y-86315533D01*
X95221428Y-86029819D02*
X95126190Y-86029819D01*
X95126190Y-86029819D02*
X95030952Y-86077438D01*
X95030952Y-86077438D02*
X94983333Y-86125057D01*
X94983333Y-86125057D02*
X94935714Y-86220295D01*
X94935714Y-86220295D02*
X94888095Y-86410771D01*
X94888095Y-86410771D02*
X94888095Y-86648866D01*
X94888095Y-86648866D02*
X94935714Y-86839342D01*
X94935714Y-86839342D02*
X94983333Y-86934580D01*
X94983333Y-86934580D02*
X95030952Y-86982200D01*
X95030952Y-86982200D02*
X95126190Y-87029819D01*
X95126190Y-87029819D02*
X95221428Y-87029819D01*
X95221428Y-87029819D02*
X95316666Y-86982200D01*
X95316666Y-86982200D02*
X95364285Y-86934580D01*
X95364285Y-86934580D02*
X95411904Y-86839342D01*
X95411904Y-86839342D02*
X95459523Y-86648866D01*
X95459523Y-86648866D02*
X95459523Y-86410771D01*
X95459523Y-86410771D02*
X95411904Y-86220295D01*
X95411904Y-86220295D02*
X95364285Y-86125057D01*
X95364285Y-86125057D02*
X95316666Y-86077438D01*
X95316666Y-86077438D02*
X95221428Y-86029819D01*
X123558085Y-144179819D02*
X123558085Y-143179819D01*
X123558085Y-143179819D02*
X123319990Y-143179819D01*
X123319990Y-143179819D02*
X123177133Y-143227438D01*
X123177133Y-143227438D02*
X123081895Y-143322676D01*
X123081895Y-143322676D02*
X123034276Y-143417914D01*
X123034276Y-143417914D02*
X122986657Y-143608390D01*
X122986657Y-143608390D02*
X122986657Y-143751247D01*
X122986657Y-143751247D02*
X123034276Y-143941723D01*
X123034276Y-143941723D02*
X123081895Y-144036961D01*
X123081895Y-144036961D02*
X123177133Y-144132200D01*
X123177133Y-144132200D02*
X123319990Y-144179819D01*
X123319990Y-144179819D02*
X123558085Y-144179819D01*
X122653323Y-143179819D02*
X122034276Y-143179819D01*
X122034276Y-143179819D02*
X122367609Y-143560771D01*
X122367609Y-143560771D02*
X122224752Y-143560771D01*
X122224752Y-143560771D02*
X122129514Y-143608390D01*
X122129514Y-143608390D02*
X122081895Y-143656009D01*
X122081895Y-143656009D02*
X122034276Y-143751247D01*
X122034276Y-143751247D02*
X122034276Y-143989342D01*
X122034276Y-143989342D02*
X122081895Y-144084580D01*
X122081895Y-144084580D02*
X122129514Y-144132200D01*
X122129514Y-144132200D02*
X122224752Y-144179819D01*
X122224752Y-144179819D02*
X122510466Y-144179819D01*
X122510466Y-144179819D02*
X122605704Y-144132200D01*
X122605704Y-144132200D02*
X122653323Y-144084580D01*
X121415228Y-143179819D02*
X121319990Y-143179819D01*
X121319990Y-143179819D02*
X121224752Y-143227438D01*
X121224752Y-143227438D02*
X121177133Y-143275057D01*
X121177133Y-143275057D02*
X121129514Y-143370295D01*
X121129514Y-143370295D02*
X121081895Y-143560771D01*
X121081895Y-143560771D02*
X121081895Y-143798866D01*
X121081895Y-143798866D02*
X121129514Y-143989342D01*
X121129514Y-143989342D02*
X121177133Y-144084580D01*
X121177133Y-144084580D02*
X121224752Y-144132200D01*
X121224752Y-144132200D02*
X121319990Y-144179819D01*
X121319990Y-144179819D02*
X121415228Y-144179819D01*
X121415228Y-144179819D02*
X121510466Y-144132200D01*
X121510466Y-144132200D02*
X121558085Y-144084580D01*
X121558085Y-144084580D02*
X121605704Y-143989342D01*
X121605704Y-143989342D02*
X121653323Y-143798866D01*
X121653323Y-143798866D02*
X121653323Y-143560771D01*
X121653323Y-143560771D02*
X121605704Y-143370295D01*
X121605704Y-143370295D02*
X121558085Y-143275057D01*
X121558085Y-143275057D02*
X121510466Y-143227438D01*
X121510466Y-143227438D02*
X121415228Y-143179819D01*
X73551785Y-125129819D02*
X73551785Y-124129819D01*
X73551785Y-124129819D02*
X73313690Y-124129819D01*
X73313690Y-124129819D02*
X73170833Y-124177438D01*
X73170833Y-124177438D02*
X73075595Y-124272676D01*
X73075595Y-124272676D02*
X73027976Y-124367914D01*
X73027976Y-124367914D02*
X72980357Y-124558390D01*
X72980357Y-124558390D02*
X72980357Y-124701247D01*
X72980357Y-124701247D02*
X73027976Y-124891723D01*
X73027976Y-124891723D02*
X73075595Y-124986961D01*
X73075595Y-124986961D02*
X73170833Y-125082200D01*
X73170833Y-125082200D02*
X73313690Y-125129819D01*
X73313690Y-125129819D02*
X73551785Y-125129819D01*
X72599404Y-124225057D02*
X72551785Y-124177438D01*
X72551785Y-124177438D02*
X72456547Y-124129819D01*
X72456547Y-124129819D02*
X72218452Y-124129819D01*
X72218452Y-124129819D02*
X72123214Y-124177438D01*
X72123214Y-124177438D02*
X72075595Y-124225057D01*
X72075595Y-124225057D02*
X72027976Y-124320295D01*
X72027976Y-124320295D02*
X72027976Y-124415533D01*
X72027976Y-124415533D02*
X72075595Y-124558390D01*
X72075595Y-124558390D02*
X72647023Y-125129819D01*
X72647023Y-125129819D02*
X72027976Y-125129819D01*
X71075595Y-125129819D02*
X71647023Y-125129819D01*
X71361309Y-125129819D02*
X71361309Y-124129819D01*
X71361309Y-124129819D02*
X71456547Y-124272676D01*
X71456547Y-124272676D02*
X71551785Y-124367914D01*
X71551785Y-124367914D02*
X71647023Y-124415533D01*
X92601785Y-125129819D02*
X92601785Y-124129819D01*
X92601785Y-124129819D02*
X92363690Y-124129819D01*
X92363690Y-124129819D02*
X92220833Y-124177438D01*
X92220833Y-124177438D02*
X92125595Y-124272676D01*
X92125595Y-124272676D02*
X92077976Y-124367914D01*
X92077976Y-124367914D02*
X92030357Y-124558390D01*
X92030357Y-124558390D02*
X92030357Y-124701247D01*
X92030357Y-124701247D02*
X92077976Y-124891723D01*
X92077976Y-124891723D02*
X92125595Y-124986961D01*
X92125595Y-124986961D02*
X92220833Y-125082200D01*
X92220833Y-125082200D02*
X92363690Y-125129819D01*
X92363690Y-125129819D02*
X92601785Y-125129819D01*
X91649404Y-124225057D02*
X91601785Y-124177438D01*
X91601785Y-124177438D02*
X91506547Y-124129819D01*
X91506547Y-124129819D02*
X91268452Y-124129819D01*
X91268452Y-124129819D02*
X91173214Y-124177438D01*
X91173214Y-124177438D02*
X91125595Y-124225057D01*
X91125595Y-124225057D02*
X91077976Y-124320295D01*
X91077976Y-124320295D02*
X91077976Y-124415533D01*
X91077976Y-124415533D02*
X91125595Y-124558390D01*
X91125595Y-124558390D02*
X91697023Y-125129819D01*
X91697023Y-125129819D02*
X91077976Y-125129819D01*
X90697023Y-124225057D02*
X90649404Y-124177438D01*
X90649404Y-124177438D02*
X90554166Y-124129819D01*
X90554166Y-124129819D02*
X90316071Y-124129819D01*
X90316071Y-124129819D02*
X90220833Y-124177438D01*
X90220833Y-124177438D02*
X90173214Y-124225057D01*
X90173214Y-124225057D02*
X90125595Y-124320295D01*
X90125595Y-124320295D02*
X90125595Y-124415533D01*
X90125595Y-124415533D02*
X90173214Y-124558390D01*
X90173214Y-124558390D02*
X90744642Y-125129819D01*
X90744642Y-125129819D02*
X90125595Y-125129819D01*
X111651785Y-125129819D02*
X111651785Y-124129819D01*
X111651785Y-124129819D02*
X111413690Y-124129819D01*
X111413690Y-124129819D02*
X111270833Y-124177438D01*
X111270833Y-124177438D02*
X111175595Y-124272676D01*
X111175595Y-124272676D02*
X111127976Y-124367914D01*
X111127976Y-124367914D02*
X111080357Y-124558390D01*
X111080357Y-124558390D02*
X111080357Y-124701247D01*
X111080357Y-124701247D02*
X111127976Y-124891723D01*
X111127976Y-124891723D02*
X111175595Y-124986961D01*
X111175595Y-124986961D02*
X111270833Y-125082200D01*
X111270833Y-125082200D02*
X111413690Y-125129819D01*
X111413690Y-125129819D02*
X111651785Y-125129819D01*
X110699404Y-124225057D02*
X110651785Y-124177438D01*
X110651785Y-124177438D02*
X110556547Y-124129819D01*
X110556547Y-124129819D02*
X110318452Y-124129819D01*
X110318452Y-124129819D02*
X110223214Y-124177438D01*
X110223214Y-124177438D02*
X110175595Y-124225057D01*
X110175595Y-124225057D02*
X110127976Y-124320295D01*
X110127976Y-124320295D02*
X110127976Y-124415533D01*
X110127976Y-124415533D02*
X110175595Y-124558390D01*
X110175595Y-124558390D02*
X110747023Y-125129819D01*
X110747023Y-125129819D02*
X110127976Y-125129819D01*
X109794642Y-124129819D02*
X109175595Y-124129819D01*
X109175595Y-124129819D02*
X109508928Y-124510771D01*
X109508928Y-124510771D02*
X109366071Y-124510771D01*
X109366071Y-124510771D02*
X109270833Y-124558390D01*
X109270833Y-124558390D02*
X109223214Y-124606009D01*
X109223214Y-124606009D02*
X109175595Y-124701247D01*
X109175595Y-124701247D02*
X109175595Y-124939342D01*
X109175595Y-124939342D02*
X109223214Y-125034580D01*
X109223214Y-125034580D02*
X109270833Y-125082200D01*
X109270833Y-125082200D02*
X109366071Y-125129819D01*
X109366071Y-125129819D02*
X109651785Y-125129819D01*
X109651785Y-125129819D02*
X109747023Y-125082200D01*
X109747023Y-125082200D02*
X109794642Y-125034580D01*
X87363094Y-67979819D02*
X87363094Y-66979819D01*
X87363094Y-66979819D02*
X87124999Y-66979819D01*
X87124999Y-66979819D02*
X86982142Y-67027438D01*
X86982142Y-67027438D02*
X86886904Y-67122676D01*
X86886904Y-67122676D02*
X86839285Y-67217914D01*
X86839285Y-67217914D02*
X86791666Y-67408390D01*
X86791666Y-67408390D02*
X86791666Y-67551247D01*
X86791666Y-67551247D02*
X86839285Y-67741723D01*
X86839285Y-67741723D02*
X86886904Y-67836961D01*
X86886904Y-67836961D02*
X86982142Y-67932200D01*
X86982142Y-67932200D02*
X87124999Y-67979819D01*
X87124999Y-67979819D02*
X87363094Y-67979819D01*
X86458332Y-66979819D02*
X85839285Y-66979819D01*
X85839285Y-66979819D02*
X86172618Y-67360771D01*
X86172618Y-67360771D02*
X86029761Y-67360771D01*
X86029761Y-67360771D02*
X85934523Y-67408390D01*
X85934523Y-67408390D02*
X85886904Y-67456009D01*
X85886904Y-67456009D02*
X85839285Y-67551247D01*
X85839285Y-67551247D02*
X85839285Y-67789342D01*
X85839285Y-67789342D02*
X85886904Y-67884580D01*
X85886904Y-67884580D02*
X85934523Y-67932200D01*
X85934523Y-67932200D02*
X86029761Y-67979819D01*
X86029761Y-67979819D02*
X86315475Y-67979819D01*
X86315475Y-67979819D02*
X86410713Y-67932200D01*
X86410713Y-67932200D02*
X86458332Y-67884580D01*
X54025594Y-87029819D02*
X54025594Y-86029819D01*
X54025594Y-86029819D02*
X53787499Y-86029819D01*
X53787499Y-86029819D02*
X53644642Y-86077438D01*
X53644642Y-86077438D02*
X53549404Y-86172676D01*
X53549404Y-86172676D02*
X53501785Y-86267914D01*
X53501785Y-86267914D02*
X53454166Y-86458390D01*
X53454166Y-86458390D02*
X53454166Y-86601247D01*
X53454166Y-86601247D02*
X53501785Y-86791723D01*
X53501785Y-86791723D02*
X53549404Y-86886961D01*
X53549404Y-86886961D02*
X53644642Y-86982200D01*
X53644642Y-86982200D02*
X53787499Y-87029819D01*
X53787499Y-87029819D02*
X54025594Y-87029819D01*
X52882737Y-86458390D02*
X52977975Y-86410771D01*
X52977975Y-86410771D02*
X53025594Y-86363152D01*
X53025594Y-86363152D02*
X53073213Y-86267914D01*
X53073213Y-86267914D02*
X53073213Y-86220295D01*
X53073213Y-86220295D02*
X53025594Y-86125057D01*
X53025594Y-86125057D02*
X52977975Y-86077438D01*
X52977975Y-86077438D02*
X52882737Y-86029819D01*
X52882737Y-86029819D02*
X52692261Y-86029819D01*
X52692261Y-86029819D02*
X52597023Y-86077438D01*
X52597023Y-86077438D02*
X52549404Y-86125057D01*
X52549404Y-86125057D02*
X52501785Y-86220295D01*
X52501785Y-86220295D02*
X52501785Y-86267914D01*
X52501785Y-86267914D02*
X52549404Y-86363152D01*
X52549404Y-86363152D02*
X52597023Y-86410771D01*
X52597023Y-86410771D02*
X52692261Y-86458390D01*
X52692261Y-86458390D02*
X52882737Y-86458390D01*
X52882737Y-86458390D02*
X52977975Y-86506009D01*
X52977975Y-86506009D02*
X53025594Y-86553628D01*
X53025594Y-86553628D02*
X53073213Y-86648866D01*
X53073213Y-86648866D02*
X53073213Y-86839342D01*
X53073213Y-86839342D02*
X53025594Y-86934580D01*
X53025594Y-86934580D02*
X52977975Y-86982200D01*
X52977975Y-86982200D02*
X52882737Y-87029819D01*
X52882737Y-87029819D02*
X52692261Y-87029819D01*
X52692261Y-87029819D02*
X52597023Y-86982200D01*
X52597023Y-86982200D02*
X52549404Y-86934580D01*
X52549404Y-86934580D02*
X52501785Y-86839342D01*
X52501785Y-86839342D02*
X52501785Y-86648866D01*
X52501785Y-86648866D02*
X52549404Y-86553628D01*
X52549404Y-86553628D02*
X52597023Y-86506009D01*
X52597023Y-86506009D02*
X52692261Y-86458390D01*
%TO.C,SW23*%
D10*
X103162500Y-140450000D02*
X103162500Y-136500000D01*
X103537500Y-136125000D02*
X107012500Y-136125000D01*
X103537500Y-140825000D02*
X105837305Y-140825000D01*
X107962500Y-142925000D02*
X107462500Y-142425000D01*
X109112500Y-138225000D02*
X112212500Y-138225000D01*
X112212500Y-142925000D02*
X107962500Y-142925000D01*
X112712500Y-138725000D02*
X112212500Y-138225000D01*
X112712500Y-138725000D02*
X112712500Y-142425000D01*
X112712500Y-142425000D02*
X112212500Y-142925000D01*
X103162500Y-136500000D02*
G75*
G02*
X103537500Y-136125000I375000J0D01*
G01*
X103537500Y-140825000D02*
G75*
G02*
X103162500Y-140450000I0J375000D01*
G01*
X105837305Y-140825000D02*
G75*
G02*
X107462499Y-142425000I25000J-1599999D01*
G01*
X107012500Y-136125000D02*
G75*
G02*
X107387500Y-136500000I0J-375000D01*
G01*
X109112500Y-138225000D02*
G75*
G02*
X107387500Y-136500000I1J1725001D01*
G01*
%TO.C,SW17*%
X112687500Y-121400000D02*
X112687500Y-117450000D01*
X113062500Y-117075000D02*
X116537500Y-117075000D01*
X113062500Y-121775000D02*
X115362305Y-121775000D01*
X117487500Y-123875000D02*
X116987500Y-123375000D01*
X118637500Y-119175000D02*
X121737500Y-119175000D01*
X121737500Y-123875000D02*
X117487500Y-123875000D01*
X122237500Y-119675000D02*
X121737500Y-119175000D01*
X122237500Y-119675000D02*
X122237500Y-123375000D01*
X122237500Y-123375000D02*
X121737500Y-123875000D01*
X112687500Y-117450000D02*
G75*
G02*
X113062500Y-117075000I375000J0D01*
G01*
X113062500Y-121775000D02*
G75*
G02*
X112687500Y-121400000I0J375000D01*
G01*
X115362305Y-121775000D02*
G75*
G02*
X116987499Y-123375000I25000J-1599999D01*
G01*
X116537500Y-117075000D02*
G75*
G02*
X116912500Y-117450000I0J-375000D01*
G01*
X118637500Y-119175000D02*
G75*
G02*
X116912500Y-117450000I1J1725001D01*
G01*
%TO.C,SW29*%
X91256300Y-159500000D02*
X91256300Y-155550000D01*
X91631300Y-155175000D02*
X95106300Y-155175000D01*
X91631300Y-159875000D02*
X93931105Y-159875000D01*
X96056300Y-161975000D02*
X95556300Y-161475000D01*
X97206300Y-157275000D02*
X100306300Y-157275000D01*
X100306300Y-161975000D02*
X96056300Y-161975000D01*
X100806300Y-157775000D02*
X100306300Y-157275000D01*
X100806300Y-157775000D02*
X100806300Y-161475000D01*
X100806300Y-161475000D02*
X100306300Y-161975000D01*
X91256300Y-155550000D02*
G75*
G02*
X91631300Y-155175000I375000J0D01*
G01*
X91631300Y-159875000D02*
G75*
G02*
X91256300Y-159500000I0J375000D01*
G01*
X93931105Y-159875000D02*
G75*
G02*
X95556299Y-161475000I25000J-1599999D01*
G01*
X95106300Y-155175000D02*
G75*
G02*
X95481300Y-155550000I0J-375000D01*
G01*
X97206300Y-157275000D02*
G75*
G02*
X95481300Y-155550000I1J1725001D01*
G01*
%TO.C,SW25*%
X141262500Y-140450000D02*
X141262500Y-136500000D01*
X141637500Y-136125000D02*
X145112500Y-136125000D01*
X141637500Y-140825000D02*
X143937305Y-140825000D01*
X146062500Y-142925000D02*
X145562500Y-142425000D01*
X147212500Y-138225000D02*
X150312500Y-138225000D01*
X150312500Y-142925000D02*
X146062500Y-142925000D01*
X150812500Y-138725000D02*
X150312500Y-138225000D01*
X150812500Y-138725000D02*
X150812500Y-142425000D01*
X150812500Y-142425000D02*
X150312500Y-142925000D01*
X141262500Y-136500000D02*
G75*
G02*
X141637500Y-136125000I375000J0D01*
G01*
X141637500Y-140825000D02*
G75*
G02*
X141262500Y-140450000I0J375000D01*
G01*
X143937305Y-140825000D02*
G75*
G02*
X145562499Y-142425000I25000J-1599999D01*
G01*
X145112500Y-136125000D02*
G75*
G02*
X145487500Y-136500000I0J-375000D01*
G01*
X147212500Y-138225000D02*
G75*
G02*
X145487500Y-136500000I1J1725001D01*
G01*
%TO.C,SW6*%
X136500000Y-83300000D02*
X136500000Y-79350000D01*
X136875000Y-78975000D02*
X140350000Y-78975000D01*
X136875000Y-83675000D02*
X139174805Y-83675000D01*
X141300000Y-85775000D02*
X140800000Y-85275000D01*
X142450000Y-81075000D02*
X145550000Y-81075000D01*
X145550000Y-85775000D02*
X141300000Y-85775000D01*
X146050000Y-81575000D02*
X145550000Y-81075000D01*
X146050000Y-81575000D02*
X146050000Y-85275000D01*
X146050000Y-85275000D02*
X145550000Y-85775000D01*
X136500000Y-79350000D02*
G75*
G02*
X136875000Y-78975000I375000J0D01*
G01*
X136875000Y-83675000D02*
G75*
G02*
X136500000Y-83300000I0J375000D01*
G01*
X139174805Y-83675000D02*
G75*
G02*
X140799999Y-85275000I25000J-1599999D01*
G01*
X140350000Y-78975000D02*
G75*
G02*
X140725000Y-79350000I0J-375000D01*
G01*
X142450000Y-81075000D02*
G75*
G02*
X140725000Y-79350000I1J1725001D01*
G01*
%TO.C,SW5*%
X117450000Y-83300000D02*
X117450000Y-79350000D01*
X117825000Y-78975000D02*
X121300000Y-78975000D01*
X117825000Y-83675000D02*
X120124805Y-83675000D01*
X122250000Y-85775000D02*
X121750000Y-85275000D01*
X123400000Y-81075000D02*
X126500000Y-81075000D01*
X126500000Y-85775000D02*
X122250000Y-85775000D01*
X127000000Y-81575000D02*
X126500000Y-81075000D01*
X127000000Y-81575000D02*
X127000000Y-85275000D01*
X127000000Y-85275000D02*
X126500000Y-85775000D01*
X117450000Y-79350000D02*
G75*
G02*
X117825000Y-78975000I375000J0D01*
G01*
X117825000Y-83675000D02*
G75*
G02*
X117450000Y-83300000I0J375000D01*
G01*
X120124805Y-83675000D02*
G75*
G02*
X121749999Y-85275000I25000J-1599999D01*
G01*
X121300000Y-78975000D02*
G75*
G02*
X121675000Y-79350000I0J-375000D01*
G01*
X123400000Y-81075000D02*
G75*
G02*
X121675000Y-79350000I1J1725001D01*
G01*
%TO.C,SW28*%
X67443800Y-159500000D02*
X67443800Y-155550000D01*
X67818800Y-155175000D02*
X71293800Y-155175000D01*
X67818800Y-159875000D02*
X70118605Y-159875000D01*
X72243800Y-161975000D02*
X71743800Y-161475000D01*
X73393800Y-157275000D02*
X76493800Y-157275000D01*
X76493800Y-161975000D02*
X72243800Y-161975000D01*
X76993800Y-157775000D02*
X76493800Y-157275000D01*
X76993800Y-157775000D02*
X76993800Y-161475000D01*
X76993800Y-161475000D02*
X76493800Y-161975000D01*
X67443800Y-155550000D02*
G75*
G02*
X67818800Y-155175000I375000J0D01*
G01*
X67818800Y-159875000D02*
G75*
G02*
X67443800Y-159500000I0J375000D01*
G01*
X70118605Y-159875000D02*
G75*
G02*
X71743799Y-161475000I25000J-1599999D01*
G01*
X71293800Y-155175000D02*
G75*
G02*
X71668800Y-155550000I0J-375000D01*
G01*
X73393800Y-157275000D02*
G75*
G02*
X71668800Y-155550000I1J1725001D01*
G01*
%TO.C,SW7*%
X155550000Y-83300000D02*
X155550000Y-79350000D01*
X155925000Y-78975000D02*
X159400000Y-78975000D01*
X155925000Y-83675000D02*
X158224805Y-83675000D01*
X160350000Y-85775000D02*
X159850000Y-85275000D01*
X161500000Y-81075000D02*
X164600000Y-81075000D01*
X164600000Y-85775000D02*
X160350000Y-85775000D01*
X165100000Y-81575000D02*
X164600000Y-81075000D01*
X165100000Y-81575000D02*
X165100000Y-85275000D01*
X165100000Y-85275000D02*
X164600000Y-85775000D01*
X155550000Y-79350000D02*
G75*
G02*
X155925000Y-78975000I375000J0D01*
G01*
X155925000Y-83675000D02*
G75*
G02*
X155550000Y-83300000I0J375000D01*
G01*
X158224805Y-83675000D02*
G75*
G02*
X159849999Y-85275000I25000J-1599999D01*
G01*
X159400000Y-78975000D02*
G75*
G02*
X159775000Y-79350000I0J-375000D01*
G01*
X161500000Y-81075000D02*
G75*
G02*
X159775000Y-79350000I1J1725001D01*
G01*
%TO.C,SW10*%
X88875000Y-102350000D02*
X88875000Y-98400000D01*
X89250000Y-98025000D02*
X92725000Y-98025000D01*
X89250000Y-102725000D02*
X91549805Y-102725000D01*
X93675000Y-104825000D02*
X93175000Y-104325000D01*
X94825000Y-100125000D02*
X97925000Y-100125000D01*
X97925000Y-104825000D02*
X93675000Y-104825000D01*
X98425000Y-100625000D02*
X97925000Y-100125000D01*
X98425000Y-100625000D02*
X98425000Y-104325000D01*
X98425000Y-104325000D02*
X97925000Y-104825000D01*
X88875000Y-98400000D02*
G75*
G02*
X89250000Y-98025000I375000J0D01*
G01*
X89250000Y-102725000D02*
G75*
G02*
X88875000Y-102350000I0J375000D01*
G01*
X91549805Y-102725000D02*
G75*
G02*
X93174999Y-104325000I25000J-1599999D01*
G01*
X92725000Y-98025000D02*
G75*
G02*
X93100000Y-98400000I0J-375000D01*
G01*
X94825000Y-100125000D02*
G75*
G02*
X93100000Y-98400000I1J1725001D01*
G01*
%TO.C,SW24*%
X122212500Y-140450000D02*
X122212500Y-136500000D01*
X122587500Y-136125000D02*
X126062500Y-136125000D01*
X122587500Y-140825000D02*
X124887305Y-140825000D01*
X127012500Y-142925000D02*
X126512500Y-142425000D01*
X128162500Y-138225000D02*
X131262500Y-138225000D01*
X131262500Y-142925000D02*
X127012500Y-142925000D01*
X131762500Y-138725000D02*
X131262500Y-138225000D01*
X131762500Y-138725000D02*
X131762500Y-142425000D01*
X131762500Y-142425000D02*
X131262500Y-142925000D01*
X122212500Y-136500000D02*
G75*
G02*
X122587500Y-136125000I375000J0D01*
G01*
X122587500Y-140825000D02*
G75*
G02*
X122212500Y-140450000I0J375000D01*
G01*
X124887305Y-140825000D02*
G75*
G02*
X126512499Y-142425000I25000J-1599999D01*
G01*
X126062500Y-136125000D02*
G75*
G02*
X126437500Y-136500000I0J-375000D01*
G01*
X128162500Y-138225000D02*
G75*
G02*
X126437500Y-136500000I1J1725001D01*
G01*
%TO.C,SW8*%
X46012500Y-102350000D02*
X46012500Y-98400000D01*
X46387500Y-98025000D02*
X49862500Y-98025000D01*
X46387500Y-102725000D02*
X48687305Y-102725000D01*
X50812500Y-104825000D02*
X50312500Y-104325000D01*
X51962500Y-100125000D02*
X55062500Y-100125000D01*
X55062500Y-104825000D02*
X50812500Y-104825000D01*
X55562500Y-100625000D02*
X55062500Y-100125000D01*
X55562500Y-100625000D02*
X55562500Y-104325000D01*
X55562500Y-104325000D02*
X55062500Y-104825000D01*
X46012500Y-98400000D02*
G75*
G02*
X46387500Y-98025000I375000J0D01*
G01*
X46387500Y-102725000D02*
G75*
G02*
X46012500Y-102350000I0J375000D01*
G01*
X48687305Y-102725000D02*
G75*
G02*
X50312499Y-104325000I25000J-1599999D01*
G01*
X49862500Y-98025000D02*
G75*
G02*
X50237500Y-98400000I0J-375000D01*
G01*
X51962500Y-100125000D02*
G75*
G02*
X50237500Y-98400000I1J1725001D01*
G01*
%TO.C,SW32*%
X157931300Y-159500000D02*
X157931300Y-155550000D01*
X158306300Y-155175000D02*
X161781300Y-155175000D01*
X158306300Y-159875000D02*
X160606105Y-159875000D01*
X162731300Y-161975000D02*
X162231300Y-161475000D01*
X163881300Y-157275000D02*
X166981300Y-157275000D01*
X166981300Y-161975000D02*
X162731300Y-161975000D01*
X167481300Y-157775000D02*
X166981300Y-157275000D01*
X167481300Y-157775000D02*
X167481300Y-161475000D01*
X167481300Y-161475000D02*
X166981300Y-161975000D01*
X157931300Y-155550000D02*
G75*
G02*
X158306300Y-155175000I375000J0D01*
G01*
X158306300Y-159875000D02*
G75*
G02*
X157931300Y-159500000I0J375000D01*
G01*
X160606105Y-159875000D02*
G75*
G02*
X162231299Y-161475000I25000J-1599999D01*
G01*
X161781300Y-155175000D02*
G75*
G02*
X162156300Y-155550000I0J-375000D01*
G01*
X163881300Y-157275000D02*
G75*
G02*
X162156300Y-155550000I1J1725001D01*
G01*
%TO.C,SW27*%
X43631300Y-159500000D02*
X43631300Y-155550000D01*
X44006300Y-155175000D02*
X47481300Y-155175000D01*
X44006300Y-159875000D02*
X46306105Y-159875000D01*
X48431300Y-161975000D02*
X47931300Y-161475000D01*
X49581300Y-157275000D02*
X52681300Y-157275000D01*
X52681300Y-161975000D02*
X48431300Y-161975000D01*
X53181300Y-157775000D02*
X52681300Y-157275000D01*
X53181300Y-157775000D02*
X53181300Y-161475000D01*
X53181300Y-161475000D02*
X52681300Y-161975000D01*
X43631300Y-155550000D02*
G75*
G02*
X44006300Y-155175000I375000J0D01*
G01*
X44006300Y-159875000D02*
G75*
G02*
X43631300Y-159500000I0J375000D01*
G01*
X46306105Y-159875000D02*
G75*
G02*
X47931299Y-161475000I25000J-1599999D01*
G01*
X47481300Y-155175000D02*
G75*
G02*
X47856300Y-155550000I0J-375000D01*
G01*
X49581300Y-157275000D02*
G75*
G02*
X47856300Y-155550000I1J1725001D01*
G01*
%TO.C,SW11*%
X107925000Y-102350000D02*
X107925000Y-98400000D01*
X108300000Y-98025000D02*
X111775000Y-98025000D01*
X108300000Y-102725000D02*
X110599805Y-102725000D01*
X112725000Y-104825000D02*
X112225000Y-104325000D01*
X113875000Y-100125000D02*
X116975000Y-100125000D01*
X116975000Y-104825000D02*
X112725000Y-104825000D01*
X117475000Y-100625000D02*
X116975000Y-100125000D01*
X117475000Y-100625000D02*
X117475000Y-104325000D01*
X117475000Y-104325000D02*
X116975000Y-104825000D01*
X107925000Y-98400000D02*
G75*
G02*
X108300000Y-98025000I375000J0D01*
G01*
X108300000Y-102725000D02*
G75*
G02*
X107925000Y-102350000I0J375000D01*
G01*
X110599805Y-102725000D02*
G75*
G02*
X112224999Y-104325000I25000J-1599999D01*
G01*
X111775000Y-98025000D02*
G75*
G02*
X112150000Y-98400000I0J-375000D01*
G01*
X113875000Y-100125000D02*
G75*
G02*
X112150000Y-98400000I1J1725001D01*
G01*
%TO.C,SW16*%
X93637500Y-121400000D02*
X93637500Y-117450000D01*
X94012500Y-117075000D02*
X97487500Y-117075000D01*
X94012500Y-121775000D02*
X96312305Y-121775000D01*
X98437500Y-123875000D02*
X97937500Y-123375000D01*
X99587500Y-119175000D02*
X102687500Y-119175000D01*
X102687500Y-123875000D02*
X98437500Y-123875000D01*
X103187500Y-119675000D02*
X102687500Y-119175000D01*
X103187500Y-119675000D02*
X103187500Y-123375000D01*
X103187500Y-123375000D02*
X102687500Y-123875000D01*
X93637500Y-117450000D02*
G75*
G02*
X94012500Y-117075000I375000J0D01*
G01*
X94012500Y-121775000D02*
G75*
G02*
X93637500Y-121400000I0J375000D01*
G01*
X96312305Y-121775000D02*
G75*
G02*
X97937499Y-123375000I25000J-1599999D01*
G01*
X97487500Y-117075000D02*
G75*
G02*
X97862500Y-117450000I0J-375000D01*
G01*
X99587500Y-119175000D02*
G75*
G02*
X97862500Y-117450000I1J1725001D01*
G01*
%TO.C,SW26*%
X160312500Y-140450000D02*
X160312500Y-136500000D01*
X160687500Y-136125000D02*
X164162500Y-136125000D01*
X160687500Y-140825000D02*
X162987305Y-140825000D01*
X165112500Y-142925000D02*
X164612500Y-142425000D01*
X166262500Y-138225000D02*
X169362500Y-138225000D01*
X169362500Y-142925000D02*
X165112500Y-142925000D01*
X169862500Y-138725000D02*
X169362500Y-138225000D01*
X169862500Y-138725000D02*
X169862500Y-142425000D01*
X169862500Y-142425000D02*
X169362500Y-142925000D01*
X160312500Y-136500000D02*
G75*
G02*
X160687500Y-136125000I375000J0D01*
G01*
X160687500Y-140825000D02*
G75*
G02*
X160312500Y-140450000I0J375000D01*
G01*
X162987305Y-140825000D02*
G75*
G02*
X164612499Y-142425000I25000J-1599999D01*
G01*
X164162500Y-136125000D02*
G75*
G02*
X164537500Y-136500000I0J-375000D01*
G01*
X166262500Y-138225000D02*
G75*
G02*
X164537500Y-136500000I1J1725001D01*
G01*
%TO.C,SW22*%
X84112500Y-140450000D02*
X84112500Y-136500000D01*
X84487500Y-136125000D02*
X87962500Y-136125000D01*
X84487500Y-140825000D02*
X86787305Y-140825000D01*
X88912500Y-142925000D02*
X88412500Y-142425000D01*
X90062500Y-138225000D02*
X93162500Y-138225000D01*
X93162500Y-142925000D02*
X88912500Y-142925000D01*
X93662500Y-138725000D02*
X93162500Y-138225000D01*
X93662500Y-138725000D02*
X93662500Y-142425000D01*
X93662500Y-142425000D02*
X93162500Y-142925000D01*
X84112500Y-136500000D02*
G75*
G02*
X84487500Y-136125000I375000J0D01*
G01*
X84487500Y-140825000D02*
G75*
G02*
X84112500Y-140450000I0J375000D01*
G01*
X86787305Y-140825000D02*
G75*
G02*
X88412499Y-142425000I25000J-1599999D01*
G01*
X87962500Y-136125000D02*
G75*
G02*
X88337500Y-136500000I0J-375000D01*
G01*
X90062500Y-138225000D02*
G75*
G02*
X88337500Y-136500000I1J1725001D01*
G01*
%TO.C,SW21*%
X65062500Y-140450000D02*
X65062500Y-136500000D01*
X65437500Y-136125000D02*
X68912500Y-136125000D01*
X65437500Y-140825000D02*
X67737305Y-140825000D01*
X69862500Y-142925000D02*
X69362500Y-142425000D01*
X71012500Y-138225000D02*
X74112500Y-138225000D01*
X74112500Y-142925000D02*
X69862500Y-142925000D01*
X74612500Y-138725000D02*
X74112500Y-138225000D01*
X74612500Y-138725000D02*
X74612500Y-142425000D01*
X74612500Y-142425000D02*
X74112500Y-142925000D01*
X65062500Y-136500000D02*
G75*
G02*
X65437500Y-136125000I375000J0D01*
G01*
X65437500Y-140825000D02*
G75*
G02*
X65062500Y-140450000I0J375000D01*
G01*
X67737305Y-140825000D02*
G75*
G02*
X69362499Y-142425000I25000J-1599999D01*
G01*
X68912500Y-136125000D02*
G75*
G02*
X69287500Y-136500000I0J-375000D01*
G01*
X71012500Y-138225000D02*
G75*
G02*
X69287500Y-136500000I1J1725001D01*
G01*
%TO.C,SW9*%
X69825000Y-102350000D02*
X69825000Y-98400000D01*
X70200000Y-98025000D02*
X73675000Y-98025000D01*
X70200000Y-102725000D02*
X72499805Y-102725000D01*
X74625000Y-104825000D02*
X74125000Y-104325000D01*
X75775000Y-100125000D02*
X78875000Y-100125000D01*
X78875000Y-104825000D02*
X74625000Y-104825000D01*
X79375000Y-100625000D02*
X78875000Y-100125000D01*
X79375000Y-100625000D02*
X79375000Y-104325000D01*
X79375000Y-104325000D02*
X78875000Y-104825000D01*
X69825000Y-98400000D02*
G75*
G02*
X70200000Y-98025000I375000J0D01*
G01*
X70200000Y-102725000D02*
G75*
G02*
X69825000Y-102350000I0J375000D01*
G01*
X72499805Y-102725000D02*
G75*
G02*
X74124999Y-104325000I25000J-1599999D01*
G01*
X73675000Y-98025000D02*
G75*
G02*
X74050000Y-98400000I0J-375000D01*
G01*
X75775000Y-100125000D02*
G75*
G02*
X74050000Y-98400000I1J1725001D01*
G01*
%TO.C,SW31*%
X136500000Y-159500000D02*
X136500000Y-155550000D01*
X136875000Y-155175000D02*
X140350000Y-155175000D01*
X136875000Y-159875000D02*
X139174805Y-159875000D01*
X141300000Y-161975000D02*
X140800000Y-161475000D01*
X142450000Y-157275000D02*
X145550000Y-157275000D01*
X145550000Y-161975000D02*
X141300000Y-161975000D01*
X146050000Y-157775000D02*
X145550000Y-157275000D01*
X146050000Y-157775000D02*
X146050000Y-161475000D01*
X146050000Y-161475000D02*
X145550000Y-161975000D01*
X136500000Y-155550000D02*
G75*
G02*
X136875000Y-155175000I375000J0D01*
G01*
X136875000Y-159875000D02*
G75*
G02*
X136500000Y-159500000I0J375000D01*
G01*
X139174805Y-159875000D02*
G75*
G02*
X140799999Y-161475000I25000J-1599999D01*
G01*
X140350000Y-155175000D02*
G75*
G02*
X140725000Y-155550000I0J-375000D01*
G01*
X142450000Y-157275000D02*
G75*
G02*
X140725000Y-155550000I1J1725001D01*
G01*
%TO.C,SW19*%
X150787500Y-121400000D02*
X150787500Y-117450000D01*
X151162500Y-117075000D02*
X154637500Y-117075000D01*
X151162500Y-121775000D02*
X153462305Y-121775000D01*
X155587500Y-123875000D02*
X155087500Y-123375000D01*
X156737500Y-119175000D02*
X159837500Y-119175000D01*
X159837500Y-123875000D02*
X155587500Y-123875000D01*
X160337500Y-119675000D02*
X159837500Y-119175000D01*
X160337500Y-119675000D02*
X160337500Y-123375000D01*
X160337500Y-123375000D02*
X159837500Y-123875000D01*
X150787500Y-117450000D02*
G75*
G02*
X151162500Y-117075000I375000J0D01*
G01*
X151162500Y-121775000D02*
G75*
G02*
X150787500Y-121400000I0J375000D01*
G01*
X153462305Y-121775000D02*
G75*
G02*
X155087499Y-123375000I25000J-1599999D01*
G01*
X154637500Y-117075000D02*
G75*
G02*
X155012500Y-117450000I0J-375000D01*
G01*
X156737500Y-119175000D02*
G75*
G02*
X155012500Y-117450000I1J1725001D01*
G01*
%TO.C,SW18*%
X131737500Y-121400000D02*
X131737500Y-117450000D01*
X132112500Y-117075000D02*
X135587500Y-117075000D01*
X132112500Y-121775000D02*
X134412305Y-121775000D01*
X136537500Y-123875000D02*
X136037500Y-123375000D01*
X137687500Y-119175000D02*
X140787500Y-119175000D01*
X140787500Y-123875000D02*
X136537500Y-123875000D01*
X141287500Y-119675000D02*
X140787500Y-119175000D01*
X141287500Y-119675000D02*
X141287500Y-123375000D01*
X141287500Y-123375000D02*
X140787500Y-123875000D01*
X131737500Y-117450000D02*
G75*
G02*
X132112500Y-117075000I375000J0D01*
G01*
X132112500Y-121775000D02*
G75*
G02*
X131737500Y-121400000I0J375000D01*
G01*
X134412305Y-121775000D02*
G75*
G02*
X136037499Y-123375000I25000J-1599999D01*
G01*
X135587500Y-117075000D02*
G75*
G02*
X135962500Y-117450000I0J-375000D01*
G01*
X137687500Y-119175000D02*
G75*
G02*
X135962500Y-117450000I1J1725001D01*
G01*
%TO.C,SW15*%
X74587500Y-121400000D02*
X74587500Y-117450000D01*
X74962500Y-117075000D02*
X78437500Y-117075000D01*
X74962500Y-121775000D02*
X77262305Y-121775000D01*
X79387500Y-123875000D02*
X78887500Y-123375000D01*
X80537500Y-119175000D02*
X83637500Y-119175000D01*
X83637500Y-123875000D02*
X79387500Y-123875000D01*
X84137500Y-119675000D02*
X83637500Y-119175000D01*
X84137500Y-119675000D02*
X84137500Y-123375000D01*
X84137500Y-123375000D02*
X83637500Y-123875000D01*
X74587500Y-117450000D02*
G75*
G02*
X74962500Y-117075000I375000J0D01*
G01*
X74962500Y-121775000D02*
G75*
G02*
X74587500Y-121400000I0J375000D01*
G01*
X77262305Y-121775000D02*
G75*
G02*
X78887499Y-123375000I25000J-1599999D01*
G01*
X78437500Y-117075000D02*
G75*
G02*
X78812500Y-117450000I0J-375000D01*
G01*
X80537500Y-119175000D02*
G75*
G02*
X78812500Y-117450000I1J1725001D01*
G01*
%TO.C,SW20*%
X43631300Y-140450000D02*
X43631300Y-136500000D01*
X44006300Y-136125000D02*
X47481300Y-136125000D01*
X44006300Y-140825000D02*
X46306105Y-140825000D01*
X48431300Y-142925000D02*
X47931300Y-142425000D01*
X49581300Y-138225000D02*
X52681300Y-138225000D01*
X52681300Y-142925000D02*
X48431300Y-142925000D01*
X53181300Y-138725000D02*
X52681300Y-138225000D01*
X53181300Y-138725000D02*
X53181300Y-142425000D01*
X53181300Y-142425000D02*
X52681300Y-142925000D01*
X43631300Y-136500000D02*
G75*
G02*
X44006300Y-136125000I375000J0D01*
G01*
X44006300Y-140825000D02*
G75*
G02*
X43631300Y-140450000I0J375000D01*
G01*
X46306105Y-140825000D02*
G75*
G02*
X47931299Y-142425000I25000J-1599999D01*
G01*
X47481300Y-136125000D02*
G75*
G02*
X47856300Y-136500000I0J-375000D01*
G01*
X49581300Y-138225000D02*
G75*
G02*
X47856300Y-136500000I1J1725001D01*
G01*
%TO.C,SW3*%
X79350000Y-83300000D02*
X79350000Y-79350000D01*
X79725000Y-78975000D02*
X83200000Y-78975000D01*
X79725000Y-83675000D02*
X82024805Y-83675000D01*
X84150000Y-85775000D02*
X83650000Y-85275000D01*
X85300000Y-81075000D02*
X88400000Y-81075000D01*
X88400000Y-85775000D02*
X84150000Y-85775000D01*
X88900000Y-81575000D02*
X88400000Y-81075000D01*
X88900000Y-81575000D02*
X88900000Y-85275000D01*
X88900000Y-85275000D02*
X88400000Y-85775000D01*
X79350000Y-79350000D02*
G75*
G02*
X79725000Y-78975000I375000J0D01*
G01*
X79725000Y-83675000D02*
G75*
G02*
X79350000Y-83300000I0J375000D01*
G01*
X82024805Y-83675000D02*
G75*
G02*
X83649999Y-85275000I25000J-1599999D01*
G01*
X83200000Y-78975000D02*
G75*
G02*
X83575000Y-79350000I0J-375000D01*
G01*
X85300000Y-81075000D02*
G75*
G02*
X83575000Y-79350000I1J1725001D01*
G01*
%TO.C,SW12*%
X126975000Y-102350000D02*
X126975000Y-98400000D01*
X127350000Y-98025000D02*
X130825000Y-98025000D01*
X127350000Y-102725000D02*
X129649805Y-102725000D01*
X131775000Y-104825000D02*
X131275000Y-104325000D01*
X132925000Y-100125000D02*
X136025000Y-100125000D01*
X136025000Y-104825000D02*
X131775000Y-104825000D01*
X136525000Y-100625000D02*
X136025000Y-100125000D01*
X136525000Y-100625000D02*
X136525000Y-104325000D01*
X136525000Y-104325000D02*
X136025000Y-104825000D01*
X126975000Y-98400000D02*
G75*
G02*
X127350000Y-98025000I375000J0D01*
G01*
X127350000Y-102725000D02*
G75*
G02*
X126975000Y-102350000I0J375000D01*
G01*
X129649805Y-102725000D02*
G75*
G02*
X131274999Y-104325000I25000J-1599999D01*
G01*
X130825000Y-98025000D02*
G75*
G02*
X131200000Y-98400000I0J-375000D01*
G01*
X132925000Y-100125000D02*
G75*
G02*
X131200000Y-98400000I1J1725001D01*
G01*
%TO.C,SW4*%
X98400000Y-83300000D02*
X98400000Y-79350000D01*
X98775000Y-78975000D02*
X102250000Y-78975000D01*
X98775000Y-83675000D02*
X101074805Y-83675000D01*
X103200000Y-85775000D02*
X102700000Y-85275000D01*
X104350000Y-81075000D02*
X107450000Y-81075000D01*
X107450000Y-85775000D02*
X103200000Y-85775000D01*
X107950000Y-81575000D02*
X107450000Y-81075000D01*
X107950000Y-81575000D02*
X107950000Y-85275000D01*
X107950000Y-85275000D02*
X107450000Y-85775000D01*
X98400000Y-79350000D02*
G75*
G02*
X98775000Y-78975000I375000J0D01*
G01*
X98775000Y-83675000D02*
G75*
G02*
X98400000Y-83300000I0J375000D01*
G01*
X101074805Y-83675000D02*
G75*
G02*
X102699999Y-85275000I25000J-1599999D01*
G01*
X102250000Y-78975000D02*
G75*
G02*
X102625000Y-79350000I0J-375000D01*
G01*
X104350000Y-81075000D02*
G75*
G02*
X102625000Y-79350000I1J1725001D01*
G01*
%TO.C,SW1*%
X41250000Y-83300000D02*
X41250000Y-79350000D01*
X41625000Y-78975000D02*
X45100000Y-78975000D01*
X41625000Y-83675000D02*
X43924805Y-83675000D01*
X46050000Y-85775000D02*
X45550000Y-85275000D01*
X47200000Y-81075000D02*
X50300000Y-81075000D01*
X50300000Y-85775000D02*
X46050000Y-85775000D01*
X50800000Y-81575000D02*
X50300000Y-81075000D01*
X50800000Y-81575000D02*
X50800000Y-85275000D01*
X50800000Y-85275000D02*
X50300000Y-85775000D01*
X41250000Y-79350000D02*
G75*
G02*
X41625000Y-78975000I375000J0D01*
G01*
X41625000Y-83675000D02*
G75*
G02*
X41250000Y-83300000I0J375000D01*
G01*
X43924805Y-83675000D02*
G75*
G02*
X45549999Y-85275000I25000J-1599999D01*
G01*
X45100000Y-78975000D02*
G75*
G02*
X45475000Y-79350000I0J-375000D01*
G01*
X47200000Y-81075000D02*
G75*
G02*
X45475000Y-79350000I1J1725001D01*
G01*
%TO.C,SW14*%
X48393800Y-121400000D02*
X48393800Y-117450000D01*
X48768800Y-117075000D02*
X52243800Y-117075000D01*
X48768800Y-121775000D02*
X51068605Y-121775000D01*
X53193800Y-123875000D02*
X52693800Y-123375000D01*
X54343800Y-119175000D02*
X57443800Y-119175000D01*
X57443800Y-123875000D02*
X53193800Y-123875000D01*
X57943800Y-119675000D02*
X57443800Y-119175000D01*
X57943800Y-119675000D02*
X57943800Y-123375000D01*
X57943800Y-123375000D02*
X57443800Y-123875000D01*
X48393800Y-117450000D02*
G75*
G02*
X48768800Y-117075000I375000J0D01*
G01*
X48768800Y-121775000D02*
G75*
G02*
X48393800Y-121400000I0J375000D01*
G01*
X51068605Y-121775000D02*
G75*
G02*
X52693799Y-123375000I25000J-1599999D01*
G01*
X52243800Y-117075000D02*
G75*
G02*
X52618800Y-117450000I0J-375000D01*
G01*
X54343800Y-119175000D02*
G75*
G02*
X52618800Y-117450000I1J1725001D01*
G01*
%TO.C,SW2*%
X60300000Y-83300000D02*
X60300000Y-79350000D01*
X60675000Y-78975000D02*
X64150000Y-78975000D01*
X60675000Y-83675000D02*
X62974805Y-83675000D01*
X65100000Y-85775000D02*
X64600000Y-85275000D01*
X66250000Y-81075000D02*
X69350000Y-81075000D01*
X69350000Y-85775000D02*
X65100000Y-85775000D01*
X69850000Y-81575000D02*
X69350000Y-81075000D01*
X69850000Y-81575000D02*
X69850000Y-85275000D01*
X69850000Y-85275000D02*
X69350000Y-85775000D01*
X60300000Y-79350000D02*
G75*
G02*
X60675000Y-78975000I375000J0D01*
G01*
X60675000Y-83675000D02*
G75*
G02*
X60300000Y-83300000I0J375000D01*
G01*
X62974805Y-83675000D02*
G75*
G02*
X64599999Y-85275000I25000J-1599999D01*
G01*
X64150000Y-78975000D02*
G75*
G02*
X64525000Y-79350000I0J-375000D01*
G01*
X66250000Y-81075000D02*
G75*
G02*
X64525000Y-79350000I1J1725001D01*
G01*
%TO.C,SW13*%
X146025000Y-102350000D02*
X146025000Y-98400000D01*
X146400000Y-98025000D02*
X149875000Y-98025000D01*
X146400000Y-102725000D02*
X148699805Y-102725000D01*
X150825000Y-104825000D02*
X150325000Y-104325000D01*
X151975000Y-100125000D02*
X155075000Y-100125000D01*
X155075000Y-104825000D02*
X150825000Y-104825000D01*
X155575000Y-100625000D02*
X155075000Y-100125000D01*
X155575000Y-100625000D02*
X155575000Y-104325000D01*
X155575000Y-104325000D02*
X155075000Y-104825000D01*
X146025000Y-98400000D02*
G75*
G02*
X146400000Y-98025000I375000J0D01*
G01*
X146400000Y-102725000D02*
G75*
G02*
X146025000Y-102350000I0J375000D01*
G01*
X148699805Y-102725000D02*
G75*
G02*
X150324999Y-104325000I25000J-1599999D01*
G01*
X149875000Y-98025000D02*
G75*
G02*
X150250000Y-98400000I0J-375000D01*
G01*
X151975000Y-100125000D02*
G75*
G02*
X150250000Y-98400000I1J1725001D01*
G01*
%TO.C,SW30*%
X115068800Y-159500000D02*
X115068800Y-155550000D01*
X115443800Y-155175000D02*
X118918800Y-155175000D01*
X115443800Y-159875000D02*
X117743605Y-159875000D01*
X119868800Y-161975000D02*
X119368800Y-161475000D01*
X121018800Y-157275000D02*
X124118800Y-157275000D01*
X124118800Y-161975000D02*
X119868800Y-161975000D01*
X124618800Y-157775000D02*
X124118800Y-157275000D01*
X124618800Y-157775000D02*
X124618800Y-161475000D01*
X124618800Y-161475000D02*
X124118800Y-161975000D01*
X115068800Y-155550000D02*
G75*
G02*
X115443800Y-155175000I375000J0D01*
G01*
X115443800Y-159875000D02*
G75*
G02*
X115068800Y-159500000I0J375000D01*
G01*
X117743605Y-159875000D02*
G75*
G02*
X119368799Y-161475000I25000J-1599999D01*
G01*
X118918800Y-155175000D02*
G75*
G02*
X119293800Y-155550000I0J-375000D01*
G01*
X121018800Y-157275000D02*
G75*
G02*
X119293800Y-155550000I1J1725001D01*
G01*
%TD*%
%LPC*%
D13*
%TO.C,SW23*%
X104937500Y-134675000D03*
D14*
X105437500Y-138475000D03*
D15*
X110437500Y-134675000D03*
D14*
X110437500Y-140575000D03*
D13*
X115937500Y-134675000D03*
D16*
X110437500Y-128775000D03*
D17*
X114137500Y-140575000D03*
X101737500Y-138475000D03*
D16*
X115437500Y-130875000D03*
%TD*%
D13*
%TO.C,SW17*%
X114462500Y-115625000D03*
D14*
X114962500Y-119425000D03*
D15*
X119962500Y-115625000D03*
D14*
X119962500Y-121525000D03*
D13*
X125462500Y-115625000D03*
D16*
X119962500Y-109725000D03*
D17*
X123662500Y-121525000D03*
X111262500Y-119425000D03*
D16*
X124962500Y-111825000D03*
%TD*%
D13*
%TO.C,SW29*%
X93031300Y-153725000D03*
D14*
X93531300Y-157525000D03*
D15*
X98531300Y-153725000D03*
D14*
X98531300Y-159625000D03*
D13*
X104031300Y-153725000D03*
D16*
X98531300Y-147825000D03*
D17*
X102231300Y-159625000D03*
X89831300Y-157525000D03*
D16*
X103531300Y-149925000D03*
%TD*%
D13*
%TO.C,SW25*%
X143037500Y-134675000D03*
D14*
X143537500Y-138475000D03*
D15*
X148537500Y-134675000D03*
D14*
X148537500Y-140575000D03*
D13*
X154037500Y-134675000D03*
D16*
X148537500Y-128775000D03*
D17*
X152237500Y-140575000D03*
X139837500Y-138475000D03*
D16*
X153537500Y-130875000D03*
%TD*%
D14*
%TO.C,REG4*%
X66530000Y-122930000D03*
%TD*%
%TO.C,REG2*%
X124710000Y-91030000D03*
%TD*%
D13*
%TO.C,SW6*%
X138275000Y-77525000D03*
D14*
X138775000Y-81325000D03*
D15*
X143775000Y-77525000D03*
D14*
X143775000Y-83425000D03*
D13*
X149275000Y-77525000D03*
D16*
X143775000Y-71625000D03*
D17*
X147475000Y-83425000D03*
X135075000Y-81325000D03*
D16*
X148775000Y-73725000D03*
%TD*%
D14*
%TO.C,REG9*%
X137400000Y-142320000D03*
%TD*%
D13*
%TO.C,SW5*%
X119225000Y-77525000D03*
D14*
X119725000Y-81325000D03*
D15*
X124725000Y-77525000D03*
D14*
X124725000Y-83425000D03*
D13*
X130225000Y-77525000D03*
D16*
X124725000Y-71625000D03*
D17*
X128425000Y-83425000D03*
X116025000Y-81325000D03*
D16*
X129725000Y-73725000D03*
%TD*%
D18*
%TO.C,BAT_LEAD_SLOT1*%
X154082500Y-49000000D03*
%TD*%
D13*
%TO.C,SW28*%
X69218800Y-153725000D03*
D14*
X69718800Y-157525000D03*
D15*
X74718800Y-153725000D03*
D14*
X74718800Y-159625000D03*
D13*
X80218800Y-153725000D03*
D16*
X74718800Y-147825000D03*
D17*
X78418800Y-159625000D03*
X66018800Y-157525000D03*
D16*
X79718800Y-149925000D03*
%TD*%
D13*
%TO.C,SW7*%
X157325000Y-77525000D03*
D14*
X157825000Y-81325000D03*
D15*
X162825000Y-77525000D03*
D14*
X162825000Y-83425000D03*
D13*
X168325000Y-77525000D03*
D16*
X162825000Y-71625000D03*
D17*
X166525000Y-83425000D03*
X154125000Y-81325000D03*
D16*
X167825000Y-73725000D03*
%TD*%
D13*
%TO.C,SW10*%
X90650000Y-96575000D03*
D14*
X91150000Y-100375000D03*
D15*
X96150000Y-96575000D03*
D14*
X96150000Y-102475000D03*
D13*
X101650000Y-96575000D03*
D16*
X96150000Y-90675000D03*
D17*
X99850000Y-102475000D03*
X87450000Y-100375000D03*
D16*
X101150000Y-92775000D03*
%TD*%
D13*
%TO.C,SW24*%
X123987500Y-134675000D03*
D14*
X124487500Y-138475000D03*
D15*
X129487500Y-134675000D03*
D14*
X129487500Y-140575000D03*
D13*
X134987500Y-134675000D03*
D16*
X129487500Y-128775000D03*
D17*
X133187500Y-140575000D03*
X120787500Y-138475000D03*
D16*
X134487500Y-130875000D03*
%TD*%
D13*
%TO.C,SW8*%
X47787500Y-96575000D03*
D14*
X48287500Y-100375000D03*
D15*
X53287500Y-96575000D03*
D14*
X53287500Y-102475000D03*
D13*
X58787500Y-96575000D03*
D16*
X53287500Y-90675000D03*
D17*
X56987500Y-102475000D03*
X44587500Y-100375000D03*
D16*
X58287500Y-92775000D03*
%TD*%
D13*
%TO.C,SW32*%
X159706300Y-153725000D03*
D14*
X160206300Y-157525000D03*
D15*
X165206300Y-153725000D03*
D14*
X165206300Y-159625000D03*
D13*
X170706300Y-153725000D03*
D16*
X165206300Y-147825000D03*
D17*
X168906300Y-159625000D03*
X156506300Y-157525000D03*
D16*
X170206300Y-149925000D03*
%TD*%
D13*
%TO.C,SW27*%
X45406300Y-153725000D03*
D14*
X45906300Y-157525000D03*
D15*
X50906300Y-153725000D03*
D14*
X50906300Y-159625000D03*
D13*
X56406300Y-153725000D03*
D16*
X50906300Y-147825000D03*
D17*
X54606300Y-159625000D03*
X42206300Y-157525000D03*
D16*
X55906300Y-149925000D03*
%TD*%
D14*
%TO.C,REG5*%
X109210000Y-122930000D03*
%TD*%
D13*
%TO.C,SW11*%
X109700000Y-96575000D03*
D14*
X110200000Y-100375000D03*
D15*
X115200000Y-96575000D03*
D14*
X115200000Y-102475000D03*
D13*
X120700000Y-96575000D03*
D16*
X115200000Y-90675000D03*
D17*
X118900000Y-102475000D03*
X106500000Y-100375000D03*
D16*
X120200000Y-92775000D03*
%TD*%
D13*
%TO.C,SW16*%
X95412500Y-115625000D03*
D14*
X95912500Y-119425000D03*
D15*
X100912500Y-115625000D03*
D14*
X100912500Y-121525000D03*
D13*
X106412500Y-115625000D03*
D16*
X100912500Y-109725000D03*
D17*
X104612500Y-121525000D03*
X92212500Y-119425000D03*
D16*
X105912500Y-111825000D03*
%TD*%
D13*
%TO.C,SW26*%
X162087500Y-134675000D03*
D14*
X162587500Y-138475000D03*
D15*
X167587500Y-134675000D03*
D14*
X167587500Y-140575000D03*
D13*
X173087500Y-134675000D03*
D16*
X167587500Y-128775000D03*
D17*
X171287500Y-140575000D03*
X158887500Y-138475000D03*
D16*
X172587500Y-130875000D03*
%TD*%
D13*
%TO.C,SW22*%
X85887500Y-134675000D03*
D14*
X86387500Y-138475000D03*
D15*
X91387500Y-134675000D03*
D14*
X91387500Y-140575000D03*
D13*
X96887500Y-134675000D03*
D16*
X91387500Y-128775000D03*
D17*
X95087500Y-140575000D03*
X82687500Y-138475000D03*
D16*
X96387500Y-130875000D03*
%TD*%
D13*
%TO.C,SW21*%
X66837500Y-134675000D03*
D14*
X67337500Y-138475000D03*
D15*
X72337500Y-134675000D03*
D14*
X72337500Y-140575000D03*
D13*
X77837500Y-134675000D03*
D16*
X72337500Y-128775000D03*
D17*
X76037500Y-140575000D03*
X63637500Y-138475000D03*
D16*
X77337500Y-130875000D03*
%TD*%
D13*
%TO.C,SW9*%
X71600000Y-96575000D03*
D14*
X72100000Y-100375000D03*
D15*
X77100000Y-96575000D03*
D14*
X77100000Y-102475000D03*
D13*
X82600000Y-96575000D03*
D16*
X77100000Y-90675000D03*
D17*
X80800000Y-102475000D03*
X68400000Y-100375000D03*
D16*
X82100000Y-92775000D03*
%TD*%
D13*
%TO.C,SW31*%
X138275000Y-153725000D03*
D14*
X138775000Y-157525000D03*
D15*
X143775000Y-153725000D03*
D14*
X143775000Y-159625000D03*
D13*
X149275000Y-153725000D03*
D16*
X143775000Y-147825000D03*
D17*
X147475000Y-159625000D03*
X135075000Y-157525000D03*
D16*
X148775000Y-149925000D03*
%TD*%
D13*
%TO.C,SW19*%
X152562500Y-115625000D03*
D14*
X153062500Y-119425000D03*
D15*
X158062500Y-115625000D03*
D14*
X158062500Y-121525000D03*
D13*
X163562500Y-115625000D03*
D16*
X158062500Y-109725000D03*
D17*
X161762500Y-121525000D03*
X149362500Y-119425000D03*
D16*
X163062500Y-111825000D03*
%TD*%
D13*
%TO.C,SW18*%
X133512500Y-115625000D03*
D14*
X134012500Y-119425000D03*
D15*
X139012500Y-115625000D03*
D14*
X139012500Y-121525000D03*
D13*
X144512500Y-115625000D03*
D16*
X139012500Y-109725000D03*
D17*
X142712500Y-121525000D03*
X130312500Y-119425000D03*
D16*
X144012500Y-111825000D03*
%TD*%
D13*
%TO.C,SW15*%
X76362500Y-115625000D03*
D14*
X76862500Y-119425000D03*
D15*
X81862500Y-115625000D03*
D14*
X81862500Y-121525000D03*
D13*
X87362500Y-115625000D03*
D16*
X81862500Y-109725000D03*
D17*
X85562500Y-121525000D03*
X73162500Y-119425000D03*
D16*
X86862500Y-111825000D03*
%TD*%
D13*
%TO.C,SW20*%
X45406300Y-134675000D03*
D14*
X45906300Y-138475000D03*
D15*
X50906300Y-134675000D03*
D14*
X50906300Y-140575000D03*
D13*
X56406300Y-134675000D03*
D16*
X50906300Y-128775000D03*
D17*
X54606300Y-140575000D03*
X42206300Y-138475000D03*
D16*
X55906300Y-130875000D03*
%TD*%
D13*
%TO.C,SW3*%
X81125000Y-77525000D03*
D14*
X81625000Y-81325000D03*
D15*
X86625000Y-77525000D03*
D14*
X86625000Y-83425000D03*
D13*
X92125000Y-77525000D03*
D16*
X86625000Y-71625000D03*
D17*
X90325000Y-83425000D03*
X77925000Y-81325000D03*
D16*
X91625000Y-73725000D03*
%TD*%
D13*
%TO.C,SW12*%
X128750000Y-96575000D03*
D14*
X129250000Y-100375000D03*
D15*
X134250000Y-96575000D03*
D14*
X134250000Y-102475000D03*
D13*
X139750000Y-96575000D03*
D16*
X134250000Y-90675000D03*
D17*
X137950000Y-102475000D03*
X125550000Y-100375000D03*
D16*
X139250000Y-92775000D03*
%TD*%
D13*
%TO.C,SW4*%
X100175000Y-77525000D03*
D14*
X100675000Y-81325000D03*
D15*
X105675000Y-77525000D03*
D14*
X105675000Y-83425000D03*
D13*
X111175000Y-77525000D03*
D16*
X105675000Y-71625000D03*
D17*
X109375000Y-83425000D03*
X96975000Y-81325000D03*
D16*
X110675000Y-73725000D03*
%TD*%
D13*
%TO.C,SW1*%
X43025000Y-77525000D03*
D14*
X43525000Y-81325000D03*
D15*
X48525000Y-77525000D03*
D14*
X48525000Y-83425000D03*
D13*
X54025000Y-77525000D03*
D16*
X48525000Y-71625000D03*
D17*
X52225000Y-83425000D03*
X39825000Y-81325000D03*
D16*
X53525000Y-73725000D03*
%TD*%
D14*
%TO.C,REG3*%
X145400000Y-90530000D03*
%TD*%
%TO.C,REG6*%
X146900000Y-122930000D03*
%TD*%
D13*
%TO.C,SW14*%
X50168800Y-115625000D03*
D14*
X50668800Y-119425000D03*
D15*
X55668800Y-115625000D03*
D14*
X55668800Y-121525000D03*
D13*
X61168800Y-115625000D03*
D16*
X55668800Y-109725000D03*
D17*
X59368800Y-121525000D03*
X46968800Y-119425000D03*
D16*
X60668800Y-111825000D03*
%TD*%
D13*
%TO.C,SW2*%
X62075000Y-77525000D03*
D14*
X62575000Y-81325000D03*
D15*
X67575000Y-77525000D03*
D14*
X67575000Y-83425000D03*
D13*
X73075000Y-77525000D03*
D16*
X67575000Y-71625000D03*
D17*
X71275000Y-83425000D03*
X58875000Y-81325000D03*
D16*
X72575000Y-73725000D03*
%TD*%
D13*
%TO.C,SW13*%
X147800000Y-96575000D03*
D14*
X148300000Y-100375000D03*
D15*
X153300000Y-96575000D03*
D14*
X153300000Y-102475000D03*
D13*
X158800000Y-96575000D03*
D16*
X153300000Y-90675000D03*
D17*
X157000000Y-102475000D03*
X144600000Y-100375000D03*
D16*
X158300000Y-92775000D03*
%TD*%
D14*
%TO.C,REG1*%
X63030000Y-102030000D03*
%TD*%
D13*
%TO.C,SW30*%
X116843800Y-153725000D03*
D14*
X117343800Y-157525000D03*
D15*
X122343800Y-153725000D03*
D14*
X122343800Y-159625000D03*
D13*
X127843800Y-153725000D03*
D16*
X122343800Y-147825000D03*
D17*
X126043800Y-159625000D03*
X113643800Y-157525000D03*
D16*
X127343800Y-149925000D03*
%TD*%
D14*
%TO.C,REG7*%
X61520000Y-151320000D03*
%TD*%
%TO.C,REG8*%
X109210000Y-151320000D03*
%TD*%
D19*
%TO.C,D16*%
X102712500Y-108025000D03*
X99112500Y-108025000D03*
%TD*%
%TO.C,D29*%
X100331300Y-146125000D03*
X96731300Y-146125000D03*
%TD*%
%TO.C,D5*%
X126525000Y-69925000D03*
X122925000Y-69925000D03*
%TD*%
%TO.C,D20*%
X52706300Y-127075000D03*
X49106300Y-127075000D03*
%TD*%
%TO.C,D12*%
X136050000Y-88975000D03*
X132450000Y-88975000D03*
%TD*%
%TO.C,D11*%
X117000000Y-88975000D03*
X113400000Y-88975000D03*
%TD*%
%TO.C,D1*%
X50325000Y-69925000D03*
X46725000Y-69925000D03*
%TD*%
%TO.C,D7*%
X164625000Y-69925000D03*
X161025000Y-69925000D03*
%TD*%
%TO.C,D14*%
X57468800Y-108025000D03*
X53868800Y-108025000D03*
%TD*%
%TO.C,D19*%
X159862500Y-108025000D03*
X156262500Y-108025000D03*
%TD*%
%TO.C,D24*%
X131287500Y-127075000D03*
X127687500Y-127075000D03*
%TD*%
%TO.C,D6*%
X145575000Y-69925000D03*
X141975000Y-69925000D03*
%TD*%
%TO.C,D27*%
X52706300Y-146125000D03*
X49106300Y-146125000D03*
%TD*%
%TO.C,D25*%
X150337500Y-127075000D03*
X146737500Y-127075000D03*
%TD*%
%TO.C,D13*%
X155100000Y-88975000D03*
X151500000Y-88975000D03*
%TD*%
%TO.C,D32*%
X167006300Y-146125000D03*
X163406300Y-146125000D03*
%TD*%
%TO.C,D31*%
X145575000Y-146125000D03*
X141975000Y-146125000D03*
%TD*%
%TO.C,D18*%
X140812500Y-108025000D03*
X137212500Y-108025000D03*
%TD*%
%TO.C,D9*%
X78900000Y-88975000D03*
X75300000Y-88975000D03*
%TD*%
%TO.C,D4*%
X107475000Y-69925000D03*
X103875000Y-69925000D03*
%TD*%
%TO.C,D26*%
X169387500Y-127075000D03*
X165787500Y-127075000D03*
%TD*%
%TO.C,D2*%
X69375000Y-69925000D03*
X65775000Y-69925000D03*
%TD*%
%TO.C,D17*%
X121762500Y-108025000D03*
X118162500Y-108025000D03*
%TD*%
%TO.C,D28*%
X76518800Y-146125000D03*
X72918800Y-146125000D03*
%TD*%
%TO.C,D15*%
X83662500Y-108025000D03*
X80062500Y-108025000D03*
%TD*%
%TO.C,D10*%
X97950000Y-88975000D03*
X94350000Y-88975000D03*
%TD*%
%TO.C,D30*%
X124143800Y-146125000D03*
X120543800Y-146125000D03*
%TD*%
%TO.C,D21*%
X74137500Y-127075000D03*
X70537500Y-127075000D03*
%TD*%
%TO.C,D22*%
X93187500Y-127075000D03*
X89587500Y-127075000D03*
%TD*%
%TO.C,D23*%
X112237500Y-127075000D03*
X108637500Y-127075000D03*
%TD*%
%TO.C,D3*%
X88425000Y-69925000D03*
X84825000Y-69925000D03*
%TD*%
%TO.C,D8*%
X55087500Y-88975000D03*
X51487500Y-88975000D03*
%TD*%
%LPD*%
M02*
