%TF.GenerationSoftware,KiCad,Pcbnew,10.0.3*%
%TF.CreationDate,2026-06-06T08:41:41+09:00*%
%TF.ProjectId,kc2_left,6b63325f-6c65-4667-942e-6b696361645f,draft-1*%
%TF.SameCoordinates,Original*%
%TF.FileFunction,Copper,L2,Bot*%
%TF.FilePolarity,Positive*%
%FSLAX46Y46*%
G04 Gerber Fmt 4.6, Leading zero omitted, Abs format (unit mm)*
G04 Created by KiCad (PCBNEW 10.0.3) date 2026-06-06 08:41:41*
%MOMM*%
%LPD*%
G01*
G04 APERTURE LIST*
G04 Aperture macros list*
%AMRoundRect*
0 Rectangle with rounded corners*
0 $1 Rounding radius*
0 $2 $3 $4 $5 $6 $7 $8 $9 X,Y pos of 4 corners*
0 Add a 4 corners polygon primitive as box body*
4,1,4,$2,$3,$4,$5,$6,$7,$8,$9,$2,$3,0*
0 Add four circle primitives for the rounded corners*
1,1,$1+$1,$2,$3*
1,1,$1+$1,$4,$5*
1,1,$1+$1,$6,$7*
1,1,$1+$1,$8,$9*
0 Add four rect primitives between the rounded corners*
20,1,$1+$1,$2,$3,$4,$5,0*
20,1,$1+$1,$4,$5,$6,$7,0*
20,1,$1+$1,$6,$7,$8,$9,0*
20,1,$1+$1,$8,$9,$2,$3,0*%
G04 Aperture macros list end*
%TA.AperFunction,ComponentPad*%
%ADD10C,2.000000*%
%TD*%
%TA.AperFunction,SMDPad,CuDef*%
%ADD11RoundRect,0.520000X-0.780000X-0.780000X0.780000X-0.780000X0.780000X0.780000X-0.780000X0.780000X0*%
%TD*%
%TA.AperFunction,ComponentPad*%
%ADD12C,1.800000*%
%TD*%
%TA.AperFunction,SMDPad,CuDef*%
%ADD13RoundRect,0.252000X0.448000X0.523000X-0.448000X0.523000X-0.448000X-0.523000X0.448000X-0.523000X0*%
%TD*%
%TA.AperFunction,ViaPad*%
%ADD14C,0.600000*%
%TD*%
%TA.AperFunction,Conductor*%
%ADD15C,0.250000*%
%TD*%
G04 APERTURE END LIST*
D10*
%TO.P,SW13,1*%
%TO.N,L_COL5*%
X154800000Y-90675000D03*
D11*
X158500000Y-102475000D03*
%TO.P,SW13,2*%
%TO.N,LK13_D*%
X146100000Y-100375000D03*
D10*
X159800000Y-92775000D03*
%TD*%
%TO.P,SW15,1*%
%TO.N,L_COL1*%
X83362500Y-109725000D03*
D11*
X87062500Y-121525000D03*
%TO.P,SW15,2*%
%TO.N,LK15_D*%
X74662500Y-119425000D03*
D10*
X88362500Y-111825000D03*
%TD*%
%TO.P,SW19,1*%
%TO.N,L_COL5*%
X159562500Y-109725000D03*
D11*
X163262500Y-121525000D03*
%TO.P,SW19,2*%
%TO.N,LK19_D*%
X150862500Y-119425000D03*
D10*
X164562500Y-111825000D03*
%TD*%
%TO.P,SW18,1*%
%TO.N,L_COL4*%
X140512500Y-109725000D03*
D11*
X144212500Y-121525000D03*
%TO.P,SW18,2*%
%TO.N,LK18_D*%
X131812500Y-119425000D03*
D10*
X145512500Y-111825000D03*
%TD*%
%TO.P,SW26,1*%
%TO.N,L_COL6*%
X169087500Y-128775000D03*
D11*
X172787500Y-140575000D03*
%TO.P,SW26,2*%
%TO.N,LK26_D*%
X160387500Y-138475000D03*
D10*
X174087500Y-130875000D03*
%TD*%
%TO.P,SW2,1*%
%TO.N,L_COL1*%
X69075000Y-71625000D03*
D11*
X72775000Y-83425000D03*
%TO.P,SW2,2*%
%TO.N,LK02_D*%
X60375000Y-81325000D03*
D10*
X74075000Y-73725000D03*
%TD*%
%TO.P,SW20,1*%
%TO.N,L_COL0*%
X52406300Y-128775000D03*
D11*
X56106300Y-140575000D03*
%TO.P,SW20,2*%
%TO.N,LK20_D*%
X43706300Y-138475000D03*
D10*
X57406300Y-130875000D03*
%TD*%
%TO.P,SW3,1*%
%TO.N,L_COL2*%
X88125000Y-71625000D03*
D11*
X91825000Y-83425000D03*
%TO.P,SW3,2*%
%TO.N,LK03_D*%
X79425000Y-81325000D03*
D10*
X93125000Y-73725000D03*
%TD*%
%TO.P,SW29,1*%
%TO.N,L_COL2*%
X100031300Y-147825000D03*
D11*
X103731300Y-159625000D03*
%TO.P,SW29,2*%
%TO.N,LK29_D*%
X91331300Y-157525000D03*
D10*
X105031300Y-149925000D03*
%TD*%
%TO.P,SW30,1*%
%TO.N,L_COL3*%
X123843800Y-147825000D03*
D11*
X127543800Y-159625000D03*
%TO.P,SW30,2*%
%TO.N,LK30_D*%
X115143800Y-157525000D03*
D10*
X128843800Y-149925000D03*
%TD*%
D12*
%TO.P,U1,D0*%
%TO.N,N/C*%
X128282500Y-57890000D03*
%TO.P,U1,D1*%
X125742500Y-57890000D03*
%TO.P,U1,D2*%
X135902500Y-57890000D03*
%TO.P,U1,D3*%
%TO.N,L_COL0*%
X138442500Y-57890000D03*
%TO.P,U1,D4*%
%TO.N,L_COL2*%
X140982500Y-57890000D03*
%TO.P,U1,D5*%
%TO.N,L_COL1*%
X143522500Y-57890000D03*
%TO.P,U1,D6*%
%TO.N,L_COL3*%
X146062500Y-57890000D03*
%TO.P,U1,D7*%
%TO.N,L_COL4*%
X148602500Y-57890000D03*
%TO.P,U1,D8*%
%TO.N,L_COL5*%
X151142500Y-57890000D03*
%TO.P,U1,D9*%
%TO.N,L_COL6*%
X153682500Y-57890000D03*
%TO.P,U1,D10*%
%TO.N,L_ROW0*%
X153682500Y-40110000D03*
%TO.P,U1,D14*%
%TO.N,L_ROW2*%
X148602500Y-40110000D03*
%TO.P,U1,D15*%
%TO.N,L_ROW3*%
X146062500Y-40110000D03*
%TO.P,U1,D16*%
%TO.N,L_ROW1*%
X151142500Y-40110000D03*
%TO.P,U1,D18*%
%TO.N,L_ROW4*%
X143522500Y-40110000D03*
%TO.P,U1,D19*%
%TO.N,N/C*%
X140982500Y-40110000D03*
%TO.P,U1,D20*%
X138442500Y-40110000D03*
%TO.P,U1,D21*%
X135902500Y-40110000D03*
%TO.P,U1,GND_A*%
X130822499Y-57890000D03*
%TO.P,U1,GND_B*%
X133362500Y-57890000D03*
%TO.P,U1,GND_C*%
%TO.N,GND*%
X128282500Y-40110000D03*
%TO.P,U1,RAW*%
%TO.N,N/C*%
X125742500Y-40110000D03*
%TO.P,U1,RST*%
%TO.N,RST*%
X130822499Y-40110000D03*
%TO.P,U1,VCC*%
%TO.N,N/C*%
X133362500Y-40110000D03*
%TD*%
D10*
%TO.P,SW5,1*%
%TO.N,L_COL4*%
X126225000Y-71625000D03*
D11*
X129925000Y-83425000D03*
%TO.P,SW5,2*%
%TO.N,LK05_D*%
X117525000Y-81325000D03*
D10*
X131225000Y-73725000D03*
%TD*%
%TO.P,SW32,1*%
%TO.N,L_COL5*%
X166706300Y-147825000D03*
D11*
X170406300Y-159625000D03*
%TO.P,SW32,2*%
%TO.N,LK32_D*%
X158006300Y-157525000D03*
D10*
X171706300Y-149925000D03*
%TD*%
%TO.P,SW17,1*%
%TO.N,L_COL3*%
X121462500Y-109725000D03*
D11*
X125162500Y-121525000D03*
%TO.P,SW17,2*%
%TO.N,LK17_D*%
X112762500Y-119425000D03*
D10*
X126462500Y-111825000D03*
%TD*%
%TO.P,SW9,1*%
%TO.N,L_COL1*%
X78600000Y-90675000D03*
D11*
X82300000Y-102475000D03*
%TO.P,SW9,2*%
%TO.N,LK09_D*%
X69900000Y-100375000D03*
D10*
X83600000Y-92775000D03*
%TD*%
%TO.P,SW22,1*%
%TO.N,L_COL2*%
X92887500Y-128775000D03*
D11*
X96587500Y-140575000D03*
%TO.P,SW22,2*%
%TO.N,LK22_D*%
X84187500Y-138475000D03*
D10*
X97887500Y-130875000D03*
%TD*%
%TO.P,SW25,1*%
%TO.N,L_COL5*%
X150037500Y-128775000D03*
D11*
X153737500Y-140575000D03*
%TO.P,SW25,2*%
%TO.N,LK25_D*%
X141337500Y-138475000D03*
D10*
X155037500Y-130875000D03*
%TD*%
%TO.P,SW23,1*%
%TO.N,L_COL3*%
X111937500Y-128775000D03*
D11*
X115637500Y-140575000D03*
%TO.P,SW23,2*%
%TO.N,LK23_D*%
X103237500Y-138475000D03*
D10*
X116937500Y-130875000D03*
%TD*%
%TO.P,SW11,1*%
%TO.N,L_COL3*%
X116700000Y-90675000D03*
D11*
X120400000Y-102475000D03*
%TO.P,SW11,2*%
%TO.N,LK11_D*%
X108000000Y-100375000D03*
D10*
X121700000Y-92775000D03*
%TD*%
%TO.P,SW24,1*%
%TO.N,L_COL4*%
X130987500Y-128775000D03*
D11*
X134687500Y-140575000D03*
%TO.P,SW24,2*%
%TO.N,LK24_D*%
X122287500Y-138475000D03*
D10*
X135987500Y-130875000D03*
%TD*%
%TO.P,SW14,1*%
%TO.N,L_COL0*%
X57168700Y-109725000D03*
D11*
X60868700Y-121525000D03*
%TO.P,SW14,2*%
%TO.N,LK14_D*%
X48468700Y-119425000D03*
D10*
X62168700Y-111825000D03*
%TD*%
%TO.P,SW4,1*%
%TO.N,L_COL3*%
X107175000Y-71625000D03*
D11*
X110875000Y-83425000D03*
%TO.P,SW4,2*%
%TO.N,LK04_D*%
X98475000Y-81325000D03*
D10*
X112175000Y-73725000D03*
%TD*%
%TO.P,SW12,1*%
%TO.N,L_COL4*%
X135750000Y-90675000D03*
D11*
X139450000Y-102475000D03*
%TO.P,SW12,2*%
%TO.N,LK12_D*%
X127050000Y-100375000D03*
D10*
X140750000Y-92775000D03*
%TD*%
%TO.P,SW28,1*%
%TO.N,L_COL1*%
X76218800Y-147825000D03*
D11*
X79918800Y-159625000D03*
%TO.P,SW28,2*%
%TO.N,LK28_D*%
X67518800Y-157525000D03*
D10*
X81218800Y-149925000D03*
%TD*%
%TO.P,SW10,1*%
%TO.N,L_COL2*%
X97650000Y-90675000D03*
D11*
X101350000Y-102475000D03*
%TO.P,SW10,2*%
%TO.N,LK10_D*%
X88950000Y-100375000D03*
D10*
X102650000Y-92775000D03*
%TD*%
%TO.P,SW27,1*%
%TO.N,L_COL0*%
X52406300Y-147825000D03*
D11*
X56106300Y-159625000D03*
%TO.P,SW27,2*%
%TO.N,LK27_D*%
X43706300Y-157525000D03*
D10*
X57406300Y-149925000D03*
%TD*%
%TO.P,SW1,1*%
%TO.N,L_COL0*%
X50025000Y-71625000D03*
D11*
X53725000Y-83425000D03*
%TO.P,SW1,2*%
%TO.N,LK01_D*%
X41325000Y-81325000D03*
D10*
X55025000Y-73725000D03*
%TD*%
%TO.P,SW7,1*%
%TO.N,L_COL6*%
X164325000Y-71625000D03*
D11*
X168025000Y-83425000D03*
%TO.P,SW7,2*%
%TO.N,LK07_D*%
X155625000Y-81325000D03*
D10*
X169325000Y-73725000D03*
%TD*%
%TO.P,SW8,1*%
%TO.N,L_COL0*%
X54787500Y-90675000D03*
D11*
X58487500Y-102475000D03*
%TO.P,SW8,2*%
%TO.N,LK08_D*%
X46087500Y-100375000D03*
D10*
X59787500Y-92775000D03*
%TD*%
%TO.P,SW6,1*%
%TO.N,L_COL5*%
X145275000Y-71625000D03*
D11*
X148975000Y-83425000D03*
%TO.P,SW6,2*%
%TO.N,LK06_D*%
X136575000Y-81325000D03*
D10*
X150275000Y-73725000D03*
%TD*%
%TO.P,SW31,1*%
%TO.N,L_COL4*%
X145275000Y-147825000D03*
D11*
X148975000Y-159625000D03*
%TO.P,SW31,2*%
%TO.N,LK31_D*%
X136575000Y-157525000D03*
D10*
X150275000Y-149925000D03*
%TD*%
%TO.P,SW16,1*%
%TO.N,L_COL2*%
X102412500Y-109725000D03*
D11*
X106112500Y-121525000D03*
%TO.P,SW16,2*%
%TO.N,LK16_D*%
X93712500Y-119425000D03*
D10*
X107412500Y-111825000D03*
%TD*%
%TO.P,SW21,1*%
%TO.N,L_COL1*%
X73837500Y-128775000D03*
D11*
X77537500Y-140575000D03*
%TO.P,SW21,2*%
%TO.N,LK21_D*%
X65137500Y-138475000D03*
D10*
X78837500Y-130875000D03*
%TD*%
D13*
%TO.P,D15,1*%
%TO.N,L_ROW2*%
X85162500Y-108025000D03*
%TO.P,D15,2*%
%TO.N,LK15_D*%
X81562500Y-108025000D03*
%TD*%
%TO.P,D23,1*%
%TO.N,L_ROW3*%
X113737500Y-127075000D03*
%TO.P,D23,2*%
%TO.N,LK23_D*%
X110137500Y-127075000D03*
%TD*%
%TO.P,D13,1*%
%TO.N,L_ROW1*%
X156600000Y-88975000D03*
%TO.P,D13,2*%
%TO.N,LK13_D*%
X153000000Y-88975000D03*
%TD*%
%TO.P,D21,1*%
%TO.N,L_ROW3*%
X75637500Y-127075000D03*
%TO.P,D21,2*%
%TO.N,LK21_D*%
X72037500Y-127075000D03*
%TD*%
%TO.P,D30,1*%
%TO.N,L_ROW4*%
X125643800Y-146125000D03*
%TO.P,D30,2*%
%TO.N,LK30_D*%
X122043800Y-146125000D03*
%TD*%
%TO.P,D4,1*%
%TO.N,L_ROW0*%
X108975000Y-69925000D03*
%TO.P,D4,2*%
%TO.N,LK04_D*%
X105375000Y-69925000D03*
%TD*%
%TO.P,D10,1*%
%TO.N,L_ROW1*%
X99450000Y-88975000D03*
%TO.P,D10,2*%
%TO.N,LK10_D*%
X95850000Y-88975000D03*
%TD*%
%TO.P,D12,1*%
%TO.N,L_ROW1*%
X137550000Y-88975000D03*
%TO.P,D12,2*%
%TO.N,LK12_D*%
X133950000Y-88975000D03*
%TD*%
%TO.P,D16,1*%
%TO.N,L_ROW2*%
X104212500Y-108025000D03*
%TO.P,D16,2*%
%TO.N,LK16_D*%
X100612500Y-108025000D03*
%TD*%
%TO.P,D3,1*%
%TO.N,L_ROW0*%
X89925000Y-69925000D03*
%TO.P,D3,2*%
%TO.N,LK03_D*%
X86325000Y-69925000D03*
%TD*%
%TO.P,D19,1*%
%TO.N,L_ROW2*%
X161362500Y-108025000D03*
%TO.P,D19,2*%
%TO.N,LK19_D*%
X157762500Y-108025000D03*
%TD*%
%TO.P,D24,1*%
%TO.N,L_ROW3*%
X132787500Y-127075000D03*
%TO.P,D24,2*%
%TO.N,LK24_D*%
X129187500Y-127075000D03*
%TD*%
%TO.P,D8,1*%
%TO.N,L_ROW1*%
X56587500Y-88975000D03*
%TO.P,D8,2*%
%TO.N,LK08_D*%
X52987500Y-88975000D03*
%TD*%
%TO.P,D28,1*%
%TO.N,L_ROW4*%
X78018800Y-146125000D03*
%TO.P,D28,2*%
%TO.N,LK28_D*%
X74418800Y-146125000D03*
%TD*%
%TO.P,D22,1*%
%TO.N,L_ROW3*%
X94687500Y-127075000D03*
%TO.P,D22,2*%
%TO.N,LK22_D*%
X91087500Y-127075000D03*
%TD*%
%TO.P,D20,1*%
%TO.N,L_ROW3*%
X54206300Y-127075000D03*
%TO.P,D20,2*%
%TO.N,LK20_D*%
X50606300Y-127075000D03*
%TD*%
%TO.P,D2,1*%
%TO.N,L_ROW0*%
X70875000Y-69925000D03*
%TO.P,D2,2*%
%TO.N,LK02_D*%
X67275000Y-69925000D03*
%TD*%
%TO.P,D17,1*%
%TO.N,L_ROW2*%
X123262500Y-108025000D03*
%TO.P,D17,2*%
%TO.N,LK17_D*%
X119662500Y-108025000D03*
%TD*%
%TO.P,D18,1*%
%TO.N,L_ROW2*%
X142312500Y-108025000D03*
%TO.P,D18,2*%
%TO.N,LK18_D*%
X138712500Y-108025000D03*
%TD*%
%TO.P,D25,1*%
%TO.N,L_ROW3*%
X151837500Y-127075000D03*
%TO.P,D25,2*%
%TO.N,LK25_D*%
X148237500Y-127075000D03*
%TD*%
%TO.P,D5,1*%
%TO.N,L_ROW0*%
X128025000Y-69925000D03*
%TO.P,D5,2*%
%TO.N,LK05_D*%
X124425000Y-69925000D03*
%TD*%
%TO.P,D27,1*%
%TO.N,L_ROW4*%
X54206300Y-146125000D03*
%TO.P,D27,2*%
%TO.N,LK27_D*%
X50606300Y-146125000D03*
%TD*%
%TO.P,D6,1*%
%TO.N,L_ROW0*%
X147075000Y-69925000D03*
%TO.P,D6,2*%
%TO.N,LK06_D*%
X143475000Y-69925000D03*
%TD*%
%TO.P,D26,1*%
%TO.N,L_ROW3*%
X170887500Y-127075000D03*
%TO.P,D26,2*%
%TO.N,LK26_D*%
X167287500Y-127075000D03*
%TD*%
%TO.P,D31,1*%
%TO.N,L_ROW4*%
X147075000Y-146125000D03*
%TO.P,D31,2*%
%TO.N,LK31_D*%
X143475000Y-146125000D03*
%TD*%
%TO.P,D11,1*%
%TO.N,L_ROW1*%
X118500000Y-88975000D03*
%TO.P,D11,2*%
%TO.N,LK11_D*%
X114900000Y-88975000D03*
%TD*%
%TO.P,D29,1*%
%TO.N,L_ROW4*%
X101831300Y-146125000D03*
%TO.P,D29,2*%
%TO.N,LK29_D*%
X98231300Y-146125000D03*
%TD*%
%TO.P,D7,1*%
%TO.N,L_ROW0*%
X166125000Y-69925000D03*
%TO.P,D7,2*%
%TO.N,LK07_D*%
X162525000Y-69925000D03*
%TD*%
%TO.P,D32,1*%
%TO.N,L_ROW4*%
X168506300Y-146125000D03*
%TO.P,D32,2*%
%TO.N,LK32_D*%
X164906300Y-146125000D03*
%TD*%
%TO.P,D1,1*%
%TO.N,L_ROW0*%
X51825000Y-69925000D03*
%TO.P,D1,2*%
%TO.N,LK01_D*%
X48225000Y-69925000D03*
%TD*%
%TO.P,D9,1*%
%TO.N,L_ROW1*%
X80400000Y-88975000D03*
%TO.P,D9,2*%
%TO.N,LK09_D*%
X76800000Y-88975000D03*
%TD*%
%TO.P,D14,1*%
%TO.N,L_ROW2*%
X58968700Y-108025000D03*
%TO.P,D14,2*%
%TO.N,LK14_D*%
X55368700Y-108025000D03*
%TD*%
D14*
%TO.N,L_COL5*%
X157254500Y-147034400D03*
%TO.N,LK13_D*%
X154339800Y-88850900D03*
%TO.N,LK15_D*%
X85295700Y-112018100D03*
%TO.N,LK19_D*%
X157762500Y-111443300D03*
%TO.N,L_COL4*%
X133668100Y-147311100D03*
%TO.N,LK18_D*%
X135933100Y-111508800D03*
%TO.N,L_COL6*%
X168021200Y-112895000D03*
X170040500Y-129727900D03*
%TO.N,LK26_D*%
X166099400Y-129001900D03*
%TO.N,L_COL2*%
X140581300Y-69866500D03*
%TO.N,LK29_D*%
X97922800Y-147457000D03*
%TO.N,L_COL3*%
X124823200Y-125023400D03*
%TO.N,LK30_D*%
X123468200Y-150111200D03*
%TO.N,L_ROW0*%
X88596700Y-69770600D03*
X69280500Y-69736900D03*
X109110100Y-68353200D03*
X53363100Y-70036900D03*
X166136900Y-68358000D03*
X148685400Y-68383500D03*
X128378700Y-72529400D03*
X126119900Y-68718100D03*
%TO.N,L_ROW2*%
X161119700Y-109727600D03*
X84030100Y-106849700D03*
X62008900Y-110070500D03*
X142822800Y-110468900D03*
X103166800Y-106849700D03*
X154134300Y-60411200D03*
X149427300Y-56560400D03*
%TO.N,L_ROW3*%
X152684800Y-67937600D03*
X74102900Y-126634700D03*
X93121100Y-126606200D03*
X112296200Y-126606200D03*
X169087500Y-126811700D03*
X57012300Y-125687800D03*
X147670600Y-67949500D03*
X133711600Y-128958400D03*
X150510100Y-126636700D03*
X159073900Y-75865500D03*
X152684800Y-75083900D03*
%TO.N,L_ROW1*%
X136616400Y-86850700D03*
X57831900Y-89695400D03*
X101600500Y-89797900D03*
X119703500Y-89138300D03*
X157254500Y-86850700D03*
X80503400Y-90270400D03*
%TO.N,L_ROW4*%
X55704300Y-146162600D03*
X147355700Y-147457000D03*
X126321100Y-147406700D03*
X104185100Y-146498300D03*
X166590400Y-145930700D03*
X78295300Y-147457000D03*
%TO.N,GND*%
X127771500Y-60534000D03*
%TO.N,RST*%
X126782600Y-60632200D03*
%TO.N,LK17_D*%
X121423100Y-107938900D03*
%TO.N,LK09_D*%
X78775500Y-93343600D03*
%TO.N,LK25_D*%
X145461300Y-131641200D03*
%TO.N,LK11_D*%
X115978300Y-93053700D03*
%TO.N,LK14_D*%
X56950400Y-111570700D03*
%TO.N,LK04_D*%
X107278900Y-69651600D03*
%TO.N,LK12_D*%
X135323300Y-88871000D03*
%TO.N,LK28_D*%
X74099800Y-147457000D03*
%TO.N,LK10_D*%
X97102600Y-88850900D03*
%TO.N,LK27_D*%
X53858800Y-150165000D03*
%TO.N,LK07_D*%
X165250700Y-73231600D03*
%TO.N,LK08_D*%
X54064000Y-93053700D03*
%TO.N,LK06_D*%
X139564700Y-75009800D03*
%TO.N,LK31_D*%
X142513000Y-149501400D03*
%TO.N,LK16_D*%
X103073300Y-111704800D03*
%TD*%
%TO.N,L_COL5*%
D15*
X147178200Y-71625000D02*
X148616100Y-70187100D01*
X154800000Y-91313800D02*
X158048300Y-94562100D01*
X154966500Y-90508500D02*
X154966500Y-88591300D01*
X154800000Y-90675000D02*
X154966500Y-90508500D01*
X148616100Y-70187100D02*
X151650500Y-73221600D01*
X148616100Y-70187100D02*
X151142500Y-67660700D01*
X166706300Y-147825000D02*
X170406300Y-151525000D01*
X163262500Y-113425000D02*
X159562500Y-109725000D01*
X151650500Y-73221600D02*
X151650500Y-74387700D01*
X158048300Y-94562100D02*
X158048300Y-97199200D01*
X158498500Y-102473500D02*
X158500000Y-102475000D01*
X148975000Y-77063200D02*
X148975000Y-83425000D01*
X158498500Y-97649400D02*
X158498500Y-102473500D01*
X158048300Y-97199200D02*
X158312900Y-97463800D01*
X153737500Y-132475000D02*
X153737500Y-140575000D01*
X149800200Y-83425000D02*
X148975000Y-83425000D01*
X151142500Y-67660700D02*
X151142500Y-57890000D01*
X154800000Y-90675000D02*
X154800000Y-91313800D01*
X159562500Y-109725000D02*
X159562500Y-103537500D01*
X154966500Y-88591300D02*
X149800200Y-83425000D01*
X153737500Y-143517400D02*
X157254500Y-147034400D01*
X155356000Y-132475000D02*
X163262500Y-124568500D01*
X163262500Y-121525000D02*
X163262500Y-113425000D01*
X153737500Y-140575000D02*
X153737500Y-143517400D01*
X153737500Y-132475000D02*
X155356000Y-132475000D01*
X158312900Y-97463800D02*
X158498500Y-97649400D01*
X150037500Y-128775000D02*
X153737500Y-132475000D01*
X151650500Y-74387700D02*
X148975000Y-77063200D01*
X163262500Y-124568500D02*
X163262500Y-121525000D01*
X158312900Y-97463800D02*
X158498500Y-97649400D01*
X145275000Y-71625000D02*
X147178200Y-71625000D01*
X170406300Y-151525000D02*
X170406300Y-159625000D01*
X159562500Y-103537500D02*
X158500000Y-102475000D01*
%TO.N,LK13_D*%
X154215700Y-88975000D02*
X153000000Y-88975000D01*
X153000000Y-88975000D02*
X146100000Y-95875000D01*
X154339800Y-88850900D02*
X154215700Y-88975000D01*
X146100000Y-95875000D02*
X146100000Y-100375000D01*
%TO.N,L_COL1*%
X77537500Y-140575000D02*
X76218800Y-141893700D01*
X72775000Y-75325000D02*
X69075000Y-71625000D01*
X82300000Y-102475000D02*
X82300000Y-94375000D01*
X77537500Y-132475000D02*
X77537500Y-140575000D01*
X83362500Y-103537500D02*
X82300000Y-102475000D01*
X72775000Y-83425000D02*
X73040900Y-83425000D01*
X78600000Y-88984100D02*
X78600000Y-90675000D01*
X79918800Y-151525000D02*
X79918800Y-159625000D01*
X73040900Y-83425000D02*
X78600000Y-88984100D01*
X82300000Y-94375000D02*
X78600000Y-90675000D01*
X83362500Y-109725000D02*
X83362500Y-103537500D01*
X83888900Y-109725000D02*
X83362500Y-109725000D01*
X72775000Y-83425000D02*
X72775000Y-75325000D01*
X87062500Y-121525000D02*
X87062500Y-112898600D01*
X87062500Y-112898600D02*
X83888900Y-109725000D01*
X87062500Y-124548600D02*
X87062500Y-121525000D01*
X73837500Y-128775000D02*
X77537500Y-132475000D01*
X76218800Y-147825000D02*
X79918800Y-151525000D01*
X79136100Y-132475000D02*
X87062500Y-124548600D01*
X76218800Y-141893700D02*
X76218800Y-147825000D01*
X77537500Y-132475000D02*
X79136100Y-132475000D01*
%TO.N,LK15_D*%
X74662500Y-119425000D02*
X74662500Y-116758900D01*
X81570100Y-109851300D02*
X83736900Y-112018100D01*
X83736900Y-112018100D02*
X85295700Y-112018100D01*
X74662500Y-116758900D02*
X81570100Y-109851300D01*
X81562500Y-108025000D02*
X81562500Y-109843700D01*
X81562500Y-109843700D02*
X81570100Y-109851300D01*
%TO.N,LK19_D*%
X156125500Y-111443300D02*
X157762500Y-111443300D01*
X150862500Y-116706300D02*
X156125500Y-111443300D01*
X150862500Y-119425000D02*
X150862500Y-116706300D01*
X157762500Y-111443300D02*
X157762500Y-108025000D01*
%TO.N,L_COL4*%
X143128800Y-122525600D02*
X143128800Y-125677300D01*
X148975000Y-151525000D02*
X145275000Y-147825000D01*
X136331100Y-132475000D02*
X134687500Y-132475000D01*
X129925000Y-83425000D02*
X129925000Y-75325000D01*
X144212500Y-121525000D02*
X144212500Y-118184800D01*
X135750000Y-90675000D02*
X135950000Y-90475000D01*
X143760800Y-112973300D02*
X143760800Y-117733100D01*
X135950000Y-88611400D02*
X130763600Y-83425000D01*
X135750000Y-90675000D02*
X139450000Y-94375000D01*
X134687500Y-140575000D02*
X134687500Y-132475000D01*
X130763600Y-83425000D02*
X129925000Y-83425000D01*
X134687500Y-132475000D02*
X130987500Y-128775000D01*
X133668100Y-147311100D02*
X134687500Y-146291700D01*
X140512500Y-109725000D02*
X140512500Y-103537500D01*
X143128800Y-125677300D02*
X136331100Y-132475000D01*
X148975000Y-159625000D02*
X148975000Y-151525000D01*
X144212500Y-121441900D02*
X143128800Y-122525600D01*
X140512500Y-103537500D02*
X139450000Y-102475000D01*
X144212500Y-118184800D02*
X144212500Y-121441900D01*
X140512500Y-109725000D02*
X143760800Y-112973300D01*
X134687500Y-146291700D02*
X134687500Y-140575000D01*
X139450000Y-94375000D02*
X139450000Y-102475000D01*
X129925000Y-75325000D02*
X126225000Y-71625000D01*
X143760800Y-117733100D02*
X144212500Y-118184800D01*
X135950000Y-90475000D02*
X135950000Y-88611400D01*
%TO.N,LK18_D*%
X131812500Y-119425000D02*
X131812500Y-115629400D01*
X131812500Y-115629400D02*
X135933100Y-111508800D01*
X138712500Y-108025000D02*
X135933100Y-110804400D01*
X135933100Y-110804400D02*
X135933100Y-111508800D01*
%TO.N,L_COL6*%
X167755100Y-107612900D02*
X166200000Y-107425800D01*
X166200000Y-107425800D02*
X166200000Y-83882000D01*
X168021200Y-112895000D02*
X168021200Y-112770700D01*
X168025000Y-83425000D02*
X168025000Y-75119600D01*
X172787500Y-140575000D02*
X172787500Y-132475000D01*
X166200000Y-83882000D02*
X168025000Y-83425000D01*
X168021200Y-112770700D02*
X168019700Y-112769200D01*
X168019700Y-107877500D02*
X167755100Y-107612900D01*
X172787500Y-132475000D02*
X170040500Y-129727900D01*
X168025000Y-75119600D02*
X164530400Y-71625000D01*
X169087500Y-128775000D02*
X170040500Y-129727900D01*
X167755100Y-107612900D02*
X166200000Y-107425800D01*
X168019700Y-112769200D02*
X168019700Y-107877500D01*
X164325000Y-68532500D02*
X164325000Y-71625000D01*
X164530400Y-71625000D02*
X164325000Y-71625000D01*
X153682500Y-57890000D02*
X164325000Y-68532500D01*
%TO.N,LK26_D*%
X167287500Y-127813800D02*
X167287500Y-127075000D01*
X166099400Y-129001900D02*
X167287500Y-127813800D01*
X167287500Y-127075000D02*
X160387500Y-133975000D01*
X160387500Y-133975000D02*
X160387500Y-138475000D01*
%TO.N,LK02_D*%
X60375000Y-76825000D02*
X67275000Y-69925000D01*
X68402700Y-68797300D02*
X67275000Y-69925000D01*
X74075000Y-73725000D02*
X74075000Y-71300500D01*
X71571800Y-68797300D02*
X68402700Y-68797300D01*
X60375000Y-81325000D02*
X60375000Y-76825000D01*
X74075000Y-71300500D02*
X71571800Y-68797300D01*
%TO.N,L_COL0*%
X56106300Y-150962900D02*
X53948300Y-148804900D01*
X60868700Y-113425000D02*
X60868700Y-121525000D01*
X54787500Y-84487500D02*
X53725000Y-83425000D01*
X57715500Y-132475000D02*
X60868700Y-129321800D01*
X53725000Y-75325000D02*
X50025000Y-71625000D01*
X56331000Y-140799700D02*
X56106300Y-140575000D01*
X53725000Y-83425000D02*
X53725000Y-75325000D01*
X57168700Y-103793800D02*
X57168700Y-109725000D01*
X56106300Y-132475000D02*
X57715500Y-132475000D01*
X56331000Y-146422200D02*
X56331000Y-140799700D01*
X57168700Y-109725000D02*
X60868700Y-113425000D01*
X52406300Y-128775000D02*
X56106300Y-132475000D01*
X56106300Y-159625000D02*
X56106300Y-150962900D01*
X58487500Y-94375000D02*
X58487500Y-102475000D01*
X54787500Y-90675000D02*
X54787500Y-84487500D01*
X58487500Y-102475000D02*
X57168700Y-103793800D01*
X60868700Y-129321800D02*
X60868700Y-121525000D01*
X52406300Y-147825000D02*
X53386200Y-148804900D01*
X53948300Y-148804900D02*
X56331000Y-146422200D01*
X56106300Y-132475000D02*
X56106300Y-140575000D01*
X53386200Y-148804900D02*
X53948300Y-148804900D01*
X54787500Y-90675000D02*
X58487500Y-94375000D01*
%TO.N,LK20_D*%
X43706300Y-138475000D02*
X43706300Y-133975000D01*
X43706300Y-133975000D02*
X50606300Y-127075000D01*
X52648700Y-125032600D02*
X57280900Y-125032600D01*
X50606300Y-127075000D02*
X52648700Y-125032600D01*
X57690800Y-125442500D02*
X57690800Y-130590500D01*
X57690800Y-130590500D02*
X57406300Y-130875000D01*
X57280900Y-125032600D02*
X57690800Y-125442500D01*
%TO.N,L_COL2*%
X97729300Y-88591300D02*
X92563000Y-83425000D01*
X101350000Y-94375000D02*
X101350000Y-102475000D01*
X98194500Y-132475000D02*
X96587500Y-132475000D01*
X96587500Y-132475000D02*
X96587500Y-140575000D01*
X140982500Y-69866500D02*
X140581300Y-69866500D01*
X102412500Y-103537500D02*
X102412500Y-109725000D01*
X103731300Y-151525000D02*
X103731300Y-159625000D01*
X97650000Y-90675000D02*
X97729300Y-90595700D01*
X92887500Y-128775000D02*
X96587500Y-132475000D01*
X140581300Y-69866500D02*
X140982500Y-69465300D01*
X97650000Y-90675000D02*
X101350000Y-94375000D01*
X100031300Y-144018800D02*
X100031300Y-147825000D01*
X106112500Y-121525000D02*
X106112500Y-124557000D01*
X91825000Y-75325000D02*
X91825000Y-83425000D01*
X106112500Y-124557000D02*
X98194500Y-132475000D01*
X140982500Y-69465300D02*
X140982500Y-57890000D01*
X100031300Y-147825000D02*
X103731300Y-151525000D01*
X102412500Y-109725000D02*
X106112500Y-113425000D01*
X96587500Y-140575000D02*
X100031300Y-144018800D01*
X92563000Y-83425000D02*
X91825000Y-83425000D01*
X101350000Y-102475000D02*
X102412500Y-103537500D01*
X97729300Y-90595700D02*
X97729300Y-88591300D01*
X140581300Y-69866500D02*
X140982500Y-69866500D01*
X88125000Y-71625000D02*
X91825000Y-75325000D01*
X106112500Y-113425000D02*
X106112500Y-121525000D01*
%TO.N,LK03_D*%
X79425000Y-76825000D02*
X86325000Y-69925000D01*
X93125000Y-73725000D02*
X93125000Y-71300500D01*
X79425000Y-81325000D02*
X79425000Y-76825000D01*
X93125000Y-71300500D02*
X90621800Y-68797300D01*
X90621800Y-68797300D02*
X87452700Y-68797300D01*
X87452700Y-68797300D02*
X86325000Y-69925000D01*
%TO.N,LK29_D*%
X97922800Y-147457000D02*
X98231300Y-147148500D01*
X98231300Y-146125000D02*
X91331300Y-153025000D01*
X98231300Y-147148500D02*
X98231300Y-146125000D01*
X91331300Y-153025000D02*
X91331300Y-157525000D01*
%TO.N,L_COL3*%
X125162500Y-121525000D02*
X125162500Y-113425000D01*
X115637500Y-132475000D02*
X115637500Y-140575000D01*
X123843800Y-147825000D02*
X127543800Y-151525000D01*
X125162500Y-113425000D02*
X122437100Y-110699500D01*
X115637500Y-140575000D02*
X118284700Y-140575000D01*
X122437100Y-110699500D02*
X124291000Y-108845600D01*
X122437100Y-110699500D02*
X121462500Y-109725000D01*
X111937500Y-128775000D02*
X115637500Y-132475000D01*
X120400000Y-102475000D02*
X120400000Y-94375000D01*
X110875000Y-75325000D02*
X110875000Y-83425000D01*
X107175000Y-71625000D02*
X110875000Y-75325000D01*
X124823200Y-125023400D02*
X125162500Y-124684100D01*
X116700000Y-88984100D02*
X116700000Y-90675000D01*
X124291000Y-106366000D02*
X120400000Y-102475000D01*
X123843800Y-146134100D02*
X123843800Y-147825000D01*
X118284700Y-140575000D02*
X123843800Y-146134100D01*
X110875000Y-83425000D02*
X111140900Y-83425000D01*
X125162500Y-124684100D02*
X125162500Y-121525000D01*
X124291000Y-108845600D02*
X124291000Y-106366000D01*
X127543800Y-151525000D02*
X127543800Y-159625000D01*
X120400000Y-94375000D02*
X116700000Y-90675000D01*
X111140900Y-83425000D02*
X116700000Y-88984100D01*
%TO.N,LK30_D*%
X115143800Y-157525000D02*
X115143800Y-153025000D01*
X115143800Y-153025000D02*
X122043800Y-146125000D01*
X122043800Y-146125000D02*
X122043800Y-148686800D01*
X122043800Y-148686800D02*
X123468200Y-150111200D01*
%TO.N,L_ROW0*%
X70686900Y-69736900D02*
X70875000Y-69925000D01*
X166136900Y-69913100D02*
X166136900Y-68358000D01*
X128025000Y-69925000D02*
X128025000Y-72175700D01*
X89770600Y-69770600D02*
X89925000Y-69925000D01*
X69280500Y-69736900D02*
X70686900Y-69736900D01*
X51825000Y-69925000D02*
X53251200Y-69925000D01*
X149872500Y-39639200D02*
X150629500Y-38882200D01*
X150054000Y-56820000D02*
X150054000Y-56300800D01*
X109110100Y-68353200D02*
X109110100Y-69789900D01*
X127326800Y-69925000D02*
X126119900Y-68718100D01*
X109110100Y-69789900D02*
X108975000Y-69925000D01*
X128025000Y-72175700D02*
X128378700Y-72529400D01*
X128025000Y-69925000D02*
X127326800Y-69925000D01*
X148685400Y-68362300D02*
X148661600Y-68338500D01*
X150054000Y-56300800D02*
X149872500Y-56119300D01*
X166125000Y-69925000D02*
X166136900Y-69913100D01*
X147075000Y-69925000D02*
X148661500Y-68338500D01*
X53251200Y-69925000D02*
X53363100Y-70036900D01*
X148661500Y-68338500D02*
X148661600Y-68338500D01*
X149872500Y-57001500D02*
X150054000Y-56820000D01*
X149872500Y-56119300D02*
X149872500Y-39639200D01*
X152454700Y-38882200D02*
X153682500Y-40110000D01*
X88596700Y-69770600D02*
X89770600Y-69770600D01*
X150629500Y-38882200D02*
X152454700Y-38882200D01*
X148661600Y-68338500D02*
X149872500Y-67127600D01*
X149872500Y-67127600D02*
X149872500Y-57001500D01*
X148685400Y-68383500D02*
X148685400Y-68362300D01*
%TO.N,L_ROW2*%
X122149200Y-106911700D02*
X114469300Y-106911700D01*
X142822800Y-108535300D02*
X142312500Y-108025000D01*
X103166800Y-106979300D02*
X103166800Y-106849700D01*
X85162500Y-107982100D02*
X85162500Y-108025000D01*
X58968700Y-108025000D02*
X59963400Y-108025000D01*
X158500000Y-94271600D02*
X158500000Y-96794000D01*
X157888300Y-86398800D02*
X157888300Y-93659900D01*
X142822800Y-110468900D02*
X142822800Y-108535300D01*
X161362500Y-109484800D02*
X161362500Y-108025000D01*
X84030100Y-106849700D02*
X85162500Y-107982100D01*
X154134300Y-60411200D02*
X153996300Y-60549200D01*
X158500000Y-96794000D02*
X161362500Y-99656500D01*
X59963400Y-108025000D02*
X62008900Y-110070500D01*
X104212500Y-110563300D02*
X104212500Y-108025000D01*
X106832900Y-113183700D02*
X104212500Y-110563300D01*
X157888300Y-93659900D02*
X158500000Y-94271600D01*
X108197300Y-113183700D02*
X106832900Y-113183700D01*
X149427300Y-56560400D02*
X148602500Y-55735600D01*
X153996300Y-60549200D02*
X153996300Y-82506800D01*
X104212500Y-108025000D02*
X103166800Y-106979300D01*
X114469300Y-106911700D02*
X108197300Y-113183700D01*
X153996300Y-82506800D02*
X157888300Y-86398800D01*
X161362500Y-99656500D02*
X161362500Y-108025000D01*
X123262500Y-108025000D02*
X122149200Y-106911700D01*
X161119700Y-109727600D02*
X161362500Y-109484800D01*
X148602500Y-55735600D02*
X148602500Y-40110000D01*
%TO.N,L_ROW3*%
X93589900Y-127075000D02*
X93121100Y-126606200D01*
X94687500Y-127075000D02*
X93589900Y-127075000D01*
X152875700Y-67937600D02*
X152684800Y-67937600D01*
X75197200Y-126634700D02*
X75637500Y-127075000D01*
X159189400Y-75865500D02*
X159073900Y-75865500D01*
X132787500Y-127075000D02*
X132787500Y-128034300D01*
X55593500Y-125687800D02*
X57012300Y-125687800D01*
X152875700Y-68128500D02*
X152684800Y-67937600D01*
X132787500Y-128034300D02*
X133711600Y-128958400D01*
X162057700Y-91257700D02*
X162057700Y-78733800D01*
X159073900Y-75865500D02*
X159189400Y-75865500D01*
X54206300Y-127075000D02*
X55593500Y-125687800D01*
X147332500Y-41380000D02*
X146062500Y-40110000D01*
X152684800Y-75083900D02*
X152875700Y-74893000D01*
X152954800Y-75083900D02*
X152684800Y-75083900D01*
X151399200Y-126636700D02*
X151837500Y-127075000D01*
X162057700Y-78733800D02*
X159189400Y-75865500D01*
X112765000Y-127075000D02*
X112296200Y-126606200D01*
X167117800Y-111991600D02*
X164893300Y-109767100D01*
X169350800Y-127075000D02*
X169087500Y-126811700D01*
X113737500Y-127075000D02*
X112765000Y-127075000D01*
X167117800Y-124842000D02*
X167117800Y-111991600D01*
X74102900Y-126634700D02*
X75197200Y-126634700D01*
X170887500Y-127075000D02*
X169350800Y-127075000D01*
X152684800Y-75083900D02*
X152954800Y-75083900D01*
X150510100Y-126636700D02*
X151399200Y-126636700D01*
X152684800Y-67937600D02*
X152875700Y-67937600D01*
X147332500Y-67611400D02*
X147332500Y-41380000D01*
X164893300Y-109767100D02*
X164893300Y-94093300D01*
X169087500Y-126811700D02*
X167117800Y-124842000D01*
X159189400Y-75865500D02*
X159073900Y-75865500D01*
X147670600Y-67949500D02*
X147332500Y-67611400D01*
X164893300Y-94093300D02*
X162057700Y-91257700D01*
X152875700Y-74893000D02*
X152875700Y-68128500D01*
%TO.N,L_ROW1*%
X118663300Y-89138300D02*
X119703500Y-89138300D01*
X57111500Y-88975000D02*
X57831900Y-89695400D01*
X157254500Y-86850700D02*
X156600000Y-87505200D01*
X80400000Y-88975000D02*
X80400000Y-90167000D01*
X56587500Y-88975000D02*
X57111500Y-88975000D01*
X152412500Y-82008700D02*
X157254500Y-86850700D01*
X152411000Y-74471500D02*
X152058100Y-74824400D01*
X152058100Y-74824400D02*
X152058100Y-75343400D01*
X152412500Y-67323700D02*
X152058100Y-67678100D01*
X152412500Y-41380000D02*
X152412500Y-67323700D01*
X152058100Y-67678100D02*
X152058100Y-68823900D01*
X99450000Y-88975000D02*
X100272900Y-89797900D01*
X137550000Y-87784300D02*
X137550000Y-88975000D01*
X152058100Y-75343400D02*
X152412500Y-75697800D01*
X151142500Y-40110000D02*
X152412500Y-41380000D01*
X156600000Y-87505200D02*
X156600000Y-88975000D01*
X152412500Y-75697800D02*
X152412500Y-82008700D01*
X118500000Y-88975000D02*
X118663300Y-89138300D01*
X152411000Y-69176800D02*
X152411000Y-74471500D01*
X100272900Y-89797900D02*
X101600500Y-89797900D01*
X136616400Y-86850700D02*
X137550000Y-87784300D01*
X152058100Y-68823900D02*
X152411000Y-69176800D01*
X80400000Y-90167000D02*
X80503400Y-90270400D01*
%TO.N,L_ROW4*%
X147355700Y-147457000D02*
X147075000Y-147176300D01*
X147075000Y-147176300D02*
X147075000Y-146125000D01*
X142579300Y-84429300D02*
X143462600Y-85312600D01*
X78295300Y-147457000D02*
X78018800Y-147180500D01*
X125643800Y-146729400D02*
X125643800Y-146125000D01*
X78018800Y-147180500D02*
X78018800Y-146125000D01*
X143462600Y-112030000D02*
X144212500Y-112779900D01*
X139712500Y-39639200D02*
X139712500Y-69883900D01*
X147159000Y-119611400D02*
X147159000Y-146041000D01*
X166784700Y-146125000D02*
X166590400Y-145930700D01*
X101831300Y-146125000D02*
X103811800Y-146125000D01*
X140469500Y-38882200D02*
X139712500Y-39639200D01*
X54206300Y-146125000D02*
X54243900Y-146162600D01*
X143462600Y-85312600D02*
X143462600Y-112030000D01*
X168506300Y-146125000D02*
X166784700Y-146125000D01*
X126321100Y-147406700D02*
X125643800Y-146729400D01*
X144212500Y-116664900D02*
X147159000Y-119611400D01*
X142294700Y-38882200D02*
X140469500Y-38882200D01*
X103811800Y-146125000D02*
X104185100Y-146498300D01*
X139712500Y-69883900D02*
X142579300Y-72750700D01*
X143522500Y-40110000D02*
X142294700Y-38882200D01*
X144212500Y-112779900D02*
X144212500Y-116664900D01*
X54243900Y-146162600D02*
X55704300Y-146162600D01*
X147159000Y-146041000D02*
X147075000Y-146125000D01*
X142579300Y-72750700D02*
X142579300Y-84429300D01*
%TO.N,GND*%
X128282500Y-40110000D02*
X129552500Y-41380000D01*
X129552500Y-58753000D02*
X127771500Y-60534000D01*
X129552500Y-41380000D02*
X129552500Y-58753000D01*
%TO.N,RST*%
X127769500Y-38882200D02*
X129594700Y-38882200D01*
X126782600Y-60632200D02*
X127012500Y-60402300D01*
X127012500Y-60402300D02*
X127012500Y-39639200D01*
X127012500Y-39639200D02*
X127769500Y-38882200D01*
X129594700Y-38882200D02*
X130822500Y-40110000D01*
%TO.N,LK05_D*%
X124425000Y-69925000D02*
X117525000Y-76825000D01*
X124425000Y-69526800D02*
X124425000Y-69925000D01*
X131225000Y-73725000D02*
X131225000Y-71276700D01*
X128039700Y-68091400D02*
X125860400Y-68091400D01*
X125860400Y-68091400D02*
X124425000Y-69526800D01*
X131225000Y-71276700D02*
X128039700Y-68091400D01*
X117525000Y-76825000D02*
X117525000Y-81325000D01*
%TO.N,LK32_D*%
X166043900Y-144987400D02*
X164906300Y-146125000D01*
X169178800Y-144987400D02*
X166043900Y-144987400D01*
X158006300Y-157525000D02*
X158006300Y-153025000D01*
X171706300Y-147514900D02*
X169178800Y-144987400D01*
X158006300Y-153025000D02*
X164906300Y-146125000D01*
X171706300Y-149925000D02*
X171706300Y-147514900D01*
%TO.N,LK17_D*%
X119662500Y-108025000D02*
X112762500Y-114925000D01*
X121423100Y-107938900D02*
X119748600Y-107938900D01*
X119748600Y-107938900D02*
X119662500Y-108025000D01*
X112762500Y-114925000D02*
X112762500Y-119425000D01*
%TO.N,LK09_D*%
X69900000Y-100375000D02*
X69900000Y-95875000D01*
X69900000Y-95875000D02*
X76800000Y-88975000D01*
X76800000Y-88975000D02*
X76800000Y-91368100D01*
X76800000Y-91368100D02*
X78775500Y-93343600D01*
%TO.N,LK22_D*%
X84187500Y-133975000D02*
X91087500Y-127075000D01*
X92251200Y-125911300D02*
X95318400Y-125911300D01*
X97887500Y-128480400D02*
X97887500Y-130875000D01*
X91087500Y-127075000D02*
X92251200Y-125911300D01*
X84187500Y-138475000D02*
X84187500Y-133975000D01*
X95318400Y-125911300D02*
X97887500Y-128480400D01*
%TO.N,LK25_D*%
X152535500Y-125962600D02*
X155037500Y-128464600D01*
X155037500Y-128464600D02*
X155037500Y-130875000D01*
X148237500Y-127075000D02*
X149349900Y-125962600D01*
X145461300Y-131641200D02*
X141337500Y-135765000D01*
X149349900Y-125962600D02*
X152535500Y-125962600D01*
X141337500Y-135765000D02*
X141337500Y-138475000D01*
%TO.N,LK23_D*%
X103237500Y-133975000D02*
X110137500Y-127075000D01*
X114425700Y-125972300D02*
X116937500Y-128484100D01*
X110137500Y-127075000D02*
X111240200Y-125972300D01*
X116937500Y-128484100D02*
X116937500Y-130875000D01*
X103237500Y-138475000D02*
X103237500Y-133975000D01*
X111240200Y-125972300D02*
X114425700Y-125972300D01*
%TO.N,LK11_D*%
X114900000Y-91975400D02*
X115978300Y-93053700D01*
X108000000Y-100375000D02*
X108000000Y-95875000D01*
X108000000Y-95875000D02*
X114900000Y-88975000D01*
X114900000Y-88975000D02*
X114900000Y-91975400D01*
%TO.N,LK24_D*%
X122287500Y-133975000D02*
X129187500Y-127075000D01*
X130351200Y-125911300D02*
X133418400Y-125911300D01*
X129187500Y-127075000D02*
X130351200Y-125911300D01*
X122287500Y-138475000D02*
X122287500Y-133975000D01*
X133418400Y-125911300D02*
X135987500Y-128480400D01*
X135987500Y-128480400D02*
X135987500Y-130875000D01*
%TO.N,LK14_D*%
X55368700Y-110031400D02*
X55368700Y-108025000D01*
X48468700Y-119425000D02*
X48468700Y-116795600D01*
X48468700Y-116795600D02*
X55232900Y-110031400D01*
X55368700Y-110031400D02*
X55411100Y-110031400D01*
X55411100Y-110031400D02*
X56950400Y-111570700D01*
X55232900Y-110031400D02*
X55368700Y-110031400D01*
%TO.N,LK04_D*%
X98475000Y-76825000D02*
X105375000Y-69925000D01*
X98475000Y-81325000D02*
X98475000Y-76825000D01*
X105648400Y-69651600D02*
X105375000Y-69925000D01*
X107278900Y-69651600D02*
X105648400Y-69651600D01*
%TO.N,LK12_D*%
X127050000Y-100375000D02*
X127050000Y-95875000D01*
X135323300Y-88871000D02*
X135219300Y-88975000D01*
X127050000Y-95875000D02*
X133950000Y-88975000D01*
X135219300Y-88975000D02*
X133950000Y-88975000D01*
%TO.N,LK28_D*%
X67518800Y-153025000D02*
X74418800Y-146125000D01*
X74099800Y-147457000D02*
X74418800Y-147138000D01*
X74418800Y-147138000D02*
X74418800Y-146125000D01*
X67518800Y-157525000D02*
X67518800Y-153025000D01*
%TO.N,LK10_D*%
X97102600Y-88850900D02*
X96978500Y-88975000D01*
X96978500Y-88975000D02*
X95850000Y-88975000D01*
X88950000Y-95875000D02*
X88950000Y-100375000D01*
X95850000Y-88975000D02*
X88950000Y-95875000D01*
%TO.N,LK27_D*%
X43706300Y-154832000D02*
X43706300Y-157525000D01*
X52860800Y-150165000D02*
X53858800Y-150165000D01*
X50606300Y-146125000D02*
X50606300Y-147910500D01*
X50606300Y-147910500D02*
X50617100Y-147921200D01*
X50617100Y-147921200D02*
X43706300Y-154832000D01*
X50617100Y-147921200D02*
X52860800Y-150165000D01*
%TO.N,LK01_D*%
X41325000Y-76825000D02*
X41325000Y-81325000D01*
X55025000Y-73725000D02*
X55025000Y-70812500D01*
X53009800Y-68797300D02*
X49352700Y-68797300D01*
X48225000Y-69925000D02*
X41325000Y-76825000D01*
X55025000Y-70812500D02*
X53009800Y-68797300D01*
X49352700Y-68797300D02*
X48225000Y-69925000D01*
%TO.N,LK07_D*%
X162403300Y-70046700D02*
X162403300Y-70098400D01*
X162403300Y-71592800D02*
X162431900Y-71621300D01*
X164042100Y-73231600D02*
X165250700Y-73231600D01*
X162403300Y-70046700D02*
X162525000Y-69925000D01*
X158447200Y-75825800D02*
X155625000Y-78648000D01*
X162431900Y-71621300D02*
X158447200Y-75606000D01*
X162403300Y-70098400D02*
X162403300Y-71592800D01*
X155625000Y-78648000D02*
X155625000Y-81325000D01*
X162431900Y-71621300D02*
X164042100Y-73231600D01*
X158447200Y-75606000D02*
X158447200Y-75825800D01*
%TO.N,LK08_D*%
X52987500Y-88975000D02*
X46087500Y-95875000D01*
X52987500Y-88975000D02*
X52987500Y-91977200D01*
X46087500Y-95875000D02*
X46087500Y-100375000D01*
X52987500Y-91977200D02*
X54064000Y-93053700D01*
%TO.N,LK06_D*%
X145460100Y-73725000D02*
X150275000Y-73725000D01*
X143475000Y-71739900D02*
X145460100Y-73725000D01*
X136575000Y-77999500D02*
X139564700Y-75009800D01*
X136575000Y-81325000D02*
X136575000Y-77999500D01*
X143475000Y-69925000D02*
X143475000Y-71739900D01*
%TO.N,LK31_D*%
X136575000Y-153025000D02*
X143475000Y-146125000D01*
X143475000Y-148539400D02*
X143475000Y-146125000D01*
X136575000Y-157525000D02*
X136575000Y-153025000D01*
X142513000Y-149501400D02*
X143475000Y-148539400D01*
%TO.N,LK16_D*%
X98772600Y-111704800D02*
X93712500Y-116764900D01*
X100612500Y-111704800D02*
X98772600Y-111704800D01*
X100612500Y-111704800D02*
X103073300Y-111704800D01*
X100612500Y-108025000D02*
X100612500Y-111704800D01*
X93712500Y-116764900D02*
X93712500Y-119425000D01*
%TO.N,LK21_D*%
X78837500Y-128484100D02*
X78837500Y-130875000D01*
X72037500Y-127075000D02*
X73144300Y-125968200D01*
X65137500Y-138475000D02*
X65137500Y-133975000D01*
X65137500Y-133975000D02*
X72037500Y-127075000D01*
X73144300Y-125968200D02*
X76321600Y-125968200D01*
X76321600Y-125968200D02*
X78837500Y-128484100D01*
%TD*%
M02*
