M48
; DRILL file KiCad 10.0.3 date 2026-06-08T15:47:59
; FORMAT={-:-/ absolute / metric / decimal}
; #@! TF.CreationDate,2026-06-08T15:47:59+09:00
; #@! TF.GenerationSoftware,Kicad,Pcbnew,10.0.3
; #@! TF.FileFunction,NonPlated,1,2,NPTH
FMAT,2
METRIC
; #@! TA.AperFunction,NonPlated,NPTH,ComponentDrill
T1C1.702
; #@! TA.AperFunction,NonPlated,NPTH,ComponentDrill
T2C2.200
; #@! TA.AperFunction,NonPlated,NPTH,ComponentDrill
T3C3.000
; #@! TA.AperFunction,NonPlated,NPTH,ComponentDrill
T4C3.429
%
G90
G05
T1
X43.025Y-77.525
X45.406Y-134.675
X45.406Y-153.725
X47.787Y-96.575
X50.169Y-115.625
X54.025Y-77.525
X56.406Y-134.675
X56.406Y-153.725
X58.787Y-96.575
X61.169Y-115.625
X62.075Y-77.525
X66.837Y-134.675
X69.219Y-153.725
X71.6Y-96.575
X73.075Y-77.525
X76.362Y-115.625
X77.837Y-134.675
X80.219Y-153.725
X81.125Y-77.525
X82.6Y-96.575
X85.888Y-134.675
X87.362Y-115.625
X90.65Y-96.575
X92.125Y-77.525
X93.031Y-153.725
X95.412Y-115.625
X96.887Y-134.675
X100.175Y-77.525
X101.65Y-96.575
X104.031Y-153.725
X104.938Y-134.675
X106.412Y-115.625
X109.7Y-96.575
X111.175Y-77.525
X114.462Y-115.625
X115.938Y-134.675
X116.844Y-153.725
X119.225Y-77.525
X120.7Y-96.575
X123.987Y-134.675
X125.462Y-115.625
X127.844Y-153.725
X128.75Y-96.575
X130.225Y-77.525
X133.512Y-115.625
X134.987Y-134.675
X138.275Y-77.525
X138.275Y-153.725
X139.75Y-96.575
X143.037Y-134.675
X144.512Y-115.625
X147.8Y-96.575
X149.275Y-77.525
X149.275Y-153.725
X152.562Y-115.625
X154.037Y-134.675
X157.325Y-77.525
X158.8Y-96.575
X159.706Y-153.725
X162.088Y-134.675
X163.562Y-115.625
X168.325Y-77.525
X170.706Y-153.725
X173.088Y-134.675
T3
X43.525Y-81.325
X45.906Y-138.475
X45.906Y-157.525
X48.287Y-100.375
X48.525Y-83.425
X50.669Y-119.425
X50.906Y-140.575
X50.906Y-159.625
X53.287Y-102.475
X55.669Y-121.525
X61.52Y-151.32
X62.575Y-81.325
X63.03Y-102.03
X66.53Y-122.93
X67.337Y-138.475
X67.575Y-83.425
X69.719Y-157.525
X72.1Y-100.375
X72.337Y-140.575
X74.719Y-159.625
X76.862Y-119.425
X77.1Y-102.475
X81.625Y-81.325
X81.862Y-121.525
X86.388Y-138.475
X86.625Y-83.425
X91.15Y-100.375
X91.388Y-140.575
X93.531Y-157.525
X95.912Y-119.425
X96.15Y-102.475
X98.531Y-159.625
X100.675Y-81.325
X100.912Y-121.525
X105.438Y-138.475
X105.675Y-83.425
X109.21Y-122.93
X109.21Y-151.32
X110.2Y-100.375
X110.438Y-140.575
X114.962Y-119.425
X115.2Y-102.475
X117.344Y-157.525
X119.725Y-81.325
X119.962Y-121.525
X122.344Y-159.625
X124.487Y-138.475
X124.71Y-91.03
X124.725Y-83.425
X129.25Y-100.375
X129.487Y-140.575
X134.012Y-119.425
X134.25Y-102.475
X137.4Y-142.32
X138.775Y-81.325
X138.775Y-157.525
X139.012Y-121.525
X143.537Y-138.475
X143.775Y-83.425
X143.775Y-159.625
X145.4Y-90.53
X146.9Y-122.93
X148.3Y-100.375
X148.537Y-140.575
X153.062Y-119.425
X153.3Y-102.475
X157.825Y-81.325
X158.062Y-121.525
X160.206Y-157.525
X162.588Y-138.475
X162.825Y-83.425
X165.206Y-159.625
X167.588Y-140.575
T4
X48.525Y-77.525
X50.906Y-134.675
X50.906Y-153.725
X53.287Y-96.575
X55.669Y-115.625
X67.575Y-77.525
X72.337Y-134.675
X74.719Y-153.725
X77.1Y-96.575
X81.862Y-115.625
X86.625Y-77.525
X91.388Y-134.675
X96.15Y-96.575
X98.531Y-153.725
X100.912Y-115.625
X105.675Y-77.525
X110.438Y-134.675
X115.2Y-96.575
X119.962Y-115.625
X122.344Y-153.725
X124.725Y-77.525
X129.487Y-134.675
X134.25Y-96.575
X139.012Y-115.625
X143.775Y-77.525
X143.775Y-153.725
X148.537Y-134.675
X153.3Y-96.575
X158.062Y-115.625
X162.825Y-77.525
X165.206Y-153.725
X167.588Y-134.675
T2
X153.382Y-49.0G85X154.782Y-49.0
G05
M30
