M48
; DRILL file KiCad 10.0.3 date 2026-06-06T08:41:41
; FORMAT={-:-/ absolute / metric / decimal}
; #@! TF.CreationDate,2026-06-06T08:41:41+09:00
; #@! TF.GenerationSoftware,Kicad,Pcbnew,10.0.3
; #@! TF.FileFunction,Plated,1,2,PTH
FMAT,2
METRIC
; #@! TA.AperFunction,Plated,PTH,ViaDrill
T1C0.300
; #@! TA.AperFunction,Plated,PTH,ComponentDrill
T2C0.950
; #@! TA.AperFunction,Plated,PTH,ComponentDrill
T3C1.270
%
G90
G05
T1
X53.363Y-70.037
X53.859Y-150.165
X54.064Y-93.054
X55.704Y-146.163
X56.95Y-111.571
X57.012Y-125.688
X57.832Y-89.695
X62.009Y-110.07
X69.281Y-69.737
X74.1Y-147.457
X74.103Y-126.635
X78.295Y-147.457
X78.775Y-93.344
X80.503Y-90.27
X84.03Y-106.85
X85.296Y-112.018
X88.597Y-69.771
X93.121Y-126.606
X97.103Y-88.851
X97.923Y-147.457
X101.6Y-89.798
X103.073Y-111.705
X103.167Y-106.85
X104.185Y-146.498
X107.279Y-69.652
X109.11Y-68.353
X112.296Y-126.606
X115.978Y-93.054
X119.703Y-89.138
X121.423Y-107.939
X123.468Y-150.111
X124.823Y-125.023
X126.12Y-68.718
X126.321Y-147.407
X126.783Y-60.632
X127.771Y-60.534
X128.379Y-72.529
X133.668Y-147.311
X133.712Y-128.958
X135.323Y-88.871
X135.933Y-111.509
X136.616Y-86.851
X139.565Y-75.01
X140.581Y-69.867
X142.513Y-149.501
X142.823Y-110.469
X145.461Y-131.641
X147.356Y-147.457
X147.671Y-67.95
X148.685Y-68.383
X149.427Y-56.56
X150.51Y-126.637
X152.685Y-67.938
X152.685Y-75.084
X154.134Y-60.411
X154.34Y-88.851
X157.254Y-86.851
X157.254Y-147.034
X157.762Y-111.443
X159.074Y-75.865
X161.12Y-109.728
X165.251Y-73.232
X166.099Y-129.002
X166.137Y-68.358
X166.59Y-145.931
X168.021Y-112.895
X169.088Y-126.812
X170.04Y-129.728
T2
X125.742Y-40.11
X125.742Y-57.89
X128.282Y-40.11
X128.282Y-57.89
X130.822Y-40.11
X130.822Y-57.89
X133.362Y-40.11
X133.362Y-57.89
X135.903Y-40.11
X135.903Y-57.89
X138.442Y-40.11
X138.442Y-57.89
X140.982Y-40.11
X140.982Y-57.89
X143.522Y-40.11
X143.522Y-57.89
X146.062Y-40.11
X146.062Y-57.89
X148.602Y-40.11
X148.602Y-57.89
X151.142Y-40.11
X151.142Y-57.89
X153.683Y-40.11
X153.683Y-57.89
T3
X50.025Y-71.625
X52.406Y-128.775
X52.406Y-147.825
X54.787Y-90.675
X55.025Y-73.725
X57.169Y-109.725
X57.406Y-130.875
X57.406Y-149.925
X59.787Y-92.775
X62.169Y-111.825
X69.075Y-71.625
X73.837Y-128.775
X74.075Y-73.725
X76.219Y-147.825
X78.6Y-90.675
X78.837Y-130.875
X81.219Y-149.925
X83.362Y-109.725
X83.6Y-92.775
X88.125Y-71.625
X88.362Y-111.825
X92.888Y-128.775
X93.125Y-73.725
X97.65Y-90.675
X97.887Y-130.875
X100.031Y-147.825
X102.412Y-109.725
X102.65Y-92.775
X105.031Y-149.925
X107.175Y-71.625
X107.412Y-111.825
X111.938Y-128.775
X112.175Y-73.725
X116.7Y-90.675
X116.938Y-130.875
X121.462Y-109.725
X121.7Y-92.775
X123.844Y-147.825
X126.225Y-71.625
X126.462Y-111.825
X128.844Y-149.925
X130.987Y-128.775
X131.225Y-73.725
X135.75Y-90.675
X135.987Y-130.875
X140.512Y-109.725
X140.75Y-92.775
X145.275Y-71.625
X145.275Y-147.825
X145.512Y-111.825
X150.037Y-128.775
X150.275Y-73.725
X150.275Y-149.925
X154.8Y-90.675
X155.037Y-130.875
X159.562Y-109.725
X159.8Y-92.775
X164.325Y-71.625
X164.562Y-111.825
X166.706Y-147.825
X169.088Y-128.775
X169.325Y-73.725
X171.706Y-149.925
X174.088Y-130.875
M30
