%TF.GenerationSoftware,KiCad,Pcbnew,10.0.3*%
%TF.CreationDate,2026-06-08T15:47:45+09:00*%
%TF.ProjectId,kc2_left,6b63325f-6c65-4667-942e-6b696361645f,draft-1*%
%TF.SameCoordinates,Original*%
%TF.FileFunction,Profile,NP*%
%FSLAX46Y46*%
G04 Gerber Fmt 4.6, Leading zero omitted, Abs format (unit mm)*
G04 Created by KiCad (PCBNEW 10.0.3) date 2026-06-08 15:47:45*
%MOMM*%
%LPD*%
G01*
G04 APERTURE LIST*
%TA.AperFunction,Profile*%
%ADD10C,0.100000*%
%TD*%
G04 APERTURE END LIST*
D10*
X35000000Y-63500000D02*
X35080000Y-62780000D01*
X35000000Y-66000000D02*
X35000000Y-63500000D01*
X35000000Y-66800000D02*
X35000000Y-66000000D01*
X35000000Y-67600000D02*
X35000000Y-66800000D01*
X35000000Y-68400000D02*
X35000000Y-67600000D01*
X35000000Y-69200000D02*
X35000000Y-68400000D01*
X35000000Y-70000000D02*
X35000000Y-69200000D01*
X35000000Y-85050000D02*
X35000000Y-70000000D01*
X35000000Y-85850000D02*
X35000000Y-85050000D01*
X35000000Y-86650000D02*
X35000000Y-85850000D01*
X35000000Y-87450000D02*
X35000000Y-86650000D01*
X35000000Y-88250000D02*
X35000000Y-87450000D01*
X35000000Y-89050000D02*
X35000000Y-88250000D01*
X35000000Y-104100000D02*
X35000000Y-89050000D01*
X35000000Y-104900000D02*
X35000000Y-104100000D01*
X35000000Y-105700000D02*
X35000000Y-104900000D01*
X35000000Y-106500000D02*
X35000000Y-105700000D01*
X35000000Y-107300000D02*
X35000000Y-106500000D01*
X35000000Y-108100000D02*
X35000000Y-107300000D01*
X35000000Y-123150000D02*
X35000000Y-108100000D01*
X35000000Y-123950000D02*
X35000000Y-123150000D01*
X35000000Y-124750000D02*
X35000000Y-123950000D01*
X35000000Y-125550000D02*
X35000000Y-124750000D01*
X35000000Y-126350000D02*
X35000000Y-125550000D01*
X35000000Y-127150000D02*
X35000000Y-126350000D01*
X35000000Y-142200000D02*
X35000000Y-127150000D01*
X35000000Y-143000000D02*
X35000000Y-142200000D01*
X35000000Y-143800000D02*
X35000000Y-143000000D01*
X35000000Y-144600000D02*
X35000000Y-143800000D01*
X35000000Y-145400000D02*
X35000000Y-144600000D01*
X35000000Y-146200000D02*
X35000000Y-145400000D01*
X35000000Y-165250000D02*
X35000000Y-146200000D01*
X35080000Y-62780000D02*
X35320000Y-62220000D01*
X35080000Y-165970000D02*
X35000000Y-165250000D01*
X35320000Y-62220000D02*
X35720000Y-61820000D01*
X35320000Y-166530000D02*
X35080000Y-165970000D01*
X35720000Y-61820000D02*
X36280000Y-61580000D01*
X35720000Y-166930000D02*
X35320000Y-166530000D01*
X36280000Y-61580000D02*
X37000000Y-61500000D01*
X36280000Y-167170000D02*
X35720000Y-166930000D01*
X37000000Y-61500000D02*
X112712500Y-61500000D01*
X37000000Y-167250000D02*
X36280000Y-167170000D01*
X112712500Y-61500000D02*
X113432500Y-61420000D01*
X113432500Y-61420000D02*
X113992500Y-61180000D01*
X113992500Y-61180000D02*
X114392500Y-61280000D01*
X114392500Y-61280000D02*
X114632500Y-60720000D01*
X114632500Y-60720000D02*
X114712500Y-60000000D01*
X114712500Y-37000000D02*
X114792500Y-36279999D01*
X114712500Y-60000000D02*
X114712500Y-37000000D01*
X114792500Y-36279999D02*
X115032500Y-35720000D01*
X115032500Y-35720000D02*
X115432500Y-35320000D01*
X115432500Y-35320000D02*
X115992500Y-35080000D01*
X115992500Y-35080000D02*
X116712500Y-35000000D01*
X116712500Y-35000000D02*
X155212500Y-35000000D01*
X155212500Y-35000000D02*
X155932500Y-35079999D01*
X155932500Y-35079999D02*
X156492500Y-35320000D01*
X156492500Y-35320000D02*
X156892499Y-35720000D01*
X156892499Y-35720000D02*
X157132500Y-36280000D01*
X157132500Y-36280000D02*
X157212500Y-37000000D01*
X157212500Y-37000000D02*
X157212500Y-60000000D01*
X157212500Y-60000000D02*
X157292500Y-60720000D01*
X157292500Y-60720000D02*
X157532500Y-61280000D01*
X157532500Y-61280000D02*
X157932500Y-61180000D01*
X157932500Y-61180000D02*
X158492500Y-61420000D01*
X158492500Y-61420000D02*
X159212500Y-61500000D01*
X159212500Y-61500000D02*
X173950000Y-61500000D01*
X166425000Y-89050000D02*
X166425000Y-104100000D01*
X166425000Y-104100000D02*
X166505000Y-104820000D01*
X166505000Y-88330000D02*
X166425000Y-89050000D01*
X166505000Y-104820000D02*
X166745000Y-105380000D01*
X166745000Y-87770000D02*
X166505000Y-88330000D01*
X166745000Y-105380000D02*
X167144999Y-105780000D01*
X167145000Y-87370000D02*
X166745000Y-87770000D01*
X167144999Y-105780000D02*
X167705000Y-106020000D01*
X167705000Y-87130000D02*
X167145000Y-87370000D01*
X167705000Y-106020000D02*
X168425000Y-106100000D01*
X168425000Y-87050000D02*
X167705000Y-87130000D01*
X168425000Y-106100000D02*
X169187500Y-106100000D01*
X169187500Y-106100000D02*
X169907500Y-106180000D01*
X169907500Y-106180000D02*
X170467500Y-106420000D01*
X170467500Y-106420000D02*
X170867500Y-106820000D01*
X170867500Y-106820000D02*
X171107500Y-107380000D01*
X171107500Y-107380000D02*
X171187500Y-108100000D01*
X171187500Y-108100000D02*
X171187500Y-123150000D01*
X171187500Y-123150000D02*
X171267500Y-123870000D01*
X171267500Y-123870000D02*
X171507500Y-124430000D01*
X171507500Y-124430000D02*
X171907500Y-124830000D01*
X171907500Y-124830000D02*
X172467500Y-125070000D01*
X172467500Y-125070000D02*
X173187500Y-125150000D01*
X173187500Y-125150000D02*
X178712500Y-125150000D01*
X173950000Y-61500000D02*
X174670000Y-61580000D01*
X173950000Y-87050000D02*
X168425000Y-87050000D01*
X174670000Y-61580000D02*
X175230000Y-61820000D01*
X174670000Y-86970000D02*
X173950000Y-87050000D01*
X175230000Y-61820000D02*
X175630000Y-62220000D01*
X175230000Y-86730000D02*
X174670000Y-86970000D01*
X175630000Y-62220000D02*
X175870000Y-62780000D01*
X175630000Y-86330000D02*
X175230000Y-86730000D01*
X175870000Y-62780000D02*
X175950000Y-63500000D01*
X175870000Y-85770000D02*
X175630000Y-86330000D01*
X175950000Y-63500000D02*
X175950000Y-85050000D01*
X175950000Y-85050000D02*
X175870000Y-85770000D01*
X178712500Y-125150000D02*
X179432500Y-125230000D01*
X178912500Y-167250000D02*
X37000000Y-167250000D01*
X179432500Y-125230000D02*
X179992500Y-125470000D01*
X179560500Y-167178000D02*
X178912500Y-167250000D01*
X179992500Y-125470000D02*
X180392500Y-125870000D01*
X180064500Y-166962000D02*
X179560500Y-167178000D01*
X180392500Y-125870000D02*
X180632500Y-126430000D01*
X180424500Y-166602000D02*
X180064500Y-166962000D01*
X180632500Y-126430000D02*
X180712500Y-127150000D01*
X180640500Y-166098000D02*
X180424500Y-166602000D01*
X180712500Y-127150000D02*
X180712500Y-142200000D01*
X180712500Y-142200000D02*
X180712500Y-143000000D01*
X180712500Y-143000000D02*
X180712500Y-143800000D01*
X180712500Y-143800000D02*
X180712500Y-144600000D01*
X180712500Y-144600000D02*
X180712500Y-145400000D01*
X180712500Y-145400000D02*
X180712500Y-146200000D01*
X180712500Y-146200000D02*
X180712500Y-161450000D01*
X180712500Y-161450000D02*
X180712500Y-162170000D01*
X180712500Y-162170000D02*
X180712500Y-162890000D01*
X180712500Y-162890000D02*
X180712500Y-163610000D01*
X180712500Y-163610000D02*
X180712500Y-164330000D01*
X180712500Y-164330000D02*
X180712500Y-165050000D01*
X180712500Y-165050000D02*
X180712500Y-165450000D01*
X180712500Y-165450000D02*
X180640500Y-166098000D01*
M02*
