%TF.GenerationSoftware,KiCad,Pcbnew,10.0.3*%
%TF.CreationDate,2026-06-05T16:35:24+09:00*%
%TF.ProjectId,kc2_left,6b63325f-6c65-4667-942e-6b696361645f,draft-1*%
%TF.SameCoordinates,Original*%
%TF.FileFunction,Paste,Bot*%
%TF.FilePolarity,Positive*%
%FSLAX46Y46*%
G04 Gerber Fmt 4.6, Leading zero omitted, Abs format (unit mm)*
G04 Created by KiCad (PCBNEW 10.0.3) date 2026-06-05 16:35:24*
%MOMM*%
%LPD*%
G01*
G04 APERTURE LIST*
G04 Aperture macros list*
%AMRoundRect*
0 Rectangle with rounded corners*
0 $1 Rounding radius*
0 $2 $3 $4 $5 $6 $7 $8 $9 X,Y pos of 4 corners*
0 Add a 4 corners polygon primitive as box body*
4,1,4,$2,$3,$4,$5,$6,$7,$8,$9,$2,$3,0*
0 Add four circle primitives for the rounded corners*
1,1,$1+$1,$2,$3*
1,1,$1+$1,$4,$5*
1,1,$1+$1,$6,$7*
1,1,$1+$1,$8,$9*
0 Add four rect primitives between the rounded corners*
20,1,$1+$1,$2,$3,$4,$5,0*
20,1,$1+$1,$4,$5,$6,$7,0*
20,1,$1+$1,$6,$7,$8,$9,0*
20,1,$1+$1,$8,$9,$2,$3,0*%
G04 Aperture macros list end*
%ADD10RoundRect,0.520000X-0.780000X-0.780000X0.780000X-0.780000X0.780000X0.780000X-0.780000X0.780000X0*%
%ADD11RoundRect,0.252000X0.448000X0.523000X-0.448000X0.523000X-0.448000X-0.523000X0.448000X-0.523000X0*%
G04 APERTURE END LIST*
D10*
%TO.C,SW13*%
X158500000Y-102475000D03*
X146100000Y-100375000D03*
%TD*%
%TO.C,SW11*%
X120400000Y-102475000D03*
X108000000Y-100375000D03*
%TD*%
%TO.C,SW22*%
X96587500Y-140575000D03*
X84187500Y-138475000D03*
%TD*%
%TO.C,SW7*%
X168025000Y-83425000D03*
X155625000Y-81325000D03*
%TD*%
%TO.C,SW3*%
X91825000Y-83425000D03*
X79425000Y-81325000D03*
%TD*%
%TO.C,SW12*%
X139450000Y-102475000D03*
X127050000Y-100375000D03*
%TD*%
%TO.C,SW15*%
X87062500Y-121525000D03*
X74662500Y-119425000D03*
%TD*%
%TO.C,SW31*%
X148975000Y-159625000D03*
X136575000Y-157525000D03*
%TD*%
%TO.C,SW27*%
X56106300Y-159625000D03*
X43706300Y-157525000D03*
%TD*%
%TO.C,SW19*%
X163262500Y-121525000D03*
X150862500Y-119425000D03*
%TD*%
%TO.C,SW2*%
X72775000Y-83425000D03*
X60375000Y-81325000D03*
%TD*%
%TO.C,SW20*%
X56106300Y-140575000D03*
X43706300Y-138475000D03*
%TD*%
%TO.C,SW8*%
X58487500Y-102475000D03*
X46087500Y-100375000D03*
%TD*%
%TO.C,SW32*%
X170406300Y-159625000D03*
X158006300Y-157525000D03*
%TD*%
%TO.C,SW17*%
X125162500Y-121525000D03*
X112762500Y-119425000D03*
%TD*%
%TO.C,SW6*%
X148975000Y-83425000D03*
X136575000Y-81325000D03*
%TD*%
%TO.C,SW9*%
X82300000Y-102475000D03*
X69900000Y-100375000D03*
%TD*%
%TO.C,SW26*%
X172787500Y-140575000D03*
X160387500Y-138475000D03*
%TD*%
%TO.C,SW24*%
X134687500Y-140575000D03*
X122287500Y-138475000D03*
%TD*%
%TO.C,SW16*%
X106112500Y-121525000D03*
X93712500Y-119425000D03*
%TD*%
%TO.C,SW4*%
X110875000Y-83425000D03*
X98475000Y-81325000D03*
%TD*%
%TO.C,SW14*%
X60868700Y-121525000D03*
X48468700Y-119425000D03*
%TD*%
%TO.C,SW21*%
X77537500Y-140575000D03*
X65137500Y-138475000D03*
%TD*%
%TO.C,SW25*%
X153737500Y-140575000D03*
X141337500Y-138475000D03*
%TD*%
%TO.C,SW5*%
X129925000Y-83425000D03*
X117525000Y-81325000D03*
%TD*%
%TO.C,SW18*%
X144212500Y-121525000D03*
X131812500Y-119425000D03*
%TD*%
%TO.C,SW29*%
X103731300Y-159625000D03*
X91331300Y-157525000D03*
%TD*%
%TO.C,SW23*%
X115637500Y-140575000D03*
X103237500Y-138475000D03*
%TD*%
%TO.C,SW28*%
X79918800Y-159625000D03*
X67518800Y-157525000D03*
%TD*%
%TO.C,SW1*%
X53725000Y-83425000D03*
X41325000Y-81325000D03*
%TD*%
%TO.C,SW10*%
X101350000Y-102475000D03*
X88950000Y-100375000D03*
%TD*%
%TO.C,SW30*%
X127543800Y-159625000D03*
X115143800Y-157525000D03*
%TD*%
D11*
%TO.C,D6*%
X147075000Y-69925000D03*
X143475000Y-69925000D03*
%TD*%
%TO.C,D28*%
X78018800Y-146125000D03*
X74418800Y-146125000D03*
%TD*%
%TO.C,D23*%
X113737500Y-127075000D03*
X110137500Y-127075000D03*
%TD*%
%TO.C,D17*%
X123262500Y-108025000D03*
X119662500Y-108025000D03*
%TD*%
%TO.C,D7*%
X166125000Y-69925000D03*
X162525000Y-69925000D03*
%TD*%
%TO.C,D3*%
X89925000Y-69925000D03*
X86325000Y-69925000D03*
%TD*%
%TO.C,D1*%
X51825000Y-69925000D03*
X48225000Y-69925000D03*
%TD*%
%TO.C,D13*%
X156600000Y-88975000D03*
X153000000Y-88975000D03*
%TD*%
%TO.C,D26*%
X170887500Y-127075000D03*
X167287500Y-127075000D03*
%TD*%
%TO.C,D16*%
X104212500Y-108025000D03*
X100612500Y-108025000D03*
%TD*%
%TO.C,D2*%
X70875000Y-69925000D03*
X67275000Y-69925000D03*
%TD*%
%TO.C,D12*%
X137550000Y-88975000D03*
X133950000Y-88975000D03*
%TD*%
%TO.C,D18*%
X142312500Y-108025000D03*
X138712500Y-108025000D03*
%TD*%
%TO.C,D19*%
X161362500Y-108025000D03*
X157762500Y-108025000D03*
%TD*%
%TO.C,D5*%
X128025000Y-69925000D03*
X124425000Y-69925000D03*
%TD*%
%TO.C,D14*%
X58968700Y-108025000D03*
X55368700Y-108025000D03*
%TD*%
%TO.C,D32*%
X168506300Y-146125000D03*
X164906300Y-146125000D03*
%TD*%
%TO.C,D4*%
X108975000Y-69925000D03*
X105375000Y-69925000D03*
%TD*%
%TO.C,D21*%
X75637500Y-127075000D03*
X72037500Y-127075000D03*
%TD*%
%TO.C,D22*%
X94687500Y-127075000D03*
X91087500Y-127075000D03*
%TD*%
%TO.C,D27*%
X54206300Y-146125000D03*
X50606300Y-146125000D03*
%TD*%
%TO.C,D24*%
X132787500Y-127075000D03*
X129187500Y-127075000D03*
%TD*%
%TO.C,D11*%
X118500000Y-88975000D03*
X114900000Y-88975000D03*
%TD*%
%TO.C,D20*%
X54206300Y-127075000D03*
X50606300Y-127075000D03*
%TD*%
%TO.C,D15*%
X85162500Y-108025000D03*
X81562500Y-108025000D03*
%TD*%
%TO.C,D25*%
X151837500Y-127075000D03*
X148237500Y-127075000D03*
%TD*%
%TO.C,D10*%
X99450000Y-88975000D03*
X95850000Y-88975000D03*
%TD*%
%TO.C,D9*%
X80400000Y-88975000D03*
X76800000Y-88975000D03*
%TD*%
%TO.C,D30*%
X125643800Y-146125000D03*
X122043800Y-146125000D03*
%TD*%
%TO.C,D8*%
X56587500Y-88975000D03*
X52987500Y-88975000D03*
%TD*%
%TO.C,D31*%
X147075000Y-146125000D03*
X143475000Y-146125000D03*
%TD*%
%TO.C,D29*%
X101831300Y-146125000D03*
X98231300Y-146125000D03*
%TD*%
M02*
