M48
; DRILL file KiCad 10.0.3 date 2026-06-08T15:47:59
; FORMAT={-:-/ absolute / metric / decimal}
; #@! TF.CreationDate,2026-06-08T15:47:59+09:00
; #@! TF.GenerationSoftware,Kicad,Pcbnew,10.0.3
; #@! TF.FileFunction,Plated,1,2,PTH
FMAT,2
METRIC
; #@! TA.AperFunction,Plated,PTH,ViaDrill
T1C0.300
; #@! TA.AperFunction,Plated,PTH,ComponentDrill
T2C0.950
; #@! TA.AperFunction,Plated,PTH,ComponentDrill
T3C1.270
%
G90
G05
T1
X69.145Y-65.739
X74.719Y-138.594
X79.001Y-118.174
X80.545Y-100.412
X94.748Y-138.762
X95.407Y-71.169
X99.511Y-104.658
X106.135Y-69.994
X119.66Y-104.658
X122.745Y-144.35
X128.548Y-80.52
X133.521Y-44.721
X137.611Y-100.412
X137.648Y-88.957
X143.224Y-144.35
X143.545Y-60.133
X144.112Y-145.022
X144.248Y-56.036
X146.698Y-119.405
X149.324Y-87.818
X149.66Y-56.245
X149.766Y-61.124
X150.829Y-124.529
X152.523Y-45.199
X152.523Y-71.689
T2
X124.242Y-40.11
X124.242Y-57.89
X126.782Y-40.11
X126.782Y-57.89
X129.322Y-40.11
X129.322Y-57.89
X131.862Y-40.11
X131.862Y-57.89
X134.403Y-40.11
X134.403Y-57.89
X136.942Y-40.11
X136.942Y-57.89
X139.482Y-40.11
X139.482Y-57.89
X142.022Y-40.11
X142.022Y-57.89
X144.562Y-40.11
X144.562Y-57.89
X147.102Y-40.11
X147.102Y-57.89
X149.642Y-40.11
X149.642Y-57.89
X152.183Y-40.11
X152.183Y-57.89
T3
X48.525Y-71.625
X50.906Y-128.775
X50.906Y-147.825
X53.287Y-90.675
X53.525Y-73.725
X55.669Y-109.725
X55.906Y-130.875
X55.906Y-149.925
X58.287Y-92.775
X60.669Y-111.825
X67.575Y-71.625
X72.337Y-128.775
X72.575Y-73.725
X74.719Y-147.825
X77.1Y-90.675
X77.337Y-130.875
X79.719Y-149.925
X81.862Y-109.725
X82.1Y-92.775
X86.625Y-71.625
X86.862Y-111.825
X91.388Y-128.775
X91.625Y-73.725
X96.15Y-90.675
X96.387Y-130.875
X98.531Y-147.825
X100.912Y-109.725
X101.15Y-92.775
X103.531Y-149.925
X105.675Y-71.625
X105.912Y-111.825
X110.438Y-128.775
X110.675Y-73.725
X115.2Y-90.675
X115.438Y-130.875
X119.962Y-109.725
X120.2Y-92.775
X122.344Y-147.825
X124.725Y-71.625
X124.962Y-111.825
X127.344Y-149.925
X129.487Y-128.775
X129.725Y-73.725
X134.25Y-90.675
X134.487Y-130.875
X139.012Y-109.725
X139.25Y-92.775
X143.775Y-71.625
X143.775Y-147.825
X144.012Y-111.825
X148.537Y-128.775
X148.775Y-73.725
X148.775Y-149.925
X153.3Y-90.675
X153.537Y-130.875
X158.062Y-109.725
X158.3Y-92.775
X162.825Y-71.625
X163.062Y-111.825
X165.206Y-147.825
X167.588Y-128.775
X167.825Y-73.725
X170.206Y-149.925
X172.588Y-130.875
M30
