%TF.GenerationSoftware,KiCad,Pcbnew,10.0.3*%
%TF.CreationDate,2026-06-05T16:35:24+09:00*%
%TF.ProjectId,kc2_left,6b63325f-6c65-4667-942e-6b696361645f,draft-1*%
%TF.SameCoordinates,Original*%
%TF.FileFunction,Copper,L2,Bot*%
%TF.FilePolarity,Positive*%
%FSLAX46Y46*%
G04 Gerber Fmt 4.6, Leading zero omitted, Abs format (unit mm)*
G04 Created by KiCad (PCBNEW 10.0.3) date 2026-06-05 16:35:24*
%MOMM*%
%LPD*%
G01*
G04 APERTURE LIST*
G04 Aperture macros list*
%AMRoundRect*
0 Rectangle with rounded corners*
0 $1 Rounding radius*
0 $2 $3 $4 $5 $6 $7 $8 $9 X,Y pos of 4 corners*
0 Add a 4 corners polygon primitive as box body*
4,1,4,$2,$3,$4,$5,$6,$7,$8,$9,$2,$3,0*
0 Add four circle primitives for the rounded corners*
1,1,$1+$1,$2,$3*
1,1,$1+$1,$4,$5*
1,1,$1+$1,$6,$7*
1,1,$1+$1,$8,$9*
0 Add four rect primitives between the rounded corners*
20,1,$1+$1,$2,$3,$4,$5,0*
20,1,$1+$1,$4,$5,$6,$7,0*
20,1,$1+$1,$6,$7,$8,$9,0*
20,1,$1+$1,$8,$9,$2,$3,0*%
G04 Aperture macros list end*
%TA.AperFunction,ComponentPad*%
%ADD10C,2.000000*%
%TD*%
%TA.AperFunction,SMDPad,CuDef*%
%ADD11RoundRect,0.520000X-0.780000X-0.780000X0.780000X-0.780000X0.780000X0.780000X-0.780000X0.780000X0*%
%TD*%
%TA.AperFunction,ComponentPad*%
%ADD12O,2.600000X1.800000*%
%TD*%
%TA.AperFunction,ComponentPad*%
%ADD13C,1.800000*%
%TD*%
%TA.AperFunction,SMDPad,CuDef*%
%ADD14RoundRect,0.252000X0.448000X0.523000X-0.448000X0.523000X-0.448000X-0.523000X0.448000X-0.523000X0*%
%TD*%
%TA.AperFunction,ViaPad*%
%ADD15C,0.600000*%
%TD*%
%TA.AperFunction,Conductor*%
%ADD16C,0.250000*%
%TD*%
G04 APERTURE END LIST*
D10*
%TO.P,SW13,1*%
%TO.N,L_COL5*%
X154800000Y-90675000D03*
D11*
X158500000Y-102475000D03*
%TO.P,SW13,2*%
%TO.N,LK13_D*%
X146100000Y-100375000D03*
D10*
X159800000Y-92775000D03*
%TD*%
%TO.P,SW11,1*%
%TO.N,L_COL3*%
X116700000Y-90675000D03*
D11*
X120400000Y-102475000D03*
%TO.P,SW11,2*%
%TO.N,LK11_D*%
X108000000Y-100375000D03*
D10*
X121700000Y-92775000D03*
%TD*%
%TO.P,SW22,1*%
%TO.N,L_COL2*%
X92887500Y-128775000D03*
D11*
X96587500Y-140575000D03*
%TO.P,SW22,2*%
%TO.N,LK22_D*%
X84187500Y-138475000D03*
D10*
X97887500Y-130875000D03*
%TD*%
D12*
%TO.P,J_PWR1,BAT+*%
%TO.N,BAT+*%
X102412500Y-47800000D03*
%TO.P,J_PWR1,BAT-*%
%TO.N,BAT-*%
X102412500Y-52200000D03*
%TO.P,J_PWR1,NN_B+*%
%TO.N,BAT+*%
X108412500Y-47800000D03*
%TO.P,J_PWR1,NN_B-*%
%TO.N,BAT-*%
X108412500Y-52200000D03*
%TD*%
D10*
%TO.P,SW7,1*%
%TO.N,L_COL6*%
X164325000Y-71625000D03*
D11*
X168025000Y-83425000D03*
%TO.P,SW7,2*%
%TO.N,LK07_D*%
X155625000Y-81325000D03*
D10*
X169325000Y-73725000D03*
%TD*%
%TO.P,SW3,1*%
%TO.N,L_COL2*%
X88125000Y-71625000D03*
D11*
X91825000Y-83425000D03*
%TO.P,SW3,2*%
%TO.N,LK03_D*%
X79425000Y-81325000D03*
D10*
X93125000Y-73725000D03*
%TD*%
%TO.P,SW12,1*%
%TO.N,L_COL4*%
X135750000Y-90675000D03*
D11*
X139450000Y-102475000D03*
%TO.P,SW12,2*%
%TO.N,LK12_D*%
X127050000Y-100375000D03*
D10*
X140750000Y-92775000D03*
%TD*%
%TO.P,SW15,1*%
%TO.N,L_COL1*%
X83362500Y-109725000D03*
D11*
X87062500Y-121525000D03*
%TO.P,SW15,2*%
%TO.N,LK15_D*%
X74662500Y-119425000D03*
D10*
X88362500Y-111825000D03*
%TD*%
%TO.P,SW31,1*%
%TO.N,L_COL4*%
X145275000Y-147825000D03*
D11*
X148975000Y-159625000D03*
%TO.P,SW31,2*%
%TO.N,LK31_D*%
X136575000Y-157525000D03*
D10*
X150275000Y-149925000D03*
%TD*%
%TO.P,SW27,1*%
%TO.N,L_COL0*%
X52406300Y-147825000D03*
D11*
X56106300Y-159625000D03*
%TO.P,SW27,2*%
%TO.N,LK27_D*%
X43706300Y-157525000D03*
D10*
X57406300Y-149925000D03*
%TD*%
%TO.P,SW19,1*%
%TO.N,L_COL5*%
X159562500Y-109725000D03*
D11*
X163262500Y-121525000D03*
%TO.P,SW19,2*%
%TO.N,LK19_D*%
X150862500Y-119425000D03*
D10*
X164562500Y-111825000D03*
%TD*%
%TO.P,SW2,1*%
%TO.N,L_COL1*%
X69075000Y-71625000D03*
D11*
X72775000Y-83425000D03*
%TO.P,SW2,2*%
%TO.N,LK02_D*%
X60375000Y-81325000D03*
D10*
X74075000Y-73725000D03*
%TD*%
%TO.P,SW20,1*%
%TO.N,L_COL0*%
X52406300Y-128775000D03*
D11*
X56106300Y-140575000D03*
%TO.P,SW20,2*%
%TO.N,LK20_D*%
X43706300Y-138475000D03*
D10*
X57406300Y-130875000D03*
%TD*%
%TO.P,SW8,1*%
%TO.N,L_COL0*%
X54787500Y-90675000D03*
D11*
X58487500Y-102475000D03*
%TO.P,SW8,2*%
%TO.N,LK08_D*%
X46087500Y-100375000D03*
D10*
X59787500Y-92775000D03*
%TD*%
%TO.P,SW32,1*%
%TO.N,L_COL5*%
X166706300Y-147825000D03*
D11*
X170406300Y-159625000D03*
%TO.P,SW32,2*%
%TO.N,LK32_D*%
X158006300Y-157525000D03*
D10*
X171706300Y-149925000D03*
%TD*%
%TO.P,SW17,1*%
%TO.N,L_COL3*%
X121462500Y-109725000D03*
D11*
X125162500Y-121525000D03*
%TO.P,SW17,2*%
%TO.N,LK17_D*%
X112762500Y-119425000D03*
D10*
X126462500Y-111825000D03*
%TD*%
%TO.P,SW6,1*%
%TO.N,L_COL5*%
X145275000Y-71625000D03*
D11*
X148975000Y-83425000D03*
%TO.P,SW6,2*%
%TO.N,LK06_D*%
X136575000Y-81325000D03*
D10*
X150275000Y-73725000D03*
%TD*%
%TO.P,SW9,1*%
%TO.N,L_COL1*%
X78600000Y-90675000D03*
D11*
X82300000Y-102475000D03*
%TO.P,SW9,2*%
%TO.N,LK09_D*%
X69900000Y-100375000D03*
D10*
X83600000Y-92775000D03*
%TD*%
%TO.P,SW26,1*%
%TO.N,L_COL6*%
X169087500Y-128775000D03*
D11*
X172787500Y-140575000D03*
%TO.P,SW26,2*%
%TO.N,LK26_D*%
X160387500Y-138475000D03*
D10*
X174087500Y-130875000D03*
%TD*%
%TO.P,SW24,1*%
%TO.N,L_COL4*%
X130987500Y-128775000D03*
D11*
X134687500Y-140575000D03*
%TO.P,SW24,2*%
%TO.N,LK24_D*%
X122287500Y-138475000D03*
D10*
X135987500Y-130875000D03*
%TD*%
%TO.P,SW16,1*%
%TO.N,L_COL2*%
X102412500Y-109725000D03*
D11*
X106112500Y-121525000D03*
%TO.P,SW16,2*%
%TO.N,LK16_D*%
X93712500Y-119425000D03*
D10*
X107412500Y-111825000D03*
%TD*%
%TO.P,SW4,1*%
%TO.N,L_COL3*%
X107175000Y-71625000D03*
D11*
X110875000Y-83425000D03*
%TO.P,SW4,2*%
%TO.N,LK04_D*%
X98475000Y-81325000D03*
D10*
X112175000Y-73725000D03*
%TD*%
%TO.P,SW14,1*%
%TO.N,L_COL0*%
X57168700Y-109725000D03*
D11*
X60868700Y-121525000D03*
%TO.P,SW14,2*%
%TO.N,LK14_D*%
X48468700Y-119425000D03*
D10*
X62168700Y-111825000D03*
%TD*%
%TO.P,SW21,1*%
%TO.N,L_COL1*%
X73837500Y-128775000D03*
D11*
X77537500Y-140575000D03*
%TO.P,SW21,2*%
%TO.N,LK21_D*%
X65137500Y-138475000D03*
D10*
X78837500Y-130875000D03*
%TD*%
%TO.P,SW25,1*%
%TO.N,L_COL5*%
X150037500Y-128775000D03*
D11*
X153737500Y-140575000D03*
%TO.P,SW25,2*%
%TO.N,LK25_D*%
X141337500Y-138475000D03*
D10*
X155037500Y-130875000D03*
%TD*%
%TO.P,SW5,1*%
%TO.N,L_COL4*%
X126225000Y-71625000D03*
D11*
X129925000Y-83425000D03*
%TO.P,SW5,2*%
%TO.N,LK05_D*%
X117525000Y-81325000D03*
D10*
X131225000Y-73725000D03*
%TD*%
%TO.P,SW18,1*%
%TO.N,L_COL4*%
X140512500Y-109725000D03*
D11*
X144212500Y-121525000D03*
%TO.P,SW18,2*%
%TO.N,LK18_D*%
X131812500Y-119425000D03*
D10*
X145512500Y-111825000D03*
%TD*%
%TO.P,SW29,1*%
%TO.N,L_COL2*%
X100031300Y-147825000D03*
D11*
X103731300Y-159625000D03*
%TO.P,SW29,2*%
%TO.N,LK29_D*%
X91331300Y-157525000D03*
D10*
X105031300Y-149925000D03*
%TD*%
%TO.P,SW23,1*%
%TO.N,L_COL3*%
X111937500Y-128775000D03*
D11*
X115637500Y-140575000D03*
%TO.P,SW23,2*%
%TO.N,LK23_D*%
X103237500Y-138475000D03*
D10*
X116937500Y-130875000D03*
%TD*%
%TO.P,SW28,1*%
%TO.N,L_COL1*%
X76218800Y-147825000D03*
D11*
X79918800Y-159625000D03*
%TO.P,SW28,2*%
%TO.N,LK28_D*%
X67518800Y-157525000D03*
D10*
X81218800Y-149925000D03*
%TD*%
%TO.P,SW1,1*%
%TO.N,L_COL0*%
X50025000Y-71625000D03*
D11*
X53725000Y-83425000D03*
%TO.P,SW1,2*%
%TO.N,LK01_D*%
X41325000Y-81325000D03*
D10*
X55025000Y-73725000D03*
%TD*%
%TO.P,SW10,1*%
%TO.N,L_COL2*%
X97650000Y-90675000D03*
D11*
X101350000Y-102475000D03*
%TO.P,SW10,2*%
%TO.N,LK10_D*%
X88950000Y-100375000D03*
D10*
X102650000Y-92775000D03*
%TD*%
%TO.P,SW30,1*%
%TO.N,L_COL3*%
X123843800Y-147825000D03*
D11*
X127543800Y-159625000D03*
%TO.P,SW30,2*%
%TO.N,LK30_D*%
X115143800Y-157525000D03*
D10*
X128843800Y-149925000D03*
%TD*%
D13*
%TO.P,U1,D0*%
%TO.N,N/C*%
X121982500Y-57890000D03*
%TO.P,U1,D1*%
X119442500Y-57890000D03*
%TO.P,U1,D2*%
X129602500Y-57890000D03*
%TO.P,U1,D3*%
%TO.N,L_COL0*%
X132142500Y-57890000D03*
%TO.P,U1,D4*%
%TO.N,L_COL2*%
X134682500Y-57890000D03*
%TO.P,U1,D5*%
%TO.N,L_COL1*%
X137222500Y-57890000D03*
%TO.P,U1,D6*%
%TO.N,L_COL3*%
X139762500Y-57890000D03*
%TO.P,U1,D7*%
%TO.N,L_COL4*%
X142302500Y-57890000D03*
%TO.P,U1,D8*%
%TO.N,L_COL5*%
X144842500Y-57890000D03*
%TO.P,U1,D9*%
%TO.N,L_COL6*%
X147382500Y-57890000D03*
%TO.P,U1,D10*%
%TO.N,L_ROW0*%
X147382500Y-40110000D03*
%TO.P,U1,D14*%
%TO.N,L_ROW2*%
X142302500Y-40110000D03*
%TO.P,U1,D15*%
%TO.N,L_ROW3*%
X139762500Y-40110000D03*
%TO.P,U1,D16*%
%TO.N,L_ROW1*%
X144842500Y-40110000D03*
%TO.P,U1,D18*%
%TO.N,L_ROW4*%
X137222500Y-40110000D03*
%TO.P,U1,D19*%
%TO.N,N/C*%
X134682500Y-40110000D03*
%TO.P,U1,D20*%
X132142500Y-40110000D03*
%TO.P,U1,D21*%
X129602500Y-40110000D03*
%TO.P,U1,GND_A*%
X124522500Y-57890000D03*
%TO.P,U1,GND_B*%
X127062500Y-57890000D03*
%TO.P,U1,GND_C*%
%TO.N,GND*%
X121982500Y-40110000D03*
%TO.P,U1,RAW*%
%TO.N,N/C*%
X119442500Y-40110000D03*
%TO.P,U1,RST*%
%TO.N,RST*%
X124522500Y-40110000D03*
%TO.P,U1,VCC*%
%TO.N,N/C*%
X127062500Y-40110000D03*
%TD*%
D14*
%TO.P,D6,1*%
%TO.N,L_ROW0*%
X147075000Y-69925000D03*
%TO.P,D6,2*%
%TO.N,LK06_D*%
X143475000Y-69925000D03*
%TD*%
%TO.P,D28,1*%
%TO.N,L_ROW4*%
X78018800Y-146125000D03*
%TO.P,D28,2*%
%TO.N,LK28_D*%
X74418800Y-146125000D03*
%TD*%
%TO.P,D23,1*%
%TO.N,L_ROW3*%
X113737500Y-127075000D03*
%TO.P,D23,2*%
%TO.N,LK23_D*%
X110137500Y-127075000D03*
%TD*%
%TO.P,D17,1*%
%TO.N,L_ROW2*%
X123262500Y-108025000D03*
%TO.P,D17,2*%
%TO.N,LK17_D*%
X119662500Y-108025000D03*
%TD*%
%TO.P,D7,1*%
%TO.N,L_ROW0*%
X166125000Y-69925000D03*
%TO.P,D7,2*%
%TO.N,LK07_D*%
X162525000Y-69925000D03*
%TD*%
%TO.P,D3,1*%
%TO.N,L_ROW0*%
X89925000Y-69925000D03*
%TO.P,D3,2*%
%TO.N,LK03_D*%
X86325000Y-69925000D03*
%TD*%
%TO.P,D1,1*%
%TO.N,L_ROW0*%
X51825000Y-69925000D03*
%TO.P,D1,2*%
%TO.N,LK01_D*%
X48225000Y-69925000D03*
%TD*%
%TO.P,D13,1*%
%TO.N,L_ROW1*%
X156600000Y-88975000D03*
%TO.P,D13,2*%
%TO.N,LK13_D*%
X153000000Y-88975000D03*
%TD*%
%TO.P,D26,1*%
%TO.N,L_ROW3*%
X170887500Y-127075000D03*
%TO.P,D26,2*%
%TO.N,LK26_D*%
X167287500Y-127075000D03*
%TD*%
%TO.P,D16,1*%
%TO.N,L_ROW2*%
X104212500Y-108025000D03*
%TO.P,D16,2*%
%TO.N,LK16_D*%
X100612500Y-108025000D03*
%TD*%
%TO.P,D2,1*%
%TO.N,L_ROW0*%
X70875000Y-69925000D03*
%TO.P,D2,2*%
%TO.N,LK02_D*%
X67275000Y-69925000D03*
%TD*%
%TO.P,D12,1*%
%TO.N,L_ROW1*%
X137550000Y-88975000D03*
%TO.P,D12,2*%
%TO.N,LK12_D*%
X133950000Y-88975000D03*
%TD*%
%TO.P,D18,1*%
%TO.N,L_ROW2*%
X142312500Y-108025000D03*
%TO.P,D18,2*%
%TO.N,LK18_D*%
X138712500Y-108025000D03*
%TD*%
%TO.P,D19,1*%
%TO.N,L_ROW2*%
X161362500Y-108025000D03*
%TO.P,D19,2*%
%TO.N,LK19_D*%
X157762500Y-108025000D03*
%TD*%
%TO.P,D5,1*%
%TO.N,L_ROW0*%
X128025000Y-69925000D03*
%TO.P,D5,2*%
%TO.N,LK05_D*%
X124425000Y-69925000D03*
%TD*%
%TO.P,D14,1*%
%TO.N,L_ROW2*%
X58968700Y-108025000D03*
%TO.P,D14,2*%
%TO.N,LK14_D*%
X55368700Y-108025000D03*
%TD*%
%TO.P,D32,1*%
%TO.N,L_ROW4*%
X168506300Y-146125000D03*
%TO.P,D32,2*%
%TO.N,LK32_D*%
X164906300Y-146125000D03*
%TD*%
%TO.P,D4,1*%
%TO.N,L_ROW0*%
X108975000Y-69925000D03*
%TO.P,D4,2*%
%TO.N,LK04_D*%
X105375000Y-69925000D03*
%TD*%
%TO.P,D21,1*%
%TO.N,L_ROW3*%
X75637500Y-127075000D03*
%TO.P,D21,2*%
%TO.N,LK21_D*%
X72037500Y-127075000D03*
%TD*%
%TO.P,D22,1*%
%TO.N,L_ROW3*%
X94687500Y-127075000D03*
%TO.P,D22,2*%
%TO.N,LK22_D*%
X91087500Y-127075000D03*
%TD*%
%TO.P,D27,1*%
%TO.N,L_ROW4*%
X54206300Y-146125000D03*
%TO.P,D27,2*%
%TO.N,LK27_D*%
X50606300Y-146125000D03*
%TD*%
%TO.P,D24,1*%
%TO.N,L_ROW3*%
X132787500Y-127075000D03*
%TO.P,D24,2*%
%TO.N,LK24_D*%
X129187500Y-127075000D03*
%TD*%
%TO.P,D11,1*%
%TO.N,L_ROW1*%
X118500000Y-88975000D03*
%TO.P,D11,2*%
%TO.N,LK11_D*%
X114900000Y-88975000D03*
%TD*%
%TO.P,D20,1*%
%TO.N,L_ROW3*%
X54206300Y-127075000D03*
%TO.P,D20,2*%
%TO.N,LK20_D*%
X50606300Y-127075000D03*
%TD*%
%TO.P,D15,1*%
%TO.N,L_ROW2*%
X85162500Y-108025000D03*
%TO.P,D15,2*%
%TO.N,LK15_D*%
X81562500Y-108025000D03*
%TD*%
%TO.P,D25,1*%
%TO.N,L_ROW3*%
X151837500Y-127075000D03*
%TO.P,D25,2*%
%TO.N,LK25_D*%
X148237500Y-127075000D03*
%TD*%
%TO.P,D10,1*%
%TO.N,L_ROW1*%
X99450000Y-88975000D03*
%TO.P,D10,2*%
%TO.N,LK10_D*%
X95850000Y-88975000D03*
%TD*%
%TO.P,D9,1*%
%TO.N,L_ROW1*%
X80400000Y-88975000D03*
%TO.P,D9,2*%
%TO.N,LK09_D*%
X76800000Y-88975000D03*
%TD*%
%TO.P,D30,1*%
%TO.N,L_ROW4*%
X125643800Y-146125000D03*
%TO.P,D30,2*%
%TO.N,LK30_D*%
X122043800Y-146125000D03*
%TD*%
%TO.P,D8,1*%
%TO.N,L_ROW1*%
X56587500Y-88975000D03*
%TO.P,D8,2*%
%TO.N,LK08_D*%
X52987500Y-88975000D03*
%TD*%
%TO.P,D31,1*%
%TO.N,L_ROW4*%
X147075000Y-146125000D03*
%TO.P,D31,2*%
%TO.N,LK31_D*%
X143475000Y-146125000D03*
%TD*%
%TO.P,D29,1*%
%TO.N,L_ROW4*%
X101831300Y-146125000D03*
%TO.P,D29,2*%
%TO.N,LK29_D*%
X98231300Y-146125000D03*
%TD*%
D15*
%TO.N,L_COL5*%
X160311100Y-113085000D03*
X158160700Y-105082200D03*
%TO.N,L_COL3*%
X118580900Y-122711100D03*
X124514000Y-72906100D03*
X120145000Y-105110700D03*
X118925000Y-140571300D03*
%TO.N,L_COL2*%
X92391900Y-68169700D03*
X92391900Y-80836000D03*
X101010700Y-105058100D03*
X95377600Y-143446900D03*
%TO.N,L_COL4*%
X145461300Y-143468500D03*
X139110700Y-105058100D03*
%TO.N,L_COL1*%
X76218800Y-137594600D03*
X71391100Y-80836000D03*
X74702100Y-65860300D03*
%TO.N,L_ROW0*%
X145670800Y-69958000D03*
%TO.N,L_ROW2*%
X160208800Y-106871300D03*
%TO.N,L_ROW3*%
X124823200Y-125917900D03*
%TO.N,L_ROW1*%
X142159100Y-78333400D03*
%TO.N,L_ROW4*%
X118946900Y-137574300D03*
%TD*%
%TO.N,L_COL5*%
D16*
X157021600Y-140575000D02*
X157021600Y-130980300D01*
X158160700Y-105082200D02*
X158160700Y-102814300D01*
X157648200Y-88220100D02*
X152853100Y-83425000D01*
X157648200Y-89757600D02*
X157648200Y-88220100D01*
X169602200Y-145391700D02*
X164785500Y-140575000D01*
X156730800Y-90675000D02*
X157648200Y-89757600D01*
X154816300Y-128775000D02*
X150037500Y-128775000D01*
X171517400Y-147825000D02*
X169602200Y-147825000D01*
X157021600Y-140575000D02*
X153737500Y-140575000D01*
X154800000Y-90675000D02*
X156730800Y-90675000D01*
X173670600Y-156360700D02*
X173670600Y-149978200D01*
X173670600Y-149978200D02*
X171517400Y-147825000D01*
X164785500Y-140575000D02*
X157021600Y-140575000D01*
X152853100Y-83425000D02*
X148975000Y-83425000D01*
X163262500Y-121525000D02*
X163262500Y-116036400D01*
X158160700Y-102814300D02*
X158500000Y-102475000D01*
X170406300Y-159625000D02*
X173670600Y-156360700D01*
X163262500Y-116036400D02*
X160311100Y-113085000D01*
X157021600Y-130980300D02*
X154816300Y-128775000D01*
X169602200Y-147825000D02*
X166706300Y-147825000D01*
X169602200Y-147825000D02*
X169602200Y-145391700D01*
%TO.N,LK13_D*%
X153000000Y-91754400D02*
X153000000Y-88975000D01*
X159800000Y-92775000D02*
X154020600Y-92775000D01*
X154020600Y-93878500D02*
X154020600Y-92775000D01*
X146100000Y-100375000D02*
X148324600Y-98150400D01*
X148324600Y-98150400D02*
X149748700Y-98150400D01*
X149748700Y-98150400D02*
X154020600Y-93878500D01*
X154020600Y-92775000D02*
X153000000Y-91754400D01*
%TO.N,L_COL3*%
X130775200Y-156393600D02*
X127543800Y-159625000D01*
X115641200Y-140571300D02*
X115637500Y-140575000D01*
X113501700Y-73175300D02*
X111951400Y-71625000D01*
X113501700Y-74274700D02*
X113501700Y-73175300D01*
X123843800Y-147825000D02*
X128622500Y-147825000D01*
X119473100Y-123601700D02*
X123085800Y-123601700D01*
X130775200Y-149977700D02*
X130775200Y-156393600D01*
X120145000Y-102730000D02*
X120400000Y-102475000D01*
X110875000Y-83425000D02*
X110875000Y-76901400D01*
X111951400Y-71625000D02*
X107175000Y-71625000D01*
X118582500Y-122711100D02*
X119473100Y-123601700D01*
X118580900Y-122711100D02*
X118582500Y-122711100D01*
X113770900Y-72906100D02*
X113501700Y-73175300D01*
X118925000Y-140571300D02*
X115641200Y-140571300D01*
X124514000Y-72906100D02*
X113770900Y-72906100D01*
X110875000Y-76901400D02*
X113501700Y-74274700D01*
X120145000Y-105110700D02*
X120145000Y-102730000D01*
X128622500Y-147825000D02*
X130775200Y-149977700D01*
X123085800Y-123601700D02*
X125162500Y-121525000D01*
%TO.N,LK11_D*%
X117024000Y-92775000D02*
X116972000Y-92827000D01*
X110224600Y-98150400D02*
X111648600Y-98150400D01*
X111648600Y-98150400D02*
X116972000Y-92827000D01*
X116972000Y-92827000D02*
X114900000Y-90755100D01*
X121700000Y-92775000D02*
X117024000Y-92775000D01*
X108000000Y-100375000D02*
X110224600Y-98150400D01*
X114900000Y-90755100D02*
X114900000Y-88975000D01*
%TO.N,L_COL2*%
X106972100Y-156384200D02*
X106972100Y-149954700D01*
X103731300Y-159625000D02*
X106972100Y-156384200D01*
X101010700Y-105058100D02*
X101350000Y-104718800D01*
X104842400Y-147825000D02*
X100031300Y-147825000D01*
X124402800Y-68169700D02*
X134682500Y-57890000D01*
X106972100Y-149954700D02*
X104842400Y-147825000D01*
X96587500Y-142237000D02*
X96587500Y-140575000D01*
X101350000Y-104718800D02*
X101350000Y-102475000D01*
X106112500Y-121525000D02*
X109356100Y-118281400D01*
X109356100Y-118281400D02*
X109356100Y-111832000D01*
X91825000Y-81402900D02*
X91825000Y-83425000D01*
X95377600Y-143446900D02*
X96587500Y-142237000D01*
X92391900Y-68169700D02*
X124402800Y-68169700D01*
X107249100Y-109725000D02*
X102412500Y-109725000D01*
X92391900Y-80836000D02*
X91825000Y-81402900D01*
X109356100Y-111832000D02*
X107249100Y-109725000D01*
%TO.N,LK22_D*%
X84187500Y-138475000D02*
X86412100Y-136250400D01*
X87922400Y-136250400D02*
X93072600Y-131100200D01*
X91087500Y-128889900D02*
X93072600Y-130875000D01*
X86412100Y-136250400D02*
X87922400Y-136250400D01*
X91087500Y-127075000D02*
X91087500Y-128889900D01*
X93072600Y-131100200D02*
X93072600Y-130875000D01*
X93072600Y-130875000D02*
X97887500Y-130875000D01*
%TO.N,BAT+*%
X108412500Y-47800000D02*
X102412500Y-47800000D01*
%TO.N,BAT-*%
X102412500Y-52200000D02*
X108412500Y-52200000D01*
%TO.N,L_COL6*%
X167220900Y-71625000D02*
X167220900Y-69228000D01*
X176059100Y-137303400D02*
X172787500Y-140575000D01*
X168025000Y-83425000D02*
X171253600Y-80196400D01*
X167220900Y-71625000D02*
X164325000Y-71625000D01*
X169136100Y-71625000D02*
X167220900Y-71625000D01*
X149898500Y-60406000D02*
X147382500Y-57890000D01*
X158398900Y-60406000D02*
X149898500Y-60406000D01*
X173866200Y-128775000D02*
X176059100Y-130967900D01*
X167220900Y-69228000D02*
X158398900Y-60406000D01*
X176059100Y-130967900D02*
X176059100Y-137303400D01*
X171253600Y-80196400D02*
X171253600Y-73742500D01*
X171253600Y-73742500D02*
X169136100Y-71625000D01*
X169087500Y-128775000D02*
X173866200Y-128775000D01*
%TO.N,LK07_D*%
X162525000Y-71740900D02*
X164509100Y-73725000D01*
X164509100Y-73725000D02*
X169325000Y-73725000D01*
X162525000Y-69925000D02*
X162525000Y-71740900D01*
X159273600Y-79100400D02*
X164509100Y-73864900D01*
X157849600Y-79100400D02*
X159273600Y-79100400D01*
X164509100Y-73864900D02*
X164509100Y-73725000D01*
X155625000Y-81325000D02*
X157849600Y-79100400D01*
%TO.N,LK03_D*%
X86325000Y-72783500D02*
X86325000Y-69925000D01*
X93125000Y-73725000D02*
X87266500Y-73725000D01*
X79425000Y-81325000D02*
X81649600Y-79100400D01*
X87266500Y-73725000D02*
X86325000Y-72783500D01*
X87266500Y-74907600D02*
X87266500Y-73725000D01*
X81649600Y-79100400D02*
X83073700Y-79100400D01*
X83073700Y-79100400D02*
X87266500Y-74907600D01*
%TO.N,L_COL4*%
X133192900Y-73776000D02*
X131041900Y-71625000D01*
X137950300Y-137312200D02*
X134687500Y-140575000D01*
X145349100Y-109725000D02*
X140512500Y-109725000D01*
X145461300Y-143468500D02*
X137581000Y-143468500D01*
X131041900Y-71625000D02*
X126225000Y-71625000D01*
X135800700Y-128775000D02*
X137950300Y-130924600D01*
X133192900Y-80157100D02*
X133192900Y-73776000D01*
X147456100Y-118281400D02*
X147456100Y-111832000D01*
X137581000Y-143468500D02*
X134687500Y-140575000D01*
X144212500Y-121525000D02*
X147456100Y-118281400D01*
X152213200Y-149932800D02*
X150105400Y-147825000D01*
X130987500Y-128775000D02*
X135800700Y-128775000D01*
X150105400Y-147825000D02*
X145275000Y-147825000D01*
X139450000Y-104718800D02*
X139110700Y-105058100D01*
X152213200Y-156386800D02*
X152213200Y-149932800D01*
X129925000Y-83425000D02*
X133192900Y-80157100D01*
X139450000Y-102475000D02*
X139450000Y-104718800D01*
X148975000Y-159625000D02*
X152213200Y-156386800D01*
X137950300Y-130924600D02*
X137950300Y-137312200D01*
X147456100Y-111832000D02*
X145349100Y-109725000D01*
%TO.N,LK12_D*%
X135935100Y-93000200D02*
X135935100Y-92775000D01*
X133950000Y-90789900D02*
X135935100Y-92775000D01*
X127050000Y-100375000D02*
X129274600Y-98150400D01*
X130784900Y-98150400D02*
X135935100Y-93000200D01*
X129274600Y-98150400D02*
X130784900Y-98150400D01*
X135935100Y-92775000D02*
X140750000Y-92775000D01*
X133950000Y-88975000D02*
X133950000Y-90789900D01*
%TO.N,L_COL1*%
X81051800Y-147825000D02*
X76218800Y-147825000D01*
X90293300Y-111842600D02*
X88175700Y-109725000D01*
X83362500Y-103537500D02*
X83362500Y-109725000D01*
X135537000Y-56204500D02*
X137222500Y-57890000D01*
X82300000Y-102475000D02*
X83362500Y-103537500D01*
X83159500Y-149932700D02*
X81051800Y-147825000D01*
X72775000Y-83425000D02*
X72775000Y-82219900D01*
X77537500Y-138913300D02*
X76218800Y-137594600D01*
X88175700Y-109725000D02*
X83362500Y-109725000D01*
X90293300Y-118294200D02*
X90293300Y-111842600D01*
X110384300Y-56204500D02*
X135537000Y-56204500D01*
X79918800Y-159625000D02*
X83159500Y-156384300D01*
X100728500Y-65860300D02*
X110384300Y-56204500D01*
X77537500Y-140575000D02*
X77537500Y-138913300D01*
X83159500Y-156384300D02*
X83159500Y-149932700D01*
X87062500Y-121525000D02*
X90293300Y-118294200D01*
X72775000Y-82219900D02*
X71391100Y-80836000D01*
X74702100Y-65860300D02*
X100728500Y-65860300D01*
%TO.N,LK15_D*%
X74662500Y-119425000D02*
X76887100Y-117200400D01*
X81562500Y-108025000D02*
X81562500Y-109839900D01*
X83547600Y-112050200D02*
X83547600Y-111825000D01*
X78397400Y-117200400D02*
X83547600Y-112050200D01*
X76887100Y-117200400D02*
X78397400Y-117200400D01*
X81562500Y-109839900D02*
X83547600Y-111825000D01*
X83547600Y-111825000D02*
X88362500Y-111825000D01*
%TO.N,LK31_D*%
X140223600Y-155300400D02*
X145516800Y-150007200D01*
X138799600Y-155300400D02*
X140223600Y-155300400D01*
X145516800Y-150007200D02*
X145599000Y-149925000D01*
X136575000Y-157525000D02*
X138799600Y-155300400D01*
X143475000Y-146125000D02*
X143475000Y-147965500D01*
X145599000Y-149925000D02*
X150275000Y-149925000D01*
X143475000Y-147965500D02*
X145516800Y-150007200D01*
%TO.N,L_COL0*%
X56106300Y-159625000D02*
X59369200Y-156362100D01*
X58487500Y-102475000D02*
X57168700Y-103793800D01*
X54787500Y-84487500D02*
X54787500Y-90675000D01*
X57652100Y-124741600D02*
X54728400Y-124741600D01*
X60868700Y-121525000D02*
X57652100Y-124741600D01*
X59369200Y-149968200D02*
X57226000Y-147825000D01*
X57168700Y-103793800D02*
X57168700Y-109725000D01*
X111471800Y-56850400D02*
X111657400Y-56664800D01*
X129007400Y-56663300D02*
X130915800Y-56663300D01*
X114109300Y-59116700D02*
X127570700Y-59116700D01*
X111657400Y-56664800D02*
X114109300Y-59116700D01*
X111471800Y-56850400D02*
X111657400Y-56664800D01*
X57226000Y-147825000D02*
X52406300Y-147825000D01*
X128289200Y-58398200D02*
X128289200Y-57381500D01*
X54728400Y-124741600D02*
X52406300Y-127063700D01*
X52758600Y-67180100D02*
X101142100Y-67180100D01*
X130915800Y-56663300D02*
X132142500Y-57890000D01*
X52406300Y-144275000D02*
X52406300Y-147825000D01*
X127570700Y-59116700D02*
X128289200Y-58398200D01*
X101142100Y-67180100D02*
X111471800Y-56850400D01*
X50025000Y-71625000D02*
X50025000Y-69913700D01*
X50025000Y-69913700D02*
X52758600Y-67180100D01*
X52406300Y-127063700D02*
X52406300Y-128775000D01*
X53725000Y-83425000D02*
X54787500Y-84487500D01*
X59369200Y-156362100D02*
X59369200Y-149968200D01*
X128289200Y-57381500D02*
X129007400Y-56663300D01*
X56106300Y-140575000D02*
X52406300Y-144275000D01*
%TO.N,LK27_D*%
X50606300Y-147901700D02*
X52629600Y-149925000D01*
X43706300Y-157525000D02*
X45930900Y-155300400D01*
X52629600Y-150112000D02*
X52629600Y-149925000D01*
X52629600Y-149925000D02*
X57406300Y-149925000D01*
X47441200Y-155300400D02*
X52629600Y-150112000D01*
X45930900Y-155300400D02*
X47441200Y-155300400D01*
X50606300Y-146125000D02*
X50606300Y-147901700D01*
%TO.N,LK19_D*%
X150862500Y-119425000D02*
X153087100Y-117200400D01*
X159886500Y-111825000D02*
X164562500Y-111825000D01*
X157762500Y-108025000D02*
X157762500Y-109865600D01*
X153087100Y-117200400D02*
X154511100Y-117200400D01*
X159804200Y-111907300D02*
X159886500Y-111825000D01*
X157762500Y-109865600D02*
X159804200Y-111907300D01*
X154511100Y-117200400D02*
X159804200Y-111907300D01*
%TO.N,LK02_D*%
X74075000Y-73725000D02*
X67275000Y-73725000D01*
X67275000Y-73725000D02*
X65335700Y-73725000D01*
X65335700Y-73725000D02*
X60375000Y-78685700D01*
X67275000Y-69925000D02*
X67275000Y-73725000D01*
X60375000Y-78685700D02*
X60375000Y-81325000D01*
%TO.N,LK20_D*%
X52591400Y-130875000D02*
X52591400Y-131054700D01*
X52591400Y-130875000D02*
X57406300Y-130875000D01*
X52591400Y-131054700D02*
X47280100Y-136366000D01*
X50606300Y-128889900D02*
X52591400Y-130875000D01*
X47280100Y-136366000D02*
X45815300Y-136366000D01*
X50606300Y-127075000D02*
X50606300Y-128889900D01*
X45815300Y-136366000D02*
X43706300Y-138475000D01*
%TO.N,LK08_D*%
X48312100Y-98150400D02*
X49736100Y-98150400D01*
X46087500Y-100375000D02*
X48312100Y-98150400D01*
X59787500Y-92775000D02*
X55111500Y-92775000D01*
X55059500Y-92827000D02*
X52987500Y-90755100D01*
X55111500Y-92775000D02*
X55059500Y-92827000D01*
X52987500Y-90755100D02*
X52987500Y-88975000D01*
X49736100Y-98150400D02*
X55059500Y-92827000D01*
%TO.N,LK32_D*%
X167030300Y-149925000D02*
X171706300Y-149925000D01*
X164906300Y-146125000D02*
X164906300Y-147965600D01*
X161654900Y-155300400D02*
X166948000Y-150007300D01*
X158006300Y-157525000D02*
X160230900Y-155300400D01*
X166948000Y-150007300D02*
X167030300Y-149925000D01*
X164906300Y-147965600D02*
X166948000Y-150007300D01*
X160230900Y-155300400D02*
X161654900Y-155300400D01*
%TO.N,LK17_D*%
X121786500Y-111825000D02*
X121734500Y-111877000D01*
X114987100Y-117200400D02*
X116411100Y-117200400D01*
X119662500Y-109805100D02*
X119662500Y-108025000D01*
X126462500Y-111825000D02*
X121786500Y-111825000D01*
X121734500Y-111877000D02*
X119662500Y-109805100D01*
X112762500Y-119425000D02*
X114987100Y-117200400D01*
X116411100Y-117200400D02*
X121734500Y-111877000D01*
%TO.N,LK06_D*%
X138799600Y-79100400D02*
X140223700Y-79100400D01*
X144495600Y-74828500D02*
X144495600Y-73725000D01*
X136575000Y-81325000D02*
X138799600Y-79100400D01*
X140223700Y-79100400D02*
X144495600Y-74828500D01*
X150275000Y-73725000D02*
X144495600Y-73725000D01*
X143475000Y-72704400D02*
X143475000Y-69925000D01*
X144495600Y-73725000D02*
X143475000Y-72704400D01*
%TO.N,LK09_D*%
X76800000Y-92775000D02*
X76800000Y-88975000D01*
X76800000Y-92775000D02*
X74853500Y-92775000D01*
X69900000Y-97728500D02*
X69900000Y-100375000D01*
X74853500Y-92775000D02*
X69900000Y-97728500D01*
X83600000Y-92775000D02*
X76800000Y-92775000D01*
%TO.N,LK26_D*%
X164122400Y-136250400D02*
X169272600Y-131100200D01*
X169272600Y-131100200D02*
X169272600Y-130875000D01*
X167287500Y-128889900D02*
X169272600Y-130875000D01*
X160387500Y-138475000D02*
X162612100Y-136250400D01*
X169272600Y-130875000D02*
X174087500Y-130875000D01*
X167287500Y-127075000D02*
X167287500Y-128889900D01*
X162612100Y-136250400D02*
X164122400Y-136250400D01*
%TO.N,LK24_D*%
X129187500Y-129854400D02*
X129187500Y-127075000D01*
X124512100Y-136250400D02*
X125936200Y-136250400D01*
X125936200Y-136250400D02*
X130208100Y-131978500D01*
X130208100Y-131978500D02*
X130208100Y-130875000D01*
X135987500Y-130875000D02*
X130208100Y-130875000D01*
X130208100Y-130875000D02*
X129187500Y-129854400D01*
X122287500Y-138475000D02*
X124512100Y-136250400D01*
%TO.N,LK16_D*%
X100612500Y-108025000D02*
X100612500Y-111825000D01*
X100612500Y-111825000D02*
X98673200Y-111825000D01*
X107412500Y-111825000D02*
X100612500Y-111825000D01*
X98673200Y-111825000D02*
X93712500Y-116785700D01*
X93712500Y-116785700D02*
X93712500Y-119425000D01*
%TO.N,LK04_D*%
X98475000Y-78632900D02*
X98475000Y-81325000D01*
X112175000Y-73725000D02*
X105375000Y-73725000D01*
X103382900Y-73725000D02*
X98475000Y-78632900D01*
X105375000Y-73725000D02*
X103382900Y-73725000D01*
X105375000Y-69925000D02*
X105375000Y-73725000D01*
%TO.N,LK14_D*%
X55368700Y-108025000D02*
X55368700Y-111825000D01*
X53441700Y-111825000D02*
X48468700Y-116798000D01*
X55368700Y-111825000D02*
X53441700Y-111825000D01*
X48468700Y-116798000D02*
X48468700Y-119425000D01*
X62168700Y-111825000D02*
X55368700Y-111825000D01*
%TO.N,LK21_D*%
X65137500Y-135834300D02*
X65137500Y-138475000D01*
X72037500Y-130875000D02*
X70096800Y-130875000D01*
X78837500Y-130875000D02*
X72037500Y-130875000D01*
X72037500Y-127075000D02*
X72037500Y-130875000D01*
X70096800Y-130875000D02*
X65137500Y-135834300D01*
%TO.N,LK25_D*%
X150361500Y-130875000D02*
X155037500Y-130875000D01*
X148237500Y-127075000D02*
X148237500Y-128880900D01*
X148237500Y-128880900D02*
X150296600Y-130939900D01*
X150296600Y-130939900D02*
X150361500Y-130875000D01*
X141337500Y-138475000D02*
X143562100Y-136250400D01*
X144986100Y-136250400D02*
X150296600Y-130939900D01*
X143562100Y-136250400D02*
X144986100Y-136250400D01*
%TO.N,LK05_D*%
X121173600Y-79100400D02*
X126497000Y-73777000D01*
X119749600Y-79100400D02*
X121173600Y-79100400D01*
X131225000Y-73725000D02*
X126549000Y-73725000D01*
X124425000Y-71705100D02*
X124425000Y-69925000D01*
X126549000Y-73725000D02*
X126497000Y-73777000D01*
X117525000Y-81325000D02*
X119749600Y-79100400D01*
X126497000Y-73777000D02*
X124425000Y-71705100D01*
%TO.N,LK18_D*%
X131812500Y-119425000D02*
X134037100Y-117200400D01*
X138712500Y-109839900D02*
X140697600Y-111825000D01*
X140697600Y-112050200D02*
X140697600Y-111825000D01*
X140697600Y-111825000D02*
X145512500Y-111825000D01*
X138712500Y-108025000D02*
X138712500Y-109839900D01*
X135547400Y-117200400D02*
X140697600Y-112050200D01*
X134037100Y-117200400D02*
X135547400Y-117200400D01*
%TO.N,LK29_D*%
X93555900Y-155300400D02*
X94979900Y-155300400D01*
X94979900Y-155300400D02*
X100268900Y-150011400D01*
X98231300Y-147973800D02*
X100268900Y-150011400D01*
X98231300Y-146125000D02*
X98231300Y-147973800D01*
X91331300Y-157525000D02*
X93555900Y-155300400D01*
X100268900Y-150011400D02*
X100355300Y-149925000D01*
X100355300Y-149925000D02*
X105031300Y-149925000D01*
%TO.N,LK23_D*%
X110137500Y-127075000D02*
X110137500Y-128889900D01*
X106972400Y-136250400D02*
X112122600Y-131100200D01*
X103237500Y-138475000D02*
X105462100Y-136250400D01*
X112122600Y-130875000D02*
X116937500Y-130875000D01*
X110137500Y-128889900D02*
X112122600Y-130875000D01*
X105462100Y-136250400D02*
X106972400Y-136250400D01*
X112122600Y-131100200D02*
X112122600Y-130875000D01*
%TO.N,LK28_D*%
X74418800Y-146125000D02*
X74418800Y-149256600D01*
X67518800Y-154884400D02*
X67518800Y-157525000D01*
X74418800Y-149256600D02*
X80550400Y-149256600D01*
X74418800Y-149256600D02*
X73146600Y-149256600D01*
X80550400Y-149256600D02*
X81218800Y-149925000D01*
X73146600Y-149256600D02*
X67518800Y-154884400D01*
%TO.N,LK01_D*%
X41325000Y-81325000D02*
X43549600Y-79100400D01*
X50349000Y-73725000D02*
X50297000Y-73777000D01*
X43549600Y-79100400D02*
X44973600Y-79100400D01*
X48225000Y-71705100D02*
X48225000Y-69925000D01*
X55025000Y-73725000D02*
X50349000Y-73725000D01*
X50297000Y-73777000D02*
X48225000Y-71705100D01*
X44973600Y-79100400D02*
X50297000Y-73777000D01*
%TO.N,LK10_D*%
X95850000Y-88975000D02*
X95850000Y-90790900D01*
X88950000Y-100375000D02*
X91174600Y-98150400D01*
X97834100Y-92775000D02*
X102650000Y-92775000D01*
X91174600Y-98150400D02*
X92598600Y-98150400D01*
X95850000Y-90790900D02*
X97834100Y-92775000D01*
X97834100Y-92914900D02*
X97834100Y-92775000D01*
X92598600Y-98150400D02*
X97834100Y-92914900D01*
%TO.N,LK30_D*%
X118792500Y-155300400D02*
X122994800Y-151098100D01*
X117368400Y-155300400D02*
X118792500Y-155300400D01*
X115143800Y-157525000D02*
X117368400Y-155300400D01*
X122043800Y-148974000D02*
X122043800Y-146125000D01*
X128843800Y-149925000D02*
X122994800Y-149925000D01*
X122994800Y-149925000D02*
X122043800Y-148974000D01*
X122994800Y-151098100D02*
X122994800Y-149925000D01*
%TO.N,L_ROW0*%
X126922300Y-68822300D02*
X108975000Y-68822300D01*
X108975000Y-68822300D02*
X91027700Y-68822300D01*
X72017000Y-68783000D02*
X88783000Y-68783000D01*
X88783000Y-68783000D02*
X89925000Y-69925000D01*
X91027700Y-68822300D02*
X89925000Y-69925000D01*
X128025000Y-69925000D02*
X126922300Y-68822300D01*
X69772300Y-68822300D02*
X70875000Y-69925000D01*
X165013800Y-68813800D02*
X148186200Y-68813800D01*
X51825000Y-69925000D02*
X52927700Y-68822300D01*
X129135700Y-68814300D02*
X128025000Y-69925000D01*
X108975000Y-69925000D02*
X108975000Y-68822300D01*
X166125000Y-69925000D02*
X165013800Y-68813800D01*
X145670800Y-69958000D02*
X144527100Y-68814300D01*
X52927700Y-68822300D02*
X69772300Y-68822300D01*
X145670800Y-69958000D02*
X147042000Y-69958000D01*
X144527100Y-68814300D02*
X129135700Y-68814300D01*
X147042000Y-69958000D02*
X147075000Y-69925000D01*
X70875000Y-69925000D02*
X72017000Y-68783000D01*
X148186200Y-68813800D02*
X147075000Y-69925000D01*
%TO.N,L_ROW2*%
X161362500Y-108025000D02*
X160208800Y-106871300D01*
X85162500Y-102563700D02*
X85162500Y-108025000D01*
X142312500Y-107497700D02*
X141686100Y-106871300D01*
X82957200Y-100358400D02*
X85162500Y-102563700D01*
X105366200Y-106871300D02*
X104212500Y-108025000D01*
X69016700Y-108025000D02*
X76683300Y-100358400D01*
X104212500Y-108025000D02*
X103109800Y-106922300D01*
X123262500Y-108025000D02*
X122108800Y-106871300D01*
X76683300Y-100358400D02*
X82957200Y-100358400D01*
X124416200Y-106871300D02*
X123262500Y-108025000D01*
X142938900Y-106871300D02*
X160208800Y-106871300D01*
X141686100Y-106871300D02*
X124416200Y-106871300D01*
X103109800Y-106922300D02*
X86265200Y-106922300D01*
X58968700Y-108025000D02*
X69016700Y-108025000D01*
X122108800Y-106871300D02*
X105366200Y-106871300D01*
X86265200Y-106922300D02*
X85162500Y-108025000D01*
X142312500Y-107497700D02*
X142938900Y-106871300D01*
X142312500Y-107497700D02*
X142312500Y-108025000D01*
%TO.N,L_ROW3*%
X95799000Y-125963500D02*
X112626000Y-125963500D01*
X151837500Y-127075000D02*
X150734800Y-125972300D01*
X94687500Y-127075000D02*
X95799000Y-125963500D01*
X93537300Y-125924800D02*
X94687500Y-127075000D01*
X152944700Y-125967800D02*
X151837500Y-127075000D01*
X75637500Y-127075000D02*
X76787700Y-125924800D01*
X169780300Y-125967800D02*
X152944700Y-125967800D01*
X114894600Y-125917900D02*
X124823200Y-125917900D01*
X133890200Y-125972300D02*
X132787500Y-127075000D01*
X113737500Y-127075000D02*
X114894600Y-125917900D01*
X124823200Y-125917900D02*
X131630400Y-125917900D01*
X76787700Y-125924800D02*
X93537300Y-125924800D01*
X74519200Y-125956700D02*
X75637500Y-127075000D01*
X131630400Y-125917900D02*
X132787500Y-127075000D01*
X54206300Y-127075000D02*
X55324600Y-125956700D01*
X112626000Y-125963500D02*
X113737500Y-127075000D01*
X150734800Y-125972300D02*
X133890200Y-125972300D01*
X55324600Y-125956700D02*
X74519200Y-125956700D01*
X170887500Y-127075000D02*
X169780300Y-125967800D01*
%TO.N,L_ROW1*%
X56587500Y-88975000D02*
X57750500Y-87812000D01*
X155469000Y-87844000D02*
X142365600Y-87844000D01*
X137550000Y-87844000D02*
X119631000Y-87844000D01*
X156600000Y-88975000D02*
X155469000Y-87844000D01*
X99450000Y-87817900D02*
X81557100Y-87817900D01*
X119631000Y-87844000D02*
X118500000Y-88975000D01*
X79237000Y-87812000D02*
X80400000Y-88975000D01*
X142365600Y-78539900D02*
X142159100Y-78333400D01*
X81557100Y-87817900D02*
X80400000Y-88975000D01*
X118500000Y-88975000D02*
X117342900Y-87817900D01*
X142365600Y-87844000D02*
X137550000Y-87844000D01*
X57750500Y-87812000D02*
X79237000Y-87812000D01*
X117342900Y-87817900D02*
X99450000Y-87817900D01*
X99450000Y-88975000D02*
X99450000Y-87817900D01*
X142365600Y-87844000D02*
X142365600Y-78539900D01*
X137550000Y-88975000D02*
X137550000Y-87844000D01*
%TO.N,L_ROW4*%
X119551800Y-145002300D02*
X119551800Y-138179200D01*
X102954000Y-145002300D02*
X119551800Y-145002300D01*
X54206300Y-146125000D02*
X55322900Y-145008400D01*
X101831300Y-146125000D02*
X102954000Y-145002300D01*
X167366100Y-144984800D02*
X168506300Y-146125000D01*
X79121500Y-145022300D02*
X78018800Y-146125000D01*
X100728600Y-145022300D02*
X79121500Y-145022300D01*
X76902200Y-145008400D02*
X78018800Y-146125000D01*
X125643800Y-145002300D02*
X119551800Y-145002300D01*
X147075000Y-146125000D02*
X146379200Y-145429200D01*
X148215200Y-144984800D02*
X167366100Y-144984800D01*
X101831300Y-146125000D02*
X100728600Y-145022300D01*
X146379200Y-145429200D02*
X145238400Y-145429200D01*
X119551800Y-138179200D02*
X118946900Y-137574300D01*
X55322900Y-145008400D02*
X76902200Y-145008400D01*
X144811500Y-145002300D02*
X125643800Y-145002300D01*
X145238400Y-145429200D02*
X144811500Y-145002300D01*
X125643800Y-145002300D02*
X125643800Y-146125000D01*
X147075000Y-146125000D02*
X148215200Y-144984800D01*
%TD*%
M02*
