%TF.GenerationSoftware,KiCad,Pcbnew,10.0.3*%
%TF.CreationDate,2026-06-08T15:47:45+09:00*%
%TF.ProjectId,kc2_left,6b63325f-6c65-4667-942e-6b696361645f,draft-1*%
%TF.SameCoordinates,Original*%
%TF.FileFunction,Soldermask,Top*%
%TF.FilePolarity,Negative*%
%FSLAX46Y46*%
G04 Gerber Fmt 4.6, Leading zero omitted, Abs format (unit mm)*
G04 Created by KiCad (PCBNEW 10.0.3) date 2026-06-08 15:47:45*
%MOMM*%
%LPD*%
G01*
G04 APERTURE LIST*
%ADD10C,1.701800*%
%ADD11C,3.000000*%
%ADD12C,3.429000*%
%ADD13R,1.750000X1.000000*%
%ADD14O,3.600000X2.200000*%
G04 APERTURE END LIST*
D10*
%TO.C,SW23*%
X104937500Y-134675000D03*
D11*
X105437500Y-138475000D03*
D12*
X110437500Y-134675000D03*
D11*
X110437500Y-140575000D03*
D10*
X115937500Y-134675000D03*
%TD*%
%TO.C,SW17*%
X114462500Y-115625000D03*
D11*
X114962500Y-119425000D03*
D12*
X119962500Y-115625000D03*
D11*
X119962500Y-121525000D03*
D10*
X125462500Y-115625000D03*
%TD*%
%TO.C,SW29*%
X93031300Y-153725000D03*
D11*
X93531300Y-157525000D03*
D12*
X98531300Y-153725000D03*
D11*
X98531300Y-159625000D03*
D10*
X104031300Y-153725000D03*
%TD*%
%TO.C,SW25*%
X143037500Y-134675000D03*
D11*
X143537500Y-138475000D03*
D12*
X148537500Y-134675000D03*
D11*
X148537500Y-140575000D03*
D10*
X154037500Y-134675000D03*
%TD*%
D11*
%TO.C,REG4*%
X66530000Y-122930000D03*
%TD*%
%TO.C,REG2*%
X124710000Y-91030000D03*
%TD*%
D10*
%TO.C,SW6*%
X138275000Y-77525000D03*
D11*
X138775000Y-81325000D03*
D12*
X143775000Y-77525000D03*
D11*
X143775000Y-83425000D03*
D10*
X149275000Y-77525000D03*
%TD*%
D11*
%TO.C,REG9*%
X137400000Y-142320000D03*
%TD*%
D10*
%TO.C,SW5*%
X119225000Y-77525000D03*
D11*
X119725000Y-81325000D03*
D12*
X124725000Y-77525000D03*
D11*
X124725000Y-83425000D03*
D10*
X130225000Y-77525000D03*
%TD*%
D13*
%TO.C,SW_RST1*%
X146387500Y-62150000D03*
X154137500Y-62150000D03*
%TD*%
D14*
%TO.C,BAT_LEAD_SLOT1*%
X154082500Y-49000000D03*
%TD*%
D10*
%TO.C,SW28*%
X69218800Y-153725000D03*
D11*
X69718800Y-157525000D03*
D12*
X74718800Y-153725000D03*
D11*
X74718800Y-159625000D03*
D10*
X80218800Y-153725000D03*
%TD*%
%TO.C,SW7*%
X157325000Y-77525000D03*
D11*
X157825000Y-81325000D03*
D12*
X162825000Y-77525000D03*
D11*
X162825000Y-83425000D03*
D10*
X168325000Y-77525000D03*
%TD*%
%TO.C,SW10*%
X90650000Y-96575000D03*
D11*
X91150000Y-100375000D03*
D12*
X96150000Y-96575000D03*
D11*
X96150000Y-102475000D03*
D10*
X101650000Y-96575000D03*
%TD*%
%TO.C,SW24*%
X123987500Y-134675000D03*
D11*
X124487500Y-138475000D03*
D12*
X129487500Y-134675000D03*
D11*
X129487500Y-140575000D03*
D10*
X134987500Y-134675000D03*
%TD*%
%TO.C,SW8*%
X47787500Y-96575000D03*
D11*
X48287500Y-100375000D03*
D12*
X53287500Y-96575000D03*
D11*
X53287500Y-102475000D03*
D10*
X58787500Y-96575000D03*
%TD*%
%TO.C,SW32*%
X159706300Y-153725000D03*
D11*
X160206300Y-157525000D03*
D12*
X165206300Y-153725000D03*
D11*
X165206300Y-159625000D03*
D10*
X170706300Y-153725000D03*
%TD*%
%TO.C,SW27*%
X45406300Y-153725000D03*
D11*
X45906300Y-157525000D03*
D12*
X50906300Y-153725000D03*
D11*
X50906300Y-159625000D03*
D10*
X56406300Y-153725000D03*
%TD*%
D11*
%TO.C,REG5*%
X109210000Y-122930000D03*
%TD*%
D10*
%TO.C,SW11*%
X109700000Y-96575000D03*
D11*
X110200000Y-100375000D03*
D12*
X115200000Y-96575000D03*
D11*
X115200000Y-102475000D03*
D10*
X120700000Y-96575000D03*
%TD*%
%TO.C,SW16*%
X95412500Y-115625000D03*
D11*
X95912500Y-119425000D03*
D12*
X100912500Y-115625000D03*
D11*
X100912500Y-121525000D03*
D10*
X106412500Y-115625000D03*
%TD*%
%TO.C,SW26*%
X162087500Y-134675000D03*
D11*
X162587500Y-138475000D03*
D12*
X167587500Y-134675000D03*
D11*
X167587500Y-140575000D03*
D10*
X173087500Y-134675000D03*
%TD*%
%TO.C,SW22*%
X85887500Y-134675000D03*
D11*
X86387500Y-138475000D03*
D12*
X91387500Y-134675000D03*
D11*
X91387500Y-140575000D03*
D10*
X96887500Y-134675000D03*
%TD*%
%TO.C,SW21*%
X66837500Y-134675000D03*
D11*
X67337500Y-138475000D03*
D12*
X72337500Y-134675000D03*
D11*
X72337500Y-140575000D03*
D10*
X77837500Y-134675000D03*
%TD*%
%TO.C,SW9*%
X71600000Y-96575000D03*
D11*
X72100000Y-100375000D03*
D12*
X77100000Y-96575000D03*
D11*
X77100000Y-102475000D03*
D10*
X82600000Y-96575000D03*
%TD*%
%TO.C,SW31*%
X138275000Y-153725000D03*
D11*
X138775000Y-157525000D03*
D12*
X143775000Y-153725000D03*
D11*
X143775000Y-159625000D03*
D10*
X149275000Y-153725000D03*
%TD*%
%TO.C,SW19*%
X152562500Y-115625000D03*
D11*
X153062500Y-119425000D03*
D12*
X158062500Y-115625000D03*
D11*
X158062500Y-121525000D03*
D10*
X163562500Y-115625000D03*
%TD*%
%TO.C,SW18*%
X133512500Y-115625000D03*
D11*
X134012500Y-119425000D03*
D12*
X139012500Y-115625000D03*
D11*
X139012500Y-121525000D03*
D10*
X144512500Y-115625000D03*
%TD*%
%TO.C,SW15*%
X76362500Y-115625000D03*
D11*
X76862500Y-119425000D03*
D12*
X81862500Y-115625000D03*
D11*
X81862500Y-121525000D03*
D10*
X87362500Y-115625000D03*
%TD*%
%TO.C,SW20*%
X45406300Y-134675000D03*
D11*
X45906300Y-138475000D03*
D12*
X50906300Y-134675000D03*
D11*
X50906300Y-140575000D03*
D10*
X56406300Y-134675000D03*
%TD*%
%TO.C,SW3*%
X81125000Y-77525000D03*
D11*
X81625000Y-81325000D03*
D12*
X86625000Y-77525000D03*
D11*
X86625000Y-83425000D03*
D10*
X92125000Y-77525000D03*
%TD*%
%TO.C,SW12*%
X128750000Y-96575000D03*
D11*
X129250000Y-100375000D03*
D12*
X134250000Y-96575000D03*
D11*
X134250000Y-102475000D03*
D10*
X139750000Y-96575000D03*
%TD*%
%TO.C,SW4*%
X100175000Y-77525000D03*
D11*
X100675000Y-81325000D03*
D12*
X105675000Y-77525000D03*
D11*
X105675000Y-83425000D03*
D10*
X111175000Y-77525000D03*
%TD*%
%TO.C,SW1*%
X43025000Y-77525000D03*
D11*
X43525000Y-81325000D03*
D12*
X48525000Y-77525000D03*
D11*
X48525000Y-83425000D03*
D10*
X54025000Y-77525000D03*
%TD*%
D11*
%TO.C,REG3*%
X145400000Y-90530000D03*
%TD*%
%TO.C,REG6*%
X146900000Y-122930000D03*
%TD*%
D10*
%TO.C,SW14*%
X50168800Y-115625000D03*
D11*
X50668800Y-119425000D03*
D12*
X55668800Y-115625000D03*
D11*
X55668800Y-121525000D03*
D10*
X61168800Y-115625000D03*
%TD*%
%TO.C,SW2*%
X62075000Y-77525000D03*
D11*
X62575000Y-81325000D03*
D12*
X67575000Y-77525000D03*
D11*
X67575000Y-83425000D03*
D10*
X73075000Y-77525000D03*
%TD*%
%TO.C,SW13*%
X147800000Y-96575000D03*
D11*
X148300000Y-100375000D03*
D12*
X153300000Y-96575000D03*
D11*
X153300000Y-102475000D03*
D10*
X158800000Y-96575000D03*
%TD*%
D11*
%TO.C,REG1*%
X63030000Y-102030000D03*
%TD*%
D10*
%TO.C,SW30*%
X116843800Y-153725000D03*
D11*
X117343800Y-157525000D03*
D12*
X122343800Y-153725000D03*
D11*
X122343800Y-159625000D03*
D10*
X127843800Y-153725000D03*
%TD*%
D11*
%TO.C,REG7*%
X61520000Y-151320000D03*
%TD*%
%TO.C,REG8*%
X109210000Y-151320000D03*
%TD*%
M02*
