%TF.GenerationSoftware,KiCad,Pcbnew,10.0.3*%
%TF.CreationDate,2026-06-06T08:41:41+09:00*%
%TF.ProjectId,kc2_left,6b63325f-6c65-4667-942e-6b696361645f,draft-1*%
%TF.SameCoordinates,Original*%
%TF.FileFunction,Legend,Bot*%
%TF.FilePolarity,Positive*%
%FSLAX46Y46*%
G04 Gerber Fmt 4.6, Leading zero omitted, Abs format (unit mm)*
G04 Created by KiCad (PCBNEW 10.0.3) date 2026-06-06 08:41:41*
%MOMM*%
%LPD*%
G01*
G04 APERTURE LIST*
%ADD10C,0.150000*%
%ADD11C,0.100000*%
G04 APERTURE END LIST*
D10*
X84576785Y-106079819D02*
X84576785Y-105079819D01*
X84576785Y-105079819D02*
X84338690Y-105079819D01*
X84338690Y-105079819D02*
X84195833Y-105127438D01*
X84195833Y-105127438D02*
X84100595Y-105222676D01*
X84100595Y-105222676D02*
X84052976Y-105317914D01*
X84052976Y-105317914D02*
X84005357Y-105508390D01*
X84005357Y-105508390D02*
X84005357Y-105651247D01*
X84005357Y-105651247D02*
X84052976Y-105841723D01*
X84052976Y-105841723D02*
X84100595Y-105936961D01*
X84100595Y-105936961D02*
X84195833Y-106032200D01*
X84195833Y-106032200D02*
X84338690Y-106079819D01*
X84338690Y-106079819D02*
X84576785Y-106079819D01*
X83052976Y-106079819D02*
X83624404Y-106079819D01*
X83338690Y-106079819D02*
X83338690Y-105079819D01*
X83338690Y-105079819D02*
X83433928Y-105222676D01*
X83433928Y-105222676D02*
X83529166Y-105317914D01*
X83529166Y-105317914D02*
X83624404Y-105365533D01*
X82148214Y-105079819D02*
X82624404Y-105079819D01*
X82624404Y-105079819D02*
X82672023Y-105556009D01*
X82672023Y-105556009D02*
X82624404Y-105508390D01*
X82624404Y-105508390D02*
X82529166Y-105460771D01*
X82529166Y-105460771D02*
X82291071Y-105460771D01*
X82291071Y-105460771D02*
X82195833Y-105508390D01*
X82195833Y-105508390D02*
X82148214Y-105556009D01*
X82148214Y-105556009D02*
X82100595Y-105651247D01*
X82100595Y-105651247D02*
X82100595Y-105889342D01*
X82100595Y-105889342D02*
X82148214Y-105984580D01*
X82148214Y-105984580D02*
X82195833Y-106032200D01*
X82195833Y-106032200D02*
X82291071Y-106079819D01*
X82291071Y-106079819D02*
X82529166Y-106079819D01*
X82529166Y-106079819D02*
X82624404Y-106032200D01*
X82624404Y-106032200D02*
X82672023Y-105984580D01*
X113151785Y-125129819D02*
X113151785Y-124129819D01*
X113151785Y-124129819D02*
X112913690Y-124129819D01*
X112913690Y-124129819D02*
X112770833Y-124177438D01*
X112770833Y-124177438D02*
X112675595Y-124272676D01*
X112675595Y-124272676D02*
X112627976Y-124367914D01*
X112627976Y-124367914D02*
X112580357Y-124558390D01*
X112580357Y-124558390D02*
X112580357Y-124701247D01*
X112580357Y-124701247D02*
X112627976Y-124891723D01*
X112627976Y-124891723D02*
X112675595Y-124986961D01*
X112675595Y-124986961D02*
X112770833Y-125082200D01*
X112770833Y-125082200D02*
X112913690Y-125129819D01*
X112913690Y-125129819D02*
X113151785Y-125129819D01*
X112199404Y-124225057D02*
X112151785Y-124177438D01*
X112151785Y-124177438D02*
X112056547Y-124129819D01*
X112056547Y-124129819D02*
X111818452Y-124129819D01*
X111818452Y-124129819D02*
X111723214Y-124177438D01*
X111723214Y-124177438D02*
X111675595Y-124225057D01*
X111675595Y-124225057D02*
X111627976Y-124320295D01*
X111627976Y-124320295D02*
X111627976Y-124415533D01*
X111627976Y-124415533D02*
X111675595Y-124558390D01*
X111675595Y-124558390D02*
X112247023Y-125129819D01*
X112247023Y-125129819D02*
X111627976Y-125129819D01*
X111294642Y-124129819D02*
X110675595Y-124129819D01*
X110675595Y-124129819D02*
X111008928Y-124510771D01*
X111008928Y-124510771D02*
X110866071Y-124510771D01*
X110866071Y-124510771D02*
X110770833Y-124558390D01*
X110770833Y-124558390D02*
X110723214Y-124606009D01*
X110723214Y-124606009D02*
X110675595Y-124701247D01*
X110675595Y-124701247D02*
X110675595Y-124939342D01*
X110675595Y-124939342D02*
X110723214Y-125034580D01*
X110723214Y-125034580D02*
X110770833Y-125082200D01*
X110770833Y-125082200D02*
X110866071Y-125129819D01*
X110866071Y-125129819D02*
X111151785Y-125129819D01*
X111151785Y-125129819D02*
X111247023Y-125082200D01*
X111247023Y-125082200D02*
X111294642Y-125034580D01*
X156014285Y-87029819D02*
X156014285Y-86029819D01*
X156014285Y-86029819D02*
X155776190Y-86029819D01*
X155776190Y-86029819D02*
X155633333Y-86077438D01*
X155633333Y-86077438D02*
X155538095Y-86172676D01*
X155538095Y-86172676D02*
X155490476Y-86267914D01*
X155490476Y-86267914D02*
X155442857Y-86458390D01*
X155442857Y-86458390D02*
X155442857Y-86601247D01*
X155442857Y-86601247D02*
X155490476Y-86791723D01*
X155490476Y-86791723D02*
X155538095Y-86886961D01*
X155538095Y-86886961D02*
X155633333Y-86982200D01*
X155633333Y-86982200D02*
X155776190Y-87029819D01*
X155776190Y-87029819D02*
X156014285Y-87029819D01*
X154490476Y-87029819D02*
X155061904Y-87029819D01*
X154776190Y-87029819D02*
X154776190Y-86029819D01*
X154776190Y-86029819D02*
X154871428Y-86172676D01*
X154871428Y-86172676D02*
X154966666Y-86267914D01*
X154966666Y-86267914D02*
X155061904Y-86315533D01*
X154157142Y-86029819D02*
X153538095Y-86029819D01*
X153538095Y-86029819D02*
X153871428Y-86410771D01*
X153871428Y-86410771D02*
X153728571Y-86410771D01*
X153728571Y-86410771D02*
X153633333Y-86458390D01*
X153633333Y-86458390D02*
X153585714Y-86506009D01*
X153585714Y-86506009D02*
X153538095Y-86601247D01*
X153538095Y-86601247D02*
X153538095Y-86839342D01*
X153538095Y-86839342D02*
X153585714Y-86934580D01*
X153585714Y-86934580D02*
X153633333Y-86982200D01*
X153633333Y-86982200D02*
X153728571Y-87029819D01*
X153728571Y-87029819D02*
X154014285Y-87029819D01*
X154014285Y-87029819D02*
X154109523Y-86982200D01*
X154109523Y-86982200D02*
X154157142Y-86934580D01*
X75051785Y-125129819D02*
X75051785Y-124129819D01*
X75051785Y-124129819D02*
X74813690Y-124129819D01*
X74813690Y-124129819D02*
X74670833Y-124177438D01*
X74670833Y-124177438D02*
X74575595Y-124272676D01*
X74575595Y-124272676D02*
X74527976Y-124367914D01*
X74527976Y-124367914D02*
X74480357Y-124558390D01*
X74480357Y-124558390D02*
X74480357Y-124701247D01*
X74480357Y-124701247D02*
X74527976Y-124891723D01*
X74527976Y-124891723D02*
X74575595Y-124986961D01*
X74575595Y-124986961D02*
X74670833Y-125082200D01*
X74670833Y-125082200D02*
X74813690Y-125129819D01*
X74813690Y-125129819D02*
X75051785Y-125129819D01*
X74099404Y-124225057D02*
X74051785Y-124177438D01*
X74051785Y-124177438D02*
X73956547Y-124129819D01*
X73956547Y-124129819D02*
X73718452Y-124129819D01*
X73718452Y-124129819D02*
X73623214Y-124177438D01*
X73623214Y-124177438D02*
X73575595Y-124225057D01*
X73575595Y-124225057D02*
X73527976Y-124320295D01*
X73527976Y-124320295D02*
X73527976Y-124415533D01*
X73527976Y-124415533D02*
X73575595Y-124558390D01*
X73575595Y-124558390D02*
X74147023Y-125129819D01*
X74147023Y-125129819D02*
X73527976Y-125129819D01*
X72575595Y-125129819D02*
X73147023Y-125129819D01*
X72861309Y-125129819D02*
X72861309Y-124129819D01*
X72861309Y-124129819D02*
X72956547Y-124272676D01*
X72956547Y-124272676D02*
X73051785Y-124367914D01*
X73051785Y-124367914D02*
X73147023Y-124415533D01*
X125058085Y-144179819D02*
X125058085Y-143179819D01*
X125058085Y-143179819D02*
X124819990Y-143179819D01*
X124819990Y-143179819D02*
X124677133Y-143227438D01*
X124677133Y-143227438D02*
X124581895Y-143322676D01*
X124581895Y-143322676D02*
X124534276Y-143417914D01*
X124534276Y-143417914D02*
X124486657Y-143608390D01*
X124486657Y-143608390D02*
X124486657Y-143751247D01*
X124486657Y-143751247D02*
X124534276Y-143941723D01*
X124534276Y-143941723D02*
X124581895Y-144036961D01*
X124581895Y-144036961D02*
X124677133Y-144132200D01*
X124677133Y-144132200D02*
X124819990Y-144179819D01*
X124819990Y-144179819D02*
X125058085Y-144179819D01*
X124153323Y-143179819D02*
X123534276Y-143179819D01*
X123534276Y-143179819D02*
X123867609Y-143560771D01*
X123867609Y-143560771D02*
X123724752Y-143560771D01*
X123724752Y-143560771D02*
X123629514Y-143608390D01*
X123629514Y-143608390D02*
X123581895Y-143656009D01*
X123581895Y-143656009D02*
X123534276Y-143751247D01*
X123534276Y-143751247D02*
X123534276Y-143989342D01*
X123534276Y-143989342D02*
X123581895Y-144084580D01*
X123581895Y-144084580D02*
X123629514Y-144132200D01*
X123629514Y-144132200D02*
X123724752Y-144179819D01*
X123724752Y-144179819D02*
X124010466Y-144179819D01*
X124010466Y-144179819D02*
X124105704Y-144132200D01*
X124105704Y-144132200D02*
X124153323Y-144084580D01*
X122915228Y-143179819D02*
X122819990Y-143179819D01*
X122819990Y-143179819D02*
X122724752Y-143227438D01*
X122724752Y-143227438D02*
X122677133Y-143275057D01*
X122677133Y-143275057D02*
X122629514Y-143370295D01*
X122629514Y-143370295D02*
X122581895Y-143560771D01*
X122581895Y-143560771D02*
X122581895Y-143798866D01*
X122581895Y-143798866D02*
X122629514Y-143989342D01*
X122629514Y-143989342D02*
X122677133Y-144084580D01*
X122677133Y-144084580D02*
X122724752Y-144132200D01*
X122724752Y-144132200D02*
X122819990Y-144179819D01*
X122819990Y-144179819D02*
X122915228Y-144179819D01*
X122915228Y-144179819D02*
X123010466Y-144132200D01*
X123010466Y-144132200D02*
X123058085Y-144084580D01*
X123058085Y-144084580D02*
X123105704Y-143989342D01*
X123105704Y-143989342D02*
X123153323Y-143798866D01*
X123153323Y-143798866D02*
X123153323Y-143560771D01*
X123153323Y-143560771D02*
X123105704Y-143370295D01*
X123105704Y-143370295D02*
X123058085Y-143275057D01*
X123058085Y-143275057D02*
X123010466Y-143227438D01*
X123010466Y-143227438D02*
X122915228Y-143179819D01*
X107913094Y-67979819D02*
X107913094Y-66979819D01*
X107913094Y-66979819D02*
X107674999Y-66979819D01*
X107674999Y-66979819D02*
X107532142Y-67027438D01*
X107532142Y-67027438D02*
X107436904Y-67122676D01*
X107436904Y-67122676D02*
X107389285Y-67217914D01*
X107389285Y-67217914D02*
X107341666Y-67408390D01*
X107341666Y-67408390D02*
X107341666Y-67551247D01*
X107341666Y-67551247D02*
X107389285Y-67741723D01*
X107389285Y-67741723D02*
X107436904Y-67836961D01*
X107436904Y-67836961D02*
X107532142Y-67932200D01*
X107532142Y-67932200D02*
X107674999Y-67979819D01*
X107674999Y-67979819D02*
X107913094Y-67979819D01*
X106484523Y-67313152D02*
X106484523Y-67979819D01*
X106722618Y-66932200D02*
X106960713Y-67646485D01*
X106960713Y-67646485D02*
X106341666Y-67646485D01*
X98864285Y-87029819D02*
X98864285Y-86029819D01*
X98864285Y-86029819D02*
X98626190Y-86029819D01*
X98626190Y-86029819D02*
X98483333Y-86077438D01*
X98483333Y-86077438D02*
X98388095Y-86172676D01*
X98388095Y-86172676D02*
X98340476Y-86267914D01*
X98340476Y-86267914D02*
X98292857Y-86458390D01*
X98292857Y-86458390D02*
X98292857Y-86601247D01*
X98292857Y-86601247D02*
X98340476Y-86791723D01*
X98340476Y-86791723D02*
X98388095Y-86886961D01*
X98388095Y-86886961D02*
X98483333Y-86982200D01*
X98483333Y-86982200D02*
X98626190Y-87029819D01*
X98626190Y-87029819D02*
X98864285Y-87029819D01*
X97340476Y-87029819D02*
X97911904Y-87029819D01*
X97626190Y-87029819D02*
X97626190Y-86029819D01*
X97626190Y-86029819D02*
X97721428Y-86172676D01*
X97721428Y-86172676D02*
X97816666Y-86267914D01*
X97816666Y-86267914D02*
X97911904Y-86315533D01*
X96721428Y-86029819D02*
X96626190Y-86029819D01*
X96626190Y-86029819D02*
X96530952Y-86077438D01*
X96530952Y-86077438D02*
X96483333Y-86125057D01*
X96483333Y-86125057D02*
X96435714Y-86220295D01*
X96435714Y-86220295D02*
X96388095Y-86410771D01*
X96388095Y-86410771D02*
X96388095Y-86648866D01*
X96388095Y-86648866D02*
X96435714Y-86839342D01*
X96435714Y-86839342D02*
X96483333Y-86934580D01*
X96483333Y-86934580D02*
X96530952Y-86982200D01*
X96530952Y-86982200D02*
X96626190Y-87029819D01*
X96626190Y-87029819D02*
X96721428Y-87029819D01*
X96721428Y-87029819D02*
X96816666Y-86982200D01*
X96816666Y-86982200D02*
X96864285Y-86934580D01*
X96864285Y-86934580D02*
X96911904Y-86839342D01*
X96911904Y-86839342D02*
X96959523Y-86648866D01*
X96959523Y-86648866D02*
X96959523Y-86410771D01*
X96959523Y-86410771D02*
X96911904Y-86220295D01*
X96911904Y-86220295D02*
X96864285Y-86125057D01*
X96864285Y-86125057D02*
X96816666Y-86077438D01*
X96816666Y-86077438D02*
X96721428Y-86029819D01*
X136964285Y-87029819D02*
X136964285Y-86029819D01*
X136964285Y-86029819D02*
X136726190Y-86029819D01*
X136726190Y-86029819D02*
X136583333Y-86077438D01*
X136583333Y-86077438D02*
X136488095Y-86172676D01*
X136488095Y-86172676D02*
X136440476Y-86267914D01*
X136440476Y-86267914D02*
X136392857Y-86458390D01*
X136392857Y-86458390D02*
X136392857Y-86601247D01*
X136392857Y-86601247D02*
X136440476Y-86791723D01*
X136440476Y-86791723D02*
X136488095Y-86886961D01*
X136488095Y-86886961D02*
X136583333Y-86982200D01*
X136583333Y-86982200D02*
X136726190Y-87029819D01*
X136726190Y-87029819D02*
X136964285Y-87029819D01*
X135440476Y-87029819D02*
X136011904Y-87029819D01*
X135726190Y-87029819D02*
X135726190Y-86029819D01*
X135726190Y-86029819D02*
X135821428Y-86172676D01*
X135821428Y-86172676D02*
X135916666Y-86267914D01*
X135916666Y-86267914D02*
X136011904Y-86315533D01*
X135059523Y-86125057D02*
X135011904Y-86077438D01*
X135011904Y-86077438D02*
X134916666Y-86029819D01*
X134916666Y-86029819D02*
X134678571Y-86029819D01*
X134678571Y-86029819D02*
X134583333Y-86077438D01*
X134583333Y-86077438D02*
X134535714Y-86125057D01*
X134535714Y-86125057D02*
X134488095Y-86220295D01*
X134488095Y-86220295D02*
X134488095Y-86315533D01*
X134488095Y-86315533D02*
X134535714Y-86458390D01*
X134535714Y-86458390D02*
X135107142Y-87029819D01*
X135107142Y-87029819D02*
X134488095Y-87029819D01*
X103626785Y-106079819D02*
X103626785Y-105079819D01*
X103626785Y-105079819D02*
X103388690Y-105079819D01*
X103388690Y-105079819D02*
X103245833Y-105127438D01*
X103245833Y-105127438D02*
X103150595Y-105222676D01*
X103150595Y-105222676D02*
X103102976Y-105317914D01*
X103102976Y-105317914D02*
X103055357Y-105508390D01*
X103055357Y-105508390D02*
X103055357Y-105651247D01*
X103055357Y-105651247D02*
X103102976Y-105841723D01*
X103102976Y-105841723D02*
X103150595Y-105936961D01*
X103150595Y-105936961D02*
X103245833Y-106032200D01*
X103245833Y-106032200D02*
X103388690Y-106079819D01*
X103388690Y-106079819D02*
X103626785Y-106079819D01*
X102102976Y-106079819D02*
X102674404Y-106079819D01*
X102388690Y-106079819D02*
X102388690Y-105079819D01*
X102388690Y-105079819D02*
X102483928Y-105222676D01*
X102483928Y-105222676D02*
X102579166Y-105317914D01*
X102579166Y-105317914D02*
X102674404Y-105365533D01*
X101245833Y-105079819D02*
X101436309Y-105079819D01*
X101436309Y-105079819D02*
X101531547Y-105127438D01*
X101531547Y-105127438D02*
X101579166Y-105175057D01*
X101579166Y-105175057D02*
X101674404Y-105317914D01*
X101674404Y-105317914D02*
X101722023Y-105508390D01*
X101722023Y-105508390D02*
X101722023Y-105889342D01*
X101722023Y-105889342D02*
X101674404Y-105984580D01*
X101674404Y-105984580D02*
X101626785Y-106032200D01*
X101626785Y-106032200D02*
X101531547Y-106079819D01*
X101531547Y-106079819D02*
X101341071Y-106079819D01*
X101341071Y-106079819D02*
X101245833Y-106032200D01*
X101245833Y-106032200D02*
X101198214Y-105984580D01*
X101198214Y-105984580D02*
X101150595Y-105889342D01*
X101150595Y-105889342D02*
X101150595Y-105651247D01*
X101150595Y-105651247D02*
X101198214Y-105556009D01*
X101198214Y-105556009D02*
X101245833Y-105508390D01*
X101245833Y-105508390D02*
X101341071Y-105460771D01*
X101341071Y-105460771D02*
X101531547Y-105460771D01*
X101531547Y-105460771D02*
X101626785Y-105508390D01*
X101626785Y-105508390D02*
X101674404Y-105556009D01*
X101674404Y-105556009D02*
X101722023Y-105651247D01*
X88863094Y-67979819D02*
X88863094Y-66979819D01*
X88863094Y-66979819D02*
X88624999Y-66979819D01*
X88624999Y-66979819D02*
X88482142Y-67027438D01*
X88482142Y-67027438D02*
X88386904Y-67122676D01*
X88386904Y-67122676D02*
X88339285Y-67217914D01*
X88339285Y-67217914D02*
X88291666Y-67408390D01*
X88291666Y-67408390D02*
X88291666Y-67551247D01*
X88291666Y-67551247D02*
X88339285Y-67741723D01*
X88339285Y-67741723D02*
X88386904Y-67836961D01*
X88386904Y-67836961D02*
X88482142Y-67932200D01*
X88482142Y-67932200D02*
X88624999Y-67979819D01*
X88624999Y-67979819D02*
X88863094Y-67979819D01*
X87958332Y-66979819D02*
X87339285Y-66979819D01*
X87339285Y-66979819D02*
X87672618Y-67360771D01*
X87672618Y-67360771D02*
X87529761Y-67360771D01*
X87529761Y-67360771D02*
X87434523Y-67408390D01*
X87434523Y-67408390D02*
X87386904Y-67456009D01*
X87386904Y-67456009D02*
X87339285Y-67551247D01*
X87339285Y-67551247D02*
X87339285Y-67789342D01*
X87339285Y-67789342D02*
X87386904Y-67884580D01*
X87386904Y-67884580D02*
X87434523Y-67932200D01*
X87434523Y-67932200D02*
X87529761Y-67979819D01*
X87529761Y-67979819D02*
X87815475Y-67979819D01*
X87815475Y-67979819D02*
X87910713Y-67932200D01*
X87910713Y-67932200D02*
X87958332Y-67884580D01*
X160776785Y-106079819D02*
X160776785Y-105079819D01*
X160776785Y-105079819D02*
X160538690Y-105079819D01*
X160538690Y-105079819D02*
X160395833Y-105127438D01*
X160395833Y-105127438D02*
X160300595Y-105222676D01*
X160300595Y-105222676D02*
X160252976Y-105317914D01*
X160252976Y-105317914D02*
X160205357Y-105508390D01*
X160205357Y-105508390D02*
X160205357Y-105651247D01*
X160205357Y-105651247D02*
X160252976Y-105841723D01*
X160252976Y-105841723D02*
X160300595Y-105936961D01*
X160300595Y-105936961D02*
X160395833Y-106032200D01*
X160395833Y-106032200D02*
X160538690Y-106079819D01*
X160538690Y-106079819D02*
X160776785Y-106079819D01*
X159252976Y-106079819D02*
X159824404Y-106079819D01*
X159538690Y-106079819D02*
X159538690Y-105079819D01*
X159538690Y-105079819D02*
X159633928Y-105222676D01*
X159633928Y-105222676D02*
X159729166Y-105317914D01*
X159729166Y-105317914D02*
X159824404Y-105365533D01*
X158776785Y-106079819D02*
X158586309Y-106079819D01*
X158586309Y-106079819D02*
X158491071Y-106032200D01*
X158491071Y-106032200D02*
X158443452Y-105984580D01*
X158443452Y-105984580D02*
X158348214Y-105841723D01*
X158348214Y-105841723D02*
X158300595Y-105651247D01*
X158300595Y-105651247D02*
X158300595Y-105270295D01*
X158300595Y-105270295D02*
X158348214Y-105175057D01*
X158348214Y-105175057D02*
X158395833Y-105127438D01*
X158395833Y-105127438D02*
X158491071Y-105079819D01*
X158491071Y-105079819D02*
X158681547Y-105079819D01*
X158681547Y-105079819D02*
X158776785Y-105127438D01*
X158776785Y-105127438D02*
X158824404Y-105175057D01*
X158824404Y-105175057D02*
X158872023Y-105270295D01*
X158872023Y-105270295D02*
X158872023Y-105508390D01*
X158872023Y-105508390D02*
X158824404Y-105603628D01*
X158824404Y-105603628D02*
X158776785Y-105651247D01*
X158776785Y-105651247D02*
X158681547Y-105698866D01*
X158681547Y-105698866D02*
X158491071Y-105698866D01*
X158491071Y-105698866D02*
X158395833Y-105651247D01*
X158395833Y-105651247D02*
X158348214Y-105603628D01*
X158348214Y-105603628D02*
X158300595Y-105508390D01*
X132201785Y-125129819D02*
X132201785Y-124129819D01*
X132201785Y-124129819D02*
X131963690Y-124129819D01*
X131963690Y-124129819D02*
X131820833Y-124177438D01*
X131820833Y-124177438D02*
X131725595Y-124272676D01*
X131725595Y-124272676D02*
X131677976Y-124367914D01*
X131677976Y-124367914D02*
X131630357Y-124558390D01*
X131630357Y-124558390D02*
X131630357Y-124701247D01*
X131630357Y-124701247D02*
X131677976Y-124891723D01*
X131677976Y-124891723D02*
X131725595Y-124986961D01*
X131725595Y-124986961D02*
X131820833Y-125082200D01*
X131820833Y-125082200D02*
X131963690Y-125129819D01*
X131963690Y-125129819D02*
X132201785Y-125129819D01*
X131249404Y-124225057D02*
X131201785Y-124177438D01*
X131201785Y-124177438D02*
X131106547Y-124129819D01*
X131106547Y-124129819D02*
X130868452Y-124129819D01*
X130868452Y-124129819D02*
X130773214Y-124177438D01*
X130773214Y-124177438D02*
X130725595Y-124225057D01*
X130725595Y-124225057D02*
X130677976Y-124320295D01*
X130677976Y-124320295D02*
X130677976Y-124415533D01*
X130677976Y-124415533D02*
X130725595Y-124558390D01*
X130725595Y-124558390D02*
X131297023Y-125129819D01*
X131297023Y-125129819D02*
X130677976Y-125129819D01*
X129820833Y-124463152D02*
X129820833Y-125129819D01*
X130058928Y-124082200D02*
X130297023Y-124796485D01*
X130297023Y-124796485D02*
X129677976Y-124796485D01*
X55525594Y-87029819D02*
X55525594Y-86029819D01*
X55525594Y-86029819D02*
X55287499Y-86029819D01*
X55287499Y-86029819D02*
X55144642Y-86077438D01*
X55144642Y-86077438D02*
X55049404Y-86172676D01*
X55049404Y-86172676D02*
X55001785Y-86267914D01*
X55001785Y-86267914D02*
X54954166Y-86458390D01*
X54954166Y-86458390D02*
X54954166Y-86601247D01*
X54954166Y-86601247D02*
X55001785Y-86791723D01*
X55001785Y-86791723D02*
X55049404Y-86886961D01*
X55049404Y-86886961D02*
X55144642Y-86982200D01*
X55144642Y-86982200D02*
X55287499Y-87029819D01*
X55287499Y-87029819D02*
X55525594Y-87029819D01*
X54382737Y-86458390D02*
X54477975Y-86410771D01*
X54477975Y-86410771D02*
X54525594Y-86363152D01*
X54525594Y-86363152D02*
X54573213Y-86267914D01*
X54573213Y-86267914D02*
X54573213Y-86220295D01*
X54573213Y-86220295D02*
X54525594Y-86125057D01*
X54525594Y-86125057D02*
X54477975Y-86077438D01*
X54477975Y-86077438D02*
X54382737Y-86029819D01*
X54382737Y-86029819D02*
X54192261Y-86029819D01*
X54192261Y-86029819D02*
X54097023Y-86077438D01*
X54097023Y-86077438D02*
X54049404Y-86125057D01*
X54049404Y-86125057D02*
X54001785Y-86220295D01*
X54001785Y-86220295D02*
X54001785Y-86267914D01*
X54001785Y-86267914D02*
X54049404Y-86363152D01*
X54049404Y-86363152D02*
X54097023Y-86410771D01*
X54097023Y-86410771D02*
X54192261Y-86458390D01*
X54192261Y-86458390D02*
X54382737Y-86458390D01*
X54382737Y-86458390D02*
X54477975Y-86506009D01*
X54477975Y-86506009D02*
X54525594Y-86553628D01*
X54525594Y-86553628D02*
X54573213Y-86648866D01*
X54573213Y-86648866D02*
X54573213Y-86839342D01*
X54573213Y-86839342D02*
X54525594Y-86934580D01*
X54525594Y-86934580D02*
X54477975Y-86982200D01*
X54477975Y-86982200D02*
X54382737Y-87029819D01*
X54382737Y-87029819D02*
X54192261Y-87029819D01*
X54192261Y-87029819D02*
X54097023Y-86982200D01*
X54097023Y-86982200D02*
X54049404Y-86934580D01*
X54049404Y-86934580D02*
X54001785Y-86839342D01*
X54001785Y-86839342D02*
X54001785Y-86648866D01*
X54001785Y-86648866D02*
X54049404Y-86553628D01*
X54049404Y-86553628D02*
X54097023Y-86506009D01*
X54097023Y-86506009D02*
X54192261Y-86458390D01*
X77433085Y-144179819D02*
X77433085Y-143179819D01*
X77433085Y-143179819D02*
X77194990Y-143179819D01*
X77194990Y-143179819D02*
X77052133Y-143227438D01*
X77052133Y-143227438D02*
X76956895Y-143322676D01*
X76956895Y-143322676D02*
X76909276Y-143417914D01*
X76909276Y-143417914D02*
X76861657Y-143608390D01*
X76861657Y-143608390D02*
X76861657Y-143751247D01*
X76861657Y-143751247D02*
X76909276Y-143941723D01*
X76909276Y-143941723D02*
X76956895Y-144036961D01*
X76956895Y-144036961D02*
X77052133Y-144132200D01*
X77052133Y-144132200D02*
X77194990Y-144179819D01*
X77194990Y-144179819D02*
X77433085Y-144179819D01*
X76480704Y-143275057D02*
X76433085Y-143227438D01*
X76433085Y-143227438D02*
X76337847Y-143179819D01*
X76337847Y-143179819D02*
X76099752Y-143179819D01*
X76099752Y-143179819D02*
X76004514Y-143227438D01*
X76004514Y-143227438D02*
X75956895Y-143275057D01*
X75956895Y-143275057D02*
X75909276Y-143370295D01*
X75909276Y-143370295D02*
X75909276Y-143465533D01*
X75909276Y-143465533D02*
X75956895Y-143608390D01*
X75956895Y-143608390D02*
X76528323Y-144179819D01*
X76528323Y-144179819D02*
X75909276Y-144179819D01*
X75337847Y-143608390D02*
X75433085Y-143560771D01*
X75433085Y-143560771D02*
X75480704Y-143513152D01*
X75480704Y-143513152D02*
X75528323Y-143417914D01*
X75528323Y-143417914D02*
X75528323Y-143370295D01*
X75528323Y-143370295D02*
X75480704Y-143275057D01*
X75480704Y-143275057D02*
X75433085Y-143227438D01*
X75433085Y-143227438D02*
X75337847Y-143179819D01*
X75337847Y-143179819D02*
X75147371Y-143179819D01*
X75147371Y-143179819D02*
X75052133Y-143227438D01*
X75052133Y-143227438D02*
X75004514Y-143275057D01*
X75004514Y-143275057D02*
X74956895Y-143370295D01*
X74956895Y-143370295D02*
X74956895Y-143417914D01*
X74956895Y-143417914D02*
X75004514Y-143513152D01*
X75004514Y-143513152D02*
X75052133Y-143560771D01*
X75052133Y-143560771D02*
X75147371Y-143608390D01*
X75147371Y-143608390D02*
X75337847Y-143608390D01*
X75337847Y-143608390D02*
X75433085Y-143656009D01*
X75433085Y-143656009D02*
X75480704Y-143703628D01*
X75480704Y-143703628D02*
X75528323Y-143798866D01*
X75528323Y-143798866D02*
X75528323Y-143989342D01*
X75528323Y-143989342D02*
X75480704Y-144084580D01*
X75480704Y-144084580D02*
X75433085Y-144132200D01*
X75433085Y-144132200D02*
X75337847Y-144179819D01*
X75337847Y-144179819D02*
X75147371Y-144179819D01*
X75147371Y-144179819D02*
X75052133Y-144132200D01*
X75052133Y-144132200D02*
X75004514Y-144084580D01*
X75004514Y-144084580D02*
X74956895Y-143989342D01*
X74956895Y-143989342D02*
X74956895Y-143798866D01*
X74956895Y-143798866D02*
X75004514Y-143703628D01*
X75004514Y-143703628D02*
X75052133Y-143656009D01*
X75052133Y-143656009D02*
X75147371Y-143608390D01*
X94101785Y-125129819D02*
X94101785Y-124129819D01*
X94101785Y-124129819D02*
X93863690Y-124129819D01*
X93863690Y-124129819D02*
X93720833Y-124177438D01*
X93720833Y-124177438D02*
X93625595Y-124272676D01*
X93625595Y-124272676D02*
X93577976Y-124367914D01*
X93577976Y-124367914D02*
X93530357Y-124558390D01*
X93530357Y-124558390D02*
X93530357Y-124701247D01*
X93530357Y-124701247D02*
X93577976Y-124891723D01*
X93577976Y-124891723D02*
X93625595Y-124986961D01*
X93625595Y-124986961D02*
X93720833Y-125082200D01*
X93720833Y-125082200D02*
X93863690Y-125129819D01*
X93863690Y-125129819D02*
X94101785Y-125129819D01*
X93149404Y-124225057D02*
X93101785Y-124177438D01*
X93101785Y-124177438D02*
X93006547Y-124129819D01*
X93006547Y-124129819D02*
X92768452Y-124129819D01*
X92768452Y-124129819D02*
X92673214Y-124177438D01*
X92673214Y-124177438D02*
X92625595Y-124225057D01*
X92625595Y-124225057D02*
X92577976Y-124320295D01*
X92577976Y-124320295D02*
X92577976Y-124415533D01*
X92577976Y-124415533D02*
X92625595Y-124558390D01*
X92625595Y-124558390D02*
X93197023Y-125129819D01*
X93197023Y-125129819D02*
X92577976Y-125129819D01*
X92197023Y-124225057D02*
X92149404Y-124177438D01*
X92149404Y-124177438D02*
X92054166Y-124129819D01*
X92054166Y-124129819D02*
X91816071Y-124129819D01*
X91816071Y-124129819D02*
X91720833Y-124177438D01*
X91720833Y-124177438D02*
X91673214Y-124225057D01*
X91673214Y-124225057D02*
X91625595Y-124320295D01*
X91625595Y-124320295D02*
X91625595Y-124415533D01*
X91625595Y-124415533D02*
X91673214Y-124558390D01*
X91673214Y-124558390D02*
X92244642Y-125129819D01*
X92244642Y-125129819D02*
X91625595Y-125129819D01*
X53620585Y-125129819D02*
X53620585Y-124129819D01*
X53620585Y-124129819D02*
X53382490Y-124129819D01*
X53382490Y-124129819D02*
X53239633Y-124177438D01*
X53239633Y-124177438D02*
X53144395Y-124272676D01*
X53144395Y-124272676D02*
X53096776Y-124367914D01*
X53096776Y-124367914D02*
X53049157Y-124558390D01*
X53049157Y-124558390D02*
X53049157Y-124701247D01*
X53049157Y-124701247D02*
X53096776Y-124891723D01*
X53096776Y-124891723D02*
X53144395Y-124986961D01*
X53144395Y-124986961D02*
X53239633Y-125082200D01*
X53239633Y-125082200D02*
X53382490Y-125129819D01*
X53382490Y-125129819D02*
X53620585Y-125129819D01*
X52668204Y-124225057D02*
X52620585Y-124177438D01*
X52620585Y-124177438D02*
X52525347Y-124129819D01*
X52525347Y-124129819D02*
X52287252Y-124129819D01*
X52287252Y-124129819D02*
X52192014Y-124177438D01*
X52192014Y-124177438D02*
X52144395Y-124225057D01*
X52144395Y-124225057D02*
X52096776Y-124320295D01*
X52096776Y-124320295D02*
X52096776Y-124415533D01*
X52096776Y-124415533D02*
X52144395Y-124558390D01*
X52144395Y-124558390D02*
X52715823Y-125129819D01*
X52715823Y-125129819D02*
X52096776Y-125129819D01*
X51477728Y-124129819D02*
X51382490Y-124129819D01*
X51382490Y-124129819D02*
X51287252Y-124177438D01*
X51287252Y-124177438D02*
X51239633Y-124225057D01*
X51239633Y-124225057D02*
X51192014Y-124320295D01*
X51192014Y-124320295D02*
X51144395Y-124510771D01*
X51144395Y-124510771D02*
X51144395Y-124748866D01*
X51144395Y-124748866D02*
X51192014Y-124939342D01*
X51192014Y-124939342D02*
X51239633Y-125034580D01*
X51239633Y-125034580D02*
X51287252Y-125082200D01*
X51287252Y-125082200D02*
X51382490Y-125129819D01*
X51382490Y-125129819D02*
X51477728Y-125129819D01*
X51477728Y-125129819D02*
X51572966Y-125082200D01*
X51572966Y-125082200D02*
X51620585Y-125034580D01*
X51620585Y-125034580D02*
X51668204Y-124939342D01*
X51668204Y-124939342D02*
X51715823Y-124748866D01*
X51715823Y-124748866D02*
X51715823Y-124510771D01*
X51715823Y-124510771D02*
X51668204Y-124320295D01*
X51668204Y-124320295D02*
X51620585Y-124225057D01*
X51620585Y-124225057D02*
X51572966Y-124177438D01*
X51572966Y-124177438D02*
X51477728Y-124129819D01*
X69813094Y-67979819D02*
X69813094Y-66979819D01*
X69813094Y-66979819D02*
X69574999Y-66979819D01*
X69574999Y-66979819D02*
X69432142Y-67027438D01*
X69432142Y-67027438D02*
X69336904Y-67122676D01*
X69336904Y-67122676D02*
X69289285Y-67217914D01*
X69289285Y-67217914D02*
X69241666Y-67408390D01*
X69241666Y-67408390D02*
X69241666Y-67551247D01*
X69241666Y-67551247D02*
X69289285Y-67741723D01*
X69289285Y-67741723D02*
X69336904Y-67836961D01*
X69336904Y-67836961D02*
X69432142Y-67932200D01*
X69432142Y-67932200D02*
X69574999Y-67979819D01*
X69574999Y-67979819D02*
X69813094Y-67979819D01*
X68860713Y-67075057D02*
X68813094Y-67027438D01*
X68813094Y-67027438D02*
X68717856Y-66979819D01*
X68717856Y-66979819D02*
X68479761Y-66979819D01*
X68479761Y-66979819D02*
X68384523Y-67027438D01*
X68384523Y-67027438D02*
X68336904Y-67075057D01*
X68336904Y-67075057D02*
X68289285Y-67170295D01*
X68289285Y-67170295D02*
X68289285Y-67265533D01*
X68289285Y-67265533D02*
X68336904Y-67408390D01*
X68336904Y-67408390D02*
X68908332Y-67979819D01*
X68908332Y-67979819D02*
X68289285Y-67979819D01*
X122676785Y-106079819D02*
X122676785Y-105079819D01*
X122676785Y-105079819D02*
X122438690Y-105079819D01*
X122438690Y-105079819D02*
X122295833Y-105127438D01*
X122295833Y-105127438D02*
X122200595Y-105222676D01*
X122200595Y-105222676D02*
X122152976Y-105317914D01*
X122152976Y-105317914D02*
X122105357Y-105508390D01*
X122105357Y-105508390D02*
X122105357Y-105651247D01*
X122105357Y-105651247D02*
X122152976Y-105841723D01*
X122152976Y-105841723D02*
X122200595Y-105936961D01*
X122200595Y-105936961D02*
X122295833Y-106032200D01*
X122295833Y-106032200D02*
X122438690Y-106079819D01*
X122438690Y-106079819D02*
X122676785Y-106079819D01*
X121152976Y-106079819D02*
X121724404Y-106079819D01*
X121438690Y-106079819D02*
X121438690Y-105079819D01*
X121438690Y-105079819D02*
X121533928Y-105222676D01*
X121533928Y-105222676D02*
X121629166Y-105317914D01*
X121629166Y-105317914D02*
X121724404Y-105365533D01*
X120819642Y-105079819D02*
X120152976Y-105079819D01*
X120152976Y-105079819D02*
X120581547Y-106079819D01*
X141726785Y-106079819D02*
X141726785Y-105079819D01*
X141726785Y-105079819D02*
X141488690Y-105079819D01*
X141488690Y-105079819D02*
X141345833Y-105127438D01*
X141345833Y-105127438D02*
X141250595Y-105222676D01*
X141250595Y-105222676D02*
X141202976Y-105317914D01*
X141202976Y-105317914D02*
X141155357Y-105508390D01*
X141155357Y-105508390D02*
X141155357Y-105651247D01*
X141155357Y-105651247D02*
X141202976Y-105841723D01*
X141202976Y-105841723D02*
X141250595Y-105936961D01*
X141250595Y-105936961D02*
X141345833Y-106032200D01*
X141345833Y-106032200D02*
X141488690Y-106079819D01*
X141488690Y-106079819D02*
X141726785Y-106079819D01*
X140202976Y-106079819D02*
X140774404Y-106079819D01*
X140488690Y-106079819D02*
X140488690Y-105079819D01*
X140488690Y-105079819D02*
X140583928Y-105222676D01*
X140583928Y-105222676D02*
X140679166Y-105317914D01*
X140679166Y-105317914D02*
X140774404Y-105365533D01*
X139631547Y-105508390D02*
X139726785Y-105460771D01*
X139726785Y-105460771D02*
X139774404Y-105413152D01*
X139774404Y-105413152D02*
X139822023Y-105317914D01*
X139822023Y-105317914D02*
X139822023Y-105270295D01*
X139822023Y-105270295D02*
X139774404Y-105175057D01*
X139774404Y-105175057D02*
X139726785Y-105127438D01*
X139726785Y-105127438D02*
X139631547Y-105079819D01*
X139631547Y-105079819D02*
X139441071Y-105079819D01*
X139441071Y-105079819D02*
X139345833Y-105127438D01*
X139345833Y-105127438D02*
X139298214Y-105175057D01*
X139298214Y-105175057D02*
X139250595Y-105270295D01*
X139250595Y-105270295D02*
X139250595Y-105317914D01*
X139250595Y-105317914D02*
X139298214Y-105413152D01*
X139298214Y-105413152D02*
X139345833Y-105460771D01*
X139345833Y-105460771D02*
X139441071Y-105508390D01*
X139441071Y-105508390D02*
X139631547Y-105508390D01*
X139631547Y-105508390D02*
X139726785Y-105556009D01*
X139726785Y-105556009D02*
X139774404Y-105603628D01*
X139774404Y-105603628D02*
X139822023Y-105698866D01*
X139822023Y-105698866D02*
X139822023Y-105889342D01*
X139822023Y-105889342D02*
X139774404Y-105984580D01*
X139774404Y-105984580D02*
X139726785Y-106032200D01*
X139726785Y-106032200D02*
X139631547Y-106079819D01*
X139631547Y-106079819D02*
X139441071Y-106079819D01*
X139441071Y-106079819D02*
X139345833Y-106032200D01*
X139345833Y-106032200D02*
X139298214Y-105984580D01*
X139298214Y-105984580D02*
X139250595Y-105889342D01*
X139250595Y-105889342D02*
X139250595Y-105698866D01*
X139250595Y-105698866D02*
X139298214Y-105603628D01*
X139298214Y-105603628D02*
X139345833Y-105556009D01*
X139345833Y-105556009D02*
X139441071Y-105508390D01*
X151251785Y-125129819D02*
X151251785Y-124129819D01*
X151251785Y-124129819D02*
X151013690Y-124129819D01*
X151013690Y-124129819D02*
X150870833Y-124177438D01*
X150870833Y-124177438D02*
X150775595Y-124272676D01*
X150775595Y-124272676D02*
X150727976Y-124367914D01*
X150727976Y-124367914D02*
X150680357Y-124558390D01*
X150680357Y-124558390D02*
X150680357Y-124701247D01*
X150680357Y-124701247D02*
X150727976Y-124891723D01*
X150727976Y-124891723D02*
X150775595Y-124986961D01*
X150775595Y-124986961D02*
X150870833Y-125082200D01*
X150870833Y-125082200D02*
X151013690Y-125129819D01*
X151013690Y-125129819D02*
X151251785Y-125129819D01*
X150299404Y-124225057D02*
X150251785Y-124177438D01*
X150251785Y-124177438D02*
X150156547Y-124129819D01*
X150156547Y-124129819D02*
X149918452Y-124129819D01*
X149918452Y-124129819D02*
X149823214Y-124177438D01*
X149823214Y-124177438D02*
X149775595Y-124225057D01*
X149775595Y-124225057D02*
X149727976Y-124320295D01*
X149727976Y-124320295D02*
X149727976Y-124415533D01*
X149727976Y-124415533D02*
X149775595Y-124558390D01*
X149775595Y-124558390D02*
X150347023Y-125129819D01*
X150347023Y-125129819D02*
X149727976Y-125129819D01*
X148823214Y-124129819D02*
X149299404Y-124129819D01*
X149299404Y-124129819D02*
X149347023Y-124606009D01*
X149347023Y-124606009D02*
X149299404Y-124558390D01*
X149299404Y-124558390D02*
X149204166Y-124510771D01*
X149204166Y-124510771D02*
X148966071Y-124510771D01*
X148966071Y-124510771D02*
X148870833Y-124558390D01*
X148870833Y-124558390D02*
X148823214Y-124606009D01*
X148823214Y-124606009D02*
X148775595Y-124701247D01*
X148775595Y-124701247D02*
X148775595Y-124939342D01*
X148775595Y-124939342D02*
X148823214Y-125034580D01*
X148823214Y-125034580D02*
X148870833Y-125082200D01*
X148870833Y-125082200D02*
X148966071Y-125129819D01*
X148966071Y-125129819D02*
X149204166Y-125129819D01*
X149204166Y-125129819D02*
X149299404Y-125082200D01*
X149299404Y-125082200D02*
X149347023Y-125034580D01*
X126963094Y-67979819D02*
X126963094Y-66979819D01*
X126963094Y-66979819D02*
X126724999Y-66979819D01*
X126724999Y-66979819D02*
X126582142Y-67027438D01*
X126582142Y-67027438D02*
X126486904Y-67122676D01*
X126486904Y-67122676D02*
X126439285Y-67217914D01*
X126439285Y-67217914D02*
X126391666Y-67408390D01*
X126391666Y-67408390D02*
X126391666Y-67551247D01*
X126391666Y-67551247D02*
X126439285Y-67741723D01*
X126439285Y-67741723D02*
X126486904Y-67836961D01*
X126486904Y-67836961D02*
X126582142Y-67932200D01*
X126582142Y-67932200D02*
X126724999Y-67979819D01*
X126724999Y-67979819D02*
X126963094Y-67979819D01*
X125486904Y-66979819D02*
X125963094Y-66979819D01*
X125963094Y-66979819D02*
X126010713Y-67456009D01*
X126010713Y-67456009D02*
X125963094Y-67408390D01*
X125963094Y-67408390D02*
X125867856Y-67360771D01*
X125867856Y-67360771D02*
X125629761Y-67360771D01*
X125629761Y-67360771D02*
X125534523Y-67408390D01*
X125534523Y-67408390D02*
X125486904Y-67456009D01*
X125486904Y-67456009D02*
X125439285Y-67551247D01*
X125439285Y-67551247D02*
X125439285Y-67789342D01*
X125439285Y-67789342D02*
X125486904Y-67884580D01*
X125486904Y-67884580D02*
X125534523Y-67932200D01*
X125534523Y-67932200D02*
X125629761Y-67979819D01*
X125629761Y-67979819D02*
X125867856Y-67979819D01*
X125867856Y-67979819D02*
X125963094Y-67932200D01*
X125963094Y-67932200D02*
X126010713Y-67884580D01*
X53620585Y-144179819D02*
X53620585Y-143179819D01*
X53620585Y-143179819D02*
X53382490Y-143179819D01*
X53382490Y-143179819D02*
X53239633Y-143227438D01*
X53239633Y-143227438D02*
X53144395Y-143322676D01*
X53144395Y-143322676D02*
X53096776Y-143417914D01*
X53096776Y-143417914D02*
X53049157Y-143608390D01*
X53049157Y-143608390D02*
X53049157Y-143751247D01*
X53049157Y-143751247D02*
X53096776Y-143941723D01*
X53096776Y-143941723D02*
X53144395Y-144036961D01*
X53144395Y-144036961D02*
X53239633Y-144132200D01*
X53239633Y-144132200D02*
X53382490Y-144179819D01*
X53382490Y-144179819D02*
X53620585Y-144179819D01*
X52668204Y-143275057D02*
X52620585Y-143227438D01*
X52620585Y-143227438D02*
X52525347Y-143179819D01*
X52525347Y-143179819D02*
X52287252Y-143179819D01*
X52287252Y-143179819D02*
X52192014Y-143227438D01*
X52192014Y-143227438D02*
X52144395Y-143275057D01*
X52144395Y-143275057D02*
X52096776Y-143370295D01*
X52096776Y-143370295D02*
X52096776Y-143465533D01*
X52096776Y-143465533D02*
X52144395Y-143608390D01*
X52144395Y-143608390D02*
X52715823Y-144179819D01*
X52715823Y-144179819D02*
X52096776Y-144179819D01*
X51763442Y-143179819D02*
X51096776Y-143179819D01*
X51096776Y-143179819D02*
X51525347Y-144179819D01*
X146013094Y-67979819D02*
X146013094Y-66979819D01*
X146013094Y-66979819D02*
X145774999Y-66979819D01*
X145774999Y-66979819D02*
X145632142Y-67027438D01*
X145632142Y-67027438D02*
X145536904Y-67122676D01*
X145536904Y-67122676D02*
X145489285Y-67217914D01*
X145489285Y-67217914D02*
X145441666Y-67408390D01*
X145441666Y-67408390D02*
X145441666Y-67551247D01*
X145441666Y-67551247D02*
X145489285Y-67741723D01*
X145489285Y-67741723D02*
X145536904Y-67836961D01*
X145536904Y-67836961D02*
X145632142Y-67932200D01*
X145632142Y-67932200D02*
X145774999Y-67979819D01*
X145774999Y-67979819D02*
X146013094Y-67979819D01*
X144584523Y-66979819D02*
X144774999Y-66979819D01*
X144774999Y-66979819D02*
X144870237Y-67027438D01*
X144870237Y-67027438D02*
X144917856Y-67075057D01*
X144917856Y-67075057D02*
X145013094Y-67217914D01*
X145013094Y-67217914D02*
X145060713Y-67408390D01*
X145060713Y-67408390D02*
X145060713Y-67789342D01*
X145060713Y-67789342D02*
X145013094Y-67884580D01*
X145013094Y-67884580D02*
X144965475Y-67932200D01*
X144965475Y-67932200D02*
X144870237Y-67979819D01*
X144870237Y-67979819D02*
X144679761Y-67979819D01*
X144679761Y-67979819D02*
X144584523Y-67932200D01*
X144584523Y-67932200D02*
X144536904Y-67884580D01*
X144536904Y-67884580D02*
X144489285Y-67789342D01*
X144489285Y-67789342D02*
X144489285Y-67551247D01*
X144489285Y-67551247D02*
X144536904Y-67456009D01*
X144536904Y-67456009D02*
X144584523Y-67408390D01*
X144584523Y-67408390D02*
X144679761Y-67360771D01*
X144679761Y-67360771D02*
X144870237Y-67360771D01*
X144870237Y-67360771D02*
X144965475Y-67408390D01*
X144965475Y-67408390D02*
X145013094Y-67456009D01*
X145013094Y-67456009D02*
X145060713Y-67551247D01*
X170301785Y-125129819D02*
X170301785Y-124129819D01*
X170301785Y-124129819D02*
X170063690Y-124129819D01*
X170063690Y-124129819D02*
X169920833Y-124177438D01*
X169920833Y-124177438D02*
X169825595Y-124272676D01*
X169825595Y-124272676D02*
X169777976Y-124367914D01*
X169777976Y-124367914D02*
X169730357Y-124558390D01*
X169730357Y-124558390D02*
X169730357Y-124701247D01*
X169730357Y-124701247D02*
X169777976Y-124891723D01*
X169777976Y-124891723D02*
X169825595Y-124986961D01*
X169825595Y-124986961D02*
X169920833Y-125082200D01*
X169920833Y-125082200D02*
X170063690Y-125129819D01*
X170063690Y-125129819D02*
X170301785Y-125129819D01*
X169349404Y-124225057D02*
X169301785Y-124177438D01*
X169301785Y-124177438D02*
X169206547Y-124129819D01*
X169206547Y-124129819D02*
X168968452Y-124129819D01*
X168968452Y-124129819D02*
X168873214Y-124177438D01*
X168873214Y-124177438D02*
X168825595Y-124225057D01*
X168825595Y-124225057D02*
X168777976Y-124320295D01*
X168777976Y-124320295D02*
X168777976Y-124415533D01*
X168777976Y-124415533D02*
X168825595Y-124558390D01*
X168825595Y-124558390D02*
X169397023Y-125129819D01*
X169397023Y-125129819D02*
X168777976Y-125129819D01*
X167920833Y-124129819D02*
X168111309Y-124129819D01*
X168111309Y-124129819D02*
X168206547Y-124177438D01*
X168206547Y-124177438D02*
X168254166Y-124225057D01*
X168254166Y-124225057D02*
X168349404Y-124367914D01*
X168349404Y-124367914D02*
X168397023Y-124558390D01*
X168397023Y-124558390D02*
X168397023Y-124939342D01*
X168397023Y-124939342D02*
X168349404Y-125034580D01*
X168349404Y-125034580D02*
X168301785Y-125082200D01*
X168301785Y-125082200D02*
X168206547Y-125129819D01*
X168206547Y-125129819D02*
X168016071Y-125129819D01*
X168016071Y-125129819D02*
X167920833Y-125082200D01*
X167920833Y-125082200D02*
X167873214Y-125034580D01*
X167873214Y-125034580D02*
X167825595Y-124939342D01*
X167825595Y-124939342D02*
X167825595Y-124701247D01*
X167825595Y-124701247D02*
X167873214Y-124606009D01*
X167873214Y-124606009D02*
X167920833Y-124558390D01*
X167920833Y-124558390D02*
X168016071Y-124510771D01*
X168016071Y-124510771D02*
X168206547Y-124510771D01*
X168206547Y-124510771D02*
X168301785Y-124558390D01*
X168301785Y-124558390D02*
X168349404Y-124606009D01*
X168349404Y-124606009D02*
X168397023Y-124701247D01*
X146489285Y-144179819D02*
X146489285Y-143179819D01*
X146489285Y-143179819D02*
X146251190Y-143179819D01*
X146251190Y-143179819D02*
X146108333Y-143227438D01*
X146108333Y-143227438D02*
X146013095Y-143322676D01*
X146013095Y-143322676D02*
X145965476Y-143417914D01*
X145965476Y-143417914D02*
X145917857Y-143608390D01*
X145917857Y-143608390D02*
X145917857Y-143751247D01*
X145917857Y-143751247D02*
X145965476Y-143941723D01*
X145965476Y-143941723D02*
X146013095Y-144036961D01*
X146013095Y-144036961D02*
X146108333Y-144132200D01*
X146108333Y-144132200D02*
X146251190Y-144179819D01*
X146251190Y-144179819D02*
X146489285Y-144179819D01*
X145584523Y-143179819D02*
X144965476Y-143179819D01*
X144965476Y-143179819D02*
X145298809Y-143560771D01*
X145298809Y-143560771D02*
X145155952Y-143560771D01*
X145155952Y-143560771D02*
X145060714Y-143608390D01*
X145060714Y-143608390D02*
X145013095Y-143656009D01*
X145013095Y-143656009D02*
X144965476Y-143751247D01*
X144965476Y-143751247D02*
X144965476Y-143989342D01*
X144965476Y-143989342D02*
X145013095Y-144084580D01*
X145013095Y-144084580D02*
X145060714Y-144132200D01*
X145060714Y-144132200D02*
X145155952Y-144179819D01*
X145155952Y-144179819D02*
X145441666Y-144179819D01*
X145441666Y-144179819D02*
X145536904Y-144132200D01*
X145536904Y-144132200D02*
X145584523Y-144084580D01*
X144013095Y-144179819D02*
X144584523Y-144179819D01*
X144298809Y-144179819D02*
X144298809Y-143179819D01*
X144298809Y-143179819D02*
X144394047Y-143322676D01*
X144394047Y-143322676D02*
X144489285Y-143417914D01*
X144489285Y-143417914D02*
X144584523Y-143465533D01*
X117914285Y-87029819D02*
X117914285Y-86029819D01*
X117914285Y-86029819D02*
X117676190Y-86029819D01*
X117676190Y-86029819D02*
X117533333Y-86077438D01*
X117533333Y-86077438D02*
X117438095Y-86172676D01*
X117438095Y-86172676D02*
X117390476Y-86267914D01*
X117390476Y-86267914D02*
X117342857Y-86458390D01*
X117342857Y-86458390D02*
X117342857Y-86601247D01*
X117342857Y-86601247D02*
X117390476Y-86791723D01*
X117390476Y-86791723D02*
X117438095Y-86886961D01*
X117438095Y-86886961D02*
X117533333Y-86982200D01*
X117533333Y-86982200D02*
X117676190Y-87029819D01*
X117676190Y-87029819D02*
X117914285Y-87029819D01*
X116390476Y-87029819D02*
X116961904Y-87029819D01*
X116676190Y-87029819D02*
X116676190Y-86029819D01*
X116676190Y-86029819D02*
X116771428Y-86172676D01*
X116771428Y-86172676D02*
X116866666Y-86267914D01*
X116866666Y-86267914D02*
X116961904Y-86315533D01*
X115438095Y-87029819D02*
X116009523Y-87029819D01*
X115723809Y-87029819D02*
X115723809Y-86029819D01*
X115723809Y-86029819D02*
X115819047Y-86172676D01*
X115819047Y-86172676D02*
X115914285Y-86267914D01*
X115914285Y-86267914D02*
X116009523Y-86315533D01*
X101245585Y-144179819D02*
X101245585Y-143179819D01*
X101245585Y-143179819D02*
X101007490Y-143179819D01*
X101007490Y-143179819D02*
X100864633Y-143227438D01*
X100864633Y-143227438D02*
X100769395Y-143322676D01*
X100769395Y-143322676D02*
X100721776Y-143417914D01*
X100721776Y-143417914D02*
X100674157Y-143608390D01*
X100674157Y-143608390D02*
X100674157Y-143751247D01*
X100674157Y-143751247D02*
X100721776Y-143941723D01*
X100721776Y-143941723D02*
X100769395Y-144036961D01*
X100769395Y-144036961D02*
X100864633Y-144132200D01*
X100864633Y-144132200D02*
X101007490Y-144179819D01*
X101007490Y-144179819D02*
X101245585Y-144179819D01*
X100293204Y-143275057D02*
X100245585Y-143227438D01*
X100245585Y-143227438D02*
X100150347Y-143179819D01*
X100150347Y-143179819D02*
X99912252Y-143179819D01*
X99912252Y-143179819D02*
X99817014Y-143227438D01*
X99817014Y-143227438D02*
X99769395Y-143275057D01*
X99769395Y-143275057D02*
X99721776Y-143370295D01*
X99721776Y-143370295D02*
X99721776Y-143465533D01*
X99721776Y-143465533D02*
X99769395Y-143608390D01*
X99769395Y-143608390D02*
X100340823Y-144179819D01*
X100340823Y-144179819D02*
X99721776Y-144179819D01*
X99245585Y-144179819D02*
X99055109Y-144179819D01*
X99055109Y-144179819D02*
X98959871Y-144132200D01*
X98959871Y-144132200D02*
X98912252Y-144084580D01*
X98912252Y-144084580D02*
X98817014Y-143941723D01*
X98817014Y-143941723D02*
X98769395Y-143751247D01*
X98769395Y-143751247D02*
X98769395Y-143370295D01*
X98769395Y-143370295D02*
X98817014Y-143275057D01*
X98817014Y-143275057D02*
X98864633Y-143227438D01*
X98864633Y-143227438D02*
X98959871Y-143179819D01*
X98959871Y-143179819D02*
X99150347Y-143179819D01*
X99150347Y-143179819D02*
X99245585Y-143227438D01*
X99245585Y-143227438D02*
X99293204Y-143275057D01*
X99293204Y-143275057D02*
X99340823Y-143370295D01*
X99340823Y-143370295D02*
X99340823Y-143608390D01*
X99340823Y-143608390D02*
X99293204Y-143703628D01*
X99293204Y-143703628D02*
X99245585Y-143751247D01*
X99245585Y-143751247D02*
X99150347Y-143798866D01*
X99150347Y-143798866D02*
X98959871Y-143798866D01*
X98959871Y-143798866D02*
X98864633Y-143751247D01*
X98864633Y-143751247D02*
X98817014Y-143703628D01*
X98817014Y-143703628D02*
X98769395Y-143608390D01*
X165063094Y-67979819D02*
X165063094Y-66979819D01*
X165063094Y-66979819D02*
X164824999Y-66979819D01*
X164824999Y-66979819D02*
X164682142Y-67027438D01*
X164682142Y-67027438D02*
X164586904Y-67122676D01*
X164586904Y-67122676D02*
X164539285Y-67217914D01*
X164539285Y-67217914D02*
X164491666Y-67408390D01*
X164491666Y-67408390D02*
X164491666Y-67551247D01*
X164491666Y-67551247D02*
X164539285Y-67741723D01*
X164539285Y-67741723D02*
X164586904Y-67836961D01*
X164586904Y-67836961D02*
X164682142Y-67932200D01*
X164682142Y-67932200D02*
X164824999Y-67979819D01*
X164824999Y-67979819D02*
X165063094Y-67979819D01*
X164158332Y-66979819D02*
X163491666Y-66979819D01*
X163491666Y-66979819D02*
X163920237Y-67979819D01*
X167920585Y-144179819D02*
X167920585Y-143179819D01*
X167920585Y-143179819D02*
X167682490Y-143179819D01*
X167682490Y-143179819D02*
X167539633Y-143227438D01*
X167539633Y-143227438D02*
X167444395Y-143322676D01*
X167444395Y-143322676D02*
X167396776Y-143417914D01*
X167396776Y-143417914D02*
X167349157Y-143608390D01*
X167349157Y-143608390D02*
X167349157Y-143751247D01*
X167349157Y-143751247D02*
X167396776Y-143941723D01*
X167396776Y-143941723D02*
X167444395Y-144036961D01*
X167444395Y-144036961D02*
X167539633Y-144132200D01*
X167539633Y-144132200D02*
X167682490Y-144179819D01*
X167682490Y-144179819D02*
X167920585Y-144179819D01*
X167015823Y-143179819D02*
X166396776Y-143179819D01*
X166396776Y-143179819D02*
X166730109Y-143560771D01*
X166730109Y-143560771D02*
X166587252Y-143560771D01*
X166587252Y-143560771D02*
X166492014Y-143608390D01*
X166492014Y-143608390D02*
X166444395Y-143656009D01*
X166444395Y-143656009D02*
X166396776Y-143751247D01*
X166396776Y-143751247D02*
X166396776Y-143989342D01*
X166396776Y-143989342D02*
X166444395Y-144084580D01*
X166444395Y-144084580D02*
X166492014Y-144132200D01*
X166492014Y-144132200D02*
X166587252Y-144179819D01*
X166587252Y-144179819D02*
X166872966Y-144179819D01*
X166872966Y-144179819D02*
X166968204Y-144132200D01*
X166968204Y-144132200D02*
X167015823Y-144084580D01*
X166015823Y-143275057D02*
X165968204Y-143227438D01*
X165968204Y-143227438D02*
X165872966Y-143179819D01*
X165872966Y-143179819D02*
X165634871Y-143179819D01*
X165634871Y-143179819D02*
X165539633Y-143227438D01*
X165539633Y-143227438D02*
X165492014Y-143275057D01*
X165492014Y-143275057D02*
X165444395Y-143370295D01*
X165444395Y-143370295D02*
X165444395Y-143465533D01*
X165444395Y-143465533D02*
X165492014Y-143608390D01*
X165492014Y-143608390D02*
X166063442Y-144179819D01*
X166063442Y-144179819D02*
X165444395Y-144179819D01*
X50763094Y-67979819D02*
X50763094Y-66979819D01*
X50763094Y-66979819D02*
X50524999Y-66979819D01*
X50524999Y-66979819D02*
X50382142Y-67027438D01*
X50382142Y-67027438D02*
X50286904Y-67122676D01*
X50286904Y-67122676D02*
X50239285Y-67217914D01*
X50239285Y-67217914D02*
X50191666Y-67408390D01*
X50191666Y-67408390D02*
X50191666Y-67551247D01*
X50191666Y-67551247D02*
X50239285Y-67741723D01*
X50239285Y-67741723D02*
X50286904Y-67836961D01*
X50286904Y-67836961D02*
X50382142Y-67932200D01*
X50382142Y-67932200D02*
X50524999Y-67979819D01*
X50524999Y-67979819D02*
X50763094Y-67979819D01*
X49239285Y-67979819D02*
X49810713Y-67979819D01*
X49524999Y-67979819D02*
X49524999Y-66979819D01*
X49524999Y-66979819D02*
X49620237Y-67122676D01*
X49620237Y-67122676D02*
X49715475Y-67217914D01*
X49715475Y-67217914D02*
X49810713Y-67265533D01*
X79338094Y-87029819D02*
X79338094Y-86029819D01*
X79338094Y-86029819D02*
X79099999Y-86029819D01*
X79099999Y-86029819D02*
X78957142Y-86077438D01*
X78957142Y-86077438D02*
X78861904Y-86172676D01*
X78861904Y-86172676D02*
X78814285Y-86267914D01*
X78814285Y-86267914D02*
X78766666Y-86458390D01*
X78766666Y-86458390D02*
X78766666Y-86601247D01*
X78766666Y-86601247D02*
X78814285Y-86791723D01*
X78814285Y-86791723D02*
X78861904Y-86886961D01*
X78861904Y-86886961D02*
X78957142Y-86982200D01*
X78957142Y-86982200D02*
X79099999Y-87029819D01*
X79099999Y-87029819D02*
X79338094Y-87029819D01*
X78290475Y-87029819D02*
X78099999Y-87029819D01*
X78099999Y-87029819D02*
X78004761Y-86982200D01*
X78004761Y-86982200D02*
X77957142Y-86934580D01*
X77957142Y-86934580D02*
X77861904Y-86791723D01*
X77861904Y-86791723D02*
X77814285Y-86601247D01*
X77814285Y-86601247D02*
X77814285Y-86220295D01*
X77814285Y-86220295D02*
X77861904Y-86125057D01*
X77861904Y-86125057D02*
X77909523Y-86077438D01*
X77909523Y-86077438D02*
X78004761Y-86029819D01*
X78004761Y-86029819D02*
X78195237Y-86029819D01*
X78195237Y-86029819D02*
X78290475Y-86077438D01*
X78290475Y-86077438D02*
X78338094Y-86125057D01*
X78338094Y-86125057D02*
X78385713Y-86220295D01*
X78385713Y-86220295D02*
X78385713Y-86458390D01*
X78385713Y-86458390D02*
X78338094Y-86553628D01*
X78338094Y-86553628D02*
X78290475Y-86601247D01*
X78290475Y-86601247D02*
X78195237Y-86648866D01*
X78195237Y-86648866D02*
X78004761Y-86648866D01*
X78004761Y-86648866D02*
X77909523Y-86601247D01*
X77909523Y-86601247D02*
X77861904Y-86553628D01*
X77861904Y-86553628D02*
X77814285Y-86458390D01*
X58382985Y-106079819D02*
X58382985Y-105079819D01*
X58382985Y-105079819D02*
X58144890Y-105079819D01*
X58144890Y-105079819D02*
X58002033Y-105127438D01*
X58002033Y-105127438D02*
X57906795Y-105222676D01*
X57906795Y-105222676D02*
X57859176Y-105317914D01*
X57859176Y-105317914D02*
X57811557Y-105508390D01*
X57811557Y-105508390D02*
X57811557Y-105651247D01*
X57811557Y-105651247D02*
X57859176Y-105841723D01*
X57859176Y-105841723D02*
X57906795Y-105936961D01*
X57906795Y-105936961D02*
X58002033Y-106032200D01*
X58002033Y-106032200D02*
X58144890Y-106079819D01*
X58144890Y-106079819D02*
X58382985Y-106079819D01*
X56859176Y-106079819D02*
X57430604Y-106079819D01*
X57144890Y-106079819D02*
X57144890Y-105079819D01*
X57144890Y-105079819D02*
X57240128Y-105222676D01*
X57240128Y-105222676D02*
X57335366Y-105317914D01*
X57335366Y-105317914D02*
X57430604Y-105365533D01*
X56002033Y-105413152D02*
X56002033Y-106079819D01*
X56240128Y-105032200D02*
X56478223Y-105746485D01*
X56478223Y-105746485D02*
X55859176Y-105746485D01*
%TO.C,SW13*%
D11*
X147525000Y-102350000D02*
X147525000Y-98400000D01*
X147900000Y-98025000D02*
X151375000Y-98025000D01*
X147900000Y-102725000D02*
X150199805Y-102725000D01*
X152325000Y-104825000D02*
X151825000Y-104325000D01*
X153475000Y-100125000D02*
X156575000Y-100125000D01*
X156575000Y-104825000D02*
X152325000Y-104825000D01*
X157075000Y-100625000D02*
X156575000Y-100125000D01*
X157075000Y-100625000D02*
X157075000Y-104325000D01*
X157075000Y-104325000D02*
X156575000Y-104825000D01*
X147525000Y-98400000D02*
G75*
G02*
X147900000Y-98025000I375000J0D01*
G01*
X147900000Y-102725000D02*
G75*
G02*
X147525000Y-102350000I0J375000D01*
G01*
X150199805Y-102725000D02*
G75*
G02*
X151824999Y-104325000I25000J-1599999D01*
G01*
X151375000Y-98025000D02*
G75*
G02*
X151750000Y-98400000I0J-375000D01*
G01*
X153475000Y-100125000D02*
G75*
G02*
X151750000Y-98400000I1J1725001D01*
G01*
%TO.C,SW15*%
X76087500Y-121400000D02*
X76087500Y-117450000D01*
X76462500Y-117075000D02*
X79937500Y-117075000D01*
X76462500Y-121775000D02*
X78762305Y-121775000D01*
X80887500Y-123875000D02*
X80387500Y-123375000D01*
X82037500Y-119175000D02*
X85137500Y-119175000D01*
X85137500Y-123875000D02*
X80887500Y-123875000D01*
X85637500Y-119675000D02*
X85137500Y-119175000D01*
X85637500Y-119675000D02*
X85637500Y-123375000D01*
X85637500Y-123375000D02*
X85137500Y-123875000D01*
X76087500Y-117450000D02*
G75*
G02*
X76462500Y-117075000I375000J0D01*
G01*
X76462500Y-121775000D02*
G75*
G02*
X76087500Y-121400000I0J375000D01*
G01*
X78762305Y-121775000D02*
G75*
G02*
X80387499Y-123375000I25000J-1599999D01*
G01*
X79937500Y-117075000D02*
G75*
G02*
X80312500Y-117450000I0J-375000D01*
G01*
X82037500Y-119175000D02*
G75*
G02*
X80312500Y-117450000I1J1725001D01*
G01*
%TO.C,SW19*%
X152287500Y-121400000D02*
X152287500Y-117450000D01*
X152662500Y-117075000D02*
X156137500Y-117075000D01*
X152662500Y-121775000D02*
X154962305Y-121775000D01*
X157087500Y-123875000D02*
X156587500Y-123375000D01*
X158237500Y-119175000D02*
X161337500Y-119175000D01*
X161337500Y-123875000D02*
X157087500Y-123875000D01*
X161837500Y-119675000D02*
X161337500Y-119175000D01*
X161837500Y-119675000D02*
X161837500Y-123375000D01*
X161837500Y-123375000D02*
X161337500Y-123875000D01*
X152287500Y-117450000D02*
G75*
G02*
X152662500Y-117075000I375000J0D01*
G01*
X152662500Y-121775000D02*
G75*
G02*
X152287500Y-121400000I0J375000D01*
G01*
X154962305Y-121775000D02*
G75*
G02*
X156587499Y-123375000I25000J-1599999D01*
G01*
X156137500Y-117075000D02*
G75*
G02*
X156512500Y-117450000I0J-375000D01*
G01*
X158237500Y-119175000D02*
G75*
G02*
X156512500Y-117450000I1J1725001D01*
G01*
%TO.C,SW18*%
X133237500Y-121400000D02*
X133237500Y-117450000D01*
X133612500Y-117075000D02*
X137087500Y-117075000D01*
X133612500Y-121775000D02*
X135912305Y-121775000D01*
X138037500Y-123875000D02*
X137537500Y-123375000D01*
X139187500Y-119175000D02*
X142287500Y-119175000D01*
X142287500Y-123875000D02*
X138037500Y-123875000D01*
X142787500Y-119675000D02*
X142287500Y-119175000D01*
X142787500Y-119675000D02*
X142787500Y-123375000D01*
X142787500Y-123375000D02*
X142287500Y-123875000D01*
X133237500Y-117450000D02*
G75*
G02*
X133612500Y-117075000I375000J0D01*
G01*
X133612500Y-121775000D02*
G75*
G02*
X133237500Y-121400000I0J375000D01*
G01*
X135912305Y-121775000D02*
G75*
G02*
X137537499Y-123375000I25000J-1599999D01*
G01*
X137087500Y-117075000D02*
G75*
G02*
X137462500Y-117450000I0J-375000D01*
G01*
X139187500Y-119175000D02*
G75*
G02*
X137462500Y-117450000I1J1725001D01*
G01*
%TO.C,SW26*%
X161812500Y-140450000D02*
X161812500Y-136500000D01*
X162187500Y-136125000D02*
X165662500Y-136125000D01*
X162187500Y-140825000D02*
X164487305Y-140825000D01*
X166612500Y-142925000D02*
X166112500Y-142425000D01*
X167762500Y-138225000D02*
X170862500Y-138225000D01*
X170862500Y-142925000D02*
X166612500Y-142925000D01*
X171362500Y-138725000D02*
X170862500Y-138225000D01*
X171362500Y-138725000D02*
X171362500Y-142425000D01*
X171362500Y-142425000D02*
X170862500Y-142925000D01*
X161812500Y-136500000D02*
G75*
G02*
X162187500Y-136125000I375000J0D01*
G01*
X162187500Y-140825000D02*
G75*
G02*
X161812500Y-140450000I0J375000D01*
G01*
X164487305Y-140825000D02*
G75*
G02*
X166112499Y-142425000I25000J-1599999D01*
G01*
X165662500Y-136125000D02*
G75*
G02*
X166037500Y-136500000I0J-375000D01*
G01*
X167762500Y-138225000D02*
G75*
G02*
X166037500Y-136500000I1J1725001D01*
G01*
%TO.C,SW2*%
X61800000Y-83300000D02*
X61800000Y-79350000D01*
X62175000Y-78975000D02*
X65650000Y-78975000D01*
X62175000Y-83675000D02*
X64474805Y-83675000D01*
X66600000Y-85775000D02*
X66100000Y-85275000D01*
X67750000Y-81075000D02*
X70850000Y-81075000D01*
X70850000Y-85775000D02*
X66600000Y-85775000D01*
X71350000Y-81575000D02*
X70850000Y-81075000D01*
X71350000Y-81575000D02*
X71350000Y-85275000D01*
X71350000Y-85275000D02*
X70850000Y-85775000D01*
X61800000Y-79350000D02*
G75*
G02*
X62175000Y-78975000I375000J0D01*
G01*
X62175000Y-83675000D02*
G75*
G02*
X61800000Y-83300000I0J375000D01*
G01*
X64474805Y-83675000D02*
G75*
G02*
X66099999Y-85275000I25000J-1599999D01*
G01*
X65650000Y-78975000D02*
G75*
G02*
X66025000Y-79350000I0J-375000D01*
G01*
X67750000Y-81075000D02*
G75*
G02*
X66025000Y-79350000I1J1725001D01*
G01*
%TO.C,SW20*%
X45131300Y-140450000D02*
X45131300Y-136500000D01*
X45506300Y-136125000D02*
X48981300Y-136125000D01*
X45506300Y-140825000D02*
X47806105Y-140825000D01*
X49931300Y-142925000D02*
X49431300Y-142425000D01*
X51081300Y-138225000D02*
X54181300Y-138225000D01*
X54181300Y-142925000D02*
X49931300Y-142925000D01*
X54681300Y-138725000D02*
X54181300Y-138225000D01*
X54681300Y-138725000D02*
X54681300Y-142425000D01*
X54681300Y-142425000D02*
X54181300Y-142925000D01*
X45131300Y-136500000D02*
G75*
G02*
X45506300Y-136125000I375000J0D01*
G01*
X45506300Y-140825000D02*
G75*
G02*
X45131300Y-140450000I0J375000D01*
G01*
X47806105Y-140825000D02*
G75*
G02*
X49431299Y-142425000I25000J-1599999D01*
G01*
X48981300Y-136125000D02*
G75*
G02*
X49356300Y-136500000I0J-375000D01*
G01*
X51081300Y-138225000D02*
G75*
G02*
X49356300Y-136500000I1J1725001D01*
G01*
%TO.C,SW3*%
X80850000Y-83300000D02*
X80850000Y-79350000D01*
X81225000Y-78975000D02*
X84700000Y-78975000D01*
X81225000Y-83675000D02*
X83524805Y-83675000D01*
X85650000Y-85775000D02*
X85150000Y-85275000D01*
X86800000Y-81075000D02*
X89900000Y-81075000D01*
X89900000Y-85775000D02*
X85650000Y-85775000D01*
X90400000Y-81575000D02*
X89900000Y-81075000D01*
X90400000Y-81575000D02*
X90400000Y-85275000D01*
X90400000Y-85275000D02*
X89900000Y-85775000D01*
X80850000Y-79350000D02*
G75*
G02*
X81225000Y-78975000I375000J0D01*
G01*
X81225000Y-83675000D02*
G75*
G02*
X80850000Y-83300000I0J375000D01*
G01*
X83524805Y-83675000D02*
G75*
G02*
X85149999Y-85275000I25000J-1599999D01*
G01*
X84700000Y-78975000D02*
G75*
G02*
X85075000Y-79350000I0J-375000D01*
G01*
X86800000Y-81075000D02*
G75*
G02*
X85075000Y-79350000I1J1725001D01*
G01*
%TO.C,SW29*%
X92756300Y-159500000D02*
X92756300Y-155550000D01*
X93131300Y-155175000D02*
X96606300Y-155175000D01*
X93131300Y-159875000D02*
X95431105Y-159875000D01*
X97556300Y-161975000D02*
X97056300Y-161475000D01*
X98706300Y-157275000D02*
X101806300Y-157275000D01*
X101806300Y-161975000D02*
X97556300Y-161975000D01*
X102306300Y-157775000D02*
X101806300Y-157275000D01*
X102306300Y-157775000D02*
X102306300Y-161475000D01*
X102306300Y-161475000D02*
X101806300Y-161975000D01*
X92756300Y-155550000D02*
G75*
G02*
X93131300Y-155175000I375000J0D01*
G01*
X93131300Y-159875000D02*
G75*
G02*
X92756300Y-159500000I0J375000D01*
G01*
X95431105Y-159875000D02*
G75*
G02*
X97056299Y-161475000I25000J-1599999D01*
G01*
X96606300Y-155175000D02*
G75*
G02*
X96981300Y-155550000I0J-375000D01*
G01*
X98706300Y-157275000D02*
G75*
G02*
X96981300Y-155550000I1J1725001D01*
G01*
%TO.C,SW30*%
X116568800Y-159500000D02*
X116568800Y-155550000D01*
X116943800Y-155175000D02*
X120418800Y-155175000D01*
X116943800Y-159875000D02*
X119243605Y-159875000D01*
X121368800Y-161975000D02*
X120868800Y-161475000D01*
X122518800Y-157275000D02*
X125618800Y-157275000D01*
X125618800Y-161975000D02*
X121368800Y-161975000D01*
X126118800Y-157775000D02*
X125618800Y-157275000D01*
X126118800Y-157775000D02*
X126118800Y-161475000D01*
X126118800Y-161475000D02*
X125618800Y-161975000D01*
X116568800Y-155550000D02*
G75*
G02*
X116943800Y-155175000I375000J0D01*
G01*
X116943800Y-159875000D02*
G75*
G02*
X116568800Y-159500000I0J375000D01*
G01*
X119243605Y-159875000D02*
G75*
G02*
X120868799Y-161475000I25000J-1599999D01*
G01*
X120418800Y-155175000D02*
G75*
G02*
X120793800Y-155550000I0J-375000D01*
G01*
X122518800Y-157275000D02*
G75*
G02*
X120793800Y-155550000I1J1725001D01*
G01*
%TO.C,SW5*%
X118950000Y-83300000D02*
X118950000Y-79350000D01*
X119325000Y-78975000D02*
X122800000Y-78975000D01*
X119325000Y-83675000D02*
X121624805Y-83675000D01*
X123750000Y-85775000D02*
X123250000Y-85275000D01*
X124900000Y-81075000D02*
X128000000Y-81075000D01*
X128000000Y-85775000D02*
X123750000Y-85775000D01*
X128500000Y-81575000D02*
X128000000Y-81075000D01*
X128500000Y-81575000D02*
X128500000Y-85275000D01*
X128500000Y-85275000D02*
X128000000Y-85775000D01*
X118950000Y-79350000D02*
G75*
G02*
X119325000Y-78975000I375000J0D01*
G01*
X119325000Y-83675000D02*
G75*
G02*
X118950000Y-83300000I0J375000D01*
G01*
X121624805Y-83675000D02*
G75*
G02*
X123249999Y-85275000I25000J-1599999D01*
G01*
X122800000Y-78975000D02*
G75*
G02*
X123175000Y-79350000I0J-375000D01*
G01*
X124900000Y-81075000D02*
G75*
G02*
X123175000Y-79350000I1J1725001D01*
G01*
%TO.C,SW32*%
X159431300Y-159500000D02*
X159431300Y-155550000D01*
X159806300Y-155175000D02*
X163281300Y-155175000D01*
X159806300Y-159875000D02*
X162106105Y-159875000D01*
X164231300Y-161975000D02*
X163731300Y-161475000D01*
X165381300Y-157275000D02*
X168481300Y-157275000D01*
X168481300Y-161975000D02*
X164231300Y-161975000D01*
X168981300Y-157775000D02*
X168481300Y-157275000D01*
X168981300Y-157775000D02*
X168981300Y-161475000D01*
X168981300Y-161475000D02*
X168481300Y-161975000D01*
X159431300Y-155550000D02*
G75*
G02*
X159806300Y-155175000I375000J0D01*
G01*
X159806300Y-159875000D02*
G75*
G02*
X159431300Y-159500000I0J375000D01*
G01*
X162106105Y-159875000D02*
G75*
G02*
X163731299Y-161475000I25000J-1599999D01*
G01*
X163281300Y-155175000D02*
G75*
G02*
X163656300Y-155550000I0J-375000D01*
G01*
X165381300Y-157275000D02*
G75*
G02*
X163656300Y-155550000I1J1725001D01*
G01*
%TO.C,SW17*%
X114187500Y-121400000D02*
X114187500Y-117450000D01*
X114562500Y-117075000D02*
X118037500Y-117075000D01*
X114562500Y-121775000D02*
X116862305Y-121775000D01*
X118987500Y-123875000D02*
X118487500Y-123375000D01*
X120137500Y-119175000D02*
X123237500Y-119175000D01*
X123237500Y-123875000D02*
X118987500Y-123875000D01*
X123737500Y-119675000D02*
X123237500Y-119175000D01*
X123737500Y-119675000D02*
X123737500Y-123375000D01*
X123737500Y-123375000D02*
X123237500Y-123875000D01*
X114187500Y-117450000D02*
G75*
G02*
X114562500Y-117075000I375000J0D01*
G01*
X114562500Y-121775000D02*
G75*
G02*
X114187500Y-121400000I0J375000D01*
G01*
X116862305Y-121775000D02*
G75*
G02*
X118487499Y-123375000I25000J-1599999D01*
G01*
X118037500Y-117075000D02*
G75*
G02*
X118412500Y-117450000I0J-375000D01*
G01*
X120137500Y-119175000D02*
G75*
G02*
X118412500Y-117450000I1J1725001D01*
G01*
%TO.C,SW9*%
X71325000Y-102350000D02*
X71325000Y-98400000D01*
X71700000Y-98025000D02*
X75175000Y-98025000D01*
X71700000Y-102725000D02*
X73999805Y-102725000D01*
X76125000Y-104825000D02*
X75625000Y-104325000D01*
X77275000Y-100125000D02*
X80375000Y-100125000D01*
X80375000Y-104825000D02*
X76125000Y-104825000D01*
X80875000Y-100625000D02*
X80375000Y-100125000D01*
X80875000Y-100625000D02*
X80875000Y-104325000D01*
X80875000Y-104325000D02*
X80375000Y-104825000D01*
X71325000Y-98400000D02*
G75*
G02*
X71700000Y-98025000I375000J0D01*
G01*
X71700000Y-102725000D02*
G75*
G02*
X71325000Y-102350000I0J375000D01*
G01*
X73999805Y-102725000D02*
G75*
G02*
X75624999Y-104325000I25000J-1599999D01*
G01*
X75175000Y-98025000D02*
G75*
G02*
X75550000Y-98400000I0J-375000D01*
G01*
X77275000Y-100125000D02*
G75*
G02*
X75550000Y-98400000I1J1725001D01*
G01*
%TO.C,SW22*%
X85612500Y-140450000D02*
X85612500Y-136500000D01*
X85987500Y-136125000D02*
X89462500Y-136125000D01*
X85987500Y-140825000D02*
X88287305Y-140825000D01*
X90412500Y-142925000D02*
X89912500Y-142425000D01*
X91562500Y-138225000D02*
X94662500Y-138225000D01*
X94662500Y-142925000D02*
X90412500Y-142925000D01*
X95162500Y-138725000D02*
X94662500Y-138225000D01*
X95162500Y-138725000D02*
X95162500Y-142425000D01*
X95162500Y-142425000D02*
X94662500Y-142925000D01*
X85612500Y-136500000D02*
G75*
G02*
X85987500Y-136125000I375000J0D01*
G01*
X85987500Y-140825000D02*
G75*
G02*
X85612500Y-140450000I0J375000D01*
G01*
X88287305Y-140825000D02*
G75*
G02*
X89912499Y-142425000I25000J-1599999D01*
G01*
X89462500Y-136125000D02*
G75*
G02*
X89837500Y-136500000I0J-375000D01*
G01*
X91562500Y-138225000D02*
G75*
G02*
X89837500Y-136500000I1J1725001D01*
G01*
%TO.C,SW25*%
X142762500Y-140450000D02*
X142762500Y-136500000D01*
X143137500Y-136125000D02*
X146612500Y-136125000D01*
X143137500Y-140825000D02*
X145437305Y-140825000D01*
X147562500Y-142925000D02*
X147062500Y-142425000D01*
X148712500Y-138225000D02*
X151812500Y-138225000D01*
X151812500Y-142925000D02*
X147562500Y-142925000D01*
X152312500Y-138725000D02*
X151812500Y-138225000D01*
X152312500Y-138725000D02*
X152312500Y-142425000D01*
X152312500Y-142425000D02*
X151812500Y-142925000D01*
X142762500Y-136500000D02*
G75*
G02*
X143137500Y-136125000I375000J0D01*
G01*
X143137500Y-140825000D02*
G75*
G02*
X142762500Y-140450000I0J375000D01*
G01*
X145437305Y-140825000D02*
G75*
G02*
X147062499Y-142425000I25000J-1599999D01*
G01*
X146612500Y-136125000D02*
G75*
G02*
X146987500Y-136500000I0J-375000D01*
G01*
X148712500Y-138225000D02*
G75*
G02*
X146987500Y-136500000I1J1725001D01*
G01*
%TO.C,SW23*%
X104662500Y-140450000D02*
X104662500Y-136500000D01*
X105037500Y-136125000D02*
X108512500Y-136125000D01*
X105037500Y-140825000D02*
X107337305Y-140825000D01*
X109462500Y-142925000D02*
X108962500Y-142425000D01*
X110612500Y-138225000D02*
X113712500Y-138225000D01*
X113712500Y-142925000D02*
X109462500Y-142925000D01*
X114212500Y-138725000D02*
X113712500Y-138225000D01*
X114212500Y-138725000D02*
X114212500Y-142425000D01*
X114212500Y-142425000D02*
X113712500Y-142925000D01*
X104662500Y-136500000D02*
G75*
G02*
X105037500Y-136125000I375000J0D01*
G01*
X105037500Y-140825000D02*
G75*
G02*
X104662500Y-140450000I0J375000D01*
G01*
X107337305Y-140825000D02*
G75*
G02*
X108962499Y-142425000I25000J-1599999D01*
G01*
X108512500Y-136125000D02*
G75*
G02*
X108887500Y-136500000I0J-375000D01*
G01*
X110612500Y-138225000D02*
G75*
G02*
X108887500Y-136500000I1J1725001D01*
G01*
%TO.C,SW11*%
X109425000Y-102350000D02*
X109425000Y-98400000D01*
X109800000Y-98025000D02*
X113275000Y-98025000D01*
X109800000Y-102725000D02*
X112099805Y-102725000D01*
X114225000Y-104825000D02*
X113725000Y-104325000D01*
X115375000Y-100125000D02*
X118475000Y-100125000D01*
X118475000Y-104825000D02*
X114225000Y-104825000D01*
X118975000Y-100625000D02*
X118475000Y-100125000D01*
X118975000Y-100625000D02*
X118975000Y-104325000D01*
X118975000Y-104325000D02*
X118475000Y-104825000D01*
X109425000Y-98400000D02*
G75*
G02*
X109800000Y-98025000I375000J0D01*
G01*
X109800000Y-102725000D02*
G75*
G02*
X109425000Y-102350000I0J375000D01*
G01*
X112099805Y-102725000D02*
G75*
G02*
X113724999Y-104325000I25000J-1599999D01*
G01*
X113275000Y-98025000D02*
G75*
G02*
X113650000Y-98400000I0J-375000D01*
G01*
X115375000Y-100125000D02*
G75*
G02*
X113650000Y-98400000I1J1725001D01*
G01*
%TO.C,SW24*%
X123712500Y-140450000D02*
X123712500Y-136500000D01*
X124087500Y-136125000D02*
X127562500Y-136125000D01*
X124087500Y-140825000D02*
X126387305Y-140825000D01*
X128512500Y-142925000D02*
X128012500Y-142425000D01*
X129662500Y-138225000D02*
X132762500Y-138225000D01*
X132762500Y-142925000D02*
X128512500Y-142925000D01*
X133262500Y-138725000D02*
X132762500Y-138225000D01*
X133262500Y-138725000D02*
X133262500Y-142425000D01*
X133262500Y-142425000D02*
X132762500Y-142925000D01*
X123712500Y-136500000D02*
G75*
G02*
X124087500Y-136125000I375000J0D01*
G01*
X124087500Y-140825000D02*
G75*
G02*
X123712500Y-140450000I0J375000D01*
G01*
X126387305Y-140825000D02*
G75*
G02*
X128012499Y-142425000I25000J-1599999D01*
G01*
X127562500Y-136125000D02*
G75*
G02*
X127937500Y-136500000I0J-375000D01*
G01*
X129662500Y-138225000D02*
G75*
G02*
X127937500Y-136500000I1J1725001D01*
G01*
%TO.C,SW14*%
X49893700Y-121400000D02*
X49893700Y-117450000D01*
X50268700Y-117075000D02*
X53743700Y-117075000D01*
X50268700Y-121775000D02*
X52568505Y-121775000D01*
X54693700Y-123875000D02*
X54193700Y-123375000D01*
X55843700Y-119175000D02*
X58943700Y-119175000D01*
X58943700Y-123875000D02*
X54693700Y-123875000D01*
X59443700Y-119675000D02*
X58943700Y-119175000D01*
X59443700Y-119675000D02*
X59443700Y-123375000D01*
X59443700Y-123375000D02*
X58943700Y-123875000D01*
X49893700Y-117450000D02*
G75*
G02*
X50268700Y-117075000I375000J0D01*
G01*
X50268700Y-121775000D02*
G75*
G02*
X49893700Y-121400000I0J375000D01*
G01*
X52568505Y-121775000D02*
G75*
G02*
X54193699Y-123375000I25000J-1599999D01*
G01*
X53743700Y-117075000D02*
G75*
G02*
X54118700Y-117450000I0J-375000D01*
G01*
X55843700Y-119175000D02*
G75*
G02*
X54118700Y-117450000I1J1725001D01*
G01*
%TO.C,SW4*%
X99900000Y-83300000D02*
X99900000Y-79350000D01*
X100275000Y-78975000D02*
X103750000Y-78975000D01*
X100275000Y-83675000D02*
X102574805Y-83675000D01*
X104700000Y-85775000D02*
X104200000Y-85275000D01*
X105850000Y-81075000D02*
X108950000Y-81075000D01*
X108950000Y-85775000D02*
X104700000Y-85775000D01*
X109450000Y-81575000D02*
X108950000Y-81075000D01*
X109450000Y-81575000D02*
X109450000Y-85275000D01*
X109450000Y-85275000D02*
X108950000Y-85775000D01*
X99900000Y-79350000D02*
G75*
G02*
X100275000Y-78975000I375000J0D01*
G01*
X100275000Y-83675000D02*
G75*
G02*
X99900000Y-83300000I0J375000D01*
G01*
X102574805Y-83675000D02*
G75*
G02*
X104199999Y-85275000I25000J-1599999D01*
G01*
X103750000Y-78975000D02*
G75*
G02*
X104125000Y-79350000I0J-375000D01*
G01*
X105850000Y-81075000D02*
G75*
G02*
X104125000Y-79350000I1J1725001D01*
G01*
%TO.C,SW12*%
X128475000Y-102350000D02*
X128475000Y-98400000D01*
X128850000Y-98025000D02*
X132325000Y-98025000D01*
X128850000Y-102725000D02*
X131149805Y-102725000D01*
X133275000Y-104825000D02*
X132775000Y-104325000D01*
X134425000Y-100125000D02*
X137525000Y-100125000D01*
X137525000Y-104825000D02*
X133275000Y-104825000D01*
X138025000Y-100625000D02*
X137525000Y-100125000D01*
X138025000Y-100625000D02*
X138025000Y-104325000D01*
X138025000Y-104325000D02*
X137525000Y-104825000D01*
X128475000Y-98400000D02*
G75*
G02*
X128850000Y-98025000I375000J0D01*
G01*
X128850000Y-102725000D02*
G75*
G02*
X128475000Y-102350000I0J375000D01*
G01*
X131149805Y-102725000D02*
G75*
G02*
X132774999Y-104325000I25000J-1599999D01*
G01*
X132325000Y-98025000D02*
G75*
G02*
X132700000Y-98400000I0J-375000D01*
G01*
X134425000Y-100125000D02*
G75*
G02*
X132700000Y-98400000I1J1725001D01*
G01*
%TO.C,SW28*%
X68943800Y-159500000D02*
X68943800Y-155550000D01*
X69318800Y-155175000D02*
X72793800Y-155175000D01*
X69318800Y-159875000D02*
X71618605Y-159875000D01*
X73743800Y-161975000D02*
X73243800Y-161475000D01*
X74893800Y-157275000D02*
X77993800Y-157275000D01*
X77993800Y-161975000D02*
X73743800Y-161975000D01*
X78493800Y-157775000D02*
X77993800Y-157275000D01*
X78493800Y-157775000D02*
X78493800Y-161475000D01*
X78493800Y-161475000D02*
X77993800Y-161975000D01*
X68943800Y-155550000D02*
G75*
G02*
X69318800Y-155175000I375000J0D01*
G01*
X69318800Y-159875000D02*
G75*
G02*
X68943800Y-159500000I0J375000D01*
G01*
X71618605Y-159875000D02*
G75*
G02*
X73243799Y-161475000I25000J-1599999D01*
G01*
X72793800Y-155175000D02*
G75*
G02*
X73168800Y-155550000I0J-375000D01*
G01*
X74893800Y-157275000D02*
G75*
G02*
X73168800Y-155550000I1J1725001D01*
G01*
%TO.C,SW10*%
X90375000Y-102350000D02*
X90375000Y-98400000D01*
X90750000Y-98025000D02*
X94225000Y-98025000D01*
X90750000Y-102725000D02*
X93049805Y-102725000D01*
X95175000Y-104825000D02*
X94675000Y-104325000D01*
X96325000Y-100125000D02*
X99425000Y-100125000D01*
X99425000Y-104825000D02*
X95175000Y-104825000D01*
X99925000Y-100625000D02*
X99425000Y-100125000D01*
X99925000Y-100625000D02*
X99925000Y-104325000D01*
X99925000Y-104325000D02*
X99425000Y-104825000D01*
X90375000Y-98400000D02*
G75*
G02*
X90750000Y-98025000I375000J0D01*
G01*
X90750000Y-102725000D02*
G75*
G02*
X90375000Y-102350000I0J375000D01*
G01*
X93049805Y-102725000D02*
G75*
G02*
X94674999Y-104325000I25000J-1599999D01*
G01*
X94225000Y-98025000D02*
G75*
G02*
X94600000Y-98400000I0J-375000D01*
G01*
X96325000Y-100125000D02*
G75*
G02*
X94600000Y-98400000I1J1725001D01*
G01*
%TO.C,SW27*%
X45131300Y-159500000D02*
X45131300Y-155550000D01*
X45506300Y-155175000D02*
X48981300Y-155175000D01*
X45506300Y-159875000D02*
X47806105Y-159875000D01*
X49931300Y-161975000D02*
X49431300Y-161475000D01*
X51081300Y-157275000D02*
X54181300Y-157275000D01*
X54181300Y-161975000D02*
X49931300Y-161975000D01*
X54681300Y-157775000D02*
X54181300Y-157275000D01*
X54681300Y-157775000D02*
X54681300Y-161475000D01*
X54681300Y-161475000D02*
X54181300Y-161975000D01*
X45131300Y-155550000D02*
G75*
G02*
X45506300Y-155175000I375000J0D01*
G01*
X45506300Y-159875000D02*
G75*
G02*
X45131300Y-159500000I0J375000D01*
G01*
X47806105Y-159875000D02*
G75*
G02*
X49431299Y-161475000I25000J-1599999D01*
G01*
X48981300Y-155175000D02*
G75*
G02*
X49356300Y-155550000I0J-375000D01*
G01*
X51081300Y-157275000D02*
G75*
G02*
X49356300Y-155550000I1J1725001D01*
G01*
%TO.C,SW1*%
X42750000Y-83300000D02*
X42750000Y-79350000D01*
X43125000Y-78975000D02*
X46600000Y-78975000D01*
X43125000Y-83675000D02*
X45424805Y-83675000D01*
X47550000Y-85775000D02*
X47050000Y-85275000D01*
X48700000Y-81075000D02*
X51800000Y-81075000D01*
X51800000Y-85775000D02*
X47550000Y-85775000D01*
X52300000Y-81575000D02*
X51800000Y-81075000D01*
X52300000Y-81575000D02*
X52300000Y-85275000D01*
X52300000Y-85275000D02*
X51800000Y-85775000D01*
X42750000Y-79350000D02*
G75*
G02*
X43125000Y-78975000I375000J0D01*
G01*
X43125000Y-83675000D02*
G75*
G02*
X42750000Y-83300000I0J375000D01*
G01*
X45424805Y-83675000D02*
G75*
G02*
X47049999Y-85275000I25000J-1599999D01*
G01*
X46600000Y-78975000D02*
G75*
G02*
X46975000Y-79350000I0J-375000D01*
G01*
X48700000Y-81075000D02*
G75*
G02*
X46975000Y-79350000I1J1725001D01*
G01*
%TO.C,SW7*%
X157050000Y-83300000D02*
X157050000Y-79350000D01*
X157425000Y-78975000D02*
X160900000Y-78975000D01*
X157425000Y-83675000D02*
X159724805Y-83675000D01*
X161850000Y-85775000D02*
X161350000Y-85275000D01*
X163000000Y-81075000D02*
X166100000Y-81075000D01*
X166100000Y-85775000D02*
X161850000Y-85775000D01*
X166600000Y-81575000D02*
X166100000Y-81075000D01*
X166600000Y-81575000D02*
X166600000Y-85275000D01*
X166600000Y-85275000D02*
X166100000Y-85775000D01*
X157050000Y-79350000D02*
G75*
G02*
X157425000Y-78975000I375000J0D01*
G01*
X157425000Y-83675000D02*
G75*
G02*
X157050000Y-83300000I0J375000D01*
G01*
X159724805Y-83675000D02*
G75*
G02*
X161349999Y-85275000I25000J-1599999D01*
G01*
X160900000Y-78975000D02*
G75*
G02*
X161275000Y-79350000I0J-375000D01*
G01*
X163000000Y-81075000D02*
G75*
G02*
X161275000Y-79350000I1J1725001D01*
G01*
%TO.C,SW8*%
X47512500Y-102350000D02*
X47512500Y-98400000D01*
X47887500Y-98025000D02*
X51362500Y-98025000D01*
X47887500Y-102725000D02*
X50187305Y-102725000D01*
X52312500Y-104825000D02*
X51812500Y-104325000D01*
X53462500Y-100125000D02*
X56562500Y-100125000D01*
X56562500Y-104825000D02*
X52312500Y-104825000D01*
X57062500Y-100625000D02*
X56562500Y-100125000D01*
X57062500Y-100625000D02*
X57062500Y-104325000D01*
X57062500Y-104325000D02*
X56562500Y-104825000D01*
X47512500Y-98400000D02*
G75*
G02*
X47887500Y-98025000I375000J0D01*
G01*
X47887500Y-102725000D02*
G75*
G02*
X47512500Y-102350000I0J375000D01*
G01*
X50187305Y-102725000D02*
G75*
G02*
X51812499Y-104325000I25000J-1599999D01*
G01*
X51362500Y-98025000D02*
G75*
G02*
X51737500Y-98400000I0J-375000D01*
G01*
X53462500Y-100125000D02*
G75*
G02*
X51737500Y-98400000I1J1725001D01*
G01*
%TO.C,SW6*%
X138000000Y-83300000D02*
X138000000Y-79350000D01*
X138375000Y-78975000D02*
X141850000Y-78975000D01*
X138375000Y-83675000D02*
X140674805Y-83675000D01*
X142800000Y-85775000D02*
X142300000Y-85275000D01*
X143950000Y-81075000D02*
X147050000Y-81075000D01*
X147050000Y-85775000D02*
X142800000Y-85775000D01*
X147550000Y-81575000D02*
X147050000Y-81075000D01*
X147550000Y-81575000D02*
X147550000Y-85275000D01*
X147550000Y-85275000D02*
X147050000Y-85775000D01*
X138000000Y-79350000D02*
G75*
G02*
X138375000Y-78975000I375000J0D01*
G01*
X138375000Y-83675000D02*
G75*
G02*
X138000000Y-83300000I0J375000D01*
G01*
X140674805Y-83675000D02*
G75*
G02*
X142299999Y-85275000I25000J-1599999D01*
G01*
X141850000Y-78975000D02*
G75*
G02*
X142225000Y-79350000I0J-375000D01*
G01*
X143950000Y-81075000D02*
G75*
G02*
X142225000Y-79350000I1J1725001D01*
G01*
%TO.C,SW31*%
X138000000Y-159500000D02*
X138000000Y-155550000D01*
X138375000Y-155175000D02*
X141850000Y-155175000D01*
X138375000Y-159875000D02*
X140674805Y-159875000D01*
X142800000Y-161975000D02*
X142300000Y-161475000D01*
X143950000Y-157275000D02*
X147050000Y-157275000D01*
X147050000Y-161975000D02*
X142800000Y-161975000D01*
X147550000Y-157775000D02*
X147050000Y-157275000D01*
X147550000Y-157775000D02*
X147550000Y-161475000D01*
X147550000Y-161475000D02*
X147050000Y-161975000D01*
X138000000Y-155550000D02*
G75*
G02*
X138375000Y-155175000I375000J0D01*
G01*
X138375000Y-159875000D02*
G75*
G02*
X138000000Y-159500000I0J375000D01*
G01*
X140674805Y-159875000D02*
G75*
G02*
X142299999Y-161475000I25000J-1599999D01*
G01*
X141850000Y-155175000D02*
G75*
G02*
X142225000Y-155550000I0J-375000D01*
G01*
X143950000Y-157275000D02*
G75*
G02*
X142225000Y-155550000I1J1725001D01*
G01*
%TO.C,SW16*%
X95137500Y-121400000D02*
X95137500Y-117450000D01*
X95512500Y-117075000D02*
X98987500Y-117075000D01*
X95512500Y-121775000D02*
X97812305Y-121775000D01*
X99937500Y-123875000D02*
X99437500Y-123375000D01*
X101087500Y-119175000D02*
X104187500Y-119175000D01*
X104187500Y-123875000D02*
X99937500Y-123875000D01*
X104687500Y-119675000D02*
X104187500Y-119175000D01*
X104687500Y-119675000D02*
X104687500Y-123375000D01*
X104687500Y-123375000D02*
X104187500Y-123875000D01*
X95137500Y-117450000D02*
G75*
G02*
X95512500Y-117075000I375000J0D01*
G01*
X95512500Y-121775000D02*
G75*
G02*
X95137500Y-121400000I0J375000D01*
G01*
X97812305Y-121775000D02*
G75*
G02*
X99437499Y-123375000I25000J-1599999D01*
G01*
X98987500Y-117075000D02*
G75*
G02*
X99362500Y-117450000I0J-375000D01*
G01*
X101087500Y-119175000D02*
G75*
G02*
X99362500Y-117450000I1J1725001D01*
G01*
%TO.C,SW21*%
X66562500Y-140450000D02*
X66562500Y-136500000D01*
X66937500Y-136125000D02*
X70412500Y-136125000D01*
X66937500Y-140825000D02*
X69237305Y-140825000D01*
X71362500Y-142925000D02*
X70862500Y-142425000D01*
X72512500Y-138225000D02*
X75612500Y-138225000D01*
X75612500Y-142925000D02*
X71362500Y-142925000D01*
X76112500Y-138725000D02*
X75612500Y-138225000D01*
X76112500Y-138725000D02*
X76112500Y-142425000D01*
X76112500Y-142425000D02*
X75612500Y-142925000D01*
X66562500Y-136500000D02*
G75*
G02*
X66937500Y-136125000I375000J0D01*
G01*
X66937500Y-140825000D02*
G75*
G02*
X66562500Y-140450000I0J375000D01*
G01*
X69237305Y-140825000D02*
G75*
G02*
X70862499Y-142425000I25000J-1599999D01*
G01*
X70412500Y-136125000D02*
G75*
G02*
X70787500Y-136500000I0J-375000D01*
G01*
X72512500Y-138225000D02*
G75*
G02*
X70787500Y-136500000I1J1725001D01*
G01*
%TD*%
M02*
