%TF.GenerationSoftware,KiCad,Pcbnew,10.0.3*%
%TF.CreationDate,2026-06-05T16:35:24+09:00*%
%TF.ProjectId,kc2_left,6b63325f-6c65-4667-942e-6b696361645f,draft-1*%
%TF.SameCoordinates,Original*%
%TF.FileFunction,Profile,NP*%
%FSLAX46Y46*%
G04 Gerber Fmt 4.6, Leading zero omitted, Abs format (unit mm)*
G04 Created by KiCad (PCBNEW 10.0.3) date 2026-06-05 16:35:24*
%MOMM*%
%LPD*%
G01*
G04 APERTURE LIST*
%TA.AperFunction,Profile*%
%ADD10C,0.100000*%
%TD*%
G04 APERTURE END LIST*
D10*
X35000000Y-64500000D02*
X35080000Y-63780000D01*
X35000000Y-66000000D02*
X35000000Y-64500000D01*
X35000000Y-66800000D02*
X35000000Y-66000000D01*
X35000000Y-67600000D02*
X35000000Y-66800000D01*
X35000000Y-68400000D02*
X35000000Y-67600000D01*
X35000000Y-69200000D02*
X35000000Y-68400000D01*
X35000000Y-70000000D02*
X35000000Y-69200000D01*
X35000000Y-85050000D02*
X35000000Y-70000000D01*
X35000000Y-85850000D02*
X35000000Y-85050000D01*
X35000000Y-86650000D02*
X35000000Y-85850000D01*
X35000000Y-87450000D02*
X35000000Y-86650000D01*
X35000000Y-88250000D02*
X35000000Y-87450000D01*
X35000000Y-89050000D02*
X35000000Y-88250000D01*
X35000000Y-104100000D02*
X35000000Y-89050000D01*
X35000000Y-104900000D02*
X35000000Y-104100000D01*
X35000000Y-105700000D02*
X35000000Y-104900000D01*
X35000000Y-106500000D02*
X35000000Y-105700000D01*
X35000000Y-107300000D02*
X35000000Y-106500000D01*
X35000000Y-108100000D02*
X35000000Y-107300000D01*
X35000000Y-123150000D02*
X35000000Y-108100000D01*
X35000000Y-123950000D02*
X35000000Y-123150000D01*
X35000000Y-124750000D02*
X35000000Y-123950000D01*
X35000000Y-125550000D02*
X35000000Y-124750000D01*
X35000000Y-126350000D02*
X35000000Y-125550000D01*
X35000000Y-127150000D02*
X35000000Y-126350000D01*
X35000000Y-142200000D02*
X35000000Y-127150000D01*
X35000000Y-143000000D02*
X35000000Y-142200000D01*
X35000000Y-143800000D02*
X35000000Y-143000000D01*
X35000000Y-144600000D02*
X35000000Y-143800000D01*
X35000000Y-145400000D02*
X35000000Y-144600000D01*
X35000000Y-146200000D02*
X35000000Y-145400000D01*
X35000000Y-166750000D02*
X35000000Y-146200000D01*
X35080000Y-63780000D02*
X35320000Y-63220000D01*
X35080000Y-167470000D02*
X35000000Y-166750000D01*
X35320000Y-63220000D02*
X35720000Y-62820000D01*
X35320000Y-168030000D02*
X35080000Y-167470000D01*
X35720000Y-62820000D02*
X36280000Y-62580000D01*
X35720000Y-168430000D02*
X35320000Y-168030000D01*
X36280000Y-62580000D02*
X37000000Y-62500000D01*
X36280000Y-168670000D02*
X35720000Y-168430000D01*
X37000000Y-62500000D02*
X95412500Y-62500000D01*
X37000000Y-168750000D02*
X36280000Y-168670000D01*
X95412500Y-62500000D02*
X96132500Y-62420000D01*
X96132500Y-62420000D02*
X96692500Y-62180000D01*
X96692500Y-62180000D02*
X97092500Y-61780000D01*
X97092500Y-61780000D02*
X97332500Y-61220000D01*
X97332500Y-61220000D02*
X97412500Y-60500000D01*
X97412500Y-37000000D02*
X97492500Y-36279999D01*
X97412500Y-60500000D02*
X97412500Y-37000000D01*
X97492500Y-36279999D02*
X97732500Y-35720000D01*
X97732500Y-35720000D02*
X98132500Y-35320000D01*
X98132500Y-35320000D02*
X98692500Y-35080000D01*
X98692500Y-35080000D02*
X99412500Y-35000000D01*
X99412500Y-35000000D02*
X167412500Y-35000000D01*
X167412500Y-35000000D02*
X168132500Y-35079999D01*
X167925000Y-89050000D02*
X167925000Y-104100000D01*
X167925000Y-104100000D02*
X168005000Y-104820000D01*
X168005000Y-88330000D02*
X167925000Y-89050000D01*
X168005000Y-104820000D02*
X168245000Y-105380000D01*
X168132500Y-35079999D02*
X168692500Y-35320000D01*
X168245000Y-87770000D02*
X168005000Y-88330000D01*
X168245000Y-105380000D02*
X168644999Y-105780000D01*
X168645000Y-87370000D02*
X168245000Y-87770000D01*
X168644999Y-105780000D02*
X169205000Y-106020000D01*
X168692500Y-35320000D02*
X169092500Y-35720000D01*
X169092500Y-35720000D02*
X169332500Y-36280000D01*
X169205000Y-87130000D02*
X168645000Y-87370000D01*
X169205000Y-106020000D02*
X169925000Y-106100000D01*
X169332500Y-36280000D02*
X169412500Y-37000000D01*
X169412500Y-37000000D02*
X169412500Y-60500000D01*
X169412500Y-60500000D02*
X169492500Y-61220000D01*
X169492500Y-61220000D02*
X169732500Y-61780000D01*
X169732500Y-61780000D02*
X170132500Y-62180000D01*
X169925000Y-87050000D02*
X169205000Y-87130000D01*
X169925000Y-106100000D02*
X170687500Y-106100000D01*
X170132500Y-62180000D02*
X170692500Y-62420000D01*
X170687500Y-106100000D02*
X171407500Y-106180000D01*
X170692500Y-62420000D02*
X171412500Y-62500000D01*
X171407500Y-106180000D02*
X171967500Y-106420000D01*
X171412500Y-62500000D02*
X175450000Y-62500000D01*
X171967500Y-106420000D02*
X172367500Y-106820000D01*
X172367500Y-106820000D02*
X172607500Y-107380000D01*
X172607500Y-107380000D02*
X172687500Y-108100000D01*
X172687500Y-108100000D02*
X172687500Y-123150000D01*
X172687500Y-123150000D02*
X172767500Y-123870000D01*
X172767500Y-123870000D02*
X173007500Y-124430000D01*
X173007500Y-124430000D02*
X173407500Y-124830000D01*
X173407500Y-124830000D02*
X173967500Y-125070000D01*
X173967500Y-125070000D02*
X174687500Y-125150000D01*
X174687500Y-125150000D02*
X180212500Y-125150000D01*
X175450000Y-62500000D02*
X176170000Y-62580000D01*
X175450000Y-87050000D02*
X169925000Y-87050000D01*
X176170000Y-62580000D02*
X176730000Y-62820000D01*
X176170000Y-86970000D02*
X175450000Y-87050000D01*
X176730000Y-62820000D02*
X177130000Y-63220000D01*
X176730000Y-86730000D02*
X176170000Y-86970000D01*
X177130000Y-63220000D02*
X177370000Y-63780000D01*
X177130000Y-86330000D02*
X176730000Y-86730000D01*
X177370000Y-63780000D02*
X177450000Y-64500000D01*
X177370000Y-85770000D02*
X177130000Y-86330000D01*
X177450000Y-64500000D02*
X177450000Y-85050000D01*
X177450000Y-85050000D02*
X177370000Y-85770000D01*
X180212500Y-125150000D02*
X180932500Y-125230000D01*
X180212500Y-168750000D02*
X37000000Y-168750000D01*
X180932500Y-125230000D02*
X181492500Y-125470000D01*
X180932500Y-168670000D02*
X180212500Y-168750000D01*
X181492500Y-125470000D02*
X181892500Y-125870000D01*
X181492500Y-168430000D02*
X180932500Y-168670000D01*
X181892500Y-125870000D02*
X182132500Y-126430000D01*
X181892500Y-168030000D02*
X181492500Y-168430000D01*
X182132500Y-126430000D02*
X182212500Y-127150000D01*
X182132500Y-167470000D02*
X181892500Y-168030000D01*
X182212500Y-127150000D02*
X182212500Y-142200000D01*
X182212500Y-142200000D02*
X182212500Y-143000000D01*
X182212500Y-143000000D02*
X182212500Y-143800000D01*
X182212500Y-143800000D02*
X182212500Y-144600000D01*
X182212500Y-144600000D02*
X182212500Y-145400000D01*
X182212500Y-145400000D02*
X182212500Y-146200000D01*
X182212500Y-146200000D02*
X182212500Y-161250000D01*
X182212500Y-161250000D02*
X182212500Y-162050000D01*
X182212500Y-162050000D02*
X182212500Y-162850000D01*
X182212500Y-162850000D02*
X182212500Y-163650000D01*
X182212500Y-163650000D02*
X182212500Y-164450000D01*
X182212500Y-164450000D02*
X182212500Y-165250000D01*
X182212500Y-165250000D02*
X182212500Y-166750000D01*
X182212500Y-166750000D02*
X182132500Y-167470000D01*
M02*
