%TF.GenerationSoftware,KiCad,Pcbnew,10.0.3*%
%TF.CreationDate,2026-06-05T13:36:13+09:00*%
%TF.ProjectId,kc2_right-x3,6b63325f-7269-4676-9874-2d78332e6b69,draft-1*%
%TF.SameCoordinates,Original*%
%TF.FileFunction,Copper,L2,Bot*%
%TF.FilePolarity,Positive*%
%FSLAX46Y46*%
G04 Gerber Fmt 4.6, Leading zero omitted, Abs format (unit mm)*
G04 Created by KiCad (PCBNEW 10.0.3) date 2026-06-05 13:36:13*
%MOMM*%
%LPD*%
G01*
G04 APERTURE LIST*
G04 Aperture macros list*
%AMRoundRect*
0 Rectangle with rounded corners*
0 $1 Rounding radius*
0 $2 $3 $4 $5 $6 $7 $8 $9 X,Y pos of 4 corners*
0 Add a 4 corners polygon primitive as box body*
4,1,4,$2,$3,$4,$5,$6,$7,$8,$9,$2,$3,0*
0 Add four circle primitives for the rounded corners*
1,1,$1+$1,$2,$3*
1,1,$1+$1,$4,$5*
1,1,$1+$1,$6,$7*
1,1,$1+$1,$8,$9*
0 Add four rect primitives between the rounded corners*
20,1,$1+$1,$2,$3,$4,$5,0*
20,1,$1+$1,$4,$5,$6,$7,0*
20,1,$1+$1,$6,$7,$8,$9,0*
20,1,$1+$1,$8,$9,$2,$3,0*%
G04 Aperture macros list end*
%TA.AperFunction,ComponentPad*%
%ADD10C,2.000000*%
%TD*%
%TA.AperFunction,SMDPad,CuDef*%
%ADD11RoundRect,0.520000X-0.780000X-0.780000X0.780000X-0.780000X0.780000X0.780000X-0.780000X0.780000X0*%
%TD*%
%TA.AperFunction,ComponentPad*%
%ADD12O,2.600000X1.800000*%
%TD*%
%TA.AperFunction,ComponentPad*%
%ADD13C,1.800000*%
%TD*%
%TA.AperFunction,SMDPad,CuDef*%
%ADD14RoundRect,0.252000X0.448000X0.523000X-0.448000X0.523000X-0.448000X-0.523000X0.448000X-0.523000X0*%
%TD*%
%TA.AperFunction,ViaPad*%
%ADD15C,0.600000*%
%TD*%
%TA.AperFunction,Conductor*%
%ADD16C,0.250000*%
%TD*%
G04 APERTURE END LIST*
D10*
%TO.P,SW4,1*%
%TO.N,R_COL3*%
X114800000Y-71625000D03*
D11*
X118500000Y-83425000D03*
%TO.P,SW4,2*%
%TO.N,RK04_D*%
X106100000Y-81325000D03*
D10*
X119800000Y-73725000D03*
%TD*%
%TO.P,SW13,1*%
%TO.N,R_COL3*%
X105275000Y-90675000D03*
D11*
X108975000Y-102475000D03*
%TO.P,SW13,2*%
%TO.N,RK13_D*%
X96575000Y-100375000D03*
D10*
X110275000Y-92775000D03*
%TD*%
%TO.P,SW25,1*%
%TO.N,R_COL6*%
X167187500Y-109725000D03*
D11*
X170887500Y-121525000D03*
%TO.P,SW25,2*%
%TO.N,RK25_D*%
X158487500Y-119425000D03*
D10*
X172187500Y-111825000D03*
%TD*%
%TO.P,SW5,1*%
%TO.N,R_COL4*%
X133850000Y-71625000D03*
D11*
X137550000Y-83425000D03*
%TO.P,SW5,2*%
%TO.N,RK05_D*%
X125150000Y-81325000D03*
D10*
X138850000Y-73725000D03*
%TD*%
%TO.P,SW2,1*%
%TO.N,R_COL1*%
X76700000Y-71625000D03*
D11*
X80400000Y-83425000D03*
%TO.P,SW2,2*%
%TO.N,RK02_D*%
X68000000Y-81325000D03*
D10*
X81700000Y-73725000D03*
%TD*%
%TO.P,SW17,1*%
%TO.N,R_COL7*%
X188618800Y-90675000D03*
D11*
X192318800Y-102475000D03*
%TO.P,SW17,2*%
%TO.N,RK17_D*%
X179918800Y-100375000D03*
D10*
X193618800Y-92775000D03*
%TD*%
%TO.P,SW36,1*%
%TO.N,R_COL8*%
X214812500Y-128775000D03*
D11*
X218512500Y-140575000D03*
%TO.P,SW36,2*%
%TO.N,RK36_D*%
X206112500Y-138475000D03*
D10*
X219812500Y-130875000D03*
%TD*%
%TO.P,SW22,1*%
%TO.N,R_COL3*%
X110037500Y-109725000D03*
D11*
X113737500Y-121525000D03*
%TO.P,SW22,2*%
%TO.N,RK22_D*%
X101337500Y-119425000D03*
D10*
X115037500Y-111825000D03*
%TD*%
%TO.P,SW21,1*%
%TO.N,R_COL2*%
X90987500Y-109725000D03*
D11*
X94687500Y-121525000D03*
%TO.P,SW21,2*%
%TO.N,RK21_D*%
X82287500Y-119425000D03*
D10*
X95987500Y-111825000D03*
%TD*%
%TO.P,SW41,1*%
%TO.N,R_COL4*%
X138612500Y-147825000D03*
D11*
X142312500Y-159625000D03*
%TO.P,SW41,2*%
%TO.N,RK41_D*%
X129912500Y-157525000D03*
D10*
X143612500Y-149925000D03*
%TD*%
%TO.P,SW20,1*%
%TO.N,R_COL1*%
X71937500Y-109725000D03*
D11*
X75637500Y-121525000D03*
%TO.P,SW20,2*%
%TO.N,RK20_D*%
X63237500Y-119425000D03*
D10*
X76937500Y-111825000D03*
%TD*%
%TO.P,SW42,1*%
%TO.N,R_COL5*%
X157662500Y-147825000D03*
D11*
X161362500Y-159625000D03*
%TO.P,SW42,2*%
%TO.N,RK42_D*%
X148962500Y-157525000D03*
D10*
X162662500Y-149925000D03*
%TD*%
%TO.P,SW29,1*%
%TO.N,R_COL1*%
X81462500Y-128775000D03*
D11*
X85162500Y-140575000D03*
%TO.P,SW29,2*%
%TO.N,RK29_D*%
X72762500Y-138475000D03*
D10*
X86462500Y-130875000D03*
%TD*%
%TO.P,SW43,1*%
%TO.N,R_COL6*%
X176712500Y-147825000D03*
D11*
X180412500Y-159625000D03*
%TO.P,SW43,2*%
%TO.N,RK43_D*%
X168012500Y-157525000D03*
D10*
X181712500Y-149925000D03*
%TD*%
%TO.P,SW1,1*%
%TO.N,R_COL0*%
X57650000Y-71625000D03*
D11*
X61350000Y-83425000D03*
%TO.P,SW1,2*%
%TO.N,RK01_D*%
X48950000Y-81325000D03*
D10*
X62650000Y-73725000D03*
%TD*%
%TO.P,SW11,1*%
%TO.N,R_COL1*%
X67175000Y-90675000D03*
D11*
X70875000Y-102475000D03*
%TO.P,SW11,2*%
%TO.N,RK11_D*%
X58475000Y-100375000D03*
D10*
X72175000Y-92775000D03*
%TD*%
%TO.P,SW10,1*%
%TO.N,R_COL0*%
X48125000Y-90675000D03*
D11*
X51825000Y-102475000D03*
%TO.P,SW10,2*%
%TO.N,RK10_D*%
X39425000Y-100375000D03*
D10*
X53125000Y-92775000D03*
%TD*%
%TO.P,SW28,1*%
%TO.N,R_COL0*%
X62412500Y-128775000D03*
D11*
X66112500Y-140575000D03*
%TO.P,SW28,2*%
%TO.N,RK28_D*%
X53712500Y-138475000D03*
D10*
X67412500Y-130875000D03*
%TD*%
%TO.P,SW18,1*%
%TO.N,R_COL8*%
X214812500Y-90675000D03*
D11*
X218512500Y-102475000D03*
%TO.P,SW18,2*%
%TO.N,RK18_D*%
X206112500Y-100375000D03*
D10*
X219812500Y-92775000D03*
%TD*%
%TO.P,SW12,1*%
%TO.N,R_COL2*%
X86225000Y-90675000D03*
D11*
X89925000Y-102475000D03*
%TO.P,SW12,2*%
%TO.N,RK12_D*%
X77525000Y-100375000D03*
D10*
X91225000Y-92775000D03*
%TD*%
%TO.P,SW34,1*%
%TO.N,R_COL6*%
X176712500Y-128775000D03*
D11*
X180412500Y-140575000D03*
%TO.P,SW34,2*%
%TO.N,RK34_D*%
X168012500Y-138475000D03*
D10*
X181712500Y-130875000D03*
%TD*%
%TO.P,SW45,1*%
%TO.N,R_COL8*%
X214812500Y-147825000D03*
D11*
X218512500Y-159625000D03*
%TO.P,SW45,2*%
%TO.N,RK45_D*%
X206112500Y-157525000D03*
D10*
X219812500Y-149925000D03*
%TD*%
%TO.P,SW37,1*%
%TO.N,R_COL0*%
X62412500Y-147825000D03*
D11*
X66112500Y-159625000D03*
%TO.P,SW37,2*%
%TO.N,RK37_D*%
X53712500Y-157525000D03*
D10*
X67412500Y-149925000D03*
%TD*%
%TO.P,SW3,1*%
%TO.N,R_COL2*%
X95750000Y-71625000D03*
D11*
X99450000Y-83425000D03*
%TO.P,SW3,2*%
%TO.N,RK03_D*%
X87050000Y-81325000D03*
D10*
X100750000Y-73725000D03*
%TD*%
D12*
%TO.P,J_PWR1,BAT+*%
%TO.N,BAT+*%
X113800000Y-47800000D03*
%TO.P,J_PWR1,BAT-*%
%TO.N,BAT-*%
X113800000Y-52200000D03*
%TO.P,J_PWR1,NN_B+*%
%TO.N,BAT+*%
X119800000Y-47800000D03*
%TO.P,J_PWR1,NN_B-*%
%TO.N,BAT-*%
X119800000Y-52200000D03*
%TD*%
D10*
%TO.P,SW19,1*%
%TO.N,R_COL0*%
X52887500Y-109725000D03*
D11*
X56587500Y-121525000D03*
%TO.P,SW19,2*%
%TO.N,RK19_D*%
X44187500Y-119425000D03*
D10*
X57887500Y-111825000D03*
%TD*%
%TO.P,SW16,1*%
%TO.N,R_COL6*%
X162425000Y-90675000D03*
D11*
X166125000Y-102475000D03*
%TO.P,SW16,2*%
%TO.N,RK16_D*%
X153725000Y-100375000D03*
D10*
X167425000Y-92775000D03*
%TD*%
%TO.P,SW7,1*%
%TO.N,R_COL6*%
X171950000Y-71625000D03*
D11*
X175650000Y-83425000D03*
%TO.P,SW7,2*%
%TO.N,RK07_D*%
X163250000Y-81325000D03*
D10*
X176950000Y-73725000D03*
%TD*%
%TO.P,SW6,1*%
%TO.N,R_COL5*%
X152900000Y-71625000D03*
D11*
X156600000Y-83425000D03*
%TO.P,SW6,2*%
%TO.N,RK06_D*%
X144200000Y-81325000D03*
D10*
X157900000Y-73725000D03*
%TD*%
%TO.P,SW32,1*%
%TO.N,R_COL4*%
X138612500Y-128775000D03*
D11*
X142312500Y-140575000D03*
%TO.P,SW32,2*%
%TO.N,RK32_D*%
X129912500Y-138475000D03*
D10*
X143612500Y-130875000D03*
%TD*%
%TO.P,SW35,1*%
%TO.N,R_COL7*%
X195762500Y-128775000D03*
D11*
X199462500Y-140575000D03*
%TO.P,SW35,2*%
%TO.N,RK35_D*%
X187062500Y-138475000D03*
D10*
X200762500Y-130875000D03*
%TD*%
%TO.P,SW39,1*%
%TO.N,R_COL2*%
X100512500Y-147825000D03*
D11*
X104212500Y-159625000D03*
%TO.P,SW39,2*%
%TO.N,RK39_D*%
X91812500Y-157525000D03*
D10*
X105512500Y-149925000D03*
%TD*%
D13*
%TO.P,U1,D0*%
%TO.N,N/C*%
X100230000Y-40110000D03*
%TO.P,U1,D1*%
X102770000Y-40110000D03*
%TO.P,U1,D2*%
%TO.N,R_ROW3*%
X92610000Y-40110000D03*
%TO.P,U1,D3*%
%TO.N,R_ROW0*%
X90070000Y-40110000D03*
%TO.P,U1,D4*%
%TO.N,R_ROW1*%
X87530000Y-40110000D03*
%TO.P,U1,D5*%
%TO.N,R_ROW2*%
X84990000Y-40110000D03*
%TO.P,U1,D6*%
%TO.N,N/C*%
X82450000Y-40110000D03*
%TO.P,U1,D7*%
%TO.N,R_ROW4*%
X79910000Y-40110000D03*
%TO.P,U1,D8*%
%TO.N,N/C*%
X77370000Y-40110000D03*
%TO.P,U1,D9*%
%TO.N,R_COL0*%
X74830000Y-40110000D03*
%TO.P,U1,D10*%
%TO.N,R_COL1*%
X74830000Y-57890000D03*
%TO.P,U1,D14*%
%TO.N,R_COL3*%
X79910000Y-57890000D03*
%TO.P,U1,D15*%
%TO.N,R_COL4*%
X82450000Y-57890000D03*
%TO.P,U1,D16*%
%TO.N,R_COL2*%
X77370000Y-57890000D03*
%TO.P,U1,D18*%
%TO.N,R_COL5*%
X84990000Y-57890000D03*
%TO.P,U1,D19*%
%TO.N,R_COL6*%
X87530000Y-57890000D03*
%TO.P,U1,D20*%
%TO.N,R_COL8*%
X90070000Y-57890000D03*
%TO.P,U1,D21*%
%TO.N,R_COL7*%
X92610000Y-57890000D03*
%TO.P,U1,GND_A*%
%TO.N,N/C*%
X97690000Y-40110000D03*
%TO.P,U1,GND_B*%
X95150000Y-40110000D03*
%TO.P,U1,GND_C*%
%TO.N,GND*%
X100230000Y-57890000D03*
%TO.P,U1,RAW*%
%TO.N,N/C*%
X102770000Y-57890000D03*
%TO.P,U1,RST*%
%TO.N,RST*%
X97690000Y-57890000D03*
%TO.P,U1,VCC*%
%TO.N,N/C*%
X95150000Y-57890000D03*
%TD*%
D10*
%TO.P,SW14,1*%
%TO.N,R_COL4*%
X124325000Y-90675000D03*
D11*
X128025000Y-102475000D03*
%TO.P,SW14,2*%
%TO.N,RK14_D*%
X115625000Y-100375000D03*
D10*
X129325000Y-92775000D03*
%TD*%
%TO.P,SW24,1*%
%TO.N,R_COL5*%
X148137500Y-109725000D03*
D11*
X151837500Y-121525000D03*
%TO.P,SW24,2*%
%TO.N,RK24_D*%
X139437500Y-119425000D03*
D10*
X153137500Y-111825000D03*
%TD*%
%TO.P,SW40,1*%
%TO.N,R_COL3*%
X119562500Y-147825000D03*
D11*
X123262500Y-159625000D03*
%TO.P,SW40,2*%
%TO.N,RK40_D*%
X110862500Y-157525000D03*
D10*
X124562500Y-149925000D03*
%TD*%
%TO.P,SW23,1*%
%TO.N,R_COL4*%
X129087500Y-109725000D03*
D11*
X132787500Y-121525000D03*
%TO.P,SW23,2*%
%TO.N,RK23_D*%
X120387500Y-119425000D03*
D10*
X134087500Y-111825000D03*
%TD*%
%TO.P,SW38,1*%
%TO.N,R_COL1*%
X81462500Y-147825000D03*
D11*
X85162500Y-159625000D03*
%TO.P,SW38,2*%
%TO.N,RK38_D*%
X72762500Y-157525000D03*
D10*
X86462500Y-149925000D03*
%TD*%
%TO.P,SW31,1*%
%TO.N,R_COL3*%
X119562500Y-128775000D03*
D11*
X123262500Y-140575000D03*
%TO.P,SW31,2*%
%TO.N,RK31_D*%
X110862500Y-138475000D03*
D10*
X124562500Y-130875000D03*
%TD*%
%TO.P,SW27,1*%
%TO.N,R_COL8*%
X214812500Y-109725000D03*
D11*
X218512500Y-121525000D03*
%TO.P,SW27,2*%
%TO.N,RK27_D*%
X206112500Y-119425000D03*
D10*
X219812500Y-111825000D03*
%TD*%
%TO.P,SW26,1*%
%TO.N,R_COL7*%
X191000000Y-109725000D03*
D11*
X194700000Y-121525000D03*
%TO.P,SW26,2*%
%TO.N,RK26_D*%
X182300000Y-119425000D03*
D10*
X196000000Y-111825000D03*
%TD*%
%TO.P,SW9,1*%
%TO.N,R_COL8*%
X214812500Y-71625000D03*
D11*
X218512500Y-83425000D03*
%TO.P,SW9,2*%
%TO.N,RK09_D*%
X206112500Y-81325000D03*
D10*
X219812500Y-73725000D03*
%TD*%
%TO.P,SW30,1*%
%TO.N,R_COL2*%
X100512500Y-128775000D03*
D11*
X104212500Y-140575000D03*
%TO.P,SW30,2*%
%TO.N,RK30_D*%
X91812500Y-138475000D03*
D10*
X105512500Y-130875000D03*
%TD*%
%TO.P,SW8,1*%
%TO.N,R_COL7*%
X193381300Y-71625000D03*
D11*
X197081300Y-83425000D03*
%TO.P,SW8,2*%
%TO.N,RK08_D*%
X184681300Y-81325000D03*
D10*
X198381300Y-73725000D03*
%TD*%
%TO.P,SW15,1*%
%TO.N,R_COL5*%
X143375000Y-90675000D03*
D11*
X147075000Y-102475000D03*
%TO.P,SW15,2*%
%TO.N,RK15_D*%
X134675000Y-100375000D03*
D10*
X148375000Y-92775000D03*
%TD*%
%TO.P,SW44,1*%
%TO.N,R_COL7*%
X195762500Y-147825000D03*
D11*
X199462500Y-159625000D03*
%TO.P,SW44,2*%
%TO.N,RK44_D*%
X187062500Y-157525000D03*
D10*
X200762500Y-149925000D03*
%TD*%
%TO.P,SW33,1*%
%TO.N,R_COL5*%
X157662500Y-128775000D03*
D11*
X161362500Y-140575000D03*
%TO.P,SW33,2*%
%TO.N,RK33_D*%
X148962500Y-138475000D03*
D10*
X162662500Y-130875000D03*
%TD*%
D14*
%TO.P,D29,1*%
%TO.N,R_ROW3*%
X83262500Y-127075000D03*
%TO.P,D29,2*%
%TO.N,RK29_D*%
X79662500Y-127075000D03*
%TD*%
%TO.P,D18,1*%
%TO.N,R_ROW1*%
X216612500Y-88975000D03*
%TO.P,D18,2*%
%TO.N,RK18_D*%
X213012500Y-88975000D03*
%TD*%
%TO.P,D22,1*%
%TO.N,R_ROW2*%
X111837500Y-108025000D03*
%TO.P,D22,2*%
%TO.N,RK22_D*%
X108237500Y-108025000D03*
%TD*%
%TO.P,D7,1*%
%TO.N,R_ROW0*%
X173750000Y-69925000D03*
%TO.P,D7,2*%
%TO.N,RK07_D*%
X170150000Y-69925000D03*
%TD*%
%TO.P,D4,1*%
%TO.N,R_ROW0*%
X116600000Y-69925000D03*
%TO.P,D4,2*%
%TO.N,RK04_D*%
X113000000Y-69925000D03*
%TD*%
%TO.P,D23,1*%
%TO.N,R_ROW2*%
X130887500Y-108025000D03*
%TO.P,D23,2*%
%TO.N,RK23_D*%
X127287500Y-108025000D03*
%TD*%
%TO.P,D28,1*%
%TO.N,R_ROW3*%
X64212500Y-127075000D03*
%TO.P,D28,2*%
%TO.N,RK28_D*%
X60612500Y-127075000D03*
%TD*%
%TO.P,D11,1*%
%TO.N,R_ROW1*%
X68975000Y-88975000D03*
%TO.P,D11,2*%
%TO.N,RK11_D*%
X65375000Y-88975000D03*
%TD*%
%TO.P,D32,1*%
%TO.N,R_ROW3*%
X140412500Y-127075000D03*
%TO.P,D32,2*%
%TO.N,RK32_D*%
X136812500Y-127075000D03*
%TD*%
%TO.P,D27,1*%
%TO.N,R_ROW2*%
X216612500Y-108025000D03*
%TO.P,D27,2*%
%TO.N,RK27_D*%
X213012500Y-108025000D03*
%TD*%
%TO.P,D12,1*%
%TO.N,R_ROW1*%
X88025000Y-88975000D03*
%TO.P,D12,2*%
%TO.N,RK12_D*%
X84425000Y-88975000D03*
%TD*%
%TO.P,D31,1*%
%TO.N,R_ROW3*%
X121362500Y-127075000D03*
%TO.P,D31,2*%
%TO.N,RK31_D*%
X117762500Y-127075000D03*
%TD*%
%TO.P,D13,1*%
%TO.N,R_ROW1*%
X107075000Y-88975000D03*
%TO.P,D13,2*%
%TO.N,RK13_D*%
X103475000Y-88975000D03*
%TD*%
%TO.P,D45,1*%
%TO.N,R_ROW4*%
X216612500Y-146125000D03*
%TO.P,D45,2*%
%TO.N,RK45_D*%
X213012500Y-146125000D03*
%TD*%
%TO.P,D34,1*%
%TO.N,R_ROW3*%
X178512500Y-127075000D03*
%TO.P,D34,2*%
%TO.N,RK34_D*%
X174912500Y-127075000D03*
%TD*%
%TO.P,D8,1*%
%TO.N,R_ROW0*%
X195181300Y-69925000D03*
%TO.P,D8,2*%
%TO.N,RK08_D*%
X191581300Y-69925000D03*
%TD*%
%TO.P,D1,1*%
%TO.N,R_ROW0*%
X59450000Y-69925000D03*
%TO.P,D1,2*%
%TO.N,RK01_D*%
X55850000Y-69925000D03*
%TD*%
%TO.P,D21,1*%
%TO.N,R_ROW2*%
X92787500Y-108025000D03*
%TO.P,D21,2*%
%TO.N,RK21_D*%
X89187500Y-108025000D03*
%TD*%
%TO.P,D16,1*%
%TO.N,R_ROW1*%
X164225000Y-88975000D03*
%TO.P,D16,2*%
%TO.N,RK16_D*%
X160625000Y-88975000D03*
%TD*%
%TO.P,D38,1*%
%TO.N,R_ROW4*%
X83262500Y-146125000D03*
%TO.P,D38,2*%
%TO.N,RK38_D*%
X79662500Y-146125000D03*
%TD*%
%TO.P,D42,1*%
%TO.N,R_ROW4*%
X159462500Y-146125000D03*
%TO.P,D42,2*%
%TO.N,RK42_D*%
X155862500Y-146125000D03*
%TD*%
%TO.P,D43,1*%
%TO.N,R_ROW4*%
X178512500Y-146125000D03*
%TO.P,D43,2*%
%TO.N,RK43_D*%
X174912500Y-146125000D03*
%TD*%
%TO.P,D41,1*%
%TO.N,R_ROW4*%
X140412500Y-146125000D03*
%TO.P,D41,2*%
%TO.N,RK41_D*%
X136812500Y-146125000D03*
%TD*%
%TO.P,D17,1*%
%TO.N,R_ROW1*%
X190418800Y-88975000D03*
%TO.P,D17,2*%
%TO.N,RK17_D*%
X186818800Y-88975000D03*
%TD*%
%TO.P,D24,1*%
%TO.N,R_ROW2*%
X149937500Y-108025000D03*
%TO.P,D24,2*%
%TO.N,RK24_D*%
X146337500Y-108025000D03*
%TD*%
%TO.P,D20,1*%
%TO.N,R_ROW2*%
X73737500Y-108025000D03*
%TO.P,D20,2*%
%TO.N,RK20_D*%
X70137500Y-108025000D03*
%TD*%
%TO.P,D5,1*%
%TO.N,R_ROW0*%
X135650000Y-69925000D03*
%TO.P,D5,2*%
%TO.N,RK05_D*%
X132050000Y-69925000D03*
%TD*%
%TO.P,D3,1*%
%TO.N,R_ROW0*%
X97550000Y-69925000D03*
%TO.P,D3,2*%
%TO.N,RK03_D*%
X93950000Y-69925000D03*
%TD*%
%TO.P,D14,1*%
%TO.N,R_ROW1*%
X126125000Y-88975000D03*
%TO.P,D14,2*%
%TO.N,RK14_D*%
X122525000Y-88975000D03*
%TD*%
%TO.P,D19,1*%
%TO.N,R_ROW2*%
X54687500Y-108025000D03*
%TO.P,D19,2*%
%TO.N,RK19_D*%
X51087500Y-108025000D03*
%TD*%
%TO.P,D2,1*%
%TO.N,R_ROW0*%
X78500000Y-69925000D03*
%TO.P,D2,2*%
%TO.N,RK02_D*%
X74900000Y-69925000D03*
%TD*%
%TO.P,D35,1*%
%TO.N,R_ROW3*%
X197562500Y-127075000D03*
%TO.P,D35,2*%
%TO.N,RK35_D*%
X193962500Y-127075000D03*
%TD*%
%TO.P,D36,1*%
%TO.N,R_ROW3*%
X216612500Y-127075000D03*
%TO.P,D36,2*%
%TO.N,RK36_D*%
X213012500Y-127075000D03*
%TD*%
%TO.P,D15,1*%
%TO.N,R_ROW1*%
X145175000Y-88975000D03*
%TO.P,D15,2*%
%TO.N,RK15_D*%
X141575000Y-88975000D03*
%TD*%
%TO.P,D39,1*%
%TO.N,R_ROW4*%
X102312500Y-146125000D03*
%TO.P,D39,2*%
%TO.N,RK39_D*%
X98712500Y-146125000D03*
%TD*%
%TO.P,D30,1*%
%TO.N,R_ROW3*%
X102312500Y-127075000D03*
%TO.P,D30,2*%
%TO.N,RK30_D*%
X98712500Y-127075000D03*
%TD*%
%TO.P,D25,1*%
%TO.N,R_ROW2*%
X168987500Y-108025000D03*
%TO.P,D25,2*%
%TO.N,RK25_D*%
X165387500Y-108025000D03*
%TD*%
%TO.P,D33,1*%
%TO.N,R_ROW3*%
X159462500Y-127075000D03*
%TO.P,D33,2*%
%TO.N,RK33_D*%
X155862500Y-127075000D03*
%TD*%
%TO.P,D37,1*%
%TO.N,R_ROW4*%
X64212500Y-146125000D03*
%TO.P,D37,2*%
%TO.N,RK37_D*%
X60612500Y-146125000D03*
%TD*%
%TO.P,D40,1*%
%TO.N,R_ROW4*%
X121362500Y-146125000D03*
%TO.P,D40,2*%
%TO.N,RK40_D*%
X117762500Y-146125000D03*
%TD*%
%TO.P,D10,1*%
%TO.N,R_ROW1*%
X49925000Y-88975000D03*
%TO.P,D10,2*%
%TO.N,RK10_D*%
X46325000Y-88975000D03*
%TD*%
%TO.P,D9,1*%
%TO.N,R_ROW0*%
X216612500Y-69925000D03*
%TO.P,D9,2*%
%TO.N,RK09_D*%
X213012500Y-69925000D03*
%TD*%
%TO.P,D44,1*%
%TO.N,R_ROW4*%
X197562500Y-146125000D03*
%TO.P,D44,2*%
%TO.N,RK44_D*%
X193962500Y-146125000D03*
%TD*%
%TO.P,D26,1*%
%TO.N,R_ROW2*%
X192800000Y-108025000D03*
%TO.P,D26,2*%
%TO.N,RK26_D*%
X189200000Y-108025000D03*
%TD*%
%TO.P,D6,1*%
%TO.N,R_ROW0*%
X154700000Y-69925000D03*
%TO.P,D6,2*%
%TO.N,RK06_D*%
X151100000Y-69925000D03*
%TD*%
D15*
%TO.N,R_COL3*%
X107463700Y-100894100D03*
X110257600Y-60200400D03*
X110917300Y-86624800D03*
%TO.N,R_COL6*%
X175913000Y-80874800D03*
X166446400Y-105058100D03*
%TO.N,R_COL4*%
X138867200Y-150619600D03*
X127770000Y-105058100D03*
X119123200Y-60200400D03*
%TO.N,R_COL1*%
X70620000Y-104311700D03*
%TO.N,R_COL7*%
X190924000Y-99038800D03*
X190048000Y-86618900D03*
X195762500Y-119234500D03*
%TO.N,R_COL2*%
X98436800Y-119734400D03*
X86225000Y-86241100D03*
%TO.N,R_COL5*%
X148675200Y-63550000D03*
X145988000Y-105096300D03*
%TO.N,RK07_D*%
X171950000Y-69130500D03*
%TO.N,R_ROW3*%
X92526400Y-125968300D03*
%TO.N,R_ROW0*%
X91111100Y-56489500D03*
%TO.N,R_ROW1*%
X87885200Y-78060600D03*
%TO.N,R_ROW2*%
X89986000Y-105058100D03*
X91655100Y-106849700D03*
%TO.N,R_ROW4*%
X87324900Y-145022300D03*
%TO.N,RK38_D*%
X81789200Y-145951700D03*
%TO.N,RK08_D*%
X193381300Y-69130500D03*
%TD*%
%TO.N,R_COL3*%
D16*
X87345300Y-55522400D02*
X87169400Y-55698300D01*
X90489500Y-55586100D02*
X89772700Y-55586100D01*
X124387700Y-128775000D02*
X119562500Y-128775000D01*
X83763300Y-58317000D02*
X82954300Y-59126000D01*
X89444400Y-55257800D02*
X87609900Y-55257800D01*
X89772700Y-55586100D02*
X89444400Y-55257800D01*
X87609900Y-55257800D02*
X87345300Y-55522400D01*
X83763300Y-57372400D02*
X83763300Y-58317000D01*
X113737500Y-121525000D02*
X117000300Y-118262200D01*
X81146000Y-59126000D02*
X79910000Y-57890000D01*
X90664500Y-55411100D02*
X90489500Y-55586100D01*
X108975000Y-102405400D02*
X108975000Y-102475000D01*
X126498900Y-156388600D02*
X126498900Y-149950300D01*
X126490700Y-137346800D02*
X126490700Y-130878000D01*
X87345300Y-55522400D02*
X87169400Y-55698300D01*
X110257600Y-60200400D02*
X105468300Y-55411100D01*
X126490700Y-130878000D02*
X124387700Y-128775000D01*
X123262500Y-159625000D02*
X126498900Y-156388600D01*
X87169400Y-55698300D02*
X85437400Y-55698300D01*
X85437400Y-55698300D02*
X83763300Y-57372400D01*
X82954300Y-59126000D02*
X81146000Y-59126000D01*
X107463700Y-100894100D02*
X108975000Y-102405400D01*
X123262500Y-140575000D02*
X126490700Y-137346800D01*
X126498900Y-149950300D02*
X124373600Y-147825000D01*
X124373600Y-147825000D02*
X119562500Y-147825000D01*
X105468300Y-55411100D02*
X90664500Y-55411100D01*
X115300200Y-86624800D02*
X118500000Y-83425000D01*
X114850700Y-109725000D02*
X110037500Y-109725000D01*
X110917300Y-86624800D02*
X115300200Y-86624800D01*
X117000300Y-111874600D02*
X114850700Y-109725000D01*
X117000300Y-118262200D02*
X117000300Y-111874600D01*
%TO.N,RK04_D*%
X113023300Y-71729800D02*
X115018500Y-73725000D01*
X113000000Y-69925000D02*
X113000000Y-71706500D01*
X113000000Y-71706500D02*
X113023300Y-71729800D01*
X106100000Y-81325000D02*
X106100000Y-78653100D01*
X106100000Y-78653100D02*
X113023300Y-71729800D01*
X115018500Y-73725000D02*
X119800000Y-73725000D01*
%TO.N,RK13_D*%
X105599000Y-92775000D02*
X105547000Y-92827000D01*
X96575000Y-100375000D02*
X98799600Y-98150400D01*
X100223600Y-98150400D02*
X105547000Y-92827000D01*
X110275000Y-92775000D02*
X105599000Y-92775000D01*
X98799600Y-98150400D02*
X100223600Y-98150400D01*
X103475000Y-90755100D02*
X103475000Y-88975000D01*
X105547000Y-92827000D02*
X103475000Y-90755100D01*
%TO.N,R_COL6*%
X166446400Y-105058100D02*
X166125000Y-104736700D01*
X180412500Y-140575000D02*
X183656100Y-137331400D01*
X181544700Y-147825000D02*
X176712500Y-147825000D01*
X170887500Y-121525000D02*
X174150700Y-118261800D01*
X171498300Y-71173300D02*
X168836400Y-71173300D01*
X164631300Y-66968200D02*
X96608200Y-66968200D01*
X175913000Y-80874800D02*
X175913000Y-83162000D01*
X183650200Y-149930500D02*
X181544700Y-147825000D01*
X174150700Y-111874700D02*
X172001000Y-109725000D01*
X180412500Y-159625000D02*
X183650200Y-156387300D01*
X183656100Y-137331400D02*
X183656100Y-130882000D01*
X168836400Y-71173300D02*
X164631300Y-66968200D01*
X174150700Y-118261800D02*
X174150700Y-111874700D01*
X183650200Y-156387300D02*
X183650200Y-149930500D01*
X175913000Y-83162000D02*
X175650000Y-83425000D01*
X172001000Y-109725000D02*
X167187500Y-109725000D01*
X183656100Y-130882000D02*
X181549100Y-128775000D01*
X171950000Y-71625000D02*
X171498300Y-71173300D01*
X166125000Y-104736700D02*
X166125000Y-102475000D01*
X96608200Y-66968200D02*
X87530000Y-57890000D01*
X181549100Y-128775000D02*
X176712500Y-128775000D01*
%TO.N,RK25_D*%
X167372600Y-111825000D02*
X172187500Y-111825000D01*
X160596500Y-117316000D02*
X158487500Y-119425000D01*
X167372600Y-111825000D02*
X167372600Y-112004700D01*
X165387500Y-109839900D02*
X167372600Y-111825000D01*
X162061300Y-117316000D02*
X160596500Y-117316000D01*
X167372600Y-112004700D02*
X162061300Y-117316000D01*
X165387500Y-108025000D02*
X165387500Y-109839900D01*
%TO.N,R_COL4*%
X132787500Y-121525000D02*
X136050700Y-118261800D01*
X145556100Y-130882000D02*
X143449100Y-128775000D01*
X140795400Y-80179600D02*
X140795400Y-73752500D01*
X89631500Y-54806100D02*
X87422800Y-54806100D01*
X90477400Y-54959400D02*
X90302400Y-55134400D01*
X89959800Y-55134400D02*
X89631500Y-54806100D01*
X142312500Y-159625000D02*
X142312500Y-154064900D01*
X137550000Y-83425000D02*
X140795400Y-80179600D01*
X128025000Y-104803100D02*
X128025000Y-102475000D01*
X136050700Y-111874700D02*
X133901000Y-109725000D01*
X85093400Y-55246600D02*
X82450000Y-57890000D01*
X113882200Y-54959400D02*
X90477400Y-54959400D01*
X142312500Y-140575000D02*
X145556100Y-137331400D01*
X87158200Y-55070700D02*
X86982300Y-55246600D01*
X145556100Y-137331400D02*
X145556100Y-130882000D01*
X136050700Y-118261800D02*
X136050700Y-111874700D01*
X86982300Y-55246600D02*
X85093400Y-55246600D01*
X133901000Y-109725000D02*
X129087500Y-109725000D01*
X119123200Y-60200400D02*
X113882200Y-54959400D01*
X127770000Y-105058100D02*
X128025000Y-104803100D01*
X138667900Y-71625000D02*
X133850000Y-71625000D01*
X143449100Y-128775000D02*
X138612500Y-128775000D01*
X87158200Y-55070700D02*
X86982300Y-55246600D01*
X90302400Y-55134400D02*
X89959800Y-55134400D01*
X87422800Y-54806100D02*
X87158200Y-55070700D01*
X140795400Y-73752500D02*
X138667900Y-71625000D01*
X142312500Y-154064900D02*
X138867200Y-150619600D01*
%TO.N,RK05_D*%
X133070600Y-73725000D02*
X132050000Y-72704400D01*
X127374600Y-79100400D02*
X128798700Y-79100400D01*
X128798700Y-79100400D02*
X133070600Y-74828500D01*
X125150000Y-81325000D02*
X127374600Y-79100400D01*
X132050000Y-72704400D02*
X132050000Y-69925000D01*
X133070600Y-74828500D02*
X133070600Y-73725000D01*
X138850000Y-73725000D02*
X133070600Y-73725000D01*
%TO.N,R_COL1*%
X78885200Y-111870600D02*
X76739600Y-109725000D01*
X73150000Y-90675000D02*
X80400000Y-83425000D01*
X85162500Y-159625000D02*
X85162500Y-151525000D01*
X88395900Y-130893300D02*
X86277600Y-128775000D01*
X86277600Y-128775000D02*
X81462500Y-128775000D01*
X88395900Y-137341600D02*
X88395900Y-130893300D01*
X76739600Y-109725000D02*
X71937500Y-109725000D01*
X67175000Y-90675000D02*
X73150000Y-90675000D01*
X85162500Y-151525000D02*
X81462500Y-147825000D01*
X85162500Y-140575000D02*
X88395900Y-137341600D01*
X78885200Y-118277300D02*
X78885200Y-111870600D01*
X70875000Y-104056700D02*
X70620000Y-104311700D01*
X70875000Y-102475000D02*
X70875000Y-104056700D01*
X75637500Y-121525000D02*
X78885200Y-118277300D01*
%TO.N,RK02_D*%
X74900000Y-69925000D02*
X74900000Y-73725000D01*
X72913100Y-73725000D02*
X68000000Y-78638100D01*
X74900000Y-73725000D02*
X72913100Y-73725000D01*
X81700000Y-73725000D02*
X74900000Y-73725000D01*
X68000000Y-78638100D02*
X68000000Y-81325000D01*
%TO.N,R_COL7*%
X202692200Y-137345300D02*
X202692200Y-130924200D01*
X192318800Y-102475000D02*
X190924000Y-101080200D01*
X186160700Y-71625000D02*
X193381300Y-71625000D01*
X197081300Y-83425000D02*
X193887400Y-86618900D01*
X195762500Y-120462500D02*
X195762500Y-119234500D01*
X92610000Y-57890000D02*
X100507700Y-65787700D01*
X199462500Y-159625000D02*
X202717100Y-156370400D01*
X202692200Y-130924200D02*
X200543000Y-128775000D01*
X180323400Y-65787700D02*
X186160700Y-71625000D01*
X194700000Y-121525000D02*
X195762500Y-120462500D01*
X200543000Y-128775000D02*
X195762500Y-128775000D01*
X199462500Y-140575000D02*
X202692200Y-137345300D01*
X202717100Y-156370400D02*
X202717100Y-149977500D01*
X193887400Y-86618900D02*
X190048000Y-86618900D01*
X200564600Y-147825000D02*
X195762500Y-147825000D01*
X202717100Y-149977500D02*
X200564600Y-147825000D01*
X190924000Y-101080200D02*
X190924000Y-99038800D01*
X100507700Y-65787700D02*
X180323400Y-65787700D01*
%TO.N,RK17_D*%
X186818800Y-88975000D02*
X186818800Y-92775000D01*
X179918800Y-100375000D02*
X179918800Y-97684600D01*
X186818800Y-92775000D02*
X193618800Y-92775000D01*
X184828400Y-92775000D02*
X186818800Y-92775000D01*
X179918800Y-97684600D02*
X184828400Y-92775000D01*
%TO.N,R_COL8*%
X216034800Y-124002700D02*
X218512500Y-121525000D01*
X213560900Y-143753800D02*
X211960500Y-145354200D01*
X204154000Y-64266100D02*
X211512900Y-71625000D01*
X218512500Y-102475000D02*
X218512500Y-107924400D01*
X216763300Y-143753800D02*
X213560900Y-143753800D01*
X99708200Y-64266100D02*
X204154000Y-64266100D01*
X212841200Y-147825000D02*
X214812500Y-147825000D01*
X90596900Y-57890000D02*
X91868600Y-56618300D01*
X221742700Y-148733200D02*
X216763300Y-143753800D01*
X218512500Y-159625000D02*
X221742700Y-156394800D01*
X216743400Y-90675000D02*
X218512500Y-88905900D01*
X214252000Y-124002700D02*
X216034800Y-124002700D01*
X90070000Y-57890000D02*
X90596900Y-57890000D01*
X212881800Y-128775000D02*
X211959500Y-127852700D01*
X218512500Y-88905900D02*
X218512500Y-83425000D01*
X93923300Y-57354200D02*
X93923300Y-58481200D01*
X93923300Y-58481200D02*
X99708200Y-64266100D01*
X211960500Y-145354200D02*
X211960500Y-146944300D01*
X93187400Y-56618300D02*
X93923300Y-57354200D01*
X211960500Y-146944300D02*
X212841200Y-147825000D01*
X214812500Y-90675000D02*
X216743400Y-90675000D01*
X211959500Y-127852700D02*
X211959500Y-126295200D01*
X218512500Y-107924400D02*
X216711900Y-109725000D01*
X216711900Y-109725000D02*
X214812500Y-109725000D01*
X91868600Y-56618300D02*
X93187400Y-56618300D01*
X211959500Y-126295200D02*
X214252000Y-124002700D01*
X214812500Y-128775000D02*
X212881800Y-128775000D01*
X221742700Y-156394800D02*
X221742700Y-148733200D01*
X211512900Y-71625000D02*
X214812500Y-71625000D01*
X218512500Y-140575000D02*
X216763300Y-142324200D01*
X216763300Y-142324200D02*
X216763300Y-143753800D01*
%TO.N,RK36_D*%
X206112500Y-138475000D02*
X206112500Y-135844400D01*
X217334600Y-125939100D02*
X214148400Y-125939100D01*
X219812500Y-130875000D02*
X219812500Y-128417000D01*
X214148400Y-125939100D02*
X213012500Y-127075000D01*
X211081900Y-130875000D02*
X219812500Y-130875000D01*
X206112500Y-135844400D02*
X211081900Y-130875000D01*
X219812500Y-128417000D02*
X217334600Y-125939100D01*
%TO.N,RK22_D*%
X101337500Y-119425000D02*
X103562100Y-117200400D01*
X110222600Y-112050200D02*
X110222600Y-111825000D01*
X108237500Y-108025000D02*
X108237500Y-109839900D01*
X103562100Y-117200400D02*
X105072400Y-117200400D01*
X105072400Y-117200400D02*
X110222600Y-112050200D01*
X110222600Y-111825000D02*
X115037500Y-111825000D01*
X108237500Y-109839900D02*
X110222600Y-111825000D01*
%TO.N,R_COL2*%
X90987500Y-109725000D02*
X90987500Y-103537500D01*
X97930600Y-119734400D02*
X97930600Y-111857000D01*
X102713900Y-80161100D02*
X99450000Y-83425000D01*
X96633900Y-86241100D02*
X86225000Y-86241100D01*
X107445900Y-137341600D02*
X107445900Y-130893300D01*
X90987500Y-103537500D02*
X89925000Y-102475000D01*
X105327600Y-128775000D02*
X100512500Y-128775000D01*
X107478300Y-156359200D02*
X107478300Y-149978300D01*
X105325000Y-147825000D02*
X100512500Y-147825000D01*
X104212500Y-159625000D02*
X107478300Y-156359200D01*
X97930600Y-119734400D02*
X98436800Y-119734400D01*
X107445900Y-130893300D02*
X105327600Y-128775000D01*
X95750000Y-71625000D02*
X100591000Y-71625000D01*
X99450000Y-83425000D02*
X96633900Y-86241100D01*
X94687500Y-121525000D02*
X96478100Y-119734400D01*
X97930600Y-111857000D02*
X95798600Y-109725000D01*
X95798600Y-109725000D02*
X90987500Y-109725000D01*
X100591000Y-71625000D02*
X102713900Y-73747900D01*
X104212500Y-140575000D02*
X107445900Y-137341600D01*
X107478300Y-149978300D02*
X105325000Y-147825000D01*
X96478100Y-119734400D02*
X97930600Y-119734400D01*
X102713900Y-73747900D02*
X102713900Y-80161100D01*
%TO.N,RK21_D*%
X85861300Y-117316000D02*
X84396500Y-117316000D01*
X91172600Y-111825000D02*
X91172600Y-112004700D01*
X84396500Y-117316000D02*
X82287500Y-119425000D01*
X91172600Y-111825000D02*
X95987500Y-111825000D01*
X89187500Y-108025000D02*
X89187500Y-109839900D01*
X91172600Y-112004700D02*
X85861300Y-117316000D01*
X89187500Y-109839900D02*
X91172600Y-111825000D01*
%TO.N,RK41_D*%
X138240500Y-150360100D02*
X138240500Y-150661800D01*
X133601900Y-155300400D02*
X132137100Y-155300400D01*
X138675600Y-149925000D02*
X138240500Y-150360100D01*
X136812500Y-146125000D02*
X136812500Y-148061900D01*
X136812500Y-148061900D02*
X138675600Y-149925000D01*
X138240500Y-150661800D02*
X133601900Y-155300400D01*
X143612500Y-149925000D02*
X138675600Y-149925000D01*
X132137100Y-155300400D02*
X129912500Y-157525000D01*
%TO.N,RK20_D*%
X65462100Y-117200400D02*
X66972400Y-117200400D01*
X66972400Y-117200400D02*
X72122600Y-112050200D01*
X70137500Y-109839900D02*
X72122600Y-111825000D01*
X70137500Y-108025000D02*
X70137500Y-109839900D01*
X72122600Y-111825000D02*
X76937500Y-111825000D01*
X63237500Y-119425000D02*
X65462100Y-117200400D01*
X72122600Y-112050200D02*
X72122600Y-111825000D01*
%TO.N,R_COL5*%
X156600000Y-83425000D02*
X159864800Y-80160200D01*
X151837500Y-121525000D02*
X155100700Y-118261800D01*
X90676600Y-56037800D02*
X87468800Y-56037800D01*
X155100700Y-118261800D02*
X155100700Y-111874700D01*
X94921800Y-55862800D02*
X90851600Y-55862800D01*
X159864800Y-73765300D02*
X158423500Y-72324000D01*
X161362500Y-140575000D02*
X161362500Y-147825000D01*
X87346900Y-56159700D02*
X86720300Y-56159700D01*
X159864800Y-80160200D02*
X159864800Y-73765300D01*
X86720300Y-56159700D02*
X84990000Y-57890000D01*
X164602500Y-149978300D02*
X162449200Y-147825000D01*
X161362500Y-147825000D02*
X157662500Y-147825000D01*
X155100700Y-111874700D02*
X152951000Y-109725000D01*
X161362500Y-159625000D02*
X164602500Y-156385000D01*
X87468800Y-56037800D02*
X87346900Y-56159700D01*
X148675200Y-63550000D02*
X101222700Y-63175500D01*
X162449200Y-147825000D02*
X161362500Y-147825000D01*
X158423500Y-72324000D02*
X153599000Y-72324000D01*
X164602500Y-156385000D02*
X164602500Y-149978300D01*
X96377100Y-57318100D02*
X94921800Y-55862800D01*
X90851600Y-55862800D02*
X90676600Y-56037800D01*
X152951000Y-109725000D02*
X148137500Y-109725000D01*
X96377100Y-58329900D02*
X96377100Y-57318100D01*
X147075000Y-104009300D02*
X145988000Y-105096300D01*
X153599000Y-72324000D02*
X152900000Y-71625000D01*
X147075000Y-102475000D02*
X147075000Y-104009300D01*
X101222700Y-63175500D02*
X96377100Y-58329900D01*
%TO.N,RK42_D*%
X154037500Y-149774900D02*
X155862500Y-149774900D01*
X148962500Y-154849900D02*
X154037500Y-149774900D01*
X155862500Y-149774900D02*
X162512400Y-149774900D01*
X162512400Y-149774900D02*
X162662500Y-149925000D01*
X148962500Y-157525000D02*
X148962500Y-154849900D01*
X155862500Y-149774900D02*
X155862500Y-146125000D01*
%TO.N,RK29_D*%
X79662500Y-130875000D02*
X77716000Y-130875000D01*
X77716000Y-130875000D02*
X72762500Y-135828500D01*
X72762500Y-135828500D02*
X72762500Y-138475000D01*
X79662500Y-130875000D02*
X79662500Y-127075000D01*
X86462500Y-130875000D02*
X79662500Y-130875000D01*
%TO.N,RK43_D*%
X168012500Y-157525000D02*
X168012500Y-154833400D01*
X173539600Y-147497900D02*
X174912500Y-146125000D01*
X174158300Y-149925000D02*
X173539600Y-149306300D01*
X181712500Y-149925000D02*
X174158300Y-149925000D01*
X168012500Y-154833400D02*
X173539600Y-149306300D01*
X173539600Y-149306300D02*
X173539600Y-147497900D01*
%TO.N,R_COL0*%
X62412500Y-147825000D02*
X62412500Y-144275000D01*
X58855700Y-85919300D02*
X61350000Y-83425000D01*
X69342000Y-149941300D02*
X67225700Y-147825000D01*
X67225700Y-147825000D02*
X62412500Y-147825000D01*
X48125000Y-90675000D02*
X48125000Y-88946900D01*
X51152600Y-85919300D02*
X58855700Y-85919300D01*
X66112500Y-159625000D02*
X69342000Y-156395500D01*
X56873800Y-121525000D02*
X62412500Y-127063700D01*
X56587500Y-121525000D02*
X56873800Y-121525000D01*
X51825000Y-102475000D02*
X52887500Y-103537500D01*
X69342000Y-156395500D02*
X69342000Y-149941300D01*
X48125000Y-88946900D02*
X51152600Y-85919300D01*
X62412500Y-127063700D02*
X62412500Y-128775000D01*
X52887500Y-103537500D02*
X52887500Y-109725000D01*
X62412500Y-144275000D02*
X66112500Y-140575000D01*
%TO.N,RK01_D*%
X53851000Y-73725000D02*
X48950000Y-78626000D01*
X55850000Y-73725000D02*
X53851000Y-73725000D01*
X62650000Y-73725000D02*
X55850000Y-73725000D01*
X48950000Y-78626000D02*
X48950000Y-81325000D01*
X55850000Y-73725000D02*
X55850000Y-69925000D01*
%TO.N,RK11_D*%
X60699600Y-98150400D02*
X62123700Y-98150400D01*
X66395600Y-93878500D02*
X66395600Y-92775000D01*
X65375000Y-91754400D02*
X65375000Y-88975000D01*
X58475000Y-100375000D02*
X60699600Y-98150400D01*
X62123700Y-98150400D02*
X66395600Y-93878500D01*
X72175000Y-92775000D02*
X66395600Y-92775000D01*
X66395600Y-92775000D02*
X65375000Y-91754400D01*
%TO.N,RK10_D*%
X48397000Y-92827000D02*
X46325000Y-90755100D01*
X41649600Y-98150400D02*
X43073600Y-98150400D01*
X46325000Y-90755100D02*
X46325000Y-88975000D01*
X53125000Y-92775000D02*
X48449000Y-92775000D01*
X48449000Y-92775000D02*
X48397000Y-92827000D01*
X43073600Y-98150400D02*
X48397000Y-92827000D01*
X39425000Y-100375000D02*
X41649600Y-98150400D01*
%TO.N,RK28_D*%
X60612500Y-129728700D02*
X60612500Y-127075000D01*
X61758800Y-130875000D02*
X60612500Y-129728700D01*
X55937100Y-136250400D02*
X57361200Y-136250400D01*
X61758800Y-131852800D02*
X61758800Y-130875000D01*
X53712500Y-138475000D02*
X55937100Y-136250400D01*
X57361200Y-136250400D02*
X61758800Y-131852800D01*
X67412500Y-130875000D02*
X61758800Y-130875000D01*
%TO.N,RK18_D*%
X219812500Y-92775000D02*
X213012500Y-92775000D01*
X206112500Y-97735100D02*
X206112500Y-100375000D01*
X213012500Y-92775000D02*
X211072600Y-92775000D01*
X211072600Y-92775000D02*
X206112500Y-97735100D01*
X213012500Y-88975000D02*
X213012500Y-92775000D01*
%TO.N,RK12_D*%
X84425000Y-90828600D02*
X86371400Y-92775000D01*
X86371400Y-92775000D02*
X91225000Y-92775000D01*
X79749600Y-98150400D02*
X81262600Y-98150400D01*
X77525000Y-100375000D02*
X79749600Y-98150400D01*
X81262600Y-98150400D02*
X86371400Y-93041600D01*
X86371400Y-93041600D02*
X86371400Y-92775000D01*
X84425000Y-88975000D02*
X84425000Y-90828600D01*
%TO.N,RK34_D*%
X174912500Y-128879500D02*
X174912500Y-127075000D01*
X168012500Y-138475000D02*
X170237100Y-136250400D01*
X176908000Y-131092500D02*
X176908000Y-130875000D01*
X181712500Y-130875000D02*
X176908000Y-130875000D01*
X171750100Y-136250400D02*
X176908000Y-131092500D01*
X176908000Y-130875000D02*
X174912500Y-128879500D01*
X170237100Y-136250400D02*
X171750100Y-136250400D01*
%TO.N,RK45_D*%
X206112500Y-157525000D02*
X208337100Y-155300400D01*
X208337100Y-155300400D02*
X209882900Y-155300400D01*
X214148400Y-144989100D02*
X215930200Y-144989100D01*
X219176300Y-146832800D02*
X219812500Y-147469000D01*
X213012500Y-146125000D02*
X214148400Y-144989100D01*
X209882900Y-155300400D02*
X215258300Y-149925000D01*
X219176300Y-146830800D02*
X219176300Y-146832800D01*
X217336100Y-144990600D02*
X219176300Y-146830800D01*
X215931700Y-144990600D02*
X217336100Y-144990600D01*
X215930200Y-144989100D02*
X215931700Y-144990600D01*
X215258300Y-149925000D02*
X219812500Y-149925000D01*
X219812500Y-147469000D02*
X219812500Y-149925000D01*
%TO.N,RK37_D*%
X62597600Y-150150200D02*
X62597600Y-149925000D01*
X55937100Y-155300400D02*
X57447400Y-155300400D01*
X57447400Y-155300400D02*
X62597600Y-150150200D01*
X62597600Y-149925000D02*
X67412500Y-149925000D01*
X60612500Y-146125000D02*
X60612500Y-147939900D01*
X53712500Y-157525000D02*
X55937100Y-155300400D01*
X60612500Y-147939900D02*
X62597600Y-149925000D01*
%TO.N,RK03_D*%
X100750000Y-73725000D02*
X94970600Y-73725000D01*
X87050000Y-81325000D02*
X89274600Y-79100400D01*
X90698700Y-79100400D02*
X94970600Y-74828500D01*
X94970600Y-74828500D02*
X94970600Y-73725000D01*
X93950000Y-72704400D02*
X93950000Y-69925000D01*
X89274600Y-79100400D02*
X90698700Y-79100400D01*
X94970600Y-73725000D02*
X93950000Y-72704400D01*
%TO.N,BAT+*%
X119800000Y-47800000D02*
X113800000Y-47800000D01*
%TO.N,BAT-*%
X119800000Y-52200000D02*
X113800000Y-52200000D01*
%TO.N,RK19_D*%
X53072600Y-112050200D02*
X53072600Y-111825000D01*
X51087500Y-108025000D02*
X51087500Y-109839900D01*
X46412100Y-117200400D02*
X47922400Y-117200400D01*
X44187500Y-119425000D02*
X46412100Y-117200400D01*
X47922400Y-117200400D02*
X53072600Y-112050200D01*
X53072600Y-111825000D02*
X57887500Y-111825000D01*
X51087500Y-109839900D02*
X53072600Y-111825000D01*
%TO.N,RK16_D*%
X160625000Y-88975000D02*
X160625000Y-90789900D01*
X157459900Y-98150400D02*
X162610100Y-93000200D01*
X160625000Y-90789900D02*
X162610100Y-92775000D01*
X162610100Y-93000200D02*
X162610100Y-92775000D01*
X153725000Y-100375000D02*
X155949600Y-98150400D01*
X155949600Y-98150400D02*
X157459900Y-98150400D01*
X162610100Y-92775000D02*
X167425000Y-92775000D01*
%TO.N,RK07_D*%
X171950000Y-69130500D02*
X170944500Y-69130500D01*
X168227200Y-73725000D02*
X163250000Y-78702200D01*
X170944500Y-69130500D02*
X170150000Y-69925000D01*
X176950000Y-73725000D02*
X168227200Y-73725000D01*
X163250000Y-78702200D02*
X163250000Y-81325000D01*
%TO.N,RK06_D*%
X157231600Y-73056600D02*
X157900000Y-73725000D01*
X149827800Y-73056600D02*
X151100000Y-73056600D01*
X151100000Y-73056600D02*
X151100000Y-69925000D01*
X144200000Y-78684400D02*
X149827800Y-73056600D01*
X144200000Y-81325000D02*
X144200000Y-78684400D01*
X151100000Y-73056600D02*
X157231600Y-73056600D01*
%TO.N,RK32_D*%
X129912500Y-138475000D02*
X132137100Y-136250400D01*
X138796600Y-130875000D02*
X143612500Y-130875000D01*
X138796600Y-131014900D02*
X138796600Y-130875000D01*
X132137100Y-136250400D02*
X133561100Y-136250400D01*
X136812500Y-128890900D02*
X138796600Y-130875000D01*
X136812500Y-127075000D02*
X136812500Y-128890900D01*
X133561100Y-136250400D02*
X138796600Y-131014900D01*
%TO.N,RK35_D*%
X194983100Y-131978500D02*
X194983100Y-130875000D01*
X187062500Y-138475000D02*
X189287100Y-136250400D01*
X194983100Y-130875000D02*
X193962500Y-129854400D01*
X190711200Y-136250400D02*
X194983100Y-131978500D01*
X200762500Y-130875000D02*
X194983100Y-130875000D01*
X189287100Y-136250400D02*
X190711200Y-136250400D01*
X193962500Y-129854400D02*
X193962500Y-127075000D01*
%TO.N,RK39_D*%
X95461100Y-155300400D02*
X100784500Y-149977000D01*
X105512500Y-149925000D02*
X100836500Y-149925000D01*
X100784500Y-149977000D02*
X98712500Y-147905100D01*
X100836500Y-149925000D02*
X100784500Y-149977000D01*
X91812500Y-157525000D02*
X94037100Y-155300400D01*
X98712500Y-147905100D02*
X98712500Y-146125000D01*
X94037100Y-155300400D02*
X95461100Y-155300400D01*
%TO.N,R_ROW3*%
X64212500Y-127075000D02*
X65324600Y-125962900D01*
X102312500Y-125968300D02*
X92526400Y-125968300D01*
X139283900Y-125946400D02*
X140412500Y-127075000D01*
X82150400Y-125962900D02*
X83262500Y-127075000D01*
X197562500Y-127075000D02*
X196408800Y-125921300D01*
X204193900Y-130112600D02*
X201156300Y-127075000D01*
X159462500Y-125921300D02*
X159462500Y-127075000D01*
X141566200Y-125921300D02*
X140412500Y-127075000D01*
X121362500Y-127075000D02*
X122491100Y-125946400D01*
X201156300Y-127075000D02*
X197562500Y-127075000D01*
X84369200Y-125968300D02*
X83262500Y-127075000D01*
X196408800Y-125921300D02*
X178512500Y-125921300D01*
X216612500Y-128899600D02*
X215399500Y-130112600D01*
X121362500Y-127075000D02*
X120255800Y-125968300D01*
X159462500Y-125921300D02*
X141566200Y-125921300D01*
X92526400Y-125968300D02*
X84369200Y-125968300D01*
X122491100Y-125946400D02*
X139283900Y-125946400D01*
X178512500Y-125921300D02*
X159462500Y-125921300D01*
X120255800Y-125968300D02*
X102312500Y-125968300D01*
X102312500Y-125968300D02*
X102312500Y-127075000D01*
X216612500Y-127075000D02*
X216612500Y-128899600D01*
X178512500Y-125921300D02*
X178512500Y-127075000D01*
X215399500Y-130112600D02*
X204193900Y-130112600D01*
X65324600Y-125962900D02*
X82150400Y-125962900D01*
%TO.N,R_ROW0*%
X97550000Y-69463800D02*
X98236200Y-68777600D01*
X170641400Y-72978400D02*
X169429100Y-71766100D01*
X78500000Y-68749100D02*
X86215200Y-68749100D01*
X193913300Y-72987800D02*
X195181300Y-71719800D01*
X156541100Y-71766100D02*
X154700000Y-69925000D01*
X173750000Y-71706600D02*
X172478200Y-72978400D01*
X186886800Y-72987800D02*
X193913300Y-72987800D01*
X186068200Y-72169200D02*
X186886800Y-72987800D01*
X134493700Y-68768700D02*
X117756300Y-68768700D01*
X98236200Y-68777600D02*
X115452600Y-68777600D01*
X86266900Y-68749100D02*
X86215200Y-68749100D01*
X86303300Y-57370800D02*
X87036000Y-56638100D01*
X86303300Y-68749100D02*
X86303300Y-57370800D01*
X60625900Y-68749100D02*
X59450000Y-69925000D01*
X173750000Y-69925000D02*
X173750000Y-71706600D01*
X78500000Y-68749100D02*
X60625900Y-68749100D01*
X115452600Y-68777600D02*
X116600000Y-69925000D01*
X154700000Y-69925000D02*
X153587200Y-68812200D01*
X153587200Y-68812200D02*
X136762800Y-68812200D01*
X97550000Y-69925000D02*
X97550000Y-69463800D01*
X87036000Y-56638100D02*
X90962500Y-56638100D01*
X173750000Y-71706600D02*
X174212600Y-72169200D01*
X136762800Y-68812200D02*
X135650000Y-69925000D01*
X215288300Y-73031300D02*
X216612500Y-71707100D01*
X90962500Y-56638100D02*
X91111100Y-56489500D01*
X117756300Y-68768700D02*
X116600000Y-69925000D01*
X195181300Y-69925000D02*
X195181300Y-71719800D01*
X174212600Y-72169200D02*
X186068200Y-72169200D01*
X195181300Y-71719800D02*
X209508200Y-71719800D01*
X172478200Y-72978400D02*
X170641400Y-72978400D01*
X216612500Y-71707100D02*
X216612500Y-69925000D01*
X210819700Y-73031300D02*
X215288300Y-73031300D01*
X135650000Y-69925000D02*
X134493700Y-68768700D01*
X86303300Y-68749100D02*
X86266900Y-68749100D01*
X209508200Y-71719800D02*
X210819700Y-73031300D01*
X97550000Y-69463800D02*
X96835300Y-68749100D01*
X169429100Y-71766100D02*
X156541100Y-71766100D01*
X96835300Y-68749100D02*
X86303300Y-68749100D01*
X78500000Y-69925000D02*
X78500000Y-68749100D01*
%TO.N,R_ROW1*%
X216612500Y-88975000D02*
X215503900Y-87866400D01*
X189304200Y-87860400D02*
X165339600Y-87860400D01*
X163099500Y-87849500D02*
X146300500Y-87849500D01*
X87885200Y-78060600D02*
X87507900Y-78060600D01*
X164225000Y-88975000D02*
X163099500Y-87849500D01*
X144009200Y-87809200D02*
X127290800Y-87809200D01*
X82673000Y-82895500D02*
X82673000Y-83623000D01*
X215503900Y-87866400D02*
X191527400Y-87866400D01*
X145175000Y-88975000D02*
X144009200Y-87809200D01*
X105958000Y-87858000D02*
X89142000Y-87858000D01*
X82673000Y-83623000D02*
X88025000Y-88975000D01*
X126125000Y-88975000D02*
X125022300Y-87872300D01*
X191527400Y-87866400D02*
X190418800Y-88975000D01*
X107075000Y-88975000D02*
X105958000Y-87858000D01*
X87507900Y-78060600D02*
X82673000Y-82895500D01*
X49925000Y-88975000D02*
X51027700Y-87872300D01*
X68181600Y-88181600D02*
X68975000Y-88975000D01*
X68181600Y-87910100D02*
X68181600Y-88181600D01*
X190418800Y-88975000D02*
X189304200Y-87860400D01*
X81118600Y-81341100D02*
X82673000Y-82895500D01*
X165339600Y-87860400D02*
X164225000Y-88975000D01*
X146300500Y-87849500D02*
X145175000Y-88975000D01*
X127290800Y-87809200D02*
X126125000Y-88975000D01*
X74750600Y-81341100D02*
X81118600Y-81341100D01*
X125022300Y-87872300D02*
X108177700Y-87872300D01*
X108177700Y-87872300D02*
X107075000Y-88975000D01*
X68181600Y-87910100D02*
X74750600Y-81341100D01*
X89142000Y-87858000D02*
X88025000Y-88975000D01*
X51027700Y-87872300D02*
X68143800Y-87872300D01*
X68143800Y-87872300D02*
X68181600Y-87910100D01*
%TO.N,R_ROW2*%
X55841200Y-106871300D02*
X54687500Y-108025000D01*
X73737500Y-108025000D02*
X87019100Y-108025000D01*
X111837500Y-106922300D02*
X111837500Y-108025000D01*
X93847300Y-106922300D02*
X92787500Y-107982100D01*
X92787500Y-107982100D02*
X91655100Y-106849700D01*
X192800000Y-106921700D02*
X192800000Y-108025000D01*
X130887500Y-108025000D02*
X129784800Y-106922300D01*
X192800000Y-106921700D02*
X168987500Y-106921700D01*
X168987500Y-106921700D02*
X168987500Y-108025000D01*
X87019100Y-108025000D02*
X89986000Y-105058100D01*
X92787500Y-108025000D02*
X92787500Y-107982100D01*
X216612500Y-108025000D02*
X215509200Y-106921700D01*
X73737500Y-108025000D02*
X72583800Y-106871300D01*
X215509200Y-106921700D02*
X192800000Y-106921700D01*
X149937500Y-106921700D02*
X131990800Y-106921700D01*
X168987500Y-106921700D02*
X149937500Y-106921700D01*
X129784800Y-106922300D02*
X111837500Y-106922300D01*
X111837500Y-106922300D02*
X93847300Y-106922300D01*
X149937500Y-106921700D02*
X149937500Y-108025000D01*
X72583800Y-106871300D02*
X55841200Y-106871300D01*
X131990800Y-106921700D02*
X130887500Y-108025000D01*
%TO.N,R_ROW4*%
X162363300Y-138485000D02*
X156768200Y-138485000D01*
X216612500Y-146125000D02*
X216612500Y-147934100D01*
X103452300Y-144985200D02*
X102312500Y-146125000D01*
X141515800Y-145021700D02*
X140412500Y-146125000D01*
X203909700Y-146125000D02*
X197562500Y-146125000D01*
X155558900Y-139694300D02*
X155558900Y-145021700D01*
X83262500Y-145022300D02*
X83262500Y-146125000D01*
X121362500Y-144985200D02*
X103452300Y-144985200D01*
X178512500Y-146125000D02*
X179656400Y-144981100D01*
X206977300Y-149192600D02*
X203909700Y-146125000D01*
X65315200Y-145022300D02*
X64212500Y-146125000D01*
X216612500Y-147934100D02*
X215354000Y-149192600D01*
X215354000Y-149192600D02*
X206977300Y-149192600D01*
X159462500Y-146125000D02*
X158359200Y-145021700D01*
X121362500Y-144985200D02*
X121362500Y-146125000D01*
X155558900Y-145021700D02*
X141515800Y-145021700D01*
X102312500Y-146125000D02*
X101209800Y-145022300D01*
X101209800Y-145022300D02*
X87324900Y-145022300D01*
X156768200Y-138485000D02*
X155558900Y-139694300D01*
X197562500Y-146125000D02*
X196418600Y-144981100D01*
X168859400Y-144981100D02*
X162363300Y-138485000D01*
X179656400Y-144981100D02*
X168859400Y-144981100D01*
X140412500Y-146125000D02*
X139272700Y-144985200D01*
X158359200Y-145021700D02*
X155558900Y-145021700D01*
X139272700Y-144985200D02*
X121362500Y-144985200D01*
X87324900Y-145022300D02*
X83262500Y-145022300D01*
X196418600Y-144981100D02*
X179656400Y-144981100D01*
X83262500Y-145022300D02*
X65315200Y-145022300D01*
%TO.N,RK14_D*%
X122525000Y-88975000D02*
X122525000Y-92775000D01*
X120605400Y-92775000D02*
X115625000Y-97755400D01*
X129325000Y-92775000D02*
X122525000Y-92775000D01*
X122525000Y-92775000D02*
X120605400Y-92775000D01*
X115625000Y-97755400D02*
X115625000Y-100375000D01*
%TO.N,RK24_D*%
X143086100Y-117200400D02*
X141662100Y-117200400D01*
X153137500Y-111825000D02*
X148461500Y-111825000D01*
X148461500Y-111825000D02*
X148409500Y-111877000D01*
X146337500Y-109805100D02*
X146337500Y-108025000D01*
X148409500Y-111877000D02*
X143086100Y-117200400D01*
X148409500Y-111877000D02*
X146337500Y-109805100D01*
X141662100Y-117200400D02*
X139437500Y-119425000D01*
%TO.N,RK40_D*%
X117008300Y-149925000D02*
X116389600Y-149306300D01*
X124562500Y-149925000D02*
X117008300Y-149925000D01*
X110862500Y-157525000D02*
X110862500Y-154833400D01*
X116389600Y-149306300D02*
X116389600Y-147497900D01*
X110862500Y-154833400D02*
X116389600Y-149306300D01*
X116389600Y-147497900D02*
X117762500Y-146125000D01*
%TO.N,RK23_D*%
X127287500Y-109839900D02*
X129272600Y-111825000D01*
X129272600Y-112050200D02*
X129272600Y-111825000D01*
X127287500Y-108025000D02*
X127287500Y-109839900D01*
X124122400Y-117200400D02*
X129272600Y-112050200D01*
X120387500Y-119425000D02*
X122612100Y-117200400D01*
X122612100Y-117200400D02*
X124122400Y-117200400D01*
X129272600Y-111825000D02*
X134087500Y-111825000D01*
%TO.N,RK38_D*%
X72762500Y-157525000D02*
X72762500Y-153025000D01*
X79662500Y-146125000D02*
X79835800Y-145951700D01*
X72762500Y-153025000D02*
X79662500Y-146125000D01*
X79835800Y-145951700D02*
X81789200Y-145951700D01*
%TO.N,RK31_D*%
X115818500Y-130875000D02*
X110862500Y-135831000D01*
X117762500Y-130875000D02*
X115818500Y-130875000D01*
X124562500Y-130875000D02*
X117762500Y-130875000D01*
X117762500Y-127075000D02*
X117762500Y-130875000D01*
X110862500Y-135831000D02*
X110862500Y-138475000D01*
%TO.N,RK27_D*%
X213012500Y-110810800D02*
X213012500Y-108025000D01*
X209761200Y-117200400D02*
X214026700Y-112934900D01*
X208337100Y-117200400D02*
X209761200Y-117200400D01*
X214026700Y-111825000D02*
X213012500Y-110810800D01*
X219812500Y-111825000D02*
X214026700Y-111825000D01*
X214026700Y-112934900D02*
X214026700Y-111825000D01*
X206112500Y-119425000D02*
X208337100Y-117200400D01*
%TO.N,RK26_D*%
X191324000Y-111825000D02*
X196000000Y-111825000D01*
X189200000Y-108025000D02*
X189200000Y-109865600D01*
X182300000Y-119425000D02*
X184524600Y-117200400D01*
X185948600Y-117200400D02*
X191241700Y-111907300D01*
X189200000Y-109865600D02*
X191241700Y-111907300D01*
X191241700Y-111907300D02*
X191324000Y-111825000D01*
X184524600Y-117200400D02*
X185948600Y-117200400D01*
%TO.N,RK09_D*%
X208337100Y-79100400D02*
X209850100Y-79100400D01*
X219812500Y-73725000D02*
X219812500Y-71318100D01*
X219812500Y-71318100D02*
X217273900Y-68779500D01*
X217273900Y-68779500D02*
X214158000Y-68779500D01*
X206112500Y-81325000D02*
X208337100Y-79100400D01*
X209850100Y-79100400D02*
X215225500Y-73725000D01*
X214158000Y-68779500D02*
X213012500Y-69925000D01*
X215225500Y-73725000D02*
X219812500Y-73725000D01*
%TO.N,RK30_D*%
X91812500Y-135831000D02*
X91812500Y-138475000D01*
X98712500Y-130875000D02*
X96768500Y-130875000D01*
X96768500Y-130875000D02*
X91812500Y-135831000D01*
X98712500Y-130875000D02*
X98712500Y-127075000D01*
X105512500Y-130875000D02*
X98712500Y-130875000D01*
%TO.N,RK08_D*%
X186905900Y-79100400D02*
X188329900Y-79100400D01*
X188329900Y-79100400D02*
X193705300Y-73725000D01*
X193705300Y-73725000D02*
X198381300Y-73725000D01*
X192375800Y-69130500D02*
X191581300Y-69925000D01*
X193381300Y-69130500D02*
X192375800Y-69130500D01*
X184681300Y-81325000D02*
X186905900Y-79100400D01*
%TO.N,RK15_D*%
X141575000Y-90789900D02*
X143560100Y-92775000D01*
X138409900Y-98150400D02*
X143560100Y-93000200D01*
X136899600Y-98150400D02*
X138409900Y-98150400D01*
X143560100Y-92775000D02*
X148375000Y-92775000D01*
X143560100Y-93000200D02*
X143560100Y-92775000D01*
X141575000Y-88975000D02*
X141575000Y-90789900D01*
X134675000Y-100375000D02*
X136899600Y-98150400D01*
%TO.N,RK44_D*%
X193962500Y-146125000D02*
X193962500Y-147941400D01*
X195946100Y-149925000D02*
X200762500Y-149925000D01*
X187062500Y-157525000D02*
X189287100Y-155300400D01*
X189287100Y-155300400D02*
X190800100Y-155300400D01*
X195946100Y-150154400D02*
X195946100Y-149925000D01*
X193962500Y-147941400D02*
X195946100Y-149925000D01*
X190800100Y-155300400D02*
X195946100Y-150154400D01*
%TO.N,RK33_D*%
X155862500Y-129854400D02*
X155862500Y-127075000D01*
X151187100Y-136250400D02*
X152611200Y-136250400D01*
X152611200Y-136250400D02*
X156883100Y-131978500D01*
X148962500Y-138475000D02*
X151187100Y-136250400D01*
X156883100Y-130875000D02*
X155862500Y-129854400D01*
X162662500Y-130875000D02*
X156883100Y-130875000D01*
X156883100Y-131978500D02*
X156883100Y-130875000D01*
%TD*%
M02*
