%TF.GenerationSoftware,KiCad,Pcbnew,10.0.3*%
%TF.CreationDate,2026-06-04T18:27:55+09:00*%
%TF.ProjectId,kc2_right-x3,6b63325f-7269-4676-9874-2d78332e6b69,draft-1*%
%TF.SameCoordinates,Original*%
%TF.FileFunction,Legend,Top*%
%TF.FilePolarity,Positive*%
%FSLAX46Y46*%
G04 Gerber Fmt 4.6, Leading zero omitted, Abs format (unit mm)*
G04 Created by KiCad (PCBNEW 10.0.3) date 2026-06-04 18:27:55*
%MOMM*%
%LPD*%
G01*
G04 APERTURE LIST*
%ADD10C,0.150000*%
%ADD11C,0.100000*%
%ADD12C,0.158750*%
%ADD13C,0.140000*%
%ADD14C,0.120000*%
%ADD15C,1.701800*%
%ADD16C,3.000000*%
%ADD17C,3.429000*%
%ADD18C,2.200000*%
%ADD19C,1.300000*%
%ADD20R,1.750000X1.000000*%
G04 APERTURE END LIST*
D10*
X11771427Y-27408557D02*
X11771427Y-26508557D01*
X11771427Y-26508557D02*
X12285713Y-27408557D01*
X12285713Y-27408557D02*
X12285713Y-26508557D01*
X12842856Y-27408557D02*
X12757141Y-27365700D01*
X12757141Y-27365700D02*
X12714284Y-27322842D01*
X12714284Y-27322842D02*
X12671427Y-27237128D01*
X12671427Y-27237128D02*
X12671427Y-26979985D01*
X12671427Y-26979985D02*
X12714284Y-26894271D01*
X12714284Y-26894271D02*
X12757141Y-26851414D01*
X12757141Y-26851414D02*
X12842856Y-26808557D01*
X12842856Y-26808557D02*
X12971427Y-26808557D01*
X12971427Y-26808557D02*
X13057141Y-26851414D01*
X13057141Y-26851414D02*
X13099999Y-26894271D01*
X13099999Y-26894271D02*
X13142856Y-26979985D01*
X13142856Y-26979985D02*
X13142856Y-27237128D01*
X13142856Y-27237128D02*
X13099999Y-27322842D01*
X13099999Y-27322842D02*
X13057141Y-27365700D01*
X13057141Y-27365700D02*
X12971427Y-27408557D01*
X12971427Y-27408557D02*
X12842856Y-27408557D01*
X14085713Y-26808557D02*
X14428570Y-26808557D01*
X14214284Y-26508557D02*
X14214284Y-27279985D01*
X14214284Y-27279985D02*
X14257141Y-27365700D01*
X14257141Y-27365700D02*
X14342856Y-27408557D01*
X14342856Y-27408557D02*
X14428570Y-27408557D01*
X14857142Y-27408557D02*
X14771427Y-27365700D01*
X14771427Y-27365700D02*
X14728570Y-27322842D01*
X14728570Y-27322842D02*
X14685713Y-27237128D01*
X14685713Y-27237128D02*
X14685713Y-26979985D01*
X14685713Y-26979985D02*
X14728570Y-26894271D01*
X14728570Y-26894271D02*
X14771427Y-26851414D01*
X14771427Y-26851414D02*
X14857142Y-26808557D01*
X14857142Y-26808557D02*
X14985713Y-26808557D01*
X14985713Y-26808557D02*
X15071427Y-26851414D01*
X15071427Y-26851414D02*
X15114285Y-26894271D01*
X15114285Y-26894271D02*
X15157142Y-26979985D01*
X15157142Y-26979985D02*
X15157142Y-27237128D01*
X15157142Y-27237128D02*
X15114285Y-27322842D01*
X15114285Y-27322842D02*
X15071427Y-27365700D01*
X15071427Y-27365700D02*
X14985713Y-27408557D01*
X14985713Y-27408557D02*
X14857142Y-27408557D01*
X15542856Y-26808557D02*
X15542856Y-27708557D01*
X15542856Y-26851414D02*
X15628571Y-26808557D01*
X15628571Y-26808557D02*
X15799999Y-26808557D01*
X15799999Y-26808557D02*
X15885713Y-26851414D01*
X15885713Y-26851414D02*
X15928571Y-26894271D01*
X15928571Y-26894271D02*
X15971428Y-26979985D01*
X15971428Y-26979985D02*
X15971428Y-27237128D01*
X15971428Y-27237128D02*
X15928571Y-27322842D01*
X15928571Y-27322842D02*
X15885713Y-27365700D01*
X15885713Y-27365700D02*
X15799999Y-27408557D01*
X15799999Y-27408557D02*
X15628571Y-27408557D01*
X15628571Y-27408557D02*
X15542856Y-27365700D01*
X17042856Y-27408557D02*
X17042856Y-26508557D01*
X17428571Y-27408557D02*
X17428571Y-26937128D01*
X17428571Y-26937128D02*
X17385713Y-26851414D01*
X17385713Y-26851414D02*
X17299999Y-26808557D01*
X17299999Y-26808557D02*
X17171428Y-26808557D01*
X17171428Y-26808557D02*
X17085713Y-26851414D01*
X17085713Y-26851414D02*
X17042856Y-26894271D01*
X17985714Y-27408557D02*
X17899999Y-27365700D01*
X17899999Y-27365700D02*
X17857142Y-27322842D01*
X17857142Y-27322842D02*
X17814285Y-27237128D01*
X17814285Y-27237128D02*
X17814285Y-26979985D01*
X17814285Y-26979985D02*
X17857142Y-26894271D01*
X17857142Y-26894271D02*
X17899999Y-26851414D01*
X17899999Y-26851414D02*
X17985714Y-26808557D01*
X17985714Y-26808557D02*
X18114285Y-26808557D01*
X18114285Y-26808557D02*
X18199999Y-26851414D01*
X18199999Y-26851414D02*
X18242857Y-26894271D01*
X18242857Y-26894271D02*
X18285714Y-26979985D01*
X18285714Y-26979985D02*
X18285714Y-27237128D01*
X18285714Y-27237128D02*
X18242857Y-27322842D01*
X18242857Y-27322842D02*
X18199999Y-27365700D01*
X18199999Y-27365700D02*
X18114285Y-27408557D01*
X18114285Y-27408557D02*
X17985714Y-27408557D01*
X19057143Y-26808557D02*
X19057143Y-27408557D01*
X18671428Y-26808557D02*
X18671428Y-27279985D01*
X18671428Y-27279985D02*
X18714285Y-27365700D01*
X18714285Y-27365700D02*
X18800000Y-27408557D01*
X18800000Y-27408557D02*
X18928571Y-27408557D01*
X18928571Y-27408557D02*
X19014285Y-27365700D01*
X19014285Y-27365700D02*
X19057143Y-27322842D01*
X19442857Y-27365700D02*
X19528571Y-27408557D01*
X19528571Y-27408557D02*
X19700000Y-27408557D01*
X19700000Y-27408557D02*
X19785714Y-27365700D01*
X19785714Y-27365700D02*
X19828571Y-27279985D01*
X19828571Y-27279985D02*
X19828571Y-27237128D01*
X19828571Y-27237128D02*
X19785714Y-27151414D01*
X19785714Y-27151414D02*
X19700000Y-27108557D01*
X19700000Y-27108557D02*
X19571429Y-27108557D01*
X19571429Y-27108557D02*
X19485714Y-27065700D01*
X19485714Y-27065700D02*
X19442857Y-26979985D01*
X19442857Y-26979985D02*
X19442857Y-26937128D01*
X19442857Y-26937128D02*
X19485714Y-26851414D01*
X19485714Y-26851414D02*
X19571429Y-26808557D01*
X19571429Y-26808557D02*
X19700000Y-26808557D01*
X19700000Y-26808557D02*
X19785714Y-26851414D01*
X20214285Y-27408557D02*
X20214285Y-26808557D01*
X20214285Y-26508557D02*
X20171428Y-26551414D01*
X20171428Y-26551414D02*
X20214285Y-26594271D01*
X20214285Y-26594271D02*
X20257142Y-26551414D01*
X20257142Y-26551414D02*
X20214285Y-26508557D01*
X20214285Y-26508557D02*
X20214285Y-26594271D01*
X20642856Y-26808557D02*
X20642856Y-27408557D01*
X20642856Y-26894271D02*
X20685713Y-26851414D01*
X20685713Y-26851414D02*
X20771428Y-26808557D01*
X20771428Y-26808557D02*
X20899999Y-26808557D01*
X20899999Y-26808557D02*
X20985713Y-26851414D01*
X20985713Y-26851414D02*
X21028571Y-26937128D01*
X21028571Y-26937128D02*
X21028571Y-27408557D01*
X21842857Y-26808557D02*
X21842857Y-27537128D01*
X21842857Y-27537128D02*
X21799999Y-27622842D01*
X21799999Y-27622842D02*
X21757142Y-27665700D01*
X21757142Y-27665700D02*
X21671428Y-27708557D01*
X21671428Y-27708557D02*
X21542857Y-27708557D01*
X21542857Y-27708557D02*
X21457142Y-27665700D01*
X21842857Y-27365700D02*
X21757142Y-27408557D01*
X21757142Y-27408557D02*
X21585714Y-27408557D01*
X21585714Y-27408557D02*
X21499999Y-27365700D01*
X21499999Y-27365700D02*
X21457142Y-27322842D01*
X21457142Y-27322842D02*
X21414285Y-27237128D01*
X21414285Y-27237128D02*
X21414285Y-26979985D01*
X21414285Y-26979985D02*
X21457142Y-26894271D01*
X21457142Y-26894271D02*
X21499999Y-26851414D01*
X21499999Y-26851414D02*
X21585714Y-26808557D01*
X21585714Y-26808557D02*
X21757142Y-26808557D01*
X21757142Y-26808557D02*
X21842857Y-26851414D01*
X23599999Y-26465700D02*
X22828571Y-27622842D01*
X24585713Y-27408557D02*
X24585713Y-26508557D01*
X24585713Y-26508557D02*
X24928570Y-26508557D01*
X24928570Y-26508557D02*
X25014285Y-26551414D01*
X25014285Y-26551414D02*
X25057142Y-26594271D01*
X25057142Y-26594271D02*
X25099999Y-26679985D01*
X25099999Y-26679985D02*
X25099999Y-26808557D01*
X25099999Y-26808557D02*
X25057142Y-26894271D01*
X25057142Y-26894271D02*
X25014285Y-26937128D01*
X25014285Y-26937128D02*
X24928570Y-26979985D01*
X24928570Y-26979985D02*
X24585713Y-26979985D01*
X25999999Y-27322842D02*
X25957142Y-27365700D01*
X25957142Y-27365700D02*
X25828570Y-27408557D01*
X25828570Y-27408557D02*
X25742856Y-27408557D01*
X25742856Y-27408557D02*
X25614285Y-27365700D01*
X25614285Y-27365700D02*
X25528570Y-27279985D01*
X25528570Y-27279985D02*
X25485713Y-27194271D01*
X25485713Y-27194271D02*
X25442856Y-27022842D01*
X25442856Y-27022842D02*
X25442856Y-26894271D01*
X25442856Y-26894271D02*
X25485713Y-26722842D01*
X25485713Y-26722842D02*
X25528570Y-26637128D01*
X25528570Y-26637128D02*
X25614285Y-26551414D01*
X25614285Y-26551414D02*
X25742856Y-26508557D01*
X25742856Y-26508557D02*
X25828570Y-26508557D01*
X25828570Y-26508557D02*
X25957142Y-26551414D01*
X25957142Y-26551414D02*
X25999999Y-26594271D01*
X26685713Y-26937128D02*
X26814285Y-26979985D01*
X26814285Y-26979985D02*
X26857142Y-27022842D01*
X26857142Y-27022842D02*
X26899999Y-27108557D01*
X26899999Y-27108557D02*
X26899999Y-27237128D01*
X26899999Y-27237128D02*
X26857142Y-27322842D01*
X26857142Y-27322842D02*
X26814285Y-27365700D01*
X26814285Y-27365700D02*
X26728570Y-27408557D01*
X26728570Y-27408557D02*
X26385713Y-27408557D01*
X26385713Y-27408557D02*
X26385713Y-26508557D01*
X26385713Y-26508557D02*
X26685713Y-26508557D01*
X26685713Y-26508557D02*
X26771428Y-26551414D01*
X26771428Y-26551414D02*
X26814285Y-26594271D01*
X26814285Y-26594271D02*
X26857142Y-26679985D01*
X26857142Y-26679985D02*
X26857142Y-26765700D01*
X26857142Y-26765700D02*
X26814285Y-26851414D01*
X26814285Y-26851414D02*
X26771428Y-26894271D01*
X26771428Y-26894271D02*
X26685713Y-26937128D01*
X26685713Y-26937128D02*
X26385713Y-26937128D01*
X27971427Y-27408557D02*
X27971427Y-26808557D01*
X27971427Y-26508557D02*
X27928570Y-26551414D01*
X27928570Y-26551414D02*
X27971427Y-26594271D01*
X27971427Y-26594271D02*
X28014284Y-26551414D01*
X28014284Y-26551414D02*
X27971427Y-26508557D01*
X27971427Y-26508557D02*
X27971427Y-26594271D01*
X28357141Y-27365700D02*
X28442855Y-27408557D01*
X28442855Y-27408557D02*
X28614284Y-27408557D01*
X28614284Y-27408557D02*
X28699998Y-27365700D01*
X28699998Y-27365700D02*
X28742855Y-27279985D01*
X28742855Y-27279985D02*
X28742855Y-27237128D01*
X28742855Y-27237128D02*
X28699998Y-27151414D01*
X28699998Y-27151414D02*
X28614284Y-27108557D01*
X28614284Y-27108557D02*
X28485713Y-27108557D01*
X28485713Y-27108557D02*
X28399998Y-27065700D01*
X28399998Y-27065700D02*
X28357141Y-26979985D01*
X28357141Y-26979985D02*
X28357141Y-26937128D01*
X28357141Y-26937128D02*
X28399998Y-26851414D01*
X28399998Y-26851414D02*
X28485713Y-26808557D01*
X28485713Y-26808557D02*
X28614284Y-26808557D01*
X28614284Y-26808557D02*
X28699998Y-26851414D01*
X29771426Y-27365700D02*
X29857140Y-27408557D01*
X29857140Y-27408557D02*
X30028569Y-27408557D01*
X30028569Y-27408557D02*
X30114283Y-27365700D01*
X30114283Y-27365700D02*
X30157140Y-27279985D01*
X30157140Y-27279985D02*
X30157140Y-27237128D01*
X30157140Y-27237128D02*
X30114283Y-27151414D01*
X30114283Y-27151414D02*
X30028569Y-27108557D01*
X30028569Y-27108557D02*
X29899998Y-27108557D01*
X29899998Y-27108557D02*
X29814283Y-27065700D01*
X29814283Y-27065700D02*
X29771426Y-26979985D01*
X29771426Y-26979985D02*
X29771426Y-26937128D01*
X29771426Y-26937128D02*
X29814283Y-26851414D01*
X29814283Y-26851414D02*
X29899998Y-26808557D01*
X29899998Y-26808557D02*
X30028569Y-26808557D01*
X30028569Y-26808557D02*
X30114283Y-26851414D01*
X30457140Y-26808557D02*
X30628569Y-27408557D01*
X30628569Y-27408557D02*
X30799997Y-26979985D01*
X30799997Y-26979985D02*
X30971426Y-27408557D01*
X30971426Y-27408557D02*
X31142854Y-26808557D01*
X31485711Y-27408557D02*
X31485711Y-26808557D01*
X31485711Y-26508557D02*
X31442854Y-26551414D01*
X31442854Y-26551414D02*
X31485711Y-26594271D01*
X31485711Y-26594271D02*
X31528568Y-26551414D01*
X31528568Y-26551414D02*
X31485711Y-26508557D01*
X31485711Y-26508557D02*
X31485711Y-26594271D01*
X31785711Y-26808557D02*
X32128568Y-26808557D01*
X31914282Y-26508557D02*
X31914282Y-27279985D01*
X31914282Y-27279985D02*
X31957139Y-27365700D01*
X31957139Y-27365700D02*
X32042854Y-27408557D01*
X32042854Y-27408557D02*
X32128568Y-27408557D01*
X32814283Y-27365700D02*
X32728568Y-27408557D01*
X32728568Y-27408557D02*
X32557140Y-27408557D01*
X32557140Y-27408557D02*
X32471425Y-27365700D01*
X32471425Y-27365700D02*
X32428568Y-27322842D01*
X32428568Y-27322842D02*
X32385711Y-27237128D01*
X32385711Y-27237128D02*
X32385711Y-26979985D01*
X32385711Y-26979985D02*
X32428568Y-26894271D01*
X32428568Y-26894271D02*
X32471425Y-26851414D01*
X32471425Y-26851414D02*
X32557140Y-26808557D01*
X32557140Y-26808557D02*
X32728568Y-26808557D01*
X32728568Y-26808557D02*
X32814283Y-26851414D01*
X33199997Y-27408557D02*
X33199997Y-26508557D01*
X33585712Y-27408557D02*
X33585712Y-26937128D01*
X33585712Y-26937128D02*
X33542854Y-26851414D01*
X33542854Y-26851414D02*
X33457140Y-26808557D01*
X33457140Y-26808557D02*
X33328569Y-26808557D01*
X33328569Y-26808557D02*
X33242854Y-26851414D01*
X33242854Y-26851414D02*
X33199997Y-26894271D01*
X34699997Y-26808557D02*
X34699997Y-27708557D01*
X34699997Y-26851414D02*
X34785712Y-26808557D01*
X34785712Y-26808557D02*
X34957140Y-26808557D01*
X34957140Y-26808557D02*
X35042854Y-26851414D01*
X35042854Y-26851414D02*
X35085712Y-26894271D01*
X35085712Y-26894271D02*
X35128569Y-26979985D01*
X35128569Y-26979985D02*
X35128569Y-27237128D01*
X35128569Y-27237128D02*
X35085712Y-27322842D01*
X35085712Y-27322842D02*
X35042854Y-27365700D01*
X35042854Y-27365700D02*
X34957140Y-27408557D01*
X34957140Y-27408557D02*
X34785712Y-27408557D01*
X34785712Y-27408557D02*
X34699997Y-27365700D01*
X35642855Y-27408557D02*
X35557140Y-27365700D01*
X35557140Y-27365700D02*
X35514283Y-27279985D01*
X35514283Y-27279985D02*
X35514283Y-26508557D01*
X36371427Y-27408557D02*
X36371427Y-26937128D01*
X36371427Y-26937128D02*
X36328569Y-26851414D01*
X36328569Y-26851414D02*
X36242855Y-26808557D01*
X36242855Y-26808557D02*
X36071427Y-26808557D01*
X36071427Y-26808557D02*
X35985712Y-26851414D01*
X36371427Y-27365700D02*
X36285712Y-27408557D01*
X36285712Y-27408557D02*
X36071427Y-27408557D01*
X36071427Y-27408557D02*
X35985712Y-27365700D01*
X35985712Y-27365700D02*
X35942855Y-27279985D01*
X35942855Y-27279985D02*
X35942855Y-27194271D01*
X35942855Y-27194271D02*
X35985712Y-27108557D01*
X35985712Y-27108557D02*
X36071427Y-27065700D01*
X36071427Y-27065700D02*
X36285712Y-27065700D01*
X36285712Y-27065700D02*
X36371427Y-27022842D01*
X36671427Y-26808557D02*
X37014284Y-26808557D01*
X36799998Y-26508557D02*
X36799998Y-27279985D01*
X36799998Y-27279985D02*
X36842855Y-27365700D01*
X36842855Y-27365700D02*
X36928570Y-27408557D01*
X36928570Y-27408557D02*
X37014284Y-27408557D01*
X37657141Y-27365700D02*
X37571427Y-27408557D01*
X37571427Y-27408557D02*
X37399999Y-27408557D01*
X37399999Y-27408557D02*
X37314284Y-27365700D01*
X37314284Y-27365700D02*
X37271427Y-27279985D01*
X37271427Y-27279985D02*
X37271427Y-26937128D01*
X37271427Y-26937128D02*
X37314284Y-26851414D01*
X37314284Y-26851414D02*
X37399999Y-26808557D01*
X37399999Y-26808557D02*
X37571427Y-26808557D01*
X37571427Y-26808557D02*
X37657141Y-26851414D01*
X37657141Y-26851414D02*
X37699999Y-26937128D01*
X37699999Y-26937128D02*
X37699999Y-27022842D01*
X37699999Y-27022842D02*
X37271427Y-27108557D01*
X39414284Y-26465700D02*
X38642856Y-27622842D01*
X40399998Y-27408557D02*
X40399998Y-26508557D01*
X40399998Y-26851414D02*
X40485713Y-26808557D01*
X40485713Y-26808557D02*
X40657141Y-26808557D01*
X40657141Y-26808557D02*
X40742855Y-26851414D01*
X40742855Y-26851414D02*
X40785713Y-26894271D01*
X40785713Y-26894271D02*
X40828570Y-26979985D01*
X40828570Y-26979985D02*
X40828570Y-27237128D01*
X40828570Y-27237128D02*
X40785713Y-27322842D01*
X40785713Y-27322842D02*
X40742855Y-27365700D01*
X40742855Y-27365700D02*
X40657141Y-27408557D01*
X40657141Y-27408557D02*
X40485713Y-27408557D01*
X40485713Y-27408557D02*
X40399998Y-27365700D01*
X41342856Y-27408557D02*
X41257141Y-27365700D01*
X41257141Y-27365700D02*
X41214284Y-27322842D01*
X41214284Y-27322842D02*
X41171427Y-27237128D01*
X41171427Y-27237128D02*
X41171427Y-26979985D01*
X41171427Y-26979985D02*
X41214284Y-26894271D01*
X41214284Y-26894271D02*
X41257141Y-26851414D01*
X41257141Y-26851414D02*
X41342856Y-26808557D01*
X41342856Y-26808557D02*
X41471427Y-26808557D01*
X41471427Y-26808557D02*
X41557141Y-26851414D01*
X41557141Y-26851414D02*
X41599999Y-26894271D01*
X41599999Y-26894271D02*
X41642856Y-26979985D01*
X41642856Y-26979985D02*
X41642856Y-27237128D01*
X41642856Y-27237128D02*
X41599999Y-27322842D01*
X41599999Y-27322842D02*
X41557141Y-27365700D01*
X41557141Y-27365700D02*
X41471427Y-27408557D01*
X41471427Y-27408557D02*
X41342856Y-27408557D01*
X41899999Y-26808557D02*
X42242856Y-26808557D01*
X42028570Y-26508557D02*
X42028570Y-27279985D01*
X42028570Y-27279985D02*
X42071427Y-27365700D01*
X42071427Y-27365700D02*
X42157142Y-27408557D01*
X42157142Y-27408557D02*
X42242856Y-27408557D01*
X42414285Y-26808557D02*
X42757142Y-26808557D01*
X42542856Y-26508557D02*
X42542856Y-27279985D01*
X42542856Y-27279985D02*
X42585713Y-27365700D01*
X42585713Y-27365700D02*
X42671428Y-27408557D01*
X42671428Y-27408557D02*
X42757142Y-27408557D01*
X43185714Y-27408557D02*
X43099999Y-27365700D01*
X43099999Y-27365700D02*
X43057142Y-27322842D01*
X43057142Y-27322842D02*
X43014285Y-27237128D01*
X43014285Y-27237128D02*
X43014285Y-26979985D01*
X43014285Y-26979985D02*
X43057142Y-26894271D01*
X43057142Y-26894271D02*
X43099999Y-26851414D01*
X43099999Y-26851414D02*
X43185714Y-26808557D01*
X43185714Y-26808557D02*
X43314285Y-26808557D01*
X43314285Y-26808557D02*
X43399999Y-26851414D01*
X43399999Y-26851414D02*
X43442857Y-26894271D01*
X43442857Y-26894271D02*
X43485714Y-26979985D01*
X43485714Y-26979985D02*
X43485714Y-27237128D01*
X43485714Y-27237128D02*
X43442857Y-27322842D01*
X43442857Y-27322842D02*
X43399999Y-27365700D01*
X43399999Y-27365700D02*
X43314285Y-27408557D01*
X43314285Y-27408557D02*
X43185714Y-27408557D01*
X43871428Y-27408557D02*
X43871428Y-26808557D01*
X43871428Y-26894271D02*
X43914285Y-26851414D01*
X43914285Y-26851414D02*
X44000000Y-26808557D01*
X44000000Y-26808557D02*
X44128571Y-26808557D01*
X44128571Y-26808557D02*
X44214285Y-26851414D01*
X44214285Y-26851414D02*
X44257143Y-26937128D01*
X44257143Y-26937128D02*
X44257143Y-27408557D01*
X44257143Y-26937128D02*
X44300000Y-26851414D01*
X44300000Y-26851414D02*
X44385714Y-26808557D01*
X44385714Y-26808557D02*
X44514285Y-26808557D01*
X44514285Y-26808557D02*
X44600000Y-26851414D01*
X44600000Y-26851414D02*
X44642857Y-26937128D01*
X44642857Y-26937128D02*
X44642857Y-27408557D01*
X45757142Y-26808557D02*
X45757142Y-27708557D01*
X45757142Y-26851414D02*
X45842857Y-26808557D01*
X45842857Y-26808557D02*
X46014285Y-26808557D01*
X46014285Y-26808557D02*
X46099999Y-26851414D01*
X46099999Y-26851414D02*
X46142857Y-26894271D01*
X46142857Y-26894271D02*
X46185714Y-26979985D01*
X46185714Y-26979985D02*
X46185714Y-27237128D01*
X46185714Y-27237128D02*
X46142857Y-27322842D01*
X46142857Y-27322842D02*
X46099999Y-27365700D01*
X46099999Y-27365700D02*
X46014285Y-27408557D01*
X46014285Y-27408557D02*
X45842857Y-27408557D01*
X45842857Y-27408557D02*
X45757142Y-27365700D01*
X46700000Y-27408557D02*
X46614285Y-27365700D01*
X46614285Y-27365700D02*
X46571428Y-27279985D01*
X46571428Y-27279985D02*
X46571428Y-26508557D01*
X47428572Y-27408557D02*
X47428572Y-26937128D01*
X47428572Y-26937128D02*
X47385714Y-26851414D01*
X47385714Y-26851414D02*
X47300000Y-26808557D01*
X47300000Y-26808557D02*
X47128572Y-26808557D01*
X47128572Y-26808557D02*
X47042857Y-26851414D01*
X47428572Y-27365700D02*
X47342857Y-27408557D01*
X47342857Y-27408557D02*
X47128572Y-27408557D01*
X47128572Y-27408557D02*
X47042857Y-27365700D01*
X47042857Y-27365700D02*
X47000000Y-27279985D01*
X47000000Y-27279985D02*
X47000000Y-27194271D01*
X47000000Y-27194271D02*
X47042857Y-27108557D01*
X47042857Y-27108557D02*
X47128572Y-27065700D01*
X47128572Y-27065700D02*
X47342857Y-27065700D01*
X47342857Y-27065700D02*
X47428572Y-27022842D01*
X47728572Y-26808557D02*
X48071429Y-26808557D01*
X47857143Y-26508557D02*
X47857143Y-27279985D01*
X47857143Y-27279985D02*
X47900000Y-27365700D01*
X47900000Y-27365700D02*
X47985715Y-27408557D01*
X47985715Y-27408557D02*
X48071429Y-27408557D01*
X48714286Y-27365700D02*
X48628572Y-27408557D01*
X48628572Y-27408557D02*
X48457144Y-27408557D01*
X48457144Y-27408557D02*
X48371429Y-27365700D01*
X48371429Y-27365700D02*
X48328572Y-27279985D01*
X48328572Y-27279985D02*
X48328572Y-26937128D01*
X48328572Y-26937128D02*
X48371429Y-26851414D01*
X48371429Y-26851414D02*
X48457144Y-26808557D01*
X48457144Y-26808557D02*
X48628572Y-26808557D01*
X48628572Y-26808557D02*
X48714286Y-26851414D01*
X48714286Y-26851414D02*
X48757144Y-26937128D01*
X48757144Y-26937128D02*
X48757144Y-27022842D01*
X48757144Y-27022842D02*
X48328572Y-27108557D01*
X49828572Y-27408557D02*
X49828572Y-26508557D01*
X49828572Y-26508557D02*
X50128572Y-27151414D01*
X50128572Y-27151414D02*
X50428572Y-26508557D01*
X50428572Y-26508557D02*
X50428572Y-27408557D01*
X50814286Y-26594271D02*
X50857143Y-26551414D01*
X50857143Y-26551414D02*
X50942858Y-26508557D01*
X50942858Y-26508557D02*
X51157143Y-26508557D01*
X51157143Y-26508557D02*
X51242858Y-26551414D01*
X51242858Y-26551414D02*
X51285715Y-26594271D01*
X51285715Y-26594271D02*
X51328572Y-26679985D01*
X51328572Y-26679985D02*
X51328572Y-26765700D01*
X51328572Y-26765700D02*
X51285715Y-26894271D01*
X51285715Y-26894271D02*
X50771429Y-27408557D01*
X50771429Y-27408557D02*
X51328572Y-27408557D01*
X51714286Y-27065700D02*
X52400001Y-27065700D01*
X52057143Y-27408557D02*
X52057143Y-26722842D01*
X53214287Y-27408557D02*
X53214287Y-26937128D01*
X53214287Y-26937128D02*
X53171429Y-26851414D01*
X53171429Y-26851414D02*
X53085715Y-26808557D01*
X53085715Y-26808557D02*
X52914287Y-26808557D01*
X52914287Y-26808557D02*
X52828572Y-26851414D01*
X53214287Y-27365700D02*
X53128572Y-27408557D01*
X53128572Y-27408557D02*
X52914287Y-27408557D01*
X52914287Y-27408557D02*
X52828572Y-27365700D01*
X52828572Y-27365700D02*
X52785715Y-27279985D01*
X52785715Y-27279985D02*
X52785715Y-27194271D01*
X52785715Y-27194271D02*
X52828572Y-27108557D01*
X52828572Y-27108557D02*
X52914287Y-27065700D01*
X52914287Y-27065700D02*
X53128572Y-27065700D01*
X53128572Y-27065700D02*
X53214287Y-27022842D01*
X54028573Y-27408557D02*
X54028573Y-26508557D01*
X54028573Y-27365700D02*
X53942858Y-27408557D01*
X53942858Y-27408557D02*
X53771430Y-27408557D01*
X53771430Y-27408557D02*
X53685715Y-27365700D01*
X53685715Y-27365700D02*
X53642858Y-27322842D01*
X53642858Y-27322842D02*
X53600001Y-27237128D01*
X53600001Y-27237128D02*
X53600001Y-26979985D01*
X53600001Y-26979985D02*
X53642858Y-26894271D01*
X53642858Y-26894271D02*
X53685715Y-26851414D01*
X53685715Y-26851414D02*
X53771430Y-26808557D01*
X53771430Y-26808557D02*
X53942858Y-26808557D01*
X53942858Y-26808557D02*
X54028573Y-26851414D01*
X54457144Y-27408557D02*
X54457144Y-26508557D01*
X54842859Y-27408557D02*
X54842859Y-26937128D01*
X54842859Y-26937128D02*
X54800001Y-26851414D01*
X54800001Y-26851414D02*
X54714287Y-26808557D01*
X54714287Y-26808557D02*
X54585716Y-26808557D01*
X54585716Y-26808557D02*
X54500001Y-26851414D01*
X54500001Y-26851414D02*
X54457144Y-26894271D01*
X55614287Y-27365700D02*
X55528573Y-27408557D01*
X55528573Y-27408557D02*
X55357145Y-27408557D01*
X55357145Y-27408557D02*
X55271430Y-27365700D01*
X55271430Y-27365700D02*
X55228573Y-27279985D01*
X55228573Y-27279985D02*
X55228573Y-26937128D01*
X55228573Y-26937128D02*
X55271430Y-26851414D01*
X55271430Y-26851414D02*
X55357145Y-26808557D01*
X55357145Y-26808557D02*
X55528573Y-26808557D01*
X55528573Y-26808557D02*
X55614287Y-26851414D01*
X55614287Y-26851414D02*
X55657145Y-26937128D01*
X55657145Y-26937128D02*
X55657145Y-27022842D01*
X55657145Y-27022842D02*
X55228573Y-27108557D01*
X56000002Y-27365700D02*
X56085716Y-27408557D01*
X56085716Y-27408557D02*
X56257145Y-27408557D01*
X56257145Y-27408557D02*
X56342859Y-27365700D01*
X56342859Y-27365700D02*
X56385716Y-27279985D01*
X56385716Y-27279985D02*
X56385716Y-27237128D01*
X56385716Y-27237128D02*
X56342859Y-27151414D01*
X56342859Y-27151414D02*
X56257145Y-27108557D01*
X56257145Y-27108557D02*
X56128574Y-27108557D01*
X56128574Y-27108557D02*
X56042859Y-27065700D01*
X56042859Y-27065700D02*
X56000002Y-26979985D01*
X56000002Y-26979985D02*
X56000002Y-26937128D01*
X56000002Y-26937128D02*
X56042859Y-26851414D01*
X56042859Y-26851414D02*
X56128574Y-26808557D01*
X56128574Y-26808557D02*
X56257145Y-26808557D01*
X56257145Y-26808557D02*
X56342859Y-26851414D01*
X56771430Y-27408557D02*
X56771430Y-26808557D01*
X56771430Y-26508557D02*
X56728573Y-26551414D01*
X56728573Y-26551414D02*
X56771430Y-26594271D01*
X56771430Y-26594271D02*
X56814287Y-26551414D01*
X56814287Y-26551414D02*
X56771430Y-26508557D01*
X56771430Y-26508557D02*
X56771430Y-26594271D01*
X57114287Y-26808557D02*
X57328573Y-27408557D01*
X57328573Y-27408557D02*
X57542858Y-26808557D01*
X58228572Y-27365700D02*
X58142858Y-27408557D01*
X58142858Y-27408557D02*
X57971430Y-27408557D01*
X57971430Y-27408557D02*
X57885715Y-27365700D01*
X57885715Y-27365700D02*
X57842858Y-27279985D01*
X57842858Y-27279985D02*
X57842858Y-26937128D01*
X57842858Y-26937128D02*
X57885715Y-26851414D01*
X57885715Y-26851414D02*
X57971430Y-26808557D01*
X57971430Y-26808557D02*
X58142858Y-26808557D01*
X58142858Y-26808557D02*
X58228572Y-26851414D01*
X58228572Y-26851414D02*
X58271430Y-26937128D01*
X58271430Y-26937128D02*
X58271430Y-27022842D01*
X58271430Y-27022842D02*
X57842858Y-27108557D01*
X45125000Y-87354985D02*
X45125000Y-87783557D01*
X44825000Y-86883557D02*
X45125000Y-87354985D01*
X45125000Y-87354985D02*
X45425000Y-86883557D01*
X49630356Y-106833557D02*
X49630356Y-105933557D01*
X49630356Y-106362128D02*
X50144642Y-106362128D01*
X50144642Y-106833557D02*
X50144642Y-105933557D01*
X54350000Y-67833557D02*
X54950000Y-67833557D01*
X54950000Y-67833557D02*
X54564286Y-68733557D01*
X59155357Y-125883557D02*
X59155357Y-124983557D01*
X59155357Y-124983557D02*
X59669643Y-125883557D01*
X59669643Y-125883557D02*
X59669643Y-124983557D01*
X59476785Y-144462128D02*
X59605357Y-144504985D01*
X59605357Y-144504985D02*
X59648214Y-144547842D01*
X59648214Y-144547842D02*
X59691071Y-144633557D01*
X59691071Y-144633557D02*
X59691071Y-144762128D01*
X59691071Y-144762128D02*
X59648214Y-144847842D01*
X59648214Y-144847842D02*
X59605357Y-144890700D01*
X59605357Y-144890700D02*
X59519642Y-144933557D01*
X59519642Y-144933557D02*
X59176785Y-144933557D01*
X59176785Y-144933557D02*
X59176785Y-144033557D01*
X59176785Y-144033557D02*
X59476785Y-144033557D01*
X59476785Y-144033557D02*
X59562500Y-144076414D01*
X59562500Y-144076414D02*
X59605357Y-144119271D01*
X59605357Y-144119271D02*
X59648214Y-144204985D01*
X59648214Y-144204985D02*
X59648214Y-144290700D01*
X59648214Y-144290700D02*
X59605357Y-144376414D01*
X59605357Y-144376414D02*
X59562500Y-144419271D01*
X59562500Y-144419271D02*
X59476785Y-144462128D01*
X59476785Y-144462128D02*
X59176785Y-144462128D01*
X63917857Y-86883557D02*
X63917857Y-87612128D01*
X63917857Y-87612128D02*
X63960714Y-87697842D01*
X63960714Y-87697842D02*
X64003572Y-87740700D01*
X64003572Y-87740700D02*
X64089286Y-87783557D01*
X64089286Y-87783557D02*
X64260714Y-87783557D01*
X64260714Y-87783557D02*
X64346429Y-87740700D01*
X64346429Y-87740700D02*
X64389286Y-87697842D01*
X64389286Y-87697842D02*
X64432143Y-87612128D01*
X64432143Y-87612128D02*
X64432143Y-86883557D01*
X69066071Y-105933557D02*
X69066071Y-106576414D01*
X69066071Y-106576414D02*
X69023214Y-106704985D01*
X69023214Y-106704985D02*
X68937500Y-106790700D01*
X68937500Y-106790700D02*
X68808928Y-106833557D01*
X68808928Y-106833557D02*
X68723214Y-106833557D01*
X73614285Y-68219271D02*
X73528570Y-68176414D01*
X73528570Y-68176414D02*
X73485713Y-68133557D01*
X73485713Y-68133557D02*
X73442856Y-68047842D01*
X73442856Y-68047842D02*
X73442856Y-68004985D01*
X73442856Y-68004985D02*
X73485713Y-67919271D01*
X73485713Y-67919271D02*
X73528570Y-67876414D01*
X73528570Y-67876414D02*
X73614285Y-67833557D01*
X73614285Y-67833557D02*
X73785713Y-67833557D01*
X73785713Y-67833557D02*
X73871428Y-67876414D01*
X73871428Y-67876414D02*
X73914285Y-67919271D01*
X73914285Y-67919271D02*
X73957142Y-68004985D01*
X73957142Y-68004985D02*
X73957142Y-68047842D01*
X73957142Y-68047842D02*
X73914285Y-68133557D01*
X73914285Y-68133557D02*
X73871428Y-68176414D01*
X73871428Y-68176414D02*
X73785713Y-68219271D01*
X73785713Y-68219271D02*
X73614285Y-68219271D01*
X73614285Y-68219271D02*
X73528570Y-68262128D01*
X73528570Y-68262128D02*
X73485713Y-68304985D01*
X73485713Y-68304985D02*
X73442856Y-68390700D01*
X73442856Y-68390700D02*
X73442856Y-68562128D01*
X73442856Y-68562128D02*
X73485713Y-68647842D01*
X73485713Y-68647842D02*
X73528570Y-68690700D01*
X73528570Y-68690700D02*
X73614285Y-68733557D01*
X73614285Y-68733557D02*
X73785713Y-68733557D01*
X73785713Y-68733557D02*
X73871428Y-68690700D01*
X73871428Y-68690700D02*
X73914285Y-68647842D01*
X73914285Y-68647842D02*
X73957142Y-68562128D01*
X73957142Y-68562128D02*
X73957142Y-68390700D01*
X73957142Y-68390700D02*
X73914285Y-68304985D01*
X73914285Y-68304985D02*
X73871428Y-68262128D01*
X73871428Y-68262128D02*
X73785713Y-68219271D01*
X78162499Y-125883557D02*
X78162499Y-124983557D01*
X78162499Y-124983557D02*
X78462499Y-125626414D01*
X78462499Y-125626414D02*
X78762499Y-124983557D01*
X78762499Y-124983557D02*
X78762499Y-125883557D01*
X76619641Y-144890700D02*
X76748213Y-144933557D01*
X76748213Y-144933557D02*
X76962498Y-144933557D01*
X76962498Y-144933557D02*
X77048213Y-144890700D01*
X77048213Y-144890700D02*
X77091070Y-144847842D01*
X77091070Y-144847842D02*
X77133927Y-144762128D01*
X77133927Y-144762128D02*
X77133927Y-144676414D01*
X77133927Y-144676414D02*
X77091070Y-144590700D01*
X77091070Y-144590700D02*
X77048213Y-144547842D01*
X77048213Y-144547842D02*
X76962498Y-144504985D01*
X76962498Y-144504985D02*
X76791070Y-144462128D01*
X76791070Y-144462128D02*
X76705355Y-144419271D01*
X76705355Y-144419271D02*
X76662498Y-144376414D01*
X76662498Y-144376414D02*
X76619641Y-144290700D01*
X76619641Y-144290700D02*
X76619641Y-144204985D01*
X76619641Y-144204985D02*
X76662498Y-144119271D01*
X76662498Y-144119271D02*
X76705355Y-144076414D01*
X76705355Y-144076414D02*
X76791070Y-144033557D01*
X76791070Y-144033557D02*
X77005355Y-144033557D01*
X77005355Y-144033557D02*
X77133927Y-144076414D01*
X77519641Y-144333557D02*
X77519641Y-145233557D01*
X77519641Y-144376414D02*
X77605356Y-144333557D01*
X77605356Y-144333557D02*
X77776784Y-144333557D01*
X77776784Y-144333557D02*
X77862498Y-144376414D01*
X77862498Y-144376414D02*
X77905356Y-144419271D01*
X77905356Y-144419271D02*
X77948213Y-144504985D01*
X77948213Y-144504985D02*
X77948213Y-144762128D01*
X77948213Y-144762128D02*
X77905356Y-144847842D01*
X77905356Y-144847842D02*
X77862498Y-144890700D01*
X77862498Y-144890700D02*
X77776784Y-144933557D01*
X77776784Y-144933557D02*
X77605356Y-144933557D01*
X77605356Y-144933557D02*
X77519641Y-144890700D01*
X78719642Y-144933557D02*
X78719642Y-144462128D01*
X78719642Y-144462128D02*
X78676784Y-144376414D01*
X78676784Y-144376414D02*
X78591070Y-144333557D01*
X78591070Y-144333557D02*
X78419642Y-144333557D01*
X78419642Y-144333557D02*
X78333927Y-144376414D01*
X78719642Y-144890700D02*
X78633927Y-144933557D01*
X78633927Y-144933557D02*
X78419642Y-144933557D01*
X78419642Y-144933557D02*
X78333927Y-144890700D01*
X78333927Y-144890700D02*
X78291070Y-144804985D01*
X78291070Y-144804985D02*
X78291070Y-144719271D01*
X78291070Y-144719271D02*
X78333927Y-144633557D01*
X78333927Y-144633557D02*
X78419642Y-144590700D01*
X78419642Y-144590700D02*
X78633927Y-144590700D01*
X78633927Y-144590700D02*
X78719642Y-144547842D01*
X79533928Y-144890700D02*
X79448213Y-144933557D01*
X79448213Y-144933557D02*
X79276785Y-144933557D01*
X79276785Y-144933557D02*
X79191070Y-144890700D01*
X79191070Y-144890700D02*
X79148213Y-144847842D01*
X79148213Y-144847842D02*
X79105356Y-144762128D01*
X79105356Y-144762128D02*
X79105356Y-144504985D01*
X79105356Y-144504985D02*
X79148213Y-144419271D01*
X79148213Y-144419271D02*
X79191070Y-144376414D01*
X79191070Y-144376414D02*
X79276785Y-144333557D01*
X79276785Y-144333557D02*
X79448213Y-144333557D01*
X79448213Y-144333557D02*
X79533928Y-144376414D01*
X80262499Y-144890700D02*
X80176785Y-144933557D01*
X80176785Y-144933557D02*
X80005357Y-144933557D01*
X80005357Y-144933557D02*
X79919642Y-144890700D01*
X79919642Y-144890700D02*
X79876785Y-144804985D01*
X79876785Y-144804985D02*
X79876785Y-144462128D01*
X79876785Y-144462128D02*
X79919642Y-144376414D01*
X79919642Y-144376414D02*
X80005357Y-144333557D01*
X80005357Y-144333557D02*
X80176785Y-144333557D01*
X80176785Y-144333557D02*
X80262499Y-144376414D01*
X80262499Y-144376414D02*
X80305357Y-144462128D01*
X80305357Y-144462128D02*
X80305357Y-144547842D01*
X80305357Y-144547842D02*
X79876785Y-144633557D01*
X83225000Y-87783557D02*
X83225000Y-86883557D01*
X87751785Y-106833557D02*
X87751785Y-105933557D01*
X88266071Y-106833557D02*
X87880357Y-106319271D01*
X88266071Y-105933557D02*
X87751785Y-106447842D01*
X92578570Y-68733557D02*
X92749999Y-68733557D01*
X92749999Y-68733557D02*
X92835713Y-68690700D01*
X92835713Y-68690700D02*
X92878570Y-68647842D01*
X92878570Y-68647842D02*
X92964285Y-68519271D01*
X92964285Y-68519271D02*
X93007142Y-68347842D01*
X93007142Y-68347842D02*
X93007142Y-68004985D01*
X93007142Y-68004985D02*
X92964285Y-67919271D01*
X92964285Y-67919271D02*
X92921428Y-67876414D01*
X92921428Y-67876414D02*
X92835713Y-67833557D01*
X92835713Y-67833557D02*
X92664285Y-67833557D01*
X92664285Y-67833557D02*
X92578570Y-67876414D01*
X92578570Y-67876414D02*
X92535713Y-67919271D01*
X92535713Y-67919271D02*
X92492856Y-68004985D01*
X92492856Y-68004985D02*
X92492856Y-68219271D01*
X92492856Y-68219271D02*
X92535713Y-68304985D01*
X92535713Y-68304985D02*
X92578570Y-68347842D01*
X92578570Y-68347842D02*
X92664285Y-68390700D01*
X92664285Y-68390700D02*
X92835713Y-68390700D01*
X92835713Y-68390700D02*
X92921428Y-68347842D01*
X92921428Y-68347842D02*
X92964285Y-68304985D01*
X92964285Y-68304985D02*
X93007142Y-68219271D01*
X97555356Y-125840700D02*
X97555356Y-125883557D01*
X97555356Y-125883557D02*
X97512499Y-125969271D01*
X97512499Y-125969271D02*
X97469642Y-126012128D01*
X95669641Y-144890700D02*
X95798213Y-144933557D01*
X95798213Y-144933557D02*
X96012498Y-144933557D01*
X96012498Y-144933557D02*
X96098213Y-144890700D01*
X96098213Y-144890700D02*
X96141070Y-144847842D01*
X96141070Y-144847842D02*
X96183927Y-144762128D01*
X96183927Y-144762128D02*
X96183927Y-144676414D01*
X96183927Y-144676414D02*
X96141070Y-144590700D01*
X96141070Y-144590700D02*
X96098213Y-144547842D01*
X96098213Y-144547842D02*
X96012498Y-144504985D01*
X96012498Y-144504985D02*
X95841070Y-144462128D01*
X95841070Y-144462128D02*
X95755355Y-144419271D01*
X95755355Y-144419271D02*
X95712498Y-144376414D01*
X95712498Y-144376414D02*
X95669641Y-144290700D01*
X95669641Y-144290700D02*
X95669641Y-144204985D01*
X95669641Y-144204985D02*
X95712498Y-144119271D01*
X95712498Y-144119271D02*
X95755355Y-144076414D01*
X95755355Y-144076414D02*
X95841070Y-144033557D01*
X95841070Y-144033557D02*
X96055355Y-144033557D01*
X96055355Y-144033557D02*
X96183927Y-144076414D01*
X96569641Y-144333557D02*
X96569641Y-145233557D01*
X96569641Y-144376414D02*
X96655356Y-144333557D01*
X96655356Y-144333557D02*
X96826784Y-144333557D01*
X96826784Y-144333557D02*
X96912498Y-144376414D01*
X96912498Y-144376414D02*
X96955356Y-144419271D01*
X96955356Y-144419271D02*
X96998213Y-144504985D01*
X96998213Y-144504985D02*
X96998213Y-144762128D01*
X96998213Y-144762128D02*
X96955356Y-144847842D01*
X96955356Y-144847842D02*
X96912498Y-144890700D01*
X96912498Y-144890700D02*
X96826784Y-144933557D01*
X96826784Y-144933557D02*
X96655356Y-144933557D01*
X96655356Y-144933557D02*
X96569641Y-144890700D01*
X97769642Y-144933557D02*
X97769642Y-144462128D01*
X97769642Y-144462128D02*
X97726784Y-144376414D01*
X97726784Y-144376414D02*
X97641070Y-144333557D01*
X97641070Y-144333557D02*
X97469642Y-144333557D01*
X97469642Y-144333557D02*
X97383927Y-144376414D01*
X97769642Y-144890700D02*
X97683927Y-144933557D01*
X97683927Y-144933557D02*
X97469642Y-144933557D01*
X97469642Y-144933557D02*
X97383927Y-144890700D01*
X97383927Y-144890700D02*
X97341070Y-144804985D01*
X97341070Y-144804985D02*
X97341070Y-144719271D01*
X97341070Y-144719271D02*
X97383927Y-144633557D01*
X97383927Y-144633557D02*
X97469642Y-144590700D01*
X97469642Y-144590700D02*
X97683927Y-144590700D01*
X97683927Y-144590700D02*
X97769642Y-144547842D01*
X98583928Y-144890700D02*
X98498213Y-144933557D01*
X98498213Y-144933557D02*
X98326785Y-144933557D01*
X98326785Y-144933557D02*
X98241070Y-144890700D01*
X98241070Y-144890700D02*
X98198213Y-144847842D01*
X98198213Y-144847842D02*
X98155356Y-144762128D01*
X98155356Y-144762128D02*
X98155356Y-144504985D01*
X98155356Y-144504985D02*
X98198213Y-144419271D01*
X98198213Y-144419271D02*
X98241070Y-144376414D01*
X98241070Y-144376414D02*
X98326785Y-144333557D01*
X98326785Y-144333557D02*
X98498213Y-144333557D01*
X98498213Y-144333557D02*
X98583928Y-144376414D01*
X99312499Y-144890700D02*
X99226785Y-144933557D01*
X99226785Y-144933557D02*
X99055357Y-144933557D01*
X99055357Y-144933557D02*
X98969642Y-144890700D01*
X98969642Y-144890700D02*
X98926785Y-144804985D01*
X98926785Y-144804985D02*
X98926785Y-144462128D01*
X98926785Y-144462128D02*
X98969642Y-144376414D01*
X98969642Y-144376414D02*
X99055357Y-144333557D01*
X99055357Y-144333557D02*
X99226785Y-144333557D01*
X99226785Y-144333557D02*
X99312499Y-144376414D01*
X99312499Y-144376414D02*
X99355357Y-144462128D01*
X99355357Y-144462128D02*
X99355357Y-144547842D01*
X99355357Y-144547842D02*
X98926785Y-144633557D01*
X102189285Y-86883557D02*
X102360713Y-86883557D01*
X102360713Y-86883557D02*
X102446428Y-86926414D01*
X102446428Y-86926414D02*
X102532142Y-87012128D01*
X102532142Y-87012128D02*
X102574999Y-87183557D01*
X102574999Y-87183557D02*
X102574999Y-87483557D01*
X102574999Y-87483557D02*
X102532142Y-87654985D01*
X102532142Y-87654985D02*
X102446428Y-87740700D01*
X102446428Y-87740700D02*
X102360713Y-87783557D01*
X102360713Y-87783557D02*
X102189285Y-87783557D01*
X102189285Y-87783557D02*
X102103571Y-87740700D01*
X102103571Y-87740700D02*
X102017856Y-87654985D01*
X102017856Y-87654985D02*
X101974999Y-87483557D01*
X101974999Y-87483557D02*
X101974999Y-87183557D01*
X101974999Y-87183557D02*
X102017856Y-87012128D01*
X102017856Y-87012128D02*
X102103571Y-86926414D01*
X102103571Y-86926414D02*
X102189285Y-86883557D01*
X107316072Y-106833557D02*
X106887500Y-106833557D01*
X106887500Y-106833557D02*
X106887500Y-105933557D01*
X111757143Y-67833557D02*
X111842857Y-67833557D01*
X111842857Y-67833557D02*
X111928571Y-67876414D01*
X111928571Y-67876414D02*
X111971429Y-67919271D01*
X111971429Y-67919271D02*
X112014286Y-68004985D01*
X112014286Y-68004985D02*
X112057143Y-68176414D01*
X112057143Y-68176414D02*
X112057143Y-68390700D01*
X112057143Y-68390700D02*
X112014286Y-68562128D01*
X112014286Y-68562128D02*
X111971429Y-68647842D01*
X111971429Y-68647842D02*
X111928571Y-68690700D01*
X111928571Y-68690700D02*
X111842857Y-68733557D01*
X111842857Y-68733557D02*
X111757143Y-68733557D01*
X111757143Y-68733557D02*
X111671429Y-68690700D01*
X111671429Y-68690700D02*
X111628571Y-68647842D01*
X111628571Y-68647842D02*
X111585714Y-68562128D01*
X111585714Y-68562128D02*
X111542857Y-68390700D01*
X111542857Y-68390700D02*
X111542857Y-68176414D01*
X111542857Y-68176414D02*
X111585714Y-68004985D01*
X111585714Y-68004985D02*
X111628571Y-67919271D01*
X111628571Y-67919271D02*
X111671429Y-67876414D01*
X111671429Y-67876414D02*
X111757143Y-67833557D01*
X116562499Y-125797842D02*
X116605356Y-125840700D01*
X116605356Y-125840700D02*
X116562499Y-125883557D01*
X116562499Y-125883557D02*
X116519642Y-125840700D01*
X116519642Y-125840700D02*
X116562499Y-125797842D01*
X116562499Y-125797842D02*
X116562499Y-125883557D01*
X115962498Y-144933557D02*
X115662498Y-144504985D01*
X115448212Y-144933557D02*
X115448212Y-144033557D01*
X115448212Y-144033557D02*
X115791069Y-144033557D01*
X115791069Y-144033557D02*
X115876784Y-144076414D01*
X115876784Y-144076414D02*
X115919641Y-144119271D01*
X115919641Y-144119271D02*
X115962498Y-144204985D01*
X115962498Y-144204985D02*
X115962498Y-144333557D01*
X115962498Y-144333557D02*
X115919641Y-144419271D01*
X115919641Y-144419271D02*
X115876784Y-144462128D01*
X115876784Y-144462128D02*
X115791069Y-144504985D01*
X115791069Y-144504985D02*
X115448212Y-144504985D01*
X116305355Y-144676414D02*
X116733927Y-144676414D01*
X116219641Y-144933557D02*
X116519641Y-144033557D01*
X116519641Y-144033557D02*
X116819641Y-144933557D01*
X117248213Y-144933557D02*
X117162498Y-144890700D01*
X117162498Y-144890700D02*
X117119641Y-144804985D01*
X117119641Y-144804985D02*
X117119641Y-144033557D01*
X117462499Y-144333557D02*
X117805356Y-144333557D01*
X117591070Y-144033557D02*
X117591070Y-144804985D01*
X117591070Y-144804985D02*
X117633927Y-144890700D01*
X117633927Y-144890700D02*
X117719642Y-144933557D01*
X117719642Y-144933557D02*
X117805356Y-144933557D01*
X121089284Y-87783557D02*
X121089284Y-86883557D01*
X121089284Y-86883557D02*
X121432141Y-86883557D01*
X121432141Y-86883557D02*
X121517856Y-86926414D01*
X121517856Y-86926414D02*
X121560713Y-86969271D01*
X121560713Y-86969271D02*
X121603570Y-87054985D01*
X121603570Y-87054985D02*
X121603570Y-87183557D01*
X121603570Y-87183557D02*
X121560713Y-87269271D01*
X121560713Y-87269271D02*
X121517856Y-87312128D01*
X121517856Y-87312128D02*
X121432141Y-87354985D01*
X121432141Y-87354985D02*
X121089284Y-87354985D01*
X126130357Y-106790700D02*
X126130357Y-106833557D01*
X126130357Y-106833557D02*
X126087500Y-106919271D01*
X126087500Y-106919271D02*
X126044643Y-106962128D01*
X126087500Y-106276414D02*
X126130357Y-106319271D01*
X126130357Y-106319271D02*
X126087500Y-106362128D01*
X126087500Y-106362128D02*
X126044643Y-106319271D01*
X126044643Y-106319271D02*
X126087500Y-106276414D01*
X126087500Y-106276414D02*
X126087500Y-106362128D01*
X130507142Y-68390700D02*
X131192857Y-68390700D01*
X135998213Y-124940700D02*
X135226785Y-126097842D01*
X135333927Y-144462128D02*
X135033927Y-144462128D01*
X135033927Y-144933557D02*
X135033927Y-144033557D01*
X135033927Y-144033557D02*
X135462499Y-144033557D01*
X135805356Y-144333557D02*
X135805356Y-144933557D01*
X135805356Y-144419271D02*
X135848213Y-144376414D01*
X135848213Y-144376414D02*
X135933928Y-144333557D01*
X135933928Y-144333557D02*
X136062499Y-144333557D01*
X136062499Y-144333557D02*
X136148213Y-144376414D01*
X136148213Y-144376414D02*
X136191071Y-144462128D01*
X136191071Y-144462128D02*
X136191071Y-144933557D01*
X140546428Y-88083557D02*
X140332142Y-88083557D01*
X140332142Y-88083557D02*
X140332142Y-86797842D01*
X140332142Y-86797842D02*
X140546428Y-86797842D01*
X145180357Y-105933557D02*
X145094643Y-106104985D01*
X149557142Y-68262128D02*
X150242857Y-68262128D01*
X150242857Y-68519271D02*
X149557142Y-68519271D01*
X153376785Y-125883557D02*
X153076785Y-125454985D01*
X152862499Y-125883557D02*
X152862499Y-124983557D01*
X152862499Y-124983557D02*
X153205356Y-124983557D01*
X153205356Y-124983557D02*
X153291071Y-125026414D01*
X153291071Y-125026414D02*
X153333928Y-125069271D01*
X153333928Y-125069271D02*
X153376785Y-125154985D01*
X153376785Y-125154985D02*
X153376785Y-125283557D01*
X153376785Y-125283557D02*
X153333928Y-125369271D01*
X153333928Y-125369271D02*
X153291071Y-125412128D01*
X153291071Y-125412128D02*
X153205356Y-125454985D01*
X153205356Y-125454985D02*
X152862499Y-125454985D01*
X153719642Y-125840700D02*
X153848214Y-125883557D01*
X153848214Y-125883557D02*
X154062499Y-125883557D01*
X154062499Y-125883557D02*
X154148214Y-125840700D01*
X154148214Y-125840700D02*
X154191071Y-125797842D01*
X154191071Y-125797842D02*
X154233928Y-125712128D01*
X154233928Y-125712128D02*
X154233928Y-125626414D01*
X154233928Y-125626414D02*
X154191071Y-125540700D01*
X154191071Y-125540700D02*
X154148214Y-125497842D01*
X154148214Y-125497842D02*
X154062499Y-125454985D01*
X154062499Y-125454985D02*
X153891071Y-125412128D01*
X153891071Y-125412128D02*
X153805356Y-125369271D01*
X153805356Y-125369271D02*
X153762499Y-125326414D01*
X153762499Y-125326414D02*
X153719642Y-125240700D01*
X153719642Y-125240700D02*
X153719642Y-125154985D01*
X153719642Y-125154985D02*
X153762499Y-125069271D01*
X153762499Y-125069271D02*
X153805356Y-125026414D01*
X153805356Y-125026414D02*
X153891071Y-124983557D01*
X153891071Y-124983557D02*
X154105356Y-124983557D01*
X154105356Y-124983557D02*
X154233928Y-125026414D01*
X154619642Y-125883557D02*
X154619642Y-124983557D01*
X155005357Y-125883557D02*
X155005357Y-125412128D01*
X155005357Y-125412128D02*
X154962499Y-125326414D01*
X154962499Y-125326414D02*
X154876785Y-125283557D01*
X154876785Y-125283557D02*
X154748214Y-125283557D01*
X154748214Y-125283557D02*
X154662499Y-125326414D01*
X154662499Y-125326414D02*
X154619642Y-125369271D01*
X155433928Y-125883557D02*
X155433928Y-125283557D01*
X155433928Y-124983557D02*
X155391071Y-125026414D01*
X155391071Y-125026414D02*
X155433928Y-125069271D01*
X155433928Y-125069271D02*
X155476785Y-125026414D01*
X155476785Y-125026414D02*
X155433928Y-124983557D01*
X155433928Y-124983557D02*
X155433928Y-125069271D01*
X155733928Y-125283557D02*
X156076785Y-125283557D01*
X155862499Y-125883557D02*
X155862499Y-125112128D01*
X155862499Y-125112128D02*
X155905356Y-125026414D01*
X155905356Y-125026414D02*
X155991071Y-124983557D01*
X155991071Y-124983557D02*
X156076785Y-124983557D01*
X156248214Y-125283557D02*
X156591071Y-125283557D01*
X156376785Y-124983557D02*
X156376785Y-125754985D01*
X156376785Y-125754985D02*
X156419642Y-125840700D01*
X156419642Y-125840700D02*
X156505357Y-125883557D01*
X156505357Y-125883557D02*
X156591071Y-125883557D01*
X153719642Y-144933557D02*
X153419642Y-144504985D01*
X153205356Y-144933557D02*
X153205356Y-144033557D01*
X153205356Y-144033557D02*
X153548213Y-144033557D01*
X153548213Y-144033557D02*
X153633928Y-144076414D01*
X153633928Y-144076414D02*
X153676785Y-144119271D01*
X153676785Y-144119271D02*
X153719642Y-144204985D01*
X153719642Y-144204985D02*
X153719642Y-144333557D01*
X153719642Y-144333557D02*
X153676785Y-144419271D01*
X153676785Y-144419271D02*
X153633928Y-144462128D01*
X153633928Y-144462128D02*
X153548213Y-144504985D01*
X153548213Y-144504985D02*
X153205356Y-144504985D01*
X154619642Y-144847842D02*
X154576785Y-144890700D01*
X154576785Y-144890700D02*
X154448213Y-144933557D01*
X154448213Y-144933557D02*
X154362499Y-144933557D01*
X154362499Y-144933557D02*
X154233928Y-144890700D01*
X154233928Y-144890700D02*
X154148213Y-144804985D01*
X154148213Y-144804985D02*
X154105356Y-144719271D01*
X154105356Y-144719271D02*
X154062499Y-144547842D01*
X154062499Y-144547842D02*
X154062499Y-144419271D01*
X154062499Y-144419271D02*
X154105356Y-144247842D01*
X154105356Y-144247842D02*
X154148213Y-144162128D01*
X154148213Y-144162128D02*
X154233928Y-144076414D01*
X154233928Y-144076414D02*
X154362499Y-144033557D01*
X154362499Y-144033557D02*
X154448213Y-144033557D01*
X154448213Y-144033557D02*
X154576785Y-144076414D01*
X154576785Y-144076414D02*
X154619642Y-144119271D01*
X154876785Y-144333557D02*
X155219642Y-144333557D01*
X155005356Y-144033557D02*
X155005356Y-144804985D01*
X155005356Y-144804985D02*
X155048213Y-144890700D01*
X155048213Y-144890700D02*
X155133928Y-144933557D01*
X155133928Y-144933557D02*
X155219642Y-144933557D01*
X155519642Y-144933557D02*
X155519642Y-144333557D01*
X155519642Y-144504985D02*
X155562499Y-144419271D01*
X155562499Y-144419271D02*
X155605357Y-144376414D01*
X155605357Y-144376414D02*
X155691071Y-144333557D01*
X155691071Y-144333557D02*
X155776785Y-144333557D01*
X156205357Y-144933557D02*
X156119642Y-144890700D01*
X156119642Y-144890700D02*
X156076785Y-144804985D01*
X156076785Y-144804985D02*
X156076785Y-144033557D01*
X159253570Y-88083557D02*
X159467856Y-88083557D01*
X159467856Y-88083557D02*
X159467856Y-86797842D01*
X159467856Y-86797842D02*
X159253570Y-86797842D01*
X162666070Y-106362128D02*
X162966070Y-106362128D01*
X163094642Y-106833557D02*
X162666070Y-106833557D01*
X162666070Y-106833557D02*
X162666070Y-105933557D01*
X162666070Y-105933557D02*
X163094642Y-105933557D01*
X163480356Y-106233557D02*
X163480356Y-106833557D01*
X163480356Y-106319271D02*
X163523213Y-106276414D01*
X163523213Y-106276414D02*
X163608928Y-106233557D01*
X163608928Y-106233557D02*
X163737499Y-106233557D01*
X163737499Y-106233557D02*
X163823213Y-106276414D01*
X163823213Y-106276414D02*
X163866071Y-106362128D01*
X163866071Y-106362128D02*
X163866071Y-106833557D01*
X164166071Y-106233557D02*
X164508928Y-106233557D01*
X164294642Y-105933557D02*
X164294642Y-106704985D01*
X164294642Y-106704985D02*
X164337499Y-106790700D01*
X164337499Y-106790700D02*
X164423214Y-106833557D01*
X164423214Y-106833557D02*
X164508928Y-106833557D01*
X165151785Y-106790700D02*
X165066071Y-106833557D01*
X165066071Y-106833557D02*
X164894643Y-106833557D01*
X164894643Y-106833557D02*
X164808928Y-106790700D01*
X164808928Y-106790700D02*
X164766071Y-106704985D01*
X164766071Y-106704985D02*
X164766071Y-106362128D01*
X164766071Y-106362128D02*
X164808928Y-106276414D01*
X164808928Y-106276414D02*
X164894643Y-106233557D01*
X164894643Y-106233557D02*
X165066071Y-106233557D01*
X165066071Y-106233557D02*
X165151785Y-106276414D01*
X165151785Y-106276414D02*
X165194643Y-106362128D01*
X165194643Y-106362128D02*
X165194643Y-106447842D01*
X165194643Y-106447842D02*
X164766071Y-106533557D01*
X165580357Y-106833557D02*
X165580357Y-106233557D01*
X165580357Y-106404985D02*
X165623214Y-106319271D01*
X165623214Y-106319271D02*
X165666072Y-106276414D01*
X165666072Y-106276414D02*
X165751786Y-106233557D01*
X165751786Y-106233557D02*
X165837500Y-106233557D01*
X167685714Y-68262128D02*
X167814286Y-68304985D01*
X167814286Y-68304985D02*
X167857143Y-68347842D01*
X167857143Y-68347842D02*
X167900000Y-68433557D01*
X167900000Y-68433557D02*
X167900000Y-68562128D01*
X167900000Y-68562128D02*
X167857143Y-68647842D01*
X167857143Y-68647842D02*
X167814286Y-68690700D01*
X167814286Y-68690700D02*
X167728571Y-68733557D01*
X167728571Y-68733557D02*
X167385714Y-68733557D01*
X167385714Y-68733557D02*
X167385714Y-67833557D01*
X167385714Y-67833557D02*
X167685714Y-67833557D01*
X167685714Y-67833557D02*
X167771429Y-67876414D01*
X167771429Y-67876414D02*
X167814286Y-67919271D01*
X167814286Y-67919271D02*
X167857143Y-68004985D01*
X167857143Y-68004985D02*
X167857143Y-68090700D01*
X167857143Y-68090700D02*
X167814286Y-68176414D01*
X167814286Y-68176414D02*
X167771429Y-68219271D01*
X167771429Y-68219271D02*
X167685714Y-68262128D01*
X167685714Y-68262128D02*
X167385714Y-68262128D01*
X168242857Y-68690700D02*
X168371429Y-68733557D01*
X168371429Y-68733557D02*
X168585714Y-68733557D01*
X168585714Y-68733557D02*
X168671429Y-68690700D01*
X168671429Y-68690700D02*
X168714286Y-68647842D01*
X168714286Y-68647842D02*
X168757143Y-68562128D01*
X168757143Y-68562128D02*
X168757143Y-68476414D01*
X168757143Y-68476414D02*
X168714286Y-68390700D01*
X168714286Y-68390700D02*
X168671429Y-68347842D01*
X168671429Y-68347842D02*
X168585714Y-68304985D01*
X168585714Y-68304985D02*
X168414286Y-68262128D01*
X168414286Y-68262128D02*
X168328571Y-68219271D01*
X168328571Y-68219271D02*
X168285714Y-68176414D01*
X168285714Y-68176414D02*
X168242857Y-68090700D01*
X168242857Y-68090700D02*
X168242857Y-68004985D01*
X168242857Y-68004985D02*
X168285714Y-67919271D01*
X168285714Y-67919271D02*
X168328571Y-67876414D01*
X168328571Y-67876414D02*
X168414286Y-67833557D01*
X168414286Y-67833557D02*
X168628571Y-67833557D01*
X168628571Y-67833557D02*
X168757143Y-67876414D01*
X169142857Y-68733557D02*
X169142857Y-67833557D01*
X169142857Y-67833557D02*
X169485714Y-67833557D01*
X169485714Y-67833557D02*
X169571429Y-67876414D01*
X169571429Y-67876414D02*
X169614286Y-67919271D01*
X169614286Y-67919271D02*
X169657143Y-68004985D01*
X169657143Y-68004985D02*
X169657143Y-68133557D01*
X169657143Y-68133557D02*
X169614286Y-68219271D01*
X169614286Y-68219271D02*
X169571429Y-68262128D01*
X169571429Y-68262128D02*
X169485714Y-68304985D01*
X169485714Y-68304985D02*
X169142857Y-68304985D01*
X170557143Y-68647842D02*
X170514286Y-68690700D01*
X170514286Y-68690700D02*
X170385714Y-68733557D01*
X170385714Y-68733557D02*
X170300000Y-68733557D01*
X170300000Y-68733557D02*
X170171429Y-68690700D01*
X170171429Y-68690700D02*
X170085714Y-68604985D01*
X170085714Y-68604985D02*
X170042857Y-68519271D01*
X170042857Y-68519271D02*
X170000000Y-68347842D01*
X170000000Y-68347842D02*
X170000000Y-68219271D01*
X170000000Y-68219271D02*
X170042857Y-68047842D01*
X170042857Y-68047842D02*
X170085714Y-67962128D01*
X170085714Y-67962128D02*
X170171429Y-67876414D01*
X170171429Y-67876414D02*
X170300000Y-67833557D01*
X170300000Y-67833557D02*
X170385714Y-67833557D01*
X170385714Y-67833557D02*
X170514286Y-67876414D01*
X170514286Y-67876414D02*
X170557143Y-67919271D01*
X173433928Y-125412128D02*
X173133928Y-125412128D01*
X173133928Y-125883557D02*
X173133928Y-124983557D01*
X173133928Y-124983557D02*
X173562500Y-124983557D01*
X173905357Y-125283557D02*
X173905357Y-125883557D01*
X173905357Y-125369271D02*
X173948214Y-125326414D01*
X173948214Y-125326414D02*
X174033929Y-125283557D01*
X174033929Y-125283557D02*
X174162500Y-125283557D01*
X174162500Y-125283557D02*
X174248214Y-125326414D01*
X174248214Y-125326414D02*
X174291072Y-125412128D01*
X174291072Y-125412128D02*
X174291072Y-125883557D01*
X173091071Y-144933557D02*
X172662499Y-144933557D01*
X172662499Y-144933557D02*
X172662499Y-144033557D01*
X173733927Y-144890700D02*
X173648213Y-144933557D01*
X173648213Y-144933557D02*
X173476785Y-144933557D01*
X173476785Y-144933557D02*
X173391070Y-144890700D01*
X173391070Y-144890700D02*
X173348213Y-144804985D01*
X173348213Y-144804985D02*
X173348213Y-144462128D01*
X173348213Y-144462128D02*
X173391070Y-144376414D01*
X173391070Y-144376414D02*
X173476785Y-144333557D01*
X173476785Y-144333557D02*
X173648213Y-144333557D01*
X173648213Y-144333557D02*
X173733927Y-144376414D01*
X173733927Y-144376414D02*
X173776785Y-144462128D01*
X173776785Y-144462128D02*
X173776785Y-144547842D01*
X173776785Y-144547842D02*
X173348213Y-144633557D01*
X174033928Y-144333557D02*
X174376785Y-144333557D01*
X174162499Y-144933557D02*
X174162499Y-144162128D01*
X174162499Y-144162128D02*
X174205356Y-144076414D01*
X174205356Y-144076414D02*
X174291071Y-144033557D01*
X174291071Y-144033557D02*
X174376785Y-144033557D01*
X174548214Y-144333557D02*
X174891071Y-144333557D01*
X174676785Y-144033557D02*
X174676785Y-144804985D01*
X174676785Y-144804985D02*
X174719642Y-144890700D01*
X174719642Y-144890700D02*
X174805357Y-144933557D01*
X174805357Y-144933557D02*
X174891071Y-144933557D01*
X185233035Y-86797842D02*
X186004464Y-87954985D01*
X186478570Y-106362128D02*
X186778570Y-106362128D01*
X186907142Y-106833557D02*
X186478570Y-106833557D01*
X186478570Y-106833557D02*
X186478570Y-105933557D01*
X186478570Y-105933557D02*
X186907142Y-105933557D01*
X187292856Y-106233557D02*
X187292856Y-106833557D01*
X187292856Y-106319271D02*
X187335713Y-106276414D01*
X187335713Y-106276414D02*
X187421428Y-106233557D01*
X187421428Y-106233557D02*
X187549999Y-106233557D01*
X187549999Y-106233557D02*
X187635713Y-106276414D01*
X187635713Y-106276414D02*
X187678571Y-106362128D01*
X187678571Y-106362128D02*
X187678571Y-106833557D01*
X187978571Y-106233557D02*
X188321428Y-106233557D01*
X188107142Y-105933557D02*
X188107142Y-106704985D01*
X188107142Y-106704985D02*
X188149999Y-106790700D01*
X188149999Y-106790700D02*
X188235714Y-106833557D01*
X188235714Y-106833557D02*
X188321428Y-106833557D01*
X188964285Y-106790700D02*
X188878571Y-106833557D01*
X188878571Y-106833557D02*
X188707143Y-106833557D01*
X188707143Y-106833557D02*
X188621428Y-106790700D01*
X188621428Y-106790700D02*
X188578571Y-106704985D01*
X188578571Y-106704985D02*
X188578571Y-106362128D01*
X188578571Y-106362128D02*
X188621428Y-106276414D01*
X188621428Y-106276414D02*
X188707143Y-106233557D01*
X188707143Y-106233557D02*
X188878571Y-106233557D01*
X188878571Y-106233557D02*
X188964285Y-106276414D01*
X188964285Y-106276414D02*
X189007143Y-106362128D01*
X189007143Y-106362128D02*
X189007143Y-106447842D01*
X189007143Y-106447842D02*
X188578571Y-106533557D01*
X189392857Y-106833557D02*
X189392857Y-106233557D01*
X189392857Y-106404985D02*
X189435714Y-106319271D01*
X189435714Y-106319271D02*
X189478572Y-106276414D01*
X189478572Y-106276414D02*
X189564286Y-106233557D01*
X189564286Y-106233557D02*
X189650000Y-106233557D01*
X189116964Y-68262128D02*
X189245536Y-68304985D01*
X189245536Y-68304985D02*
X189288393Y-68347842D01*
X189288393Y-68347842D02*
X189331250Y-68433557D01*
X189331250Y-68433557D02*
X189331250Y-68562128D01*
X189331250Y-68562128D02*
X189288393Y-68647842D01*
X189288393Y-68647842D02*
X189245536Y-68690700D01*
X189245536Y-68690700D02*
X189159821Y-68733557D01*
X189159821Y-68733557D02*
X188816964Y-68733557D01*
X188816964Y-68733557D02*
X188816964Y-67833557D01*
X188816964Y-67833557D02*
X189116964Y-67833557D01*
X189116964Y-67833557D02*
X189202679Y-67876414D01*
X189202679Y-67876414D02*
X189245536Y-67919271D01*
X189245536Y-67919271D02*
X189288393Y-68004985D01*
X189288393Y-68004985D02*
X189288393Y-68090700D01*
X189288393Y-68090700D02*
X189245536Y-68176414D01*
X189245536Y-68176414D02*
X189202679Y-68219271D01*
X189202679Y-68219271D02*
X189116964Y-68262128D01*
X189116964Y-68262128D02*
X188816964Y-68262128D01*
X189674107Y-68690700D02*
X189802679Y-68733557D01*
X189802679Y-68733557D02*
X190016964Y-68733557D01*
X190016964Y-68733557D02*
X190102679Y-68690700D01*
X190102679Y-68690700D02*
X190145536Y-68647842D01*
X190145536Y-68647842D02*
X190188393Y-68562128D01*
X190188393Y-68562128D02*
X190188393Y-68476414D01*
X190188393Y-68476414D02*
X190145536Y-68390700D01*
X190145536Y-68390700D02*
X190102679Y-68347842D01*
X190102679Y-68347842D02*
X190016964Y-68304985D01*
X190016964Y-68304985D02*
X189845536Y-68262128D01*
X189845536Y-68262128D02*
X189759821Y-68219271D01*
X189759821Y-68219271D02*
X189716964Y-68176414D01*
X189716964Y-68176414D02*
X189674107Y-68090700D01*
X189674107Y-68090700D02*
X189674107Y-68004985D01*
X189674107Y-68004985D02*
X189716964Y-67919271D01*
X189716964Y-67919271D02*
X189759821Y-67876414D01*
X189759821Y-67876414D02*
X189845536Y-67833557D01*
X189845536Y-67833557D02*
X190059821Y-67833557D01*
X190059821Y-67833557D02*
X190188393Y-67876414D01*
X190574107Y-68733557D02*
X190574107Y-67833557D01*
X190574107Y-67833557D02*
X190916964Y-67833557D01*
X190916964Y-67833557D02*
X191002679Y-67876414D01*
X191002679Y-67876414D02*
X191045536Y-67919271D01*
X191045536Y-67919271D02*
X191088393Y-68004985D01*
X191088393Y-68004985D02*
X191088393Y-68133557D01*
X191088393Y-68133557D02*
X191045536Y-68219271D01*
X191045536Y-68219271D02*
X191002679Y-68262128D01*
X191002679Y-68262128D02*
X190916964Y-68304985D01*
X190916964Y-68304985D02*
X190574107Y-68304985D01*
X191988393Y-68647842D02*
X191945536Y-68690700D01*
X191945536Y-68690700D02*
X191816964Y-68733557D01*
X191816964Y-68733557D02*
X191731250Y-68733557D01*
X191731250Y-68733557D02*
X191602679Y-68690700D01*
X191602679Y-68690700D02*
X191516964Y-68604985D01*
X191516964Y-68604985D02*
X191474107Y-68519271D01*
X191474107Y-68519271D02*
X191431250Y-68347842D01*
X191431250Y-68347842D02*
X191431250Y-68219271D01*
X191431250Y-68219271D02*
X191474107Y-68047842D01*
X191474107Y-68047842D02*
X191516964Y-67962128D01*
X191516964Y-67962128D02*
X191602679Y-67876414D01*
X191602679Y-67876414D02*
X191731250Y-67833557D01*
X191731250Y-67833557D02*
X191816964Y-67833557D01*
X191816964Y-67833557D02*
X191945536Y-67876414D01*
X191945536Y-67876414D02*
X191988393Y-67919271D01*
X192098214Y-124983557D02*
X192098214Y-125712128D01*
X192098214Y-125712128D02*
X192141071Y-125797842D01*
X192141071Y-125797842D02*
X192183929Y-125840700D01*
X192183929Y-125840700D02*
X192269643Y-125883557D01*
X192269643Y-125883557D02*
X192441071Y-125883557D01*
X192441071Y-125883557D02*
X192526786Y-125840700D01*
X192526786Y-125840700D02*
X192569643Y-125797842D01*
X192569643Y-125797842D02*
X192612500Y-125712128D01*
X192612500Y-125712128D02*
X192612500Y-124983557D01*
X193041071Y-125283557D02*
X193041071Y-126183557D01*
X193041071Y-125326414D02*
X193126786Y-125283557D01*
X193126786Y-125283557D02*
X193298214Y-125283557D01*
X193298214Y-125283557D02*
X193383928Y-125326414D01*
X193383928Y-125326414D02*
X193426786Y-125369271D01*
X193426786Y-125369271D02*
X193469643Y-125454985D01*
X193469643Y-125454985D02*
X193469643Y-125712128D01*
X193469643Y-125712128D02*
X193426786Y-125797842D01*
X193426786Y-125797842D02*
X193383928Y-125840700D01*
X193383928Y-125840700D02*
X193298214Y-125883557D01*
X193298214Y-125883557D02*
X193126786Y-125883557D01*
X193126786Y-125883557D02*
X193041071Y-125840700D01*
X191241071Y-144933557D02*
X191241071Y-144033557D01*
X191241071Y-144033557D02*
X191455357Y-144033557D01*
X191455357Y-144033557D02*
X191583928Y-144076414D01*
X191583928Y-144076414D02*
X191669643Y-144162128D01*
X191669643Y-144162128D02*
X191712500Y-144247842D01*
X191712500Y-144247842D02*
X191755357Y-144419271D01*
X191755357Y-144419271D02*
X191755357Y-144547842D01*
X191755357Y-144547842D02*
X191712500Y-144719271D01*
X191712500Y-144719271D02*
X191669643Y-144804985D01*
X191669643Y-144804985D02*
X191583928Y-144890700D01*
X191583928Y-144890700D02*
X191455357Y-144933557D01*
X191455357Y-144933557D02*
X191241071Y-144933557D01*
X192269643Y-144933557D02*
X192183928Y-144890700D01*
X192183928Y-144890700D02*
X192141071Y-144847842D01*
X192141071Y-144847842D02*
X192098214Y-144762128D01*
X192098214Y-144762128D02*
X192098214Y-144504985D01*
X192098214Y-144504985D02*
X192141071Y-144419271D01*
X192141071Y-144419271D02*
X192183928Y-144376414D01*
X192183928Y-144376414D02*
X192269643Y-144333557D01*
X192269643Y-144333557D02*
X192398214Y-144333557D01*
X192398214Y-144333557D02*
X192483928Y-144376414D01*
X192483928Y-144376414D02*
X192526786Y-144419271D01*
X192526786Y-144419271D02*
X192569643Y-144504985D01*
X192569643Y-144504985D02*
X192569643Y-144762128D01*
X192569643Y-144762128D02*
X192526786Y-144847842D01*
X192526786Y-144847842D02*
X192483928Y-144890700D01*
X192483928Y-144890700D02*
X192398214Y-144933557D01*
X192398214Y-144933557D02*
X192269643Y-144933557D01*
X192869643Y-144333557D02*
X193041072Y-144933557D01*
X193041072Y-144933557D02*
X193212500Y-144504985D01*
X193212500Y-144504985D02*
X193383929Y-144933557D01*
X193383929Y-144933557D02*
X193555357Y-144333557D01*
X193898214Y-144333557D02*
X193898214Y-144933557D01*
X193898214Y-144419271D02*
X193941071Y-144376414D01*
X193941071Y-144376414D02*
X194026786Y-144333557D01*
X194026786Y-144333557D02*
X194155357Y-144333557D01*
X194155357Y-144333557D02*
X194241071Y-144376414D01*
X194241071Y-144376414D02*
X194283929Y-144462128D01*
X194283929Y-144462128D02*
X194283929Y-144933557D01*
X210955356Y-68733557D02*
X210955356Y-67833557D01*
X210955356Y-67833557D02*
X211169642Y-67833557D01*
X211169642Y-67833557D02*
X211298213Y-67876414D01*
X211298213Y-67876414D02*
X211383928Y-67962128D01*
X211383928Y-67962128D02*
X211426785Y-68047842D01*
X211426785Y-68047842D02*
X211469642Y-68219271D01*
X211469642Y-68219271D02*
X211469642Y-68347842D01*
X211469642Y-68347842D02*
X211426785Y-68519271D01*
X211426785Y-68519271D02*
X211383928Y-68604985D01*
X211383928Y-68604985D02*
X211298213Y-68690700D01*
X211298213Y-68690700D02*
X211169642Y-68733557D01*
X211169642Y-68733557D02*
X210955356Y-68733557D01*
X212198213Y-68690700D02*
X212112499Y-68733557D01*
X212112499Y-68733557D02*
X211941071Y-68733557D01*
X211941071Y-68733557D02*
X211855356Y-68690700D01*
X211855356Y-68690700D02*
X211812499Y-68604985D01*
X211812499Y-68604985D02*
X211812499Y-68262128D01*
X211812499Y-68262128D02*
X211855356Y-68176414D01*
X211855356Y-68176414D02*
X211941071Y-68133557D01*
X211941071Y-68133557D02*
X212112499Y-68133557D01*
X212112499Y-68133557D02*
X212198213Y-68176414D01*
X212198213Y-68176414D02*
X212241071Y-68262128D01*
X212241071Y-68262128D02*
X212241071Y-68347842D01*
X212241071Y-68347842D02*
X211812499Y-68433557D01*
X212755357Y-68733557D02*
X212669642Y-68690700D01*
X212669642Y-68690700D02*
X212626785Y-68604985D01*
X212626785Y-68604985D02*
X212626785Y-67833557D01*
X210162499Y-87783557D02*
X210162499Y-86883557D01*
X210162499Y-87312128D02*
X210676785Y-87312128D01*
X210676785Y-87783557D02*
X210676785Y-86883557D01*
X211233928Y-87783557D02*
X211148213Y-87740700D01*
X211148213Y-87740700D02*
X211105356Y-87697842D01*
X211105356Y-87697842D02*
X211062499Y-87612128D01*
X211062499Y-87612128D02*
X211062499Y-87354985D01*
X211062499Y-87354985D02*
X211105356Y-87269271D01*
X211105356Y-87269271D02*
X211148213Y-87226414D01*
X211148213Y-87226414D02*
X211233928Y-87183557D01*
X211233928Y-87183557D02*
X211362499Y-87183557D01*
X211362499Y-87183557D02*
X211448213Y-87226414D01*
X211448213Y-87226414D02*
X211491071Y-87269271D01*
X211491071Y-87269271D02*
X211533928Y-87354985D01*
X211533928Y-87354985D02*
X211533928Y-87612128D01*
X211533928Y-87612128D02*
X211491071Y-87697842D01*
X211491071Y-87697842D02*
X211448213Y-87740700D01*
X211448213Y-87740700D02*
X211362499Y-87783557D01*
X211362499Y-87783557D02*
X211233928Y-87783557D01*
X211919642Y-87783557D02*
X211919642Y-87183557D01*
X211919642Y-87269271D02*
X211962499Y-87226414D01*
X211962499Y-87226414D02*
X212048214Y-87183557D01*
X212048214Y-87183557D02*
X212176785Y-87183557D01*
X212176785Y-87183557D02*
X212262499Y-87226414D01*
X212262499Y-87226414D02*
X212305357Y-87312128D01*
X212305357Y-87312128D02*
X212305357Y-87783557D01*
X212305357Y-87312128D02*
X212348214Y-87226414D01*
X212348214Y-87226414D02*
X212433928Y-87183557D01*
X212433928Y-87183557D02*
X212562499Y-87183557D01*
X212562499Y-87183557D02*
X212648214Y-87226414D01*
X212648214Y-87226414D02*
X212691071Y-87312128D01*
X212691071Y-87312128D02*
X212691071Y-87783557D01*
X213462499Y-87740700D02*
X213376785Y-87783557D01*
X213376785Y-87783557D02*
X213205357Y-87783557D01*
X213205357Y-87783557D02*
X213119642Y-87740700D01*
X213119642Y-87740700D02*
X213076785Y-87654985D01*
X213076785Y-87654985D02*
X213076785Y-87312128D01*
X213076785Y-87312128D02*
X213119642Y-87226414D01*
X213119642Y-87226414D02*
X213205357Y-87183557D01*
X213205357Y-87183557D02*
X213376785Y-87183557D01*
X213376785Y-87183557D02*
X213462499Y-87226414D01*
X213462499Y-87226414D02*
X213505357Y-87312128D01*
X213505357Y-87312128D02*
X213505357Y-87397842D01*
X213505357Y-87397842D02*
X213076785Y-87483557D01*
X210291071Y-106833557D02*
X210291071Y-105933557D01*
X210291071Y-105933557D02*
X210633928Y-105933557D01*
X210633928Y-105933557D02*
X210719643Y-105976414D01*
X210719643Y-105976414D02*
X210762500Y-106019271D01*
X210762500Y-106019271D02*
X210805357Y-106104985D01*
X210805357Y-106104985D02*
X210805357Y-106233557D01*
X210805357Y-106233557D02*
X210762500Y-106319271D01*
X210762500Y-106319271D02*
X210719643Y-106362128D01*
X210719643Y-106362128D02*
X210633928Y-106404985D01*
X210633928Y-106404985D02*
X210291071Y-106404985D01*
X211576786Y-106233557D02*
X211576786Y-106962128D01*
X211576786Y-106962128D02*
X211533928Y-107047842D01*
X211533928Y-107047842D02*
X211491071Y-107090700D01*
X211491071Y-107090700D02*
X211405357Y-107133557D01*
X211405357Y-107133557D02*
X211276786Y-107133557D01*
X211276786Y-107133557D02*
X211191071Y-107090700D01*
X211576786Y-106790700D02*
X211491071Y-106833557D01*
X211491071Y-106833557D02*
X211319643Y-106833557D01*
X211319643Y-106833557D02*
X211233928Y-106790700D01*
X211233928Y-106790700D02*
X211191071Y-106747842D01*
X211191071Y-106747842D02*
X211148214Y-106662128D01*
X211148214Y-106662128D02*
X211148214Y-106404985D01*
X211148214Y-106404985D02*
X211191071Y-106319271D01*
X211191071Y-106319271D02*
X211233928Y-106276414D01*
X211233928Y-106276414D02*
X211319643Y-106233557D01*
X211319643Y-106233557D02*
X211491071Y-106233557D01*
X211491071Y-106233557D02*
X211576786Y-106276414D01*
X212005357Y-105933557D02*
X212005357Y-106662128D01*
X212005357Y-106662128D02*
X212048214Y-106747842D01*
X212048214Y-106747842D02*
X212091072Y-106790700D01*
X212091072Y-106790700D02*
X212176786Y-106833557D01*
X212176786Y-106833557D02*
X212348214Y-106833557D01*
X212348214Y-106833557D02*
X212433929Y-106790700D01*
X212433929Y-106790700D02*
X212476786Y-106747842D01*
X212476786Y-106747842D02*
X212519643Y-106662128D01*
X212519643Y-106662128D02*
X212519643Y-105933557D01*
X212948214Y-106233557D02*
X212948214Y-107133557D01*
X212948214Y-106276414D02*
X213033929Y-106233557D01*
X213033929Y-106233557D02*
X213205357Y-106233557D01*
X213205357Y-106233557D02*
X213291071Y-106276414D01*
X213291071Y-106276414D02*
X213333929Y-106319271D01*
X213333929Y-106319271D02*
X213376786Y-106404985D01*
X213376786Y-106404985D02*
X213376786Y-106662128D01*
X213376786Y-106662128D02*
X213333929Y-106747842D01*
X213333929Y-106747842D02*
X213291071Y-106790700D01*
X213291071Y-106790700D02*
X213205357Y-106833557D01*
X213205357Y-106833557D02*
X213033929Y-106833557D01*
X213033929Y-106833557D02*
X212948214Y-106790700D01*
X210312499Y-125883557D02*
X210312499Y-124983557D01*
X210312499Y-124983557D02*
X210655356Y-124983557D01*
X210655356Y-124983557D02*
X210741071Y-125026414D01*
X210741071Y-125026414D02*
X210783928Y-125069271D01*
X210783928Y-125069271D02*
X210826785Y-125154985D01*
X210826785Y-125154985D02*
X210826785Y-125283557D01*
X210826785Y-125283557D02*
X210783928Y-125369271D01*
X210783928Y-125369271D02*
X210741071Y-125412128D01*
X210741071Y-125412128D02*
X210655356Y-125454985D01*
X210655356Y-125454985D02*
X210312499Y-125454985D01*
X211598214Y-125283557D02*
X211598214Y-126012128D01*
X211598214Y-126012128D02*
X211555356Y-126097842D01*
X211555356Y-126097842D02*
X211512499Y-126140700D01*
X211512499Y-126140700D02*
X211426785Y-126183557D01*
X211426785Y-126183557D02*
X211298214Y-126183557D01*
X211298214Y-126183557D02*
X211212499Y-126140700D01*
X211598214Y-125840700D02*
X211512499Y-125883557D01*
X211512499Y-125883557D02*
X211341071Y-125883557D01*
X211341071Y-125883557D02*
X211255356Y-125840700D01*
X211255356Y-125840700D02*
X211212499Y-125797842D01*
X211212499Y-125797842D02*
X211169642Y-125712128D01*
X211169642Y-125712128D02*
X211169642Y-125454985D01*
X211169642Y-125454985D02*
X211212499Y-125369271D01*
X211212499Y-125369271D02*
X211255356Y-125326414D01*
X211255356Y-125326414D02*
X211341071Y-125283557D01*
X211341071Y-125283557D02*
X211512499Y-125283557D01*
X211512499Y-125283557D02*
X211598214Y-125326414D01*
X212026785Y-125883557D02*
X212026785Y-124983557D01*
X212026785Y-124983557D02*
X212241071Y-124983557D01*
X212241071Y-124983557D02*
X212369642Y-125026414D01*
X212369642Y-125026414D02*
X212455357Y-125112128D01*
X212455357Y-125112128D02*
X212498214Y-125197842D01*
X212498214Y-125197842D02*
X212541071Y-125369271D01*
X212541071Y-125369271D02*
X212541071Y-125497842D01*
X212541071Y-125497842D02*
X212498214Y-125669271D01*
X212498214Y-125669271D02*
X212455357Y-125754985D01*
X212455357Y-125754985D02*
X212369642Y-125840700D01*
X212369642Y-125840700D02*
X212241071Y-125883557D01*
X212241071Y-125883557D02*
X212026785Y-125883557D01*
X212926785Y-125283557D02*
X212926785Y-125883557D01*
X212926785Y-125369271D02*
X212969642Y-125326414D01*
X212969642Y-125326414D02*
X213055357Y-125283557D01*
X213055357Y-125283557D02*
X213183928Y-125283557D01*
X213183928Y-125283557D02*
X213269642Y-125326414D01*
X213269642Y-125326414D02*
X213312500Y-125412128D01*
X213312500Y-125412128D02*
X213312500Y-125883557D01*
X210805357Y-144933557D02*
X210505357Y-144504985D01*
X210291071Y-144933557D02*
X210291071Y-144033557D01*
X210291071Y-144033557D02*
X210633928Y-144033557D01*
X210633928Y-144033557D02*
X210719643Y-144076414D01*
X210719643Y-144076414D02*
X210762500Y-144119271D01*
X210762500Y-144119271D02*
X210805357Y-144204985D01*
X210805357Y-144204985D02*
X210805357Y-144333557D01*
X210805357Y-144333557D02*
X210762500Y-144419271D01*
X210762500Y-144419271D02*
X210719643Y-144462128D01*
X210719643Y-144462128D02*
X210633928Y-144504985D01*
X210633928Y-144504985D02*
X210291071Y-144504985D01*
X211191071Y-144933557D02*
X211191071Y-144333557D01*
X211191071Y-144033557D02*
X211148214Y-144076414D01*
X211148214Y-144076414D02*
X211191071Y-144119271D01*
X211191071Y-144119271D02*
X211233928Y-144076414D01*
X211233928Y-144076414D02*
X211191071Y-144033557D01*
X211191071Y-144033557D02*
X211191071Y-144119271D01*
X212005357Y-144333557D02*
X212005357Y-145062128D01*
X212005357Y-145062128D02*
X211962499Y-145147842D01*
X211962499Y-145147842D02*
X211919642Y-145190700D01*
X211919642Y-145190700D02*
X211833928Y-145233557D01*
X211833928Y-145233557D02*
X211705357Y-145233557D01*
X211705357Y-145233557D02*
X211619642Y-145190700D01*
X212005357Y-144890700D02*
X211919642Y-144933557D01*
X211919642Y-144933557D02*
X211748214Y-144933557D01*
X211748214Y-144933557D02*
X211662499Y-144890700D01*
X211662499Y-144890700D02*
X211619642Y-144847842D01*
X211619642Y-144847842D02*
X211576785Y-144762128D01*
X211576785Y-144762128D02*
X211576785Y-144504985D01*
X211576785Y-144504985D02*
X211619642Y-144419271D01*
X211619642Y-144419271D02*
X211662499Y-144376414D01*
X211662499Y-144376414D02*
X211748214Y-144333557D01*
X211748214Y-144333557D02*
X211919642Y-144333557D01*
X211919642Y-144333557D02*
X212005357Y-144376414D01*
X212433928Y-144933557D02*
X212433928Y-144033557D01*
X212819643Y-144933557D02*
X212819643Y-144462128D01*
X212819643Y-144462128D02*
X212776785Y-144376414D01*
X212776785Y-144376414D02*
X212691071Y-144333557D01*
X212691071Y-144333557D02*
X212562500Y-144333557D01*
X212562500Y-144333557D02*
X212476785Y-144376414D01*
X212476785Y-144376414D02*
X212433928Y-144419271D01*
X213119643Y-144333557D02*
X213462500Y-144333557D01*
X213248214Y-144033557D02*
X213248214Y-144804985D01*
X213248214Y-144804985D02*
X213291071Y-144890700D01*
X213291071Y-144890700D02*
X213376786Y-144933557D01*
X213376786Y-144933557D02*
X213462500Y-144933557D01*
X65685714Y-36669104D02*
X66161904Y-36669104D01*
X65590476Y-36954819D02*
X65923809Y-35954819D01*
X65923809Y-35954819D02*
X66257142Y-36954819D01*
X66590476Y-36954819D02*
X66590476Y-35954819D01*
X66590476Y-35954819D02*
X67161904Y-36954819D01*
X67161904Y-36954819D02*
X67161904Y-35954819D01*
X67495238Y-35954819D02*
X68066666Y-35954819D01*
X67780952Y-36954819D02*
X67780952Y-35954819D01*
X68400000Y-36431009D02*
X68733333Y-36431009D01*
X68876190Y-36954819D02*
X68400000Y-36954819D01*
X68400000Y-36954819D02*
X68400000Y-35954819D01*
X68400000Y-35954819D02*
X68876190Y-35954819D01*
X69304762Y-36954819D02*
X69304762Y-35954819D01*
X69304762Y-35954819D02*
X69876190Y-36954819D01*
X69876190Y-36954819D02*
X69876190Y-35954819D01*
X70352381Y-36954819D02*
X70352381Y-35954819D01*
X70352381Y-35954819D02*
X70923809Y-36954819D01*
X70923809Y-36954819D02*
X70923809Y-35954819D01*
X71352381Y-36669104D02*
X71828571Y-36669104D01*
X71257143Y-36954819D02*
X71590476Y-35954819D01*
X71590476Y-35954819D02*
X71923809Y-36954819D01*
X72019048Y-37050057D02*
X72780952Y-37050057D01*
X73019048Y-36954819D02*
X73019048Y-35954819D01*
X73495238Y-36954819D02*
X73495238Y-35954819D01*
X73495238Y-35954819D02*
X74066666Y-36954819D01*
X74066666Y-36954819D02*
X74066666Y-35954819D01*
X74447619Y-35954819D02*
X74685714Y-36954819D01*
X74685714Y-36954819D02*
X74876190Y-36240533D01*
X74876190Y-36240533D02*
X75066666Y-36954819D01*
X75066666Y-36954819D02*
X75304762Y-35954819D01*
X75638095Y-36669104D02*
X76114285Y-36669104D01*
X75542857Y-36954819D02*
X75876190Y-35954819D01*
X75876190Y-35954819D02*
X76209523Y-36954819D01*
X77114285Y-36954819D02*
X76780952Y-36478628D01*
X76542857Y-36954819D02*
X76542857Y-35954819D01*
X76542857Y-35954819D02*
X76923809Y-35954819D01*
X76923809Y-35954819D02*
X77019047Y-36002438D01*
X77019047Y-36002438D02*
X77066666Y-36050057D01*
X77066666Y-36050057D02*
X77114285Y-36145295D01*
X77114285Y-36145295D02*
X77114285Y-36288152D01*
X77114285Y-36288152D02*
X77066666Y-36383390D01*
X77066666Y-36383390D02*
X77019047Y-36431009D01*
X77019047Y-36431009D02*
X76923809Y-36478628D01*
X76923809Y-36478628D02*
X76542857Y-36478628D01*
X77542857Y-36954819D02*
X77542857Y-35954819D01*
X77542857Y-35954819D02*
X77780952Y-35954819D01*
X77780952Y-35954819D02*
X77923809Y-36002438D01*
X77923809Y-36002438D02*
X78019047Y-36097676D01*
X78019047Y-36097676D02*
X78066666Y-36192914D01*
X78066666Y-36192914D02*
X78114285Y-36383390D01*
X78114285Y-36383390D02*
X78114285Y-36526247D01*
X78114285Y-36526247D02*
X78066666Y-36716723D01*
X78066666Y-36716723D02*
X78019047Y-36811961D01*
X78019047Y-36811961D02*
X77923809Y-36907200D01*
X77923809Y-36907200D02*
X77780952Y-36954819D01*
X77780952Y-36954819D02*
X77542857Y-36954819D01*
X100104762Y-35954819D02*
X100104762Y-36764342D01*
X100104762Y-36764342D02*
X100152381Y-36859580D01*
X100152381Y-36859580D02*
X100200000Y-36907200D01*
X100200000Y-36907200D02*
X100295238Y-36954819D01*
X100295238Y-36954819D02*
X100485714Y-36954819D01*
X100485714Y-36954819D02*
X100580952Y-36907200D01*
X100580952Y-36907200D02*
X100628571Y-36859580D01*
X100628571Y-36859580D02*
X100676190Y-36764342D01*
X100676190Y-36764342D02*
X100676190Y-35954819D01*
X101104762Y-36907200D02*
X101247619Y-36954819D01*
X101247619Y-36954819D02*
X101485714Y-36954819D01*
X101485714Y-36954819D02*
X101580952Y-36907200D01*
X101580952Y-36907200D02*
X101628571Y-36859580D01*
X101628571Y-36859580D02*
X101676190Y-36764342D01*
X101676190Y-36764342D02*
X101676190Y-36669104D01*
X101676190Y-36669104D02*
X101628571Y-36573866D01*
X101628571Y-36573866D02*
X101580952Y-36526247D01*
X101580952Y-36526247D02*
X101485714Y-36478628D01*
X101485714Y-36478628D02*
X101295238Y-36431009D01*
X101295238Y-36431009D02*
X101200000Y-36383390D01*
X101200000Y-36383390D02*
X101152381Y-36335771D01*
X101152381Y-36335771D02*
X101104762Y-36240533D01*
X101104762Y-36240533D02*
X101104762Y-36145295D01*
X101104762Y-36145295D02*
X101152381Y-36050057D01*
X101152381Y-36050057D02*
X101200000Y-36002438D01*
X101200000Y-36002438D02*
X101295238Y-35954819D01*
X101295238Y-35954819D02*
X101533333Y-35954819D01*
X101533333Y-35954819D02*
X101676190Y-36002438D01*
X102438095Y-36431009D02*
X102580952Y-36478628D01*
X102580952Y-36478628D02*
X102628571Y-36526247D01*
X102628571Y-36526247D02*
X102676190Y-36621485D01*
X102676190Y-36621485D02*
X102676190Y-36764342D01*
X102676190Y-36764342D02*
X102628571Y-36859580D01*
X102628571Y-36859580D02*
X102580952Y-36907200D01*
X102580952Y-36907200D02*
X102485714Y-36954819D01*
X102485714Y-36954819D02*
X102104762Y-36954819D01*
X102104762Y-36954819D02*
X102104762Y-35954819D01*
X102104762Y-35954819D02*
X102438095Y-35954819D01*
X102438095Y-35954819D02*
X102533333Y-36002438D01*
X102533333Y-36002438D02*
X102580952Y-36050057D01*
X102580952Y-36050057D02*
X102628571Y-36145295D01*
X102628571Y-36145295D02*
X102628571Y-36240533D01*
X102628571Y-36240533D02*
X102580952Y-36335771D01*
X102580952Y-36335771D02*
X102533333Y-36383390D01*
X102533333Y-36383390D02*
X102438095Y-36431009D01*
X102438095Y-36431009D02*
X102104762Y-36431009D01*
X102866667Y-37050057D02*
X103628571Y-37050057D01*
X104057143Y-35954819D02*
X104247619Y-35954819D01*
X104247619Y-35954819D02*
X104342857Y-36002438D01*
X104342857Y-36002438D02*
X104438095Y-36097676D01*
X104438095Y-36097676D02*
X104485714Y-36288152D01*
X104485714Y-36288152D02*
X104485714Y-36621485D01*
X104485714Y-36621485D02*
X104438095Y-36811961D01*
X104438095Y-36811961D02*
X104342857Y-36907200D01*
X104342857Y-36907200D02*
X104247619Y-36954819D01*
X104247619Y-36954819D02*
X104057143Y-36954819D01*
X104057143Y-36954819D02*
X103961905Y-36907200D01*
X103961905Y-36907200D02*
X103866667Y-36811961D01*
X103866667Y-36811961D02*
X103819048Y-36621485D01*
X103819048Y-36621485D02*
X103819048Y-36288152D01*
X103819048Y-36288152D02*
X103866667Y-36097676D01*
X103866667Y-36097676D02*
X103961905Y-36002438D01*
X103961905Y-36002438D02*
X104057143Y-35954819D01*
X104914286Y-35954819D02*
X104914286Y-36764342D01*
X104914286Y-36764342D02*
X104961905Y-36859580D01*
X104961905Y-36859580D02*
X105009524Y-36907200D01*
X105009524Y-36907200D02*
X105104762Y-36954819D01*
X105104762Y-36954819D02*
X105295238Y-36954819D01*
X105295238Y-36954819D02*
X105390476Y-36907200D01*
X105390476Y-36907200D02*
X105438095Y-36859580D01*
X105438095Y-36859580D02*
X105485714Y-36764342D01*
X105485714Y-36764342D02*
X105485714Y-35954819D01*
X105819048Y-35954819D02*
X106390476Y-35954819D01*
X106104762Y-36954819D02*
X106104762Y-35954819D01*
X106485715Y-37050057D02*
X107247619Y-37050057D01*
X108057143Y-36954819D02*
X107723810Y-36478628D01*
X107485715Y-36954819D02*
X107485715Y-35954819D01*
X107485715Y-35954819D02*
X107866667Y-35954819D01*
X107866667Y-35954819D02*
X107961905Y-36002438D01*
X107961905Y-36002438D02*
X108009524Y-36050057D01*
X108009524Y-36050057D02*
X108057143Y-36145295D01*
X108057143Y-36145295D02*
X108057143Y-36288152D01*
X108057143Y-36288152D02*
X108009524Y-36383390D01*
X108009524Y-36383390D02*
X107961905Y-36431009D01*
X107961905Y-36431009D02*
X107866667Y-36478628D01*
X107866667Y-36478628D02*
X107485715Y-36478628D01*
X108485715Y-36954819D02*
X108485715Y-35954819D01*
X109485714Y-36002438D02*
X109390476Y-35954819D01*
X109390476Y-35954819D02*
X109247619Y-35954819D01*
X109247619Y-35954819D02*
X109104762Y-36002438D01*
X109104762Y-36002438D02*
X109009524Y-36097676D01*
X109009524Y-36097676D02*
X108961905Y-36192914D01*
X108961905Y-36192914D02*
X108914286Y-36383390D01*
X108914286Y-36383390D02*
X108914286Y-36526247D01*
X108914286Y-36526247D02*
X108961905Y-36716723D01*
X108961905Y-36716723D02*
X109009524Y-36811961D01*
X109009524Y-36811961D02*
X109104762Y-36907200D01*
X109104762Y-36907200D02*
X109247619Y-36954819D01*
X109247619Y-36954819D02*
X109342857Y-36954819D01*
X109342857Y-36954819D02*
X109485714Y-36907200D01*
X109485714Y-36907200D02*
X109533333Y-36859580D01*
X109533333Y-36859580D02*
X109533333Y-36526247D01*
X109533333Y-36526247D02*
X109342857Y-36526247D01*
X109961905Y-36954819D02*
X109961905Y-35954819D01*
X109961905Y-36431009D02*
X110533333Y-36431009D01*
X110533333Y-36954819D02*
X110533333Y-35954819D01*
X110866667Y-35954819D02*
X111438095Y-35954819D01*
X111152381Y-36954819D02*
X111152381Y-35954819D01*
X11800000Y-24547342D02*
X11800000Y-23347342D01*
X12485714Y-24547342D02*
X11971428Y-23861628D01*
X12485714Y-23347342D02*
X11800000Y-24033057D01*
X13685714Y-24433057D02*
X13628571Y-24490200D01*
X13628571Y-24490200D02*
X13457143Y-24547342D01*
X13457143Y-24547342D02*
X13342857Y-24547342D01*
X13342857Y-24547342D02*
X13171428Y-24490200D01*
X13171428Y-24490200D02*
X13057143Y-24375914D01*
X13057143Y-24375914D02*
X13000000Y-24261628D01*
X13000000Y-24261628D02*
X12942857Y-24033057D01*
X12942857Y-24033057D02*
X12942857Y-23861628D01*
X12942857Y-23861628D02*
X13000000Y-23633057D01*
X13000000Y-23633057D02*
X13057143Y-23518771D01*
X13057143Y-23518771D02*
X13171428Y-23404485D01*
X13171428Y-23404485D02*
X13342857Y-23347342D01*
X13342857Y-23347342D02*
X13457143Y-23347342D01*
X13457143Y-23347342D02*
X13628571Y-23404485D01*
X13628571Y-23404485D02*
X13685714Y-23461628D01*
X14142857Y-23461628D02*
X14200000Y-23404485D01*
X14200000Y-23404485D02*
X14314286Y-23347342D01*
X14314286Y-23347342D02*
X14600000Y-23347342D01*
X14600000Y-23347342D02*
X14714286Y-23404485D01*
X14714286Y-23404485D02*
X14771428Y-23461628D01*
X14771428Y-23461628D02*
X14828571Y-23575914D01*
X14828571Y-23575914D02*
X14828571Y-23690200D01*
X14828571Y-23690200D02*
X14771428Y-23861628D01*
X14771428Y-23861628D02*
X14085714Y-24547342D01*
X14085714Y-24547342D02*
X14828571Y-24547342D01*
X16942857Y-24547342D02*
X16542857Y-23975914D01*
X16257143Y-24547342D02*
X16257143Y-23347342D01*
X16257143Y-23347342D02*
X16714286Y-23347342D01*
X16714286Y-23347342D02*
X16828571Y-23404485D01*
X16828571Y-23404485D02*
X16885714Y-23461628D01*
X16885714Y-23461628D02*
X16942857Y-23575914D01*
X16942857Y-23575914D02*
X16942857Y-23747342D01*
X16942857Y-23747342D02*
X16885714Y-23861628D01*
X16885714Y-23861628D02*
X16828571Y-23918771D01*
X16828571Y-23918771D02*
X16714286Y-23975914D01*
X16714286Y-23975914D02*
X16257143Y-23975914D01*
X17457143Y-24547342D02*
X17457143Y-23347342D01*
X18657143Y-23404485D02*
X18542858Y-23347342D01*
X18542858Y-23347342D02*
X18371429Y-23347342D01*
X18371429Y-23347342D02*
X18200000Y-23404485D01*
X18200000Y-23404485D02*
X18085715Y-23518771D01*
X18085715Y-23518771D02*
X18028572Y-23633057D01*
X18028572Y-23633057D02*
X17971429Y-23861628D01*
X17971429Y-23861628D02*
X17971429Y-24033057D01*
X17971429Y-24033057D02*
X18028572Y-24261628D01*
X18028572Y-24261628D02*
X18085715Y-24375914D01*
X18085715Y-24375914D02*
X18200000Y-24490200D01*
X18200000Y-24490200D02*
X18371429Y-24547342D01*
X18371429Y-24547342D02*
X18485715Y-24547342D01*
X18485715Y-24547342D02*
X18657143Y-24490200D01*
X18657143Y-24490200D02*
X18714286Y-24433057D01*
X18714286Y-24433057D02*
X18714286Y-24033057D01*
X18714286Y-24033057D02*
X18485715Y-24033057D01*
X19228572Y-24547342D02*
X19228572Y-23347342D01*
X19228572Y-23918771D02*
X19914286Y-23918771D01*
X19914286Y-24547342D02*
X19914286Y-23347342D01*
X20314286Y-23347342D02*
X21000001Y-23347342D01*
X20657143Y-24547342D02*
X20657143Y-23347342D01*
X22200001Y-23347342D02*
X23000001Y-24547342D01*
X23000001Y-23347342D02*
X22200001Y-24547342D01*
X23342858Y-23347342D02*
X24085715Y-23347342D01*
X24085715Y-23347342D02*
X23685715Y-23804485D01*
X23685715Y-23804485D02*
X23857144Y-23804485D01*
X23857144Y-23804485D02*
X23971430Y-23861628D01*
X23971430Y-23861628D02*
X24028572Y-23918771D01*
X24028572Y-23918771D02*
X24085715Y-24033057D01*
X24085715Y-24033057D02*
X24085715Y-24318771D01*
X24085715Y-24318771D02*
X24028572Y-24433057D01*
X24028572Y-24433057D02*
X23971430Y-24490200D01*
X23971430Y-24490200D02*
X23857144Y-24547342D01*
X23857144Y-24547342D02*
X23514287Y-24547342D01*
X23514287Y-24547342D02*
X23400001Y-24490200D01*
X23400001Y-24490200D02*
X23342858Y-24433057D01*
X25514287Y-24090200D02*
X26428573Y-24090200D01*
X27800001Y-23347342D02*
X28600001Y-23347342D01*
X28600001Y-23347342D02*
X28085715Y-24547342D01*
X28942858Y-23347342D02*
X29742858Y-23347342D01*
X29742858Y-23347342D02*
X29228572Y-24547342D01*
X30200001Y-24090200D02*
X31114287Y-24090200D01*
X31685715Y-24547342D02*
X31685715Y-23347342D01*
X31800001Y-24090200D02*
X32142858Y-24547342D01*
X32142858Y-23747342D02*
X31685715Y-24204485D01*
X33114287Y-24490200D02*
X33000001Y-24547342D01*
X33000001Y-24547342D02*
X32771430Y-24547342D01*
X32771430Y-24547342D02*
X32657144Y-24490200D01*
X32657144Y-24490200D02*
X32600001Y-24375914D01*
X32600001Y-24375914D02*
X32600001Y-23918771D01*
X32600001Y-23918771D02*
X32657144Y-23804485D01*
X32657144Y-23804485D02*
X32771430Y-23747342D01*
X32771430Y-23747342D02*
X33000001Y-23747342D01*
X33000001Y-23747342D02*
X33114287Y-23804485D01*
X33114287Y-23804485D02*
X33171430Y-23918771D01*
X33171430Y-23918771D02*
X33171430Y-24033057D01*
X33171430Y-24033057D02*
X32600001Y-24147342D01*
X33571429Y-23747342D02*
X33857143Y-24547342D01*
X34142858Y-23747342D02*
X33857143Y-24547342D01*
X33857143Y-24547342D02*
X33742858Y-24833057D01*
X33742858Y-24833057D02*
X33685715Y-24890200D01*
X33685715Y-24890200D02*
X33571429Y-24947342D01*
X35514287Y-23747342D02*
X35514287Y-24547342D01*
X35514287Y-23861628D02*
X35571430Y-23804485D01*
X35571430Y-23804485D02*
X35685715Y-23747342D01*
X35685715Y-23747342D02*
X35857144Y-23747342D01*
X35857144Y-23747342D02*
X35971430Y-23804485D01*
X35971430Y-23804485D02*
X36028573Y-23918771D01*
X36028573Y-23918771D02*
X36028573Y-24547342D01*
X36771429Y-24547342D02*
X36657144Y-24490200D01*
X36657144Y-24490200D02*
X36600001Y-24433057D01*
X36600001Y-24433057D02*
X36542858Y-24318771D01*
X36542858Y-24318771D02*
X36542858Y-23975914D01*
X36542858Y-23975914D02*
X36600001Y-23861628D01*
X36600001Y-23861628D02*
X36657144Y-23804485D01*
X36657144Y-23804485D02*
X36771429Y-23747342D01*
X36771429Y-23747342D02*
X36942858Y-23747342D01*
X36942858Y-23747342D02*
X37057144Y-23804485D01*
X37057144Y-23804485D02*
X37114287Y-23861628D01*
X37114287Y-23861628D02*
X37171429Y-23975914D01*
X37171429Y-23975914D02*
X37171429Y-24318771D01*
X37171429Y-24318771D02*
X37114287Y-24433057D01*
X37114287Y-24433057D02*
X37057144Y-24490200D01*
X37057144Y-24490200D02*
X36942858Y-24547342D01*
X36942858Y-24547342D02*
X36771429Y-24547342D01*
X37685715Y-24090200D02*
X38600001Y-24090200D01*
X39114286Y-24490200D02*
X39228572Y-24547342D01*
X39228572Y-24547342D02*
X39457143Y-24547342D01*
X39457143Y-24547342D02*
X39571429Y-24490200D01*
X39571429Y-24490200D02*
X39628572Y-24375914D01*
X39628572Y-24375914D02*
X39628572Y-24318771D01*
X39628572Y-24318771D02*
X39571429Y-24204485D01*
X39571429Y-24204485D02*
X39457143Y-24147342D01*
X39457143Y-24147342D02*
X39285715Y-24147342D01*
X39285715Y-24147342D02*
X39171429Y-24090200D01*
X39171429Y-24090200D02*
X39114286Y-23975914D01*
X39114286Y-23975914D02*
X39114286Y-23918771D01*
X39114286Y-23918771D02*
X39171429Y-23804485D01*
X39171429Y-23804485D02*
X39285715Y-23747342D01*
X39285715Y-23747342D02*
X39457143Y-23747342D01*
X39457143Y-23747342D02*
X39571429Y-23804485D01*
X39971429Y-23747342D02*
X40428572Y-23747342D01*
X40142858Y-23347342D02*
X40142858Y-24375914D01*
X40142858Y-24375914D02*
X40200001Y-24490200D01*
X40200001Y-24490200D02*
X40314286Y-24547342D01*
X40314286Y-24547342D02*
X40428572Y-24547342D01*
X41342858Y-24547342D02*
X41342858Y-23918771D01*
X41342858Y-23918771D02*
X41285715Y-23804485D01*
X41285715Y-23804485D02*
X41171429Y-23747342D01*
X41171429Y-23747342D02*
X40942858Y-23747342D01*
X40942858Y-23747342D02*
X40828572Y-23804485D01*
X41342858Y-24490200D02*
X41228572Y-24547342D01*
X41228572Y-24547342D02*
X40942858Y-24547342D01*
X40942858Y-24547342D02*
X40828572Y-24490200D01*
X40828572Y-24490200D02*
X40771429Y-24375914D01*
X40771429Y-24375914D02*
X40771429Y-24261628D01*
X40771429Y-24261628D02*
X40828572Y-24147342D01*
X40828572Y-24147342D02*
X40942858Y-24090200D01*
X40942858Y-24090200D02*
X41228572Y-24090200D01*
X41228572Y-24090200D02*
X41342858Y-24033057D01*
X41914286Y-24547342D02*
X41914286Y-23347342D01*
X41914286Y-23804485D02*
X42028572Y-23747342D01*
X42028572Y-23747342D02*
X42257143Y-23747342D01*
X42257143Y-23747342D02*
X42371429Y-23804485D01*
X42371429Y-23804485D02*
X42428572Y-23861628D01*
X42428572Y-23861628D02*
X42485714Y-23975914D01*
X42485714Y-23975914D02*
X42485714Y-24318771D01*
X42485714Y-24318771D02*
X42428572Y-24433057D01*
X42428572Y-24433057D02*
X42371429Y-24490200D01*
X42371429Y-24490200D02*
X42257143Y-24547342D01*
X42257143Y-24547342D02*
X42028572Y-24547342D01*
X42028572Y-24547342D02*
X41914286Y-24490200D01*
X43000000Y-24547342D02*
X43000000Y-23747342D01*
X43000000Y-23347342D02*
X42942857Y-23404485D01*
X42942857Y-23404485D02*
X43000000Y-23461628D01*
X43000000Y-23461628D02*
X43057143Y-23404485D01*
X43057143Y-23404485D02*
X43000000Y-23347342D01*
X43000000Y-23347342D02*
X43000000Y-23461628D01*
X43742857Y-24547342D02*
X43628572Y-24490200D01*
X43628572Y-24490200D02*
X43571429Y-24375914D01*
X43571429Y-24375914D02*
X43571429Y-23347342D01*
X44200000Y-24547342D02*
X44200000Y-23747342D01*
X44200000Y-23347342D02*
X44142857Y-23404485D01*
X44142857Y-23404485D02*
X44200000Y-23461628D01*
X44200000Y-23461628D02*
X44257143Y-23404485D01*
X44257143Y-23404485D02*
X44200000Y-23347342D01*
X44200000Y-23347342D02*
X44200000Y-23461628D01*
X44657143Y-23747342D02*
X45285715Y-23747342D01*
X45285715Y-23747342D02*
X44657143Y-24547342D01*
X44657143Y-24547342D02*
X45285715Y-24547342D01*
X46200001Y-24490200D02*
X46085715Y-24547342D01*
X46085715Y-24547342D02*
X45857144Y-24547342D01*
X45857144Y-24547342D02*
X45742858Y-24490200D01*
X45742858Y-24490200D02*
X45685715Y-24375914D01*
X45685715Y-24375914D02*
X45685715Y-23918771D01*
X45685715Y-23918771D02*
X45742858Y-23804485D01*
X45742858Y-23804485D02*
X45857144Y-23747342D01*
X45857144Y-23747342D02*
X46085715Y-23747342D01*
X46085715Y-23747342D02*
X46200001Y-23804485D01*
X46200001Y-23804485D02*
X46257144Y-23918771D01*
X46257144Y-23918771D02*
X46257144Y-24033057D01*
X46257144Y-24033057D02*
X45685715Y-24147342D01*
X46771429Y-24547342D02*
X46771429Y-23747342D01*
X46771429Y-23975914D02*
X46828572Y-23861628D01*
X46828572Y-23861628D02*
X46885715Y-23804485D01*
X46885715Y-23804485D02*
X47000000Y-23747342D01*
X47000000Y-23747342D02*
X47114286Y-23747342D01*
X48371429Y-24490200D02*
X48485715Y-24547342D01*
X48485715Y-24547342D02*
X48714286Y-24547342D01*
X48714286Y-24547342D02*
X48828572Y-24490200D01*
X48828572Y-24490200D02*
X48885715Y-24375914D01*
X48885715Y-24375914D02*
X48885715Y-24318771D01*
X48885715Y-24318771D02*
X48828572Y-24204485D01*
X48828572Y-24204485D02*
X48714286Y-24147342D01*
X48714286Y-24147342D02*
X48542858Y-24147342D01*
X48542858Y-24147342D02*
X48428572Y-24090200D01*
X48428572Y-24090200D02*
X48371429Y-23975914D01*
X48371429Y-23975914D02*
X48371429Y-23918771D01*
X48371429Y-23918771D02*
X48428572Y-23804485D01*
X48428572Y-23804485D02*
X48542858Y-23747342D01*
X48542858Y-23747342D02*
X48714286Y-23747342D01*
X48714286Y-23747342D02*
X48828572Y-23804485D01*
X49400001Y-23747342D02*
X49400001Y-24947342D01*
X49400001Y-23804485D02*
X49514287Y-23747342D01*
X49514287Y-23747342D02*
X49742858Y-23747342D01*
X49742858Y-23747342D02*
X49857144Y-23804485D01*
X49857144Y-23804485D02*
X49914287Y-23861628D01*
X49914287Y-23861628D02*
X49971429Y-23975914D01*
X49971429Y-23975914D02*
X49971429Y-24318771D01*
X49971429Y-24318771D02*
X49914287Y-24433057D01*
X49914287Y-24433057D02*
X49857144Y-24490200D01*
X49857144Y-24490200D02*
X49742858Y-24547342D01*
X49742858Y-24547342D02*
X49514287Y-24547342D01*
X49514287Y-24547342D02*
X49400001Y-24490200D01*
X50657143Y-24547342D02*
X50542858Y-24490200D01*
X50542858Y-24490200D02*
X50485715Y-24375914D01*
X50485715Y-24375914D02*
X50485715Y-23347342D01*
X51114286Y-24547342D02*
X51114286Y-23747342D01*
X51114286Y-23347342D02*
X51057143Y-23404485D01*
X51057143Y-23404485D02*
X51114286Y-23461628D01*
X51114286Y-23461628D02*
X51171429Y-23404485D01*
X51171429Y-23404485D02*
X51114286Y-23347342D01*
X51114286Y-23347342D02*
X51114286Y-23461628D01*
X51514286Y-23747342D02*
X51971429Y-23747342D01*
X51685715Y-23347342D02*
X51685715Y-24375914D01*
X51685715Y-24375914D02*
X51742858Y-24490200D01*
X51742858Y-24490200D02*
X51857143Y-24547342D01*
X51857143Y-24547342D02*
X51971429Y-24547342D01*
X53457143Y-24547342D02*
X53342858Y-24490200D01*
X53342858Y-24490200D02*
X53285715Y-24375914D01*
X53285715Y-24375914D02*
X53285715Y-23347342D01*
X54428572Y-24547342D02*
X54428572Y-23918771D01*
X54428572Y-23918771D02*
X54371429Y-23804485D01*
X54371429Y-23804485D02*
X54257143Y-23747342D01*
X54257143Y-23747342D02*
X54028572Y-23747342D01*
X54028572Y-23747342D02*
X53914286Y-23804485D01*
X54428572Y-24490200D02*
X54314286Y-24547342D01*
X54314286Y-24547342D02*
X54028572Y-24547342D01*
X54028572Y-24547342D02*
X53914286Y-24490200D01*
X53914286Y-24490200D02*
X53857143Y-24375914D01*
X53857143Y-24375914D02*
X53857143Y-24261628D01*
X53857143Y-24261628D02*
X53914286Y-24147342D01*
X53914286Y-24147342D02*
X54028572Y-24090200D01*
X54028572Y-24090200D02*
X54314286Y-24090200D01*
X54314286Y-24090200D02*
X54428572Y-24033057D01*
X54885714Y-23747342D02*
X55171428Y-24547342D01*
X55457143Y-23747342D02*
X55171428Y-24547342D01*
X55171428Y-24547342D02*
X55057143Y-24833057D01*
X55057143Y-24833057D02*
X55000000Y-24890200D01*
X55000000Y-24890200D02*
X54885714Y-24947342D01*
X56085714Y-24547342D02*
X55971429Y-24490200D01*
X55971429Y-24490200D02*
X55914286Y-24433057D01*
X55914286Y-24433057D02*
X55857143Y-24318771D01*
X55857143Y-24318771D02*
X55857143Y-23975914D01*
X55857143Y-23975914D02*
X55914286Y-23861628D01*
X55914286Y-23861628D02*
X55971429Y-23804485D01*
X55971429Y-23804485D02*
X56085714Y-23747342D01*
X56085714Y-23747342D02*
X56257143Y-23747342D01*
X56257143Y-23747342D02*
X56371429Y-23804485D01*
X56371429Y-23804485D02*
X56428572Y-23861628D01*
X56428572Y-23861628D02*
X56485714Y-23975914D01*
X56485714Y-23975914D02*
X56485714Y-24318771D01*
X56485714Y-24318771D02*
X56428572Y-24433057D01*
X56428572Y-24433057D02*
X56371429Y-24490200D01*
X56371429Y-24490200D02*
X56257143Y-24547342D01*
X56257143Y-24547342D02*
X56085714Y-24547342D01*
X57514286Y-23747342D02*
X57514286Y-24547342D01*
X57000000Y-23747342D02*
X57000000Y-24375914D01*
X57000000Y-24375914D02*
X57057143Y-24490200D01*
X57057143Y-24490200D02*
X57171428Y-24547342D01*
X57171428Y-24547342D02*
X57342857Y-24547342D01*
X57342857Y-24547342D02*
X57457143Y-24490200D01*
X57457143Y-24490200D02*
X57514286Y-24433057D01*
X57914285Y-23747342D02*
X58371428Y-23747342D01*
X58085714Y-23347342D02*
X58085714Y-24375914D01*
X58085714Y-24375914D02*
X58142857Y-24490200D01*
X58142857Y-24490200D02*
X58257142Y-24547342D01*
X58257142Y-24547342D02*
X58371428Y-24547342D01*
X112342857Y-44090200D02*
X113257143Y-44090200D01*
X112800000Y-44547342D02*
X112800000Y-43633057D01*
X112342857Y-55290200D02*
X113257143Y-55290200D01*
X225075595Y-162054819D02*
X225075595Y-161054819D01*
X225075595Y-161531009D02*
X225647023Y-161531009D01*
X225647023Y-162054819D02*
X225647023Y-161054819D01*
X226075595Y-161150057D02*
X226123214Y-161102438D01*
X226123214Y-161102438D02*
X226218452Y-161054819D01*
X226218452Y-161054819D02*
X226456547Y-161054819D01*
X226456547Y-161054819D02*
X226551785Y-161102438D01*
X226551785Y-161102438D02*
X226599404Y-161150057D01*
X226599404Y-161150057D02*
X226647023Y-161245295D01*
X226647023Y-161245295D02*
X226647023Y-161340533D01*
X226647023Y-161340533D02*
X226599404Y-161483390D01*
X226599404Y-161483390D02*
X226027976Y-162054819D01*
X226027976Y-162054819D02*
X226647023Y-162054819D01*
D11*
X112714285Y-45645846D02*
X112828571Y-45683941D01*
X112828571Y-45683941D02*
X112866666Y-45722037D01*
X112866666Y-45722037D02*
X112904762Y-45798227D01*
X112904762Y-45798227D02*
X112904762Y-45912513D01*
X112904762Y-45912513D02*
X112866666Y-45988703D01*
X112866666Y-45988703D02*
X112828571Y-46026799D01*
X112828571Y-46026799D02*
X112752381Y-46064894D01*
X112752381Y-46064894D02*
X112447619Y-46064894D01*
X112447619Y-46064894D02*
X112447619Y-45264894D01*
X112447619Y-45264894D02*
X112714285Y-45264894D01*
X112714285Y-45264894D02*
X112790476Y-45302989D01*
X112790476Y-45302989D02*
X112828571Y-45341084D01*
X112828571Y-45341084D02*
X112866666Y-45417275D01*
X112866666Y-45417275D02*
X112866666Y-45493465D01*
X112866666Y-45493465D02*
X112828571Y-45569656D01*
X112828571Y-45569656D02*
X112790476Y-45607751D01*
X112790476Y-45607751D02*
X112714285Y-45645846D01*
X112714285Y-45645846D02*
X112447619Y-45645846D01*
X113209523Y-45836322D02*
X113590476Y-45836322D01*
X113133333Y-46064894D02*
X113400000Y-45264894D01*
X113400000Y-45264894D02*
X113666666Y-46064894D01*
X113819047Y-45264894D02*
X114276190Y-45264894D01*
X114047618Y-46064894D02*
X114047618Y-45264894D01*
X114542857Y-45760132D02*
X115152381Y-45760132D01*
X114847619Y-46064894D02*
X114847619Y-45455370D01*
X112714285Y-50045847D02*
X112828571Y-50083942D01*
X112828571Y-50083942D02*
X112866666Y-50122038D01*
X112866666Y-50122038D02*
X112904762Y-50198228D01*
X112904762Y-50198228D02*
X112904762Y-50312514D01*
X112904762Y-50312514D02*
X112866666Y-50388704D01*
X112866666Y-50388704D02*
X112828571Y-50426800D01*
X112828571Y-50426800D02*
X112752381Y-50464895D01*
X112752381Y-50464895D02*
X112447619Y-50464895D01*
X112447619Y-50464895D02*
X112447619Y-49664895D01*
X112447619Y-49664895D02*
X112714285Y-49664895D01*
X112714285Y-49664895D02*
X112790476Y-49702990D01*
X112790476Y-49702990D02*
X112828571Y-49741085D01*
X112828571Y-49741085D02*
X112866666Y-49817276D01*
X112866666Y-49817276D02*
X112866666Y-49893466D01*
X112866666Y-49893466D02*
X112828571Y-49969657D01*
X112828571Y-49969657D02*
X112790476Y-50007752D01*
X112790476Y-50007752D02*
X112714285Y-50045847D01*
X112714285Y-50045847D02*
X112447619Y-50045847D01*
X113209523Y-50236323D02*
X113590476Y-50236323D01*
X113133333Y-50464895D02*
X113400000Y-49664895D01*
X113400000Y-49664895D02*
X113666666Y-50464895D01*
X113819047Y-49664895D02*
X114276190Y-49664895D01*
X114047618Y-50464895D02*
X114047618Y-49664895D01*
X114542857Y-50160133D02*
X115152381Y-50160133D01*
X117952381Y-46064894D02*
X117952381Y-45264894D01*
X117952381Y-45264894D02*
X118409524Y-46064894D01*
X118409524Y-46064894D02*
X118409524Y-45264894D01*
X118790476Y-46064894D02*
X118790476Y-45264894D01*
X118790476Y-45264894D02*
X119247619Y-46064894D01*
X119247619Y-46064894D02*
X119247619Y-45264894D01*
X119438095Y-46141084D02*
X120047618Y-46141084D01*
X120504761Y-45645846D02*
X120619047Y-45683941D01*
X120619047Y-45683941D02*
X120657142Y-45722037D01*
X120657142Y-45722037D02*
X120695238Y-45798227D01*
X120695238Y-45798227D02*
X120695238Y-45912513D01*
X120695238Y-45912513D02*
X120657142Y-45988703D01*
X120657142Y-45988703D02*
X120619047Y-46026799D01*
X120619047Y-46026799D02*
X120542857Y-46064894D01*
X120542857Y-46064894D02*
X120238095Y-46064894D01*
X120238095Y-46064894D02*
X120238095Y-45264894D01*
X120238095Y-45264894D02*
X120504761Y-45264894D01*
X120504761Y-45264894D02*
X120580952Y-45302989D01*
X120580952Y-45302989D02*
X120619047Y-45341084D01*
X120619047Y-45341084D02*
X120657142Y-45417275D01*
X120657142Y-45417275D02*
X120657142Y-45493465D01*
X120657142Y-45493465D02*
X120619047Y-45569656D01*
X120619047Y-45569656D02*
X120580952Y-45607751D01*
X120580952Y-45607751D02*
X120504761Y-45645846D01*
X120504761Y-45645846D02*
X120238095Y-45645846D01*
X121038095Y-45760132D02*
X121647619Y-45760132D01*
X121342857Y-46064894D02*
X121342857Y-45455370D01*
X117952381Y-50464895D02*
X117952381Y-49664895D01*
X117952381Y-49664895D02*
X118409524Y-50464895D01*
X118409524Y-50464895D02*
X118409524Y-49664895D01*
X118790476Y-50464895D02*
X118790476Y-49664895D01*
X118790476Y-49664895D02*
X119247619Y-50464895D01*
X119247619Y-50464895D02*
X119247619Y-49664895D01*
X119438095Y-50541085D02*
X120047618Y-50541085D01*
X120504761Y-50045847D02*
X120619047Y-50083942D01*
X120619047Y-50083942D02*
X120657142Y-50122038D01*
X120657142Y-50122038D02*
X120695238Y-50198228D01*
X120695238Y-50198228D02*
X120695238Y-50312514D01*
X120695238Y-50312514D02*
X120657142Y-50388704D01*
X120657142Y-50388704D02*
X120619047Y-50426800D01*
X120619047Y-50426800D02*
X120542857Y-50464895D01*
X120542857Y-50464895D02*
X120238095Y-50464895D01*
X120238095Y-50464895D02*
X120238095Y-49664895D01*
X120238095Y-49664895D02*
X120504761Y-49664895D01*
X120504761Y-49664895D02*
X120580952Y-49702990D01*
X120580952Y-49702990D02*
X120619047Y-49741085D01*
X120619047Y-49741085D02*
X120657142Y-49817276D01*
X120657142Y-49817276D02*
X120657142Y-49893466D01*
X120657142Y-49893466D02*
X120619047Y-49969657D01*
X120619047Y-49969657D02*
X120580952Y-50007752D01*
X120580952Y-50007752D02*
X120504761Y-50045847D01*
X120504761Y-50045847D02*
X120238095Y-50045847D01*
X121038095Y-50160133D02*
X121647619Y-50160133D01*
D10*
X225075595Y-121054819D02*
X225075595Y-120054819D01*
X225075595Y-120531009D02*
X225647023Y-120531009D01*
X225647023Y-121054819D02*
X225647023Y-120054819D01*
X226599404Y-120054819D02*
X226123214Y-120054819D01*
X226123214Y-120054819D02*
X226075595Y-120531009D01*
X226075595Y-120531009D02*
X226123214Y-120483390D01*
X226123214Y-120483390D02*
X226218452Y-120435771D01*
X226218452Y-120435771D02*
X226456547Y-120435771D01*
X226456547Y-120435771D02*
X226551785Y-120483390D01*
X226551785Y-120483390D02*
X226599404Y-120531009D01*
X226599404Y-120531009D02*
X226647023Y-120626247D01*
X226647023Y-120626247D02*
X226647023Y-120864342D01*
X226647023Y-120864342D02*
X226599404Y-120959580D01*
X226599404Y-120959580D02*
X226551785Y-121007200D01*
X226551785Y-121007200D02*
X226456547Y-121054819D01*
X226456547Y-121054819D02*
X226218452Y-121054819D01*
X226218452Y-121054819D02*
X226123214Y-121007200D01*
X226123214Y-121007200D02*
X226075595Y-120959580D01*
X38238095Y-162054819D02*
X38238095Y-161054819D01*
X38238095Y-161531009D02*
X38809523Y-161531009D01*
X38809523Y-162054819D02*
X38809523Y-161054819D01*
X39809523Y-162054819D02*
X39238095Y-162054819D01*
X39523809Y-162054819D02*
X39523809Y-161054819D01*
X39523809Y-161054819D02*
X39428571Y-161197676D01*
X39428571Y-161197676D02*
X39333333Y-161292914D01*
X39333333Y-161292914D02*
X39238095Y-161340533D01*
X95628571Y-59557200D02*
X95771428Y-59604819D01*
X95771428Y-59604819D02*
X96009523Y-59604819D01*
X96009523Y-59604819D02*
X96104761Y-59557200D01*
X96104761Y-59557200D02*
X96152380Y-59509580D01*
X96152380Y-59509580D02*
X96199999Y-59414342D01*
X96199999Y-59414342D02*
X96199999Y-59319104D01*
X96199999Y-59319104D02*
X96152380Y-59223866D01*
X96152380Y-59223866D02*
X96104761Y-59176247D01*
X96104761Y-59176247D02*
X96009523Y-59128628D01*
X96009523Y-59128628D02*
X95819047Y-59081009D01*
X95819047Y-59081009D02*
X95723809Y-59033390D01*
X95723809Y-59033390D02*
X95676190Y-58985771D01*
X95676190Y-58985771D02*
X95628571Y-58890533D01*
X95628571Y-58890533D02*
X95628571Y-58795295D01*
X95628571Y-58795295D02*
X95676190Y-58700057D01*
X95676190Y-58700057D02*
X95723809Y-58652438D01*
X95723809Y-58652438D02*
X95819047Y-58604819D01*
X95819047Y-58604819D02*
X96057142Y-58604819D01*
X96057142Y-58604819D02*
X96199999Y-58652438D01*
X96533333Y-58604819D02*
X96771428Y-59604819D01*
X96771428Y-59604819D02*
X96961904Y-58890533D01*
X96961904Y-58890533D02*
X97152380Y-59604819D01*
X97152380Y-59604819D02*
X97390476Y-58604819D01*
X97533333Y-59700057D02*
X98295237Y-59700057D01*
X99104761Y-59604819D02*
X98771428Y-59128628D01*
X98533333Y-59604819D02*
X98533333Y-58604819D01*
X98533333Y-58604819D02*
X98914285Y-58604819D01*
X98914285Y-58604819D02*
X99009523Y-58652438D01*
X99009523Y-58652438D02*
X99057142Y-58700057D01*
X99057142Y-58700057D02*
X99104761Y-58795295D01*
X99104761Y-58795295D02*
X99104761Y-58938152D01*
X99104761Y-58938152D02*
X99057142Y-59033390D01*
X99057142Y-59033390D02*
X99009523Y-59081009D01*
X99009523Y-59081009D02*
X98914285Y-59128628D01*
X98914285Y-59128628D02*
X98533333Y-59128628D01*
X99485714Y-59557200D02*
X99628571Y-59604819D01*
X99628571Y-59604819D02*
X99866666Y-59604819D01*
X99866666Y-59604819D02*
X99961904Y-59557200D01*
X99961904Y-59557200D02*
X100009523Y-59509580D01*
X100009523Y-59509580D02*
X100057142Y-59414342D01*
X100057142Y-59414342D02*
X100057142Y-59319104D01*
X100057142Y-59319104D02*
X100009523Y-59223866D01*
X100009523Y-59223866D02*
X99961904Y-59176247D01*
X99961904Y-59176247D02*
X99866666Y-59128628D01*
X99866666Y-59128628D02*
X99676190Y-59081009D01*
X99676190Y-59081009D02*
X99580952Y-59033390D01*
X99580952Y-59033390D02*
X99533333Y-58985771D01*
X99533333Y-58985771D02*
X99485714Y-58890533D01*
X99485714Y-58890533D02*
X99485714Y-58795295D01*
X99485714Y-58795295D02*
X99533333Y-58700057D01*
X99533333Y-58700057D02*
X99580952Y-58652438D01*
X99580952Y-58652438D02*
X99676190Y-58604819D01*
X99676190Y-58604819D02*
X99914285Y-58604819D01*
X99914285Y-58604819D02*
X100057142Y-58652438D01*
X100342857Y-58604819D02*
X100914285Y-58604819D01*
X100628571Y-59604819D02*
X100628571Y-58604819D01*
X101771428Y-59604819D02*
X101200000Y-59604819D01*
X101485714Y-59604819D02*
X101485714Y-58604819D01*
X101485714Y-58604819D02*
X101390476Y-58747676D01*
X101390476Y-58747676D02*
X101295238Y-58842914D01*
X101295238Y-58842914D02*
X101200000Y-58890533D01*
X70038095Y-41304819D02*
X70038095Y-40304819D01*
X70038095Y-40781009D02*
X70609523Y-40781009D01*
X70609523Y-41304819D02*
X70609523Y-40304819D01*
X70990476Y-40304819D02*
X71609523Y-40304819D01*
X71609523Y-40304819D02*
X71276190Y-40685771D01*
X71276190Y-40685771D02*
X71419047Y-40685771D01*
X71419047Y-40685771D02*
X71514285Y-40733390D01*
X71514285Y-40733390D02*
X71561904Y-40781009D01*
X71561904Y-40781009D02*
X71609523Y-40876247D01*
X71609523Y-40876247D02*
X71609523Y-41114342D01*
X71609523Y-41114342D02*
X71561904Y-41209580D01*
X71561904Y-41209580D02*
X71514285Y-41257200D01*
X71514285Y-41257200D02*
X71419047Y-41304819D01*
X71419047Y-41304819D02*
X71133333Y-41304819D01*
X71133333Y-41304819D02*
X71038095Y-41257200D01*
X71038095Y-41257200D02*
X70990476Y-41209580D01*
D12*
X87832380Y-48309271D02*
X87832380Y-49337366D01*
X87832380Y-49337366D02*
X87892857Y-49458318D01*
X87892857Y-49458318D02*
X87953333Y-49518795D01*
X87953333Y-49518795D02*
X88074285Y-49579271D01*
X88074285Y-49579271D02*
X88316190Y-49579271D01*
X88316190Y-49579271D02*
X88437142Y-49518795D01*
X88437142Y-49518795D02*
X88497619Y-49458318D01*
X88497619Y-49458318D02*
X88558095Y-49337366D01*
X88558095Y-49337366D02*
X88558095Y-48309271D01*
X89828095Y-49579271D02*
X89102380Y-49579271D01*
X89465237Y-49579271D02*
X89465237Y-48309271D01*
X89465237Y-48309271D02*
X89344285Y-48490699D01*
X89344285Y-48490699D02*
X89223333Y-48611652D01*
X89223333Y-48611652D02*
X89102380Y-48672128D01*
D11*
X74239524Y-42574895D02*
X74239524Y-41774895D01*
X74239524Y-41774895D02*
X74430000Y-41774895D01*
X74430000Y-41774895D02*
X74544286Y-41812990D01*
X74544286Y-41812990D02*
X74620476Y-41889180D01*
X74620476Y-41889180D02*
X74658571Y-41965371D01*
X74658571Y-41965371D02*
X74696667Y-42117752D01*
X74696667Y-42117752D02*
X74696667Y-42232038D01*
X74696667Y-42232038D02*
X74658571Y-42384419D01*
X74658571Y-42384419D02*
X74620476Y-42460609D01*
X74620476Y-42460609D02*
X74544286Y-42536800D01*
X74544286Y-42536800D02*
X74430000Y-42574895D01*
X74430000Y-42574895D02*
X74239524Y-42574895D01*
X75077619Y-42574895D02*
X75230000Y-42574895D01*
X75230000Y-42574895D02*
X75306190Y-42536800D01*
X75306190Y-42536800D02*
X75344286Y-42498704D01*
X75344286Y-42498704D02*
X75420476Y-42384419D01*
X75420476Y-42384419D02*
X75458571Y-42232038D01*
X75458571Y-42232038D02*
X75458571Y-41927276D01*
X75458571Y-41927276D02*
X75420476Y-41851085D01*
X75420476Y-41851085D02*
X75382381Y-41812990D01*
X75382381Y-41812990D02*
X75306190Y-41774895D01*
X75306190Y-41774895D02*
X75153809Y-41774895D01*
X75153809Y-41774895D02*
X75077619Y-41812990D01*
X75077619Y-41812990D02*
X75039524Y-41851085D01*
X75039524Y-41851085D02*
X75001428Y-41927276D01*
X75001428Y-41927276D02*
X75001428Y-42117752D01*
X75001428Y-42117752D02*
X75039524Y-42193942D01*
X75039524Y-42193942D02*
X75077619Y-42232038D01*
X75077619Y-42232038D02*
X75153809Y-42270133D01*
X75153809Y-42270133D02*
X75306190Y-42270133D01*
X75306190Y-42270133D02*
X75382381Y-42232038D01*
X75382381Y-42232038D02*
X75420476Y-42193942D01*
X75420476Y-42193942D02*
X75458571Y-42117752D01*
X73858571Y-56154895D02*
X73858571Y-55354895D01*
X73858571Y-55354895D02*
X74049047Y-55354895D01*
X74049047Y-55354895D02*
X74163333Y-55392990D01*
X74163333Y-55392990D02*
X74239523Y-55469180D01*
X74239523Y-55469180D02*
X74277618Y-55545371D01*
X74277618Y-55545371D02*
X74315714Y-55697752D01*
X74315714Y-55697752D02*
X74315714Y-55812038D01*
X74315714Y-55812038D02*
X74277618Y-55964419D01*
X74277618Y-55964419D02*
X74239523Y-56040609D01*
X74239523Y-56040609D02*
X74163333Y-56116800D01*
X74163333Y-56116800D02*
X74049047Y-56154895D01*
X74049047Y-56154895D02*
X73858571Y-56154895D01*
X75077618Y-56154895D02*
X74620475Y-56154895D01*
X74849047Y-56154895D02*
X74849047Y-55354895D01*
X74849047Y-55354895D02*
X74772856Y-55469180D01*
X74772856Y-55469180D02*
X74696666Y-55545371D01*
X74696666Y-55545371D02*
X74620475Y-55583466D01*
X75572857Y-55354895D02*
X75649047Y-55354895D01*
X75649047Y-55354895D02*
X75725238Y-55392990D01*
X75725238Y-55392990D02*
X75763333Y-55431085D01*
X75763333Y-55431085D02*
X75801428Y-55507276D01*
X75801428Y-55507276D02*
X75839523Y-55659657D01*
X75839523Y-55659657D02*
X75839523Y-55850133D01*
X75839523Y-55850133D02*
X75801428Y-56002514D01*
X75801428Y-56002514D02*
X75763333Y-56078704D01*
X75763333Y-56078704D02*
X75725238Y-56116800D01*
X75725238Y-56116800D02*
X75649047Y-56154895D01*
X75649047Y-56154895D02*
X75572857Y-56154895D01*
X75572857Y-56154895D02*
X75496666Y-56116800D01*
X75496666Y-56116800D02*
X75458571Y-56078704D01*
X75458571Y-56078704D02*
X75420476Y-56002514D01*
X75420476Y-56002514D02*
X75382380Y-55850133D01*
X75382380Y-55850133D02*
X75382380Y-55659657D01*
X75382380Y-55659657D02*
X75420476Y-55507276D01*
X75420476Y-55507276D02*
X75458571Y-55431085D01*
X75458571Y-55431085D02*
X75496666Y-55392990D01*
X75496666Y-55392990D02*
X75572857Y-55354895D01*
X76779524Y-42574895D02*
X76779524Y-41774895D01*
X76779524Y-41774895D02*
X76970000Y-41774895D01*
X76970000Y-41774895D02*
X77084286Y-41812990D01*
X77084286Y-41812990D02*
X77160476Y-41889180D01*
X77160476Y-41889180D02*
X77198571Y-41965371D01*
X77198571Y-41965371D02*
X77236667Y-42117752D01*
X77236667Y-42117752D02*
X77236667Y-42232038D01*
X77236667Y-42232038D02*
X77198571Y-42384419D01*
X77198571Y-42384419D02*
X77160476Y-42460609D01*
X77160476Y-42460609D02*
X77084286Y-42536800D01*
X77084286Y-42536800D02*
X76970000Y-42574895D01*
X76970000Y-42574895D02*
X76779524Y-42574895D01*
X77693809Y-42117752D02*
X77617619Y-42079657D01*
X77617619Y-42079657D02*
X77579524Y-42041561D01*
X77579524Y-42041561D02*
X77541428Y-41965371D01*
X77541428Y-41965371D02*
X77541428Y-41927276D01*
X77541428Y-41927276D02*
X77579524Y-41851085D01*
X77579524Y-41851085D02*
X77617619Y-41812990D01*
X77617619Y-41812990D02*
X77693809Y-41774895D01*
X77693809Y-41774895D02*
X77846190Y-41774895D01*
X77846190Y-41774895D02*
X77922381Y-41812990D01*
X77922381Y-41812990D02*
X77960476Y-41851085D01*
X77960476Y-41851085D02*
X77998571Y-41927276D01*
X77998571Y-41927276D02*
X77998571Y-41965371D01*
X77998571Y-41965371D02*
X77960476Y-42041561D01*
X77960476Y-42041561D02*
X77922381Y-42079657D01*
X77922381Y-42079657D02*
X77846190Y-42117752D01*
X77846190Y-42117752D02*
X77693809Y-42117752D01*
X77693809Y-42117752D02*
X77617619Y-42155847D01*
X77617619Y-42155847D02*
X77579524Y-42193942D01*
X77579524Y-42193942D02*
X77541428Y-42270133D01*
X77541428Y-42270133D02*
X77541428Y-42422514D01*
X77541428Y-42422514D02*
X77579524Y-42498704D01*
X77579524Y-42498704D02*
X77617619Y-42536800D01*
X77617619Y-42536800D02*
X77693809Y-42574895D01*
X77693809Y-42574895D02*
X77846190Y-42574895D01*
X77846190Y-42574895D02*
X77922381Y-42536800D01*
X77922381Y-42536800D02*
X77960476Y-42498704D01*
X77960476Y-42498704D02*
X77998571Y-42422514D01*
X77998571Y-42422514D02*
X77998571Y-42270133D01*
X77998571Y-42270133D02*
X77960476Y-42193942D01*
X77960476Y-42193942D02*
X77922381Y-42155847D01*
X77922381Y-42155847D02*
X77846190Y-42117752D01*
X76398571Y-56154895D02*
X76398571Y-55354895D01*
X76398571Y-55354895D02*
X76589047Y-55354895D01*
X76589047Y-55354895D02*
X76703333Y-55392990D01*
X76703333Y-55392990D02*
X76779523Y-55469180D01*
X76779523Y-55469180D02*
X76817618Y-55545371D01*
X76817618Y-55545371D02*
X76855714Y-55697752D01*
X76855714Y-55697752D02*
X76855714Y-55812038D01*
X76855714Y-55812038D02*
X76817618Y-55964419D01*
X76817618Y-55964419D02*
X76779523Y-56040609D01*
X76779523Y-56040609D02*
X76703333Y-56116800D01*
X76703333Y-56116800D02*
X76589047Y-56154895D01*
X76589047Y-56154895D02*
X76398571Y-56154895D01*
X77617618Y-56154895D02*
X77160475Y-56154895D01*
X77389047Y-56154895D02*
X77389047Y-55354895D01*
X77389047Y-55354895D02*
X77312856Y-55469180D01*
X77312856Y-55469180D02*
X77236666Y-55545371D01*
X77236666Y-55545371D02*
X77160475Y-55583466D01*
X78303333Y-55354895D02*
X78150952Y-55354895D01*
X78150952Y-55354895D02*
X78074761Y-55392990D01*
X78074761Y-55392990D02*
X78036666Y-55431085D01*
X78036666Y-55431085D02*
X77960476Y-55545371D01*
X77960476Y-55545371D02*
X77922380Y-55697752D01*
X77922380Y-55697752D02*
X77922380Y-56002514D01*
X77922380Y-56002514D02*
X77960476Y-56078704D01*
X77960476Y-56078704D02*
X77998571Y-56116800D01*
X77998571Y-56116800D02*
X78074761Y-56154895D01*
X78074761Y-56154895D02*
X78227142Y-56154895D01*
X78227142Y-56154895D02*
X78303333Y-56116800D01*
X78303333Y-56116800D02*
X78341428Y-56078704D01*
X78341428Y-56078704D02*
X78379523Y-56002514D01*
X78379523Y-56002514D02*
X78379523Y-55812038D01*
X78379523Y-55812038D02*
X78341428Y-55735847D01*
X78341428Y-55735847D02*
X78303333Y-55697752D01*
X78303333Y-55697752D02*
X78227142Y-55659657D01*
X78227142Y-55659657D02*
X78074761Y-55659657D01*
X78074761Y-55659657D02*
X77998571Y-55697752D01*
X77998571Y-55697752D02*
X77960476Y-55735847D01*
X77960476Y-55735847D02*
X77922380Y-55812038D01*
X79319524Y-42574895D02*
X79319524Y-41774895D01*
X79319524Y-41774895D02*
X79510000Y-41774895D01*
X79510000Y-41774895D02*
X79624286Y-41812990D01*
X79624286Y-41812990D02*
X79700476Y-41889180D01*
X79700476Y-41889180D02*
X79738571Y-41965371D01*
X79738571Y-41965371D02*
X79776667Y-42117752D01*
X79776667Y-42117752D02*
X79776667Y-42232038D01*
X79776667Y-42232038D02*
X79738571Y-42384419D01*
X79738571Y-42384419D02*
X79700476Y-42460609D01*
X79700476Y-42460609D02*
X79624286Y-42536800D01*
X79624286Y-42536800D02*
X79510000Y-42574895D01*
X79510000Y-42574895D02*
X79319524Y-42574895D01*
X80043333Y-41774895D02*
X80576667Y-41774895D01*
X80576667Y-41774895D02*
X80233809Y-42574895D01*
X78938571Y-56154895D02*
X78938571Y-55354895D01*
X78938571Y-55354895D02*
X79129047Y-55354895D01*
X79129047Y-55354895D02*
X79243333Y-55392990D01*
X79243333Y-55392990D02*
X79319523Y-55469180D01*
X79319523Y-55469180D02*
X79357618Y-55545371D01*
X79357618Y-55545371D02*
X79395714Y-55697752D01*
X79395714Y-55697752D02*
X79395714Y-55812038D01*
X79395714Y-55812038D02*
X79357618Y-55964419D01*
X79357618Y-55964419D02*
X79319523Y-56040609D01*
X79319523Y-56040609D02*
X79243333Y-56116800D01*
X79243333Y-56116800D02*
X79129047Y-56154895D01*
X79129047Y-56154895D02*
X78938571Y-56154895D01*
X80157618Y-56154895D02*
X79700475Y-56154895D01*
X79929047Y-56154895D02*
X79929047Y-55354895D01*
X79929047Y-55354895D02*
X79852856Y-55469180D01*
X79852856Y-55469180D02*
X79776666Y-55545371D01*
X79776666Y-55545371D02*
X79700475Y-55583466D01*
X80843333Y-55621561D02*
X80843333Y-56154895D01*
X80652857Y-55316800D02*
X80462380Y-55888228D01*
X80462380Y-55888228D02*
X80957619Y-55888228D01*
X81859524Y-42574895D02*
X81859524Y-41774895D01*
X81859524Y-41774895D02*
X82050000Y-41774895D01*
X82050000Y-41774895D02*
X82164286Y-41812990D01*
X82164286Y-41812990D02*
X82240476Y-41889180D01*
X82240476Y-41889180D02*
X82278571Y-41965371D01*
X82278571Y-41965371D02*
X82316667Y-42117752D01*
X82316667Y-42117752D02*
X82316667Y-42232038D01*
X82316667Y-42232038D02*
X82278571Y-42384419D01*
X82278571Y-42384419D02*
X82240476Y-42460609D01*
X82240476Y-42460609D02*
X82164286Y-42536800D01*
X82164286Y-42536800D02*
X82050000Y-42574895D01*
X82050000Y-42574895D02*
X81859524Y-42574895D01*
X83002381Y-41774895D02*
X82850000Y-41774895D01*
X82850000Y-41774895D02*
X82773809Y-41812990D01*
X82773809Y-41812990D02*
X82735714Y-41851085D01*
X82735714Y-41851085D02*
X82659524Y-41965371D01*
X82659524Y-41965371D02*
X82621428Y-42117752D01*
X82621428Y-42117752D02*
X82621428Y-42422514D01*
X82621428Y-42422514D02*
X82659524Y-42498704D01*
X82659524Y-42498704D02*
X82697619Y-42536800D01*
X82697619Y-42536800D02*
X82773809Y-42574895D01*
X82773809Y-42574895D02*
X82926190Y-42574895D01*
X82926190Y-42574895D02*
X83002381Y-42536800D01*
X83002381Y-42536800D02*
X83040476Y-42498704D01*
X83040476Y-42498704D02*
X83078571Y-42422514D01*
X83078571Y-42422514D02*
X83078571Y-42232038D01*
X83078571Y-42232038D02*
X83040476Y-42155847D01*
X83040476Y-42155847D02*
X83002381Y-42117752D01*
X83002381Y-42117752D02*
X82926190Y-42079657D01*
X82926190Y-42079657D02*
X82773809Y-42079657D01*
X82773809Y-42079657D02*
X82697619Y-42117752D01*
X82697619Y-42117752D02*
X82659524Y-42155847D01*
X82659524Y-42155847D02*
X82621428Y-42232038D01*
X81478571Y-56154895D02*
X81478571Y-55354895D01*
X81478571Y-55354895D02*
X81669047Y-55354895D01*
X81669047Y-55354895D02*
X81783333Y-55392990D01*
X81783333Y-55392990D02*
X81859523Y-55469180D01*
X81859523Y-55469180D02*
X81897618Y-55545371D01*
X81897618Y-55545371D02*
X81935714Y-55697752D01*
X81935714Y-55697752D02*
X81935714Y-55812038D01*
X81935714Y-55812038D02*
X81897618Y-55964419D01*
X81897618Y-55964419D02*
X81859523Y-56040609D01*
X81859523Y-56040609D02*
X81783333Y-56116800D01*
X81783333Y-56116800D02*
X81669047Y-56154895D01*
X81669047Y-56154895D02*
X81478571Y-56154895D01*
X82697618Y-56154895D02*
X82240475Y-56154895D01*
X82469047Y-56154895D02*
X82469047Y-55354895D01*
X82469047Y-55354895D02*
X82392856Y-55469180D01*
X82392856Y-55469180D02*
X82316666Y-55545371D01*
X82316666Y-55545371D02*
X82240475Y-55583466D01*
X83421428Y-55354895D02*
X83040476Y-55354895D01*
X83040476Y-55354895D02*
X83002380Y-55735847D01*
X83002380Y-55735847D02*
X83040476Y-55697752D01*
X83040476Y-55697752D02*
X83116666Y-55659657D01*
X83116666Y-55659657D02*
X83307142Y-55659657D01*
X83307142Y-55659657D02*
X83383333Y-55697752D01*
X83383333Y-55697752D02*
X83421428Y-55735847D01*
X83421428Y-55735847D02*
X83459523Y-55812038D01*
X83459523Y-55812038D02*
X83459523Y-56002514D01*
X83459523Y-56002514D02*
X83421428Y-56078704D01*
X83421428Y-56078704D02*
X83383333Y-56116800D01*
X83383333Y-56116800D02*
X83307142Y-56154895D01*
X83307142Y-56154895D02*
X83116666Y-56154895D01*
X83116666Y-56154895D02*
X83040476Y-56116800D01*
X83040476Y-56116800D02*
X83002380Y-56078704D01*
X84399524Y-42574895D02*
X84399524Y-41774895D01*
X84399524Y-41774895D02*
X84590000Y-41774895D01*
X84590000Y-41774895D02*
X84704286Y-41812990D01*
X84704286Y-41812990D02*
X84780476Y-41889180D01*
X84780476Y-41889180D02*
X84818571Y-41965371D01*
X84818571Y-41965371D02*
X84856667Y-42117752D01*
X84856667Y-42117752D02*
X84856667Y-42232038D01*
X84856667Y-42232038D02*
X84818571Y-42384419D01*
X84818571Y-42384419D02*
X84780476Y-42460609D01*
X84780476Y-42460609D02*
X84704286Y-42536800D01*
X84704286Y-42536800D02*
X84590000Y-42574895D01*
X84590000Y-42574895D02*
X84399524Y-42574895D01*
X85580476Y-41774895D02*
X85199524Y-41774895D01*
X85199524Y-41774895D02*
X85161428Y-42155847D01*
X85161428Y-42155847D02*
X85199524Y-42117752D01*
X85199524Y-42117752D02*
X85275714Y-42079657D01*
X85275714Y-42079657D02*
X85466190Y-42079657D01*
X85466190Y-42079657D02*
X85542381Y-42117752D01*
X85542381Y-42117752D02*
X85580476Y-42155847D01*
X85580476Y-42155847D02*
X85618571Y-42232038D01*
X85618571Y-42232038D02*
X85618571Y-42422514D01*
X85618571Y-42422514D02*
X85580476Y-42498704D01*
X85580476Y-42498704D02*
X85542381Y-42536800D01*
X85542381Y-42536800D02*
X85466190Y-42574895D01*
X85466190Y-42574895D02*
X85275714Y-42574895D01*
X85275714Y-42574895D02*
X85199524Y-42536800D01*
X85199524Y-42536800D02*
X85161428Y-42498704D01*
X84018571Y-56154895D02*
X84018571Y-55354895D01*
X84018571Y-55354895D02*
X84209047Y-55354895D01*
X84209047Y-55354895D02*
X84323333Y-55392990D01*
X84323333Y-55392990D02*
X84399523Y-55469180D01*
X84399523Y-55469180D02*
X84437618Y-55545371D01*
X84437618Y-55545371D02*
X84475714Y-55697752D01*
X84475714Y-55697752D02*
X84475714Y-55812038D01*
X84475714Y-55812038D02*
X84437618Y-55964419D01*
X84437618Y-55964419D02*
X84399523Y-56040609D01*
X84399523Y-56040609D02*
X84323333Y-56116800D01*
X84323333Y-56116800D02*
X84209047Y-56154895D01*
X84209047Y-56154895D02*
X84018571Y-56154895D01*
X85237618Y-56154895D02*
X84780475Y-56154895D01*
X85009047Y-56154895D02*
X85009047Y-55354895D01*
X85009047Y-55354895D02*
X84932856Y-55469180D01*
X84932856Y-55469180D02*
X84856666Y-55545371D01*
X84856666Y-55545371D02*
X84780475Y-55583466D01*
X85694761Y-55697752D02*
X85618571Y-55659657D01*
X85618571Y-55659657D02*
X85580476Y-55621561D01*
X85580476Y-55621561D02*
X85542380Y-55545371D01*
X85542380Y-55545371D02*
X85542380Y-55507276D01*
X85542380Y-55507276D02*
X85580476Y-55431085D01*
X85580476Y-55431085D02*
X85618571Y-55392990D01*
X85618571Y-55392990D02*
X85694761Y-55354895D01*
X85694761Y-55354895D02*
X85847142Y-55354895D01*
X85847142Y-55354895D02*
X85923333Y-55392990D01*
X85923333Y-55392990D02*
X85961428Y-55431085D01*
X85961428Y-55431085D02*
X85999523Y-55507276D01*
X85999523Y-55507276D02*
X85999523Y-55545371D01*
X85999523Y-55545371D02*
X85961428Y-55621561D01*
X85961428Y-55621561D02*
X85923333Y-55659657D01*
X85923333Y-55659657D02*
X85847142Y-55697752D01*
X85847142Y-55697752D02*
X85694761Y-55697752D01*
X85694761Y-55697752D02*
X85618571Y-55735847D01*
X85618571Y-55735847D02*
X85580476Y-55773942D01*
X85580476Y-55773942D02*
X85542380Y-55850133D01*
X85542380Y-55850133D02*
X85542380Y-56002514D01*
X85542380Y-56002514D02*
X85580476Y-56078704D01*
X85580476Y-56078704D02*
X85618571Y-56116800D01*
X85618571Y-56116800D02*
X85694761Y-56154895D01*
X85694761Y-56154895D02*
X85847142Y-56154895D01*
X85847142Y-56154895D02*
X85923333Y-56116800D01*
X85923333Y-56116800D02*
X85961428Y-56078704D01*
X85961428Y-56078704D02*
X85999523Y-56002514D01*
X85999523Y-56002514D02*
X85999523Y-55850133D01*
X85999523Y-55850133D02*
X85961428Y-55773942D01*
X85961428Y-55773942D02*
X85923333Y-55735847D01*
X85923333Y-55735847D02*
X85847142Y-55697752D01*
X86939524Y-42574895D02*
X86939524Y-41774895D01*
X86939524Y-41774895D02*
X87130000Y-41774895D01*
X87130000Y-41774895D02*
X87244286Y-41812990D01*
X87244286Y-41812990D02*
X87320476Y-41889180D01*
X87320476Y-41889180D02*
X87358571Y-41965371D01*
X87358571Y-41965371D02*
X87396667Y-42117752D01*
X87396667Y-42117752D02*
X87396667Y-42232038D01*
X87396667Y-42232038D02*
X87358571Y-42384419D01*
X87358571Y-42384419D02*
X87320476Y-42460609D01*
X87320476Y-42460609D02*
X87244286Y-42536800D01*
X87244286Y-42536800D02*
X87130000Y-42574895D01*
X87130000Y-42574895D02*
X86939524Y-42574895D01*
X88082381Y-42041561D02*
X88082381Y-42574895D01*
X87891905Y-41736800D02*
X87701428Y-42308228D01*
X87701428Y-42308228D02*
X88196667Y-42308228D01*
X86558571Y-56154895D02*
X86558571Y-55354895D01*
X86558571Y-55354895D02*
X86749047Y-55354895D01*
X86749047Y-55354895D02*
X86863333Y-55392990D01*
X86863333Y-55392990D02*
X86939523Y-55469180D01*
X86939523Y-55469180D02*
X86977618Y-55545371D01*
X86977618Y-55545371D02*
X87015714Y-55697752D01*
X87015714Y-55697752D02*
X87015714Y-55812038D01*
X87015714Y-55812038D02*
X86977618Y-55964419D01*
X86977618Y-55964419D02*
X86939523Y-56040609D01*
X86939523Y-56040609D02*
X86863333Y-56116800D01*
X86863333Y-56116800D02*
X86749047Y-56154895D01*
X86749047Y-56154895D02*
X86558571Y-56154895D01*
X87777618Y-56154895D02*
X87320475Y-56154895D01*
X87549047Y-56154895D02*
X87549047Y-55354895D01*
X87549047Y-55354895D02*
X87472856Y-55469180D01*
X87472856Y-55469180D02*
X87396666Y-55545371D01*
X87396666Y-55545371D02*
X87320475Y-55583466D01*
X88158571Y-56154895D02*
X88310952Y-56154895D01*
X88310952Y-56154895D02*
X88387142Y-56116800D01*
X88387142Y-56116800D02*
X88425238Y-56078704D01*
X88425238Y-56078704D02*
X88501428Y-55964419D01*
X88501428Y-55964419D02*
X88539523Y-55812038D01*
X88539523Y-55812038D02*
X88539523Y-55507276D01*
X88539523Y-55507276D02*
X88501428Y-55431085D01*
X88501428Y-55431085D02*
X88463333Y-55392990D01*
X88463333Y-55392990D02*
X88387142Y-55354895D01*
X88387142Y-55354895D02*
X88234761Y-55354895D01*
X88234761Y-55354895D02*
X88158571Y-55392990D01*
X88158571Y-55392990D02*
X88120476Y-55431085D01*
X88120476Y-55431085D02*
X88082380Y-55507276D01*
X88082380Y-55507276D02*
X88082380Y-55697752D01*
X88082380Y-55697752D02*
X88120476Y-55773942D01*
X88120476Y-55773942D02*
X88158571Y-55812038D01*
X88158571Y-55812038D02*
X88234761Y-55850133D01*
X88234761Y-55850133D02*
X88387142Y-55850133D01*
X88387142Y-55850133D02*
X88463333Y-55812038D01*
X88463333Y-55812038D02*
X88501428Y-55773942D01*
X88501428Y-55773942D02*
X88539523Y-55697752D01*
X89479524Y-42574895D02*
X89479524Y-41774895D01*
X89479524Y-41774895D02*
X89670000Y-41774895D01*
X89670000Y-41774895D02*
X89784286Y-41812990D01*
X89784286Y-41812990D02*
X89860476Y-41889180D01*
X89860476Y-41889180D02*
X89898571Y-41965371D01*
X89898571Y-41965371D02*
X89936667Y-42117752D01*
X89936667Y-42117752D02*
X89936667Y-42232038D01*
X89936667Y-42232038D02*
X89898571Y-42384419D01*
X89898571Y-42384419D02*
X89860476Y-42460609D01*
X89860476Y-42460609D02*
X89784286Y-42536800D01*
X89784286Y-42536800D02*
X89670000Y-42574895D01*
X89670000Y-42574895D02*
X89479524Y-42574895D01*
X90203333Y-41774895D02*
X90698571Y-41774895D01*
X90698571Y-41774895D02*
X90431905Y-42079657D01*
X90431905Y-42079657D02*
X90546190Y-42079657D01*
X90546190Y-42079657D02*
X90622381Y-42117752D01*
X90622381Y-42117752D02*
X90660476Y-42155847D01*
X90660476Y-42155847D02*
X90698571Y-42232038D01*
X90698571Y-42232038D02*
X90698571Y-42422514D01*
X90698571Y-42422514D02*
X90660476Y-42498704D01*
X90660476Y-42498704D02*
X90622381Y-42536800D01*
X90622381Y-42536800D02*
X90546190Y-42574895D01*
X90546190Y-42574895D02*
X90317619Y-42574895D01*
X90317619Y-42574895D02*
X90241428Y-42536800D01*
X90241428Y-42536800D02*
X90203333Y-42498704D01*
X89098571Y-56154895D02*
X89098571Y-55354895D01*
X89098571Y-55354895D02*
X89289047Y-55354895D01*
X89289047Y-55354895D02*
X89403333Y-55392990D01*
X89403333Y-55392990D02*
X89479523Y-55469180D01*
X89479523Y-55469180D02*
X89517618Y-55545371D01*
X89517618Y-55545371D02*
X89555714Y-55697752D01*
X89555714Y-55697752D02*
X89555714Y-55812038D01*
X89555714Y-55812038D02*
X89517618Y-55964419D01*
X89517618Y-55964419D02*
X89479523Y-56040609D01*
X89479523Y-56040609D02*
X89403333Y-56116800D01*
X89403333Y-56116800D02*
X89289047Y-56154895D01*
X89289047Y-56154895D02*
X89098571Y-56154895D01*
X89860475Y-55431085D02*
X89898571Y-55392990D01*
X89898571Y-55392990D02*
X89974761Y-55354895D01*
X89974761Y-55354895D02*
X90165237Y-55354895D01*
X90165237Y-55354895D02*
X90241428Y-55392990D01*
X90241428Y-55392990D02*
X90279523Y-55431085D01*
X90279523Y-55431085D02*
X90317618Y-55507276D01*
X90317618Y-55507276D02*
X90317618Y-55583466D01*
X90317618Y-55583466D02*
X90279523Y-55697752D01*
X90279523Y-55697752D02*
X89822380Y-56154895D01*
X89822380Y-56154895D02*
X90317618Y-56154895D01*
X90812857Y-55354895D02*
X90889047Y-55354895D01*
X90889047Y-55354895D02*
X90965238Y-55392990D01*
X90965238Y-55392990D02*
X91003333Y-55431085D01*
X91003333Y-55431085D02*
X91041428Y-55507276D01*
X91041428Y-55507276D02*
X91079523Y-55659657D01*
X91079523Y-55659657D02*
X91079523Y-55850133D01*
X91079523Y-55850133D02*
X91041428Y-56002514D01*
X91041428Y-56002514D02*
X91003333Y-56078704D01*
X91003333Y-56078704D02*
X90965238Y-56116800D01*
X90965238Y-56116800D02*
X90889047Y-56154895D01*
X90889047Y-56154895D02*
X90812857Y-56154895D01*
X90812857Y-56154895D02*
X90736666Y-56116800D01*
X90736666Y-56116800D02*
X90698571Y-56078704D01*
X90698571Y-56078704D02*
X90660476Y-56002514D01*
X90660476Y-56002514D02*
X90622380Y-55850133D01*
X90622380Y-55850133D02*
X90622380Y-55659657D01*
X90622380Y-55659657D02*
X90660476Y-55507276D01*
X90660476Y-55507276D02*
X90698571Y-55431085D01*
X90698571Y-55431085D02*
X90736666Y-55392990D01*
X90736666Y-55392990D02*
X90812857Y-55354895D01*
X92019524Y-42574895D02*
X92019524Y-41774895D01*
X92019524Y-41774895D02*
X92210000Y-41774895D01*
X92210000Y-41774895D02*
X92324286Y-41812990D01*
X92324286Y-41812990D02*
X92400476Y-41889180D01*
X92400476Y-41889180D02*
X92438571Y-41965371D01*
X92438571Y-41965371D02*
X92476667Y-42117752D01*
X92476667Y-42117752D02*
X92476667Y-42232038D01*
X92476667Y-42232038D02*
X92438571Y-42384419D01*
X92438571Y-42384419D02*
X92400476Y-42460609D01*
X92400476Y-42460609D02*
X92324286Y-42536800D01*
X92324286Y-42536800D02*
X92210000Y-42574895D01*
X92210000Y-42574895D02*
X92019524Y-42574895D01*
X92781428Y-41851085D02*
X92819524Y-41812990D01*
X92819524Y-41812990D02*
X92895714Y-41774895D01*
X92895714Y-41774895D02*
X93086190Y-41774895D01*
X93086190Y-41774895D02*
X93162381Y-41812990D01*
X93162381Y-41812990D02*
X93200476Y-41851085D01*
X93200476Y-41851085D02*
X93238571Y-41927276D01*
X93238571Y-41927276D02*
X93238571Y-42003466D01*
X93238571Y-42003466D02*
X93200476Y-42117752D01*
X93200476Y-42117752D02*
X92743333Y-42574895D01*
X92743333Y-42574895D02*
X93238571Y-42574895D01*
X91638571Y-56154895D02*
X91638571Y-55354895D01*
X91638571Y-55354895D02*
X91829047Y-55354895D01*
X91829047Y-55354895D02*
X91943333Y-55392990D01*
X91943333Y-55392990D02*
X92019523Y-55469180D01*
X92019523Y-55469180D02*
X92057618Y-55545371D01*
X92057618Y-55545371D02*
X92095714Y-55697752D01*
X92095714Y-55697752D02*
X92095714Y-55812038D01*
X92095714Y-55812038D02*
X92057618Y-55964419D01*
X92057618Y-55964419D02*
X92019523Y-56040609D01*
X92019523Y-56040609D02*
X91943333Y-56116800D01*
X91943333Y-56116800D02*
X91829047Y-56154895D01*
X91829047Y-56154895D02*
X91638571Y-56154895D01*
X92400475Y-55431085D02*
X92438571Y-55392990D01*
X92438571Y-55392990D02*
X92514761Y-55354895D01*
X92514761Y-55354895D02*
X92705237Y-55354895D01*
X92705237Y-55354895D02*
X92781428Y-55392990D01*
X92781428Y-55392990D02*
X92819523Y-55431085D01*
X92819523Y-55431085D02*
X92857618Y-55507276D01*
X92857618Y-55507276D02*
X92857618Y-55583466D01*
X92857618Y-55583466D02*
X92819523Y-55697752D01*
X92819523Y-55697752D02*
X92362380Y-56154895D01*
X92362380Y-56154895D02*
X92857618Y-56154895D01*
X93619523Y-56154895D02*
X93162380Y-56154895D01*
X93390952Y-56154895D02*
X93390952Y-55354895D01*
X93390952Y-55354895D02*
X93314761Y-55469180D01*
X93314761Y-55469180D02*
X93238571Y-55545371D01*
X93238571Y-55545371D02*
X93162380Y-55583466D01*
X95359523Y-41812990D02*
X95283333Y-41774895D01*
X95283333Y-41774895D02*
X95169047Y-41774895D01*
X95169047Y-41774895D02*
X95054761Y-41812990D01*
X95054761Y-41812990D02*
X94978571Y-41889180D01*
X94978571Y-41889180D02*
X94940476Y-41965371D01*
X94940476Y-41965371D02*
X94902380Y-42117752D01*
X94902380Y-42117752D02*
X94902380Y-42232038D01*
X94902380Y-42232038D02*
X94940476Y-42384419D01*
X94940476Y-42384419D02*
X94978571Y-42460609D01*
X94978571Y-42460609D02*
X95054761Y-42536800D01*
X95054761Y-42536800D02*
X95169047Y-42574895D01*
X95169047Y-42574895D02*
X95245238Y-42574895D01*
X95245238Y-42574895D02*
X95359523Y-42536800D01*
X95359523Y-42536800D02*
X95397619Y-42498704D01*
X95397619Y-42498704D02*
X95397619Y-42232038D01*
X95397619Y-42232038D02*
X95245238Y-42232038D01*
X94083333Y-55354895D02*
X94350000Y-56154895D01*
X94350000Y-56154895D02*
X94616666Y-55354895D01*
X95340476Y-56078704D02*
X95302380Y-56116800D01*
X95302380Y-56116800D02*
X95188095Y-56154895D01*
X95188095Y-56154895D02*
X95111904Y-56154895D01*
X95111904Y-56154895D02*
X94997618Y-56116800D01*
X94997618Y-56116800D02*
X94921428Y-56040609D01*
X94921428Y-56040609D02*
X94883333Y-55964419D01*
X94883333Y-55964419D02*
X94845237Y-55812038D01*
X94845237Y-55812038D02*
X94845237Y-55697752D01*
X94845237Y-55697752D02*
X94883333Y-55545371D01*
X94883333Y-55545371D02*
X94921428Y-55469180D01*
X94921428Y-55469180D02*
X94997618Y-55392990D01*
X94997618Y-55392990D02*
X95111904Y-55354895D01*
X95111904Y-55354895D02*
X95188095Y-55354895D01*
X95188095Y-55354895D02*
X95302380Y-55392990D01*
X95302380Y-55392990D02*
X95340476Y-55431085D01*
X96140476Y-56078704D02*
X96102380Y-56116800D01*
X96102380Y-56116800D02*
X95988095Y-56154895D01*
X95988095Y-56154895D02*
X95911904Y-56154895D01*
X95911904Y-56154895D02*
X95797618Y-56116800D01*
X95797618Y-56116800D02*
X95721428Y-56040609D01*
X95721428Y-56040609D02*
X95683333Y-55964419D01*
X95683333Y-55964419D02*
X95645237Y-55812038D01*
X95645237Y-55812038D02*
X95645237Y-55697752D01*
X95645237Y-55697752D02*
X95683333Y-55545371D01*
X95683333Y-55545371D02*
X95721428Y-55469180D01*
X95721428Y-55469180D02*
X95797618Y-55392990D01*
X95797618Y-55392990D02*
X95911904Y-55354895D01*
X95911904Y-55354895D02*
X95988095Y-55354895D01*
X95988095Y-55354895D02*
X96102380Y-55392990D01*
X96102380Y-55392990D02*
X96140476Y-55431085D01*
X97899523Y-41812990D02*
X97823333Y-41774895D01*
X97823333Y-41774895D02*
X97709047Y-41774895D01*
X97709047Y-41774895D02*
X97594761Y-41812990D01*
X97594761Y-41812990D02*
X97518571Y-41889180D01*
X97518571Y-41889180D02*
X97480476Y-41965371D01*
X97480476Y-41965371D02*
X97442380Y-42117752D01*
X97442380Y-42117752D02*
X97442380Y-42232038D01*
X97442380Y-42232038D02*
X97480476Y-42384419D01*
X97480476Y-42384419D02*
X97518571Y-42460609D01*
X97518571Y-42460609D02*
X97594761Y-42536800D01*
X97594761Y-42536800D02*
X97709047Y-42574895D01*
X97709047Y-42574895D02*
X97785238Y-42574895D01*
X97785238Y-42574895D02*
X97899523Y-42536800D01*
X97899523Y-42536800D02*
X97937619Y-42498704D01*
X97937619Y-42498704D02*
X97937619Y-42232038D01*
X97937619Y-42232038D02*
X97785238Y-42232038D01*
X97251905Y-56154895D02*
X96985238Y-55773942D01*
X96794762Y-56154895D02*
X96794762Y-55354895D01*
X96794762Y-55354895D02*
X97099524Y-55354895D01*
X97099524Y-55354895D02*
X97175714Y-55392990D01*
X97175714Y-55392990D02*
X97213809Y-55431085D01*
X97213809Y-55431085D02*
X97251905Y-55507276D01*
X97251905Y-55507276D02*
X97251905Y-55621561D01*
X97251905Y-55621561D02*
X97213809Y-55697752D01*
X97213809Y-55697752D02*
X97175714Y-55735847D01*
X97175714Y-55735847D02*
X97099524Y-55773942D01*
X97099524Y-55773942D02*
X96794762Y-55773942D01*
X97556666Y-56116800D02*
X97670952Y-56154895D01*
X97670952Y-56154895D02*
X97861428Y-56154895D01*
X97861428Y-56154895D02*
X97937619Y-56116800D01*
X97937619Y-56116800D02*
X97975714Y-56078704D01*
X97975714Y-56078704D02*
X98013809Y-56002514D01*
X98013809Y-56002514D02*
X98013809Y-55926323D01*
X98013809Y-55926323D02*
X97975714Y-55850133D01*
X97975714Y-55850133D02*
X97937619Y-55812038D01*
X97937619Y-55812038D02*
X97861428Y-55773942D01*
X97861428Y-55773942D02*
X97709047Y-55735847D01*
X97709047Y-55735847D02*
X97632857Y-55697752D01*
X97632857Y-55697752D02*
X97594762Y-55659657D01*
X97594762Y-55659657D02*
X97556666Y-55583466D01*
X97556666Y-55583466D02*
X97556666Y-55507276D01*
X97556666Y-55507276D02*
X97594762Y-55431085D01*
X97594762Y-55431085D02*
X97632857Y-55392990D01*
X97632857Y-55392990D02*
X97709047Y-55354895D01*
X97709047Y-55354895D02*
X97899524Y-55354895D01*
X97899524Y-55354895D02*
X98013809Y-55392990D01*
X98242381Y-55354895D02*
X98699524Y-55354895D01*
X98470952Y-56154895D02*
X98470952Y-55354895D01*
X99639524Y-42574895D02*
X99639524Y-41774895D01*
X99639524Y-41774895D02*
X99830000Y-41774895D01*
X99830000Y-41774895D02*
X99944286Y-41812990D01*
X99944286Y-41812990D02*
X100020476Y-41889180D01*
X100020476Y-41889180D02*
X100058571Y-41965371D01*
X100058571Y-41965371D02*
X100096667Y-42117752D01*
X100096667Y-42117752D02*
X100096667Y-42232038D01*
X100096667Y-42232038D02*
X100058571Y-42384419D01*
X100058571Y-42384419D02*
X100020476Y-42460609D01*
X100020476Y-42460609D02*
X99944286Y-42536800D01*
X99944286Y-42536800D02*
X99830000Y-42574895D01*
X99830000Y-42574895D02*
X99639524Y-42574895D01*
X100591905Y-41774895D02*
X100668095Y-41774895D01*
X100668095Y-41774895D02*
X100744286Y-41812990D01*
X100744286Y-41812990D02*
X100782381Y-41851085D01*
X100782381Y-41851085D02*
X100820476Y-41927276D01*
X100820476Y-41927276D02*
X100858571Y-42079657D01*
X100858571Y-42079657D02*
X100858571Y-42270133D01*
X100858571Y-42270133D02*
X100820476Y-42422514D01*
X100820476Y-42422514D02*
X100782381Y-42498704D01*
X100782381Y-42498704D02*
X100744286Y-42536800D01*
X100744286Y-42536800D02*
X100668095Y-42574895D01*
X100668095Y-42574895D02*
X100591905Y-42574895D01*
X100591905Y-42574895D02*
X100515714Y-42536800D01*
X100515714Y-42536800D02*
X100477619Y-42498704D01*
X100477619Y-42498704D02*
X100439524Y-42422514D01*
X100439524Y-42422514D02*
X100401428Y-42270133D01*
X100401428Y-42270133D02*
X100401428Y-42079657D01*
X100401428Y-42079657D02*
X100439524Y-41927276D01*
X100439524Y-41927276D02*
X100477619Y-41851085D01*
X100477619Y-41851085D02*
X100515714Y-41812990D01*
X100515714Y-41812990D02*
X100591905Y-41774895D01*
X100439523Y-55392990D02*
X100363333Y-55354895D01*
X100363333Y-55354895D02*
X100249047Y-55354895D01*
X100249047Y-55354895D02*
X100134761Y-55392990D01*
X100134761Y-55392990D02*
X100058571Y-55469180D01*
X100058571Y-55469180D02*
X100020476Y-55545371D01*
X100020476Y-55545371D02*
X99982380Y-55697752D01*
X99982380Y-55697752D02*
X99982380Y-55812038D01*
X99982380Y-55812038D02*
X100020476Y-55964419D01*
X100020476Y-55964419D02*
X100058571Y-56040609D01*
X100058571Y-56040609D02*
X100134761Y-56116800D01*
X100134761Y-56116800D02*
X100249047Y-56154895D01*
X100249047Y-56154895D02*
X100325238Y-56154895D01*
X100325238Y-56154895D02*
X100439523Y-56116800D01*
X100439523Y-56116800D02*
X100477619Y-56078704D01*
X100477619Y-56078704D02*
X100477619Y-55812038D01*
X100477619Y-55812038D02*
X100325238Y-55812038D01*
X102179524Y-42574895D02*
X102179524Y-41774895D01*
X102179524Y-41774895D02*
X102370000Y-41774895D01*
X102370000Y-41774895D02*
X102484286Y-41812990D01*
X102484286Y-41812990D02*
X102560476Y-41889180D01*
X102560476Y-41889180D02*
X102598571Y-41965371D01*
X102598571Y-41965371D02*
X102636667Y-42117752D01*
X102636667Y-42117752D02*
X102636667Y-42232038D01*
X102636667Y-42232038D02*
X102598571Y-42384419D01*
X102598571Y-42384419D02*
X102560476Y-42460609D01*
X102560476Y-42460609D02*
X102484286Y-42536800D01*
X102484286Y-42536800D02*
X102370000Y-42574895D01*
X102370000Y-42574895D02*
X102179524Y-42574895D01*
X103398571Y-42574895D02*
X102941428Y-42574895D01*
X103170000Y-42574895D02*
X103170000Y-41774895D01*
X103170000Y-41774895D02*
X103093809Y-41889180D01*
X103093809Y-41889180D02*
X103017619Y-41965371D01*
X103017619Y-41965371D02*
X102941428Y-42003466D01*
X102217619Y-56154895D02*
X101950952Y-55773942D01*
X101760476Y-56154895D02*
X101760476Y-55354895D01*
X101760476Y-55354895D02*
X102065238Y-55354895D01*
X102065238Y-55354895D02*
X102141428Y-55392990D01*
X102141428Y-55392990D02*
X102179523Y-55431085D01*
X102179523Y-55431085D02*
X102217619Y-55507276D01*
X102217619Y-55507276D02*
X102217619Y-55621561D01*
X102217619Y-55621561D02*
X102179523Y-55697752D01*
X102179523Y-55697752D02*
X102141428Y-55735847D01*
X102141428Y-55735847D02*
X102065238Y-55773942D01*
X102065238Y-55773942D02*
X101760476Y-55773942D01*
X102522380Y-55926323D02*
X102903333Y-55926323D01*
X102446190Y-56154895D02*
X102712857Y-55354895D01*
X102712857Y-55354895D02*
X102979523Y-56154895D01*
X103169999Y-55354895D02*
X103360475Y-56154895D01*
X103360475Y-56154895D02*
X103512856Y-55583466D01*
X103512856Y-55583466D02*
X103665237Y-56154895D01*
X103665237Y-56154895D02*
X103855714Y-55354895D01*
D10*
X106038095Y-41304819D02*
X106038095Y-40304819D01*
X106038095Y-40781009D02*
X106609523Y-40781009D01*
X106609523Y-41304819D02*
X106609523Y-40304819D01*
X107514285Y-40638152D02*
X107514285Y-41304819D01*
X107276190Y-40257200D02*
X107038095Y-40971485D01*
X107038095Y-40971485D02*
X107657142Y-40971485D01*
%TO.C,SW1*%
D13*
X51150000Y-72025000D02*
X51150000Y-71025000D01*
X51150000Y-84025000D02*
X51150000Y-83025000D01*
X51150000Y-84025000D02*
X52150000Y-84025000D01*
X52150000Y-71025000D02*
X51150000Y-71025000D01*
X63150000Y-84025000D02*
X64150000Y-84025000D01*
X64150000Y-71025000D02*
X63150000Y-71025000D01*
X64150000Y-71025000D02*
X64150000Y-72025000D01*
X64150000Y-83025000D02*
X64150000Y-84025000D01*
%TO.C,SW43*%
X170212500Y-148225000D02*
X170212500Y-147225000D01*
X170212500Y-160225000D02*
X170212500Y-159225000D01*
X170212500Y-160225000D02*
X171212500Y-160225000D01*
X171212500Y-147225000D02*
X170212500Y-147225000D01*
X182212500Y-160225000D02*
X183212500Y-160225000D01*
X183212500Y-147225000D02*
X182212500Y-147225000D01*
X183212500Y-147225000D02*
X183212500Y-148225000D01*
X183212500Y-159225000D02*
X183212500Y-160225000D01*
%TO.C,SW45*%
X208312500Y-148225000D02*
X208312500Y-147225000D01*
X208312500Y-160225000D02*
X208312500Y-159225000D01*
X208312500Y-160225000D02*
X209312500Y-160225000D01*
X209312500Y-147225000D02*
X208312500Y-147225000D01*
X220312500Y-160225000D02*
X221312500Y-160225000D01*
X221312500Y-147225000D02*
X220312500Y-147225000D01*
X221312500Y-147225000D02*
X221312500Y-148225000D01*
X221312500Y-159225000D02*
X221312500Y-160225000D01*
%TO.C,SW42*%
X151162500Y-148225000D02*
X151162500Y-147225000D01*
X151162500Y-160225000D02*
X151162500Y-159225000D01*
X151162500Y-160225000D02*
X152162500Y-160225000D01*
X152162500Y-147225000D02*
X151162500Y-147225000D01*
X163162500Y-160225000D02*
X164162500Y-160225000D01*
X164162500Y-147225000D02*
X163162500Y-147225000D01*
X164162500Y-147225000D02*
X164162500Y-148225000D01*
X164162500Y-159225000D02*
X164162500Y-160225000D01*
%TO.C,SW3*%
X89250000Y-72025000D02*
X89250000Y-71025000D01*
X89250000Y-84025000D02*
X89250000Y-83025000D01*
X89250000Y-84025000D02*
X90250000Y-84025000D01*
X90250000Y-71025000D02*
X89250000Y-71025000D01*
X101250000Y-84025000D02*
X102250000Y-84025000D01*
X102250000Y-71025000D02*
X101250000Y-71025000D01*
X102250000Y-71025000D02*
X102250000Y-72025000D01*
X102250000Y-83025000D02*
X102250000Y-84025000D01*
%TO.C,SW17*%
X182118800Y-91075000D02*
X182118800Y-90075000D01*
X182118800Y-103075000D02*
X182118800Y-102075000D01*
X182118800Y-103075000D02*
X183118800Y-103075000D01*
X183118800Y-90075000D02*
X182118800Y-90075000D01*
X194118800Y-103075000D02*
X195118800Y-103075000D01*
X195118800Y-90075000D02*
X194118800Y-90075000D01*
X195118800Y-90075000D02*
X195118800Y-91075000D01*
X195118800Y-102075000D02*
X195118800Y-103075000D01*
%TO.C,SW28*%
X55912500Y-129175000D02*
X55912500Y-128175000D01*
X55912500Y-141175000D02*
X55912500Y-140175000D01*
X55912500Y-141175000D02*
X56912500Y-141175000D01*
X56912500Y-128175000D02*
X55912500Y-128175000D01*
X67912500Y-141175000D02*
X68912500Y-141175000D01*
X68912500Y-128175000D02*
X67912500Y-128175000D01*
X68912500Y-128175000D02*
X68912500Y-129175000D01*
X68912500Y-140175000D02*
X68912500Y-141175000D01*
%TO.C,SW11*%
X60675000Y-91075000D02*
X60675000Y-90075000D01*
X60675000Y-103075000D02*
X60675000Y-102075000D01*
X60675000Y-103075000D02*
X61675000Y-103075000D01*
X61675000Y-90075000D02*
X60675000Y-90075000D01*
X72675000Y-103075000D02*
X73675000Y-103075000D01*
X73675000Y-90075000D02*
X72675000Y-90075000D01*
X73675000Y-90075000D02*
X73675000Y-91075000D01*
X73675000Y-102075000D02*
X73675000Y-103075000D01*
%TO.C,SW8*%
X186881300Y-72025000D02*
X186881300Y-71025000D01*
X186881300Y-84025000D02*
X186881300Y-83025000D01*
X186881300Y-84025000D02*
X187881300Y-84025000D01*
X187881300Y-71025000D02*
X186881300Y-71025000D01*
X198881300Y-84025000D02*
X199881300Y-84025000D01*
X199881300Y-71025000D02*
X198881300Y-71025000D01*
X199881300Y-71025000D02*
X199881300Y-72025000D01*
X199881300Y-83025000D02*
X199881300Y-84025000D01*
%TO.C,SW6*%
X146400000Y-72025000D02*
X146400000Y-71025000D01*
X146400000Y-84025000D02*
X146400000Y-83025000D01*
X146400000Y-84025000D02*
X147400000Y-84025000D01*
X147400000Y-71025000D02*
X146400000Y-71025000D01*
X158400000Y-84025000D02*
X159400000Y-84025000D01*
X159400000Y-71025000D02*
X158400000Y-71025000D01*
X159400000Y-71025000D02*
X159400000Y-72025000D01*
X159400000Y-83025000D02*
X159400000Y-84025000D01*
%TO.C,SW39*%
X94012500Y-148225000D02*
X94012500Y-147225000D01*
X94012500Y-160225000D02*
X94012500Y-159225000D01*
X94012500Y-160225000D02*
X95012500Y-160225000D01*
X95012500Y-147225000D02*
X94012500Y-147225000D01*
X106012500Y-160225000D02*
X107012500Y-160225000D01*
X107012500Y-147225000D02*
X106012500Y-147225000D01*
X107012500Y-147225000D02*
X107012500Y-148225000D01*
X107012500Y-159225000D02*
X107012500Y-160225000D01*
%TO.C,SW36*%
X208312500Y-129175000D02*
X208312500Y-128175000D01*
X208312500Y-141175000D02*
X208312500Y-140175000D01*
X208312500Y-141175000D02*
X209312500Y-141175000D01*
X209312500Y-128175000D02*
X208312500Y-128175000D01*
X220312500Y-141175000D02*
X221312500Y-141175000D01*
X221312500Y-128175000D02*
X220312500Y-128175000D01*
X221312500Y-128175000D02*
X221312500Y-129175000D01*
X221312500Y-140175000D02*
X221312500Y-141175000D01*
%TO.C,SW16*%
X155925000Y-91075000D02*
X155925000Y-90075000D01*
X155925000Y-103075000D02*
X155925000Y-102075000D01*
X155925000Y-103075000D02*
X156925000Y-103075000D01*
X156925000Y-90075000D02*
X155925000Y-90075000D01*
X167925000Y-103075000D02*
X168925000Y-103075000D01*
X168925000Y-90075000D02*
X167925000Y-90075000D01*
X168925000Y-90075000D02*
X168925000Y-91075000D01*
X168925000Y-102075000D02*
X168925000Y-103075000D01*
%TO.C,SW9*%
X208312500Y-72025000D02*
X208312500Y-71025000D01*
X208312500Y-84025000D02*
X208312500Y-83025000D01*
X208312500Y-84025000D02*
X209312500Y-84025000D01*
X209312500Y-71025000D02*
X208312500Y-71025000D01*
X220312500Y-84025000D02*
X221312500Y-84025000D01*
X221312500Y-71025000D02*
X220312500Y-71025000D01*
X221312500Y-71025000D02*
X221312500Y-72025000D01*
X221312500Y-83025000D02*
X221312500Y-84025000D01*
%TO.C,SW34*%
X170212500Y-129175000D02*
X170212500Y-128175000D01*
X170212500Y-141175000D02*
X170212500Y-140175000D01*
X170212500Y-141175000D02*
X171212500Y-141175000D01*
X171212500Y-128175000D02*
X170212500Y-128175000D01*
X182212500Y-141175000D02*
X183212500Y-141175000D01*
X183212500Y-128175000D02*
X182212500Y-128175000D01*
X183212500Y-128175000D02*
X183212500Y-129175000D01*
X183212500Y-140175000D02*
X183212500Y-141175000D01*
%TO.C,SW20*%
X65437500Y-110125000D02*
X65437500Y-109125000D01*
X65437500Y-122125000D02*
X65437500Y-121125000D01*
X65437500Y-122125000D02*
X66437500Y-122125000D01*
X66437500Y-109125000D02*
X65437500Y-109125000D01*
X77437500Y-122125000D02*
X78437500Y-122125000D01*
X78437500Y-109125000D02*
X77437500Y-109125000D01*
X78437500Y-109125000D02*
X78437500Y-110125000D01*
X78437500Y-121125000D02*
X78437500Y-122125000D01*
%TO.C,SW30*%
X94012500Y-129175000D02*
X94012500Y-128175000D01*
X94012500Y-141175000D02*
X94012500Y-140175000D01*
X94012500Y-141175000D02*
X95012500Y-141175000D01*
X95012500Y-128175000D02*
X94012500Y-128175000D01*
X106012500Y-141175000D02*
X107012500Y-141175000D01*
X107012500Y-128175000D02*
X106012500Y-128175000D01*
X107012500Y-128175000D02*
X107012500Y-129175000D01*
X107012500Y-140175000D02*
X107012500Y-141175000D01*
%TO.C,SW21*%
X84487500Y-110125000D02*
X84487500Y-109125000D01*
X84487500Y-122125000D02*
X84487500Y-121125000D01*
X84487500Y-122125000D02*
X85487500Y-122125000D01*
X85487500Y-109125000D02*
X84487500Y-109125000D01*
X96487500Y-122125000D02*
X97487500Y-122125000D01*
X97487500Y-109125000D02*
X96487500Y-109125000D01*
X97487500Y-109125000D02*
X97487500Y-110125000D01*
X97487500Y-121125000D02*
X97487500Y-122125000D01*
%TO.C,SW23*%
X122587500Y-110125000D02*
X122587500Y-109125000D01*
X122587500Y-122125000D02*
X122587500Y-121125000D01*
X122587500Y-122125000D02*
X123587500Y-122125000D01*
X123587500Y-109125000D02*
X122587500Y-109125000D01*
X134587500Y-122125000D02*
X135587500Y-122125000D01*
X135587500Y-109125000D02*
X134587500Y-109125000D01*
X135587500Y-109125000D02*
X135587500Y-110125000D01*
X135587500Y-121125000D02*
X135587500Y-122125000D01*
%TO.C,SW19*%
X46387500Y-110125000D02*
X46387500Y-109125000D01*
X46387500Y-122125000D02*
X46387500Y-121125000D01*
X46387500Y-122125000D02*
X47387500Y-122125000D01*
X47387500Y-109125000D02*
X46387500Y-109125000D01*
X58387500Y-122125000D02*
X59387500Y-122125000D01*
X59387500Y-109125000D02*
X58387500Y-109125000D01*
X59387500Y-109125000D02*
X59387500Y-110125000D01*
X59387500Y-121125000D02*
X59387500Y-122125000D01*
%TO.C,SW40*%
X113062500Y-148225000D02*
X113062500Y-147225000D01*
X113062500Y-160225000D02*
X113062500Y-159225000D01*
X113062500Y-160225000D02*
X114062500Y-160225000D01*
X114062500Y-147225000D02*
X113062500Y-147225000D01*
X125062500Y-160225000D02*
X126062500Y-160225000D01*
X126062500Y-147225000D02*
X125062500Y-147225000D01*
X126062500Y-147225000D02*
X126062500Y-148225000D01*
X126062500Y-159225000D02*
X126062500Y-160225000D01*
%TO.C,SW13*%
X98775000Y-91075000D02*
X98775000Y-90075000D01*
X98775000Y-103075000D02*
X98775000Y-102075000D01*
X98775000Y-103075000D02*
X99775000Y-103075000D01*
X99775000Y-90075000D02*
X98775000Y-90075000D01*
X110775000Y-103075000D02*
X111775000Y-103075000D01*
X111775000Y-90075000D02*
X110775000Y-90075000D01*
X111775000Y-90075000D02*
X111775000Y-91075000D01*
X111775000Y-102075000D02*
X111775000Y-103075000D01*
%TO.C,SW38*%
X74962500Y-148225000D02*
X74962500Y-147225000D01*
X74962500Y-160225000D02*
X74962500Y-159225000D01*
X74962500Y-160225000D02*
X75962500Y-160225000D01*
X75962500Y-147225000D02*
X74962500Y-147225000D01*
X86962500Y-160225000D02*
X87962500Y-160225000D01*
X87962500Y-147225000D02*
X86962500Y-147225000D01*
X87962500Y-147225000D02*
X87962500Y-148225000D01*
X87962500Y-159225000D02*
X87962500Y-160225000D01*
%TO.C,SW24*%
X141637500Y-110125000D02*
X141637500Y-109125000D01*
X141637500Y-122125000D02*
X141637500Y-121125000D01*
X141637500Y-122125000D02*
X142637500Y-122125000D01*
X142637500Y-109125000D02*
X141637500Y-109125000D01*
X153637500Y-122125000D02*
X154637500Y-122125000D01*
X154637500Y-109125000D02*
X153637500Y-109125000D01*
X154637500Y-109125000D02*
X154637500Y-110125000D01*
X154637500Y-121125000D02*
X154637500Y-122125000D01*
%TO.C,SW29*%
X74962500Y-129175000D02*
X74962500Y-128175000D01*
X74962500Y-141175000D02*
X74962500Y-140175000D01*
X74962500Y-141175000D02*
X75962500Y-141175000D01*
X75962500Y-128175000D02*
X74962500Y-128175000D01*
X86962500Y-141175000D02*
X87962500Y-141175000D01*
X87962500Y-128175000D02*
X86962500Y-128175000D01*
X87962500Y-128175000D02*
X87962500Y-129175000D01*
X87962500Y-140175000D02*
X87962500Y-141175000D01*
%TO.C,SW2*%
X70200000Y-72025000D02*
X70200000Y-71025000D01*
X70200000Y-84025000D02*
X70200000Y-83025000D01*
X70200000Y-84025000D02*
X71200000Y-84025000D01*
X71200000Y-71025000D02*
X70200000Y-71025000D01*
X82200000Y-84025000D02*
X83200000Y-84025000D01*
X83200000Y-71025000D02*
X82200000Y-71025000D01*
X83200000Y-71025000D02*
X83200000Y-72025000D01*
X83200000Y-83025000D02*
X83200000Y-84025000D01*
%TO.C,SW33*%
X151162500Y-129175000D02*
X151162500Y-128175000D01*
X151162500Y-141175000D02*
X151162500Y-140175000D01*
X151162500Y-141175000D02*
X152162500Y-141175000D01*
X152162500Y-128175000D02*
X151162500Y-128175000D01*
X163162500Y-141175000D02*
X164162500Y-141175000D01*
X164162500Y-128175000D02*
X163162500Y-128175000D01*
X164162500Y-128175000D02*
X164162500Y-129175000D01*
X164162500Y-140175000D02*
X164162500Y-141175000D01*
%TO.C,SW22*%
X103537500Y-110125000D02*
X103537500Y-109125000D01*
X103537500Y-122125000D02*
X103537500Y-121125000D01*
X103537500Y-122125000D02*
X104537500Y-122125000D01*
X104537500Y-109125000D02*
X103537500Y-109125000D01*
X115537500Y-122125000D02*
X116537500Y-122125000D01*
X116537500Y-109125000D02*
X115537500Y-109125000D01*
X116537500Y-109125000D02*
X116537500Y-110125000D01*
X116537500Y-121125000D02*
X116537500Y-122125000D01*
%TO.C,SW12*%
X79725000Y-91075000D02*
X79725000Y-90075000D01*
X79725000Y-103075000D02*
X79725000Y-102075000D01*
X79725000Y-103075000D02*
X80725000Y-103075000D01*
X80725000Y-90075000D02*
X79725000Y-90075000D01*
X91725000Y-103075000D02*
X92725000Y-103075000D01*
X92725000Y-90075000D02*
X91725000Y-90075000D01*
X92725000Y-90075000D02*
X92725000Y-91075000D01*
X92725000Y-102075000D02*
X92725000Y-103075000D01*
%TO.C,SW10*%
X41625000Y-91075000D02*
X41625000Y-90075000D01*
X41625000Y-103075000D02*
X41625000Y-102075000D01*
X41625000Y-103075000D02*
X42625000Y-103075000D01*
X42625000Y-90075000D02*
X41625000Y-90075000D01*
X53625000Y-103075000D02*
X54625000Y-103075000D01*
X54625000Y-90075000D02*
X53625000Y-90075000D01*
X54625000Y-90075000D02*
X54625000Y-91075000D01*
X54625000Y-102075000D02*
X54625000Y-103075000D01*
%TO.C,SW14*%
X117825000Y-91075000D02*
X117825000Y-90075000D01*
X117825000Y-103075000D02*
X117825000Y-102075000D01*
X117825000Y-103075000D02*
X118825000Y-103075000D01*
X118825000Y-90075000D02*
X117825000Y-90075000D01*
X129825000Y-103075000D02*
X130825000Y-103075000D01*
X130825000Y-90075000D02*
X129825000Y-90075000D01*
X130825000Y-90075000D02*
X130825000Y-91075000D01*
X130825000Y-102075000D02*
X130825000Y-103075000D01*
%TO.C,SW_RST1*%
D14*
X95450000Y-60100000D02*
X101950000Y-60100000D01*
X95450000Y-64200000D02*
X101950000Y-64200000D01*
%TO.C,SW4*%
D13*
X108300000Y-72025000D02*
X108300000Y-71025000D01*
X108300000Y-84025000D02*
X108300000Y-83025000D01*
X108300000Y-84025000D02*
X109300000Y-84025000D01*
X109300000Y-71025000D02*
X108300000Y-71025000D01*
X120300000Y-84025000D02*
X121300000Y-84025000D01*
X121300000Y-71025000D02*
X120300000Y-71025000D01*
X121300000Y-71025000D02*
X121300000Y-72025000D01*
X121300000Y-83025000D02*
X121300000Y-84025000D01*
%TO.C,SW25*%
X160687500Y-110125000D02*
X160687500Y-109125000D01*
X160687500Y-122125000D02*
X160687500Y-121125000D01*
X160687500Y-122125000D02*
X161687500Y-122125000D01*
X161687500Y-109125000D02*
X160687500Y-109125000D01*
X172687500Y-122125000D02*
X173687500Y-122125000D01*
X173687500Y-109125000D02*
X172687500Y-109125000D01*
X173687500Y-109125000D02*
X173687500Y-110125000D01*
X173687500Y-121125000D02*
X173687500Y-122125000D01*
%TO.C,SW32*%
X132112500Y-129175000D02*
X132112500Y-128175000D01*
X132112500Y-141175000D02*
X132112500Y-140175000D01*
X132112500Y-141175000D02*
X133112500Y-141175000D01*
X133112500Y-128175000D02*
X132112500Y-128175000D01*
X144112500Y-141175000D02*
X145112500Y-141175000D01*
X145112500Y-128175000D02*
X144112500Y-128175000D01*
X145112500Y-128175000D02*
X145112500Y-129175000D01*
X145112500Y-140175000D02*
X145112500Y-141175000D01*
%TO.C,SW7*%
X165450000Y-72025000D02*
X165450000Y-71025000D01*
X165450000Y-84025000D02*
X165450000Y-83025000D01*
X165450000Y-84025000D02*
X166450000Y-84025000D01*
X166450000Y-71025000D02*
X165450000Y-71025000D01*
X177450000Y-84025000D02*
X178450000Y-84025000D01*
X178450000Y-71025000D02*
X177450000Y-71025000D01*
X178450000Y-71025000D02*
X178450000Y-72025000D01*
X178450000Y-83025000D02*
X178450000Y-84025000D01*
%TO.C,SW31*%
X113062500Y-129175000D02*
X113062500Y-128175000D01*
X113062500Y-141175000D02*
X113062500Y-140175000D01*
X113062500Y-141175000D02*
X114062500Y-141175000D01*
X114062500Y-128175000D02*
X113062500Y-128175000D01*
X125062500Y-141175000D02*
X126062500Y-141175000D01*
X126062500Y-128175000D02*
X125062500Y-128175000D01*
X126062500Y-128175000D02*
X126062500Y-129175000D01*
X126062500Y-140175000D02*
X126062500Y-141175000D01*
%TO.C,SW35*%
X189262500Y-129175000D02*
X189262500Y-128175000D01*
X189262500Y-141175000D02*
X189262500Y-140175000D01*
X189262500Y-141175000D02*
X190262500Y-141175000D01*
X190262500Y-128175000D02*
X189262500Y-128175000D01*
X201262500Y-141175000D02*
X202262500Y-141175000D01*
X202262500Y-128175000D02*
X201262500Y-128175000D01*
X202262500Y-128175000D02*
X202262500Y-129175000D01*
X202262500Y-140175000D02*
X202262500Y-141175000D01*
%TO.C,SW41*%
X132112500Y-148225000D02*
X132112500Y-147225000D01*
X132112500Y-160225000D02*
X132112500Y-159225000D01*
X132112500Y-160225000D02*
X133112500Y-160225000D01*
X133112500Y-147225000D02*
X132112500Y-147225000D01*
X144112500Y-160225000D02*
X145112500Y-160225000D01*
X145112500Y-147225000D02*
X144112500Y-147225000D01*
X145112500Y-147225000D02*
X145112500Y-148225000D01*
X145112500Y-159225000D02*
X145112500Y-160225000D01*
%TO.C,SW27*%
X208312500Y-110125000D02*
X208312500Y-109125000D01*
X208312500Y-122125000D02*
X208312500Y-121125000D01*
X208312500Y-122125000D02*
X209312500Y-122125000D01*
X209312500Y-109125000D02*
X208312500Y-109125000D01*
X220312500Y-122125000D02*
X221312500Y-122125000D01*
X221312500Y-109125000D02*
X220312500Y-109125000D01*
X221312500Y-109125000D02*
X221312500Y-110125000D01*
X221312500Y-121125000D02*
X221312500Y-122125000D01*
%TO.C,SW15*%
X136875000Y-91075000D02*
X136875000Y-90075000D01*
X136875000Y-103075000D02*
X136875000Y-102075000D01*
X136875000Y-103075000D02*
X137875000Y-103075000D01*
X137875000Y-90075000D02*
X136875000Y-90075000D01*
X148875000Y-103075000D02*
X149875000Y-103075000D01*
X149875000Y-90075000D02*
X148875000Y-90075000D01*
X149875000Y-90075000D02*
X149875000Y-91075000D01*
X149875000Y-102075000D02*
X149875000Y-103075000D01*
%TO.C,SW44*%
X189262500Y-148225000D02*
X189262500Y-147225000D01*
X189262500Y-160225000D02*
X189262500Y-159225000D01*
X189262500Y-160225000D02*
X190262500Y-160225000D01*
X190262500Y-147225000D02*
X189262500Y-147225000D01*
X201262500Y-160225000D02*
X202262500Y-160225000D01*
X202262500Y-147225000D02*
X201262500Y-147225000D01*
X202262500Y-147225000D02*
X202262500Y-148225000D01*
X202262500Y-159225000D02*
X202262500Y-160225000D01*
%TO.C,SW26*%
X184500000Y-110125000D02*
X184500000Y-109125000D01*
X184500000Y-122125000D02*
X184500000Y-121125000D01*
X184500000Y-122125000D02*
X185500000Y-122125000D01*
X185500000Y-109125000D02*
X184500000Y-109125000D01*
X196500000Y-122125000D02*
X197500000Y-122125000D01*
X197500000Y-109125000D02*
X196500000Y-109125000D01*
X197500000Y-109125000D02*
X197500000Y-110125000D01*
X197500000Y-121125000D02*
X197500000Y-122125000D01*
%TO.C,SW37*%
X55912500Y-148225000D02*
X55912500Y-147225000D01*
X55912500Y-160225000D02*
X55912500Y-159225000D01*
X55912500Y-160225000D02*
X56912500Y-160225000D01*
X56912500Y-147225000D02*
X55912500Y-147225000D01*
X67912500Y-160225000D02*
X68912500Y-160225000D01*
X68912500Y-147225000D02*
X67912500Y-147225000D01*
X68912500Y-147225000D02*
X68912500Y-148225000D01*
X68912500Y-159225000D02*
X68912500Y-160225000D01*
%TO.C,SW5*%
X127350000Y-72025000D02*
X127350000Y-71025000D01*
X127350000Y-84025000D02*
X127350000Y-83025000D01*
X127350000Y-84025000D02*
X128350000Y-84025000D01*
X128350000Y-71025000D02*
X127350000Y-71025000D01*
X139350000Y-84025000D02*
X140350000Y-84025000D01*
X140350000Y-71025000D02*
X139350000Y-71025000D01*
X140350000Y-71025000D02*
X140350000Y-72025000D01*
X140350000Y-83025000D02*
X140350000Y-84025000D01*
%TO.C,SW18*%
X208312500Y-91075000D02*
X208312500Y-90075000D01*
X208312500Y-103075000D02*
X208312500Y-102075000D01*
X208312500Y-103075000D02*
X209312500Y-103075000D01*
X209312500Y-90075000D02*
X208312500Y-90075000D01*
X220312500Y-103075000D02*
X221312500Y-103075000D01*
X221312500Y-90075000D02*
X220312500Y-90075000D01*
X221312500Y-90075000D02*
X221312500Y-91075000D01*
X221312500Y-102075000D02*
X221312500Y-103075000D01*
%TD*%
%LPC*%
D15*
%TO.C,SW1*%
X52150000Y-77525000D03*
D16*
X52650000Y-81325000D03*
D17*
X57650000Y-77525000D03*
D16*
X57650000Y-83425000D03*
D15*
X63150000Y-77525000D03*
%TD*%
%TO.C,SW43*%
X171212500Y-153725000D03*
D16*
X171712500Y-157525000D03*
D17*
X176712500Y-153725000D03*
D16*
X176712500Y-159625000D03*
D15*
X182212500Y-153725000D03*
%TD*%
%TO.C,SW45*%
X209312500Y-153725000D03*
D16*
X209812500Y-157525000D03*
D17*
X214812500Y-153725000D03*
D16*
X214812500Y-159625000D03*
D15*
X220312500Y-153725000D03*
%TD*%
%TO.C,SW42*%
X152162500Y-153725000D03*
D16*
X152662500Y-157525000D03*
D17*
X157662500Y-153725000D03*
D16*
X157662500Y-159625000D03*
D15*
X163162500Y-153725000D03*
%TD*%
%TO.C,SW3*%
X90250000Y-77525000D03*
D16*
X90750000Y-81325000D03*
D17*
X95750000Y-77525000D03*
D16*
X95750000Y-83425000D03*
D15*
X101250000Y-77525000D03*
%TD*%
%TO.C,SW17*%
X183118800Y-96575000D03*
D16*
X183618800Y-100375000D03*
D17*
X188618800Y-96575000D03*
D16*
X188618800Y-102475000D03*
D15*
X194118800Y-96575000D03*
%TD*%
%TO.C,SW28*%
X56912500Y-134675000D03*
D16*
X57412500Y-138475000D03*
D17*
X62412500Y-134675000D03*
D16*
X62412500Y-140575000D03*
D15*
X67912500Y-134675000D03*
%TD*%
%TO.C,SW11*%
X61675000Y-96575000D03*
D16*
X62175000Y-100375000D03*
D17*
X67175000Y-96575000D03*
D16*
X67175000Y-102475000D03*
D15*
X72675000Y-96575000D03*
%TD*%
%TO.C,SW8*%
X187881300Y-77525000D03*
D16*
X188381300Y-81325000D03*
D17*
X193381300Y-77525000D03*
D16*
X193381300Y-83425000D03*
D15*
X198881300Y-77525000D03*
%TD*%
%TO.C,SW6*%
X147400000Y-77525000D03*
D16*
X147900000Y-81325000D03*
D17*
X152900000Y-77525000D03*
D16*
X152900000Y-83425000D03*
D15*
X158400000Y-77525000D03*
%TD*%
%TO.C,SW39*%
X95012500Y-153725000D03*
D16*
X95512500Y-157525000D03*
D17*
X100512500Y-153725000D03*
D16*
X100512500Y-159625000D03*
D15*
X106012500Y-153725000D03*
%TD*%
%TO.C,SW36*%
X209312500Y-134675000D03*
D16*
X209812500Y-138475000D03*
D17*
X214812500Y-134675000D03*
D16*
X214812500Y-140575000D03*
D15*
X220312500Y-134675000D03*
%TD*%
D18*
%TO.C,H2*%
X225837500Y-164750000D03*
%TD*%
D15*
%TO.C,SW16*%
X156925000Y-96575000D03*
D16*
X157425000Y-100375000D03*
D17*
X162425000Y-96575000D03*
D16*
X162425000Y-102475000D03*
D15*
X167925000Y-96575000D03*
%TD*%
%TO.C,SW9*%
X209312500Y-77525000D03*
D16*
X209812500Y-81325000D03*
D17*
X214812500Y-77525000D03*
D16*
X214812500Y-83425000D03*
D15*
X220312500Y-77525000D03*
%TD*%
%TO.C,SW34*%
X171212500Y-134675000D03*
D16*
X171712500Y-138475000D03*
D17*
X176712500Y-134675000D03*
D16*
X176712500Y-140575000D03*
D15*
X182212500Y-134675000D03*
%TD*%
%TO.C,SW20*%
X66437500Y-115625000D03*
D16*
X66937500Y-119425000D03*
D17*
X71937500Y-115625000D03*
D16*
X71937500Y-121525000D03*
D15*
X77437500Y-115625000D03*
%TD*%
%TO.C,SW30*%
X95012500Y-134675000D03*
D16*
X95512500Y-138475000D03*
D17*
X100512500Y-134675000D03*
D16*
X100512500Y-140575000D03*
D15*
X106012500Y-134675000D03*
%TD*%
%TO.C,SW21*%
X85487500Y-115625000D03*
D16*
X85987500Y-119425000D03*
D17*
X90987500Y-115625000D03*
D16*
X90987500Y-121525000D03*
D15*
X96487500Y-115625000D03*
%TD*%
%TO.C,SW23*%
X123587500Y-115625000D03*
D16*
X124087500Y-119425000D03*
D17*
X129087500Y-115625000D03*
D16*
X129087500Y-121525000D03*
D15*
X134587500Y-115625000D03*
%TD*%
%TO.C,SW19*%
X47387500Y-115625000D03*
D16*
X47887500Y-119425000D03*
D17*
X52887500Y-115625000D03*
D16*
X52887500Y-121525000D03*
D15*
X58387500Y-115625000D03*
%TD*%
%TO.C,SW40*%
X114062500Y-153725000D03*
D16*
X114562500Y-157525000D03*
D17*
X119562500Y-153725000D03*
D16*
X119562500Y-159625000D03*
D15*
X125062500Y-153725000D03*
%TD*%
%TO.C,SW13*%
X99775000Y-96575000D03*
D16*
X100275000Y-100375000D03*
D17*
X105275000Y-96575000D03*
D16*
X105275000Y-102475000D03*
D15*
X110775000Y-96575000D03*
%TD*%
%TO.C,SW38*%
X75962500Y-153725000D03*
D16*
X76462500Y-157525000D03*
D17*
X81462500Y-153725000D03*
D16*
X81462500Y-159625000D03*
D15*
X86962500Y-153725000D03*
%TD*%
D19*
%TO.C,J_PWR1*%
X110300000Y-47800000D03*
X110300000Y-52200000D03*
X123300000Y-47800000D03*
X123300000Y-52200000D03*
%TD*%
D18*
%TO.C,H5*%
X225837500Y-123750000D03*
%TD*%
D15*
%TO.C,SW24*%
X142637500Y-115625000D03*
D16*
X143137500Y-119425000D03*
D17*
X148137500Y-115625000D03*
D16*
X148137500Y-121525000D03*
D15*
X153637500Y-115625000D03*
%TD*%
%TO.C,SW29*%
X75962500Y-134675000D03*
D16*
X76462500Y-138475000D03*
D17*
X81462500Y-134675000D03*
D16*
X81462500Y-140575000D03*
D15*
X86962500Y-134675000D03*
%TD*%
%TO.C,SW2*%
X71200000Y-77525000D03*
D16*
X71700000Y-81325000D03*
D17*
X76700000Y-77525000D03*
D16*
X76700000Y-83425000D03*
D15*
X82200000Y-77525000D03*
%TD*%
D18*
%TO.C,H1*%
X39000000Y-164750000D03*
%TD*%
D15*
%TO.C,SW33*%
X152162500Y-134675000D03*
D16*
X152662500Y-138475000D03*
D17*
X157662500Y-134675000D03*
D16*
X157662500Y-140575000D03*
D15*
X163162500Y-134675000D03*
%TD*%
%TO.C,SW22*%
X104537500Y-115625000D03*
D16*
X105037500Y-119425000D03*
D17*
X110037500Y-115625000D03*
D16*
X110037500Y-121525000D03*
D15*
X115537500Y-115625000D03*
%TD*%
%TO.C,SW12*%
X80725000Y-96575000D03*
D16*
X81225000Y-100375000D03*
D17*
X86225000Y-96575000D03*
D16*
X86225000Y-102475000D03*
D15*
X91725000Y-96575000D03*
%TD*%
%TO.C,SW10*%
X42625000Y-96575000D03*
D16*
X43125000Y-100375000D03*
D17*
X48125000Y-96575000D03*
D16*
X48125000Y-102475000D03*
D15*
X53625000Y-96575000D03*
%TD*%
%TO.C,SW14*%
X118825000Y-96575000D03*
D16*
X119325000Y-100375000D03*
D17*
X124325000Y-96575000D03*
D16*
X124325000Y-102475000D03*
D15*
X129825000Y-96575000D03*
%TD*%
D20*
%TO.C,SW_RST1*%
X94825000Y-62150000D03*
X102575000Y-62150000D03*
%TD*%
D15*
%TO.C,SW4*%
X109300000Y-77525000D03*
D16*
X109800000Y-81325000D03*
D17*
X114800000Y-77525000D03*
D16*
X114800000Y-83425000D03*
D15*
X120300000Y-77525000D03*
%TD*%
D18*
%TO.C,H3*%
X70800000Y-44000000D03*
%TD*%
D15*
%TO.C,SW25*%
X161687500Y-115625000D03*
D16*
X162187500Y-119425000D03*
D17*
X167187500Y-115625000D03*
D16*
X167187500Y-121525000D03*
D15*
X172687500Y-115625000D03*
%TD*%
%TO.C,SW32*%
X133112500Y-134675000D03*
D16*
X133612500Y-138475000D03*
D17*
X138612500Y-134675000D03*
D16*
X138612500Y-140575000D03*
D15*
X144112500Y-134675000D03*
%TD*%
%TO.C,SW7*%
X166450000Y-77525000D03*
D16*
X166950000Y-81325000D03*
D17*
X171950000Y-77525000D03*
D16*
X171950000Y-83425000D03*
D15*
X177450000Y-77525000D03*
%TD*%
%TO.C,SW31*%
X114062500Y-134675000D03*
D16*
X114562500Y-138475000D03*
D17*
X119562500Y-134675000D03*
D16*
X119562500Y-140575000D03*
D15*
X125062500Y-134675000D03*
%TD*%
%TO.C,SW35*%
X190262500Y-134675000D03*
D16*
X190762500Y-138475000D03*
D17*
X195762500Y-134675000D03*
D16*
X195762500Y-140575000D03*
D15*
X201262500Y-134675000D03*
%TD*%
%TO.C,SW41*%
X133112500Y-153725000D03*
D16*
X133612500Y-157525000D03*
D17*
X138612500Y-153725000D03*
D16*
X138612500Y-159625000D03*
D15*
X144112500Y-153725000D03*
%TD*%
%TO.C,SW27*%
X209312500Y-115625000D03*
D16*
X209812500Y-119425000D03*
D17*
X214812500Y-115625000D03*
D16*
X214812500Y-121525000D03*
D15*
X220312500Y-115625000D03*
%TD*%
%TO.C,SW15*%
X137875000Y-96575000D03*
D16*
X138375000Y-100375000D03*
D17*
X143375000Y-96575000D03*
D16*
X143375000Y-102475000D03*
D15*
X148875000Y-96575000D03*
%TD*%
D18*
%TO.C,H4*%
X106800000Y-44000000D03*
%TD*%
D15*
%TO.C,SW44*%
X190262500Y-153725000D03*
D16*
X190762500Y-157525000D03*
D17*
X195762500Y-153725000D03*
D16*
X195762500Y-159625000D03*
D15*
X201262500Y-153725000D03*
%TD*%
%TO.C,SW26*%
X185500000Y-115625000D03*
D16*
X186000000Y-119425000D03*
D17*
X191000000Y-115625000D03*
D16*
X191000000Y-121525000D03*
D15*
X196500000Y-115625000D03*
%TD*%
%TO.C,SW37*%
X56912500Y-153725000D03*
D16*
X57412500Y-157525000D03*
D17*
X62412500Y-153725000D03*
D16*
X62412500Y-159625000D03*
D15*
X67912500Y-153725000D03*
%TD*%
%TO.C,SW5*%
X128350000Y-77525000D03*
D16*
X128850000Y-81325000D03*
D17*
X133850000Y-77525000D03*
D16*
X133850000Y-83425000D03*
D15*
X139350000Y-77525000D03*
%TD*%
%TO.C,SW18*%
X209312500Y-96575000D03*
D16*
X209812500Y-100375000D03*
D17*
X214812500Y-96575000D03*
D16*
X214812500Y-102475000D03*
D15*
X220312500Y-96575000D03*
%TD*%
%LPD*%
M02*
