%TF.GenerationSoftware,KiCad,Pcbnew,10.0.3*%
%TF.CreationDate,2026-06-04T18:27:55+09:00*%
%TF.ProjectId,kc2_right-x3,6b63325f-7269-4676-9874-2d78332e6b69,draft-1*%
%TF.SameCoordinates,Original*%
%TF.FileFunction,Copper,L1,Top*%
%TF.FilePolarity,Positive*%
%FSLAX46Y46*%
G04 Gerber Fmt 4.6, Leading zero omitted, Abs format (unit mm)*
G04 Created by KiCad (PCBNEW 10.0.3) date 2026-06-04 18:27:55*
%MOMM*%
%LPD*%
G01*
G04 APERTURE LIST*
%TA.AperFunction,ComponentPad*%
%ADD10C,2.000000*%
%TD*%
%TA.AperFunction,ComponentPad*%
%ADD11O,2.600000X1.800000*%
%TD*%
%TA.AperFunction,SMDPad,CuDef*%
%ADD12R,1.750000X1.000000*%
%TD*%
%TA.AperFunction,ComponentPad*%
%ADD13C,1.800000*%
%TD*%
%TA.AperFunction,ViaPad*%
%ADD14C,0.600000*%
%TD*%
%TA.AperFunction,Conductor*%
%ADD15C,0.250000*%
%TD*%
G04 APERTURE END LIST*
D10*
%TO.P,SW1,1*%
%TO.N,R_COL0*%
X57650000Y-71625000D03*
%TO.P,SW1,2*%
%TO.N,RK01_D*%
X62650000Y-73725000D03*
%TD*%
%TO.P,SW43,1*%
%TO.N,R_COL6*%
X176712500Y-147825000D03*
%TO.P,SW43,2*%
%TO.N,RK43_D*%
X181712500Y-149925000D03*
%TD*%
%TO.P,SW45,1*%
%TO.N,R_COL8*%
X214812500Y-147825000D03*
%TO.P,SW45,2*%
%TO.N,RK45_D*%
X219812500Y-149925000D03*
%TD*%
%TO.P,SW42,1*%
%TO.N,R_COL5*%
X157662500Y-147825000D03*
%TO.P,SW42,2*%
%TO.N,RK42_D*%
X162662500Y-149925000D03*
%TD*%
%TO.P,SW3,1*%
%TO.N,R_COL2*%
X95750000Y-71625000D03*
%TO.P,SW3,2*%
%TO.N,RK03_D*%
X100750000Y-73725000D03*
%TD*%
%TO.P,SW17,1*%
%TO.N,R_COL7*%
X188618800Y-90675000D03*
%TO.P,SW17,2*%
%TO.N,RK17_D*%
X193618800Y-92775000D03*
%TD*%
%TO.P,SW28,1*%
%TO.N,R_COL0*%
X62412500Y-128775000D03*
%TO.P,SW28,2*%
%TO.N,RK28_D*%
X67412500Y-130875000D03*
%TD*%
%TO.P,SW11,1*%
%TO.N,R_COL1*%
X67175000Y-90675000D03*
%TO.P,SW11,2*%
%TO.N,RK11_D*%
X72175000Y-92775000D03*
%TD*%
%TO.P,SW8,1*%
%TO.N,R_COL7*%
X193381300Y-71625000D03*
%TO.P,SW8,2*%
%TO.N,RK08_D*%
X198381300Y-73725000D03*
%TD*%
%TO.P,SW6,1*%
%TO.N,R_COL5*%
X152900000Y-71625000D03*
%TO.P,SW6,2*%
%TO.N,RK06_D*%
X157900000Y-73725000D03*
%TD*%
%TO.P,SW39,1*%
%TO.N,R_COL2*%
X100512500Y-147825000D03*
%TO.P,SW39,2*%
%TO.N,RK39_D*%
X105512500Y-149925000D03*
%TD*%
%TO.P,SW36,1*%
%TO.N,R_COL8*%
X214812500Y-128775000D03*
%TO.P,SW36,2*%
%TO.N,RK36_D*%
X219812500Y-130875000D03*
%TD*%
%TO.P,SW16,1*%
%TO.N,R_COL6*%
X162425000Y-90675000D03*
%TO.P,SW16,2*%
%TO.N,RK16_D*%
X167425000Y-92775000D03*
%TD*%
%TO.P,SW9,1*%
%TO.N,R_COL8*%
X214812500Y-71625000D03*
%TO.P,SW9,2*%
%TO.N,RK09_D*%
X219812500Y-73725000D03*
%TD*%
%TO.P,SW34,1*%
%TO.N,R_COL6*%
X176712500Y-128775000D03*
%TO.P,SW34,2*%
%TO.N,RK34_D*%
X181712500Y-130875000D03*
%TD*%
%TO.P,SW20,1*%
%TO.N,R_COL1*%
X71937500Y-109725000D03*
%TO.P,SW20,2*%
%TO.N,RK20_D*%
X76937500Y-111825000D03*
%TD*%
%TO.P,SW30,1*%
%TO.N,R_COL2*%
X100512500Y-128775000D03*
%TO.P,SW30,2*%
%TO.N,RK30_D*%
X105512500Y-130875000D03*
%TD*%
%TO.P,SW21,1*%
%TO.N,R_COL2*%
X90987500Y-109725000D03*
%TO.P,SW21,2*%
%TO.N,RK21_D*%
X95987500Y-111825000D03*
%TD*%
%TO.P,SW23,1*%
%TO.N,R_COL4*%
X129087500Y-109725000D03*
%TO.P,SW23,2*%
%TO.N,RK23_D*%
X134087500Y-111825000D03*
%TD*%
%TO.P,SW19,1*%
%TO.N,R_COL0*%
X52887500Y-109725000D03*
%TO.P,SW19,2*%
%TO.N,RK19_D*%
X57887500Y-111825000D03*
%TD*%
%TO.P,SW40,1*%
%TO.N,R_COL3*%
X119562500Y-147825000D03*
%TO.P,SW40,2*%
%TO.N,RK40_D*%
X124562500Y-149925000D03*
%TD*%
%TO.P,SW13,1*%
%TO.N,R_COL3*%
X105275000Y-90675000D03*
%TO.P,SW13,2*%
%TO.N,RK13_D*%
X110275000Y-92775000D03*
%TD*%
%TO.P,SW38,1*%
%TO.N,R_COL1*%
X81462500Y-147825000D03*
%TO.P,SW38,2*%
%TO.N,RK38_D*%
X86462500Y-149925000D03*
%TD*%
D11*
%TO.P,J_PWR1,BAT+*%
%TO.N,BAT+*%
X113800000Y-47800000D03*
%TO.P,J_PWR1,BAT-*%
%TO.N,BAT-*%
X113800000Y-52200000D03*
%TO.P,J_PWR1,NN_B+*%
%TO.N,BAT+*%
X119800000Y-47800000D03*
%TO.P,J_PWR1,NN_B-*%
%TO.N,BAT-*%
X119800000Y-52200000D03*
%TD*%
D10*
%TO.P,SW24,1*%
%TO.N,R_COL5*%
X148137500Y-109725000D03*
%TO.P,SW24,2*%
%TO.N,RK24_D*%
X153137500Y-111825000D03*
%TD*%
%TO.P,SW29,1*%
%TO.N,R_COL1*%
X81462500Y-128775000D03*
%TO.P,SW29,2*%
%TO.N,RK29_D*%
X86462500Y-130875000D03*
%TD*%
%TO.P,SW2,1*%
%TO.N,R_COL1*%
X76700000Y-71625000D03*
%TO.P,SW2,2*%
%TO.N,RK02_D*%
X81700000Y-73725000D03*
%TD*%
%TO.P,SW33,1*%
%TO.N,R_COL5*%
X157662500Y-128775000D03*
%TO.P,SW33,2*%
%TO.N,RK33_D*%
X162662500Y-130875000D03*
%TD*%
%TO.P,SW22,1*%
%TO.N,R_COL3*%
X110037500Y-109725000D03*
%TO.P,SW22,2*%
%TO.N,RK22_D*%
X115037500Y-111825000D03*
%TD*%
%TO.P,SW12,1*%
%TO.N,R_COL2*%
X86225000Y-90675000D03*
%TO.P,SW12,2*%
%TO.N,RK12_D*%
X91225000Y-92775000D03*
%TD*%
%TO.P,SW10,1*%
%TO.N,R_COL0*%
X48125000Y-90675000D03*
%TO.P,SW10,2*%
%TO.N,RK10_D*%
X53125000Y-92775000D03*
%TD*%
%TO.P,SW14,1*%
%TO.N,R_COL4*%
X124325000Y-90675000D03*
%TO.P,SW14,2*%
%TO.N,RK14_D*%
X129325000Y-92775000D03*
%TD*%
D12*
%TO.P,SW_RST1,1*%
%TO.N,RST*%
X94825000Y-62150000D03*
%TO.P,SW_RST1,2*%
%TO.N,GND*%
X102575000Y-62150000D03*
%TD*%
D10*
%TO.P,SW4,1*%
%TO.N,R_COL3*%
X114800000Y-71625000D03*
%TO.P,SW4,2*%
%TO.N,RK04_D*%
X119800000Y-73725000D03*
%TD*%
%TO.P,SW25,1*%
%TO.N,R_COL6*%
X167187500Y-109725000D03*
%TO.P,SW25,2*%
%TO.N,RK25_D*%
X172187500Y-111825000D03*
%TD*%
%TO.P,SW32,1*%
%TO.N,R_COL4*%
X138612500Y-128775000D03*
%TO.P,SW32,2*%
%TO.N,RK32_D*%
X143612500Y-130875000D03*
%TD*%
%TO.P,SW7,1*%
%TO.N,R_COL6*%
X171950000Y-71625000D03*
%TO.P,SW7,2*%
%TO.N,RK07_D*%
X176950000Y-73725000D03*
%TD*%
%TO.P,SW31,1*%
%TO.N,R_COL3*%
X119562500Y-128775000D03*
%TO.P,SW31,2*%
%TO.N,RK31_D*%
X124562500Y-130875000D03*
%TD*%
%TO.P,SW35,1*%
%TO.N,R_COL7*%
X195762500Y-128775000D03*
%TO.P,SW35,2*%
%TO.N,RK35_D*%
X200762500Y-130875000D03*
%TD*%
D13*
%TO.P,U1,D0*%
%TO.N,N/C*%
X100230000Y-40110000D03*
%TO.P,U1,D1*%
X102770000Y-40110000D03*
%TO.P,U1,D2*%
%TO.N,R_ROW3*%
X92610000Y-40110000D03*
%TO.P,U1,D3*%
%TO.N,R_ROW0*%
X90070000Y-40110000D03*
%TO.P,U1,D4*%
%TO.N,R_ROW1*%
X87530000Y-40110000D03*
%TO.P,U1,D5*%
%TO.N,R_ROW2*%
X84990000Y-40110000D03*
%TO.P,U1,D6*%
%TO.N,N/C*%
X82450000Y-40110000D03*
%TO.P,U1,D7*%
%TO.N,R_ROW4*%
X79910000Y-40110000D03*
%TO.P,U1,D8*%
%TO.N,N/C*%
X77370000Y-40110000D03*
%TO.P,U1,D9*%
%TO.N,R_COL0*%
X74830000Y-40110000D03*
%TO.P,U1,D10*%
%TO.N,R_COL1*%
X74830000Y-57890000D03*
%TO.P,U1,D14*%
%TO.N,R_COL3*%
X79910000Y-57890000D03*
%TO.P,U1,D15*%
%TO.N,R_COL4*%
X82450000Y-57890000D03*
%TO.P,U1,D16*%
%TO.N,R_COL2*%
X77370000Y-57890000D03*
%TO.P,U1,D18*%
%TO.N,R_COL5*%
X84990000Y-57890000D03*
%TO.P,U1,D19*%
%TO.N,R_COL6*%
X87530000Y-57890000D03*
%TO.P,U1,D20*%
%TO.N,R_COL8*%
X90070000Y-57890000D03*
%TO.P,U1,D21*%
%TO.N,R_COL7*%
X92610000Y-57890000D03*
%TO.P,U1,GND_A*%
%TO.N,N/C*%
X97690000Y-40110000D03*
%TO.P,U1,GND_B*%
X95150000Y-40110000D03*
%TO.P,U1,GND_C*%
%TO.N,GND*%
X100230000Y-57890000D03*
%TO.P,U1,RAW*%
%TO.N,N/C*%
X102770000Y-57890000D03*
%TO.P,U1,RST*%
%TO.N,RST*%
X97690000Y-57890000D03*
%TO.P,U1,VCC*%
%TO.N,N/C*%
X95150000Y-57890000D03*
%TD*%
D10*
%TO.P,SW41,1*%
%TO.N,R_COL4*%
X138612500Y-147825000D03*
%TO.P,SW41,2*%
%TO.N,RK41_D*%
X143612500Y-149925000D03*
%TD*%
%TO.P,SW27,1*%
%TO.N,R_COL8*%
X214812500Y-109725000D03*
%TO.P,SW27,2*%
%TO.N,RK27_D*%
X219812500Y-111825000D03*
%TD*%
%TO.P,SW15,1*%
%TO.N,R_COL5*%
X143375000Y-90675000D03*
%TO.P,SW15,2*%
%TO.N,RK15_D*%
X148375000Y-92775000D03*
%TD*%
%TO.P,SW44,1*%
%TO.N,R_COL7*%
X195762500Y-147825000D03*
%TO.P,SW44,2*%
%TO.N,RK44_D*%
X200762500Y-149925000D03*
%TD*%
%TO.P,SW26,1*%
%TO.N,R_COL7*%
X191000000Y-109725000D03*
%TO.P,SW26,2*%
%TO.N,RK26_D*%
X196000000Y-111825000D03*
%TD*%
%TO.P,SW37,1*%
%TO.N,R_COL0*%
X62412500Y-147825000D03*
%TO.P,SW37,2*%
%TO.N,RK37_D*%
X67412500Y-149925000D03*
%TD*%
%TO.P,SW5,1*%
%TO.N,R_COL4*%
X133850000Y-71625000D03*
%TO.P,SW5,2*%
%TO.N,RK05_D*%
X138850000Y-73725000D03*
%TD*%
%TO.P,SW18,1*%
%TO.N,R_COL8*%
X214812500Y-90675000D03*
%TO.P,SW18,2*%
%TO.N,RK18_D*%
X219812500Y-92775000D03*
%TD*%
D14*
%TO.N,R_COL6*%
X166446400Y-105058100D03*
X175913000Y-80874800D03*
%TO.N,R_COL5*%
X145988000Y-105096300D03*
X148675200Y-63350000D03*
%TO.N,R_COL2*%
X98436800Y-119734400D03*
X86225000Y-86241100D03*
%TO.N,R_COL7*%
X190048000Y-86618900D03*
X190924000Y-99038800D03*
X195762500Y-119234500D03*
%TO.N,R_COL1*%
X70620000Y-104311700D03*
%TO.N,RK08_D*%
X193381300Y-69130500D03*
%TO.N,R_COL4*%
X138867200Y-150619600D03*
X127770000Y-105058100D03*
X119123200Y-60200400D03*
%TO.N,R_COL3*%
X110917300Y-86624800D03*
X107463700Y-100894100D03*
X110257600Y-60200400D03*
%TO.N,RK38_D*%
X81789200Y-145951700D03*
%TO.N,RK07_D*%
X171950000Y-69130500D03*
%TO.N,R_ROW3*%
X92526400Y-125968300D03*
%TO.N,R_ROW0*%
X91111100Y-56489500D03*
%TO.N,R_ROW1*%
X87885200Y-78060600D03*
%TO.N,R_ROW2*%
X89986000Y-105058100D03*
X91655100Y-106849700D03*
%TO.N,R_ROW4*%
X87324900Y-145022300D03*
%TD*%
%TO.N,R_COL0*%
D15*
X52564000Y-79162600D02*
X51785900Y-79162600D01*
X51485700Y-94035700D02*
X51485700Y-108323200D01*
X48125000Y-82823500D02*
X48125000Y-90675000D01*
X55966500Y-112804000D02*
X55966500Y-122329000D01*
X60094800Y-131092700D02*
X62412500Y-128775000D01*
X57650000Y-71625000D02*
X57650000Y-74076600D01*
X62412500Y-147825000D02*
X60094800Y-145507300D01*
X51785900Y-79162600D02*
X48125000Y-82823500D01*
X74830000Y-54689800D02*
X57894800Y-71625000D01*
X60094800Y-145507300D02*
X60094800Y-131092700D01*
X57894800Y-71625000D02*
X57650000Y-71625000D01*
X57650000Y-74076600D02*
X52564000Y-79162600D01*
X51485700Y-108323200D02*
X52887500Y-109725000D01*
X55966500Y-122329000D02*
X62412500Y-128775000D01*
X52887500Y-109725000D02*
X55966500Y-112804000D01*
X74830000Y-40110000D02*
X74830000Y-54689800D01*
X48125000Y-90675000D02*
X51485700Y-94035700D01*
%TO.N,R_COL6*%
X169596400Y-121658900D02*
X169596400Y-112133900D01*
X176712500Y-128775000D02*
X169596400Y-121658900D01*
X166446400Y-94120000D02*
X165870000Y-94120000D01*
X176712500Y-147825000D02*
X174418000Y-145530500D01*
X174418000Y-145530500D02*
X174418000Y-131069500D01*
X166446400Y-105058100D02*
X166446400Y-108983900D01*
X166446400Y-94120000D02*
X166446400Y-105058100D01*
X174418000Y-131069500D02*
X176712500Y-128775000D01*
X168033300Y-94120000D02*
X166446400Y-94120000D01*
X171950000Y-71625000D02*
X175913000Y-75588000D01*
X175913000Y-80874800D02*
X175913000Y-86240300D01*
X166446400Y-108983900D02*
X167187500Y-109725000D01*
X175913000Y-86240300D02*
X168033300Y-94120000D01*
X175913000Y-75588000D02*
X175913000Y-80874800D01*
X165870000Y-94120000D02*
X162425000Y-90675000D01*
X169596400Y-112133900D02*
X167187500Y-109725000D01*
%TO.N,R_COL8*%
X214812500Y-128775000D02*
X212521100Y-126483600D01*
X212521300Y-131066200D02*
X214812500Y-128775000D01*
X212521100Y-112016400D02*
X214812500Y-109725000D01*
X212521100Y-88383600D02*
X212521100Y-73916400D01*
X214812500Y-147825000D02*
X212521300Y-145533800D01*
X212521300Y-107433800D02*
X214812500Y-109725000D01*
X212521300Y-92966200D02*
X212521300Y-107433800D01*
X212521100Y-126483600D02*
X212521100Y-112016400D01*
X214812500Y-90675000D02*
X212521100Y-88383600D01*
X214812500Y-90675000D02*
X212521300Y-92966200D01*
X212521300Y-145533800D02*
X212521300Y-131066200D01*
X212521100Y-73916400D02*
X214812500Y-71625000D01*
%TO.N,R_COL5*%
X150007800Y-72452700D02*
X150835500Y-71625000D01*
X148137500Y-109725000D02*
X151160300Y-112747800D01*
X155368000Y-131069500D02*
X155368000Y-145530500D01*
X145988000Y-107575500D02*
X145988000Y-105096300D01*
X151160400Y-122272900D02*
X157662500Y-128775000D01*
X150007800Y-86655200D02*
X150007800Y-72452700D01*
X155368000Y-145530500D02*
X157662500Y-147825000D01*
X148675200Y-63350000D02*
X150835500Y-65335800D01*
X145988000Y-105096300D02*
X145988000Y-90675000D01*
X148137500Y-109725000D02*
X145988000Y-107575500D01*
X150835500Y-71625000D02*
X152900000Y-71625000D01*
X151160400Y-112747800D02*
X151160400Y-122272900D01*
X145988000Y-90675000D02*
X150007800Y-86655200D01*
X151160300Y-112747800D02*
X151160400Y-112747800D01*
X143375000Y-90675000D02*
X145988000Y-90675000D01*
X157662500Y-128775000D02*
X155368000Y-131069500D01*
X150835500Y-65335800D02*
X150835500Y-71625000D01*
%TO.N,R_COL2*%
X88984400Y-107721900D02*
X88984400Y-93434400D01*
X86225000Y-86241100D02*
X86225000Y-90675000D01*
X98182900Y-131104600D02*
X100512500Y-128775000D01*
X90987500Y-109725000D02*
X88984400Y-107721900D01*
X98436800Y-126699300D02*
X100512500Y-128775000D01*
X98436800Y-119734400D02*
X98436800Y-126699300D01*
X86225000Y-72489000D02*
X86225000Y-86241100D01*
X77370000Y-63634000D02*
X86225000Y-72489000D01*
X88984400Y-93434400D02*
X86225000Y-90675000D01*
X100512500Y-147825000D02*
X98182900Y-145495400D01*
X77370000Y-57890000D02*
X77370000Y-63634000D01*
X98182900Y-145495400D02*
X98182900Y-131104600D01*
%TO.N,R_COL7*%
X190924000Y-99038800D02*
X190924000Y-92980200D01*
X193468000Y-145530500D02*
X195762500Y-147825000D01*
X195762500Y-119234500D02*
X195762500Y-128775000D01*
X195762500Y-119234500D02*
X194674800Y-118146800D01*
X190924000Y-92980200D02*
X188618800Y-90675000D01*
X191000000Y-109725000D02*
X191000000Y-99114800D01*
X194674800Y-113399800D02*
X191000000Y-109725000D01*
X190489100Y-74517200D02*
X193381300Y-71625000D01*
X194674800Y-118146800D02*
X194674800Y-113399800D01*
X195762500Y-128775000D02*
X193468000Y-131069500D01*
X190048000Y-89245800D02*
X190048000Y-86618900D01*
X190048000Y-86618900D02*
X190489100Y-86177800D01*
X193468000Y-131069500D02*
X193468000Y-145530500D01*
X188618800Y-90675000D02*
X190048000Y-89245800D01*
X191000000Y-99114800D02*
X190924000Y-99038800D01*
X190489100Y-86177800D02*
X190489100Y-74517200D01*
%TO.N,R_COL1*%
X81462500Y-147825000D02*
X79108300Y-145470800D01*
X81462500Y-128775000D02*
X75298200Y-122610700D01*
X74830000Y-57890000D02*
X74830000Y-69755000D01*
X75881900Y-70806800D02*
X67175000Y-79513700D01*
X67175000Y-90675000D02*
X70620000Y-94120000D01*
X67175000Y-79513700D02*
X67175000Y-90675000D01*
X75881900Y-70806800D02*
X76700000Y-71625000D01*
X75298200Y-122610700D02*
X75298200Y-113085700D01*
X74830000Y-69755000D02*
X75881900Y-70806800D01*
X79108300Y-131129200D02*
X81462500Y-128775000D01*
X70620000Y-104311700D02*
X70620000Y-108407500D01*
X70620000Y-94120000D02*
X70620000Y-104311700D01*
X75298200Y-113085700D02*
X71937500Y-109725000D01*
X70620000Y-108407500D02*
X71937500Y-109725000D01*
X79108300Y-145470800D02*
X79108300Y-131129200D01*
%TO.N,RK08_D*%
X198381300Y-73725000D02*
X193786800Y-69130500D01*
X193786800Y-69130500D02*
X193381300Y-69130500D01*
%TO.N,R_COL4*%
X124325000Y-71625000D02*
X124325000Y-90675000D01*
X136305800Y-145518300D02*
X136305800Y-131081700D01*
X131496400Y-121658900D02*
X131496400Y-112133900D01*
X127770000Y-108407500D02*
X129087500Y-109725000D01*
X124325000Y-90675000D02*
X127770000Y-94120000D01*
X127770000Y-94120000D02*
X127770000Y-105058100D01*
X138612500Y-147825000D02*
X136305800Y-145518300D01*
X119123200Y-60200400D02*
X124325000Y-65402200D01*
X124325000Y-65402200D02*
X124325000Y-71625000D01*
X138612500Y-150364900D02*
X138612500Y-147825000D01*
X138867200Y-150619600D02*
X138612500Y-150364900D01*
X138612500Y-128775000D02*
X131496400Y-121658900D01*
X131496400Y-112133900D02*
X129087500Y-109725000D01*
X133850000Y-71625000D02*
X124325000Y-71625000D01*
X127770000Y-105058100D02*
X127770000Y-108407500D01*
X136305800Y-131081700D02*
X138612500Y-128775000D01*
%TO.N,R_COL3*%
X111907800Y-85634300D02*
X111907800Y-74517200D01*
X110917300Y-87645700D02*
X110917300Y-86624800D01*
X117255800Y-131081700D02*
X119562500Y-128775000D01*
X107888000Y-107575500D02*
X107888000Y-100894100D01*
X107888000Y-100894100D02*
X107463700Y-100894100D01*
X112446400Y-112133900D02*
X110037500Y-109725000D01*
X110917300Y-86624800D02*
X111907800Y-85634300D01*
X110257600Y-67082600D02*
X114800000Y-71625000D01*
X119562500Y-147825000D02*
X117255800Y-145518300D01*
X117255800Y-145518300D02*
X117255800Y-131081700D01*
X112446400Y-121658900D02*
X112446400Y-112133900D01*
X110037500Y-109725000D02*
X107888000Y-107575500D01*
X107888000Y-100894100D02*
X107888000Y-90675000D01*
X107888000Y-90675000D02*
X110917300Y-87645700D01*
X111907800Y-74517200D02*
X114800000Y-71625000D01*
X110257600Y-60200400D02*
X110257600Y-67082600D01*
X107888000Y-90675000D02*
X105275000Y-90675000D01*
X119562500Y-128775000D02*
X112446400Y-121658900D01*
%TO.N,RK38_D*%
X82489200Y-145951700D02*
X81789200Y-145951700D01*
X86462500Y-149925000D02*
X82489200Y-145951700D01*
%TO.N,RST*%
X94825000Y-62150000D02*
X94825000Y-60755000D01*
X94825000Y-60755000D02*
X97690000Y-57890000D01*
%TO.N,GND*%
X100230000Y-57890000D02*
X102575000Y-60235000D01*
X102575000Y-60235000D02*
X102575000Y-62150000D01*
%TO.N,RK07_D*%
X176950000Y-73725000D02*
X172355500Y-69130500D01*
X172355500Y-69130500D02*
X171950000Y-69130500D01*
%TO.N,R_ROW3*%
X91370700Y-76383800D02*
X91370700Y-57116200D01*
X93308600Y-125186100D02*
X93308600Y-78321700D01*
X92610000Y-55876900D02*
X92610000Y-40110000D01*
X91370700Y-57116200D02*
X92610000Y-55876900D01*
X93308600Y-78321700D02*
X91370700Y-76383800D01*
X92526400Y-125968300D02*
X93308600Y-125186100D01*
%TO.N,R_ROW0*%
X90070000Y-55448400D02*
X90070000Y-40110000D01*
X91111100Y-56489500D02*
X90070000Y-55448400D01*
%TO.N,R_ROW1*%
X88789500Y-41369500D02*
X88789500Y-77156300D01*
X87530000Y-40110000D02*
X88789500Y-41369500D01*
X88789500Y-77156300D02*
X87885200Y-78060600D01*
%TO.N,R_ROW2*%
X87258500Y-78320100D02*
X87551700Y-78613300D01*
X87258500Y-72771000D02*
X87258500Y-78320100D01*
X89986000Y-105180600D02*
X89986000Y-105058100D01*
X89640800Y-104712900D02*
X89986000Y-105058100D01*
X91655100Y-106849700D02*
X89986000Y-105180600D01*
X86224800Y-71737300D02*
X87258500Y-72771000D01*
X89640800Y-93064800D02*
X89640800Y-104712900D01*
X87551700Y-78613300D02*
X87551700Y-90975700D01*
X84990000Y-40110000D02*
X86224800Y-41344800D01*
X86224800Y-41344800D02*
X86224800Y-71737300D01*
X87551700Y-90975700D02*
X89640800Y-93064800D01*
%TO.N,R_ROW4*%
X79093300Y-118646100D02*
X83912300Y-123465100D01*
X83912300Y-123465100D02*
X83912300Y-141609700D01*
X83912300Y-141609700D02*
X87324900Y-145022300D01*
X76100000Y-43920000D02*
X76100000Y-64916700D01*
X76100000Y-64916700D02*
X79093300Y-67910000D01*
X79093300Y-67910000D02*
X79093300Y-118646100D01*
X79910000Y-40110000D02*
X76100000Y-43920000D01*
%TD*%
M02*
