%TF.GenerationSoftware,KiCad,Pcbnew,10.0.3*%
%TF.CreationDate,2026-08-31T23:18:04+09:00*%
%TF.ProjectId,kc2_right-x3-v2,6b63325f-7269-4676-9874-2d78332d7632,draft-v2*%
%TF.SameCoordinates,Original*%
%TF.FileFunction,Copper,L2,Bot*%
%TF.FilePolarity,Positive*%
%FSLAX46Y46*%
G04 Gerber Fmt 4.6, Leading zero omitted, Abs format (unit mm)*
G04 Created by KiCad (PCBNEW 10.0.3) date 2026-08-31 23:18:04*
%MOMM*%
%LPD*%
G01*
G04 APERTURE LIST*
G04 Aperture macros list*
%AMRoundRect*
0 Rectangle with rounded corners*
0 $1 Rounding radius*
0 $2 $3 $4 $5 $6 $7 $8 $9 X,Y pos of 4 corners*
0 Add a 4 corners polygon primitive as box body*
4,1,4,$2,$3,$4,$5,$6,$7,$8,$9,$2,$3,0*
0 Add four circle primitives for the rounded corners*
1,1,$1+$1,$2,$3*
1,1,$1+$1,$4,$5*
1,1,$1+$1,$6,$7*
1,1,$1+$1,$8,$9*
0 Add four rect primitives between the rounded corners*
20,1,$1+$1,$2,$3,$4,$5,0*
20,1,$1+$1,$4,$5,$6,$7,0*
20,1,$1+$1,$6,$7,$8,$9,0*
20,1,$1+$1,$8,$9,$2,$3,0*%
G04 Aperture macros list end*
%TA.AperFunction,ComponentPad*%
%ADD10C,2.500000*%
%TD*%
%TA.AperFunction,SMDPad,CuDef*%
%ADD11RoundRect,0.520000X-0.780000X-0.780000X0.780000X-0.780000X0.780000X0.780000X-0.780000X0.780000X0*%
%TD*%
%TA.AperFunction,ComponentPad*%
%ADD12C,1.800000*%
%TD*%
%TA.AperFunction,SMDPad,CuDef*%
%ADD13RoundRect,0.520000X0.780000X0.780000X-0.780000X0.780000X-0.780000X-0.780000X0.780000X-0.780000X0*%
%TD*%
%TA.AperFunction,ComponentPad*%
%ADD14O,2.200000X1.800000*%
%TD*%
%TA.AperFunction,ComponentPad*%
%ADD15C,1.600000*%
%TD*%
%TA.AperFunction,SMDPad,CuDef*%
%ADD16RoundRect,0.250000X0.650000X0.650000X-0.650000X0.650000X-0.650000X-0.650000X0.650000X-0.650000X0*%
%TD*%
%TA.AperFunction,SMDPad,CuDef*%
%ADD17RoundRect,0.250000X-0.650000X0.650000X-0.650000X-0.650000X0.650000X-0.650000X0.650000X0.650000X0*%
%TD*%
%TA.AperFunction,SMDPad,CuDef*%
%ADD18RoundRect,0.250000X0.650000X-0.650000X0.650000X0.650000X-0.650000X0.650000X-0.650000X-0.650000X0*%
%TD*%
%TA.AperFunction,ViaPad*%
%ADD19C,0.600000*%
%TD*%
%TA.AperFunction,Conductor*%
%ADD20C,0.250000*%
%TD*%
%TA.AperFunction,Conductor*%
%ADD21C,0.750000*%
%TD*%
G04 APERTURE END LIST*
D10*
%TO.P,SW36,1*%
%TO.N,R_COL3*%
X136052500Y-148645000D03*
D11*
X137212500Y-159625000D03*
%TO.P,SW36,2*%
%TO.N,RK36_D*%
X124812500Y-157525000D03*
D10*
X129702500Y-151185000D03*
%TD*%
D12*
%TO.P,U1,D0*%
%TO.N,N/C*%
X88830000Y-43130000D03*
%TO.P,U1,D1*%
X91370000Y-43130000D03*
%TO.P,U1,D2*%
%TO.N,R_ROW3*%
X81210000Y-43130000D03*
%TO.P,U1,D3*%
%TO.N,R_ROW0*%
X78670000Y-43130000D03*
%TO.P,U1,D4*%
%TO.N,R_ROW1*%
X76130000Y-43130000D03*
%TO.P,U1,D5*%
%TO.N,R_ROW2*%
X73590000Y-43130000D03*
%TO.P,U1,D6*%
%TO.N,N/C*%
X71050000Y-43130000D03*
%TO.P,U1,D7*%
%TO.N,R_ROW4*%
X68510000Y-43130000D03*
%TO.P,U1,D8*%
%TO.N,N/C*%
X65970000Y-43130000D03*
%TO.P,U1,D9*%
%TO.N,R_COL0*%
X63430000Y-43130000D03*
%TO.P,U1,D10*%
%TO.N,R_COL1*%
X63430000Y-58370000D03*
%TO.P,U1,D14*%
%TO.N,R_COL3*%
X68510000Y-58370000D03*
%TO.P,U1,D15*%
%TO.N,R_COL4*%
X71050000Y-58370000D03*
%TO.P,U1,D16*%
%TO.N,R_COL2*%
X65970000Y-58370000D03*
%TO.P,U1,D18*%
%TO.N,R_COL5*%
X73590000Y-58370000D03*
%TO.P,U1,D19*%
%TO.N,R_COL6*%
X76130000Y-58370000D03*
%TO.P,U1,D20*%
%TO.N,R_COL8*%
X78670000Y-58370000D03*
%TO.P,U1,D21*%
%TO.N,R_COL7*%
X81210000Y-58370000D03*
%TO.P,U1,GND_A*%
%TO.N,N/C*%
X86290000Y-43130000D03*
%TO.P,U1,GND_B*%
X83750000Y-43130000D03*
%TO.P,U1,GND_C*%
%TO.N,GND*%
X88830000Y-58370000D03*
%TO.P,U1,RAW*%
%TO.N,NN_B+*%
X91370000Y-58370000D03*
%TO.P,U1,RST*%
%TO.N,RST*%
X86290000Y-58370000D03*
%TO.P,U1,VCC*%
%TO.N,N/C*%
X83750000Y-58370000D03*
%TD*%
D10*
%TO.P,SW34,1*%
%TO.N,R_COL1*%
X86046300Y-148645000D03*
D11*
X87206300Y-159625000D03*
%TO.P,SW34,2*%
%TO.N,RK34_D*%
X74806300Y-157525000D03*
D10*
X79696300Y-151185000D03*
%TD*%
%TO.P,SW13,1*%
%TO.N,R_COL4*%
X121765000Y-91495000D03*
D11*
X122925000Y-102475000D03*
%TO.P,SW13,2*%
%TO.N,RK13_D*%
X110525000Y-100375000D03*
D10*
X115415000Y-94035000D03*
%TD*%
%TO.P,SW31,1*%
%TO.N,R_COL6*%
X174152500Y-129595000D03*
D11*
X175312500Y-140575000D03*
%TO.P,SW31,2*%
%TO.N,RK31_D*%
X162912500Y-138475000D03*
D10*
X167802500Y-132135000D03*
%TD*%
%TO.P,SW38,1*%
%TO.N,R_COL5*%
X174152500Y-148645000D03*
D11*
X175312500Y-159625000D03*
%TO.P,SW38,2*%
%TO.N,RK38_D*%
X162912500Y-157525000D03*
D10*
X167802500Y-151185000D03*
%TD*%
%TO.P,SW10,1*%
%TO.N,R_COL1*%
X64615000Y-91495000D03*
D11*
X65775000Y-102475000D03*
%TO.P,SW10,2*%
%TO.N,RK10_D*%
X53375000Y-100375000D03*
D10*
X58265000Y-94035000D03*
%TD*%
%TO.P,SW33,1*%
%TO.N,R_COL0*%
X54772500Y-158805000D03*
D13*
X53612500Y-147825000D03*
%TO.P,SW33,2*%
%TO.N,RK33_D*%
X66012500Y-149925000D03*
D10*
X61122500Y-156265000D03*
%TD*%
%TO.P,SW25,1*%
%TO.N,R_COL0*%
X54772500Y-139755000D03*
D13*
X53612500Y-128775000D03*
%TO.P,SW25,2*%
%TO.N,RK25_D*%
X66012500Y-130875000D03*
D10*
X61122500Y-137215000D03*
%TD*%
%TO.P,SW37,1*%
%TO.N,R_COL4*%
X155102500Y-148645000D03*
D11*
X156262500Y-159625000D03*
%TO.P,SW37,2*%
%TO.N,RK37_D*%
X143862500Y-157525000D03*
D10*
X148752500Y-151185000D03*
%TD*%
%TO.P,SW19,1*%
%TO.N,R_COL2*%
X88427500Y-110545000D03*
D11*
X89587500Y-121525000D03*
%TO.P,SW19,2*%
%TO.N,RK19_D*%
X77187500Y-119425000D03*
D10*
X82077500Y-113085000D03*
%TD*%
%TO.P,SW8,1*%
%TO.N,R_COL7*%
X193202500Y-72445000D03*
D11*
X194362500Y-83425000D03*
%TO.P,SW8,2*%
%TO.N,RK08_D*%
X181962500Y-81325000D03*
D10*
X186852500Y-74985000D03*
%TD*%
%TO.P,SW11,1*%
%TO.N,R_COL2*%
X83665000Y-91495000D03*
D11*
X84825000Y-102475000D03*
%TO.P,SW11,2*%
%TO.N,RK11_D*%
X72425000Y-100375000D03*
D10*
X77315000Y-94035000D03*
%TD*%
%TO.P,SW16,1*%
%TO.N,R_COL7*%
X186058800Y-91495000D03*
D11*
X187218800Y-102475000D03*
%TO.P,SW16,2*%
%TO.N,RK16_D*%
X174818800Y-100375000D03*
D10*
X179708800Y-94035000D03*
%TD*%
%TO.P,SW24,1*%
%TO.N,R_COL7*%
X193202500Y-110545000D03*
D11*
X194362500Y-121525000D03*
%TO.P,SW24,2*%
%TO.N,RK24_D*%
X181962500Y-119425000D03*
D10*
X186852500Y-113085000D03*
%TD*%
%TO.P,SW1,1*%
%TO.N,R_COL0*%
X50010000Y-82605000D03*
D13*
X48850000Y-71625000D03*
%TO.P,SW1,2*%
%TO.N,RK01_D*%
X61250000Y-73725000D03*
D10*
X56360000Y-80065000D03*
%TD*%
%TO.P,SW39,1*%
%TO.N,R_COL6*%
X193202500Y-148645000D03*
D11*
X194362500Y-159625000D03*
%TO.P,SW39,2*%
%TO.N,RK39_D*%
X181962500Y-157525000D03*
D10*
X186852500Y-151185000D03*
%TD*%
%TO.P,SW4,1*%
%TO.N,R_COL3*%
X112240000Y-72445000D03*
D11*
X113400000Y-83425000D03*
%TO.P,SW4,2*%
%TO.N,RK04_D*%
X101000000Y-81325000D03*
D10*
X105890000Y-74985000D03*
%TD*%
%TO.P,SW29,1*%
%TO.N,R_COL4*%
X136052500Y-129595000D03*
D11*
X137212500Y-140575000D03*
%TO.P,SW29,2*%
%TO.N,RK29_D*%
X124812500Y-138475000D03*
D10*
X129702500Y-132135000D03*
%TD*%
%TO.P,SW22,1*%
%TO.N,R_COL5*%
X145577500Y-110545000D03*
D11*
X146737500Y-121525000D03*
%TO.P,SW22,2*%
%TO.N,RK22_D*%
X134337500Y-119425000D03*
D10*
X139227500Y-113085000D03*
%TD*%
%TO.P,SW27,1*%
%TO.N,R_COL2*%
X97952500Y-129595000D03*
D11*
X99112500Y-140575000D03*
%TO.P,SW27,2*%
%TO.N,RK27_D*%
X86712500Y-138475000D03*
D10*
X91602500Y-132135000D03*
%TD*%
%TO.P,SW26,1*%
%TO.N,R_COL1*%
X78902500Y-129595000D03*
D11*
X80062500Y-140575000D03*
%TO.P,SW26,2*%
%TO.N,RK26_D*%
X67662500Y-138475000D03*
D10*
X72552500Y-132135000D03*
%TD*%
%TO.P,SW15,1*%
%TO.N,R_COL6*%
X159865000Y-91495000D03*
D11*
X161025000Y-102475000D03*
%TO.P,SW15,2*%
%TO.N,RK15_D*%
X148625000Y-100375000D03*
D10*
X153515000Y-94035000D03*
%TD*%
%TO.P,SW35,1*%
%TO.N,R_COL2*%
X114621300Y-148645000D03*
D11*
X115781300Y-159625000D03*
%TO.P,SW35,2*%
%TO.N,RK35_D*%
X103381300Y-157525000D03*
D10*
X108271300Y-151185000D03*
%TD*%
%TO.P,SW12,1*%
%TO.N,R_COL3*%
X102715000Y-91495000D03*
D11*
X103875000Y-102475000D03*
%TO.P,SW12,2*%
%TO.N,RK12_D*%
X91475000Y-100375000D03*
D10*
X96365000Y-94035000D03*
%TD*%
%TO.P,SW2,1*%
%TO.N,R_COL1*%
X74140000Y-72445000D03*
D11*
X75300000Y-83425000D03*
%TO.P,SW2,2*%
%TO.N,RK02_D*%
X62900000Y-81325000D03*
D10*
X67790000Y-74985000D03*
%TD*%
%TO.P,SW28,1*%
%TO.N,R_COL3*%
X117002500Y-129595000D03*
D11*
X118162500Y-140575000D03*
%TO.P,SW28,2*%
%TO.N,RK28_D*%
X105762500Y-138475000D03*
D10*
X110652500Y-132135000D03*
%TD*%
%TO.P,SW17,1*%
%TO.N,R_COL0*%
X45247500Y-120705000D03*
D13*
X44087500Y-109725000D03*
%TO.P,SW17,2*%
%TO.N,RK17_D*%
X56487500Y-111825000D03*
D10*
X51597500Y-118165000D03*
%TD*%
%TO.P,SW3,1*%
%TO.N,R_COL2*%
X93190000Y-72445000D03*
D11*
X94350000Y-83425000D03*
%TO.P,SW3,2*%
%TO.N,RK03_D*%
X81950000Y-81325000D03*
D10*
X86840000Y-74985000D03*
%TD*%
%TO.P,SW30,1*%
%TO.N,R_COL5*%
X155102500Y-129595000D03*
D11*
X156262500Y-140575000D03*
%TO.P,SW30,2*%
%TO.N,RK30_D*%
X143862500Y-138475000D03*
D10*
X148752500Y-132135000D03*
%TD*%
D14*
%TO.P,J_BAT1,1*%
%TO.N,BAT+*%
X94300000Y-59400000D03*
%TO.P,J_BAT1,2*%
%TO.N,GND*%
X96840001Y-59400000D03*
%TD*%
D10*
%TO.P,SW7,1*%
%TO.N,R_COL6*%
X171771300Y-72445000D03*
D11*
X172931300Y-83425000D03*
%TO.P,SW7,2*%
%TO.N,RK07_D*%
X160531300Y-81325000D03*
D10*
X165421300Y-74985000D03*
%TD*%
%TO.P,SW14,1*%
%TO.N,R_COL5*%
X140815000Y-91495000D03*
D11*
X141975000Y-102475000D03*
%TO.P,SW14,2*%
%TO.N,RK14_D*%
X129575000Y-100375000D03*
D10*
X134465000Y-94035000D03*
%TD*%
%TO.P,SW9,1*%
%TO.N,R_COL0*%
X40485000Y-101655000D03*
D13*
X39325000Y-90675000D03*
%TO.P,SW9,2*%
%TO.N,RK09_D*%
X51725000Y-92775000D03*
D10*
X46835000Y-99115000D03*
%TD*%
%TO.P,SW5,1*%
%TO.N,R_COL4*%
X131290000Y-72445000D03*
D11*
X132450000Y-83425000D03*
%TO.P,SW5,2*%
%TO.N,RK05_D*%
X120050000Y-81325000D03*
D10*
X124940000Y-74985000D03*
%TD*%
%TO.P,SW20,1*%
%TO.N,R_COL3*%
X107477500Y-110545000D03*
D11*
X108637500Y-121525000D03*
%TO.P,SW20,2*%
%TO.N,RK20_D*%
X96237500Y-119425000D03*
D10*
X101127500Y-113085000D03*
%TD*%
%TO.P,SW32,1*%
%TO.N,R_COL7*%
X193202500Y-129595000D03*
D11*
X194362500Y-140575000D03*
%TO.P,SW32,2*%
%TO.N,RK32_D*%
X181962500Y-138475000D03*
D10*
X186852500Y-132135000D03*
%TD*%
%TO.P,SW18,1*%
%TO.N,R_COL1*%
X69377500Y-110545000D03*
D11*
X70537500Y-121525000D03*
%TO.P,SW18,2*%
%TO.N,RK18_D*%
X58137500Y-119425000D03*
D10*
X63027500Y-113085000D03*
%TD*%
%TO.P,SW23,1*%
%TO.N,R_COL6*%
X169390000Y-110545000D03*
D11*
X170550000Y-121525000D03*
%TO.P,SW23,2*%
%TO.N,RK23_D*%
X158150000Y-119425000D03*
D10*
X163040000Y-113085000D03*
%TD*%
%TO.P,SW6,1*%
%TO.N,R_COL5*%
X150340000Y-72445000D03*
D11*
X151500000Y-83425000D03*
%TO.P,SW6,2*%
%TO.N,RK06_D*%
X139100000Y-81325000D03*
D10*
X143990000Y-74985000D03*
%TD*%
%TO.P,SW21,1*%
%TO.N,R_COL4*%
X126527500Y-110545000D03*
D11*
X127687500Y-121525000D03*
%TO.P,SW21,2*%
%TO.N,RK21_D*%
X115287500Y-119425000D03*
D10*
X120177500Y-113085000D03*
%TD*%
D15*
%TO.P,SW_PWR1,1*%
%TO.N,BAT+*%
X94300000Y-63450000D03*
%TO.P,SW_PWR1,2*%
%TO.N,NN_B+*%
X96840000Y-63450000D03*
%TO.P,SW_PWR1,3*%
%TO.N,N/C*%
X91759999Y-63450000D03*
%TD*%
D16*
%TO.P,D24,1*%
%TO.N,R_ROW2*%
X185762500Y-108625000D03*
%TO.P,D24,2*%
%TO.N,RK24_D*%
X181562500Y-108625000D03*
%TD*%
%TO.P,D12,1*%
%TO.N,R_ROW1*%
X95275000Y-89575000D03*
%TO.P,D12,2*%
%TO.N,RK12_D*%
X91075000Y-89575000D03*
%TD*%
%TO.P,D14,1*%
%TO.N,R_ROW1*%
X133375000Y-89575000D03*
%TO.P,D14,2*%
%TO.N,RK14_D*%
X129175000Y-89575000D03*
%TD*%
%TO.P,D37,1*%
%TO.N,R_ROW4*%
X147662500Y-146725000D03*
%TO.P,D37,2*%
%TO.N,RK37_D*%
X143462500Y-146725000D03*
%TD*%
%TO.P,D23,1*%
%TO.N,R_ROW2*%
X161950000Y-108625000D03*
%TO.P,D23,2*%
%TO.N,RK23_D*%
X157750000Y-108625000D03*
%TD*%
%TO.P,D29,1*%
%TO.N,R_ROW3*%
X128612500Y-127675000D03*
%TO.P,D29,2*%
%TO.N,RK29_D*%
X124412500Y-127675000D03*
%TD*%
D17*
%TO.P,D8,1*%
%TO.N,R_ROW0*%
X181912500Y-72175000D03*
%TO.P,D8,2*%
%TO.N,RK08_D*%
X181912500Y-76375000D03*
%TD*%
D16*
%TO.P,D13,1*%
%TO.N,R_ROW1*%
X114325000Y-89575000D03*
%TO.P,D13,2*%
%TO.N,RK13_D*%
X110125000Y-89575000D03*
%TD*%
D17*
%TO.P,D6,1*%
%TO.N,R_ROW0*%
X139050000Y-72175000D03*
%TO.P,D6,2*%
%TO.N,RK06_D*%
X139050000Y-76375000D03*
%TD*%
D16*
%TO.P,D15,1*%
%TO.N,R_ROW1*%
X152425000Y-89575000D03*
%TO.P,D15,2*%
%TO.N,RK15_D*%
X148225000Y-89575000D03*
%TD*%
D18*
%TO.P,D2,1*%
%TO.N,R_ROW0*%
X78600000Y-86625000D03*
%TO.P,D2,2*%
%TO.N,RK02_D*%
X78600000Y-82425000D03*
%TD*%
D16*
%TO.P,D28,1*%
%TO.N,R_ROW3*%
X109562500Y-127675000D03*
%TO.P,D28,2*%
%TO.N,RK28_D*%
X105362500Y-127675000D03*
%TD*%
%TO.P,D19,1*%
%TO.N,R_ROW2*%
X80987500Y-108625000D03*
%TO.P,D19,2*%
%TO.N,RK19_D*%
X76787500Y-108625000D03*
%TD*%
%TO.P,D11,1*%
%TO.N,R_ROW1*%
X76225000Y-89575000D03*
%TO.P,D11,2*%
%TO.N,RK11_D*%
X72025000Y-89575000D03*
%TD*%
%TO.P,D10,1*%
%TO.N,R_ROW1*%
X57175000Y-89575000D03*
%TO.P,D10,2*%
%TO.N,RK10_D*%
X52975000Y-89575000D03*
%TD*%
%TO.P,D31,1*%
%TO.N,R_ROW3*%
X166712500Y-127675000D03*
%TO.P,D31,2*%
%TO.N,RK31_D*%
X162512500Y-127675000D03*
%TD*%
%TO.P,D20,1*%
%TO.N,R_ROW2*%
X100037500Y-108625000D03*
%TO.P,D20,2*%
%TO.N,RK20_D*%
X95837500Y-108625000D03*
%TD*%
%TO.P,D34,1*%
%TO.N,R_ROW4*%
X78606300Y-146725000D03*
%TO.P,D34,2*%
%TO.N,RK34_D*%
X74406300Y-146725000D03*
%TD*%
%TO.P,D16,1*%
%TO.N,R_ROW1*%
X178618800Y-89575000D03*
%TO.P,D16,2*%
%TO.N,RK16_D*%
X174418800Y-89575000D03*
%TD*%
%TO.P,D26,1*%
%TO.N,R_ROW3*%
X71462500Y-127675000D03*
%TO.P,D26,2*%
%TO.N,RK26_D*%
X67262500Y-127675000D03*
%TD*%
%TO.P,D18,1*%
%TO.N,R_ROW2*%
X61937500Y-108625000D03*
%TO.P,D18,2*%
%TO.N,RK18_D*%
X57737500Y-108625000D03*
%TD*%
%TO.P,D22,1*%
%TO.N,R_ROW2*%
X138137500Y-108625000D03*
%TO.P,D22,2*%
%TO.N,RK22_D*%
X133937500Y-108625000D03*
%TD*%
D17*
%TO.P,D7,1*%
%TO.N,R_ROW0*%
X160481300Y-72175000D03*
%TO.P,D7,2*%
%TO.N,RK07_D*%
X160481300Y-76375000D03*
%TD*%
%TO.P,D3,1*%
%TO.N,R_ROW0*%
X81900000Y-72175000D03*
%TO.P,D3,2*%
%TO.N,RK03_D*%
X81900000Y-76375000D03*
%TD*%
D16*
%TO.P,D17,1*%
%TO.N,R_ROW2*%
X56887500Y-122625000D03*
%TO.P,D17,2*%
%TO.N,RK17_D*%
X52687500Y-122625000D03*
%TD*%
%TO.P,D36,1*%
%TO.N,R_ROW4*%
X128612500Y-146725000D03*
%TO.P,D36,2*%
%TO.N,RK36_D*%
X124412500Y-146725000D03*
%TD*%
%TO.P,D27,1*%
%TO.N,R_ROW3*%
X90512500Y-127675000D03*
%TO.P,D27,2*%
%TO.N,RK27_D*%
X86312500Y-127675000D03*
%TD*%
%TO.P,D39,1*%
%TO.N,R_ROW4*%
X185762500Y-146725000D03*
%TO.P,D39,2*%
%TO.N,RK39_D*%
X181562500Y-146725000D03*
%TD*%
D17*
%TO.P,D5,1*%
%TO.N,R_ROW0*%
X120000000Y-72175000D03*
%TO.P,D5,2*%
%TO.N,RK05_D*%
X120000000Y-76375000D03*
%TD*%
D16*
%TO.P,D32,1*%
%TO.N,R_ROW3*%
X185762500Y-127675000D03*
%TO.P,D32,2*%
%TO.N,RK32_D*%
X181562500Y-127675000D03*
%TD*%
%TO.P,D38,1*%
%TO.N,R_ROW4*%
X166712500Y-146725000D03*
%TO.P,D38,2*%
%TO.N,RK38_D*%
X162512500Y-146725000D03*
%TD*%
%TO.P,D9,1*%
%TO.N,R_ROW1*%
X52125000Y-103575000D03*
%TO.P,D9,2*%
%TO.N,RK09_D*%
X47925000Y-103575000D03*
%TD*%
%TO.P,D21,1*%
%TO.N,R_ROW2*%
X119087500Y-108625000D03*
%TO.P,D21,2*%
%TO.N,RK21_D*%
X114887500Y-108625000D03*
%TD*%
%TO.P,D33,1*%
%TO.N,R_ROW4*%
X68912500Y-156975000D03*
%TO.P,D33,2*%
%TO.N,RK33_D*%
X64712500Y-156975000D03*
%TD*%
%TO.P,D35,1*%
%TO.N,R_ROW4*%
X107181300Y-146725000D03*
%TO.P,D35,2*%
%TO.N,RK35_D*%
X102981300Y-146725000D03*
%TD*%
%TO.P,D30,1*%
%TO.N,R_ROW3*%
X147662500Y-127675000D03*
%TO.P,D30,2*%
%TO.N,RK30_D*%
X143462500Y-127675000D03*
%TD*%
%TO.P,D1,1*%
%TO.N,R_ROW0*%
X61650000Y-84525000D03*
%TO.P,D1,2*%
%TO.N,RK01_D*%
X57450000Y-84525000D03*
%TD*%
%TO.P,D25,1*%
%TO.N,R_ROW3*%
X66412500Y-141675000D03*
%TO.P,D25,2*%
%TO.N,RK25_D*%
X62212500Y-141675000D03*
%TD*%
D17*
%TO.P,D4,1*%
%TO.N,R_ROW0*%
X100950000Y-72175000D03*
%TO.P,D4,2*%
%TO.N,RK04_D*%
X100950000Y-76375000D03*
%TD*%
D19*
%TO.N,R_COL3*%
X109910000Y-86103700D03*
X134723300Y-144561600D03*
X107477500Y-103492300D03*
%TO.N,R_ROW3*%
X107540000Y-127433900D03*
X95378600Y-127917000D03*
%TO.N,R_ROW0*%
X112732700Y-74378300D03*
X98500000Y-67500000D03*
X98762400Y-71481100D03*
X117054700Y-73565300D03*
X98000000Y-55000000D03*
%TO.N,R_ROW1*%
X63208100Y-88528800D03*
%TO.N,R_ROW2*%
X58149300Y-113432200D03*
X61250000Y-71250000D03*
X59982400Y-108585100D03*
X60750000Y-67500000D03*
%TO.N,R_ROW4*%
X60250000Y-79750000D03*
X76022100Y-146264200D03*
X61000000Y-54500000D03*
%TO.N,R_COL1*%
X64374300Y-85548400D03*
X86046300Y-142397400D03*
X69377500Y-100499600D03*
%TO.N,R_COL4*%
X150924900Y-142634300D03*
X82325900Y-79038700D03*
X134723300Y-124441200D03*
%TO.N,R_COL2*%
X90500000Y-70500000D03*
X86000000Y-68500000D03*
X87331700Y-103492300D03*
X79500000Y-65500000D03*
X110884900Y-142397400D03*
X96457000Y-82774100D03*
%TO.N,R_COL5*%
X77500000Y-66000000D03*
X72500000Y-61000000D03*
X82000000Y-67500000D03*
X93173600Y-86047200D03*
X173460700Y-144583000D03*
X73500000Y-59500000D03*
X155102500Y-121448500D03*
%TO.N,R_COL6*%
X158561700Y-87575600D03*
X97050000Y-89179100D03*
X174152500Y-121448500D03*
%TO.N,R_COL7*%
X84000000Y-60000000D03*
X87000000Y-62000000D03*
%TO.N,GND*%
X78800000Y-63450000D03*
%TO.N,RK34_D*%
X74965500Y-148675600D03*
%TO.N,RK11_D*%
X74480700Y-89774200D03*
%TO.N,RK26_D*%
X69362500Y-127433900D03*
%TO.N,RK15_D*%
X150859400Y-90368100D03*
%TD*%
%TO.N,R_COL3*%
D20*
X113459400Y-73664400D02*
X112240000Y-72445000D01*
X107477500Y-103492300D02*
X104892300Y-103492300D01*
X137212500Y-159625000D02*
X137012300Y-159424800D01*
X108437300Y-111504800D02*
X107477500Y-110545000D01*
X113459400Y-74679400D02*
X113459400Y-73664400D01*
X117978100Y-140390600D02*
X118162500Y-140575000D01*
X68510000Y-58370000D02*
X71838600Y-61698600D01*
X110495200Y-70700200D02*
X112240000Y-72445000D01*
X122149100Y-144561600D02*
X118162500Y-140575000D01*
X137012300Y-149604800D02*
X136052500Y-148645000D01*
X104892300Y-103492300D02*
X103875000Y-102475000D01*
X113215600Y-74923200D02*
X113459400Y-74679400D01*
X106810000Y-127793500D02*
X106810000Y-123352500D01*
X117978100Y-130570600D02*
X117978100Y-140390600D01*
X108611500Y-129595000D02*
X106810000Y-127793500D01*
X137012300Y-159424800D02*
X137012300Y-149604800D01*
X113400000Y-83425000D02*
X110721300Y-86103700D01*
X108437300Y-121324800D02*
X108437300Y-111504800D01*
X80500000Y-65000000D02*
X99452800Y-70700200D01*
X117002500Y-129595000D02*
X108611500Y-129595000D01*
X134723300Y-144561600D02*
X122149100Y-144561600D01*
X71838600Y-61698600D02*
X80500000Y-65000000D01*
X113215600Y-83240600D02*
X113215600Y-74923200D01*
X110721300Y-86103700D02*
X109910000Y-86103700D01*
X113400000Y-83425000D02*
X113215600Y-83240600D01*
X106810000Y-123352500D02*
X108637500Y-121525000D01*
X117002500Y-129595000D02*
X117978100Y-130570600D01*
X108637500Y-121525000D02*
X108437300Y-121324800D01*
X99452800Y-70700200D02*
X110495200Y-70700200D01*
%TO.N,RK36_D*%
X125242500Y-146725000D02*
X129702500Y-151185000D01*
X124812500Y-155170000D02*
X128797500Y-151185000D01*
X124812500Y-157525000D02*
X124812500Y-155170000D01*
X124412500Y-146725000D02*
X125242500Y-146725000D01*
X128797500Y-151185000D02*
X129702500Y-151185000D01*
%TO.N,R_ROW3*%
X109321400Y-127433900D02*
X109562500Y-127675000D01*
X82935400Y-130097600D02*
X81728200Y-131304800D01*
X147662500Y-127675000D02*
X147662500Y-126304600D01*
X166712500Y-127675000D02*
X168083000Y-126304500D01*
X168083000Y-126304500D02*
X184392000Y-126304500D01*
X65886400Y-141148900D02*
X65886400Y-134781100D01*
X81728200Y-131304800D02*
X78072300Y-131304800D01*
X166712500Y-127675000D02*
X165342100Y-126304600D01*
X147662500Y-126304600D02*
X128612500Y-126304600D01*
X165342100Y-126304600D02*
X147662500Y-126304600D01*
X85387800Y-126332500D02*
X82935400Y-128784900D01*
X90512500Y-127675000D02*
X89170000Y-126332500D01*
X128612500Y-126304600D02*
X110932900Y-126304600D01*
X110932900Y-126304600D02*
X109562500Y-127675000D01*
X82935400Y-128784900D02*
X82935400Y-130097600D01*
X71462500Y-129205000D02*
X71462500Y-127675000D01*
X128612500Y-126304600D02*
X128612500Y-127675000D01*
X95378600Y-127917000D02*
X90754500Y-127917000D01*
X184392000Y-126304500D02*
X185762500Y-127675000D01*
X66412500Y-141675000D02*
X65886400Y-141148900D01*
X65886400Y-134781100D02*
X71462500Y-129205000D01*
X90754500Y-127917000D02*
X90512500Y-127675000D01*
X107540000Y-127433900D02*
X109321400Y-127433900D01*
X75972500Y-129205000D02*
X71462500Y-129205000D01*
X89170000Y-126332500D02*
X85387800Y-126332500D01*
X78072300Y-131304800D02*
X75972500Y-129205000D01*
%TO.N,R_ROW0*%
X81900000Y-72175000D02*
X90120000Y-72175000D01*
X98989400Y-74135600D02*
X100950000Y-72175000D01*
X98500000Y-60500000D02*
X98500000Y-67500000D01*
X98000000Y-55000000D02*
X98500000Y-60500000D01*
X61149900Y-79236400D02*
X69649400Y-70736900D01*
X118445000Y-72175000D02*
X117054700Y-73565300D01*
X69649400Y-70736900D02*
X80461900Y-70736900D01*
X140456700Y-70768300D02*
X139050000Y-72175000D01*
X63750000Y-86625000D02*
X61650000Y-84525000D01*
X61149900Y-84024900D02*
X61149900Y-79236400D01*
X112732700Y-74378300D02*
X111633300Y-74378300D01*
X61650000Y-84525000D02*
X61149900Y-84024900D01*
X90120000Y-72175000D02*
X92080600Y-74135600D01*
X78600000Y-86625000D02*
X63750000Y-86625000D01*
X160481300Y-72175000D02*
X159074600Y-70768300D01*
X100256100Y-71481100D02*
X100950000Y-72175000D01*
X92080600Y-74135600D02*
X98989400Y-74135600D01*
X121438600Y-70736400D02*
X137611400Y-70736400D01*
X80461900Y-70736900D02*
X81900000Y-72175000D01*
X161888000Y-70768300D02*
X160481300Y-72175000D01*
X180505800Y-70768300D02*
X161888000Y-70768300D01*
X109430000Y-72175000D02*
X100950000Y-72175000D01*
X120000000Y-72175000D02*
X118445000Y-72175000D01*
X181912500Y-72175000D02*
X180505800Y-70768300D01*
X98762400Y-71481100D02*
X100256100Y-71481100D01*
X111633300Y-74378300D02*
X109430000Y-72175000D01*
X159074600Y-70768300D02*
X140456700Y-70768300D01*
X120000000Y-72175000D02*
X121438600Y-70736400D01*
X137611400Y-70736400D02*
X139050000Y-72175000D01*
%TO.N,R_ROW1*%
X65315800Y-97871700D02*
X63096500Y-100091000D01*
X69720300Y-90967400D02*
X74832600Y-90967400D01*
X57175000Y-89575000D02*
X58221200Y-88528800D01*
X132008000Y-88208000D02*
X115692000Y-88208000D01*
X112958000Y-88208000D02*
X114325000Y-89575000D01*
X133375000Y-89575000D02*
X137004800Y-93204800D01*
X65315800Y-95371900D02*
X65315800Y-97871700D01*
X58221200Y-88528800D02*
X63208100Y-88528800D01*
X75174000Y-90626000D02*
X76225000Y-90626000D01*
X69274800Y-91412900D02*
X69720300Y-90967400D01*
X144568300Y-93204800D02*
X146678300Y-91094800D01*
X76225000Y-90626000D02*
X76225000Y-89575000D01*
X177287500Y-88243700D02*
X158921400Y-88243700D01*
X57067100Y-103575000D02*
X52125000Y-103575000D01*
X87697900Y-90679300D02*
X87697900Y-92001200D01*
X158921400Y-88243700D02*
X157590100Y-89575000D01*
X69274800Y-91412900D02*
X65315800Y-95371900D01*
X63096500Y-100091000D02*
X60551100Y-100091000D01*
X146678300Y-91094800D02*
X151160500Y-91094800D01*
X95275000Y-88208000D02*
X112958000Y-88208000D01*
X178618800Y-89575000D02*
X177287500Y-88243700D01*
X115692000Y-88208000D02*
X114325000Y-89575000D01*
X95275000Y-88208000D02*
X95275000Y-89575000D01*
X95275000Y-88208000D02*
X90169200Y-88208000D01*
X60551100Y-100091000D02*
X57067100Y-103575000D01*
X137004800Y-93204800D02*
X144568300Y-93204800D01*
X152425000Y-89830300D02*
X152425000Y-89575000D01*
X90169200Y-88208000D02*
X87697900Y-90679300D01*
X151160500Y-91094800D02*
X152425000Y-89830300D01*
X66390600Y-88528800D02*
X69274800Y-91412900D01*
X74832600Y-90967400D02*
X75174000Y-90626000D01*
X86494300Y-93204800D02*
X82834800Y-93204800D01*
X82834800Y-93204800D02*
X80256000Y-90626000D01*
X63208100Y-88528800D02*
X66390600Y-88528800D01*
X80256000Y-90626000D02*
X76225000Y-90626000D01*
X157590100Y-89575000D02*
X152425000Y-89575000D01*
X133375000Y-89575000D02*
X132008000Y-88208000D01*
X87697900Y-92001200D02*
X86494300Y-93204800D01*
%TO.N,R_ROW2*%
X154340000Y-107245600D02*
X149330800Y-112254800D01*
X182109900Y-112277600D02*
X165602600Y-112277600D01*
X161950000Y-108625000D02*
X160570600Y-107245600D01*
X149330800Y-112254800D02*
X141767300Y-112254800D01*
X61937500Y-108625000D02*
X63303800Y-107258700D01*
X63303800Y-107258700D02*
X75500000Y-107500000D01*
X59982400Y-108585100D02*
X61897600Y-108585100D01*
X75750000Y-107250000D02*
X80987500Y-107258700D01*
X100037500Y-107258700D02*
X100037500Y-108625000D01*
X60250000Y-70250000D02*
X60000000Y-68250000D01*
X80987500Y-107258700D02*
X80987500Y-108625000D01*
X61250000Y-71250000D02*
X60250000Y-70250000D01*
X185762500Y-108625000D02*
X182109900Y-112277600D01*
X160570600Y-107245600D02*
X154340000Y-107245600D01*
X119087500Y-107258700D02*
X100037500Y-107258700D01*
X136771200Y-107258700D02*
X119087500Y-107258700D01*
X75500000Y-107500000D02*
X75750000Y-107250000D01*
X100037500Y-107258700D02*
X80987500Y-107258700D01*
X56408800Y-115172700D02*
X58149300Y-113432200D01*
X119087500Y-107258700D02*
X119087500Y-108625000D01*
X60000000Y-68250000D02*
X60750000Y-67500000D01*
X141767300Y-112254800D02*
X138137500Y-108625000D01*
X138137500Y-108625000D02*
X136771200Y-107258700D01*
X56887500Y-122625000D02*
X56408800Y-122146300D01*
X165602600Y-112277600D02*
X161950000Y-108625000D01*
X56408800Y-122146300D02*
X56408800Y-115172700D01*
X61897600Y-108585100D02*
X61937500Y-108625000D01*
%TO.N,R_ROW4*%
X185762500Y-146725000D02*
X184434800Y-145397300D01*
X184434800Y-145397300D02*
X168040200Y-145397300D01*
X62000000Y-59000000D02*
X61000000Y-54500000D01*
X76572600Y-146814700D02*
X78516600Y-146814700D01*
X128612500Y-146725000D02*
X129983000Y-145354500D01*
X168040200Y-145397300D02*
X166712500Y-146725000D01*
X105777900Y-145321600D02*
X107181300Y-146725000D01*
X166712500Y-146725000D02*
X165384600Y-145397100D01*
X76572600Y-146814700D02*
X76572600Y-149314900D01*
X76572600Y-149314900D02*
X68912500Y-156975000D01*
X63000000Y-75250000D02*
X64000000Y-69250000D01*
X80009700Y-145321600D02*
X105000000Y-145000000D01*
X62250000Y-76000000D02*
X63000000Y-75250000D01*
X78606300Y-146725000D02*
X80009700Y-145321600D01*
X107181300Y-146725000D02*
X108509000Y-145397300D01*
X76022100Y-146264200D02*
X76572600Y-146814700D01*
X127284800Y-145397300D02*
X128612500Y-146725000D01*
X165384600Y-145397100D02*
X148990400Y-145397100D01*
X146292000Y-145354500D02*
X147662500Y-146725000D01*
X129983000Y-145354500D02*
X146292000Y-145354500D01*
X78516600Y-146814700D02*
X78606300Y-146725000D01*
X148990400Y-145397100D02*
X147662500Y-146725000D01*
X108509000Y-145397300D02*
X127284800Y-145397300D01*
X64000000Y-69250000D02*
X62000000Y-59000000D01*
X105000000Y-145000000D02*
X105777900Y-145321600D01*
X60250000Y-79750000D02*
X62250000Y-76000000D01*
%TO.N,R_COL0*%
X49338700Y-82098100D02*
X49338700Y-72113700D01*
X49338700Y-72113700D02*
X48850000Y-71625000D01*
X39844300Y-94641500D02*
X41567900Y-92917900D01*
X50010000Y-82605000D02*
X49845600Y-82605000D01*
X40485000Y-106457900D02*
X40485000Y-101655000D01*
X41567900Y-92917900D02*
X39325000Y-90675000D01*
X54772500Y-139755000D02*
X54772500Y-146665000D01*
X49845600Y-82605000D02*
X49338700Y-82098100D01*
X44087500Y-109725000D02*
X43752100Y-109725000D01*
X45247500Y-120705000D02*
X53317500Y-128775000D01*
X43873800Y-92917900D02*
X41567900Y-92917900D01*
X40400000Y-108000000D02*
X43752100Y-109725000D01*
X54772500Y-146665000D02*
X53612500Y-147825000D01*
X40485000Y-101655000D02*
X39844300Y-101014300D01*
X53317500Y-128775000D02*
X53612500Y-128775000D01*
X49845600Y-86946100D02*
X43873800Y-92917900D01*
X49845600Y-82605000D02*
X49845600Y-86946100D01*
X39844300Y-101014300D02*
X39844300Y-94641500D01*
X40485000Y-106457900D02*
X40400000Y-108000000D01*
%TO.N,R_COL1*%
X73094800Y-85630200D02*
X75300000Y-83425000D01*
X87206300Y-159625000D02*
X87006100Y-159424800D01*
X84223900Y-140575000D02*
X80062500Y-140575000D01*
X87006100Y-149604800D02*
X86046300Y-148645000D01*
X70337300Y-121324800D02*
X70337300Y-111504800D01*
X64374300Y-85548400D02*
X64456100Y-85630200D01*
X87006100Y-159424800D02*
X87006100Y-149604800D01*
X64456100Y-85630200D02*
X73094800Y-85630200D01*
X67750400Y-100499600D02*
X65775000Y-102475000D01*
X69377500Y-100499600D02*
X67750400Y-100499600D01*
X86046300Y-142397400D02*
X84223900Y-140575000D01*
X70537500Y-121525000D02*
X70337300Y-121324800D01*
X70832500Y-121525000D02*
X78902500Y-129595000D01*
X70537500Y-121525000D02*
X70832500Y-121525000D01*
X70337300Y-111504800D02*
X69377500Y-110545000D01*
%TO.N,R_COL4*%
X126527500Y-110545000D02*
X127503100Y-111520600D01*
X132249800Y-83224800D02*
X132249800Y-73404800D01*
X96672400Y-81169600D02*
X88573000Y-81169600D01*
X137028200Y-140390700D02*
X137028200Y-130570700D01*
X137028200Y-130570700D02*
X136052500Y-129595000D01*
X142750000Y-141000000D02*
X139271800Y-142634300D01*
X137212500Y-140575000D02*
X137028200Y-140390700D01*
X132249800Y-73404800D02*
X131290000Y-72445000D01*
X150924900Y-142634300D02*
X142750000Y-141000000D01*
X122925000Y-102475000D02*
X122724800Y-102274800D01*
X139271800Y-142634300D02*
X137212500Y-140575000D01*
X132450000Y-83425000D02*
X132249800Y-83224800D01*
X155102500Y-148645000D02*
X156078100Y-149620600D01*
X122724800Y-102274800D02*
X122724800Y-92454800D01*
X88573000Y-81169600D02*
X86551700Y-79148300D01*
X156078100Y-159440600D02*
X156262500Y-159625000D01*
X132249800Y-83224800D02*
X128640800Y-86833800D01*
X102336600Y-86833800D02*
X96672400Y-81169600D01*
X127503100Y-121340600D02*
X127687500Y-121525000D01*
X122724800Y-92454800D02*
X121765000Y-91495000D01*
X128640800Y-86833800D02*
X102336600Y-86833800D01*
X127503100Y-111520600D02*
X127503100Y-121340600D01*
X127687500Y-121525000D02*
X130603700Y-124441200D01*
X82435500Y-79148300D02*
X82325900Y-79038700D01*
X130603700Y-124441200D02*
X134723300Y-124441200D01*
X86551700Y-79148300D02*
X82435500Y-79148300D01*
X156078100Y-149620600D02*
X156078100Y-159440600D01*
%TO.N,R_COL2*%
X89292300Y-121229800D02*
X89292300Y-111409800D01*
X71297500Y-63697500D02*
X79500000Y-65500000D01*
X114621300Y-148645000D02*
X115596900Y-149620600D01*
X96457000Y-82774100D02*
X95000900Y-82774100D01*
X98944100Y-140406600D02*
X98944100Y-130586600D01*
X98944100Y-130586600D02*
X97952500Y-129595000D01*
X89197100Y-88209100D02*
X86950900Y-88209100D01*
X89587500Y-121525000D02*
X89292300Y-121229800D01*
X99112500Y-140575000D02*
X98944100Y-140406600D01*
X90014400Y-121525000D02*
X89587500Y-121525000D01*
X100934900Y-142397400D02*
X99112500Y-140575000D01*
X95000900Y-82774100D02*
X94350000Y-83425000D01*
X94350000Y-83425000D02*
X93981200Y-83425000D01*
X86314400Y-102475000D02*
X87331700Y-103492300D01*
X86000000Y-68500000D02*
X90500000Y-70500000D01*
X97952500Y-129463100D02*
X90014400Y-121525000D01*
X97952500Y-129595000D02*
X97952500Y-129463100D01*
X89292300Y-111409800D02*
X88427500Y-110545000D01*
X84825000Y-102475000D02*
X86314400Y-102475000D01*
X65970000Y-58370000D02*
X71297500Y-63697500D01*
X115596900Y-149620600D02*
X115596900Y-159440600D01*
X93981200Y-83425000D02*
X89197100Y-88209100D01*
X115596900Y-159440600D02*
X115781300Y-159625000D01*
X110884900Y-142397400D02*
X100934900Y-142397400D01*
X86950900Y-88209100D02*
X83665000Y-91495000D01*
%TO.N,R_COL5*%
X141975000Y-102475000D02*
X145577500Y-106077500D01*
X175112300Y-159424800D02*
X175112300Y-149604800D01*
X151315600Y-83240600D02*
X151500000Y-83425000D01*
X175112300Y-149604800D02*
X174152500Y-148645000D01*
X151315600Y-73420600D02*
X151315600Y-83240600D01*
X156262500Y-140575000D02*
X156062300Y-140374800D01*
X73500000Y-59500000D02*
X72500000Y-61000000D01*
X146737500Y-121525000D02*
X146814000Y-121448500D01*
X145577500Y-106077500D02*
X145577500Y-110545000D01*
X94511900Y-87385500D02*
X136705500Y-87385500D01*
X77500000Y-66000000D02*
X82000000Y-67500000D01*
X156062300Y-130554800D02*
X155102500Y-129595000D01*
X93173600Y-86047200D02*
X94511900Y-87385500D01*
X151500000Y-83425000D02*
X145205400Y-89719600D01*
X150340000Y-72445000D02*
X151315600Y-73420600D01*
X146814000Y-121448500D02*
X155102500Y-121448500D01*
X156062300Y-140374800D02*
X156062300Y-130554800D01*
X145205400Y-89719600D02*
X142590400Y-89719600D01*
X142590400Y-89719600D02*
X140815000Y-91495000D01*
X175312500Y-159625000D02*
X175112300Y-159424800D01*
X136705500Y-87385500D02*
X140815000Y-91495000D01*
X160270500Y-144583000D02*
X173460700Y-144583000D01*
X156262500Y-140575000D02*
X160270500Y-144583000D01*
%TO.N,R_COL6*%
X172746900Y-83240600D02*
X168411900Y-87575600D01*
X181750000Y-141000000D02*
X187307700Y-142750200D01*
X103646200Y-95497300D02*
X97328000Y-89179100D01*
X194362500Y-159625000D02*
X194162300Y-159424800D01*
X159865000Y-91495000D02*
X160690000Y-92320000D01*
X142751300Y-100298300D02*
X137354300Y-100298300D01*
X160690000Y-92320000D02*
X160690000Y-102140000D01*
X161025000Y-102475000D02*
X169095000Y-110545000D01*
X132954400Y-104698200D02*
X117250000Y-104500000D01*
X180250000Y-141250000D02*
X181750000Y-141000000D01*
X147131000Y-104678000D02*
X142751300Y-100298300D01*
X169095000Y-110545000D02*
X169390000Y-110545000D01*
X172746900Y-83240600D02*
X172746900Y-73420600D01*
X175128100Y-140390600D02*
X175312500Y-140575000D01*
X170550000Y-121525000D02*
X170626500Y-121448500D01*
X97328000Y-89179100D02*
X97050000Y-89179100D01*
X170626500Y-121448500D02*
X174152500Y-121448500D01*
X168411900Y-87575600D02*
X158561700Y-87575600D01*
X194162300Y-149604800D02*
X193202500Y-148645000D01*
X160690000Y-102140000D02*
X161025000Y-102475000D01*
X177487700Y-142750200D02*
X180250000Y-141250000D01*
X172746900Y-73420600D02*
X171771300Y-72445000D01*
X158822000Y-104678000D02*
X147131000Y-104678000D01*
X108750000Y-102000000D02*
X104250000Y-98000000D01*
X175312500Y-140575000D02*
X177487700Y-142750200D01*
X174152500Y-129595000D02*
X175128100Y-130570600D01*
X117250000Y-104500000D02*
X108750000Y-102000000D01*
X194162300Y-159424800D02*
X194162300Y-149604800D01*
X161025000Y-102475000D02*
X158822000Y-104678000D01*
X175128100Y-130570600D02*
X175128100Y-140390600D01*
X104250000Y-98000000D02*
X103646200Y-97194700D01*
X137354300Y-100298300D02*
X132954400Y-104698200D01*
X103646200Y-97194700D02*
X103646200Y-95497300D01*
X172746900Y-83240600D02*
X172931300Y-83425000D01*
X187307700Y-142750200D02*
X193202500Y-148645000D01*
%TO.N,R_COL7*%
X82772100Y-59932100D02*
X84000000Y-60000000D01*
X187018600Y-92454800D02*
X186058800Y-91495000D01*
X193202500Y-110545000D02*
X193202500Y-108458700D01*
X193962500Y-73205000D02*
X193202500Y-72445000D01*
X193202500Y-72445000D02*
X190906000Y-70148500D01*
X88500000Y-62000000D02*
X92000000Y-65500000D01*
X194162300Y-140374800D02*
X194162300Y-130554800D01*
X194362500Y-83425000D02*
X193962500Y-83425000D01*
X193962500Y-83425000D02*
X193962500Y-73205000D01*
X187018600Y-102274800D02*
X187018600Y-92454800D01*
X92000000Y-65500000D02*
X101162500Y-70148500D01*
X187218800Y-102475000D02*
X187018600Y-102274800D01*
X82772100Y-59932100D02*
X81210000Y-58370000D01*
X194362500Y-121525000D02*
X193202500Y-122685000D01*
X194362500Y-140575000D02*
X194162300Y-140374800D01*
X194162300Y-130554800D02*
X193202500Y-129595000D01*
X193202500Y-122685000D02*
X193202500Y-129595000D01*
X190906000Y-70148500D02*
X101162500Y-70148500D01*
X193202500Y-108458700D02*
X187218800Y-102475000D01*
X193962500Y-83591300D02*
X186058800Y-91495000D01*
X87000000Y-62000000D02*
X88500000Y-62000000D01*
X193962500Y-83425000D02*
X193962500Y-83591300D01*
%TO.N,GND*%
D21*
X90100000Y-54500000D02*
X88830000Y-58370000D01*
D20*
X78800000Y-63450000D02*
X78800000Y-61000000D01*
D21*
X96840000Y-59400000D02*
X96840000Y-54500000D01*
D20*
X78800000Y-61000000D02*
X87560000Y-61000000D01*
D21*
X96840000Y-54500000D02*
X90100000Y-54500000D01*
D20*
X87560000Y-61000000D02*
X88830000Y-58370000D01*
%TO.N,RK34_D*%
X74406300Y-148116400D02*
X74406300Y-146725000D01*
X74806300Y-155175000D02*
X74806300Y-157525000D01*
X74965500Y-148675600D02*
X74406300Y-148116400D01*
X78796300Y-151185000D02*
X74806300Y-155175000D01*
X79696300Y-151185000D02*
X78796300Y-151185000D01*
%TO.N,RK13_D*%
X110525000Y-100375000D02*
X110525000Y-97991800D01*
X110125000Y-89575000D02*
X114481800Y-93931800D01*
X114481800Y-93931800D02*
X114481800Y-94035000D01*
X114481800Y-94035000D02*
X115415000Y-94035000D01*
X110525000Y-97991800D02*
X114481800Y-94035000D01*
%TO.N,RK31_D*%
X162512500Y-127675000D02*
X166920000Y-132082500D01*
X166972500Y-132135000D02*
X167802500Y-132135000D01*
X166920000Y-132082500D02*
X166972500Y-132135000D01*
X166920000Y-132082500D02*
X162912500Y-136090000D01*
X162912500Y-136090000D02*
X162912500Y-138475000D01*
%TO.N,RK38_D*%
X168097000Y-154344100D02*
X168097000Y-151479500D01*
X162512500Y-146725000D02*
X166972400Y-151184900D01*
X168097000Y-151479500D02*
X167802500Y-151185000D01*
X165137500Y-155300000D02*
X167141100Y-155300000D01*
X167802500Y-151184900D02*
X167802500Y-151185000D01*
X162912500Y-157525000D02*
X165137500Y-155300000D01*
X166972400Y-151184900D02*
X167802500Y-151184900D01*
X167141100Y-155300000D02*
X168097000Y-154344100D01*
%TO.N,RK10_D*%
X52975000Y-89575000D02*
X57326600Y-93926600D01*
X57326600Y-93926600D02*
X57326600Y-94035000D01*
X57326600Y-94035000D02*
X58265000Y-94035000D01*
X53375000Y-100375000D02*
X53375000Y-97986600D01*
X53375000Y-97986600D02*
X57326600Y-94035000D01*
%TO.N,RK33_D*%
X64002500Y-156265000D02*
X64712500Y-156975000D01*
X62136600Y-156265000D02*
X61629600Y-156265000D01*
X61629600Y-156265000D02*
X61122500Y-156265000D01*
X61629600Y-156265000D02*
X64002500Y-156265000D01*
X63750000Y-154750000D02*
X62136600Y-156265000D01*
X66012500Y-149925000D02*
X63750000Y-154750000D01*
%TO.N,RK25_D*%
X61122500Y-137215000D02*
X61122500Y-140585000D01*
X66012500Y-133246700D02*
X62044200Y-137215000D01*
X62044200Y-137215000D02*
X61122500Y-137215000D01*
X61122500Y-140585000D02*
X62212500Y-141675000D01*
X66012500Y-130875000D02*
X66012500Y-133246700D01*
%TO.N,RK37_D*%
X146087500Y-155300000D02*
X148091100Y-155300000D01*
X148752500Y-151185000D02*
X144292500Y-146725000D01*
X149047000Y-154344100D02*
X149047000Y-151479500D01*
X148091100Y-155300000D02*
X149047000Y-154344100D01*
X143862500Y-157525000D02*
X146087500Y-155300000D01*
X144292500Y-146725000D02*
X143462500Y-146725000D01*
X149047000Y-151479500D02*
X148752500Y-151185000D01*
%TO.N,RK19_D*%
X77617500Y-108625000D02*
X82077500Y-113085000D01*
X77187500Y-117020300D02*
X81122800Y-113085000D01*
X76787500Y-108625000D02*
X77617500Y-108625000D01*
X77187500Y-119425000D02*
X77187500Y-117020300D01*
X81122800Y-113085000D02*
X82077500Y-113085000D01*
%TO.N,RK08_D*%
X183302500Y-74985000D02*
X181912500Y-76375000D01*
X181912500Y-81275000D02*
X181912500Y-76375000D01*
X181962500Y-81325000D02*
X181912500Y-81275000D01*
X186852500Y-74985000D02*
X183302500Y-74985000D01*
%TO.N,RK11_D*%
X76653600Y-98150000D02*
X77609500Y-97194100D01*
X72224200Y-89774200D02*
X72025000Y-89575000D01*
X77609500Y-94329500D02*
X77315000Y-94035000D01*
X74650000Y-98150000D02*
X76653600Y-98150000D01*
X74480700Y-89774200D02*
X72224200Y-89774200D01*
X72425000Y-100375000D02*
X74650000Y-98150000D01*
X77609500Y-97194100D02*
X77609500Y-94329500D01*
%TO.N,RK16_D*%
X175518800Y-90675000D02*
X174818800Y-91375000D01*
X175518800Y-90675000D02*
X174418800Y-89575000D01*
X174818800Y-91375000D02*
X174818800Y-100375000D01*
X179708800Y-94035000D02*
X175933800Y-90260000D01*
X175933800Y-90260000D02*
X175518800Y-90675000D01*
%TO.N,RK24_D*%
X182908800Y-107278700D02*
X181562500Y-108625000D01*
X184187600Y-117199900D02*
X181962500Y-119425000D01*
X186711900Y-107278700D02*
X182908800Y-107278700D01*
X187147000Y-116244800D02*
X186191900Y-117199900D01*
X187124300Y-112813200D02*
X187124300Y-107691100D01*
X187124300Y-107691100D02*
X186711900Y-107278700D01*
X186191900Y-117199900D02*
X184187600Y-117199900D01*
X187147000Y-113379500D02*
X187147000Y-116244800D01*
X186852500Y-113085000D02*
X187124300Y-112813200D01*
X186852500Y-113085000D02*
X187147000Y-113379500D01*
%TO.N,RK01_D*%
X57450000Y-84525000D02*
X57309500Y-84384500D01*
X61250000Y-76124500D02*
X57309500Y-80065000D01*
X57309500Y-80065000D02*
X56360000Y-80065000D01*
X61250000Y-73725000D02*
X61250000Y-76124500D01*
X57309500Y-84384500D02*
X57309500Y-80065000D01*
%TO.N,RK39_D*%
X187147000Y-154344100D02*
X187147000Y-151479500D01*
X181962500Y-157525000D02*
X184187500Y-155300000D01*
X186191100Y-155300000D02*
X187147000Y-154344100D01*
X181562500Y-146725000D02*
X186022500Y-151185000D01*
X184187500Y-155300000D02*
X186191100Y-155300000D01*
X187147000Y-151479500D02*
X186852500Y-151185000D01*
X186022500Y-151185000D02*
X186852500Y-151185000D01*
%TO.N,RK04_D*%
X102340000Y-74985000D02*
X100950000Y-76375000D01*
X100950000Y-81275000D02*
X100950000Y-76375000D01*
X105890000Y-74985000D02*
X102340000Y-74985000D01*
X101000000Y-81325000D02*
X100950000Y-81275000D01*
%TO.N,RK29_D*%
X124812500Y-136070300D02*
X128747800Y-132135000D01*
X124812500Y-138475000D02*
X124812500Y-136070300D01*
X129702500Y-132135000D02*
X125242500Y-127675000D01*
X125242500Y-127675000D02*
X124412500Y-127675000D01*
X128747800Y-132135000D02*
X129702500Y-132135000D01*
%TO.N,RK22_D*%
X136562500Y-117200000D02*
X138566100Y-117200000D01*
X134337500Y-119425000D02*
X136562500Y-117200000D01*
X139522000Y-113379500D02*
X139227500Y-113085000D01*
X138397500Y-113085000D02*
X139227500Y-113085000D01*
X139522000Y-116244100D02*
X139522000Y-113379500D01*
X133937500Y-108625000D02*
X138397500Y-113085000D01*
X138566100Y-117200000D02*
X139522000Y-116244100D01*
%TO.N,RK27_D*%
X86312500Y-127675000D02*
X90720000Y-132082500D01*
X90772500Y-132135000D02*
X91602500Y-132135000D01*
X90720000Y-132082500D02*
X90772500Y-132135000D01*
X86712500Y-136090000D02*
X86712500Y-138475000D01*
X90720000Y-132082500D02*
X86712500Y-136090000D01*
%TO.N,RK26_D*%
X71657600Y-132135000D02*
X67662500Y-136130100D01*
X67503600Y-127433900D02*
X67262500Y-127675000D01*
X67662500Y-136130100D02*
X67662500Y-138475000D01*
X69362500Y-127433900D02*
X67503600Y-127433900D01*
X72552500Y-132135000D02*
X71657600Y-132135000D01*
%TO.N,RK15_D*%
X148625000Y-98014700D02*
X152604700Y-94035000D01*
X150859400Y-90368100D02*
X150066300Y-89575000D01*
X150066300Y-89575000D02*
X148225000Y-89575000D01*
X148625000Y-100375000D02*
X148625000Y-98014700D01*
X152604700Y-94035000D02*
X153515000Y-94035000D01*
%TO.N,RK35_D*%
X107441300Y-151185000D02*
X108271300Y-151185000D01*
X103381300Y-157525000D02*
X105606300Y-155300000D01*
X105606300Y-155300000D02*
X107609900Y-155300000D01*
X107609900Y-155300000D02*
X108565800Y-154344100D01*
X102981300Y-146725000D02*
X107441300Y-151185000D01*
X108565800Y-154344100D02*
X108565800Y-151479500D01*
X108565800Y-151479500D02*
X108271300Y-151185000D01*
%TO.N,RK12_D*%
X96365000Y-94035000D02*
X93005000Y-90675000D01*
X92175000Y-90675000D02*
X91475000Y-91375000D01*
X91475000Y-91375000D02*
X91475000Y-100375000D01*
X93005000Y-90675000D02*
X92175000Y-90675000D01*
X92175000Y-90675000D02*
X91075000Y-89575000D01*
%TO.N,RK02_D*%
X62900000Y-81089600D02*
X62900000Y-81325000D01*
X70412800Y-81169600D02*
X68294900Y-79051700D01*
X64937900Y-76884900D02*
X64937900Y-79051700D01*
X64937900Y-79051700D02*
X62900000Y-81089600D01*
X78600000Y-82425000D02*
X77344600Y-81169600D01*
X68294900Y-79051700D02*
X64937900Y-79051700D01*
X66837800Y-74985000D02*
X64937900Y-76884900D01*
X77344600Y-81169600D02*
X70412800Y-81169600D01*
X67790000Y-74985000D02*
X66837800Y-74985000D01*
%TO.N,RK28_D*%
X110947000Y-135294100D02*
X110947000Y-132429500D01*
X105362500Y-127675000D02*
X109822500Y-132135000D01*
X109822500Y-132135000D02*
X110652500Y-132135000D01*
X107987500Y-136250000D02*
X109991100Y-136250000D01*
X109991100Y-136250000D02*
X110947000Y-135294100D01*
X110947000Y-132429500D02*
X110652500Y-132135000D01*
X105762500Y-138475000D02*
X107987500Y-136250000D01*
%TO.N,RK17_D*%
X56487500Y-114200000D02*
X56487500Y-111825000D01*
X52522500Y-118165000D02*
X56487500Y-114200000D01*
X51597500Y-118165000D02*
X52687500Y-119255000D01*
X52687500Y-119255000D02*
X52687500Y-122625000D01*
X51597500Y-118165000D02*
X52522500Y-118165000D01*
%TO.N,RK03_D*%
X81599200Y-80974200D02*
X81950000Y-81325000D01*
X83290000Y-74985000D02*
X86840000Y-74985000D01*
X81900000Y-76375000D02*
X81599200Y-76675800D01*
X81900000Y-76375000D02*
X83290000Y-74985000D01*
X81599200Y-76675800D02*
X81599200Y-80974200D01*
%TO.N,RK30_D*%
X143462500Y-127675000D02*
X147880300Y-132092700D01*
X148752500Y-132135000D02*
X148710200Y-132092700D01*
X145387300Y-134585700D02*
X145387300Y-136950200D01*
X147880300Y-132092700D02*
X145387300Y-134585700D01*
X148710200Y-132092700D02*
X147880300Y-132092700D01*
X145387300Y-136950200D02*
X143862500Y-138475000D01*
%TO.N,RK07_D*%
X160481300Y-81275000D02*
X160481300Y-76375000D01*
X160481300Y-76375000D02*
X161871300Y-74985000D01*
X161871300Y-74985000D02*
X165421300Y-74985000D01*
X160531300Y-81325000D02*
X160481300Y-81275000D01*
%TO.N,RK14_D*%
X129575000Y-100375000D02*
X129575000Y-97970300D01*
X134465000Y-94035000D02*
X130005000Y-89575000D01*
X133510300Y-94035000D02*
X134465000Y-94035000D01*
X129575000Y-97970300D02*
X133510300Y-94035000D01*
X130005000Y-89575000D02*
X129175000Y-89575000D01*
%TO.N,RK09_D*%
X51725000Y-95175600D02*
X47785600Y-99115000D01*
X47785600Y-103435600D02*
X47925000Y-103575000D01*
X51725000Y-92775000D02*
X51725000Y-95175600D01*
X47785600Y-99115000D02*
X46835000Y-99115000D01*
X47785600Y-99115000D02*
X47785600Y-103435600D01*
%TO.N,RK05_D*%
X121390000Y-74985000D02*
X120695000Y-75680000D01*
X124940000Y-74985000D02*
X121390000Y-74985000D01*
X120050000Y-76325000D02*
X120050000Y-81325000D01*
X120695000Y-75680000D02*
X120000000Y-76375000D01*
X120695000Y-75680000D02*
X120050000Y-76325000D01*
%TO.N,RK20_D*%
X96237500Y-117040000D02*
X96237500Y-119425000D01*
X100245000Y-113032500D02*
X100297500Y-113085000D01*
X100245000Y-113032500D02*
X96237500Y-117040000D01*
X95837500Y-108625000D02*
X100245000Y-113032500D01*
X100297500Y-113085000D02*
X101127500Y-113085000D01*
%TO.N,RK32_D*%
X181562500Y-127675000D02*
X186022500Y-132135000D01*
X186022500Y-132135000D02*
X186188700Y-132135000D01*
X186188700Y-132135000D02*
X186852500Y-132135000D01*
X185913800Y-132135000D02*
X181962500Y-136086300D01*
X181962500Y-136086300D02*
X181962500Y-138475000D01*
X186188700Y-132135000D02*
X185913800Y-132135000D01*
%TO.N,RK18_D*%
X63027500Y-113085000D02*
X58567500Y-108625000D01*
X63322000Y-116244100D02*
X63322000Y-113379500D01*
X60362500Y-117200000D02*
X62366100Y-117200000D01*
X58567500Y-108625000D02*
X57737500Y-108625000D01*
X58137500Y-119425000D02*
X60362500Y-117200000D01*
X63322000Y-113379500D02*
X63027500Y-113085000D01*
X62366100Y-117200000D02*
X63322000Y-116244100D01*
%TO.N,RK23_D*%
X157750000Y-108625000D02*
X162127800Y-113002800D01*
X158150000Y-119425000D02*
X158150000Y-117062800D01*
X162127800Y-113085000D02*
X163040000Y-113085000D01*
X162127800Y-113002800D02*
X162127800Y-113085000D01*
X158150000Y-117062800D02*
X162127800Y-113085000D01*
%TO.N,RK06_D*%
X143990000Y-74985000D02*
X140440000Y-74985000D01*
X140440000Y-74985000D02*
X139050000Y-76375000D01*
X139050000Y-81275000D02*
X139050000Y-76375000D01*
X139100000Y-81325000D02*
X139050000Y-81275000D01*
%TO.N,RK21_D*%
X115287500Y-119425000D02*
X115287500Y-117024100D01*
X119226600Y-113085000D02*
X120177500Y-113085000D01*
X114887500Y-108625000D02*
X119226600Y-112964100D01*
X119226600Y-112964100D02*
X119226600Y-113085000D01*
X115287500Y-117024100D02*
X119226600Y-113085000D01*
%TD*%
M02*
