M48
; DRILL file KiCad 10.0.3 date 2026-08-22T00:43:42
; FORMAT={-:-/ absolute / metric / decimal}
; #@! TF.CreationDate,2026-08-22T00:43:42+09:00
; #@! TF.GenerationSoftware,Kicad,Pcbnew,10.0.3
; #@! TF.FileFunction,Plated,1,2,PTH
FMAT,2
METRIC
; #@! TA.AperFunction,Plated,PTH,ViaDrill
T1C0.300
; #@! TA.AperFunction,Plated,PTH,ComponentDrill
T2C0.950
; #@! TA.AperFunction,Plated,PTH,ComponentDrill
T3C1.500
%
G90
G05
T1
X55.198Y-89.367
X63.637Y-59.925
X66.714Y-71.616
X69.572Y-148.251
X70.206Y-107.547
X70.23Y-136.008
X77.531Y-62.356
X78.452Y-59.389
X78.473Y-89.367
X78.473Y-126.546
X78.9Y-60.415
X79.378Y-85.268
X80.14Y-69.273
X81.242Y-83.789
X81.693Y-74.407
X88.627Y-101.144
X107.677Y-101.144
X111.111Y-86.535
X114.078Y-80.534
X114.692Y-151.251
X117.045Y-126.308
X126.727Y-101.144
X131.994Y-80.648
X135.451Y-142.88
X155.79Y-151.28
X159.746Y-87.584
X173.42Y-144.666
X173.533Y-121.753
T2
X63.63Y-41.38
X63.63Y-56.62
X66.17Y-41.38
X66.17Y-56.62
X68.71Y-41.38
X68.71Y-56.62
X71.25Y-41.38
X71.25Y-56.62
X73.79Y-41.38
X73.79Y-56.62
X76.33Y-41.38
X76.33Y-56.62
X78.87Y-41.38
X78.87Y-56.62
X81.41Y-41.38
X81.41Y-56.62
X83.95Y-41.38
X83.95Y-56.62
X86.49Y-41.38
X86.49Y-56.62
X89.03Y-41.38
X89.03Y-56.62
X91.57Y-41.38
X91.57Y-56.62
T3
X40.685Y-101.655
X45.447Y-120.705
X47.035Y-99.115
X50.21Y-82.605
X51.797Y-118.165
X54.972Y-139.755
X54.972Y-158.805
X56.56Y-80.065
X58.465Y-94.035
X61.322Y-137.215
X61.322Y-156.265
X63.227Y-113.085
X64.815Y-91.495
X67.99Y-74.985
X69.578Y-110.545
X72.752Y-132.135
X74.34Y-72.445
X77.515Y-94.035
X79.102Y-129.595
X79.896Y-151.185
X82.277Y-113.085
X83.865Y-91.495
X86.246Y-148.645
X87.04Y-74.985
X88.627Y-110.545
X91.802Y-132.135
X93.39Y-72.445
X96.565Y-94.035
X98.152Y-129.595
X101.328Y-113.085
X102.915Y-91.495
X106.09Y-74.985
X107.677Y-110.545
X108.471Y-151.185
X110.852Y-132.135
X112.44Y-72.445
X114.821Y-148.645
X115.615Y-94.035
X117.203Y-129.595
X120.377Y-113.085
X121.965Y-91.495
X125.14Y-74.985
X126.727Y-110.545
X129.903Y-132.135
X129.903Y-151.185
X131.49Y-72.445
X134.665Y-94.035
X136.252Y-129.595
X136.252Y-148.645
X139.427Y-113.085
X141.015Y-91.495
X144.19Y-74.985
X145.778Y-110.545
X148.952Y-132.135
X148.952Y-151.185
X150.54Y-72.445
X153.715Y-94.035
X155.302Y-129.595
X155.302Y-148.645
X160.065Y-91.495
X163.24Y-113.085
X165.621Y-74.985
X168.002Y-132.135
X168.002Y-151.185
X169.59Y-110.545
X171.971Y-72.445
X174.352Y-129.595
X174.352Y-148.645
X179.909Y-94.035
X186.259Y-91.495
X187.052Y-74.985
X187.052Y-113.085
X187.052Y-132.135
X187.052Y-151.185
X193.403Y-72.445
X193.403Y-110.545
X193.403Y-129.595
X193.403Y-148.645
M30
