%TF.GenerationSoftware,KiCad,Pcbnew,10.0.3*%
%TF.CreationDate,2026-08-21T21:08:10+09:00*%
%TF.ProjectId,kc2_right-x3-v2,6b63325f-7269-4676-9874-2d78332d7632,draft-v2*%
%TF.SameCoordinates,Original*%
%TF.FileFunction,Profile,NP*%
%FSLAX46Y46*%
G04 Gerber Fmt 4.6, Leading zero omitted, Abs format (unit mm)*
G04 Created by KiCad (PCBNEW 10.0.3) date 2026-08-21 21:08:10*
%MOMM*%
%LPD*%
G01*
G04 APERTURE LIST*
%TA.AperFunction,Profile*%
%ADD10C,0.100000*%
%TD*%
G04 APERTURE END LIST*
D10*
X35200000Y-89050000D02*
X35280000Y-88330000D01*
X35200000Y-104100000D02*
X35200000Y-89050000D01*
X35280000Y-88330000D02*
X35520000Y-87770000D01*
X35280000Y-104820000D02*
X35200000Y-104100000D01*
X35520000Y-87770000D02*
X35920000Y-87370000D01*
X35520000Y-105380000D02*
X35280000Y-104820000D01*
X35920000Y-87370000D02*
X36480000Y-87130000D01*
X35920000Y-105780000D02*
X35520000Y-105380000D01*
X36480000Y-87130000D02*
X37200000Y-87050000D01*
X36480000Y-106020000D02*
X35920000Y-105780000D01*
X37200000Y-87050000D02*
X42725000Y-87050000D01*
X37200000Y-106100000D02*
X36480000Y-106020000D01*
X37962500Y-106100000D02*
X37200000Y-106100000D01*
X38682500Y-106180000D02*
X37962500Y-106100000D01*
X39242500Y-106420000D02*
X38682500Y-106180000D01*
X39642500Y-106820000D02*
X39242500Y-106420000D01*
X39882500Y-107380000D02*
X39642500Y-106820000D01*
X39962500Y-108100000D02*
X39882500Y-107380000D01*
X39962500Y-123150000D02*
X39962500Y-108100000D01*
X40042500Y-123870000D02*
X39962500Y-123150000D01*
X40282499Y-124430000D02*
X40042500Y-123870000D01*
X40682500Y-124830000D02*
X40282499Y-124430000D01*
X41242500Y-125070000D02*
X40682500Y-124830000D01*
X41962500Y-125150000D02*
X41242500Y-125070000D01*
X42725000Y-87050000D02*
X43445000Y-86970000D01*
X43445000Y-86970000D02*
X44005000Y-86730000D01*
X44005000Y-86730000D02*
X44405000Y-86330000D01*
X44405000Y-86330000D02*
X44645000Y-85770000D01*
X44645000Y-85770000D02*
X44725000Y-85050000D01*
X44725000Y-71500000D02*
X44805000Y-70780000D01*
X44725000Y-85050000D02*
X44725000Y-71500000D01*
X44805000Y-70780000D02*
X45045000Y-70220000D01*
X45045000Y-70220000D02*
X45445000Y-69820000D01*
X45445000Y-69820000D02*
X46005000Y-69580000D01*
X46005000Y-69580000D02*
X46725000Y-69500000D01*
X46725000Y-69500000D02*
X56600000Y-69500000D01*
X47487500Y-125150000D02*
X41962500Y-125150000D01*
X48207500Y-125230000D02*
X47487500Y-125150000D01*
X48767500Y-125470000D02*
X48207500Y-125230000D01*
X49167500Y-125870000D02*
X48767500Y-125470000D01*
X49407500Y-126430000D02*
X49167500Y-125870000D01*
X49487500Y-127150000D02*
X49407500Y-126430000D01*
X49487500Y-142200000D02*
X49487500Y-127150000D01*
X49487500Y-143000000D02*
X49487500Y-142200000D01*
X49487500Y-143800000D02*
X49487500Y-143000000D01*
X49487500Y-144600000D02*
X49487500Y-143800000D01*
X49487500Y-145400000D02*
X49487500Y-144600000D01*
X49487500Y-146200000D02*
X49487500Y-145400000D01*
X49487500Y-159750000D02*
X49487500Y-146200000D01*
X49567500Y-160470000D02*
X49487500Y-159750000D01*
X49807500Y-161030000D02*
X49567500Y-160470000D01*
X50207500Y-161430000D02*
X49807500Y-161030000D01*
X50767500Y-161670000D02*
X50207500Y-161430000D01*
X51487500Y-161750000D02*
X50767500Y-161670000D01*
X56600000Y-69500000D02*
X57320000Y-69420000D01*
X57320000Y-69420000D02*
X57880000Y-69180000D01*
X57880000Y-69180000D02*
X58280000Y-68780000D01*
X58280000Y-68780000D02*
X58520000Y-68220000D01*
X58520000Y-68220000D02*
X58600000Y-67500000D01*
X58600000Y-37000000D02*
X58680000Y-36279999D01*
X58600000Y-67500000D02*
X58600000Y-37000000D01*
X58680000Y-36279999D02*
X58920000Y-35720000D01*
X58920000Y-35720000D02*
X59320000Y-35320000D01*
X59320000Y-35320000D02*
X59880000Y-35080000D01*
X59880000Y-35080000D02*
X60600000Y-35000000D01*
X60600000Y-35000000D02*
X99100000Y-35000000D01*
X99100000Y-35000000D02*
X99820000Y-35079999D01*
X99820000Y-35079999D02*
X100380000Y-35320000D01*
X100380000Y-35320000D02*
X100780000Y-35720000D01*
X100780000Y-35720000D02*
X101020000Y-36280000D01*
X101020000Y-36280000D02*
X101100000Y-37000000D01*
X101100000Y-37000000D02*
X101100000Y-67500000D01*
X101100000Y-67500000D02*
X101180000Y-68220000D01*
X101180000Y-68220000D02*
X101420000Y-68780000D01*
X101420000Y-68780000D02*
X101820000Y-69180000D01*
X101820000Y-69180000D02*
X102380000Y-69420000D01*
X102380000Y-69420000D02*
X103100000Y-69500000D01*
X103100000Y-69500000D02*
X196887500Y-69500000D01*
X196887500Y-69500000D02*
X197607500Y-69580000D01*
X196887500Y-161750000D02*
X51487500Y-161750000D01*
X197607500Y-69580000D02*
X198167500Y-69820000D01*
X197607500Y-161670000D02*
X196887500Y-161750000D01*
X198167500Y-69820000D02*
X198567500Y-70220000D01*
X198167500Y-161430000D02*
X197607500Y-161670000D01*
X198567500Y-70220000D02*
X198807500Y-70780000D01*
X198567500Y-161030000D02*
X198167500Y-161430000D01*
X198807500Y-70780000D02*
X198887500Y-71500000D01*
X198807500Y-160470000D02*
X198567500Y-161030000D01*
X198887500Y-71500000D02*
X198887500Y-85050000D01*
X198887500Y-85050000D02*
X198887500Y-85850000D01*
X198887500Y-85850000D02*
X198887500Y-86650000D01*
X198887500Y-86650000D02*
X198887500Y-87450000D01*
X198887500Y-87450000D02*
X198887500Y-88250000D01*
X198887500Y-88250000D02*
X198887500Y-89050000D01*
X198887500Y-89050000D02*
X198887500Y-104100000D01*
X198887500Y-104100000D02*
X198887500Y-104900000D01*
X198887500Y-104900000D02*
X198887500Y-105700000D01*
X198887500Y-105700000D02*
X198887500Y-106500000D01*
X198887500Y-106500000D02*
X198887500Y-107300000D01*
X198887500Y-107300000D02*
X198887500Y-108100000D01*
X198887500Y-108100000D02*
X198887500Y-123150000D01*
X198887500Y-123150000D02*
X198887500Y-123950000D01*
X198887500Y-123950000D02*
X198887500Y-124750000D01*
X198887500Y-124750000D02*
X198887500Y-125550000D01*
X198887500Y-125550000D02*
X198887500Y-126350000D01*
X198887500Y-126350000D02*
X198887500Y-127150000D01*
X198887500Y-127150000D02*
X198887500Y-142200000D01*
X198887500Y-142200000D02*
X198887500Y-143000000D01*
X198887500Y-143000000D02*
X198887500Y-143800000D01*
X198887500Y-143800000D02*
X198887500Y-144600000D01*
X198887500Y-144600000D02*
X198887500Y-145400000D01*
X198887500Y-145400000D02*
X198887500Y-146200000D01*
X198887500Y-146200000D02*
X198887500Y-159750000D01*
X198887500Y-159750000D02*
X198807500Y-160470000D01*
M02*
