%TF.GenerationSoftware,KiCad,Pcbnew,10.0.3*%
%TF.CreationDate,2026-09-01T20:02:11+09:00*%
%TF.ProjectId,kc2_right-x3-v2,6b63325f-7269-4676-9874-2d78332d7632,draft-v2*%
%TF.SameCoordinates,Original*%
%TF.FileFunction,Soldermask,Top*%
%TF.FilePolarity,Negative*%
%FSLAX46Y46*%
G04 Gerber Fmt 4.6, Leading zero omitted, Abs format (unit mm)*
G04 Created by KiCad (PCBNEW 10.0.3) date 2026-09-01 20:02:11*
%MOMM*%
%LPD*%
G01*
G04 APERTURE LIST*
%ADD10C,1.700000*%
%ADD11C,3.000000*%
%ADD12C,5.000000*%
%ADD13C,1.650000*%
%ADD14C,2.500000*%
%ADD15O,3.600000X2.200000*%
%ADD16C,1.600000*%
%ADD17O,2.200000X1.800000*%
%ADD18R,1.750000X1.000000*%
G04 APERTURE END LIST*
D10*
%TO.C,SW2*%
X66520000Y-77525000D03*
D11*
X66600000Y-81325000D03*
D12*
X71600000Y-77525000D03*
D11*
X71600000Y-83425000D03*
D13*
X76600000Y-72375000D03*
D10*
X76680000Y-77525000D03*
D14*
X74140000Y-72445000D03*
X67790000Y-74985000D03*
%TD*%
D15*
%TO.C,BAT_LEAD_SLOT1*%
X92200000Y-50750000D03*
%TD*%
D10*
%TO.C,SW29*%
X128432500Y-134675000D03*
D11*
X128512500Y-138475000D03*
D12*
X133512500Y-134675000D03*
D11*
X133512500Y-140575000D03*
D13*
X138512500Y-129525000D03*
D10*
X138592500Y-134675000D03*
D14*
X136052500Y-129595000D03*
X129702500Y-132135000D03*
%TD*%
D10*
%TO.C,SW39*%
X185582500Y-153725000D03*
D11*
X185662500Y-157525000D03*
D12*
X190662500Y-153725000D03*
D11*
X190662500Y-159625000D03*
D13*
X195662500Y-148575000D03*
D10*
X195742500Y-153725000D03*
D14*
X193202500Y-148645000D03*
X186852500Y-151185000D03*
%TD*%
D10*
%TO.C,SW14*%
X133195000Y-96575000D03*
D11*
X133275000Y-100375000D03*
D12*
X138275000Y-96575000D03*
D11*
X138275000Y-102475000D03*
D13*
X143275000Y-91425000D03*
D10*
X143355000Y-96575000D03*
D14*
X140815000Y-91495000D03*
X134465000Y-94035000D03*
%TD*%
D10*
%TO.C,SW3*%
X85570000Y-77525000D03*
D11*
X85650000Y-81325000D03*
D12*
X90650000Y-77525000D03*
D11*
X90650000Y-83425000D03*
D13*
X95650000Y-72375000D03*
D10*
X95730000Y-77525000D03*
D14*
X93190000Y-72445000D03*
X86840000Y-74985000D03*
%TD*%
D10*
%TO.C,SW30*%
X147482500Y-134675000D03*
D11*
X147562500Y-138475000D03*
D12*
X152562500Y-134675000D03*
D11*
X152562500Y-140575000D03*
D13*
X157562500Y-129525000D03*
D10*
X157642500Y-134675000D03*
D14*
X155102500Y-129595000D03*
X148752500Y-132135000D03*
%TD*%
D10*
%TO.C,SW24*%
X185582500Y-115625000D03*
D11*
X185662500Y-119425000D03*
D12*
X190662500Y-115625000D03*
D11*
X190662500Y-121525000D03*
D13*
X195662500Y-110475000D03*
D10*
X195742500Y-115625000D03*
D14*
X193202500Y-110545000D03*
X186852500Y-113085000D03*
%TD*%
D10*
%TO.C,SW23*%
X161770000Y-115625000D03*
D11*
X161850000Y-119425000D03*
D12*
X166850000Y-115625000D03*
D11*
X166850000Y-121525000D03*
D13*
X171850000Y-110475000D03*
D10*
X171930000Y-115625000D03*
D14*
X169390000Y-110545000D03*
X163040000Y-113085000D03*
%TD*%
D10*
%TO.C,SW8*%
X185582500Y-77525000D03*
D11*
X185662500Y-81325000D03*
D12*
X190662500Y-77525000D03*
D11*
X190662500Y-83425000D03*
D13*
X195662500Y-72375000D03*
D10*
X195742500Y-77525000D03*
D14*
X193202500Y-72445000D03*
X186852500Y-74985000D03*
%TD*%
D16*
%TO.C,MH5*%
X155937500Y-112500000D03*
%TD*%
D10*
%TO.C,SW28*%
X109382500Y-134675000D03*
D11*
X109462500Y-138475000D03*
D12*
X114462500Y-134675000D03*
D11*
X114462500Y-140575000D03*
D13*
X119462500Y-129525000D03*
D10*
X119542500Y-134675000D03*
D14*
X117002500Y-129595000D03*
X110652500Y-132135000D03*
%TD*%
D10*
%TO.C,SW20*%
X99857500Y-115625000D03*
D11*
X99937500Y-119425000D03*
D12*
X104937500Y-115625000D03*
D11*
X104937500Y-121525000D03*
D13*
X109937500Y-110475000D03*
D10*
X110017500Y-115625000D03*
D14*
X107477500Y-110545000D03*
X101127500Y-113085000D03*
%TD*%
D10*
%TO.C,SW4*%
X104620000Y-77525000D03*
D11*
X104700000Y-81325000D03*
D12*
X109700000Y-77525000D03*
D11*
X109700000Y-83425000D03*
D13*
X114700000Y-72375000D03*
D10*
X114780000Y-77525000D03*
D14*
X112240000Y-72445000D03*
X105890000Y-74985000D03*
%TD*%
D16*
%TO.C,SW_PWR1*%
X94300000Y-63450000D03*
X96840000Y-63450000D03*
X91760000Y-63450000D03*
%TD*%
D10*
%TO.C,SW12*%
X95095000Y-96575000D03*
D11*
X95175000Y-100375000D03*
D12*
X100175000Y-96575000D03*
D11*
X100175000Y-102475000D03*
D13*
X105175000Y-91425000D03*
D10*
X105255000Y-96575000D03*
D14*
X102715000Y-91495000D03*
X96365000Y-94035000D03*
%TD*%
D10*
%TO.C,SW21*%
X118907500Y-115625000D03*
D11*
X118987500Y-119425000D03*
D12*
X123987500Y-115625000D03*
D11*
X123987500Y-121525000D03*
D13*
X128987500Y-110475000D03*
D10*
X129067500Y-115625000D03*
D14*
X126527500Y-110545000D03*
X120177500Y-113085000D03*
%TD*%
D10*
%TO.C,SW36*%
X128432500Y-153725000D03*
D11*
X128512500Y-157525000D03*
D12*
X133512500Y-153725000D03*
D11*
X133512500Y-159625000D03*
D13*
X138512500Y-148575000D03*
D10*
X138592500Y-153725000D03*
D14*
X136052500Y-148645000D03*
X129702500Y-151185000D03*
%TD*%
D16*
%TO.C,MH7*%
X97687500Y-152000000D03*
%TD*%
D10*
%TO.C,SW38*%
X166532500Y-153725000D03*
D11*
X166612500Y-157525000D03*
D12*
X171612500Y-153725000D03*
D11*
X171612500Y-159625000D03*
D13*
X176612500Y-148575000D03*
D10*
X176692500Y-153725000D03*
D14*
X174152500Y-148645000D03*
X167802500Y-151185000D03*
%TD*%
D10*
%TO.C,SW26*%
X71282500Y-134675000D03*
D11*
X71362500Y-138475000D03*
D12*
X76362500Y-134675000D03*
D11*
X76362500Y-140575000D03*
D13*
X81362500Y-129525000D03*
D10*
X81442500Y-134675000D03*
D14*
X78902500Y-129595000D03*
X72552500Y-132135000D03*
%TD*%
D10*
%TO.C,SW10*%
X56995000Y-96575000D03*
D11*
X57075000Y-100375000D03*
D12*
X62075000Y-96575000D03*
D11*
X62075000Y-102475000D03*
D13*
X67075000Y-91425000D03*
D10*
X67155000Y-96575000D03*
D14*
X64615000Y-91495000D03*
X58265000Y-94035000D03*
%TD*%
D16*
%TO.C,MH9*%
X177750000Y-117250000D03*
%TD*%
D10*
%TO.C,SW13*%
X114145000Y-96575000D03*
D11*
X114225000Y-100375000D03*
D12*
X119225000Y-96575000D03*
D11*
X119225000Y-102475000D03*
D13*
X124225000Y-91425000D03*
D10*
X124305000Y-96575000D03*
D14*
X121765000Y-91495000D03*
X115415000Y-94035000D03*
%TD*%
D16*
%TO.C,MH8*%
X122687500Y-151000000D03*
%TD*%
D10*
%TO.C,SW34*%
X78426300Y-153725000D03*
D11*
X78506300Y-157525000D03*
D12*
X83506300Y-153725000D03*
D11*
X83506300Y-159625000D03*
D13*
X88506300Y-148575000D03*
D10*
X88586300Y-153725000D03*
D14*
X86046300Y-148645000D03*
X79696300Y-151185000D03*
%TD*%
D10*
%TO.C,SW1*%
X57630000Y-77525000D03*
D11*
X57550000Y-73725000D03*
D12*
X52550000Y-77525000D03*
D11*
X52550000Y-71625000D03*
D13*
X47550000Y-82675000D03*
D10*
X47470000Y-77525000D03*
D14*
X50010000Y-82605000D03*
X56360000Y-80065000D03*
%TD*%
D10*
%TO.C,SW22*%
X137957500Y-115625000D03*
D11*
X138037500Y-119425000D03*
D12*
X143037500Y-115625000D03*
D11*
X143037500Y-121525000D03*
D13*
X148037500Y-110475000D03*
D10*
X148117500Y-115625000D03*
D14*
X145577500Y-110545000D03*
X139227500Y-113085000D03*
%TD*%
D10*
%TO.C,SW17*%
X52867500Y-115625000D03*
D11*
X52787500Y-111825000D03*
D12*
X47787500Y-115625000D03*
D11*
X47787500Y-109725000D03*
D13*
X42787500Y-120775000D03*
D10*
X42707500Y-115625000D03*
D14*
X45247500Y-120705000D03*
X51597500Y-118165000D03*
%TD*%
D10*
%TO.C,SW35*%
X107001300Y-153725000D03*
D11*
X107081300Y-157525000D03*
D12*
X112081300Y-153725000D03*
D11*
X112081300Y-159625000D03*
D13*
X117081300Y-148575000D03*
D10*
X117161300Y-153725000D03*
D14*
X114621300Y-148645000D03*
X108271300Y-151185000D03*
%TD*%
D16*
%TO.C,MH4*%
X194437500Y-98750000D03*
%TD*%
D10*
%TO.C,SW25*%
X62392500Y-134675000D03*
D11*
X62312500Y-130875000D03*
D12*
X57312500Y-134675000D03*
D11*
X57312500Y-128775000D03*
D13*
X52312500Y-139825000D03*
D10*
X52232500Y-134675000D03*
D14*
X54772500Y-139755000D03*
X61122500Y-137215000D03*
%TD*%
D10*
%TO.C,SW19*%
X80807500Y-115625000D03*
D11*
X80887500Y-119425000D03*
D12*
X85887500Y-115625000D03*
D11*
X85887500Y-121525000D03*
D13*
X90887500Y-110475000D03*
D10*
X90967500Y-115625000D03*
D14*
X88427500Y-110545000D03*
X82077500Y-113085000D03*
%TD*%
D10*
%TO.C,SW7*%
X164151300Y-77525000D03*
D11*
X164231300Y-81325000D03*
D12*
X169231300Y-77525000D03*
D11*
X169231300Y-83425000D03*
D13*
X174231300Y-72375000D03*
D10*
X174311300Y-77525000D03*
D14*
X171771300Y-72445000D03*
X165421300Y-74985000D03*
%TD*%
D16*
%TO.C,MH2*%
X72437500Y-67000000D03*
%TD*%
D10*
%TO.C,SW31*%
X166532500Y-134675000D03*
D11*
X166612500Y-138475000D03*
D12*
X171612500Y-134675000D03*
D11*
X171612500Y-140575000D03*
D13*
X176612500Y-129525000D03*
D10*
X176692500Y-134675000D03*
D14*
X174152500Y-129595000D03*
X167802500Y-132135000D03*
%TD*%
D10*
%TO.C,SW27*%
X90332500Y-134675000D03*
D11*
X90412500Y-138475000D03*
D12*
X95412500Y-134675000D03*
D11*
X95412500Y-140575000D03*
D13*
X100412500Y-129525000D03*
D10*
X100492500Y-134675000D03*
D14*
X97952500Y-129595000D03*
X91602500Y-132135000D03*
%TD*%
D17*
%TO.C,J_BAT1*%
X94300000Y-59400000D03*
X96840000Y-59400000D03*
%TD*%
D10*
%TO.C,SW9*%
X48105000Y-96575000D03*
D11*
X48025000Y-92775000D03*
D12*
X43025000Y-96575000D03*
D11*
X43025000Y-90675000D03*
D13*
X38025000Y-101725000D03*
D10*
X37945000Y-96575000D03*
D14*
X40485000Y-101655000D03*
X46835000Y-99115000D03*
%TD*%
D16*
%TO.C,MH3*%
X170437500Y-95250000D03*
%TD*%
D18*
%TO.C,SW_RST1*%
X87925000Y-63450000D03*
X80175000Y-63450000D03*
%TD*%
D16*
%TO.C,MH6*%
X70187500Y-146750000D03*
%TD*%
D10*
%TO.C,SW16*%
X178438800Y-96575000D03*
D11*
X178518800Y-100375000D03*
D12*
X183518800Y-96575000D03*
D11*
X183518800Y-102475000D03*
D13*
X188518800Y-91425000D03*
D10*
X188598800Y-96575000D03*
D14*
X186058800Y-91495000D03*
X179708800Y-94035000D03*
%TD*%
D10*
%TO.C,SW32*%
X185582500Y-134675000D03*
D11*
X185662500Y-138475000D03*
D12*
X190662500Y-134675000D03*
D11*
X190662500Y-140575000D03*
D13*
X195662500Y-129525000D03*
D10*
X195742500Y-134675000D03*
D14*
X193202500Y-129595000D03*
X186852500Y-132135000D03*
%TD*%
D10*
%TO.C,SW15*%
X152245000Y-96575000D03*
D11*
X152325000Y-100375000D03*
D12*
X157325000Y-96575000D03*
D11*
X157325000Y-102475000D03*
D13*
X162325000Y-91425000D03*
D10*
X162405000Y-96575000D03*
D14*
X159865000Y-91495000D03*
X153515000Y-94035000D03*
%TD*%
D10*
%TO.C,SW37*%
X147482500Y-153725000D03*
D11*
X147562500Y-157525000D03*
D12*
X152562500Y-153725000D03*
D11*
X152562500Y-159625000D03*
D13*
X157562500Y-148575000D03*
D10*
X157642500Y-153725000D03*
D14*
X155102500Y-148645000D03*
X148752500Y-151185000D03*
%TD*%
D10*
%TO.C,SW5*%
X123670000Y-77525000D03*
D11*
X123750000Y-81325000D03*
D12*
X128750000Y-77525000D03*
D11*
X128750000Y-83425000D03*
D13*
X133750000Y-72375000D03*
D10*
X133830000Y-77525000D03*
D14*
X131290000Y-72445000D03*
X124940000Y-74985000D03*
%TD*%
D10*
%TO.C,SW6*%
X142720000Y-77525000D03*
D11*
X142800000Y-81325000D03*
D12*
X147800000Y-77525000D03*
D11*
X147800000Y-83425000D03*
D13*
X152800000Y-72375000D03*
D10*
X152880000Y-77525000D03*
D14*
X150340000Y-72445000D03*
X143990000Y-74985000D03*
%TD*%
D10*
%TO.C,SW18*%
X61757500Y-115625000D03*
D11*
X61837500Y-119425000D03*
D12*
X66837500Y-115625000D03*
D11*
X66837500Y-121525000D03*
D13*
X71837500Y-110475000D03*
D10*
X71917500Y-115625000D03*
D14*
X69377500Y-110545000D03*
X63027500Y-113085000D03*
%TD*%
D16*
%TO.C,MH1*%
X97187500Y-43250000D03*
%TD*%
D10*
%TO.C,SW33*%
X62392500Y-153725000D03*
D11*
X62312500Y-149925000D03*
D12*
X57312500Y-153725000D03*
D11*
X57312500Y-147825000D03*
D13*
X52312500Y-158875000D03*
D10*
X52232500Y-153725000D03*
D14*
X54772500Y-158805000D03*
X61122500Y-156265000D03*
%TD*%
D10*
%TO.C,SW11*%
X76045000Y-96575000D03*
D11*
X76125000Y-100375000D03*
D12*
X81125000Y-96575000D03*
D11*
X81125000Y-102475000D03*
D13*
X86125000Y-91425000D03*
D10*
X86205000Y-96575000D03*
D14*
X83665000Y-91495000D03*
X77315000Y-94035000D03*
%TD*%
M02*
