%TF.GenerationSoftware,KiCad,Pcbnew,10.0.3*%
%TF.CreationDate,2026-08-22T00:43:41+09:00*%
%TF.ProjectId,kc2_right-x3-v2,6b63325f-7269-4676-9874-2d78332d7632,draft-v2*%
%TF.SameCoordinates,Original*%
%TF.FileFunction,Paste,Bot*%
%TF.FilePolarity,Positive*%
%FSLAX46Y46*%
G04 Gerber Fmt 4.6, Leading zero omitted, Abs format (unit mm)*
G04 Created by KiCad (PCBNEW 10.0.3) date 2026-08-22 00:43:41*
%MOMM*%
%LPD*%
G01*
G04 APERTURE LIST*
G04 Aperture macros list*
%AMRoundRect*
0 Rectangle with rounded corners*
0 $1 Rounding radius*
0 $2 $3 $4 $5 $6 $7 $8 $9 X,Y pos of 4 corners*
0 Add a 4 corners polygon primitive as box body*
4,1,4,$2,$3,$4,$5,$6,$7,$8,$9,$2,$3,0*
0 Add four circle primitives for the rounded corners*
1,1,$1+$1,$2,$3*
1,1,$1+$1,$4,$5*
1,1,$1+$1,$6,$7*
1,1,$1+$1,$8,$9*
0 Add four rect primitives between the rounded corners*
20,1,$1+$1,$2,$3,$4,$5,0*
20,1,$1+$1,$4,$5,$6,$7,0*
20,1,$1+$1,$6,$7,$8,$9,0*
20,1,$1+$1,$8,$9,$2,$3,0*%
G04 Aperture macros list end*
%ADD10RoundRect,0.520000X-0.780000X-0.780000X0.780000X-0.780000X0.780000X0.780000X-0.780000X0.780000X0*%
%ADD11RoundRect,0.520000X0.780000X0.780000X-0.780000X0.780000X-0.780000X-0.780000X0.780000X-0.780000X0*%
%ADD12RoundRect,0.252000X0.448000X0.523000X-0.448000X0.523000X-0.448000X-0.523000X0.448000X-0.523000X0*%
G04 APERTURE END LIST*
D10*
%TO.C,SW24*%
X194562500Y-121525000D03*
X182162500Y-119425000D03*
%TD*%
%TO.C,SW19*%
X89787500Y-121525000D03*
X77387500Y-119425000D03*
%TD*%
%TO.C,SW16*%
X187418800Y-102475000D03*
X175018800Y-100375000D03*
%TD*%
D11*
%TO.C,SW25*%
X53812500Y-128775000D03*
X66212500Y-130875000D03*
%TD*%
D10*
%TO.C,SW22*%
X146937500Y-121525000D03*
X134537500Y-119425000D03*
%TD*%
%TO.C,SW5*%
X132650000Y-83425000D03*
X120250000Y-81325000D03*
%TD*%
D11*
%TO.C,SW9*%
X39525000Y-90675000D03*
X51925000Y-92775000D03*
%TD*%
D10*
%TO.C,SW12*%
X104075000Y-102475000D03*
X91675000Y-100375000D03*
%TD*%
%TO.C,SW7*%
X173131300Y-83425000D03*
X160731300Y-81325000D03*
%TD*%
%TO.C,SW21*%
X127887500Y-121525000D03*
X115487500Y-119425000D03*
%TD*%
D11*
%TO.C,SW17*%
X44287500Y-109725000D03*
X56687500Y-111825000D03*
%TD*%
D10*
%TO.C,SW39*%
X194562500Y-159625000D03*
X182162500Y-157525000D03*
%TD*%
%TO.C,SW6*%
X151700000Y-83425000D03*
X139300000Y-81325000D03*
%TD*%
D11*
%TO.C,SW1*%
X49050000Y-71625000D03*
X61450000Y-73725000D03*
%TD*%
D10*
%TO.C,SW26*%
X80262500Y-140575000D03*
X67862500Y-138475000D03*
%TD*%
%TO.C,SW10*%
X65975000Y-102475000D03*
X53575000Y-100375000D03*
%TD*%
%TO.C,SW14*%
X142175000Y-102475000D03*
X129775000Y-100375000D03*
%TD*%
%TO.C,SW4*%
X113600000Y-83425000D03*
X101200000Y-81325000D03*
%TD*%
%TO.C,SW38*%
X175512500Y-159625000D03*
X163112500Y-157525000D03*
%TD*%
%TO.C,SW31*%
X175512500Y-140575000D03*
X163112500Y-138475000D03*
%TD*%
%TO.C,SW27*%
X99312500Y-140575000D03*
X86912500Y-138475000D03*
%TD*%
%TO.C,SW15*%
X161225000Y-102475000D03*
X148825000Y-100375000D03*
%TD*%
%TO.C,SW20*%
X108837500Y-121525000D03*
X96437500Y-119425000D03*
%TD*%
%TO.C,SW2*%
X75500000Y-83425000D03*
X63100000Y-81325000D03*
%TD*%
%TO.C,SW29*%
X137412500Y-140575000D03*
X125012500Y-138475000D03*
%TD*%
%TO.C,SW35*%
X115981300Y-159625000D03*
X103581300Y-157525000D03*
%TD*%
%TO.C,SW37*%
X156462500Y-159625000D03*
X144062500Y-157525000D03*
%TD*%
%TO.C,SW32*%
X194562500Y-140575000D03*
X182162500Y-138475000D03*
%TD*%
%TO.C,SW28*%
X118362500Y-140575000D03*
X105962500Y-138475000D03*
%TD*%
%TO.C,SW8*%
X194562500Y-83425000D03*
X182162500Y-81325000D03*
%TD*%
%TO.C,SW30*%
X156462500Y-140575000D03*
X144062500Y-138475000D03*
%TD*%
%TO.C,SW13*%
X123125000Y-102475000D03*
X110725000Y-100375000D03*
%TD*%
D11*
%TO.C,SW33*%
X53812500Y-147825000D03*
X66212500Y-149925000D03*
%TD*%
D10*
%TO.C,SW23*%
X170750000Y-121525000D03*
X158350000Y-119425000D03*
%TD*%
%TO.C,SW18*%
X70737500Y-121525000D03*
X58337500Y-119425000D03*
%TD*%
%TO.C,SW11*%
X85025000Y-102475000D03*
X72625000Y-100375000D03*
%TD*%
%TO.C,SW36*%
X137412500Y-159625000D03*
X125012500Y-157525000D03*
%TD*%
%TO.C,SW34*%
X87406300Y-159625000D03*
X75006300Y-157525000D03*
%TD*%
%TO.C,SW3*%
X94550000Y-83425000D03*
X82150000Y-81325000D03*
%TD*%
D12*
%TO.C,D14*%
X133275000Y-89575000D03*
X129675000Y-89575000D03*
%TD*%
%TO.C,D16*%
X178518800Y-89575000D03*
X174918800Y-89575000D03*
%TD*%
%TO.C,D31*%
X166612500Y-127675000D03*
X163012500Y-127675000D03*
%TD*%
%TO.C,D35*%
X107081300Y-146725000D03*
X103481300Y-146725000D03*
%TD*%
%TO.C,D28*%
X109462500Y-127675000D03*
X105862500Y-127675000D03*
%TD*%
%TO.C,D2*%
X68600000Y-71925000D03*
X65000000Y-71925000D03*
%TD*%
%TO.C,D30*%
X147562500Y-127675000D03*
X143962500Y-127675000D03*
%TD*%
%TO.C,D4*%
X102450000Y-74525000D03*
X98850000Y-74525000D03*
%TD*%
%TO.C,D9*%
X52025000Y-103575000D03*
X48425000Y-103575000D03*
%TD*%
%TO.C,D15*%
X152325000Y-89575000D03*
X148725000Y-89575000D03*
%TD*%
%TO.C,D36*%
X128512500Y-146725000D03*
X124912500Y-146725000D03*
%TD*%
%TO.C,D21*%
X118987500Y-108625000D03*
X115387500Y-108625000D03*
%TD*%
%TO.C,D33*%
X68812500Y-156725000D03*
X65212500Y-156725000D03*
%TD*%
%TO.C,D18*%
X61837500Y-108625000D03*
X58237500Y-108625000D03*
%TD*%
%TO.C,D3*%
X83400000Y-74525000D03*
X79800000Y-74525000D03*
%TD*%
%TO.C,D13*%
X114225000Y-89575000D03*
X110625000Y-89575000D03*
%TD*%
%TO.C,D37*%
X147562500Y-146725000D03*
X143962500Y-146725000D03*
%TD*%
%TO.C,D25*%
X66312500Y-141675000D03*
X62712500Y-141675000D03*
%TD*%
%TO.C,D22*%
X138037500Y-108625000D03*
X134437500Y-108625000D03*
%TD*%
%TO.C,D32*%
X185662500Y-127675000D03*
X182062500Y-127675000D03*
%TD*%
%TO.C,D11*%
X76125000Y-89575000D03*
X72525000Y-89575000D03*
%TD*%
%TO.C,D10*%
X57075000Y-89575000D03*
X53475000Y-89575000D03*
%TD*%
%TO.C,D29*%
X128512500Y-127675000D03*
X124912500Y-127675000D03*
%TD*%
%TO.C,D24*%
X185662500Y-108625000D03*
X182062500Y-108625000D03*
%TD*%
%TO.C,D6*%
X140550000Y-74525000D03*
X136950000Y-74525000D03*
%TD*%
%TO.C,D39*%
X185662500Y-146725000D03*
X182062500Y-146725000D03*
%TD*%
%TO.C,D27*%
X90412500Y-127675000D03*
X86812500Y-127675000D03*
%TD*%
%TO.C,D5*%
X121500000Y-74525000D03*
X117900000Y-74525000D03*
%TD*%
%TO.C,D8*%
X183412500Y-74525000D03*
X179812500Y-74525000D03*
%TD*%
%TO.C,D1*%
X61550000Y-84525000D03*
X57950000Y-84525000D03*
%TD*%
%TO.C,D38*%
X166612500Y-146725000D03*
X163012500Y-146725000D03*
%TD*%
%TO.C,D20*%
X99937500Y-108625000D03*
X96337500Y-108625000D03*
%TD*%
%TO.C,D26*%
X71362500Y-127675000D03*
X67762500Y-127675000D03*
%TD*%
%TO.C,D17*%
X56787500Y-122625000D03*
X53187500Y-122625000D03*
%TD*%
%TO.C,D23*%
X161850000Y-108625000D03*
X158250000Y-108625000D03*
%TD*%
%TO.C,D19*%
X80887500Y-108625000D03*
X77287500Y-108625000D03*
%TD*%
%TO.C,D7*%
X161981300Y-74525000D03*
X158381300Y-74525000D03*
%TD*%
%TO.C,D34*%
X78506300Y-146725000D03*
X74906300Y-146725000D03*
%TD*%
%TO.C,D12*%
X95175000Y-89575000D03*
X91575000Y-89575000D03*
%TD*%
M02*
