%TF.GenerationSoftware,KiCad,Pcbnew,10.0.3*%
%TF.CreationDate,2026-08-03T10:12:09+09:00*%
%TF.ProjectId,kc2_right-x3-v2,6b63325f-7269-4676-9874-2d78332d7632,draft-v2*%
%TF.SameCoordinates,Original*%
%TF.FileFunction,Soldermask,Top*%
%TF.FilePolarity,Negative*%
%FSLAX46Y46*%
G04 Gerber Fmt 4.6, Leading zero omitted, Abs format (unit mm)*
G04 Created by KiCad (PCBNEW 10.0.3) date 2026-08-03 10:12:09*
%MOMM*%
%LPD*%
G01*
G04 APERTURE LIST*
%ADD10C,3.000000*%
%ADD11C,1.700000*%
%ADD12C,5.000000*%
%ADD13C,1.650000*%
%ADD14C,2.500000*%
%ADD15R,1.750000X1.000000*%
%ADD16O,3.600000X2.200000*%
G04 APERTURE END LIST*
D10*
%TO.C,REG1*%
X103120000Y-84530000D03*
%TD*%
D11*
%TO.C,SW43*%
X171632500Y-153725000D03*
D10*
X171712500Y-157525000D03*
D12*
X176712500Y-153725000D03*
D10*
X176712500Y-159625000D03*
D13*
X181712500Y-148575000D03*
D11*
X181792500Y-153725000D03*
D14*
X179252500Y-148645000D03*
X172902500Y-151185000D03*
%TD*%
D11*
%TO.C,SW38*%
X76382500Y-153725000D03*
D10*
X76462500Y-157525000D03*
D12*
X81462500Y-153725000D03*
D10*
X81462500Y-159625000D03*
D13*
X86462500Y-148575000D03*
D11*
X86542500Y-153725000D03*
D14*
X84002500Y-148645000D03*
X77652500Y-151185000D03*
%TD*%
D11*
%TO.C,SW27*%
X209732500Y-115625000D03*
D10*
X209812500Y-119425000D03*
D12*
X214812500Y-115625000D03*
D10*
X214812500Y-121525000D03*
D13*
X219812500Y-110475000D03*
D11*
X219892500Y-115625000D03*
D14*
X217352500Y-110545000D03*
X211002500Y-113085000D03*
%TD*%
D11*
%TO.C,SW10*%
X43045000Y-96575000D03*
D10*
X43125000Y-100375000D03*
D12*
X48125000Y-96575000D03*
D10*
X48125000Y-102475000D03*
D13*
X53125000Y-91425000D03*
D11*
X53205000Y-96575000D03*
D14*
X50665000Y-91495000D03*
X44315000Y-94035000D03*
%TD*%
D11*
%TO.C,SW15*%
X138295000Y-96575000D03*
D10*
X138375000Y-100375000D03*
D12*
X143375000Y-96575000D03*
D10*
X143375000Y-102475000D03*
D13*
X148375000Y-91425000D03*
D11*
X148455000Y-96575000D03*
D14*
X145915000Y-91495000D03*
X139565000Y-94035000D03*
%TD*%
D15*
%TO.C,SW_RST1*%
X66575000Y-62150000D03*
X74325000Y-62150000D03*
%TD*%
D11*
%TO.C,SW36*%
X209732500Y-134675000D03*
D10*
X209812500Y-138475000D03*
D12*
X214812500Y-134675000D03*
D10*
X214812500Y-140575000D03*
D13*
X219812500Y-129525000D03*
D11*
X219892500Y-134675000D03*
D14*
X217352500Y-129595000D03*
X211002500Y-132135000D03*
%TD*%
D11*
%TO.C,SW14*%
X119245000Y-96575000D03*
D10*
X119325000Y-100375000D03*
D12*
X124325000Y-96575000D03*
D10*
X124325000Y-102475000D03*
D13*
X129325000Y-91425000D03*
D11*
X129405000Y-96575000D03*
D14*
X126865000Y-91495000D03*
X120515000Y-94035000D03*
%TD*%
D10*
%TO.C,REG2*%
X141690000Y-84030000D03*
%TD*%
D11*
%TO.C,SW9*%
X209732500Y-77525000D03*
D10*
X209812500Y-81325000D03*
D12*
X214812500Y-77525000D03*
D10*
X214812500Y-83425000D03*
D13*
X219812500Y-72375000D03*
D11*
X219892500Y-77525000D03*
D14*
X217352500Y-72445000D03*
X211002500Y-74985000D03*
%TD*%
D11*
%TO.C,SW28*%
X57332500Y-134675000D03*
D10*
X57412500Y-138475000D03*
D12*
X62412500Y-134675000D03*
D10*
X62412500Y-140575000D03*
D13*
X67412500Y-129525000D03*
D11*
X67492500Y-134675000D03*
D14*
X64952500Y-129595000D03*
X58602500Y-132135000D03*
%TD*%
D11*
%TO.C,SW39*%
X95432500Y-153725000D03*
D10*
X95512500Y-157525000D03*
D12*
X100512500Y-153725000D03*
D10*
X100512500Y-159625000D03*
D13*
X105512500Y-148575000D03*
D11*
X105592500Y-153725000D03*
D14*
X103052500Y-148645000D03*
X96702500Y-151185000D03*
%TD*%
D11*
%TO.C,SW3*%
X90670000Y-77525000D03*
D10*
X90750000Y-81325000D03*
D12*
X95750000Y-77525000D03*
D10*
X95750000Y-83425000D03*
D13*
X100750000Y-72375000D03*
D11*
X100830000Y-77525000D03*
D14*
X98290000Y-72445000D03*
X91940000Y-74985000D03*
%TD*%
D11*
%TO.C,SW5*%
X128770000Y-77525000D03*
D10*
X128850000Y-81325000D03*
D12*
X133850000Y-77525000D03*
D10*
X133850000Y-83425000D03*
D13*
X138850000Y-72375000D03*
D11*
X138930000Y-77525000D03*
D14*
X136390000Y-72445000D03*
X130040000Y-74985000D03*
%TD*%
D10*
%TO.C,REG3*%
X200750000Y-95530000D03*
%TD*%
D11*
%TO.C,SW20*%
X66857500Y-115625000D03*
D10*
X66937500Y-119425000D03*
D12*
X71937500Y-115625000D03*
D10*
X71937500Y-121525000D03*
D13*
X76937500Y-110475000D03*
D11*
X77017500Y-115625000D03*
D14*
X74477500Y-110545000D03*
X68127500Y-113085000D03*
%TD*%
D10*
%TO.C,REG8*%
X146190000Y-141820000D03*
%TD*%
D11*
%TO.C,SW42*%
X152582500Y-153725000D03*
D10*
X152662500Y-157525000D03*
D12*
X157662500Y-153725000D03*
D10*
X157662500Y-159625000D03*
D13*
X162662500Y-148575000D03*
D11*
X162742500Y-153725000D03*
D14*
X160202500Y-148645000D03*
X153852500Y-151185000D03*
%TD*%
D11*
%TO.C,SW16*%
X157345000Y-96575000D03*
D10*
X157425000Y-100375000D03*
D12*
X162425000Y-96575000D03*
D10*
X162425000Y-102475000D03*
D13*
X167425000Y-91425000D03*
D11*
X167505000Y-96575000D03*
D14*
X164965000Y-91495000D03*
X158615000Y-94035000D03*
%TD*%
D11*
%TO.C,SW40*%
X114482500Y-153725000D03*
D10*
X114562500Y-157525000D03*
D12*
X119562500Y-153725000D03*
D10*
X119562500Y-159625000D03*
D13*
X124562500Y-148575000D03*
D11*
X124642500Y-153725000D03*
D14*
X122102500Y-148645000D03*
X115752500Y-151185000D03*
%TD*%
D11*
%TO.C,SW23*%
X124007500Y-115625000D03*
D10*
X124087500Y-119425000D03*
D12*
X129087500Y-115625000D03*
D10*
X129087500Y-121525000D03*
D13*
X134087500Y-110475000D03*
D11*
X134167500Y-115625000D03*
D14*
X131627500Y-110545000D03*
X125277500Y-113085000D03*
%TD*%
D11*
%TO.C,SW17*%
X183538800Y-96575000D03*
D10*
X183618800Y-100375000D03*
D12*
X188618800Y-96575000D03*
D10*
X188618800Y-102475000D03*
D13*
X193618800Y-91425000D03*
D11*
X193698800Y-96575000D03*
D14*
X191158800Y-91495000D03*
X184808800Y-94035000D03*
%TD*%
D11*
%TO.C,SW35*%
X190682500Y-134675000D03*
D10*
X190762500Y-138475000D03*
D12*
X195762500Y-134675000D03*
D10*
X195762500Y-140575000D03*
D13*
X200762500Y-129525000D03*
D11*
X200842500Y-134675000D03*
D14*
X198302500Y-129595000D03*
X191952500Y-132135000D03*
%TD*%
D11*
%TO.C,SW32*%
X133532500Y-134675000D03*
D10*
X133612500Y-138475000D03*
D12*
X138612500Y-134675000D03*
D10*
X138612500Y-140575000D03*
D13*
X143612500Y-129525000D03*
D11*
X143692500Y-134675000D03*
D14*
X141152500Y-129595000D03*
X134802500Y-132135000D03*
%TD*%
D11*
%TO.C,SW25*%
X162107500Y-115625000D03*
D10*
X162187500Y-119425000D03*
D12*
X167187500Y-115625000D03*
D10*
X167187500Y-121525000D03*
D13*
X172187500Y-110475000D03*
D11*
X172267500Y-115625000D03*
D14*
X169727500Y-110545000D03*
X163377500Y-113085000D03*
%TD*%
D11*
%TO.C,SW21*%
X85907500Y-115625000D03*
D10*
X85987500Y-119425000D03*
D12*
X90987500Y-115625000D03*
D10*
X90987500Y-121525000D03*
D13*
X95987500Y-110475000D03*
D11*
X96067500Y-115625000D03*
D14*
X93527500Y-110545000D03*
X87177500Y-113085000D03*
%TD*%
D11*
%TO.C,SW29*%
X76382500Y-134675000D03*
D10*
X76462500Y-138475000D03*
D12*
X81462500Y-134675000D03*
D10*
X81462500Y-140575000D03*
D13*
X86462500Y-129525000D03*
D11*
X86542500Y-134675000D03*
D14*
X84002500Y-129595000D03*
X77652500Y-132135000D03*
%TD*%
D11*
%TO.C,SW2*%
X71620000Y-77525000D03*
D10*
X71700000Y-81325000D03*
D12*
X76700000Y-77525000D03*
D10*
X76700000Y-83425000D03*
D13*
X81700000Y-72375000D03*
D11*
X81780000Y-77525000D03*
D14*
X79240000Y-72445000D03*
X72890000Y-74985000D03*
%TD*%
D11*
%TO.C,SW1*%
X52570000Y-77525000D03*
D10*
X52650000Y-81325000D03*
D12*
X57650000Y-77525000D03*
D10*
X57650000Y-83425000D03*
D13*
X62650000Y-72375000D03*
D11*
X62730000Y-77525000D03*
D14*
X60190000Y-72445000D03*
X53840000Y-74985000D03*
%TD*%
D10*
%TO.C,REG5*%
X131690000Y-125930000D03*
%TD*%
D11*
%TO.C,SW12*%
X81145000Y-96575000D03*
D10*
X81225000Y-100375000D03*
D12*
X86225000Y-96575000D03*
D10*
X86225000Y-102475000D03*
D13*
X91225000Y-91425000D03*
D11*
X91305000Y-96575000D03*
D14*
X88765000Y-91495000D03*
X82415000Y-94035000D03*
%TD*%
D11*
%TO.C,SW34*%
X171632500Y-134675000D03*
D10*
X171712500Y-138475000D03*
D12*
X176712500Y-134675000D03*
D10*
X176712500Y-140575000D03*
D13*
X181712500Y-129525000D03*
D11*
X181792500Y-134675000D03*
D14*
X179252500Y-129595000D03*
X172902500Y-132135000D03*
%TD*%
D11*
%TO.C,SW41*%
X133532500Y-153725000D03*
D10*
X133612500Y-157525000D03*
D12*
X138612500Y-153725000D03*
D10*
X138612500Y-159625000D03*
D13*
X143612500Y-148575000D03*
D11*
X143692500Y-153725000D03*
D14*
X141152500Y-148645000D03*
X134802500Y-151185000D03*
%TD*%
D11*
%TO.C,SW8*%
X188301300Y-77525000D03*
D10*
X188381300Y-81325000D03*
D12*
X193381300Y-77525000D03*
D10*
X193381300Y-83425000D03*
D13*
X198381300Y-72375000D03*
D11*
X198461300Y-77525000D03*
D14*
X195921300Y-72445000D03*
X189571300Y-74985000D03*
%TD*%
D10*
%TO.C,REG7*%
X54880000Y-144570000D03*
%TD*%
%TO.C,REG4*%
X54380000Y-127170000D03*
%TD*%
D11*
%TO.C,SW30*%
X95432500Y-134675000D03*
D10*
X95512500Y-138475000D03*
D12*
X100512500Y-134675000D03*
D10*
X100512500Y-140575000D03*
D13*
X105512500Y-129525000D03*
D11*
X105592500Y-134675000D03*
D14*
X103052500Y-129595000D03*
X96702500Y-132135000D03*
%TD*%
D11*
%TO.C,SW44*%
X190682500Y-153725000D03*
D10*
X190762500Y-157525000D03*
D12*
X195762500Y-153725000D03*
D10*
X195762500Y-159625000D03*
D13*
X200762500Y-148575000D03*
D11*
X200842500Y-153725000D03*
D14*
X198302500Y-148645000D03*
X191952500Y-151185000D03*
%TD*%
D16*
%TO.C,BAT_LEAD_SLOT1*%
X97300000Y-49000000D03*
%TD*%
D11*
%TO.C,SW22*%
X104957500Y-115625000D03*
D10*
X105037500Y-119425000D03*
D12*
X110037500Y-115625000D03*
D10*
X110037500Y-121525000D03*
D13*
X115037500Y-110475000D03*
D11*
X115117500Y-115625000D03*
D14*
X112577500Y-110545000D03*
X106227500Y-113085000D03*
%TD*%
D11*
%TO.C,SW31*%
X114482500Y-134675000D03*
D10*
X114562500Y-138475000D03*
D12*
X119562500Y-134675000D03*
D10*
X119562500Y-140575000D03*
D13*
X124562500Y-129525000D03*
D11*
X124642500Y-134675000D03*
D14*
X122102500Y-129595000D03*
X115752500Y-132135000D03*
%TD*%
D10*
%TO.C,REG9*%
X205750000Y-130320000D03*
%TD*%
D11*
%TO.C,SW6*%
X147820000Y-77525000D03*
D10*
X147900000Y-81325000D03*
D12*
X152900000Y-77525000D03*
D10*
X152900000Y-83425000D03*
D13*
X157900000Y-72375000D03*
D11*
X157980000Y-77525000D03*
D14*
X155440000Y-72445000D03*
X149090000Y-74985000D03*
%TD*%
D11*
%TO.C,SW19*%
X47807500Y-115625000D03*
D10*
X47887500Y-119425000D03*
D12*
X52887500Y-115625000D03*
D10*
X52887500Y-121525000D03*
D13*
X57887500Y-110475000D03*
D11*
X57967500Y-115625000D03*
D14*
X55427500Y-110545000D03*
X49077500Y-113085000D03*
%TD*%
D11*
%TO.C,SW11*%
X62095000Y-96575000D03*
D10*
X62175000Y-100375000D03*
D12*
X67175000Y-96575000D03*
D10*
X67175000Y-102475000D03*
D13*
X72175000Y-91425000D03*
D11*
X72255000Y-96575000D03*
D14*
X69715000Y-91495000D03*
X63365000Y-94035000D03*
%TD*%
D11*
%TO.C,SW7*%
X166870000Y-77525000D03*
D10*
X166950000Y-81325000D03*
D12*
X171950000Y-77525000D03*
D10*
X171950000Y-83425000D03*
D13*
X176950000Y-72375000D03*
D11*
X177030000Y-77525000D03*
D14*
X174490000Y-72445000D03*
X168140000Y-74985000D03*
%TD*%
D11*
%TO.C,SW4*%
X109720000Y-77525000D03*
D10*
X109800000Y-81325000D03*
D12*
X114800000Y-77525000D03*
D10*
X114800000Y-83425000D03*
D13*
X119800000Y-72375000D03*
D11*
X119880000Y-77525000D03*
D14*
X117340000Y-72445000D03*
X110990000Y-74985000D03*
%TD*%
D11*
%TO.C,SW24*%
X143057500Y-115625000D03*
D10*
X143137500Y-119425000D03*
D12*
X148137500Y-115625000D03*
D10*
X148137500Y-121525000D03*
D13*
X153137500Y-110475000D03*
D11*
X153217500Y-115625000D03*
D14*
X150677500Y-110545000D03*
X144327500Y-113085000D03*
%TD*%
D11*
%TO.C,SW26*%
X185920000Y-115625000D03*
D10*
X186000000Y-119425000D03*
D12*
X191000000Y-115625000D03*
D10*
X191000000Y-121525000D03*
D13*
X196000000Y-110475000D03*
D11*
X196080000Y-115625000D03*
D14*
X193540000Y-110545000D03*
X187190000Y-113085000D03*
%TD*%
D11*
%TO.C,SW45*%
X209732500Y-153725000D03*
D10*
X209812500Y-157525000D03*
D12*
X214812500Y-153725000D03*
D10*
X214812500Y-159625000D03*
D13*
X219812500Y-148575000D03*
D11*
X219892500Y-153725000D03*
D14*
X217352500Y-148645000D03*
X211002500Y-151185000D03*
%TD*%
D11*
%TO.C,SW18*%
X209732500Y-96575000D03*
D10*
X209812500Y-100375000D03*
D12*
X214812500Y-96575000D03*
D10*
X214812500Y-102475000D03*
D13*
X219812500Y-91425000D03*
D11*
X219892500Y-96575000D03*
D14*
X217352500Y-91495000D03*
X211002500Y-94035000D03*
%TD*%
D10*
%TO.C,REG6*%
X200250000Y-121930000D03*
%TD*%
D11*
%TO.C,SW37*%
X57332500Y-153725000D03*
D10*
X57412500Y-157525000D03*
D12*
X62412500Y-153725000D03*
D10*
X62412500Y-159625000D03*
D13*
X67412500Y-148575000D03*
D11*
X67492500Y-153725000D03*
D14*
X64952500Y-148645000D03*
X58602500Y-151185000D03*
%TD*%
D11*
%TO.C,SW33*%
X152582500Y-134675000D03*
D10*
X152662500Y-138475000D03*
D12*
X157662500Y-134675000D03*
D10*
X157662500Y-140575000D03*
D13*
X162662500Y-129525000D03*
D11*
X162742500Y-134675000D03*
D14*
X160202500Y-129595000D03*
X153852500Y-132135000D03*
%TD*%
D11*
%TO.C,SW13*%
X100195000Y-96575000D03*
D10*
X100275000Y-100375000D03*
D12*
X105275000Y-96575000D03*
D10*
X105275000Y-102475000D03*
D13*
X110275000Y-91425000D03*
D11*
X110355000Y-96575000D03*
D14*
X107815000Y-91495000D03*
X101465000Y-94035000D03*
%TD*%
M02*
