%TF.GenerationSoftware,KiCad,Pcbnew,10.0.3*%
%TF.CreationDate,2026-08-20T07:58:22+09:00*%
%TF.ProjectId,kc2_right-x3-v2,6b63325f-7269-4676-9874-2d78332d7632,draft-v2*%
%TF.SameCoordinates,Original*%
%TF.FileFunction,Copper,L2,Bot*%
%TF.FilePolarity,Positive*%
%FSLAX46Y46*%
G04 Gerber Fmt 4.6, Leading zero omitted, Abs format (unit mm)*
G04 Created by KiCad (PCBNEW 10.0.3) date 2026-08-20 07:58:22*
%MOMM*%
%LPD*%
G01*
G04 APERTURE LIST*
G04 Aperture macros list*
%AMRoundRect*
0 Rectangle with rounded corners*
0 $1 Rounding radius*
0 $2 $3 $4 $5 $6 $7 $8 $9 X,Y pos of 4 corners*
0 Add a 4 corners polygon primitive as box body*
4,1,4,$2,$3,$4,$5,$6,$7,$8,$9,$2,$3,0*
0 Add four circle primitives for the rounded corners*
1,1,$1+$1,$2,$3*
1,1,$1+$1,$4,$5*
1,1,$1+$1,$6,$7*
1,1,$1+$1,$8,$9*
0 Add four rect primitives between the rounded corners*
20,1,$1+$1,$2,$3,$4,$5,0*
20,1,$1+$1,$4,$5,$6,$7,0*
20,1,$1+$1,$6,$7,$8,$9,0*
20,1,$1+$1,$8,$9,$2,$3,0*%
G04 Aperture macros list end*
%TA.AperFunction,ComponentPad*%
%ADD10C,2.500000*%
%TD*%
%TA.AperFunction,SMDPad,CuDef*%
%ADD11RoundRect,0.520000X-0.780000X-0.780000X0.780000X-0.780000X0.780000X0.780000X-0.780000X0.780000X0*%
%TD*%
%TA.AperFunction,SMDPad,CuDef*%
%ADD12RoundRect,0.520000X0.780000X0.780000X-0.780000X0.780000X-0.780000X-0.780000X0.780000X-0.780000X0*%
%TD*%
%TA.AperFunction,ComponentPad*%
%ADD13C,1.800000*%
%TD*%
%TA.AperFunction,SMDPad,CuDef*%
%ADD14RoundRect,0.252000X0.448000X0.523000X-0.448000X0.523000X-0.448000X-0.523000X0.448000X-0.523000X0*%
%TD*%
%TA.AperFunction,ViaPad*%
%ADD15C,0.600000*%
%TD*%
%TA.AperFunction,Conductor*%
%ADD16C,0.200000*%
%TD*%
%TA.AperFunction,Conductor*%
%ADD17C,0.250000*%
%TD*%
G04 APERTURE END LIST*
D10*
%TO.P,SW24,1*%
%TO.N,R_COL7*%
X193402500Y-110545000D03*
D11*
X194562500Y-121525000D03*
%TO.P,SW24,2*%
%TO.N,RK24_D*%
X182162500Y-119425000D03*
D10*
X187052500Y-113085000D03*
%TD*%
%TO.P,SW19,1*%
%TO.N,R_COL2*%
X88627500Y-110545000D03*
D11*
X89787500Y-121525000D03*
%TO.P,SW19,2*%
%TO.N,RK19_D*%
X77387500Y-119425000D03*
D10*
X82277500Y-113085000D03*
%TD*%
%TO.P,SW16,1*%
%TO.N,R_COL7*%
X186258800Y-91495000D03*
D11*
X187418800Y-102475000D03*
%TO.P,SW16,2*%
%TO.N,RK16_D*%
X175018800Y-100375000D03*
D10*
X179908800Y-94035000D03*
%TD*%
%TO.P,SW25,1*%
%TO.N,R_COL0*%
X54972500Y-139755000D03*
D12*
X53812500Y-128775000D03*
%TO.P,SW25,2*%
%TO.N,RK25_D*%
X66212500Y-130875000D03*
D10*
X61322500Y-137215000D03*
%TD*%
%TO.P,SW22,1*%
%TO.N,R_COL5*%
X145777500Y-110545000D03*
D11*
X146937500Y-121525000D03*
%TO.P,SW22,2*%
%TO.N,RK22_D*%
X134537500Y-119425000D03*
D10*
X139427500Y-113085000D03*
%TD*%
%TO.P,SW5,1*%
%TO.N,R_COL4*%
X131490000Y-72445000D03*
D11*
X132650000Y-83425000D03*
%TO.P,SW5,2*%
%TO.N,RK05_D*%
X120250000Y-81325000D03*
D10*
X125140000Y-74985000D03*
%TD*%
%TO.P,SW9,1*%
%TO.N,R_COL0*%
X40685000Y-101655000D03*
D12*
X39525000Y-90675000D03*
%TO.P,SW9,2*%
%TO.N,RK09_D*%
X51925000Y-92775000D03*
D10*
X47035000Y-99115000D03*
%TD*%
%TO.P,SW12,1*%
%TO.N,R_COL3*%
X102915000Y-91495000D03*
D11*
X104075000Y-102475000D03*
%TO.P,SW12,2*%
%TO.N,RK12_D*%
X91675000Y-100375000D03*
D10*
X96565000Y-94035000D03*
%TD*%
%TO.P,SW7,1*%
%TO.N,R_COL6*%
X171971300Y-72445000D03*
D11*
X173131300Y-83425000D03*
%TO.P,SW7,2*%
%TO.N,RK07_D*%
X160731300Y-81325000D03*
D10*
X165621300Y-74985000D03*
%TD*%
%TO.P,SW21,1*%
%TO.N,R_COL4*%
X126727500Y-110545000D03*
D11*
X127887500Y-121525000D03*
%TO.P,SW21,2*%
%TO.N,RK21_D*%
X115487500Y-119425000D03*
D10*
X120377500Y-113085000D03*
%TD*%
%TO.P,SW17,1*%
%TO.N,R_COL0*%
X45447500Y-120705000D03*
D12*
X44287500Y-109725000D03*
%TO.P,SW17,2*%
%TO.N,RK17_D*%
X56687500Y-111825000D03*
D10*
X51797500Y-118165000D03*
%TD*%
%TO.P,SW39,1*%
%TO.N,R_COL6*%
X193402500Y-148645000D03*
D11*
X194562500Y-159625000D03*
%TO.P,SW39,2*%
%TO.N,RK39_D*%
X182162500Y-157525000D03*
D10*
X187052500Y-151185000D03*
%TD*%
%TO.P,SW6,1*%
%TO.N,R_COL5*%
X150540000Y-72445000D03*
D11*
X151700000Y-83425000D03*
%TO.P,SW6,2*%
%TO.N,RK06_D*%
X139300000Y-81325000D03*
D10*
X144190000Y-74985000D03*
%TD*%
%TO.P,SW1,1*%
%TO.N,R_COL0*%
X50210000Y-82605000D03*
D12*
X49050000Y-71625000D03*
%TO.P,SW1,2*%
%TO.N,RK01_D*%
X61450000Y-73725000D03*
D10*
X56560000Y-80065000D03*
%TD*%
%TO.P,SW26,1*%
%TO.N,R_COL1*%
X79102500Y-129595000D03*
D11*
X80262500Y-140575000D03*
%TO.P,SW26,2*%
%TO.N,RK26_D*%
X67862500Y-138475000D03*
D10*
X72752500Y-132135000D03*
%TD*%
%TO.P,SW10,1*%
%TO.N,R_COL1*%
X64815000Y-91495000D03*
D11*
X65975000Y-102475000D03*
%TO.P,SW10,2*%
%TO.N,RK10_D*%
X53575000Y-100375000D03*
D10*
X58465000Y-94035000D03*
%TD*%
%TO.P,SW14,1*%
%TO.N,R_COL5*%
X141015000Y-91495000D03*
D11*
X142175000Y-102475000D03*
%TO.P,SW14,2*%
%TO.N,RK14_D*%
X129775000Y-100375000D03*
D10*
X134665000Y-94035000D03*
%TD*%
%TO.P,SW4,1*%
%TO.N,R_COL3*%
X112440000Y-72445000D03*
D11*
X113600000Y-83425000D03*
%TO.P,SW4,2*%
%TO.N,RK04_D*%
X101200000Y-81325000D03*
D10*
X106090000Y-74985000D03*
%TD*%
%TO.P,SW38,1*%
%TO.N,R_COL5*%
X174352500Y-148645000D03*
D11*
X175512500Y-159625000D03*
%TO.P,SW38,2*%
%TO.N,RK38_D*%
X163112500Y-157525000D03*
D10*
X168002500Y-151185000D03*
%TD*%
D13*
%TO.P,U1,D0*%
%TO.N,N/C*%
X89030000Y-41380000D03*
%TO.P,U1,D1*%
X91570000Y-41380000D03*
%TO.P,U1,D2*%
%TO.N,R_ROW3*%
X81410000Y-41380000D03*
%TO.P,U1,D3*%
%TO.N,R_ROW0*%
X78869999Y-41380000D03*
%TO.P,U1,D4*%
%TO.N,R_ROW1*%
X76330000Y-41380000D03*
%TO.P,U1,D5*%
%TO.N,R_ROW2*%
X73789999Y-41380000D03*
%TO.P,U1,D6*%
%TO.N,N/C*%
X71250000Y-41380000D03*
%TO.P,U1,D7*%
%TO.N,R_ROW4*%
X68710000Y-41380000D03*
%TO.P,U1,D8*%
%TO.N,N/C*%
X66170000Y-41380000D03*
%TO.P,U1,D9*%
%TO.N,R_COL0*%
X63629999Y-41380000D03*
%TO.P,U1,D10*%
%TO.N,R_COL1*%
X63629999Y-56620000D03*
%TO.P,U1,D14*%
%TO.N,R_COL3*%
X68710000Y-56620000D03*
%TO.P,U1,D15*%
%TO.N,R_COL4*%
X71250000Y-56620000D03*
%TO.P,U1,D16*%
%TO.N,R_COL2*%
X66170000Y-56620000D03*
%TO.P,U1,D18*%
%TO.N,R_COL5*%
X73789999Y-56620000D03*
%TO.P,U1,D19*%
%TO.N,R_COL6*%
X76330000Y-56620000D03*
%TO.P,U1,D20*%
%TO.N,R_COL8*%
X78869999Y-56620000D03*
%TO.P,U1,D21*%
%TO.N,R_COL7*%
X81410000Y-56620000D03*
%TO.P,U1,GND_A*%
%TO.N,N/C*%
X86490000Y-41380000D03*
%TO.P,U1,GND_B*%
X83949999Y-41380000D03*
%TO.P,U1,GND_C*%
%TO.N,GND*%
X89030000Y-56620000D03*
%TO.P,U1,RAW*%
%TO.N,N/C*%
X91570000Y-56620000D03*
%TO.P,U1,RST*%
%TO.N,RST*%
X86490000Y-56620000D03*
%TO.P,U1,VCC*%
%TO.N,N/C*%
X83949999Y-56620000D03*
%TD*%
D10*
%TO.P,SW31,1*%
%TO.N,R_COL6*%
X174352500Y-129595000D03*
D11*
X175512500Y-140575000D03*
%TO.P,SW31,2*%
%TO.N,RK31_D*%
X163112500Y-138475000D03*
D10*
X168002500Y-132135000D03*
%TD*%
%TO.P,SW27,1*%
%TO.N,R_COL2*%
X98152500Y-129595000D03*
D11*
X99312500Y-140575000D03*
%TO.P,SW27,2*%
%TO.N,RK27_D*%
X86912500Y-138475000D03*
D10*
X91802500Y-132135000D03*
%TD*%
%TO.P,SW15,1*%
%TO.N,R_COL6*%
X160065000Y-91495000D03*
D11*
X161225000Y-102475000D03*
%TO.P,SW15,2*%
%TO.N,RK15_D*%
X148825000Y-100375000D03*
D10*
X153715000Y-94035000D03*
%TD*%
%TO.P,SW20,1*%
%TO.N,R_COL3*%
X107677500Y-110545000D03*
D11*
X108837500Y-121525000D03*
%TO.P,SW20,2*%
%TO.N,RK20_D*%
X96437500Y-119425000D03*
D10*
X101327500Y-113085000D03*
%TD*%
%TO.P,SW2,1*%
%TO.N,R_COL1*%
X74340000Y-72445000D03*
D11*
X75500000Y-83425000D03*
%TO.P,SW2,2*%
%TO.N,RK02_D*%
X63100000Y-81325000D03*
D10*
X67990000Y-74985000D03*
%TD*%
%TO.P,SW29,1*%
%TO.N,R_COL4*%
X136252500Y-129595000D03*
D11*
X137412500Y-140575000D03*
%TO.P,SW29,2*%
%TO.N,RK29_D*%
X125012500Y-138475000D03*
D10*
X129902500Y-132135000D03*
%TD*%
%TO.P,SW35,1*%
%TO.N,R_COL2*%
X114821300Y-148645000D03*
D11*
X115981300Y-159625000D03*
%TO.P,SW35,2*%
%TO.N,RK35_D*%
X103581300Y-157525000D03*
D10*
X108471300Y-151185000D03*
%TD*%
%TO.P,SW37,1*%
%TO.N,R_COL4*%
X155302500Y-148645000D03*
D11*
X156462500Y-159625000D03*
%TO.P,SW37,2*%
%TO.N,RK37_D*%
X144062500Y-157525000D03*
D10*
X148952500Y-151185000D03*
%TD*%
%TO.P,SW32,1*%
%TO.N,R_COL7*%
X193402500Y-129595000D03*
D11*
X194562500Y-140575000D03*
%TO.P,SW32,2*%
%TO.N,RK32_D*%
X182162500Y-138475000D03*
D10*
X187052500Y-132135000D03*
%TD*%
%TO.P,SW28,1*%
%TO.N,R_COL3*%
X117202500Y-129595000D03*
D11*
X118362500Y-140575000D03*
%TO.P,SW28,2*%
%TO.N,RK28_D*%
X105962500Y-138475000D03*
D10*
X110852500Y-132135000D03*
%TD*%
%TO.P,SW8,1*%
%TO.N,R_COL7*%
X193402500Y-72445000D03*
D11*
X194562500Y-83425000D03*
%TO.P,SW8,2*%
%TO.N,RK08_D*%
X182162500Y-81325000D03*
D10*
X187052500Y-74985000D03*
%TD*%
%TO.P,SW30,1*%
%TO.N,R_COL5*%
X155302500Y-129595000D03*
D11*
X156462500Y-140575000D03*
%TO.P,SW30,2*%
%TO.N,RK30_D*%
X144062500Y-138475000D03*
D10*
X148952500Y-132135000D03*
%TD*%
%TO.P,SW13,1*%
%TO.N,R_COL4*%
X121965000Y-91495000D03*
D11*
X123125000Y-102475000D03*
%TO.P,SW13,2*%
%TO.N,RK13_D*%
X110725000Y-100375000D03*
D10*
X115615000Y-94035000D03*
%TD*%
%TO.P,SW33,1*%
%TO.N,R_COL0*%
X54972500Y-158805000D03*
D12*
X53812500Y-147825000D03*
%TO.P,SW33,2*%
%TO.N,RK33_D*%
X66212500Y-149925000D03*
D10*
X61322500Y-156265000D03*
%TD*%
%TO.P,SW23,1*%
%TO.N,R_COL6*%
X169590000Y-110545000D03*
D11*
X170750000Y-121525000D03*
%TO.P,SW23,2*%
%TO.N,RK23_D*%
X158350000Y-119425000D03*
D10*
X163240000Y-113085000D03*
%TD*%
%TO.P,SW18,1*%
%TO.N,R_COL1*%
X69577500Y-110545000D03*
D11*
X70737500Y-121525000D03*
%TO.P,SW18,2*%
%TO.N,RK18_D*%
X58337500Y-119425000D03*
D10*
X63227500Y-113085000D03*
%TD*%
%TO.P,SW11,1*%
%TO.N,R_COL2*%
X83865000Y-91495000D03*
D11*
X85025000Y-102475000D03*
%TO.P,SW11,2*%
%TO.N,RK11_D*%
X72625000Y-100375000D03*
D10*
X77515000Y-94035000D03*
%TD*%
%TO.P,SW36,1*%
%TO.N,R_COL3*%
X136252500Y-148645000D03*
D11*
X137412500Y-159625000D03*
%TO.P,SW36,2*%
%TO.N,RK36_D*%
X125012500Y-157525000D03*
D10*
X129902500Y-151185000D03*
%TD*%
%TO.P,SW34,1*%
%TO.N,R_COL1*%
X86246300Y-148645000D03*
D11*
X87406300Y-159625000D03*
%TO.P,SW34,2*%
%TO.N,RK34_D*%
X75006300Y-157525000D03*
D10*
X79896300Y-151185000D03*
%TD*%
%TO.P,SW3,1*%
%TO.N,R_COL2*%
X93390000Y-72445000D03*
D11*
X94550000Y-83425000D03*
%TO.P,SW3,2*%
%TO.N,RK03_D*%
X82150000Y-81325000D03*
D10*
X87040000Y-74985000D03*
%TD*%
D14*
%TO.P,D14,1*%
%TO.N,R_ROW1*%
X133275000Y-89575000D03*
%TO.P,D14,2*%
%TO.N,RK14_D*%
X129675000Y-89575000D03*
%TD*%
%TO.P,D16,1*%
%TO.N,R_ROW1*%
X178518800Y-89575000D03*
%TO.P,D16,2*%
%TO.N,RK16_D*%
X174918800Y-89575000D03*
%TD*%
%TO.P,D31,1*%
%TO.N,R_ROW3*%
X166612500Y-127675000D03*
%TO.P,D31,2*%
%TO.N,RK31_D*%
X163012500Y-127675000D03*
%TD*%
%TO.P,D35,1*%
%TO.N,R_ROW4*%
X107081300Y-146725000D03*
%TO.P,D35,2*%
%TO.N,RK35_D*%
X103481300Y-146725000D03*
%TD*%
%TO.P,D28,1*%
%TO.N,R_ROW3*%
X109462500Y-127675000D03*
%TO.P,D28,2*%
%TO.N,RK28_D*%
X105862500Y-127675000D03*
%TD*%
%TO.P,D2,1*%
%TO.N,R_ROW0*%
X67700000Y-70875000D03*
%TO.P,D2,2*%
%TO.N,RK02_D*%
X64100000Y-70875000D03*
%TD*%
%TO.P,D30,1*%
%TO.N,R_ROW3*%
X147562500Y-127675000D03*
%TO.P,D30,2*%
%TO.N,RK30_D*%
X143962500Y-127675000D03*
%TD*%
%TO.P,D4,1*%
%TO.N,R_ROW0*%
X104700000Y-70875000D03*
%TO.P,D4,2*%
%TO.N,RK04_D*%
X101100000Y-70875000D03*
%TD*%
%TO.P,D9,1*%
%TO.N,R_ROW1*%
X52025000Y-103575000D03*
%TO.P,D9,2*%
%TO.N,RK09_D*%
X48425000Y-103575000D03*
%TD*%
%TO.P,D15,1*%
%TO.N,R_ROW1*%
X152325000Y-89575000D03*
%TO.P,D15,2*%
%TO.N,RK15_D*%
X148725000Y-89575000D03*
%TD*%
%TO.P,D36,1*%
%TO.N,R_ROW4*%
X128512500Y-146725000D03*
%TO.P,D36,2*%
%TO.N,RK36_D*%
X124912500Y-146725000D03*
%TD*%
%TO.P,D21,1*%
%TO.N,R_ROW2*%
X118987500Y-108625000D03*
%TO.P,D21,2*%
%TO.N,RK21_D*%
X115387500Y-108625000D03*
%TD*%
%TO.P,D33,1*%
%TO.N,R_ROW4*%
X66312500Y-160375000D03*
%TO.P,D33,2*%
%TO.N,RK33_D*%
X62712500Y-160375000D03*
%TD*%
%TO.P,D18,1*%
%TO.N,R_ROW2*%
X61837500Y-108625000D03*
%TO.P,D18,2*%
%TO.N,RK18_D*%
X58237500Y-108625000D03*
%TD*%
%TO.P,D3,1*%
%TO.N,R_ROW0*%
X85650000Y-70875000D03*
%TO.P,D3,2*%
%TO.N,RK03_D*%
X82050000Y-70875000D03*
%TD*%
%TO.P,D13,1*%
%TO.N,R_ROW1*%
X114225000Y-89575000D03*
%TO.P,D13,2*%
%TO.N,RK13_D*%
X110625000Y-89575000D03*
%TD*%
%TO.P,D37,1*%
%TO.N,R_ROW4*%
X147562500Y-146725000D03*
%TO.P,D37,2*%
%TO.N,RK37_D*%
X143962500Y-146725000D03*
%TD*%
%TO.P,D25,1*%
%TO.N,R_ROW3*%
X66312500Y-141675000D03*
%TO.P,D25,2*%
%TO.N,RK25_D*%
X62712500Y-141675000D03*
%TD*%
%TO.P,D22,1*%
%TO.N,R_ROW2*%
X138037500Y-108625000D03*
%TO.P,D22,2*%
%TO.N,RK22_D*%
X134437500Y-108625000D03*
%TD*%
%TO.P,D32,1*%
%TO.N,R_ROW3*%
X185662500Y-127675000D03*
%TO.P,D32,2*%
%TO.N,RK32_D*%
X182062500Y-127675000D03*
%TD*%
%TO.P,D11,1*%
%TO.N,R_ROW1*%
X76125000Y-89575000D03*
%TO.P,D11,2*%
%TO.N,RK11_D*%
X72525000Y-89575000D03*
%TD*%
%TO.P,D10,1*%
%TO.N,R_ROW1*%
X57075000Y-89575000D03*
%TO.P,D10,2*%
%TO.N,RK10_D*%
X53475000Y-89575000D03*
%TD*%
%TO.P,D29,1*%
%TO.N,R_ROW3*%
X128512500Y-127675000D03*
%TO.P,D29,2*%
%TO.N,RK29_D*%
X124912500Y-127675000D03*
%TD*%
%TO.P,D24,1*%
%TO.N,R_ROW2*%
X185662500Y-108625000D03*
%TO.P,D24,2*%
%TO.N,RK24_D*%
X182062500Y-108625000D03*
%TD*%
%TO.P,D6,1*%
%TO.N,R_ROW0*%
X142800000Y-70875000D03*
%TO.P,D6,2*%
%TO.N,RK06_D*%
X139200000Y-70875000D03*
%TD*%
%TO.P,D39,1*%
%TO.N,R_ROW4*%
X185662500Y-146725000D03*
%TO.P,D39,2*%
%TO.N,RK39_D*%
X182062500Y-146725000D03*
%TD*%
%TO.P,D27,1*%
%TO.N,R_ROW3*%
X90412500Y-127675000D03*
%TO.P,D27,2*%
%TO.N,RK27_D*%
X86812500Y-127675000D03*
%TD*%
%TO.P,D5,1*%
%TO.N,R_ROW0*%
X123750000Y-70875000D03*
%TO.P,D5,2*%
%TO.N,RK05_D*%
X120150000Y-70875000D03*
%TD*%
%TO.P,D8,1*%
%TO.N,R_ROW0*%
X185662500Y-70875000D03*
%TO.P,D8,2*%
%TO.N,RK08_D*%
X182062500Y-70875000D03*
%TD*%
%TO.P,D1,1*%
%TO.N,R_ROW0*%
X61550000Y-84525000D03*
%TO.P,D1,2*%
%TO.N,RK01_D*%
X57950000Y-84525000D03*
%TD*%
%TO.P,D38,1*%
%TO.N,R_ROW4*%
X166612500Y-146725000D03*
%TO.P,D38,2*%
%TO.N,RK38_D*%
X163012500Y-146725000D03*
%TD*%
%TO.P,D20,1*%
%TO.N,R_ROW2*%
X99937500Y-108625000D03*
%TO.P,D20,2*%
%TO.N,RK20_D*%
X96337500Y-108625000D03*
%TD*%
%TO.P,D26,1*%
%TO.N,R_ROW3*%
X71362500Y-127675000D03*
%TO.P,D26,2*%
%TO.N,RK26_D*%
X67762500Y-127675000D03*
%TD*%
%TO.P,D17,1*%
%TO.N,R_ROW2*%
X56787500Y-122625000D03*
%TO.P,D17,2*%
%TO.N,RK17_D*%
X53187500Y-122625000D03*
%TD*%
%TO.P,D23,1*%
%TO.N,R_ROW2*%
X161850000Y-108625000D03*
%TO.P,D23,2*%
%TO.N,RK23_D*%
X158250000Y-108625000D03*
%TD*%
%TO.P,D19,1*%
%TO.N,R_ROW2*%
X80887500Y-108625000D03*
%TO.P,D19,2*%
%TO.N,RK19_D*%
X77287500Y-108625000D03*
%TD*%
%TO.P,D7,1*%
%TO.N,R_ROW0*%
X164231300Y-70875000D03*
%TO.P,D7,2*%
%TO.N,RK07_D*%
X160631300Y-70875000D03*
%TD*%
%TO.P,D34,1*%
%TO.N,R_ROW4*%
X78506300Y-146725000D03*
%TO.P,D34,2*%
%TO.N,RK34_D*%
X74906300Y-146725000D03*
%TD*%
%TO.P,D12,1*%
%TO.N,R_ROW1*%
X95175000Y-89575000D03*
%TO.P,D12,2*%
%TO.N,RK12_D*%
X91575000Y-89575000D03*
%TD*%
D15*
%TO.N,R_COL7*%
X92664400Y-97697100D03*
%TO.N,R_COL2*%
X88627500Y-101309900D03*
%TO.N,R_COL5*%
X137815000Y-87780900D03*
X173420200Y-144688900D03*
X148469200Y-85922700D03*
%TO.N,R_COL4*%
X122861700Y-87848100D03*
X155617600Y-144710300D03*
X134847900Y-124798700D03*
%TO.N,RK05_D*%
X122063400Y-71413800D03*
%TO.N,R_COL3*%
X134847900Y-144703200D03*
X117446800Y-132662800D03*
X96170000Y-75366200D03*
X107677500Y-101309900D03*
%TO.N,R_COL6*%
X174352500Y-121862600D03*
%TO.N,RK07_D*%
X162183800Y-71166800D03*
%TO.N,RK06_D*%
X140777400Y-71180300D03*
%TO.N,RST*%
X62810700Y-53633100D03*
%TO.N,GND*%
X69593100Y-53108100D03*
%TO.N,R_COL1*%
X69577500Y-101309900D03*
%TO.N,RK26_D*%
X71244700Y-129767300D03*
%TO.N,R_ROW3*%
X93756100Y-124366600D03*
%TO.N,R_ROW0*%
X102983700Y-71667400D03*
X93609900Y-74279400D03*
X83936300Y-70364000D03*
%TO.N,R_ROW1*%
X78473000Y-89565500D03*
%TO.N,R_ROW2*%
X72538800Y-107536000D03*
%TO.N,R_ROW4*%
X72538800Y-145351400D03*
%TO.N,RK08_D*%
X184215600Y-71125400D03*
%TD*%
%TO.N,R_COL7*%
D16*
X98080700Y-100166500D02*
X95890900Y-97976700D01*
X187418800Y-102475000D02*
X187160400Y-102216600D01*
X193402500Y-129595000D02*
X193402500Y-122685000D01*
X152485700Y-104548900D02*
X103384200Y-104548900D01*
X194304100Y-83166600D02*
X194304100Y-73346600D01*
X92664400Y-97976700D02*
X92664400Y-97697100D01*
X92664400Y-97697100D02*
X92664400Y-97976700D01*
X102449000Y-103613700D02*
X102449000Y-101574100D01*
X194304100Y-73346600D02*
X193402500Y-72445000D01*
X194562500Y-83425000D02*
X194304100Y-83166600D01*
X187160400Y-92396600D02*
X186258800Y-91495000D01*
X187418800Y-102475000D02*
X187418800Y-104525200D01*
X187418800Y-104561200D02*
X166191500Y-104561200D01*
X92944000Y-97976700D02*
X92664400Y-97697100D01*
X166191500Y-104561200D02*
X162038700Y-100408400D01*
X162038700Y-100408400D02*
X156626200Y-100408400D01*
X193402500Y-122685000D02*
X194562500Y-121525000D01*
X186258800Y-91495000D02*
X194328800Y-83425000D01*
X187160400Y-102216600D02*
X187160400Y-92396600D01*
X187418800Y-104561200D02*
X187418800Y-104525200D01*
X187418800Y-104561300D02*
X187418800Y-104561200D01*
X193402500Y-110545000D02*
X187418800Y-104561300D01*
X102449000Y-101574100D02*
X101041400Y-100166500D01*
X194328800Y-83425000D02*
X194562500Y-83425000D01*
X101041400Y-100166500D02*
X98080700Y-100166500D01*
X95890900Y-97976700D02*
X92944000Y-97976700D01*
X193402500Y-129595000D02*
X194304100Y-130496600D01*
X194304100Y-140316600D02*
X194562500Y-140575000D01*
X194304100Y-130496600D02*
X194304100Y-140316600D01*
X156626200Y-100408400D02*
X152485700Y-104548900D01*
X103384200Y-104548900D02*
X102449000Y-103613700D01*
%TO.N,RK24_D*%
X186307900Y-113085000D02*
X187052500Y-113085000D01*
X186307900Y-113085000D02*
X182062500Y-108839600D01*
X182162500Y-117230400D02*
X186307900Y-113085000D01*
X182162500Y-119425000D02*
X182162500Y-117230400D01*
X182062500Y-108839600D02*
X182062500Y-108625000D01*
%TO.N,R_COL2*%
X99054100Y-130496600D02*
X99054100Y-140316600D01*
X86190100Y-101309900D02*
X85025000Y-102475000D01*
X89787500Y-121525000D02*
X89529100Y-121266600D01*
X89529100Y-121266600D02*
X89529100Y-111446600D01*
X88627500Y-101309900D02*
X86190100Y-101309900D01*
X94211600Y-83166600D02*
X94211600Y-73266600D01*
X66170000Y-56620000D02*
X76122300Y-66572300D01*
X87511700Y-89817800D02*
X85542200Y-89817800D01*
X94291600Y-83166600D02*
X94211600Y-83166600D01*
X115981300Y-159625000D02*
X115722900Y-159366600D01*
X115722900Y-159366600D02*
X115722900Y-149546600D01*
X99054100Y-140316600D02*
X99312500Y-140575000D01*
X94211600Y-73266600D02*
X93390000Y-72445000D01*
X115722900Y-149546600D02*
X114821300Y-148645000D01*
X85542200Y-89817800D02*
X83865000Y-91495000D01*
X76122300Y-66572300D02*
X87517300Y-66572300D01*
X87517300Y-66572300D02*
X93390000Y-72445000D01*
X94162900Y-83166600D02*
X87511700Y-89817800D01*
X89529100Y-111446600D02*
X88627500Y-110545000D01*
X94211600Y-83166600D02*
X94162900Y-83166600D01*
X98152500Y-129595000D02*
X99054100Y-130496600D01*
X94550000Y-83425000D02*
X94291600Y-83166600D01*
%TO.N,RK19_D*%
X81562600Y-113085000D02*
X82277500Y-113085000D01*
X77387500Y-119425000D02*
X77387500Y-117260100D01*
X81562600Y-113085000D02*
X81562600Y-112900100D01*
X81562600Y-112900100D02*
X77287500Y-108625000D01*
X77387500Y-117260100D02*
X81562600Y-113085000D01*
%TO.N,RK16_D*%
X179154100Y-94035000D02*
X179908800Y-94035000D01*
X174918800Y-89575000D02*
X179154100Y-93810300D01*
X175018800Y-100375000D02*
X175018800Y-98170300D01*
X175018800Y-98170300D02*
X179154100Y-94035000D01*
X179154100Y-93810300D02*
X179154100Y-94035000D01*
%TO.N,R_COL0*%
X45447500Y-120705000D02*
X53517500Y-128775000D01*
X50027900Y-82605000D02*
X50027900Y-86820900D01*
X54972500Y-139755000D02*
X54972500Y-146665000D01*
X39525000Y-90675000D02*
X39783500Y-90933500D01*
X53517500Y-128775000D02*
X53812500Y-128775000D01*
X50027900Y-86820900D02*
X44085600Y-92763200D01*
X39783500Y-100753500D02*
X40685000Y-101655000D01*
X41613200Y-92763200D02*
X39525000Y-90675000D01*
X54972500Y-146665000D02*
X53812500Y-147825000D01*
X49050000Y-71625000D02*
X49308500Y-71883500D01*
X44287500Y-105257500D02*
X44287500Y-109725000D01*
X49308500Y-81885600D02*
X50027900Y-82605000D01*
X39783500Y-90933500D02*
X39783500Y-100753500D01*
X49308500Y-71883500D02*
X49308500Y-81885600D01*
X44085600Y-92763200D02*
X41613200Y-92763200D01*
X40685000Y-101655000D02*
X44287500Y-105257500D01*
X50027900Y-82605000D02*
X50210000Y-82605000D01*
%TO.N,RK25_D*%
X61322500Y-137215000D02*
X62061300Y-137215000D01*
X62061300Y-137215000D02*
X66212500Y-133063800D01*
X66212500Y-133063800D02*
X66212500Y-130875000D01*
X61322500Y-140285000D02*
X62712500Y-141675000D01*
X61322500Y-137215000D02*
X61322500Y-140285000D01*
%TO.N,R_COL5*%
X148469200Y-85922700D02*
X150966900Y-83425000D01*
X97638200Y-71583900D02*
X96395400Y-70341100D01*
X141916600Y-102216600D02*
X141916600Y-92396600D01*
X173420200Y-144688900D02*
X160576400Y-144688900D01*
X117649500Y-87754300D02*
X103690400Y-87754300D01*
X156204100Y-130496600D02*
X155302500Y-129595000D01*
X85602700Y-61509500D02*
X78679500Y-61509500D01*
X78679500Y-61509500D02*
X73790000Y-56620000D01*
X142175000Y-102475000D02*
X141916600Y-102216600D01*
X94434300Y-70341100D02*
X85602700Y-61509500D01*
X156204100Y-140316600D02*
X156204100Y-130496600D01*
X141916600Y-92396600D02*
X141015000Y-91495000D01*
X137815000Y-87780900D02*
X137586200Y-88009700D01*
X151441600Y-83166600D02*
X151700000Y-83425000D01*
X156462500Y-140575000D02*
X156204100Y-140316600D01*
X174352500Y-148645000D02*
X175254100Y-149546600D01*
X175254100Y-159366600D02*
X175512500Y-159625000D01*
X160576400Y-144688900D02*
X156462500Y-140575000D01*
X126836500Y-88894300D02*
X118789500Y-88894300D01*
X146937500Y-121525000D02*
X146679100Y-121266600D01*
X103690400Y-87754300D02*
X97638200Y-81702100D01*
X96395400Y-70341100D02*
X94434300Y-70341100D01*
X150540000Y-72445000D02*
X151441600Y-73346600D01*
X151441600Y-73346600D02*
X151441600Y-83166600D01*
X97638200Y-81702100D02*
X97638200Y-71583900D01*
X175254100Y-149546600D02*
X175254100Y-159366600D01*
X127721100Y-88009700D02*
X126836500Y-88894300D01*
X146679100Y-111446600D02*
X145777500Y-110545000D01*
X150966900Y-83425000D02*
X151700000Y-83425000D01*
X137586200Y-88009700D02*
X127721100Y-88009700D01*
X118789500Y-88894300D02*
X117649500Y-87754300D01*
X146679100Y-121266600D02*
X146679100Y-111446600D01*
%TO.N,RK22_D*%
X138682900Y-113085000D02*
X134437500Y-108839600D01*
X134537500Y-119425000D02*
X134537500Y-117230400D01*
X134537500Y-117230400D02*
X138682900Y-113085000D01*
X138682900Y-113085000D02*
X139427500Y-113085000D01*
X134437500Y-108839600D02*
X134437500Y-108625000D01*
%TO.N,R_COL4*%
X80140000Y-56121000D02*
X79400300Y-55381300D01*
X132650000Y-83425000D02*
X129040800Y-87034200D01*
X156204100Y-159366600D02*
X156462500Y-159625000D01*
X156204100Y-149546600D02*
X156204100Y-159366600D01*
X155302500Y-148645000D02*
X156204100Y-149546600D01*
X72488700Y-55381300D02*
X71250000Y-56620000D01*
X127887500Y-121525000D02*
X131161200Y-124798700D01*
X129040800Y-87034200D02*
X123675600Y-87034200D01*
X122861700Y-87848100D02*
X121255800Y-86242200D01*
X137412500Y-140575000D02*
X141547800Y-144710300D01*
X132391600Y-83166600D02*
X132650000Y-83425000D01*
X121255800Y-86242200D02*
X103329000Y-86242200D01*
X127629100Y-111446600D02*
X127629100Y-121266600D01*
X99211000Y-82124200D02*
X99211000Y-72020700D01*
X79400300Y-55381300D02*
X72488700Y-55381300D01*
X126727500Y-110545000D02*
X127629100Y-111446600D01*
X80140000Y-57161700D02*
X80140000Y-56121000D01*
X81146700Y-58168400D02*
X80140000Y-57161700D01*
X131490000Y-72445000D02*
X132391600Y-73346600D01*
X123125000Y-102475000D02*
X122866600Y-102216600D01*
X85358700Y-58168400D02*
X81146700Y-58168400D01*
X99211000Y-72020700D02*
X85358700Y-58168400D01*
X137154100Y-140316600D02*
X137412500Y-140575000D01*
X136252500Y-129595000D02*
X137154100Y-130496600D01*
X123675600Y-87034200D02*
X122861700Y-87848100D01*
X122866600Y-92396600D02*
X121965000Y-91495000D01*
X103329000Y-86242200D02*
X99211000Y-82124200D01*
X131161200Y-124798700D02*
X134847900Y-124798700D01*
X127629100Y-121266600D02*
X127887500Y-121525000D01*
X141547800Y-144710300D02*
X155617600Y-144710300D01*
X132391600Y-73346600D02*
X132391600Y-83166600D01*
X137154100Y-130496600D02*
X137154100Y-140316600D01*
X122866600Y-102216600D02*
X122866600Y-92396600D01*
%TO.N,RK05_D*%
X121524600Y-70875000D02*
X122063400Y-71413800D01*
X120150000Y-70875000D02*
X121524600Y-70875000D01*
X120250000Y-81325000D02*
X120250000Y-79105000D01*
X120250000Y-79105000D02*
X124370000Y-74985000D01*
X124370000Y-74985000D02*
X125140000Y-74985000D01*
%TO.N,RK09_D*%
X51925000Y-92775000D02*
X51925000Y-95615000D01*
X48425000Y-99115000D02*
X48425000Y-103575000D01*
X51925000Y-95615000D02*
X48425000Y-99115000D01*
X48425000Y-99115000D02*
X47035000Y-99115000D01*
%TO.N,R_COL3*%
X108837500Y-121525000D02*
X108579100Y-121266600D01*
X108579100Y-111446600D02*
X107677500Y-110545000D01*
X97236500Y-71750200D02*
X97236500Y-74299700D01*
X107677500Y-101309900D02*
X105240100Y-101309900D01*
X116907500Y-129595000D02*
X117202500Y-129595000D01*
X78060700Y-65970700D02*
X89295700Y-65970700D01*
X112440000Y-72445000D02*
X113332000Y-73337000D01*
X97236500Y-74299700D02*
X96170000Y-75366200D01*
X94109100Y-70784100D02*
X96270400Y-70784100D01*
X113332000Y-73337000D02*
X113332000Y-83157000D01*
X134847900Y-144703200D02*
X122490700Y-144703200D01*
X89295700Y-65970700D02*
X94109100Y-70784100D01*
X118340800Y-140553300D02*
X118340800Y-133556800D01*
X96270400Y-70784100D02*
X97236500Y-71750200D01*
X137154100Y-159366600D02*
X137154100Y-149546600D01*
X137412500Y-159625000D02*
X137154100Y-159366600D01*
X108837500Y-121525000D02*
X116907500Y-129595000D01*
X108579100Y-121266600D02*
X108579100Y-111446600D01*
X122490700Y-144703200D02*
X118362500Y-140575000D01*
X118340800Y-133556800D02*
X117446800Y-132662800D01*
X118362500Y-140575000D02*
X118340800Y-140553300D01*
X68710000Y-56620000D02*
X78060700Y-65970700D01*
X105240100Y-101309900D02*
X104075000Y-102475000D01*
X137154100Y-149546600D02*
X136252500Y-148645000D01*
X113332000Y-83157000D02*
X113600000Y-83425000D01*
%TO.N,RK12_D*%
X95820400Y-94035000D02*
X95475700Y-94035000D01*
X95820400Y-94035000D02*
X91575000Y-89789600D01*
X95820400Y-94035000D02*
X96565000Y-94035000D01*
X95475700Y-94035000D02*
X91675000Y-97835700D01*
X91675000Y-97835700D02*
X91675000Y-100375000D01*
X91575000Y-89789600D02*
X91575000Y-89575000D01*
%TO.N,R_COL6*%
X169295000Y-110545000D02*
X169590000Y-110545000D01*
X174481800Y-121862600D02*
X171087600Y-121862600D01*
X175254100Y-130496600D02*
X174352500Y-129595000D01*
X119874100Y-88450000D02*
X118716800Y-87292700D01*
X161225000Y-102475000D02*
X169295000Y-110545000D01*
X118716800Y-87292700D02*
X103809300Y-87292700D01*
X124446600Y-87552200D02*
X123548800Y-88450000D01*
X172872900Y-83166600D02*
X173131300Y-83425000D01*
X185332500Y-140575000D02*
X175512500Y-140575000D01*
X193402500Y-148645000D02*
X185332500Y-140575000D01*
X169462800Y-87093500D02*
X173131300Y-83425000D01*
X137099100Y-87552200D02*
X124446600Y-87552200D01*
X164466500Y-87093500D02*
X169462800Y-87093500D01*
X174481800Y-121862600D02*
X174352500Y-121862600D01*
X103809300Y-87292700D02*
X98039900Y-81523300D01*
X171971300Y-72445000D02*
X172872900Y-73346600D01*
X123548800Y-88450000D02*
X119874100Y-88450000D01*
X98039900Y-71417600D02*
X96561700Y-69939400D01*
X96561700Y-69939400D02*
X95425700Y-69939400D01*
X160065000Y-91495000D02*
X155749200Y-87179200D01*
X194562500Y-159625000D02*
X194304100Y-159366600D01*
X171087600Y-121862600D02*
X170750000Y-121525000D01*
X78656900Y-58946900D02*
X76330000Y-56620000D01*
X84433200Y-58946900D02*
X78656900Y-58946900D01*
X98039900Y-81523300D02*
X98039900Y-71417600D01*
X194304100Y-149546600D02*
X193402500Y-148645000D01*
X175512500Y-140575000D02*
X175254100Y-140316600D01*
X175254100Y-140316600D02*
X175254100Y-130496600D01*
X172872900Y-73346600D02*
X172872900Y-83166600D01*
X160065000Y-91495000D02*
X164466500Y-87093500D01*
X194304100Y-159366600D02*
X194304100Y-149546600D01*
X155749200Y-87179200D02*
X137472100Y-87179200D01*
X95425700Y-69939400D02*
X84433200Y-58946900D01*
X137472100Y-87179200D02*
X137099100Y-87552200D01*
%TO.N,RK07_D*%
X160731300Y-81325000D02*
X160731300Y-79120300D01*
X160923100Y-71166800D02*
X160631300Y-70875000D01*
X160731300Y-79120300D02*
X164866600Y-74985000D01*
X164866600Y-74985000D02*
X165621300Y-74985000D01*
X162183800Y-71166800D02*
X160923100Y-71166800D01*
%TO.N,RK21_D*%
X119632900Y-112870400D02*
X119632900Y-113085000D01*
X115487500Y-119425000D02*
X115487500Y-117230400D01*
X119632900Y-113085000D02*
X120377500Y-113085000D01*
X115487500Y-117230400D02*
X119632900Y-113085000D01*
X115387500Y-108625000D02*
X119632900Y-112870400D01*
%TO.N,RK17_D*%
X56687500Y-111825000D02*
X56687500Y-114076300D01*
X52598800Y-118165000D02*
X51797500Y-118165000D01*
X52598800Y-122036300D02*
X52598800Y-118165000D01*
X53187500Y-122625000D02*
X52598800Y-122036300D01*
X56687500Y-114076300D02*
X52598800Y-118165000D01*
%TO.N,RK39_D*%
X186307900Y-151185000D02*
X187052500Y-151185000D01*
X182162500Y-157525000D02*
X182162500Y-155330400D01*
X182162500Y-155330400D02*
X186307900Y-151185000D01*
X182062500Y-146939600D02*
X182062500Y-146725000D01*
X186307900Y-151185000D02*
X182062500Y-146939600D01*
%TO.N,RK06_D*%
X140472100Y-70875000D02*
X140777400Y-71180300D01*
X140777400Y-70875000D02*
X140777400Y-71180300D01*
X139300000Y-79110800D02*
X143425800Y-74985000D01*
X139300000Y-81325000D02*
X139300000Y-79110800D01*
X143425800Y-74985000D02*
X144190000Y-74985000D01*
X140777400Y-71180300D02*
X140777400Y-70875000D01*
X139200000Y-70875000D02*
X140472100Y-70875000D01*
%TO.N,RK01_D*%
X61450000Y-75914800D02*
X61450000Y-73725000D01*
X57950000Y-84525000D02*
X56560000Y-83135000D01*
X56560000Y-83135000D02*
X56560000Y-80065000D01*
X56560000Y-80065000D02*
X57299800Y-80065000D01*
X57299800Y-80065000D02*
X61450000Y-75914800D01*
%TO.N,RST*%
D17*
X63262400Y-54084800D02*
X83954800Y-54084800D01*
X62810700Y-53633100D02*
X63262400Y-54084800D01*
X83954800Y-54084800D02*
X86490000Y-56620000D01*
%TO.N,GND*%
X69593100Y-53108100D02*
X85518100Y-53108100D01*
X85518100Y-53108100D02*
X89030000Y-56620000D01*
%TO.N,R_COL1*%
D16*
X70608300Y-111575800D02*
X70608300Y-121395800D01*
X87147900Y-159366600D02*
X87406300Y-159625000D01*
X68219700Y-88090300D02*
X64815000Y-91495000D01*
X67140100Y-101309900D02*
X65975000Y-102475000D01*
X70834700Y-88090300D02*
X68219700Y-88090300D01*
X70608300Y-121395800D02*
X70737500Y-121525000D01*
X69577500Y-101309900D02*
X67140100Y-101309900D01*
X86246300Y-148645000D02*
X80262500Y-142661200D01*
X69577500Y-110545000D02*
X70608300Y-111575800D01*
X71032500Y-121525000D02*
X79102500Y-129595000D01*
X86246300Y-148645000D02*
X87147900Y-149546600D01*
X70737500Y-121525000D02*
X71032500Y-121525000D01*
X80262500Y-142661200D02*
X80262500Y-140575000D01*
X75241600Y-83166600D02*
X75500000Y-83425000D01*
X74340000Y-72445000D02*
X75241600Y-73346600D01*
X87147900Y-149546600D02*
X87147900Y-159366600D01*
X75241600Y-73346600D02*
X75241600Y-83166600D01*
X75500000Y-83425000D02*
X70834700Y-88090300D01*
%TO.N,RK26_D*%
X72752500Y-132135000D02*
X71990900Y-132135000D01*
X71990900Y-132135000D02*
X67862500Y-136263400D01*
X67762500Y-127675000D02*
X69152400Y-127675000D01*
X69152400Y-127675000D02*
X71244700Y-129767300D01*
X67862500Y-136263400D02*
X67862500Y-138475000D01*
%TO.N,RK10_D*%
X57837900Y-93937900D02*
X53475000Y-89575000D01*
X58465000Y-94035000D02*
X58102900Y-93672900D01*
X53575000Y-98200800D02*
X53575000Y-100375000D01*
X57837900Y-93937900D02*
X53575000Y-98200800D01*
X58102900Y-93672900D02*
X57837900Y-93937900D01*
%TO.N,RK14_D*%
X134665000Y-94035000D02*
X130205000Y-89575000D01*
X133950100Y-94035000D02*
X134665000Y-94035000D01*
X130205000Y-89575000D02*
X129675000Y-89575000D01*
X129775000Y-98210100D02*
X133950100Y-94035000D01*
X129775000Y-100375000D02*
X129775000Y-98210100D01*
%TO.N,RK04_D*%
X105210000Y-74985000D02*
X106090000Y-74985000D01*
X101200000Y-78995000D02*
X101200000Y-81325000D01*
X105210000Y-74985000D02*
X101200000Y-78995000D01*
X101100000Y-70875000D02*
X105210000Y-74985000D01*
%TO.N,RK38_D*%
X163112500Y-157525000D02*
X163112500Y-155330400D01*
X167257900Y-151185000D02*
X168002500Y-151185000D01*
X163012500Y-146725000D02*
X167257900Y-150970400D01*
X163112500Y-155330400D02*
X167257900Y-151185000D01*
X167257900Y-150970400D02*
X167257900Y-151185000D01*
%TO.N,R_ROW3*%
X83192200Y-129492400D02*
X83192200Y-129855900D01*
X184548500Y-126561000D02*
X167726500Y-126561000D01*
X128512500Y-126576100D02*
X124224700Y-126576100D01*
X112992600Y-131205100D02*
X109462500Y-127675000D01*
X93756100Y-124366600D02*
X93756100Y-126545700D01*
X93756100Y-126545700D02*
X90412500Y-126545700D01*
X121232300Y-129977800D02*
X120005000Y-131205100D01*
X121232300Y-129568500D02*
X121232300Y-129977800D01*
X90412500Y-126545700D02*
X86138900Y-126545700D01*
X66239900Y-141602400D02*
X66239900Y-136205600D01*
X83192200Y-129855900D02*
X81848500Y-131199600D01*
X124224700Y-126576100D02*
X121232300Y-129568500D01*
X71878800Y-128191300D02*
X71362500Y-127675000D01*
X120005000Y-131205100D02*
X112992600Y-131205100D01*
X71878800Y-130566700D02*
X71878800Y-128191300D01*
X108333200Y-126545700D02*
X93756100Y-126545700D01*
X90412500Y-126545700D02*
X90412500Y-127675000D01*
X66239900Y-136205600D02*
X71878800Y-130566700D01*
X165513600Y-126576100D02*
X166612500Y-127675000D01*
X128512500Y-126576100D02*
X128512500Y-127675000D01*
X66312500Y-141675000D02*
X66239900Y-141602400D01*
X78393700Y-131199600D02*
X77760800Y-130566700D01*
X147562500Y-127675000D02*
X147562500Y-126576100D01*
X147562500Y-126576100D02*
X128512500Y-126576100D01*
X167726500Y-126561000D02*
X166612500Y-127675000D01*
X77760800Y-130566700D02*
X71878800Y-130566700D01*
X109462500Y-127675000D02*
X108333200Y-126545700D01*
X185662500Y-127675000D02*
X184548500Y-126561000D01*
X81848500Y-131199600D02*
X78393700Y-131199600D01*
X86138900Y-126545700D02*
X83192200Y-129492400D01*
X147562500Y-126576100D02*
X165513600Y-126576100D01*
%TO.N,R_ROW0*%
X136309100Y-71979800D02*
X141695200Y-71979800D01*
X83936300Y-70364000D02*
X85139000Y-70364000D01*
X102983700Y-71667400D02*
X103776100Y-70875000D01*
X63091400Y-72559100D02*
X62630700Y-72098400D01*
X61491300Y-78237500D02*
X63091400Y-76637400D01*
X164231300Y-70875000D02*
X178268500Y-70875000D01*
X67700000Y-70875000D02*
X66600000Y-69780700D01*
X154569800Y-71952700D02*
X163153600Y-71952700D01*
X103776100Y-70875000D02*
X104700000Y-70875000D01*
X61976600Y-70134200D02*
X62330100Y-69780700D01*
X135204300Y-70875000D02*
X136309100Y-71979800D01*
X163153600Y-71952700D02*
X164231300Y-70875000D01*
X85650000Y-70875000D02*
X89054400Y-74279400D01*
X142800000Y-70875000D02*
X153492100Y-70875000D01*
X61491300Y-84466300D02*
X61491300Y-78237500D01*
X85139000Y-70364000D02*
X85650000Y-70875000D01*
X61976600Y-71689500D02*
X61976600Y-70134200D01*
X122609500Y-72015500D02*
X123750000Y-70875000D01*
X123750000Y-70875000D02*
X135204300Y-70875000D01*
X83353000Y-69780700D02*
X66600000Y-69780700D01*
X184584800Y-71952700D02*
X185662500Y-70875000D01*
X117862600Y-72015500D02*
X122609500Y-72015500D01*
X89054400Y-74279400D02*
X93609900Y-74279400D01*
X83936300Y-70364000D02*
X83353000Y-69780700D01*
X63091400Y-76637400D02*
X63091400Y-72559100D01*
X62330100Y-69780700D02*
X66600000Y-69780700D01*
X178268500Y-70875000D02*
X179346200Y-71952700D01*
X62385500Y-72098400D02*
X61976600Y-71689500D01*
X179346200Y-71952700D02*
X184584800Y-71952700D01*
X141695200Y-71979800D02*
X142800000Y-70875000D01*
X61550000Y-84525000D02*
X61491300Y-84466300D01*
X62630700Y-72098400D02*
X62385500Y-72098400D01*
X116722100Y-70875000D02*
X117862600Y-72015500D01*
X153492100Y-70875000D02*
X154569800Y-71952700D01*
X104700000Y-70875000D02*
X116722100Y-70875000D01*
%TO.N,R_ROW1*%
X152325000Y-89575000D02*
X155801000Y-93051000D01*
X113136800Y-88486800D02*
X95175000Y-88486800D01*
X152325000Y-89575000D02*
X151215800Y-88465800D01*
X65378900Y-97801000D02*
X62855300Y-100324600D01*
X65378900Y-93069800D02*
X60569800Y-93069800D01*
X95175000Y-88486800D02*
X90865000Y-88486800D01*
X75259500Y-88699000D02*
X75259500Y-88598900D01*
X68904700Y-91395100D02*
X68904700Y-91807600D01*
X114225000Y-89575000D02*
X127633900Y-89575000D01*
X68904700Y-91807600D02*
X67642500Y-93069800D01*
X77303800Y-89565500D02*
X76126000Y-89565500D01*
X61444900Y-100324600D02*
X58194500Y-103575000D01*
X60569800Y-93069800D02*
X57075000Y-89575000D01*
X127633900Y-89575000D02*
X128729600Y-88479300D01*
X62855300Y-100324600D02*
X61444900Y-100324600D01*
X65378900Y-93069800D02*
X65378900Y-97801000D01*
X87954700Y-91809100D02*
X86694000Y-93069800D01*
X167504200Y-93051000D02*
X172105800Y-88449400D01*
X76134500Y-89565500D02*
X77303800Y-89565500D01*
X128729600Y-88479300D02*
X132179300Y-88479300D01*
X81977300Y-93069800D02*
X78473000Y-89565500D01*
X134384200Y-88465800D02*
X133275000Y-89575000D01*
X172105800Y-88449400D02*
X177393200Y-88449400D01*
X114225000Y-89575000D02*
X113136800Y-88486800D01*
X76125000Y-89575000D02*
X76134500Y-89565500D01*
X95175000Y-89575000D02*
X95175000Y-88486800D01*
X77303800Y-89565500D02*
X78473000Y-89565500D01*
X86694000Y-93069800D02*
X81977300Y-93069800D01*
X76126000Y-89565500D02*
X75259500Y-88699000D01*
X155801000Y-93051000D02*
X167504200Y-93051000D01*
X67642500Y-93069800D02*
X65378900Y-93069800D01*
X58194500Y-103575000D02*
X52025000Y-103575000D01*
X75151100Y-88490500D02*
X71809300Y-88490500D01*
X71809300Y-88490500D02*
X68904700Y-91395100D01*
X177393200Y-88449400D02*
X178518800Y-89575000D01*
X87954700Y-91397100D02*
X87954700Y-91809100D01*
X151215800Y-88465800D02*
X134384200Y-88465800D01*
X75259500Y-88598900D02*
X75151100Y-88490500D01*
X132179300Y-88479300D02*
X133275000Y-89575000D01*
X90865000Y-88486800D02*
X87954700Y-91397100D01*
%TO.N,R_ROW2*%
X99937500Y-108625000D02*
X98848500Y-107536000D01*
X138037500Y-108625000D02*
X136959800Y-107547300D01*
X161850000Y-108625000D02*
X160758100Y-107533100D01*
X57516200Y-107547300D02*
X60759800Y-107547300D01*
X178233100Y-107541800D02*
X173655100Y-112119800D01*
X80887500Y-107536000D02*
X72538800Y-107536000D01*
X80887500Y-107536000D02*
X80887500Y-108625000D01*
X56711700Y-122549200D02*
X56711700Y-114841300D01*
X136959800Y-107547300D02*
X118987500Y-107547300D01*
X58315500Y-110670000D02*
X57162600Y-109517100D01*
X98848500Y-107536000D02*
X80887500Y-107536000D01*
X173655100Y-112119800D02*
X165344800Y-112119800D01*
X72538800Y-107536000D02*
X62926500Y-107536000D01*
X118987500Y-108625000D02*
X118987500Y-107547300D01*
X60759800Y-107547300D02*
X61837500Y-108625000D01*
X62926500Y-107536000D02*
X61837500Y-108625000D01*
X57162600Y-109517100D02*
X57162600Y-107900900D01*
X56711700Y-114841300D02*
X58315500Y-113237500D01*
X56787500Y-122625000D02*
X56711700Y-122549200D01*
X58315500Y-113237500D02*
X58315500Y-110670000D01*
X101015200Y-107547300D02*
X99937500Y-108625000D01*
X184579300Y-107541800D02*
X178233100Y-107541800D01*
X118987500Y-107547300D02*
X101015200Y-107547300D01*
X57162600Y-107900900D02*
X57516200Y-107547300D01*
X165344800Y-112119800D02*
X161850000Y-108625000D01*
X160758100Y-107533100D02*
X139129400Y-107533100D01*
X139129400Y-107533100D02*
X138037500Y-108625000D01*
X185662500Y-108625000D02*
X184579300Y-107541800D01*
%TO.N,R_ROW4*%
X73140400Y-145953000D02*
X73460300Y-145633100D01*
X185662500Y-146725000D02*
X184532000Y-145594500D01*
X88114500Y-145623000D02*
X81442200Y-138950700D01*
X107081300Y-145623000D02*
X88114500Y-145623000D01*
X81442200Y-138950700D02*
X79144400Y-138950700D01*
X166612500Y-146725000D02*
X165524800Y-145637300D01*
X147562500Y-146725000D02*
X146460500Y-145623000D01*
X72538800Y-145351400D02*
X73140400Y-145953000D01*
X77414400Y-145633100D02*
X78506300Y-146725000D01*
X66312500Y-152780900D02*
X73140400Y-145953000D01*
X66312500Y-160375000D02*
X66312500Y-152780900D01*
X165524800Y-145637300D02*
X148650200Y-145637300D01*
X73460300Y-145633100D02*
X77414400Y-145633100D01*
X78636600Y-144410900D02*
X77414400Y-145633100D01*
X128512500Y-145623000D02*
X128512500Y-146725000D01*
X146460500Y-145623000D02*
X128512500Y-145623000D01*
X78636600Y-139458500D02*
X78636600Y-144410900D01*
X148650200Y-145637300D02*
X147562500Y-146725000D01*
X167743000Y-145594500D02*
X166612500Y-146725000D01*
X184532000Y-145594500D02*
X167743000Y-145594500D01*
X128512500Y-145623000D02*
X107081300Y-145623000D01*
X79144400Y-138950700D02*
X78636600Y-139458500D01*
X107081300Y-145623000D02*
X107081300Y-146725000D01*
%TO.N,RK31_D*%
X167257900Y-131920400D02*
X167257900Y-132135000D01*
X163112500Y-136280400D02*
X167257900Y-132135000D01*
X167257900Y-132135000D02*
X168002500Y-132135000D01*
X163112500Y-138475000D02*
X163112500Y-136280400D01*
X163012500Y-127675000D02*
X167257900Y-131920400D01*
%TO.N,RK27_D*%
X86812500Y-127675000D02*
X91057900Y-131920400D01*
X91057900Y-132135000D02*
X91802500Y-132135000D01*
X91057900Y-131920400D02*
X91057900Y-132135000D01*
X86912500Y-136280400D02*
X91057900Y-132135000D01*
X86912500Y-138475000D02*
X86912500Y-136280400D01*
%TO.N,RK15_D*%
X153076100Y-93926100D02*
X148825000Y-98177200D01*
X148725000Y-89575000D02*
X153076100Y-93926100D01*
X148825000Y-98177200D02*
X148825000Y-100375000D01*
X153076100Y-93926100D02*
X153185000Y-94035000D01*
X153185000Y-94035000D02*
X153715000Y-94035000D01*
%TO.N,RK20_D*%
X96337500Y-108625000D02*
X100544700Y-112832200D01*
X96437500Y-117192200D02*
X100544700Y-113085000D01*
X100544700Y-112832200D02*
X100544700Y-113085000D01*
X96437500Y-119425000D02*
X96437500Y-117192200D01*
X100544700Y-113085000D02*
X101327500Y-113085000D01*
%TO.N,RK02_D*%
X63100000Y-81325000D02*
X63100000Y-79148000D01*
X67263000Y-74985000D02*
X67990000Y-74985000D01*
X64100000Y-70875000D02*
X67186500Y-75061500D01*
X67186500Y-75061500D02*
X67263000Y-74985000D01*
X63100000Y-79148000D02*
X67186500Y-75061500D01*
%TO.N,RK29_D*%
X125012500Y-129525000D02*
X125012500Y-138475000D01*
X125887500Y-128650000D02*
X124912500Y-127675000D01*
X129902500Y-132135000D02*
X126417500Y-128650000D01*
X126417500Y-128650000D02*
X125887500Y-128650000D01*
X125887500Y-128650000D02*
X125012500Y-129525000D01*
%TO.N,RK35_D*%
X103581300Y-155330400D02*
X107726700Y-151185000D01*
X107726700Y-151185000D02*
X108471300Y-151185000D01*
X103481300Y-146939600D02*
X103481300Y-146725000D01*
X103581300Y-157525000D02*
X103581300Y-155330400D01*
X107726700Y-151185000D02*
X103481300Y-146939600D01*
%TO.N,RK37_D*%
X148422500Y-151185000D02*
X148952500Y-151185000D01*
X148313600Y-151076100D02*
X144062500Y-155327200D01*
X144062500Y-155327200D02*
X144062500Y-157525000D01*
X143962500Y-146725000D02*
X148313600Y-151076100D01*
X148313600Y-151076100D02*
X148422500Y-151185000D01*
%TO.N,RK32_D*%
X186337600Y-132135000D02*
X187052500Y-132135000D01*
X182592500Y-127675000D02*
X182062500Y-127675000D01*
X182162500Y-136310100D02*
X186337600Y-132135000D01*
X187052500Y-132135000D02*
X182592500Y-127675000D01*
X182162500Y-138475000D02*
X182162500Y-136310100D01*
%TO.N,RK28_D*%
X110062200Y-132135000D02*
X110852500Y-132135000D01*
X110062200Y-131874700D02*
X110062200Y-132135000D01*
X105962500Y-138475000D02*
X105962500Y-136234700D01*
X105962500Y-136234700D02*
X110062200Y-132135000D01*
X105862500Y-127675000D02*
X110062200Y-131874700D01*
%TO.N,RK08_D*%
X182162500Y-81325000D02*
X182162500Y-79105000D01*
X182062500Y-70875000D02*
X183965200Y-70875000D01*
X182162500Y-79105000D02*
X186282500Y-74985000D01*
X183965200Y-70875000D02*
X184215600Y-71125400D01*
X186282500Y-74985000D02*
X187052500Y-74985000D01*
%TO.N,RK30_D*%
X144937500Y-128650000D02*
X144062500Y-129525000D01*
X144937500Y-128650000D02*
X143962500Y-127675000D01*
X144062500Y-129525000D02*
X144062500Y-138475000D01*
X148952500Y-132135000D02*
X145467500Y-128650000D01*
X145467500Y-128650000D02*
X144937500Y-128650000D01*
%TO.N,RK13_D*%
X110725000Y-98210100D02*
X114900100Y-94035000D01*
X115615000Y-94035000D02*
X111155000Y-89575000D01*
X110725000Y-100375000D02*
X110725000Y-98210100D01*
X111155000Y-89575000D02*
X110625000Y-89575000D01*
X114900100Y-94035000D02*
X115615000Y-94035000D01*
%TO.N,RK33_D*%
X62034900Y-156265000D02*
X61322500Y-156265000D01*
X66212500Y-152087400D02*
X62034900Y-156265000D01*
X66212500Y-149925000D02*
X66212500Y-152087400D01*
X61322500Y-156265000D02*
X62712500Y-157655000D01*
X62712500Y-157655000D02*
X62712500Y-160375000D01*
%TO.N,RK23_D*%
X158250000Y-108625000D02*
X162495400Y-112870400D01*
X158350000Y-119425000D02*
X158350000Y-117230400D01*
X158350000Y-117230400D02*
X162495400Y-113085000D01*
X162495400Y-113085000D02*
X163240000Y-113085000D01*
X162495400Y-112870400D02*
X162495400Y-113085000D01*
%TO.N,RK18_D*%
X62457800Y-113085000D02*
X63227500Y-113085000D01*
X58337500Y-119425000D02*
X58337500Y-117205300D01*
X62457800Y-113085000D02*
X62457800Y-112845300D01*
X58337500Y-117205300D02*
X62457800Y-113085000D01*
X62457800Y-112845300D02*
X58237500Y-108625000D01*
%TO.N,RK11_D*%
X72525000Y-89789600D02*
X72525000Y-89575000D01*
X76770400Y-94035000D02*
X72525000Y-89789600D01*
X72625000Y-98180400D02*
X76770400Y-94035000D01*
X72625000Y-100375000D02*
X72625000Y-98180400D01*
X76770400Y-94035000D02*
X77515000Y-94035000D01*
%TO.N,RK36_D*%
X125012500Y-155347600D02*
X129175100Y-151185000D01*
X125442500Y-146725000D02*
X124912500Y-146725000D01*
X129902500Y-151185000D02*
X125442500Y-146725000D01*
X125012500Y-157525000D02*
X125012500Y-155347600D01*
X129175100Y-151185000D02*
X129902500Y-151185000D01*
%TO.N,RK34_D*%
X79896300Y-151185000D02*
X75436300Y-146725000D01*
X79141600Y-151185000D02*
X79896300Y-151185000D01*
X75436300Y-146725000D02*
X74906300Y-146725000D01*
X75006300Y-157525000D02*
X75006300Y-155320300D01*
X75006300Y-155320300D02*
X79141600Y-151185000D01*
%TO.N,RK03_D*%
X82150000Y-81325000D02*
X82150000Y-78995000D01*
X82050000Y-70875000D02*
X86160000Y-74985000D01*
X86160000Y-74985000D02*
X87040000Y-74985000D01*
X82150000Y-78995000D02*
X86160000Y-74985000D01*
%TD*%
M02*
