M48
; DRILL file KiCad 10.0.3 date 2026-08-03T10:12:10
; FORMAT={-:-/ absolute / metric / decimal}
; #@! TF.CreationDate,2026-08-03T10:12:10+09:00
; #@! TF.GenerationSoftware,Kicad,Pcbnew,10.0.3
; #@! TF.FileFunction,Plated,1,2,PTH
FMAT,2
METRIC
; #@! TA.AperFunction,Plated,PTH,ViaDrill
T1C0.300
; #@! TA.AperFunction,Plated,PTH,ComponentDrill
T2C0.950
; #@! TA.AperFunction,Plated,PTH,ComponentDrill
T3C1.500
%
G90
G05
T1
X65.549Y-138.594
X74.477Y-101.123
X74.614Y-136.206
X75.893Y-62.019
X77.42Y-58.617
X77.792Y-107.01
X78.838Y-59.892
X80.969Y-68.746
X83.073Y-125.61
X84.609Y-62.26
X86.31Y-64.0
X86.796Y-88.975
X95.2Y-58.617
X103.649Y-138.594
X106.95Y-108.744
X116.784Y-67.648
X135.399Y-68.147
X141.727Y-138.594
X149.5Y-64.0
X150.099Y-71.001
X150.677Y-101.123
X154.472Y-68.528
X169.727Y-101.123
X170.969Y-68.175
X171.5Y-64.0
X192.078Y-100.412
X194.7Y-121.525
X196.534Y-64.0
X198.899Y-138.594
T2
X68.53Y-40.11
X68.53Y-57.89
X71.07Y-40.11
X71.07Y-57.89
X73.61Y-40.11
X73.61Y-57.89
X76.15Y-40.11
X76.15Y-57.89
X78.69Y-40.11
X78.69Y-57.89
X81.23Y-40.11
X81.23Y-57.89
X83.77Y-40.11
X83.77Y-57.89
X86.31Y-40.11
X86.31Y-57.89
X88.85Y-40.11
X88.85Y-57.89
X91.39Y-40.11
X91.39Y-57.89
X93.93Y-40.11
X93.93Y-57.89
X96.47Y-40.11
X96.47Y-57.89
T3
X44.315Y-94.035
X49.078Y-113.085
X50.665Y-91.495
X53.84Y-74.985
X55.427Y-110.545
X58.602Y-132.135
X58.602Y-151.185
X60.19Y-72.445
X63.365Y-94.035
X64.953Y-129.595
X64.953Y-148.645
X68.127Y-113.085
X69.715Y-91.495
X72.89Y-74.985
X74.477Y-110.545
X77.653Y-132.135
X77.653Y-151.185
X79.24Y-72.445
X82.415Y-94.035
X84.002Y-129.595
X84.002Y-148.645
X87.177Y-113.085
X88.765Y-91.495
X91.94Y-74.985
X93.527Y-110.545
X96.703Y-132.135
X96.703Y-151.185
X98.29Y-72.445
X101.465Y-94.035
X103.052Y-129.595
X103.052Y-148.645
X106.227Y-113.085
X107.815Y-91.495
X110.99Y-74.985
X112.578Y-110.545
X115.752Y-132.135
X115.752Y-151.185
X117.34Y-72.445
X120.515Y-94.035
X122.102Y-129.595
X122.102Y-148.645
X125.277Y-113.085
X126.865Y-91.495
X130.04Y-74.985
X131.627Y-110.545
X134.802Y-132.135
X134.802Y-151.185
X136.39Y-72.445
X139.565Y-94.035
X141.153Y-129.595
X141.153Y-148.645
X144.327Y-113.085
X145.915Y-91.495
X149.09Y-74.985
X150.677Y-110.545
X153.852Y-132.135
X153.852Y-151.185
X155.44Y-72.445
X158.615Y-94.035
X160.202Y-129.595
X160.202Y-148.645
X163.377Y-113.085
X164.965Y-91.495
X168.14Y-74.985
X169.727Y-110.545
X172.903Y-132.135
X172.903Y-151.185
X174.49Y-72.445
X179.252Y-129.595
X179.252Y-148.645
X184.809Y-94.035
X187.19Y-113.085
X189.571Y-74.985
X191.159Y-91.495
X191.952Y-132.135
X191.952Y-151.185
X193.54Y-110.545
X195.921Y-72.445
X198.302Y-129.595
X198.302Y-148.645
X211.002Y-74.985
X211.002Y-94.035
X211.002Y-113.085
X211.002Y-132.135
X211.002Y-151.185
X217.352Y-72.445
X217.352Y-91.495
X217.352Y-110.545
X217.352Y-129.595
X217.352Y-148.645
M30
