M48
; DRILL file KiCad 10.0.3 date 2026-08-22T16:55:43
; FORMAT={-:-/ absolute / metric / decimal}
; #@! TF.CreationDate,2026-08-22T16:55:43+09:00
; #@! TF.GenerationSoftware,Kicad,Pcbnew,10.0.3
; #@! TF.FileFunction,NonPlated,1,2,NPTH
FMAT,2
METRIC
; #@! TA.AperFunction,NonPlated,NPTH,ComponentDrill
T1C1.650
; #@! TA.AperFunction,NonPlated,NPTH,ComponentDrill
T2C1.700
; #@! TA.AperFunction,NonPlated,NPTH,ComponentDrill
T3C2.200
; #@! TA.AperFunction,NonPlated,NPTH,ComponentDrill
T4C3.000
; #@! TA.AperFunction,NonPlated,NPTH,ComponentDrill
T5C5.000
%
G90
G05
T1
X38.225Y-101.725
X42.987Y-120.775
X47.75Y-82.675
X52.512Y-139.825
X52.512Y-158.875
X67.275Y-91.425
X72.037Y-110.475
X76.8Y-72.375
X81.562Y-129.525
X86.325Y-91.425
X88.706Y-148.575
X91.087Y-110.475
X95.85Y-72.375
X100.612Y-129.525
X105.375Y-91.425
X110.137Y-110.475
X114.9Y-72.375
X117.281Y-148.575
X119.662Y-129.525
X124.425Y-91.425
X129.188Y-110.475
X133.95Y-72.375
X138.713Y-129.525
X138.713Y-148.575
X143.475Y-91.425
X148.237Y-110.475
X153.0Y-72.375
X157.762Y-129.525
X157.762Y-148.575
X162.525Y-91.425
X172.05Y-110.475
X174.431Y-72.375
X176.812Y-129.525
X176.812Y-148.575
X188.719Y-91.425
X195.862Y-72.375
X195.862Y-110.475
X195.862Y-129.525
X195.862Y-148.575
T2
X38.145Y-96.575
X42.907Y-115.625
X47.67Y-77.525
X48.305Y-96.575
X52.432Y-134.675
X52.432Y-153.725
X53.067Y-115.625
X57.195Y-96.575
X57.83Y-77.525
X61.957Y-115.625
X62.592Y-134.675
X62.592Y-153.725
X66.72Y-77.525
X67.355Y-96.575
X71.483Y-134.675
X72.117Y-115.625
X76.245Y-96.575
X76.88Y-77.525
X78.626Y-153.725
X81.007Y-115.625
X81.642Y-134.675
X85.77Y-77.525
X86.405Y-96.575
X88.786Y-153.725
X90.532Y-134.675
X91.167Y-115.625
X95.295Y-96.575
X95.93Y-77.525
X100.057Y-115.625
X100.692Y-134.675
X104.82Y-77.525
X105.455Y-96.575
X107.201Y-153.725
X109.582Y-134.675
X110.218Y-115.625
X114.345Y-96.575
X114.98Y-77.525
X117.361Y-153.725
X119.108Y-115.625
X119.742Y-134.675
X123.87Y-77.525
X124.505Y-96.575
X128.632Y-134.675
X128.632Y-153.725
X129.267Y-115.625
X133.395Y-96.575
X134.03Y-77.525
X138.157Y-115.625
X138.792Y-134.675
X138.792Y-153.725
X142.92Y-77.525
X143.555Y-96.575
X147.683Y-134.675
X147.683Y-153.725
X148.317Y-115.625
X152.445Y-96.575
X153.08Y-77.525
X157.843Y-134.675
X157.843Y-153.725
X161.97Y-115.625
X162.605Y-96.575
X164.351Y-77.525
X166.732Y-134.675
X166.732Y-153.725
X172.13Y-115.625
X174.511Y-77.525
X176.892Y-134.675
X176.892Y-153.725
X178.639Y-96.575
X185.782Y-77.525
X185.782Y-115.625
X185.782Y-134.675
X185.782Y-153.725
X188.799Y-96.575
X195.942Y-77.525
X195.942Y-115.625
X195.942Y-134.675
X195.942Y-153.725
T4
X43.225Y-90.675
X47.987Y-109.725
X48.225Y-92.775
X52.75Y-71.625
X52.987Y-111.825
X57.275Y-100.375
X57.512Y-128.775
X57.512Y-147.825
X57.75Y-73.725
X62.037Y-119.425
X62.275Y-102.475
X62.512Y-130.875
X62.512Y-149.925
X66.8Y-81.325
X67.037Y-121.525
X71.562Y-138.475
X71.8Y-83.425
X76.325Y-100.375
X76.562Y-140.575
X78.706Y-157.525
X81.087Y-119.425
X81.325Y-102.475
X83.706Y-159.625
X85.85Y-81.325
X86.087Y-121.525
X90.612Y-138.475
X90.85Y-83.425
X95.375Y-100.375
X95.612Y-140.575
X100.137Y-119.425
X100.375Y-102.475
X104.9Y-81.325
X105.137Y-121.525
X107.281Y-157.525
X109.662Y-138.475
X109.9Y-83.425
X112.281Y-159.625
X114.425Y-100.375
X114.662Y-140.575
X119.188Y-119.425
X119.425Y-102.475
X123.95Y-81.325
X124.188Y-121.525
X128.713Y-138.475
X128.713Y-157.525
X128.95Y-83.425
X133.475Y-100.375
X133.713Y-140.575
X133.713Y-159.625
X138.237Y-119.425
X138.475Y-102.475
X143.0Y-81.325
X143.237Y-121.525
X147.762Y-138.475
X147.762Y-157.525
X148.0Y-83.425
X152.525Y-100.375
X152.762Y-140.575
X152.762Y-159.625
X157.525Y-102.475
X162.05Y-119.425
X164.431Y-81.325
X166.812Y-138.475
X166.812Y-157.525
X167.05Y-121.525
X169.431Y-83.425
X171.812Y-140.575
X171.812Y-159.625
X178.719Y-100.375
X183.719Y-102.475
X185.862Y-81.325
X185.862Y-119.425
X185.862Y-138.475
X185.862Y-157.525
X190.862Y-83.425
X190.862Y-121.525
X190.862Y-140.575
X190.862Y-159.625
T5
X43.225Y-96.575
X47.987Y-115.625
X52.75Y-77.525
X57.512Y-134.675
X57.512Y-153.725
X62.275Y-96.575
X67.037Y-115.625
X71.8Y-77.525
X76.562Y-134.675
X81.325Y-96.575
X83.706Y-153.725
X86.087Y-115.625
X90.85Y-77.525
X95.612Y-134.675
X100.375Y-96.575
X105.137Y-115.625
X109.9Y-77.525
X112.281Y-153.725
X114.662Y-134.675
X119.425Y-96.575
X124.188Y-115.625
X128.95Y-77.525
X133.713Y-134.675
X133.713Y-153.725
X138.475Y-96.575
X143.237Y-115.625
X148.0Y-77.525
X152.762Y-134.675
X152.762Y-153.725
X157.525Y-96.575
X167.05Y-115.625
X169.431Y-77.525
X171.812Y-134.675
X171.812Y-153.725
X183.719Y-96.575
X190.862Y-77.525
X190.862Y-115.625
X190.862Y-134.675
X190.862Y-153.725
T3
X91.7Y-49.0G85X93.1Y-49.0
G05
M30
