%TF.GenerationSoftware,KiCad,Pcbnew,10.0.3*%
%TF.CreationDate,2026-08-22T00:43:41+09:00*%
%TF.ProjectId,kc2_right-x3-v2,6b63325f-7269-4676-9874-2d78332d7632,draft-v2*%
%TF.SameCoordinates,Original*%
%TF.FileFunction,Legend,Bot*%
%TF.FilePolarity,Positive*%
%FSLAX46Y46*%
G04 Gerber Fmt 4.6, Leading zero omitted, Abs format (unit mm)*
G04 Created by KiCad (PCBNEW 10.0.3) date 2026-08-22 00:43:41*
%MOMM*%
%LPD*%
G01*
G04 APERTURE LIST*
G04 Aperture macros list*
%AMRoundRect*
0 Rectangle with rounded corners*
0 $1 Rounding radius*
0 $2 $3 $4 $5 $6 $7 $8 $9 X,Y pos of 4 corners*
0 Add a 4 corners polygon primitive as box body*
4,1,4,$2,$3,$4,$5,$6,$7,$8,$9,$2,$3,0*
0 Add four circle primitives for the rounded corners*
1,1,$1+$1,$2,$3*
1,1,$1+$1,$4,$5*
1,1,$1+$1,$6,$7*
1,1,$1+$1,$8,$9*
0 Add four rect primitives between the rounded corners*
20,1,$1+$1,$2,$3,$4,$5,0*
20,1,$1+$1,$4,$5,$6,$7,0*
20,1,$1+$1,$6,$7,$8,$9,0*
20,1,$1+$1,$8,$9,$2,$3,0*%
G04 Aperture macros list end*
%ADD10C,1.700000*%
%ADD11C,3.000000*%
%ADD12C,5.000000*%
%ADD13C,1.650000*%
%ADD14C,2.500000*%
%ADD15RoundRect,0.520000X-0.780000X-0.780000X0.780000X-0.780000X0.780000X0.780000X-0.780000X0.780000X0*%
%ADD16RoundRect,0.520000X0.780000X0.780000X-0.780000X0.780000X-0.780000X-0.780000X0.780000X-0.780000X0*%
%ADD17O,3.600000X2.200000*%
%ADD18RoundRect,0.252000X0.448000X0.523000X-0.448000X0.523000X-0.448000X-0.523000X0.448000X-0.523000X0*%
G04 APERTURE END LIST*
%LPC*%
D10*
%TO.C,SW24*%
X185782500Y-115625000D03*
D11*
X185862500Y-119425000D03*
D12*
X190862500Y-115625000D03*
D11*
X190862500Y-121525000D03*
D13*
X195862500Y-110475000D03*
D10*
X195942500Y-115625000D03*
D14*
X193402500Y-110545000D03*
D15*
X194562500Y-121525000D03*
X182162500Y-119425000D03*
D14*
X187052500Y-113085000D03*
%TD*%
D10*
%TO.C,SW19*%
X81007500Y-115625000D03*
D11*
X81087500Y-119425000D03*
D12*
X86087500Y-115625000D03*
D11*
X86087500Y-121525000D03*
D13*
X91087500Y-110475000D03*
D10*
X91167500Y-115625000D03*
D14*
X88627500Y-110545000D03*
D15*
X89787500Y-121525000D03*
X77387500Y-119425000D03*
D14*
X82277500Y-113085000D03*
%TD*%
D10*
%TO.C,SW16*%
X178638800Y-96575000D03*
D11*
X178718800Y-100375000D03*
D12*
X183718800Y-96575000D03*
D11*
X183718800Y-102475000D03*
D13*
X188718800Y-91425000D03*
D10*
X188798800Y-96575000D03*
D14*
X186258800Y-91495000D03*
D15*
X187418800Y-102475000D03*
X175018800Y-100375000D03*
D14*
X179908800Y-94035000D03*
%TD*%
D10*
%TO.C,SW25*%
X62592500Y-134675000D03*
D11*
X62512500Y-130875000D03*
D12*
X57512500Y-134675000D03*
D11*
X57512500Y-128775000D03*
D13*
X52512500Y-139825000D03*
D10*
X52432500Y-134675000D03*
D14*
X54972500Y-139755000D03*
D16*
X53812500Y-128775000D03*
X66212500Y-130875000D03*
D14*
X61322500Y-137215000D03*
%TD*%
D10*
%TO.C,SW22*%
X138157500Y-115625000D03*
D11*
X138237500Y-119425000D03*
D12*
X143237500Y-115625000D03*
D11*
X143237500Y-121525000D03*
D13*
X148237500Y-110475000D03*
D10*
X148317500Y-115625000D03*
D14*
X145777500Y-110545000D03*
D15*
X146937500Y-121525000D03*
X134537500Y-119425000D03*
D14*
X139427500Y-113085000D03*
%TD*%
D10*
%TO.C,SW5*%
X123870000Y-77525000D03*
D11*
X123950000Y-81325000D03*
D12*
X128950000Y-77525000D03*
D11*
X128950000Y-83425000D03*
D13*
X133950000Y-72375000D03*
D10*
X134030000Y-77525000D03*
D14*
X131490000Y-72445000D03*
D15*
X132650000Y-83425000D03*
X120250000Y-81325000D03*
D14*
X125140000Y-74985000D03*
%TD*%
D10*
%TO.C,SW9*%
X48305000Y-96575000D03*
D11*
X48225000Y-92775000D03*
D12*
X43225000Y-96575000D03*
D11*
X43225000Y-90675000D03*
D13*
X38225000Y-101725000D03*
D10*
X38145000Y-96575000D03*
D14*
X40685000Y-101655000D03*
D16*
X39525000Y-90675000D03*
X51925000Y-92775000D03*
D14*
X47035000Y-99115000D03*
%TD*%
D10*
%TO.C,SW12*%
X95295000Y-96575000D03*
D11*
X95375000Y-100375000D03*
D12*
X100375000Y-96575000D03*
D11*
X100375000Y-102475000D03*
D13*
X105375000Y-91425000D03*
D10*
X105455000Y-96575000D03*
D14*
X102915000Y-91495000D03*
D15*
X104075000Y-102475000D03*
X91675000Y-100375000D03*
D14*
X96565000Y-94035000D03*
%TD*%
D10*
%TO.C,SW7*%
X164351300Y-77525000D03*
D11*
X164431300Y-81325000D03*
D12*
X169431300Y-77525000D03*
D11*
X169431300Y-83425000D03*
D13*
X174431300Y-72375000D03*
D10*
X174511300Y-77525000D03*
D14*
X171971300Y-72445000D03*
D15*
X173131300Y-83425000D03*
X160731300Y-81325000D03*
D14*
X165621300Y-74985000D03*
%TD*%
D10*
%TO.C,SW21*%
X119107500Y-115625000D03*
D11*
X119187500Y-119425000D03*
D12*
X124187500Y-115625000D03*
D11*
X124187500Y-121525000D03*
D13*
X129187500Y-110475000D03*
D10*
X129267500Y-115625000D03*
D14*
X126727500Y-110545000D03*
D15*
X127887500Y-121525000D03*
X115487500Y-119425000D03*
D14*
X120377500Y-113085000D03*
%TD*%
D10*
%TO.C,SW17*%
X53067500Y-115625000D03*
D11*
X52987500Y-111825000D03*
D12*
X47987500Y-115625000D03*
D11*
X47987500Y-109725000D03*
D13*
X42987500Y-120775000D03*
D10*
X42907500Y-115625000D03*
D14*
X45447500Y-120705000D03*
D16*
X44287500Y-109725000D03*
X56687500Y-111825000D03*
D14*
X51797500Y-118165000D03*
%TD*%
D10*
%TO.C,SW39*%
X185782500Y-153725000D03*
D11*
X185862500Y-157525000D03*
D12*
X190862500Y-153725000D03*
D11*
X190862500Y-159625000D03*
D13*
X195862500Y-148575000D03*
D10*
X195942500Y-153725000D03*
D14*
X193402500Y-148645000D03*
D15*
X194562500Y-159625000D03*
X182162500Y-157525000D03*
D14*
X187052500Y-151185000D03*
%TD*%
D10*
%TO.C,SW6*%
X142920000Y-77525000D03*
D11*
X143000000Y-81325000D03*
D12*
X148000000Y-77525000D03*
D11*
X148000000Y-83425000D03*
D13*
X153000000Y-72375000D03*
D10*
X153080000Y-77525000D03*
D14*
X150540000Y-72445000D03*
D15*
X151700000Y-83425000D03*
X139300000Y-81325000D03*
D14*
X144190000Y-74985000D03*
%TD*%
D10*
%TO.C,SW1*%
X57830000Y-77525000D03*
D11*
X57750000Y-73725000D03*
D12*
X52750000Y-77525000D03*
D11*
X52750000Y-71625000D03*
D13*
X47750000Y-82675000D03*
D10*
X47670000Y-77525000D03*
D14*
X50210000Y-82605000D03*
D16*
X49050000Y-71625000D03*
X61450000Y-73725000D03*
D14*
X56560000Y-80065000D03*
%TD*%
D10*
%TO.C,SW26*%
X71482500Y-134675000D03*
D11*
X71562500Y-138475000D03*
D12*
X76562500Y-134675000D03*
D11*
X76562500Y-140575000D03*
D13*
X81562500Y-129525000D03*
D10*
X81642500Y-134675000D03*
D14*
X79102500Y-129595000D03*
D15*
X80262500Y-140575000D03*
X67862500Y-138475000D03*
D14*
X72752500Y-132135000D03*
%TD*%
D10*
%TO.C,SW10*%
X57195000Y-96575000D03*
D11*
X57275000Y-100375000D03*
D12*
X62275000Y-96575000D03*
D11*
X62275000Y-102475000D03*
D13*
X67275000Y-91425000D03*
D10*
X67355000Y-96575000D03*
D14*
X64815000Y-91495000D03*
D15*
X65975000Y-102475000D03*
X53575000Y-100375000D03*
D14*
X58465000Y-94035000D03*
%TD*%
D10*
%TO.C,SW14*%
X133395000Y-96575000D03*
D11*
X133475000Y-100375000D03*
D12*
X138475000Y-96575000D03*
D11*
X138475000Y-102475000D03*
D13*
X143475000Y-91425000D03*
D10*
X143555000Y-96575000D03*
D14*
X141015000Y-91495000D03*
D15*
X142175000Y-102475000D03*
X129775000Y-100375000D03*
D14*
X134665000Y-94035000D03*
%TD*%
D10*
%TO.C,SW4*%
X104820000Y-77525000D03*
D11*
X104900000Y-81325000D03*
D12*
X109900000Y-77525000D03*
D11*
X109900000Y-83425000D03*
D13*
X114900000Y-72375000D03*
D10*
X114980000Y-77525000D03*
D14*
X112440000Y-72445000D03*
D15*
X113600000Y-83425000D03*
X101200000Y-81325000D03*
D14*
X106090000Y-74985000D03*
%TD*%
D10*
%TO.C,SW38*%
X166732500Y-153725000D03*
D11*
X166812500Y-157525000D03*
D12*
X171812500Y-153725000D03*
D11*
X171812500Y-159625000D03*
D13*
X176812500Y-148575000D03*
D10*
X176892500Y-153725000D03*
D14*
X174352500Y-148645000D03*
D15*
X175512500Y-159625000D03*
X163112500Y-157525000D03*
D14*
X168002500Y-151185000D03*
%TD*%
D10*
%TO.C,SW31*%
X166732500Y-134675000D03*
D11*
X166812500Y-138475000D03*
D12*
X171812500Y-134675000D03*
D11*
X171812500Y-140575000D03*
D13*
X176812500Y-129525000D03*
D10*
X176892500Y-134675000D03*
D14*
X174352500Y-129595000D03*
D15*
X175512500Y-140575000D03*
X163112500Y-138475000D03*
D14*
X168002500Y-132135000D03*
%TD*%
D10*
%TO.C,SW27*%
X90532500Y-134675000D03*
D11*
X90612500Y-138475000D03*
D12*
X95612500Y-134675000D03*
D11*
X95612500Y-140575000D03*
D13*
X100612500Y-129525000D03*
D10*
X100692500Y-134675000D03*
D14*
X98152500Y-129595000D03*
D15*
X99312500Y-140575000D03*
X86912500Y-138475000D03*
D14*
X91802500Y-132135000D03*
%TD*%
D10*
%TO.C,SW15*%
X152445000Y-96575000D03*
D11*
X152525000Y-100375000D03*
D12*
X157525000Y-96575000D03*
D11*
X157525000Y-102475000D03*
D13*
X162525000Y-91425000D03*
D10*
X162605000Y-96575000D03*
D14*
X160065000Y-91495000D03*
D15*
X161225000Y-102475000D03*
X148825000Y-100375000D03*
D14*
X153715000Y-94035000D03*
%TD*%
D10*
%TO.C,SW20*%
X100057500Y-115625000D03*
D11*
X100137500Y-119425000D03*
D12*
X105137500Y-115625000D03*
D11*
X105137500Y-121525000D03*
D13*
X110137500Y-110475000D03*
D10*
X110217500Y-115625000D03*
D14*
X107677500Y-110545000D03*
D15*
X108837500Y-121525000D03*
X96437500Y-119425000D03*
D14*
X101327500Y-113085000D03*
%TD*%
D10*
%TO.C,SW2*%
X66720000Y-77525000D03*
D11*
X66800000Y-81325000D03*
D12*
X71800000Y-77525000D03*
D11*
X71800000Y-83425000D03*
D13*
X76800000Y-72375000D03*
D10*
X76880000Y-77525000D03*
D14*
X74340000Y-72445000D03*
D15*
X75500000Y-83425000D03*
X63100000Y-81325000D03*
D14*
X67990000Y-74985000D03*
%TD*%
D17*
%TO.C,BAT_LEAD_SLOT1*%
X92400000Y-49000000D03*
%TD*%
D10*
%TO.C,SW29*%
X128632500Y-134675000D03*
D11*
X128712500Y-138475000D03*
D12*
X133712500Y-134675000D03*
D11*
X133712500Y-140575000D03*
D13*
X138712500Y-129525000D03*
D10*
X138792500Y-134675000D03*
D14*
X136252500Y-129595000D03*
D15*
X137412500Y-140575000D03*
X125012500Y-138475000D03*
D14*
X129902500Y-132135000D03*
%TD*%
D10*
%TO.C,SW35*%
X107201300Y-153725000D03*
D11*
X107281300Y-157525000D03*
D12*
X112281300Y-153725000D03*
D11*
X112281300Y-159625000D03*
D13*
X117281300Y-148575000D03*
D10*
X117361300Y-153725000D03*
D14*
X114821300Y-148645000D03*
D15*
X115981300Y-159625000D03*
X103581300Y-157525000D03*
D14*
X108471300Y-151185000D03*
%TD*%
D10*
%TO.C,SW37*%
X147682500Y-153725000D03*
D11*
X147762500Y-157525000D03*
D12*
X152762500Y-153725000D03*
D11*
X152762500Y-159625000D03*
D13*
X157762500Y-148575000D03*
D10*
X157842500Y-153725000D03*
D14*
X155302500Y-148645000D03*
D15*
X156462500Y-159625000D03*
X144062500Y-157525000D03*
D14*
X148952500Y-151185000D03*
%TD*%
D10*
%TO.C,SW32*%
X185782500Y-134675000D03*
D11*
X185862500Y-138475000D03*
D12*
X190862500Y-134675000D03*
D11*
X190862500Y-140575000D03*
D13*
X195862500Y-129525000D03*
D10*
X195942500Y-134675000D03*
D14*
X193402500Y-129595000D03*
D15*
X194562500Y-140575000D03*
X182162500Y-138475000D03*
D14*
X187052500Y-132135000D03*
%TD*%
D10*
%TO.C,SW28*%
X109582500Y-134675000D03*
D11*
X109662500Y-138475000D03*
D12*
X114662500Y-134675000D03*
D11*
X114662500Y-140575000D03*
D13*
X119662500Y-129525000D03*
D10*
X119742500Y-134675000D03*
D14*
X117202500Y-129595000D03*
D15*
X118362500Y-140575000D03*
X105962500Y-138475000D03*
D14*
X110852500Y-132135000D03*
%TD*%
D10*
%TO.C,SW8*%
X185782500Y-77525000D03*
D11*
X185862500Y-81325000D03*
D12*
X190862500Y-77525000D03*
D11*
X190862500Y-83425000D03*
D13*
X195862500Y-72375000D03*
D10*
X195942500Y-77525000D03*
D14*
X193402500Y-72445000D03*
D15*
X194562500Y-83425000D03*
X182162500Y-81325000D03*
D14*
X187052500Y-74985000D03*
%TD*%
D10*
%TO.C,SW30*%
X147682500Y-134675000D03*
D11*
X147762500Y-138475000D03*
D12*
X152762500Y-134675000D03*
D11*
X152762500Y-140575000D03*
D13*
X157762500Y-129525000D03*
D10*
X157842500Y-134675000D03*
D14*
X155302500Y-129595000D03*
D15*
X156462500Y-140575000D03*
X144062500Y-138475000D03*
D14*
X148952500Y-132135000D03*
%TD*%
D10*
%TO.C,SW13*%
X114345000Y-96575000D03*
D11*
X114425000Y-100375000D03*
D12*
X119425000Y-96575000D03*
D11*
X119425000Y-102475000D03*
D13*
X124425000Y-91425000D03*
D10*
X124505000Y-96575000D03*
D14*
X121965000Y-91495000D03*
D15*
X123125000Y-102475000D03*
X110725000Y-100375000D03*
D14*
X115615000Y-94035000D03*
%TD*%
D10*
%TO.C,SW33*%
X62592500Y-153725000D03*
D11*
X62512500Y-149925000D03*
D12*
X57512500Y-153725000D03*
D11*
X57512500Y-147825000D03*
D13*
X52512500Y-158875000D03*
D10*
X52432500Y-153725000D03*
D14*
X54972500Y-158805000D03*
D16*
X53812500Y-147825000D03*
X66212500Y-149925000D03*
D14*
X61322500Y-156265000D03*
%TD*%
D10*
%TO.C,SW23*%
X161970000Y-115625000D03*
D11*
X162050000Y-119425000D03*
D12*
X167050000Y-115625000D03*
D11*
X167050000Y-121525000D03*
D13*
X172050000Y-110475000D03*
D10*
X172130000Y-115625000D03*
D14*
X169590000Y-110545000D03*
D15*
X170750000Y-121525000D03*
X158350000Y-119425000D03*
D14*
X163240000Y-113085000D03*
%TD*%
D10*
%TO.C,SW18*%
X61957500Y-115625000D03*
D11*
X62037500Y-119425000D03*
D12*
X67037500Y-115625000D03*
D11*
X67037500Y-121525000D03*
D13*
X72037500Y-110475000D03*
D10*
X72117500Y-115625000D03*
D14*
X69577500Y-110545000D03*
D15*
X70737500Y-121525000D03*
X58337500Y-119425000D03*
D14*
X63227500Y-113085000D03*
%TD*%
D10*
%TO.C,SW11*%
X76245000Y-96575000D03*
D11*
X76325000Y-100375000D03*
D12*
X81325000Y-96575000D03*
D11*
X81325000Y-102475000D03*
D13*
X86325000Y-91425000D03*
D10*
X86405000Y-96575000D03*
D14*
X83865000Y-91495000D03*
D15*
X85025000Y-102475000D03*
X72625000Y-100375000D03*
D14*
X77515000Y-94035000D03*
%TD*%
D10*
%TO.C,SW36*%
X128632500Y-153725000D03*
D11*
X128712500Y-157525000D03*
D12*
X133712500Y-153725000D03*
D11*
X133712500Y-159625000D03*
D13*
X138712500Y-148575000D03*
D10*
X138792500Y-153725000D03*
D14*
X136252500Y-148645000D03*
D15*
X137412500Y-159625000D03*
X125012500Y-157525000D03*
D14*
X129902500Y-151185000D03*
%TD*%
D10*
%TO.C,SW34*%
X78626300Y-153725000D03*
D11*
X78706300Y-157525000D03*
D12*
X83706300Y-153725000D03*
D11*
X83706300Y-159625000D03*
D13*
X88706300Y-148575000D03*
D10*
X88786300Y-153725000D03*
D14*
X86246300Y-148645000D03*
D15*
X87406300Y-159625000D03*
X75006300Y-157525000D03*
D14*
X79896300Y-151185000D03*
%TD*%
D10*
%TO.C,SW3*%
X85770000Y-77525000D03*
D11*
X85850000Y-81325000D03*
D12*
X90850000Y-77525000D03*
D11*
X90850000Y-83425000D03*
D13*
X95850000Y-72375000D03*
D10*
X95930000Y-77525000D03*
D14*
X93390000Y-72445000D03*
D15*
X94550000Y-83425000D03*
X82150000Y-81325000D03*
D14*
X87040000Y-74985000D03*
%TD*%
D18*
%TO.C,D14*%
X133275000Y-89575000D03*
X129675000Y-89575000D03*
%TD*%
%TO.C,D16*%
X178518800Y-89575000D03*
X174918800Y-89575000D03*
%TD*%
%TO.C,D31*%
X166612500Y-127675000D03*
X163012500Y-127675000D03*
%TD*%
%TO.C,D35*%
X107081300Y-146725000D03*
X103481300Y-146725000D03*
%TD*%
%TO.C,D28*%
X109462500Y-127675000D03*
X105862500Y-127675000D03*
%TD*%
%TO.C,D2*%
X68600000Y-71925000D03*
X65000000Y-71925000D03*
%TD*%
%TO.C,D30*%
X147562500Y-127675000D03*
X143962500Y-127675000D03*
%TD*%
%TO.C,D4*%
X102450000Y-74525000D03*
X98850000Y-74525000D03*
%TD*%
%TO.C,D9*%
X52025000Y-103575000D03*
X48425000Y-103575000D03*
%TD*%
%TO.C,D15*%
X152325000Y-89575000D03*
X148725000Y-89575000D03*
%TD*%
%TO.C,D36*%
X128512500Y-146725000D03*
X124912500Y-146725000D03*
%TD*%
%TO.C,D21*%
X118987500Y-108625000D03*
X115387500Y-108625000D03*
%TD*%
%TO.C,D33*%
X68812500Y-156725000D03*
X65212500Y-156725000D03*
%TD*%
%TO.C,D18*%
X61837500Y-108625000D03*
X58237500Y-108625000D03*
%TD*%
%TO.C,D3*%
X83400000Y-74525000D03*
X79800000Y-74525000D03*
%TD*%
%TO.C,D13*%
X114225000Y-89575000D03*
X110625000Y-89575000D03*
%TD*%
%TO.C,D37*%
X147562500Y-146725000D03*
X143962500Y-146725000D03*
%TD*%
%TO.C,D25*%
X66312500Y-141675000D03*
X62712500Y-141675000D03*
%TD*%
%TO.C,D22*%
X138037500Y-108625000D03*
X134437500Y-108625000D03*
%TD*%
%TO.C,D32*%
X185662500Y-127675000D03*
X182062500Y-127675000D03*
%TD*%
%TO.C,D11*%
X76125000Y-89575000D03*
X72525000Y-89575000D03*
%TD*%
%TO.C,D10*%
X57075000Y-89575000D03*
X53475000Y-89575000D03*
%TD*%
%TO.C,D29*%
X128512500Y-127675000D03*
X124912500Y-127675000D03*
%TD*%
%TO.C,D24*%
X185662500Y-108625000D03*
X182062500Y-108625000D03*
%TD*%
%TO.C,D6*%
X140550000Y-74525000D03*
X136950000Y-74525000D03*
%TD*%
%TO.C,D39*%
X185662500Y-146725000D03*
X182062500Y-146725000D03*
%TD*%
%TO.C,D27*%
X90412500Y-127675000D03*
X86812500Y-127675000D03*
%TD*%
%TO.C,D5*%
X121500000Y-74525000D03*
X117900000Y-74525000D03*
%TD*%
%TO.C,D8*%
X183412500Y-74525000D03*
X179812500Y-74525000D03*
%TD*%
%TO.C,D1*%
X61550000Y-84525000D03*
X57950000Y-84525000D03*
%TD*%
%TO.C,D38*%
X166612500Y-146725000D03*
X163012500Y-146725000D03*
%TD*%
%TO.C,D20*%
X99937500Y-108625000D03*
X96337500Y-108625000D03*
%TD*%
%TO.C,D26*%
X71362500Y-127675000D03*
X67762500Y-127675000D03*
%TD*%
%TO.C,D17*%
X56787500Y-122625000D03*
X53187500Y-122625000D03*
%TD*%
%TO.C,D23*%
X161850000Y-108625000D03*
X158250000Y-108625000D03*
%TD*%
%TO.C,D19*%
X80887500Y-108625000D03*
X77287500Y-108625000D03*
%TD*%
%TO.C,D7*%
X161981300Y-74525000D03*
X158381300Y-74525000D03*
%TD*%
%TO.C,D34*%
X78506300Y-146725000D03*
X74906300Y-146725000D03*
%TD*%
%TO.C,D12*%
X95175000Y-89575000D03*
X91575000Y-89575000D03*
%TD*%
%LPD*%
M02*
