%TF.GenerationSoftware,KiCad,Pcbnew,10.0.3*%
%TF.CreationDate,2026-08-20T07:58:22+09:00*%
%TF.ProjectId,kc2_right-x3-v2,6b63325f-7269-4676-9874-2d78332d7632,draft-v2*%
%TF.SameCoordinates,Original*%
%TF.FileFunction,Drillmap*%
%TF.FilePolarity,Positive*%
%FSLAX45Y45*%
G04 Gerber Fmt 4.5, Leading zero omitted, Abs format (unit mm)*
G04 Created by KiCad (PCBNEW 10.0.3) date 2026-08-20 07:58:22*
%MOMM*%
%LPD*%
G01*
G04 APERTURE LIST*
%ADD10C,0.100000*%
%ADD11C,0.200000*%
%ADD12C,0.165000*%
%ADD13C,0.170000*%
%ADD14C,0.220000*%
%ADD15C,0.300000*%
%ADD16C,0.500000*%
G04 APERTURE END LIST*
D10*
X3520000Y-8905000D02*
X3528000Y-8833000D01*
X3520000Y-10410000D02*
X3520000Y-8905000D01*
X3528000Y-8833000D02*
X3552000Y-8777000D01*
X3528000Y-10482000D02*
X3520000Y-10410000D01*
X3552000Y-8777000D02*
X3592000Y-8737000D01*
X3552000Y-10538000D02*
X3528000Y-10482000D01*
X3592000Y-8737000D02*
X3648000Y-8713000D01*
X3592000Y-10578000D02*
X3552000Y-10538000D01*
X3648000Y-8713000D02*
X3720000Y-8705000D01*
X3648000Y-10602000D02*
X3592000Y-10578000D01*
X3720000Y-8705000D02*
X4272500Y-8705000D01*
X3720000Y-10610000D02*
X3648000Y-10602000D01*
X3796250Y-10610000D02*
X3720000Y-10610000D01*
X3868250Y-10618000D02*
X3796250Y-10610000D01*
X3924250Y-10642000D02*
X3868250Y-10618000D01*
X3964250Y-10682000D02*
X3924250Y-10642000D01*
X3988250Y-10738000D02*
X3964250Y-10682000D01*
X3996250Y-10810000D02*
X3988250Y-10738000D01*
X3996250Y-12315000D02*
X3996250Y-10810000D01*
X4004250Y-12387000D02*
X3996250Y-12315000D01*
X4028250Y-12443000D02*
X4004250Y-12387000D01*
X4068250Y-12483000D02*
X4028250Y-12443000D01*
X4124250Y-12507000D02*
X4068250Y-12483000D01*
X4196250Y-12515000D02*
X4124250Y-12507000D01*
X4272500Y-8705000D02*
X4344500Y-8697000D01*
X4344500Y-8697000D02*
X4400500Y-8673000D01*
X4400500Y-8673000D02*
X4440500Y-8633000D01*
X4440500Y-8633000D02*
X4464500Y-8577000D01*
X4464500Y-8577000D02*
X4472500Y-8505000D01*
X4472500Y-7150000D02*
X4480500Y-7078000D01*
X4472500Y-8505000D02*
X4472500Y-7150000D01*
X4480500Y-7078000D02*
X4504500Y-7022000D01*
X4504500Y-7022000D02*
X4544500Y-6982000D01*
X4544500Y-6982000D02*
X4600500Y-6958000D01*
X4600500Y-6958000D02*
X4672500Y-6950000D01*
X4672500Y-6950000D02*
X5660000Y-6950000D01*
X4748750Y-12515000D02*
X4196250Y-12515000D01*
X4820750Y-12523000D02*
X4748750Y-12515000D01*
X4876750Y-12547000D02*
X4820750Y-12523000D01*
X4916750Y-12587000D02*
X4876750Y-12547000D01*
X4940750Y-12643000D02*
X4916750Y-12587000D01*
X4948750Y-12715000D02*
X4940750Y-12643000D01*
X4948750Y-14220000D02*
X4948750Y-12715000D01*
X4948750Y-14300000D02*
X4948750Y-14220000D01*
X4948750Y-14380000D02*
X4948750Y-14300000D01*
X4948750Y-14460000D02*
X4948750Y-14380000D01*
X4948750Y-14540000D02*
X4948750Y-14460000D01*
X4948750Y-14620000D02*
X4948750Y-14540000D01*
X4948750Y-15975000D02*
X4948750Y-14620000D01*
X4956750Y-16047000D02*
X4948750Y-15975000D01*
X4980750Y-16103000D02*
X4956750Y-16047000D01*
X5020750Y-16143000D02*
X4980750Y-16103000D01*
X5076750Y-16167000D02*
X5020750Y-16143000D01*
X5148750Y-16175000D02*
X5076750Y-16167000D01*
X5660000Y-6950000D02*
X5732000Y-6942000D01*
X5732000Y-6942000D02*
X5788000Y-6918000D01*
X5788000Y-6918000D02*
X5828000Y-6878000D01*
X5828000Y-6878000D02*
X5852000Y-6822000D01*
X5852000Y-6822000D02*
X5860000Y-6750000D01*
X5860000Y-3700000D02*
X5868000Y-3628000D01*
X5860000Y-6750000D02*
X5860000Y-3700000D01*
X5868000Y-3628000D02*
X5892000Y-3572000D01*
X5892000Y-3572000D02*
X5932000Y-3532000D01*
X5932000Y-3532000D02*
X5988000Y-3508000D01*
X5988000Y-3508000D02*
X6060000Y-3500000D01*
X6060000Y-3500000D02*
X9910000Y-3500000D01*
X9910000Y-3500000D02*
X9982000Y-3508000D01*
X9982000Y-3508000D02*
X10038000Y-3532000D01*
X10038000Y-3532000D02*
X10078000Y-3572000D01*
X10078000Y-3572000D02*
X10102000Y-3628000D01*
X10102000Y-3628000D02*
X10110000Y-3700000D01*
X10110000Y-3700000D02*
X10110000Y-6750000D01*
X10110000Y-6750000D02*
X10118000Y-6822000D01*
X10118000Y-6822000D02*
X10142000Y-6878000D01*
X10142000Y-6878000D02*
X10182000Y-6918000D01*
X10182000Y-6918000D02*
X10238000Y-6942000D01*
X10238000Y-6942000D02*
X10310000Y-6950000D01*
X10310000Y-6950000D02*
X19688750Y-6950000D01*
X19688750Y-6950000D02*
X19760750Y-6958000D01*
X19688750Y-16175000D02*
X5148750Y-16175000D01*
X19760750Y-6958000D02*
X19816750Y-6982000D01*
X19760750Y-16167000D02*
X19688750Y-16175000D01*
X19816750Y-6982000D02*
X19856750Y-7022000D01*
X19816750Y-16143000D02*
X19760750Y-16167000D01*
X19856750Y-7022000D02*
X19880750Y-7078000D01*
X19856750Y-16103000D02*
X19816750Y-16143000D01*
X19880750Y-7078000D02*
X19888750Y-7150000D01*
X19880750Y-16047000D02*
X19856750Y-16103000D01*
X19888750Y-7150000D02*
X19888750Y-8505000D01*
X19888750Y-8505000D02*
X19888750Y-8585000D01*
X19888750Y-8585000D02*
X19888750Y-8665000D01*
X19888750Y-8665000D02*
X19888750Y-8745000D01*
X19888750Y-8745000D02*
X19888750Y-8825000D01*
X19888750Y-8825000D02*
X19888750Y-8905000D01*
X19888750Y-8905000D02*
X19888750Y-10410000D01*
X19888750Y-10410000D02*
X19888750Y-10490000D01*
X19888750Y-10490000D02*
X19888750Y-10570000D01*
X19888750Y-10570000D02*
X19888750Y-10650000D01*
X19888750Y-10650000D02*
X19888750Y-10730000D01*
X19888750Y-10730000D02*
X19888750Y-10810000D01*
X19888750Y-10810000D02*
X19888750Y-12315000D01*
X19888750Y-12315000D02*
X19888750Y-12395000D01*
X19888750Y-12395000D02*
X19888750Y-12475000D01*
X19888750Y-12475000D02*
X19888750Y-12555000D01*
X19888750Y-12555000D02*
X19888750Y-12635000D01*
X19888750Y-12635000D02*
X19888750Y-12715000D01*
X19888750Y-12715000D02*
X19888750Y-14220000D01*
X19888750Y-14220000D02*
X19888750Y-14300000D01*
X19888750Y-14300000D02*
X19888750Y-14380000D01*
X19888750Y-14380000D02*
X19888750Y-14460000D01*
X19888750Y-14460000D02*
X19888750Y-14540000D01*
X19888750Y-14540000D02*
X19888750Y-14620000D01*
X19888750Y-14620000D02*
X19888750Y-15975000D01*
X19888750Y-15975000D02*
X19880750Y-16047000D01*
D11*
D12*
X3740000Y-10090000D02*
X3905000Y-10255000D01*
X3905000Y-10090000D02*
X3740000Y-10255000D01*
X4216250Y-11995000D02*
X4381250Y-12160000D01*
X4381250Y-11995000D02*
X4216250Y-12160000D01*
X4692500Y-8185000D02*
X4857500Y-8350000D01*
X4857500Y-8185000D02*
X4692500Y-8350000D01*
X5168750Y-13900000D02*
X5333750Y-14065000D01*
X5333750Y-13900000D02*
X5168750Y-14065000D01*
X5168750Y-15805000D02*
X5333750Y-15970000D01*
X5333750Y-15805000D02*
X5168750Y-15970000D01*
X6645000Y-9060000D02*
X6810000Y-9225000D01*
X6810000Y-9060000D02*
X6645000Y-9225000D01*
X7121250Y-10965000D02*
X7286250Y-11130000D01*
X7286250Y-10965000D02*
X7121250Y-11130000D01*
X7597500Y-7155000D02*
X7762500Y-7320000D01*
X7762500Y-7155000D02*
X7597500Y-7320000D01*
X8073750Y-12870000D02*
X8238750Y-13035000D01*
X8238750Y-12870000D02*
X8073750Y-13035000D01*
X8550000Y-9060000D02*
X8715000Y-9225000D01*
X8715000Y-9060000D02*
X8550000Y-9225000D01*
X8788130Y-14775000D02*
X8953130Y-14940000D01*
X8953130Y-14775000D02*
X8788130Y-14940000D01*
X9026250Y-10965000D02*
X9191250Y-11130000D01*
X9191250Y-10965000D02*
X9026250Y-11130000D01*
X9502500Y-7155000D02*
X9667500Y-7320000D01*
X9667500Y-7155000D02*
X9502500Y-7320000D01*
X9978750Y-12870000D02*
X10143750Y-13035000D01*
X10143750Y-12870000D02*
X9978750Y-13035000D01*
X10455000Y-9060000D02*
X10620000Y-9225000D01*
X10620000Y-9060000D02*
X10455000Y-9225000D01*
X10931250Y-10965000D02*
X11096250Y-11130000D01*
X11096250Y-10965000D02*
X10931250Y-11130000D01*
X11407500Y-7155000D02*
X11572500Y-7320000D01*
X11572500Y-7155000D02*
X11407500Y-7320000D01*
X11645630Y-14775000D02*
X11810630Y-14940000D01*
X11810630Y-14775000D02*
X11645630Y-14940000D01*
X11883750Y-12870000D02*
X12048750Y-13035000D01*
X12048750Y-12870000D02*
X11883750Y-13035000D01*
X12360000Y-9060000D02*
X12525000Y-9225000D01*
X12525000Y-9060000D02*
X12360000Y-9225000D01*
X12836250Y-10965000D02*
X13001250Y-11130000D01*
X13001250Y-10965000D02*
X12836250Y-11130000D01*
X13312500Y-7155000D02*
X13477500Y-7320000D01*
X13477500Y-7155000D02*
X13312500Y-7320000D01*
X13788750Y-12870000D02*
X13953750Y-13035000D01*
X13953750Y-12870000D02*
X13788750Y-13035000D01*
X13788750Y-14775000D02*
X13953750Y-14940000D01*
X13953750Y-14775000D02*
X13788750Y-14940000D01*
X14265000Y-9060000D02*
X14430000Y-9225000D01*
X14430000Y-9060000D02*
X14265000Y-9225000D01*
X14741250Y-10965000D02*
X14906250Y-11130000D01*
X14906250Y-10965000D02*
X14741250Y-11130000D01*
X15217500Y-7155000D02*
X15382500Y-7320000D01*
X15382500Y-7155000D02*
X15217500Y-7320000D01*
X15693750Y-12870000D02*
X15858750Y-13035000D01*
X15858750Y-12870000D02*
X15693750Y-13035000D01*
X15693750Y-14775000D02*
X15858750Y-14940000D01*
X15858750Y-14775000D02*
X15693750Y-14940000D01*
X16170000Y-9060000D02*
X16335000Y-9225000D01*
X16335000Y-9060000D02*
X16170000Y-9225000D01*
X17122500Y-10965000D02*
X17287500Y-11130000D01*
X17287500Y-10965000D02*
X17122500Y-11130000D01*
X17360630Y-7155000D02*
X17525630Y-7320000D01*
X17525630Y-7155000D02*
X17360630Y-7320000D01*
X17598750Y-12870000D02*
X17763750Y-13035000D01*
X17763750Y-12870000D02*
X17598750Y-13035000D01*
X17598750Y-14775000D02*
X17763750Y-14940000D01*
X17763750Y-14775000D02*
X17598750Y-14940000D01*
X18789380Y-9060000D02*
X18954380Y-9225000D01*
X18954380Y-9060000D02*
X18789380Y-9225000D01*
X19503750Y-7155000D02*
X19668750Y-7320000D01*
X19668750Y-7155000D02*
X19503750Y-7320000D01*
X19503750Y-10965000D02*
X19668750Y-11130000D01*
X19668750Y-10965000D02*
X19503750Y-11130000D01*
X19503750Y-12870000D02*
X19668750Y-13035000D01*
X19668750Y-12870000D02*
X19503750Y-13035000D01*
X19503750Y-14775000D02*
X19668750Y-14940000D01*
X19668750Y-14775000D02*
X19503750Y-14940000D01*
D13*
X3899500Y-9657500D02*
G75*
G02*
X3729500Y-9657500I-85000J0D01*
G01*
X3729500Y-9657500D02*
G75*
G02*
X3899500Y-9657500I85000J0D01*
G01*
X4375750Y-11562500D02*
G75*
G02*
X4205750Y-11562500I-85000J0D01*
G01*
X4205750Y-11562500D02*
G75*
G02*
X4375750Y-11562500I85000J0D01*
G01*
X4852000Y-7752500D02*
G75*
G02*
X4682000Y-7752500I-85000J0D01*
G01*
X4682000Y-7752500D02*
G75*
G02*
X4852000Y-7752500I85000J0D01*
G01*
X4915500Y-9657500D02*
G75*
G02*
X4745500Y-9657500I-85000J0D01*
G01*
X4745500Y-9657500D02*
G75*
G02*
X4915500Y-9657500I85000J0D01*
G01*
X5328250Y-13467500D02*
G75*
G02*
X5158250Y-13467500I-85000J0D01*
G01*
X5158250Y-13467500D02*
G75*
G02*
X5328250Y-13467500I85000J0D01*
G01*
X5328250Y-15372500D02*
G75*
G02*
X5158250Y-15372500I-85000J0D01*
G01*
X5158250Y-15372500D02*
G75*
G02*
X5328250Y-15372500I85000J0D01*
G01*
X5391750Y-11562500D02*
G75*
G02*
X5221750Y-11562500I-85000J0D01*
G01*
X5221750Y-11562500D02*
G75*
G02*
X5391750Y-11562500I85000J0D01*
G01*
X5804500Y-9657500D02*
G75*
G02*
X5634500Y-9657500I-85000J0D01*
G01*
X5634500Y-9657500D02*
G75*
G02*
X5804500Y-9657500I85000J0D01*
G01*
X5868000Y-7752500D02*
G75*
G02*
X5698000Y-7752500I-85000J0D01*
G01*
X5698000Y-7752500D02*
G75*
G02*
X5868000Y-7752500I85000J0D01*
G01*
X6280750Y-11562500D02*
G75*
G02*
X6110750Y-11562500I-85000J0D01*
G01*
X6110750Y-11562500D02*
G75*
G02*
X6280750Y-11562500I85000J0D01*
G01*
X6344250Y-13467500D02*
G75*
G02*
X6174250Y-13467500I-85000J0D01*
G01*
X6174250Y-13467500D02*
G75*
G02*
X6344250Y-13467500I85000J0D01*
G01*
X6344250Y-15372500D02*
G75*
G02*
X6174250Y-15372500I-85000J0D01*
G01*
X6174250Y-15372500D02*
G75*
G02*
X6344250Y-15372500I85000J0D01*
G01*
X6757000Y-7752500D02*
G75*
G02*
X6587000Y-7752500I-85000J0D01*
G01*
X6587000Y-7752500D02*
G75*
G02*
X6757000Y-7752500I85000J0D01*
G01*
X6820500Y-9657500D02*
G75*
G02*
X6650500Y-9657500I-85000J0D01*
G01*
X6650500Y-9657500D02*
G75*
G02*
X6820500Y-9657500I85000J0D01*
G01*
X7233250Y-13467500D02*
G75*
G02*
X7063250Y-13467500I-85000J0D01*
G01*
X7063250Y-13467500D02*
G75*
G02*
X7233250Y-13467500I85000J0D01*
G01*
X7296750Y-11562500D02*
G75*
G02*
X7126750Y-11562500I-85000J0D01*
G01*
X7126750Y-11562500D02*
G75*
G02*
X7296750Y-11562500I85000J0D01*
G01*
X7709500Y-9657500D02*
G75*
G02*
X7539500Y-9657500I-85000J0D01*
G01*
X7539500Y-9657500D02*
G75*
G02*
X7709500Y-9657500I85000J0D01*
G01*
X7773000Y-7752500D02*
G75*
G02*
X7603000Y-7752500I-85000J0D01*
G01*
X7603000Y-7752500D02*
G75*
G02*
X7773000Y-7752500I85000J0D01*
G01*
X7947630Y-15372500D02*
G75*
G02*
X7777630Y-15372500I-85000J0D01*
G01*
X7777630Y-15372500D02*
G75*
G02*
X7947630Y-15372500I85000J0D01*
G01*
X8185750Y-11562500D02*
G75*
G02*
X8015750Y-11562500I-85000J0D01*
G01*
X8015750Y-11562500D02*
G75*
G02*
X8185750Y-11562500I85000J0D01*
G01*
X8249250Y-13467500D02*
G75*
G02*
X8079250Y-13467500I-85000J0D01*
G01*
X8079250Y-13467500D02*
G75*
G02*
X8249250Y-13467500I85000J0D01*
G01*
X8662000Y-7752500D02*
G75*
G02*
X8492000Y-7752500I-85000J0D01*
G01*
X8492000Y-7752500D02*
G75*
G02*
X8662000Y-7752500I85000J0D01*
G01*
X8725500Y-9657500D02*
G75*
G02*
X8555500Y-9657500I-85000J0D01*
G01*
X8555500Y-9657500D02*
G75*
G02*
X8725500Y-9657500I85000J0D01*
G01*
X8963630Y-15372500D02*
G75*
G02*
X8793630Y-15372500I-85000J0D01*
G01*
X8793630Y-15372500D02*
G75*
G02*
X8963630Y-15372500I85000J0D01*
G01*
X9138250Y-13467500D02*
G75*
G02*
X8968250Y-13467500I-85000J0D01*
G01*
X8968250Y-13467500D02*
G75*
G02*
X9138250Y-13467500I85000J0D01*
G01*
X9201750Y-11562500D02*
G75*
G02*
X9031750Y-11562500I-85000J0D01*
G01*
X9031750Y-11562500D02*
G75*
G02*
X9201750Y-11562500I85000J0D01*
G01*
X9614500Y-9657500D02*
G75*
G02*
X9444500Y-9657500I-85000J0D01*
G01*
X9444500Y-9657500D02*
G75*
G02*
X9614500Y-9657500I85000J0D01*
G01*
X9678000Y-7752500D02*
G75*
G02*
X9508000Y-7752500I-85000J0D01*
G01*
X9508000Y-7752500D02*
G75*
G02*
X9678000Y-7752500I85000J0D01*
G01*
X10090750Y-11562500D02*
G75*
G02*
X9920750Y-11562500I-85000J0D01*
G01*
X9920750Y-11562500D02*
G75*
G02*
X10090750Y-11562500I85000J0D01*
G01*
X10154250Y-13467500D02*
G75*
G02*
X9984250Y-13467500I-85000J0D01*
G01*
X9984250Y-13467500D02*
G75*
G02*
X10154250Y-13467500I85000J0D01*
G01*
X10567000Y-7752500D02*
G75*
G02*
X10397000Y-7752500I-85000J0D01*
G01*
X10397000Y-7752500D02*
G75*
G02*
X10567000Y-7752500I85000J0D01*
G01*
X10630500Y-9657500D02*
G75*
G02*
X10460500Y-9657500I-85000J0D01*
G01*
X10460500Y-9657500D02*
G75*
G02*
X10630500Y-9657500I85000J0D01*
G01*
X10805130Y-15372500D02*
G75*
G02*
X10635130Y-15372500I-85000J0D01*
G01*
X10635130Y-15372500D02*
G75*
G02*
X10805130Y-15372500I85000J0D01*
G01*
X11043250Y-13467500D02*
G75*
G02*
X10873250Y-13467500I-85000J0D01*
G01*
X10873250Y-13467500D02*
G75*
G02*
X11043250Y-13467500I85000J0D01*
G01*
X11106750Y-11562500D02*
G75*
G02*
X10936750Y-11562500I-85000J0D01*
G01*
X10936750Y-11562500D02*
G75*
G02*
X11106750Y-11562500I85000J0D01*
G01*
X11519500Y-9657500D02*
G75*
G02*
X11349500Y-9657500I-85000J0D01*
G01*
X11349500Y-9657500D02*
G75*
G02*
X11519500Y-9657500I85000J0D01*
G01*
X11583000Y-7752500D02*
G75*
G02*
X11413000Y-7752500I-85000J0D01*
G01*
X11413000Y-7752500D02*
G75*
G02*
X11583000Y-7752500I85000J0D01*
G01*
X11821130Y-15372500D02*
G75*
G02*
X11651130Y-15372500I-85000J0D01*
G01*
X11651130Y-15372500D02*
G75*
G02*
X11821130Y-15372500I85000J0D01*
G01*
X11995750Y-11562500D02*
G75*
G02*
X11825750Y-11562500I-85000J0D01*
G01*
X11825750Y-11562500D02*
G75*
G02*
X11995750Y-11562500I85000J0D01*
G01*
X12059250Y-13467500D02*
G75*
G02*
X11889250Y-13467500I-85000J0D01*
G01*
X11889250Y-13467500D02*
G75*
G02*
X12059250Y-13467500I85000J0D01*
G01*
X12472000Y-7752500D02*
G75*
G02*
X12302000Y-7752500I-85000J0D01*
G01*
X12302000Y-7752500D02*
G75*
G02*
X12472000Y-7752500I85000J0D01*
G01*
X12535500Y-9657500D02*
G75*
G02*
X12365500Y-9657500I-85000J0D01*
G01*
X12365500Y-9657500D02*
G75*
G02*
X12535500Y-9657500I85000J0D01*
G01*
X12948250Y-13467500D02*
G75*
G02*
X12778250Y-13467500I-85000J0D01*
G01*
X12778250Y-13467500D02*
G75*
G02*
X12948250Y-13467500I85000J0D01*
G01*
X12948250Y-15372500D02*
G75*
G02*
X12778250Y-15372500I-85000J0D01*
G01*
X12778250Y-15372500D02*
G75*
G02*
X12948250Y-15372500I85000J0D01*
G01*
X13011750Y-11562500D02*
G75*
G02*
X12841750Y-11562500I-85000J0D01*
G01*
X12841750Y-11562500D02*
G75*
G02*
X13011750Y-11562500I85000J0D01*
G01*
X13424500Y-9657500D02*
G75*
G02*
X13254500Y-9657500I-85000J0D01*
G01*
X13254500Y-9657500D02*
G75*
G02*
X13424500Y-9657500I85000J0D01*
G01*
X13488000Y-7752500D02*
G75*
G02*
X13318000Y-7752500I-85000J0D01*
G01*
X13318000Y-7752500D02*
G75*
G02*
X13488000Y-7752500I85000J0D01*
G01*
X13900750Y-11562500D02*
G75*
G02*
X13730750Y-11562500I-85000J0D01*
G01*
X13730750Y-11562500D02*
G75*
G02*
X13900750Y-11562500I85000J0D01*
G01*
X13964250Y-13467500D02*
G75*
G02*
X13794250Y-13467500I-85000J0D01*
G01*
X13794250Y-13467500D02*
G75*
G02*
X13964250Y-13467500I85000J0D01*
G01*
X13964250Y-15372500D02*
G75*
G02*
X13794250Y-15372500I-85000J0D01*
G01*
X13794250Y-15372500D02*
G75*
G02*
X13964250Y-15372500I85000J0D01*
G01*
X14377000Y-7752500D02*
G75*
G02*
X14207000Y-7752500I-85000J0D01*
G01*
X14207000Y-7752500D02*
G75*
G02*
X14377000Y-7752500I85000J0D01*
G01*
X14440500Y-9657500D02*
G75*
G02*
X14270500Y-9657500I-85000J0D01*
G01*
X14270500Y-9657500D02*
G75*
G02*
X14440500Y-9657500I85000J0D01*
G01*
X14853250Y-13467500D02*
G75*
G02*
X14683250Y-13467500I-85000J0D01*
G01*
X14683250Y-13467500D02*
G75*
G02*
X14853250Y-13467500I85000J0D01*
G01*
X14853250Y-15372500D02*
G75*
G02*
X14683250Y-15372500I-85000J0D01*
G01*
X14683250Y-15372500D02*
G75*
G02*
X14853250Y-15372500I85000J0D01*
G01*
X14916750Y-11562500D02*
G75*
G02*
X14746750Y-11562500I-85000J0D01*
G01*
X14746750Y-11562500D02*
G75*
G02*
X14916750Y-11562500I85000J0D01*
G01*
X15329500Y-9657500D02*
G75*
G02*
X15159500Y-9657500I-85000J0D01*
G01*
X15159500Y-9657500D02*
G75*
G02*
X15329500Y-9657500I85000J0D01*
G01*
X15393000Y-7752500D02*
G75*
G02*
X15223000Y-7752500I-85000J0D01*
G01*
X15223000Y-7752500D02*
G75*
G02*
X15393000Y-7752500I85000J0D01*
G01*
X15869250Y-13467500D02*
G75*
G02*
X15699250Y-13467500I-85000J0D01*
G01*
X15699250Y-13467500D02*
G75*
G02*
X15869250Y-13467500I85000J0D01*
G01*
X15869250Y-15372500D02*
G75*
G02*
X15699250Y-15372500I-85000J0D01*
G01*
X15699250Y-15372500D02*
G75*
G02*
X15869250Y-15372500I85000J0D01*
G01*
X16282000Y-11562500D02*
G75*
G02*
X16112000Y-11562500I-85000J0D01*
G01*
X16112000Y-11562500D02*
G75*
G02*
X16282000Y-11562500I85000J0D01*
G01*
X16345500Y-9657500D02*
G75*
G02*
X16175500Y-9657500I-85000J0D01*
G01*
X16175500Y-9657500D02*
G75*
G02*
X16345500Y-9657500I85000J0D01*
G01*
X16520130Y-7752500D02*
G75*
G02*
X16350130Y-7752500I-85000J0D01*
G01*
X16350130Y-7752500D02*
G75*
G02*
X16520130Y-7752500I85000J0D01*
G01*
X16758250Y-13467500D02*
G75*
G02*
X16588250Y-13467500I-85000J0D01*
G01*
X16588250Y-13467500D02*
G75*
G02*
X16758250Y-13467500I85000J0D01*
G01*
X16758250Y-15372500D02*
G75*
G02*
X16588250Y-15372500I-85000J0D01*
G01*
X16588250Y-15372500D02*
G75*
G02*
X16758250Y-15372500I85000J0D01*
G01*
X17298000Y-11562500D02*
G75*
G02*
X17128000Y-11562500I-85000J0D01*
G01*
X17128000Y-11562500D02*
G75*
G02*
X17298000Y-11562500I85000J0D01*
G01*
X17536130Y-7752500D02*
G75*
G02*
X17366130Y-7752500I-85000J0D01*
G01*
X17366130Y-7752500D02*
G75*
G02*
X17536130Y-7752500I85000J0D01*
G01*
X17774250Y-13467500D02*
G75*
G02*
X17604250Y-13467500I-85000J0D01*
G01*
X17604250Y-13467500D02*
G75*
G02*
X17774250Y-13467500I85000J0D01*
G01*
X17774250Y-15372500D02*
G75*
G02*
X17604250Y-15372500I-85000J0D01*
G01*
X17604250Y-15372500D02*
G75*
G02*
X17774250Y-15372500I85000J0D01*
G01*
X17948880Y-9657500D02*
G75*
G02*
X17778880Y-9657500I-85000J0D01*
G01*
X17778880Y-9657500D02*
G75*
G02*
X17948880Y-9657500I85000J0D01*
G01*
X18663250Y-7752500D02*
G75*
G02*
X18493250Y-7752500I-85000J0D01*
G01*
X18493250Y-7752500D02*
G75*
G02*
X18663250Y-7752500I85000J0D01*
G01*
X18663250Y-11562500D02*
G75*
G02*
X18493250Y-11562500I-85000J0D01*
G01*
X18493250Y-11562500D02*
G75*
G02*
X18663250Y-11562500I85000J0D01*
G01*
X18663250Y-13467500D02*
G75*
G02*
X18493250Y-13467500I-85000J0D01*
G01*
X18493250Y-13467500D02*
G75*
G02*
X18663250Y-13467500I85000J0D01*
G01*
X18663250Y-15372500D02*
G75*
G02*
X18493250Y-15372500I-85000J0D01*
G01*
X18493250Y-15372500D02*
G75*
G02*
X18663250Y-15372500I85000J0D01*
G01*
X18964880Y-9657500D02*
G75*
G02*
X18794880Y-9657500I-85000J0D01*
G01*
X18794880Y-9657500D02*
G75*
G02*
X18964880Y-9657500I85000J0D01*
G01*
X19679250Y-7752500D02*
G75*
G02*
X19509250Y-7752500I-85000J0D01*
G01*
X19509250Y-7752500D02*
G75*
G02*
X19679250Y-7752500I85000J0D01*
G01*
X19679250Y-11562500D02*
G75*
G02*
X19509250Y-11562500I-85000J0D01*
G01*
X19509250Y-11562500D02*
G75*
G02*
X19679250Y-11562500I85000J0D01*
G01*
X19679250Y-13467500D02*
G75*
G02*
X19509250Y-13467500I-85000J0D01*
G01*
X19509250Y-13467500D02*
G75*
G02*
X19679250Y-13467500I85000J0D01*
G01*
X19679250Y-15372500D02*
G75*
G02*
X19509250Y-15372500I-85000J0D01*
G01*
X19509250Y-15372500D02*
G75*
G02*
X19679250Y-15372500I85000J0D01*
G01*
D14*
X9240000Y-4790000D02*
X9240000Y-5010000D01*
X9130000Y-4900000D02*
X9350000Y-4900000D01*
D10*
X9170000Y-5010000D02*
X9310000Y-5010000D01*
X9310000Y-4790000D02*
G75*
G02*
X9310000Y-5010000I0J-110000D01*
G01*
X9310000Y-4790000D02*
X9170000Y-4790000D01*
X9170000Y-4790000D02*
G75*
G03*
X9170000Y-5010000I0J-110000D01*
G01*
D15*
X4428567Y-9173567D02*
X4428567Y-8961433D01*
X4216433Y-8961433D01*
X4216433Y-9173567D01*
X4428567Y-9173567D01*
X4904817Y-11078567D02*
X4904817Y-10866433D01*
X4692683Y-10866433D01*
X4692683Y-11078567D01*
X4904817Y-11078567D01*
X4928567Y-9383567D02*
X4928567Y-9171433D01*
X4716433Y-9171433D01*
X4716433Y-9383567D01*
X4928567Y-9383567D01*
X5381067Y-7268567D02*
X5381067Y-7056433D01*
X5168933Y-7056433D01*
X5168933Y-7268567D01*
X5381067Y-7268567D01*
X5404817Y-11288567D02*
X5404817Y-11076433D01*
X5192683Y-11076433D01*
X5192683Y-11288567D01*
X5404817Y-11288567D01*
X5833567Y-10143567D02*
X5833567Y-9931433D01*
X5621433Y-9931433D01*
X5621433Y-10143567D01*
X5833567Y-10143567D01*
X5857317Y-12983567D02*
X5857317Y-12771433D01*
X5645183Y-12771433D01*
X5645183Y-12983567D01*
X5857317Y-12983567D01*
X5857317Y-14888567D02*
X5857317Y-14676433D01*
X5645183Y-14676433D01*
X5645183Y-14888567D01*
X5857317Y-14888567D01*
X5881067Y-7478567D02*
X5881067Y-7266433D01*
X5668933Y-7266433D01*
X5668933Y-7478567D01*
X5881067Y-7478567D01*
X6309817Y-12048567D02*
X6309817Y-11836433D01*
X6097683Y-11836433D01*
X6097683Y-12048567D01*
X6309817Y-12048567D01*
X6333567Y-10353567D02*
X6333567Y-10141433D01*
X6121433Y-10141433D01*
X6121433Y-10353567D01*
X6333567Y-10353567D01*
X6357317Y-13193567D02*
X6357317Y-12981433D01*
X6145183Y-12981433D01*
X6145183Y-13193567D01*
X6357317Y-13193567D01*
X6357317Y-15098567D02*
X6357317Y-14886433D01*
X6145183Y-14886433D01*
X6145183Y-15098567D01*
X6357317Y-15098567D01*
X6786067Y-8238567D02*
X6786067Y-8026433D01*
X6573933Y-8026433D01*
X6573933Y-8238567D01*
X6786067Y-8238567D01*
X6809817Y-12258567D02*
X6809817Y-12046433D01*
X6597683Y-12046433D01*
X6597683Y-12258567D01*
X6809817Y-12258567D01*
X7262317Y-13953567D02*
X7262317Y-13741433D01*
X7050183Y-13741433D01*
X7050183Y-13953567D01*
X7262317Y-13953567D01*
X7286067Y-8448567D02*
X7286067Y-8236433D01*
X7073933Y-8236433D01*
X7073933Y-8448567D01*
X7286067Y-8448567D01*
X7738567Y-10143567D02*
X7738567Y-9931433D01*
X7526433Y-9931433D01*
X7526433Y-10143567D01*
X7738567Y-10143567D01*
X7762317Y-14163567D02*
X7762317Y-13951433D01*
X7550183Y-13951433D01*
X7550183Y-14163567D01*
X7762317Y-14163567D01*
X7976697Y-15858567D02*
X7976697Y-15646433D01*
X7764563Y-15646433D01*
X7764563Y-15858567D01*
X7976697Y-15858567D01*
X8214817Y-12048567D02*
X8214817Y-11836433D01*
X8002683Y-11836433D01*
X8002683Y-12048567D01*
X8214817Y-12048567D01*
X8238567Y-10353567D02*
X8238567Y-10141433D01*
X8026433Y-10141433D01*
X8026433Y-10353567D01*
X8238567Y-10353567D01*
X8476697Y-16068567D02*
X8476697Y-15856433D01*
X8264563Y-15856433D01*
X8264563Y-16068567D01*
X8476697Y-16068567D01*
X8691067Y-8238567D02*
X8691067Y-8026433D01*
X8478933Y-8026433D01*
X8478933Y-8238567D01*
X8691067Y-8238567D01*
X8714817Y-12258567D02*
X8714817Y-12046433D01*
X8502683Y-12046433D01*
X8502683Y-12258567D01*
X8714817Y-12258567D01*
X9167317Y-13953567D02*
X9167317Y-13741433D01*
X8955183Y-13741433D01*
X8955183Y-13953567D01*
X9167317Y-13953567D01*
X9191067Y-8448567D02*
X9191067Y-8236433D01*
X8978933Y-8236433D01*
X8978933Y-8448567D01*
X9191067Y-8448567D01*
X9643567Y-10143567D02*
X9643567Y-9931433D01*
X9431433Y-9931433D01*
X9431433Y-10143567D01*
X9643567Y-10143567D01*
X9667317Y-14163567D02*
X9667317Y-13951433D01*
X9455183Y-13951433D01*
X9455183Y-14163567D01*
X9667317Y-14163567D01*
X10119817Y-12048567D02*
X10119817Y-11836433D01*
X9907683Y-11836433D01*
X9907683Y-12048567D01*
X10119817Y-12048567D01*
X10143567Y-10353567D02*
X10143567Y-10141433D01*
X9931433Y-10141433D01*
X9931433Y-10353567D01*
X10143567Y-10353567D01*
X10596067Y-8238567D02*
X10596067Y-8026433D01*
X10383933Y-8026433D01*
X10383933Y-8238567D01*
X10596067Y-8238567D01*
X10619817Y-12258567D02*
X10619817Y-12046433D01*
X10407683Y-12046433D01*
X10407683Y-12258567D01*
X10619817Y-12258567D01*
X10834197Y-15858567D02*
X10834197Y-15646433D01*
X10622063Y-15646433D01*
X10622063Y-15858567D01*
X10834197Y-15858567D01*
X11072317Y-13953567D02*
X11072317Y-13741433D01*
X10860183Y-13741433D01*
X10860183Y-13953567D01*
X11072317Y-13953567D01*
X11096067Y-8448567D02*
X11096067Y-8236433D01*
X10883933Y-8236433D01*
X10883933Y-8448567D01*
X11096067Y-8448567D01*
X11334197Y-16068567D02*
X11334197Y-15856433D01*
X11122063Y-15856433D01*
X11122063Y-16068567D01*
X11334197Y-16068567D01*
X11548567Y-10143567D02*
X11548567Y-9931433D01*
X11336433Y-9931433D01*
X11336433Y-10143567D01*
X11548567Y-10143567D01*
X11572317Y-14163567D02*
X11572317Y-13951433D01*
X11360183Y-13951433D01*
X11360183Y-14163567D01*
X11572317Y-14163567D01*
X12024817Y-12048567D02*
X12024817Y-11836433D01*
X11812683Y-11836433D01*
X11812683Y-12048567D01*
X12024817Y-12048567D01*
X12048567Y-10353567D02*
X12048567Y-10141433D01*
X11836433Y-10141433D01*
X11836433Y-10353567D01*
X12048567Y-10353567D01*
X12501067Y-8238567D02*
X12501067Y-8026433D01*
X12288933Y-8026433D01*
X12288933Y-8238567D01*
X12501067Y-8238567D01*
X12524817Y-12258567D02*
X12524817Y-12046433D01*
X12312683Y-12046433D01*
X12312683Y-12258567D01*
X12524817Y-12258567D01*
X12977317Y-13953567D02*
X12977317Y-13741433D01*
X12765183Y-13741433D01*
X12765183Y-13953567D01*
X12977317Y-13953567D01*
X12977317Y-15858567D02*
X12977317Y-15646433D01*
X12765183Y-15646433D01*
X12765183Y-15858567D01*
X12977317Y-15858567D01*
X13001067Y-8448567D02*
X13001067Y-8236433D01*
X12788933Y-8236433D01*
X12788933Y-8448567D01*
X13001067Y-8448567D01*
X13453567Y-10143567D02*
X13453567Y-9931433D01*
X13241433Y-9931433D01*
X13241433Y-10143567D01*
X13453567Y-10143567D01*
X13477317Y-14163567D02*
X13477317Y-13951433D01*
X13265183Y-13951433D01*
X13265183Y-14163567D01*
X13477317Y-14163567D01*
X13477317Y-16068567D02*
X13477317Y-15856433D01*
X13265183Y-15856433D01*
X13265183Y-16068567D01*
X13477317Y-16068567D01*
X13929817Y-12048567D02*
X13929817Y-11836433D01*
X13717683Y-11836433D01*
X13717683Y-12048567D01*
X13929817Y-12048567D01*
X13953567Y-10353567D02*
X13953567Y-10141433D01*
X13741433Y-10141433D01*
X13741433Y-10353567D01*
X13953567Y-10353567D01*
X14406067Y-8238567D02*
X14406067Y-8026433D01*
X14193933Y-8026433D01*
X14193933Y-8238567D01*
X14406067Y-8238567D01*
X14429817Y-12258567D02*
X14429817Y-12046433D01*
X14217683Y-12046433D01*
X14217683Y-12258567D01*
X14429817Y-12258567D01*
X14882317Y-13953567D02*
X14882317Y-13741433D01*
X14670183Y-13741433D01*
X14670183Y-13953567D01*
X14882317Y-13953567D01*
X14882317Y-15858567D02*
X14882317Y-15646433D01*
X14670183Y-15646433D01*
X14670183Y-15858567D01*
X14882317Y-15858567D01*
X14906067Y-8448567D02*
X14906067Y-8236433D01*
X14693933Y-8236433D01*
X14693933Y-8448567D01*
X14906067Y-8448567D01*
X15358567Y-10143567D02*
X15358567Y-9931433D01*
X15146433Y-9931433D01*
X15146433Y-10143567D01*
X15358567Y-10143567D01*
X15382317Y-14163567D02*
X15382317Y-13951433D01*
X15170183Y-13951433D01*
X15170183Y-14163567D01*
X15382317Y-14163567D01*
X15382317Y-16068567D02*
X15382317Y-15856433D01*
X15170183Y-15856433D01*
X15170183Y-16068567D01*
X15382317Y-16068567D01*
X15858567Y-10353567D02*
X15858567Y-10141433D01*
X15646433Y-10141433D01*
X15646433Y-10353567D01*
X15858567Y-10353567D01*
X16311067Y-12048567D02*
X16311067Y-11836433D01*
X16098933Y-11836433D01*
X16098933Y-12048567D01*
X16311067Y-12048567D01*
X16549197Y-8238567D02*
X16549197Y-8026433D01*
X16337063Y-8026433D01*
X16337063Y-8238567D01*
X16549197Y-8238567D01*
X16787317Y-13953567D02*
X16787317Y-13741433D01*
X16575183Y-13741433D01*
X16575183Y-13953567D01*
X16787317Y-13953567D01*
X16787317Y-15858567D02*
X16787317Y-15646433D01*
X16575183Y-15646433D01*
X16575183Y-15858567D01*
X16787317Y-15858567D01*
X16811067Y-12258567D02*
X16811067Y-12046433D01*
X16598933Y-12046433D01*
X16598933Y-12258567D01*
X16811067Y-12258567D01*
X17049197Y-8448567D02*
X17049197Y-8236433D01*
X16837063Y-8236433D01*
X16837063Y-8448567D01*
X17049197Y-8448567D01*
X17287317Y-14163567D02*
X17287317Y-13951433D01*
X17075183Y-13951433D01*
X17075183Y-14163567D01*
X17287317Y-14163567D01*
X17287317Y-16068567D02*
X17287317Y-15856433D01*
X17075183Y-15856433D01*
X17075183Y-16068567D01*
X17287317Y-16068567D01*
X17977947Y-10143567D02*
X17977947Y-9931433D01*
X17765813Y-9931433D01*
X17765813Y-10143567D01*
X17977947Y-10143567D01*
X18477947Y-10353567D02*
X18477947Y-10141433D01*
X18265813Y-10141433D01*
X18265813Y-10353567D01*
X18477947Y-10353567D01*
X18692317Y-8238567D02*
X18692317Y-8026433D01*
X18480183Y-8026433D01*
X18480183Y-8238567D01*
X18692317Y-8238567D01*
X18692317Y-12048567D02*
X18692317Y-11836433D01*
X18480183Y-11836433D01*
X18480183Y-12048567D01*
X18692317Y-12048567D01*
X18692317Y-13953567D02*
X18692317Y-13741433D01*
X18480183Y-13741433D01*
X18480183Y-13953567D01*
X18692317Y-13953567D01*
X18692317Y-15858567D02*
X18692317Y-15646433D01*
X18480183Y-15646433D01*
X18480183Y-15858567D01*
X18692317Y-15858567D01*
X19192317Y-8448567D02*
X19192317Y-8236433D01*
X18980183Y-8236433D01*
X18980183Y-8448567D01*
X19192317Y-8448567D01*
X19192317Y-12258567D02*
X19192317Y-12046433D01*
X18980183Y-12046433D01*
X18980183Y-12258567D01*
X19192317Y-12258567D01*
X19192317Y-14163567D02*
X19192317Y-13951433D01*
X18980183Y-13951433D01*
X18980183Y-14163567D01*
X19192317Y-14163567D01*
X19192317Y-16068567D02*
X19192317Y-15856433D01*
X18980183Y-15856433D01*
X18980183Y-16068567D01*
X19192317Y-16068567D01*
D16*
X4322500Y-9907500D02*
X4572500Y-9657500D01*
X4322500Y-9407500D01*
X4072500Y-9657500D01*
X4322500Y-9907500D01*
X4798750Y-11812500D02*
X5048750Y-11562500D01*
X4798750Y-11312500D01*
X4548750Y-11562500D01*
X4798750Y-11812500D01*
X5275000Y-8002500D02*
X5525000Y-7752500D01*
X5275000Y-7502500D01*
X5025000Y-7752500D01*
X5275000Y-8002500D01*
X5751250Y-13717500D02*
X6001250Y-13467500D01*
X5751250Y-13217500D01*
X5501250Y-13467500D01*
X5751250Y-13717500D01*
X5751250Y-15622500D02*
X6001250Y-15372500D01*
X5751250Y-15122500D01*
X5501250Y-15372500D01*
X5751250Y-15622500D01*
X6227500Y-9907500D02*
X6477500Y-9657500D01*
X6227500Y-9407500D01*
X5977500Y-9657500D01*
X6227500Y-9907500D01*
X6703750Y-11812500D02*
X6953750Y-11562500D01*
X6703750Y-11312500D01*
X6453750Y-11562500D01*
X6703750Y-11812500D01*
X7180000Y-8002500D02*
X7430000Y-7752500D01*
X7180000Y-7502500D01*
X6930000Y-7752500D01*
X7180000Y-8002500D01*
X7656250Y-13717500D02*
X7906250Y-13467500D01*
X7656250Y-13217500D01*
X7406250Y-13467500D01*
X7656250Y-13717500D01*
X8132500Y-9907500D02*
X8382500Y-9657500D01*
X8132500Y-9407500D01*
X7882500Y-9657500D01*
X8132500Y-9907500D01*
X8370630Y-15622500D02*
X8620630Y-15372500D01*
X8370630Y-15122500D01*
X8120630Y-15372500D01*
X8370630Y-15622500D01*
X8608750Y-11812500D02*
X8858750Y-11562500D01*
X8608750Y-11312500D01*
X8358750Y-11562500D01*
X8608750Y-11812500D01*
X9085000Y-8002500D02*
X9335000Y-7752500D01*
X9085000Y-7502500D01*
X8835000Y-7752500D01*
X9085000Y-8002500D01*
X9561250Y-13717500D02*
X9811250Y-13467500D01*
X9561250Y-13217500D01*
X9311250Y-13467500D01*
X9561250Y-13717500D01*
X10037500Y-9907500D02*
X10287500Y-9657500D01*
X10037500Y-9407500D01*
X9787500Y-9657500D01*
X10037500Y-9907500D01*
X10513750Y-11812500D02*
X10763750Y-11562500D01*
X10513750Y-11312500D01*
X10263750Y-11562500D01*
X10513750Y-11812500D01*
X10990000Y-8002500D02*
X11240000Y-7752500D01*
X10990000Y-7502500D01*
X10740000Y-7752500D01*
X10990000Y-8002500D01*
X11228130Y-15622500D02*
X11478130Y-15372500D01*
X11228130Y-15122500D01*
X10978130Y-15372500D01*
X11228130Y-15622500D01*
X11466250Y-13717500D02*
X11716250Y-13467500D01*
X11466250Y-13217500D01*
X11216250Y-13467500D01*
X11466250Y-13717500D01*
X11942500Y-9907500D02*
X12192500Y-9657500D01*
X11942500Y-9407500D01*
X11692500Y-9657500D01*
X11942500Y-9907500D01*
X12418750Y-11812500D02*
X12668750Y-11562500D01*
X12418750Y-11312500D01*
X12168750Y-11562500D01*
X12418750Y-11812500D01*
X12895000Y-8002500D02*
X13145000Y-7752500D01*
X12895000Y-7502500D01*
X12645000Y-7752500D01*
X12895000Y-8002500D01*
X13371250Y-13717500D02*
X13621250Y-13467500D01*
X13371250Y-13217500D01*
X13121250Y-13467500D01*
X13371250Y-13717500D01*
X13371250Y-15622500D02*
X13621250Y-15372500D01*
X13371250Y-15122500D01*
X13121250Y-15372500D01*
X13371250Y-15622500D01*
X13847500Y-9907500D02*
X14097500Y-9657500D01*
X13847500Y-9407500D01*
X13597500Y-9657500D01*
X13847500Y-9907500D01*
X14323750Y-11812500D02*
X14573750Y-11562500D01*
X14323750Y-11312500D01*
X14073750Y-11562500D01*
X14323750Y-11812500D01*
X14800000Y-8002500D02*
X15050000Y-7752500D01*
X14800000Y-7502500D01*
X14550000Y-7752500D01*
X14800000Y-8002500D01*
X15276250Y-13717500D02*
X15526250Y-13467500D01*
X15276250Y-13217500D01*
X15026250Y-13467500D01*
X15276250Y-13717500D01*
X15276250Y-15622500D02*
X15526250Y-15372500D01*
X15276250Y-15122500D01*
X15026250Y-15372500D01*
X15276250Y-15622500D01*
X15752500Y-9907500D02*
X16002500Y-9657500D01*
X15752500Y-9407500D01*
X15502500Y-9657500D01*
X15752500Y-9907500D01*
X16705000Y-11812500D02*
X16955000Y-11562500D01*
X16705000Y-11312500D01*
X16455000Y-11562500D01*
X16705000Y-11812500D01*
X16943130Y-8002500D02*
X17193130Y-7752500D01*
X16943130Y-7502500D01*
X16693130Y-7752500D01*
X16943130Y-8002500D01*
X17181250Y-13717500D02*
X17431250Y-13467500D01*
X17181250Y-13217500D01*
X16931250Y-13467500D01*
X17181250Y-13717500D01*
X17181250Y-15622500D02*
X17431250Y-15372500D01*
X17181250Y-15122500D01*
X16931250Y-15372500D01*
X17181250Y-15622500D01*
X18371880Y-9907500D02*
X18621880Y-9657500D01*
X18371880Y-9407500D01*
X18121880Y-9657500D01*
X18371880Y-9907500D01*
X19086250Y-8002500D02*
X19336250Y-7752500D01*
X19086250Y-7502500D01*
X18836250Y-7752500D01*
X19086250Y-8002500D01*
X19086250Y-11812500D02*
X19336250Y-11562500D01*
X19086250Y-11312500D01*
X18836250Y-11562500D01*
X19086250Y-11812500D01*
X19086250Y-13717500D02*
X19336250Y-13467500D01*
X19086250Y-13217500D01*
X18836250Y-13467500D01*
X19086250Y-13717500D01*
X19086250Y-15622500D02*
X19336250Y-15372500D01*
X19086250Y-15122500D01*
X18836250Y-15372500D01*
X19086250Y-15622500D01*
D11*
X3775777Y-16491484D02*
X3775777Y-16291484D01*
X3775777Y-16291484D02*
X3823396Y-16291484D01*
X3823396Y-16291484D02*
X3851967Y-16301008D01*
X3851967Y-16301008D02*
X3871015Y-16320055D01*
X3871015Y-16320055D02*
X3880539Y-16339103D01*
X3880539Y-16339103D02*
X3890062Y-16377198D01*
X3890062Y-16377198D02*
X3890062Y-16405769D01*
X3890062Y-16405769D02*
X3880539Y-16443865D01*
X3880539Y-16443865D02*
X3871015Y-16462912D01*
X3871015Y-16462912D02*
X3851967Y-16481960D01*
X3851967Y-16481960D02*
X3823396Y-16491484D01*
X3823396Y-16491484D02*
X3775777Y-16491484D01*
X3975777Y-16491484D02*
X3975777Y-16358150D01*
X3975777Y-16396246D02*
X3985301Y-16377198D01*
X3985301Y-16377198D02*
X3994824Y-16367674D01*
X3994824Y-16367674D02*
X4013872Y-16358150D01*
X4013872Y-16358150D02*
X4032920Y-16358150D01*
X4099586Y-16491484D02*
X4099586Y-16358150D01*
X4099586Y-16291484D02*
X4090062Y-16301008D01*
X4090062Y-16301008D02*
X4099586Y-16310531D01*
X4099586Y-16310531D02*
X4109110Y-16301008D01*
X4109110Y-16301008D02*
X4099586Y-16291484D01*
X4099586Y-16291484D02*
X4099586Y-16310531D01*
X4223396Y-16491484D02*
X4204348Y-16481960D01*
X4204348Y-16481960D02*
X4194824Y-16462912D01*
X4194824Y-16462912D02*
X4194824Y-16291484D01*
X4328158Y-16491484D02*
X4309110Y-16481960D01*
X4309110Y-16481960D02*
X4299586Y-16462912D01*
X4299586Y-16462912D02*
X4299586Y-16291484D01*
X4556729Y-16491484D02*
X4556729Y-16291484D01*
X4556729Y-16291484D02*
X4623396Y-16434341D01*
X4623396Y-16434341D02*
X4690063Y-16291484D01*
X4690063Y-16291484D02*
X4690063Y-16491484D01*
X4871015Y-16491484D02*
X4871015Y-16386722D01*
X4871015Y-16386722D02*
X4861491Y-16367674D01*
X4861491Y-16367674D02*
X4842444Y-16358150D01*
X4842444Y-16358150D02*
X4804348Y-16358150D01*
X4804348Y-16358150D02*
X4785301Y-16367674D01*
X4871015Y-16481960D02*
X4851967Y-16491484D01*
X4851967Y-16491484D02*
X4804348Y-16491484D01*
X4804348Y-16491484D02*
X4785301Y-16481960D01*
X4785301Y-16481960D02*
X4775777Y-16462912D01*
X4775777Y-16462912D02*
X4775777Y-16443865D01*
X4775777Y-16443865D02*
X4785301Y-16424817D01*
X4785301Y-16424817D02*
X4804348Y-16415293D01*
X4804348Y-16415293D02*
X4851967Y-16415293D01*
X4851967Y-16415293D02*
X4871015Y-16405769D01*
X4966253Y-16358150D02*
X4966253Y-16558150D01*
X4966253Y-16367674D02*
X4985301Y-16358150D01*
X4985301Y-16358150D02*
X5023396Y-16358150D01*
X5023396Y-16358150D02*
X5042444Y-16367674D01*
X5042444Y-16367674D02*
X5051967Y-16377198D01*
X5051967Y-16377198D02*
X5061491Y-16396246D01*
X5061491Y-16396246D02*
X5061491Y-16453388D01*
X5061491Y-16453388D02*
X5051967Y-16472436D01*
X5051967Y-16472436D02*
X5042444Y-16481960D01*
X5042444Y-16481960D02*
X5023396Y-16491484D01*
X5023396Y-16491484D02*
X4985301Y-16491484D01*
X4985301Y-16491484D02*
X4966253Y-16481960D01*
X5147205Y-16472436D02*
X5156729Y-16481960D01*
X5156729Y-16481960D02*
X5147205Y-16491484D01*
X5147205Y-16491484D02*
X5137682Y-16481960D01*
X5137682Y-16481960D02*
X5147205Y-16472436D01*
X5147205Y-16472436D02*
X5147205Y-16491484D01*
X5147205Y-16367674D02*
X5156729Y-16377198D01*
X5156729Y-16377198D02*
X5147205Y-16386722D01*
X5147205Y-16386722D02*
X5137682Y-16377198D01*
X5137682Y-16377198D02*
X5147205Y-16367674D01*
X5147205Y-16367674D02*
X5147205Y-16386722D01*
D12*
X3350000Y-16737500D02*
X3515000Y-16902500D01*
X3515000Y-16737500D02*
X3350000Y-16902500D01*
D11*
X3880539Y-16911484D02*
X3766253Y-16911484D01*
X3823396Y-16911484D02*
X3823396Y-16711484D01*
X3823396Y-16711484D02*
X3804348Y-16740055D01*
X3804348Y-16740055D02*
X3785301Y-16759103D01*
X3785301Y-16759103D02*
X3766253Y-16768627D01*
X3966253Y-16892436D02*
X3975777Y-16901960D01*
X3975777Y-16901960D02*
X3966253Y-16911484D01*
X3966253Y-16911484D02*
X3956729Y-16901960D01*
X3956729Y-16901960D02*
X3966253Y-16892436D01*
X3966253Y-16892436D02*
X3966253Y-16911484D01*
X4147205Y-16711484D02*
X4109110Y-16711484D01*
X4109110Y-16711484D02*
X4090062Y-16721008D01*
X4090062Y-16721008D02*
X4080539Y-16730531D01*
X4080539Y-16730531D02*
X4061491Y-16759103D01*
X4061491Y-16759103D02*
X4051967Y-16797198D01*
X4051967Y-16797198D02*
X4051967Y-16873389D01*
X4051967Y-16873389D02*
X4061491Y-16892436D01*
X4061491Y-16892436D02*
X4071015Y-16901960D01*
X4071015Y-16901960D02*
X4090062Y-16911484D01*
X4090062Y-16911484D02*
X4128158Y-16911484D01*
X4128158Y-16911484D02*
X4147205Y-16901960D01*
X4147205Y-16901960D02*
X4156729Y-16892436D01*
X4156729Y-16892436D02*
X4166253Y-16873389D01*
X4166253Y-16873389D02*
X4166253Y-16825770D01*
X4166253Y-16825770D02*
X4156729Y-16806722D01*
X4156729Y-16806722D02*
X4147205Y-16797198D01*
X4147205Y-16797198D02*
X4128158Y-16787674D01*
X4128158Y-16787674D02*
X4090062Y-16787674D01*
X4090062Y-16787674D02*
X4071015Y-16797198D01*
X4071015Y-16797198D02*
X4061491Y-16806722D01*
X4061491Y-16806722D02*
X4051967Y-16825770D01*
X4347205Y-16711484D02*
X4251967Y-16711484D01*
X4251967Y-16711484D02*
X4242444Y-16806722D01*
X4242444Y-16806722D02*
X4251967Y-16797198D01*
X4251967Y-16797198D02*
X4271015Y-16787674D01*
X4271015Y-16787674D02*
X4318634Y-16787674D01*
X4318634Y-16787674D02*
X4337682Y-16797198D01*
X4337682Y-16797198D02*
X4347205Y-16806722D01*
X4347205Y-16806722D02*
X4356729Y-16825770D01*
X4356729Y-16825770D02*
X4356729Y-16873389D01*
X4356729Y-16873389D02*
X4347205Y-16892436D01*
X4347205Y-16892436D02*
X4337682Y-16901960D01*
X4337682Y-16901960D02*
X4318634Y-16911484D01*
X4318634Y-16911484D02*
X4271015Y-16911484D01*
X4271015Y-16911484D02*
X4251967Y-16901960D01*
X4251967Y-16901960D02*
X4242444Y-16892436D01*
X4480539Y-16711484D02*
X4499586Y-16711484D01*
X4499586Y-16711484D02*
X4518634Y-16721008D01*
X4518634Y-16721008D02*
X4528158Y-16730531D01*
X4528158Y-16730531D02*
X4537682Y-16749579D01*
X4537682Y-16749579D02*
X4547205Y-16787674D01*
X4547205Y-16787674D02*
X4547205Y-16835293D01*
X4547205Y-16835293D02*
X4537682Y-16873389D01*
X4537682Y-16873389D02*
X4528158Y-16892436D01*
X4528158Y-16892436D02*
X4518634Y-16901960D01*
X4518634Y-16901960D02*
X4499586Y-16911484D01*
X4499586Y-16911484D02*
X4480539Y-16911484D01*
X4480539Y-16911484D02*
X4461491Y-16901960D01*
X4461491Y-16901960D02*
X4451967Y-16892436D01*
X4451967Y-16892436D02*
X4442444Y-16873389D01*
X4442444Y-16873389D02*
X4432920Y-16835293D01*
X4432920Y-16835293D02*
X4432920Y-16787674D01*
X4432920Y-16787674D02*
X4442444Y-16749579D01*
X4442444Y-16749579D02*
X4451967Y-16730531D01*
X4451967Y-16730531D02*
X4461491Y-16721008D01*
X4461491Y-16721008D02*
X4480539Y-16711484D01*
X4632920Y-16911484D02*
X4632920Y-16778150D01*
X4632920Y-16797198D02*
X4642444Y-16787674D01*
X4642444Y-16787674D02*
X4661491Y-16778150D01*
X4661491Y-16778150D02*
X4690063Y-16778150D01*
X4690063Y-16778150D02*
X4709110Y-16787674D01*
X4709110Y-16787674D02*
X4718634Y-16806722D01*
X4718634Y-16806722D02*
X4718634Y-16911484D01*
X4718634Y-16806722D02*
X4728158Y-16787674D01*
X4728158Y-16787674D02*
X4747205Y-16778150D01*
X4747205Y-16778150D02*
X4775777Y-16778150D01*
X4775777Y-16778150D02*
X4794825Y-16787674D01*
X4794825Y-16787674D02*
X4804348Y-16806722D01*
X4804348Y-16806722D02*
X4804348Y-16911484D01*
X4899586Y-16911484D02*
X4899586Y-16778150D01*
X4899586Y-16797198D02*
X4909110Y-16787674D01*
X4909110Y-16787674D02*
X4928158Y-16778150D01*
X4928158Y-16778150D02*
X4956729Y-16778150D01*
X4956729Y-16778150D02*
X4975777Y-16787674D01*
X4975777Y-16787674D02*
X4985301Y-16806722D01*
X4985301Y-16806722D02*
X4985301Y-16911484D01*
X4985301Y-16806722D02*
X4994825Y-16787674D01*
X4994825Y-16787674D02*
X5013872Y-16778150D01*
X5013872Y-16778150D02*
X5042444Y-16778150D01*
X5042444Y-16778150D02*
X5061491Y-16787674D01*
X5061491Y-16787674D02*
X5071015Y-16806722D01*
X5071015Y-16806722D02*
X5071015Y-16911484D01*
X5461491Y-16701960D02*
X5290063Y-16959103D01*
X5718634Y-16711484D02*
X5737682Y-16711484D01*
X5737682Y-16711484D02*
X5756729Y-16721008D01*
X5756729Y-16721008D02*
X5766253Y-16730531D01*
X5766253Y-16730531D02*
X5775777Y-16749579D01*
X5775777Y-16749579D02*
X5785301Y-16787674D01*
X5785301Y-16787674D02*
X5785301Y-16835293D01*
X5785301Y-16835293D02*
X5775777Y-16873389D01*
X5775777Y-16873389D02*
X5766253Y-16892436D01*
X5766253Y-16892436D02*
X5756729Y-16901960D01*
X5756729Y-16901960D02*
X5737682Y-16911484D01*
X5737682Y-16911484D02*
X5718634Y-16911484D01*
X5718634Y-16911484D02*
X5699586Y-16901960D01*
X5699586Y-16901960D02*
X5690063Y-16892436D01*
X5690063Y-16892436D02*
X5680539Y-16873389D01*
X5680539Y-16873389D02*
X5671015Y-16835293D01*
X5671015Y-16835293D02*
X5671015Y-16787674D01*
X5671015Y-16787674D02*
X5680539Y-16749579D01*
X5680539Y-16749579D02*
X5690063Y-16730531D01*
X5690063Y-16730531D02*
X5699586Y-16721008D01*
X5699586Y-16721008D02*
X5718634Y-16711484D01*
X5871015Y-16892436D02*
X5880539Y-16901960D01*
X5880539Y-16901960D02*
X5871015Y-16911484D01*
X5871015Y-16911484D02*
X5861491Y-16901960D01*
X5861491Y-16901960D02*
X5871015Y-16892436D01*
X5871015Y-16892436D02*
X5871015Y-16911484D01*
X6004348Y-16711484D02*
X6023396Y-16711484D01*
X6023396Y-16711484D02*
X6042444Y-16721008D01*
X6042444Y-16721008D02*
X6051967Y-16730531D01*
X6051967Y-16730531D02*
X6061491Y-16749579D01*
X6061491Y-16749579D02*
X6071015Y-16787674D01*
X6071015Y-16787674D02*
X6071015Y-16835293D01*
X6071015Y-16835293D02*
X6061491Y-16873389D01*
X6061491Y-16873389D02*
X6051967Y-16892436D01*
X6051967Y-16892436D02*
X6042444Y-16901960D01*
X6042444Y-16901960D02*
X6023396Y-16911484D01*
X6023396Y-16911484D02*
X6004348Y-16911484D01*
X6004348Y-16911484D02*
X5985301Y-16901960D01*
X5985301Y-16901960D02*
X5975777Y-16892436D01*
X5975777Y-16892436D02*
X5966253Y-16873389D01*
X5966253Y-16873389D02*
X5956729Y-16835293D01*
X5956729Y-16835293D02*
X5956729Y-16787674D01*
X5956729Y-16787674D02*
X5966253Y-16749579D01*
X5966253Y-16749579D02*
X5975777Y-16730531D01*
X5975777Y-16730531D02*
X5985301Y-16721008D01*
X5985301Y-16721008D02*
X6004348Y-16711484D01*
X6242444Y-16711484D02*
X6204348Y-16711484D01*
X6204348Y-16711484D02*
X6185301Y-16721008D01*
X6185301Y-16721008D02*
X6175777Y-16730531D01*
X6175777Y-16730531D02*
X6156729Y-16759103D01*
X6156729Y-16759103D02*
X6147206Y-16797198D01*
X6147206Y-16797198D02*
X6147206Y-16873389D01*
X6147206Y-16873389D02*
X6156729Y-16892436D01*
X6156729Y-16892436D02*
X6166253Y-16901960D01*
X6166253Y-16901960D02*
X6185301Y-16911484D01*
X6185301Y-16911484D02*
X6223396Y-16911484D01*
X6223396Y-16911484D02*
X6242444Y-16901960D01*
X6242444Y-16901960D02*
X6251967Y-16892436D01*
X6251967Y-16892436D02*
X6261491Y-16873389D01*
X6261491Y-16873389D02*
X6261491Y-16825770D01*
X6261491Y-16825770D02*
X6251967Y-16806722D01*
X6251967Y-16806722D02*
X6242444Y-16797198D01*
X6242444Y-16797198D02*
X6223396Y-16787674D01*
X6223396Y-16787674D02*
X6185301Y-16787674D01*
X6185301Y-16787674D02*
X6166253Y-16797198D01*
X6166253Y-16797198D02*
X6156729Y-16806722D01*
X6156729Y-16806722D02*
X6147206Y-16825770D01*
X6442444Y-16711484D02*
X6347206Y-16711484D01*
X6347206Y-16711484D02*
X6337682Y-16806722D01*
X6337682Y-16806722D02*
X6347206Y-16797198D01*
X6347206Y-16797198D02*
X6366253Y-16787674D01*
X6366253Y-16787674D02*
X6413872Y-16787674D01*
X6413872Y-16787674D02*
X6432920Y-16797198D01*
X6432920Y-16797198D02*
X6442444Y-16806722D01*
X6442444Y-16806722D02*
X6451967Y-16825770D01*
X6451967Y-16825770D02*
X6451967Y-16873389D01*
X6451967Y-16873389D02*
X6442444Y-16892436D01*
X6442444Y-16892436D02*
X6432920Y-16901960D01*
X6432920Y-16901960D02*
X6413872Y-16911484D01*
X6413872Y-16911484D02*
X6366253Y-16911484D01*
X6366253Y-16911484D02*
X6347206Y-16901960D01*
X6347206Y-16901960D02*
X6337682Y-16892436D01*
X6575777Y-16711484D02*
X6594825Y-16711484D01*
X6594825Y-16711484D02*
X6613872Y-16721008D01*
X6613872Y-16721008D02*
X6623396Y-16730531D01*
X6623396Y-16730531D02*
X6632920Y-16749579D01*
X6632920Y-16749579D02*
X6642444Y-16787674D01*
X6642444Y-16787674D02*
X6642444Y-16835293D01*
X6642444Y-16835293D02*
X6632920Y-16873389D01*
X6632920Y-16873389D02*
X6623396Y-16892436D01*
X6623396Y-16892436D02*
X6613872Y-16901960D01*
X6613872Y-16901960D02*
X6594825Y-16911484D01*
X6594825Y-16911484D02*
X6575777Y-16911484D01*
X6575777Y-16911484D02*
X6556729Y-16901960D01*
X6556729Y-16901960D02*
X6547206Y-16892436D01*
X6547206Y-16892436D02*
X6537682Y-16873389D01*
X6537682Y-16873389D02*
X6528158Y-16835293D01*
X6528158Y-16835293D02*
X6528158Y-16787674D01*
X6528158Y-16787674D02*
X6537682Y-16749579D01*
X6537682Y-16749579D02*
X6547206Y-16730531D01*
X6547206Y-16730531D02*
X6556729Y-16721008D01*
X6556729Y-16721008D02*
X6575777Y-16711484D01*
X6718634Y-16711484D02*
X6718634Y-16749579D01*
X6794825Y-16711484D02*
X6794825Y-16749579D01*
X7090063Y-16987674D02*
X7080539Y-16978150D01*
X7080539Y-16978150D02*
X7061491Y-16949579D01*
X7061491Y-16949579D02*
X7051968Y-16930531D01*
X7051968Y-16930531D02*
X7042444Y-16901960D01*
X7042444Y-16901960D02*
X7032920Y-16854341D01*
X7032920Y-16854341D02*
X7032920Y-16816246D01*
X7032920Y-16816246D02*
X7042444Y-16768627D01*
X7042444Y-16768627D02*
X7051968Y-16740055D01*
X7051968Y-16740055D02*
X7061491Y-16721008D01*
X7061491Y-16721008D02*
X7080539Y-16692436D01*
X7080539Y-16692436D02*
X7090063Y-16682912D01*
X7147206Y-16711484D02*
X7271015Y-16711484D01*
X7271015Y-16711484D02*
X7204348Y-16787674D01*
X7204348Y-16787674D02*
X7232920Y-16787674D01*
X7232920Y-16787674D02*
X7251968Y-16797198D01*
X7251968Y-16797198D02*
X7261491Y-16806722D01*
X7261491Y-16806722D02*
X7271015Y-16825770D01*
X7271015Y-16825770D02*
X7271015Y-16873389D01*
X7271015Y-16873389D02*
X7261491Y-16892436D01*
X7261491Y-16892436D02*
X7251968Y-16901960D01*
X7251968Y-16901960D02*
X7232920Y-16911484D01*
X7232920Y-16911484D02*
X7175777Y-16911484D01*
X7175777Y-16911484D02*
X7156729Y-16901960D01*
X7156729Y-16901960D02*
X7147206Y-16892436D01*
X7366253Y-16911484D02*
X7404348Y-16911484D01*
X7404348Y-16911484D02*
X7423396Y-16901960D01*
X7423396Y-16901960D02*
X7432920Y-16892436D01*
X7432920Y-16892436D02*
X7451968Y-16863865D01*
X7451968Y-16863865D02*
X7461491Y-16825770D01*
X7461491Y-16825770D02*
X7461491Y-16749579D01*
X7461491Y-16749579D02*
X7451968Y-16730531D01*
X7451968Y-16730531D02*
X7442444Y-16721008D01*
X7442444Y-16721008D02*
X7423396Y-16711484D01*
X7423396Y-16711484D02*
X7385301Y-16711484D01*
X7385301Y-16711484D02*
X7366253Y-16721008D01*
X7366253Y-16721008D02*
X7356729Y-16730531D01*
X7356729Y-16730531D02*
X7347206Y-16749579D01*
X7347206Y-16749579D02*
X7347206Y-16797198D01*
X7347206Y-16797198D02*
X7356729Y-16816246D01*
X7356729Y-16816246D02*
X7366253Y-16825770D01*
X7366253Y-16825770D02*
X7385301Y-16835293D01*
X7385301Y-16835293D02*
X7423396Y-16835293D01*
X7423396Y-16835293D02*
X7442444Y-16825770D01*
X7442444Y-16825770D02*
X7451968Y-16816246D01*
X7451968Y-16816246D02*
X7461491Y-16797198D01*
X7699587Y-16911484D02*
X7699587Y-16711484D01*
X7785301Y-16911484D02*
X7785301Y-16806722D01*
X7785301Y-16806722D02*
X7775777Y-16787674D01*
X7775777Y-16787674D02*
X7756730Y-16778150D01*
X7756730Y-16778150D02*
X7728158Y-16778150D01*
X7728158Y-16778150D02*
X7709110Y-16787674D01*
X7709110Y-16787674D02*
X7699587Y-16797198D01*
X7909110Y-16911484D02*
X7890063Y-16901960D01*
X7890063Y-16901960D02*
X7880539Y-16892436D01*
X7880539Y-16892436D02*
X7871015Y-16873389D01*
X7871015Y-16873389D02*
X7871015Y-16816246D01*
X7871015Y-16816246D02*
X7880539Y-16797198D01*
X7880539Y-16797198D02*
X7890063Y-16787674D01*
X7890063Y-16787674D02*
X7909110Y-16778150D01*
X7909110Y-16778150D02*
X7937682Y-16778150D01*
X7937682Y-16778150D02*
X7956730Y-16787674D01*
X7956730Y-16787674D02*
X7966253Y-16797198D01*
X7966253Y-16797198D02*
X7975777Y-16816246D01*
X7975777Y-16816246D02*
X7975777Y-16873389D01*
X7975777Y-16873389D02*
X7966253Y-16892436D01*
X7966253Y-16892436D02*
X7956730Y-16901960D01*
X7956730Y-16901960D02*
X7937682Y-16911484D01*
X7937682Y-16911484D02*
X7909110Y-16911484D01*
X8090063Y-16911484D02*
X8071015Y-16901960D01*
X8071015Y-16901960D02*
X8061491Y-16882912D01*
X8061491Y-16882912D02*
X8061491Y-16711484D01*
X8242444Y-16901960D02*
X8223396Y-16911484D01*
X8223396Y-16911484D02*
X8185301Y-16911484D01*
X8185301Y-16911484D02*
X8166253Y-16901960D01*
X8166253Y-16901960D02*
X8156730Y-16882912D01*
X8156730Y-16882912D02*
X8156730Y-16806722D01*
X8156730Y-16806722D02*
X8166253Y-16787674D01*
X8166253Y-16787674D02*
X8185301Y-16778150D01*
X8185301Y-16778150D02*
X8223396Y-16778150D01*
X8223396Y-16778150D02*
X8242444Y-16787674D01*
X8242444Y-16787674D02*
X8251968Y-16806722D01*
X8251968Y-16806722D02*
X8251968Y-16825770D01*
X8251968Y-16825770D02*
X8156730Y-16844817D01*
X8328158Y-16901960D02*
X8347206Y-16911484D01*
X8347206Y-16911484D02*
X8385301Y-16911484D01*
X8385301Y-16911484D02*
X8404349Y-16901960D01*
X8404349Y-16901960D02*
X8413873Y-16882912D01*
X8413873Y-16882912D02*
X8413873Y-16873389D01*
X8413873Y-16873389D02*
X8404349Y-16854341D01*
X8404349Y-16854341D02*
X8385301Y-16844817D01*
X8385301Y-16844817D02*
X8356730Y-16844817D01*
X8356730Y-16844817D02*
X8337682Y-16835293D01*
X8337682Y-16835293D02*
X8328158Y-16816246D01*
X8328158Y-16816246D02*
X8328158Y-16806722D01*
X8328158Y-16806722D02*
X8337682Y-16787674D01*
X8337682Y-16787674D02*
X8356730Y-16778150D01*
X8356730Y-16778150D02*
X8385301Y-16778150D01*
X8385301Y-16778150D02*
X8404349Y-16787674D01*
X8480539Y-16987674D02*
X8490063Y-16978150D01*
X8490063Y-16978150D02*
X8509111Y-16949579D01*
X8509111Y-16949579D02*
X8518634Y-16930531D01*
X8518634Y-16930531D02*
X8528158Y-16901960D01*
X8528158Y-16901960D02*
X8537682Y-16854341D01*
X8537682Y-16854341D02*
X8537682Y-16816246D01*
X8537682Y-16816246D02*
X8528158Y-16768627D01*
X8528158Y-16768627D02*
X8518634Y-16740055D01*
X8518634Y-16740055D02*
X8509111Y-16721008D01*
X8509111Y-16721008D02*
X8490063Y-16692436D01*
X8490063Y-16692436D02*
X8480539Y-16682912D01*
X8842444Y-16987674D02*
X8832920Y-16978150D01*
X8832920Y-16978150D02*
X8813873Y-16949579D01*
X8813873Y-16949579D02*
X8804349Y-16930531D01*
X8804349Y-16930531D02*
X8794825Y-16901960D01*
X8794825Y-16901960D02*
X8785301Y-16854341D01*
X8785301Y-16854341D02*
X8785301Y-16816246D01*
X8785301Y-16816246D02*
X8794825Y-16768627D01*
X8794825Y-16768627D02*
X8804349Y-16740055D01*
X8804349Y-16740055D02*
X8813873Y-16721008D01*
X8813873Y-16721008D02*
X8832920Y-16692436D01*
X8832920Y-16692436D02*
X8842444Y-16682912D01*
X8918634Y-16778150D02*
X8918634Y-16911484D01*
X8918634Y-16797198D02*
X8928158Y-16787674D01*
X8928158Y-16787674D02*
X8947206Y-16778150D01*
X8947206Y-16778150D02*
X8975777Y-16778150D01*
X8975777Y-16778150D02*
X8994825Y-16787674D01*
X8994825Y-16787674D02*
X9004349Y-16806722D01*
X9004349Y-16806722D02*
X9004349Y-16911484D01*
X9128158Y-16911484D02*
X9109111Y-16901960D01*
X9109111Y-16901960D02*
X9099587Y-16892436D01*
X9099587Y-16892436D02*
X9090063Y-16873389D01*
X9090063Y-16873389D02*
X9090063Y-16816246D01*
X9090063Y-16816246D02*
X9099587Y-16797198D01*
X9099587Y-16797198D02*
X9109111Y-16787674D01*
X9109111Y-16787674D02*
X9128158Y-16778150D01*
X9128158Y-16778150D02*
X9156730Y-16778150D01*
X9156730Y-16778150D02*
X9175777Y-16787674D01*
X9175777Y-16787674D02*
X9185301Y-16797198D01*
X9185301Y-16797198D02*
X9194825Y-16816246D01*
X9194825Y-16816246D02*
X9194825Y-16873389D01*
X9194825Y-16873389D02*
X9185301Y-16892436D01*
X9185301Y-16892436D02*
X9175777Y-16901960D01*
X9175777Y-16901960D02*
X9156730Y-16911484D01*
X9156730Y-16911484D02*
X9128158Y-16911484D01*
X9251968Y-16778150D02*
X9328158Y-16778150D01*
X9280539Y-16711484D02*
X9280539Y-16882912D01*
X9280539Y-16882912D02*
X9290063Y-16901960D01*
X9290063Y-16901960D02*
X9309111Y-16911484D01*
X9309111Y-16911484D02*
X9328158Y-16911484D01*
X9547206Y-16778150D02*
X9547206Y-16978150D01*
X9547206Y-16787674D02*
X9566254Y-16778150D01*
X9566254Y-16778150D02*
X9604349Y-16778150D01*
X9604349Y-16778150D02*
X9623396Y-16787674D01*
X9623396Y-16787674D02*
X9632920Y-16797198D01*
X9632920Y-16797198D02*
X9642444Y-16816246D01*
X9642444Y-16816246D02*
X9642444Y-16873389D01*
X9642444Y-16873389D02*
X9632920Y-16892436D01*
X9632920Y-16892436D02*
X9623396Y-16901960D01*
X9623396Y-16901960D02*
X9604349Y-16911484D01*
X9604349Y-16911484D02*
X9566254Y-16911484D01*
X9566254Y-16911484D02*
X9547206Y-16901960D01*
X9756730Y-16911484D02*
X9737682Y-16901960D01*
X9737682Y-16901960D02*
X9728158Y-16882912D01*
X9728158Y-16882912D02*
X9728158Y-16711484D01*
X9918635Y-16911484D02*
X9918635Y-16806722D01*
X9918635Y-16806722D02*
X9909111Y-16787674D01*
X9909111Y-16787674D02*
X9890063Y-16778150D01*
X9890063Y-16778150D02*
X9851968Y-16778150D01*
X9851968Y-16778150D02*
X9832920Y-16787674D01*
X9918635Y-16901960D02*
X9899587Y-16911484D01*
X9899587Y-16911484D02*
X9851968Y-16911484D01*
X9851968Y-16911484D02*
X9832920Y-16901960D01*
X9832920Y-16901960D02*
X9823396Y-16882912D01*
X9823396Y-16882912D02*
X9823396Y-16863865D01*
X9823396Y-16863865D02*
X9832920Y-16844817D01*
X9832920Y-16844817D02*
X9851968Y-16835293D01*
X9851968Y-16835293D02*
X9899587Y-16835293D01*
X9899587Y-16835293D02*
X9918635Y-16825770D01*
X9985301Y-16778150D02*
X10061492Y-16778150D01*
X10013873Y-16711484D02*
X10013873Y-16882912D01*
X10013873Y-16882912D02*
X10023396Y-16901960D01*
X10023396Y-16901960D02*
X10042444Y-16911484D01*
X10042444Y-16911484D02*
X10061492Y-16911484D01*
X10204349Y-16901960D02*
X10185301Y-16911484D01*
X10185301Y-16911484D02*
X10147206Y-16911484D01*
X10147206Y-16911484D02*
X10128158Y-16901960D01*
X10128158Y-16901960D02*
X10118635Y-16882912D01*
X10118635Y-16882912D02*
X10118635Y-16806722D01*
X10118635Y-16806722D02*
X10128158Y-16787674D01*
X10128158Y-16787674D02*
X10147206Y-16778150D01*
X10147206Y-16778150D02*
X10185301Y-16778150D01*
X10185301Y-16778150D02*
X10204349Y-16787674D01*
X10204349Y-16787674D02*
X10213873Y-16806722D01*
X10213873Y-16806722D02*
X10213873Y-16825770D01*
X10213873Y-16825770D02*
X10118635Y-16844817D01*
X10385301Y-16911484D02*
X10385301Y-16711484D01*
X10385301Y-16901960D02*
X10366254Y-16911484D01*
X10366254Y-16911484D02*
X10328158Y-16911484D01*
X10328158Y-16911484D02*
X10309111Y-16901960D01*
X10309111Y-16901960D02*
X10299587Y-16892436D01*
X10299587Y-16892436D02*
X10290063Y-16873389D01*
X10290063Y-16873389D02*
X10290063Y-16816246D01*
X10290063Y-16816246D02*
X10299587Y-16797198D01*
X10299587Y-16797198D02*
X10309111Y-16787674D01*
X10309111Y-16787674D02*
X10328158Y-16778150D01*
X10328158Y-16778150D02*
X10366254Y-16778150D01*
X10366254Y-16778150D02*
X10385301Y-16787674D01*
X10461492Y-16987674D02*
X10471016Y-16978150D01*
X10471016Y-16978150D02*
X10490063Y-16949579D01*
X10490063Y-16949579D02*
X10499587Y-16930531D01*
X10499587Y-16930531D02*
X10509111Y-16901960D01*
X10509111Y-16901960D02*
X10518635Y-16854341D01*
X10518635Y-16854341D02*
X10518635Y-16816246D01*
X10518635Y-16816246D02*
X10509111Y-16768627D01*
X10509111Y-16768627D02*
X10499587Y-16740055D01*
X10499587Y-16740055D02*
X10490063Y-16721008D01*
X10490063Y-16721008D02*
X10471016Y-16692436D01*
X10471016Y-16692436D02*
X10461492Y-16682912D01*
D13*
X3515000Y-17105000D02*
G75*
G02*
X3345000Y-17105000I-85000J0D01*
G01*
X3345000Y-17105000D02*
G75*
G02*
X3515000Y-17105000I85000J0D01*
G01*
D11*
X3880539Y-17196484D02*
X3766253Y-17196484D01*
X3823396Y-17196484D02*
X3823396Y-16996484D01*
X3823396Y-16996484D02*
X3804348Y-17025055D01*
X3804348Y-17025055D02*
X3785301Y-17044103D01*
X3785301Y-17044103D02*
X3766253Y-17053627D01*
X3966253Y-17177436D02*
X3975777Y-17186960D01*
X3975777Y-17186960D02*
X3966253Y-17196484D01*
X3966253Y-17196484D02*
X3956729Y-17186960D01*
X3956729Y-17186960D02*
X3966253Y-17177436D01*
X3966253Y-17177436D02*
X3966253Y-17196484D01*
X4042443Y-16996484D02*
X4175777Y-16996484D01*
X4175777Y-16996484D02*
X4090062Y-17196484D01*
X4290063Y-16996484D02*
X4309110Y-16996484D01*
X4309110Y-16996484D02*
X4328158Y-17006008D01*
X4328158Y-17006008D02*
X4337682Y-17015531D01*
X4337682Y-17015531D02*
X4347205Y-17034579D01*
X4347205Y-17034579D02*
X4356729Y-17072674D01*
X4356729Y-17072674D02*
X4356729Y-17120293D01*
X4356729Y-17120293D02*
X4347205Y-17158389D01*
X4347205Y-17158389D02*
X4337682Y-17177436D01*
X4337682Y-17177436D02*
X4328158Y-17186960D01*
X4328158Y-17186960D02*
X4309110Y-17196484D01*
X4309110Y-17196484D02*
X4290063Y-17196484D01*
X4290063Y-17196484D02*
X4271015Y-17186960D01*
X4271015Y-17186960D02*
X4261491Y-17177436D01*
X4261491Y-17177436D02*
X4251967Y-17158389D01*
X4251967Y-17158389D02*
X4242444Y-17120293D01*
X4242444Y-17120293D02*
X4242444Y-17072674D01*
X4242444Y-17072674D02*
X4251967Y-17034579D01*
X4251967Y-17034579D02*
X4261491Y-17015531D01*
X4261491Y-17015531D02*
X4271015Y-17006008D01*
X4271015Y-17006008D02*
X4290063Y-16996484D01*
X4480539Y-16996484D02*
X4499586Y-16996484D01*
X4499586Y-16996484D02*
X4518634Y-17006008D01*
X4518634Y-17006008D02*
X4528158Y-17015531D01*
X4528158Y-17015531D02*
X4537682Y-17034579D01*
X4537682Y-17034579D02*
X4547205Y-17072674D01*
X4547205Y-17072674D02*
X4547205Y-17120293D01*
X4547205Y-17120293D02*
X4537682Y-17158389D01*
X4537682Y-17158389D02*
X4528158Y-17177436D01*
X4528158Y-17177436D02*
X4518634Y-17186960D01*
X4518634Y-17186960D02*
X4499586Y-17196484D01*
X4499586Y-17196484D02*
X4480539Y-17196484D01*
X4480539Y-17196484D02*
X4461491Y-17186960D01*
X4461491Y-17186960D02*
X4451967Y-17177436D01*
X4451967Y-17177436D02*
X4442444Y-17158389D01*
X4442444Y-17158389D02*
X4432920Y-17120293D01*
X4432920Y-17120293D02*
X4432920Y-17072674D01*
X4432920Y-17072674D02*
X4442444Y-17034579D01*
X4442444Y-17034579D02*
X4451967Y-17015531D01*
X4451967Y-17015531D02*
X4461491Y-17006008D01*
X4461491Y-17006008D02*
X4480539Y-16996484D01*
X4632920Y-17196484D02*
X4632920Y-17063150D01*
X4632920Y-17082198D02*
X4642444Y-17072674D01*
X4642444Y-17072674D02*
X4661491Y-17063150D01*
X4661491Y-17063150D02*
X4690063Y-17063150D01*
X4690063Y-17063150D02*
X4709110Y-17072674D01*
X4709110Y-17072674D02*
X4718634Y-17091722D01*
X4718634Y-17091722D02*
X4718634Y-17196484D01*
X4718634Y-17091722D02*
X4728158Y-17072674D01*
X4728158Y-17072674D02*
X4747205Y-17063150D01*
X4747205Y-17063150D02*
X4775777Y-17063150D01*
X4775777Y-17063150D02*
X4794825Y-17072674D01*
X4794825Y-17072674D02*
X4804348Y-17091722D01*
X4804348Y-17091722D02*
X4804348Y-17196484D01*
X4899586Y-17196484D02*
X4899586Y-17063150D01*
X4899586Y-17082198D02*
X4909110Y-17072674D01*
X4909110Y-17072674D02*
X4928158Y-17063150D01*
X4928158Y-17063150D02*
X4956729Y-17063150D01*
X4956729Y-17063150D02*
X4975777Y-17072674D01*
X4975777Y-17072674D02*
X4985301Y-17091722D01*
X4985301Y-17091722D02*
X4985301Y-17196484D01*
X4985301Y-17091722D02*
X4994825Y-17072674D01*
X4994825Y-17072674D02*
X5013872Y-17063150D01*
X5013872Y-17063150D02*
X5042444Y-17063150D01*
X5042444Y-17063150D02*
X5061491Y-17072674D01*
X5061491Y-17072674D02*
X5071015Y-17091722D01*
X5071015Y-17091722D02*
X5071015Y-17196484D01*
X5461491Y-16986960D02*
X5290063Y-17244103D01*
X5718634Y-16996484D02*
X5737682Y-16996484D01*
X5737682Y-16996484D02*
X5756729Y-17006008D01*
X5756729Y-17006008D02*
X5766253Y-17015531D01*
X5766253Y-17015531D02*
X5775777Y-17034579D01*
X5775777Y-17034579D02*
X5785301Y-17072674D01*
X5785301Y-17072674D02*
X5785301Y-17120293D01*
X5785301Y-17120293D02*
X5775777Y-17158389D01*
X5775777Y-17158389D02*
X5766253Y-17177436D01*
X5766253Y-17177436D02*
X5756729Y-17186960D01*
X5756729Y-17186960D02*
X5737682Y-17196484D01*
X5737682Y-17196484D02*
X5718634Y-17196484D01*
X5718634Y-17196484D02*
X5699586Y-17186960D01*
X5699586Y-17186960D02*
X5690063Y-17177436D01*
X5690063Y-17177436D02*
X5680539Y-17158389D01*
X5680539Y-17158389D02*
X5671015Y-17120293D01*
X5671015Y-17120293D02*
X5671015Y-17072674D01*
X5671015Y-17072674D02*
X5680539Y-17034579D01*
X5680539Y-17034579D02*
X5690063Y-17015531D01*
X5690063Y-17015531D02*
X5699586Y-17006008D01*
X5699586Y-17006008D02*
X5718634Y-16996484D01*
X5871015Y-17177436D02*
X5880539Y-17186960D01*
X5880539Y-17186960D02*
X5871015Y-17196484D01*
X5871015Y-17196484D02*
X5861491Y-17186960D01*
X5861491Y-17186960D02*
X5871015Y-17177436D01*
X5871015Y-17177436D02*
X5871015Y-17196484D01*
X6004348Y-16996484D02*
X6023396Y-16996484D01*
X6023396Y-16996484D02*
X6042444Y-17006008D01*
X6042444Y-17006008D02*
X6051967Y-17015531D01*
X6051967Y-17015531D02*
X6061491Y-17034579D01*
X6061491Y-17034579D02*
X6071015Y-17072674D01*
X6071015Y-17072674D02*
X6071015Y-17120293D01*
X6071015Y-17120293D02*
X6061491Y-17158389D01*
X6061491Y-17158389D02*
X6051967Y-17177436D01*
X6051967Y-17177436D02*
X6042444Y-17186960D01*
X6042444Y-17186960D02*
X6023396Y-17196484D01*
X6023396Y-17196484D02*
X6004348Y-17196484D01*
X6004348Y-17196484D02*
X5985301Y-17186960D01*
X5985301Y-17186960D02*
X5975777Y-17177436D01*
X5975777Y-17177436D02*
X5966253Y-17158389D01*
X5966253Y-17158389D02*
X5956729Y-17120293D01*
X5956729Y-17120293D02*
X5956729Y-17072674D01*
X5956729Y-17072674D02*
X5966253Y-17034579D01*
X5966253Y-17034579D02*
X5975777Y-17015531D01*
X5975777Y-17015531D02*
X5985301Y-17006008D01*
X5985301Y-17006008D02*
X6004348Y-16996484D01*
X6242444Y-16996484D02*
X6204348Y-16996484D01*
X6204348Y-16996484D02*
X6185301Y-17006008D01*
X6185301Y-17006008D02*
X6175777Y-17015531D01*
X6175777Y-17015531D02*
X6156729Y-17044103D01*
X6156729Y-17044103D02*
X6147206Y-17082198D01*
X6147206Y-17082198D02*
X6147206Y-17158389D01*
X6147206Y-17158389D02*
X6156729Y-17177436D01*
X6156729Y-17177436D02*
X6166253Y-17186960D01*
X6166253Y-17186960D02*
X6185301Y-17196484D01*
X6185301Y-17196484D02*
X6223396Y-17196484D01*
X6223396Y-17196484D02*
X6242444Y-17186960D01*
X6242444Y-17186960D02*
X6251967Y-17177436D01*
X6251967Y-17177436D02*
X6261491Y-17158389D01*
X6261491Y-17158389D02*
X6261491Y-17110770D01*
X6261491Y-17110770D02*
X6251967Y-17091722D01*
X6251967Y-17091722D02*
X6242444Y-17082198D01*
X6242444Y-17082198D02*
X6223396Y-17072674D01*
X6223396Y-17072674D02*
X6185301Y-17072674D01*
X6185301Y-17072674D02*
X6166253Y-17082198D01*
X6166253Y-17082198D02*
X6156729Y-17091722D01*
X6156729Y-17091722D02*
X6147206Y-17110770D01*
X6432920Y-16996484D02*
X6394825Y-16996484D01*
X6394825Y-16996484D02*
X6375777Y-17006008D01*
X6375777Y-17006008D02*
X6366253Y-17015531D01*
X6366253Y-17015531D02*
X6347206Y-17044103D01*
X6347206Y-17044103D02*
X6337682Y-17082198D01*
X6337682Y-17082198D02*
X6337682Y-17158389D01*
X6337682Y-17158389D02*
X6347206Y-17177436D01*
X6347206Y-17177436D02*
X6356729Y-17186960D01*
X6356729Y-17186960D02*
X6375777Y-17196484D01*
X6375777Y-17196484D02*
X6413872Y-17196484D01*
X6413872Y-17196484D02*
X6432920Y-17186960D01*
X6432920Y-17186960D02*
X6442444Y-17177436D01*
X6442444Y-17177436D02*
X6451967Y-17158389D01*
X6451967Y-17158389D02*
X6451967Y-17110770D01*
X6451967Y-17110770D02*
X6442444Y-17091722D01*
X6442444Y-17091722D02*
X6432920Y-17082198D01*
X6432920Y-17082198D02*
X6413872Y-17072674D01*
X6413872Y-17072674D02*
X6375777Y-17072674D01*
X6375777Y-17072674D02*
X6356729Y-17082198D01*
X6356729Y-17082198D02*
X6347206Y-17091722D01*
X6347206Y-17091722D02*
X6337682Y-17110770D01*
X6547206Y-17196484D02*
X6585301Y-17196484D01*
X6585301Y-17196484D02*
X6604348Y-17186960D01*
X6604348Y-17186960D02*
X6613872Y-17177436D01*
X6613872Y-17177436D02*
X6632920Y-17148865D01*
X6632920Y-17148865D02*
X6642444Y-17110770D01*
X6642444Y-17110770D02*
X6642444Y-17034579D01*
X6642444Y-17034579D02*
X6632920Y-17015531D01*
X6632920Y-17015531D02*
X6623396Y-17006008D01*
X6623396Y-17006008D02*
X6604348Y-16996484D01*
X6604348Y-16996484D02*
X6566253Y-16996484D01*
X6566253Y-16996484D02*
X6547206Y-17006008D01*
X6547206Y-17006008D02*
X6537682Y-17015531D01*
X6537682Y-17015531D02*
X6528158Y-17034579D01*
X6528158Y-17034579D02*
X6528158Y-17082198D01*
X6528158Y-17082198D02*
X6537682Y-17101246D01*
X6537682Y-17101246D02*
X6547206Y-17110770D01*
X6547206Y-17110770D02*
X6566253Y-17120293D01*
X6566253Y-17120293D02*
X6604348Y-17120293D01*
X6604348Y-17120293D02*
X6623396Y-17110770D01*
X6623396Y-17110770D02*
X6632920Y-17101246D01*
X6632920Y-17101246D02*
X6642444Y-17082198D01*
X6718634Y-16996484D02*
X6718634Y-17034579D01*
X6794825Y-16996484D02*
X6794825Y-17034579D01*
X7090063Y-17272674D02*
X7080539Y-17263150D01*
X7080539Y-17263150D02*
X7061491Y-17234579D01*
X7061491Y-17234579D02*
X7051968Y-17215531D01*
X7051968Y-17215531D02*
X7042444Y-17186960D01*
X7042444Y-17186960D02*
X7032920Y-17139341D01*
X7032920Y-17139341D02*
X7032920Y-17101246D01*
X7032920Y-17101246D02*
X7042444Y-17053627D01*
X7042444Y-17053627D02*
X7051968Y-17025055D01*
X7051968Y-17025055D02*
X7061491Y-17006008D01*
X7061491Y-17006008D02*
X7080539Y-16977436D01*
X7080539Y-16977436D02*
X7090063Y-16967912D01*
X7147206Y-16996484D02*
X7280539Y-16996484D01*
X7280539Y-16996484D02*
X7194825Y-17196484D01*
X7385301Y-17082198D02*
X7366253Y-17072674D01*
X7366253Y-17072674D02*
X7356729Y-17063150D01*
X7356729Y-17063150D02*
X7347206Y-17044103D01*
X7347206Y-17044103D02*
X7347206Y-17034579D01*
X7347206Y-17034579D02*
X7356729Y-17015531D01*
X7356729Y-17015531D02*
X7366253Y-17006008D01*
X7366253Y-17006008D02*
X7385301Y-16996484D01*
X7385301Y-16996484D02*
X7423396Y-16996484D01*
X7423396Y-16996484D02*
X7442444Y-17006008D01*
X7442444Y-17006008D02*
X7451968Y-17015531D01*
X7451968Y-17015531D02*
X7461491Y-17034579D01*
X7461491Y-17034579D02*
X7461491Y-17044103D01*
X7461491Y-17044103D02*
X7451968Y-17063150D01*
X7451968Y-17063150D02*
X7442444Y-17072674D01*
X7442444Y-17072674D02*
X7423396Y-17082198D01*
X7423396Y-17082198D02*
X7385301Y-17082198D01*
X7385301Y-17082198D02*
X7366253Y-17091722D01*
X7366253Y-17091722D02*
X7356729Y-17101246D01*
X7356729Y-17101246D02*
X7347206Y-17120293D01*
X7347206Y-17120293D02*
X7347206Y-17158389D01*
X7347206Y-17158389D02*
X7356729Y-17177436D01*
X7356729Y-17177436D02*
X7366253Y-17186960D01*
X7366253Y-17186960D02*
X7385301Y-17196484D01*
X7385301Y-17196484D02*
X7423396Y-17196484D01*
X7423396Y-17196484D02*
X7442444Y-17186960D01*
X7442444Y-17186960D02*
X7451968Y-17177436D01*
X7451968Y-17177436D02*
X7461491Y-17158389D01*
X7461491Y-17158389D02*
X7461491Y-17120293D01*
X7461491Y-17120293D02*
X7451968Y-17101246D01*
X7451968Y-17101246D02*
X7442444Y-17091722D01*
X7442444Y-17091722D02*
X7423396Y-17082198D01*
X7699587Y-17196484D02*
X7699587Y-16996484D01*
X7785301Y-17196484D02*
X7785301Y-17091722D01*
X7785301Y-17091722D02*
X7775777Y-17072674D01*
X7775777Y-17072674D02*
X7756730Y-17063150D01*
X7756730Y-17063150D02*
X7728158Y-17063150D01*
X7728158Y-17063150D02*
X7709110Y-17072674D01*
X7709110Y-17072674D02*
X7699587Y-17082198D01*
X7909110Y-17196484D02*
X7890063Y-17186960D01*
X7890063Y-17186960D02*
X7880539Y-17177436D01*
X7880539Y-17177436D02*
X7871015Y-17158389D01*
X7871015Y-17158389D02*
X7871015Y-17101246D01*
X7871015Y-17101246D02*
X7880539Y-17082198D01*
X7880539Y-17082198D02*
X7890063Y-17072674D01*
X7890063Y-17072674D02*
X7909110Y-17063150D01*
X7909110Y-17063150D02*
X7937682Y-17063150D01*
X7937682Y-17063150D02*
X7956730Y-17072674D01*
X7956730Y-17072674D02*
X7966253Y-17082198D01*
X7966253Y-17082198D02*
X7975777Y-17101246D01*
X7975777Y-17101246D02*
X7975777Y-17158389D01*
X7975777Y-17158389D02*
X7966253Y-17177436D01*
X7966253Y-17177436D02*
X7956730Y-17186960D01*
X7956730Y-17186960D02*
X7937682Y-17196484D01*
X7937682Y-17196484D02*
X7909110Y-17196484D01*
X8090063Y-17196484D02*
X8071015Y-17186960D01*
X8071015Y-17186960D02*
X8061491Y-17167912D01*
X8061491Y-17167912D02*
X8061491Y-16996484D01*
X8242444Y-17186960D02*
X8223396Y-17196484D01*
X8223396Y-17196484D02*
X8185301Y-17196484D01*
X8185301Y-17196484D02*
X8166253Y-17186960D01*
X8166253Y-17186960D02*
X8156730Y-17167912D01*
X8156730Y-17167912D02*
X8156730Y-17091722D01*
X8156730Y-17091722D02*
X8166253Y-17072674D01*
X8166253Y-17072674D02*
X8185301Y-17063150D01*
X8185301Y-17063150D02*
X8223396Y-17063150D01*
X8223396Y-17063150D02*
X8242444Y-17072674D01*
X8242444Y-17072674D02*
X8251968Y-17091722D01*
X8251968Y-17091722D02*
X8251968Y-17110770D01*
X8251968Y-17110770D02*
X8156730Y-17129817D01*
X8328158Y-17186960D02*
X8347206Y-17196484D01*
X8347206Y-17196484D02*
X8385301Y-17196484D01*
X8385301Y-17196484D02*
X8404349Y-17186960D01*
X8404349Y-17186960D02*
X8413873Y-17167912D01*
X8413873Y-17167912D02*
X8413873Y-17158389D01*
X8413873Y-17158389D02*
X8404349Y-17139341D01*
X8404349Y-17139341D02*
X8385301Y-17129817D01*
X8385301Y-17129817D02*
X8356730Y-17129817D01*
X8356730Y-17129817D02*
X8337682Y-17120293D01*
X8337682Y-17120293D02*
X8328158Y-17101246D01*
X8328158Y-17101246D02*
X8328158Y-17091722D01*
X8328158Y-17091722D02*
X8337682Y-17072674D01*
X8337682Y-17072674D02*
X8356730Y-17063150D01*
X8356730Y-17063150D02*
X8385301Y-17063150D01*
X8385301Y-17063150D02*
X8404349Y-17072674D01*
X8480539Y-17272674D02*
X8490063Y-17263150D01*
X8490063Y-17263150D02*
X8509111Y-17234579D01*
X8509111Y-17234579D02*
X8518634Y-17215531D01*
X8518634Y-17215531D02*
X8528158Y-17186960D01*
X8528158Y-17186960D02*
X8537682Y-17139341D01*
X8537682Y-17139341D02*
X8537682Y-17101246D01*
X8537682Y-17101246D02*
X8528158Y-17053627D01*
X8528158Y-17053627D02*
X8518634Y-17025055D01*
X8518634Y-17025055D02*
X8509111Y-17006008D01*
X8509111Y-17006008D02*
X8490063Y-16977436D01*
X8490063Y-16977436D02*
X8480539Y-16967912D01*
X8842444Y-17272674D02*
X8832920Y-17263150D01*
X8832920Y-17263150D02*
X8813873Y-17234579D01*
X8813873Y-17234579D02*
X8804349Y-17215531D01*
X8804349Y-17215531D02*
X8794825Y-17186960D01*
X8794825Y-17186960D02*
X8785301Y-17139341D01*
X8785301Y-17139341D02*
X8785301Y-17101246D01*
X8785301Y-17101246D02*
X8794825Y-17053627D01*
X8794825Y-17053627D02*
X8804349Y-17025055D01*
X8804349Y-17025055D02*
X8813873Y-17006008D01*
X8813873Y-17006008D02*
X8832920Y-16977436D01*
X8832920Y-16977436D02*
X8842444Y-16967912D01*
X8918634Y-17063150D02*
X8918634Y-17196484D01*
X8918634Y-17082198D02*
X8928158Y-17072674D01*
X8928158Y-17072674D02*
X8947206Y-17063150D01*
X8947206Y-17063150D02*
X8975777Y-17063150D01*
X8975777Y-17063150D02*
X8994825Y-17072674D01*
X8994825Y-17072674D02*
X9004349Y-17091722D01*
X9004349Y-17091722D02*
X9004349Y-17196484D01*
X9128158Y-17196484D02*
X9109111Y-17186960D01*
X9109111Y-17186960D02*
X9099587Y-17177436D01*
X9099587Y-17177436D02*
X9090063Y-17158389D01*
X9090063Y-17158389D02*
X9090063Y-17101246D01*
X9090063Y-17101246D02*
X9099587Y-17082198D01*
X9099587Y-17082198D02*
X9109111Y-17072674D01*
X9109111Y-17072674D02*
X9128158Y-17063150D01*
X9128158Y-17063150D02*
X9156730Y-17063150D01*
X9156730Y-17063150D02*
X9175777Y-17072674D01*
X9175777Y-17072674D02*
X9185301Y-17082198D01*
X9185301Y-17082198D02*
X9194825Y-17101246D01*
X9194825Y-17101246D02*
X9194825Y-17158389D01*
X9194825Y-17158389D02*
X9185301Y-17177436D01*
X9185301Y-17177436D02*
X9175777Y-17186960D01*
X9175777Y-17186960D02*
X9156730Y-17196484D01*
X9156730Y-17196484D02*
X9128158Y-17196484D01*
X9251968Y-17063150D02*
X9328158Y-17063150D01*
X9280539Y-16996484D02*
X9280539Y-17167912D01*
X9280539Y-17167912D02*
X9290063Y-17186960D01*
X9290063Y-17186960D02*
X9309111Y-17196484D01*
X9309111Y-17196484D02*
X9328158Y-17196484D01*
X9547206Y-17063150D02*
X9547206Y-17263150D01*
X9547206Y-17072674D02*
X9566254Y-17063150D01*
X9566254Y-17063150D02*
X9604349Y-17063150D01*
X9604349Y-17063150D02*
X9623396Y-17072674D01*
X9623396Y-17072674D02*
X9632920Y-17082198D01*
X9632920Y-17082198D02*
X9642444Y-17101246D01*
X9642444Y-17101246D02*
X9642444Y-17158389D01*
X9642444Y-17158389D02*
X9632920Y-17177436D01*
X9632920Y-17177436D02*
X9623396Y-17186960D01*
X9623396Y-17186960D02*
X9604349Y-17196484D01*
X9604349Y-17196484D02*
X9566254Y-17196484D01*
X9566254Y-17196484D02*
X9547206Y-17186960D01*
X9756730Y-17196484D02*
X9737682Y-17186960D01*
X9737682Y-17186960D02*
X9728158Y-17167912D01*
X9728158Y-17167912D02*
X9728158Y-16996484D01*
X9918635Y-17196484D02*
X9918635Y-17091722D01*
X9918635Y-17091722D02*
X9909111Y-17072674D01*
X9909111Y-17072674D02*
X9890063Y-17063150D01*
X9890063Y-17063150D02*
X9851968Y-17063150D01*
X9851968Y-17063150D02*
X9832920Y-17072674D01*
X9918635Y-17186960D02*
X9899587Y-17196484D01*
X9899587Y-17196484D02*
X9851968Y-17196484D01*
X9851968Y-17196484D02*
X9832920Y-17186960D01*
X9832920Y-17186960D02*
X9823396Y-17167912D01*
X9823396Y-17167912D02*
X9823396Y-17148865D01*
X9823396Y-17148865D02*
X9832920Y-17129817D01*
X9832920Y-17129817D02*
X9851968Y-17120293D01*
X9851968Y-17120293D02*
X9899587Y-17120293D01*
X9899587Y-17120293D02*
X9918635Y-17110770D01*
X9985301Y-17063150D02*
X10061492Y-17063150D01*
X10013873Y-16996484D02*
X10013873Y-17167912D01*
X10013873Y-17167912D02*
X10023396Y-17186960D01*
X10023396Y-17186960D02*
X10042444Y-17196484D01*
X10042444Y-17196484D02*
X10061492Y-17196484D01*
X10204349Y-17186960D02*
X10185301Y-17196484D01*
X10185301Y-17196484D02*
X10147206Y-17196484D01*
X10147206Y-17196484D02*
X10128158Y-17186960D01*
X10128158Y-17186960D02*
X10118635Y-17167912D01*
X10118635Y-17167912D02*
X10118635Y-17091722D01*
X10118635Y-17091722D02*
X10128158Y-17072674D01*
X10128158Y-17072674D02*
X10147206Y-17063150D01*
X10147206Y-17063150D02*
X10185301Y-17063150D01*
X10185301Y-17063150D02*
X10204349Y-17072674D01*
X10204349Y-17072674D02*
X10213873Y-17091722D01*
X10213873Y-17091722D02*
X10213873Y-17110770D01*
X10213873Y-17110770D02*
X10118635Y-17129817D01*
X10385301Y-17196484D02*
X10385301Y-16996484D01*
X10385301Y-17186960D02*
X10366254Y-17196484D01*
X10366254Y-17196484D02*
X10328158Y-17196484D01*
X10328158Y-17196484D02*
X10309111Y-17186960D01*
X10309111Y-17186960D02*
X10299587Y-17177436D01*
X10299587Y-17177436D02*
X10290063Y-17158389D01*
X10290063Y-17158389D02*
X10290063Y-17101246D01*
X10290063Y-17101246D02*
X10299587Y-17082198D01*
X10299587Y-17082198D02*
X10309111Y-17072674D01*
X10309111Y-17072674D02*
X10328158Y-17063150D01*
X10328158Y-17063150D02*
X10366254Y-17063150D01*
X10366254Y-17063150D02*
X10385301Y-17072674D01*
X10461492Y-17272674D02*
X10471016Y-17263150D01*
X10471016Y-17263150D02*
X10490063Y-17234579D01*
X10490063Y-17234579D02*
X10499587Y-17215531D01*
X10499587Y-17215531D02*
X10509111Y-17186960D01*
X10509111Y-17186960D02*
X10518635Y-17139341D01*
X10518635Y-17139341D02*
X10518635Y-17101246D01*
X10518635Y-17101246D02*
X10509111Y-17053627D01*
X10509111Y-17053627D02*
X10499587Y-17025055D01*
X10499587Y-17025055D02*
X10490063Y-17006008D01*
X10490063Y-17006008D02*
X10471016Y-16977436D01*
X10471016Y-16977436D02*
X10461492Y-16967912D01*
X3415000Y-17295000D02*
X3415000Y-17495000D01*
X3315000Y-17395000D02*
X3515000Y-17395000D01*
X3766253Y-17305531D02*
X3775777Y-17296008D01*
X3775777Y-17296008D02*
X3794824Y-17286484D01*
X3794824Y-17286484D02*
X3842443Y-17286484D01*
X3842443Y-17286484D02*
X3861491Y-17296008D01*
X3861491Y-17296008D02*
X3871015Y-17305531D01*
X3871015Y-17305531D02*
X3880539Y-17324579D01*
X3880539Y-17324579D02*
X3880539Y-17343627D01*
X3880539Y-17343627D02*
X3871015Y-17372198D01*
X3871015Y-17372198D02*
X3756729Y-17486484D01*
X3756729Y-17486484D02*
X3880539Y-17486484D01*
X3966253Y-17467436D02*
X3975777Y-17476960D01*
X3975777Y-17476960D02*
X3966253Y-17486484D01*
X3966253Y-17486484D02*
X3956729Y-17476960D01*
X3956729Y-17476960D02*
X3966253Y-17467436D01*
X3966253Y-17467436D02*
X3966253Y-17486484D01*
X4051967Y-17305531D02*
X4061491Y-17296008D01*
X4061491Y-17296008D02*
X4080539Y-17286484D01*
X4080539Y-17286484D02*
X4128158Y-17286484D01*
X4128158Y-17286484D02*
X4147205Y-17296008D01*
X4147205Y-17296008D02*
X4156729Y-17305531D01*
X4156729Y-17305531D02*
X4166253Y-17324579D01*
X4166253Y-17324579D02*
X4166253Y-17343627D01*
X4166253Y-17343627D02*
X4156729Y-17372198D01*
X4156729Y-17372198D02*
X4042443Y-17486484D01*
X4042443Y-17486484D02*
X4166253Y-17486484D01*
X4290063Y-17286484D02*
X4309110Y-17286484D01*
X4309110Y-17286484D02*
X4328158Y-17296008D01*
X4328158Y-17296008D02*
X4337682Y-17305531D01*
X4337682Y-17305531D02*
X4347205Y-17324579D01*
X4347205Y-17324579D02*
X4356729Y-17362674D01*
X4356729Y-17362674D02*
X4356729Y-17410293D01*
X4356729Y-17410293D02*
X4347205Y-17448389D01*
X4347205Y-17448389D02*
X4337682Y-17467436D01*
X4337682Y-17467436D02*
X4328158Y-17476960D01*
X4328158Y-17476960D02*
X4309110Y-17486484D01*
X4309110Y-17486484D02*
X4290063Y-17486484D01*
X4290063Y-17486484D02*
X4271015Y-17476960D01*
X4271015Y-17476960D02*
X4261491Y-17467436D01*
X4261491Y-17467436D02*
X4251967Y-17448389D01*
X4251967Y-17448389D02*
X4242444Y-17410293D01*
X4242444Y-17410293D02*
X4242444Y-17362674D01*
X4242444Y-17362674D02*
X4251967Y-17324579D01*
X4251967Y-17324579D02*
X4261491Y-17305531D01*
X4261491Y-17305531D02*
X4271015Y-17296008D01*
X4271015Y-17296008D02*
X4290063Y-17286484D01*
X4480539Y-17286484D02*
X4499586Y-17286484D01*
X4499586Y-17286484D02*
X4518634Y-17296008D01*
X4518634Y-17296008D02*
X4528158Y-17305531D01*
X4528158Y-17305531D02*
X4537682Y-17324579D01*
X4537682Y-17324579D02*
X4547205Y-17362674D01*
X4547205Y-17362674D02*
X4547205Y-17410293D01*
X4547205Y-17410293D02*
X4537682Y-17448389D01*
X4537682Y-17448389D02*
X4528158Y-17467436D01*
X4528158Y-17467436D02*
X4518634Y-17476960D01*
X4518634Y-17476960D02*
X4499586Y-17486484D01*
X4499586Y-17486484D02*
X4480539Y-17486484D01*
X4480539Y-17486484D02*
X4461491Y-17476960D01*
X4461491Y-17476960D02*
X4451967Y-17467436D01*
X4451967Y-17467436D02*
X4442444Y-17448389D01*
X4442444Y-17448389D02*
X4432920Y-17410293D01*
X4432920Y-17410293D02*
X4432920Y-17362674D01*
X4432920Y-17362674D02*
X4442444Y-17324579D01*
X4442444Y-17324579D02*
X4451967Y-17305531D01*
X4451967Y-17305531D02*
X4461491Y-17296008D01*
X4461491Y-17296008D02*
X4480539Y-17286484D01*
X4632920Y-17486484D02*
X4632920Y-17353150D01*
X4632920Y-17372198D02*
X4642444Y-17362674D01*
X4642444Y-17362674D02*
X4661491Y-17353150D01*
X4661491Y-17353150D02*
X4690063Y-17353150D01*
X4690063Y-17353150D02*
X4709110Y-17362674D01*
X4709110Y-17362674D02*
X4718634Y-17381722D01*
X4718634Y-17381722D02*
X4718634Y-17486484D01*
X4718634Y-17381722D02*
X4728158Y-17362674D01*
X4728158Y-17362674D02*
X4747205Y-17353150D01*
X4747205Y-17353150D02*
X4775777Y-17353150D01*
X4775777Y-17353150D02*
X4794825Y-17362674D01*
X4794825Y-17362674D02*
X4804348Y-17381722D01*
X4804348Y-17381722D02*
X4804348Y-17486484D01*
X4899586Y-17486484D02*
X4899586Y-17353150D01*
X4899586Y-17372198D02*
X4909110Y-17362674D01*
X4909110Y-17362674D02*
X4928158Y-17353150D01*
X4928158Y-17353150D02*
X4956729Y-17353150D01*
X4956729Y-17353150D02*
X4975777Y-17362674D01*
X4975777Y-17362674D02*
X4985301Y-17381722D01*
X4985301Y-17381722D02*
X4985301Y-17486484D01*
X4985301Y-17381722D02*
X4994825Y-17362674D01*
X4994825Y-17362674D02*
X5013872Y-17353150D01*
X5013872Y-17353150D02*
X5042444Y-17353150D01*
X5042444Y-17353150D02*
X5061491Y-17362674D01*
X5061491Y-17362674D02*
X5071015Y-17381722D01*
X5071015Y-17381722D02*
X5071015Y-17486484D01*
X5461491Y-17276960D02*
X5290063Y-17534103D01*
X5718634Y-17286484D02*
X5737682Y-17286484D01*
X5737682Y-17286484D02*
X5756729Y-17296008D01*
X5756729Y-17296008D02*
X5766253Y-17305531D01*
X5766253Y-17305531D02*
X5775777Y-17324579D01*
X5775777Y-17324579D02*
X5785301Y-17362674D01*
X5785301Y-17362674D02*
X5785301Y-17410293D01*
X5785301Y-17410293D02*
X5775777Y-17448389D01*
X5775777Y-17448389D02*
X5766253Y-17467436D01*
X5766253Y-17467436D02*
X5756729Y-17476960D01*
X5756729Y-17476960D02*
X5737682Y-17486484D01*
X5737682Y-17486484D02*
X5718634Y-17486484D01*
X5718634Y-17486484D02*
X5699586Y-17476960D01*
X5699586Y-17476960D02*
X5690063Y-17467436D01*
X5690063Y-17467436D02*
X5680539Y-17448389D01*
X5680539Y-17448389D02*
X5671015Y-17410293D01*
X5671015Y-17410293D02*
X5671015Y-17362674D01*
X5671015Y-17362674D02*
X5680539Y-17324579D01*
X5680539Y-17324579D02*
X5690063Y-17305531D01*
X5690063Y-17305531D02*
X5699586Y-17296008D01*
X5699586Y-17296008D02*
X5718634Y-17286484D01*
X5871015Y-17467436D02*
X5880539Y-17476960D01*
X5880539Y-17476960D02*
X5871015Y-17486484D01*
X5871015Y-17486484D02*
X5861491Y-17476960D01*
X5861491Y-17476960D02*
X5871015Y-17467436D01*
X5871015Y-17467436D02*
X5871015Y-17486484D01*
X6004348Y-17286484D02*
X6023396Y-17286484D01*
X6023396Y-17286484D02*
X6042444Y-17296008D01*
X6042444Y-17296008D02*
X6051967Y-17305531D01*
X6051967Y-17305531D02*
X6061491Y-17324579D01*
X6061491Y-17324579D02*
X6071015Y-17362674D01*
X6071015Y-17362674D02*
X6071015Y-17410293D01*
X6071015Y-17410293D02*
X6061491Y-17448389D01*
X6061491Y-17448389D02*
X6051967Y-17467436D01*
X6051967Y-17467436D02*
X6042444Y-17476960D01*
X6042444Y-17476960D02*
X6023396Y-17486484D01*
X6023396Y-17486484D02*
X6004348Y-17486484D01*
X6004348Y-17486484D02*
X5985301Y-17476960D01*
X5985301Y-17476960D02*
X5975777Y-17467436D01*
X5975777Y-17467436D02*
X5966253Y-17448389D01*
X5966253Y-17448389D02*
X5956729Y-17410293D01*
X5956729Y-17410293D02*
X5956729Y-17362674D01*
X5956729Y-17362674D02*
X5966253Y-17324579D01*
X5966253Y-17324579D02*
X5975777Y-17305531D01*
X5975777Y-17305531D02*
X5985301Y-17296008D01*
X5985301Y-17296008D02*
X6004348Y-17286484D01*
X6185301Y-17372198D02*
X6166253Y-17362674D01*
X6166253Y-17362674D02*
X6156729Y-17353150D01*
X6156729Y-17353150D02*
X6147206Y-17334103D01*
X6147206Y-17334103D02*
X6147206Y-17324579D01*
X6147206Y-17324579D02*
X6156729Y-17305531D01*
X6156729Y-17305531D02*
X6166253Y-17296008D01*
X6166253Y-17296008D02*
X6185301Y-17286484D01*
X6185301Y-17286484D02*
X6223396Y-17286484D01*
X6223396Y-17286484D02*
X6242444Y-17296008D01*
X6242444Y-17296008D02*
X6251967Y-17305531D01*
X6251967Y-17305531D02*
X6261491Y-17324579D01*
X6261491Y-17324579D02*
X6261491Y-17334103D01*
X6261491Y-17334103D02*
X6251967Y-17353150D01*
X6251967Y-17353150D02*
X6242444Y-17362674D01*
X6242444Y-17362674D02*
X6223396Y-17372198D01*
X6223396Y-17372198D02*
X6185301Y-17372198D01*
X6185301Y-17372198D02*
X6166253Y-17381722D01*
X6166253Y-17381722D02*
X6156729Y-17391246D01*
X6156729Y-17391246D02*
X6147206Y-17410293D01*
X6147206Y-17410293D02*
X6147206Y-17448389D01*
X6147206Y-17448389D02*
X6156729Y-17467436D01*
X6156729Y-17467436D02*
X6166253Y-17476960D01*
X6166253Y-17476960D02*
X6185301Y-17486484D01*
X6185301Y-17486484D02*
X6223396Y-17486484D01*
X6223396Y-17486484D02*
X6242444Y-17476960D01*
X6242444Y-17476960D02*
X6251967Y-17467436D01*
X6251967Y-17467436D02*
X6261491Y-17448389D01*
X6261491Y-17448389D02*
X6261491Y-17410293D01*
X6261491Y-17410293D02*
X6251967Y-17391246D01*
X6251967Y-17391246D02*
X6242444Y-17381722D01*
X6242444Y-17381722D02*
X6223396Y-17372198D01*
X6432920Y-17286484D02*
X6394825Y-17286484D01*
X6394825Y-17286484D02*
X6375777Y-17296008D01*
X6375777Y-17296008D02*
X6366253Y-17305531D01*
X6366253Y-17305531D02*
X6347206Y-17334103D01*
X6347206Y-17334103D02*
X6337682Y-17372198D01*
X6337682Y-17372198D02*
X6337682Y-17448389D01*
X6337682Y-17448389D02*
X6347206Y-17467436D01*
X6347206Y-17467436D02*
X6356729Y-17476960D01*
X6356729Y-17476960D02*
X6375777Y-17486484D01*
X6375777Y-17486484D02*
X6413872Y-17486484D01*
X6413872Y-17486484D02*
X6432920Y-17476960D01*
X6432920Y-17476960D02*
X6442444Y-17467436D01*
X6442444Y-17467436D02*
X6451967Y-17448389D01*
X6451967Y-17448389D02*
X6451967Y-17400770D01*
X6451967Y-17400770D02*
X6442444Y-17381722D01*
X6442444Y-17381722D02*
X6432920Y-17372198D01*
X6432920Y-17372198D02*
X6413872Y-17362674D01*
X6413872Y-17362674D02*
X6375777Y-17362674D01*
X6375777Y-17362674D02*
X6356729Y-17372198D01*
X6356729Y-17372198D02*
X6347206Y-17381722D01*
X6347206Y-17381722D02*
X6337682Y-17400770D01*
X6623396Y-17286484D02*
X6585301Y-17286484D01*
X6585301Y-17286484D02*
X6566253Y-17296008D01*
X6566253Y-17296008D02*
X6556729Y-17305531D01*
X6556729Y-17305531D02*
X6537682Y-17334103D01*
X6537682Y-17334103D02*
X6528158Y-17372198D01*
X6528158Y-17372198D02*
X6528158Y-17448389D01*
X6528158Y-17448389D02*
X6537682Y-17467436D01*
X6537682Y-17467436D02*
X6547206Y-17476960D01*
X6547206Y-17476960D02*
X6566253Y-17486484D01*
X6566253Y-17486484D02*
X6604348Y-17486484D01*
X6604348Y-17486484D02*
X6623396Y-17476960D01*
X6623396Y-17476960D02*
X6632920Y-17467436D01*
X6632920Y-17467436D02*
X6642444Y-17448389D01*
X6642444Y-17448389D02*
X6642444Y-17400770D01*
X6642444Y-17400770D02*
X6632920Y-17381722D01*
X6632920Y-17381722D02*
X6623396Y-17372198D01*
X6623396Y-17372198D02*
X6604348Y-17362674D01*
X6604348Y-17362674D02*
X6566253Y-17362674D01*
X6566253Y-17362674D02*
X6547206Y-17372198D01*
X6547206Y-17372198D02*
X6537682Y-17381722D01*
X6537682Y-17381722D02*
X6528158Y-17400770D01*
X6718634Y-17286484D02*
X6718634Y-17324579D01*
X6794825Y-17286484D02*
X6794825Y-17324579D01*
X7090063Y-17562674D02*
X7080539Y-17553150D01*
X7080539Y-17553150D02*
X7061491Y-17524579D01*
X7061491Y-17524579D02*
X7051968Y-17505531D01*
X7051968Y-17505531D02*
X7042444Y-17476960D01*
X7042444Y-17476960D02*
X7032920Y-17429341D01*
X7032920Y-17429341D02*
X7032920Y-17391246D01*
X7032920Y-17391246D02*
X7042444Y-17343627D01*
X7042444Y-17343627D02*
X7051968Y-17315055D01*
X7051968Y-17315055D02*
X7061491Y-17296008D01*
X7061491Y-17296008D02*
X7080539Y-17267436D01*
X7080539Y-17267436D02*
X7090063Y-17257912D01*
X7271015Y-17486484D02*
X7156729Y-17486484D01*
X7213872Y-17486484D02*
X7213872Y-17286484D01*
X7213872Y-17286484D02*
X7194825Y-17315055D01*
X7194825Y-17315055D02*
X7175777Y-17334103D01*
X7175777Y-17334103D02*
X7156729Y-17343627D01*
X7499587Y-17476960D02*
X7518634Y-17486484D01*
X7518634Y-17486484D02*
X7556729Y-17486484D01*
X7556729Y-17486484D02*
X7575777Y-17476960D01*
X7575777Y-17476960D02*
X7585301Y-17457912D01*
X7585301Y-17457912D02*
X7585301Y-17448389D01*
X7585301Y-17448389D02*
X7575777Y-17429341D01*
X7575777Y-17429341D02*
X7556729Y-17419817D01*
X7556729Y-17419817D02*
X7528158Y-17419817D01*
X7528158Y-17419817D02*
X7509110Y-17410293D01*
X7509110Y-17410293D02*
X7499587Y-17391246D01*
X7499587Y-17391246D02*
X7499587Y-17381722D01*
X7499587Y-17381722D02*
X7509110Y-17362674D01*
X7509110Y-17362674D02*
X7528158Y-17353150D01*
X7528158Y-17353150D02*
X7556729Y-17353150D01*
X7556729Y-17353150D02*
X7575777Y-17362674D01*
X7699587Y-17486484D02*
X7680539Y-17476960D01*
X7680539Y-17476960D02*
X7671015Y-17457912D01*
X7671015Y-17457912D02*
X7671015Y-17286484D01*
X7804349Y-17486484D02*
X7785301Y-17476960D01*
X7785301Y-17476960D02*
X7775777Y-17467436D01*
X7775777Y-17467436D02*
X7766253Y-17448389D01*
X7766253Y-17448389D02*
X7766253Y-17391246D01*
X7766253Y-17391246D02*
X7775777Y-17372198D01*
X7775777Y-17372198D02*
X7785301Y-17362674D01*
X7785301Y-17362674D02*
X7804349Y-17353150D01*
X7804349Y-17353150D02*
X7832920Y-17353150D01*
X7832920Y-17353150D02*
X7851968Y-17362674D01*
X7851968Y-17362674D02*
X7861491Y-17372198D01*
X7861491Y-17372198D02*
X7871015Y-17391246D01*
X7871015Y-17391246D02*
X7871015Y-17448389D01*
X7871015Y-17448389D02*
X7861491Y-17467436D01*
X7861491Y-17467436D02*
X7851968Y-17476960D01*
X7851968Y-17476960D02*
X7832920Y-17486484D01*
X7832920Y-17486484D02*
X7804349Y-17486484D01*
X7928158Y-17353150D02*
X8004349Y-17353150D01*
X7956730Y-17286484D02*
X7956730Y-17457912D01*
X7956730Y-17457912D02*
X7966253Y-17476960D01*
X7966253Y-17476960D02*
X7985301Y-17486484D01*
X7985301Y-17486484D02*
X8004349Y-17486484D01*
X8051968Y-17562674D02*
X8061491Y-17553150D01*
X8061491Y-17553150D02*
X8080539Y-17524579D01*
X8080539Y-17524579D02*
X8090063Y-17505531D01*
X8090063Y-17505531D02*
X8099587Y-17476960D01*
X8099587Y-17476960D02*
X8109110Y-17429341D01*
X8109110Y-17429341D02*
X8109110Y-17391246D01*
X8109110Y-17391246D02*
X8099587Y-17343627D01*
X8099587Y-17343627D02*
X8090063Y-17315055D01*
X8090063Y-17315055D02*
X8080539Y-17296008D01*
X8080539Y-17296008D02*
X8061491Y-17267436D01*
X8061491Y-17267436D02*
X8051968Y-17257912D01*
X8413873Y-17562674D02*
X8404349Y-17553150D01*
X8404349Y-17553150D02*
X8385301Y-17524579D01*
X8385301Y-17524579D02*
X8375777Y-17505531D01*
X8375777Y-17505531D02*
X8366253Y-17476960D01*
X8366253Y-17476960D02*
X8356730Y-17429341D01*
X8356730Y-17429341D02*
X8356730Y-17391246D01*
X8356730Y-17391246D02*
X8366253Y-17343627D01*
X8366253Y-17343627D02*
X8375777Y-17315055D01*
X8375777Y-17315055D02*
X8385301Y-17296008D01*
X8385301Y-17296008D02*
X8404349Y-17267436D01*
X8404349Y-17267436D02*
X8413873Y-17257912D01*
X8490063Y-17353150D02*
X8490063Y-17486484D01*
X8490063Y-17372198D02*
X8499587Y-17362674D01*
X8499587Y-17362674D02*
X8518634Y-17353150D01*
X8518634Y-17353150D02*
X8547206Y-17353150D01*
X8547206Y-17353150D02*
X8566253Y-17362674D01*
X8566253Y-17362674D02*
X8575777Y-17381722D01*
X8575777Y-17381722D02*
X8575777Y-17486484D01*
X8699587Y-17486484D02*
X8680539Y-17476960D01*
X8680539Y-17476960D02*
X8671015Y-17467436D01*
X8671015Y-17467436D02*
X8661492Y-17448389D01*
X8661492Y-17448389D02*
X8661492Y-17391246D01*
X8661492Y-17391246D02*
X8671015Y-17372198D01*
X8671015Y-17372198D02*
X8680539Y-17362674D01*
X8680539Y-17362674D02*
X8699587Y-17353150D01*
X8699587Y-17353150D02*
X8728158Y-17353150D01*
X8728158Y-17353150D02*
X8747206Y-17362674D01*
X8747206Y-17362674D02*
X8756730Y-17372198D01*
X8756730Y-17372198D02*
X8766253Y-17391246D01*
X8766253Y-17391246D02*
X8766253Y-17448389D01*
X8766253Y-17448389D02*
X8756730Y-17467436D01*
X8756730Y-17467436D02*
X8747206Y-17476960D01*
X8747206Y-17476960D02*
X8728158Y-17486484D01*
X8728158Y-17486484D02*
X8699587Y-17486484D01*
X8823396Y-17353150D02*
X8899587Y-17353150D01*
X8851968Y-17286484D02*
X8851968Y-17457912D01*
X8851968Y-17457912D02*
X8861492Y-17476960D01*
X8861492Y-17476960D02*
X8880539Y-17486484D01*
X8880539Y-17486484D02*
X8899587Y-17486484D01*
X9118634Y-17353150D02*
X9118634Y-17553150D01*
X9118634Y-17362674D02*
X9137682Y-17353150D01*
X9137682Y-17353150D02*
X9175777Y-17353150D01*
X9175777Y-17353150D02*
X9194825Y-17362674D01*
X9194825Y-17362674D02*
X9204349Y-17372198D01*
X9204349Y-17372198D02*
X9213873Y-17391246D01*
X9213873Y-17391246D02*
X9213873Y-17448389D01*
X9213873Y-17448389D02*
X9204349Y-17467436D01*
X9204349Y-17467436D02*
X9194825Y-17476960D01*
X9194825Y-17476960D02*
X9175777Y-17486484D01*
X9175777Y-17486484D02*
X9137682Y-17486484D01*
X9137682Y-17486484D02*
X9118634Y-17476960D01*
X9328158Y-17486484D02*
X9309111Y-17476960D01*
X9309111Y-17476960D02*
X9299587Y-17457912D01*
X9299587Y-17457912D02*
X9299587Y-17286484D01*
X9490063Y-17486484D02*
X9490063Y-17381722D01*
X9490063Y-17381722D02*
X9480539Y-17362674D01*
X9480539Y-17362674D02*
X9461492Y-17353150D01*
X9461492Y-17353150D02*
X9423396Y-17353150D01*
X9423396Y-17353150D02*
X9404349Y-17362674D01*
X9490063Y-17476960D02*
X9471015Y-17486484D01*
X9471015Y-17486484D02*
X9423396Y-17486484D01*
X9423396Y-17486484D02*
X9404349Y-17476960D01*
X9404349Y-17476960D02*
X9394825Y-17457912D01*
X9394825Y-17457912D02*
X9394825Y-17438865D01*
X9394825Y-17438865D02*
X9404349Y-17419817D01*
X9404349Y-17419817D02*
X9423396Y-17410293D01*
X9423396Y-17410293D02*
X9471015Y-17410293D01*
X9471015Y-17410293D02*
X9490063Y-17400770D01*
X9556730Y-17353150D02*
X9632920Y-17353150D01*
X9585301Y-17286484D02*
X9585301Y-17457912D01*
X9585301Y-17457912D02*
X9594825Y-17476960D01*
X9594825Y-17476960D02*
X9613873Y-17486484D01*
X9613873Y-17486484D02*
X9632920Y-17486484D01*
X9775777Y-17476960D02*
X9756730Y-17486484D01*
X9756730Y-17486484D02*
X9718634Y-17486484D01*
X9718634Y-17486484D02*
X9699587Y-17476960D01*
X9699587Y-17476960D02*
X9690063Y-17457912D01*
X9690063Y-17457912D02*
X9690063Y-17381722D01*
X9690063Y-17381722D02*
X9699587Y-17362674D01*
X9699587Y-17362674D02*
X9718634Y-17353150D01*
X9718634Y-17353150D02*
X9756730Y-17353150D01*
X9756730Y-17353150D02*
X9775777Y-17362674D01*
X9775777Y-17362674D02*
X9785301Y-17381722D01*
X9785301Y-17381722D02*
X9785301Y-17400770D01*
X9785301Y-17400770D02*
X9690063Y-17419817D01*
X9956730Y-17486484D02*
X9956730Y-17286484D01*
X9956730Y-17476960D02*
X9937682Y-17486484D01*
X9937682Y-17486484D02*
X9899587Y-17486484D01*
X9899587Y-17486484D02*
X9880539Y-17476960D01*
X9880539Y-17476960D02*
X9871015Y-17467436D01*
X9871015Y-17467436D02*
X9861492Y-17448389D01*
X9861492Y-17448389D02*
X9861492Y-17391246D01*
X9861492Y-17391246D02*
X9871015Y-17372198D01*
X9871015Y-17372198D02*
X9880539Y-17362674D01*
X9880539Y-17362674D02*
X9899587Y-17353150D01*
X9899587Y-17353150D02*
X9937682Y-17353150D01*
X9937682Y-17353150D02*
X9956730Y-17362674D01*
X10032920Y-17562674D02*
X10042444Y-17553150D01*
X10042444Y-17553150D02*
X10061492Y-17524579D01*
X10061492Y-17524579D02*
X10071015Y-17505531D01*
X10071015Y-17505531D02*
X10080539Y-17476960D01*
X10080539Y-17476960D02*
X10090063Y-17429341D01*
X10090063Y-17429341D02*
X10090063Y-17391246D01*
X10090063Y-17391246D02*
X10080539Y-17343627D01*
X10080539Y-17343627D02*
X10071015Y-17315055D01*
X10071015Y-17315055D02*
X10061492Y-17296008D01*
X10061492Y-17296008D02*
X10042444Y-17267436D01*
X10042444Y-17267436D02*
X10032920Y-17257912D01*
X3485711Y-17785711D02*
X3485711Y-17644289D01*
X3344289Y-17644289D01*
X3344289Y-17785711D01*
X3485711Y-17785711D01*
X3756729Y-17606484D02*
X3880539Y-17606484D01*
X3880539Y-17606484D02*
X3813872Y-17682674D01*
X3813872Y-17682674D02*
X3842443Y-17682674D01*
X3842443Y-17682674D02*
X3861491Y-17692198D01*
X3861491Y-17692198D02*
X3871015Y-17701722D01*
X3871015Y-17701722D02*
X3880539Y-17720770D01*
X3880539Y-17720770D02*
X3880539Y-17768389D01*
X3880539Y-17768389D02*
X3871015Y-17787436D01*
X3871015Y-17787436D02*
X3861491Y-17796960D01*
X3861491Y-17796960D02*
X3842443Y-17806484D01*
X3842443Y-17806484D02*
X3785301Y-17806484D01*
X3785301Y-17806484D02*
X3766253Y-17796960D01*
X3766253Y-17796960D02*
X3756729Y-17787436D01*
X3966253Y-17787436D02*
X3975777Y-17796960D01*
X3975777Y-17796960D02*
X3966253Y-17806484D01*
X3966253Y-17806484D02*
X3956729Y-17796960D01*
X3956729Y-17796960D02*
X3966253Y-17787436D01*
X3966253Y-17787436D02*
X3966253Y-17806484D01*
X4099586Y-17606484D02*
X4118634Y-17606484D01*
X4118634Y-17606484D02*
X4137682Y-17616008D01*
X4137682Y-17616008D02*
X4147205Y-17625531D01*
X4147205Y-17625531D02*
X4156729Y-17644579D01*
X4156729Y-17644579D02*
X4166253Y-17682674D01*
X4166253Y-17682674D02*
X4166253Y-17730293D01*
X4166253Y-17730293D02*
X4156729Y-17768389D01*
X4156729Y-17768389D02*
X4147205Y-17787436D01*
X4147205Y-17787436D02*
X4137682Y-17796960D01*
X4137682Y-17796960D02*
X4118634Y-17806484D01*
X4118634Y-17806484D02*
X4099586Y-17806484D01*
X4099586Y-17806484D02*
X4080539Y-17796960D01*
X4080539Y-17796960D02*
X4071015Y-17787436D01*
X4071015Y-17787436D02*
X4061491Y-17768389D01*
X4061491Y-17768389D02*
X4051967Y-17730293D01*
X4051967Y-17730293D02*
X4051967Y-17682674D01*
X4051967Y-17682674D02*
X4061491Y-17644579D01*
X4061491Y-17644579D02*
X4071015Y-17625531D01*
X4071015Y-17625531D02*
X4080539Y-17616008D01*
X4080539Y-17616008D02*
X4099586Y-17606484D01*
X4290063Y-17606484D02*
X4309110Y-17606484D01*
X4309110Y-17606484D02*
X4328158Y-17616008D01*
X4328158Y-17616008D02*
X4337682Y-17625531D01*
X4337682Y-17625531D02*
X4347205Y-17644579D01*
X4347205Y-17644579D02*
X4356729Y-17682674D01*
X4356729Y-17682674D02*
X4356729Y-17730293D01*
X4356729Y-17730293D02*
X4347205Y-17768389D01*
X4347205Y-17768389D02*
X4337682Y-17787436D01*
X4337682Y-17787436D02*
X4328158Y-17796960D01*
X4328158Y-17796960D02*
X4309110Y-17806484D01*
X4309110Y-17806484D02*
X4290063Y-17806484D01*
X4290063Y-17806484D02*
X4271015Y-17796960D01*
X4271015Y-17796960D02*
X4261491Y-17787436D01*
X4261491Y-17787436D02*
X4251967Y-17768389D01*
X4251967Y-17768389D02*
X4242444Y-17730293D01*
X4242444Y-17730293D02*
X4242444Y-17682674D01*
X4242444Y-17682674D02*
X4251967Y-17644579D01*
X4251967Y-17644579D02*
X4261491Y-17625531D01*
X4261491Y-17625531D02*
X4271015Y-17616008D01*
X4271015Y-17616008D02*
X4290063Y-17606484D01*
X4480539Y-17606484D02*
X4499586Y-17606484D01*
X4499586Y-17606484D02*
X4518634Y-17616008D01*
X4518634Y-17616008D02*
X4528158Y-17625531D01*
X4528158Y-17625531D02*
X4537682Y-17644579D01*
X4537682Y-17644579D02*
X4547205Y-17682674D01*
X4547205Y-17682674D02*
X4547205Y-17730293D01*
X4547205Y-17730293D02*
X4537682Y-17768389D01*
X4537682Y-17768389D02*
X4528158Y-17787436D01*
X4528158Y-17787436D02*
X4518634Y-17796960D01*
X4518634Y-17796960D02*
X4499586Y-17806484D01*
X4499586Y-17806484D02*
X4480539Y-17806484D01*
X4480539Y-17806484D02*
X4461491Y-17796960D01*
X4461491Y-17796960D02*
X4451967Y-17787436D01*
X4451967Y-17787436D02*
X4442444Y-17768389D01*
X4442444Y-17768389D02*
X4432920Y-17730293D01*
X4432920Y-17730293D02*
X4432920Y-17682674D01*
X4432920Y-17682674D02*
X4442444Y-17644579D01*
X4442444Y-17644579D02*
X4451967Y-17625531D01*
X4451967Y-17625531D02*
X4461491Y-17616008D01*
X4461491Y-17616008D02*
X4480539Y-17606484D01*
X4632920Y-17806484D02*
X4632920Y-17673150D01*
X4632920Y-17692198D02*
X4642444Y-17682674D01*
X4642444Y-17682674D02*
X4661491Y-17673150D01*
X4661491Y-17673150D02*
X4690063Y-17673150D01*
X4690063Y-17673150D02*
X4709110Y-17682674D01*
X4709110Y-17682674D02*
X4718634Y-17701722D01*
X4718634Y-17701722D02*
X4718634Y-17806484D01*
X4718634Y-17701722D02*
X4728158Y-17682674D01*
X4728158Y-17682674D02*
X4747205Y-17673150D01*
X4747205Y-17673150D02*
X4775777Y-17673150D01*
X4775777Y-17673150D02*
X4794825Y-17682674D01*
X4794825Y-17682674D02*
X4804348Y-17701722D01*
X4804348Y-17701722D02*
X4804348Y-17806484D01*
X4899586Y-17806484D02*
X4899586Y-17673150D01*
X4899586Y-17692198D02*
X4909110Y-17682674D01*
X4909110Y-17682674D02*
X4928158Y-17673150D01*
X4928158Y-17673150D02*
X4956729Y-17673150D01*
X4956729Y-17673150D02*
X4975777Y-17682674D01*
X4975777Y-17682674D02*
X4985301Y-17701722D01*
X4985301Y-17701722D02*
X4985301Y-17806484D01*
X4985301Y-17701722D02*
X4994825Y-17682674D01*
X4994825Y-17682674D02*
X5013872Y-17673150D01*
X5013872Y-17673150D02*
X5042444Y-17673150D01*
X5042444Y-17673150D02*
X5061491Y-17682674D01*
X5061491Y-17682674D02*
X5071015Y-17701722D01*
X5071015Y-17701722D02*
X5071015Y-17806484D01*
X5461491Y-17596960D02*
X5290063Y-17854103D01*
X5718634Y-17606484D02*
X5737682Y-17606484D01*
X5737682Y-17606484D02*
X5756729Y-17616008D01*
X5756729Y-17616008D02*
X5766253Y-17625531D01*
X5766253Y-17625531D02*
X5775777Y-17644579D01*
X5775777Y-17644579D02*
X5785301Y-17682674D01*
X5785301Y-17682674D02*
X5785301Y-17730293D01*
X5785301Y-17730293D02*
X5775777Y-17768389D01*
X5775777Y-17768389D02*
X5766253Y-17787436D01*
X5766253Y-17787436D02*
X5756729Y-17796960D01*
X5756729Y-17796960D02*
X5737682Y-17806484D01*
X5737682Y-17806484D02*
X5718634Y-17806484D01*
X5718634Y-17806484D02*
X5699586Y-17796960D01*
X5699586Y-17796960D02*
X5690063Y-17787436D01*
X5690063Y-17787436D02*
X5680539Y-17768389D01*
X5680539Y-17768389D02*
X5671015Y-17730293D01*
X5671015Y-17730293D02*
X5671015Y-17682674D01*
X5671015Y-17682674D02*
X5680539Y-17644579D01*
X5680539Y-17644579D02*
X5690063Y-17625531D01*
X5690063Y-17625531D02*
X5699586Y-17616008D01*
X5699586Y-17616008D02*
X5718634Y-17606484D01*
X5871015Y-17787436D02*
X5880539Y-17796960D01*
X5880539Y-17796960D02*
X5871015Y-17806484D01*
X5871015Y-17806484D02*
X5861491Y-17796960D01*
X5861491Y-17796960D02*
X5871015Y-17787436D01*
X5871015Y-17787436D02*
X5871015Y-17806484D01*
X6071015Y-17806484D02*
X5956729Y-17806484D01*
X6013872Y-17806484D02*
X6013872Y-17606484D01*
X6013872Y-17606484D02*
X5994825Y-17635055D01*
X5994825Y-17635055D02*
X5975777Y-17654103D01*
X5975777Y-17654103D02*
X5956729Y-17663627D01*
X6261491Y-17806484D02*
X6147206Y-17806484D01*
X6204348Y-17806484D02*
X6204348Y-17606484D01*
X6204348Y-17606484D02*
X6185301Y-17635055D01*
X6185301Y-17635055D02*
X6166253Y-17654103D01*
X6166253Y-17654103D02*
X6147206Y-17663627D01*
X6375777Y-17692198D02*
X6356729Y-17682674D01*
X6356729Y-17682674D02*
X6347206Y-17673150D01*
X6347206Y-17673150D02*
X6337682Y-17654103D01*
X6337682Y-17654103D02*
X6337682Y-17644579D01*
X6337682Y-17644579D02*
X6347206Y-17625531D01*
X6347206Y-17625531D02*
X6356729Y-17616008D01*
X6356729Y-17616008D02*
X6375777Y-17606484D01*
X6375777Y-17606484D02*
X6413872Y-17606484D01*
X6413872Y-17606484D02*
X6432920Y-17616008D01*
X6432920Y-17616008D02*
X6442444Y-17625531D01*
X6442444Y-17625531D02*
X6451967Y-17644579D01*
X6451967Y-17644579D02*
X6451967Y-17654103D01*
X6451967Y-17654103D02*
X6442444Y-17673150D01*
X6442444Y-17673150D02*
X6432920Y-17682674D01*
X6432920Y-17682674D02*
X6413872Y-17692198D01*
X6413872Y-17692198D02*
X6375777Y-17692198D01*
X6375777Y-17692198D02*
X6356729Y-17701722D01*
X6356729Y-17701722D02*
X6347206Y-17711246D01*
X6347206Y-17711246D02*
X6337682Y-17730293D01*
X6337682Y-17730293D02*
X6337682Y-17768389D01*
X6337682Y-17768389D02*
X6347206Y-17787436D01*
X6347206Y-17787436D02*
X6356729Y-17796960D01*
X6356729Y-17796960D02*
X6375777Y-17806484D01*
X6375777Y-17806484D02*
X6413872Y-17806484D01*
X6413872Y-17806484D02*
X6432920Y-17796960D01*
X6432920Y-17796960D02*
X6442444Y-17787436D01*
X6442444Y-17787436D02*
X6451967Y-17768389D01*
X6451967Y-17768389D02*
X6451967Y-17730293D01*
X6451967Y-17730293D02*
X6442444Y-17711246D01*
X6442444Y-17711246D02*
X6432920Y-17701722D01*
X6432920Y-17701722D02*
X6413872Y-17692198D01*
X6642444Y-17806484D02*
X6528158Y-17806484D01*
X6585301Y-17806484D02*
X6585301Y-17606484D01*
X6585301Y-17606484D02*
X6566253Y-17635055D01*
X6566253Y-17635055D02*
X6547206Y-17654103D01*
X6547206Y-17654103D02*
X6528158Y-17663627D01*
X6718634Y-17606484D02*
X6718634Y-17644579D01*
X6794825Y-17606484D02*
X6794825Y-17644579D01*
X7090063Y-17882674D02*
X7080539Y-17873150D01*
X7080539Y-17873150D02*
X7061491Y-17844579D01*
X7061491Y-17844579D02*
X7051968Y-17825531D01*
X7051968Y-17825531D02*
X7042444Y-17796960D01*
X7042444Y-17796960D02*
X7032920Y-17749341D01*
X7032920Y-17749341D02*
X7032920Y-17711246D01*
X7032920Y-17711246D02*
X7042444Y-17663627D01*
X7042444Y-17663627D02*
X7051968Y-17635055D01*
X7051968Y-17635055D02*
X7061491Y-17616008D01*
X7061491Y-17616008D02*
X7080539Y-17587436D01*
X7080539Y-17587436D02*
X7090063Y-17577912D01*
X7147206Y-17606484D02*
X7280539Y-17606484D01*
X7280539Y-17606484D02*
X7194825Y-17806484D01*
X7385301Y-17692198D02*
X7366253Y-17682674D01*
X7366253Y-17682674D02*
X7356729Y-17673150D01*
X7356729Y-17673150D02*
X7347206Y-17654103D01*
X7347206Y-17654103D02*
X7347206Y-17644579D01*
X7347206Y-17644579D02*
X7356729Y-17625531D01*
X7356729Y-17625531D02*
X7366253Y-17616008D01*
X7366253Y-17616008D02*
X7385301Y-17606484D01*
X7385301Y-17606484D02*
X7423396Y-17606484D01*
X7423396Y-17606484D02*
X7442444Y-17616008D01*
X7442444Y-17616008D02*
X7451968Y-17625531D01*
X7451968Y-17625531D02*
X7461491Y-17644579D01*
X7461491Y-17644579D02*
X7461491Y-17654103D01*
X7461491Y-17654103D02*
X7451968Y-17673150D01*
X7451968Y-17673150D02*
X7442444Y-17682674D01*
X7442444Y-17682674D02*
X7423396Y-17692198D01*
X7423396Y-17692198D02*
X7385301Y-17692198D01*
X7385301Y-17692198D02*
X7366253Y-17701722D01*
X7366253Y-17701722D02*
X7356729Y-17711246D01*
X7356729Y-17711246D02*
X7347206Y-17730293D01*
X7347206Y-17730293D02*
X7347206Y-17768389D01*
X7347206Y-17768389D02*
X7356729Y-17787436D01*
X7356729Y-17787436D02*
X7366253Y-17796960D01*
X7366253Y-17796960D02*
X7385301Y-17806484D01*
X7385301Y-17806484D02*
X7423396Y-17806484D01*
X7423396Y-17806484D02*
X7442444Y-17796960D01*
X7442444Y-17796960D02*
X7451968Y-17787436D01*
X7451968Y-17787436D02*
X7461491Y-17768389D01*
X7461491Y-17768389D02*
X7461491Y-17730293D01*
X7461491Y-17730293D02*
X7451968Y-17711246D01*
X7451968Y-17711246D02*
X7442444Y-17701722D01*
X7442444Y-17701722D02*
X7423396Y-17692198D01*
X7699587Y-17806484D02*
X7699587Y-17606484D01*
X7785301Y-17806484D02*
X7785301Y-17701722D01*
X7785301Y-17701722D02*
X7775777Y-17682674D01*
X7775777Y-17682674D02*
X7756730Y-17673150D01*
X7756730Y-17673150D02*
X7728158Y-17673150D01*
X7728158Y-17673150D02*
X7709110Y-17682674D01*
X7709110Y-17682674D02*
X7699587Y-17692198D01*
X7909110Y-17806484D02*
X7890063Y-17796960D01*
X7890063Y-17796960D02*
X7880539Y-17787436D01*
X7880539Y-17787436D02*
X7871015Y-17768389D01*
X7871015Y-17768389D02*
X7871015Y-17711246D01*
X7871015Y-17711246D02*
X7880539Y-17692198D01*
X7880539Y-17692198D02*
X7890063Y-17682674D01*
X7890063Y-17682674D02*
X7909110Y-17673150D01*
X7909110Y-17673150D02*
X7937682Y-17673150D01*
X7937682Y-17673150D02*
X7956730Y-17682674D01*
X7956730Y-17682674D02*
X7966253Y-17692198D01*
X7966253Y-17692198D02*
X7975777Y-17711246D01*
X7975777Y-17711246D02*
X7975777Y-17768389D01*
X7975777Y-17768389D02*
X7966253Y-17787436D01*
X7966253Y-17787436D02*
X7956730Y-17796960D01*
X7956730Y-17796960D02*
X7937682Y-17806484D01*
X7937682Y-17806484D02*
X7909110Y-17806484D01*
X8090063Y-17806484D02*
X8071015Y-17796960D01*
X8071015Y-17796960D02*
X8061491Y-17777912D01*
X8061491Y-17777912D02*
X8061491Y-17606484D01*
X8242444Y-17796960D02*
X8223396Y-17806484D01*
X8223396Y-17806484D02*
X8185301Y-17806484D01*
X8185301Y-17806484D02*
X8166253Y-17796960D01*
X8166253Y-17796960D02*
X8156730Y-17777912D01*
X8156730Y-17777912D02*
X8156730Y-17701722D01*
X8156730Y-17701722D02*
X8166253Y-17682674D01*
X8166253Y-17682674D02*
X8185301Y-17673150D01*
X8185301Y-17673150D02*
X8223396Y-17673150D01*
X8223396Y-17673150D02*
X8242444Y-17682674D01*
X8242444Y-17682674D02*
X8251968Y-17701722D01*
X8251968Y-17701722D02*
X8251968Y-17720770D01*
X8251968Y-17720770D02*
X8156730Y-17739817D01*
X8328158Y-17796960D02*
X8347206Y-17806484D01*
X8347206Y-17806484D02*
X8385301Y-17806484D01*
X8385301Y-17806484D02*
X8404349Y-17796960D01*
X8404349Y-17796960D02*
X8413873Y-17777912D01*
X8413873Y-17777912D02*
X8413873Y-17768389D01*
X8413873Y-17768389D02*
X8404349Y-17749341D01*
X8404349Y-17749341D02*
X8385301Y-17739817D01*
X8385301Y-17739817D02*
X8356730Y-17739817D01*
X8356730Y-17739817D02*
X8337682Y-17730293D01*
X8337682Y-17730293D02*
X8328158Y-17711246D01*
X8328158Y-17711246D02*
X8328158Y-17701722D01*
X8328158Y-17701722D02*
X8337682Y-17682674D01*
X8337682Y-17682674D02*
X8356730Y-17673150D01*
X8356730Y-17673150D02*
X8385301Y-17673150D01*
X8385301Y-17673150D02*
X8404349Y-17682674D01*
X8480539Y-17882674D02*
X8490063Y-17873150D01*
X8490063Y-17873150D02*
X8509111Y-17844579D01*
X8509111Y-17844579D02*
X8518634Y-17825531D01*
X8518634Y-17825531D02*
X8528158Y-17796960D01*
X8528158Y-17796960D02*
X8537682Y-17749341D01*
X8537682Y-17749341D02*
X8537682Y-17711246D01*
X8537682Y-17711246D02*
X8528158Y-17663627D01*
X8528158Y-17663627D02*
X8518634Y-17635055D01*
X8518634Y-17635055D02*
X8509111Y-17616008D01*
X8509111Y-17616008D02*
X8490063Y-17587436D01*
X8490063Y-17587436D02*
X8480539Y-17577912D01*
X8842444Y-17882674D02*
X8832920Y-17873150D01*
X8832920Y-17873150D02*
X8813873Y-17844579D01*
X8813873Y-17844579D02*
X8804349Y-17825531D01*
X8804349Y-17825531D02*
X8794825Y-17796960D01*
X8794825Y-17796960D02*
X8785301Y-17749341D01*
X8785301Y-17749341D02*
X8785301Y-17711246D01*
X8785301Y-17711246D02*
X8794825Y-17663627D01*
X8794825Y-17663627D02*
X8804349Y-17635055D01*
X8804349Y-17635055D02*
X8813873Y-17616008D01*
X8813873Y-17616008D02*
X8832920Y-17587436D01*
X8832920Y-17587436D02*
X8842444Y-17577912D01*
X8918634Y-17673150D02*
X8918634Y-17806484D01*
X8918634Y-17692198D02*
X8928158Y-17682674D01*
X8928158Y-17682674D02*
X8947206Y-17673150D01*
X8947206Y-17673150D02*
X8975777Y-17673150D01*
X8975777Y-17673150D02*
X8994825Y-17682674D01*
X8994825Y-17682674D02*
X9004349Y-17701722D01*
X9004349Y-17701722D02*
X9004349Y-17806484D01*
X9128158Y-17806484D02*
X9109111Y-17796960D01*
X9109111Y-17796960D02*
X9099587Y-17787436D01*
X9099587Y-17787436D02*
X9090063Y-17768389D01*
X9090063Y-17768389D02*
X9090063Y-17711246D01*
X9090063Y-17711246D02*
X9099587Y-17692198D01*
X9099587Y-17692198D02*
X9109111Y-17682674D01*
X9109111Y-17682674D02*
X9128158Y-17673150D01*
X9128158Y-17673150D02*
X9156730Y-17673150D01*
X9156730Y-17673150D02*
X9175777Y-17682674D01*
X9175777Y-17682674D02*
X9185301Y-17692198D01*
X9185301Y-17692198D02*
X9194825Y-17711246D01*
X9194825Y-17711246D02*
X9194825Y-17768389D01*
X9194825Y-17768389D02*
X9185301Y-17787436D01*
X9185301Y-17787436D02*
X9175777Y-17796960D01*
X9175777Y-17796960D02*
X9156730Y-17806484D01*
X9156730Y-17806484D02*
X9128158Y-17806484D01*
X9251968Y-17673150D02*
X9328158Y-17673150D01*
X9280539Y-17606484D02*
X9280539Y-17777912D01*
X9280539Y-17777912D02*
X9290063Y-17796960D01*
X9290063Y-17796960D02*
X9309111Y-17806484D01*
X9309111Y-17806484D02*
X9328158Y-17806484D01*
X9547206Y-17673150D02*
X9547206Y-17873150D01*
X9547206Y-17682674D02*
X9566254Y-17673150D01*
X9566254Y-17673150D02*
X9604349Y-17673150D01*
X9604349Y-17673150D02*
X9623396Y-17682674D01*
X9623396Y-17682674D02*
X9632920Y-17692198D01*
X9632920Y-17692198D02*
X9642444Y-17711246D01*
X9642444Y-17711246D02*
X9642444Y-17768389D01*
X9642444Y-17768389D02*
X9632920Y-17787436D01*
X9632920Y-17787436D02*
X9623396Y-17796960D01*
X9623396Y-17796960D02*
X9604349Y-17806484D01*
X9604349Y-17806484D02*
X9566254Y-17806484D01*
X9566254Y-17806484D02*
X9547206Y-17796960D01*
X9756730Y-17806484D02*
X9737682Y-17796960D01*
X9737682Y-17796960D02*
X9728158Y-17777912D01*
X9728158Y-17777912D02*
X9728158Y-17606484D01*
X9918635Y-17806484D02*
X9918635Y-17701722D01*
X9918635Y-17701722D02*
X9909111Y-17682674D01*
X9909111Y-17682674D02*
X9890063Y-17673150D01*
X9890063Y-17673150D02*
X9851968Y-17673150D01*
X9851968Y-17673150D02*
X9832920Y-17682674D01*
X9918635Y-17796960D02*
X9899587Y-17806484D01*
X9899587Y-17806484D02*
X9851968Y-17806484D01*
X9851968Y-17806484D02*
X9832920Y-17796960D01*
X9832920Y-17796960D02*
X9823396Y-17777912D01*
X9823396Y-17777912D02*
X9823396Y-17758865D01*
X9823396Y-17758865D02*
X9832920Y-17739817D01*
X9832920Y-17739817D02*
X9851968Y-17730293D01*
X9851968Y-17730293D02*
X9899587Y-17730293D01*
X9899587Y-17730293D02*
X9918635Y-17720770D01*
X9985301Y-17673150D02*
X10061492Y-17673150D01*
X10013873Y-17606484D02*
X10013873Y-17777912D01*
X10013873Y-17777912D02*
X10023396Y-17796960D01*
X10023396Y-17796960D02*
X10042444Y-17806484D01*
X10042444Y-17806484D02*
X10061492Y-17806484D01*
X10204349Y-17796960D02*
X10185301Y-17806484D01*
X10185301Y-17806484D02*
X10147206Y-17806484D01*
X10147206Y-17806484D02*
X10128158Y-17796960D01*
X10128158Y-17796960D02*
X10118635Y-17777912D01*
X10118635Y-17777912D02*
X10118635Y-17701722D01*
X10118635Y-17701722D02*
X10128158Y-17682674D01*
X10128158Y-17682674D02*
X10147206Y-17673150D01*
X10147206Y-17673150D02*
X10185301Y-17673150D01*
X10185301Y-17673150D02*
X10204349Y-17682674D01*
X10204349Y-17682674D02*
X10213873Y-17701722D01*
X10213873Y-17701722D02*
X10213873Y-17720770D01*
X10213873Y-17720770D02*
X10118635Y-17739817D01*
X10385301Y-17806484D02*
X10385301Y-17606484D01*
X10385301Y-17796960D02*
X10366254Y-17806484D01*
X10366254Y-17806484D02*
X10328158Y-17806484D01*
X10328158Y-17806484D02*
X10309111Y-17796960D01*
X10309111Y-17796960D02*
X10299587Y-17787436D01*
X10299587Y-17787436D02*
X10290063Y-17768389D01*
X10290063Y-17768389D02*
X10290063Y-17711246D01*
X10290063Y-17711246D02*
X10299587Y-17692198D01*
X10299587Y-17692198D02*
X10309111Y-17682674D01*
X10309111Y-17682674D02*
X10328158Y-17673150D01*
X10328158Y-17673150D02*
X10366254Y-17673150D01*
X10366254Y-17673150D02*
X10385301Y-17682674D01*
X10461492Y-17882674D02*
X10471016Y-17873150D01*
X10471016Y-17873150D02*
X10490063Y-17844579D01*
X10490063Y-17844579D02*
X10499587Y-17825531D01*
X10499587Y-17825531D02*
X10509111Y-17796960D01*
X10509111Y-17796960D02*
X10518635Y-17749341D01*
X10518635Y-17749341D02*
X10518635Y-17711246D01*
X10518635Y-17711246D02*
X10509111Y-17663627D01*
X10509111Y-17663627D02*
X10499587Y-17635055D01*
X10499587Y-17635055D02*
X10490063Y-17616008D01*
X10490063Y-17616008D02*
X10471016Y-17587436D01*
X10471016Y-17587436D02*
X10461492Y-17577912D01*
X3415000Y-18135000D02*
X3515000Y-18035000D01*
X3415000Y-17935000D01*
X3315000Y-18035000D01*
X3415000Y-18135000D01*
X3871015Y-17926484D02*
X3775777Y-17926484D01*
X3775777Y-17926484D02*
X3766253Y-18021722D01*
X3766253Y-18021722D02*
X3775777Y-18012198D01*
X3775777Y-18012198D02*
X3794824Y-18002674D01*
X3794824Y-18002674D02*
X3842443Y-18002674D01*
X3842443Y-18002674D02*
X3861491Y-18012198D01*
X3861491Y-18012198D02*
X3871015Y-18021722D01*
X3871015Y-18021722D02*
X3880539Y-18040770D01*
X3880539Y-18040770D02*
X3880539Y-18088389D01*
X3880539Y-18088389D02*
X3871015Y-18107436D01*
X3871015Y-18107436D02*
X3861491Y-18116960D01*
X3861491Y-18116960D02*
X3842443Y-18126484D01*
X3842443Y-18126484D02*
X3794824Y-18126484D01*
X3794824Y-18126484D02*
X3775777Y-18116960D01*
X3775777Y-18116960D02*
X3766253Y-18107436D01*
X3966253Y-18107436D02*
X3975777Y-18116960D01*
X3975777Y-18116960D02*
X3966253Y-18126484D01*
X3966253Y-18126484D02*
X3956729Y-18116960D01*
X3956729Y-18116960D02*
X3966253Y-18107436D01*
X3966253Y-18107436D02*
X3966253Y-18126484D01*
X4099586Y-17926484D02*
X4118634Y-17926484D01*
X4118634Y-17926484D02*
X4137682Y-17936008D01*
X4137682Y-17936008D02*
X4147205Y-17945531D01*
X4147205Y-17945531D02*
X4156729Y-17964579D01*
X4156729Y-17964579D02*
X4166253Y-18002674D01*
X4166253Y-18002674D02*
X4166253Y-18050293D01*
X4166253Y-18050293D02*
X4156729Y-18088389D01*
X4156729Y-18088389D02*
X4147205Y-18107436D01*
X4147205Y-18107436D02*
X4137682Y-18116960D01*
X4137682Y-18116960D02*
X4118634Y-18126484D01*
X4118634Y-18126484D02*
X4099586Y-18126484D01*
X4099586Y-18126484D02*
X4080539Y-18116960D01*
X4080539Y-18116960D02*
X4071015Y-18107436D01*
X4071015Y-18107436D02*
X4061491Y-18088389D01*
X4061491Y-18088389D02*
X4051967Y-18050293D01*
X4051967Y-18050293D02*
X4051967Y-18002674D01*
X4051967Y-18002674D02*
X4061491Y-17964579D01*
X4061491Y-17964579D02*
X4071015Y-17945531D01*
X4071015Y-17945531D02*
X4080539Y-17936008D01*
X4080539Y-17936008D02*
X4099586Y-17926484D01*
X4290063Y-17926484D02*
X4309110Y-17926484D01*
X4309110Y-17926484D02*
X4328158Y-17936008D01*
X4328158Y-17936008D02*
X4337682Y-17945531D01*
X4337682Y-17945531D02*
X4347205Y-17964579D01*
X4347205Y-17964579D02*
X4356729Y-18002674D01*
X4356729Y-18002674D02*
X4356729Y-18050293D01*
X4356729Y-18050293D02*
X4347205Y-18088389D01*
X4347205Y-18088389D02*
X4337682Y-18107436D01*
X4337682Y-18107436D02*
X4328158Y-18116960D01*
X4328158Y-18116960D02*
X4309110Y-18126484D01*
X4309110Y-18126484D02*
X4290063Y-18126484D01*
X4290063Y-18126484D02*
X4271015Y-18116960D01*
X4271015Y-18116960D02*
X4261491Y-18107436D01*
X4261491Y-18107436D02*
X4251967Y-18088389D01*
X4251967Y-18088389D02*
X4242444Y-18050293D01*
X4242444Y-18050293D02*
X4242444Y-18002674D01*
X4242444Y-18002674D02*
X4251967Y-17964579D01*
X4251967Y-17964579D02*
X4261491Y-17945531D01*
X4261491Y-17945531D02*
X4271015Y-17936008D01*
X4271015Y-17936008D02*
X4290063Y-17926484D01*
X4480539Y-17926484D02*
X4499586Y-17926484D01*
X4499586Y-17926484D02*
X4518634Y-17936008D01*
X4518634Y-17936008D02*
X4528158Y-17945531D01*
X4528158Y-17945531D02*
X4537682Y-17964579D01*
X4537682Y-17964579D02*
X4547205Y-18002674D01*
X4547205Y-18002674D02*
X4547205Y-18050293D01*
X4547205Y-18050293D02*
X4537682Y-18088389D01*
X4537682Y-18088389D02*
X4528158Y-18107436D01*
X4528158Y-18107436D02*
X4518634Y-18116960D01*
X4518634Y-18116960D02*
X4499586Y-18126484D01*
X4499586Y-18126484D02*
X4480539Y-18126484D01*
X4480539Y-18126484D02*
X4461491Y-18116960D01*
X4461491Y-18116960D02*
X4451967Y-18107436D01*
X4451967Y-18107436D02*
X4442444Y-18088389D01*
X4442444Y-18088389D02*
X4432920Y-18050293D01*
X4432920Y-18050293D02*
X4432920Y-18002674D01*
X4432920Y-18002674D02*
X4442444Y-17964579D01*
X4442444Y-17964579D02*
X4451967Y-17945531D01*
X4451967Y-17945531D02*
X4461491Y-17936008D01*
X4461491Y-17936008D02*
X4480539Y-17926484D01*
X4632920Y-18126484D02*
X4632920Y-17993150D01*
X4632920Y-18012198D02*
X4642444Y-18002674D01*
X4642444Y-18002674D02*
X4661491Y-17993150D01*
X4661491Y-17993150D02*
X4690063Y-17993150D01*
X4690063Y-17993150D02*
X4709110Y-18002674D01*
X4709110Y-18002674D02*
X4718634Y-18021722D01*
X4718634Y-18021722D02*
X4718634Y-18126484D01*
X4718634Y-18021722D02*
X4728158Y-18002674D01*
X4728158Y-18002674D02*
X4747205Y-17993150D01*
X4747205Y-17993150D02*
X4775777Y-17993150D01*
X4775777Y-17993150D02*
X4794825Y-18002674D01*
X4794825Y-18002674D02*
X4804348Y-18021722D01*
X4804348Y-18021722D02*
X4804348Y-18126484D01*
X4899586Y-18126484D02*
X4899586Y-17993150D01*
X4899586Y-18012198D02*
X4909110Y-18002674D01*
X4909110Y-18002674D02*
X4928158Y-17993150D01*
X4928158Y-17993150D02*
X4956729Y-17993150D01*
X4956729Y-17993150D02*
X4975777Y-18002674D01*
X4975777Y-18002674D02*
X4985301Y-18021722D01*
X4985301Y-18021722D02*
X4985301Y-18126484D01*
X4985301Y-18021722D02*
X4994825Y-18002674D01*
X4994825Y-18002674D02*
X5013872Y-17993150D01*
X5013872Y-17993150D02*
X5042444Y-17993150D01*
X5042444Y-17993150D02*
X5061491Y-18002674D01*
X5061491Y-18002674D02*
X5071015Y-18021722D01*
X5071015Y-18021722D02*
X5071015Y-18126484D01*
X5461491Y-17916960D02*
X5290063Y-18174103D01*
X5718634Y-17926484D02*
X5737682Y-17926484D01*
X5737682Y-17926484D02*
X5756729Y-17936008D01*
X5756729Y-17936008D02*
X5766253Y-17945531D01*
X5766253Y-17945531D02*
X5775777Y-17964579D01*
X5775777Y-17964579D02*
X5785301Y-18002674D01*
X5785301Y-18002674D02*
X5785301Y-18050293D01*
X5785301Y-18050293D02*
X5775777Y-18088389D01*
X5775777Y-18088389D02*
X5766253Y-18107436D01*
X5766253Y-18107436D02*
X5756729Y-18116960D01*
X5756729Y-18116960D02*
X5737682Y-18126484D01*
X5737682Y-18126484D02*
X5718634Y-18126484D01*
X5718634Y-18126484D02*
X5699586Y-18116960D01*
X5699586Y-18116960D02*
X5690063Y-18107436D01*
X5690063Y-18107436D02*
X5680539Y-18088389D01*
X5680539Y-18088389D02*
X5671015Y-18050293D01*
X5671015Y-18050293D02*
X5671015Y-18002674D01*
X5671015Y-18002674D02*
X5680539Y-17964579D01*
X5680539Y-17964579D02*
X5690063Y-17945531D01*
X5690063Y-17945531D02*
X5699586Y-17936008D01*
X5699586Y-17936008D02*
X5718634Y-17926484D01*
X5871015Y-18107436D02*
X5880539Y-18116960D01*
X5880539Y-18116960D02*
X5871015Y-18126484D01*
X5871015Y-18126484D02*
X5861491Y-18116960D01*
X5861491Y-18116960D02*
X5871015Y-18107436D01*
X5871015Y-18107436D02*
X5871015Y-18126484D01*
X6071015Y-18126484D02*
X5956729Y-18126484D01*
X6013872Y-18126484D02*
X6013872Y-17926484D01*
X6013872Y-17926484D02*
X5994825Y-17955055D01*
X5994825Y-17955055D02*
X5975777Y-17974103D01*
X5975777Y-17974103D02*
X5956729Y-17983627D01*
X6166253Y-18126484D02*
X6204348Y-18126484D01*
X6204348Y-18126484D02*
X6223396Y-18116960D01*
X6223396Y-18116960D02*
X6232920Y-18107436D01*
X6232920Y-18107436D02*
X6251967Y-18078865D01*
X6251967Y-18078865D02*
X6261491Y-18040770D01*
X6261491Y-18040770D02*
X6261491Y-17964579D01*
X6261491Y-17964579D02*
X6251967Y-17945531D01*
X6251967Y-17945531D02*
X6242444Y-17936008D01*
X6242444Y-17936008D02*
X6223396Y-17926484D01*
X6223396Y-17926484D02*
X6185301Y-17926484D01*
X6185301Y-17926484D02*
X6166253Y-17936008D01*
X6166253Y-17936008D02*
X6156729Y-17945531D01*
X6156729Y-17945531D02*
X6147206Y-17964579D01*
X6147206Y-17964579D02*
X6147206Y-18012198D01*
X6147206Y-18012198D02*
X6156729Y-18031246D01*
X6156729Y-18031246D02*
X6166253Y-18040770D01*
X6166253Y-18040770D02*
X6185301Y-18050293D01*
X6185301Y-18050293D02*
X6223396Y-18050293D01*
X6223396Y-18050293D02*
X6242444Y-18040770D01*
X6242444Y-18040770D02*
X6251967Y-18031246D01*
X6251967Y-18031246D02*
X6261491Y-18012198D01*
X6432920Y-17926484D02*
X6394825Y-17926484D01*
X6394825Y-17926484D02*
X6375777Y-17936008D01*
X6375777Y-17936008D02*
X6366253Y-17945531D01*
X6366253Y-17945531D02*
X6347206Y-17974103D01*
X6347206Y-17974103D02*
X6337682Y-18012198D01*
X6337682Y-18012198D02*
X6337682Y-18088389D01*
X6337682Y-18088389D02*
X6347206Y-18107436D01*
X6347206Y-18107436D02*
X6356729Y-18116960D01*
X6356729Y-18116960D02*
X6375777Y-18126484D01*
X6375777Y-18126484D02*
X6413872Y-18126484D01*
X6413872Y-18126484D02*
X6432920Y-18116960D01*
X6432920Y-18116960D02*
X6442444Y-18107436D01*
X6442444Y-18107436D02*
X6451967Y-18088389D01*
X6451967Y-18088389D02*
X6451967Y-18040770D01*
X6451967Y-18040770D02*
X6442444Y-18021722D01*
X6442444Y-18021722D02*
X6432920Y-18012198D01*
X6432920Y-18012198D02*
X6413872Y-18002674D01*
X6413872Y-18002674D02*
X6375777Y-18002674D01*
X6375777Y-18002674D02*
X6356729Y-18012198D01*
X6356729Y-18012198D02*
X6347206Y-18021722D01*
X6347206Y-18021722D02*
X6337682Y-18040770D01*
X6547206Y-18126484D02*
X6585301Y-18126484D01*
X6585301Y-18126484D02*
X6604348Y-18116960D01*
X6604348Y-18116960D02*
X6613872Y-18107436D01*
X6613872Y-18107436D02*
X6632920Y-18078865D01*
X6632920Y-18078865D02*
X6642444Y-18040770D01*
X6642444Y-18040770D02*
X6642444Y-17964579D01*
X6642444Y-17964579D02*
X6632920Y-17945531D01*
X6632920Y-17945531D02*
X6623396Y-17936008D01*
X6623396Y-17936008D02*
X6604348Y-17926484D01*
X6604348Y-17926484D02*
X6566253Y-17926484D01*
X6566253Y-17926484D02*
X6547206Y-17936008D01*
X6547206Y-17936008D02*
X6537682Y-17945531D01*
X6537682Y-17945531D02*
X6528158Y-17964579D01*
X6528158Y-17964579D02*
X6528158Y-18012198D01*
X6528158Y-18012198D02*
X6537682Y-18031246D01*
X6537682Y-18031246D02*
X6547206Y-18040770D01*
X6547206Y-18040770D02*
X6566253Y-18050293D01*
X6566253Y-18050293D02*
X6604348Y-18050293D01*
X6604348Y-18050293D02*
X6623396Y-18040770D01*
X6623396Y-18040770D02*
X6632920Y-18031246D01*
X6632920Y-18031246D02*
X6642444Y-18012198D01*
X6718634Y-17926484D02*
X6718634Y-17964579D01*
X6794825Y-17926484D02*
X6794825Y-17964579D01*
X7090063Y-18202674D02*
X7080539Y-18193150D01*
X7080539Y-18193150D02*
X7061491Y-18164579D01*
X7061491Y-18164579D02*
X7051968Y-18145531D01*
X7051968Y-18145531D02*
X7042444Y-18116960D01*
X7042444Y-18116960D02*
X7032920Y-18069341D01*
X7032920Y-18069341D02*
X7032920Y-18031246D01*
X7032920Y-18031246D02*
X7042444Y-17983627D01*
X7042444Y-17983627D02*
X7051968Y-17955055D01*
X7051968Y-17955055D02*
X7061491Y-17936008D01*
X7061491Y-17936008D02*
X7080539Y-17907436D01*
X7080539Y-17907436D02*
X7090063Y-17897912D01*
X7147206Y-17926484D02*
X7271015Y-17926484D01*
X7271015Y-17926484D02*
X7204348Y-18002674D01*
X7204348Y-18002674D02*
X7232920Y-18002674D01*
X7232920Y-18002674D02*
X7251968Y-18012198D01*
X7251968Y-18012198D02*
X7261491Y-18021722D01*
X7261491Y-18021722D02*
X7271015Y-18040770D01*
X7271015Y-18040770D02*
X7271015Y-18088389D01*
X7271015Y-18088389D02*
X7261491Y-18107436D01*
X7261491Y-18107436D02*
X7251968Y-18116960D01*
X7251968Y-18116960D02*
X7232920Y-18126484D01*
X7232920Y-18126484D02*
X7175777Y-18126484D01*
X7175777Y-18126484D02*
X7156729Y-18116960D01*
X7156729Y-18116960D02*
X7147206Y-18107436D01*
X7366253Y-18126484D02*
X7404348Y-18126484D01*
X7404348Y-18126484D02*
X7423396Y-18116960D01*
X7423396Y-18116960D02*
X7432920Y-18107436D01*
X7432920Y-18107436D02*
X7451968Y-18078865D01*
X7451968Y-18078865D02*
X7461491Y-18040770D01*
X7461491Y-18040770D02*
X7461491Y-17964579D01*
X7461491Y-17964579D02*
X7451968Y-17945531D01*
X7451968Y-17945531D02*
X7442444Y-17936008D01*
X7442444Y-17936008D02*
X7423396Y-17926484D01*
X7423396Y-17926484D02*
X7385301Y-17926484D01*
X7385301Y-17926484D02*
X7366253Y-17936008D01*
X7366253Y-17936008D02*
X7356729Y-17945531D01*
X7356729Y-17945531D02*
X7347206Y-17964579D01*
X7347206Y-17964579D02*
X7347206Y-18012198D01*
X7347206Y-18012198D02*
X7356729Y-18031246D01*
X7356729Y-18031246D02*
X7366253Y-18040770D01*
X7366253Y-18040770D02*
X7385301Y-18050293D01*
X7385301Y-18050293D02*
X7423396Y-18050293D01*
X7423396Y-18050293D02*
X7442444Y-18040770D01*
X7442444Y-18040770D02*
X7451968Y-18031246D01*
X7451968Y-18031246D02*
X7461491Y-18012198D01*
X7699587Y-18126484D02*
X7699587Y-17926484D01*
X7785301Y-18126484D02*
X7785301Y-18021722D01*
X7785301Y-18021722D02*
X7775777Y-18002674D01*
X7775777Y-18002674D02*
X7756730Y-17993150D01*
X7756730Y-17993150D02*
X7728158Y-17993150D01*
X7728158Y-17993150D02*
X7709110Y-18002674D01*
X7709110Y-18002674D02*
X7699587Y-18012198D01*
X7909110Y-18126484D02*
X7890063Y-18116960D01*
X7890063Y-18116960D02*
X7880539Y-18107436D01*
X7880539Y-18107436D02*
X7871015Y-18088389D01*
X7871015Y-18088389D02*
X7871015Y-18031246D01*
X7871015Y-18031246D02*
X7880539Y-18012198D01*
X7880539Y-18012198D02*
X7890063Y-18002674D01*
X7890063Y-18002674D02*
X7909110Y-17993150D01*
X7909110Y-17993150D02*
X7937682Y-17993150D01*
X7937682Y-17993150D02*
X7956730Y-18002674D01*
X7956730Y-18002674D02*
X7966253Y-18012198D01*
X7966253Y-18012198D02*
X7975777Y-18031246D01*
X7975777Y-18031246D02*
X7975777Y-18088389D01*
X7975777Y-18088389D02*
X7966253Y-18107436D01*
X7966253Y-18107436D02*
X7956730Y-18116960D01*
X7956730Y-18116960D02*
X7937682Y-18126484D01*
X7937682Y-18126484D02*
X7909110Y-18126484D01*
X8090063Y-18126484D02*
X8071015Y-18116960D01*
X8071015Y-18116960D02*
X8061491Y-18097912D01*
X8061491Y-18097912D02*
X8061491Y-17926484D01*
X8242444Y-18116960D02*
X8223396Y-18126484D01*
X8223396Y-18126484D02*
X8185301Y-18126484D01*
X8185301Y-18126484D02*
X8166253Y-18116960D01*
X8166253Y-18116960D02*
X8156730Y-18097912D01*
X8156730Y-18097912D02*
X8156730Y-18021722D01*
X8156730Y-18021722D02*
X8166253Y-18002674D01*
X8166253Y-18002674D02*
X8185301Y-17993150D01*
X8185301Y-17993150D02*
X8223396Y-17993150D01*
X8223396Y-17993150D02*
X8242444Y-18002674D01*
X8242444Y-18002674D02*
X8251968Y-18021722D01*
X8251968Y-18021722D02*
X8251968Y-18040770D01*
X8251968Y-18040770D02*
X8156730Y-18059817D01*
X8328158Y-18116960D02*
X8347206Y-18126484D01*
X8347206Y-18126484D02*
X8385301Y-18126484D01*
X8385301Y-18126484D02*
X8404349Y-18116960D01*
X8404349Y-18116960D02*
X8413873Y-18097912D01*
X8413873Y-18097912D02*
X8413873Y-18088389D01*
X8413873Y-18088389D02*
X8404349Y-18069341D01*
X8404349Y-18069341D02*
X8385301Y-18059817D01*
X8385301Y-18059817D02*
X8356730Y-18059817D01*
X8356730Y-18059817D02*
X8337682Y-18050293D01*
X8337682Y-18050293D02*
X8328158Y-18031246D01*
X8328158Y-18031246D02*
X8328158Y-18021722D01*
X8328158Y-18021722D02*
X8337682Y-18002674D01*
X8337682Y-18002674D02*
X8356730Y-17993150D01*
X8356730Y-17993150D02*
X8385301Y-17993150D01*
X8385301Y-17993150D02*
X8404349Y-18002674D01*
X8480539Y-18202674D02*
X8490063Y-18193150D01*
X8490063Y-18193150D02*
X8509111Y-18164579D01*
X8509111Y-18164579D02*
X8518634Y-18145531D01*
X8518634Y-18145531D02*
X8528158Y-18116960D01*
X8528158Y-18116960D02*
X8537682Y-18069341D01*
X8537682Y-18069341D02*
X8537682Y-18031246D01*
X8537682Y-18031246D02*
X8528158Y-17983627D01*
X8528158Y-17983627D02*
X8518634Y-17955055D01*
X8518634Y-17955055D02*
X8509111Y-17936008D01*
X8509111Y-17936008D02*
X8490063Y-17907436D01*
X8490063Y-17907436D02*
X8480539Y-17897912D01*
X8842444Y-18202674D02*
X8832920Y-18193150D01*
X8832920Y-18193150D02*
X8813873Y-18164579D01*
X8813873Y-18164579D02*
X8804349Y-18145531D01*
X8804349Y-18145531D02*
X8794825Y-18116960D01*
X8794825Y-18116960D02*
X8785301Y-18069341D01*
X8785301Y-18069341D02*
X8785301Y-18031246D01*
X8785301Y-18031246D02*
X8794825Y-17983627D01*
X8794825Y-17983627D02*
X8804349Y-17955055D01*
X8804349Y-17955055D02*
X8813873Y-17936008D01*
X8813873Y-17936008D02*
X8832920Y-17907436D01*
X8832920Y-17907436D02*
X8842444Y-17897912D01*
X8918634Y-17993150D02*
X8918634Y-18126484D01*
X8918634Y-18012198D02*
X8928158Y-18002674D01*
X8928158Y-18002674D02*
X8947206Y-17993150D01*
X8947206Y-17993150D02*
X8975777Y-17993150D01*
X8975777Y-17993150D02*
X8994825Y-18002674D01*
X8994825Y-18002674D02*
X9004349Y-18021722D01*
X9004349Y-18021722D02*
X9004349Y-18126484D01*
X9128158Y-18126484D02*
X9109111Y-18116960D01*
X9109111Y-18116960D02*
X9099587Y-18107436D01*
X9099587Y-18107436D02*
X9090063Y-18088389D01*
X9090063Y-18088389D02*
X9090063Y-18031246D01*
X9090063Y-18031246D02*
X9099587Y-18012198D01*
X9099587Y-18012198D02*
X9109111Y-18002674D01*
X9109111Y-18002674D02*
X9128158Y-17993150D01*
X9128158Y-17993150D02*
X9156730Y-17993150D01*
X9156730Y-17993150D02*
X9175777Y-18002674D01*
X9175777Y-18002674D02*
X9185301Y-18012198D01*
X9185301Y-18012198D02*
X9194825Y-18031246D01*
X9194825Y-18031246D02*
X9194825Y-18088389D01*
X9194825Y-18088389D02*
X9185301Y-18107436D01*
X9185301Y-18107436D02*
X9175777Y-18116960D01*
X9175777Y-18116960D02*
X9156730Y-18126484D01*
X9156730Y-18126484D02*
X9128158Y-18126484D01*
X9251968Y-17993150D02*
X9328158Y-17993150D01*
X9280539Y-17926484D02*
X9280539Y-18097912D01*
X9280539Y-18097912D02*
X9290063Y-18116960D01*
X9290063Y-18116960D02*
X9309111Y-18126484D01*
X9309111Y-18126484D02*
X9328158Y-18126484D01*
X9547206Y-17993150D02*
X9547206Y-18193150D01*
X9547206Y-18002674D02*
X9566254Y-17993150D01*
X9566254Y-17993150D02*
X9604349Y-17993150D01*
X9604349Y-17993150D02*
X9623396Y-18002674D01*
X9623396Y-18002674D02*
X9632920Y-18012198D01*
X9632920Y-18012198D02*
X9642444Y-18031246D01*
X9642444Y-18031246D02*
X9642444Y-18088389D01*
X9642444Y-18088389D02*
X9632920Y-18107436D01*
X9632920Y-18107436D02*
X9623396Y-18116960D01*
X9623396Y-18116960D02*
X9604349Y-18126484D01*
X9604349Y-18126484D02*
X9566254Y-18126484D01*
X9566254Y-18126484D02*
X9547206Y-18116960D01*
X9756730Y-18126484D02*
X9737682Y-18116960D01*
X9737682Y-18116960D02*
X9728158Y-18097912D01*
X9728158Y-18097912D02*
X9728158Y-17926484D01*
X9918635Y-18126484D02*
X9918635Y-18021722D01*
X9918635Y-18021722D02*
X9909111Y-18002674D01*
X9909111Y-18002674D02*
X9890063Y-17993150D01*
X9890063Y-17993150D02*
X9851968Y-17993150D01*
X9851968Y-17993150D02*
X9832920Y-18002674D01*
X9918635Y-18116960D02*
X9899587Y-18126484D01*
X9899587Y-18126484D02*
X9851968Y-18126484D01*
X9851968Y-18126484D02*
X9832920Y-18116960D01*
X9832920Y-18116960D02*
X9823396Y-18097912D01*
X9823396Y-18097912D02*
X9823396Y-18078865D01*
X9823396Y-18078865D02*
X9832920Y-18059817D01*
X9832920Y-18059817D02*
X9851968Y-18050293D01*
X9851968Y-18050293D02*
X9899587Y-18050293D01*
X9899587Y-18050293D02*
X9918635Y-18040770D01*
X9985301Y-17993150D02*
X10061492Y-17993150D01*
X10013873Y-17926484D02*
X10013873Y-18097912D01*
X10013873Y-18097912D02*
X10023396Y-18116960D01*
X10023396Y-18116960D02*
X10042444Y-18126484D01*
X10042444Y-18126484D02*
X10061492Y-18126484D01*
X10204349Y-18116960D02*
X10185301Y-18126484D01*
X10185301Y-18126484D02*
X10147206Y-18126484D01*
X10147206Y-18126484D02*
X10128158Y-18116960D01*
X10128158Y-18116960D02*
X10118635Y-18097912D01*
X10118635Y-18097912D02*
X10118635Y-18021722D01*
X10118635Y-18021722D02*
X10128158Y-18002674D01*
X10128158Y-18002674D02*
X10147206Y-17993150D01*
X10147206Y-17993150D02*
X10185301Y-17993150D01*
X10185301Y-17993150D02*
X10204349Y-18002674D01*
X10204349Y-18002674D02*
X10213873Y-18021722D01*
X10213873Y-18021722D02*
X10213873Y-18040770D01*
X10213873Y-18040770D02*
X10118635Y-18059817D01*
X10385301Y-18126484D02*
X10385301Y-17926484D01*
X10385301Y-18116960D02*
X10366254Y-18126484D01*
X10366254Y-18126484D02*
X10328158Y-18126484D01*
X10328158Y-18126484D02*
X10309111Y-18116960D01*
X10309111Y-18116960D02*
X10299587Y-18107436D01*
X10299587Y-18107436D02*
X10290063Y-18088389D01*
X10290063Y-18088389D02*
X10290063Y-18031246D01*
X10290063Y-18031246D02*
X10299587Y-18012198D01*
X10299587Y-18012198D02*
X10309111Y-18002674D01*
X10309111Y-18002674D02*
X10328158Y-17993150D01*
X10328158Y-17993150D02*
X10366254Y-17993150D01*
X10366254Y-17993150D02*
X10385301Y-18002674D01*
X10461492Y-18202674D02*
X10471016Y-18193150D01*
X10471016Y-18193150D02*
X10490063Y-18164579D01*
X10490063Y-18164579D02*
X10499587Y-18145531D01*
X10499587Y-18145531D02*
X10509111Y-18116960D01*
X10509111Y-18116960D02*
X10518635Y-18069341D01*
X10518635Y-18069341D02*
X10518635Y-18031246D01*
X10518635Y-18031246D02*
X10509111Y-17983627D01*
X10509111Y-17983627D02*
X10499587Y-17955055D01*
X10499587Y-17955055D02*
X10490063Y-17936008D01*
X10490063Y-17936008D02*
X10471016Y-17907436D01*
X10471016Y-17907436D02*
X10461492Y-17897912D01*
M02*
