%TF.GenerationSoftware,KiCad,Pcbnew,10.0.3*%
%TF.CreationDate,2026-08-31T23:18:04+09:00*%
%TF.ProjectId,kc2_right-x3-v2,6b63325f-7269-4676-9874-2d78332d7632,draft-v2*%
%TF.SameCoordinates,Original*%
%TF.FileFunction,Legend,Bot*%
%TF.FilePolarity,Positive*%
%FSLAX46Y46*%
G04 Gerber Fmt 4.6, Leading zero omitted, Abs format (unit mm)*
G04 Created by KiCad (PCBNEW 10.0.3) date 2026-08-31 23:18:04*
%MOMM*%
%LPD*%
G01*
G04 APERTURE LIST*
G04 Aperture macros list*
%AMRoundRect*
0 Rectangle with rounded corners*
0 $1 Rounding radius*
0 $2 $3 $4 $5 $6 $7 $8 $9 X,Y pos of 4 corners*
0 Add a 4 corners polygon primitive as box body*
4,1,4,$2,$3,$4,$5,$6,$7,$8,$9,$2,$3,0*
0 Add four circle primitives for the rounded corners*
1,1,$1+$1,$2,$3*
1,1,$1+$1,$4,$5*
1,1,$1+$1,$6,$7*
1,1,$1+$1,$8,$9*
0 Add four rect primitives between the rounded corners*
20,1,$1+$1,$2,$3,$4,$5,0*
20,1,$1+$1,$4,$5,$6,$7,0*
20,1,$1+$1,$6,$7,$8,$9,0*
20,1,$1+$1,$8,$9,$2,$3,0*%
G04 Aperture macros list end*
%ADD10C,0.150000*%
%ADD11C,1.700000*%
%ADD12C,3.000000*%
%ADD13C,5.000000*%
%ADD14C,1.650000*%
%ADD15C,2.500000*%
%ADD16RoundRect,0.520000X-0.780000X-0.780000X0.780000X-0.780000X0.780000X0.780000X-0.780000X0.780000X0*%
%ADD17C,1.600000*%
%ADD18RoundRect,0.520000X0.780000X0.780000X-0.780000X0.780000X-0.780000X-0.780000X0.780000X-0.780000X0*%
%ADD19O,3.600000X2.200000*%
%ADD20O,2.200000X1.800000*%
%ADD21RoundRect,0.250000X0.650000X0.650000X-0.650000X0.650000X-0.650000X-0.650000X0.650000X-0.650000X0*%
%ADD22RoundRect,0.250000X-0.650000X0.650000X-0.650000X-0.650000X0.650000X-0.650000X0.650000X0.650000X0*%
%ADD23RoundRect,0.250000X0.650000X-0.650000X0.650000X0.650000X-0.650000X0.650000X-0.650000X-0.650000X0*%
G04 APERTURE END LIST*
%TO.C,D24*%
D10*
X184762500Y-107425000D02*
X184762500Y-109825000D01*
%TO.C,D12*%
X94275000Y-88375000D02*
X94275000Y-90775000D01*
%TO.C,D14*%
X132375000Y-88375000D02*
X132375000Y-90775000D01*
%TO.C,D37*%
X146662500Y-145525000D02*
X146662500Y-147925000D01*
%TO.C,D23*%
X160950000Y-107425000D02*
X160950000Y-109825000D01*
%TO.C,D29*%
X127612500Y-126475000D02*
X127612500Y-128875000D01*
%TO.C,D8*%
X180712500Y-73175000D02*
X183112500Y-73175000D01*
%TO.C,D13*%
X113325000Y-88375000D02*
X113325000Y-90775000D01*
%TO.C,D6*%
X137850000Y-73175000D02*
X140250000Y-73175000D01*
%TO.C,D15*%
X151425000Y-88375000D02*
X151425000Y-90775000D01*
%TO.C,D2*%
X79800000Y-85625000D02*
X77400000Y-85625000D01*
%TO.C,D28*%
X108562500Y-126475000D02*
X108562500Y-128875000D01*
%TO.C,D19*%
X79987500Y-107425000D02*
X79987500Y-109825000D01*
%TO.C,D11*%
X75225000Y-88375000D02*
X75225000Y-90775000D01*
%TO.C,D10*%
X56175000Y-88375000D02*
X56175000Y-90775000D01*
%TO.C,D31*%
X165712500Y-126475000D02*
X165712500Y-128875000D01*
%TO.C,D20*%
X99037500Y-107425000D02*
X99037500Y-109825000D01*
%TO.C,D34*%
X77606300Y-145525000D02*
X77606300Y-147925000D01*
%TO.C,D16*%
X177618800Y-88375000D02*
X177618800Y-90775000D01*
%TO.C,D26*%
X70462500Y-126475000D02*
X70462500Y-128875000D01*
%TO.C,D18*%
X60937500Y-107425000D02*
X60937500Y-109825000D01*
%TO.C,D22*%
X137137500Y-107425000D02*
X137137500Y-109825000D01*
%TO.C,D7*%
X159281300Y-73175000D02*
X161681300Y-73175000D01*
%TO.C,D3*%
X80700000Y-73175000D02*
X83100000Y-73175000D01*
%TO.C,D17*%
X55887500Y-121425000D02*
X55887500Y-123825000D01*
%TO.C,D36*%
X127612500Y-145525000D02*
X127612500Y-147925000D01*
%TO.C,D27*%
X89512500Y-126475000D02*
X89512500Y-128875000D01*
%TO.C,D39*%
X184762500Y-145525000D02*
X184762500Y-147925000D01*
%TO.C,D5*%
X118800000Y-73175000D02*
X121200000Y-73175000D01*
%TO.C,D32*%
X184762500Y-126475000D02*
X184762500Y-128875000D01*
%TO.C,D38*%
X165712500Y-145525000D02*
X165712500Y-147925000D01*
%TO.C,D9*%
X51125000Y-102375000D02*
X51125000Y-104775000D01*
%TO.C,D21*%
X118087500Y-107425000D02*
X118087500Y-109825000D01*
%TO.C,D33*%
X67912500Y-155775000D02*
X67912500Y-158175000D01*
%TO.C,D35*%
X106181300Y-145525000D02*
X106181300Y-147925000D01*
%TO.C,D30*%
X146662500Y-126475000D02*
X146662500Y-128875000D01*
%TO.C,D1*%
X60650000Y-83325000D02*
X60650000Y-85725000D01*
%TO.C,D25*%
X65412500Y-140475000D02*
X65412500Y-142875000D01*
%TO.C,D4*%
X99750000Y-73175000D02*
X102150000Y-73175000D01*
%TD*%
%LPC*%
D11*
%TO.C,SW36*%
X128432500Y-153725000D03*
D12*
X128512500Y-157525000D03*
D13*
X133512500Y-153725000D03*
D12*
X133512500Y-159625000D03*
D14*
X138512500Y-148575000D03*
D11*
X138592500Y-153725000D03*
D15*
X136052500Y-148645000D03*
D16*
X137212500Y-159625000D03*
X124812500Y-157525000D03*
D15*
X129702500Y-151185000D03*
%TD*%
D17*
%TO.C,MH5*%
X156187500Y-112500000D03*
%TD*%
%TO.C,MH7*%
X97437500Y-152000000D03*
%TD*%
%TO.C,MH1*%
X97187500Y-43250000D03*
%TD*%
D11*
%TO.C,SW34*%
X78426300Y-153725000D03*
D12*
X78506300Y-157525000D03*
D13*
X83506300Y-153725000D03*
D12*
X83506300Y-159625000D03*
D14*
X88506300Y-148575000D03*
D11*
X88586300Y-153725000D03*
D15*
X86046300Y-148645000D03*
D16*
X87206300Y-159625000D03*
X74806300Y-157525000D03*
D15*
X79696300Y-151185000D03*
%TD*%
D11*
%TO.C,SW13*%
X114145000Y-96575000D03*
D12*
X114225000Y-100375000D03*
D13*
X119225000Y-96575000D03*
D12*
X119225000Y-102475000D03*
D14*
X124225000Y-91425000D03*
D11*
X124305000Y-96575000D03*
D15*
X121765000Y-91495000D03*
D16*
X122925000Y-102475000D03*
X110525000Y-100375000D03*
D15*
X115415000Y-94035000D03*
%TD*%
D11*
%TO.C,SW31*%
X166532500Y-134675000D03*
D12*
X166612500Y-138475000D03*
D13*
X171612500Y-134675000D03*
D12*
X171612500Y-140575000D03*
D14*
X176612500Y-129525000D03*
D11*
X176692500Y-134675000D03*
D15*
X174152500Y-129595000D03*
D16*
X175312500Y-140575000D03*
X162912500Y-138475000D03*
D15*
X167802500Y-132135000D03*
%TD*%
D11*
%TO.C,SW38*%
X166532500Y-153725000D03*
D12*
X166612500Y-157525000D03*
D13*
X171612500Y-153725000D03*
D12*
X171612500Y-159625000D03*
D14*
X176612500Y-148575000D03*
D11*
X176692500Y-153725000D03*
D15*
X174152500Y-148645000D03*
D16*
X175312500Y-159625000D03*
X162912500Y-157525000D03*
D15*
X167802500Y-151185000D03*
%TD*%
D11*
%TO.C,SW10*%
X56995000Y-96575000D03*
D12*
X57075000Y-100375000D03*
D13*
X62075000Y-96575000D03*
D12*
X62075000Y-102475000D03*
D14*
X67075000Y-91425000D03*
D11*
X67155000Y-96575000D03*
D15*
X64615000Y-91495000D03*
D16*
X65775000Y-102475000D03*
X53375000Y-100375000D03*
D15*
X58265000Y-94035000D03*
%TD*%
D11*
%TO.C,SW33*%
X62392500Y-153725000D03*
D12*
X62312500Y-149925000D03*
D13*
X57312500Y-153725000D03*
D12*
X57312500Y-147825000D03*
D14*
X52312500Y-158875000D03*
D11*
X52232500Y-153725000D03*
D15*
X54772500Y-158805000D03*
D18*
X53612500Y-147825000D03*
X66012500Y-149925000D03*
D15*
X61122500Y-156265000D03*
%TD*%
D11*
%TO.C,SW25*%
X62392500Y-134675000D03*
D12*
X62312500Y-130875000D03*
D13*
X57312500Y-134675000D03*
D12*
X57312500Y-128775000D03*
D14*
X52312500Y-139825000D03*
D11*
X52232500Y-134675000D03*
D15*
X54772500Y-139755000D03*
D18*
X53612500Y-128775000D03*
X66012500Y-130875000D03*
D15*
X61122500Y-137215000D03*
%TD*%
D11*
%TO.C,SW37*%
X147482500Y-153725000D03*
D12*
X147562500Y-157525000D03*
D13*
X152562500Y-153725000D03*
D12*
X152562500Y-159625000D03*
D14*
X157562500Y-148575000D03*
D11*
X157642500Y-153725000D03*
D15*
X155102500Y-148645000D03*
D16*
X156262500Y-159625000D03*
X143862500Y-157525000D03*
D15*
X148752500Y-151185000D03*
%TD*%
D17*
%TO.C,MH9*%
X177500000Y-118000000D03*
%TD*%
%TO.C,MH4*%
X194937500Y-98750000D03*
%TD*%
D11*
%TO.C,SW19*%
X80807500Y-115625000D03*
D12*
X80887500Y-119425000D03*
D13*
X85887500Y-115625000D03*
D12*
X85887500Y-121525000D03*
D14*
X90887500Y-110475000D03*
D11*
X90967500Y-115625000D03*
D15*
X88427500Y-110545000D03*
D16*
X89587500Y-121525000D03*
X77187500Y-119425000D03*
D15*
X82077500Y-113085000D03*
%TD*%
D17*
%TO.C,MH2*%
X72437500Y-67000000D03*
%TD*%
D11*
%TO.C,SW8*%
X185582500Y-77525000D03*
D12*
X185662500Y-81325000D03*
D13*
X190662500Y-77525000D03*
D12*
X190662500Y-83425000D03*
D14*
X195662500Y-72375000D03*
D11*
X195742500Y-77525000D03*
D15*
X193202500Y-72445000D03*
D16*
X194362500Y-83425000D03*
X181962500Y-81325000D03*
D15*
X186852500Y-74985000D03*
%TD*%
D11*
%TO.C,SW11*%
X76045000Y-96575000D03*
D12*
X76125000Y-100375000D03*
D13*
X81125000Y-96575000D03*
D12*
X81125000Y-102475000D03*
D14*
X86125000Y-91425000D03*
D11*
X86205000Y-96575000D03*
D15*
X83665000Y-91495000D03*
D16*
X84825000Y-102475000D03*
X72425000Y-100375000D03*
D15*
X77315000Y-94035000D03*
%TD*%
D11*
%TO.C,SW16*%
X178438800Y-96575000D03*
D12*
X178518800Y-100375000D03*
D13*
X183518800Y-96575000D03*
D12*
X183518800Y-102475000D03*
D14*
X188518800Y-91425000D03*
D11*
X188598800Y-96575000D03*
D15*
X186058800Y-91495000D03*
D16*
X187218800Y-102475000D03*
X174818800Y-100375000D03*
D15*
X179708800Y-94035000D03*
%TD*%
D11*
%TO.C,SW24*%
X185582500Y-115625000D03*
D12*
X185662500Y-119425000D03*
D13*
X190662500Y-115625000D03*
D12*
X190662500Y-121525000D03*
D14*
X195662500Y-110475000D03*
D11*
X195742500Y-115625000D03*
D15*
X193202500Y-110545000D03*
D16*
X194362500Y-121525000D03*
X181962500Y-119425000D03*
D15*
X186852500Y-113085000D03*
%TD*%
D11*
%TO.C,SW1*%
X57630000Y-77525000D03*
D12*
X57550000Y-73725000D03*
D13*
X52550000Y-77525000D03*
D12*
X52550000Y-71625000D03*
D14*
X47550000Y-82675000D03*
D11*
X47470000Y-77525000D03*
D15*
X50010000Y-82605000D03*
D18*
X48850000Y-71625000D03*
X61250000Y-73725000D03*
D15*
X56360000Y-80065000D03*
%TD*%
D11*
%TO.C,SW39*%
X185582500Y-153725000D03*
D12*
X185662500Y-157525000D03*
D13*
X190662500Y-153725000D03*
D12*
X190662500Y-159625000D03*
D14*
X195662500Y-148575000D03*
D11*
X195742500Y-153725000D03*
D15*
X193202500Y-148645000D03*
D16*
X194362500Y-159625000D03*
X181962500Y-157525000D03*
D15*
X186852500Y-151185000D03*
%TD*%
D11*
%TO.C,SW4*%
X104620000Y-77525000D03*
D12*
X104700000Y-81325000D03*
D13*
X109700000Y-77525000D03*
D12*
X109700000Y-83425000D03*
D14*
X114700000Y-72375000D03*
D11*
X114780000Y-77525000D03*
D15*
X112240000Y-72445000D03*
D16*
X113400000Y-83425000D03*
X101000000Y-81325000D03*
D15*
X105890000Y-74985000D03*
%TD*%
D11*
%TO.C,SW29*%
X128432500Y-134675000D03*
D12*
X128512500Y-138475000D03*
D13*
X133512500Y-134675000D03*
D12*
X133512500Y-140575000D03*
D14*
X138512500Y-129525000D03*
D11*
X138592500Y-134675000D03*
D15*
X136052500Y-129595000D03*
D16*
X137212500Y-140575000D03*
X124812500Y-138475000D03*
D15*
X129702500Y-132135000D03*
%TD*%
D11*
%TO.C,SW22*%
X137957500Y-115625000D03*
D12*
X138037500Y-119425000D03*
D13*
X143037500Y-115625000D03*
D12*
X143037500Y-121525000D03*
D14*
X148037500Y-110475000D03*
D11*
X148117500Y-115625000D03*
D15*
X145577500Y-110545000D03*
D16*
X146737500Y-121525000D03*
X134337500Y-119425000D03*
D15*
X139227500Y-113085000D03*
%TD*%
D11*
%TO.C,SW27*%
X90332500Y-134675000D03*
D12*
X90412500Y-138475000D03*
D13*
X95412500Y-134675000D03*
D12*
X95412500Y-140575000D03*
D14*
X100412500Y-129525000D03*
D11*
X100492500Y-134675000D03*
D15*
X97952500Y-129595000D03*
D16*
X99112500Y-140575000D03*
X86712500Y-138475000D03*
D15*
X91602500Y-132135000D03*
%TD*%
D11*
%TO.C,SW26*%
X71282500Y-134675000D03*
D12*
X71362500Y-138475000D03*
D13*
X76362500Y-134675000D03*
D12*
X76362500Y-140575000D03*
D14*
X81362500Y-129525000D03*
D11*
X81442500Y-134675000D03*
D15*
X78902500Y-129595000D03*
D16*
X80062500Y-140575000D03*
X67662500Y-138475000D03*
D15*
X72552500Y-132135000D03*
%TD*%
D17*
%TO.C,MH8*%
X122687500Y-151000000D03*
%TD*%
D11*
%TO.C,SW15*%
X152245000Y-96575000D03*
D12*
X152325000Y-100375000D03*
D13*
X157325000Y-96575000D03*
D12*
X157325000Y-102475000D03*
D14*
X162325000Y-91425000D03*
D11*
X162405000Y-96575000D03*
D15*
X159865000Y-91495000D03*
D16*
X161025000Y-102475000D03*
X148625000Y-100375000D03*
D15*
X153515000Y-94035000D03*
%TD*%
D19*
%TO.C,BAT_LEAD_SLOT1*%
X92200000Y-50750000D03*
%TD*%
D17*
%TO.C,MH6*%
X69937500Y-146250000D03*
%TD*%
D11*
%TO.C,SW35*%
X107001300Y-153725000D03*
D12*
X107081300Y-157525000D03*
D13*
X112081300Y-153725000D03*
D12*
X112081300Y-159625000D03*
D14*
X117081300Y-148575000D03*
D11*
X117161300Y-153725000D03*
D15*
X114621300Y-148645000D03*
D16*
X115781300Y-159625000D03*
X103381300Y-157525000D03*
D15*
X108271300Y-151185000D03*
%TD*%
D11*
%TO.C,SW12*%
X95095000Y-96575000D03*
D12*
X95175000Y-100375000D03*
D13*
X100175000Y-96575000D03*
D12*
X100175000Y-102475000D03*
D14*
X105175000Y-91425000D03*
D11*
X105255000Y-96575000D03*
D15*
X102715000Y-91495000D03*
D16*
X103875000Y-102475000D03*
X91475000Y-100375000D03*
D15*
X96365000Y-94035000D03*
%TD*%
D11*
%TO.C,SW2*%
X66520000Y-77525000D03*
D12*
X66600000Y-81325000D03*
D13*
X71600000Y-77525000D03*
D12*
X71600000Y-83425000D03*
D14*
X76600000Y-72375000D03*
D11*
X76680000Y-77525000D03*
D15*
X74140000Y-72445000D03*
D16*
X75300000Y-83425000D03*
X62900000Y-81325000D03*
D15*
X67790000Y-74985000D03*
%TD*%
D11*
%TO.C,SW28*%
X109382500Y-134675000D03*
D12*
X109462500Y-138475000D03*
D13*
X114462500Y-134675000D03*
D12*
X114462500Y-140575000D03*
D14*
X119462500Y-129525000D03*
D11*
X119542500Y-134675000D03*
D15*
X117002500Y-129595000D03*
D16*
X118162500Y-140575000D03*
X105762500Y-138475000D03*
D15*
X110652500Y-132135000D03*
%TD*%
D11*
%TO.C,SW17*%
X52867500Y-115625000D03*
D12*
X52787500Y-111825000D03*
D13*
X47787500Y-115625000D03*
D12*
X47787500Y-109725000D03*
D14*
X42787500Y-120775000D03*
D11*
X42707500Y-115625000D03*
D15*
X45247500Y-120705000D03*
D18*
X44087500Y-109725000D03*
X56487500Y-111825000D03*
D15*
X51597500Y-118165000D03*
%TD*%
D11*
%TO.C,SW3*%
X85570000Y-77525000D03*
D12*
X85650000Y-81325000D03*
D13*
X90650000Y-77525000D03*
D12*
X90650000Y-83425000D03*
D14*
X95650000Y-72375000D03*
D11*
X95730000Y-77525000D03*
D15*
X93190000Y-72445000D03*
D16*
X94350000Y-83425000D03*
X81950000Y-81325000D03*
D15*
X86840000Y-74985000D03*
%TD*%
D11*
%TO.C,SW30*%
X147482500Y-134675000D03*
D12*
X147562500Y-138475000D03*
D13*
X152562500Y-134675000D03*
D12*
X152562500Y-140575000D03*
D14*
X157562500Y-129525000D03*
D11*
X157642500Y-134675000D03*
D15*
X155102500Y-129595000D03*
D16*
X156262500Y-140575000D03*
X143862500Y-138475000D03*
D15*
X148752500Y-132135000D03*
%TD*%
D20*
%TO.C,J_BAT1*%
X94300000Y-59400000D03*
X96840001Y-59400000D03*
%TD*%
D11*
%TO.C,SW7*%
X164151300Y-77525000D03*
D12*
X164231300Y-81325000D03*
D13*
X169231300Y-77525000D03*
D12*
X169231300Y-83425000D03*
D14*
X174231300Y-72375000D03*
D11*
X174311300Y-77525000D03*
D15*
X171771300Y-72445000D03*
D16*
X172931300Y-83425000D03*
X160531300Y-81325000D03*
D15*
X165421300Y-74985000D03*
%TD*%
D11*
%TO.C,SW14*%
X133195000Y-96575000D03*
D12*
X133275000Y-100375000D03*
D13*
X138275000Y-96575000D03*
D12*
X138275000Y-102475000D03*
D14*
X143275000Y-91425000D03*
D11*
X143355000Y-96575000D03*
D15*
X140815000Y-91495000D03*
D16*
X141975000Y-102475000D03*
X129575000Y-100375000D03*
D15*
X134465000Y-94035000D03*
%TD*%
D11*
%TO.C,SW9*%
X48105000Y-96575000D03*
D12*
X48025000Y-92775000D03*
D13*
X43025000Y-96575000D03*
D12*
X43025000Y-90675000D03*
D14*
X38025000Y-101725000D03*
D11*
X37945000Y-96575000D03*
D15*
X40485000Y-101655000D03*
D18*
X39325000Y-90675000D03*
X51725000Y-92775000D03*
D15*
X46835000Y-99115000D03*
%TD*%
D11*
%TO.C,SW5*%
X123670000Y-77525000D03*
D12*
X123750000Y-81325000D03*
D13*
X128750000Y-77525000D03*
D12*
X128750000Y-83425000D03*
D14*
X133750000Y-72375000D03*
D11*
X133830000Y-77525000D03*
D15*
X131290000Y-72445000D03*
D16*
X132450000Y-83425000D03*
X120050000Y-81325000D03*
D15*
X124940000Y-74985000D03*
%TD*%
D11*
%TO.C,SW20*%
X99857500Y-115625000D03*
D12*
X99937500Y-119425000D03*
D13*
X104937500Y-115625000D03*
D12*
X104937500Y-121525000D03*
D14*
X109937500Y-110475000D03*
D11*
X110017500Y-115625000D03*
D15*
X107477500Y-110545000D03*
D16*
X108637500Y-121525000D03*
X96237500Y-119425000D03*
D15*
X101127500Y-113085000D03*
%TD*%
D11*
%TO.C,SW32*%
X185582500Y-134675000D03*
D12*
X185662500Y-138475000D03*
D13*
X190662500Y-134675000D03*
D12*
X190662500Y-140575000D03*
D14*
X195662500Y-129525000D03*
D11*
X195742500Y-134675000D03*
D15*
X193202500Y-129595000D03*
D16*
X194362500Y-140575000D03*
X181962500Y-138475000D03*
D15*
X186852500Y-132135000D03*
%TD*%
D17*
%TO.C,MH3*%
X169937500Y-95250000D03*
%TD*%
D11*
%TO.C,SW18*%
X61757500Y-115625000D03*
D12*
X61837500Y-119425000D03*
D13*
X66837500Y-115625000D03*
D12*
X66837500Y-121525000D03*
D14*
X71837500Y-110475000D03*
D11*
X71917500Y-115625000D03*
D15*
X69377500Y-110545000D03*
D16*
X70537500Y-121525000D03*
X58137500Y-119425000D03*
D15*
X63027500Y-113085000D03*
%TD*%
D11*
%TO.C,SW23*%
X161770000Y-115625000D03*
D12*
X161850000Y-119425000D03*
D13*
X166850000Y-115625000D03*
D12*
X166850000Y-121525000D03*
D14*
X171850000Y-110475000D03*
D11*
X171930000Y-115625000D03*
D15*
X169390000Y-110545000D03*
D16*
X170550000Y-121525000D03*
X158150000Y-119425000D03*
D15*
X163040000Y-113085000D03*
%TD*%
D11*
%TO.C,SW6*%
X142720000Y-77525000D03*
D12*
X142800000Y-81325000D03*
D13*
X147800000Y-77525000D03*
D12*
X147800000Y-83425000D03*
D14*
X152800000Y-72375000D03*
D11*
X152880000Y-77525000D03*
D15*
X150340000Y-72445000D03*
D16*
X151500000Y-83425000D03*
X139100000Y-81325000D03*
D15*
X143990000Y-74985000D03*
%TD*%
D11*
%TO.C,SW21*%
X118907500Y-115625000D03*
D12*
X118987500Y-119425000D03*
D13*
X123987500Y-115625000D03*
D12*
X123987500Y-121525000D03*
D14*
X128987500Y-110475000D03*
D11*
X129067500Y-115625000D03*
D15*
X126527500Y-110545000D03*
D16*
X127687500Y-121525000D03*
X115287500Y-119425000D03*
D15*
X120177500Y-113085000D03*
%TD*%
D17*
%TO.C,SW_PWR1*%
X94300000Y-63450000D03*
X96840000Y-63450000D03*
X91759999Y-63450000D03*
%TD*%
D21*
%TO.C,D24*%
X185762500Y-108625000D03*
X181562500Y-108625000D03*
%TD*%
%TO.C,D12*%
X95275000Y-89575000D03*
X91075000Y-89575000D03*
%TD*%
%TO.C,D14*%
X133375000Y-89575000D03*
X129175000Y-89575000D03*
%TD*%
%TO.C,D37*%
X147662500Y-146725000D03*
X143462500Y-146725000D03*
%TD*%
%TO.C,D23*%
X161950000Y-108625000D03*
X157750000Y-108625000D03*
%TD*%
%TO.C,D29*%
X128612500Y-127675000D03*
X124412500Y-127675000D03*
%TD*%
D22*
%TO.C,D8*%
X181912500Y-72175000D03*
X181912500Y-76375000D03*
%TD*%
D21*
%TO.C,D13*%
X114325000Y-89575000D03*
X110125000Y-89575000D03*
%TD*%
D22*
%TO.C,D6*%
X139050000Y-72175000D03*
X139050000Y-76375000D03*
%TD*%
D21*
%TO.C,D15*%
X152425000Y-89575000D03*
X148225000Y-89575000D03*
%TD*%
D23*
%TO.C,D2*%
X78600000Y-86625000D03*
X78600000Y-82425000D03*
%TD*%
D21*
%TO.C,D28*%
X109562500Y-127675000D03*
X105362500Y-127675000D03*
%TD*%
%TO.C,D19*%
X80987500Y-108625000D03*
X76787500Y-108625000D03*
%TD*%
%TO.C,D11*%
X76225000Y-89575000D03*
X72025000Y-89575000D03*
%TD*%
%TO.C,D10*%
X57175000Y-89575000D03*
X52975000Y-89575000D03*
%TD*%
%TO.C,D31*%
X166712500Y-127675000D03*
X162512500Y-127675000D03*
%TD*%
%TO.C,D20*%
X100037500Y-108625000D03*
X95837500Y-108625000D03*
%TD*%
%TO.C,D34*%
X78606300Y-146725000D03*
X74406300Y-146725000D03*
%TD*%
%TO.C,D16*%
X178618800Y-89575000D03*
X174418800Y-89575000D03*
%TD*%
%TO.C,D26*%
X71462500Y-127675000D03*
X67262500Y-127675000D03*
%TD*%
%TO.C,D18*%
X61937500Y-108625000D03*
X57737500Y-108625000D03*
%TD*%
%TO.C,D22*%
X138137500Y-108625000D03*
X133937500Y-108625000D03*
%TD*%
D22*
%TO.C,D7*%
X160481300Y-72175000D03*
X160481300Y-76375000D03*
%TD*%
%TO.C,D3*%
X81900000Y-72175000D03*
X81900000Y-76375000D03*
%TD*%
D21*
%TO.C,D17*%
X56887500Y-122625000D03*
X52687500Y-122625000D03*
%TD*%
%TO.C,D36*%
X128612500Y-146725000D03*
X124412500Y-146725000D03*
%TD*%
%TO.C,D27*%
X90512500Y-127675000D03*
X86312500Y-127675000D03*
%TD*%
%TO.C,D39*%
X185762500Y-146725000D03*
X181562500Y-146725000D03*
%TD*%
D22*
%TO.C,D5*%
X120000000Y-72175000D03*
X120000000Y-76375000D03*
%TD*%
D21*
%TO.C,D32*%
X185762500Y-127675000D03*
X181562500Y-127675000D03*
%TD*%
%TO.C,D38*%
X166712500Y-146725000D03*
X162512500Y-146725000D03*
%TD*%
%TO.C,D9*%
X52125000Y-103575000D03*
X47925000Y-103575000D03*
%TD*%
%TO.C,D21*%
X119087500Y-108625000D03*
X114887500Y-108625000D03*
%TD*%
%TO.C,D33*%
X68912500Y-156975000D03*
X64712500Y-156975000D03*
%TD*%
%TO.C,D35*%
X107181300Y-146725000D03*
X102981300Y-146725000D03*
%TD*%
%TO.C,D30*%
X147662500Y-127675000D03*
X143462500Y-127675000D03*
%TD*%
%TO.C,D1*%
X61650000Y-84525000D03*
X57450000Y-84525000D03*
%TD*%
%TO.C,D25*%
X66412500Y-141675000D03*
X62212500Y-141675000D03*
%TD*%
D22*
%TO.C,D4*%
X100950000Y-72175000D03*
X100950000Y-76375000D03*
%TD*%
%LPD*%
M02*
