M48
; DRILL file KiCad 10.0.3 date 2026-08-25T02:24:57
; FORMAT={-:-/ absolute / metric / decimal}
; #@! TF.CreationDate,2026-08-25T02:24:57+09:00
; #@! TF.GenerationSoftware,Kicad,Pcbnew,10.0.3
; #@! TF.FileFunction,Plated,1,2,PTH
FMAT,2
METRIC
; #@! TA.AperFunction,Plated,PTH,ViaDrill
T1C0.300
; #@! TA.AperFunction,Plated,PTH,ComponentDrill
T2C0.950
; #@! TA.AperFunction,Plated,PTH,ComponentDrill
T3C1.500
%
G90
G05
T1
X59.931Y-109.896
X60.399Y-56.193
X66.139Y-143.6
X69.377Y-101.144
X70.099Y-121.964
X71.072Y-129.595
X73.186Y-85.219
X93.094Y-57.928
X93.108Y-107.259
X95.269Y-54.832
X95.869Y-65.015
X95.936Y-87.538
X96.035Y-86.587
X96.076Y-124.697
X98.194Y-65.813
X98.194Y-85.364
X98.586Y-62.869
X99.101Y-84.039
X101.708Y-140.053
X107.477Y-101.144
X113.239Y-81.422
X117.216Y-132.612
X126.527Y-101.144
X129.509Y-129.999
X132.976Y-143.08
X134.875Y-127.03
X140.582Y-87.111
X145.577Y-101.144
X150.87Y-142.587
X152.451Y-121.753
X173.22Y-144.532
X173.496Y-121.753
T2
X63.43Y-41.38
X63.43Y-56.62
X65.97Y-41.38
X65.97Y-56.62
X68.51Y-41.38
X68.51Y-56.62
X71.05Y-41.38
X71.05Y-56.62
X73.59Y-41.38
X73.59Y-56.62
X76.13Y-41.38
X76.13Y-56.62
X78.67Y-41.38
X78.67Y-56.62
X81.21Y-41.38
X81.21Y-56.62
X83.75Y-41.38
X83.75Y-56.62
X86.29Y-41.38
X86.29Y-56.62
X88.83Y-41.38
X88.83Y-56.62
X91.37Y-41.38
X91.37Y-56.62
T3
X40.485Y-101.655
X45.247Y-120.705
X46.835Y-99.115
X50.01Y-82.605
X51.597Y-118.165
X54.773Y-139.755
X54.773Y-158.805
X56.36Y-80.065
X58.265Y-94.035
X61.122Y-137.215
X61.122Y-156.265
X63.027Y-113.085
X64.615Y-91.495
X67.79Y-74.985
X69.377Y-110.545
X72.552Y-132.135
X74.14Y-72.445
X77.315Y-94.035
X78.903Y-129.595
X79.696Y-151.185
X82.078Y-113.085
X83.665Y-91.495
X86.046Y-148.645
X86.84Y-74.985
X88.427Y-110.545
X91.602Y-132.135
X93.19Y-72.445
X96.365Y-94.035
X97.953Y-129.595
X101.127Y-113.085
X102.715Y-91.495
X105.89Y-74.985
X107.477Y-110.545
X108.271Y-151.185
X110.652Y-132.135
X112.24Y-72.445
X114.621Y-148.645
X115.415Y-94.035
X117.002Y-129.595
X120.177Y-113.085
X121.765Y-91.495
X124.94Y-74.985
X126.527Y-110.545
X129.702Y-132.135
X129.702Y-151.185
X131.29Y-72.445
X134.465Y-94.035
X136.052Y-129.595
X136.052Y-148.645
X139.227Y-113.085
X140.815Y-91.495
X143.99Y-74.985
X145.577Y-110.545
X148.752Y-132.135
X148.752Y-151.185
X150.34Y-72.445
X153.515Y-94.035
X155.102Y-129.595
X155.102Y-148.645
X159.865Y-91.495
X163.04Y-113.085
X165.421Y-74.985
X167.802Y-132.135
X167.802Y-151.185
X169.39Y-110.545
X171.771Y-72.445
X174.153Y-129.595
X174.153Y-148.645
X179.709Y-94.035
X186.059Y-91.495
X186.852Y-74.985
X186.852Y-113.085
X186.852Y-132.135
X186.852Y-151.185
X193.202Y-72.445
X193.202Y-110.545
X193.202Y-129.595
X193.202Y-148.645
M30
