%TF.GenerationSoftware,KiCad,Pcbnew,10.0.3*%
%TF.CreationDate,2026-08-22T00:43:41+09:00*%
%TF.ProjectId,kc2_right-x3-v2,6b63325f-7269-4676-9874-2d78332d7632,draft-v2*%
%TF.SameCoordinates,Original*%
%TF.FileFunction,Copper,L1,Top*%
%TF.FilePolarity,Positive*%
%FSLAX46Y46*%
G04 Gerber Fmt 4.6, Leading zero omitted, Abs format (unit mm)*
G04 Created by KiCad (PCBNEW 10.0.3) date 2026-08-22 00:43:41*
%MOMM*%
%LPD*%
G01*
G04 APERTURE LIST*
%TA.AperFunction,ComponentPad*%
%ADD10C,2.500000*%
%TD*%
%TA.AperFunction,SMDPad,CuDef*%
%ADD11R,1.750000X1.000000*%
%TD*%
%TA.AperFunction,ComponentPad*%
%ADD12C,1.800000*%
%TD*%
%TA.AperFunction,ViaPad*%
%ADD13C,0.600000*%
%TD*%
%TA.AperFunction,Conductor*%
%ADD14C,0.200000*%
%TD*%
G04 APERTURE END LIST*
D10*
%TO.P,SW24,1*%
%TO.N,R_COL7*%
X193402500Y-110545000D03*
%TO.P,SW24,2*%
%TO.N,RK24_D*%
X187052500Y-113085000D03*
%TD*%
%TO.P,SW19,1*%
%TO.N,R_COL2*%
X88627500Y-110545000D03*
%TO.P,SW19,2*%
%TO.N,RK19_D*%
X82277500Y-113085000D03*
%TD*%
%TO.P,SW16,1*%
%TO.N,R_COL7*%
X186258800Y-91495000D03*
%TO.P,SW16,2*%
%TO.N,RK16_D*%
X179908800Y-94035000D03*
%TD*%
%TO.P,SW25,1*%
%TO.N,R_COL0*%
X54972500Y-139755000D03*
%TO.P,SW25,2*%
%TO.N,RK25_D*%
X61322500Y-137215000D03*
%TD*%
%TO.P,SW22,1*%
%TO.N,R_COL5*%
X145777500Y-110545000D03*
%TO.P,SW22,2*%
%TO.N,RK22_D*%
X139427500Y-113085000D03*
%TD*%
%TO.P,SW5,1*%
%TO.N,R_COL4*%
X131490000Y-72445000D03*
%TO.P,SW5,2*%
%TO.N,RK05_D*%
X125140000Y-74985000D03*
%TD*%
%TO.P,SW9,1*%
%TO.N,R_COL0*%
X40685000Y-101655000D03*
%TO.P,SW9,2*%
%TO.N,RK09_D*%
X47035000Y-99115000D03*
%TD*%
%TO.P,SW12,1*%
%TO.N,R_COL3*%
X102915000Y-91495000D03*
%TO.P,SW12,2*%
%TO.N,RK12_D*%
X96565000Y-94035000D03*
%TD*%
%TO.P,SW7,1*%
%TO.N,R_COL6*%
X171971300Y-72445000D03*
%TO.P,SW7,2*%
%TO.N,RK07_D*%
X165621300Y-74985000D03*
%TD*%
%TO.P,SW21,1*%
%TO.N,R_COL4*%
X126727500Y-110545000D03*
%TO.P,SW21,2*%
%TO.N,RK21_D*%
X120377500Y-113085000D03*
%TD*%
%TO.P,SW17,1*%
%TO.N,R_COL0*%
X45447500Y-120705000D03*
%TO.P,SW17,2*%
%TO.N,RK17_D*%
X51797500Y-118165000D03*
%TD*%
%TO.P,SW39,1*%
%TO.N,R_COL6*%
X193402500Y-148645000D03*
%TO.P,SW39,2*%
%TO.N,RK39_D*%
X187052500Y-151185000D03*
%TD*%
%TO.P,SW6,1*%
%TO.N,R_COL5*%
X150540000Y-72445000D03*
%TO.P,SW6,2*%
%TO.N,RK06_D*%
X144190000Y-74985000D03*
%TD*%
%TO.P,SW1,1*%
%TO.N,R_COL0*%
X50210000Y-82605000D03*
%TO.P,SW1,2*%
%TO.N,RK01_D*%
X56560000Y-80065000D03*
%TD*%
D11*
%TO.P,SW_RST1,1*%
%TO.N,RST*%
X61675000Y-62150000D03*
%TO.P,SW_RST1,2*%
%TO.N,GND*%
X69425000Y-62150000D03*
%TD*%
D10*
%TO.P,SW26,1*%
%TO.N,R_COL1*%
X79102500Y-129595000D03*
%TO.P,SW26,2*%
%TO.N,RK26_D*%
X72752500Y-132135000D03*
%TD*%
%TO.P,SW10,1*%
%TO.N,R_COL1*%
X64815000Y-91495000D03*
%TO.P,SW10,2*%
%TO.N,RK10_D*%
X58465000Y-94035000D03*
%TD*%
%TO.P,SW14,1*%
%TO.N,R_COL5*%
X141015000Y-91495000D03*
%TO.P,SW14,2*%
%TO.N,RK14_D*%
X134665000Y-94035000D03*
%TD*%
%TO.P,SW4,1*%
%TO.N,R_COL3*%
X112440000Y-72445000D03*
%TO.P,SW4,2*%
%TO.N,RK04_D*%
X106090000Y-74985000D03*
%TD*%
%TO.P,SW38,1*%
%TO.N,R_COL5*%
X174352500Y-148645000D03*
%TO.P,SW38,2*%
%TO.N,RK38_D*%
X168002500Y-151185000D03*
%TD*%
D12*
%TO.P,U1,D0*%
%TO.N,N/C*%
X89030000Y-41380000D03*
%TO.P,U1,D1*%
X91570000Y-41380000D03*
%TO.P,U1,D2*%
%TO.N,R_ROW3*%
X81410000Y-41380000D03*
%TO.P,U1,D3*%
%TO.N,R_ROW0*%
X78869999Y-41380000D03*
%TO.P,U1,D4*%
%TO.N,R_ROW1*%
X76330000Y-41380000D03*
%TO.P,U1,D5*%
%TO.N,R_ROW2*%
X73789999Y-41380000D03*
%TO.P,U1,D6*%
%TO.N,N/C*%
X71250000Y-41380000D03*
%TO.P,U1,D7*%
%TO.N,R_ROW4*%
X68710000Y-41380000D03*
%TO.P,U1,D8*%
%TO.N,N/C*%
X66170000Y-41380000D03*
%TO.P,U1,D9*%
%TO.N,R_COL0*%
X63629999Y-41380000D03*
%TO.P,U1,D10*%
%TO.N,R_COL1*%
X63629999Y-56620000D03*
%TO.P,U1,D14*%
%TO.N,R_COL3*%
X68710000Y-56620000D03*
%TO.P,U1,D15*%
%TO.N,R_COL4*%
X71250000Y-56620000D03*
%TO.P,U1,D16*%
%TO.N,R_COL2*%
X66170000Y-56620000D03*
%TO.P,U1,D18*%
%TO.N,R_COL5*%
X73789999Y-56620000D03*
%TO.P,U1,D19*%
%TO.N,R_COL6*%
X76330000Y-56620000D03*
%TO.P,U1,D20*%
%TO.N,R_COL8*%
X78869999Y-56620000D03*
%TO.P,U1,D21*%
%TO.N,R_COL7*%
X81410000Y-56620000D03*
%TO.P,U1,GND_A*%
%TO.N,N/C*%
X86490000Y-41380000D03*
%TO.P,U1,GND_B*%
X83949999Y-41380000D03*
%TO.P,U1,GND_C*%
%TO.N,GND*%
X89030000Y-56620000D03*
%TO.P,U1,RAW*%
%TO.N,N/C*%
X91570000Y-56620000D03*
%TO.P,U1,RST*%
%TO.N,RST*%
X86490000Y-56620000D03*
%TO.P,U1,VCC*%
%TO.N,N/C*%
X83949999Y-56620000D03*
%TD*%
D10*
%TO.P,SW31,1*%
%TO.N,R_COL6*%
X174352500Y-129595000D03*
%TO.P,SW31,2*%
%TO.N,RK31_D*%
X168002500Y-132135000D03*
%TD*%
%TO.P,SW27,1*%
%TO.N,R_COL2*%
X98152500Y-129595000D03*
%TO.P,SW27,2*%
%TO.N,RK27_D*%
X91802500Y-132135000D03*
%TD*%
%TO.P,SW15,1*%
%TO.N,R_COL6*%
X160065000Y-91495000D03*
%TO.P,SW15,2*%
%TO.N,RK15_D*%
X153715000Y-94035000D03*
%TD*%
%TO.P,SW20,1*%
%TO.N,R_COL3*%
X107677500Y-110545000D03*
%TO.P,SW20,2*%
%TO.N,RK20_D*%
X101327500Y-113085000D03*
%TD*%
%TO.P,SW2,1*%
%TO.N,R_COL1*%
X74340000Y-72445000D03*
%TO.P,SW2,2*%
%TO.N,RK02_D*%
X67990000Y-74985000D03*
%TD*%
%TO.P,SW29,1*%
%TO.N,R_COL4*%
X136252500Y-129595000D03*
%TO.P,SW29,2*%
%TO.N,RK29_D*%
X129902500Y-132135000D03*
%TD*%
%TO.P,SW35,1*%
%TO.N,R_COL2*%
X114821300Y-148645000D03*
%TO.P,SW35,2*%
%TO.N,RK35_D*%
X108471300Y-151185000D03*
%TD*%
%TO.P,SW37,1*%
%TO.N,R_COL4*%
X155302500Y-148645000D03*
%TO.P,SW37,2*%
%TO.N,RK37_D*%
X148952500Y-151185000D03*
%TD*%
%TO.P,SW32,1*%
%TO.N,R_COL7*%
X193402500Y-129595000D03*
%TO.P,SW32,2*%
%TO.N,RK32_D*%
X187052500Y-132135000D03*
%TD*%
%TO.P,SW28,1*%
%TO.N,R_COL3*%
X117202500Y-129595000D03*
%TO.P,SW28,2*%
%TO.N,RK28_D*%
X110852500Y-132135000D03*
%TD*%
%TO.P,SW8,1*%
%TO.N,R_COL7*%
X193402500Y-72445000D03*
%TO.P,SW8,2*%
%TO.N,RK08_D*%
X187052500Y-74985000D03*
%TD*%
%TO.P,SW30,1*%
%TO.N,R_COL5*%
X155302500Y-129595000D03*
%TO.P,SW30,2*%
%TO.N,RK30_D*%
X148952500Y-132135000D03*
%TD*%
%TO.P,SW13,1*%
%TO.N,R_COL4*%
X121965000Y-91495000D03*
%TO.P,SW13,2*%
%TO.N,RK13_D*%
X115615000Y-94035000D03*
%TD*%
%TO.P,SW33,1*%
%TO.N,R_COL0*%
X54972500Y-158805000D03*
%TO.P,SW33,2*%
%TO.N,RK33_D*%
X61322500Y-156265000D03*
%TD*%
%TO.P,SW23,1*%
%TO.N,R_COL6*%
X169590000Y-110545000D03*
%TO.P,SW23,2*%
%TO.N,RK23_D*%
X163240000Y-113085000D03*
%TD*%
%TO.P,SW18,1*%
%TO.N,R_COL1*%
X69577500Y-110545000D03*
%TO.P,SW18,2*%
%TO.N,RK18_D*%
X63227500Y-113085000D03*
%TD*%
%TO.P,SW11,1*%
%TO.N,R_COL2*%
X83865000Y-91495000D03*
%TO.P,SW11,2*%
%TO.N,RK11_D*%
X77515000Y-94035000D03*
%TD*%
%TO.P,SW36,1*%
%TO.N,R_COL3*%
X136252500Y-148645000D03*
%TO.P,SW36,2*%
%TO.N,RK36_D*%
X129902500Y-151185000D03*
%TD*%
%TO.P,SW34,1*%
%TO.N,R_COL1*%
X86246300Y-148645000D03*
%TO.P,SW34,2*%
%TO.N,RK34_D*%
X79896300Y-151185000D03*
%TD*%
%TO.P,SW3,1*%
%TO.N,R_COL2*%
X93390000Y-72445000D03*
%TO.P,SW3,2*%
%TO.N,RK03_D*%
X87040000Y-74985000D03*
%TD*%
D13*
%TO.N,R_COL2*%
X114692400Y-151251500D03*
X88627500Y-101143900D03*
%TO.N,R_COL5*%
X81242300Y-83788900D03*
X173420200Y-144666500D03*
X78452200Y-59389100D03*
%TO.N,R_COL4*%
X131993800Y-80647600D03*
X126727500Y-101143900D03*
X155789900Y-151280500D03*
%TO.N,R_COL3*%
X114078200Y-80534500D03*
X117045300Y-126307600D03*
X107677500Y-101143900D03*
X135451000Y-142880100D03*
X111111100Y-86535000D03*
%TO.N,R_COL6*%
X79377600Y-85268000D03*
X159745800Y-87584000D03*
X78899500Y-60415500D03*
X173532600Y-121753300D03*
%TO.N,RST*%
X63637500Y-59925100D03*
%TO.N,GND*%
X77530800Y-62355600D03*
%TO.N,RK10_D*%
X55197900Y-89367100D03*
%TO.N,R_ROW3*%
X78473000Y-126546500D03*
X70230100Y-136008300D03*
%TO.N,R_ROW0*%
X81692700Y-74407300D03*
X80140000Y-69272800D03*
%TO.N,R_ROW1*%
X78473000Y-89367100D03*
%TO.N,R_ROW2*%
X70205800Y-107547300D03*
%TO.N,R_ROW4*%
X69571700Y-148251100D03*
%TO.N,RK02_D*%
X66713800Y-71615700D03*
%TD*%
%TO.N,R_COL7*%
D14*
X193944900Y-129052600D02*
X193402500Y-129595000D01*
X193402500Y-98638700D02*
X193402500Y-110545000D01*
X186258800Y-91495000D02*
X193402500Y-98638700D01*
X193944900Y-111087400D02*
X193944900Y-129052600D01*
X193402500Y-110545000D02*
X193944900Y-111087400D01*
%TO.N,R_COL2*%
X89529100Y-120971600D02*
X89529100Y-111446600D01*
X114692400Y-151251500D02*
X114692400Y-148773900D01*
X114692400Y-148773900D02*
X114821300Y-148645000D01*
X88627500Y-96257500D02*
X88627500Y-101143900D01*
X98152500Y-129595000D02*
X89529100Y-120971600D01*
X88627500Y-101143900D02*
X88627500Y-110545000D01*
X93953200Y-73008200D02*
X93953200Y-85797200D01*
X89529100Y-111446600D02*
X88627500Y-110545000D01*
X86060200Y-93690200D02*
X88627500Y-96257500D01*
X93953200Y-85797200D02*
X86060200Y-93690200D01*
X93390000Y-72445000D02*
X93953200Y-73008200D01*
X83865000Y-91495000D02*
X86060200Y-93690200D01*
%TO.N,R_COL0*%
X54071000Y-129328500D02*
X54071000Y-138853500D01*
X49646600Y-82041600D02*
X50210000Y-82605000D01*
X40685000Y-115942500D02*
X45447500Y-120705000D01*
X60498300Y-44511700D02*
X60498300Y-67508100D01*
X54972500Y-139755000D02*
X54409100Y-140318400D01*
X45447500Y-120705000D02*
X54071000Y-129328500D01*
X54071000Y-138853500D02*
X54972500Y-139755000D01*
X63630000Y-41380000D02*
X60498300Y-44511700D01*
X54409100Y-140318400D02*
X54409100Y-158241600D01*
X54138500Y-73867900D02*
X52053900Y-73867900D01*
X60498300Y-67508100D02*
X54138500Y-73867900D01*
X52053900Y-73867900D02*
X49646600Y-76275200D01*
X54409100Y-158241600D02*
X54972500Y-158805000D01*
X49646600Y-76275200D02*
X49646600Y-82041600D01*
X40685000Y-101655000D02*
X40685000Y-115942500D01*
%TO.N,R_COL5*%
X79502000Y-82048600D02*
X79502000Y-60167100D01*
X145777500Y-109075400D02*
X145777500Y-110545000D01*
X151068500Y-85831900D02*
X143210200Y-93690200D01*
X155302500Y-115537300D02*
X155302500Y-129595000D01*
X174352500Y-148645000D02*
X174352500Y-145598800D01*
X148840600Y-109075400D02*
X155302500Y-115537300D01*
X81242300Y-83788900D02*
X79502000Y-82048600D01*
X79502000Y-60167100D02*
X78724000Y-59389100D01*
X145777500Y-96257500D02*
X145777500Y-109075400D01*
X143210200Y-93690200D02*
X145777500Y-96257500D01*
X78724000Y-59389100D02*
X78452200Y-59389100D01*
X145777500Y-109075400D02*
X148840600Y-109075400D01*
X151068500Y-72973500D02*
X151068500Y-85831900D01*
X174352500Y-145598800D02*
X173420200Y-144666500D01*
X150540000Y-72445000D02*
X151068500Y-72973500D01*
X141015000Y-91495000D02*
X143210200Y-93690200D01*
%TO.N,R_COL4*%
X131993800Y-85907500D02*
X124185700Y-93715600D01*
X124185700Y-93715600D02*
X126727500Y-96257500D01*
X131490000Y-72445000D02*
X132053200Y-73008200D01*
X127629100Y-111446600D02*
X126727500Y-110545000D01*
X155789900Y-149132400D02*
X155302500Y-148645000D01*
X126727500Y-96257500D02*
X126727500Y-101143900D01*
X126727500Y-101143900D02*
X126727500Y-110545000D01*
X121965000Y-91495000D02*
X124185700Y-93715600D01*
X132053200Y-80588200D02*
X131993800Y-80647600D01*
X131993800Y-80647600D02*
X131993800Y-85907500D01*
X136252500Y-129595000D02*
X127629100Y-120971600D01*
X132053200Y-73008200D02*
X132053200Y-80588200D01*
X127629100Y-120971600D02*
X127629100Y-111446600D01*
X155789900Y-151280500D02*
X155789900Y-149132400D01*
%TO.N,R_COL3*%
X107677500Y-92823500D02*
X104243500Y-92823500D01*
X107677500Y-92823500D02*
X107677500Y-101143900D01*
X107677500Y-110545000D02*
X107677500Y-101143900D01*
X113341600Y-73346600D02*
X112440000Y-72445000D01*
X114078200Y-80534500D02*
X113341600Y-79797900D01*
X111111100Y-86535000D02*
X107677500Y-89968600D01*
X135451000Y-142880100D02*
X136252500Y-143681600D01*
X117045300Y-126307600D02*
X117202500Y-126464800D01*
X113341600Y-79797900D02*
X113341600Y-73346600D01*
X136252500Y-143681600D02*
X136252500Y-148645000D01*
X117202500Y-126464800D02*
X117202500Y-129595000D01*
X104243500Y-92823500D02*
X102915000Y-91495000D01*
X107677500Y-89968600D02*
X107677500Y-92823500D01*
%TO.N,R_COL6*%
X79100300Y-60616300D02*
X79100300Y-84990700D01*
X79100300Y-84990700D02*
X79377600Y-85268000D01*
X169590000Y-110545000D02*
X173532600Y-114487600D01*
X159745800Y-87584000D02*
X160065000Y-87903200D01*
X160065000Y-87903200D02*
X160065000Y-91495000D01*
X173532600Y-121753300D02*
X174352500Y-122573200D01*
X174352500Y-122573200D02*
X174352500Y-129595000D01*
X173532600Y-114487600D02*
X173532600Y-121753300D01*
X78899500Y-60415500D02*
X79100300Y-60616300D01*
%TO.N,RST*%
X61675000Y-62150000D02*
X61675000Y-61348300D01*
X62214300Y-61348300D02*
X61675000Y-61348300D01*
X63637500Y-59925100D02*
X62214300Y-61348300D01*
%TO.N,GND*%
X70601700Y-62150000D02*
X70807300Y-62355600D01*
X70807300Y-62355600D02*
X77530800Y-62355600D01*
X69425000Y-62150000D02*
X70601700Y-62150000D01*
%TO.N,R_COL1*%
X66510500Y-93190500D02*
X69256300Y-93190500D01*
X74340000Y-69629200D02*
X74340000Y-72445000D01*
X69256300Y-93190500D02*
X69256300Y-110223800D01*
X69256300Y-110223800D02*
X69577500Y-110545000D01*
X74855100Y-72960100D02*
X74855100Y-87591700D01*
X63630000Y-58919200D02*
X74340000Y-69629200D01*
X63630000Y-56620000D02*
X63630000Y-58919200D01*
X64815000Y-91495000D02*
X66510500Y-93190500D01*
X74855100Y-87591700D02*
X69256300Y-93190500D01*
X86246300Y-136738800D02*
X79102500Y-129595000D01*
X74340000Y-72445000D02*
X74855100Y-72960100D01*
X86246300Y-148645000D02*
X86246300Y-136738800D01*
%TO.N,RK10_D*%
X58465000Y-94035000D02*
X55197900Y-90767900D01*
X55197900Y-90767900D02*
X55197900Y-89367100D01*
%TO.N,R_ROW3*%
X83747400Y-85000800D02*
X74249300Y-94498900D01*
X78473000Y-106248700D02*
X78473000Y-126546500D01*
X70055600Y-135833800D02*
X70230100Y-136008300D01*
X83747400Y-72898200D02*
X83747400Y-85000800D01*
X76110500Y-126546500D02*
X70055600Y-132601400D01*
X74249300Y-94498900D02*
X74249300Y-102025000D01*
X74249300Y-102025000D02*
X78473000Y-106248700D01*
X78473000Y-126546500D02*
X76110500Y-126546500D01*
X81410000Y-41380000D02*
X85188900Y-45158900D01*
X85188900Y-45158900D02*
X85188900Y-71456700D01*
X70055600Y-132601400D02*
X70055600Y-135833800D01*
X85188900Y-71456700D02*
X83747400Y-72898200D01*
%TO.N,R_ROW0*%
X80140000Y-42650000D02*
X80140000Y-69272800D01*
X78870000Y-41380000D02*
X80140000Y-42650000D01*
X80140000Y-72854600D02*
X81692700Y-74407300D01*
X80140000Y-69272800D02*
X80140000Y-72854600D01*
%TO.N,R_ROW1*%
X80208300Y-40987200D02*
X80208300Y-41978100D01*
X76330000Y-41380000D02*
X77545000Y-40165000D01*
X82628000Y-85212100D02*
X78473000Y-89367100D01*
X82628000Y-44397800D02*
X82628000Y-85212100D01*
X77545000Y-40165000D02*
X79386100Y-40165000D01*
X79386100Y-40165000D02*
X80208300Y-40987200D01*
X80208300Y-41978100D02*
X82628000Y-44397800D01*
%TO.N,R_ROW2*%
X78296900Y-85114100D02*
X78296900Y-62270800D01*
X77780000Y-61753900D02*
X77224500Y-61753900D01*
X72588300Y-57117700D02*
X72588300Y-56122300D01*
X73790000Y-54920700D02*
X73790000Y-41380000D01*
X78296900Y-62270800D02*
X77780000Y-61753900D01*
X70205800Y-107547300D02*
X70205800Y-93205200D01*
X72588300Y-56122300D02*
X73789900Y-54920700D01*
X73789900Y-54920700D02*
X73790000Y-54920700D01*
X70205800Y-93205200D02*
X78296900Y-85114100D01*
X77224500Y-61753900D02*
X72588300Y-57117700D01*
%TO.N,R_ROW4*%
X69967100Y-40122900D02*
X74303200Y-40122900D01*
X78698500Y-61065300D02*
X78698600Y-61065300D01*
X74247800Y-126482000D02*
X69494400Y-131235400D01*
X75060000Y-40879700D02*
X75060000Y-57426800D01*
X74247800Y-102791700D02*
X74247800Y-126482000D01*
X73847600Y-102391500D02*
X74083000Y-102626900D01*
X68710000Y-41380000D02*
X69967100Y-40122900D01*
X73847600Y-90131500D02*
X73847600Y-102391500D01*
X78698600Y-85280500D02*
X73847600Y-90131500D01*
X74303200Y-40122900D02*
X75060000Y-40879700D01*
X74083000Y-102626900D02*
X74247800Y-102791700D01*
X75060000Y-57426800D02*
X78698500Y-61065300D01*
X69494400Y-148173800D02*
X69571700Y-148251100D01*
X74083000Y-102626900D02*
X74247800Y-102791700D01*
X78698600Y-61065300D02*
X78698600Y-85280500D01*
X69494400Y-131235400D02*
X69494400Y-148173800D01*
%TO.N,RK02_D*%
X66713800Y-73708800D02*
X66713800Y-71615700D01*
X67990000Y-74985000D02*
X66713800Y-73708800D01*
%TD*%
M02*
