%TF.GenerationSoftware,KiCad,Pcbnew,10.0.3*%
%TF.CreationDate,2026-08-21T21:08:10+09:00*%
%TF.ProjectId,kc2_right-x3-v2,6b63325f-7269-4676-9874-2d78332d7632,draft-v2*%
%TF.SameCoordinates,Original*%
%TF.FileFunction,Copper,L2,Bot*%
%TF.FilePolarity,Positive*%
%FSLAX46Y46*%
G04 Gerber Fmt 4.6, Leading zero omitted, Abs format (unit mm)*
G04 Created by KiCad (PCBNEW 10.0.3) date 2026-08-21 21:08:10*
%MOMM*%
%LPD*%
G01*
G04 APERTURE LIST*
G04 Aperture macros list*
%AMRoundRect*
0 Rectangle with rounded corners*
0 $1 Rounding radius*
0 $2 $3 $4 $5 $6 $7 $8 $9 X,Y pos of 4 corners*
0 Add a 4 corners polygon primitive as box body*
4,1,4,$2,$3,$4,$5,$6,$7,$8,$9,$2,$3,0*
0 Add four circle primitives for the rounded corners*
1,1,$1+$1,$2,$3*
1,1,$1+$1,$4,$5*
1,1,$1+$1,$6,$7*
1,1,$1+$1,$8,$9*
0 Add four rect primitives between the rounded corners*
20,1,$1+$1,$2,$3,$4,$5,0*
20,1,$1+$1,$4,$5,$6,$7,0*
20,1,$1+$1,$6,$7,$8,$9,0*
20,1,$1+$1,$8,$9,$2,$3,0*%
G04 Aperture macros list end*
%TA.AperFunction,ComponentPad*%
%ADD10C,2.500000*%
%TD*%
%TA.AperFunction,SMDPad,CuDef*%
%ADD11RoundRect,0.520000X-0.780000X-0.780000X0.780000X-0.780000X0.780000X0.780000X-0.780000X0.780000X0*%
%TD*%
%TA.AperFunction,SMDPad,CuDef*%
%ADD12RoundRect,0.520000X0.780000X0.780000X-0.780000X0.780000X-0.780000X-0.780000X0.780000X-0.780000X0*%
%TD*%
%TA.AperFunction,ComponentPad*%
%ADD13C,1.800000*%
%TD*%
%TA.AperFunction,SMDPad,CuDef*%
%ADD14RoundRect,0.252000X0.448000X0.523000X-0.448000X0.523000X-0.448000X-0.523000X0.448000X-0.523000X0*%
%TD*%
%TA.AperFunction,ViaPad*%
%ADD15C,0.600000*%
%TD*%
%TA.AperFunction,Conductor*%
%ADD16C,0.200000*%
%TD*%
G04 APERTURE END LIST*
D10*
%TO.P,SW24,1*%
%TO.N,R_COL7*%
X193402500Y-110545000D03*
D11*
X194562500Y-121525000D03*
%TO.P,SW24,2*%
%TO.N,RK24_D*%
X182162500Y-119425000D03*
D10*
X187052500Y-113085000D03*
%TD*%
%TO.P,SW19,1*%
%TO.N,R_COL2*%
X88627500Y-110545000D03*
D11*
X89787500Y-121525000D03*
%TO.P,SW19,2*%
%TO.N,RK19_D*%
X77387500Y-119425000D03*
D10*
X82277500Y-113085000D03*
%TD*%
%TO.P,SW16,1*%
%TO.N,R_COL7*%
X186258800Y-91495000D03*
D11*
X187418800Y-102475000D03*
%TO.P,SW16,2*%
%TO.N,RK16_D*%
X175018800Y-100375000D03*
D10*
X179908800Y-94035000D03*
%TD*%
%TO.P,SW25,1*%
%TO.N,R_COL0*%
X54972500Y-139755000D03*
D12*
X53812500Y-128775000D03*
%TO.P,SW25,2*%
%TO.N,RK25_D*%
X66212500Y-130875000D03*
D10*
X61322500Y-137215000D03*
%TD*%
%TO.P,SW22,1*%
%TO.N,R_COL5*%
X145777500Y-110545000D03*
D11*
X146937500Y-121525000D03*
%TO.P,SW22,2*%
%TO.N,RK22_D*%
X134537500Y-119425000D03*
D10*
X139427500Y-113085000D03*
%TD*%
%TO.P,SW5,1*%
%TO.N,R_COL4*%
X131490000Y-72445000D03*
D11*
X132650000Y-83425000D03*
%TO.P,SW5,2*%
%TO.N,RK05_D*%
X120250000Y-81325000D03*
D10*
X125140000Y-74985000D03*
%TD*%
%TO.P,SW9,1*%
%TO.N,R_COL0*%
X40685000Y-101655000D03*
D12*
X39525000Y-90675000D03*
%TO.P,SW9,2*%
%TO.N,RK09_D*%
X51925000Y-92775000D03*
D10*
X47035000Y-99115000D03*
%TD*%
%TO.P,SW12,1*%
%TO.N,R_COL3*%
X102915000Y-91495000D03*
D11*
X104075000Y-102475000D03*
%TO.P,SW12,2*%
%TO.N,RK12_D*%
X91675000Y-100375000D03*
D10*
X96565000Y-94035000D03*
%TD*%
%TO.P,SW7,1*%
%TO.N,R_COL6*%
X171971300Y-72445000D03*
D11*
X173131300Y-83425000D03*
%TO.P,SW7,2*%
%TO.N,RK07_D*%
X160731300Y-81325000D03*
D10*
X165621300Y-74985000D03*
%TD*%
%TO.P,SW21,1*%
%TO.N,R_COL4*%
X126727500Y-110545000D03*
D11*
X127887500Y-121525000D03*
%TO.P,SW21,2*%
%TO.N,RK21_D*%
X115487500Y-119425000D03*
D10*
X120377500Y-113085000D03*
%TD*%
%TO.P,SW17,1*%
%TO.N,R_COL0*%
X45447500Y-120705000D03*
D12*
X44287500Y-109725000D03*
%TO.P,SW17,2*%
%TO.N,RK17_D*%
X56687500Y-111825000D03*
D10*
X51797500Y-118165000D03*
%TD*%
%TO.P,SW39,1*%
%TO.N,R_COL6*%
X193402500Y-148645000D03*
D11*
X194562500Y-159625000D03*
%TO.P,SW39,2*%
%TO.N,RK39_D*%
X182162500Y-157525000D03*
D10*
X187052500Y-151185000D03*
%TD*%
%TO.P,SW6,1*%
%TO.N,R_COL5*%
X150540000Y-72445000D03*
D11*
X151700000Y-83425000D03*
%TO.P,SW6,2*%
%TO.N,RK06_D*%
X139300000Y-81325000D03*
D10*
X144190000Y-74985000D03*
%TD*%
%TO.P,SW1,1*%
%TO.N,R_COL0*%
X50210000Y-82605000D03*
D12*
X49050000Y-71625000D03*
%TO.P,SW1,2*%
%TO.N,RK01_D*%
X61450000Y-73725000D03*
D10*
X56560000Y-80065000D03*
%TD*%
%TO.P,SW26,1*%
%TO.N,R_COL1*%
X79102500Y-129595000D03*
D11*
X80262500Y-140575000D03*
%TO.P,SW26,2*%
%TO.N,RK26_D*%
X67862500Y-138475000D03*
D10*
X72752500Y-132135000D03*
%TD*%
%TO.P,SW10,1*%
%TO.N,R_COL1*%
X64815000Y-91495000D03*
D11*
X65975000Y-102475000D03*
%TO.P,SW10,2*%
%TO.N,RK10_D*%
X53575000Y-100375000D03*
D10*
X58465000Y-94035000D03*
%TD*%
%TO.P,SW14,1*%
%TO.N,R_COL5*%
X141015000Y-91495000D03*
D11*
X142175000Y-102475000D03*
%TO.P,SW14,2*%
%TO.N,RK14_D*%
X129775000Y-100375000D03*
D10*
X134665000Y-94035000D03*
%TD*%
%TO.P,SW4,1*%
%TO.N,R_COL3*%
X112440000Y-72445000D03*
D11*
X113600000Y-83425000D03*
%TO.P,SW4,2*%
%TO.N,RK04_D*%
X101200000Y-81325000D03*
D10*
X106090000Y-74985000D03*
%TD*%
%TO.P,SW38,1*%
%TO.N,R_COL5*%
X174352500Y-148645000D03*
D11*
X175512500Y-159625000D03*
%TO.P,SW38,2*%
%TO.N,RK38_D*%
X163112500Y-157525000D03*
D10*
X168002500Y-151185000D03*
%TD*%
D13*
%TO.P,U1,D0*%
%TO.N,N/C*%
X89030000Y-41380000D03*
%TO.P,U1,D1*%
X91570000Y-41380000D03*
%TO.P,U1,D2*%
%TO.N,R_ROW3*%
X81410000Y-41380000D03*
%TO.P,U1,D3*%
%TO.N,R_ROW0*%
X78869999Y-41380000D03*
%TO.P,U1,D4*%
%TO.N,R_ROW1*%
X76330000Y-41380000D03*
%TO.P,U1,D5*%
%TO.N,R_ROW2*%
X73789999Y-41380000D03*
%TO.P,U1,D6*%
%TO.N,N/C*%
X71250000Y-41380000D03*
%TO.P,U1,D7*%
%TO.N,R_ROW4*%
X68710000Y-41380000D03*
%TO.P,U1,D8*%
%TO.N,N/C*%
X66170000Y-41380000D03*
%TO.P,U1,D9*%
%TO.N,R_COL0*%
X63629999Y-41380000D03*
%TO.P,U1,D10*%
%TO.N,R_COL1*%
X63629999Y-56620000D03*
%TO.P,U1,D14*%
%TO.N,R_COL3*%
X68710000Y-56620000D03*
%TO.P,U1,D15*%
%TO.N,R_COL4*%
X71250000Y-56620000D03*
%TO.P,U1,D16*%
%TO.N,R_COL2*%
X66170000Y-56620000D03*
%TO.P,U1,D18*%
%TO.N,R_COL5*%
X73789999Y-56620000D03*
%TO.P,U1,D19*%
%TO.N,R_COL6*%
X76330000Y-56620000D03*
%TO.P,U1,D20*%
%TO.N,R_COL8*%
X78869999Y-56620000D03*
%TO.P,U1,D21*%
%TO.N,R_COL7*%
X81410000Y-56620000D03*
%TO.P,U1,GND_A*%
%TO.N,N/C*%
X86490000Y-41380000D03*
%TO.P,U1,GND_B*%
X83949999Y-41380000D03*
%TO.P,U1,GND_C*%
%TO.N,GND*%
X89030000Y-56620000D03*
%TO.P,U1,RAW*%
%TO.N,N/C*%
X91570000Y-56620000D03*
%TO.P,U1,RST*%
%TO.N,RST*%
X86490000Y-56620000D03*
%TO.P,U1,VCC*%
%TO.N,N/C*%
X83949999Y-56620000D03*
%TD*%
D10*
%TO.P,SW31,1*%
%TO.N,R_COL6*%
X174352500Y-129595000D03*
D11*
X175512500Y-140575000D03*
%TO.P,SW31,2*%
%TO.N,RK31_D*%
X163112500Y-138475000D03*
D10*
X168002500Y-132135000D03*
%TD*%
%TO.P,SW27,1*%
%TO.N,R_COL2*%
X98152500Y-129595000D03*
D11*
X99312500Y-140575000D03*
%TO.P,SW27,2*%
%TO.N,RK27_D*%
X86912500Y-138475000D03*
D10*
X91802500Y-132135000D03*
%TD*%
%TO.P,SW15,1*%
%TO.N,R_COL6*%
X160065000Y-91495000D03*
D11*
X161225000Y-102475000D03*
%TO.P,SW15,2*%
%TO.N,RK15_D*%
X148825000Y-100375000D03*
D10*
X153715000Y-94035000D03*
%TD*%
%TO.P,SW20,1*%
%TO.N,R_COL3*%
X107677500Y-110545000D03*
D11*
X108837500Y-121525000D03*
%TO.P,SW20,2*%
%TO.N,RK20_D*%
X96437500Y-119425000D03*
D10*
X101327500Y-113085000D03*
%TD*%
%TO.P,SW2,1*%
%TO.N,R_COL1*%
X74340000Y-72445000D03*
D11*
X75500000Y-83425000D03*
%TO.P,SW2,2*%
%TO.N,RK02_D*%
X63100000Y-81325000D03*
D10*
X67990000Y-74985000D03*
%TD*%
%TO.P,SW29,1*%
%TO.N,R_COL4*%
X136252500Y-129595000D03*
D11*
X137412500Y-140575000D03*
%TO.P,SW29,2*%
%TO.N,RK29_D*%
X125012500Y-138475000D03*
D10*
X129902500Y-132135000D03*
%TD*%
%TO.P,SW35,1*%
%TO.N,R_COL2*%
X114821300Y-148645000D03*
D11*
X115981300Y-159625000D03*
%TO.P,SW35,2*%
%TO.N,RK35_D*%
X103581300Y-157525000D03*
D10*
X108471300Y-151185000D03*
%TD*%
%TO.P,SW37,1*%
%TO.N,R_COL4*%
X155302500Y-148645000D03*
D11*
X156462500Y-159625000D03*
%TO.P,SW37,2*%
%TO.N,RK37_D*%
X144062500Y-157525000D03*
D10*
X148952500Y-151185000D03*
%TD*%
%TO.P,SW32,1*%
%TO.N,R_COL7*%
X193402500Y-129595000D03*
D11*
X194562500Y-140575000D03*
%TO.P,SW32,2*%
%TO.N,RK32_D*%
X182162500Y-138475000D03*
D10*
X187052500Y-132135000D03*
%TD*%
%TO.P,SW28,1*%
%TO.N,R_COL3*%
X117202500Y-129595000D03*
D11*
X118362500Y-140575000D03*
%TO.P,SW28,2*%
%TO.N,RK28_D*%
X105962500Y-138475000D03*
D10*
X110852500Y-132135000D03*
%TD*%
%TO.P,SW8,1*%
%TO.N,R_COL7*%
X193402500Y-72445000D03*
D11*
X194562500Y-83425000D03*
%TO.P,SW8,2*%
%TO.N,RK08_D*%
X182162500Y-81325000D03*
D10*
X187052500Y-74985000D03*
%TD*%
%TO.P,SW30,1*%
%TO.N,R_COL5*%
X155302500Y-129595000D03*
D11*
X156462500Y-140575000D03*
%TO.P,SW30,2*%
%TO.N,RK30_D*%
X144062500Y-138475000D03*
D10*
X148952500Y-132135000D03*
%TD*%
%TO.P,SW13,1*%
%TO.N,R_COL4*%
X121965000Y-91495000D03*
D11*
X123125000Y-102475000D03*
%TO.P,SW13,2*%
%TO.N,RK13_D*%
X110725000Y-100375000D03*
D10*
X115615000Y-94035000D03*
%TD*%
%TO.P,SW33,1*%
%TO.N,R_COL0*%
X54972500Y-158805000D03*
D12*
X53812500Y-147825000D03*
%TO.P,SW33,2*%
%TO.N,RK33_D*%
X66212500Y-149925000D03*
D10*
X61322500Y-156265000D03*
%TD*%
%TO.P,SW23,1*%
%TO.N,R_COL6*%
X169590000Y-110545000D03*
D11*
X170750000Y-121525000D03*
%TO.P,SW23,2*%
%TO.N,RK23_D*%
X158350000Y-119425000D03*
D10*
X163240000Y-113085000D03*
%TD*%
%TO.P,SW18,1*%
%TO.N,R_COL1*%
X69577500Y-110545000D03*
D11*
X70737500Y-121525000D03*
%TO.P,SW18,2*%
%TO.N,RK18_D*%
X58337500Y-119425000D03*
D10*
X63227500Y-113085000D03*
%TD*%
%TO.P,SW11,1*%
%TO.N,R_COL2*%
X83865000Y-91495000D03*
D11*
X85025000Y-102475000D03*
%TO.P,SW11,2*%
%TO.N,RK11_D*%
X72625000Y-100375000D03*
D10*
X77515000Y-94035000D03*
%TD*%
%TO.P,SW36,1*%
%TO.N,R_COL3*%
X136252500Y-148645000D03*
D11*
X137412500Y-159625000D03*
%TO.P,SW36,2*%
%TO.N,RK36_D*%
X125012500Y-157525000D03*
D10*
X129902500Y-151185000D03*
%TD*%
%TO.P,SW34,1*%
%TO.N,R_COL1*%
X86246300Y-148645000D03*
D11*
X87406300Y-159625000D03*
%TO.P,SW34,2*%
%TO.N,RK34_D*%
X75006300Y-157525000D03*
D10*
X79896300Y-151185000D03*
%TD*%
%TO.P,SW3,1*%
%TO.N,R_COL2*%
X93390000Y-72445000D03*
D11*
X94550000Y-83425000D03*
%TO.P,SW3,2*%
%TO.N,RK03_D*%
X82150000Y-81325000D03*
D10*
X87040000Y-74985000D03*
%TD*%
D14*
%TO.P,D14,1*%
%TO.N,R_ROW1*%
X133275000Y-89575000D03*
%TO.P,D14,2*%
%TO.N,RK14_D*%
X129675000Y-89575000D03*
%TD*%
%TO.P,D16,1*%
%TO.N,R_ROW1*%
X178518800Y-89575000D03*
%TO.P,D16,2*%
%TO.N,RK16_D*%
X174918800Y-89575000D03*
%TD*%
%TO.P,D31,1*%
%TO.N,R_ROW3*%
X166612500Y-127675000D03*
%TO.P,D31,2*%
%TO.N,RK31_D*%
X163012500Y-127675000D03*
%TD*%
%TO.P,D35,1*%
%TO.N,R_ROW4*%
X107081300Y-146725000D03*
%TO.P,D35,2*%
%TO.N,RK35_D*%
X103481300Y-146725000D03*
%TD*%
%TO.P,D28,1*%
%TO.N,R_ROW3*%
X109462500Y-127675000D03*
%TO.P,D28,2*%
%TO.N,RK28_D*%
X105862500Y-127675000D03*
%TD*%
%TO.P,D2,1*%
%TO.N,R_ROW0*%
X68600000Y-71925000D03*
%TO.P,D2,2*%
%TO.N,RK02_D*%
X65000000Y-71925000D03*
%TD*%
%TO.P,D30,1*%
%TO.N,R_ROW3*%
X147562500Y-127675000D03*
%TO.P,D30,2*%
%TO.N,RK30_D*%
X143962500Y-127675000D03*
%TD*%
%TO.P,D4,1*%
%TO.N,R_ROW0*%
X102450000Y-74525000D03*
%TO.P,D4,2*%
%TO.N,RK04_D*%
X98850000Y-74525000D03*
%TD*%
%TO.P,D9,1*%
%TO.N,R_ROW1*%
X52025000Y-103575000D03*
%TO.P,D9,2*%
%TO.N,RK09_D*%
X48425000Y-103575000D03*
%TD*%
%TO.P,D15,1*%
%TO.N,R_ROW1*%
X152325000Y-89575000D03*
%TO.P,D15,2*%
%TO.N,RK15_D*%
X148725000Y-89575000D03*
%TD*%
%TO.P,D36,1*%
%TO.N,R_ROW4*%
X128512500Y-146725000D03*
%TO.P,D36,2*%
%TO.N,RK36_D*%
X124912500Y-146725000D03*
%TD*%
%TO.P,D21,1*%
%TO.N,R_ROW2*%
X118987500Y-108625000D03*
%TO.P,D21,2*%
%TO.N,RK21_D*%
X115387500Y-108625000D03*
%TD*%
%TO.P,D33,1*%
%TO.N,R_ROW4*%
X68812500Y-156725000D03*
%TO.P,D33,2*%
%TO.N,RK33_D*%
X65212500Y-156725000D03*
%TD*%
%TO.P,D18,1*%
%TO.N,R_ROW2*%
X61837500Y-108625000D03*
%TO.P,D18,2*%
%TO.N,RK18_D*%
X58237500Y-108625000D03*
%TD*%
%TO.P,D3,1*%
%TO.N,R_ROW0*%
X83400000Y-74525000D03*
%TO.P,D3,2*%
%TO.N,RK03_D*%
X79800000Y-74525000D03*
%TD*%
%TO.P,D13,1*%
%TO.N,R_ROW1*%
X114225000Y-89575000D03*
%TO.P,D13,2*%
%TO.N,RK13_D*%
X110625000Y-89575000D03*
%TD*%
%TO.P,D37,1*%
%TO.N,R_ROW4*%
X147562500Y-146725000D03*
%TO.P,D37,2*%
%TO.N,RK37_D*%
X143962500Y-146725000D03*
%TD*%
%TO.P,D25,1*%
%TO.N,R_ROW3*%
X66312500Y-141675000D03*
%TO.P,D25,2*%
%TO.N,RK25_D*%
X62712500Y-141675000D03*
%TD*%
%TO.P,D22,1*%
%TO.N,R_ROW2*%
X138037500Y-108625000D03*
%TO.P,D22,2*%
%TO.N,RK22_D*%
X134437500Y-108625000D03*
%TD*%
%TO.P,D32,1*%
%TO.N,R_ROW3*%
X185662500Y-127675000D03*
%TO.P,D32,2*%
%TO.N,RK32_D*%
X182062500Y-127675000D03*
%TD*%
%TO.P,D11,1*%
%TO.N,R_ROW1*%
X76125000Y-89575000D03*
%TO.P,D11,2*%
%TO.N,RK11_D*%
X72525000Y-89575000D03*
%TD*%
%TO.P,D10,1*%
%TO.N,R_ROW1*%
X57075000Y-89575000D03*
%TO.P,D10,2*%
%TO.N,RK10_D*%
X53475000Y-89575000D03*
%TD*%
%TO.P,D29,1*%
%TO.N,R_ROW3*%
X128512500Y-127675000D03*
%TO.P,D29,2*%
%TO.N,RK29_D*%
X124912500Y-127675000D03*
%TD*%
%TO.P,D24,1*%
%TO.N,R_ROW2*%
X185662500Y-108625000D03*
%TO.P,D24,2*%
%TO.N,RK24_D*%
X182062500Y-108625000D03*
%TD*%
%TO.P,D6,1*%
%TO.N,R_ROW0*%
X140550000Y-74525000D03*
%TO.P,D6,2*%
%TO.N,RK06_D*%
X136950000Y-74525000D03*
%TD*%
%TO.P,D39,1*%
%TO.N,R_ROW4*%
X185662500Y-146725000D03*
%TO.P,D39,2*%
%TO.N,RK39_D*%
X182062500Y-146725000D03*
%TD*%
%TO.P,D27,1*%
%TO.N,R_ROW3*%
X90412500Y-127675000D03*
%TO.P,D27,2*%
%TO.N,RK27_D*%
X86812500Y-127675000D03*
%TD*%
%TO.P,D5,1*%
%TO.N,R_ROW0*%
X121500000Y-74525000D03*
%TO.P,D5,2*%
%TO.N,RK05_D*%
X117900000Y-74525000D03*
%TD*%
%TO.P,D8,1*%
%TO.N,R_ROW0*%
X183412500Y-74525000D03*
%TO.P,D8,2*%
%TO.N,RK08_D*%
X179812500Y-74525000D03*
%TD*%
%TO.P,D1,1*%
%TO.N,R_ROW0*%
X61550000Y-84525000D03*
%TO.P,D1,2*%
%TO.N,RK01_D*%
X57950000Y-84525000D03*
%TD*%
%TO.P,D38,1*%
%TO.N,R_ROW4*%
X166612500Y-146725000D03*
%TO.P,D38,2*%
%TO.N,RK38_D*%
X163012500Y-146725000D03*
%TD*%
%TO.P,D20,1*%
%TO.N,R_ROW2*%
X99937500Y-108625000D03*
%TO.P,D20,2*%
%TO.N,RK20_D*%
X96337500Y-108625000D03*
%TD*%
%TO.P,D26,1*%
%TO.N,R_ROW3*%
X71362500Y-127675000D03*
%TO.P,D26,2*%
%TO.N,RK26_D*%
X67762500Y-127675000D03*
%TD*%
%TO.P,D17,1*%
%TO.N,R_ROW2*%
X56787500Y-122625000D03*
%TO.P,D17,2*%
%TO.N,RK17_D*%
X53187500Y-122625000D03*
%TD*%
%TO.P,D23,1*%
%TO.N,R_ROW2*%
X161850000Y-108625000D03*
%TO.P,D23,2*%
%TO.N,RK23_D*%
X158250000Y-108625000D03*
%TD*%
%TO.P,D19,1*%
%TO.N,R_ROW2*%
X80887500Y-108625000D03*
%TO.P,D19,2*%
%TO.N,RK19_D*%
X77287500Y-108625000D03*
%TD*%
%TO.P,D7,1*%
%TO.N,R_ROW0*%
X161981300Y-74525000D03*
%TO.P,D7,2*%
%TO.N,RK07_D*%
X158381300Y-74525000D03*
%TD*%
%TO.P,D34,1*%
%TO.N,R_ROW4*%
X78506300Y-146725000D03*
%TO.P,D34,2*%
%TO.N,RK34_D*%
X74906300Y-146725000D03*
%TD*%
%TO.P,D12,1*%
%TO.N,R_ROW1*%
X95175000Y-89575000D03*
%TO.P,D12,2*%
%TO.N,RK12_D*%
X91575000Y-89575000D03*
%TD*%
D15*
%TO.N,R_COL2*%
X114692400Y-151251500D03*
X88627500Y-101143900D03*
%TO.N,R_COL5*%
X81242300Y-83788900D03*
X173420200Y-144666500D03*
X78452200Y-59389100D03*
%TO.N,R_COL4*%
X131993800Y-80647600D03*
X126727500Y-101143900D03*
X155789900Y-151280500D03*
%TO.N,R_COL3*%
X114078200Y-80534500D03*
X117045300Y-126307600D03*
X107677500Y-101143900D03*
X135451000Y-142880100D03*
X111111100Y-86535000D03*
%TO.N,R_COL6*%
X79377600Y-85268000D03*
X159745800Y-87584000D03*
X78899500Y-60415500D03*
X173532600Y-121753300D03*
%TO.N,RST*%
X63637500Y-59925100D03*
%TO.N,GND*%
X77530800Y-62355600D03*
%TO.N,RK10_D*%
X55197900Y-89367100D03*
%TO.N,R_ROW3*%
X78473000Y-126546500D03*
X70230100Y-136008300D03*
%TO.N,R_ROW0*%
X81692700Y-74407300D03*
X80140000Y-69272800D03*
%TO.N,R_ROW1*%
X78473000Y-89367100D03*
%TO.N,R_ROW2*%
X70205800Y-107547300D03*
%TO.N,R_ROW4*%
X69571700Y-148251100D03*
%TO.N,RK02_D*%
X66713800Y-71615700D03*
%TD*%
%TO.N,R_COL7*%
D16*
X193402500Y-72445000D02*
X191393100Y-70435600D01*
X194304100Y-140316600D02*
X194304100Y-130496600D01*
X193402500Y-108458700D02*
X193402500Y-110545000D01*
X194562500Y-128435000D02*
X193402500Y-129595000D01*
X90368300Y-58708300D02*
X90368300Y-56255700D01*
X194562500Y-121525000D02*
X194562500Y-128435000D01*
X194304100Y-73346600D02*
X194304100Y-83166600D01*
X194562500Y-140575000D02*
X194304100Y-140316600D01*
X194304100Y-130496600D02*
X193402500Y-129595000D01*
X194304100Y-83166600D02*
X194562500Y-83425000D01*
X191393100Y-70435600D02*
X102095600Y-70435600D01*
X90368300Y-56255700D02*
X89496700Y-55384100D01*
X82645900Y-55384100D02*
X81410000Y-56620000D01*
X187418800Y-102475000D02*
X193402500Y-108458700D01*
X89496700Y-55384100D02*
X82645900Y-55384100D01*
X194562500Y-83425000D02*
X186492500Y-91495000D01*
X193402500Y-72445000D02*
X194304100Y-73346600D01*
X186492500Y-91495000D02*
X186258800Y-91495000D01*
X102095600Y-70435600D02*
X90368300Y-58708300D01*
%TO.N,RK24_D*%
X182162500Y-119425000D02*
X182162500Y-117176200D01*
X186253700Y-113085000D02*
X187052500Y-113085000D01*
X186253700Y-112816200D02*
X186253700Y-113085000D01*
X182162500Y-117176200D02*
X186253700Y-113085000D01*
X182062500Y-108625000D02*
X186253700Y-112816200D01*
%TO.N,R_COL2*%
X115959600Y-159603300D02*
X115959600Y-152518700D01*
X86356100Y-101143900D02*
X85025000Y-102475000D01*
X94291600Y-73346600D02*
X93390000Y-72445000D01*
X106751300Y-140575000D02*
X99312500Y-140575000D01*
X94550000Y-83425000D02*
X94291600Y-83166600D01*
X98751600Y-140014100D02*
X98751600Y-130194100D01*
X94291600Y-83166600D02*
X94291600Y-73346600D01*
X115959600Y-152518700D02*
X114692400Y-151251500D01*
X66170000Y-56620000D02*
X81995000Y-72445000D01*
X89529100Y-121266600D02*
X89787500Y-121525000D01*
X88627500Y-110545000D02*
X89529100Y-111446600D01*
X115981300Y-159625000D02*
X115959600Y-159603300D01*
X114821300Y-148645000D02*
X106751300Y-140575000D01*
X89529100Y-111446600D02*
X89529100Y-121266600D01*
X99312500Y-140575000D02*
X98751600Y-140014100D01*
X88627500Y-101143900D02*
X86356100Y-101143900D01*
X98751600Y-130194100D02*
X98152500Y-129595000D01*
X81995000Y-72445000D02*
X93390000Y-72445000D01*
%TO.N,RK19_D*%
X77387500Y-119425000D02*
X77387500Y-117260100D01*
X77387500Y-117260100D02*
X81562600Y-113085000D01*
X81562600Y-113085000D02*
X82277500Y-113085000D01*
X77287500Y-108809900D02*
X77287500Y-108625000D01*
X81562600Y-113085000D02*
X77287500Y-108809900D01*
%TO.N,RK16_D*%
X175018800Y-98170300D02*
X179154100Y-94035000D01*
X179154100Y-94035000D02*
X179908800Y-94035000D01*
X179908800Y-89181900D02*
X179908800Y-94035000D01*
X175018800Y-100375000D02*
X175018800Y-98170300D01*
X174918800Y-89575000D02*
X176019700Y-88474100D01*
X176019700Y-88474100D02*
X179201000Y-88474100D01*
X179201000Y-88474100D02*
X179908800Y-89181900D01*
%TO.N,R_COL0*%
X54972500Y-139755000D02*
X54972500Y-146665000D01*
X53517500Y-128775000D02*
X53812500Y-128775000D01*
X49308500Y-81703500D02*
X50210000Y-82605000D01*
X39525000Y-92154500D02*
X39525000Y-90675000D01*
X49050000Y-71625000D02*
X49308500Y-71883500D01*
X44287500Y-109725000D02*
X44287500Y-105257500D01*
X50210000Y-86647900D02*
X44094700Y-92763200D01*
X45447500Y-120705000D02*
X53517500Y-128775000D01*
X49308500Y-71883500D02*
X49308500Y-81703500D01*
X40133700Y-101103700D02*
X40685000Y-101655000D01*
X50210000Y-82605000D02*
X50210000Y-86647900D01*
X54972500Y-146665000D02*
X53812500Y-147825000D01*
X44094700Y-92763200D02*
X40133700Y-92763200D01*
X40133700Y-92763200D02*
X39525000Y-92154500D01*
X44287500Y-105257500D02*
X40685000Y-101655000D01*
X40133700Y-92763200D02*
X40133700Y-101103700D01*
%TO.N,RK25_D*%
X62060600Y-137215000D02*
X66212500Y-133063100D01*
X66212500Y-133063100D02*
X66212500Y-130875000D01*
X61322500Y-137215000D02*
X61322500Y-140285000D01*
X61322500Y-140285000D02*
X62712500Y-141675000D01*
X61322500Y-137215000D02*
X62060600Y-137215000D01*
%TO.N,R_COL5*%
X175512500Y-159625000D02*
X175254100Y-159366600D01*
X175254100Y-159366600D02*
X175254100Y-149546600D01*
X73790000Y-56620000D02*
X76559100Y-59389100D01*
X151441600Y-83166600D02*
X151700000Y-83425000D01*
X150540000Y-72445000D02*
X151441600Y-73346600D01*
X142175000Y-102475000D02*
X145777500Y-106077500D01*
X155007500Y-129595000D02*
X155302500Y-129595000D01*
X160554000Y-144666500D02*
X156462500Y-140575000D01*
X151441600Y-73346600D02*
X151441600Y-83166600D01*
X156204100Y-140316600D02*
X156204100Y-130496600D01*
X156462500Y-140575000D02*
X156204100Y-140316600D01*
X147942700Y-87182300D02*
X84635700Y-87182300D01*
X173420200Y-144666500D02*
X160554000Y-144666500D01*
X146937500Y-121525000D02*
X155007500Y-129595000D01*
X156204100Y-130496600D02*
X155302500Y-129595000D01*
X84635700Y-87182300D02*
X81242300Y-83788900D01*
X145777500Y-106077500D02*
X145777500Y-110545000D01*
X151700000Y-83425000D02*
X147942700Y-87182300D01*
X175254100Y-149546600D02*
X174352500Y-148645000D01*
X76559100Y-59389100D02*
X78452200Y-59389100D01*
%TO.N,RK22_D*%
X134537500Y-119425000D02*
X134537500Y-117260100D01*
X134967500Y-108625000D02*
X134437500Y-108625000D01*
X134537500Y-117260100D02*
X138712600Y-113085000D01*
X139427500Y-113085000D02*
X134967500Y-108625000D01*
X138712600Y-113085000D02*
X139427500Y-113085000D01*
%TO.N,R_COL4*%
X98789300Y-68151700D02*
X101477700Y-70840100D01*
X129885100Y-70840100D02*
X131490000Y-72445000D01*
X137412500Y-140575000D02*
X137154100Y-140316600D01*
X127629100Y-111446600D02*
X126727500Y-110545000D01*
X155986000Y-151476600D02*
X155789900Y-151280500D01*
X147232500Y-140575000D02*
X137412500Y-140575000D01*
X71250000Y-56925600D02*
X82476100Y-68151700D01*
X127629100Y-121266600D02*
X127629100Y-111446600D01*
X132650000Y-81303800D02*
X131993800Y-80647600D01*
X127887500Y-121525000D02*
X127629100Y-121266600D01*
X101477700Y-70840100D02*
X129885100Y-70840100D01*
X155986000Y-159148500D02*
X155986000Y-151476600D01*
X137154100Y-130496600D02*
X136252500Y-129595000D01*
X82476100Y-68151700D02*
X98789300Y-68151700D01*
X123125000Y-102475000D02*
X124456100Y-101143900D01*
X155302500Y-148645000D02*
X147232500Y-140575000D01*
X132650000Y-83425000D02*
X132650000Y-81303800D01*
X156462500Y-159625000D02*
X155986000Y-159148500D01*
X124456100Y-101143900D02*
X126727500Y-101143900D01*
X137154100Y-140316600D02*
X137154100Y-130496600D01*
X71250000Y-56620000D02*
X71250000Y-56925600D01*
%TO.N,RK05_D*%
X120250000Y-81325000D02*
X120250000Y-76338200D01*
X117900000Y-74525000D02*
X119713200Y-76338200D01*
X119713200Y-76338200D02*
X120250000Y-76338200D01*
X123037300Y-76338200D02*
X124390500Y-74985000D01*
X120250000Y-76338200D02*
X123037300Y-76338200D01*
X124390500Y-74985000D02*
X125140000Y-74985000D01*
%TO.N,RK09_D*%
X51925000Y-92775000D02*
X51925000Y-95615000D01*
X48425000Y-99115000D02*
X47035000Y-99115000D01*
X48425000Y-99115000D02*
X48425000Y-103575000D01*
X51925000Y-95615000D02*
X48425000Y-99115000D01*
%TO.N,R_COL3*%
X120667600Y-142880100D02*
X135451000Y-142880100D01*
X113600000Y-83425000D02*
X111111100Y-85913900D01*
X137412500Y-159625000D02*
X137154100Y-159366600D01*
X137154100Y-159366600D02*
X137154100Y-149546600D01*
X68710000Y-56620000D02*
X81229300Y-69139300D01*
X108837500Y-121525000D02*
X112262700Y-121525000D01*
X107677500Y-101143900D02*
X105406100Y-101143900D01*
X137154100Y-149546600D02*
X136252500Y-148645000D01*
X108579100Y-111446600D02*
X108579100Y-121266600D01*
X111111100Y-86535000D02*
X111111100Y-85913900D01*
X117202500Y-129595000D02*
X118104100Y-130496600D01*
X102514600Y-72445000D02*
X112440000Y-72445000D01*
X99208900Y-69139300D02*
X102514600Y-72445000D01*
X113600000Y-83425000D02*
X114078200Y-82946800D01*
X108579100Y-121266600D02*
X108837500Y-121525000D01*
X114078200Y-82946800D02*
X114078200Y-80534500D01*
X111111100Y-85913900D02*
X111111100Y-86535000D01*
X111111100Y-85913900D02*
X111111100Y-86535000D01*
X118104100Y-140316600D02*
X118362500Y-140575000D01*
X107677500Y-110545000D02*
X108579100Y-111446600D01*
X112262700Y-121525000D02*
X117045300Y-126307600D01*
X118362500Y-140575000D02*
X120667600Y-142880100D01*
X81229300Y-69139300D02*
X99208900Y-69139300D01*
X118104100Y-130496600D02*
X118104100Y-140316600D01*
X105406100Y-101143900D02*
X104075000Y-102475000D01*
%TO.N,RK12_D*%
X95850100Y-94035000D02*
X96565000Y-94035000D01*
X95850100Y-93850100D02*
X95850100Y-94035000D01*
X91675000Y-100375000D02*
X91675000Y-98210100D01*
X91575000Y-89575000D02*
X95850100Y-93850100D01*
X91675000Y-98210100D02*
X95850100Y-94035000D01*
%TO.N,R_COL6*%
X194304100Y-159366600D02*
X194304100Y-149546600D01*
X76330000Y-56620000D02*
X78256300Y-58546300D01*
X173131300Y-83425000D02*
X168972300Y-87584000D01*
X168972300Y-87584000D02*
X159745800Y-87584000D01*
X81693600Y-87584000D02*
X159745800Y-87584000D01*
X172872900Y-83166600D02*
X172872900Y-73346600D01*
X160966600Y-102216600D02*
X161225000Y-102475000D01*
X173304300Y-121525000D02*
X173532600Y-121753300D01*
X193402500Y-148645000D02*
X185332500Y-140575000D01*
X79068500Y-60246500D02*
X78899500Y-60415500D01*
X161225000Y-102475000D02*
X169295000Y-110545000D01*
X79068500Y-59124900D02*
X79068500Y-60246500D01*
X170750000Y-121525000D02*
X173304300Y-121525000D01*
X175512500Y-140575000D02*
X175254100Y-140316600D01*
X160966600Y-92396600D02*
X160966600Y-102216600D01*
X175254100Y-130496600D02*
X174352500Y-129595000D01*
X194304100Y-149546600D02*
X193402500Y-148645000D01*
X185332500Y-140575000D02*
X175512500Y-140575000D01*
X172872900Y-73346600D02*
X171971300Y-72445000D01*
X78256300Y-58546300D02*
X78489900Y-58546300D01*
X78489900Y-58546300D02*
X79068500Y-59124900D01*
X173131300Y-83425000D02*
X172872900Y-83166600D01*
X160065000Y-91495000D02*
X160966600Y-92396600D01*
X79377600Y-85268000D02*
X81693600Y-87584000D01*
X194562500Y-159625000D02*
X194304100Y-159366600D01*
X169295000Y-110545000D02*
X169590000Y-110545000D01*
X175254100Y-140316600D02*
X175254100Y-130496600D01*
%TO.N,RK07_D*%
X164981000Y-75625300D02*
X165621300Y-74985000D01*
X158381300Y-74525000D02*
X159481600Y-75625300D01*
X160731300Y-75625300D02*
X164981000Y-75625300D01*
X160731300Y-81325000D02*
X160731300Y-75625300D01*
X159481600Y-75625300D02*
X160731300Y-75625300D01*
%TO.N,RK21_D*%
X115487500Y-117230400D02*
X119632900Y-113085000D01*
X119632900Y-112870400D02*
X119632900Y-113085000D01*
X115487500Y-119425000D02*
X115487500Y-117230400D01*
X115387500Y-108625000D02*
X119632900Y-112870400D01*
X119632900Y-113085000D02*
X120377500Y-113085000D01*
%TO.N,RK17_D*%
X52532600Y-121970100D02*
X53187500Y-122625000D01*
X56687500Y-114010100D02*
X52532600Y-118165000D01*
X52532600Y-118165000D02*
X51797500Y-118165000D01*
X52532600Y-118165000D02*
X52532600Y-121970100D01*
X56687500Y-111825000D02*
X56687500Y-114010100D01*
%TO.N,RK39_D*%
X182162500Y-155360100D02*
X186337600Y-151185000D01*
X187052500Y-151185000D02*
X182592500Y-146725000D01*
X182162500Y-157525000D02*
X182162500Y-155360100D01*
X182592500Y-146725000D02*
X182062500Y-146725000D01*
X186337600Y-151185000D02*
X187052500Y-151185000D01*
%TO.N,RK06_D*%
X138039800Y-75614800D02*
X136950000Y-74525000D01*
X139300000Y-75614800D02*
X138039800Y-75614800D01*
X143560200Y-75614800D02*
X139300000Y-75614800D01*
X139300000Y-81325000D02*
X139300000Y-75614800D01*
X144190000Y-74985000D02*
X143560200Y-75614800D01*
%TO.N,RK01_D*%
X61450000Y-75976300D02*
X57361300Y-80065000D01*
X57361300Y-80065000D02*
X56560000Y-80065000D01*
X61450000Y-73725000D02*
X61450000Y-75976300D01*
X56560000Y-80065000D02*
X56560000Y-83135000D01*
X56560000Y-83135000D02*
X57950000Y-84525000D01*
%TO.N,RST*%
X77600100Y-56148900D02*
X76809600Y-55358400D01*
X64900000Y-58662600D02*
X63637500Y-59925100D01*
X64900000Y-56129200D02*
X64900000Y-58662600D01*
X65670800Y-55358400D02*
X64900000Y-56129200D01*
X78316400Y-57850600D02*
X77600100Y-57134300D01*
X86490000Y-56620000D02*
X85259400Y-57850600D01*
X77600100Y-57134300D02*
X77600100Y-56148900D01*
X76809600Y-55358400D02*
X65670800Y-55358400D01*
X85259400Y-57850600D02*
X78316400Y-57850600D01*
%TO.N,GND*%
X83294400Y-62355600D02*
X89030000Y-56620000D01*
X77530800Y-62355600D02*
X83294400Y-62355600D01*
%TO.N,R_COL1*%
X70321000Y-128432800D02*
X71483200Y-129595000D01*
X65716600Y-102216600D02*
X65716600Y-92396600D01*
X71483200Y-129595000D02*
X79102500Y-129595000D01*
X80004100Y-140316600D02*
X80004100Y-130496600D01*
X65716600Y-92396600D02*
X64815000Y-91495000D01*
X75241600Y-83166600D02*
X75500000Y-83425000D01*
X65975000Y-102475000D02*
X65716600Y-102216600D01*
X70737500Y-121525000D02*
X70321000Y-121941500D01*
X70321000Y-121941500D02*
X70321000Y-128432800D01*
X70479100Y-111446600D02*
X70479100Y-121266600D01*
X69577500Y-110545000D02*
X70479100Y-111446600D01*
X70479100Y-121266600D02*
X70737500Y-121525000D01*
X74340000Y-72445000D02*
X75241600Y-73346600D01*
X80004100Y-130496600D02*
X79102500Y-129595000D01*
X86246300Y-148645000D02*
X87147900Y-149546600D01*
X80262500Y-140575000D02*
X80004100Y-140316600D01*
X87147900Y-149546600D02*
X87147900Y-159366600D01*
X87147900Y-159366600D02*
X87406300Y-159625000D01*
X75241600Y-73346600D02*
X75241600Y-83166600D01*
%TO.N,RK26_D*%
X67862500Y-138475000D02*
X67862500Y-136239000D01*
X71966500Y-131879000D02*
X67762500Y-127675000D01*
X67862500Y-136239000D02*
X71966500Y-132135000D01*
X71966500Y-132135000D02*
X71966500Y-131879000D01*
X71966500Y-132135000D02*
X72752500Y-132135000D01*
%TO.N,RK10_D*%
X57703100Y-94035000D02*
X58465000Y-94035000D01*
X53575000Y-98163100D02*
X57703100Y-94035000D01*
X53575000Y-100375000D02*
X53575000Y-98163100D01*
X55197900Y-89367100D02*
X53682900Y-89367100D01*
X53682900Y-89367100D02*
X53475000Y-89575000D01*
%TO.N,RK14_D*%
X133882200Y-94035000D02*
X134665000Y-94035000D01*
X129775000Y-98142200D02*
X133882200Y-94035000D01*
X129775000Y-100375000D02*
X129775000Y-98142200D01*
X129675000Y-89575000D02*
X133882200Y-93782200D01*
X133882200Y-93782200D02*
X133882200Y-94035000D01*
%TO.N,RK04_D*%
X101200000Y-81325000D02*
X101200000Y-75677500D01*
X98850000Y-74525000D02*
X100002500Y-75677500D01*
X101200000Y-75677500D02*
X105397500Y-75677500D01*
X105397500Y-75677500D02*
X106090000Y-74985000D01*
X100002500Y-75677500D02*
X101200000Y-75677500D01*
%TO.N,RK38_D*%
X163112500Y-155292200D02*
X167219700Y-151185000D01*
X167219700Y-151185000D02*
X168002500Y-151185000D01*
X167219700Y-150932200D02*
X167219700Y-151185000D01*
X163112500Y-157525000D02*
X163112500Y-155292200D01*
X163012500Y-146725000D02*
X167219700Y-150932200D01*
%TO.N,R_ROW3*%
X117658000Y-126545800D02*
X127383300Y-126545800D01*
X109462500Y-126909300D02*
X109098900Y-126545700D01*
X149125000Y-119898000D02*
X155401000Y-126174000D01*
X184537100Y-126549600D02*
X185662500Y-127675000D01*
X145311500Y-120374600D02*
X145788100Y-119898000D01*
X147562500Y-127675000D02*
X146436700Y-126549200D01*
X69488600Y-139586000D02*
X67399600Y-141675000D01*
X90412500Y-127675000D02*
X89284000Y-126546500D01*
X109098900Y-126545700D02*
X91541800Y-126545700D01*
X145311500Y-126549200D02*
X129638300Y-126549200D01*
X70230100Y-136008300D02*
X69488600Y-136749800D01*
X127383300Y-126545800D02*
X128512500Y-127675000D01*
X91541800Y-126545700D02*
X90412500Y-127675000D01*
X155401000Y-126174000D02*
X165111500Y-126174000D01*
X78473000Y-126546500D02*
X72491000Y-126546500D01*
X69488600Y-136749800D02*
X69488600Y-139586000D01*
X129638300Y-126549200D02*
X128512500Y-127675000D01*
X72491000Y-126546500D02*
X71362500Y-127675000D01*
X109462500Y-126909300D02*
X109462500Y-127675000D01*
X117294500Y-126909300D02*
X117658000Y-126545800D01*
X89284000Y-126546500D02*
X78473000Y-126546500D01*
X167737900Y-126549600D02*
X184537100Y-126549600D01*
X109462500Y-126909300D02*
X117294500Y-126909300D01*
X146436700Y-126549200D02*
X145311500Y-126549200D01*
X67399600Y-141675000D02*
X66312500Y-141675000D01*
X166612500Y-127675000D02*
X167737900Y-126549600D01*
X145311500Y-126549200D02*
X145311500Y-120374600D01*
X145788100Y-119898000D02*
X149125000Y-119898000D01*
X165111500Y-126174000D02*
X166612500Y-127675000D01*
%TO.N,R_ROW0*%
X139420700Y-73395700D02*
X140550000Y-74525000D01*
X102450000Y-74525000D02*
X103541700Y-73433300D01*
X81692700Y-74407300D02*
X83282300Y-74407300D01*
X80995300Y-70128100D02*
X98053100Y-70128100D01*
X115992800Y-74031400D02*
X116636700Y-73387500D01*
X161981300Y-74525000D02*
X158322300Y-70866000D01*
X183412500Y-74525000D02*
X179754200Y-70866700D01*
X103541700Y-73433300D02*
X111233900Y-73433300D01*
X111832000Y-74031400D02*
X115992800Y-74031400D01*
X69662900Y-70862100D02*
X78147500Y-70862100D01*
X61550000Y-84525000D02*
X61448700Y-84423700D01*
X121500000Y-73387500D02*
X129486500Y-73387500D01*
X98053100Y-70128100D02*
X102450000Y-74525000D01*
X158322300Y-70866000D02*
X144209000Y-70866000D01*
X68600000Y-71925000D02*
X69662900Y-70862100D01*
X61448700Y-84423700D02*
X61448700Y-79076300D01*
X179754200Y-70866700D02*
X165639600Y-70866700D01*
X111233900Y-73433300D02*
X111832000Y-74031400D01*
X61448700Y-79076300D02*
X68600000Y-71925000D01*
X80140000Y-69272800D02*
X80995300Y-70128100D01*
X144209000Y-70866000D02*
X140550000Y-74525000D01*
X116636700Y-73387500D02*
X121500000Y-73387500D01*
X129486500Y-73387500D02*
X130164400Y-74065400D01*
X78147500Y-70862100D02*
X81692700Y-74407300D01*
X130164400Y-74065400D02*
X134341400Y-74065400D01*
X134341400Y-74065400D02*
X135011100Y-73395700D01*
X83282300Y-74407300D02*
X83400000Y-74525000D01*
X135011100Y-73395700D02*
X139420700Y-73395700D01*
X121500000Y-74525000D02*
X121500000Y-73387500D01*
X165639600Y-70866700D02*
X161981300Y-74525000D01*
%TO.N,R_ROW1*%
X56322200Y-94007400D02*
X56322200Y-90327800D01*
X114225000Y-88445700D02*
X114225000Y-89575000D01*
X169760700Y-90684600D02*
X168651100Y-89575000D01*
X52025000Y-103575000D02*
X51952400Y-103502400D01*
X51952400Y-103502400D02*
X51952400Y-98377200D01*
X177409200Y-90684600D02*
X169760700Y-90684600D01*
X75047200Y-88497200D02*
X76125000Y-89575000D01*
X78473000Y-89367100D02*
X76332900Y-89367100D01*
X168651100Y-89575000D02*
X152325000Y-89575000D01*
X95175000Y-89575000D02*
X94066100Y-88466100D01*
X51952400Y-98377200D02*
X56322200Y-94007400D01*
X96304300Y-88445700D02*
X95175000Y-89575000D01*
X79374000Y-88466100D02*
X78473000Y-89367100D01*
X133275000Y-88445700D02*
X133275000Y-89575000D01*
X151195700Y-88445700D02*
X152325000Y-89575000D01*
X178518800Y-89575000D02*
X177409200Y-90684600D01*
X114225000Y-88445700D02*
X96304300Y-88445700D01*
X94066100Y-88466100D02*
X79374000Y-88466100D01*
X76332900Y-89367100D02*
X76125000Y-89575000D01*
X133275000Y-88445700D02*
X151195700Y-88445700D01*
X58152800Y-88497200D02*
X75047200Y-88497200D01*
X56322200Y-90327800D02*
X57075000Y-89575000D01*
X133275000Y-88445700D02*
X114225000Y-88445700D01*
X57075000Y-89575000D02*
X58152800Y-88497200D01*
%TO.N,R_ROW2*%
X179916200Y-107533100D02*
X184570600Y-107533100D01*
X56787500Y-122625000D02*
X56714900Y-122552400D01*
X117898500Y-107536000D02*
X101026500Y-107536000D01*
X175352600Y-112096700D02*
X179916200Y-107533100D01*
X120109300Y-107503200D02*
X118987500Y-108625000D01*
X161850000Y-108625000D02*
X160761300Y-107536300D01*
X56714900Y-122552400D02*
X56714900Y-114681400D01*
X165321700Y-112096700D02*
X175352600Y-112096700D01*
X56714900Y-114681400D02*
X58294200Y-113102100D01*
X149842600Y-112119800D02*
X141532300Y-112119800D01*
X70205800Y-107547300D02*
X62915200Y-107547300D01*
X138037500Y-108625000D02*
X136915700Y-107503200D01*
X184570600Y-107533100D02*
X185662500Y-108625000D01*
X136915700Y-107503200D02*
X120109300Y-107503200D01*
X58294200Y-110558800D02*
X57226000Y-109490600D01*
X57493400Y-107547300D02*
X60759800Y-107547300D01*
X154426100Y-107536300D02*
X149842600Y-112119800D01*
X141532300Y-112119800D02*
X138037500Y-108625000D01*
X58294200Y-113102100D02*
X58294200Y-110558800D01*
X161850000Y-108625000D02*
X165321700Y-112096700D01*
X98848500Y-107536000D02*
X81976500Y-107536000D01*
X57226000Y-107814700D02*
X57493400Y-107547300D01*
X101026500Y-107536000D02*
X99937500Y-108625000D01*
X60759800Y-107547300D02*
X61837500Y-108625000D01*
X99937500Y-108625000D02*
X98848500Y-107536000D01*
X160761300Y-107536300D02*
X154426100Y-107536300D01*
X62915200Y-107547300D02*
X61837500Y-108625000D01*
X79809800Y-107547300D02*
X70205800Y-107547300D01*
X118987500Y-108625000D02*
X117898500Y-107536000D01*
X81976500Y-107536000D02*
X80887500Y-108625000D01*
X57226000Y-109490600D02*
X57226000Y-107814700D01*
X80887500Y-108625000D02*
X79809800Y-107547300D01*
%TO.N,R_ROW4*%
X159552600Y-148802600D02*
X158135400Y-150219800D01*
X117779600Y-150219800D02*
X110576100Y-150219800D01*
X146462300Y-145624800D02*
X147562500Y-146725000D01*
X110576100Y-150219800D02*
X107081300Y-146725000D01*
X128512500Y-146725000D02*
X127398900Y-145611400D01*
X162372500Y-145606500D02*
X159552600Y-148426400D01*
X127398900Y-145611400D02*
X122388000Y-145611400D01*
X107081300Y-146725000D02*
X105990300Y-145634000D01*
X69571700Y-148251100D02*
X70595900Y-149275300D01*
X165494000Y-145606500D02*
X162372500Y-145606500D01*
X128512500Y-146725000D02*
X129612700Y-145624800D01*
X129612700Y-145624800D02*
X146462300Y-145624800D01*
X74237200Y-145634000D02*
X70595900Y-149275300D01*
X167739300Y-145598200D02*
X166612500Y-146725000D01*
X151057300Y-150219800D02*
X147562500Y-146725000D01*
X184535700Y-145598200D02*
X167739300Y-145598200D01*
X122388000Y-145611400D02*
X117779600Y-150219800D01*
X166612500Y-146725000D02*
X165494000Y-145606500D01*
X78506300Y-145634000D02*
X74237200Y-145634000D01*
X70595900Y-149275300D02*
X68812500Y-151058700D01*
X78506300Y-145634000D02*
X78506300Y-146725000D01*
X68812500Y-151058700D02*
X68812500Y-156725000D01*
X158135400Y-150219800D02*
X151057300Y-150219800D01*
X105990300Y-145634000D02*
X78506300Y-145634000D01*
X185662500Y-146725000D02*
X184535700Y-145598200D01*
X159552600Y-148426400D02*
X159552600Y-148802600D01*
%TO.N,RK31_D*%
X163112500Y-138475000D02*
X163112500Y-136280400D01*
X163112500Y-136280400D02*
X167257900Y-132135000D01*
X163012500Y-127675000D02*
X167257900Y-131920400D01*
X167257900Y-132135000D02*
X168002500Y-132135000D01*
X167257900Y-131920400D02*
X167257900Y-132135000D01*
%TO.N,RK27_D*%
X86912500Y-138475000D02*
X86912500Y-136270300D01*
X91047800Y-132135000D02*
X91802500Y-132135000D01*
X86812500Y-127675000D02*
X91047800Y-131910300D01*
X91047800Y-131910300D02*
X91047800Y-132135000D01*
X86912500Y-136270300D02*
X91047800Y-132135000D01*
%TO.N,RK15_D*%
X148825000Y-98142200D02*
X152932200Y-94035000D01*
X152932200Y-93782200D02*
X152932200Y-94035000D01*
X148725000Y-89575000D02*
X152932200Y-93782200D01*
X148825000Y-100375000D02*
X148825000Y-98142200D01*
X152932200Y-94035000D02*
X153715000Y-94035000D01*
%TO.N,RK20_D*%
X96337500Y-108625000D02*
X100544700Y-112832200D01*
X100544700Y-113085000D02*
X101327500Y-113085000D01*
X96437500Y-117192200D02*
X100544700Y-113085000D01*
X96437500Y-119425000D02*
X96437500Y-117192200D01*
X100544700Y-112832200D02*
X100544700Y-113085000D01*
%TO.N,RK02_D*%
X66713800Y-71615700D02*
X65309300Y-71615700D01*
X65309300Y-71615700D02*
X65000000Y-71925000D01*
X67241300Y-74985000D02*
X67990000Y-74985000D01*
X63100000Y-81325000D02*
X63100000Y-79126300D01*
X63100000Y-79126300D02*
X67241300Y-74985000D01*
%TO.N,RK29_D*%
X129112200Y-132135000D02*
X124912500Y-127935300D01*
X125012500Y-138475000D02*
X125012500Y-136234700D01*
X129112200Y-132135000D02*
X129902500Y-132135000D01*
X125012500Y-136234700D02*
X129112200Y-132135000D01*
X124912500Y-127935300D02*
X124912500Y-127675000D01*
%TO.N,RK35_D*%
X103581300Y-155320300D02*
X107716600Y-151185000D01*
X108471300Y-151185000D02*
X104011300Y-146725000D01*
X107716600Y-151185000D02*
X108471300Y-151185000D01*
X104011300Y-146725000D02*
X103481300Y-146725000D01*
X103581300Y-157525000D02*
X103581300Y-155320300D01*
%TO.N,RK37_D*%
X144937500Y-147700000D02*
X143962500Y-146725000D01*
X144062500Y-148575000D02*
X144062500Y-157525000D01*
X145467500Y-147700000D02*
X144937500Y-147700000D01*
X144937500Y-147700000D02*
X144062500Y-148575000D01*
X148952500Y-151185000D02*
X145467500Y-147700000D01*
%TO.N,RK32_D*%
X182162500Y-138475000D02*
X182162500Y-136280400D01*
X186307900Y-132135000D02*
X187052500Y-132135000D01*
X182062500Y-127675000D02*
X186307900Y-131920400D01*
X186307900Y-131920400D02*
X186307900Y-132135000D01*
X182162500Y-136280400D02*
X186307900Y-132135000D01*
%TO.N,RK28_D*%
X105862500Y-127675000D02*
X110107900Y-131920400D01*
X110107900Y-132135000D02*
X110852500Y-132135000D01*
X105962500Y-136280400D02*
X110107900Y-132135000D01*
X110107900Y-131920400D02*
X110107900Y-132135000D01*
X105962500Y-138475000D02*
X105962500Y-136280400D01*
%TO.N,RK08_D*%
X182162500Y-75677500D02*
X186360000Y-75677500D01*
X182162500Y-75677500D02*
X182162500Y-81325000D01*
X179812500Y-74525000D02*
X180965000Y-75677500D01*
X180965000Y-75677500D02*
X182162500Y-75677500D01*
X186360000Y-75677500D02*
X187052500Y-74985000D01*
%TO.N,RK30_D*%
X145467500Y-128650000D02*
X144937500Y-128650000D01*
X144062500Y-129525000D02*
X144062500Y-138475000D01*
X144937500Y-128650000D02*
X144062500Y-129525000D01*
X144937500Y-128650000D02*
X143962500Y-127675000D01*
X148952500Y-132135000D02*
X145467500Y-128650000D01*
%TO.N,RK13_D*%
X114870400Y-93820400D02*
X114870400Y-94035000D01*
X114870400Y-94035000D02*
X115615000Y-94035000D01*
X110725000Y-100375000D02*
X110725000Y-98180400D01*
X110725000Y-98180400D02*
X114870400Y-94035000D01*
X110625000Y-89575000D02*
X114870400Y-93820400D01*
%TO.N,RK33_D*%
X66212500Y-149925000D02*
X66212500Y-155265000D01*
X65212500Y-156265000D02*
X61322500Y-156265000D01*
X66212500Y-155265000D02*
X65212500Y-156265000D01*
X65212500Y-156265000D02*
X65212500Y-156725000D01*
%TO.N,RK23_D*%
X162495400Y-113085000D02*
X158250000Y-108839600D01*
X158250000Y-108839600D02*
X158250000Y-108625000D01*
X158350000Y-119425000D02*
X158350000Y-117230400D01*
X162495400Y-113085000D02*
X163240000Y-113085000D01*
X158350000Y-117230400D02*
X162495400Y-113085000D01*
%TO.N,RK18_D*%
X58337500Y-117248600D02*
X58337500Y-119425000D01*
X62697500Y-113085000D02*
X62749000Y-113085000D01*
X62749000Y-113085000D02*
X62501100Y-113085000D01*
X62749000Y-113085000D02*
X63227500Y-113085000D01*
X58237500Y-108625000D02*
X62697500Y-113085000D01*
X62501100Y-113085000D02*
X58337500Y-117248600D01*
%TO.N,RK11_D*%
X76985000Y-94035000D02*
X77515000Y-94035000D01*
X72525000Y-89575000D02*
X76876100Y-93926100D01*
X72625000Y-98177200D02*
X72625000Y-100375000D01*
X76876100Y-93926100D02*
X76985000Y-94035000D01*
X76876100Y-93926100D02*
X72625000Y-98177200D01*
%TO.N,RK36_D*%
X124912500Y-146725000D02*
X129157900Y-150970400D01*
X129157900Y-150970400D02*
X129157900Y-151185000D01*
X125012500Y-155330400D02*
X129157900Y-151185000D01*
X125012500Y-157525000D02*
X125012500Y-155330400D01*
X129157900Y-151185000D02*
X129902500Y-151185000D01*
%TO.N,RK34_D*%
X79154700Y-151185000D02*
X79154700Y-150973400D01*
X75006300Y-155333400D02*
X75006300Y-157525000D01*
X79896300Y-151185000D02*
X79154700Y-151185000D01*
X79154700Y-151185000D02*
X75006300Y-155333400D01*
X79154700Y-150973400D02*
X74906300Y-146725000D01*
%TO.N,RK03_D*%
X81200900Y-75925900D02*
X79800000Y-74525000D01*
X86099100Y-75925900D02*
X87040000Y-74985000D01*
X82150000Y-75925900D02*
X86099100Y-75925900D01*
X82150000Y-81325000D02*
X82150000Y-75925900D01*
X82150000Y-75925900D02*
X81200900Y-75925900D01*
%TD*%
M02*
