%TF.GenerationSoftware,KiCad,Pcbnew,10.0.3*%
%TF.CreationDate,2026-08-29T20:40:15+09:00*%
%TF.ProjectId,kc2_right-x3-v2,6b63325f-7269-4676-9874-2d78332d7632,draft-v2*%
%TF.SameCoordinates,Original*%
%TF.FileFunction,Copper,L1,Top*%
%TF.FilePolarity,Positive*%
%FSLAX46Y46*%
G04 Gerber Fmt 4.6, Leading zero omitted, Abs format (unit mm)*
G04 Created by KiCad (PCBNEW 10.0.3) date 2026-08-29 20:40:15*
%MOMM*%
%LPD*%
G01*
G04 APERTURE LIST*
%TA.AperFunction,ComponentPad*%
%ADD10C,2.500000*%
%TD*%
%TA.AperFunction,ComponentPad*%
%ADD11C,1.800000*%
%TD*%
%TA.AperFunction,ComponentPad*%
%ADD12O,2.200000X1.800000*%
%TD*%
%TA.AperFunction,SMDPad,CuDef*%
%ADD13R,1.750000X1.000000*%
%TD*%
%TA.AperFunction,ComponentPad*%
%ADD14C,1.600000*%
%TD*%
%TA.AperFunction,ViaPad*%
%ADD15C,0.600000*%
%TD*%
%TA.AperFunction,Conductor*%
%ADD16C,0.250000*%
%TD*%
%TA.AperFunction,Conductor*%
%ADD17C,0.750000*%
%TD*%
G04 APERTURE END LIST*
D10*
%TO.P,SW36,1*%
%TO.N,R_COL3*%
X136052500Y-148645000D03*
%TO.P,SW36,2*%
%TO.N,RK36_D*%
X129702500Y-151185000D03*
%TD*%
D11*
%TO.P,U1,D0*%
%TO.N,N/C*%
X88830000Y-43130000D03*
%TO.P,U1,D1*%
X91370000Y-43130000D03*
%TO.P,U1,D2*%
%TO.N,R_ROW3*%
X81210000Y-43130000D03*
%TO.P,U1,D3*%
%TO.N,R_ROW0*%
X78670000Y-43130000D03*
%TO.P,U1,D4*%
%TO.N,R_ROW1*%
X76130000Y-43130000D03*
%TO.P,U1,D5*%
%TO.N,R_ROW2*%
X73590000Y-43130000D03*
%TO.P,U1,D6*%
%TO.N,N/C*%
X71050000Y-43130000D03*
%TO.P,U1,D7*%
%TO.N,R_ROW4*%
X68510000Y-43130000D03*
%TO.P,U1,D8*%
%TO.N,N/C*%
X65970000Y-43130000D03*
%TO.P,U1,D9*%
%TO.N,R_COL0*%
X63430000Y-43130000D03*
%TO.P,U1,D10*%
%TO.N,R_COL1*%
X63430000Y-58370000D03*
%TO.P,U1,D14*%
%TO.N,R_COL3*%
X68510000Y-58370000D03*
%TO.P,U1,D15*%
%TO.N,R_COL4*%
X71050000Y-58370000D03*
%TO.P,U1,D16*%
%TO.N,R_COL2*%
X65970000Y-58370000D03*
%TO.P,U1,D18*%
%TO.N,R_COL5*%
X73590000Y-58370000D03*
%TO.P,U1,D19*%
%TO.N,R_COL6*%
X76130000Y-58370000D03*
%TO.P,U1,D20*%
%TO.N,R_COL8*%
X78670000Y-58370000D03*
%TO.P,U1,D21*%
%TO.N,R_COL7*%
X81210000Y-58370000D03*
%TO.P,U1,GND_A*%
%TO.N,N/C*%
X86290000Y-43130000D03*
%TO.P,U1,GND_B*%
X83750000Y-43130000D03*
%TO.P,U1,GND_C*%
%TO.N,GND*%
X88830000Y-58370000D03*
%TO.P,U1,RAW*%
%TO.N,NN_B+*%
X91370000Y-58370000D03*
%TO.P,U1,RST*%
%TO.N,RST*%
X86290000Y-58370000D03*
%TO.P,U1,VCC*%
%TO.N,N/C*%
X83750000Y-58370000D03*
%TD*%
D10*
%TO.P,SW34,1*%
%TO.N,R_COL1*%
X86046300Y-148645000D03*
%TO.P,SW34,2*%
%TO.N,RK34_D*%
X79696300Y-151185000D03*
%TD*%
%TO.P,SW13,1*%
%TO.N,R_COL4*%
X121765000Y-91495000D03*
%TO.P,SW13,2*%
%TO.N,RK13_D*%
X115415000Y-94035000D03*
%TD*%
%TO.P,SW31,1*%
%TO.N,R_COL6*%
X174152500Y-129595000D03*
%TO.P,SW31,2*%
%TO.N,RK31_D*%
X167802500Y-132135000D03*
%TD*%
%TO.P,SW38,1*%
%TO.N,R_COL5*%
X174152500Y-148645000D03*
%TO.P,SW38,2*%
%TO.N,RK38_D*%
X167802500Y-151185000D03*
%TD*%
%TO.P,SW10,1*%
%TO.N,R_COL1*%
X64615000Y-91495000D03*
%TO.P,SW10,2*%
%TO.N,RK10_D*%
X58265000Y-94035000D03*
%TD*%
%TO.P,SW33,1*%
%TO.N,R_COL0*%
X54772500Y-158805000D03*
%TO.P,SW33,2*%
%TO.N,RK33_D*%
X61122500Y-156265000D03*
%TD*%
%TO.P,SW25,1*%
%TO.N,R_COL0*%
X54772500Y-139755000D03*
%TO.P,SW25,2*%
%TO.N,RK25_D*%
X61122500Y-137215000D03*
%TD*%
%TO.P,SW37,1*%
%TO.N,R_COL4*%
X155102500Y-148645000D03*
%TO.P,SW37,2*%
%TO.N,RK37_D*%
X148752500Y-151185000D03*
%TD*%
%TO.P,SW19,1*%
%TO.N,R_COL2*%
X88427500Y-110545000D03*
%TO.P,SW19,2*%
%TO.N,RK19_D*%
X82077500Y-113085000D03*
%TD*%
%TO.P,SW8,1*%
%TO.N,R_COL7*%
X193202500Y-72445000D03*
%TO.P,SW8,2*%
%TO.N,RK08_D*%
X186852500Y-74985000D03*
%TD*%
%TO.P,SW11,1*%
%TO.N,R_COL2*%
X83665000Y-91495000D03*
%TO.P,SW11,2*%
%TO.N,RK11_D*%
X77315000Y-94035000D03*
%TD*%
%TO.P,SW16,1*%
%TO.N,R_COL7*%
X186058800Y-91495000D03*
%TO.P,SW16,2*%
%TO.N,RK16_D*%
X179708800Y-94035000D03*
%TD*%
%TO.P,SW24,1*%
%TO.N,R_COL7*%
X193202500Y-110545000D03*
%TO.P,SW24,2*%
%TO.N,RK24_D*%
X186852500Y-113085000D03*
%TD*%
%TO.P,SW1,1*%
%TO.N,R_COL0*%
X50010000Y-82605000D03*
%TO.P,SW1,2*%
%TO.N,RK01_D*%
X56360000Y-80065000D03*
%TD*%
%TO.P,SW39,1*%
%TO.N,R_COL6*%
X193202500Y-148645000D03*
%TO.P,SW39,2*%
%TO.N,RK39_D*%
X186852500Y-151185000D03*
%TD*%
%TO.P,SW4,1*%
%TO.N,R_COL3*%
X112240000Y-72445000D03*
%TO.P,SW4,2*%
%TO.N,RK04_D*%
X105890000Y-74985000D03*
%TD*%
%TO.P,SW29,1*%
%TO.N,R_COL4*%
X136052500Y-129595000D03*
%TO.P,SW29,2*%
%TO.N,RK29_D*%
X129702500Y-132135000D03*
%TD*%
%TO.P,SW22,1*%
%TO.N,R_COL5*%
X145577500Y-110545000D03*
%TO.P,SW22,2*%
%TO.N,RK22_D*%
X139227500Y-113085000D03*
%TD*%
%TO.P,SW27,1*%
%TO.N,R_COL2*%
X97952500Y-129595000D03*
%TO.P,SW27,2*%
%TO.N,RK27_D*%
X91602500Y-132135000D03*
%TD*%
%TO.P,SW26,1*%
%TO.N,R_COL1*%
X78902500Y-129595000D03*
%TO.P,SW26,2*%
%TO.N,RK26_D*%
X72552500Y-132135000D03*
%TD*%
%TO.P,SW15,1*%
%TO.N,R_COL6*%
X159865000Y-91495000D03*
%TO.P,SW15,2*%
%TO.N,RK15_D*%
X153515000Y-94035000D03*
%TD*%
%TO.P,SW35,1*%
%TO.N,R_COL2*%
X114621300Y-148645000D03*
%TO.P,SW35,2*%
%TO.N,RK35_D*%
X108271300Y-151185000D03*
%TD*%
%TO.P,SW12,1*%
%TO.N,R_COL3*%
X102715000Y-91495000D03*
%TO.P,SW12,2*%
%TO.N,RK12_D*%
X96365000Y-94035000D03*
%TD*%
%TO.P,SW2,1*%
%TO.N,R_COL1*%
X74140000Y-72445000D03*
%TO.P,SW2,2*%
%TO.N,RK02_D*%
X67790000Y-74985000D03*
%TD*%
%TO.P,SW28,1*%
%TO.N,R_COL3*%
X117002500Y-129595000D03*
%TO.P,SW28,2*%
%TO.N,RK28_D*%
X110652500Y-132135000D03*
%TD*%
%TO.P,SW17,1*%
%TO.N,R_COL0*%
X45247500Y-120705000D03*
%TO.P,SW17,2*%
%TO.N,RK17_D*%
X51597500Y-118165000D03*
%TD*%
%TO.P,SW3,1*%
%TO.N,R_COL2*%
X93190000Y-72445000D03*
%TO.P,SW3,2*%
%TO.N,RK03_D*%
X86840000Y-74985000D03*
%TD*%
%TO.P,SW30,1*%
%TO.N,R_COL5*%
X155102500Y-129595000D03*
%TO.P,SW30,2*%
%TO.N,RK30_D*%
X148752500Y-132135000D03*
%TD*%
D12*
%TO.P,J_BAT1,1*%
%TO.N,BAT+*%
X94300000Y-59400000D03*
%TO.P,J_BAT1,2*%
%TO.N,GND*%
X96840001Y-59400000D03*
%TD*%
D10*
%TO.P,SW7,1*%
%TO.N,R_COL6*%
X171771300Y-72445000D03*
%TO.P,SW7,2*%
%TO.N,RK07_D*%
X165421300Y-74985000D03*
%TD*%
%TO.P,SW14,1*%
%TO.N,R_COL5*%
X140815000Y-91495000D03*
%TO.P,SW14,2*%
%TO.N,RK14_D*%
X134465000Y-94035000D03*
%TD*%
%TO.P,SW9,1*%
%TO.N,R_COL0*%
X40485000Y-101655000D03*
%TO.P,SW9,2*%
%TO.N,RK09_D*%
X46835000Y-99115000D03*
%TD*%
%TO.P,SW5,1*%
%TO.N,R_COL4*%
X131290000Y-72445000D03*
%TO.P,SW5,2*%
%TO.N,RK05_D*%
X124940000Y-74985000D03*
%TD*%
%TO.P,SW20,1*%
%TO.N,R_COL3*%
X107477500Y-110545000D03*
%TO.P,SW20,2*%
%TO.N,RK20_D*%
X101127500Y-113085000D03*
%TD*%
%TO.P,SW32,1*%
%TO.N,R_COL7*%
X193202500Y-129595000D03*
%TO.P,SW32,2*%
%TO.N,RK32_D*%
X186852500Y-132135000D03*
%TD*%
%TO.P,SW18,1*%
%TO.N,R_COL1*%
X69377500Y-110545000D03*
%TO.P,SW18,2*%
%TO.N,RK18_D*%
X63027500Y-113085000D03*
%TD*%
D13*
%TO.P,SW_RST1,1*%
%TO.N,RST*%
X87925000Y-63450000D03*
%TO.P,SW_RST1,2*%
%TO.N,GND*%
X80175000Y-63450000D03*
%TD*%
D10*
%TO.P,SW23,1*%
%TO.N,R_COL6*%
X169390000Y-110545000D03*
%TO.P,SW23,2*%
%TO.N,RK23_D*%
X163040000Y-113085000D03*
%TD*%
%TO.P,SW6,1*%
%TO.N,R_COL5*%
X150340000Y-72445000D03*
%TO.P,SW6,2*%
%TO.N,RK06_D*%
X143990000Y-74985000D03*
%TD*%
%TO.P,SW21,1*%
%TO.N,R_COL4*%
X126527500Y-110545000D03*
%TO.P,SW21,2*%
%TO.N,RK21_D*%
X120177500Y-113085000D03*
%TD*%
D14*
%TO.P,SW_PWR1,1*%
%TO.N,BAT+*%
X94300000Y-63450000D03*
%TO.P,SW_PWR1,2*%
%TO.N,NN_B+*%
X96840000Y-63450000D03*
%TO.P,SW_PWR1,3*%
%TO.N,N/C*%
X91759999Y-63450000D03*
%TD*%
D15*
%TO.N,R_COL3*%
X109910000Y-86103700D03*
X134723300Y-144561600D03*
X107477500Y-103492300D03*
%TO.N,R_ROW3*%
X107540000Y-127433900D03*
X95378600Y-127917000D03*
%TO.N,R_ROW0*%
X112732700Y-74378300D03*
X98500000Y-67500000D03*
X98762400Y-71481100D03*
X117054700Y-73565300D03*
X98000000Y-55000000D03*
%TO.N,R_ROW1*%
X63208100Y-88528800D03*
%TO.N,R_ROW2*%
X58149300Y-113432200D03*
X61250000Y-71250000D03*
X59982400Y-108585100D03*
X60750000Y-67500000D03*
%TO.N,R_ROW4*%
X60250000Y-79750000D03*
X76022100Y-146264200D03*
X61000000Y-54500000D03*
%TO.N,R_COL1*%
X64374300Y-85548400D03*
X86046300Y-142397400D03*
X69377500Y-100499600D03*
%TO.N,R_COL4*%
X150924900Y-142634300D03*
X82325900Y-79038700D03*
X134723300Y-124441200D03*
%TO.N,R_COL2*%
X90500000Y-70500000D03*
X86000000Y-68500000D03*
X87331700Y-103492300D03*
X79500000Y-65500000D03*
X110884900Y-142397400D03*
X96457000Y-82774100D03*
%TO.N,R_COL5*%
X77500000Y-66000000D03*
X72500000Y-61000000D03*
X82000000Y-67500000D03*
X93173600Y-86047200D03*
X173460700Y-144583000D03*
X73500000Y-59500000D03*
X155102500Y-121448500D03*
%TO.N,R_COL6*%
X158561700Y-87575600D03*
X97050000Y-89179100D03*
X174152500Y-121448500D03*
%TO.N,R_COL7*%
X84000000Y-60000000D03*
X87000000Y-62000000D03*
%TO.N,GND*%
X78800000Y-63450000D03*
%TO.N,RK34_D*%
X74965500Y-148675600D03*
%TO.N,RK11_D*%
X74480700Y-89774200D03*
%TO.N,RK26_D*%
X69362500Y-127433900D03*
%TO.N,RK15_D*%
X150859400Y-90368100D03*
%TD*%
%TO.N,R_COL3*%
D16*
X107471900Y-92965400D02*
X104185400Y-92965400D01*
X107477500Y-92971000D02*
X107471900Y-92965400D01*
X107471900Y-88541800D02*
X109910000Y-86103700D01*
X107477500Y-103492300D02*
X107477500Y-92971000D01*
X104185400Y-92965400D02*
X102715000Y-91495000D01*
X107471900Y-92965400D02*
X107471900Y-88541800D01*
X107477500Y-110545000D02*
X107477500Y-103492300D01*
X136052500Y-145890800D02*
X134723300Y-144561600D01*
X136052500Y-148645000D02*
X136052500Y-145890800D01*
%TO.N,R_ROW3*%
X100200000Y-91691100D02*
X100459300Y-91691100D01*
X103690600Y-94922400D02*
X100459300Y-91691100D01*
X81210000Y-44891900D02*
X81210000Y-43130000D01*
X91721900Y-54177000D02*
X92500000Y-54200000D01*
X100200000Y-54200000D02*
X100200000Y-62655100D01*
X100200000Y-62655100D02*
X100200000Y-91691100D01*
X91721900Y-54177000D02*
X90495100Y-54177000D01*
X103690600Y-109558100D02*
X103690600Y-94922400D01*
X108142900Y-114010400D02*
X103690600Y-109558100D01*
X107540000Y-127433900D02*
X108142900Y-126831000D01*
X95378600Y-127917000D02*
X107056900Y-127917000D01*
X92500000Y-54200000D02*
X100200000Y-54200000D01*
X107056900Y-127917000D02*
X107540000Y-127433900D01*
X90495100Y-54177000D02*
X81210000Y-44891900D01*
X108142900Y-126831000D02*
X108142900Y-114010400D01*
%TO.N,R_ROW0*%
X90365800Y-54923300D02*
X91638900Y-54923300D01*
X117054700Y-73565300D02*
X116241700Y-74378300D01*
X78670000Y-43227500D02*
X90365800Y-54923300D01*
X91638900Y-54923300D02*
X98000000Y-55000000D01*
X78670000Y-43130000D02*
X78670000Y-43227500D01*
X116241700Y-74378300D02*
X112732700Y-74378300D01*
X98500000Y-67500000D02*
X98762400Y-71481100D01*
%TO.N,R_ROW1*%
X62077000Y-87397700D02*
X64000000Y-69250000D01*
X62750000Y-61250000D02*
X62000000Y-59250000D01*
X62077000Y-57183000D02*
X76130000Y-43130000D01*
X64000000Y-69250000D02*
X62750000Y-61250000D01*
X62000000Y-59250000D02*
X62077000Y-57183000D01*
X63208100Y-88528800D02*
X62077000Y-87397700D01*
%TO.N,R_ROW2*%
X54883600Y-94388000D02*
X61090300Y-88181300D01*
X61090300Y-55629700D02*
X73590000Y-43130000D01*
X61090300Y-88181300D02*
X61250000Y-71250000D01*
X58149300Y-113432200D02*
X58149300Y-110418200D01*
X60750000Y-67500000D02*
X61090300Y-55629700D01*
X54883600Y-103486300D02*
X54883600Y-94388000D01*
X58149300Y-110418200D02*
X59982400Y-108585100D01*
X59982400Y-108585100D02*
X54883600Y-103486300D01*
%TO.N,R_ROW4*%
X60538600Y-80066200D02*
X60250000Y-79750000D01*
X54331900Y-86272900D02*
X60538600Y-80066200D01*
X57265000Y-113184200D02*
X54331900Y-110251100D01*
X57265000Y-122584000D02*
X57265000Y-113184200D01*
X76022100Y-146264200D02*
X67984900Y-138227000D01*
X60538600Y-51101400D02*
X68510000Y-43130000D01*
X67984900Y-138227000D02*
X67984900Y-133303900D01*
X54331900Y-110251100D02*
X54331900Y-86272900D01*
X61000000Y-54500000D02*
X60538600Y-51101400D01*
X67984900Y-133303900D02*
X57265000Y-122584000D01*
%TO.N,R_COL0*%
X40485000Y-115942500D02*
X45247500Y-120705000D01*
X59986900Y-78836300D02*
X59986900Y-46573100D01*
X56218200Y-82605000D02*
X59986900Y-78836300D01*
X54112600Y-140414900D02*
X54112600Y-158145100D01*
X50010000Y-82605000D02*
X56218200Y-82605000D01*
X53812700Y-138795200D02*
X54772500Y-139755000D01*
X40485000Y-101655000D02*
X40485000Y-115942500D01*
X59986900Y-46573100D02*
X63430000Y-43130000D01*
X45247500Y-120705000D02*
X53812700Y-129270200D01*
X54112600Y-158145100D02*
X54772500Y-158805000D01*
X53812700Y-129270200D02*
X53812700Y-138795200D01*
X54772500Y-139755000D02*
X54112600Y-140414900D01*
%TO.N,R_COL1*%
X63430000Y-61841600D02*
X69500000Y-67000000D01*
X78902500Y-129595000D02*
X86046300Y-136738800D01*
X86046300Y-136738800D02*
X86046300Y-142397400D01*
X69500000Y-67000000D02*
X69500000Y-70000000D01*
X69500000Y-70000000D02*
X74033400Y-72445000D01*
X64615000Y-91495000D02*
X64374300Y-91254300D01*
X63430000Y-58370000D02*
X63430000Y-61841600D01*
X69377500Y-96257500D02*
X64615000Y-91495000D01*
X86046300Y-142397400D02*
X86046300Y-148645000D01*
X64374300Y-91254300D02*
X64374300Y-85548400D01*
X69500000Y-70000000D02*
X64374300Y-75981000D01*
X69377500Y-110545000D02*
X69377500Y-100499600D01*
X64374300Y-85548400D02*
X64374300Y-75981000D01*
X69377500Y-100499600D02*
X69377500Y-96257500D01*
X74033400Y-72445000D02*
X74140000Y-72445000D01*
%TO.N,R_COL4*%
X82325900Y-79038700D02*
X82325900Y-69645900D01*
X82325900Y-69645900D02*
X71050000Y-58370000D01*
X131967700Y-73122700D02*
X131967700Y-85831600D01*
X124034700Y-93764600D02*
X126527500Y-96257500D01*
X131290000Y-72445000D02*
X131967700Y-73122700D01*
X136052500Y-125770400D02*
X136052500Y-129595000D01*
X126527500Y-96257500D02*
X126527500Y-110545000D01*
X121765000Y-91495000D02*
X124034700Y-93764600D01*
X134723300Y-124441200D02*
X136052500Y-125770400D01*
X131967700Y-85831600D02*
X124034700Y-93764600D01*
X155102500Y-148645000D02*
X150924900Y-144467400D01*
X150924900Y-144467400D02*
X150924900Y-142634300D01*
%TO.N,R_COL2*%
X88427500Y-104588100D02*
X87331700Y-103492300D01*
X88427500Y-110545000D02*
X88427500Y-104588100D01*
X90500000Y-70500000D02*
X93190000Y-72445000D01*
X87331700Y-103492300D02*
X84624800Y-100785400D01*
X93190000Y-72445000D02*
X97285000Y-76540000D01*
X97285000Y-81946100D02*
X96457000Y-82774100D01*
X84624800Y-100785400D02*
X84624800Y-92454800D01*
X79500000Y-65500000D02*
X83000000Y-65500000D01*
X114621300Y-148645000D02*
X110884900Y-144908600D01*
X97285000Y-76540000D02*
X97285000Y-81946100D01*
X110884900Y-144908600D02*
X110884900Y-142397400D01*
X84624800Y-92454800D02*
X83665000Y-91495000D01*
X83000000Y-65500000D02*
X86000000Y-68500000D01*
%TO.N,R_COL5*%
X82000000Y-67500000D02*
X83162000Y-67942000D01*
X145577500Y-108965600D02*
X148746300Y-108965600D01*
X173460700Y-144583000D02*
X174152500Y-145274800D01*
X148746300Y-108965600D02*
X155102500Y-115321800D01*
X145577500Y-108965600D02*
X145577500Y-110545000D01*
X155102500Y-121448500D02*
X155102500Y-129595000D01*
X174152500Y-145274800D02*
X174152500Y-148645000D01*
X140815000Y-91495000D02*
X145577500Y-96257500D01*
X155102500Y-115321800D02*
X155102500Y-121448500D01*
X72500000Y-61000000D02*
X77500000Y-66000000D01*
X83162000Y-67942000D02*
X83162000Y-81939800D01*
X73590000Y-58370000D02*
X73500000Y-59500000D01*
X83162000Y-81939800D02*
X87269400Y-86047200D01*
X87269400Y-86047200D02*
X93173600Y-86047200D01*
X145577500Y-96257500D02*
X145577500Y-108965600D01*
%TO.N,R_COL6*%
X94121200Y-86474400D02*
X94121200Y-76361200D01*
X159865000Y-88878900D02*
X159865000Y-91495000D01*
X85000000Y-65000000D02*
X94121200Y-76361200D01*
X174152500Y-129595000D02*
X174152500Y-121448500D01*
X97050000Y-89179100D02*
X94121200Y-86474400D01*
X76130000Y-58370000D02*
X85000000Y-65000000D01*
X174152500Y-121448500D02*
X174152500Y-115307500D01*
X158561700Y-87575600D02*
X159865000Y-88878900D01*
X174152500Y-115307500D02*
X169390000Y-110545000D01*
%TO.N,R_COL7*%
X193862400Y-111204900D02*
X193862400Y-128935100D01*
X193862400Y-128935100D02*
X193202500Y-129595000D01*
X84000000Y-60000000D02*
X87000000Y-62000000D01*
X193202500Y-110545000D02*
X193862400Y-111204900D01*
%TO.N,GND*%
X80175000Y-63450000D02*
X78800000Y-63450000D01*
%TO.N,NN_B+*%
D17*
X98800000Y-63450000D02*
X98800000Y-56000000D01*
X96840000Y-63450000D02*
X98800000Y-63450000D01*
X98800000Y-56000000D02*
X91370000Y-58370000D01*
%TO.N,RST*%
D16*
X87925000Y-61000000D02*
X86290000Y-58370000D01*
X87925000Y-63450000D02*
X87925000Y-61000000D01*
%TO.N,RK34_D*%
X79696300Y-151185000D02*
X77474900Y-151185000D01*
X77474900Y-151185000D02*
X74965500Y-148675600D01*
%TO.N,RK11_D*%
X77315000Y-94035000D02*
X74480700Y-91200700D01*
X74480700Y-91200700D02*
X74480700Y-89774200D01*
%TO.N,RK26_D*%
X69362500Y-128945000D02*
X69362500Y-127433900D01*
X72552500Y-132135000D02*
X69362500Y-128945000D01*
%TO.N,RK15_D*%
X153515000Y-93023700D02*
X150859400Y-90368100D01*
X153515000Y-94035000D02*
X153515000Y-93023700D01*
%TO.N,BAT+*%
D17*
X94300000Y-59400000D02*
X94300000Y-63450000D01*
%TD*%
M02*
