%TF.GenerationSoftware,KiCad,Pcbnew,10.0.3*%
%TF.CreationDate,2026-08-25T02:24:57+09:00*%
%TF.ProjectId,kc2_right-x3-v2,6b63325f-7269-4676-9874-2d78332d7632,draft-v2*%
%TF.SameCoordinates,Original*%
%TF.FileFunction,Copper,L1,Top*%
%TF.FilePolarity,Positive*%
%FSLAX46Y46*%
G04 Gerber Fmt 4.6, Leading zero omitted, Abs format (unit mm)*
G04 Created by KiCad (PCBNEW 10.0.3) date 2026-08-25 02:24:57*
%MOMM*%
%LPD*%
G01*
G04 APERTURE LIST*
%TA.AperFunction,ComponentPad*%
%ADD10C,2.500000*%
%TD*%
%TA.AperFunction,ComponentPad*%
%ADD11C,1.800000*%
%TD*%
%TA.AperFunction,SMDPad,CuDef*%
%ADD12R,1.750000X1.000000*%
%TD*%
%TA.AperFunction,ViaPad*%
%ADD13C,0.600000*%
%TD*%
%TA.AperFunction,Conductor*%
%ADD14C,0.250000*%
%TD*%
G04 APERTURE END LIST*
D10*
%TO.P,SW33,1*%
%TO.N,R_COL0*%
X54772500Y-158805000D03*
%TO.P,SW33,2*%
%TO.N,RK33_D*%
X61122500Y-156265000D03*
%TD*%
%TO.P,SW30,1*%
%TO.N,R_COL5*%
X155102500Y-129595000D03*
%TO.P,SW30,2*%
%TO.N,RK30_D*%
X148752500Y-132135000D03*
%TD*%
%TO.P,SW22,1*%
%TO.N,R_COL5*%
X145577500Y-110545000D03*
%TO.P,SW22,2*%
%TO.N,RK22_D*%
X139227500Y-113085000D03*
%TD*%
%TO.P,SW26,1*%
%TO.N,R_COL1*%
X78902500Y-129595000D03*
%TO.P,SW26,2*%
%TO.N,RK26_D*%
X72552500Y-132135000D03*
%TD*%
%TO.P,SW2,1*%
%TO.N,R_COL1*%
X74140000Y-72445000D03*
%TO.P,SW2,2*%
%TO.N,RK02_D*%
X67790000Y-74985000D03*
%TD*%
%TO.P,SW34,1*%
%TO.N,R_COL1*%
X86046300Y-148645000D03*
%TO.P,SW34,2*%
%TO.N,RK34_D*%
X79696300Y-151185000D03*
%TD*%
%TO.P,SW20,1*%
%TO.N,R_COL3*%
X107477500Y-110545000D03*
%TO.P,SW20,2*%
%TO.N,RK20_D*%
X101127500Y-113085000D03*
%TD*%
D11*
%TO.P,U1,D0*%
%TO.N,N/C*%
X88830000Y-41380000D03*
%TO.P,U1,D1*%
X91370000Y-41380000D03*
%TO.P,U1,D2*%
%TO.N,R_ROW3*%
X81210000Y-41380000D03*
%TO.P,U1,D3*%
%TO.N,R_ROW0*%
X78670000Y-41380000D03*
%TO.P,U1,D4*%
%TO.N,R_ROW1*%
X76130000Y-41380000D03*
%TO.P,U1,D5*%
%TO.N,R_ROW2*%
X73590000Y-41380000D03*
%TO.P,U1,D6*%
%TO.N,N/C*%
X71050000Y-41380000D03*
%TO.P,U1,D7*%
%TO.N,R_ROW4*%
X68510000Y-41380000D03*
%TO.P,U1,D8*%
%TO.N,N/C*%
X65970000Y-41380000D03*
%TO.P,U1,D9*%
%TO.N,R_COL0*%
X63430000Y-41380000D03*
%TO.P,U1,D10*%
%TO.N,R_COL1*%
X63430000Y-56620000D03*
%TO.P,U1,D14*%
%TO.N,R_COL3*%
X68510000Y-56620000D03*
%TO.P,U1,D15*%
%TO.N,R_COL4*%
X71050000Y-56620000D03*
%TO.P,U1,D16*%
%TO.N,R_COL2*%
X65970000Y-56620000D03*
%TO.P,U1,D18*%
%TO.N,R_COL5*%
X73590000Y-56620000D03*
%TO.P,U1,D19*%
%TO.N,R_COL6*%
X76130000Y-56620000D03*
%TO.P,U1,D20*%
%TO.N,R_COL8*%
X78670000Y-56620000D03*
%TO.P,U1,D21*%
%TO.N,R_COL7*%
X81210000Y-56620000D03*
%TO.P,U1,GND_A*%
%TO.N,N/C*%
X86290000Y-41380000D03*
%TO.P,U1,GND_B*%
X83750000Y-41380000D03*
%TO.P,U1,GND_C*%
%TO.N,GND*%
X88830000Y-56620000D03*
%TO.P,U1,RAW*%
%TO.N,N/C*%
X91370000Y-56620000D03*
%TO.P,U1,RST*%
%TO.N,RST*%
X86290000Y-56620000D03*
%TO.P,U1,VCC*%
%TO.N,N/C*%
X83750000Y-56620000D03*
%TD*%
D10*
%TO.P,SW14,1*%
%TO.N,R_COL5*%
X140815000Y-91495000D03*
%TO.P,SW14,2*%
%TO.N,RK14_D*%
X134465000Y-94035000D03*
%TD*%
%TO.P,SW27,1*%
%TO.N,R_COL2*%
X97952500Y-129595000D03*
%TO.P,SW27,2*%
%TO.N,RK27_D*%
X91602500Y-132135000D03*
%TD*%
%TO.P,SW28,1*%
%TO.N,R_COL3*%
X117002500Y-129595000D03*
%TO.P,SW28,2*%
%TO.N,RK28_D*%
X110652500Y-132135000D03*
%TD*%
%TO.P,SW4,1*%
%TO.N,R_COL3*%
X112240000Y-72445000D03*
%TO.P,SW4,2*%
%TO.N,RK04_D*%
X105890000Y-74985000D03*
%TD*%
%TO.P,SW3,1*%
%TO.N,R_COL2*%
X93190000Y-72445000D03*
%TO.P,SW3,2*%
%TO.N,RK03_D*%
X86840000Y-74985000D03*
%TD*%
%TO.P,SW7,1*%
%TO.N,R_COL6*%
X171771300Y-72445000D03*
%TO.P,SW7,2*%
%TO.N,RK07_D*%
X165421300Y-74985000D03*
%TD*%
%TO.P,SW11,1*%
%TO.N,R_COL2*%
X83665000Y-91495000D03*
%TO.P,SW11,2*%
%TO.N,RK11_D*%
X77315000Y-94035000D03*
%TD*%
%TO.P,SW32,1*%
%TO.N,R_COL7*%
X193202500Y-129595000D03*
%TO.P,SW32,2*%
%TO.N,RK32_D*%
X186852500Y-132135000D03*
%TD*%
%TO.P,SW12,1*%
%TO.N,R_COL3*%
X102715000Y-91495000D03*
%TO.P,SW12,2*%
%TO.N,RK12_D*%
X96365000Y-94035000D03*
%TD*%
%TO.P,SW6,1*%
%TO.N,R_COL5*%
X150340000Y-72445000D03*
%TO.P,SW6,2*%
%TO.N,RK06_D*%
X143990000Y-74985000D03*
%TD*%
%TO.P,SW9,1*%
%TO.N,R_COL0*%
X40485000Y-101655000D03*
%TO.P,SW9,2*%
%TO.N,RK09_D*%
X46835000Y-99115000D03*
%TD*%
%TO.P,SW36,1*%
%TO.N,R_COL3*%
X136052500Y-148645000D03*
%TO.P,SW36,2*%
%TO.N,RK36_D*%
X129702500Y-151185000D03*
%TD*%
%TO.P,SW17,1*%
%TO.N,R_COL0*%
X45247500Y-120705000D03*
%TO.P,SW17,2*%
%TO.N,RK17_D*%
X51597500Y-118165000D03*
%TD*%
%TO.P,SW16,1*%
%TO.N,R_COL7*%
X186058800Y-91495000D03*
%TO.P,SW16,2*%
%TO.N,RK16_D*%
X179708800Y-94035000D03*
%TD*%
%TO.P,SW13,1*%
%TO.N,R_COL4*%
X121765000Y-91495000D03*
%TO.P,SW13,2*%
%TO.N,RK13_D*%
X115415000Y-94035000D03*
%TD*%
%TO.P,SW31,1*%
%TO.N,R_COL6*%
X174152500Y-129595000D03*
%TO.P,SW31,2*%
%TO.N,RK31_D*%
X167802500Y-132135000D03*
%TD*%
%TO.P,SW15,1*%
%TO.N,R_COL6*%
X159865000Y-91495000D03*
%TO.P,SW15,2*%
%TO.N,RK15_D*%
X153515000Y-94035000D03*
%TD*%
%TO.P,SW29,1*%
%TO.N,R_COL4*%
X136052500Y-129595000D03*
%TO.P,SW29,2*%
%TO.N,RK29_D*%
X129702500Y-132135000D03*
%TD*%
%TO.P,SW39,1*%
%TO.N,R_COL6*%
X193202500Y-148645000D03*
%TO.P,SW39,2*%
%TO.N,RK39_D*%
X186852500Y-151185000D03*
%TD*%
%TO.P,SW23,1*%
%TO.N,R_COL6*%
X169390000Y-110545000D03*
%TO.P,SW23,2*%
%TO.N,RK23_D*%
X163040000Y-113085000D03*
%TD*%
%TO.P,SW19,1*%
%TO.N,R_COL2*%
X88427500Y-110545000D03*
%TO.P,SW19,2*%
%TO.N,RK19_D*%
X82077500Y-113085000D03*
%TD*%
%TO.P,SW35,1*%
%TO.N,R_COL2*%
X114621300Y-148645000D03*
%TO.P,SW35,2*%
%TO.N,RK35_D*%
X108271300Y-151185000D03*
%TD*%
%TO.P,SW1,1*%
%TO.N,R_COL0*%
X50010000Y-82605000D03*
%TO.P,SW1,2*%
%TO.N,RK01_D*%
X56360000Y-80065000D03*
%TD*%
%TO.P,SW18,1*%
%TO.N,R_COL1*%
X69377500Y-110545000D03*
%TO.P,SW18,2*%
%TO.N,RK18_D*%
X63027500Y-113085000D03*
%TD*%
D12*
%TO.P,SW_RST1,1*%
%TO.N,RST*%
X61475000Y-62150000D03*
%TO.P,SW_RST1,2*%
%TO.N,GND*%
X69225000Y-62150000D03*
%TD*%
D10*
%TO.P,SW5,1*%
%TO.N,R_COL4*%
X131290000Y-72445000D03*
%TO.P,SW5,2*%
%TO.N,RK05_D*%
X124940000Y-74985000D03*
%TD*%
%TO.P,SW10,1*%
%TO.N,R_COL1*%
X64615000Y-91495000D03*
%TO.P,SW10,2*%
%TO.N,RK10_D*%
X58265000Y-94035000D03*
%TD*%
%TO.P,SW8,1*%
%TO.N,R_COL7*%
X193202500Y-72445000D03*
%TO.P,SW8,2*%
%TO.N,RK08_D*%
X186852500Y-74985000D03*
%TD*%
%TO.P,SW25,1*%
%TO.N,R_COL0*%
X54772500Y-139755000D03*
%TO.P,SW25,2*%
%TO.N,RK25_D*%
X61122500Y-137215000D03*
%TD*%
%TO.P,SW37,1*%
%TO.N,R_COL4*%
X155102500Y-148645000D03*
%TO.P,SW37,2*%
%TO.N,RK37_D*%
X148752500Y-151185000D03*
%TD*%
%TO.P,SW24,1*%
%TO.N,R_COL7*%
X193202500Y-110545000D03*
%TO.P,SW24,2*%
%TO.N,RK24_D*%
X186852500Y-113085000D03*
%TD*%
%TO.P,SW38,1*%
%TO.N,R_COL5*%
X174152500Y-148645000D03*
%TO.P,SW38,2*%
%TO.N,RK38_D*%
X167802500Y-151185000D03*
%TD*%
%TO.P,SW21,1*%
%TO.N,R_COL4*%
X126527500Y-110545000D03*
%TO.P,SW21,2*%
%TO.N,RK21_D*%
X120177500Y-113085000D03*
%TD*%
D13*
%TO.N,R_COL0*%
X60399100Y-56193100D03*
%TO.N,R_COL5*%
X95868900Y-65014900D03*
X140582100Y-87111300D03*
X173220200Y-144532100D03*
X145577500Y-101143900D03*
X152450500Y-121753300D03*
X96035100Y-86587500D03*
%TO.N,R_COL1*%
X69377500Y-101143900D03*
X73185700Y-85218600D03*
X70098500Y-121964000D03*
X71071700Y-129595000D03*
%TO.N,R_COL3*%
X132976000Y-143079900D03*
X95269100Y-54831700D03*
X113238500Y-81422000D03*
X107477500Y-101143900D03*
X117216400Y-132612200D03*
%TO.N,R_ROW3*%
X96075600Y-124697500D03*
X134874700Y-127030400D03*
X129508800Y-129999400D03*
%TO.N,R_ROW2*%
X93108500Y-107258700D03*
%TO.N,R_ROW4*%
X66138700Y-143600000D03*
%TO.N,R_COL4*%
X150870400Y-142586600D03*
X98194400Y-85363500D03*
X98194200Y-65813500D03*
X126527500Y-101143900D03*
%TO.N,R_COL2*%
X101708400Y-140053500D03*
%TO.N,R_COL6*%
X98585800Y-62869300D03*
X99100900Y-84039300D03*
X173496500Y-121753300D03*
%TO.N,R_COL7*%
X95936000Y-87538200D03*
X93094300Y-57927800D03*
%TO.N,RK18_D*%
X59931200Y-109896000D03*
%TD*%
%TO.N,R_COL0*%
D14*
X45247500Y-120705000D02*
X44272000Y-119729500D01*
X54772500Y-158805000D02*
X54112600Y-158145100D01*
X44272000Y-105442000D02*
X40485000Y-101655000D01*
X44272000Y-119729500D02*
X44272000Y-105442000D01*
X54112600Y-158145100D02*
X54112600Y-140414900D01*
X60399100Y-56193100D02*
X63430000Y-53162200D01*
X63430000Y-53162200D02*
X63430000Y-41380000D01*
X54112600Y-140414900D02*
X54772500Y-139755000D01*
%TO.N,R_COL5*%
X151017700Y-85831600D02*
X143084700Y-93764600D01*
X145577500Y-101143900D02*
X145577500Y-110545000D01*
X97822400Y-79003800D02*
X97822400Y-71091400D01*
X174152500Y-145464400D02*
X173220200Y-144532100D01*
X97822400Y-71091400D02*
X95868900Y-69137900D01*
X155102500Y-124405300D02*
X155102500Y-129595000D01*
X140582100Y-87111300D02*
X140582100Y-86986500D01*
X143084700Y-93764600D02*
X140815000Y-91495000D01*
X143084700Y-93764600D02*
X145577500Y-96257500D01*
X151017700Y-73122700D02*
X151017700Y-85831600D01*
X152450500Y-121753300D02*
X155102500Y-124405300D01*
X140582100Y-91262100D02*
X140582100Y-87111300D01*
X96035100Y-86587500D02*
X96035100Y-80791100D01*
X150340000Y-72445000D02*
X151017700Y-73122700D01*
X95868900Y-69137900D02*
X95868900Y-65014900D01*
X145577500Y-96257500D02*
X145577500Y-101143900D01*
X140582100Y-86986500D02*
X140582100Y-87111300D01*
X174152500Y-148645000D02*
X174152500Y-145464400D01*
X140815000Y-91495000D02*
X140582100Y-91262100D01*
X96035100Y-80791100D02*
X97822400Y-79003800D01*
%TO.N,R_COL1*%
X69377500Y-110545000D02*
X69377500Y-101143900D01*
X69377500Y-92967100D02*
X66087100Y-92967100D01*
X69377500Y-101143900D02*
X69377500Y-92967100D01*
X69377500Y-89026800D02*
X73185700Y-85218600D01*
X66087100Y-92967100D02*
X64615000Y-91495000D01*
X70098500Y-121964000D02*
X71071700Y-129595000D01*
X86046300Y-136738800D02*
X86046300Y-148645000D01*
X78902500Y-129595000D02*
X86046300Y-136738800D01*
X69377500Y-92967100D02*
X69377500Y-89026800D01*
%TO.N,R_COL3*%
X136052500Y-148645000D02*
X132976000Y-145568500D01*
X100111500Y-69380600D02*
X100111500Y-59674100D01*
X132976000Y-145568500D02*
X132976000Y-143079900D01*
X117216400Y-129808900D02*
X117002500Y-129595000D01*
X113238500Y-81422000D02*
X113238500Y-85533900D01*
X117216400Y-132612200D02*
X117216400Y-129808900D01*
X107477500Y-96257500D02*
X107477500Y-101143900D01*
X101444400Y-90224400D02*
X101444400Y-70713500D01*
X104996200Y-93776200D02*
X107477500Y-96257500D01*
X101444400Y-70713500D02*
X100111500Y-69380600D01*
X113238500Y-81422000D02*
X113238500Y-73443500D01*
X100111500Y-59674100D02*
X95269100Y-54831700D01*
X113238500Y-73443500D02*
X112240000Y-72445000D01*
X102715000Y-91495000D02*
X101444400Y-90224400D01*
X113238500Y-85533900D02*
X104996200Y-93776200D01*
X104996200Y-93776200D02*
X102715000Y-91495000D01*
X107477500Y-101143900D02*
X107477500Y-110545000D01*
%TO.N,R_ROW3*%
X96075600Y-124697500D02*
X96075600Y-105159700D01*
X81210000Y-43157000D02*
X81210000Y-41380000D01*
X100029200Y-70177000D02*
X99558300Y-69706100D01*
X96075600Y-105159700D02*
X92984600Y-102068700D01*
X92984600Y-102068700D02*
X92984600Y-94590600D01*
X132477800Y-127030400D02*
X129508800Y-129999400D01*
X134874700Y-127030400D02*
X132477800Y-127030400D01*
X92984600Y-94590600D02*
X100029200Y-87546000D01*
X99558300Y-61505300D02*
X81210000Y-43157000D01*
X99558300Y-69706100D02*
X99558300Y-61505300D01*
X100029200Y-87546000D02*
X100029200Y-70177000D01*
%TO.N,R_ROW2*%
X92364200Y-106514400D02*
X92364200Y-93045400D01*
X98374100Y-79232400D02*
X98374100Y-70862800D01*
X79907400Y-43243600D02*
X75453600Y-43243600D01*
X75453600Y-43243600D02*
X73590000Y-41380000D01*
X97270700Y-88138900D02*
X97270700Y-80335800D01*
X97270700Y-60606900D02*
X79907400Y-43243600D01*
X93108500Y-107258700D02*
X92364200Y-106514400D01*
X98374100Y-70862800D02*
X97270700Y-69759400D01*
X97270700Y-69759400D02*
X97270700Y-60606900D01*
X92364200Y-93045400D02*
X97270700Y-88138900D01*
X97270700Y-80335800D02*
X98374100Y-79232400D01*
%TO.N,R_ROW4*%
X66138700Y-130901200D02*
X55175000Y-119937500D01*
X60146400Y-89747400D02*
X60146400Y-61479700D01*
X66138700Y-143600000D02*
X66138700Y-130901199D01*
X61275800Y-60350300D02*
X61275800Y-56222100D01*
X60146400Y-61479700D02*
X61275800Y-60350300D01*
X54891100Y-95002700D02*
X60146400Y-89747400D01*
X55175000Y-102274900D02*
X54891100Y-101991000D01*
X54891100Y-101991000D02*
X54891100Y-95002700D01*
X68510000Y-48987900D02*
X68510000Y-41380000D01*
X55175000Y-119937500D02*
X55175000Y-102274900D01*
X61275800Y-56222100D02*
X68510000Y-48987900D01*
%TO.N,R_COL4*%
X98194200Y-69902600D02*
X98194200Y-65813500D01*
X98194200Y-85363300D02*
X98194200Y-85116000D01*
X98194200Y-85116000D02*
X98194200Y-82898300D01*
X98194400Y-85363500D02*
X98194400Y-85363200D01*
X98194400Y-85363200D02*
X98194400Y-85363500D01*
X98194200Y-85363300D02*
X98194400Y-85363500D01*
X126527500Y-101143900D02*
X126527500Y-96257500D01*
X98194200Y-82898300D02*
X98925800Y-82166700D01*
X131967700Y-73122700D02*
X131967700Y-85839200D01*
X126527500Y-96257500D02*
X124038500Y-93768400D01*
X131290000Y-72445000D02*
X131967700Y-73122700D01*
X155102500Y-146818700D02*
X150870400Y-142586600D01*
X124038500Y-93768400D02*
X121765000Y-91495000D01*
X126527500Y-110545000D02*
X126527500Y-101143900D01*
X131967700Y-85839200D02*
X124038500Y-93768400D01*
X98925800Y-82166700D02*
X98925800Y-70634200D01*
X98194200Y-85363300D02*
X98194200Y-85116000D01*
X155102500Y-148645000D02*
X155102500Y-146818700D01*
X98925800Y-70634200D02*
X98194200Y-69902600D01*
X98194200Y-85116000D02*
X98194200Y-85363300D01*
%TO.N,R_COL2*%
X88427500Y-96257500D02*
X88427500Y-110545000D01*
X98928100Y-137273200D02*
X101708400Y-140053500D01*
X83665000Y-91495000D02*
X85934700Y-93764600D01*
X93852500Y-85846800D02*
X85934700Y-93764600D01*
X98928100Y-130570600D02*
X98928100Y-137273200D01*
X97952500Y-129595000D02*
X98928100Y-130570600D01*
X85934700Y-93764600D02*
X88427500Y-96257500D01*
X93190000Y-72445000D02*
X93852500Y-73107500D01*
X93852500Y-73107500D02*
X93852500Y-85846800D01*
%TO.N,R_COL6*%
X172431200Y-83468100D02*
X172431200Y-73104900D01*
X159865000Y-91495000D02*
X162134700Y-93764600D01*
X169390000Y-110545000D02*
X169390000Y-101020000D01*
X99100900Y-84039300D02*
X99477500Y-83662700D01*
X99477500Y-83662700D02*
X99477500Y-70405600D01*
X162134700Y-93764600D02*
X172431200Y-83468100D01*
X162134700Y-93764600D02*
X169390000Y-101020000D01*
X173496500Y-121753300D02*
X173496500Y-114651500D01*
X98954300Y-69882400D02*
X98954300Y-63237800D01*
X172431200Y-73104900D02*
X171771300Y-72445000D01*
X173496500Y-121753300D02*
X174152500Y-122409300D01*
X98954300Y-63237800D02*
X98585800Y-62869300D01*
X173496500Y-114651500D02*
X169390000Y-110545000D01*
X174152500Y-122409300D02*
X174152500Y-129595000D01*
X99477500Y-70405600D02*
X98954300Y-69882400D01*
%TO.N,R_COL7*%
X193862400Y-128935100D02*
X193202500Y-129595000D01*
X95308300Y-80462400D02*
X95308300Y-86910500D01*
X93094300Y-57927800D02*
X93094300Y-67143600D01*
X93094300Y-57927800D02*
X93094300Y-58010800D01*
X193202500Y-110545000D02*
X193862400Y-111204900D01*
X97270700Y-78500000D02*
X95308300Y-80462400D01*
X193862400Y-111204900D02*
X193862400Y-128935100D01*
X93094300Y-58010800D02*
X93094300Y-57927800D01*
X95308300Y-86910500D02*
X95936000Y-87538200D01*
X93094300Y-67143600D02*
X97270700Y-71320000D01*
X97270700Y-71320000D02*
X97270700Y-78500000D01*
%TO.N,GND*%
X69225000Y-62150000D02*
X83300000Y-62150000D01*
X83300000Y-62150000D02*
X88830000Y-56620000D01*
%TO.N,RST*%
X81686700Y-61223300D02*
X61475000Y-61223300D01*
X61475000Y-62150000D02*
X61475000Y-61223300D01*
X86290000Y-56620000D02*
X81686700Y-61223300D01*
%TO.N,RK18_D*%
X59931200Y-109896000D02*
X63027500Y-112992300D01*
X63027500Y-112992300D02*
X63027500Y-113085000D01*
%TD*%
M02*
