M48
; DRILL file KiCad 10.0.3 date 2026-08-03T10:12:10
; FORMAT={-:-/ absolute / metric / decimal}
; #@! TF.CreationDate,2026-08-03T10:12:10+09:00
; #@! TF.GenerationSoftware,Kicad,Pcbnew,10.0.3
; #@! TF.FileFunction,NonPlated,1,2,NPTH
FMAT,2
METRIC
; #@! TA.AperFunction,NonPlated,NPTH,ComponentDrill
T1C1.650
; #@! TA.AperFunction,NonPlated,NPTH,ComponentDrill
T2C1.700
; #@! TA.AperFunction,NonPlated,NPTH,ComponentDrill
T3C2.200
; #@! TA.AperFunction,NonPlated,NPTH,ComponentDrill
T4C3.000
; #@! TA.AperFunction,NonPlated,NPTH,ComponentDrill
T5C5.000
%
G90
G05
T1
X53.125Y-91.425
X57.887Y-110.475
X62.65Y-72.375
X67.412Y-129.525
X67.412Y-148.575
X72.175Y-91.425
X76.938Y-110.475
X81.7Y-72.375
X86.462Y-129.525
X86.462Y-148.575
X91.225Y-91.425
X95.987Y-110.475
X100.75Y-72.375
X105.512Y-129.525
X105.512Y-148.575
X110.275Y-91.425
X115.037Y-110.475
X119.8Y-72.375
X124.562Y-129.525
X124.562Y-148.575
X129.325Y-91.425
X134.088Y-110.475
X138.85Y-72.375
X143.612Y-129.525
X143.612Y-148.575
X148.375Y-91.425
X153.137Y-110.475
X157.9Y-72.375
X162.662Y-129.525
X162.662Y-148.575
X167.425Y-91.425
X172.188Y-110.475
X176.95Y-72.375
X181.713Y-129.525
X181.713Y-148.575
X193.619Y-91.425
X196.0Y-110.475
X198.381Y-72.375
X200.762Y-129.525
X200.762Y-148.575
X219.812Y-72.375
X219.812Y-91.425
X219.812Y-110.475
X219.812Y-129.525
X219.812Y-148.575
T2
X43.045Y-96.575
X47.807Y-115.625
X52.57Y-77.525
X53.205Y-96.575
X57.332Y-134.675
X57.332Y-153.725
X57.967Y-115.625
X62.095Y-96.575
X62.73Y-77.525
X66.858Y-115.625
X67.492Y-134.675
X67.492Y-153.725
X71.62Y-77.525
X72.255Y-96.575
X76.382Y-134.675
X76.382Y-153.725
X77.017Y-115.625
X81.145Y-96.575
X81.78Y-77.525
X85.907Y-115.625
X86.542Y-134.675
X86.542Y-153.725
X90.67Y-77.525
X91.305Y-96.575
X95.432Y-134.675
X95.432Y-153.725
X96.067Y-115.625
X100.195Y-96.575
X100.83Y-77.525
X104.957Y-115.625
X105.593Y-134.675
X105.593Y-153.725
X109.72Y-77.525
X110.355Y-96.575
X114.483Y-134.675
X114.483Y-153.725
X115.117Y-115.625
X119.245Y-96.575
X119.88Y-77.525
X124.007Y-115.625
X124.642Y-134.675
X124.642Y-153.725
X128.77Y-77.525
X129.405Y-96.575
X133.532Y-134.675
X133.532Y-153.725
X134.167Y-115.625
X138.295Y-96.575
X138.93Y-77.525
X143.058Y-115.625
X143.692Y-134.675
X143.692Y-153.725
X147.82Y-77.525
X148.455Y-96.575
X152.582Y-134.675
X152.582Y-153.725
X153.218Y-115.625
X157.345Y-96.575
X157.98Y-77.525
X162.107Y-115.625
X162.743Y-134.675
X162.743Y-153.725
X166.87Y-77.525
X167.505Y-96.575
X171.632Y-134.675
X171.632Y-153.725
X172.267Y-115.625
X177.03Y-77.525
X181.792Y-134.675
X181.792Y-153.725
X183.539Y-96.575
X185.92Y-115.625
X188.301Y-77.525
X190.683Y-134.675
X190.683Y-153.725
X193.699Y-96.575
X196.08Y-115.625
X198.461Y-77.525
X200.843Y-134.675
X200.843Y-153.725
X209.732Y-77.525
X209.732Y-96.575
X209.732Y-115.625
X209.732Y-134.675
X209.732Y-153.725
X219.892Y-77.525
X219.892Y-96.575
X219.892Y-115.625
X219.892Y-134.675
X219.892Y-153.725
T4
X43.125Y-100.375
X47.887Y-119.425
X48.125Y-102.475
X52.65Y-81.325
X52.887Y-121.525
X54.38Y-127.17
X54.88Y-144.57
X57.412Y-138.475
X57.412Y-157.525
X57.65Y-83.425
X62.175Y-100.375
X62.412Y-140.575
X62.412Y-159.625
X66.938Y-119.425
X67.175Y-102.475
X71.7Y-81.325
X71.938Y-121.525
X76.462Y-138.475
X76.462Y-157.525
X76.7Y-83.425
X81.225Y-100.375
X81.462Y-140.575
X81.462Y-159.625
X85.987Y-119.425
X86.225Y-102.475
X90.75Y-81.325
X90.987Y-121.525
X95.512Y-138.475
X95.512Y-157.525
X95.75Y-83.425
X100.275Y-100.375
X100.512Y-140.575
X100.512Y-159.625
X103.12Y-84.53
X105.037Y-119.425
X105.275Y-102.475
X109.8Y-81.325
X110.037Y-121.525
X114.562Y-138.475
X114.562Y-157.525
X114.8Y-83.425
X119.325Y-100.375
X119.562Y-140.575
X119.562Y-159.625
X124.087Y-119.425
X124.325Y-102.475
X128.85Y-81.325
X129.088Y-121.525
X131.69Y-125.93
X133.612Y-138.475
X133.612Y-157.525
X133.85Y-83.425
X138.375Y-100.375
X138.612Y-140.575
X138.612Y-159.625
X141.69Y-84.03
X143.137Y-119.425
X143.375Y-102.475
X146.19Y-141.82
X147.9Y-81.325
X148.137Y-121.525
X152.662Y-138.475
X152.662Y-157.525
X152.9Y-83.425
X157.425Y-100.375
X157.662Y-140.575
X157.662Y-159.625
X162.188Y-119.425
X162.425Y-102.475
X166.95Y-81.325
X167.188Y-121.525
X171.713Y-138.475
X171.713Y-157.525
X171.95Y-83.425
X176.713Y-140.575
X176.713Y-159.625
X183.619Y-100.375
X186.0Y-119.425
X188.381Y-81.325
X188.619Y-102.475
X190.762Y-138.475
X190.762Y-157.525
X191.0Y-121.525
X193.381Y-83.425
X195.762Y-140.575
X195.762Y-159.625
X200.25Y-121.93
X200.75Y-95.53
X205.75Y-130.32
X209.812Y-81.325
X209.812Y-100.375
X209.812Y-119.425
X209.812Y-138.475
X209.812Y-157.525
X214.812Y-83.425
X214.812Y-102.475
X214.812Y-121.525
X214.812Y-140.575
X214.812Y-159.625
T5
X48.125Y-96.575
X52.887Y-115.625
X57.65Y-77.525
X62.412Y-134.675
X62.412Y-153.725
X67.175Y-96.575
X71.938Y-115.625
X76.7Y-77.525
X81.462Y-134.675
X81.462Y-153.725
X86.225Y-96.575
X90.987Y-115.625
X95.75Y-77.525
X100.512Y-134.675
X100.512Y-153.725
X105.275Y-96.575
X110.037Y-115.625
X114.8Y-77.525
X119.562Y-134.675
X119.562Y-153.725
X124.325Y-96.575
X129.088Y-115.625
X133.85Y-77.525
X138.612Y-134.675
X138.612Y-153.725
X143.375Y-96.575
X148.137Y-115.625
X152.9Y-77.525
X157.662Y-134.675
X157.662Y-153.725
X162.425Y-96.575
X167.188Y-115.625
X171.95Y-77.525
X176.713Y-134.675
X176.713Y-153.725
X188.619Y-96.575
X191.0Y-115.625
X193.381Y-77.525
X195.762Y-134.675
X195.762Y-153.725
X214.812Y-77.525
X214.812Y-96.575
X214.812Y-115.625
X214.812Y-134.675
X214.812Y-153.725
T3
X96.6Y-49.0G85X98.0Y-49.0
G05
M30
