%TF.GenerationSoftware,KiCad,Pcbnew,10.0.3*%
%TF.CreationDate,2026-08-22T00:43:41+09:00*%
%TF.ProjectId,kc2_right-x3-v2,6b63325f-7269-4676-9874-2d78332d7632,draft-v2*%
%TF.SameCoordinates,Original*%
%TF.FileFunction,Legend,Top*%
%TF.FilePolarity,Positive*%
%FSLAX46Y46*%
G04 Gerber Fmt 4.6, Leading zero omitted, Abs format (unit mm)*
G04 Created by KiCad (PCBNEW 10.0.3) date 2026-08-22 00:43:41*
%MOMM*%
%LPD*%
G01*
G04 APERTURE LIST*
%ADD10C,0.150000*%
%ADD11C,0.158750*%
%ADD12C,0.100000*%
%ADD13C,0.120000*%
%ADD14C,1.700000*%
%ADD15C,3.000000*%
%ADD16C,5.000000*%
%ADD17C,1.650000*%
%ADD18C,2.500000*%
%ADD19R,1.750000X1.000000*%
%ADD20O,3.600000X2.200000*%
G04 APERTURE END LIST*
D10*
X3457138Y-27408557D02*
X3457138Y-26508557D01*
X3457138Y-26508557D02*
X3971424Y-27408557D01*
X3971424Y-27408557D02*
X3971424Y-26508557D01*
X4528567Y-27408557D02*
X4442852Y-27365700D01*
X4442852Y-27365700D02*
X4399995Y-27322842D01*
X4399995Y-27322842D02*
X4357138Y-27237128D01*
X4357138Y-27237128D02*
X4357138Y-26979985D01*
X4357138Y-26979985D02*
X4399995Y-26894271D01*
X4399995Y-26894271D02*
X4442852Y-26851414D01*
X4442852Y-26851414D02*
X4528567Y-26808557D01*
X4528567Y-26808557D02*
X4657138Y-26808557D01*
X4657138Y-26808557D02*
X4742852Y-26851414D01*
X4742852Y-26851414D02*
X4785710Y-26894271D01*
X4785710Y-26894271D02*
X4828567Y-26979985D01*
X4828567Y-26979985D02*
X4828567Y-27237128D01*
X4828567Y-27237128D02*
X4785710Y-27322842D01*
X4785710Y-27322842D02*
X4742852Y-27365700D01*
X4742852Y-27365700D02*
X4657138Y-27408557D01*
X4657138Y-27408557D02*
X4528567Y-27408557D01*
X5771424Y-26808557D02*
X6114281Y-26808557D01*
X5899995Y-26508557D02*
X5899995Y-27279985D01*
X5899995Y-27279985D02*
X5942852Y-27365700D01*
X5942852Y-27365700D02*
X6028567Y-27408557D01*
X6028567Y-27408557D02*
X6114281Y-27408557D01*
X6542853Y-27408557D02*
X6457138Y-27365700D01*
X6457138Y-27365700D02*
X6414281Y-27322842D01*
X6414281Y-27322842D02*
X6371424Y-27237128D01*
X6371424Y-27237128D02*
X6371424Y-26979985D01*
X6371424Y-26979985D02*
X6414281Y-26894271D01*
X6414281Y-26894271D02*
X6457138Y-26851414D01*
X6457138Y-26851414D02*
X6542853Y-26808557D01*
X6542853Y-26808557D02*
X6671424Y-26808557D01*
X6671424Y-26808557D02*
X6757138Y-26851414D01*
X6757138Y-26851414D02*
X6799996Y-26894271D01*
X6799996Y-26894271D02*
X6842853Y-26979985D01*
X6842853Y-26979985D02*
X6842853Y-27237128D01*
X6842853Y-27237128D02*
X6799996Y-27322842D01*
X6799996Y-27322842D02*
X6757138Y-27365700D01*
X6757138Y-27365700D02*
X6671424Y-27408557D01*
X6671424Y-27408557D02*
X6542853Y-27408557D01*
X7228567Y-26808557D02*
X7228567Y-27708557D01*
X7228567Y-26851414D02*
X7314282Y-26808557D01*
X7314282Y-26808557D02*
X7485710Y-26808557D01*
X7485710Y-26808557D02*
X7571424Y-26851414D01*
X7571424Y-26851414D02*
X7614282Y-26894271D01*
X7614282Y-26894271D02*
X7657139Y-26979985D01*
X7657139Y-26979985D02*
X7657139Y-27237128D01*
X7657139Y-27237128D02*
X7614282Y-27322842D01*
X7614282Y-27322842D02*
X7571424Y-27365700D01*
X7571424Y-27365700D02*
X7485710Y-27408557D01*
X7485710Y-27408557D02*
X7314282Y-27408557D01*
X7314282Y-27408557D02*
X7228567Y-27365700D01*
X8728567Y-27408557D02*
X8728567Y-26508557D01*
X9114282Y-27408557D02*
X9114282Y-26937128D01*
X9114282Y-26937128D02*
X9071424Y-26851414D01*
X9071424Y-26851414D02*
X8985710Y-26808557D01*
X8985710Y-26808557D02*
X8857139Y-26808557D01*
X8857139Y-26808557D02*
X8771424Y-26851414D01*
X8771424Y-26851414D02*
X8728567Y-26894271D01*
X9671425Y-27408557D02*
X9585710Y-27365700D01*
X9585710Y-27365700D02*
X9542853Y-27322842D01*
X9542853Y-27322842D02*
X9499996Y-27237128D01*
X9499996Y-27237128D02*
X9499996Y-26979985D01*
X9499996Y-26979985D02*
X9542853Y-26894271D01*
X9542853Y-26894271D02*
X9585710Y-26851414D01*
X9585710Y-26851414D02*
X9671425Y-26808557D01*
X9671425Y-26808557D02*
X9799996Y-26808557D01*
X9799996Y-26808557D02*
X9885710Y-26851414D01*
X9885710Y-26851414D02*
X9928568Y-26894271D01*
X9928568Y-26894271D02*
X9971425Y-26979985D01*
X9971425Y-26979985D02*
X9971425Y-27237128D01*
X9971425Y-27237128D02*
X9928568Y-27322842D01*
X9928568Y-27322842D02*
X9885710Y-27365700D01*
X9885710Y-27365700D02*
X9799996Y-27408557D01*
X9799996Y-27408557D02*
X9671425Y-27408557D01*
X10742854Y-26808557D02*
X10742854Y-27408557D01*
X10357139Y-26808557D02*
X10357139Y-27279985D01*
X10357139Y-27279985D02*
X10399996Y-27365700D01*
X10399996Y-27365700D02*
X10485711Y-27408557D01*
X10485711Y-27408557D02*
X10614282Y-27408557D01*
X10614282Y-27408557D02*
X10699996Y-27365700D01*
X10699996Y-27365700D02*
X10742854Y-27322842D01*
X11128568Y-27365700D02*
X11214282Y-27408557D01*
X11214282Y-27408557D02*
X11385711Y-27408557D01*
X11385711Y-27408557D02*
X11471425Y-27365700D01*
X11471425Y-27365700D02*
X11514282Y-27279985D01*
X11514282Y-27279985D02*
X11514282Y-27237128D01*
X11514282Y-27237128D02*
X11471425Y-27151414D01*
X11471425Y-27151414D02*
X11385711Y-27108557D01*
X11385711Y-27108557D02*
X11257140Y-27108557D01*
X11257140Y-27108557D02*
X11171425Y-27065700D01*
X11171425Y-27065700D02*
X11128568Y-26979985D01*
X11128568Y-26979985D02*
X11128568Y-26937128D01*
X11128568Y-26937128D02*
X11171425Y-26851414D01*
X11171425Y-26851414D02*
X11257140Y-26808557D01*
X11257140Y-26808557D02*
X11385711Y-26808557D01*
X11385711Y-26808557D02*
X11471425Y-26851414D01*
X11899996Y-27408557D02*
X11899996Y-26808557D01*
X11899996Y-26508557D02*
X11857139Y-26551414D01*
X11857139Y-26551414D02*
X11899996Y-26594271D01*
X11899996Y-26594271D02*
X11942853Y-26551414D01*
X11942853Y-26551414D02*
X11899996Y-26508557D01*
X11899996Y-26508557D02*
X11899996Y-26594271D01*
X12328567Y-26808557D02*
X12328567Y-27408557D01*
X12328567Y-26894271D02*
X12371424Y-26851414D01*
X12371424Y-26851414D02*
X12457139Y-26808557D01*
X12457139Y-26808557D02*
X12585710Y-26808557D01*
X12585710Y-26808557D02*
X12671424Y-26851414D01*
X12671424Y-26851414D02*
X12714282Y-26937128D01*
X12714282Y-26937128D02*
X12714282Y-27408557D01*
X13528568Y-26808557D02*
X13528568Y-27537128D01*
X13528568Y-27537128D02*
X13485710Y-27622842D01*
X13485710Y-27622842D02*
X13442853Y-27665700D01*
X13442853Y-27665700D02*
X13357139Y-27708557D01*
X13357139Y-27708557D02*
X13228568Y-27708557D01*
X13228568Y-27708557D02*
X13142853Y-27665700D01*
X13528568Y-27365700D02*
X13442853Y-27408557D01*
X13442853Y-27408557D02*
X13271425Y-27408557D01*
X13271425Y-27408557D02*
X13185710Y-27365700D01*
X13185710Y-27365700D02*
X13142853Y-27322842D01*
X13142853Y-27322842D02*
X13099996Y-27237128D01*
X13099996Y-27237128D02*
X13099996Y-26979985D01*
X13099996Y-26979985D02*
X13142853Y-26894271D01*
X13142853Y-26894271D02*
X13185710Y-26851414D01*
X13185710Y-26851414D02*
X13271425Y-26808557D01*
X13271425Y-26808557D02*
X13442853Y-26808557D01*
X13442853Y-26808557D02*
X13528568Y-26851414D01*
X15285710Y-26465700D02*
X14514282Y-27622842D01*
X16614281Y-27365700D02*
X16528567Y-27408557D01*
X16528567Y-27408557D02*
X16357139Y-27408557D01*
X16357139Y-27408557D02*
X16271424Y-27365700D01*
X16271424Y-27365700D02*
X16228567Y-27279985D01*
X16228567Y-27279985D02*
X16228567Y-26937128D01*
X16228567Y-26937128D02*
X16271424Y-26851414D01*
X16271424Y-26851414D02*
X16357139Y-26808557D01*
X16357139Y-26808557D02*
X16528567Y-26808557D01*
X16528567Y-26808557D02*
X16614281Y-26851414D01*
X16614281Y-26851414D02*
X16657139Y-26937128D01*
X16657139Y-26937128D02*
X16657139Y-27022842D01*
X16657139Y-27022842D02*
X16228567Y-27108557D01*
X16957139Y-27408557D02*
X17428568Y-26808557D01*
X16957139Y-26808557D02*
X17428568Y-27408557D01*
X17642853Y-26808557D02*
X17985710Y-26808557D01*
X17771424Y-26508557D02*
X17771424Y-27279985D01*
X17771424Y-27279985D02*
X17814281Y-27365700D01*
X17814281Y-27365700D02*
X17899996Y-27408557D01*
X17899996Y-27408557D02*
X17985710Y-27408557D01*
X18628567Y-27365700D02*
X18542853Y-27408557D01*
X18542853Y-27408557D02*
X18371425Y-27408557D01*
X18371425Y-27408557D02*
X18285710Y-27365700D01*
X18285710Y-27365700D02*
X18242853Y-27279985D01*
X18242853Y-27279985D02*
X18242853Y-26937128D01*
X18242853Y-26937128D02*
X18285710Y-26851414D01*
X18285710Y-26851414D02*
X18371425Y-26808557D01*
X18371425Y-26808557D02*
X18542853Y-26808557D01*
X18542853Y-26808557D02*
X18628567Y-26851414D01*
X18628567Y-26851414D02*
X18671425Y-26937128D01*
X18671425Y-26937128D02*
X18671425Y-27022842D01*
X18671425Y-27022842D02*
X18242853Y-27108557D01*
X19057139Y-27408557D02*
X19057139Y-26808557D01*
X19057139Y-26979985D02*
X19099996Y-26894271D01*
X19099996Y-26894271D02*
X19142854Y-26851414D01*
X19142854Y-26851414D02*
X19228568Y-26808557D01*
X19228568Y-26808557D02*
X19314282Y-26808557D01*
X19614282Y-26808557D02*
X19614282Y-27408557D01*
X19614282Y-26894271D02*
X19657139Y-26851414D01*
X19657139Y-26851414D02*
X19742854Y-26808557D01*
X19742854Y-26808557D02*
X19871425Y-26808557D01*
X19871425Y-26808557D02*
X19957139Y-26851414D01*
X19957139Y-26851414D02*
X19999997Y-26937128D01*
X19999997Y-26937128D02*
X19999997Y-27408557D01*
X20814283Y-27408557D02*
X20814283Y-26937128D01*
X20814283Y-26937128D02*
X20771425Y-26851414D01*
X20771425Y-26851414D02*
X20685711Y-26808557D01*
X20685711Y-26808557D02*
X20514283Y-26808557D01*
X20514283Y-26808557D02*
X20428568Y-26851414D01*
X20814283Y-27365700D02*
X20728568Y-27408557D01*
X20728568Y-27408557D02*
X20514283Y-27408557D01*
X20514283Y-27408557D02*
X20428568Y-27365700D01*
X20428568Y-27365700D02*
X20385711Y-27279985D01*
X20385711Y-27279985D02*
X20385711Y-27194271D01*
X20385711Y-27194271D02*
X20428568Y-27108557D01*
X20428568Y-27108557D02*
X20514283Y-27065700D01*
X20514283Y-27065700D02*
X20728568Y-27065700D01*
X20728568Y-27065700D02*
X20814283Y-27022842D01*
X21371426Y-27408557D02*
X21285711Y-27365700D01*
X21285711Y-27365700D02*
X21242854Y-27279985D01*
X21242854Y-27279985D02*
X21242854Y-26508557D01*
X22785712Y-27365700D02*
X22699997Y-27408557D01*
X22699997Y-27408557D02*
X22528569Y-27408557D01*
X22528569Y-27408557D02*
X22442854Y-27365700D01*
X22442854Y-27365700D02*
X22399997Y-27322842D01*
X22399997Y-27322842D02*
X22357140Y-27237128D01*
X22357140Y-27237128D02*
X22357140Y-26979985D01*
X22357140Y-26979985D02*
X22399997Y-26894271D01*
X22399997Y-26894271D02*
X22442854Y-26851414D01*
X22442854Y-26851414D02*
X22528569Y-26808557D01*
X22528569Y-26808557D02*
X22699997Y-26808557D01*
X22699997Y-26808557D02*
X22785712Y-26851414D01*
X23557141Y-27408557D02*
X23557141Y-26937128D01*
X23557141Y-26937128D02*
X23514283Y-26851414D01*
X23514283Y-26851414D02*
X23428569Y-26808557D01*
X23428569Y-26808557D02*
X23257141Y-26808557D01*
X23257141Y-26808557D02*
X23171426Y-26851414D01*
X23557141Y-27365700D02*
X23471426Y-27408557D01*
X23471426Y-27408557D02*
X23257141Y-27408557D01*
X23257141Y-27408557D02*
X23171426Y-27365700D01*
X23171426Y-27365700D02*
X23128569Y-27279985D01*
X23128569Y-27279985D02*
X23128569Y-27194271D01*
X23128569Y-27194271D02*
X23171426Y-27108557D01*
X23171426Y-27108557D02*
X23257141Y-27065700D01*
X23257141Y-27065700D02*
X23471426Y-27065700D01*
X23471426Y-27065700D02*
X23557141Y-27022842D01*
X23985712Y-26808557D02*
X23985712Y-27708557D01*
X23985712Y-26851414D02*
X24071427Y-26808557D01*
X24071427Y-26808557D02*
X24242855Y-26808557D01*
X24242855Y-26808557D02*
X24328569Y-26851414D01*
X24328569Y-26851414D02*
X24371427Y-26894271D01*
X24371427Y-26894271D02*
X24414284Y-26979985D01*
X24414284Y-26979985D02*
X24414284Y-27237128D01*
X24414284Y-27237128D02*
X24371427Y-27322842D01*
X24371427Y-27322842D02*
X24328569Y-27365700D01*
X24328569Y-27365700D02*
X24242855Y-27408557D01*
X24242855Y-27408557D02*
X24071427Y-27408557D01*
X24071427Y-27408557D02*
X23985712Y-27365700D01*
X24671427Y-26808557D02*
X25014284Y-26808557D01*
X24799998Y-26508557D02*
X24799998Y-27279985D01*
X24799998Y-27279985D02*
X24842855Y-27365700D01*
X24842855Y-27365700D02*
X24928570Y-27408557D01*
X24928570Y-27408557D02*
X25014284Y-27408557D01*
X25699999Y-26808557D02*
X25699999Y-27408557D01*
X25314284Y-26808557D02*
X25314284Y-27279985D01*
X25314284Y-27279985D02*
X25357141Y-27365700D01*
X25357141Y-27365700D02*
X25442856Y-27408557D01*
X25442856Y-27408557D02*
X25571427Y-27408557D01*
X25571427Y-27408557D02*
X25657141Y-27365700D01*
X25657141Y-27365700D02*
X25699999Y-27322842D01*
X26128570Y-27408557D02*
X26128570Y-26808557D01*
X26128570Y-26979985D02*
X26171427Y-26894271D01*
X26171427Y-26894271D02*
X26214285Y-26851414D01*
X26214285Y-26851414D02*
X26299999Y-26808557D01*
X26299999Y-26808557D02*
X26385713Y-26808557D01*
X27028570Y-27365700D02*
X26942856Y-27408557D01*
X26942856Y-27408557D02*
X26771428Y-27408557D01*
X26771428Y-27408557D02*
X26685713Y-27365700D01*
X26685713Y-27365700D02*
X26642856Y-27279985D01*
X26642856Y-27279985D02*
X26642856Y-26937128D01*
X26642856Y-26937128D02*
X26685713Y-26851414D01*
X26685713Y-26851414D02*
X26771428Y-26808557D01*
X26771428Y-26808557D02*
X26942856Y-26808557D01*
X26942856Y-26808557D02*
X27028570Y-26851414D01*
X27028570Y-26851414D02*
X27071428Y-26937128D01*
X27071428Y-26937128D02*
X27071428Y-27022842D01*
X27071428Y-27022842D02*
X26642856Y-27108557D01*
X28142856Y-27065700D02*
X28828571Y-27065700D01*
X28485713Y-27408557D02*
X28485713Y-26722842D01*
X29942856Y-27408557D02*
X29942856Y-26808557D01*
X29942856Y-26508557D02*
X29899999Y-26551414D01*
X29899999Y-26551414D02*
X29942856Y-26594271D01*
X29942856Y-26594271D02*
X29985713Y-26551414D01*
X29985713Y-26551414D02*
X29942856Y-26508557D01*
X29942856Y-26508557D02*
X29942856Y-26594271D01*
X30371427Y-26808557D02*
X30371427Y-27408557D01*
X30371427Y-26894271D02*
X30414284Y-26851414D01*
X30414284Y-26851414D02*
X30499999Y-26808557D01*
X30499999Y-26808557D02*
X30628570Y-26808557D01*
X30628570Y-26808557D02*
X30714284Y-26851414D01*
X30714284Y-26851414D02*
X30757142Y-26937128D01*
X30757142Y-26937128D02*
X30757142Y-27408557D01*
X31571428Y-27408557D02*
X31571428Y-26508557D01*
X31571428Y-27365700D02*
X31485713Y-27408557D01*
X31485713Y-27408557D02*
X31314285Y-27408557D01*
X31314285Y-27408557D02*
X31228570Y-27365700D01*
X31228570Y-27365700D02*
X31185713Y-27322842D01*
X31185713Y-27322842D02*
X31142856Y-27237128D01*
X31142856Y-27237128D02*
X31142856Y-26979985D01*
X31142856Y-26979985D02*
X31185713Y-26894271D01*
X31185713Y-26894271D02*
X31228570Y-26851414D01*
X31228570Y-26851414D02*
X31314285Y-26808557D01*
X31314285Y-26808557D02*
X31485713Y-26808557D01*
X31485713Y-26808557D02*
X31571428Y-26851414D01*
X32342856Y-27365700D02*
X32257142Y-27408557D01*
X32257142Y-27408557D02*
X32085714Y-27408557D01*
X32085714Y-27408557D02*
X31999999Y-27365700D01*
X31999999Y-27365700D02*
X31957142Y-27279985D01*
X31957142Y-27279985D02*
X31957142Y-26937128D01*
X31957142Y-26937128D02*
X31999999Y-26851414D01*
X31999999Y-26851414D02*
X32085714Y-26808557D01*
X32085714Y-26808557D02*
X32257142Y-26808557D01*
X32257142Y-26808557D02*
X32342856Y-26851414D01*
X32342856Y-26851414D02*
X32385714Y-26937128D01*
X32385714Y-26937128D02*
X32385714Y-27022842D01*
X32385714Y-27022842D02*
X31957142Y-27108557D01*
X32771428Y-26808557D02*
X32771428Y-27708557D01*
X32771428Y-26851414D02*
X32857143Y-26808557D01*
X32857143Y-26808557D02*
X33028571Y-26808557D01*
X33028571Y-26808557D02*
X33114285Y-26851414D01*
X33114285Y-26851414D02*
X33157143Y-26894271D01*
X33157143Y-26894271D02*
X33200000Y-26979985D01*
X33200000Y-26979985D02*
X33200000Y-27237128D01*
X33200000Y-27237128D02*
X33157143Y-27322842D01*
X33157143Y-27322842D02*
X33114285Y-27365700D01*
X33114285Y-27365700D02*
X33028571Y-27408557D01*
X33028571Y-27408557D02*
X32857143Y-27408557D01*
X32857143Y-27408557D02*
X32771428Y-27365700D01*
X33928571Y-27365700D02*
X33842857Y-27408557D01*
X33842857Y-27408557D02*
X33671429Y-27408557D01*
X33671429Y-27408557D02*
X33585714Y-27365700D01*
X33585714Y-27365700D02*
X33542857Y-27279985D01*
X33542857Y-27279985D02*
X33542857Y-26937128D01*
X33542857Y-26937128D02*
X33585714Y-26851414D01*
X33585714Y-26851414D02*
X33671429Y-26808557D01*
X33671429Y-26808557D02*
X33842857Y-26808557D01*
X33842857Y-26808557D02*
X33928571Y-26851414D01*
X33928571Y-26851414D02*
X33971429Y-26937128D01*
X33971429Y-26937128D02*
X33971429Y-27022842D01*
X33971429Y-27022842D02*
X33542857Y-27108557D01*
X34357143Y-26808557D02*
X34357143Y-27408557D01*
X34357143Y-26894271D02*
X34400000Y-26851414D01*
X34400000Y-26851414D02*
X34485715Y-26808557D01*
X34485715Y-26808557D02*
X34614286Y-26808557D01*
X34614286Y-26808557D02*
X34700000Y-26851414D01*
X34700000Y-26851414D02*
X34742858Y-26937128D01*
X34742858Y-26937128D02*
X34742858Y-27408557D01*
X35557144Y-27408557D02*
X35557144Y-26508557D01*
X35557144Y-27365700D02*
X35471429Y-27408557D01*
X35471429Y-27408557D02*
X35300001Y-27408557D01*
X35300001Y-27408557D02*
X35214286Y-27365700D01*
X35214286Y-27365700D02*
X35171429Y-27322842D01*
X35171429Y-27322842D02*
X35128572Y-27237128D01*
X35128572Y-27237128D02*
X35128572Y-26979985D01*
X35128572Y-26979985D02*
X35171429Y-26894271D01*
X35171429Y-26894271D02*
X35214286Y-26851414D01*
X35214286Y-26851414D02*
X35300001Y-26808557D01*
X35300001Y-26808557D02*
X35471429Y-26808557D01*
X35471429Y-26808557D02*
X35557144Y-26851414D01*
X36328572Y-27365700D02*
X36242858Y-27408557D01*
X36242858Y-27408557D02*
X36071430Y-27408557D01*
X36071430Y-27408557D02*
X35985715Y-27365700D01*
X35985715Y-27365700D02*
X35942858Y-27279985D01*
X35942858Y-27279985D02*
X35942858Y-26937128D01*
X35942858Y-26937128D02*
X35985715Y-26851414D01*
X35985715Y-26851414D02*
X36071430Y-26808557D01*
X36071430Y-26808557D02*
X36242858Y-26808557D01*
X36242858Y-26808557D02*
X36328572Y-26851414D01*
X36328572Y-26851414D02*
X36371430Y-26937128D01*
X36371430Y-26937128D02*
X36371430Y-27022842D01*
X36371430Y-27022842D02*
X35942858Y-27108557D01*
X36757144Y-26808557D02*
X36757144Y-27408557D01*
X36757144Y-26894271D02*
X36800001Y-26851414D01*
X36800001Y-26851414D02*
X36885716Y-26808557D01*
X36885716Y-26808557D02*
X37014287Y-26808557D01*
X37014287Y-26808557D02*
X37100001Y-26851414D01*
X37100001Y-26851414D02*
X37142859Y-26937128D01*
X37142859Y-26937128D02*
X37142859Y-27408557D01*
X37442859Y-26808557D02*
X37785716Y-26808557D01*
X37571430Y-26508557D02*
X37571430Y-27279985D01*
X37571430Y-27279985D02*
X37614287Y-27365700D01*
X37614287Y-27365700D02*
X37700002Y-27408557D01*
X37700002Y-27408557D02*
X37785716Y-27408557D01*
X39157145Y-26808557D02*
X39157145Y-27408557D01*
X38771430Y-26808557D02*
X38771430Y-27279985D01*
X38771430Y-27279985D02*
X38814287Y-27365700D01*
X38814287Y-27365700D02*
X38900002Y-27408557D01*
X38900002Y-27408557D02*
X39028573Y-27408557D01*
X39028573Y-27408557D02*
X39114287Y-27365700D01*
X39114287Y-27365700D02*
X39157145Y-27322842D01*
X39585716Y-26808557D02*
X39585716Y-27408557D01*
X39585716Y-26894271D02*
X39628573Y-26851414D01*
X39628573Y-26851414D02*
X39714288Y-26808557D01*
X39714288Y-26808557D02*
X39842859Y-26808557D01*
X39842859Y-26808557D02*
X39928573Y-26851414D01*
X39928573Y-26851414D02*
X39971431Y-26937128D01*
X39971431Y-26937128D02*
X39971431Y-27408557D01*
X40785717Y-27408557D02*
X40785717Y-26508557D01*
X40785717Y-27365700D02*
X40700002Y-27408557D01*
X40700002Y-27408557D02*
X40528574Y-27408557D01*
X40528574Y-27408557D02*
X40442859Y-27365700D01*
X40442859Y-27365700D02*
X40400002Y-27322842D01*
X40400002Y-27322842D02*
X40357145Y-27237128D01*
X40357145Y-27237128D02*
X40357145Y-26979985D01*
X40357145Y-26979985D02*
X40400002Y-26894271D01*
X40400002Y-26894271D02*
X40442859Y-26851414D01*
X40442859Y-26851414D02*
X40528574Y-26808557D01*
X40528574Y-26808557D02*
X40700002Y-26808557D01*
X40700002Y-26808557D02*
X40785717Y-26851414D01*
X41557145Y-27365700D02*
X41471431Y-27408557D01*
X41471431Y-27408557D02*
X41300003Y-27408557D01*
X41300003Y-27408557D02*
X41214288Y-27365700D01*
X41214288Y-27365700D02*
X41171431Y-27279985D01*
X41171431Y-27279985D02*
X41171431Y-26937128D01*
X41171431Y-26937128D02*
X41214288Y-26851414D01*
X41214288Y-26851414D02*
X41300003Y-26808557D01*
X41300003Y-26808557D02*
X41471431Y-26808557D01*
X41471431Y-26808557D02*
X41557145Y-26851414D01*
X41557145Y-26851414D02*
X41600003Y-26937128D01*
X41600003Y-26937128D02*
X41600003Y-27022842D01*
X41600003Y-27022842D02*
X41171431Y-27108557D01*
X41985717Y-27408557D02*
X41985717Y-26808557D01*
X41985717Y-26979985D02*
X42028574Y-26894271D01*
X42028574Y-26894271D02*
X42071432Y-26851414D01*
X42071432Y-26851414D02*
X42157146Y-26808557D01*
X42157146Y-26808557D02*
X42242860Y-26808557D01*
X42500003Y-27365700D02*
X42585717Y-27408557D01*
X42585717Y-27408557D02*
X42757146Y-27408557D01*
X42757146Y-27408557D02*
X42842860Y-27365700D01*
X42842860Y-27365700D02*
X42885717Y-27279985D01*
X42885717Y-27279985D02*
X42885717Y-27237128D01*
X42885717Y-27237128D02*
X42842860Y-27151414D01*
X42842860Y-27151414D02*
X42757146Y-27108557D01*
X42757146Y-27108557D02*
X42628575Y-27108557D01*
X42628575Y-27108557D02*
X42542860Y-27065700D01*
X42542860Y-27065700D02*
X42500003Y-26979985D01*
X42500003Y-26979985D02*
X42500003Y-26937128D01*
X42500003Y-26937128D02*
X42542860Y-26851414D01*
X42542860Y-26851414D02*
X42628575Y-26808557D01*
X42628575Y-26808557D02*
X42757146Y-26808557D01*
X42757146Y-26808557D02*
X42842860Y-26851414D01*
X43271431Y-27408557D02*
X43271431Y-26808557D01*
X43271431Y-26508557D02*
X43228574Y-26551414D01*
X43228574Y-26551414D02*
X43271431Y-26594271D01*
X43271431Y-26594271D02*
X43314288Y-26551414D01*
X43314288Y-26551414D02*
X43271431Y-26508557D01*
X43271431Y-26508557D02*
X43271431Y-26594271D01*
X44085717Y-27408557D02*
X44085717Y-26508557D01*
X44085717Y-27365700D02*
X44000002Y-27408557D01*
X44000002Y-27408557D02*
X43828574Y-27408557D01*
X43828574Y-27408557D02*
X43742859Y-27365700D01*
X43742859Y-27365700D02*
X43700002Y-27322842D01*
X43700002Y-27322842D02*
X43657145Y-27237128D01*
X43657145Y-27237128D02*
X43657145Y-26979985D01*
X43657145Y-26979985D02*
X43700002Y-26894271D01*
X43700002Y-26894271D02*
X43742859Y-26851414D01*
X43742859Y-26851414D02*
X43828574Y-26808557D01*
X43828574Y-26808557D02*
X44000002Y-26808557D01*
X44000002Y-26808557D02*
X44085717Y-26851414D01*
X44857145Y-27365700D02*
X44771431Y-27408557D01*
X44771431Y-27408557D02*
X44600003Y-27408557D01*
X44600003Y-27408557D02*
X44514288Y-27365700D01*
X44514288Y-27365700D02*
X44471431Y-27279985D01*
X44471431Y-27279985D02*
X44471431Y-26937128D01*
X44471431Y-26937128D02*
X44514288Y-26851414D01*
X44514288Y-26851414D02*
X44600003Y-26808557D01*
X44600003Y-26808557D02*
X44771431Y-26808557D01*
X44771431Y-26808557D02*
X44857145Y-26851414D01*
X44857145Y-26851414D02*
X44900003Y-26937128D01*
X44900003Y-26937128D02*
X44900003Y-27022842D01*
X44900003Y-27022842D02*
X44471431Y-27108557D01*
X45928574Y-27365700D02*
X46014288Y-27408557D01*
X46014288Y-27408557D02*
X46185717Y-27408557D01*
X46185717Y-27408557D02*
X46271431Y-27365700D01*
X46271431Y-27365700D02*
X46314288Y-27279985D01*
X46314288Y-27279985D02*
X46314288Y-27237128D01*
X46314288Y-27237128D02*
X46271431Y-27151414D01*
X46271431Y-27151414D02*
X46185717Y-27108557D01*
X46185717Y-27108557D02*
X46057146Y-27108557D01*
X46057146Y-27108557D02*
X45971431Y-27065700D01*
X45971431Y-27065700D02*
X45928574Y-26979985D01*
X45928574Y-26979985D02*
X45928574Y-26937128D01*
X45928574Y-26937128D02*
X45971431Y-26851414D01*
X45971431Y-26851414D02*
X46057146Y-26808557D01*
X46057146Y-26808557D02*
X46185717Y-26808557D01*
X46185717Y-26808557D02*
X46271431Y-26851414D01*
X47085717Y-26808557D02*
X47085717Y-27408557D01*
X46700002Y-26808557D02*
X46700002Y-27279985D01*
X46700002Y-27279985D02*
X46742859Y-27365700D01*
X46742859Y-27365700D02*
X46828574Y-27408557D01*
X46828574Y-27408557D02*
X46957145Y-27408557D01*
X46957145Y-27408557D02*
X47042859Y-27365700D01*
X47042859Y-27365700D02*
X47085717Y-27322842D01*
X47514288Y-26808557D02*
X47514288Y-27708557D01*
X47514288Y-26851414D02*
X47600003Y-26808557D01*
X47600003Y-26808557D02*
X47771431Y-26808557D01*
X47771431Y-26808557D02*
X47857145Y-26851414D01*
X47857145Y-26851414D02*
X47900003Y-26894271D01*
X47900003Y-26894271D02*
X47942860Y-26979985D01*
X47942860Y-26979985D02*
X47942860Y-27237128D01*
X47942860Y-27237128D02*
X47900003Y-27322842D01*
X47900003Y-27322842D02*
X47857145Y-27365700D01*
X47857145Y-27365700D02*
X47771431Y-27408557D01*
X47771431Y-27408557D02*
X47600003Y-27408557D01*
X47600003Y-27408557D02*
X47514288Y-27365700D01*
X48328574Y-26808557D02*
X48328574Y-27708557D01*
X48328574Y-26851414D02*
X48414289Y-26808557D01*
X48414289Y-26808557D02*
X48585717Y-26808557D01*
X48585717Y-26808557D02*
X48671431Y-26851414D01*
X48671431Y-26851414D02*
X48714289Y-26894271D01*
X48714289Y-26894271D02*
X48757146Y-26979985D01*
X48757146Y-26979985D02*
X48757146Y-27237128D01*
X48757146Y-27237128D02*
X48714289Y-27322842D01*
X48714289Y-27322842D02*
X48671431Y-27365700D01*
X48671431Y-27365700D02*
X48585717Y-27408557D01*
X48585717Y-27408557D02*
X48414289Y-27408557D01*
X48414289Y-27408557D02*
X48328574Y-27365700D01*
X49271432Y-27408557D02*
X49185717Y-27365700D01*
X49185717Y-27365700D02*
X49142860Y-27322842D01*
X49142860Y-27322842D02*
X49100003Y-27237128D01*
X49100003Y-27237128D02*
X49100003Y-26979985D01*
X49100003Y-26979985D02*
X49142860Y-26894271D01*
X49142860Y-26894271D02*
X49185717Y-26851414D01*
X49185717Y-26851414D02*
X49271432Y-26808557D01*
X49271432Y-26808557D02*
X49400003Y-26808557D01*
X49400003Y-26808557D02*
X49485717Y-26851414D01*
X49485717Y-26851414D02*
X49528575Y-26894271D01*
X49528575Y-26894271D02*
X49571432Y-26979985D01*
X49571432Y-26979985D02*
X49571432Y-27237128D01*
X49571432Y-27237128D02*
X49528575Y-27322842D01*
X49528575Y-27322842D02*
X49485717Y-27365700D01*
X49485717Y-27365700D02*
X49400003Y-27408557D01*
X49400003Y-27408557D02*
X49271432Y-27408557D01*
X49957146Y-27408557D02*
X49957146Y-26808557D01*
X49957146Y-26979985D02*
X50000003Y-26894271D01*
X50000003Y-26894271D02*
X50042861Y-26851414D01*
X50042861Y-26851414D02*
X50128575Y-26808557D01*
X50128575Y-26808557D02*
X50214289Y-26808557D01*
X50385718Y-26808557D02*
X50728575Y-26808557D01*
X50514289Y-26508557D02*
X50514289Y-27279985D01*
X50514289Y-27279985D02*
X50557146Y-27365700D01*
X50557146Y-27365700D02*
X50642861Y-27408557D01*
X50642861Y-27408557D02*
X50728575Y-27408557D01*
X50985718Y-27365700D02*
X51071432Y-27408557D01*
X51071432Y-27408557D02*
X51242861Y-27408557D01*
X51242861Y-27408557D02*
X51328575Y-27365700D01*
X51328575Y-27365700D02*
X51371432Y-27279985D01*
X51371432Y-27279985D02*
X51371432Y-27237128D01*
X51371432Y-27237128D02*
X51328575Y-27151414D01*
X51328575Y-27151414D02*
X51242861Y-27108557D01*
X51242861Y-27108557D02*
X51114290Y-27108557D01*
X51114290Y-27108557D02*
X51028575Y-27065700D01*
X51028575Y-27065700D02*
X50985718Y-26979985D01*
X50985718Y-26979985D02*
X50985718Y-26937128D01*
X50985718Y-26937128D02*
X51028575Y-26851414D01*
X51028575Y-26851414D02*
X51114290Y-26808557D01*
X51114290Y-26808557D02*
X51242861Y-26808557D01*
X51242861Y-26808557D02*
X51328575Y-26851414D01*
X53085717Y-26465700D02*
X52314289Y-27622842D01*
X54071431Y-26808557D02*
X54071431Y-27408557D01*
X54071431Y-26894271D02*
X54114288Y-26851414D01*
X54114288Y-26851414D02*
X54200003Y-26808557D01*
X54200003Y-26808557D02*
X54328574Y-26808557D01*
X54328574Y-26808557D02*
X54414288Y-26851414D01*
X54414288Y-26851414D02*
X54457146Y-26937128D01*
X54457146Y-26937128D02*
X54457146Y-27408557D01*
X55014289Y-27408557D02*
X54928574Y-27365700D01*
X54928574Y-27365700D02*
X54885717Y-27322842D01*
X54885717Y-27322842D02*
X54842860Y-27237128D01*
X54842860Y-27237128D02*
X54842860Y-26979985D01*
X54842860Y-26979985D02*
X54885717Y-26894271D01*
X54885717Y-26894271D02*
X54928574Y-26851414D01*
X54928574Y-26851414D02*
X55014289Y-26808557D01*
X55014289Y-26808557D02*
X55142860Y-26808557D01*
X55142860Y-26808557D02*
X55228574Y-26851414D01*
X55228574Y-26851414D02*
X55271432Y-26894271D01*
X55271432Y-26894271D02*
X55314289Y-26979985D01*
X55314289Y-26979985D02*
X55314289Y-27237128D01*
X55314289Y-27237128D02*
X55271432Y-27322842D01*
X55271432Y-27322842D02*
X55228574Y-27365700D01*
X55228574Y-27365700D02*
X55142860Y-27408557D01*
X55142860Y-27408557D02*
X55014289Y-27408557D01*
X56385717Y-27408557D02*
X56385717Y-26508557D01*
X56471432Y-27065700D02*
X56728574Y-27408557D01*
X56728574Y-26808557D02*
X56385717Y-27151414D01*
X57457145Y-27365700D02*
X57371431Y-27408557D01*
X57371431Y-27408557D02*
X57200003Y-27408557D01*
X57200003Y-27408557D02*
X57114288Y-27365700D01*
X57114288Y-27365700D02*
X57071431Y-27279985D01*
X57071431Y-27279985D02*
X57071431Y-26937128D01*
X57071431Y-26937128D02*
X57114288Y-26851414D01*
X57114288Y-26851414D02*
X57200003Y-26808557D01*
X57200003Y-26808557D02*
X57371431Y-26808557D01*
X57371431Y-26808557D02*
X57457145Y-26851414D01*
X57457145Y-26851414D02*
X57500003Y-26937128D01*
X57500003Y-26937128D02*
X57500003Y-27022842D01*
X57500003Y-27022842D02*
X57071431Y-27108557D01*
X57800003Y-26808557D02*
X58014289Y-27408557D01*
X58228574Y-26808557D02*
X58014289Y-27408557D01*
X58014289Y-27408557D02*
X57928574Y-27622842D01*
X57928574Y-27622842D02*
X57885717Y-27665700D01*
X57885717Y-27665700D02*
X57800003Y-27708557D01*
X58571431Y-27065700D02*
X59257146Y-27065700D01*
X59557146Y-26808557D02*
X59900003Y-26808557D01*
X59685717Y-27408557D02*
X59685717Y-26637128D01*
X59685717Y-26637128D02*
X59728574Y-26551414D01*
X59728574Y-26551414D02*
X59814289Y-26508557D01*
X59814289Y-26508557D02*
X59900003Y-26508557D01*
X60200003Y-27408557D02*
X60200003Y-26808557D01*
X60200003Y-26508557D02*
X60157146Y-26551414D01*
X60157146Y-26551414D02*
X60200003Y-26594271D01*
X60200003Y-26594271D02*
X60242860Y-26551414D01*
X60242860Y-26551414D02*
X60200003Y-26508557D01*
X60200003Y-26508557D02*
X60200003Y-26594271D01*
X60971431Y-27365700D02*
X60885717Y-27408557D01*
X60885717Y-27408557D02*
X60714289Y-27408557D01*
X60714289Y-27408557D02*
X60628574Y-27365700D01*
X60628574Y-27365700D02*
X60585717Y-27279985D01*
X60585717Y-27279985D02*
X60585717Y-26937128D01*
X60585717Y-26937128D02*
X60628574Y-26851414D01*
X60628574Y-26851414D02*
X60714289Y-26808557D01*
X60714289Y-26808557D02*
X60885717Y-26808557D01*
X60885717Y-26808557D02*
X60971431Y-26851414D01*
X60971431Y-26851414D02*
X61014289Y-26937128D01*
X61014289Y-26937128D02*
X61014289Y-27022842D01*
X61014289Y-27022842D02*
X60585717Y-27108557D01*
X61528575Y-27408557D02*
X61442860Y-27365700D01*
X61442860Y-27365700D02*
X61400003Y-27279985D01*
X61400003Y-27279985D02*
X61400003Y-26508557D01*
X62257147Y-27408557D02*
X62257147Y-26508557D01*
X62257147Y-27365700D02*
X62171432Y-27408557D01*
X62171432Y-27408557D02*
X62000004Y-27408557D01*
X62000004Y-27408557D02*
X61914289Y-27365700D01*
X61914289Y-27365700D02*
X61871432Y-27322842D01*
X61871432Y-27322842D02*
X61828575Y-27237128D01*
X61828575Y-27237128D02*
X61828575Y-26979985D01*
X61828575Y-26979985D02*
X61871432Y-26894271D01*
X61871432Y-26894271D02*
X61914289Y-26851414D01*
X61914289Y-26851414D02*
X62000004Y-26808557D01*
X62000004Y-26808557D02*
X62171432Y-26808557D01*
X62171432Y-26808557D02*
X62257147Y-26851414D01*
X63371432Y-27408557D02*
X63371432Y-26508557D01*
X63757147Y-27408557D02*
X63757147Y-26937128D01*
X63757147Y-26937128D02*
X63714289Y-26851414D01*
X63714289Y-26851414D02*
X63628575Y-26808557D01*
X63628575Y-26808557D02*
X63500004Y-26808557D01*
X63500004Y-26808557D02*
X63414289Y-26851414D01*
X63414289Y-26851414D02*
X63371432Y-26894271D01*
X64314290Y-27408557D02*
X64228575Y-27365700D01*
X64228575Y-27365700D02*
X64185718Y-27322842D01*
X64185718Y-27322842D02*
X64142861Y-27237128D01*
X64142861Y-27237128D02*
X64142861Y-26979985D01*
X64142861Y-26979985D02*
X64185718Y-26894271D01*
X64185718Y-26894271D02*
X64228575Y-26851414D01*
X64228575Y-26851414D02*
X64314290Y-26808557D01*
X64314290Y-26808557D02*
X64442861Y-26808557D01*
X64442861Y-26808557D02*
X64528575Y-26851414D01*
X64528575Y-26851414D02*
X64571433Y-26894271D01*
X64571433Y-26894271D02*
X64614290Y-26979985D01*
X64614290Y-26979985D02*
X64614290Y-27237128D01*
X64614290Y-27237128D02*
X64571433Y-27322842D01*
X64571433Y-27322842D02*
X64528575Y-27365700D01*
X64528575Y-27365700D02*
X64442861Y-27408557D01*
X64442861Y-27408557D02*
X64314290Y-27408557D01*
X65128576Y-27408557D02*
X65042861Y-27365700D01*
X65042861Y-27365700D02*
X65000004Y-27279985D01*
X65000004Y-27279985D02*
X65000004Y-26508557D01*
X65814290Y-27365700D02*
X65728576Y-27408557D01*
X65728576Y-27408557D02*
X65557148Y-27408557D01*
X65557148Y-27408557D02*
X65471433Y-27365700D01*
X65471433Y-27365700D02*
X65428576Y-27279985D01*
X65428576Y-27279985D02*
X65428576Y-26937128D01*
X65428576Y-26937128D02*
X65471433Y-26851414D01*
X65471433Y-26851414D02*
X65557148Y-26808557D01*
X65557148Y-26808557D02*
X65728576Y-26808557D01*
X65728576Y-26808557D02*
X65814290Y-26851414D01*
X65814290Y-26851414D02*
X65857148Y-26937128D01*
X65857148Y-26937128D02*
X65857148Y-27022842D01*
X65857148Y-27022842D02*
X65428576Y-27108557D01*
X66200005Y-27365700D02*
X66285719Y-27408557D01*
X66285719Y-27408557D02*
X66457148Y-27408557D01*
X66457148Y-27408557D02*
X66542862Y-27365700D01*
X66542862Y-27365700D02*
X66585719Y-27279985D01*
X66585719Y-27279985D02*
X66585719Y-27237128D01*
X66585719Y-27237128D02*
X66542862Y-27151414D01*
X66542862Y-27151414D02*
X66457148Y-27108557D01*
X66457148Y-27108557D02*
X66328577Y-27108557D01*
X66328577Y-27108557D02*
X66242862Y-27065700D01*
X66242862Y-27065700D02*
X66200005Y-26979985D01*
X66200005Y-26979985D02*
X66200005Y-26937128D01*
X66200005Y-26937128D02*
X66242862Y-26851414D01*
X66242862Y-26851414D02*
X66328577Y-26808557D01*
X66328577Y-26808557D02*
X66457148Y-26808557D01*
X66457148Y-26808557D02*
X66542862Y-26851414D01*
X88904762Y-37954819D02*
X88904762Y-38764342D01*
X88904762Y-38764342D02*
X88952381Y-38859580D01*
X88952381Y-38859580D02*
X89000000Y-38907200D01*
X89000000Y-38907200D02*
X89095238Y-38954819D01*
X89095238Y-38954819D02*
X89285714Y-38954819D01*
X89285714Y-38954819D02*
X89380952Y-38907200D01*
X89380952Y-38907200D02*
X89428571Y-38859580D01*
X89428571Y-38859580D02*
X89476190Y-38764342D01*
X89476190Y-38764342D02*
X89476190Y-37954819D01*
X89904762Y-38907200D02*
X90047619Y-38954819D01*
X90047619Y-38954819D02*
X90285714Y-38954819D01*
X90285714Y-38954819D02*
X90380952Y-38907200D01*
X90380952Y-38907200D02*
X90428571Y-38859580D01*
X90428571Y-38859580D02*
X90476190Y-38764342D01*
X90476190Y-38764342D02*
X90476190Y-38669104D01*
X90476190Y-38669104D02*
X90428571Y-38573866D01*
X90428571Y-38573866D02*
X90380952Y-38526247D01*
X90380952Y-38526247D02*
X90285714Y-38478628D01*
X90285714Y-38478628D02*
X90095238Y-38431009D01*
X90095238Y-38431009D02*
X90000000Y-38383390D01*
X90000000Y-38383390D02*
X89952381Y-38335771D01*
X89952381Y-38335771D02*
X89904762Y-38240533D01*
X89904762Y-38240533D02*
X89904762Y-38145295D01*
X89904762Y-38145295D02*
X89952381Y-38050057D01*
X89952381Y-38050057D02*
X90000000Y-38002438D01*
X90000000Y-38002438D02*
X90095238Y-37954819D01*
X90095238Y-37954819D02*
X90333333Y-37954819D01*
X90333333Y-37954819D02*
X90476190Y-38002438D01*
X91238095Y-38431009D02*
X91380952Y-38478628D01*
X91380952Y-38478628D02*
X91428571Y-38526247D01*
X91428571Y-38526247D02*
X91476190Y-38621485D01*
X91476190Y-38621485D02*
X91476190Y-38764342D01*
X91476190Y-38764342D02*
X91428571Y-38859580D01*
X91428571Y-38859580D02*
X91380952Y-38907200D01*
X91380952Y-38907200D02*
X91285714Y-38954819D01*
X91285714Y-38954819D02*
X90904762Y-38954819D01*
X90904762Y-38954819D02*
X90904762Y-37954819D01*
X90904762Y-37954819D02*
X91238095Y-37954819D01*
X91238095Y-37954819D02*
X91333333Y-38002438D01*
X91333333Y-38002438D02*
X91380952Y-38050057D01*
X91380952Y-38050057D02*
X91428571Y-38145295D01*
X91428571Y-38145295D02*
X91428571Y-38240533D01*
X91428571Y-38240533D02*
X91380952Y-38335771D01*
X91380952Y-38335771D02*
X91333333Y-38383390D01*
X91333333Y-38383390D02*
X91238095Y-38431009D01*
X91238095Y-38431009D02*
X90904762Y-38431009D01*
X91666667Y-39050057D02*
X92428571Y-39050057D01*
X92857143Y-37954819D02*
X93047619Y-37954819D01*
X93047619Y-37954819D02*
X93142857Y-38002438D01*
X93142857Y-38002438D02*
X93238095Y-38097676D01*
X93238095Y-38097676D02*
X93285714Y-38288152D01*
X93285714Y-38288152D02*
X93285714Y-38621485D01*
X93285714Y-38621485D02*
X93238095Y-38811961D01*
X93238095Y-38811961D02*
X93142857Y-38907200D01*
X93142857Y-38907200D02*
X93047619Y-38954819D01*
X93047619Y-38954819D02*
X92857143Y-38954819D01*
X92857143Y-38954819D02*
X92761905Y-38907200D01*
X92761905Y-38907200D02*
X92666667Y-38811961D01*
X92666667Y-38811961D02*
X92619048Y-38621485D01*
X92619048Y-38621485D02*
X92619048Y-38288152D01*
X92619048Y-38288152D02*
X92666667Y-38097676D01*
X92666667Y-38097676D02*
X92761905Y-38002438D01*
X92761905Y-38002438D02*
X92857143Y-37954819D01*
X93714286Y-37954819D02*
X93714286Y-38764342D01*
X93714286Y-38764342D02*
X93761905Y-38859580D01*
X93761905Y-38859580D02*
X93809524Y-38907200D01*
X93809524Y-38907200D02*
X93904762Y-38954819D01*
X93904762Y-38954819D02*
X94095238Y-38954819D01*
X94095238Y-38954819D02*
X94190476Y-38907200D01*
X94190476Y-38907200D02*
X94238095Y-38859580D01*
X94238095Y-38859580D02*
X94285714Y-38764342D01*
X94285714Y-38764342D02*
X94285714Y-37954819D01*
X94619048Y-37954819D02*
X95190476Y-37954819D01*
X94904762Y-38954819D02*
X94904762Y-37954819D01*
X95285715Y-39050057D02*
X96047619Y-39050057D01*
X96857143Y-38954819D02*
X96523810Y-38478628D01*
X96285715Y-38954819D02*
X96285715Y-37954819D01*
X96285715Y-37954819D02*
X96666667Y-37954819D01*
X96666667Y-37954819D02*
X96761905Y-38002438D01*
X96761905Y-38002438D02*
X96809524Y-38050057D01*
X96809524Y-38050057D02*
X96857143Y-38145295D01*
X96857143Y-38145295D02*
X96857143Y-38288152D01*
X96857143Y-38288152D02*
X96809524Y-38383390D01*
X96809524Y-38383390D02*
X96761905Y-38431009D01*
X96761905Y-38431009D02*
X96666667Y-38478628D01*
X96666667Y-38478628D02*
X96285715Y-38478628D01*
X97285715Y-38954819D02*
X97285715Y-37954819D01*
X98285714Y-38002438D02*
X98190476Y-37954819D01*
X98190476Y-37954819D02*
X98047619Y-37954819D01*
X98047619Y-37954819D02*
X97904762Y-38002438D01*
X97904762Y-38002438D02*
X97809524Y-38097676D01*
X97809524Y-38097676D02*
X97761905Y-38192914D01*
X97761905Y-38192914D02*
X97714286Y-38383390D01*
X97714286Y-38383390D02*
X97714286Y-38526247D01*
X97714286Y-38526247D02*
X97761905Y-38716723D01*
X97761905Y-38716723D02*
X97809524Y-38811961D01*
X97809524Y-38811961D02*
X97904762Y-38907200D01*
X97904762Y-38907200D02*
X98047619Y-38954819D01*
X98047619Y-38954819D02*
X98142857Y-38954819D01*
X98142857Y-38954819D02*
X98285714Y-38907200D01*
X98285714Y-38907200D02*
X98333333Y-38859580D01*
X98333333Y-38859580D02*
X98333333Y-38526247D01*
X98333333Y-38526247D02*
X98142857Y-38526247D01*
X98761905Y-38954819D02*
X98761905Y-37954819D01*
X98761905Y-38431009D02*
X99333333Y-38431009D01*
X99333333Y-38954819D02*
X99333333Y-37954819D01*
X99666667Y-37954819D02*
X100238095Y-37954819D01*
X99952381Y-38954819D02*
X99952381Y-37954819D01*
X8485715Y-24547342D02*
X8485715Y-23347342D01*
X9171429Y-24547342D02*
X8657143Y-23861628D01*
X9171429Y-23347342D02*
X8485715Y-24033057D01*
X10371429Y-24433057D02*
X10314286Y-24490200D01*
X10314286Y-24490200D02*
X10142858Y-24547342D01*
X10142858Y-24547342D02*
X10028572Y-24547342D01*
X10028572Y-24547342D02*
X9857143Y-24490200D01*
X9857143Y-24490200D02*
X9742858Y-24375914D01*
X9742858Y-24375914D02*
X9685715Y-24261628D01*
X9685715Y-24261628D02*
X9628572Y-24033057D01*
X9628572Y-24033057D02*
X9628572Y-23861628D01*
X9628572Y-23861628D02*
X9685715Y-23633057D01*
X9685715Y-23633057D02*
X9742858Y-23518771D01*
X9742858Y-23518771D02*
X9857143Y-23404485D01*
X9857143Y-23404485D02*
X10028572Y-23347342D01*
X10028572Y-23347342D02*
X10142858Y-23347342D01*
X10142858Y-23347342D02*
X10314286Y-23404485D01*
X10314286Y-23404485D02*
X10371429Y-23461628D01*
X10828572Y-23461628D02*
X10885715Y-23404485D01*
X10885715Y-23404485D02*
X11000001Y-23347342D01*
X11000001Y-23347342D02*
X11285715Y-23347342D01*
X11285715Y-23347342D02*
X11400001Y-23404485D01*
X11400001Y-23404485D02*
X11457143Y-23461628D01*
X11457143Y-23461628D02*
X11514286Y-23575914D01*
X11514286Y-23575914D02*
X11514286Y-23690200D01*
X11514286Y-23690200D02*
X11457143Y-23861628D01*
X11457143Y-23861628D02*
X10771429Y-24547342D01*
X10771429Y-24547342D02*
X11514286Y-24547342D01*
X13628572Y-24547342D02*
X13228572Y-23975914D01*
X12942858Y-24547342D02*
X12942858Y-23347342D01*
X12942858Y-23347342D02*
X13400001Y-23347342D01*
X13400001Y-23347342D02*
X13514286Y-23404485D01*
X13514286Y-23404485D02*
X13571429Y-23461628D01*
X13571429Y-23461628D02*
X13628572Y-23575914D01*
X13628572Y-23575914D02*
X13628572Y-23747342D01*
X13628572Y-23747342D02*
X13571429Y-23861628D01*
X13571429Y-23861628D02*
X13514286Y-23918771D01*
X13514286Y-23918771D02*
X13400001Y-23975914D01*
X13400001Y-23975914D02*
X12942858Y-23975914D01*
X14142858Y-24547342D02*
X14142858Y-23347342D01*
X15342858Y-23404485D02*
X15228573Y-23347342D01*
X15228573Y-23347342D02*
X15057144Y-23347342D01*
X15057144Y-23347342D02*
X14885715Y-23404485D01*
X14885715Y-23404485D02*
X14771430Y-23518771D01*
X14771430Y-23518771D02*
X14714287Y-23633057D01*
X14714287Y-23633057D02*
X14657144Y-23861628D01*
X14657144Y-23861628D02*
X14657144Y-24033057D01*
X14657144Y-24033057D02*
X14714287Y-24261628D01*
X14714287Y-24261628D02*
X14771430Y-24375914D01*
X14771430Y-24375914D02*
X14885715Y-24490200D01*
X14885715Y-24490200D02*
X15057144Y-24547342D01*
X15057144Y-24547342D02*
X15171430Y-24547342D01*
X15171430Y-24547342D02*
X15342858Y-24490200D01*
X15342858Y-24490200D02*
X15400001Y-24433057D01*
X15400001Y-24433057D02*
X15400001Y-24033057D01*
X15400001Y-24033057D02*
X15171430Y-24033057D01*
X15914287Y-24547342D02*
X15914287Y-23347342D01*
X15914287Y-23918771D02*
X16600001Y-23918771D01*
X16600001Y-24547342D02*
X16600001Y-23347342D01*
X17000001Y-23347342D02*
X17685716Y-23347342D01*
X17342858Y-24547342D02*
X17342858Y-23347342D01*
X18885716Y-23347342D02*
X19685716Y-24547342D01*
X19685716Y-23347342D02*
X18885716Y-24547342D01*
X20028573Y-23347342D02*
X20771430Y-23347342D01*
X20771430Y-23347342D02*
X20371430Y-23804485D01*
X20371430Y-23804485D02*
X20542859Y-23804485D01*
X20542859Y-23804485D02*
X20657145Y-23861628D01*
X20657145Y-23861628D02*
X20714287Y-23918771D01*
X20714287Y-23918771D02*
X20771430Y-24033057D01*
X20771430Y-24033057D02*
X20771430Y-24318771D01*
X20771430Y-24318771D02*
X20714287Y-24433057D01*
X20714287Y-24433057D02*
X20657145Y-24490200D01*
X20657145Y-24490200D02*
X20542859Y-24547342D01*
X20542859Y-24547342D02*
X20200002Y-24547342D01*
X20200002Y-24547342D02*
X20085716Y-24490200D01*
X20085716Y-24490200D02*
X20028573Y-24433057D01*
X21285716Y-24090200D02*
X22200002Y-24090200D01*
X22600001Y-23347342D02*
X23000001Y-24547342D01*
X23000001Y-24547342D02*
X23400001Y-23347342D01*
X23742858Y-23461628D02*
X23800001Y-23404485D01*
X23800001Y-23404485D02*
X23914287Y-23347342D01*
X23914287Y-23347342D02*
X24200001Y-23347342D01*
X24200001Y-23347342D02*
X24314287Y-23404485D01*
X24314287Y-23404485D02*
X24371429Y-23461628D01*
X24371429Y-23461628D02*
X24428572Y-23575914D01*
X24428572Y-23575914D02*
X24428572Y-23690200D01*
X24428572Y-23690200D02*
X24371429Y-23861628D01*
X24371429Y-23861628D02*
X23685715Y-24547342D01*
X23685715Y-24547342D02*
X24428572Y-24547342D01*
X25857144Y-24090200D02*
X26771430Y-24090200D01*
X28142858Y-23347342D02*
X28942858Y-23347342D01*
X28942858Y-23347342D02*
X28428572Y-24547342D01*
X30028572Y-24547342D02*
X29342858Y-24547342D01*
X29685715Y-24547342D02*
X29685715Y-23347342D01*
X29685715Y-23347342D02*
X29571429Y-23518771D01*
X29571429Y-23518771D02*
X29457144Y-23633057D01*
X29457144Y-23633057D02*
X29342858Y-23690200D01*
X30542858Y-24090200D02*
X31457144Y-24090200D01*
X32028572Y-24547342D02*
X32028572Y-23347342D01*
X32142858Y-24090200D02*
X32485715Y-24547342D01*
X32485715Y-23747342D02*
X32028572Y-24204485D01*
X33457144Y-24490200D02*
X33342858Y-24547342D01*
X33342858Y-24547342D02*
X33114287Y-24547342D01*
X33114287Y-24547342D02*
X33000001Y-24490200D01*
X33000001Y-24490200D02*
X32942858Y-24375914D01*
X32942858Y-24375914D02*
X32942858Y-23918771D01*
X32942858Y-23918771D02*
X33000001Y-23804485D01*
X33000001Y-23804485D02*
X33114287Y-23747342D01*
X33114287Y-23747342D02*
X33342858Y-23747342D01*
X33342858Y-23747342D02*
X33457144Y-23804485D01*
X33457144Y-23804485D02*
X33514287Y-23918771D01*
X33514287Y-23918771D02*
X33514287Y-24033057D01*
X33514287Y-24033057D02*
X32942858Y-24147342D01*
X33914286Y-23747342D02*
X34200000Y-24547342D01*
X34485715Y-23747342D02*
X34200000Y-24547342D01*
X34200000Y-24547342D02*
X34085715Y-24833057D01*
X34085715Y-24833057D02*
X34028572Y-24890200D01*
X34028572Y-24890200D02*
X33914286Y-24947342D01*
X35742858Y-23747342D02*
X36028572Y-24547342D01*
X36028572Y-24547342D02*
X36314287Y-23747342D01*
X37285716Y-23747342D02*
X37285716Y-24547342D01*
X37000001Y-23290200D02*
X36714287Y-24147342D01*
X36714287Y-24147342D02*
X37457144Y-24147342D01*
X38828573Y-23747342D02*
X38828573Y-24547342D01*
X38828573Y-23861628D02*
X38885716Y-23804485D01*
X38885716Y-23804485D02*
X39000001Y-23747342D01*
X39000001Y-23747342D02*
X39171430Y-23747342D01*
X39171430Y-23747342D02*
X39285716Y-23804485D01*
X39285716Y-23804485D02*
X39342859Y-23918771D01*
X39342859Y-23918771D02*
X39342859Y-24547342D01*
X40085715Y-24547342D02*
X39971430Y-24490200D01*
X39971430Y-24490200D02*
X39914287Y-24433057D01*
X39914287Y-24433057D02*
X39857144Y-24318771D01*
X39857144Y-24318771D02*
X39857144Y-23975914D01*
X39857144Y-23975914D02*
X39914287Y-23861628D01*
X39914287Y-23861628D02*
X39971430Y-23804485D01*
X39971430Y-23804485D02*
X40085715Y-23747342D01*
X40085715Y-23747342D02*
X40257144Y-23747342D01*
X40257144Y-23747342D02*
X40371430Y-23804485D01*
X40371430Y-23804485D02*
X40428573Y-23861628D01*
X40428573Y-23861628D02*
X40485715Y-23975914D01*
X40485715Y-23975914D02*
X40485715Y-24318771D01*
X40485715Y-24318771D02*
X40428573Y-24433057D01*
X40428573Y-24433057D02*
X40371430Y-24490200D01*
X40371430Y-24490200D02*
X40257144Y-24547342D01*
X40257144Y-24547342D02*
X40085715Y-24547342D01*
X41000001Y-24090200D02*
X41914287Y-24090200D01*
X42428572Y-24490200D02*
X42542858Y-24547342D01*
X42542858Y-24547342D02*
X42771429Y-24547342D01*
X42771429Y-24547342D02*
X42885715Y-24490200D01*
X42885715Y-24490200D02*
X42942858Y-24375914D01*
X42942858Y-24375914D02*
X42942858Y-24318771D01*
X42942858Y-24318771D02*
X42885715Y-24204485D01*
X42885715Y-24204485D02*
X42771429Y-24147342D01*
X42771429Y-24147342D02*
X42600001Y-24147342D01*
X42600001Y-24147342D02*
X42485715Y-24090200D01*
X42485715Y-24090200D02*
X42428572Y-23975914D01*
X42428572Y-23975914D02*
X42428572Y-23918771D01*
X42428572Y-23918771D02*
X42485715Y-23804485D01*
X42485715Y-23804485D02*
X42600001Y-23747342D01*
X42600001Y-23747342D02*
X42771429Y-23747342D01*
X42771429Y-23747342D02*
X42885715Y-23804485D01*
X43285715Y-23747342D02*
X43742858Y-23747342D01*
X43457144Y-23347342D02*
X43457144Y-24375914D01*
X43457144Y-24375914D02*
X43514287Y-24490200D01*
X43514287Y-24490200D02*
X43628572Y-24547342D01*
X43628572Y-24547342D02*
X43742858Y-24547342D01*
X44657144Y-24547342D02*
X44657144Y-23918771D01*
X44657144Y-23918771D02*
X44600001Y-23804485D01*
X44600001Y-23804485D02*
X44485715Y-23747342D01*
X44485715Y-23747342D02*
X44257144Y-23747342D01*
X44257144Y-23747342D02*
X44142858Y-23804485D01*
X44657144Y-24490200D02*
X44542858Y-24547342D01*
X44542858Y-24547342D02*
X44257144Y-24547342D01*
X44257144Y-24547342D02*
X44142858Y-24490200D01*
X44142858Y-24490200D02*
X44085715Y-24375914D01*
X44085715Y-24375914D02*
X44085715Y-24261628D01*
X44085715Y-24261628D02*
X44142858Y-24147342D01*
X44142858Y-24147342D02*
X44257144Y-24090200D01*
X44257144Y-24090200D02*
X44542858Y-24090200D01*
X44542858Y-24090200D02*
X44657144Y-24033057D01*
X45228572Y-24547342D02*
X45228572Y-23347342D01*
X45228572Y-23804485D02*
X45342858Y-23747342D01*
X45342858Y-23747342D02*
X45571429Y-23747342D01*
X45571429Y-23747342D02*
X45685715Y-23804485D01*
X45685715Y-23804485D02*
X45742858Y-23861628D01*
X45742858Y-23861628D02*
X45800000Y-23975914D01*
X45800000Y-23975914D02*
X45800000Y-24318771D01*
X45800000Y-24318771D02*
X45742858Y-24433057D01*
X45742858Y-24433057D02*
X45685715Y-24490200D01*
X45685715Y-24490200D02*
X45571429Y-24547342D01*
X45571429Y-24547342D02*
X45342858Y-24547342D01*
X45342858Y-24547342D02*
X45228572Y-24490200D01*
X46314286Y-24547342D02*
X46314286Y-23747342D01*
X46314286Y-23347342D02*
X46257143Y-23404485D01*
X46257143Y-23404485D02*
X46314286Y-23461628D01*
X46314286Y-23461628D02*
X46371429Y-23404485D01*
X46371429Y-23404485D02*
X46314286Y-23347342D01*
X46314286Y-23347342D02*
X46314286Y-23461628D01*
X47057143Y-24547342D02*
X46942858Y-24490200D01*
X46942858Y-24490200D02*
X46885715Y-24375914D01*
X46885715Y-24375914D02*
X46885715Y-23347342D01*
X47514286Y-24547342D02*
X47514286Y-23747342D01*
X47514286Y-23347342D02*
X47457143Y-23404485D01*
X47457143Y-23404485D02*
X47514286Y-23461628D01*
X47514286Y-23461628D02*
X47571429Y-23404485D01*
X47571429Y-23404485D02*
X47514286Y-23347342D01*
X47514286Y-23347342D02*
X47514286Y-23461628D01*
X47971429Y-23747342D02*
X48600001Y-23747342D01*
X48600001Y-23747342D02*
X47971429Y-24547342D01*
X47971429Y-24547342D02*
X48600001Y-24547342D01*
X49514287Y-24490200D02*
X49400001Y-24547342D01*
X49400001Y-24547342D02*
X49171430Y-24547342D01*
X49171430Y-24547342D02*
X49057144Y-24490200D01*
X49057144Y-24490200D02*
X49000001Y-24375914D01*
X49000001Y-24375914D02*
X49000001Y-23918771D01*
X49000001Y-23918771D02*
X49057144Y-23804485D01*
X49057144Y-23804485D02*
X49171430Y-23747342D01*
X49171430Y-23747342D02*
X49400001Y-23747342D01*
X49400001Y-23747342D02*
X49514287Y-23804485D01*
X49514287Y-23804485D02*
X49571430Y-23918771D01*
X49571430Y-23918771D02*
X49571430Y-24033057D01*
X49571430Y-24033057D02*
X49000001Y-24147342D01*
X50085715Y-24547342D02*
X50085715Y-23747342D01*
X50085715Y-23975914D02*
X50142858Y-23861628D01*
X50142858Y-23861628D02*
X50200001Y-23804485D01*
X50200001Y-23804485D02*
X50314286Y-23747342D01*
X50314286Y-23747342D02*
X50428572Y-23747342D01*
X51685715Y-24490200D02*
X51800001Y-24547342D01*
X51800001Y-24547342D02*
X52028572Y-24547342D01*
X52028572Y-24547342D02*
X52142858Y-24490200D01*
X52142858Y-24490200D02*
X52200001Y-24375914D01*
X52200001Y-24375914D02*
X52200001Y-24318771D01*
X52200001Y-24318771D02*
X52142858Y-24204485D01*
X52142858Y-24204485D02*
X52028572Y-24147342D01*
X52028572Y-24147342D02*
X51857144Y-24147342D01*
X51857144Y-24147342D02*
X51742858Y-24090200D01*
X51742858Y-24090200D02*
X51685715Y-23975914D01*
X51685715Y-23975914D02*
X51685715Y-23918771D01*
X51685715Y-23918771D02*
X51742858Y-23804485D01*
X51742858Y-23804485D02*
X51857144Y-23747342D01*
X51857144Y-23747342D02*
X52028572Y-23747342D01*
X52028572Y-23747342D02*
X52142858Y-23804485D01*
X52714287Y-23747342D02*
X52714287Y-24947342D01*
X52714287Y-23804485D02*
X52828573Y-23747342D01*
X52828573Y-23747342D02*
X53057144Y-23747342D01*
X53057144Y-23747342D02*
X53171430Y-23804485D01*
X53171430Y-23804485D02*
X53228573Y-23861628D01*
X53228573Y-23861628D02*
X53285715Y-23975914D01*
X53285715Y-23975914D02*
X53285715Y-24318771D01*
X53285715Y-24318771D02*
X53228573Y-24433057D01*
X53228573Y-24433057D02*
X53171430Y-24490200D01*
X53171430Y-24490200D02*
X53057144Y-24547342D01*
X53057144Y-24547342D02*
X52828573Y-24547342D01*
X52828573Y-24547342D02*
X52714287Y-24490200D01*
X53971429Y-24547342D02*
X53857144Y-24490200D01*
X53857144Y-24490200D02*
X53800001Y-24375914D01*
X53800001Y-24375914D02*
X53800001Y-23347342D01*
X54428572Y-24547342D02*
X54428572Y-23747342D01*
X54428572Y-23347342D02*
X54371429Y-23404485D01*
X54371429Y-23404485D02*
X54428572Y-23461628D01*
X54428572Y-23461628D02*
X54485715Y-23404485D01*
X54485715Y-23404485D02*
X54428572Y-23347342D01*
X54428572Y-23347342D02*
X54428572Y-23461628D01*
X54828572Y-23747342D02*
X55285715Y-23747342D01*
X55000001Y-23347342D02*
X55000001Y-24375914D01*
X55000001Y-24375914D02*
X55057144Y-24490200D01*
X55057144Y-24490200D02*
X55171429Y-24547342D01*
X55171429Y-24547342D02*
X55285715Y-24547342D01*
X56771429Y-24547342D02*
X56657144Y-24490200D01*
X56657144Y-24490200D02*
X56600001Y-24375914D01*
X56600001Y-24375914D02*
X56600001Y-23347342D01*
X57742858Y-24547342D02*
X57742858Y-23918771D01*
X57742858Y-23918771D02*
X57685715Y-23804485D01*
X57685715Y-23804485D02*
X57571429Y-23747342D01*
X57571429Y-23747342D02*
X57342858Y-23747342D01*
X57342858Y-23747342D02*
X57228572Y-23804485D01*
X57742858Y-24490200D02*
X57628572Y-24547342D01*
X57628572Y-24547342D02*
X57342858Y-24547342D01*
X57342858Y-24547342D02*
X57228572Y-24490200D01*
X57228572Y-24490200D02*
X57171429Y-24375914D01*
X57171429Y-24375914D02*
X57171429Y-24261628D01*
X57171429Y-24261628D02*
X57228572Y-24147342D01*
X57228572Y-24147342D02*
X57342858Y-24090200D01*
X57342858Y-24090200D02*
X57628572Y-24090200D01*
X57628572Y-24090200D02*
X57742858Y-24033057D01*
X58200000Y-23747342D02*
X58485714Y-24547342D01*
X58771429Y-23747342D02*
X58485714Y-24547342D01*
X58485714Y-24547342D02*
X58371429Y-24833057D01*
X58371429Y-24833057D02*
X58314286Y-24890200D01*
X58314286Y-24890200D02*
X58200000Y-24947342D01*
X59400000Y-24547342D02*
X59285715Y-24490200D01*
X59285715Y-24490200D02*
X59228572Y-24433057D01*
X59228572Y-24433057D02*
X59171429Y-24318771D01*
X59171429Y-24318771D02*
X59171429Y-23975914D01*
X59171429Y-23975914D02*
X59228572Y-23861628D01*
X59228572Y-23861628D02*
X59285715Y-23804485D01*
X59285715Y-23804485D02*
X59400000Y-23747342D01*
X59400000Y-23747342D02*
X59571429Y-23747342D01*
X59571429Y-23747342D02*
X59685715Y-23804485D01*
X59685715Y-23804485D02*
X59742858Y-23861628D01*
X59742858Y-23861628D02*
X59800000Y-23975914D01*
X59800000Y-23975914D02*
X59800000Y-24318771D01*
X59800000Y-24318771D02*
X59742858Y-24433057D01*
X59742858Y-24433057D02*
X59685715Y-24490200D01*
X59685715Y-24490200D02*
X59571429Y-24547342D01*
X59571429Y-24547342D02*
X59400000Y-24547342D01*
X60828572Y-23747342D02*
X60828572Y-24547342D01*
X60314286Y-23747342D02*
X60314286Y-24375914D01*
X60314286Y-24375914D02*
X60371429Y-24490200D01*
X60371429Y-24490200D02*
X60485714Y-24547342D01*
X60485714Y-24547342D02*
X60657143Y-24547342D01*
X60657143Y-24547342D02*
X60771429Y-24490200D01*
X60771429Y-24490200D02*
X60828572Y-24433057D01*
X61228571Y-23747342D02*
X61685714Y-23747342D01*
X61400000Y-23347342D02*
X61400000Y-24375914D01*
X61400000Y-24375914D02*
X61457143Y-24490200D01*
X61457143Y-24490200D02*
X61571428Y-24547342D01*
X61571428Y-24547342D02*
X61685714Y-24547342D01*
X62478571Y-59557200D02*
X62621428Y-59604819D01*
X62621428Y-59604819D02*
X62859523Y-59604819D01*
X62859523Y-59604819D02*
X62954761Y-59557200D01*
X62954761Y-59557200D02*
X63002380Y-59509580D01*
X63002380Y-59509580D02*
X63049999Y-59414342D01*
X63049999Y-59414342D02*
X63049999Y-59319104D01*
X63049999Y-59319104D02*
X63002380Y-59223866D01*
X63002380Y-59223866D02*
X62954761Y-59176247D01*
X62954761Y-59176247D02*
X62859523Y-59128628D01*
X62859523Y-59128628D02*
X62669047Y-59081009D01*
X62669047Y-59081009D02*
X62573809Y-59033390D01*
X62573809Y-59033390D02*
X62526190Y-58985771D01*
X62526190Y-58985771D02*
X62478571Y-58890533D01*
X62478571Y-58890533D02*
X62478571Y-58795295D01*
X62478571Y-58795295D02*
X62526190Y-58700057D01*
X62526190Y-58700057D02*
X62573809Y-58652438D01*
X62573809Y-58652438D02*
X62669047Y-58604819D01*
X62669047Y-58604819D02*
X62907142Y-58604819D01*
X62907142Y-58604819D02*
X63049999Y-58652438D01*
X63383333Y-58604819D02*
X63621428Y-59604819D01*
X63621428Y-59604819D02*
X63811904Y-58890533D01*
X63811904Y-58890533D02*
X64002380Y-59604819D01*
X64002380Y-59604819D02*
X64240476Y-58604819D01*
X64383333Y-59700057D02*
X65145237Y-59700057D01*
X65954761Y-59604819D02*
X65621428Y-59128628D01*
X65383333Y-59604819D02*
X65383333Y-58604819D01*
X65383333Y-58604819D02*
X65764285Y-58604819D01*
X65764285Y-58604819D02*
X65859523Y-58652438D01*
X65859523Y-58652438D02*
X65907142Y-58700057D01*
X65907142Y-58700057D02*
X65954761Y-58795295D01*
X65954761Y-58795295D02*
X65954761Y-58938152D01*
X65954761Y-58938152D02*
X65907142Y-59033390D01*
X65907142Y-59033390D02*
X65859523Y-59081009D01*
X65859523Y-59081009D02*
X65764285Y-59128628D01*
X65764285Y-59128628D02*
X65383333Y-59128628D01*
X66335714Y-59557200D02*
X66478571Y-59604819D01*
X66478571Y-59604819D02*
X66716666Y-59604819D01*
X66716666Y-59604819D02*
X66811904Y-59557200D01*
X66811904Y-59557200D02*
X66859523Y-59509580D01*
X66859523Y-59509580D02*
X66907142Y-59414342D01*
X66907142Y-59414342D02*
X66907142Y-59319104D01*
X66907142Y-59319104D02*
X66859523Y-59223866D01*
X66859523Y-59223866D02*
X66811904Y-59176247D01*
X66811904Y-59176247D02*
X66716666Y-59128628D01*
X66716666Y-59128628D02*
X66526190Y-59081009D01*
X66526190Y-59081009D02*
X66430952Y-59033390D01*
X66430952Y-59033390D02*
X66383333Y-58985771D01*
X66383333Y-58985771D02*
X66335714Y-58890533D01*
X66335714Y-58890533D02*
X66335714Y-58795295D01*
X66335714Y-58795295D02*
X66383333Y-58700057D01*
X66383333Y-58700057D02*
X66430952Y-58652438D01*
X66430952Y-58652438D02*
X66526190Y-58604819D01*
X66526190Y-58604819D02*
X66764285Y-58604819D01*
X66764285Y-58604819D02*
X66907142Y-58652438D01*
X67192857Y-58604819D02*
X67764285Y-58604819D01*
X67478571Y-59604819D02*
X67478571Y-58604819D01*
X68621428Y-59604819D02*
X68050000Y-59604819D01*
X68335714Y-59604819D02*
X68335714Y-58604819D01*
X68335714Y-58604819D02*
X68240476Y-58747676D01*
X68240476Y-58747676D02*
X68145238Y-58842914D01*
X68145238Y-58842914D02*
X68050000Y-58890533D01*
D11*
X76632380Y-48309271D02*
X76632380Y-49337366D01*
X76632380Y-49337366D02*
X76692857Y-49458318D01*
X76692857Y-49458318D02*
X76753333Y-49518795D01*
X76753333Y-49518795D02*
X76874285Y-49579271D01*
X76874285Y-49579271D02*
X77116190Y-49579271D01*
X77116190Y-49579271D02*
X77237142Y-49518795D01*
X77237142Y-49518795D02*
X77297619Y-49458318D01*
X77297619Y-49458318D02*
X77358095Y-49337366D01*
X77358095Y-49337366D02*
X77358095Y-48309271D01*
X78628095Y-49579271D02*
X77902380Y-49579271D01*
X78265237Y-49579271D02*
X78265237Y-48309271D01*
X78265237Y-48309271D02*
X78144285Y-48490699D01*
X78144285Y-48490699D02*
X78023333Y-48611652D01*
X78023333Y-48611652D02*
X77902380Y-48672128D01*
D12*
X63039523Y-43844895D02*
X63039523Y-43044895D01*
X63039523Y-43044895D02*
X63229999Y-43044895D01*
X63229999Y-43044895D02*
X63344285Y-43082990D01*
X63344285Y-43082990D02*
X63420475Y-43159180D01*
X63420475Y-43159180D02*
X63458570Y-43235371D01*
X63458570Y-43235371D02*
X63496666Y-43387752D01*
X63496666Y-43387752D02*
X63496666Y-43502038D01*
X63496666Y-43502038D02*
X63458570Y-43654419D01*
X63458570Y-43654419D02*
X63420475Y-43730609D01*
X63420475Y-43730609D02*
X63344285Y-43806800D01*
X63344285Y-43806800D02*
X63229999Y-43844895D01*
X63229999Y-43844895D02*
X63039523Y-43844895D01*
X63877618Y-43844895D02*
X64029999Y-43844895D01*
X64029999Y-43844895D02*
X64106189Y-43806800D01*
X64106189Y-43806800D02*
X64144285Y-43768704D01*
X64144285Y-43768704D02*
X64220475Y-43654419D01*
X64220475Y-43654419D02*
X64258570Y-43502038D01*
X64258570Y-43502038D02*
X64258570Y-43197276D01*
X64258570Y-43197276D02*
X64220475Y-43121085D01*
X64220475Y-43121085D02*
X64182380Y-43082990D01*
X64182380Y-43082990D02*
X64106189Y-43044895D01*
X64106189Y-43044895D02*
X63953808Y-43044895D01*
X63953808Y-43044895D02*
X63877618Y-43082990D01*
X63877618Y-43082990D02*
X63839523Y-43121085D01*
X63839523Y-43121085D02*
X63801427Y-43197276D01*
X63801427Y-43197276D02*
X63801427Y-43387752D01*
X63801427Y-43387752D02*
X63839523Y-43463942D01*
X63839523Y-43463942D02*
X63877618Y-43502038D01*
X63877618Y-43502038D02*
X63953808Y-43540133D01*
X63953808Y-43540133D02*
X64106189Y-43540133D01*
X64106189Y-43540133D02*
X64182380Y-43502038D01*
X64182380Y-43502038D02*
X64220475Y-43463942D01*
X64220475Y-43463942D02*
X64258570Y-43387752D01*
X62658570Y-54884894D02*
X62658570Y-54084894D01*
X62658570Y-54084894D02*
X62849046Y-54084894D01*
X62849046Y-54084894D02*
X62963332Y-54122989D01*
X62963332Y-54122989D02*
X63039522Y-54199179D01*
X63039522Y-54199179D02*
X63077617Y-54275370D01*
X63077617Y-54275370D02*
X63115713Y-54427751D01*
X63115713Y-54427751D02*
X63115713Y-54542037D01*
X63115713Y-54542037D02*
X63077617Y-54694418D01*
X63077617Y-54694418D02*
X63039522Y-54770608D01*
X63039522Y-54770608D02*
X62963332Y-54846799D01*
X62963332Y-54846799D02*
X62849046Y-54884894D01*
X62849046Y-54884894D02*
X62658570Y-54884894D01*
X63877617Y-54884894D02*
X63420474Y-54884894D01*
X63649046Y-54884894D02*
X63649046Y-54084894D01*
X63649046Y-54084894D02*
X63572855Y-54199179D01*
X63572855Y-54199179D02*
X63496665Y-54275370D01*
X63496665Y-54275370D02*
X63420474Y-54313465D01*
X64372856Y-54084894D02*
X64449046Y-54084894D01*
X64449046Y-54084894D02*
X64525237Y-54122989D01*
X64525237Y-54122989D02*
X64563332Y-54161084D01*
X64563332Y-54161084D02*
X64601427Y-54237275D01*
X64601427Y-54237275D02*
X64639522Y-54389656D01*
X64639522Y-54389656D02*
X64639522Y-54580132D01*
X64639522Y-54580132D02*
X64601427Y-54732513D01*
X64601427Y-54732513D02*
X64563332Y-54808703D01*
X64563332Y-54808703D02*
X64525237Y-54846799D01*
X64525237Y-54846799D02*
X64449046Y-54884894D01*
X64449046Y-54884894D02*
X64372856Y-54884894D01*
X64372856Y-54884894D02*
X64296665Y-54846799D01*
X64296665Y-54846799D02*
X64258570Y-54808703D01*
X64258570Y-54808703D02*
X64220475Y-54732513D01*
X64220475Y-54732513D02*
X64182379Y-54580132D01*
X64182379Y-54580132D02*
X64182379Y-54389656D01*
X64182379Y-54389656D02*
X64220475Y-54237275D01*
X64220475Y-54237275D02*
X64258570Y-54161084D01*
X64258570Y-54161084D02*
X64296665Y-54122989D01*
X64296665Y-54122989D02*
X64372856Y-54084894D01*
X65579524Y-43844895D02*
X65579524Y-43044895D01*
X65579524Y-43044895D02*
X65770000Y-43044895D01*
X65770000Y-43044895D02*
X65884286Y-43082990D01*
X65884286Y-43082990D02*
X65960476Y-43159180D01*
X65960476Y-43159180D02*
X65998571Y-43235371D01*
X65998571Y-43235371D02*
X66036667Y-43387752D01*
X66036667Y-43387752D02*
X66036667Y-43502038D01*
X66036667Y-43502038D02*
X65998571Y-43654419D01*
X65998571Y-43654419D02*
X65960476Y-43730609D01*
X65960476Y-43730609D02*
X65884286Y-43806800D01*
X65884286Y-43806800D02*
X65770000Y-43844895D01*
X65770000Y-43844895D02*
X65579524Y-43844895D01*
X66493809Y-43387752D02*
X66417619Y-43349657D01*
X66417619Y-43349657D02*
X66379524Y-43311561D01*
X66379524Y-43311561D02*
X66341428Y-43235371D01*
X66341428Y-43235371D02*
X66341428Y-43197276D01*
X66341428Y-43197276D02*
X66379524Y-43121085D01*
X66379524Y-43121085D02*
X66417619Y-43082990D01*
X66417619Y-43082990D02*
X66493809Y-43044895D01*
X66493809Y-43044895D02*
X66646190Y-43044895D01*
X66646190Y-43044895D02*
X66722381Y-43082990D01*
X66722381Y-43082990D02*
X66760476Y-43121085D01*
X66760476Y-43121085D02*
X66798571Y-43197276D01*
X66798571Y-43197276D02*
X66798571Y-43235371D01*
X66798571Y-43235371D02*
X66760476Y-43311561D01*
X66760476Y-43311561D02*
X66722381Y-43349657D01*
X66722381Y-43349657D02*
X66646190Y-43387752D01*
X66646190Y-43387752D02*
X66493809Y-43387752D01*
X66493809Y-43387752D02*
X66417619Y-43425847D01*
X66417619Y-43425847D02*
X66379524Y-43463942D01*
X66379524Y-43463942D02*
X66341428Y-43540133D01*
X66341428Y-43540133D02*
X66341428Y-43692514D01*
X66341428Y-43692514D02*
X66379524Y-43768704D01*
X66379524Y-43768704D02*
X66417619Y-43806800D01*
X66417619Y-43806800D02*
X66493809Y-43844895D01*
X66493809Y-43844895D02*
X66646190Y-43844895D01*
X66646190Y-43844895D02*
X66722381Y-43806800D01*
X66722381Y-43806800D02*
X66760476Y-43768704D01*
X66760476Y-43768704D02*
X66798571Y-43692514D01*
X66798571Y-43692514D02*
X66798571Y-43540133D01*
X66798571Y-43540133D02*
X66760476Y-43463942D01*
X66760476Y-43463942D02*
X66722381Y-43425847D01*
X66722381Y-43425847D02*
X66646190Y-43387752D01*
X65198571Y-54884894D02*
X65198571Y-54084894D01*
X65198571Y-54084894D02*
X65389047Y-54084894D01*
X65389047Y-54084894D02*
X65503333Y-54122989D01*
X65503333Y-54122989D02*
X65579523Y-54199179D01*
X65579523Y-54199179D02*
X65617618Y-54275370D01*
X65617618Y-54275370D02*
X65655714Y-54427751D01*
X65655714Y-54427751D02*
X65655714Y-54542037D01*
X65655714Y-54542037D02*
X65617618Y-54694418D01*
X65617618Y-54694418D02*
X65579523Y-54770608D01*
X65579523Y-54770608D02*
X65503333Y-54846799D01*
X65503333Y-54846799D02*
X65389047Y-54884894D01*
X65389047Y-54884894D02*
X65198571Y-54884894D01*
X66417618Y-54884894D02*
X65960475Y-54884894D01*
X66189047Y-54884894D02*
X66189047Y-54084894D01*
X66189047Y-54084894D02*
X66112856Y-54199179D01*
X66112856Y-54199179D02*
X66036666Y-54275370D01*
X66036666Y-54275370D02*
X65960475Y-54313465D01*
X67103333Y-54084894D02*
X66950952Y-54084894D01*
X66950952Y-54084894D02*
X66874761Y-54122989D01*
X66874761Y-54122989D02*
X66836666Y-54161084D01*
X66836666Y-54161084D02*
X66760476Y-54275370D01*
X66760476Y-54275370D02*
X66722380Y-54427751D01*
X66722380Y-54427751D02*
X66722380Y-54732513D01*
X66722380Y-54732513D02*
X66760476Y-54808703D01*
X66760476Y-54808703D02*
X66798571Y-54846799D01*
X66798571Y-54846799D02*
X66874761Y-54884894D01*
X66874761Y-54884894D02*
X67027142Y-54884894D01*
X67027142Y-54884894D02*
X67103333Y-54846799D01*
X67103333Y-54846799D02*
X67141428Y-54808703D01*
X67141428Y-54808703D02*
X67179523Y-54732513D01*
X67179523Y-54732513D02*
X67179523Y-54542037D01*
X67179523Y-54542037D02*
X67141428Y-54465846D01*
X67141428Y-54465846D02*
X67103333Y-54427751D01*
X67103333Y-54427751D02*
X67027142Y-54389656D01*
X67027142Y-54389656D02*
X66874761Y-54389656D01*
X66874761Y-54389656D02*
X66798571Y-54427751D01*
X66798571Y-54427751D02*
X66760476Y-54465846D01*
X66760476Y-54465846D02*
X66722380Y-54542037D01*
X68119524Y-43844895D02*
X68119524Y-43044895D01*
X68119524Y-43044895D02*
X68310000Y-43044895D01*
X68310000Y-43044895D02*
X68424286Y-43082990D01*
X68424286Y-43082990D02*
X68500476Y-43159180D01*
X68500476Y-43159180D02*
X68538571Y-43235371D01*
X68538571Y-43235371D02*
X68576667Y-43387752D01*
X68576667Y-43387752D02*
X68576667Y-43502038D01*
X68576667Y-43502038D02*
X68538571Y-43654419D01*
X68538571Y-43654419D02*
X68500476Y-43730609D01*
X68500476Y-43730609D02*
X68424286Y-43806800D01*
X68424286Y-43806800D02*
X68310000Y-43844895D01*
X68310000Y-43844895D02*
X68119524Y-43844895D01*
X68843333Y-43044895D02*
X69376667Y-43044895D01*
X69376667Y-43044895D02*
X69033809Y-43844895D01*
X67738571Y-54884894D02*
X67738571Y-54084894D01*
X67738571Y-54084894D02*
X67929047Y-54084894D01*
X67929047Y-54084894D02*
X68043333Y-54122989D01*
X68043333Y-54122989D02*
X68119523Y-54199179D01*
X68119523Y-54199179D02*
X68157618Y-54275370D01*
X68157618Y-54275370D02*
X68195714Y-54427751D01*
X68195714Y-54427751D02*
X68195714Y-54542037D01*
X68195714Y-54542037D02*
X68157618Y-54694418D01*
X68157618Y-54694418D02*
X68119523Y-54770608D01*
X68119523Y-54770608D02*
X68043333Y-54846799D01*
X68043333Y-54846799D02*
X67929047Y-54884894D01*
X67929047Y-54884894D02*
X67738571Y-54884894D01*
X68957618Y-54884894D02*
X68500475Y-54884894D01*
X68729047Y-54884894D02*
X68729047Y-54084894D01*
X68729047Y-54084894D02*
X68652856Y-54199179D01*
X68652856Y-54199179D02*
X68576666Y-54275370D01*
X68576666Y-54275370D02*
X68500475Y-54313465D01*
X69643333Y-54351560D02*
X69643333Y-54884894D01*
X69452857Y-54046799D02*
X69262380Y-54618227D01*
X69262380Y-54618227D02*
X69757619Y-54618227D01*
X70659524Y-43844895D02*
X70659524Y-43044895D01*
X70659524Y-43044895D02*
X70850000Y-43044895D01*
X70850000Y-43044895D02*
X70964286Y-43082990D01*
X70964286Y-43082990D02*
X71040476Y-43159180D01*
X71040476Y-43159180D02*
X71078571Y-43235371D01*
X71078571Y-43235371D02*
X71116667Y-43387752D01*
X71116667Y-43387752D02*
X71116667Y-43502038D01*
X71116667Y-43502038D02*
X71078571Y-43654419D01*
X71078571Y-43654419D02*
X71040476Y-43730609D01*
X71040476Y-43730609D02*
X70964286Y-43806800D01*
X70964286Y-43806800D02*
X70850000Y-43844895D01*
X70850000Y-43844895D02*
X70659524Y-43844895D01*
X71802381Y-43044895D02*
X71650000Y-43044895D01*
X71650000Y-43044895D02*
X71573809Y-43082990D01*
X71573809Y-43082990D02*
X71535714Y-43121085D01*
X71535714Y-43121085D02*
X71459524Y-43235371D01*
X71459524Y-43235371D02*
X71421428Y-43387752D01*
X71421428Y-43387752D02*
X71421428Y-43692514D01*
X71421428Y-43692514D02*
X71459524Y-43768704D01*
X71459524Y-43768704D02*
X71497619Y-43806800D01*
X71497619Y-43806800D02*
X71573809Y-43844895D01*
X71573809Y-43844895D02*
X71726190Y-43844895D01*
X71726190Y-43844895D02*
X71802381Y-43806800D01*
X71802381Y-43806800D02*
X71840476Y-43768704D01*
X71840476Y-43768704D02*
X71878571Y-43692514D01*
X71878571Y-43692514D02*
X71878571Y-43502038D01*
X71878571Y-43502038D02*
X71840476Y-43425847D01*
X71840476Y-43425847D02*
X71802381Y-43387752D01*
X71802381Y-43387752D02*
X71726190Y-43349657D01*
X71726190Y-43349657D02*
X71573809Y-43349657D01*
X71573809Y-43349657D02*
X71497619Y-43387752D01*
X71497619Y-43387752D02*
X71459524Y-43425847D01*
X71459524Y-43425847D02*
X71421428Y-43502038D01*
X70278571Y-54884894D02*
X70278571Y-54084894D01*
X70278571Y-54084894D02*
X70469047Y-54084894D01*
X70469047Y-54084894D02*
X70583333Y-54122989D01*
X70583333Y-54122989D02*
X70659523Y-54199179D01*
X70659523Y-54199179D02*
X70697618Y-54275370D01*
X70697618Y-54275370D02*
X70735714Y-54427751D01*
X70735714Y-54427751D02*
X70735714Y-54542037D01*
X70735714Y-54542037D02*
X70697618Y-54694418D01*
X70697618Y-54694418D02*
X70659523Y-54770608D01*
X70659523Y-54770608D02*
X70583333Y-54846799D01*
X70583333Y-54846799D02*
X70469047Y-54884894D01*
X70469047Y-54884894D02*
X70278571Y-54884894D01*
X71497618Y-54884894D02*
X71040475Y-54884894D01*
X71269047Y-54884894D02*
X71269047Y-54084894D01*
X71269047Y-54084894D02*
X71192856Y-54199179D01*
X71192856Y-54199179D02*
X71116666Y-54275370D01*
X71116666Y-54275370D02*
X71040475Y-54313465D01*
X72221428Y-54084894D02*
X71840476Y-54084894D01*
X71840476Y-54084894D02*
X71802380Y-54465846D01*
X71802380Y-54465846D02*
X71840476Y-54427751D01*
X71840476Y-54427751D02*
X71916666Y-54389656D01*
X71916666Y-54389656D02*
X72107142Y-54389656D01*
X72107142Y-54389656D02*
X72183333Y-54427751D01*
X72183333Y-54427751D02*
X72221428Y-54465846D01*
X72221428Y-54465846D02*
X72259523Y-54542037D01*
X72259523Y-54542037D02*
X72259523Y-54732513D01*
X72259523Y-54732513D02*
X72221428Y-54808703D01*
X72221428Y-54808703D02*
X72183333Y-54846799D01*
X72183333Y-54846799D02*
X72107142Y-54884894D01*
X72107142Y-54884894D02*
X71916666Y-54884894D01*
X71916666Y-54884894D02*
X71840476Y-54846799D01*
X71840476Y-54846799D02*
X71802380Y-54808703D01*
X73199523Y-43844895D02*
X73199523Y-43044895D01*
X73199523Y-43044895D02*
X73389999Y-43044895D01*
X73389999Y-43044895D02*
X73504285Y-43082990D01*
X73504285Y-43082990D02*
X73580475Y-43159180D01*
X73580475Y-43159180D02*
X73618570Y-43235371D01*
X73618570Y-43235371D02*
X73656666Y-43387752D01*
X73656666Y-43387752D02*
X73656666Y-43502038D01*
X73656666Y-43502038D02*
X73618570Y-43654419D01*
X73618570Y-43654419D02*
X73580475Y-43730609D01*
X73580475Y-43730609D02*
X73504285Y-43806800D01*
X73504285Y-43806800D02*
X73389999Y-43844895D01*
X73389999Y-43844895D02*
X73199523Y-43844895D01*
X74380475Y-43044895D02*
X73999523Y-43044895D01*
X73999523Y-43044895D02*
X73961427Y-43425847D01*
X73961427Y-43425847D02*
X73999523Y-43387752D01*
X73999523Y-43387752D02*
X74075713Y-43349657D01*
X74075713Y-43349657D02*
X74266189Y-43349657D01*
X74266189Y-43349657D02*
X74342380Y-43387752D01*
X74342380Y-43387752D02*
X74380475Y-43425847D01*
X74380475Y-43425847D02*
X74418570Y-43502038D01*
X74418570Y-43502038D02*
X74418570Y-43692514D01*
X74418570Y-43692514D02*
X74380475Y-43768704D01*
X74380475Y-43768704D02*
X74342380Y-43806800D01*
X74342380Y-43806800D02*
X74266189Y-43844895D01*
X74266189Y-43844895D02*
X74075713Y-43844895D01*
X74075713Y-43844895D02*
X73999523Y-43806800D01*
X73999523Y-43806800D02*
X73961427Y-43768704D01*
X72818570Y-54884894D02*
X72818570Y-54084894D01*
X72818570Y-54084894D02*
X73009046Y-54084894D01*
X73009046Y-54084894D02*
X73123332Y-54122989D01*
X73123332Y-54122989D02*
X73199522Y-54199179D01*
X73199522Y-54199179D02*
X73237617Y-54275370D01*
X73237617Y-54275370D02*
X73275713Y-54427751D01*
X73275713Y-54427751D02*
X73275713Y-54542037D01*
X73275713Y-54542037D02*
X73237617Y-54694418D01*
X73237617Y-54694418D02*
X73199522Y-54770608D01*
X73199522Y-54770608D02*
X73123332Y-54846799D01*
X73123332Y-54846799D02*
X73009046Y-54884894D01*
X73009046Y-54884894D02*
X72818570Y-54884894D01*
X74037617Y-54884894D02*
X73580474Y-54884894D01*
X73809046Y-54884894D02*
X73809046Y-54084894D01*
X73809046Y-54084894D02*
X73732855Y-54199179D01*
X73732855Y-54199179D02*
X73656665Y-54275370D01*
X73656665Y-54275370D02*
X73580474Y-54313465D01*
X74494760Y-54427751D02*
X74418570Y-54389656D01*
X74418570Y-54389656D02*
X74380475Y-54351560D01*
X74380475Y-54351560D02*
X74342379Y-54275370D01*
X74342379Y-54275370D02*
X74342379Y-54237275D01*
X74342379Y-54237275D02*
X74380475Y-54161084D01*
X74380475Y-54161084D02*
X74418570Y-54122989D01*
X74418570Y-54122989D02*
X74494760Y-54084894D01*
X74494760Y-54084894D02*
X74647141Y-54084894D01*
X74647141Y-54084894D02*
X74723332Y-54122989D01*
X74723332Y-54122989D02*
X74761427Y-54161084D01*
X74761427Y-54161084D02*
X74799522Y-54237275D01*
X74799522Y-54237275D02*
X74799522Y-54275370D01*
X74799522Y-54275370D02*
X74761427Y-54351560D01*
X74761427Y-54351560D02*
X74723332Y-54389656D01*
X74723332Y-54389656D02*
X74647141Y-54427751D01*
X74647141Y-54427751D02*
X74494760Y-54427751D01*
X74494760Y-54427751D02*
X74418570Y-54465846D01*
X74418570Y-54465846D02*
X74380475Y-54503941D01*
X74380475Y-54503941D02*
X74342379Y-54580132D01*
X74342379Y-54580132D02*
X74342379Y-54732513D01*
X74342379Y-54732513D02*
X74380475Y-54808703D01*
X74380475Y-54808703D02*
X74418570Y-54846799D01*
X74418570Y-54846799D02*
X74494760Y-54884894D01*
X74494760Y-54884894D02*
X74647141Y-54884894D01*
X74647141Y-54884894D02*
X74723332Y-54846799D01*
X74723332Y-54846799D02*
X74761427Y-54808703D01*
X74761427Y-54808703D02*
X74799522Y-54732513D01*
X74799522Y-54732513D02*
X74799522Y-54580132D01*
X74799522Y-54580132D02*
X74761427Y-54503941D01*
X74761427Y-54503941D02*
X74723332Y-54465846D01*
X74723332Y-54465846D02*
X74647141Y-54427751D01*
X75739524Y-43844895D02*
X75739524Y-43044895D01*
X75739524Y-43044895D02*
X75930000Y-43044895D01*
X75930000Y-43044895D02*
X76044286Y-43082990D01*
X76044286Y-43082990D02*
X76120476Y-43159180D01*
X76120476Y-43159180D02*
X76158571Y-43235371D01*
X76158571Y-43235371D02*
X76196667Y-43387752D01*
X76196667Y-43387752D02*
X76196667Y-43502038D01*
X76196667Y-43502038D02*
X76158571Y-43654419D01*
X76158571Y-43654419D02*
X76120476Y-43730609D01*
X76120476Y-43730609D02*
X76044286Y-43806800D01*
X76044286Y-43806800D02*
X75930000Y-43844895D01*
X75930000Y-43844895D02*
X75739524Y-43844895D01*
X76882381Y-43311561D02*
X76882381Y-43844895D01*
X76691905Y-43006800D02*
X76501428Y-43578228D01*
X76501428Y-43578228D02*
X76996667Y-43578228D01*
X75358571Y-54884894D02*
X75358571Y-54084894D01*
X75358571Y-54084894D02*
X75549047Y-54084894D01*
X75549047Y-54084894D02*
X75663333Y-54122989D01*
X75663333Y-54122989D02*
X75739523Y-54199179D01*
X75739523Y-54199179D02*
X75777618Y-54275370D01*
X75777618Y-54275370D02*
X75815714Y-54427751D01*
X75815714Y-54427751D02*
X75815714Y-54542037D01*
X75815714Y-54542037D02*
X75777618Y-54694418D01*
X75777618Y-54694418D02*
X75739523Y-54770608D01*
X75739523Y-54770608D02*
X75663333Y-54846799D01*
X75663333Y-54846799D02*
X75549047Y-54884894D01*
X75549047Y-54884894D02*
X75358571Y-54884894D01*
X76577618Y-54884894D02*
X76120475Y-54884894D01*
X76349047Y-54884894D02*
X76349047Y-54084894D01*
X76349047Y-54084894D02*
X76272856Y-54199179D01*
X76272856Y-54199179D02*
X76196666Y-54275370D01*
X76196666Y-54275370D02*
X76120475Y-54313465D01*
X76958571Y-54884894D02*
X77110952Y-54884894D01*
X77110952Y-54884894D02*
X77187142Y-54846799D01*
X77187142Y-54846799D02*
X77225238Y-54808703D01*
X77225238Y-54808703D02*
X77301428Y-54694418D01*
X77301428Y-54694418D02*
X77339523Y-54542037D01*
X77339523Y-54542037D02*
X77339523Y-54237275D01*
X77339523Y-54237275D02*
X77301428Y-54161084D01*
X77301428Y-54161084D02*
X77263333Y-54122989D01*
X77263333Y-54122989D02*
X77187142Y-54084894D01*
X77187142Y-54084894D02*
X77034761Y-54084894D01*
X77034761Y-54084894D02*
X76958571Y-54122989D01*
X76958571Y-54122989D02*
X76920476Y-54161084D01*
X76920476Y-54161084D02*
X76882380Y-54237275D01*
X76882380Y-54237275D02*
X76882380Y-54427751D01*
X76882380Y-54427751D02*
X76920476Y-54503941D01*
X76920476Y-54503941D02*
X76958571Y-54542037D01*
X76958571Y-54542037D02*
X77034761Y-54580132D01*
X77034761Y-54580132D02*
X77187142Y-54580132D01*
X77187142Y-54580132D02*
X77263333Y-54542037D01*
X77263333Y-54542037D02*
X77301428Y-54503941D01*
X77301428Y-54503941D02*
X77339523Y-54427751D01*
X78279523Y-43844895D02*
X78279523Y-43044895D01*
X78279523Y-43044895D02*
X78469999Y-43044895D01*
X78469999Y-43044895D02*
X78584285Y-43082990D01*
X78584285Y-43082990D02*
X78660475Y-43159180D01*
X78660475Y-43159180D02*
X78698570Y-43235371D01*
X78698570Y-43235371D02*
X78736666Y-43387752D01*
X78736666Y-43387752D02*
X78736666Y-43502038D01*
X78736666Y-43502038D02*
X78698570Y-43654419D01*
X78698570Y-43654419D02*
X78660475Y-43730609D01*
X78660475Y-43730609D02*
X78584285Y-43806800D01*
X78584285Y-43806800D02*
X78469999Y-43844895D01*
X78469999Y-43844895D02*
X78279523Y-43844895D01*
X79003332Y-43044895D02*
X79498570Y-43044895D01*
X79498570Y-43044895D02*
X79231904Y-43349657D01*
X79231904Y-43349657D02*
X79346189Y-43349657D01*
X79346189Y-43349657D02*
X79422380Y-43387752D01*
X79422380Y-43387752D02*
X79460475Y-43425847D01*
X79460475Y-43425847D02*
X79498570Y-43502038D01*
X79498570Y-43502038D02*
X79498570Y-43692514D01*
X79498570Y-43692514D02*
X79460475Y-43768704D01*
X79460475Y-43768704D02*
X79422380Y-43806800D01*
X79422380Y-43806800D02*
X79346189Y-43844895D01*
X79346189Y-43844895D02*
X79117618Y-43844895D01*
X79117618Y-43844895D02*
X79041427Y-43806800D01*
X79041427Y-43806800D02*
X79003332Y-43768704D01*
X77898570Y-54884894D02*
X77898570Y-54084894D01*
X77898570Y-54084894D02*
X78089046Y-54084894D01*
X78089046Y-54084894D02*
X78203332Y-54122989D01*
X78203332Y-54122989D02*
X78279522Y-54199179D01*
X78279522Y-54199179D02*
X78317617Y-54275370D01*
X78317617Y-54275370D02*
X78355713Y-54427751D01*
X78355713Y-54427751D02*
X78355713Y-54542037D01*
X78355713Y-54542037D02*
X78317617Y-54694418D01*
X78317617Y-54694418D02*
X78279522Y-54770608D01*
X78279522Y-54770608D02*
X78203332Y-54846799D01*
X78203332Y-54846799D02*
X78089046Y-54884894D01*
X78089046Y-54884894D02*
X77898570Y-54884894D01*
X78660474Y-54161084D02*
X78698570Y-54122989D01*
X78698570Y-54122989D02*
X78774760Y-54084894D01*
X78774760Y-54084894D02*
X78965236Y-54084894D01*
X78965236Y-54084894D02*
X79041427Y-54122989D01*
X79041427Y-54122989D02*
X79079522Y-54161084D01*
X79079522Y-54161084D02*
X79117617Y-54237275D01*
X79117617Y-54237275D02*
X79117617Y-54313465D01*
X79117617Y-54313465D02*
X79079522Y-54427751D01*
X79079522Y-54427751D02*
X78622379Y-54884894D01*
X78622379Y-54884894D02*
X79117617Y-54884894D01*
X79612856Y-54084894D02*
X79689046Y-54084894D01*
X79689046Y-54084894D02*
X79765237Y-54122989D01*
X79765237Y-54122989D02*
X79803332Y-54161084D01*
X79803332Y-54161084D02*
X79841427Y-54237275D01*
X79841427Y-54237275D02*
X79879522Y-54389656D01*
X79879522Y-54389656D02*
X79879522Y-54580132D01*
X79879522Y-54580132D02*
X79841427Y-54732513D01*
X79841427Y-54732513D02*
X79803332Y-54808703D01*
X79803332Y-54808703D02*
X79765237Y-54846799D01*
X79765237Y-54846799D02*
X79689046Y-54884894D01*
X79689046Y-54884894D02*
X79612856Y-54884894D01*
X79612856Y-54884894D02*
X79536665Y-54846799D01*
X79536665Y-54846799D02*
X79498570Y-54808703D01*
X79498570Y-54808703D02*
X79460475Y-54732513D01*
X79460475Y-54732513D02*
X79422379Y-54580132D01*
X79422379Y-54580132D02*
X79422379Y-54389656D01*
X79422379Y-54389656D02*
X79460475Y-54237275D01*
X79460475Y-54237275D02*
X79498570Y-54161084D01*
X79498570Y-54161084D02*
X79536665Y-54122989D01*
X79536665Y-54122989D02*
X79612856Y-54084894D01*
X80819524Y-43844895D02*
X80819524Y-43044895D01*
X80819524Y-43044895D02*
X81010000Y-43044895D01*
X81010000Y-43044895D02*
X81124286Y-43082990D01*
X81124286Y-43082990D02*
X81200476Y-43159180D01*
X81200476Y-43159180D02*
X81238571Y-43235371D01*
X81238571Y-43235371D02*
X81276667Y-43387752D01*
X81276667Y-43387752D02*
X81276667Y-43502038D01*
X81276667Y-43502038D02*
X81238571Y-43654419D01*
X81238571Y-43654419D02*
X81200476Y-43730609D01*
X81200476Y-43730609D02*
X81124286Y-43806800D01*
X81124286Y-43806800D02*
X81010000Y-43844895D01*
X81010000Y-43844895D02*
X80819524Y-43844895D01*
X81581428Y-43121085D02*
X81619524Y-43082990D01*
X81619524Y-43082990D02*
X81695714Y-43044895D01*
X81695714Y-43044895D02*
X81886190Y-43044895D01*
X81886190Y-43044895D02*
X81962381Y-43082990D01*
X81962381Y-43082990D02*
X82000476Y-43121085D01*
X82000476Y-43121085D02*
X82038571Y-43197276D01*
X82038571Y-43197276D02*
X82038571Y-43273466D01*
X82038571Y-43273466D02*
X82000476Y-43387752D01*
X82000476Y-43387752D02*
X81543333Y-43844895D01*
X81543333Y-43844895D02*
X82038571Y-43844895D01*
X80438571Y-54884894D02*
X80438571Y-54084894D01*
X80438571Y-54084894D02*
X80629047Y-54084894D01*
X80629047Y-54084894D02*
X80743333Y-54122989D01*
X80743333Y-54122989D02*
X80819523Y-54199179D01*
X80819523Y-54199179D02*
X80857618Y-54275370D01*
X80857618Y-54275370D02*
X80895714Y-54427751D01*
X80895714Y-54427751D02*
X80895714Y-54542037D01*
X80895714Y-54542037D02*
X80857618Y-54694418D01*
X80857618Y-54694418D02*
X80819523Y-54770608D01*
X80819523Y-54770608D02*
X80743333Y-54846799D01*
X80743333Y-54846799D02*
X80629047Y-54884894D01*
X80629047Y-54884894D02*
X80438571Y-54884894D01*
X81200475Y-54161084D02*
X81238571Y-54122989D01*
X81238571Y-54122989D02*
X81314761Y-54084894D01*
X81314761Y-54084894D02*
X81505237Y-54084894D01*
X81505237Y-54084894D02*
X81581428Y-54122989D01*
X81581428Y-54122989D02*
X81619523Y-54161084D01*
X81619523Y-54161084D02*
X81657618Y-54237275D01*
X81657618Y-54237275D02*
X81657618Y-54313465D01*
X81657618Y-54313465D02*
X81619523Y-54427751D01*
X81619523Y-54427751D02*
X81162380Y-54884894D01*
X81162380Y-54884894D02*
X81657618Y-54884894D01*
X82419523Y-54884894D02*
X81962380Y-54884894D01*
X82190952Y-54884894D02*
X82190952Y-54084894D01*
X82190952Y-54084894D02*
X82114761Y-54199179D01*
X82114761Y-54199179D02*
X82038571Y-54275370D01*
X82038571Y-54275370D02*
X81962380Y-54313465D01*
X84159522Y-43082990D02*
X84083332Y-43044895D01*
X84083332Y-43044895D02*
X83969046Y-43044895D01*
X83969046Y-43044895D02*
X83854760Y-43082990D01*
X83854760Y-43082990D02*
X83778570Y-43159180D01*
X83778570Y-43159180D02*
X83740475Y-43235371D01*
X83740475Y-43235371D02*
X83702379Y-43387752D01*
X83702379Y-43387752D02*
X83702379Y-43502038D01*
X83702379Y-43502038D02*
X83740475Y-43654419D01*
X83740475Y-43654419D02*
X83778570Y-43730609D01*
X83778570Y-43730609D02*
X83854760Y-43806800D01*
X83854760Y-43806800D02*
X83969046Y-43844895D01*
X83969046Y-43844895D02*
X84045237Y-43844895D01*
X84045237Y-43844895D02*
X84159522Y-43806800D01*
X84159522Y-43806800D02*
X84197618Y-43768704D01*
X84197618Y-43768704D02*
X84197618Y-43502038D01*
X84197618Y-43502038D02*
X84045237Y-43502038D01*
X82883332Y-54084894D02*
X83149999Y-54884894D01*
X83149999Y-54884894D02*
X83416665Y-54084894D01*
X84140475Y-54808703D02*
X84102379Y-54846799D01*
X84102379Y-54846799D02*
X83988094Y-54884894D01*
X83988094Y-54884894D02*
X83911903Y-54884894D01*
X83911903Y-54884894D02*
X83797617Y-54846799D01*
X83797617Y-54846799D02*
X83721427Y-54770608D01*
X83721427Y-54770608D02*
X83683332Y-54694418D01*
X83683332Y-54694418D02*
X83645236Y-54542037D01*
X83645236Y-54542037D02*
X83645236Y-54427751D01*
X83645236Y-54427751D02*
X83683332Y-54275370D01*
X83683332Y-54275370D02*
X83721427Y-54199179D01*
X83721427Y-54199179D02*
X83797617Y-54122989D01*
X83797617Y-54122989D02*
X83911903Y-54084894D01*
X83911903Y-54084894D02*
X83988094Y-54084894D01*
X83988094Y-54084894D02*
X84102379Y-54122989D01*
X84102379Y-54122989D02*
X84140475Y-54161084D01*
X84940475Y-54808703D02*
X84902379Y-54846799D01*
X84902379Y-54846799D02*
X84788094Y-54884894D01*
X84788094Y-54884894D02*
X84711903Y-54884894D01*
X84711903Y-54884894D02*
X84597617Y-54846799D01*
X84597617Y-54846799D02*
X84521427Y-54770608D01*
X84521427Y-54770608D02*
X84483332Y-54694418D01*
X84483332Y-54694418D02*
X84445236Y-54542037D01*
X84445236Y-54542037D02*
X84445236Y-54427751D01*
X84445236Y-54427751D02*
X84483332Y-54275370D01*
X84483332Y-54275370D02*
X84521427Y-54199179D01*
X84521427Y-54199179D02*
X84597617Y-54122989D01*
X84597617Y-54122989D02*
X84711903Y-54084894D01*
X84711903Y-54084894D02*
X84788094Y-54084894D01*
X84788094Y-54084894D02*
X84902379Y-54122989D01*
X84902379Y-54122989D02*
X84940475Y-54161084D01*
X86699523Y-43082990D02*
X86623333Y-43044895D01*
X86623333Y-43044895D02*
X86509047Y-43044895D01*
X86509047Y-43044895D02*
X86394761Y-43082990D01*
X86394761Y-43082990D02*
X86318571Y-43159180D01*
X86318571Y-43159180D02*
X86280476Y-43235371D01*
X86280476Y-43235371D02*
X86242380Y-43387752D01*
X86242380Y-43387752D02*
X86242380Y-43502038D01*
X86242380Y-43502038D02*
X86280476Y-43654419D01*
X86280476Y-43654419D02*
X86318571Y-43730609D01*
X86318571Y-43730609D02*
X86394761Y-43806800D01*
X86394761Y-43806800D02*
X86509047Y-43844895D01*
X86509047Y-43844895D02*
X86585238Y-43844895D01*
X86585238Y-43844895D02*
X86699523Y-43806800D01*
X86699523Y-43806800D02*
X86737619Y-43768704D01*
X86737619Y-43768704D02*
X86737619Y-43502038D01*
X86737619Y-43502038D02*
X86585238Y-43502038D01*
X86051905Y-54884894D02*
X85785238Y-54503941D01*
X85594762Y-54884894D02*
X85594762Y-54084894D01*
X85594762Y-54084894D02*
X85899524Y-54084894D01*
X85899524Y-54084894D02*
X85975714Y-54122989D01*
X85975714Y-54122989D02*
X86013809Y-54161084D01*
X86013809Y-54161084D02*
X86051905Y-54237275D01*
X86051905Y-54237275D02*
X86051905Y-54351560D01*
X86051905Y-54351560D02*
X86013809Y-54427751D01*
X86013809Y-54427751D02*
X85975714Y-54465846D01*
X85975714Y-54465846D02*
X85899524Y-54503941D01*
X85899524Y-54503941D02*
X85594762Y-54503941D01*
X86356666Y-54846799D02*
X86470952Y-54884894D01*
X86470952Y-54884894D02*
X86661428Y-54884894D01*
X86661428Y-54884894D02*
X86737619Y-54846799D01*
X86737619Y-54846799D02*
X86775714Y-54808703D01*
X86775714Y-54808703D02*
X86813809Y-54732513D01*
X86813809Y-54732513D02*
X86813809Y-54656322D01*
X86813809Y-54656322D02*
X86775714Y-54580132D01*
X86775714Y-54580132D02*
X86737619Y-54542037D01*
X86737619Y-54542037D02*
X86661428Y-54503941D01*
X86661428Y-54503941D02*
X86509047Y-54465846D01*
X86509047Y-54465846D02*
X86432857Y-54427751D01*
X86432857Y-54427751D02*
X86394762Y-54389656D01*
X86394762Y-54389656D02*
X86356666Y-54313465D01*
X86356666Y-54313465D02*
X86356666Y-54237275D01*
X86356666Y-54237275D02*
X86394762Y-54161084D01*
X86394762Y-54161084D02*
X86432857Y-54122989D01*
X86432857Y-54122989D02*
X86509047Y-54084894D01*
X86509047Y-54084894D02*
X86699524Y-54084894D01*
X86699524Y-54084894D02*
X86813809Y-54122989D01*
X87042381Y-54084894D02*
X87499524Y-54084894D01*
X87270952Y-54884894D02*
X87270952Y-54084894D01*
X88439524Y-43844895D02*
X88439524Y-43044895D01*
X88439524Y-43044895D02*
X88630000Y-43044895D01*
X88630000Y-43044895D02*
X88744286Y-43082990D01*
X88744286Y-43082990D02*
X88820476Y-43159180D01*
X88820476Y-43159180D02*
X88858571Y-43235371D01*
X88858571Y-43235371D02*
X88896667Y-43387752D01*
X88896667Y-43387752D02*
X88896667Y-43502038D01*
X88896667Y-43502038D02*
X88858571Y-43654419D01*
X88858571Y-43654419D02*
X88820476Y-43730609D01*
X88820476Y-43730609D02*
X88744286Y-43806800D01*
X88744286Y-43806800D02*
X88630000Y-43844895D01*
X88630000Y-43844895D02*
X88439524Y-43844895D01*
X89391905Y-43044895D02*
X89468095Y-43044895D01*
X89468095Y-43044895D02*
X89544286Y-43082990D01*
X89544286Y-43082990D02*
X89582381Y-43121085D01*
X89582381Y-43121085D02*
X89620476Y-43197276D01*
X89620476Y-43197276D02*
X89658571Y-43349657D01*
X89658571Y-43349657D02*
X89658571Y-43540133D01*
X89658571Y-43540133D02*
X89620476Y-43692514D01*
X89620476Y-43692514D02*
X89582381Y-43768704D01*
X89582381Y-43768704D02*
X89544286Y-43806800D01*
X89544286Y-43806800D02*
X89468095Y-43844895D01*
X89468095Y-43844895D02*
X89391905Y-43844895D01*
X89391905Y-43844895D02*
X89315714Y-43806800D01*
X89315714Y-43806800D02*
X89277619Y-43768704D01*
X89277619Y-43768704D02*
X89239524Y-43692514D01*
X89239524Y-43692514D02*
X89201428Y-43540133D01*
X89201428Y-43540133D02*
X89201428Y-43349657D01*
X89201428Y-43349657D02*
X89239524Y-43197276D01*
X89239524Y-43197276D02*
X89277619Y-43121085D01*
X89277619Y-43121085D02*
X89315714Y-43082990D01*
X89315714Y-43082990D02*
X89391905Y-43044895D01*
X89239523Y-54122989D02*
X89163333Y-54084894D01*
X89163333Y-54084894D02*
X89049047Y-54084894D01*
X89049047Y-54084894D02*
X88934761Y-54122989D01*
X88934761Y-54122989D02*
X88858571Y-54199179D01*
X88858571Y-54199179D02*
X88820476Y-54275370D01*
X88820476Y-54275370D02*
X88782380Y-54427751D01*
X88782380Y-54427751D02*
X88782380Y-54542037D01*
X88782380Y-54542037D02*
X88820476Y-54694418D01*
X88820476Y-54694418D02*
X88858571Y-54770608D01*
X88858571Y-54770608D02*
X88934761Y-54846799D01*
X88934761Y-54846799D02*
X89049047Y-54884894D01*
X89049047Y-54884894D02*
X89125238Y-54884894D01*
X89125238Y-54884894D02*
X89239523Y-54846799D01*
X89239523Y-54846799D02*
X89277619Y-54808703D01*
X89277619Y-54808703D02*
X89277619Y-54542037D01*
X89277619Y-54542037D02*
X89125238Y-54542037D01*
X90979524Y-43844895D02*
X90979524Y-43044895D01*
X90979524Y-43044895D02*
X91170000Y-43044895D01*
X91170000Y-43044895D02*
X91284286Y-43082990D01*
X91284286Y-43082990D02*
X91360476Y-43159180D01*
X91360476Y-43159180D02*
X91398571Y-43235371D01*
X91398571Y-43235371D02*
X91436667Y-43387752D01*
X91436667Y-43387752D02*
X91436667Y-43502038D01*
X91436667Y-43502038D02*
X91398571Y-43654419D01*
X91398571Y-43654419D02*
X91360476Y-43730609D01*
X91360476Y-43730609D02*
X91284286Y-43806800D01*
X91284286Y-43806800D02*
X91170000Y-43844895D01*
X91170000Y-43844895D02*
X90979524Y-43844895D01*
X92198571Y-43844895D02*
X91741428Y-43844895D01*
X91970000Y-43844895D02*
X91970000Y-43044895D01*
X91970000Y-43044895D02*
X91893809Y-43159180D01*
X91893809Y-43159180D02*
X91817619Y-43235371D01*
X91817619Y-43235371D02*
X91741428Y-43273466D01*
X91017619Y-54884894D02*
X90750952Y-54503941D01*
X90560476Y-54884894D02*
X90560476Y-54084894D01*
X90560476Y-54084894D02*
X90865238Y-54084894D01*
X90865238Y-54084894D02*
X90941428Y-54122989D01*
X90941428Y-54122989D02*
X90979523Y-54161084D01*
X90979523Y-54161084D02*
X91017619Y-54237275D01*
X91017619Y-54237275D02*
X91017619Y-54351560D01*
X91017619Y-54351560D02*
X90979523Y-54427751D01*
X90979523Y-54427751D02*
X90941428Y-54465846D01*
X90941428Y-54465846D02*
X90865238Y-54503941D01*
X90865238Y-54503941D02*
X90560476Y-54503941D01*
X91322380Y-54656322D02*
X91703333Y-54656322D01*
X91246190Y-54884894D02*
X91512857Y-54084894D01*
X91512857Y-54084894D02*
X91779523Y-54884894D01*
X91969999Y-54084894D02*
X92160475Y-54884894D01*
X92160475Y-54884894D02*
X92312856Y-54313465D01*
X92312856Y-54313465D02*
X92465237Y-54884894D01*
X92465237Y-54884894D02*
X92655714Y-54084894D01*
%TO.C,SW_RST1*%
D13*
X62300000Y-60100000D02*
X68800000Y-60100000D01*
X62300000Y-64200000D02*
X68800000Y-64200000D01*
%TD*%
%LPC*%
D14*
%TO.C,SW24*%
X185782500Y-115625000D03*
D15*
X185862500Y-119425000D03*
D16*
X190862500Y-115625000D03*
D15*
X190862500Y-121525000D03*
D17*
X195862500Y-110475000D03*
D14*
X195942500Y-115625000D03*
D18*
X193402500Y-110545000D03*
X187052500Y-113085000D03*
%TD*%
D14*
%TO.C,SW19*%
X81007500Y-115625000D03*
D15*
X81087500Y-119425000D03*
D16*
X86087500Y-115625000D03*
D15*
X86087500Y-121525000D03*
D17*
X91087500Y-110475000D03*
D14*
X91167500Y-115625000D03*
D18*
X88627500Y-110545000D03*
X82277500Y-113085000D03*
%TD*%
D14*
%TO.C,SW16*%
X178638800Y-96575000D03*
D15*
X178718800Y-100375000D03*
D16*
X183718800Y-96575000D03*
D15*
X183718800Y-102475000D03*
D17*
X188718800Y-91425000D03*
D14*
X188798800Y-96575000D03*
D18*
X186258800Y-91495000D03*
X179908800Y-94035000D03*
%TD*%
D14*
%TO.C,SW25*%
X62592500Y-134675000D03*
D15*
X62512500Y-130875000D03*
D16*
X57512500Y-134675000D03*
D15*
X57512500Y-128775000D03*
D17*
X52512500Y-139825000D03*
D14*
X52432500Y-134675000D03*
D18*
X54972500Y-139755000D03*
X61322500Y-137215000D03*
%TD*%
D14*
%TO.C,SW22*%
X138157500Y-115625000D03*
D15*
X138237500Y-119425000D03*
D16*
X143237500Y-115625000D03*
D15*
X143237500Y-121525000D03*
D17*
X148237500Y-110475000D03*
D14*
X148317500Y-115625000D03*
D18*
X145777500Y-110545000D03*
X139427500Y-113085000D03*
%TD*%
D14*
%TO.C,SW5*%
X123870000Y-77525000D03*
D15*
X123950000Y-81325000D03*
D16*
X128950000Y-77525000D03*
D15*
X128950000Y-83425000D03*
D17*
X133950000Y-72375000D03*
D14*
X134030000Y-77525000D03*
D18*
X131490000Y-72445000D03*
X125140000Y-74985000D03*
%TD*%
D14*
%TO.C,SW9*%
X48305000Y-96575000D03*
D15*
X48225000Y-92775000D03*
D16*
X43225000Y-96575000D03*
D15*
X43225000Y-90675000D03*
D17*
X38225000Y-101725000D03*
D14*
X38145000Y-96575000D03*
D18*
X40685000Y-101655000D03*
X47035000Y-99115000D03*
%TD*%
D14*
%TO.C,SW12*%
X95295000Y-96575000D03*
D15*
X95375000Y-100375000D03*
D16*
X100375000Y-96575000D03*
D15*
X100375000Y-102475000D03*
D17*
X105375000Y-91425000D03*
D14*
X105455000Y-96575000D03*
D18*
X102915000Y-91495000D03*
X96565000Y-94035000D03*
%TD*%
D14*
%TO.C,SW7*%
X164351300Y-77525000D03*
D15*
X164431300Y-81325000D03*
D16*
X169431300Y-77525000D03*
D15*
X169431300Y-83425000D03*
D17*
X174431300Y-72375000D03*
D14*
X174511300Y-77525000D03*
D18*
X171971300Y-72445000D03*
X165621300Y-74985000D03*
%TD*%
D14*
%TO.C,SW21*%
X119107500Y-115625000D03*
D15*
X119187500Y-119425000D03*
D16*
X124187500Y-115625000D03*
D15*
X124187500Y-121525000D03*
D17*
X129187500Y-110475000D03*
D14*
X129267500Y-115625000D03*
D18*
X126727500Y-110545000D03*
X120377500Y-113085000D03*
%TD*%
D14*
%TO.C,SW17*%
X53067500Y-115625000D03*
D15*
X52987500Y-111825000D03*
D16*
X47987500Y-115625000D03*
D15*
X47987500Y-109725000D03*
D17*
X42987500Y-120775000D03*
D14*
X42907500Y-115625000D03*
D18*
X45447500Y-120705000D03*
X51797500Y-118165000D03*
%TD*%
D14*
%TO.C,SW39*%
X185782500Y-153725000D03*
D15*
X185862500Y-157525000D03*
D16*
X190862500Y-153725000D03*
D15*
X190862500Y-159625000D03*
D17*
X195862500Y-148575000D03*
D14*
X195942500Y-153725000D03*
D18*
X193402500Y-148645000D03*
X187052500Y-151185000D03*
%TD*%
D14*
%TO.C,SW6*%
X142920000Y-77525000D03*
D15*
X143000000Y-81325000D03*
D16*
X148000000Y-77525000D03*
D15*
X148000000Y-83425000D03*
D17*
X153000000Y-72375000D03*
D14*
X153080000Y-77525000D03*
D18*
X150540000Y-72445000D03*
X144190000Y-74985000D03*
%TD*%
D14*
%TO.C,SW1*%
X57830000Y-77525000D03*
D15*
X57750000Y-73725000D03*
D16*
X52750000Y-77525000D03*
D15*
X52750000Y-71625000D03*
D17*
X47750000Y-82675000D03*
D14*
X47670000Y-77525000D03*
D18*
X50210000Y-82605000D03*
X56560000Y-80065000D03*
%TD*%
D19*
%TO.C,SW_RST1*%
X61675000Y-62150000D03*
X69425000Y-62150000D03*
%TD*%
D14*
%TO.C,SW26*%
X71482500Y-134675000D03*
D15*
X71562500Y-138475000D03*
D16*
X76562500Y-134675000D03*
D15*
X76562500Y-140575000D03*
D17*
X81562500Y-129525000D03*
D14*
X81642500Y-134675000D03*
D18*
X79102500Y-129595000D03*
X72752500Y-132135000D03*
%TD*%
D14*
%TO.C,SW10*%
X57195000Y-96575000D03*
D15*
X57275000Y-100375000D03*
D16*
X62275000Y-96575000D03*
D15*
X62275000Y-102475000D03*
D17*
X67275000Y-91425000D03*
D14*
X67355000Y-96575000D03*
D18*
X64815000Y-91495000D03*
X58465000Y-94035000D03*
%TD*%
D14*
%TO.C,SW14*%
X133395000Y-96575000D03*
D15*
X133475000Y-100375000D03*
D16*
X138475000Y-96575000D03*
D15*
X138475000Y-102475000D03*
D17*
X143475000Y-91425000D03*
D14*
X143555000Y-96575000D03*
D18*
X141015000Y-91495000D03*
X134665000Y-94035000D03*
%TD*%
D14*
%TO.C,SW4*%
X104820000Y-77525000D03*
D15*
X104900000Y-81325000D03*
D16*
X109900000Y-77525000D03*
D15*
X109900000Y-83425000D03*
D17*
X114900000Y-72375000D03*
D14*
X114980000Y-77525000D03*
D18*
X112440000Y-72445000D03*
X106090000Y-74985000D03*
%TD*%
D14*
%TO.C,SW38*%
X166732500Y-153725000D03*
D15*
X166812500Y-157525000D03*
D16*
X171812500Y-153725000D03*
D15*
X171812500Y-159625000D03*
D17*
X176812500Y-148575000D03*
D14*
X176892500Y-153725000D03*
D18*
X174352500Y-148645000D03*
X168002500Y-151185000D03*
%TD*%
D14*
%TO.C,SW31*%
X166732500Y-134675000D03*
D15*
X166812500Y-138475000D03*
D16*
X171812500Y-134675000D03*
D15*
X171812500Y-140575000D03*
D17*
X176812500Y-129525000D03*
D14*
X176892500Y-134675000D03*
D18*
X174352500Y-129595000D03*
X168002500Y-132135000D03*
%TD*%
D14*
%TO.C,SW27*%
X90532500Y-134675000D03*
D15*
X90612500Y-138475000D03*
D16*
X95612500Y-134675000D03*
D15*
X95612500Y-140575000D03*
D17*
X100612500Y-129525000D03*
D14*
X100692500Y-134675000D03*
D18*
X98152500Y-129595000D03*
X91802500Y-132135000D03*
%TD*%
D14*
%TO.C,SW15*%
X152445000Y-96575000D03*
D15*
X152525000Y-100375000D03*
D16*
X157525000Y-96575000D03*
D15*
X157525000Y-102475000D03*
D17*
X162525000Y-91425000D03*
D14*
X162605000Y-96575000D03*
D18*
X160065000Y-91495000D03*
X153715000Y-94035000D03*
%TD*%
D14*
%TO.C,SW20*%
X100057500Y-115625000D03*
D15*
X100137500Y-119425000D03*
D16*
X105137500Y-115625000D03*
D15*
X105137500Y-121525000D03*
D17*
X110137500Y-110475000D03*
D14*
X110217500Y-115625000D03*
D18*
X107677500Y-110545000D03*
X101327500Y-113085000D03*
%TD*%
D14*
%TO.C,SW2*%
X66720000Y-77525000D03*
D15*
X66800000Y-81325000D03*
D16*
X71800000Y-77525000D03*
D15*
X71800000Y-83425000D03*
D17*
X76800000Y-72375000D03*
D14*
X76880000Y-77525000D03*
D18*
X74340000Y-72445000D03*
X67990000Y-74985000D03*
%TD*%
D20*
%TO.C,BAT_LEAD_SLOT1*%
X92400000Y-49000000D03*
%TD*%
D14*
%TO.C,SW29*%
X128632500Y-134675000D03*
D15*
X128712500Y-138475000D03*
D16*
X133712500Y-134675000D03*
D15*
X133712500Y-140575000D03*
D17*
X138712500Y-129525000D03*
D14*
X138792500Y-134675000D03*
D18*
X136252500Y-129595000D03*
X129902500Y-132135000D03*
%TD*%
D14*
%TO.C,SW35*%
X107201300Y-153725000D03*
D15*
X107281300Y-157525000D03*
D16*
X112281300Y-153725000D03*
D15*
X112281300Y-159625000D03*
D17*
X117281300Y-148575000D03*
D14*
X117361300Y-153725000D03*
D18*
X114821300Y-148645000D03*
X108471300Y-151185000D03*
%TD*%
D14*
%TO.C,SW37*%
X147682500Y-153725000D03*
D15*
X147762500Y-157525000D03*
D16*
X152762500Y-153725000D03*
D15*
X152762500Y-159625000D03*
D17*
X157762500Y-148575000D03*
D14*
X157842500Y-153725000D03*
D18*
X155302500Y-148645000D03*
X148952500Y-151185000D03*
%TD*%
D14*
%TO.C,SW32*%
X185782500Y-134675000D03*
D15*
X185862500Y-138475000D03*
D16*
X190862500Y-134675000D03*
D15*
X190862500Y-140575000D03*
D17*
X195862500Y-129525000D03*
D14*
X195942500Y-134675000D03*
D18*
X193402500Y-129595000D03*
X187052500Y-132135000D03*
%TD*%
D14*
%TO.C,SW28*%
X109582500Y-134675000D03*
D15*
X109662500Y-138475000D03*
D16*
X114662500Y-134675000D03*
D15*
X114662500Y-140575000D03*
D17*
X119662500Y-129525000D03*
D14*
X119742500Y-134675000D03*
D18*
X117202500Y-129595000D03*
X110852500Y-132135000D03*
%TD*%
D14*
%TO.C,SW8*%
X185782500Y-77525000D03*
D15*
X185862500Y-81325000D03*
D16*
X190862500Y-77525000D03*
D15*
X190862500Y-83425000D03*
D17*
X195862500Y-72375000D03*
D14*
X195942500Y-77525000D03*
D18*
X193402500Y-72445000D03*
X187052500Y-74985000D03*
%TD*%
D14*
%TO.C,SW30*%
X147682500Y-134675000D03*
D15*
X147762500Y-138475000D03*
D16*
X152762500Y-134675000D03*
D15*
X152762500Y-140575000D03*
D17*
X157762500Y-129525000D03*
D14*
X157842500Y-134675000D03*
D18*
X155302500Y-129595000D03*
X148952500Y-132135000D03*
%TD*%
D14*
%TO.C,SW13*%
X114345000Y-96575000D03*
D15*
X114425000Y-100375000D03*
D16*
X119425000Y-96575000D03*
D15*
X119425000Y-102475000D03*
D17*
X124425000Y-91425000D03*
D14*
X124505000Y-96575000D03*
D18*
X121965000Y-91495000D03*
X115615000Y-94035000D03*
%TD*%
D14*
%TO.C,SW33*%
X62592500Y-153725000D03*
D15*
X62512500Y-149925000D03*
D16*
X57512500Y-153725000D03*
D15*
X57512500Y-147825000D03*
D17*
X52512500Y-158875000D03*
D14*
X52432500Y-153725000D03*
D18*
X54972500Y-158805000D03*
X61322500Y-156265000D03*
%TD*%
D14*
%TO.C,SW23*%
X161970000Y-115625000D03*
D15*
X162050000Y-119425000D03*
D16*
X167050000Y-115625000D03*
D15*
X167050000Y-121525000D03*
D17*
X172050000Y-110475000D03*
D14*
X172130000Y-115625000D03*
D18*
X169590000Y-110545000D03*
X163240000Y-113085000D03*
%TD*%
D14*
%TO.C,SW18*%
X61957500Y-115625000D03*
D15*
X62037500Y-119425000D03*
D16*
X67037500Y-115625000D03*
D15*
X67037500Y-121525000D03*
D17*
X72037500Y-110475000D03*
D14*
X72117500Y-115625000D03*
D18*
X69577500Y-110545000D03*
X63227500Y-113085000D03*
%TD*%
D14*
%TO.C,SW11*%
X76245000Y-96575000D03*
D15*
X76325000Y-100375000D03*
D16*
X81325000Y-96575000D03*
D15*
X81325000Y-102475000D03*
D17*
X86325000Y-91425000D03*
D14*
X86405000Y-96575000D03*
D18*
X83865000Y-91495000D03*
X77515000Y-94035000D03*
%TD*%
D14*
%TO.C,SW36*%
X128632500Y-153725000D03*
D15*
X128712500Y-157525000D03*
D16*
X133712500Y-153725000D03*
D15*
X133712500Y-159625000D03*
D17*
X138712500Y-148575000D03*
D14*
X138792500Y-153725000D03*
D18*
X136252500Y-148645000D03*
X129902500Y-151185000D03*
%TD*%
D14*
%TO.C,SW34*%
X78626300Y-153725000D03*
D15*
X78706300Y-157525000D03*
D16*
X83706300Y-153725000D03*
D15*
X83706300Y-159625000D03*
D17*
X88706300Y-148575000D03*
D14*
X88786300Y-153725000D03*
D18*
X86246300Y-148645000D03*
X79896300Y-151185000D03*
%TD*%
D14*
%TO.C,SW3*%
X85770000Y-77525000D03*
D15*
X85850000Y-81325000D03*
D16*
X90850000Y-77525000D03*
D15*
X90850000Y-83425000D03*
D17*
X95850000Y-72375000D03*
D14*
X95930000Y-77525000D03*
D18*
X93390000Y-72445000D03*
X87040000Y-74985000D03*
%TD*%
%LPD*%
M02*
