%TF.GenerationSoftware,KiCad,Pcbnew,10.0.3*%
%TF.CreationDate,2026-08-20T07:58:22+09:00*%
%TF.ProjectId,kc2_right-x3-v2,6b63325f-7269-4676-9874-2d78332d7632,draft-v2*%
%TF.SameCoordinates,Original*%
%TF.FileFunction,Copper,L1,Top*%
%TF.FilePolarity,Positive*%
%FSLAX46Y46*%
G04 Gerber Fmt 4.6, Leading zero omitted, Abs format (unit mm)*
G04 Created by KiCad (PCBNEW 10.0.3) date 2026-08-20 07:58:22*
%MOMM*%
%LPD*%
G01*
G04 APERTURE LIST*
%TA.AperFunction,ComponentPad*%
%ADD10C,2.500000*%
%TD*%
%TA.AperFunction,SMDPad,CuDef*%
%ADD11R,1.750000X1.000000*%
%TD*%
%TA.AperFunction,ComponentPad*%
%ADD12C,1.800000*%
%TD*%
%TA.AperFunction,ViaPad*%
%ADD13C,0.600000*%
%TD*%
%TA.AperFunction,Conductor*%
%ADD14C,0.200000*%
%TD*%
%TA.AperFunction,Conductor*%
%ADD15C,0.250000*%
%TD*%
G04 APERTURE END LIST*
D10*
%TO.P,SW24,1*%
%TO.N,R_COL7*%
X193402500Y-110545000D03*
%TO.P,SW24,2*%
%TO.N,RK24_D*%
X187052500Y-113085000D03*
%TD*%
%TO.P,SW19,1*%
%TO.N,R_COL2*%
X88627500Y-110545000D03*
%TO.P,SW19,2*%
%TO.N,RK19_D*%
X82277500Y-113085000D03*
%TD*%
%TO.P,SW16,1*%
%TO.N,R_COL7*%
X186258800Y-91495000D03*
%TO.P,SW16,2*%
%TO.N,RK16_D*%
X179908800Y-94035000D03*
%TD*%
%TO.P,SW25,1*%
%TO.N,R_COL0*%
X54972500Y-139755000D03*
%TO.P,SW25,2*%
%TO.N,RK25_D*%
X61322500Y-137215000D03*
%TD*%
%TO.P,SW22,1*%
%TO.N,R_COL5*%
X145777500Y-110545000D03*
%TO.P,SW22,2*%
%TO.N,RK22_D*%
X139427500Y-113085000D03*
%TD*%
%TO.P,SW5,1*%
%TO.N,R_COL4*%
X131490000Y-72445000D03*
%TO.P,SW5,2*%
%TO.N,RK05_D*%
X125140000Y-74985000D03*
%TD*%
%TO.P,SW9,1*%
%TO.N,R_COL0*%
X40685000Y-101655000D03*
%TO.P,SW9,2*%
%TO.N,RK09_D*%
X47035000Y-99115000D03*
%TD*%
%TO.P,SW12,1*%
%TO.N,R_COL3*%
X102915000Y-91495000D03*
%TO.P,SW12,2*%
%TO.N,RK12_D*%
X96565000Y-94035000D03*
%TD*%
%TO.P,SW7,1*%
%TO.N,R_COL6*%
X171971300Y-72445000D03*
%TO.P,SW7,2*%
%TO.N,RK07_D*%
X165621300Y-74985000D03*
%TD*%
%TO.P,SW21,1*%
%TO.N,R_COL4*%
X126727500Y-110545000D03*
%TO.P,SW21,2*%
%TO.N,RK21_D*%
X120377500Y-113085000D03*
%TD*%
%TO.P,SW17,1*%
%TO.N,R_COL0*%
X45447500Y-120705000D03*
%TO.P,SW17,2*%
%TO.N,RK17_D*%
X51797500Y-118165000D03*
%TD*%
%TO.P,SW39,1*%
%TO.N,R_COL6*%
X193402500Y-148645000D03*
%TO.P,SW39,2*%
%TO.N,RK39_D*%
X187052500Y-151185000D03*
%TD*%
%TO.P,SW6,1*%
%TO.N,R_COL5*%
X150540000Y-72445000D03*
%TO.P,SW6,2*%
%TO.N,RK06_D*%
X144190000Y-74985000D03*
%TD*%
%TO.P,SW1,1*%
%TO.N,R_COL0*%
X50210000Y-82605000D03*
%TO.P,SW1,2*%
%TO.N,RK01_D*%
X56560000Y-80065000D03*
%TD*%
D11*
%TO.P,SW_RST1,1*%
%TO.N,RST*%
X61675000Y-62150000D03*
%TO.P,SW_RST1,2*%
%TO.N,GND*%
X69425000Y-62150000D03*
%TD*%
D10*
%TO.P,SW26,1*%
%TO.N,R_COL1*%
X79102500Y-129595000D03*
%TO.P,SW26,2*%
%TO.N,RK26_D*%
X72752500Y-132135000D03*
%TD*%
%TO.P,SW10,1*%
%TO.N,R_COL1*%
X64815000Y-91495000D03*
%TO.P,SW10,2*%
%TO.N,RK10_D*%
X58465000Y-94035000D03*
%TD*%
%TO.P,SW14,1*%
%TO.N,R_COL5*%
X141015000Y-91495000D03*
%TO.P,SW14,2*%
%TO.N,RK14_D*%
X134665000Y-94035000D03*
%TD*%
%TO.P,SW4,1*%
%TO.N,R_COL3*%
X112440000Y-72445000D03*
%TO.P,SW4,2*%
%TO.N,RK04_D*%
X106090000Y-74985000D03*
%TD*%
%TO.P,SW38,1*%
%TO.N,R_COL5*%
X174352500Y-148645000D03*
%TO.P,SW38,2*%
%TO.N,RK38_D*%
X168002500Y-151185000D03*
%TD*%
D12*
%TO.P,U1,D0*%
%TO.N,N/C*%
X89030000Y-41380000D03*
%TO.P,U1,D1*%
X91570000Y-41380000D03*
%TO.P,U1,D2*%
%TO.N,R_ROW3*%
X81410000Y-41380000D03*
%TO.P,U1,D3*%
%TO.N,R_ROW0*%
X78869999Y-41380000D03*
%TO.P,U1,D4*%
%TO.N,R_ROW1*%
X76330000Y-41380000D03*
%TO.P,U1,D5*%
%TO.N,R_ROW2*%
X73789999Y-41380000D03*
%TO.P,U1,D6*%
%TO.N,N/C*%
X71250000Y-41380000D03*
%TO.P,U1,D7*%
%TO.N,R_ROW4*%
X68710000Y-41380000D03*
%TO.P,U1,D8*%
%TO.N,N/C*%
X66170000Y-41380000D03*
%TO.P,U1,D9*%
%TO.N,R_COL0*%
X63629999Y-41380000D03*
%TO.P,U1,D10*%
%TO.N,R_COL1*%
X63629999Y-56620000D03*
%TO.P,U1,D14*%
%TO.N,R_COL3*%
X68710000Y-56620000D03*
%TO.P,U1,D15*%
%TO.N,R_COL4*%
X71250000Y-56620000D03*
%TO.P,U1,D16*%
%TO.N,R_COL2*%
X66170000Y-56620000D03*
%TO.P,U1,D18*%
%TO.N,R_COL5*%
X73789999Y-56620000D03*
%TO.P,U1,D19*%
%TO.N,R_COL6*%
X76330000Y-56620000D03*
%TO.P,U1,D20*%
%TO.N,R_COL8*%
X78869999Y-56620000D03*
%TO.P,U1,D21*%
%TO.N,R_COL7*%
X81410000Y-56620000D03*
%TO.P,U1,GND_A*%
%TO.N,N/C*%
X86490000Y-41380000D03*
%TO.P,U1,GND_B*%
X83949999Y-41380000D03*
%TO.P,U1,GND_C*%
%TO.N,GND*%
X89030000Y-56620000D03*
%TO.P,U1,RAW*%
%TO.N,N/C*%
X91570000Y-56620000D03*
%TO.P,U1,RST*%
%TO.N,RST*%
X86490000Y-56620000D03*
%TO.P,U1,VCC*%
%TO.N,N/C*%
X83949999Y-56620000D03*
%TD*%
D10*
%TO.P,SW31,1*%
%TO.N,R_COL6*%
X174352500Y-129595000D03*
%TO.P,SW31,2*%
%TO.N,RK31_D*%
X168002500Y-132135000D03*
%TD*%
%TO.P,SW27,1*%
%TO.N,R_COL2*%
X98152500Y-129595000D03*
%TO.P,SW27,2*%
%TO.N,RK27_D*%
X91802500Y-132135000D03*
%TD*%
%TO.P,SW15,1*%
%TO.N,R_COL6*%
X160065000Y-91495000D03*
%TO.P,SW15,2*%
%TO.N,RK15_D*%
X153715000Y-94035000D03*
%TD*%
%TO.P,SW20,1*%
%TO.N,R_COL3*%
X107677500Y-110545000D03*
%TO.P,SW20,2*%
%TO.N,RK20_D*%
X101327500Y-113085000D03*
%TD*%
%TO.P,SW2,1*%
%TO.N,R_COL1*%
X74340000Y-72445000D03*
%TO.P,SW2,2*%
%TO.N,RK02_D*%
X67990000Y-74985000D03*
%TD*%
%TO.P,SW29,1*%
%TO.N,R_COL4*%
X136252500Y-129595000D03*
%TO.P,SW29,2*%
%TO.N,RK29_D*%
X129902500Y-132135000D03*
%TD*%
%TO.P,SW35,1*%
%TO.N,R_COL2*%
X114821300Y-148645000D03*
%TO.P,SW35,2*%
%TO.N,RK35_D*%
X108471300Y-151185000D03*
%TD*%
%TO.P,SW37,1*%
%TO.N,R_COL4*%
X155302500Y-148645000D03*
%TO.P,SW37,2*%
%TO.N,RK37_D*%
X148952500Y-151185000D03*
%TD*%
%TO.P,SW32,1*%
%TO.N,R_COL7*%
X193402500Y-129595000D03*
%TO.P,SW32,2*%
%TO.N,RK32_D*%
X187052500Y-132135000D03*
%TD*%
%TO.P,SW28,1*%
%TO.N,R_COL3*%
X117202500Y-129595000D03*
%TO.P,SW28,2*%
%TO.N,RK28_D*%
X110852500Y-132135000D03*
%TD*%
%TO.P,SW8,1*%
%TO.N,R_COL7*%
X193402500Y-72445000D03*
%TO.P,SW8,2*%
%TO.N,RK08_D*%
X187052500Y-74985000D03*
%TD*%
%TO.P,SW30,1*%
%TO.N,R_COL5*%
X155302500Y-129595000D03*
%TO.P,SW30,2*%
%TO.N,RK30_D*%
X148952500Y-132135000D03*
%TD*%
%TO.P,SW13,1*%
%TO.N,R_COL4*%
X121965000Y-91495000D03*
%TO.P,SW13,2*%
%TO.N,RK13_D*%
X115615000Y-94035000D03*
%TD*%
%TO.P,SW33,1*%
%TO.N,R_COL0*%
X54972500Y-158805000D03*
%TO.P,SW33,2*%
%TO.N,RK33_D*%
X61322500Y-156265000D03*
%TD*%
%TO.P,SW23,1*%
%TO.N,R_COL6*%
X169590000Y-110545000D03*
%TO.P,SW23,2*%
%TO.N,RK23_D*%
X163240000Y-113085000D03*
%TD*%
%TO.P,SW18,1*%
%TO.N,R_COL1*%
X69577500Y-110545000D03*
%TO.P,SW18,2*%
%TO.N,RK18_D*%
X63227500Y-113085000D03*
%TD*%
%TO.P,SW11,1*%
%TO.N,R_COL2*%
X83865000Y-91495000D03*
%TO.P,SW11,2*%
%TO.N,RK11_D*%
X77515000Y-94035000D03*
%TD*%
%TO.P,SW36,1*%
%TO.N,R_COL3*%
X136252500Y-148645000D03*
%TO.P,SW36,2*%
%TO.N,RK36_D*%
X129902500Y-151185000D03*
%TD*%
%TO.P,SW34,1*%
%TO.N,R_COL1*%
X86246300Y-148645000D03*
%TO.P,SW34,2*%
%TO.N,RK34_D*%
X79896300Y-151185000D03*
%TD*%
%TO.P,SW3,1*%
%TO.N,R_COL2*%
X93390000Y-72445000D03*
%TO.P,SW3,2*%
%TO.N,RK03_D*%
X87040000Y-74985000D03*
%TD*%
D13*
%TO.N,R_COL7*%
X92664400Y-97697100D03*
%TO.N,R_COL2*%
X88627500Y-101309900D03*
%TO.N,R_COL5*%
X137815000Y-87780900D03*
X173420200Y-144688900D03*
X148469200Y-85922700D03*
%TO.N,R_COL4*%
X122861700Y-87848100D03*
X155617600Y-144710300D03*
X134847900Y-124798700D03*
%TO.N,RK05_D*%
X122063400Y-71413800D03*
%TO.N,R_COL3*%
X134847900Y-144703200D03*
X117446800Y-132662800D03*
X96170000Y-75366200D03*
X107677500Y-101309900D03*
%TO.N,R_COL6*%
X174352500Y-121862600D03*
%TO.N,RK07_D*%
X162183800Y-71166800D03*
%TO.N,RK06_D*%
X140777400Y-71180300D03*
%TO.N,RST*%
X62810700Y-53633100D03*
%TO.N,GND*%
X69593100Y-53108100D03*
%TO.N,R_COL1*%
X69577500Y-101309900D03*
%TO.N,RK26_D*%
X71244700Y-129767300D03*
%TO.N,R_ROW3*%
X93756100Y-124366600D03*
%TO.N,R_ROW0*%
X102983700Y-71667400D03*
X93609900Y-74279400D03*
X83936300Y-70364000D03*
%TO.N,R_ROW1*%
X78473000Y-89565500D03*
%TO.N,R_ROW2*%
X72538800Y-107536000D03*
%TO.N,R_ROW4*%
X72538800Y-145351400D03*
%TO.N,RK08_D*%
X184215600Y-71125400D03*
%TD*%
%TO.N,R_COL7*%
D14*
X193944900Y-111087400D02*
X193944900Y-129052600D01*
X88798300Y-93831000D02*
X92664400Y-97697100D01*
X193402500Y-110545000D02*
X193944900Y-111087400D01*
X88798300Y-81354200D02*
X88798300Y-93831000D01*
X81410000Y-75182200D02*
X85261400Y-79033600D01*
X92664400Y-97697100D02*
X92664400Y-97976700D01*
X85261400Y-79033600D02*
X86477700Y-79033600D01*
X81410000Y-56620000D02*
X81410000Y-75182200D01*
X86477700Y-79033600D02*
X88798300Y-81354200D01*
X193944900Y-129052600D02*
X193402500Y-129595000D01*
X92664400Y-97976700D02*
X92664400Y-97697100D01*
%TO.N,R_COL2*%
X98152500Y-130087400D02*
X114821300Y-146756200D01*
X89529100Y-111446600D02*
X89529100Y-120990400D01*
X88627500Y-101309900D02*
X88627500Y-110545000D01*
X83865000Y-91495000D02*
X88627500Y-96257500D01*
X114821300Y-146756200D02*
X114821300Y-148645000D01*
X98133700Y-129595000D02*
X98152500Y-129595000D01*
X88627500Y-96257500D02*
X88627500Y-101309900D01*
X88627500Y-110545000D02*
X89529100Y-111446600D01*
X89529100Y-120990400D02*
X98133700Y-129595000D01*
X98152500Y-129595000D02*
X98152500Y-130087400D01*
%TO.N,R_COL0*%
X54972500Y-158805000D02*
X54430100Y-158262600D01*
X49646600Y-82041600D02*
X50210000Y-82605000D01*
X53889200Y-129146700D02*
X53889200Y-138671700D01*
X54430100Y-140297400D02*
X54972500Y-139755000D01*
X63630000Y-41380000D02*
X60499800Y-44510200D01*
X40685000Y-101655000D02*
X40685000Y-115942500D01*
X59290500Y-68715900D02*
X54138500Y-73867900D01*
X49646600Y-76275200D02*
X49646600Y-82041600D01*
X60499800Y-44510200D02*
X60499800Y-58450200D01*
X52053900Y-73867900D02*
X49646600Y-76275200D01*
X45447500Y-120705000D02*
X53889200Y-129146700D01*
X54430100Y-158262600D02*
X54430100Y-140297400D01*
X53889200Y-138671700D02*
X54972500Y-139755000D01*
X40685000Y-115942500D02*
X45447500Y-120705000D01*
X60499800Y-58450200D02*
X59290500Y-59659500D01*
X54138500Y-73867900D02*
X52053900Y-73867900D01*
X59290500Y-59659500D02*
X59290500Y-68715900D01*
%TO.N,R_COL5*%
X143197300Y-93677300D02*
X145777500Y-96257500D01*
X174352500Y-145621200D02*
X173420200Y-144688900D01*
X145777500Y-109075400D02*
X145777500Y-110545000D01*
X155302500Y-115537300D02*
X155302500Y-129595000D01*
X141015000Y-90980900D02*
X141015000Y-91495000D01*
X145777500Y-96257500D02*
X145777500Y-109075400D01*
X137815000Y-87780900D02*
X141015000Y-90980900D01*
X148840600Y-109075400D02*
X155302500Y-115537300D01*
X174352500Y-148645000D02*
X174352500Y-145621200D01*
X148469200Y-88405400D02*
X143197300Y-93677300D01*
X141015000Y-91495000D02*
X143197300Y-93677300D01*
X145777500Y-109075400D02*
X148840600Y-109075400D01*
X148469200Y-85922700D02*
X148469200Y-88405400D01*
%TO.N,R_COL4*%
X122699600Y-91495000D02*
X122699600Y-88010200D01*
X155617600Y-144710300D02*
X155302500Y-145025400D01*
X121965000Y-91495000D02*
X122699600Y-91495000D01*
X134847900Y-124798700D02*
X136252500Y-126203300D01*
X155302500Y-145025400D02*
X155302500Y-148645000D01*
X122699600Y-88010200D02*
X122861700Y-87848100D01*
X122699600Y-91495000D02*
X122699600Y-106517100D01*
X136252500Y-126203300D02*
X136252500Y-129595000D01*
X122699600Y-106517100D02*
X126727500Y-110545000D01*
%TO.N,RK05_D*%
X122063400Y-71413800D02*
X125140000Y-74490400D01*
X125140000Y-74490400D02*
X125140000Y-74985000D01*
%TO.N,R_COL3*%
X105135600Y-93715600D02*
X102915000Y-91495000D01*
X112968500Y-85882700D02*
X105135600Y-93715600D01*
X117446800Y-132662800D02*
X117446800Y-129839300D01*
X112968500Y-72973500D02*
X112968500Y-85882700D01*
X97819500Y-86399500D02*
X102915000Y-91495000D01*
X112440000Y-72445000D02*
X112968500Y-72973500D01*
X117446800Y-129839300D02*
X117202500Y-129595000D01*
X96170000Y-75366200D02*
X97819500Y-77015700D01*
X107677500Y-96257500D02*
X105135600Y-93715600D01*
X97819500Y-77015700D02*
X97819500Y-86399500D01*
X107677500Y-101309900D02*
X107677500Y-96257500D01*
X136252500Y-148645000D02*
X134847900Y-147240400D01*
X107677500Y-110545000D02*
X107677500Y-101309900D01*
X134847900Y-147240400D02*
X134847900Y-144703200D01*
%TO.N,R_COL6*%
X174481800Y-121862600D02*
X174352500Y-121862600D01*
X174352500Y-115307500D02*
X169590000Y-110545000D01*
X169590000Y-101020000D02*
X160065000Y-91495000D01*
X174352500Y-121862600D02*
X174481800Y-121862600D01*
X174352500Y-129595000D02*
X174352500Y-121862600D01*
X169590000Y-110545000D02*
X169590000Y-101020000D01*
X174352500Y-121862600D02*
X174352500Y-115307500D01*
%TO.N,RK07_D*%
X162183800Y-71547500D02*
X162183800Y-71166800D01*
X165621300Y-74985000D02*
X162183800Y-71547500D01*
%TO.N,RK06_D*%
X140777400Y-70875000D02*
X140777400Y-71180300D01*
X140777400Y-71180300D02*
X144190000Y-74592900D01*
X140777400Y-71180300D02*
X140777400Y-70875000D01*
X144190000Y-74592900D02*
X144190000Y-74985000D01*
%TO.N,RST*%
D15*
X61675000Y-62150000D02*
X61675000Y-54768800D01*
X61675000Y-54768800D02*
X62810700Y-53633100D01*
%TO.N,GND*%
X69425000Y-62150000D02*
X69425000Y-61323300D01*
X69980000Y-53495000D02*
X69593100Y-53108100D01*
X69425000Y-61323300D02*
X69980000Y-60768300D01*
X69980000Y-60768300D02*
X69980000Y-53495000D01*
%TO.N,R_COL1*%
D14*
X69577500Y-101309900D02*
X69577500Y-110545000D01*
X64815000Y-91495000D02*
X69577500Y-96257500D01*
X69577500Y-96257500D02*
X69577500Y-101309900D01*
X86246300Y-148645000D02*
X86246300Y-136738800D01*
X63630000Y-61735000D02*
X74340000Y-72445000D01*
X63630000Y-56620000D02*
X63630000Y-61735000D01*
X86246300Y-136738800D02*
X79102500Y-129595000D01*
%TO.N,RK26_D*%
X71244700Y-130627200D02*
X71244700Y-129767300D01*
X72752500Y-132135000D02*
X71244700Y-130627200D01*
%TO.N,R_ROW3*%
X85151700Y-40840600D02*
X85151700Y-66672000D01*
X85151700Y-66672000D02*
X93910300Y-75430600D01*
X84442100Y-40131000D02*
X85151700Y-40840600D01*
X93287400Y-85512600D02*
X93287400Y-123897900D01*
X82659000Y-40131000D02*
X84442100Y-40131000D01*
X93287400Y-123897900D02*
X93756100Y-124366600D01*
X81410000Y-41380000D02*
X82659000Y-40131000D01*
X93910300Y-75430600D02*
X93910300Y-84889700D01*
X93910300Y-84889700D02*
X93287400Y-85512600D01*
%TO.N,R_ROW0*%
X82680000Y-45190000D02*
X82680000Y-69107700D01*
X78870000Y-41380000D02*
X82680000Y-45190000D01*
X93609900Y-74279400D02*
X100371700Y-74279400D01*
X82680000Y-69107700D02*
X83936300Y-70364000D01*
X100371700Y-74279400D02*
X102983700Y-71667400D01*
%TO.N,R_ROW1*%
X77599900Y-42649900D02*
X76330000Y-41380000D01*
X78473000Y-89565500D02*
X78774300Y-89264200D01*
X78774300Y-89264200D02*
X78774300Y-71173400D01*
X77599900Y-69999000D02*
X77599900Y-42649900D01*
X78774300Y-71173400D02*
X77599900Y-69999000D01*
%TO.N,R_ROW2*%
X72588200Y-42581800D02*
X72588200Y-65891600D01*
X78322900Y-78675100D02*
X74274800Y-82723200D01*
X74274800Y-82723200D02*
X74274800Y-97461400D01*
X73790000Y-41380000D02*
X72588200Y-42581800D01*
X72588200Y-65891600D02*
X78322900Y-71626300D01*
X78322900Y-71626300D02*
X78322900Y-78675100D01*
X72538800Y-99197400D02*
X72538800Y-107536000D01*
X74274800Y-97461400D02*
X72538800Y-99197400D01*
%TO.N,R_ROW4*%
X73534600Y-109431600D02*
X73534600Y-126626600D01*
X71856000Y-91775000D02*
X71856000Y-107753000D01*
X62418400Y-61089200D02*
X62874700Y-61545500D01*
X62874700Y-82793700D02*
X71856000Y-91775000D01*
X68710000Y-41380000D02*
X68710000Y-48888700D01*
X62874700Y-61545500D02*
X62874700Y-82793700D01*
X68710000Y-48888700D02*
X62418400Y-55180300D01*
X73534600Y-126626600D02*
X69507700Y-130653500D01*
X69507700Y-130653500D02*
X69507700Y-142320300D01*
X62418400Y-55180300D02*
X62418400Y-61089200D01*
X71856000Y-107753000D02*
X73534600Y-109431600D01*
X69507700Y-142320300D02*
X72538800Y-145351400D01*
%TO.N,RK08_D*%
X187052500Y-73962300D02*
X187052500Y-74985000D01*
X184215600Y-71125400D02*
X187052500Y-73962300D01*
%TD*%
M02*
