%TF.GenerationSoftware,KiCad,Pcbnew,10.0.3*%
%TF.CreationDate,2026-08-25T02:24:57+09:00*%
%TF.ProjectId,kc2_right-x3-v2,6b63325f-7269-4676-9874-2d78332d7632,draft-v2*%
%TF.SameCoordinates,Original*%
%TF.FileFunction,Copper,L2,Bot*%
%TF.FilePolarity,Positive*%
%FSLAX46Y46*%
G04 Gerber Fmt 4.6, Leading zero omitted, Abs format (unit mm)*
G04 Created by KiCad (PCBNEW 10.0.3) date 2026-08-25 02:24:57*
%MOMM*%
%LPD*%
G01*
G04 APERTURE LIST*
G04 Aperture macros list*
%AMRoundRect*
0 Rectangle with rounded corners*
0 $1 Rounding radius*
0 $2 $3 $4 $5 $6 $7 $8 $9 X,Y pos of 4 corners*
0 Add a 4 corners polygon primitive as box body*
4,1,4,$2,$3,$4,$5,$6,$7,$8,$9,$2,$3,0*
0 Add four circle primitives for the rounded corners*
1,1,$1+$1,$2,$3*
1,1,$1+$1,$4,$5*
1,1,$1+$1,$6,$7*
1,1,$1+$1,$8,$9*
0 Add four rect primitives between the rounded corners*
20,1,$1+$1,$2,$3,$4,$5,0*
20,1,$1+$1,$4,$5,$6,$7,0*
20,1,$1+$1,$6,$7,$8,$9,0*
20,1,$1+$1,$8,$9,$2,$3,0*%
G04 Aperture macros list end*
%TA.AperFunction,ComponentPad*%
%ADD10C,2.500000*%
%TD*%
%TA.AperFunction,SMDPad,CuDef*%
%ADD11RoundRect,0.520000X0.780000X0.780000X-0.780000X0.780000X-0.780000X-0.780000X0.780000X-0.780000X0*%
%TD*%
%TA.AperFunction,SMDPad,CuDef*%
%ADD12RoundRect,0.520000X-0.780000X-0.780000X0.780000X-0.780000X0.780000X0.780000X-0.780000X0.780000X0*%
%TD*%
%TA.AperFunction,ComponentPad*%
%ADD13C,1.800000*%
%TD*%
%TA.AperFunction,SMDPad,CuDef*%
%ADD14RoundRect,0.250000X0.650000X0.650000X-0.650000X0.650000X-0.650000X-0.650000X0.650000X-0.650000X0*%
%TD*%
%TA.AperFunction,SMDPad,CuDef*%
%ADD15RoundRect,0.250000X-0.650000X0.650000X-0.650000X-0.650000X0.650000X-0.650000X0.650000X0.650000X0*%
%TD*%
%TA.AperFunction,SMDPad,CuDef*%
%ADD16RoundRect,0.250000X0.650000X-0.650000X0.650000X0.650000X-0.650000X0.650000X-0.650000X-0.650000X0*%
%TD*%
%TA.AperFunction,ViaPad*%
%ADD17C,0.600000*%
%TD*%
%TA.AperFunction,Conductor*%
%ADD18C,0.250000*%
%TD*%
G04 APERTURE END LIST*
D10*
%TO.P,SW33,1*%
%TO.N,R_COL0*%
X54772500Y-158805000D03*
D11*
X53612500Y-147825000D03*
%TO.P,SW33,2*%
%TO.N,RK33_D*%
X66012500Y-149925000D03*
D10*
X61122500Y-156265000D03*
%TD*%
%TO.P,SW30,1*%
%TO.N,R_COL5*%
X155102500Y-129595000D03*
D12*
X156262500Y-140575000D03*
%TO.P,SW30,2*%
%TO.N,RK30_D*%
X143862500Y-138475000D03*
D10*
X148752500Y-132135000D03*
%TD*%
%TO.P,SW22,1*%
%TO.N,R_COL5*%
X145577500Y-110545000D03*
D12*
X146737500Y-121525000D03*
%TO.P,SW22,2*%
%TO.N,RK22_D*%
X134337500Y-119425000D03*
D10*
X139227500Y-113085000D03*
%TD*%
%TO.P,SW26,1*%
%TO.N,R_COL1*%
X78902500Y-129595000D03*
D12*
X80062500Y-140575000D03*
%TO.P,SW26,2*%
%TO.N,RK26_D*%
X67662500Y-138475000D03*
D10*
X72552500Y-132135000D03*
%TD*%
%TO.P,SW2,1*%
%TO.N,R_COL1*%
X74140000Y-72445000D03*
D12*
X75300000Y-83425000D03*
%TO.P,SW2,2*%
%TO.N,RK02_D*%
X62900000Y-81325000D03*
D10*
X67790000Y-74985000D03*
%TD*%
%TO.P,SW34,1*%
%TO.N,R_COL1*%
X86046300Y-148645000D03*
D12*
X87206300Y-159625000D03*
%TO.P,SW34,2*%
%TO.N,RK34_D*%
X74806300Y-157525000D03*
D10*
X79696300Y-151185000D03*
%TD*%
%TO.P,SW20,1*%
%TO.N,R_COL3*%
X107477500Y-110545000D03*
D12*
X108637500Y-121525000D03*
%TO.P,SW20,2*%
%TO.N,RK20_D*%
X96237500Y-119425000D03*
D10*
X101127500Y-113085000D03*
%TD*%
D13*
%TO.P,U1,D0*%
%TO.N,N/C*%
X88830000Y-41380000D03*
%TO.P,U1,D1*%
X91370000Y-41380000D03*
%TO.P,U1,D2*%
%TO.N,R_ROW3*%
X81210000Y-41380000D03*
%TO.P,U1,D3*%
%TO.N,R_ROW0*%
X78670000Y-41380000D03*
%TO.P,U1,D4*%
%TO.N,R_ROW1*%
X76130000Y-41380000D03*
%TO.P,U1,D5*%
%TO.N,R_ROW2*%
X73590000Y-41380000D03*
%TO.P,U1,D6*%
%TO.N,N/C*%
X71050000Y-41380000D03*
%TO.P,U1,D7*%
%TO.N,R_ROW4*%
X68510000Y-41380000D03*
%TO.P,U1,D8*%
%TO.N,N/C*%
X65970000Y-41380000D03*
%TO.P,U1,D9*%
%TO.N,R_COL0*%
X63430000Y-41380000D03*
%TO.P,U1,D10*%
%TO.N,R_COL1*%
X63430000Y-56620000D03*
%TO.P,U1,D14*%
%TO.N,R_COL3*%
X68510000Y-56620000D03*
%TO.P,U1,D15*%
%TO.N,R_COL4*%
X71050000Y-56620000D03*
%TO.P,U1,D16*%
%TO.N,R_COL2*%
X65970000Y-56620000D03*
%TO.P,U1,D18*%
%TO.N,R_COL5*%
X73590000Y-56620000D03*
%TO.P,U1,D19*%
%TO.N,R_COL6*%
X76130000Y-56620000D03*
%TO.P,U1,D20*%
%TO.N,R_COL8*%
X78670000Y-56620000D03*
%TO.P,U1,D21*%
%TO.N,R_COL7*%
X81210000Y-56620000D03*
%TO.P,U1,GND_A*%
%TO.N,N/C*%
X86290000Y-41380000D03*
%TO.P,U1,GND_B*%
X83750000Y-41380000D03*
%TO.P,U1,GND_C*%
%TO.N,GND*%
X88830000Y-56620000D03*
%TO.P,U1,RAW*%
%TO.N,N/C*%
X91370000Y-56620000D03*
%TO.P,U1,RST*%
%TO.N,RST*%
X86290000Y-56620000D03*
%TO.P,U1,VCC*%
%TO.N,N/C*%
X83750000Y-56620000D03*
%TD*%
D10*
%TO.P,SW14,1*%
%TO.N,R_COL5*%
X140815000Y-91495000D03*
D12*
X141975000Y-102475000D03*
%TO.P,SW14,2*%
%TO.N,RK14_D*%
X129575000Y-100375000D03*
D10*
X134465000Y-94035000D03*
%TD*%
%TO.P,SW27,1*%
%TO.N,R_COL2*%
X97952500Y-129595000D03*
D12*
X99112500Y-140575000D03*
%TO.P,SW27,2*%
%TO.N,RK27_D*%
X86712500Y-138475000D03*
D10*
X91602500Y-132135000D03*
%TD*%
%TO.P,SW28,1*%
%TO.N,R_COL3*%
X117002500Y-129595000D03*
D12*
X118162500Y-140575000D03*
%TO.P,SW28,2*%
%TO.N,RK28_D*%
X105762500Y-138475000D03*
D10*
X110652500Y-132135000D03*
%TD*%
%TO.P,SW4,1*%
%TO.N,R_COL3*%
X112240000Y-72445000D03*
D12*
X113400000Y-83425000D03*
%TO.P,SW4,2*%
%TO.N,RK04_D*%
X101000000Y-81325000D03*
D10*
X105890000Y-74985000D03*
%TD*%
%TO.P,SW3,1*%
%TO.N,R_COL2*%
X93190000Y-72445000D03*
D12*
X94350000Y-83425000D03*
%TO.P,SW3,2*%
%TO.N,RK03_D*%
X81950000Y-81325000D03*
D10*
X86840000Y-74985000D03*
%TD*%
%TO.P,SW7,1*%
%TO.N,R_COL6*%
X171771300Y-72445000D03*
D12*
X172931300Y-83425000D03*
%TO.P,SW7,2*%
%TO.N,RK07_D*%
X160531300Y-81325000D03*
D10*
X165421300Y-74985000D03*
%TD*%
%TO.P,SW11,1*%
%TO.N,R_COL2*%
X83665000Y-91495000D03*
D12*
X84825000Y-102475000D03*
%TO.P,SW11,2*%
%TO.N,RK11_D*%
X72425000Y-100375000D03*
D10*
X77315000Y-94035000D03*
%TD*%
%TO.P,SW32,1*%
%TO.N,R_COL7*%
X193202500Y-129595000D03*
D12*
X194362500Y-140575000D03*
%TO.P,SW32,2*%
%TO.N,RK32_D*%
X181962500Y-138475000D03*
D10*
X186852500Y-132135000D03*
%TD*%
%TO.P,SW12,1*%
%TO.N,R_COL3*%
X102715000Y-91495000D03*
D12*
X103875000Y-102475000D03*
%TO.P,SW12,2*%
%TO.N,RK12_D*%
X91475000Y-100375000D03*
D10*
X96365000Y-94035000D03*
%TD*%
%TO.P,SW6,1*%
%TO.N,R_COL5*%
X150340000Y-72445000D03*
D12*
X151500000Y-83425000D03*
%TO.P,SW6,2*%
%TO.N,RK06_D*%
X139100000Y-81325000D03*
D10*
X143990000Y-74985000D03*
%TD*%
%TO.P,SW9,1*%
%TO.N,R_COL0*%
X40485000Y-101655000D03*
D11*
X39325000Y-90675000D03*
%TO.P,SW9,2*%
%TO.N,RK09_D*%
X51725000Y-92775000D03*
D10*
X46835000Y-99115000D03*
%TD*%
%TO.P,SW36,1*%
%TO.N,R_COL3*%
X136052500Y-148645000D03*
D12*
X137212500Y-159625000D03*
%TO.P,SW36,2*%
%TO.N,RK36_D*%
X124812500Y-157525000D03*
D10*
X129702500Y-151185000D03*
%TD*%
%TO.P,SW17,1*%
%TO.N,R_COL0*%
X45247500Y-120705000D03*
D11*
X44087500Y-109725000D03*
%TO.P,SW17,2*%
%TO.N,RK17_D*%
X56487500Y-111825000D03*
D10*
X51597500Y-118165000D03*
%TD*%
%TO.P,SW16,1*%
%TO.N,R_COL7*%
X186058800Y-91495000D03*
D12*
X187218800Y-102475000D03*
%TO.P,SW16,2*%
%TO.N,RK16_D*%
X174818800Y-100375000D03*
D10*
X179708800Y-94035000D03*
%TD*%
%TO.P,SW13,1*%
%TO.N,R_COL4*%
X121765000Y-91495000D03*
D12*
X122925000Y-102475000D03*
%TO.P,SW13,2*%
%TO.N,RK13_D*%
X110525000Y-100375000D03*
D10*
X115415000Y-94035000D03*
%TD*%
%TO.P,SW31,1*%
%TO.N,R_COL6*%
X174152500Y-129595000D03*
D12*
X175312500Y-140575000D03*
%TO.P,SW31,2*%
%TO.N,RK31_D*%
X162912500Y-138475000D03*
D10*
X167802500Y-132135000D03*
%TD*%
%TO.P,SW15,1*%
%TO.N,R_COL6*%
X159865000Y-91495000D03*
D12*
X161025000Y-102475000D03*
%TO.P,SW15,2*%
%TO.N,RK15_D*%
X148625000Y-100375000D03*
D10*
X153515000Y-94035000D03*
%TD*%
%TO.P,SW29,1*%
%TO.N,R_COL4*%
X136052500Y-129595000D03*
D12*
X137212500Y-140575000D03*
%TO.P,SW29,2*%
%TO.N,RK29_D*%
X124812500Y-138475000D03*
D10*
X129702500Y-132135000D03*
%TD*%
%TO.P,SW39,1*%
%TO.N,R_COL6*%
X193202500Y-148645000D03*
D12*
X194362500Y-159625000D03*
%TO.P,SW39,2*%
%TO.N,RK39_D*%
X181962500Y-157525000D03*
D10*
X186852500Y-151185000D03*
%TD*%
%TO.P,SW23,1*%
%TO.N,R_COL6*%
X169390000Y-110545000D03*
D12*
X170550000Y-121525000D03*
%TO.P,SW23,2*%
%TO.N,RK23_D*%
X158150000Y-119425000D03*
D10*
X163040000Y-113085000D03*
%TD*%
%TO.P,SW19,1*%
%TO.N,R_COL2*%
X88427500Y-110545000D03*
D12*
X89587500Y-121525000D03*
%TO.P,SW19,2*%
%TO.N,RK19_D*%
X77187500Y-119425000D03*
D10*
X82077500Y-113085000D03*
%TD*%
%TO.P,SW35,1*%
%TO.N,R_COL2*%
X114621300Y-148645000D03*
D12*
X115781300Y-159625000D03*
%TO.P,SW35,2*%
%TO.N,RK35_D*%
X103381300Y-157525000D03*
D10*
X108271300Y-151185000D03*
%TD*%
%TO.P,SW1,1*%
%TO.N,R_COL0*%
X50010000Y-82605000D03*
D11*
X48850000Y-71625000D03*
%TO.P,SW1,2*%
%TO.N,RK01_D*%
X61250000Y-73725000D03*
D10*
X56360000Y-80065000D03*
%TD*%
%TO.P,SW18,1*%
%TO.N,R_COL1*%
X69377500Y-110545000D03*
D12*
X70537500Y-121525000D03*
%TO.P,SW18,2*%
%TO.N,RK18_D*%
X58137500Y-119425000D03*
D10*
X63027500Y-113085000D03*
%TD*%
%TO.P,SW5,1*%
%TO.N,R_COL4*%
X131290000Y-72445000D03*
D12*
X132450000Y-83425000D03*
%TO.P,SW5,2*%
%TO.N,RK05_D*%
X120050000Y-81325000D03*
D10*
X124940000Y-74985000D03*
%TD*%
%TO.P,SW10,1*%
%TO.N,R_COL1*%
X64615000Y-91495000D03*
D12*
X65775000Y-102475000D03*
%TO.P,SW10,2*%
%TO.N,RK10_D*%
X53375000Y-100375000D03*
D10*
X58265000Y-94035000D03*
%TD*%
%TO.P,SW8,1*%
%TO.N,R_COL7*%
X193202500Y-72445000D03*
D12*
X194362500Y-83425000D03*
%TO.P,SW8,2*%
%TO.N,RK08_D*%
X181962500Y-81325000D03*
D10*
X186852500Y-74985000D03*
%TD*%
%TO.P,SW25,1*%
%TO.N,R_COL0*%
X54772500Y-139755000D03*
D11*
X53612500Y-128775000D03*
%TO.P,SW25,2*%
%TO.N,RK25_D*%
X66012500Y-130875000D03*
D10*
X61122500Y-137215000D03*
%TD*%
%TO.P,SW37,1*%
%TO.N,R_COL4*%
X155102500Y-148645000D03*
D12*
X156262500Y-159625000D03*
%TO.P,SW37,2*%
%TO.N,RK37_D*%
X143862500Y-157525000D03*
D10*
X148752500Y-151185000D03*
%TD*%
%TO.P,SW24,1*%
%TO.N,R_COL7*%
X193202500Y-110545000D03*
D12*
X194362500Y-121525000D03*
%TO.P,SW24,2*%
%TO.N,RK24_D*%
X181962500Y-119425000D03*
D10*
X186852500Y-113085000D03*
%TD*%
%TO.P,SW38,1*%
%TO.N,R_COL5*%
X174152500Y-148645000D03*
D12*
X175312500Y-159625000D03*
%TO.P,SW38,2*%
%TO.N,RK38_D*%
X162912500Y-157525000D03*
D10*
X167802500Y-151185000D03*
%TD*%
%TO.P,SW21,1*%
%TO.N,R_COL4*%
X126527500Y-110545000D03*
D12*
X127687500Y-121525000D03*
%TO.P,SW21,2*%
%TO.N,RK21_D*%
X115287500Y-119425000D03*
D10*
X120177500Y-113085000D03*
%TD*%
D14*
%TO.P,D25,1*%
%TO.N,R_ROW3*%
X66412500Y-141675000D03*
%TO.P,D25,2*%
%TO.N,RK25_D*%
X62212500Y-141675000D03*
%TD*%
%TO.P,D27,1*%
%TO.N,R_ROW3*%
X90512500Y-127675000D03*
%TO.P,D27,2*%
%TO.N,RK27_D*%
X86312500Y-127675000D03*
%TD*%
%TO.P,D20,1*%
%TO.N,R_ROW2*%
X100037500Y-108625000D03*
%TO.P,D20,2*%
%TO.N,RK20_D*%
X95837500Y-108625000D03*
%TD*%
%TO.P,D15,1*%
%TO.N,R_ROW1*%
X152425000Y-89575000D03*
%TO.P,D15,2*%
%TO.N,RK15_D*%
X148225000Y-89575000D03*
%TD*%
D15*
%TO.P,D4,1*%
%TO.N,R_ROW0*%
X100950000Y-72175000D03*
%TO.P,D4,2*%
%TO.N,RK04_D*%
X100950000Y-76375000D03*
%TD*%
D14*
%TO.P,D23,1*%
%TO.N,R_ROW2*%
X161950000Y-108625000D03*
%TO.P,D23,2*%
%TO.N,RK23_D*%
X157750000Y-108625000D03*
%TD*%
%TO.P,D9,1*%
%TO.N,R_ROW1*%
X52125000Y-103575000D03*
%TO.P,D9,2*%
%TO.N,RK09_D*%
X47925000Y-103575000D03*
%TD*%
D15*
%TO.P,D3,1*%
%TO.N,R_ROW0*%
X81900000Y-72175000D03*
%TO.P,D3,2*%
%TO.N,RK03_D*%
X81900000Y-76375000D03*
%TD*%
D14*
%TO.P,D38,1*%
%TO.N,R_ROW4*%
X166712500Y-146725000D03*
%TO.P,D38,2*%
%TO.N,RK38_D*%
X162512500Y-146725000D03*
%TD*%
%TO.P,D24,1*%
%TO.N,R_ROW2*%
X185762500Y-108625000D03*
%TO.P,D24,2*%
%TO.N,RK24_D*%
X181562500Y-108625000D03*
%TD*%
D15*
%TO.P,D8,1*%
%TO.N,R_ROW0*%
X181912500Y-72175000D03*
%TO.P,D8,2*%
%TO.N,RK08_D*%
X181912500Y-76375000D03*
%TD*%
D14*
%TO.P,D26,1*%
%TO.N,R_ROW3*%
X71462500Y-127675000D03*
%TO.P,D26,2*%
%TO.N,RK26_D*%
X67262500Y-127675000D03*
%TD*%
%TO.P,D30,1*%
%TO.N,R_ROW3*%
X147662500Y-127675000D03*
%TO.P,D30,2*%
%TO.N,RK30_D*%
X143462500Y-127675000D03*
%TD*%
%TO.P,D21,1*%
%TO.N,R_ROW2*%
X119087500Y-108625000D03*
%TO.P,D21,2*%
%TO.N,RK21_D*%
X114887500Y-108625000D03*
%TD*%
%TO.P,D19,1*%
%TO.N,R_ROW2*%
X80987500Y-108625000D03*
%TO.P,D19,2*%
%TO.N,RK19_D*%
X76787500Y-108625000D03*
%TD*%
%TO.P,D31,1*%
%TO.N,R_ROW3*%
X166712500Y-127675000D03*
%TO.P,D31,2*%
%TO.N,RK31_D*%
X162512500Y-127675000D03*
%TD*%
%TO.P,D28,1*%
%TO.N,R_ROW3*%
X109562500Y-127675000D03*
%TO.P,D28,2*%
%TO.N,RK28_D*%
X105362500Y-127675000D03*
%TD*%
%TO.P,D34,1*%
%TO.N,R_ROW4*%
X78606300Y-146725000D03*
%TO.P,D34,2*%
%TO.N,RK34_D*%
X74406300Y-146725000D03*
%TD*%
%TO.P,D14,1*%
%TO.N,R_ROW1*%
X133375000Y-89575000D03*
%TO.P,D14,2*%
%TO.N,RK14_D*%
X129175000Y-89575000D03*
%TD*%
%TO.P,D22,1*%
%TO.N,R_ROW2*%
X138137500Y-108625000D03*
%TO.P,D22,2*%
%TO.N,RK22_D*%
X133937500Y-108625000D03*
%TD*%
%TO.P,D29,1*%
%TO.N,R_ROW3*%
X128612500Y-127675000D03*
%TO.P,D29,2*%
%TO.N,RK29_D*%
X124412500Y-127675000D03*
%TD*%
%TO.P,D1,1*%
%TO.N,R_ROW0*%
X61650000Y-84525000D03*
%TO.P,D1,2*%
%TO.N,RK01_D*%
X57450000Y-84525000D03*
%TD*%
D16*
%TO.P,D2,1*%
%TO.N,R_ROW0*%
X78600000Y-86625000D03*
%TO.P,D2,2*%
%TO.N,RK02_D*%
X78600000Y-82425000D03*
%TD*%
D14*
%TO.P,D32,1*%
%TO.N,R_ROW3*%
X185762500Y-127675000D03*
%TO.P,D32,2*%
%TO.N,RK32_D*%
X181562500Y-127675000D03*
%TD*%
%TO.P,D36,1*%
%TO.N,R_ROW4*%
X128612500Y-146725000D03*
%TO.P,D36,2*%
%TO.N,RK36_D*%
X124412500Y-146725000D03*
%TD*%
%TO.P,D16,1*%
%TO.N,R_ROW1*%
X178618800Y-89575000D03*
%TO.P,D16,2*%
%TO.N,RK16_D*%
X174418800Y-89575000D03*
%TD*%
%TO.P,D18,1*%
%TO.N,R_ROW2*%
X61937500Y-108625000D03*
%TO.P,D18,2*%
%TO.N,RK18_D*%
X57737500Y-108625000D03*
%TD*%
%TO.P,D10,1*%
%TO.N,R_ROW1*%
X57175000Y-89575000D03*
%TO.P,D10,2*%
%TO.N,RK10_D*%
X52975000Y-89575000D03*
%TD*%
%TO.P,D37,1*%
%TO.N,R_ROW4*%
X147662500Y-146725000D03*
%TO.P,D37,2*%
%TO.N,RK37_D*%
X143462500Y-146725000D03*
%TD*%
%TO.P,D11,1*%
%TO.N,R_ROW1*%
X76225000Y-89575000D03*
%TO.P,D11,2*%
%TO.N,RK11_D*%
X72025000Y-89575000D03*
%TD*%
D15*
%TO.P,D6,1*%
%TO.N,R_ROW0*%
X139050000Y-72175000D03*
%TO.P,D6,2*%
%TO.N,RK06_D*%
X139050000Y-76375000D03*
%TD*%
D14*
%TO.P,D12,1*%
%TO.N,R_ROW1*%
X95275000Y-89575000D03*
%TO.P,D12,2*%
%TO.N,RK12_D*%
X91075000Y-89575000D03*
%TD*%
%TO.P,D17,1*%
%TO.N,R_ROW2*%
X56887500Y-122625000D03*
%TO.P,D17,2*%
%TO.N,RK17_D*%
X52687500Y-122625000D03*
%TD*%
%TO.P,D35,1*%
%TO.N,R_ROW4*%
X107181300Y-146725000D03*
%TO.P,D35,2*%
%TO.N,RK35_D*%
X102981300Y-146725000D03*
%TD*%
%TO.P,D39,1*%
%TO.N,R_ROW4*%
X185762500Y-146725000D03*
%TO.P,D39,2*%
%TO.N,RK39_D*%
X181562500Y-146725000D03*
%TD*%
%TO.P,D13,1*%
%TO.N,R_ROW1*%
X114325000Y-89575000D03*
%TO.P,D13,2*%
%TO.N,RK13_D*%
X110125000Y-89575000D03*
%TD*%
%TO.P,D33,1*%
%TO.N,R_ROW4*%
X68912500Y-156975000D03*
%TO.P,D33,2*%
%TO.N,RK33_D*%
X64712500Y-156975000D03*
%TD*%
D15*
%TO.P,D5,1*%
%TO.N,R_ROW0*%
X120000000Y-72175000D03*
%TO.P,D5,2*%
%TO.N,RK05_D*%
X120000000Y-76375000D03*
%TD*%
%TO.P,D7,1*%
%TO.N,R_ROW0*%
X160481300Y-72175000D03*
%TO.P,D7,2*%
%TO.N,RK07_D*%
X160481300Y-76375000D03*
%TD*%
D17*
%TO.N,R_COL0*%
X60399100Y-56193100D03*
%TO.N,R_COL5*%
X95868900Y-65014900D03*
X140582100Y-87111300D03*
X173220200Y-144532100D03*
X145577500Y-101143900D03*
X152450500Y-121753300D03*
X96035100Y-86587500D03*
%TO.N,R_COL1*%
X69377500Y-101143900D03*
X73185700Y-85218600D03*
X70098500Y-121964000D03*
X71071700Y-129595000D03*
%TO.N,R_COL3*%
X132976000Y-143079900D03*
X95269100Y-54831700D03*
X113238500Y-81422000D03*
X107477500Y-101143900D03*
X117216400Y-132612200D03*
%TO.N,R_ROW3*%
X96075600Y-124697500D03*
X134874700Y-127030400D03*
X129508800Y-129999400D03*
%TO.N,R_ROW2*%
X93108500Y-107258700D03*
%TO.N,R_ROW4*%
X66138700Y-143600000D03*
%TO.N,R_COL4*%
X150870400Y-142586600D03*
X98194400Y-85363500D03*
X98194200Y-65813500D03*
X126527500Y-101143900D03*
%TO.N,R_COL2*%
X101708400Y-140053500D03*
%TO.N,R_COL6*%
X98585800Y-62869300D03*
X99100900Y-84039300D03*
X173496500Y-121753300D03*
%TO.N,R_COL7*%
X95936000Y-87538200D03*
X93094300Y-57927800D03*
%TO.N,RK18_D*%
X59931200Y-109896000D03*
%TD*%
%TO.N,R_COL0*%
D18*
X39509500Y-100679500D02*
X39509500Y-90859500D01*
X41557500Y-88442500D02*
X44172500Y-88442500D01*
X54176000Y-73831300D02*
X60399100Y-67608200D01*
X40485000Y-101655000D02*
X39509500Y-100679500D01*
X53612500Y-128775000D02*
X45542500Y-120705000D01*
X49350100Y-73831300D02*
X54176000Y-73831300D01*
X54094500Y-139077000D02*
X54094500Y-129257000D01*
X53612500Y-140915000D02*
X54772500Y-139755000D01*
X54772500Y-139755000D02*
X54094500Y-139077000D01*
X45542500Y-120705000D02*
X45247500Y-120705000D01*
X44172500Y-88442500D02*
X50010000Y-82605000D01*
X39325000Y-90675000D02*
X41557500Y-88442500D01*
X49350100Y-81945100D02*
X50010000Y-82605000D01*
X60399100Y-67608200D02*
X60399100Y-56193100D01*
X54094500Y-129257000D02*
X53612500Y-128775000D01*
X49350100Y-72125100D02*
X49350100Y-73831300D01*
X44087500Y-109725000D02*
X44087500Y-105257500D01*
X39509500Y-90859500D02*
X39325000Y-90675000D01*
X53612500Y-147825000D02*
X53612500Y-140915000D01*
X48850000Y-71625000D02*
X49350100Y-72125100D01*
X44087500Y-105257500D02*
X40485000Y-101655000D01*
X49350100Y-73831300D02*
X49350100Y-81945100D01*
%TO.N,RK33_D*%
X61122500Y-156265000D02*
X64002500Y-156265000D01*
X64002500Y-151935000D02*
X66012500Y-149925000D01*
X64002500Y-156265000D02*
X64002500Y-151935000D01*
X64002500Y-156265000D02*
X64712500Y-156975000D01*
%TO.N,R_COL5*%
X175112300Y-149604800D02*
X174152500Y-148645000D01*
X145577500Y-110545000D02*
X146553100Y-111520600D01*
X96434100Y-86986500D02*
X96035100Y-86587500D01*
X175312500Y-159625000D02*
X175112300Y-159424800D01*
X140457300Y-86986500D02*
X96434100Y-86986500D01*
X146737500Y-121525000D02*
X152222200Y-121525000D01*
X140582100Y-87111300D02*
X140582100Y-86986500D01*
X140582100Y-86986500D02*
X140582100Y-87111300D01*
X173220200Y-144532100D02*
X160219600Y-144532100D01*
X141975000Y-102475000D02*
X143306100Y-101143900D01*
X150340000Y-72445000D02*
X151315600Y-73420600D01*
X146553100Y-121340600D02*
X146737500Y-121525000D01*
X151315600Y-73420600D02*
X151315600Y-83240600D01*
X143306100Y-101143900D02*
X145577500Y-101143900D01*
X146553100Y-111520600D02*
X146553100Y-121340600D01*
X151315600Y-83240600D02*
X151500000Y-83425000D01*
X152222200Y-121525000D02*
X152450500Y-121753300D01*
X81984900Y-65014900D02*
X73590000Y-56620000D01*
X155102500Y-129595000D02*
X156078100Y-130570600D01*
X95868900Y-65014900D02*
X81984900Y-65014900D01*
X156078100Y-130570600D02*
X156078100Y-140390600D01*
X156078100Y-140390600D02*
X156262500Y-140575000D01*
X140582100Y-87111300D02*
X140457300Y-86986500D01*
X160219600Y-144532100D02*
X156262500Y-140575000D01*
X175112300Y-159424800D02*
X175112300Y-149604800D01*
%TO.N,RK30_D*%
X144292500Y-127675000D02*
X143462500Y-127675000D01*
X147797800Y-132135000D02*
X148752500Y-132135000D01*
X148752500Y-132135000D02*
X144292500Y-127675000D01*
X147000000Y-132500000D02*
X147797800Y-132134999D01*
X145500000Y-135000000D02*
X147000000Y-132500000D01*
X143862500Y-138475000D02*
X143862500Y-136070300D01*
X143862500Y-136070300D02*
X145500000Y-135000000D01*
%TO.N,RK22_D*%
X138345000Y-113032500D02*
X138397500Y-113085000D01*
X134337500Y-117040000D02*
X134337500Y-119425000D01*
X138345000Y-113032500D02*
X134337500Y-117040000D01*
X138397500Y-113085000D02*
X139227500Y-113085000D01*
X133937500Y-108625000D02*
X138345000Y-113032500D01*
%TO.N,R_COL1*%
X63430000Y-56620000D02*
X74140000Y-67330000D01*
X87006100Y-159424800D02*
X87006100Y-149604800D01*
X73185700Y-85218600D02*
X74979300Y-83425000D01*
X71071700Y-129595000D02*
X78902500Y-129595000D01*
X65775000Y-102475000D02*
X67106100Y-101143900D01*
X75099800Y-73404800D02*
X74140000Y-72445000D01*
X67106100Y-101143900D02*
X69377500Y-101143900D01*
X70353100Y-111520600D02*
X70353100Y-121340600D01*
X87006100Y-149604800D02*
X86046300Y-148645000D01*
X70537500Y-121525000D02*
X70098500Y-121964000D01*
X74140000Y-67330000D02*
X74140000Y-72445000D01*
X75099800Y-83224800D02*
X75099800Y-73404800D01*
X69377500Y-110545000D02*
X70353100Y-111520600D01*
X75300000Y-83425000D02*
X75099800Y-83224800D01*
X79862300Y-140374800D02*
X79862300Y-130554800D01*
X74979300Y-83425000D02*
X75300000Y-83425000D01*
X79862300Y-130554800D02*
X78902500Y-129595000D01*
X87206300Y-159625000D02*
X87006100Y-159424800D01*
X70353100Y-121340600D02*
X70537500Y-121525000D01*
X80062500Y-140575000D02*
X79862300Y-140374800D01*
%TO.N,RK26_D*%
X71603000Y-132135000D02*
X72552500Y-132135000D01*
X67262500Y-127675000D02*
X71603000Y-132015500D01*
X67662500Y-136075500D02*
X71603000Y-132135000D01*
X71603000Y-132015500D02*
X71603000Y-132135000D01*
X67662500Y-138475000D02*
X67662500Y-136075500D01*
%TO.N,RK02_D*%
X63153300Y-81325000D02*
X67773600Y-85945300D01*
X63153300Y-78706200D02*
X66874500Y-74985000D01*
X66874500Y-74985000D02*
X67790000Y-74985000D01*
X78600000Y-83037900D02*
X78600000Y-82425000D01*
X63153300Y-81325000D02*
X62900000Y-81325000D01*
X63153300Y-81325000D02*
X63153300Y-78706200D01*
X67773600Y-85945300D02*
X75692600Y-85945300D01*
X75692600Y-85945300D02*
X78600000Y-83037900D01*
%TO.N,RK34_D*%
X74406300Y-146725000D02*
X78725000Y-151043700D01*
X78725000Y-151043700D02*
X78725000Y-151185000D01*
X78725000Y-151185000D02*
X79696300Y-151185000D01*
X74806300Y-157525000D02*
X74806300Y-155103700D01*
X74806300Y-155103700D02*
X78725000Y-151185000D01*
%TO.N,R_COL3*%
X137012300Y-149604800D02*
X136052500Y-148645000D01*
X108437300Y-111504800D02*
X107477500Y-110545000D01*
X70298300Y-54831700D02*
X68510000Y-56620000D01*
X118015800Y-133411600D02*
X117216400Y-132612200D01*
X113238500Y-83263500D02*
X113238500Y-81422000D01*
X107477500Y-101143900D02*
X105206100Y-101143900D01*
X108437300Y-121324800D02*
X108437300Y-111504800D01*
X137212500Y-159625000D02*
X137012300Y-159424800D01*
X137012300Y-159424800D02*
X137012300Y-149604800D01*
X132976000Y-143079900D02*
X120667400Y-143079900D01*
X95269100Y-54831700D02*
X70298300Y-54831700D01*
X113400000Y-83425000D02*
X113238500Y-83263500D01*
X118015800Y-140428300D02*
X118015800Y-133411600D01*
X108932500Y-121525000D02*
X117002500Y-129595000D01*
X120667400Y-143079900D02*
X118162500Y-140575000D01*
X108637500Y-121525000D02*
X108437300Y-121324800D01*
X118162500Y-140575000D02*
X118015800Y-140428300D01*
X108637500Y-121525000D02*
X108932500Y-121525000D01*
X105206100Y-101143900D02*
X103875000Y-102475000D01*
%TO.N,RK20_D*%
X100297500Y-113085000D02*
X101127500Y-113085000D01*
X101422000Y-116244100D02*
X101422000Y-113379500D01*
X95837500Y-108625000D02*
X100297500Y-113085000D01*
X96237500Y-119425000D02*
X98462500Y-117200000D01*
X101422000Y-113379500D02*
X101127500Y-113085000D01*
X98462500Y-117200000D02*
X100466100Y-117200000D01*
X100466100Y-117200000D02*
X101422000Y-116244100D01*
%TO.N,R_ROW3*%
X147662500Y-126347300D02*
X135557800Y-126347300D01*
X83006100Y-140586300D02*
X80775400Y-142817000D01*
X104212000Y-126566100D02*
X101985400Y-128792700D01*
X147662500Y-127675000D02*
X147662500Y-126347300D01*
X101985400Y-128792700D02*
X101985400Y-130100800D01*
X128612500Y-129103100D02*
X128612500Y-127675000D01*
X125015800Y-131271700D02*
X113159200Y-131271700D01*
X83006100Y-127675000D02*
X84333800Y-126347300D01*
X108171000Y-126283500D02*
X104494600Y-126283500D01*
X67554500Y-142817000D02*
X66412500Y-141675000D01*
X168083000Y-126304500D02*
X166712500Y-127675000D01*
X89184800Y-126347300D02*
X90512500Y-127675000D01*
X129508800Y-129999400D02*
X128612500Y-129103100D01*
X97944200Y-126566100D02*
X96075600Y-124697500D01*
X113159200Y-131271700D02*
X109562500Y-127675000D01*
X80775400Y-142817000D02*
X67554500Y-142817000D01*
X101985400Y-130100800D02*
X100781400Y-131304800D01*
X185762500Y-127675000D02*
X184392000Y-126304500D01*
X165384800Y-126347300D02*
X147662500Y-126347300D01*
X184392000Y-126304500D02*
X168083000Y-126304500D01*
X104212000Y-126566100D02*
X97944200Y-126566100D01*
X71462500Y-127675000D02*
X83006100Y-127675000D01*
X84333800Y-126347300D02*
X89184800Y-126347300D01*
X94142300Y-131304800D02*
X90512500Y-127675000D01*
X135557800Y-126347300D02*
X134874700Y-127030400D01*
X109562500Y-127675000D02*
X108171000Y-126283500D01*
X83006100Y-127675000D02*
X83006100Y-140586300D01*
X128612500Y-127675000D02*
X125015800Y-131271700D01*
X104494600Y-126283500D02*
X104212000Y-126566100D01*
X100781400Y-131304800D02*
X94142300Y-131304800D01*
X166712500Y-127675000D02*
X165384800Y-126347300D01*
%TO.N,R_ROW0*%
X81900000Y-72175000D02*
X83314900Y-70760100D01*
X120000000Y-72175000D02*
X121406700Y-70768300D01*
X94720200Y-53255000D02*
X90545000Y-53255000D01*
X137643300Y-70768300D02*
X139050000Y-72175000D01*
X94058100Y-86625000D02*
X78600000Y-86625000D01*
X99535100Y-70760100D02*
X100950000Y-72175000D01*
X160481300Y-72175000D02*
X161888800Y-70767500D01*
X121406700Y-70768300D02*
X137643300Y-70768300D01*
X99312500Y-70760100D02*
X99535100Y-70760100D01*
X161888800Y-70767500D02*
X180505000Y-70767500D01*
X61650000Y-84525000D02*
X63750000Y-86625000D01*
X100950000Y-72175000D02*
X98644600Y-74480400D01*
X140456700Y-70768300D02*
X139050000Y-72175000D01*
X99312500Y-70760100D02*
X99312500Y-57847300D01*
X98644600Y-82038500D02*
X94058100Y-86625000D01*
X120000000Y-72175000D02*
X118553500Y-70728500D01*
X83314900Y-70760100D02*
X99312500Y-70760100D01*
X99312500Y-57847300D02*
X94720200Y-53255000D01*
X98644600Y-74480400D02*
X98644600Y-82038500D01*
X160481300Y-72175000D02*
X159074600Y-70768300D01*
X180505000Y-70767500D02*
X181912500Y-72175000D01*
X102396500Y-70728500D02*
X100950000Y-72175000D01*
X159074600Y-70768300D02*
X140456700Y-70768300D01*
X118553500Y-70728500D02*
X102396500Y-70728500D01*
X63750000Y-86625000D02*
X78600000Y-86625000D01*
X90545000Y-53255000D02*
X78670000Y-41380000D01*
%TO.N,R_ROW1*%
X141260900Y-88746400D02*
X141812600Y-88194700D01*
X57175000Y-89575000D02*
X55847300Y-88247300D01*
X95275000Y-89575000D02*
X93886700Y-88186700D01*
X51626700Y-96875300D02*
X51626700Y-103076700D01*
X53487000Y-91635300D02*
X53487000Y-95015000D01*
X133375000Y-88746400D02*
X141260900Y-88746400D01*
X51642500Y-88588000D02*
X51642500Y-90530600D01*
X51642500Y-90530600D02*
X52086400Y-90974500D01*
X93886700Y-88186700D02*
X77613300Y-88186700D01*
X114325000Y-88194700D02*
X96655300Y-88194700D01*
X51626700Y-103076700D02*
X52125000Y-103575000D01*
X62997600Y-62702700D02*
X62046800Y-61751900D01*
X132823300Y-88194700D02*
X133375000Y-88746400D01*
X62046800Y-55463200D02*
X76130000Y-41380000D01*
X52086400Y-90974500D02*
X52826200Y-90974500D01*
X59550000Y-87489800D02*
X59550000Y-81000000D01*
X96655300Y-88194700D02*
X95275000Y-89575000D01*
X114325000Y-88194700D02*
X114325000Y-89575000D01*
X62046800Y-61751900D02*
X62046800Y-55463200D01*
X55847300Y-88247300D02*
X51983200Y-88247300D01*
X178618800Y-89575000D02*
X177256900Y-88213100D01*
X60305600Y-88245400D02*
X59550000Y-87489800D01*
X76225000Y-89575000D02*
X74895400Y-88245400D01*
X177256900Y-88213100D02*
X153786900Y-88213100D01*
X114325000Y-88194700D02*
X132823300Y-88194700D01*
X53487000Y-95015000D02*
X51626700Y-96875300D01*
X59550000Y-81000000D02*
X60305600Y-80100400D01*
X77613300Y-88186700D02*
X76225000Y-89575000D01*
X60305600Y-88245400D02*
X58504600Y-88245400D01*
X52826200Y-90974500D02*
X53487000Y-91635300D01*
X58504600Y-88245400D02*
X57175000Y-89575000D01*
X133375000Y-88746400D02*
X133375000Y-89575000D01*
X60305600Y-80100400D02*
X62997600Y-77408400D01*
X141812600Y-88194700D02*
X151044700Y-88194700D01*
X62997600Y-77408400D02*
X62997600Y-62702700D01*
X151044700Y-88194700D02*
X152425000Y-89575000D01*
X153786900Y-88213100D02*
X152425000Y-89575000D01*
X51983200Y-88247300D02*
X51642500Y-88588000D01*
X74895400Y-88245400D02*
X60305600Y-88245400D01*
%TO.N,R_ROW2*%
X160599300Y-107274300D02*
X161950000Y-108625000D01*
X119087500Y-108625000D02*
X117721200Y-107258700D01*
X100037500Y-107258700D02*
X93108500Y-107258700D01*
X120416100Y-107296400D02*
X136808900Y-107296400D01*
X56408400Y-115609700D02*
X62620600Y-109397500D01*
X165579800Y-112254800D02*
X161950000Y-108625000D01*
X100037500Y-107258700D02*
X100037500Y-108625000D01*
X80987500Y-107258700D02*
X63303700Y-107258700D01*
X62620600Y-109397500D02*
X62620600Y-107941800D01*
X63303700Y-107258700D02*
X62620600Y-107941800D01*
X185762500Y-108625000D02*
X184383000Y-107245500D01*
X178152600Y-107245500D02*
X173143300Y-112254800D01*
X184383000Y-107245500D02*
X178152600Y-107245500D01*
X136808900Y-107296400D02*
X138137500Y-108625000D01*
X173143300Y-112254800D02*
X165579800Y-112254800D01*
X62620600Y-107941900D02*
X61937500Y-108625000D01*
X56887500Y-122625000D02*
X56408400Y-122145900D01*
X117721200Y-107258700D02*
X100037500Y-107258700D01*
X138137500Y-108625000D02*
X139488200Y-107274300D01*
X80987500Y-107258700D02*
X80987500Y-108625000D01*
X93108500Y-107258700D02*
X80987500Y-107258700D01*
X56408400Y-122145900D02*
X56408400Y-115609700D01*
X62620600Y-107941800D02*
X62620600Y-107941900D01*
X139488200Y-107274300D02*
X160599300Y-107274300D01*
X119087500Y-108625000D02*
X120416100Y-107296400D01*
%TO.N,R_ROW4*%
X166712500Y-145354500D02*
X184392000Y-145354500D01*
X166712500Y-146725000D02*
X166712500Y-145354500D01*
X94543100Y-138356600D02*
X93225400Y-139674300D01*
X73440400Y-145371500D02*
X70854300Y-147957600D01*
X114889500Y-145319600D02*
X110372600Y-140802700D01*
X147662500Y-146725000D02*
X146309000Y-145371500D01*
X93225400Y-145371500D02*
X105827800Y-145371500D01*
X129966000Y-145371500D02*
X128612500Y-146725000D01*
X127207100Y-145319600D02*
X114889500Y-145319600D01*
X70854300Y-147957600D02*
X66138700Y-143600000D01*
X146309000Y-145371500D02*
X129966000Y-145371500D01*
X93225400Y-139674300D02*
X93225400Y-145371500D01*
X78606300Y-145371500D02*
X78606300Y-146725000D01*
X101039300Y-138356600D02*
X94543100Y-138356600D01*
X184392000Y-145354500D02*
X185762500Y-146725000D01*
X78606300Y-145371500D02*
X73440400Y-145371500D01*
X68912500Y-149899400D02*
X70854300Y-147957600D01*
X166712500Y-145354500D02*
X149033000Y-145354500D01*
X110372600Y-140802700D02*
X103485400Y-140802700D01*
X128612500Y-146725000D02*
X127207100Y-145319600D01*
X103485400Y-140802700D02*
X101039300Y-138356600D01*
X105827800Y-145371500D02*
X107181300Y-146725000D01*
X78606300Y-145371500D02*
X93225400Y-145371500D01*
X68912500Y-156975000D02*
X68912500Y-149899400D01*
X149033000Y-145354500D02*
X147662500Y-146725000D01*
%TO.N,R_COL4*%
X98194400Y-85363500D02*
X98194400Y-85363200D01*
X137212500Y-140575000D02*
X137012300Y-140374800D01*
X99402000Y-83312600D02*
X98723900Y-83312600D01*
X124256100Y-101143900D02*
X126527500Y-101143900D01*
X132357800Y-83332800D02*
X132265600Y-83240600D01*
X132265600Y-83240600D02*
X132265600Y-73420600D01*
X122925000Y-102475000D02*
X124256100Y-101143900D01*
X101740300Y-85650900D02*
X99402000Y-83312600D01*
X98194400Y-83842100D02*
X98194400Y-85363500D01*
X132450000Y-83425000D02*
X132357800Y-83332800D01*
X127487300Y-121324800D02*
X127487300Y-111504800D01*
X98194400Y-85363200D02*
X98194400Y-85363500D01*
X127687500Y-121525000D02*
X127982500Y-121525000D01*
X129855300Y-85650900D02*
X101740300Y-85650900D01*
X156078100Y-149620600D02*
X155102500Y-148645000D01*
X137012300Y-140374800D02*
X137012300Y-130554800D01*
X98194200Y-65813500D02*
X80243500Y-65813500D01*
X80243500Y-65813500D02*
X71050000Y-56620000D01*
X137012300Y-130554800D02*
X136052500Y-129595000D01*
X156262500Y-159625000D02*
X156078100Y-159440600D01*
X127487300Y-111504800D02*
X126527500Y-110545000D01*
X127982500Y-121525000D02*
X136052500Y-129595000D01*
X150870400Y-142586600D02*
X139224100Y-142586600D01*
X139224100Y-142586600D02*
X137212500Y-140575000D01*
X98723900Y-83312600D02*
X98194400Y-83842100D01*
X127687500Y-121525000D02*
X127487300Y-121324800D01*
X132265600Y-83240600D02*
X129855300Y-85650900D01*
X132265600Y-73420600D02*
X131290000Y-72445000D01*
X156078100Y-159440600D02*
X156078100Y-149620600D01*
%TO.N,R_COL2*%
X100086500Y-141549000D02*
X107525300Y-141549000D01*
X86010000Y-72445000D02*
X93190000Y-72445000D01*
X84624800Y-92454800D02*
X83665000Y-91495000D01*
X79800000Y-74275000D02*
X84200000Y-74275000D01*
X115581100Y-159424800D02*
X115581100Y-149604800D01*
X89403100Y-121340600D02*
X89587500Y-121525000D01*
X79282800Y-71821300D02*
X79800000Y-73000000D01*
X101186900Y-140575000D02*
X99112500Y-140575000D01*
X115581100Y-149604800D02*
X114621300Y-148645000D01*
X99112500Y-140575000D02*
X100086500Y-141549000D01*
X89403100Y-111520600D02*
X89403100Y-121340600D01*
X79800000Y-73000000D02*
X79800000Y-74275000D01*
X94350000Y-83425000D02*
X94149800Y-83224800D01*
X65970000Y-56620000D02*
X79282800Y-69932800D01*
X88427500Y-110545000D02*
X89403100Y-111520600D01*
X97657500Y-129595000D02*
X97952500Y-129595000D01*
X84934300Y-73520700D02*
X86010000Y-72445000D01*
X89587500Y-121525000D02*
X97657500Y-129595000D01*
X94149800Y-73404800D02*
X93190000Y-72445000D01*
X84624800Y-102274800D02*
X84624800Y-92454800D01*
X94149800Y-83224800D02*
X94149800Y-73404800D01*
X101708400Y-140053500D02*
X101186900Y-140575000D01*
X84825000Y-102475000D02*
X84624800Y-102274800D01*
X79282800Y-69932800D02*
X79282800Y-71821300D01*
X84200000Y-74275000D02*
X84934300Y-73520700D01*
X115781300Y-159625000D02*
X115581100Y-159424800D01*
X107525300Y-141549000D02*
X114621300Y-148645000D01*
%TO.N,R_COL6*%
X194162300Y-159424800D02*
X194162300Y-149604800D01*
X169390000Y-110545000D02*
X161320000Y-102475000D01*
X161320000Y-102475000D02*
X161025000Y-102475000D01*
X193202500Y-148645000D02*
X187696500Y-143139000D01*
X171771300Y-72445000D02*
X172746900Y-73420600D01*
X175112300Y-130554800D02*
X174152500Y-129595000D01*
X194162300Y-149604800D02*
X193202500Y-148645000D01*
X175112300Y-140374800D02*
X175112300Y-130554800D01*
X175312500Y-140575000D02*
X175112300Y-140374800D01*
X170550000Y-121525000D02*
X173268200Y-121525000D01*
X98585800Y-62869300D02*
X82379300Y-62869300D01*
X177876500Y-143139000D02*
X175312500Y-140575000D01*
X173268200Y-121525000D02*
X173496500Y-121753300D01*
X194362500Y-159625000D02*
X194162300Y-159424800D01*
X187696500Y-143139000D02*
X177876500Y-143139000D01*
X172746900Y-73420600D02*
X172746900Y-83240600D01*
X82379300Y-62869300D02*
X76130000Y-56620000D01*
X101264200Y-86202600D02*
X99100900Y-84039300D01*
X170153700Y-86202600D02*
X101264200Y-86202600D01*
X172931300Y-83425000D02*
X170153700Y-86202600D01*
X172746900Y-83240600D02*
X172931300Y-83425000D01*
%TO.N,R_COL7*%
X194128800Y-83425000D02*
X194362500Y-83425000D01*
X193366900Y-129595000D02*
X193202500Y-129595000D01*
X133467400Y-87850900D02*
X141100900Y-87850900D01*
X187218800Y-102475000D02*
X187018600Y-102274800D01*
X194178100Y-73420600D02*
X193202500Y-72445000D01*
X133154700Y-87538200D02*
X133467400Y-87850900D01*
X93094300Y-58010800D02*
X93094300Y-57927800D01*
X95781400Y-87538200D02*
X95936000Y-87538200D01*
X187018600Y-102274800D02*
X187018600Y-92454800D01*
X93094300Y-57927800D02*
X93094300Y-58010800D01*
X95936000Y-87538200D02*
X133154700Y-87538200D01*
X194178100Y-83240600D02*
X194178100Y-73420600D01*
X193366900Y-122520600D02*
X194362500Y-121525000D01*
X193366900Y-129595000D02*
X193366900Y-122520600D01*
X194162300Y-140374800D02*
X194162300Y-130390400D01*
X81210000Y-56620000D02*
X82576500Y-57986500D01*
X187018600Y-92454800D02*
X186058800Y-91495000D01*
X194162300Y-130390400D02*
X193366900Y-129595000D01*
X186058800Y-91495000D02*
X194128800Y-83425000D01*
X93035600Y-57986500D02*
X93094300Y-57927800D01*
X141100900Y-87850900D02*
X141369800Y-87582000D01*
X194362500Y-83425000D02*
X194178100Y-83240600D01*
X182145800Y-87582000D02*
X186058800Y-91495000D01*
X82576500Y-57986500D02*
X93035600Y-57986500D01*
X193202500Y-108458700D02*
X187218800Y-102475000D01*
X193202500Y-110545000D02*
X193202500Y-108458700D01*
X95936000Y-87538200D02*
X95781400Y-87538200D01*
X194362500Y-140575000D02*
X194162300Y-140374800D01*
X141369800Y-87582000D02*
X182145800Y-87582000D01*
%TO.N,RK14_D*%
X134759500Y-94329500D02*
X134465000Y-94035000D01*
X129175000Y-89575000D02*
X133635000Y-94035000D01*
X131800000Y-98150000D02*
X133803600Y-98150000D01*
X134759500Y-97194100D02*
X134759500Y-94329500D01*
X133635000Y-94035000D02*
X134465000Y-94035000D01*
X129575000Y-100375000D02*
X131800000Y-98150000D01*
X133803600Y-98150000D02*
X134759500Y-97194100D01*
%TO.N,RK27_D*%
X86712500Y-136090000D02*
X86712500Y-138475000D01*
X90772500Y-132135000D02*
X91602500Y-132135000D01*
X90720000Y-132082500D02*
X90772500Y-132135000D01*
X90720000Y-132082500D02*
X86712500Y-136090000D01*
X86312500Y-127675000D02*
X90720000Y-132082500D01*
%TO.N,RK28_D*%
X105762500Y-136070300D02*
X109697800Y-132135000D01*
X105762500Y-138475000D02*
X105762500Y-136070300D01*
X106192500Y-127675000D02*
X105362500Y-127675000D01*
X109697800Y-132135000D02*
X110652500Y-132135000D01*
X110652500Y-132135000D02*
X106192500Y-127675000D01*
%TO.N,RK04_D*%
X100950000Y-76375000D02*
X102340000Y-74985000D01*
X100950000Y-81275000D02*
X100950000Y-76375000D01*
X102340000Y-74985000D02*
X105890000Y-74985000D01*
X101000000Y-81325000D02*
X100950000Y-81275000D01*
%TO.N,RK03_D*%
X81950000Y-76325000D02*
X81950000Y-81325000D01*
X86840000Y-74985000D02*
X83290000Y-74985000D01*
X82595000Y-75680000D02*
X81950000Y-76325000D01*
X82595000Y-75680000D02*
X81900000Y-76375000D01*
X83290000Y-74985000D02*
X82595000Y-75680000D01*
%TO.N,RK07_D*%
X160531300Y-76425000D02*
X160531300Y-81325000D01*
X161871300Y-74985000D02*
X165421300Y-74985000D01*
X160481300Y-76375000D02*
X160531300Y-76425000D01*
X160481300Y-76375000D02*
X161871300Y-74985000D01*
%TO.N,RK11_D*%
X72855000Y-89575000D02*
X72025000Y-89575000D01*
X76653600Y-98150000D02*
X77609500Y-97194100D01*
X77315000Y-94035000D02*
X72855000Y-89575000D01*
X77609500Y-94329500D02*
X77315000Y-94035000D01*
X72425000Y-100375000D02*
X74650000Y-98150000D01*
X74650000Y-98150000D02*
X76653600Y-98150000D01*
X77609500Y-97194100D02*
X77609500Y-94329500D01*
%TO.N,RK32_D*%
X181962500Y-136090000D02*
X181962500Y-138475000D01*
X185970000Y-132082500D02*
X181962500Y-136090000D01*
X181562500Y-127675000D02*
X185970000Y-132082500D01*
X186022500Y-132135000D02*
X186852500Y-132135000D01*
X185970000Y-132082500D02*
X186022500Y-132135000D01*
%TO.N,RK12_D*%
X96659500Y-97194100D02*
X96659500Y-94329500D01*
X95535000Y-94035000D02*
X96365000Y-94035000D01*
X91475000Y-100375000D02*
X93700000Y-98150000D01*
X96659500Y-94329500D02*
X96365000Y-94035000D01*
X93700000Y-98150000D02*
X95703600Y-98150000D01*
X91075000Y-89575000D02*
X95535000Y-94035000D01*
X95703600Y-98150000D02*
X96659500Y-97194100D01*
%TO.N,RK06_D*%
X139745000Y-75680000D02*
X139050000Y-76375000D01*
X140440000Y-74985000D02*
X139745000Y-75680000D01*
X139100000Y-76325000D02*
X139100000Y-81325000D01*
X139745000Y-75680000D02*
X139100000Y-76325000D01*
X143990000Y-74985000D02*
X140440000Y-74985000D01*
%TO.N,RK09_D*%
X46835000Y-99115000D02*
X47801900Y-99115000D01*
X46835000Y-102485000D02*
X47925000Y-103575000D01*
X47801900Y-99115000D02*
X51725000Y-95191900D01*
X51725000Y-95191900D02*
X51725000Y-92775000D01*
X46835000Y-99115000D02*
X46835000Y-102485000D01*
%TO.N,RK36_D*%
X124412500Y-146797300D02*
X124412500Y-146725000D01*
X124812500Y-157525000D02*
X124812500Y-155172700D01*
X128800200Y-151185000D02*
X124412500Y-146797300D01*
X128800200Y-151185000D02*
X129702500Y-151185000D01*
X124812500Y-155172700D02*
X128800200Y-151185000D01*
%TO.N,RK17_D*%
X56487500Y-111825000D02*
X56487500Y-114224500D01*
X56487500Y-114224500D02*
X52547000Y-118165000D01*
X51597500Y-121535000D02*
X51597500Y-118165000D01*
X52547000Y-118165000D02*
X51597500Y-118165000D01*
X52687500Y-122625000D02*
X51597500Y-121535000D01*
%TO.N,RK16_D*%
X179708800Y-94034900D02*
X179708800Y-94035000D01*
X180003300Y-97194100D02*
X180003300Y-94329500D01*
X178878700Y-94034900D02*
X179708800Y-94034900D01*
X179047400Y-98150000D02*
X180003300Y-97194100D01*
X174418800Y-89575000D02*
X178878700Y-94034900D01*
X180003300Y-94329500D02*
X179708800Y-94035000D01*
X177043800Y-98150000D02*
X179047400Y-98150000D01*
X174818800Y-100375000D02*
X177043800Y-98150000D01*
%TO.N,RK13_D*%
X110525000Y-97970300D02*
X114460300Y-94035000D01*
X110955000Y-89575000D02*
X110125000Y-89575000D01*
X110525000Y-100375000D02*
X110525000Y-97970300D01*
X115415000Y-94035000D02*
X110955000Y-89575000D01*
X114460300Y-94035000D02*
X115415000Y-94035000D01*
%TO.N,RK31_D*%
X162912500Y-136070300D02*
X166847800Y-132135000D01*
X166847800Y-132135000D02*
X167802500Y-132135000D01*
X167802500Y-132135000D02*
X163342500Y-127675000D01*
X162912500Y-138475000D02*
X162912500Y-136070300D01*
X163342500Y-127675000D02*
X162512500Y-127675000D01*
%TO.N,RK15_D*%
X148625000Y-100375000D02*
X148625000Y-97974100D01*
X148625000Y-97974100D02*
X152564100Y-94035000D01*
X152564100Y-93914100D02*
X152564100Y-94035000D01*
X148225000Y-89575000D02*
X152564100Y-93914100D01*
X152564100Y-94035000D02*
X153515000Y-94035000D01*
%TO.N,RK29_D*%
X129997000Y-132429500D02*
X129702500Y-132135000D01*
X129041100Y-136250000D02*
X129997000Y-135294100D01*
X129544700Y-126318300D02*
X125769200Y-126318300D01*
X130235500Y-127009100D02*
X129544700Y-126318300D01*
X125769200Y-126318300D02*
X124412500Y-127675000D01*
X130235500Y-131602000D02*
X130235500Y-127009100D01*
X124812500Y-138475000D02*
X127037500Y-136250000D01*
X129997000Y-135294100D02*
X129997000Y-132429500D01*
X129702500Y-132135000D02*
X130235500Y-131602000D01*
X127037500Y-136250000D02*
X129041100Y-136250000D01*
%TO.N,RK39_D*%
X186022500Y-151185000D02*
X186852500Y-151185000D01*
X181562500Y-146725000D02*
X185970000Y-151132500D01*
X181962500Y-155140000D02*
X181962500Y-157525000D01*
X185970000Y-151132500D02*
X186022500Y-151185000D01*
X185970000Y-151132500D02*
X181962500Y-155140000D01*
%TO.N,RK23_D*%
X158150000Y-117040000D02*
X158150000Y-119425000D01*
X157750000Y-108625000D02*
X162157500Y-113032500D01*
X162157500Y-113032500D02*
X158150000Y-117040000D01*
X162210000Y-113085000D02*
X163040000Y-113085000D01*
X162157500Y-113032500D02*
X162210000Y-113085000D01*
%TO.N,RK19_D*%
X77187500Y-117080300D02*
X81182800Y-113085000D01*
X77187500Y-119425000D02*
X77187500Y-117080300D01*
X81182800Y-113020300D02*
X81182800Y-113085000D01*
X76787500Y-108625000D02*
X81182800Y-113020300D01*
X81182800Y-113085000D02*
X82077500Y-113085000D01*
%TO.N,RK35_D*%
X107388800Y-151132500D02*
X103381300Y-155140000D01*
X103381300Y-155140000D02*
X103381300Y-157525000D01*
X107388800Y-151132500D02*
X107441300Y-151185000D01*
X107441300Y-151185000D02*
X108271300Y-151185000D01*
X102981300Y-146725000D02*
X107388800Y-151132500D01*
%TO.N,RK01_D*%
X61250000Y-76095000D02*
X61250000Y-73725000D01*
X56360000Y-80065000D02*
X57280000Y-80065000D01*
X56360000Y-80065000D02*
X56360000Y-83435000D01*
X56360000Y-83435000D02*
X57450000Y-84525000D01*
X57280000Y-80065000D02*
X61250000Y-76095000D01*
%TO.N,RK18_D*%
X58137500Y-119425000D02*
X58137500Y-117018600D01*
X62071100Y-113085000D02*
X63027500Y-113085000D01*
X58137500Y-117018600D02*
X62071100Y-113085000D01*
X58660200Y-108625000D02*
X59931200Y-109896000D01*
X57737500Y-108625000D02*
X58660200Y-108625000D01*
%TO.N,RK05_D*%
X121390000Y-74985000D02*
X120000000Y-76375000D01*
X120000000Y-81275000D02*
X120000000Y-76375000D01*
X120050000Y-81325000D02*
X120000000Y-81275000D01*
X124940000Y-74985000D02*
X121390000Y-74985000D01*
%TO.N,RK10_D*%
X53805000Y-89575000D02*
X52975000Y-89575000D01*
X58265000Y-94035000D02*
X53805000Y-89575000D01*
X57321300Y-94035000D02*
X53375000Y-97981300D01*
X53375000Y-97981300D02*
X53375000Y-100375000D01*
X58265000Y-94035000D02*
X57321300Y-94035000D01*
%TO.N,RK08_D*%
X181962500Y-81325000D02*
X181912500Y-81275000D01*
X183302500Y-74985000D02*
X186852500Y-74985000D01*
X181912500Y-76375000D02*
X183302500Y-74985000D01*
X181912500Y-81275000D02*
X181912500Y-76375000D01*
%TO.N,RK25_D*%
X66012500Y-130875000D02*
X66012500Y-133274500D01*
X62072000Y-137215000D02*
X61122500Y-137215000D01*
X62072000Y-137215000D02*
X62072000Y-141534500D01*
X66012500Y-133274500D02*
X62072000Y-137215000D01*
X62072000Y-141534500D02*
X62212500Y-141675000D01*
%TO.N,RK37_D*%
X144562500Y-147825000D02*
X143862500Y-148525000D01*
X143862500Y-148525000D02*
X143862500Y-157525000D01*
X144562500Y-147825000D02*
X143462500Y-146725000D01*
X148752500Y-151185000D02*
X145392500Y-147825000D01*
X145392500Y-147825000D02*
X144562500Y-147825000D01*
%TO.N,RK24_D*%
X181962500Y-119425000D02*
X181962500Y-115678000D01*
X181962500Y-115678000D02*
X184555500Y-113085000D01*
X184555500Y-113085000D02*
X186852500Y-113085000D01*
X184555500Y-111618000D02*
X181562500Y-108625000D01*
X184555500Y-113085000D02*
X184555500Y-111618000D01*
%TO.N,RK38_D*%
X166851600Y-151064100D02*
X166851600Y-151185000D01*
X166851600Y-151185000D02*
X167802500Y-151185000D01*
X162912500Y-155124100D02*
X166851600Y-151185000D01*
X162912500Y-157525000D02*
X162912500Y-155124100D01*
X162512500Y-146725000D02*
X166851600Y-151064100D01*
%TO.N,RK21_D*%
X114887500Y-108625000D02*
X119347500Y-113085000D01*
X120472000Y-116244100D02*
X120472000Y-113379500D01*
X120472000Y-113379500D02*
X120177500Y-113085000D01*
X119516100Y-117200000D02*
X120472000Y-116244100D01*
X115287500Y-119425000D02*
X117512500Y-117200000D01*
X119347500Y-113085000D02*
X120177500Y-113085000D01*
X117512500Y-117200000D02*
X119516100Y-117200000D01*
%TD*%
M02*
