%TF.GenerationSoftware,KiCad,Pcbnew,10.0.3*%
%TF.CreationDate,2026-08-29T20:40:15+09:00*%
%TF.ProjectId,kc2_right-x3-v2,6b63325f-7269-4676-9874-2d78332d7632,draft-v2*%
%TF.SameCoordinates,Original*%
%TF.FileFunction,Legend,Top*%
%TF.FilePolarity,Positive*%
%FSLAX46Y46*%
G04 Gerber Fmt 4.6, Leading zero omitted, Abs format (unit mm)*
G04 Created by KiCad (PCBNEW 10.0.3) date 2026-08-29 20:40:15*
%MOMM*%
%LPD*%
G01*
G04 APERTURE LIST*
%ADD10C,0.100000*%
%ADD11C,0.120000*%
%ADD12C,0.150000*%
%ADD13C,0.158750*%
%ADD14C,1.700000*%
%ADD15C,3.000000*%
%ADD16C,5.000000*%
%ADD17C,1.650000*%
%ADD18C,2.500000*%
%ADD19C,1.600000*%
%ADD20O,3.600000X2.200000*%
%ADD21O,2.200000X1.800000*%
%ADD22R,1.750000X1.000000*%
G04 APERTURE END LIST*
D10*
X97064895Y-55226189D02*
X97712514Y-55226189D01*
X97712514Y-55226189D02*
X97788704Y-55188094D01*
X97788704Y-55188094D02*
X97826800Y-55149999D01*
X97826800Y-55149999D02*
X97864895Y-55073808D01*
X97864895Y-55073808D02*
X97864895Y-54921427D01*
X97864895Y-54921427D02*
X97826800Y-54845237D01*
X97826800Y-54845237D02*
X97788704Y-54807142D01*
X97788704Y-54807142D02*
X97712514Y-54769046D01*
X97712514Y-54769046D02*
X97064895Y-54769046D01*
X97826800Y-54426190D02*
X97864895Y-54311904D01*
X97864895Y-54311904D02*
X97864895Y-54121428D01*
X97864895Y-54121428D02*
X97826800Y-54045237D01*
X97826800Y-54045237D02*
X97788704Y-54007142D01*
X97788704Y-54007142D02*
X97712514Y-53969047D01*
X97712514Y-53969047D02*
X97636323Y-53969047D01*
X97636323Y-53969047D02*
X97560133Y-54007142D01*
X97560133Y-54007142D02*
X97522038Y-54045237D01*
X97522038Y-54045237D02*
X97483942Y-54121428D01*
X97483942Y-54121428D02*
X97445847Y-54273809D01*
X97445847Y-54273809D02*
X97407752Y-54349999D01*
X97407752Y-54349999D02*
X97369657Y-54388094D01*
X97369657Y-54388094D02*
X97293466Y-54426190D01*
X97293466Y-54426190D02*
X97217276Y-54426190D01*
X97217276Y-54426190D02*
X97141085Y-54388094D01*
X97141085Y-54388094D02*
X97102990Y-54349999D01*
X97102990Y-54349999D02*
X97064895Y-54273809D01*
X97064895Y-54273809D02*
X97064895Y-54083332D01*
X97064895Y-54083332D02*
X97102990Y-53969047D01*
X97445847Y-53359523D02*
X97483942Y-53245237D01*
X97483942Y-53245237D02*
X97522038Y-53207142D01*
X97522038Y-53207142D02*
X97598228Y-53169046D01*
X97598228Y-53169046D02*
X97712514Y-53169046D01*
X97712514Y-53169046D02*
X97788704Y-53207142D01*
X97788704Y-53207142D02*
X97826800Y-53245237D01*
X97826800Y-53245237D02*
X97864895Y-53321427D01*
X97864895Y-53321427D02*
X97864895Y-53626189D01*
X97864895Y-53626189D02*
X97064895Y-53626189D01*
X97064895Y-53626189D02*
X97064895Y-53359523D01*
X97064895Y-53359523D02*
X97102990Y-53283332D01*
X97102990Y-53283332D02*
X97141085Y-53245237D01*
X97141085Y-53245237D02*
X97217276Y-53207142D01*
X97217276Y-53207142D02*
X97293466Y-53207142D01*
X97293466Y-53207142D02*
X97369657Y-53245237D01*
X97369657Y-53245237D02*
X97407752Y-53283332D01*
X97407752Y-53283332D02*
X97445847Y-53359523D01*
X97445847Y-53359523D02*
X97445847Y-53626189D01*
X97941085Y-53016666D02*
X97941085Y-52407142D01*
X97064895Y-52064284D02*
X97064895Y-51911903D01*
X97064895Y-51911903D02*
X97102990Y-51835713D01*
X97102990Y-51835713D02*
X97179180Y-51759522D01*
X97179180Y-51759522D02*
X97331561Y-51721427D01*
X97331561Y-51721427D02*
X97598228Y-51721427D01*
X97598228Y-51721427D02*
X97750609Y-51759522D01*
X97750609Y-51759522D02*
X97826800Y-51835713D01*
X97826800Y-51835713D02*
X97864895Y-51911903D01*
X97864895Y-51911903D02*
X97864895Y-52064284D01*
X97864895Y-52064284D02*
X97826800Y-52140475D01*
X97826800Y-52140475D02*
X97750609Y-52216665D01*
X97750609Y-52216665D02*
X97598228Y-52254761D01*
X97598228Y-52254761D02*
X97331561Y-52254761D01*
X97331561Y-52254761D02*
X97179180Y-52216665D01*
X97179180Y-52216665D02*
X97102990Y-52140475D01*
X97102990Y-52140475D02*
X97064895Y-52064284D01*
X97064895Y-51378570D02*
X97712514Y-51378570D01*
X97712514Y-51378570D02*
X97788704Y-51340475D01*
X97788704Y-51340475D02*
X97826800Y-51302380D01*
X97826800Y-51302380D02*
X97864895Y-51226189D01*
X97864895Y-51226189D02*
X97864895Y-51073808D01*
X97864895Y-51073808D02*
X97826800Y-50997618D01*
X97826800Y-50997618D02*
X97788704Y-50959523D01*
X97788704Y-50959523D02*
X97712514Y-50921427D01*
X97712514Y-50921427D02*
X97064895Y-50921427D01*
X97064895Y-50654761D02*
X97064895Y-50197618D01*
X97864895Y-50426190D02*
X97064895Y-50426190D01*
X97941085Y-50121428D02*
X97941085Y-49511904D01*
X97864895Y-48864284D02*
X97483942Y-49130951D01*
X97864895Y-49321427D02*
X97064895Y-49321427D01*
X97064895Y-49321427D02*
X97064895Y-49016665D01*
X97064895Y-49016665D02*
X97102990Y-48940475D01*
X97102990Y-48940475D02*
X97141085Y-48902380D01*
X97141085Y-48902380D02*
X97217276Y-48864284D01*
X97217276Y-48864284D02*
X97331561Y-48864284D01*
X97331561Y-48864284D02*
X97407752Y-48902380D01*
X97407752Y-48902380D02*
X97445847Y-48940475D01*
X97445847Y-48940475D02*
X97483942Y-49016665D01*
X97483942Y-49016665D02*
X97483942Y-49321427D01*
X97864895Y-48521427D02*
X97064895Y-48521427D01*
X97102990Y-47721428D02*
X97064895Y-47797618D01*
X97064895Y-47797618D02*
X97064895Y-47911904D01*
X97064895Y-47911904D02*
X97102990Y-48026190D01*
X97102990Y-48026190D02*
X97179180Y-48102380D01*
X97179180Y-48102380D02*
X97255371Y-48140475D01*
X97255371Y-48140475D02*
X97407752Y-48178571D01*
X97407752Y-48178571D02*
X97522038Y-48178571D01*
X97522038Y-48178571D02*
X97674419Y-48140475D01*
X97674419Y-48140475D02*
X97750609Y-48102380D01*
X97750609Y-48102380D02*
X97826800Y-48026190D01*
X97826800Y-48026190D02*
X97864895Y-47911904D01*
X97864895Y-47911904D02*
X97864895Y-47835713D01*
X97864895Y-47835713D02*
X97826800Y-47721428D01*
X97826800Y-47721428D02*
X97788704Y-47683332D01*
X97788704Y-47683332D02*
X97522038Y-47683332D01*
X97522038Y-47683332D02*
X97522038Y-47835713D01*
X97864895Y-47340475D02*
X97064895Y-47340475D01*
X97445847Y-47340475D02*
X97445847Y-46883332D01*
X97864895Y-46883332D02*
X97064895Y-46883332D01*
X97064895Y-46616666D02*
X97064895Y-46159523D01*
X97864895Y-46388095D02*
X97064895Y-46388095D01*
D11*
X83611905Y-68013855D02*
X83345238Y-67632902D01*
X83154762Y-68013855D02*
X83154762Y-67213855D01*
X83154762Y-67213855D02*
X83459524Y-67213855D01*
X83459524Y-67213855D02*
X83535714Y-67251950D01*
X83535714Y-67251950D02*
X83573809Y-67290045D01*
X83573809Y-67290045D02*
X83611905Y-67366236D01*
X83611905Y-67366236D02*
X83611905Y-67480521D01*
X83611905Y-67480521D02*
X83573809Y-67556712D01*
X83573809Y-67556712D02*
X83535714Y-67594807D01*
X83535714Y-67594807D02*
X83459524Y-67632902D01*
X83459524Y-67632902D02*
X83154762Y-67632902D01*
X83916666Y-67975760D02*
X84030952Y-68013855D01*
X84030952Y-68013855D02*
X84221428Y-68013855D01*
X84221428Y-68013855D02*
X84297619Y-67975760D01*
X84297619Y-67975760D02*
X84335714Y-67937664D01*
X84335714Y-67937664D02*
X84373809Y-67861474D01*
X84373809Y-67861474D02*
X84373809Y-67785283D01*
X84373809Y-67785283D02*
X84335714Y-67709093D01*
X84335714Y-67709093D02*
X84297619Y-67670998D01*
X84297619Y-67670998D02*
X84221428Y-67632902D01*
X84221428Y-67632902D02*
X84069047Y-67594807D01*
X84069047Y-67594807D02*
X83992857Y-67556712D01*
X83992857Y-67556712D02*
X83954762Y-67518617D01*
X83954762Y-67518617D02*
X83916666Y-67442426D01*
X83916666Y-67442426D02*
X83916666Y-67366236D01*
X83916666Y-67366236D02*
X83954762Y-67290045D01*
X83954762Y-67290045D02*
X83992857Y-67251950D01*
X83992857Y-67251950D02*
X84069047Y-67213855D01*
X84069047Y-67213855D02*
X84259524Y-67213855D01*
X84259524Y-67213855D02*
X84373809Y-67251950D01*
X84602381Y-67213855D02*
X85059524Y-67213855D01*
X84830952Y-68013855D02*
X84830952Y-67213855D01*
X89842858Y-65813855D02*
X89995239Y-65813855D01*
X89995239Y-65813855D02*
X90071429Y-65851950D01*
X90071429Y-65851950D02*
X90147620Y-65928140D01*
X90147620Y-65928140D02*
X90185715Y-66080521D01*
X90185715Y-66080521D02*
X90185715Y-66347188D01*
X90185715Y-66347188D02*
X90147620Y-66499569D01*
X90147620Y-66499569D02*
X90071429Y-66575760D01*
X90071429Y-66575760D02*
X89995239Y-66613855D01*
X89995239Y-66613855D02*
X89842858Y-66613855D01*
X89842858Y-66613855D02*
X89766667Y-66575760D01*
X89766667Y-66575760D02*
X89690477Y-66499569D01*
X89690477Y-66499569D02*
X89652381Y-66347188D01*
X89652381Y-66347188D02*
X89652381Y-66080521D01*
X89652381Y-66080521D02*
X89690477Y-65928140D01*
X89690477Y-65928140D02*
X89766667Y-65851950D01*
X89766667Y-65851950D02*
X89842858Y-65813855D01*
X90528572Y-66613855D02*
X90528572Y-65813855D01*
X90528572Y-65813855D02*
X90985715Y-66613855D01*
X90985715Y-66613855D02*
X90985715Y-65813855D01*
X91976191Y-66080521D02*
X91366667Y-66309093D01*
X91366667Y-66309093D02*
X91976191Y-66537664D01*
X92966667Y-66080521D02*
X93576191Y-66309093D01*
X93576191Y-66309093D02*
X92966667Y-66537664D01*
X94109524Y-65813855D02*
X94261905Y-65813855D01*
X94261905Y-65813855D02*
X94338095Y-65851950D01*
X94338095Y-65851950D02*
X94414286Y-65928140D01*
X94414286Y-65928140D02*
X94452381Y-66080521D01*
X94452381Y-66080521D02*
X94452381Y-66347188D01*
X94452381Y-66347188D02*
X94414286Y-66499569D01*
X94414286Y-66499569D02*
X94338095Y-66575760D01*
X94338095Y-66575760D02*
X94261905Y-66613855D01*
X94261905Y-66613855D02*
X94109524Y-66613855D01*
X94109524Y-66613855D02*
X94033333Y-66575760D01*
X94033333Y-66575760D02*
X93957143Y-66499569D01*
X93957143Y-66499569D02*
X93919047Y-66347188D01*
X93919047Y-66347188D02*
X93919047Y-66080521D01*
X93919047Y-66080521D02*
X93957143Y-65928140D01*
X93957143Y-65928140D02*
X94033333Y-65851950D01*
X94033333Y-65851950D02*
X94109524Y-65813855D01*
X95061904Y-66194807D02*
X94795238Y-66194807D01*
X94795238Y-66613855D02*
X94795238Y-65813855D01*
X94795238Y-65813855D02*
X95176190Y-65813855D01*
X95747618Y-66194807D02*
X95480952Y-66194807D01*
X95480952Y-66613855D02*
X95480952Y-65813855D01*
X95480952Y-65813855D02*
X95861904Y-65813855D01*
X96776190Y-66613855D02*
X96776190Y-65813855D01*
X96776190Y-65813855D02*
X97080952Y-65813855D01*
X97080952Y-65813855D02*
X97157142Y-65851950D01*
X97157142Y-65851950D02*
X97195237Y-65890045D01*
X97195237Y-65890045D02*
X97233333Y-65966236D01*
X97233333Y-65966236D02*
X97233333Y-66080521D01*
X97233333Y-66080521D02*
X97195237Y-66156712D01*
X97195237Y-66156712D02*
X97157142Y-66194807D01*
X97157142Y-66194807D02*
X97080952Y-66232902D01*
X97080952Y-66232902D02*
X96776190Y-66232902D01*
X97499999Y-65813855D02*
X97690475Y-66613855D01*
X97690475Y-66613855D02*
X97842856Y-66042426D01*
X97842856Y-66042426D02*
X97995237Y-66613855D01*
X97995237Y-66613855D02*
X98185714Y-65813855D01*
X98947619Y-66613855D02*
X98680952Y-66232902D01*
X98490476Y-66613855D02*
X98490476Y-65813855D01*
X98490476Y-65813855D02*
X98795238Y-65813855D01*
X98795238Y-65813855D02*
X98871428Y-65851950D01*
X98871428Y-65851950D02*
X98909523Y-65890045D01*
X98909523Y-65890045D02*
X98947619Y-65966236D01*
X98947619Y-65966236D02*
X98947619Y-66080521D01*
X98947619Y-66080521D02*
X98909523Y-66156712D01*
X98909523Y-66156712D02*
X98871428Y-66194807D01*
X98871428Y-66194807D02*
X98795238Y-66232902D01*
X98795238Y-66232902D02*
X98490476Y-66232902D01*
D12*
X7249996Y-27408557D02*
X7249996Y-26508557D01*
X7249996Y-26508557D02*
X7764282Y-27408557D01*
X7764282Y-27408557D02*
X7764282Y-26508557D01*
X8321425Y-27408557D02*
X8235710Y-27365700D01*
X8235710Y-27365700D02*
X8192853Y-27322842D01*
X8192853Y-27322842D02*
X8149996Y-27237128D01*
X8149996Y-27237128D02*
X8149996Y-26979985D01*
X8149996Y-26979985D02*
X8192853Y-26894271D01*
X8192853Y-26894271D02*
X8235710Y-26851414D01*
X8235710Y-26851414D02*
X8321425Y-26808557D01*
X8321425Y-26808557D02*
X8449996Y-26808557D01*
X8449996Y-26808557D02*
X8535710Y-26851414D01*
X8535710Y-26851414D02*
X8578568Y-26894271D01*
X8578568Y-26894271D02*
X8621425Y-26979985D01*
X8621425Y-26979985D02*
X8621425Y-27237128D01*
X8621425Y-27237128D02*
X8578568Y-27322842D01*
X8578568Y-27322842D02*
X8535710Y-27365700D01*
X8535710Y-27365700D02*
X8449996Y-27408557D01*
X8449996Y-27408557D02*
X8321425Y-27408557D01*
X9564282Y-26808557D02*
X9907139Y-26808557D01*
X9692853Y-26508557D02*
X9692853Y-27279985D01*
X9692853Y-27279985D02*
X9735710Y-27365700D01*
X9735710Y-27365700D02*
X9821425Y-27408557D01*
X9821425Y-27408557D02*
X9907139Y-27408557D01*
X10335711Y-27408557D02*
X10249996Y-27365700D01*
X10249996Y-27365700D02*
X10207139Y-27322842D01*
X10207139Y-27322842D02*
X10164282Y-27237128D01*
X10164282Y-27237128D02*
X10164282Y-26979985D01*
X10164282Y-26979985D02*
X10207139Y-26894271D01*
X10207139Y-26894271D02*
X10249996Y-26851414D01*
X10249996Y-26851414D02*
X10335711Y-26808557D01*
X10335711Y-26808557D02*
X10464282Y-26808557D01*
X10464282Y-26808557D02*
X10549996Y-26851414D01*
X10549996Y-26851414D02*
X10592854Y-26894271D01*
X10592854Y-26894271D02*
X10635711Y-26979985D01*
X10635711Y-26979985D02*
X10635711Y-27237128D01*
X10635711Y-27237128D02*
X10592854Y-27322842D01*
X10592854Y-27322842D02*
X10549996Y-27365700D01*
X10549996Y-27365700D02*
X10464282Y-27408557D01*
X10464282Y-27408557D02*
X10335711Y-27408557D01*
X11021425Y-26808557D02*
X11021425Y-27708557D01*
X11021425Y-26851414D02*
X11107140Y-26808557D01*
X11107140Y-26808557D02*
X11278568Y-26808557D01*
X11278568Y-26808557D02*
X11364282Y-26851414D01*
X11364282Y-26851414D02*
X11407140Y-26894271D01*
X11407140Y-26894271D02*
X11449997Y-26979985D01*
X11449997Y-26979985D02*
X11449997Y-27237128D01*
X11449997Y-27237128D02*
X11407140Y-27322842D01*
X11407140Y-27322842D02*
X11364282Y-27365700D01*
X11364282Y-27365700D02*
X11278568Y-27408557D01*
X11278568Y-27408557D02*
X11107140Y-27408557D01*
X11107140Y-27408557D02*
X11021425Y-27365700D01*
X12521425Y-27408557D02*
X12521425Y-26508557D01*
X12907140Y-27408557D02*
X12907140Y-26937128D01*
X12907140Y-26937128D02*
X12864282Y-26851414D01*
X12864282Y-26851414D02*
X12778568Y-26808557D01*
X12778568Y-26808557D02*
X12649997Y-26808557D01*
X12649997Y-26808557D02*
X12564282Y-26851414D01*
X12564282Y-26851414D02*
X12521425Y-26894271D01*
X13464283Y-27408557D02*
X13378568Y-27365700D01*
X13378568Y-27365700D02*
X13335711Y-27322842D01*
X13335711Y-27322842D02*
X13292854Y-27237128D01*
X13292854Y-27237128D02*
X13292854Y-26979985D01*
X13292854Y-26979985D02*
X13335711Y-26894271D01*
X13335711Y-26894271D02*
X13378568Y-26851414D01*
X13378568Y-26851414D02*
X13464283Y-26808557D01*
X13464283Y-26808557D02*
X13592854Y-26808557D01*
X13592854Y-26808557D02*
X13678568Y-26851414D01*
X13678568Y-26851414D02*
X13721426Y-26894271D01*
X13721426Y-26894271D02*
X13764283Y-26979985D01*
X13764283Y-26979985D02*
X13764283Y-27237128D01*
X13764283Y-27237128D02*
X13721426Y-27322842D01*
X13721426Y-27322842D02*
X13678568Y-27365700D01*
X13678568Y-27365700D02*
X13592854Y-27408557D01*
X13592854Y-27408557D02*
X13464283Y-27408557D01*
X14535712Y-26808557D02*
X14535712Y-27408557D01*
X14149997Y-26808557D02*
X14149997Y-27279985D01*
X14149997Y-27279985D02*
X14192854Y-27365700D01*
X14192854Y-27365700D02*
X14278569Y-27408557D01*
X14278569Y-27408557D02*
X14407140Y-27408557D01*
X14407140Y-27408557D02*
X14492854Y-27365700D01*
X14492854Y-27365700D02*
X14535712Y-27322842D01*
X14921426Y-27365700D02*
X15007140Y-27408557D01*
X15007140Y-27408557D02*
X15178569Y-27408557D01*
X15178569Y-27408557D02*
X15264283Y-27365700D01*
X15264283Y-27365700D02*
X15307140Y-27279985D01*
X15307140Y-27279985D02*
X15307140Y-27237128D01*
X15307140Y-27237128D02*
X15264283Y-27151414D01*
X15264283Y-27151414D02*
X15178569Y-27108557D01*
X15178569Y-27108557D02*
X15049998Y-27108557D01*
X15049998Y-27108557D02*
X14964283Y-27065700D01*
X14964283Y-27065700D02*
X14921426Y-26979985D01*
X14921426Y-26979985D02*
X14921426Y-26937128D01*
X14921426Y-26937128D02*
X14964283Y-26851414D01*
X14964283Y-26851414D02*
X15049998Y-26808557D01*
X15049998Y-26808557D02*
X15178569Y-26808557D01*
X15178569Y-26808557D02*
X15264283Y-26851414D01*
X15692854Y-27408557D02*
X15692854Y-26808557D01*
X15692854Y-26508557D02*
X15649997Y-26551414D01*
X15649997Y-26551414D02*
X15692854Y-26594271D01*
X15692854Y-26594271D02*
X15735711Y-26551414D01*
X15735711Y-26551414D02*
X15692854Y-26508557D01*
X15692854Y-26508557D02*
X15692854Y-26594271D01*
X16121425Y-26808557D02*
X16121425Y-27408557D01*
X16121425Y-26894271D02*
X16164282Y-26851414D01*
X16164282Y-26851414D02*
X16249997Y-26808557D01*
X16249997Y-26808557D02*
X16378568Y-26808557D01*
X16378568Y-26808557D02*
X16464282Y-26851414D01*
X16464282Y-26851414D02*
X16507140Y-26937128D01*
X16507140Y-26937128D02*
X16507140Y-27408557D01*
X17321426Y-26808557D02*
X17321426Y-27537128D01*
X17321426Y-27537128D02*
X17278568Y-27622842D01*
X17278568Y-27622842D02*
X17235711Y-27665700D01*
X17235711Y-27665700D02*
X17149997Y-27708557D01*
X17149997Y-27708557D02*
X17021426Y-27708557D01*
X17021426Y-27708557D02*
X16935711Y-27665700D01*
X17321426Y-27365700D02*
X17235711Y-27408557D01*
X17235711Y-27408557D02*
X17064283Y-27408557D01*
X17064283Y-27408557D02*
X16978568Y-27365700D01*
X16978568Y-27365700D02*
X16935711Y-27322842D01*
X16935711Y-27322842D02*
X16892854Y-27237128D01*
X16892854Y-27237128D02*
X16892854Y-26979985D01*
X16892854Y-26979985D02*
X16935711Y-26894271D01*
X16935711Y-26894271D02*
X16978568Y-26851414D01*
X16978568Y-26851414D02*
X17064283Y-26808557D01*
X17064283Y-26808557D02*
X17235711Y-26808557D01*
X17235711Y-26808557D02*
X17321426Y-26851414D01*
X19078568Y-26465700D02*
X18307140Y-27622842D01*
X20021425Y-27365700D02*
X20107139Y-27408557D01*
X20107139Y-27408557D02*
X20278568Y-27408557D01*
X20278568Y-27408557D02*
X20364282Y-27365700D01*
X20364282Y-27365700D02*
X20407139Y-27279985D01*
X20407139Y-27279985D02*
X20407139Y-27237128D01*
X20407139Y-27237128D02*
X20364282Y-27151414D01*
X20364282Y-27151414D02*
X20278568Y-27108557D01*
X20278568Y-27108557D02*
X20149997Y-27108557D01*
X20149997Y-27108557D02*
X20064282Y-27065700D01*
X20064282Y-27065700D02*
X20021425Y-26979985D01*
X20021425Y-26979985D02*
X20021425Y-26937128D01*
X20021425Y-26937128D02*
X20064282Y-26851414D01*
X20064282Y-26851414D02*
X20149997Y-26808557D01*
X20149997Y-26808557D02*
X20278568Y-26808557D01*
X20278568Y-26808557D02*
X20364282Y-26851414D01*
X21135710Y-27365700D02*
X21049996Y-27408557D01*
X21049996Y-27408557D02*
X20878568Y-27408557D01*
X20878568Y-27408557D02*
X20792853Y-27365700D01*
X20792853Y-27365700D02*
X20749996Y-27279985D01*
X20749996Y-27279985D02*
X20749996Y-26937128D01*
X20749996Y-26937128D02*
X20792853Y-26851414D01*
X20792853Y-26851414D02*
X20878568Y-26808557D01*
X20878568Y-26808557D02*
X21049996Y-26808557D01*
X21049996Y-26808557D02*
X21135710Y-26851414D01*
X21135710Y-26851414D02*
X21178568Y-26937128D01*
X21178568Y-26937128D02*
X21178568Y-27022842D01*
X21178568Y-27022842D02*
X20749996Y-27108557D01*
X21692854Y-27408557D02*
X21607139Y-27365700D01*
X21607139Y-27365700D02*
X21564282Y-27279985D01*
X21564282Y-27279985D02*
X21564282Y-26508557D01*
X22378568Y-27365700D02*
X22292854Y-27408557D01*
X22292854Y-27408557D02*
X22121426Y-27408557D01*
X22121426Y-27408557D02*
X22035711Y-27365700D01*
X22035711Y-27365700D02*
X21992854Y-27279985D01*
X21992854Y-27279985D02*
X21992854Y-26937128D01*
X21992854Y-26937128D02*
X22035711Y-26851414D01*
X22035711Y-26851414D02*
X22121426Y-26808557D01*
X22121426Y-26808557D02*
X22292854Y-26808557D01*
X22292854Y-26808557D02*
X22378568Y-26851414D01*
X22378568Y-26851414D02*
X22421426Y-26937128D01*
X22421426Y-26937128D02*
X22421426Y-27022842D01*
X22421426Y-27022842D02*
X21992854Y-27108557D01*
X23192855Y-27365700D02*
X23107140Y-27408557D01*
X23107140Y-27408557D02*
X22935712Y-27408557D01*
X22935712Y-27408557D02*
X22849997Y-27365700D01*
X22849997Y-27365700D02*
X22807140Y-27322842D01*
X22807140Y-27322842D02*
X22764283Y-27237128D01*
X22764283Y-27237128D02*
X22764283Y-26979985D01*
X22764283Y-26979985D02*
X22807140Y-26894271D01*
X22807140Y-26894271D02*
X22849997Y-26851414D01*
X22849997Y-26851414D02*
X22935712Y-26808557D01*
X22935712Y-26808557D02*
X23107140Y-26808557D01*
X23107140Y-26808557D02*
X23192855Y-26851414D01*
X23449998Y-26808557D02*
X23792855Y-26808557D01*
X23578569Y-26508557D02*
X23578569Y-27279985D01*
X23578569Y-27279985D02*
X23621426Y-27365700D01*
X23621426Y-27365700D02*
X23707141Y-27408557D01*
X23707141Y-27408557D02*
X23792855Y-27408557D01*
X24435712Y-27365700D02*
X24349998Y-27408557D01*
X24349998Y-27408557D02*
X24178570Y-27408557D01*
X24178570Y-27408557D02*
X24092855Y-27365700D01*
X24092855Y-27365700D02*
X24049998Y-27279985D01*
X24049998Y-27279985D02*
X24049998Y-26937128D01*
X24049998Y-26937128D02*
X24092855Y-26851414D01*
X24092855Y-26851414D02*
X24178570Y-26808557D01*
X24178570Y-26808557D02*
X24349998Y-26808557D01*
X24349998Y-26808557D02*
X24435712Y-26851414D01*
X24435712Y-26851414D02*
X24478570Y-26937128D01*
X24478570Y-26937128D02*
X24478570Y-27022842D01*
X24478570Y-27022842D02*
X24049998Y-27108557D01*
X25249999Y-27408557D02*
X25249999Y-26508557D01*
X25249999Y-27365700D02*
X25164284Y-27408557D01*
X25164284Y-27408557D02*
X24992856Y-27408557D01*
X24992856Y-27408557D02*
X24907141Y-27365700D01*
X24907141Y-27365700D02*
X24864284Y-27322842D01*
X24864284Y-27322842D02*
X24821427Y-27237128D01*
X24821427Y-27237128D02*
X24821427Y-26979985D01*
X24821427Y-26979985D02*
X24864284Y-26894271D01*
X24864284Y-26894271D02*
X24907141Y-26851414D01*
X24907141Y-26851414D02*
X24992856Y-26808557D01*
X24992856Y-26808557D02*
X25164284Y-26808557D01*
X25164284Y-26808557D02*
X25249999Y-26851414D01*
X26364284Y-27408557D02*
X26364284Y-26508557D01*
X26364284Y-26508557D02*
X26664284Y-27151414D01*
X26664284Y-27151414D02*
X26964284Y-26508557D01*
X26964284Y-26508557D02*
X26964284Y-27408557D01*
X27864284Y-27408557D02*
X27349998Y-27408557D01*
X27607141Y-27408557D02*
X27607141Y-26508557D01*
X27607141Y-26508557D02*
X27521427Y-26637128D01*
X27521427Y-26637128D02*
X27435712Y-26722842D01*
X27435712Y-26722842D02*
X27349998Y-26765700D01*
X28249998Y-27322842D02*
X28292855Y-27365700D01*
X28292855Y-27365700D02*
X28249998Y-27408557D01*
X28249998Y-27408557D02*
X28207141Y-27365700D01*
X28207141Y-27365700D02*
X28249998Y-27322842D01*
X28249998Y-27322842D02*
X28249998Y-27408557D01*
X29064284Y-26808557D02*
X29064284Y-27408557D01*
X28849998Y-26465700D02*
X28635712Y-27108557D01*
X28635712Y-27108557D02*
X29192855Y-27108557D01*
X30221426Y-27408557D02*
X30221426Y-26508557D01*
X30221426Y-26508557D02*
X30521426Y-27151414D01*
X30521426Y-27151414D02*
X30821426Y-26508557D01*
X30821426Y-26508557D02*
X30821426Y-27408557D01*
X31249997Y-27408557D02*
X31249997Y-26508557D01*
X31249997Y-26937128D02*
X31764283Y-26937128D01*
X31764283Y-27408557D02*
X31764283Y-26508557D01*
X32878568Y-27408557D02*
X32878568Y-26808557D01*
X32878568Y-26979985D02*
X32921425Y-26894271D01*
X32921425Y-26894271D02*
X32964283Y-26851414D01*
X32964283Y-26851414D02*
X33049997Y-26808557D01*
X33049997Y-26808557D02*
X33135711Y-26808557D01*
X33778568Y-27365700D02*
X33692854Y-27408557D01*
X33692854Y-27408557D02*
X33521426Y-27408557D01*
X33521426Y-27408557D02*
X33435711Y-27365700D01*
X33435711Y-27365700D02*
X33392854Y-27279985D01*
X33392854Y-27279985D02*
X33392854Y-26937128D01*
X33392854Y-26937128D02*
X33435711Y-26851414D01*
X33435711Y-26851414D02*
X33521426Y-26808557D01*
X33521426Y-26808557D02*
X33692854Y-26808557D01*
X33692854Y-26808557D02*
X33778568Y-26851414D01*
X33778568Y-26851414D02*
X33821426Y-26937128D01*
X33821426Y-26937128D02*
X33821426Y-27022842D01*
X33821426Y-27022842D02*
X33392854Y-27108557D01*
X34078569Y-26808557D02*
X34421426Y-26808557D01*
X34207140Y-26508557D02*
X34207140Y-27279985D01*
X34207140Y-27279985D02*
X34249997Y-27365700D01*
X34249997Y-27365700D02*
X34335712Y-27408557D01*
X34335712Y-27408557D02*
X34421426Y-27408557D01*
X35064283Y-27365700D02*
X34978569Y-27408557D01*
X34978569Y-27408557D02*
X34807141Y-27408557D01*
X34807141Y-27408557D02*
X34721426Y-27365700D01*
X34721426Y-27365700D02*
X34678569Y-27279985D01*
X34678569Y-27279985D02*
X34678569Y-26937128D01*
X34678569Y-26937128D02*
X34721426Y-26851414D01*
X34721426Y-26851414D02*
X34807141Y-26808557D01*
X34807141Y-26808557D02*
X34978569Y-26808557D01*
X34978569Y-26808557D02*
X35064283Y-26851414D01*
X35064283Y-26851414D02*
X35107141Y-26937128D01*
X35107141Y-26937128D02*
X35107141Y-27022842D01*
X35107141Y-27022842D02*
X34678569Y-27108557D01*
X35492855Y-26808557D02*
X35492855Y-27408557D01*
X35492855Y-26894271D02*
X35535712Y-26851414D01*
X35535712Y-26851414D02*
X35621427Y-26808557D01*
X35621427Y-26808557D02*
X35749998Y-26808557D01*
X35749998Y-26808557D02*
X35835712Y-26851414D01*
X35835712Y-26851414D02*
X35878570Y-26937128D01*
X35878570Y-26937128D02*
X35878570Y-27408557D01*
X36178570Y-26808557D02*
X36521427Y-26808557D01*
X36307141Y-26508557D02*
X36307141Y-27279985D01*
X36307141Y-27279985D02*
X36349998Y-27365700D01*
X36349998Y-27365700D02*
X36435713Y-27408557D01*
X36435713Y-27408557D02*
X36521427Y-27408557D01*
X36821427Y-27408557D02*
X36821427Y-26808557D01*
X36821427Y-26508557D02*
X36778570Y-26551414D01*
X36778570Y-26551414D02*
X36821427Y-26594271D01*
X36821427Y-26594271D02*
X36864284Y-26551414D01*
X36864284Y-26551414D02*
X36821427Y-26508557D01*
X36821427Y-26508557D02*
X36821427Y-26594271D01*
X37378570Y-27408557D02*
X37292855Y-27365700D01*
X37292855Y-27365700D02*
X37249998Y-27322842D01*
X37249998Y-27322842D02*
X37207141Y-27237128D01*
X37207141Y-27237128D02*
X37207141Y-26979985D01*
X37207141Y-26979985D02*
X37249998Y-26894271D01*
X37249998Y-26894271D02*
X37292855Y-26851414D01*
X37292855Y-26851414D02*
X37378570Y-26808557D01*
X37378570Y-26808557D02*
X37507141Y-26808557D01*
X37507141Y-26808557D02*
X37592855Y-26851414D01*
X37592855Y-26851414D02*
X37635713Y-26894271D01*
X37635713Y-26894271D02*
X37678570Y-26979985D01*
X37678570Y-26979985D02*
X37678570Y-27237128D01*
X37678570Y-27237128D02*
X37635713Y-27322842D01*
X37635713Y-27322842D02*
X37592855Y-27365700D01*
X37592855Y-27365700D02*
X37507141Y-27408557D01*
X37507141Y-27408557D02*
X37378570Y-27408557D01*
X38064284Y-26808557D02*
X38064284Y-27408557D01*
X38064284Y-26894271D02*
X38107141Y-26851414D01*
X38107141Y-26851414D02*
X38192856Y-26808557D01*
X38192856Y-26808557D02*
X38321427Y-26808557D01*
X38321427Y-26808557D02*
X38407141Y-26851414D01*
X38407141Y-26851414D02*
X38449999Y-26937128D01*
X38449999Y-26937128D02*
X38449999Y-27408557D01*
X39564284Y-27065700D02*
X40249999Y-27065700D01*
X39907141Y-27408557D02*
X39907141Y-26722842D01*
X41364284Y-27408557D02*
X41364284Y-26808557D01*
X41364284Y-26508557D02*
X41321427Y-26551414D01*
X41321427Y-26551414D02*
X41364284Y-26594271D01*
X41364284Y-26594271D02*
X41407141Y-26551414D01*
X41407141Y-26551414D02*
X41364284Y-26508557D01*
X41364284Y-26508557D02*
X41364284Y-26594271D01*
X41792855Y-26808557D02*
X41792855Y-27408557D01*
X41792855Y-26894271D02*
X41835712Y-26851414D01*
X41835712Y-26851414D02*
X41921427Y-26808557D01*
X41921427Y-26808557D02*
X42049998Y-26808557D01*
X42049998Y-26808557D02*
X42135712Y-26851414D01*
X42135712Y-26851414D02*
X42178570Y-26937128D01*
X42178570Y-26937128D02*
X42178570Y-27408557D01*
X42992856Y-27408557D02*
X42992856Y-26508557D01*
X42992856Y-27365700D02*
X42907141Y-27408557D01*
X42907141Y-27408557D02*
X42735713Y-27408557D01*
X42735713Y-27408557D02*
X42649998Y-27365700D01*
X42649998Y-27365700D02*
X42607141Y-27322842D01*
X42607141Y-27322842D02*
X42564284Y-27237128D01*
X42564284Y-27237128D02*
X42564284Y-26979985D01*
X42564284Y-26979985D02*
X42607141Y-26894271D01*
X42607141Y-26894271D02*
X42649998Y-26851414D01*
X42649998Y-26851414D02*
X42735713Y-26808557D01*
X42735713Y-26808557D02*
X42907141Y-26808557D01*
X42907141Y-26808557D02*
X42992856Y-26851414D01*
X43764284Y-27365700D02*
X43678570Y-27408557D01*
X43678570Y-27408557D02*
X43507142Y-27408557D01*
X43507142Y-27408557D02*
X43421427Y-27365700D01*
X43421427Y-27365700D02*
X43378570Y-27279985D01*
X43378570Y-27279985D02*
X43378570Y-26937128D01*
X43378570Y-26937128D02*
X43421427Y-26851414D01*
X43421427Y-26851414D02*
X43507142Y-26808557D01*
X43507142Y-26808557D02*
X43678570Y-26808557D01*
X43678570Y-26808557D02*
X43764284Y-26851414D01*
X43764284Y-26851414D02*
X43807142Y-26937128D01*
X43807142Y-26937128D02*
X43807142Y-27022842D01*
X43807142Y-27022842D02*
X43378570Y-27108557D01*
X44192856Y-26808557D02*
X44192856Y-27708557D01*
X44192856Y-26851414D02*
X44278571Y-26808557D01*
X44278571Y-26808557D02*
X44449999Y-26808557D01*
X44449999Y-26808557D02*
X44535713Y-26851414D01*
X44535713Y-26851414D02*
X44578571Y-26894271D01*
X44578571Y-26894271D02*
X44621428Y-26979985D01*
X44621428Y-26979985D02*
X44621428Y-27237128D01*
X44621428Y-27237128D02*
X44578571Y-27322842D01*
X44578571Y-27322842D02*
X44535713Y-27365700D01*
X44535713Y-27365700D02*
X44449999Y-27408557D01*
X44449999Y-27408557D02*
X44278571Y-27408557D01*
X44278571Y-27408557D02*
X44192856Y-27365700D01*
X45349999Y-27365700D02*
X45264285Y-27408557D01*
X45264285Y-27408557D02*
X45092857Y-27408557D01*
X45092857Y-27408557D02*
X45007142Y-27365700D01*
X45007142Y-27365700D02*
X44964285Y-27279985D01*
X44964285Y-27279985D02*
X44964285Y-26937128D01*
X44964285Y-26937128D02*
X45007142Y-26851414D01*
X45007142Y-26851414D02*
X45092857Y-26808557D01*
X45092857Y-26808557D02*
X45264285Y-26808557D01*
X45264285Y-26808557D02*
X45349999Y-26851414D01*
X45349999Y-26851414D02*
X45392857Y-26937128D01*
X45392857Y-26937128D02*
X45392857Y-27022842D01*
X45392857Y-27022842D02*
X44964285Y-27108557D01*
X45778571Y-26808557D02*
X45778571Y-27408557D01*
X45778571Y-26894271D02*
X45821428Y-26851414D01*
X45821428Y-26851414D02*
X45907143Y-26808557D01*
X45907143Y-26808557D02*
X46035714Y-26808557D01*
X46035714Y-26808557D02*
X46121428Y-26851414D01*
X46121428Y-26851414D02*
X46164286Y-26937128D01*
X46164286Y-26937128D02*
X46164286Y-27408557D01*
X46978572Y-27408557D02*
X46978572Y-26508557D01*
X46978572Y-27365700D02*
X46892857Y-27408557D01*
X46892857Y-27408557D02*
X46721429Y-27408557D01*
X46721429Y-27408557D02*
X46635714Y-27365700D01*
X46635714Y-27365700D02*
X46592857Y-27322842D01*
X46592857Y-27322842D02*
X46550000Y-27237128D01*
X46550000Y-27237128D02*
X46550000Y-26979985D01*
X46550000Y-26979985D02*
X46592857Y-26894271D01*
X46592857Y-26894271D02*
X46635714Y-26851414D01*
X46635714Y-26851414D02*
X46721429Y-26808557D01*
X46721429Y-26808557D02*
X46892857Y-26808557D01*
X46892857Y-26808557D02*
X46978572Y-26851414D01*
X47750000Y-27365700D02*
X47664286Y-27408557D01*
X47664286Y-27408557D02*
X47492858Y-27408557D01*
X47492858Y-27408557D02*
X47407143Y-27365700D01*
X47407143Y-27365700D02*
X47364286Y-27279985D01*
X47364286Y-27279985D02*
X47364286Y-26937128D01*
X47364286Y-26937128D02*
X47407143Y-26851414D01*
X47407143Y-26851414D02*
X47492858Y-26808557D01*
X47492858Y-26808557D02*
X47664286Y-26808557D01*
X47664286Y-26808557D02*
X47750000Y-26851414D01*
X47750000Y-26851414D02*
X47792858Y-26937128D01*
X47792858Y-26937128D02*
X47792858Y-27022842D01*
X47792858Y-27022842D02*
X47364286Y-27108557D01*
X48178572Y-26808557D02*
X48178572Y-27408557D01*
X48178572Y-26894271D02*
X48221429Y-26851414D01*
X48221429Y-26851414D02*
X48307144Y-26808557D01*
X48307144Y-26808557D02*
X48435715Y-26808557D01*
X48435715Y-26808557D02*
X48521429Y-26851414D01*
X48521429Y-26851414D02*
X48564287Y-26937128D01*
X48564287Y-26937128D02*
X48564287Y-27408557D01*
X48864287Y-26808557D02*
X49207144Y-26808557D01*
X48992858Y-26508557D02*
X48992858Y-27279985D01*
X48992858Y-27279985D02*
X49035715Y-27365700D01*
X49035715Y-27365700D02*
X49121430Y-27408557D01*
X49121430Y-27408557D02*
X49207144Y-27408557D01*
X50578573Y-26808557D02*
X50578573Y-27408557D01*
X50192858Y-26808557D02*
X50192858Y-27279985D01*
X50192858Y-27279985D02*
X50235715Y-27365700D01*
X50235715Y-27365700D02*
X50321430Y-27408557D01*
X50321430Y-27408557D02*
X50450001Y-27408557D01*
X50450001Y-27408557D02*
X50535715Y-27365700D01*
X50535715Y-27365700D02*
X50578573Y-27322842D01*
X51007144Y-26808557D02*
X51007144Y-27408557D01*
X51007144Y-26894271D02*
X51050001Y-26851414D01*
X51050001Y-26851414D02*
X51135716Y-26808557D01*
X51135716Y-26808557D02*
X51264287Y-26808557D01*
X51264287Y-26808557D02*
X51350001Y-26851414D01*
X51350001Y-26851414D02*
X51392859Y-26937128D01*
X51392859Y-26937128D02*
X51392859Y-27408557D01*
X52207145Y-27408557D02*
X52207145Y-26508557D01*
X52207145Y-27365700D02*
X52121430Y-27408557D01*
X52121430Y-27408557D02*
X51950002Y-27408557D01*
X51950002Y-27408557D02*
X51864287Y-27365700D01*
X51864287Y-27365700D02*
X51821430Y-27322842D01*
X51821430Y-27322842D02*
X51778573Y-27237128D01*
X51778573Y-27237128D02*
X51778573Y-26979985D01*
X51778573Y-26979985D02*
X51821430Y-26894271D01*
X51821430Y-26894271D02*
X51864287Y-26851414D01*
X51864287Y-26851414D02*
X51950002Y-26808557D01*
X51950002Y-26808557D02*
X52121430Y-26808557D01*
X52121430Y-26808557D02*
X52207145Y-26851414D01*
X52978573Y-27365700D02*
X52892859Y-27408557D01*
X52892859Y-27408557D02*
X52721431Y-27408557D01*
X52721431Y-27408557D02*
X52635716Y-27365700D01*
X52635716Y-27365700D02*
X52592859Y-27279985D01*
X52592859Y-27279985D02*
X52592859Y-26937128D01*
X52592859Y-26937128D02*
X52635716Y-26851414D01*
X52635716Y-26851414D02*
X52721431Y-26808557D01*
X52721431Y-26808557D02*
X52892859Y-26808557D01*
X52892859Y-26808557D02*
X52978573Y-26851414D01*
X52978573Y-26851414D02*
X53021431Y-26937128D01*
X53021431Y-26937128D02*
X53021431Y-27022842D01*
X53021431Y-27022842D02*
X52592859Y-27108557D01*
X53407145Y-27408557D02*
X53407145Y-26808557D01*
X53407145Y-26979985D02*
X53450002Y-26894271D01*
X53450002Y-26894271D02*
X53492860Y-26851414D01*
X53492860Y-26851414D02*
X53578574Y-26808557D01*
X53578574Y-26808557D02*
X53664288Y-26808557D01*
X53921431Y-27365700D02*
X54007145Y-27408557D01*
X54007145Y-27408557D02*
X54178574Y-27408557D01*
X54178574Y-27408557D02*
X54264288Y-27365700D01*
X54264288Y-27365700D02*
X54307145Y-27279985D01*
X54307145Y-27279985D02*
X54307145Y-27237128D01*
X54307145Y-27237128D02*
X54264288Y-27151414D01*
X54264288Y-27151414D02*
X54178574Y-27108557D01*
X54178574Y-27108557D02*
X54050003Y-27108557D01*
X54050003Y-27108557D02*
X53964288Y-27065700D01*
X53964288Y-27065700D02*
X53921431Y-26979985D01*
X53921431Y-26979985D02*
X53921431Y-26937128D01*
X53921431Y-26937128D02*
X53964288Y-26851414D01*
X53964288Y-26851414D02*
X54050003Y-26808557D01*
X54050003Y-26808557D02*
X54178574Y-26808557D01*
X54178574Y-26808557D02*
X54264288Y-26851414D01*
X54692859Y-27408557D02*
X54692859Y-26808557D01*
X54692859Y-26508557D02*
X54650002Y-26551414D01*
X54650002Y-26551414D02*
X54692859Y-26594271D01*
X54692859Y-26594271D02*
X54735716Y-26551414D01*
X54735716Y-26551414D02*
X54692859Y-26508557D01*
X54692859Y-26508557D02*
X54692859Y-26594271D01*
X55507145Y-27408557D02*
X55507145Y-26508557D01*
X55507145Y-27365700D02*
X55421430Y-27408557D01*
X55421430Y-27408557D02*
X55250002Y-27408557D01*
X55250002Y-27408557D02*
X55164287Y-27365700D01*
X55164287Y-27365700D02*
X55121430Y-27322842D01*
X55121430Y-27322842D02*
X55078573Y-27237128D01*
X55078573Y-27237128D02*
X55078573Y-26979985D01*
X55078573Y-26979985D02*
X55121430Y-26894271D01*
X55121430Y-26894271D02*
X55164287Y-26851414D01*
X55164287Y-26851414D02*
X55250002Y-26808557D01*
X55250002Y-26808557D02*
X55421430Y-26808557D01*
X55421430Y-26808557D02*
X55507145Y-26851414D01*
X56278573Y-27365700D02*
X56192859Y-27408557D01*
X56192859Y-27408557D02*
X56021431Y-27408557D01*
X56021431Y-27408557D02*
X55935716Y-27365700D01*
X55935716Y-27365700D02*
X55892859Y-27279985D01*
X55892859Y-27279985D02*
X55892859Y-26937128D01*
X55892859Y-26937128D02*
X55935716Y-26851414D01*
X55935716Y-26851414D02*
X56021431Y-26808557D01*
X56021431Y-26808557D02*
X56192859Y-26808557D01*
X56192859Y-26808557D02*
X56278573Y-26851414D01*
X56278573Y-26851414D02*
X56321431Y-26937128D01*
X56321431Y-26937128D02*
X56321431Y-27022842D01*
X56321431Y-27022842D02*
X55892859Y-27108557D01*
X57350002Y-27365700D02*
X57435716Y-27408557D01*
X57435716Y-27408557D02*
X57607145Y-27408557D01*
X57607145Y-27408557D02*
X57692859Y-27365700D01*
X57692859Y-27365700D02*
X57735716Y-27279985D01*
X57735716Y-27279985D02*
X57735716Y-27237128D01*
X57735716Y-27237128D02*
X57692859Y-27151414D01*
X57692859Y-27151414D02*
X57607145Y-27108557D01*
X57607145Y-27108557D02*
X57478574Y-27108557D01*
X57478574Y-27108557D02*
X57392859Y-27065700D01*
X57392859Y-27065700D02*
X57350002Y-26979985D01*
X57350002Y-26979985D02*
X57350002Y-26937128D01*
X57350002Y-26937128D02*
X57392859Y-26851414D01*
X57392859Y-26851414D02*
X57478574Y-26808557D01*
X57478574Y-26808557D02*
X57607145Y-26808557D01*
X57607145Y-26808557D02*
X57692859Y-26851414D01*
X58507145Y-26808557D02*
X58507145Y-27408557D01*
X58121430Y-26808557D02*
X58121430Y-27279985D01*
X58121430Y-27279985D02*
X58164287Y-27365700D01*
X58164287Y-27365700D02*
X58250002Y-27408557D01*
X58250002Y-27408557D02*
X58378573Y-27408557D01*
X58378573Y-27408557D02*
X58464287Y-27365700D01*
X58464287Y-27365700D02*
X58507145Y-27322842D01*
X58935716Y-26808557D02*
X58935716Y-27708557D01*
X58935716Y-26851414D02*
X59021431Y-26808557D01*
X59021431Y-26808557D02*
X59192859Y-26808557D01*
X59192859Y-26808557D02*
X59278573Y-26851414D01*
X59278573Y-26851414D02*
X59321431Y-26894271D01*
X59321431Y-26894271D02*
X59364288Y-26979985D01*
X59364288Y-26979985D02*
X59364288Y-27237128D01*
X59364288Y-27237128D02*
X59321431Y-27322842D01*
X59321431Y-27322842D02*
X59278573Y-27365700D01*
X59278573Y-27365700D02*
X59192859Y-27408557D01*
X59192859Y-27408557D02*
X59021431Y-27408557D01*
X59021431Y-27408557D02*
X58935716Y-27365700D01*
X59750002Y-26808557D02*
X59750002Y-27708557D01*
X59750002Y-26851414D02*
X59835717Y-26808557D01*
X59835717Y-26808557D02*
X60007145Y-26808557D01*
X60007145Y-26808557D02*
X60092859Y-26851414D01*
X60092859Y-26851414D02*
X60135717Y-26894271D01*
X60135717Y-26894271D02*
X60178574Y-26979985D01*
X60178574Y-26979985D02*
X60178574Y-27237128D01*
X60178574Y-27237128D02*
X60135717Y-27322842D01*
X60135717Y-27322842D02*
X60092859Y-27365700D01*
X60092859Y-27365700D02*
X60007145Y-27408557D01*
X60007145Y-27408557D02*
X59835717Y-27408557D01*
X59835717Y-27408557D02*
X59750002Y-27365700D01*
X60692860Y-27408557D02*
X60607145Y-27365700D01*
X60607145Y-27365700D02*
X60564288Y-27322842D01*
X60564288Y-27322842D02*
X60521431Y-27237128D01*
X60521431Y-27237128D02*
X60521431Y-26979985D01*
X60521431Y-26979985D02*
X60564288Y-26894271D01*
X60564288Y-26894271D02*
X60607145Y-26851414D01*
X60607145Y-26851414D02*
X60692860Y-26808557D01*
X60692860Y-26808557D02*
X60821431Y-26808557D01*
X60821431Y-26808557D02*
X60907145Y-26851414D01*
X60907145Y-26851414D02*
X60950003Y-26894271D01*
X60950003Y-26894271D02*
X60992860Y-26979985D01*
X60992860Y-26979985D02*
X60992860Y-27237128D01*
X60992860Y-27237128D02*
X60950003Y-27322842D01*
X60950003Y-27322842D02*
X60907145Y-27365700D01*
X60907145Y-27365700D02*
X60821431Y-27408557D01*
X60821431Y-27408557D02*
X60692860Y-27408557D01*
X61378574Y-27408557D02*
X61378574Y-26808557D01*
X61378574Y-26979985D02*
X61421431Y-26894271D01*
X61421431Y-26894271D02*
X61464289Y-26851414D01*
X61464289Y-26851414D02*
X61550003Y-26808557D01*
X61550003Y-26808557D02*
X61635717Y-26808557D01*
X61807146Y-26808557D02*
X62150003Y-26808557D01*
X61935717Y-26508557D02*
X61935717Y-27279985D01*
X61935717Y-27279985D02*
X61978574Y-27365700D01*
X61978574Y-27365700D02*
X62064289Y-27408557D01*
X62064289Y-27408557D02*
X62150003Y-27408557D01*
X62407146Y-27365700D02*
X62492860Y-27408557D01*
X62492860Y-27408557D02*
X62664289Y-27408557D01*
X62664289Y-27408557D02*
X62750003Y-27365700D01*
X62750003Y-27365700D02*
X62792860Y-27279985D01*
X62792860Y-27279985D02*
X62792860Y-27237128D01*
X62792860Y-27237128D02*
X62750003Y-27151414D01*
X62750003Y-27151414D02*
X62664289Y-27108557D01*
X62664289Y-27108557D02*
X62535718Y-27108557D01*
X62535718Y-27108557D02*
X62450003Y-27065700D01*
X62450003Y-27065700D02*
X62407146Y-26979985D01*
X62407146Y-26979985D02*
X62407146Y-26937128D01*
X62407146Y-26937128D02*
X62450003Y-26851414D01*
X62450003Y-26851414D02*
X62535718Y-26808557D01*
X62535718Y-26808557D02*
X62664289Y-26808557D01*
X62664289Y-26808557D02*
X62750003Y-26851414D01*
X8485715Y-24547342D02*
X8485715Y-23347342D01*
X9171429Y-24547342D02*
X8657143Y-23861628D01*
X9171429Y-23347342D02*
X8485715Y-24033057D01*
X10371429Y-24433057D02*
X10314286Y-24490200D01*
X10314286Y-24490200D02*
X10142858Y-24547342D01*
X10142858Y-24547342D02*
X10028572Y-24547342D01*
X10028572Y-24547342D02*
X9857143Y-24490200D01*
X9857143Y-24490200D02*
X9742858Y-24375914D01*
X9742858Y-24375914D02*
X9685715Y-24261628D01*
X9685715Y-24261628D02*
X9628572Y-24033057D01*
X9628572Y-24033057D02*
X9628572Y-23861628D01*
X9628572Y-23861628D02*
X9685715Y-23633057D01*
X9685715Y-23633057D02*
X9742858Y-23518771D01*
X9742858Y-23518771D02*
X9857143Y-23404485D01*
X9857143Y-23404485D02*
X10028572Y-23347342D01*
X10028572Y-23347342D02*
X10142858Y-23347342D01*
X10142858Y-23347342D02*
X10314286Y-23404485D01*
X10314286Y-23404485D02*
X10371429Y-23461628D01*
X10828572Y-23461628D02*
X10885715Y-23404485D01*
X10885715Y-23404485D02*
X11000001Y-23347342D01*
X11000001Y-23347342D02*
X11285715Y-23347342D01*
X11285715Y-23347342D02*
X11400001Y-23404485D01*
X11400001Y-23404485D02*
X11457143Y-23461628D01*
X11457143Y-23461628D02*
X11514286Y-23575914D01*
X11514286Y-23575914D02*
X11514286Y-23690200D01*
X11514286Y-23690200D02*
X11457143Y-23861628D01*
X11457143Y-23861628D02*
X10771429Y-24547342D01*
X10771429Y-24547342D02*
X11514286Y-24547342D01*
X13628572Y-24547342D02*
X13228572Y-23975914D01*
X12942858Y-24547342D02*
X12942858Y-23347342D01*
X12942858Y-23347342D02*
X13400001Y-23347342D01*
X13400001Y-23347342D02*
X13514286Y-23404485D01*
X13514286Y-23404485D02*
X13571429Y-23461628D01*
X13571429Y-23461628D02*
X13628572Y-23575914D01*
X13628572Y-23575914D02*
X13628572Y-23747342D01*
X13628572Y-23747342D02*
X13571429Y-23861628D01*
X13571429Y-23861628D02*
X13514286Y-23918771D01*
X13514286Y-23918771D02*
X13400001Y-23975914D01*
X13400001Y-23975914D02*
X12942858Y-23975914D01*
X14142858Y-24547342D02*
X14142858Y-23347342D01*
X15342858Y-23404485D02*
X15228573Y-23347342D01*
X15228573Y-23347342D02*
X15057144Y-23347342D01*
X15057144Y-23347342D02*
X14885715Y-23404485D01*
X14885715Y-23404485D02*
X14771430Y-23518771D01*
X14771430Y-23518771D02*
X14714287Y-23633057D01*
X14714287Y-23633057D02*
X14657144Y-23861628D01*
X14657144Y-23861628D02*
X14657144Y-24033057D01*
X14657144Y-24033057D02*
X14714287Y-24261628D01*
X14714287Y-24261628D02*
X14771430Y-24375914D01*
X14771430Y-24375914D02*
X14885715Y-24490200D01*
X14885715Y-24490200D02*
X15057144Y-24547342D01*
X15057144Y-24547342D02*
X15171430Y-24547342D01*
X15171430Y-24547342D02*
X15342858Y-24490200D01*
X15342858Y-24490200D02*
X15400001Y-24433057D01*
X15400001Y-24433057D02*
X15400001Y-24033057D01*
X15400001Y-24033057D02*
X15171430Y-24033057D01*
X15914287Y-24547342D02*
X15914287Y-23347342D01*
X15914287Y-23918771D02*
X16600001Y-23918771D01*
X16600001Y-24547342D02*
X16600001Y-23347342D01*
X17000001Y-23347342D02*
X17685716Y-23347342D01*
X17342858Y-24547342D02*
X17342858Y-23347342D01*
X18885716Y-23347342D02*
X19685716Y-24547342D01*
X19685716Y-23347342D02*
X18885716Y-24547342D01*
X20028573Y-23347342D02*
X20771430Y-23347342D01*
X20771430Y-23347342D02*
X20371430Y-23804485D01*
X20371430Y-23804485D02*
X20542859Y-23804485D01*
X20542859Y-23804485D02*
X20657145Y-23861628D01*
X20657145Y-23861628D02*
X20714287Y-23918771D01*
X20714287Y-23918771D02*
X20771430Y-24033057D01*
X20771430Y-24033057D02*
X20771430Y-24318771D01*
X20771430Y-24318771D02*
X20714287Y-24433057D01*
X20714287Y-24433057D02*
X20657145Y-24490200D01*
X20657145Y-24490200D02*
X20542859Y-24547342D01*
X20542859Y-24547342D02*
X20200002Y-24547342D01*
X20200002Y-24547342D02*
X20085716Y-24490200D01*
X20085716Y-24490200D02*
X20028573Y-24433057D01*
X21285716Y-24090200D02*
X22200002Y-24090200D01*
X22600001Y-23347342D02*
X23000001Y-24547342D01*
X23000001Y-24547342D02*
X23400001Y-23347342D01*
X23742858Y-23461628D02*
X23800001Y-23404485D01*
X23800001Y-23404485D02*
X23914287Y-23347342D01*
X23914287Y-23347342D02*
X24200001Y-23347342D01*
X24200001Y-23347342D02*
X24314287Y-23404485D01*
X24314287Y-23404485D02*
X24371429Y-23461628D01*
X24371429Y-23461628D02*
X24428572Y-23575914D01*
X24428572Y-23575914D02*
X24428572Y-23690200D01*
X24428572Y-23690200D02*
X24371429Y-23861628D01*
X24371429Y-23861628D02*
X23685715Y-24547342D01*
X23685715Y-24547342D02*
X24428572Y-24547342D01*
X25857144Y-24090200D02*
X26771430Y-24090200D01*
X28142858Y-23347342D02*
X28942858Y-23347342D01*
X28942858Y-23347342D02*
X28428572Y-24547342D01*
X29628572Y-23347342D02*
X29742858Y-23347342D01*
X29742858Y-23347342D02*
X29857144Y-23404485D01*
X29857144Y-23404485D02*
X29914287Y-23461628D01*
X29914287Y-23461628D02*
X29971429Y-23575914D01*
X29971429Y-23575914D02*
X30028572Y-23804485D01*
X30028572Y-23804485D02*
X30028572Y-24090200D01*
X30028572Y-24090200D02*
X29971429Y-24318771D01*
X29971429Y-24318771D02*
X29914287Y-24433057D01*
X29914287Y-24433057D02*
X29857144Y-24490200D01*
X29857144Y-24490200D02*
X29742858Y-24547342D01*
X29742858Y-24547342D02*
X29628572Y-24547342D01*
X29628572Y-24547342D02*
X29514287Y-24490200D01*
X29514287Y-24490200D02*
X29457144Y-24433057D01*
X29457144Y-24433057D02*
X29400001Y-24318771D01*
X29400001Y-24318771D02*
X29342858Y-24090200D01*
X29342858Y-24090200D02*
X29342858Y-23804485D01*
X29342858Y-23804485D02*
X29400001Y-23575914D01*
X29400001Y-23575914D02*
X29457144Y-23461628D01*
X29457144Y-23461628D02*
X29514287Y-23404485D01*
X29514287Y-23404485D02*
X29628572Y-23347342D01*
X30542858Y-24090200D02*
X31457144Y-24090200D01*
X32028572Y-24547342D02*
X32028572Y-23347342D01*
X32142858Y-24090200D02*
X32485715Y-24547342D01*
X32485715Y-23747342D02*
X32028572Y-24204485D01*
X33457144Y-24490200D02*
X33342858Y-24547342D01*
X33342858Y-24547342D02*
X33114287Y-24547342D01*
X33114287Y-24547342D02*
X33000001Y-24490200D01*
X33000001Y-24490200D02*
X32942858Y-24375914D01*
X32942858Y-24375914D02*
X32942858Y-23918771D01*
X32942858Y-23918771D02*
X33000001Y-23804485D01*
X33000001Y-23804485D02*
X33114287Y-23747342D01*
X33114287Y-23747342D02*
X33342858Y-23747342D01*
X33342858Y-23747342D02*
X33457144Y-23804485D01*
X33457144Y-23804485D02*
X33514287Y-23918771D01*
X33514287Y-23918771D02*
X33514287Y-24033057D01*
X33514287Y-24033057D02*
X32942858Y-24147342D01*
X33914286Y-23747342D02*
X34200000Y-24547342D01*
X34485715Y-23747342D02*
X34200000Y-24547342D01*
X34200000Y-24547342D02*
X34085715Y-24833057D01*
X34085715Y-24833057D02*
X34028572Y-24890200D01*
X34028572Y-24890200D02*
X33914286Y-24947342D01*
X35742858Y-23747342D02*
X36028572Y-24547342D01*
X36028572Y-24547342D02*
X36314287Y-23747342D01*
X37342858Y-23347342D02*
X36771430Y-23347342D01*
X36771430Y-23347342D02*
X36714287Y-23918771D01*
X36714287Y-23918771D02*
X36771430Y-23861628D01*
X36771430Y-23861628D02*
X36885716Y-23804485D01*
X36885716Y-23804485D02*
X37171430Y-23804485D01*
X37171430Y-23804485D02*
X37285716Y-23861628D01*
X37285716Y-23861628D02*
X37342858Y-23918771D01*
X37342858Y-23918771D02*
X37400001Y-24033057D01*
X37400001Y-24033057D02*
X37400001Y-24318771D01*
X37400001Y-24318771D02*
X37342858Y-24433057D01*
X37342858Y-24433057D02*
X37285716Y-24490200D01*
X37285716Y-24490200D02*
X37171430Y-24547342D01*
X37171430Y-24547342D02*
X36885716Y-24547342D01*
X36885716Y-24547342D02*
X36771430Y-24490200D01*
X36771430Y-24490200D02*
X36714287Y-24433057D01*
X38828573Y-23747342D02*
X38828573Y-24547342D01*
X38828573Y-23861628D02*
X38885716Y-23804485D01*
X38885716Y-23804485D02*
X39000001Y-23747342D01*
X39000001Y-23747342D02*
X39171430Y-23747342D01*
X39171430Y-23747342D02*
X39285716Y-23804485D01*
X39285716Y-23804485D02*
X39342859Y-23918771D01*
X39342859Y-23918771D02*
X39342859Y-24547342D01*
X40085715Y-24547342D02*
X39971430Y-24490200D01*
X39971430Y-24490200D02*
X39914287Y-24433057D01*
X39914287Y-24433057D02*
X39857144Y-24318771D01*
X39857144Y-24318771D02*
X39857144Y-23975914D01*
X39857144Y-23975914D02*
X39914287Y-23861628D01*
X39914287Y-23861628D02*
X39971430Y-23804485D01*
X39971430Y-23804485D02*
X40085715Y-23747342D01*
X40085715Y-23747342D02*
X40257144Y-23747342D01*
X40257144Y-23747342D02*
X40371430Y-23804485D01*
X40371430Y-23804485D02*
X40428573Y-23861628D01*
X40428573Y-23861628D02*
X40485715Y-23975914D01*
X40485715Y-23975914D02*
X40485715Y-24318771D01*
X40485715Y-24318771D02*
X40428573Y-24433057D01*
X40428573Y-24433057D02*
X40371430Y-24490200D01*
X40371430Y-24490200D02*
X40257144Y-24547342D01*
X40257144Y-24547342D02*
X40085715Y-24547342D01*
X41000001Y-24090200D02*
X41914287Y-24090200D01*
X42428572Y-24490200D02*
X42542858Y-24547342D01*
X42542858Y-24547342D02*
X42771429Y-24547342D01*
X42771429Y-24547342D02*
X42885715Y-24490200D01*
X42885715Y-24490200D02*
X42942858Y-24375914D01*
X42942858Y-24375914D02*
X42942858Y-24318771D01*
X42942858Y-24318771D02*
X42885715Y-24204485D01*
X42885715Y-24204485D02*
X42771429Y-24147342D01*
X42771429Y-24147342D02*
X42600001Y-24147342D01*
X42600001Y-24147342D02*
X42485715Y-24090200D01*
X42485715Y-24090200D02*
X42428572Y-23975914D01*
X42428572Y-23975914D02*
X42428572Y-23918771D01*
X42428572Y-23918771D02*
X42485715Y-23804485D01*
X42485715Y-23804485D02*
X42600001Y-23747342D01*
X42600001Y-23747342D02*
X42771429Y-23747342D01*
X42771429Y-23747342D02*
X42885715Y-23804485D01*
X43285715Y-23747342D02*
X43742858Y-23747342D01*
X43457144Y-23347342D02*
X43457144Y-24375914D01*
X43457144Y-24375914D02*
X43514287Y-24490200D01*
X43514287Y-24490200D02*
X43628572Y-24547342D01*
X43628572Y-24547342D02*
X43742858Y-24547342D01*
X44657144Y-24547342D02*
X44657144Y-23918771D01*
X44657144Y-23918771D02*
X44600001Y-23804485D01*
X44600001Y-23804485D02*
X44485715Y-23747342D01*
X44485715Y-23747342D02*
X44257144Y-23747342D01*
X44257144Y-23747342D02*
X44142858Y-23804485D01*
X44657144Y-24490200D02*
X44542858Y-24547342D01*
X44542858Y-24547342D02*
X44257144Y-24547342D01*
X44257144Y-24547342D02*
X44142858Y-24490200D01*
X44142858Y-24490200D02*
X44085715Y-24375914D01*
X44085715Y-24375914D02*
X44085715Y-24261628D01*
X44085715Y-24261628D02*
X44142858Y-24147342D01*
X44142858Y-24147342D02*
X44257144Y-24090200D01*
X44257144Y-24090200D02*
X44542858Y-24090200D01*
X44542858Y-24090200D02*
X44657144Y-24033057D01*
X45228572Y-24547342D02*
X45228572Y-23347342D01*
X45228572Y-23804485D02*
X45342858Y-23747342D01*
X45342858Y-23747342D02*
X45571429Y-23747342D01*
X45571429Y-23747342D02*
X45685715Y-23804485D01*
X45685715Y-23804485D02*
X45742858Y-23861628D01*
X45742858Y-23861628D02*
X45800000Y-23975914D01*
X45800000Y-23975914D02*
X45800000Y-24318771D01*
X45800000Y-24318771D02*
X45742858Y-24433057D01*
X45742858Y-24433057D02*
X45685715Y-24490200D01*
X45685715Y-24490200D02*
X45571429Y-24547342D01*
X45571429Y-24547342D02*
X45342858Y-24547342D01*
X45342858Y-24547342D02*
X45228572Y-24490200D01*
X46314286Y-24547342D02*
X46314286Y-23747342D01*
X46314286Y-23347342D02*
X46257143Y-23404485D01*
X46257143Y-23404485D02*
X46314286Y-23461628D01*
X46314286Y-23461628D02*
X46371429Y-23404485D01*
X46371429Y-23404485D02*
X46314286Y-23347342D01*
X46314286Y-23347342D02*
X46314286Y-23461628D01*
X47057143Y-24547342D02*
X46942858Y-24490200D01*
X46942858Y-24490200D02*
X46885715Y-24375914D01*
X46885715Y-24375914D02*
X46885715Y-23347342D01*
X47514286Y-24547342D02*
X47514286Y-23747342D01*
X47514286Y-23347342D02*
X47457143Y-23404485D01*
X47457143Y-23404485D02*
X47514286Y-23461628D01*
X47514286Y-23461628D02*
X47571429Y-23404485D01*
X47571429Y-23404485D02*
X47514286Y-23347342D01*
X47514286Y-23347342D02*
X47514286Y-23461628D01*
X47971429Y-23747342D02*
X48600001Y-23747342D01*
X48600001Y-23747342D02*
X47971429Y-24547342D01*
X47971429Y-24547342D02*
X48600001Y-24547342D01*
X49514287Y-24490200D02*
X49400001Y-24547342D01*
X49400001Y-24547342D02*
X49171430Y-24547342D01*
X49171430Y-24547342D02*
X49057144Y-24490200D01*
X49057144Y-24490200D02*
X49000001Y-24375914D01*
X49000001Y-24375914D02*
X49000001Y-23918771D01*
X49000001Y-23918771D02*
X49057144Y-23804485D01*
X49057144Y-23804485D02*
X49171430Y-23747342D01*
X49171430Y-23747342D02*
X49400001Y-23747342D01*
X49400001Y-23747342D02*
X49514287Y-23804485D01*
X49514287Y-23804485D02*
X49571430Y-23918771D01*
X49571430Y-23918771D02*
X49571430Y-24033057D01*
X49571430Y-24033057D02*
X49000001Y-24147342D01*
X50085715Y-24547342D02*
X50085715Y-23747342D01*
X50085715Y-23975914D02*
X50142858Y-23861628D01*
X50142858Y-23861628D02*
X50200001Y-23804485D01*
X50200001Y-23804485D02*
X50314286Y-23747342D01*
X50314286Y-23747342D02*
X50428572Y-23747342D01*
X51685715Y-24490200D02*
X51800001Y-24547342D01*
X51800001Y-24547342D02*
X52028572Y-24547342D01*
X52028572Y-24547342D02*
X52142858Y-24490200D01*
X52142858Y-24490200D02*
X52200001Y-24375914D01*
X52200001Y-24375914D02*
X52200001Y-24318771D01*
X52200001Y-24318771D02*
X52142858Y-24204485D01*
X52142858Y-24204485D02*
X52028572Y-24147342D01*
X52028572Y-24147342D02*
X51857144Y-24147342D01*
X51857144Y-24147342D02*
X51742858Y-24090200D01*
X51742858Y-24090200D02*
X51685715Y-23975914D01*
X51685715Y-23975914D02*
X51685715Y-23918771D01*
X51685715Y-23918771D02*
X51742858Y-23804485D01*
X51742858Y-23804485D02*
X51857144Y-23747342D01*
X51857144Y-23747342D02*
X52028572Y-23747342D01*
X52028572Y-23747342D02*
X52142858Y-23804485D01*
X52714287Y-23747342D02*
X52714287Y-24947342D01*
X52714287Y-23804485D02*
X52828573Y-23747342D01*
X52828573Y-23747342D02*
X53057144Y-23747342D01*
X53057144Y-23747342D02*
X53171430Y-23804485D01*
X53171430Y-23804485D02*
X53228573Y-23861628D01*
X53228573Y-23861628D02*
X53285715Y-23975914D01*
X53285715Y-23975914D02*
X53285715Y-24318771D01*
X53285715Y-24318771D02*
X53228573Y-24433057D01*
X53228573Y-24433057D02*
X53171430Y-24490200D01*
X53171430Y-24490200D02*
X53057144Y-24547342D01*
X53057144Y-24547342D02*
X52828573Y-24547342D01*
X52828573Y-24547342D02*
X52714287Y-24490200D01*
X53971429Y-24547342D02*
X53857144Y-24490200D01*
X53857144Y-24490200D02*
X53800001Y-24375914D01*
X53800001Y-24375914D02*
X53800001Y-23347342D01*
X54428572Y-24547342D02*
X54428572Y-23747342D01*
X54428572Y-23347342D02*
X54371429Y-23404485D01*
X54371429Y-23404485D02*
X54428572Y-23461628D01*
X54428572Y-23461628D02*
X54485715Y-23404485D01*
X54485715Y-23404485D02*
X54428572Y-23347342D01*
X54428572Y-23347342D02*
X54428572Y-23461628D01*
X54828572Y-23747342D02*
X55285715Y-23747342D01*
X55000001Y-23347342D02*
X55000001Y-24375914D01*
X55000001Y-24375914D02*
X55057144Y-24490200D01*
X55057144Y-24490200D02*
X55171429Y-24547342D01*
X55171429Y-24547342D02*
X55285715Y-24547342D01*
X56771429Y-24547342D02*
X56657144Y-24490200D01*
X56657144Y-24490200D02*
X56600001Y-24375914D01*
X56600001Y-24375914D02*
X56600001Y-23347342D01*
X57742858Y-24547342D02*
X57742858Y-23918771D01*
X57742858Y-23918771D02*
X57685715Y-23804485D01*
X57685715Y-23804485D02*
X57571429Y-23747342D01*
X57571429Y-23747342D02*
X57342858Y-23747342D01*
X57342858Y-23747342D02*
X57228572Y-23804485D01*
X57742858Y-24490200D02*
X57628572Y-24547342D01*
X57628572Y-24547342D02*
X57342858Y-24547342D01*
X57342858Y-24547342D02*
X57228572Y-24490200D01*
X57228572Y-24490200D02*
X57171429Y-24375914D01*
X57171429Y-24375914D02*
X57171429Y-24261628D01*
X57171429Y-24261628D02*
X57228572Y-24147342D01*
X57228572Y-24147342D02*
X57342858Y-24090200D01*
X57342858Y-24090200D02*
X57628572Y-24090200D01*
X57628572Y-24090200D02*
X57742858Y-24033057D01*
X58200000Y-23747342D02*
X58485714Y-24547342D01*
X58771429Y-23747342D02*
X58485714Y-24547342D01*
X58485714Y-24547342D02*
X58371429Y-24833057D01*
X58371429Y-24833057D02*
X58314286Y-24890200D01*
X58314286Y-24890200D02*
X58200000Y-24947342D01*
X59400000Y-24547342D02*
X59285715Y-24490200D01*
X59285715Y-24490200D02*
X59228572Y-24433057D01*
X59228572Y-24433057D02*
X59171429Y-24318771D01*
X59171429Y-24318771D02*
X59171429Y-23975914D01*
X59171429Y-23975914D02*
X59228572Y-23861628D01*
X59228572Y-23861628D02*
X59285715Y-23804485D01*
X59285715Y-23804485D02*
X59400000Y-23747342D01*
X59400000Y-23747342D02*
X59571429Y-23747342D01*
X59571429Y-23747342D02*
X59685715Y-23804485D01*
X59685715Y-23804485D02*
X59742858Y-23861628D01*
X59742858Y-23861628D02*
X59800000Y-23975914D01*
X59800000Y-23975914D02*
X59800000Y-24318771D01*
X59800000Y-24318771D02*
X59742858Y-24433057D01*
X59742858Y-24433057D02*
X59685715Y-24490200D01*
X59685715Y-24490200D02*
X59571429Y-24547342D01*
X59571429Y-24547342D02*
X59400000Y-24547342D01*
X60828572Y-23747342D02*
X60828572Y-24547342D01*
X60314286Y-23747342D02*
X60314286Y-24375914D01*
X60314286Y-24375914D02*
X60371429Y-24490200D01*
X60371429Y-24490200D02*
X60485714Y-24547342D01*
X60485714Y-24547342D02*
X60657143Y-24547342D01*
X60657143Y-24547342D02*
X60771429Y-24490200D01*
X60771429Y-24490200D02*
X60828572Y-24433057D01*
X61228571Y-23747342D02*
X61685714Y-23747342D01*
X61400000Y-23347342D02*
X61400000Y-24375914D01*
X61400000Y-24375914D02*
X61457143Y-24490200D01*
X61457143Y-24490200D02*
X61571428Y-24547342D01*
X61571428Y-24547342D02*
X61685714Y-24547342D01*
X155120833Y-111362295D02*
X155120833Y-110562295D01*
X155120833Y-110562295D02*
X155387499Y-111133723D01*
X155387499Y-111133723D02*
X155654166Y-110562295D01*
X155654166Y-110562295D02*
X155654166Y-111362295D01*
X156035119Y-111362295D02*
X156035119Y-110562295D01*
X156035119Y-110943247D02*
X156492262Y-110943247D01*
X156492262Y-111362295D02*
X156492262Y-110562295D01*
X157254166Y-110562295D02*
X156873214Y-110562295D01*
X156873214Y-110562295D02*
X156835118Y-110943247D01*
X156835118Y-110943247D02*
X156873214Y-110905152D01*
X156873214Y-110905152D02*
X156949404Y-110867057D01*
X156949404Y-110867057D02*
X157139880Y-110867057D01*
X157139880Y-110867057D02*
X157216071Y-110905152D01*
X157216071Y-110905152D02*
X157254166Y-110943247D01*
X157254166Y-110943247D02*
X157292261Y-111019438D01*
X157292261Y-111019438D02*
X157292261Y-111209914D01*
X157292261Y-111209914D02*
X157254166Y-111286104D01*
X157254166Y-111286104D02*
X157216071Y-111324200D01*
X157216071Y-111324200D02*
X157139880Y-111362295D01*
X157139880Y-111362295D02*
X156949404Y-111362295D01*
X156949404Y-111362295D02*
X156873214Y-111324200D01*
X156873214Y-111324200D02*
X156835118Y-111286104D01*
X96370833Y-150862295D02*
X96370833Y-150062295D01*
X96370833Y-150062295D02*
X96637499Y-150633723D01*
X96637499Y-150633723D02*
X96904166Y-150062295D01*
X96904166Y-150062295D02*
X96904166Y-150862295D01*
X97285119Y-150862295D02*
X97285119Y-150062295D01*
X97285119Y-150443247D02*
X97742262Y-150443247D01*
X97742262Y-150862295D02*
X97742262Y-150062295D01*
X98047023Y-150062295D02*
X98580357Y-150062295D01*
X98580357Y-150062295D02*
X98237499Y-150862295D01*
D13*
X76432380Y-50059271D02*
X76432380Y-51087366D01*
X76432380Y-51087366D02*
X76492857Y-51208318D01*
X76492857Y-51208318D02*
X76553333Y-51268795D01*
X76553333Y-51268795D02*
X76674285Y-51329271D01*
X76674285Y-51329271D02*
X76916190Y-51329271D01*
X76916190Y-51329271D02*
X77037142Y-51268795D01*
X77037142Y-51268795D02*
X77097619Y-51208318D01*
X77097619Y-51208318D02*
X77158095Y-51087366D01*
X77158095Y-51087366D02*
X77158095Y-50059271D01*
X78428095Y-51329271D02*
X77702380Y-51329271D01*
X78065237Y-51329271D02*
X78065237Y-50059271D01*
X78065237Y-50059271D02*
X77944285Y-50240699D01*
X77944285Y-50240699D02*
X77823333Y-50361652D01*
X77823333Y-50361652D02*
X77702380Y-50422128D01*
D10*
X62839524Y-45594895D02*
X62839524Y-44794895D01*
X62839524Y-44794895D02*
X63030000Y-44794895D01*
X63030000Y-44794895D02*
X63144286Y-44832990D01*
X63144286Y-44832990D02*
X63220476Y-44909180D01*
X63220476Y-44909180D02*
X63258571Y-44985371D01*
X63258571Y-44985371D02*
X63296667Y-45137752D01*
X63296667Y-45137752D02*
X63296667Y-45252038D01*
X63296667Y-45252038D02*
X63258571Y-45404419D01*
X63258571Y-45404419D02*
X63220476Y-45480609D01*
X63220476Y-45480609D02*
X63144286Y-45556800D01*
X63144286Y-45556800D02*
X63030000Y-45594895D01*
X63030000Y-45594895D02*
X62839524Y-45594895D01*
X63677619Y-45594895D02*
X63830000Y-45594895D01*
X63830000Y-45594895D02*
X63906190Y-45556800D01*
X63906190Y-45556800D02*
X63944286Y-45518704D01*
X63944286Y-45518704D02*
X64020476Y-45404419D01*
X64020476Y-45404419D02*
X64058571Y-45252038D01*
X64058571Y-45252038D02*
X64058571Y-44947276D01*
X64058571Y-44947276D02*
X64020476Y-44871085D01*
X64020476Y-44871085D02*
X63982381Y-44832990D01*
X63982381Y-44832990D02*
X63906190Y-44794895D01*
X63906190Y-44794895D02*
X63753809Y-44794895D01*
X63753809Y-44794895D02*
X63677619Y-44832990D01*
X63677619Y-44832990D02*
X63639524Y-44871085D01*
X63639524Y-44871085D02*
X63601428Y-44947276D01*
X63601428Y-44947276D02*
X63601428Y-45137752D01*
X63601428Y-45137752D02*
X63639524Y-45213942D01*
X63639524Y-45213942D02*
X63677619Y-45252038D01*
X63677619Y-45252038D02*
X63753809Y-45290133D01*
X63753809Y-45290133D02*
X63906190Y-45290133D01*
X63906190Y-45290133D02*
X63982381Y-45252038D01*
X63982381Y-45252038D02*
X64020476Y-45213942D01*
X64020476Y-45213942D02*
X64058571Y-45137752D01*
X62458571Y-56634894D02*
X62458571Y-55834894D01*
X62458571Y-55834894D02*
X62649047Y-55834894D01*
X62649047Y-55834894D02*
X62763333Y-55872989D01*
X62763333Y-55872989D02*
X62839523Y-55949179D01*
X62839523Y-55949179D02*
X62877618Y-56025370D01*
X62877618Y-56025370D02*
X62915714Y-56177751D01*
X62915714Y-56177751D02*
X62915714Y-56292037D01*
X62915714Y-56292037D02*
X62877618Y-56444418D01*
X62877618Y-56444418D02*
X62839523Y-56520608D01*
X62839523Y-56520608D02*
X62763333Y-56596799D01*
X62763333Y-56596799D02*
X62649047Y-56634894D01*
X62649047Y-56634894D02*
X62458571Y-56634894D01*
X63677618Y-56634894D02*
X63220475Y-56634894D01*
X63449047Y-56634894D02*
X63449047Y-55834894D01*
X63449047Y-55834894D02*
X63372856Y-55949179D01*
X63372856Y-55949179D02*
X63296666Y-56025370D01*
X63296666Y-56025370D02*
X63220475Y-56063465D01*
X64172857Y-55834894D02*
X64249047Y-55834894D01*
X64249047Y-55834894D02*
X64325238Y-55872989D01*
X64325238Y-55872989D02*
X64363333Y-55911084D01*
X64363333Y-55911084D02*
X64401428Y-55987275D01*
X64401428Y-55987275D02*
X64439523Y-56139656D01*
X64439523Y-56139656D02*
X64439523Y-56330132D01*
X64439523Y-56330132D02*
X64401428Y-56482513D01*
X64401428Y-56482513D02*
X64363333Y-56558703D01*
X64363333Y-56558703D02*
X64325238Y-56596799D01*
X64325238Y-56596799D02*
X64249047Y-56634894D01*
X64249047Y-56634894D02*
X64172857Y-56634894D01*
X64172857Y-56634894D02*
X64096666Y-56596799D01*
X64096666Y-56596799D02*
X64058571Y-56558703D01*
X64058571Y-56558703D02*
X64020476Y-56482513D01*
X64020476Y-56482513D02*
X63982380Y-56330132D01*
X63982380Y-56330132D02*
X63982380Y-56139656D01*
X63982380Y-56139656D02*
X64020476Y-55987275D01*
X64020476Y-55987275D02*
X64058571Y-55911084D01*
X64058571Y-55911084D02*
X64096666Y-55872989D01*
X64096666Y-55872989D02*
X64172857Y-55834894D01*
X65379524Y-45594895D02*
X65379524Y-44794895D01*
X65379524Y-44794895D02*
X65570000Y-44794895D01*
X65570000Y-44794895D02*
X65684286Y-44832990D01*
X65684286Y-44832990D02*
X65760476Y-44909180D01*
X65760476Y-44909180D02*
X65798571Y-44985371D01*
X65798571Y-44985371D02*
X65836667Y-45137752D01*
X65836667Y-45137752D02*
X65836667Y-45252038D01*
X65836667Y-45252038D02*
X65798571Y-45404419D01*
X65798571Y-45404419D02*
X65760476Y-45480609D01*
X65760476Y-45480609D02*
X65684286Y-45556800D01*
X65684286Y-45556800D02*
X65570000Y-45594895D01*
X65570000Y-45594895D02*
X65379524Y-45594895D01*
X66293809Y-45137752D02*
X66217619Y-45099657D01*
X66217619Y-45099657D02*
X66179524Y-45061561D01*
X66179524Y-45061561D02*
X66141428Y-44985371D01*
X66141428Y-44985371D02*
X66141428Y-44947276D01*
X66141428Y-44947276D02*
X66179524Y-44871085D01*
X66179524Y-44871085D02*
X66217619Y-44832990D01*
X66217619Y-44832990D02*
X66293809Y-44794895D01*
X66293809Y-44794895D02*
X66446190Y-44794895D01*
X66446190Y-44794895D02*
X66522381Y-44832990D01*
X66522381Y-44832990D02*
X66560476Y-44871085D01*
X66560476Y-44871085D02*
X66598571Y-44947276D01*
X66598571Y-44947276D02*
X66598571Y-44985371D01*
X66598571Y-44985371D02*
X66560476Y-45061561D01*
X66560476Y-45061561D02*
X66522381Y-45099657D01*
X66522381Y-45099657D02*
X66446190Y-45137752D01*
X66446190Y-45137752D02*
X66293809Y-45137752D01*
X66293809Y-45137752D02*
X66217619Y-45175847D01*
X66217619Y-45175847D02*
X66179524Y-45213942D01*
X66179524Y-45213942D02*
X66141428Y-45290133D01*
X66141428Y-45290133D02*
X66141428Y-45442514D01*
X66141428Y-45442514D02*
X66179524Y-45518704D01*
X66179524Y-45518704D02*
X66217619Y-45556800D01*
X66217619Y-45556800D02*
X66293809Y-45594895D01*
X66293809Y-45594895D02*
X66446190Y-45594895D01*
X66446190Y-45594895D02*
X66522381Y-45556800D01*
X66522381Y-45556800D02*
X66560476Y-45518704D01*
X66560476Y-45518704D02*
X66598571Y-45442514D01*
X66598571Y-45442514D02*
X66598571Y-45290133D01*
X66598571Y-45290133D02*
X66560476Y-45213942D01*
X66560476Y-45213942D02*
X66522381Y-45175847D01*
X66522381Y-45175847D02*
X66446190Y-45137752D01*
X64998571Y-56634894D02*
X64998571Y-55834894D01*
X64998571Y-55834894D02*
X65189047Y-55834894D01*
X65189047Y-55834894D02*
X65303333Y-55872989D01*
X65303333Y-55872989D02*
X65379523Y-55949179D01*
X65379523Y-55949179D02*
X65417618Y-56025370D01*
X65417618Y-56025370D02*
X65455714Y-56177751D01*
X65455714Y-56177751D02*
X65455714Y-56292037D01*
X65455714Y-56292037D02*
X65417618Y-56444418D01*
X65417618Y-56444418D02*
X65379523Y-56520608D01*
X65379523Y-56520608D02*
X65303333Y-56596799D01*
X65303333Y-56596799D02*
X65189047Y-56634894D01*
X65189047Y-56634894D02*
X64998571Y-56634894D01*
X66217618Y-56634894D02*
X65760475Y-56634894D01*
X65989047Y-56634894D02*
X65989047Y-55834894D01*
X65989047Y-55834894D02*
X65912856Y-55949179D01*
X65912856Y-55949179D02*
X65836666Y-56025370D01*
X65836666Y-56025370D02*
X65760475Y-56063465D01*
X66903333Y-55834894D02*
X66750952Y-55834894D01*
X66750952Y-55834894D02*
X66674761Y-55872989D01*
X66674761Y-55872989D02*
X66636666Y-55911084D01*
X66636666Y-55911084D02*
X66560476Y-56025370D01*
X66560476Y-56025370D02*
X66522380Y-56177751D01*
X66522380Y-56177751D02*
X66522380Y-56482513D01*
X66522380Y-56482513D02*
X66560476Y-56558703D01*
X66560476Y-56558703D02*
X66598571Y-56596799D01*
X66598571Y-56596799D02*
X66674761Y-56634894D01*
X66674761Y-56634894D02*
X66827142Y-56634894D01*
X66827142Y-56634894D02*
X66903333Y-56596799D01*
X66903333Y-56596799D02*
X66941428Y-56558703D01*
X66941428Y-56558703D02*
X66979523Y-56482513D01*
X66979523Y-56482513D02*
X66979523Y-56292037D01*
X66979523Y-56292037D02*
X66941428Y-56215846D01*
X66941428Y-56215846D02*
X66903333Y-56177751D01*
X66903333Y-56177751D02*
X66827142Y-56139656D01*
X66827142Y-56139656D02*
X66674761Y-56139656D01*
X66674761Y-56139656D02*
X66598571Y-56177751D01*
X66598571Y-56177751D02*
X66560476Y-56215846D01*
X66560476Y-56215846D02*
X66522380Y-56292037D01*
X67919524Y-45594895D02*
X67919524Y-44794895D01*
X67919524Y-44794895D02*
X68110000Y-44794895D01*
X68110000Y-44794895D02*
X68224286Y-44832990D01*
X68224286Y-44832990D02*
X68300476Y-44909180D01*
X68300476Y-44909180D02*
X68338571Y-44985371D01*
X68338571Y-44985371D02*
X68376667Y-45137752D01*
X68376667Y-45137752D02*
X68376667Y-45252038D01*
X68376667Y-45252038D02*
X68338571Y-45404419D01*
X68338571Y-45404419D02*
X68300476Y-45480609D01*
X68300476Y-45480609D02*
X68224286Y-45556800D01*
X68224286Y-45556800D02*
X68110000Y-45594895D01*
X68110000Y-45594895D02*
X67919524Y-45594895D01*
X68643333Y-44794895D02*
X69176667Y-44794895D01*
X69176667Y-44794895D02*
X68833809Y-45594895D01*
X67538571Y-56634894D02*
X67538571Y-55834894D01*
X67538571Y-55834894D02*
X67729047Y-55834894D01*
X67729047Y-55834894D02*
X67843333Y-55872989D01*
X67843333Y-55872989D02*
X67919523Y-55949179D01*
X67919523Y-55949179D02*
X67957618Y-56025370D01*
X67957618Y-56025370D02*
X67995714Y-56177751D01*
X67995714Y-56177751D02*
X67995714Y-56292037D01*
X67995714Y-56292037D02*
X67957618Y-56444418D01*
X67957618Y-56444418D02*
X67919523Y-56520608D01*
X67919523Y-56520608D02*
X67843333Y-56596799D01*
X67843333Y-56596799D02*
X67729047Y-56634894D01*
X67729047Y-56634894D02*
X67538571Y-56634894D01*
X68757618Y-56634894D02*
X68300475Y-56634894D01*
X68529047Y-56634894D02*
X68529047Y-55834894D01*
X68529047Y-55834894D02*
X68452856Y-55949179D01*
X68452856Y-55949179D02*
X68376666Y-56025370D01*
X68376666Y-56025370D02*
X68300475Y-56063465D01*
X69443333Y-56101560D02*
X69443333Y-56634894D01*
X69252857Y-55796799D02*
X69062380Y-56368227D01*
X69062380Y-56368227D02*
X69557619Y-56368227D01*
X70459524Y-45594895D02*
X70459524Y-44794895D01*
X70459524Y-44794895D02*
X70650000Y-44794895D01*
X70650000Y-44794895D02*
X70764286Y-44832990D01*
X70764286Y-44832990D02*
X70840476Y-44909180D01*
X70840476Y-44909180D02*
X70878571Y-44985371D01*
X70878571Y-44985371D02*
X70916667Y-45137752D01*
X70916667Y-45137752D02*
X70916667Y-45252038D01*
X70916667Y-45252038D02*
X70878571Y-45404419D01*
X70878571Y-45404419D02*
X70840476Y-45480609D01*
X70840476Y-45480609D02*
X70764286Y-45556800D01*
X70764286Y-45556800D02*
X70650000Y-45594895D01*
X70650000Y-45594895D02*
X70459524Y-45594895D01*
X71602381Y-44794895D02*
X71450000Y-44794895D01*
X71450000Y-44794895D02*
X71373809Y-44832990D01*
X71373809Y-44832990D02*
X71335714Y-44871085D01*
X71335714Y-44871085D02*
X71259524Y-44985371D01*
X71259524Y-44985371D02*
X71221428Y-45137752D01*
X71221428Y-45137752D02*
X71221428Y-45442514D01*
X71221428Y-45442514D02*
X71259524Y-45518704D01*
X71259524Y-45518704D02*
X71297619Y-45556800D01*
X71297619Y-45556800D02*
X71373809Y-45594895D01*
X71373809Y-45594895D02*
X71526190Y-45594895D01*
X71526190Y-45594895D02*
X71602381Y-45556800D01*
X71602381Y-45556800D02*
X71640476Y-45518704D01*
X71640476Y-45518704D02*
X71678571Y-45442514D01*
X71678571Y-45442514D02*
X71678571Y-45252038D01*
X71678571Y-45252038D02*
X71640476Y-45175847D01*
X71640476Y-45175847D02*
X71602381Y-45137752D01*
X71602381Y-45137752D02*
X71526190Y-45099657D01*
X71526190Y-45099657D02*
X71373809Y-45099657D01*
X71373809Y-45099657D02*
X71297619Y-45137752D01*
X71297619Y-45137752D02*
X71259524Y-45175847D01*
X71259524Y-45175847D02*
X71221428Y-45252038D01*
X70078571Y-56634894D02*
X70078571Y-55834894D01*
X70078571Y-55834894D02*
X70269047Y-55834894D01*
X70269047Y-55834894D02*
X70383333Y-55872989D01*
X70383333Y-55872989D02*
X70459523Y-55949179D01*
X70459523Y-55949179D02*
X70497618Y-56025370D01*
X70497618Y-56025370D02*
X70535714Y-56177751D01*
X70535714Y-56177751D02*
X70535714Y-56292037D01*
X70535714Y-56292037D02*
X70497618Y-56444418D01*
X70497618Y-56444418D02*
X70459523Y-56520608D01*
X70459523Y-56520608D02*
X70383333Y-56596799D01*
X70383333Y-56596799D02*
X70269047Y-56634894D01*
X70269047Y-56634894D02*
X70078571Y-56634894D01*
X71297618Y-56634894D02*
X70840475Y-56634894D01*
X71069047Y-56634894D02*
X71069047Y-55834894D01*
X71069047Y-55834894D02*
X70992856Y-55949179D01*
X70992856Y-55949179D02*
X70916666Y-56025370D01*
X70916666Y-56025370D02*
X70840475Y-56063465D01*
X72021428Y-55834894D02*
X71640476Y-55834894D01*
X71640476Y-55834894D02*
X71602380Y-56215846D01*
X71602380Y-56215846D02*
X71640476Y-56177751D01*
X71640476Y-56177751D02*
X71716666Y-56139656D01*
X71716666Y-56139656D02*
X71907142Y-56139656D01*
X71907142Y-56139656D02*
X71983333Y-56177751D01*
X71983333Y-56177751D02*
X72021428Y-56215846D01*
X72021428Y-56215846D02*
X72059523Y-56292037D01*
X72059523Y-56292037D02*
X72059523Y-56482513D01*
X72059523Y-56482513D02*
X72021428Y-56558703D01*
X72021428Y-56558703D02*
X71983333Y-56596799D01*
X71983333Y-56596799D02*
X71907142Y-56634894D01*
X71907142Y-56634894D02*
X71716666Y-56634894D01*
X71716666Y-56634894D02*
X71640476Y-56596799D01*
X71640476Y-56596799D02*
X71602380Y-56558703D01*
X72999524Y-45594895D02*
X72999524Y-44794895D01*
X72999524Y-44794895D02*
X73190000Y-44794895D01*
X73190000Y-44794895D02*
X73304286Y-44832990D01*
X73304286Y-44832990D02*
X73380476Y-44909180D01*
X73380476Y-44909180D02*
X73418571Y-44985371D01*
X73418571Y-44985371D02*
X73456667Y-45137752D01*
X73456667Y-45137752D02*
X73456667Y-45252038D01*
X73456667Y-45252038D02*
X73418571Y-45404419D01*
X73418571Y-45404419D02*
X73380476Y-45480609D01*
X73380476Y-45480609D02*
X73304286Y-45556800D01*
X73304286Y-45556800D02*
X73190000Y-45594895D01*
X73190000Y-45594895D02*
X72999524Y-45594895D01*
X74180476Y-44794895D02*
X73799524Y-44794895D01*
X73799524Y-44794895D02*
X73761428Y-45175847D01*
X73761428Y-45175847D02*
X73799524Y-45137752D01*
X73799524Y-45137752D02*
X73875714Y-45099657D01*
X73875714Y-45099657D02*
X74066190Y-45099657D01*
X74066190Y-45099657D02*
X74142381Y-45137752D01*
X74142381Y-45137752D02*
X74180476Y-45175847D01*
X74180476Y-45175847D02*
X74218571Y-45252038D01*
X74218571Y-45252038D02*
X74218571Y-45442514D01*
X74218571Y-45442514D02*
X74180476Y-45518704D01*
X74180476Y-45518704D02*
X74142381Y-45556800D01*
X74142381Y-45556800D02*
X74066190Y-45594895D01*
X74066190Y-45594895D02*
X73875714Y-45594895D01*
X73875714Y-45594895D02*
X73799524Y-45556800D01*
X73799524Y-45556800D02*
X73761428Y-45518704D01*
X72618571Y-56634894D02*
X72618571Y-55834894D01*
X72618571Y-55834894D02*
X72809047Y-55834894D01*
X72809047Y-55834894D02*
X72923333Y-55872989D01*
X72923333Y-55872989D02*
X72999523Y-55949179D01*
X72999523Y-55949179D02*
X73037618Y-56025370D01*
X73037618Y-56025370D02*
X73075714Y-56177751D01*
X73075714Y-56177751D02*
X73075714Y-56292037D01*
X73075714Y-56292037D02*
X73037618Y-56444418D01*
X73037618Y-56444418D02*
X72999523Y-56520608D01*
X72999523Y-56520608D02*
X72923333Y-56596799D01*
X72923333Y-56596799D02*
X72809047Y-56634894D01*
X72809047Y-56634894D02*
X72618571Y-56634894D01*
X73837618Y-56634894D02*
X73380475Y-56634894D01*
X73609047Y-56634894D02*
X73609047Y-55834894D01*
X73609047Y-55834894D02*
X73532856Y-55949179D01*
X73532856Y-55949179D02*
X73456666Y-56025370D01*
X73456666Y-56025370D02*
X73380475Y-56063465D01*
X74294761Y-56177751D02*
X74218571Y-56139656D01*
X74218571Y-56139656D02*
X74180476Y-56101560D01*
X74180476Y-56101560D02*
X74142380Y-56025370D01*
X74142380Y-56025370D02*
X74142380Y-55987275D01*
X74142380Y-55987275D02*
X74180476Y-55911084D01*
X74180476Y-55911084D02*
X74218571Y-55872989D01*
X74218571Y-55872989D02*
X74294761Y-55834894D01*
X74294761Y-55834894D02*
X74447142Y-55834894D01*
X74447142Y-55834894D02*
X74523333Y-55872989D01*
X74523333Y-55872989D02*
X74561428Y-55911084D01*
X74561428Y-55911084D02*
X74599523Y-55987275D01*
X74599523Y-55987275D02*
X74599523Y-56025370D01*
X74599523Y-56025370D02*
X74561428Y-56101560D01*
X74561428Y-56101560D02*
X74523333Y-56139656D01*
X74523333Y-56139656D02*
X74447142Y-56177751D01*
X74447142Y-56177751D02*
X74294761Y-56177751D01*
X74294761Y-56177751D02*
X74218571Y-56215846D01*
X74218571Y-56215846D02*
X74180476Y-56253941D01*
X74180476Y-56253941D02*
X74142380Y-56330132D01*
X74142380Y-56330132D02*
X74142380Y-56482513D01*
X74142380Y-56482513D02*
X74180476Y-56558703D01*
X74180476Y-56558703D02*
X74218571Y-56596799D01*
X74218571Y-56596799D02*
X74294761Y-56634894D01*
X74294761Y-56634894D02*
X74447142Y-56634894D01*
X74447142Y-56634894D02*
X74523333Y-56596799D01*
X74523333Y-56596799D02*
X74561428Y-56558703D01*
X74561428Y-56558703D02*
X74599523Y-56482513D01*
X74599523Y-56482513D02*
X74599523Y-56330132D01*
X74599523Y-56330132D02*
X74561428Y-56253941D01*
X74561428Y-56253941D02*
X74523333Y-56215846D01*
X74523333Y-56215846D02*
X74447142Y-56177751D01*
X75539524Y-45594895D02*
X75539524Y-44794895D01*
X75539524Y-44794895D02*
X75730000Y-44794895D01*
X75730000Y-44794895D02*
X75844286Y-44832990D01*
X75844286Y-44832990D02*
X75920476Y-44909180D01*
X75920476Y-44909180D02*
X75958571Y-44985371D01*
X75958571Y-44985371D02*
X75996667Y-45137752D01*
X75996667Y-45137752D02*
X75996667Y-45252038D01*
X75996667Y-45252038D02*
X75958571Y-45404419D01*
X75958571Y-45404419D02*
X75920476Y-45480609D01*
X75920476Y-45480609D02*
X75844286Y-45556800D01*
X75844286Y-45556800D02*
X75730000Y-45594895D01*
X75730000Y-45594895D02*
X75539524Y-45594895D01*
X76682381Y-45061561D02*
X76682381Y-45594895D01*
X76491905Y-44756800D02*
X76301428Y-45328228D01*
X76301428Y-45328228D02*
X76796667Y-45328228D01*
X75158571Y-56634894D02*
X75158571Y-55834894D01*
X75158571Y-55834894D02*
X75349047Y-55834894D01*
X75349047Y-55834894D02*
X75463333Y-55872989D01*
X75463333Y-55872989D02*
X75539523Y-55949179D01*
X75539523Y-55949179D02*
X75577618Y-56025370D01*
X75577618Y-56025370D02*
X75615714Y-56177751D01*
X75615714Y-56177751D02*
X75615714Y-56292037D01*
X75615714Y-56292037D02*
X75577618Y-56444418D01*
X75577618Y-56444418D02*
X75539523Y-56520608D01*
X75539523Y-56520608D02*
X75463333Y-56596799D01*
X75463333Y-56596799D02*
X75349047Y-56634894D01*
X75349047Y-56634894D02*
X75158571Y-56634894D01*
X76377618Y-56634894D02*
X75920475Y-56634894D01*
X76149047Y-56634894D02*
X76149047Y-55834894D01*
X76149047Y-55834894D02*
X76072856Y-55949179D01*
X76072856Y-55949179D02*
X75996666Y-56025370D01*
X75996666Y-56025370D02*
X75920475Y-56063465D01*
X76758571Y-56634894D02*
X76910952Y-56634894D01*
X76910952Y-56634894D02*
X76987142Y-56596799D01*
X76987142Y-56596799D02*
X77025238Y-56558703D01*
X77025238Y-56558703D02*
X77101428Y-56444418D01*
X77101428Y-56444418D02*
X77139523Y-56292037D01*
X77139523Y-56292037D02*
X77139523Y-55987275D01*
X77139523Y-55987275D02*
X77101428Y-55911084D01*
X77101428Y-55911084D02*
X77063333Y-55872989D01*
X77063333Y-55872989D02*
X76987142Y-55834894D01*
X76987142Y-55834894D02*
X76834761Y-55834894D01*
X76834761Y-55834894D02*
X76758571Y-55872989D01*
X76758571Y-55872989D02*
X76720476Y-55911084D01*
X76720476Y-55911084D02*
X76682380Y-55987275D01*
X76682380Y-55987275D02*
X76682380Y-56177751D01*
X76682380Y-56177751D02*
X76720476Y-56253941D01*
X76720476Y-56253941D02*
X76758571Y-56292037D01*
X76758571Y-56292037D02*
X76834761Y-56330132D01*
X76834761Y-56330132D02*
X76987142Y-56330132D01*
X76987142Y-56330132D02*
X77063333Y-56292037D01*
X77063333Y-56292037D02*
X77101428Y-56253941D01*
X77101428Y-56253941D02*
X77139523Y-56177751D01*
X78079524Y-45594895D02*
X78079524Y-44794895D01*
X78079524Y-44794895D02*
X78270000Y-44794895D01*
X78270000Y-44794895D02*
X78384286Y-44832990D01*
X78384286Y-44832990D02*
X78460476Y-44909180D01*
X78460476Y-44909180D02*
X78498571Y-44985371D01*
X78498571Y-44985371D02*
X78536667Y-45137752D01*
X78536667Y-45137752D02*
X78536667Y-45252038D01*
X78536667Y-45252038D02*
X78498571Y-45404419D01*
X78498571Y-45404419D02*
X78460476Y-45480609D01*
X78460476Y-45480609D02*
X78384286Y-45556800D01*
X78384286Y-45556800D02*
X78270000Y-45594895D01*
X78270000Y-45594895D02*
X78079524Y-45594895D01*
X78803333Y-44794895D02*
X79298571Y-44794895D01*
X79298571Y-44794895D02*
X79031905Y-45099657D01*
X79031905Y-45099657D02*
X79146190Y-45099657D01*
X79146190Y-45099657D02*
X79222381Y-45137752D01*
X79222381Y-45137752D02*
X79260476Y-45175847D01*
X79260476Y-45175847D02*
X79298571Y-45252038D01*
X79298571Y-45252038D02*
X79298571Y-45442514D01*
X79298571Y-45442514D02*
X79260476Y-45518704D01*
X79260476Y-45518704D02*
X79222381Y-45556800D01*
X79222381Y-45556800D02*
X79146190Y-45594895D01*
X79146190Y-45594895D02*
X78917619Y-45594895D01*
X78917619Y-45594895D02*
X78841428Y-45556800D01*
X78841428Y-45556800D02*
X78803333Y-45518704D01*
X77698571Y-56634894D02*
X77698571Y-55834894D01*
X77698571Y-55834894D02*
X77889047Y-55834894D01*
X77889047Y-55834894D02*
X78003333Y-55872989D01*
X78003333Y-55872989D02*
X78079523Y-55949179D01*
X78079523Y-55949179D02*
X78117618Y-56025370D01*
X78117618Y-56025370D02*
X78155714Y-56177751D01*
X78155714Y-56177751D02*
X78155714Y-56292037D01*
X78155714Y-56292037D02*
X78117618Y-56444418D01*
X78117618Y-56444418D02*
X78079523Y-56520608D01*
X78079523Y-56520608D02*
X78003333Y-56596799D01*
X78003333Y-56596799D02*
X77889047Y-56634894D01*
X77889047Y-56634894D02*
X77698571Y-56634894D01*
X78460475Y-55911084D02*
X78498571Y-55872989D01*
X78498571Y-55872989D02*
X78574761Y-55834894D01*
X78574761Y-55834894D02*
X78765237Y-55834894D01*
X78765237Y-55834894D02*
X78841428Y-55872989D01*
X78841428Y-55872989D02*
X78879523Y-55911084D01*
X78879523Y-55911084D02*
X78917618Y-55987275D01*
X78917618Y-55987275D02*
X78917618Y-56063465D01*
X78917618Y-56063465D02*
X78879523Y-56177751D01*
X78879523Y-56177751D02*
X78422380Y-56634894D01*
X78422380Y-56634894D02*
X78917618Y-56634894D01*
X79412857Y-55834894D02*
X79489047Y-55834894D01*
X79489047Y-55834894D02*
X79565238Y-55872989D01*
X79565238Y-55872989D02*
X79603333Y-55911084D01*
X79603333Y-55911084D02*
X79641428Y-55987275D01*
X79641428Y-55987275D02*
X79679523Y-56139656D01*
X79679523Y-56139656D02*
X79679523Y-56330132D01*
X79679523Y-56330132D02*
X79641428Y-56482513D01*
X79641428Y-56482513D02*
X79603333Y-56558703D01*
X79603333Y-56558703D02*
X79565238Y-56596799D01*
X79565238Y-56596799D02*
X79489047Y-56634894D01*
X79489047Y-56634894D02*
X79412857Y-56634894D01*
X79412857Y-56634894D02*
X79336666Y-56596799D01*
X79336666Y-56596799D02*
X79298571Y-56558703D01*
X79298571Y-56558703D02*
X79260476Y-56482513D01*
X79260476Y-56482513D02*
X79222380Y-56330132D01*
X79222380Y-56330132D02*
X79222380Y-56139656D01*
X79222380Y-56139656D02*
X79260476Y-55987275D01*
X79260476Y-55987275D02*
X79298571Y-55911084D01*
X79298571Y-55911084D02*
X79336666Y-55872989D01*
X79336666Y-55872989D02*
X79412857Y-55834894D01*
X80619524Y-45594895D02*
X80619524Y-44794895D01*
X80619524Y-44794895D02*
X80810000Y-44794895D01*
X80810000Y-44794895D02*
X80924286Y-44832990D01*
X80924286Y-44832990D02*
X81000476Y-44909180D01*
X81000476Y-44909180D02*
X81038571Y-44985371D01*
X81038571Y-44985371D02*
X81076667Y-45137752D01*
X81076667Y-45137752D02*
X81076667Y-45252038D01*
X81076667Y-45252038D02*
X81038571Y-45404419D01*
X81038571Y-45404419D02*
X81000476Y-45480609D01*
X81000476Y-45480609D02*
X80924286Y-45556800D01*
X80924286Y-45556800D02*
X80810000Y-45594895D01*
X80810000Y-45594895D02*
X80619524Y-45594895D01*
X81381428Y-44871085D02*
X81419524Y-44832990D01*
X81419524Y-44832990D02*
X81495714Y-44794895D01*
X81495714Y-44794895D02*
X81686190Y-44794895D01*
X81686190Y-44794895D02*
X81762381Y-44832990D01*
X81762381Y-44832990D02*
X81800476Y-44871085D01*
X81800476Y-44871085D02*
X81838571Y-44947276D01*
X81838571Y-44947276D02*
X81838571Y-45023466D01*
X81838571Y-45023466D02*
X81800476Y-45137752D01*
X81800476Y-45137752D02*
X81343333Y-45594895D01*
X81343333Y-45594895D02*
X81838571Y-45594895D01*
X80238571Y-56634894D02*
X80238571Y-55834894D01*
X80238571Y-55834894D02*
X80429047Y-55834894D01*
X80429047Y-55834894D02*
X80543333Y-55872989D01*
X80543333Y-55872989D02*
X80619523Y-55949179D01*
X80619523Y-55949179D02*
X80657618Y-56025370D01*
X80657618Y-56025370D02*
X80695714Y-56177751D01*
X80695714Y-56177751D02*
X80695714Y-56292037D01*
X80695714Y-56292037D02*
X80657618Y-56444418D01*
X80657618Y-56444418D02*
X80619523Y-56520608D01*
X80619523Y-56520608D02*
X80543333Y-56596799D01*
X80543333Y-56596799D02*
X80429047Y-56634894D01*
X80429047Y-56634894D02*
X80238571Y-56634894D01*
X81000475Y-55911084D02*
X81038571Y-55872989D01*
X81038571Y-55872989D02*
X81114761Y-55834894D01*
X81114761Y-55834894D02*
X81305237Y-55834894D01*
X81305237Y-55834894D02*
X81381428Y-55872989D01*
X81381428Y-55872989D02*
X81419523Y-55911084D01*
X81419523Y-55911084D02*
X81457618Y-55987275D01*
X81457618Y-55987275D02*
X81457618Y-56063465D01*
X81457618Y-56063465D02*
X81419523Y-56177751D01*
X81419523Y-56177751D02*
X80962380Y-56634894D01*
X80962380Y-56634894D02*
X81457618Y-56634894D01*
X82219523Y-56634894D02*
X81762380Y-56634894D01*
X81990952Y-56634894D02*
X81990952Y-55834894D01*
X81990952Y-55834894D02*
X81914761Y-55949179D01*
X81914761Y-55949179D02*
X81838571Y-56025370D01*
X81838571Y-56025370D02*
X81762380Y-56063465D01*
X83959523Y-44832990D02*
X83883333Y-44794895D01*
X83883333Y-44794895D02*
X83769047Y-44794895D01*
X83769047Y-44794895D02*
X83654761Y-44832990D01*
X83654761Y-44832990D02*
X83578571Y-44909180D01*
X83578571Y-44909180D02*
X83540476Y-44985371D01*
X83540476Y-44985371D02*
X83502380Y-45137752D01*
X83502380Y-45137752D02*
X83502380Y-45252038D01*
X83502380Y-45252038D02*
X83540476Y-45404419D01*
X83540476Y-45404419D02*
X83578571Y-45480609D01*
X83578571Y-45480609D02*
X83654761Y-45556800D01*
X83654761Y-45556800D02*
X83769047Y-45594895D01*
X83769047Y-45594895D02*
X83845238Y-45594895D01*
X83845238Y-45594895D02*
X83959523Y-45556800D01*
X83959523Y-45556800D02*
X83997619Y-45518704D01*
X83997619Y-45518704D02*
X83997619Y-45252038D01*
X83997619Y-45252038D02*
X83845238Y-45252038D01*
X82683333Y-55834894D02*
X82950000Y-56634894D01*
X82950000Y-56634894D02*
X83216666Y-55834894D01*
X83940476Y-56558703D02*
X83902380Y-56596799D01*
X83902380Y-56596799D02*
X83788095Y-56634894D01*
X83788095Y-56634894D02*
X83711904Y-56634894D01*
X83711904Y-56634894D02*
X83597618Y-56596799D01*
X83597618Y-56596799D02*
X83521428Y-56520608D01*
X83521428Y-56520608D02*
X83483333Y-56444418D01*
X83483333Y-56444418D02*
X83445237Y-56292037D01*
X83445237Y-56292037D02*
X83445237Y-56177751D01*
X83445237Y-56177751D02*
X83483333Y-56025370D01*
X83483333Y-56025370D02*
X83521428Y-55949179D01*
X83521428Y-55949179D02*
X83597618Y-55872989D01*
X83597618Y-55872989D02*
X83711904Y-55834894D01*
X83711904Y-55834894D02*
X83788095Y-55834894D01*
X83788095Y-55834894D02*
X83902380Y-55872989D01*
X83902380Y-55872989D02*
X83940476Y-55911084D01*
X84740476Y-56558703D02*
X84702380Y-56596799D01*
X84702380Y-56596799D02*
X84588095Y-56634894D01*
X84588095Y-56634894D02*
X84511904Y-56634894D01*
X84511904Y-56634894D02*
X84397618Y-56596799D01*
X84397618Y-56596799D02*
X84321428Y-56520608D01*
X84321428Y-56520608D02*
X84283333Y-56444418D01*
X84283333Y-56444418D02*
X84245237Y-56292037D01*
X84245237Y-56292037D02*
X84245237Y-56177751D01*
X84245237Y-56177751D02*
X84283333Y-56025370D01*
X84283333Y-56025370D02*
X84321428Y-55949179D01*
X84321428Y-55949179D02*
X84397618Y-55872989D01*
X84397618Y-55872989D02*
X84511904Y-55834894D01*
X84511904Y-55834894D02*
X84588095Y-55834894D01*
X84588095Y-55834894D02*
X84702380Y-55872989D01*
X84702380Y-55872989D02*
X84740476Y-55911084D01*
X86499523Y-44832990D02*
X86423333Y-44794895D01*
X86423333Y-44794895D02*
X86309047Y-44794895D01*
X86309047Y-44794895D02*
X86194761Y-44832990D01*
X86194761Y-44832990D02*
X86118571Y-44909180D01*
X86118571Y-44909180D02*
X86080476Y-44985371D01*
X86080476Y-44985371D02*
X86042380Y-45137752D01*
X86042380Y-45137752D02*
X86042380Y-45252038D01*
X86042380Y-45252038D02*
X86080476Y-45404419D01*
X86080476Y-45404419D02*
X86118571Y-45480609D01*
X86118571Y-45480609D02*
X86194761Y-45556800D01*
X86194761Y-45556800D02*
X86309047Y-45594895D01*
X86309047Y-45594895D02*
X86385238Y-45594895D01*
X86385238Y-45594895D02*
X86499523Y-45556800D01*
X86499523Y-45556800D02*
X86537619Y-45518704D01*
X86537619Y-45518704D02*
X86537619Y-45252038D01*
X86537619Y-45252038D02*
X86385238Y-45252038D01*
X85851905Y-56634894D02*
X85585238Y-56253941D01*
X85394762Y-56634894D02*
X85394762Y-55834894D01*
X85394762Y-55834894D02*
X85699524Y-55834894D01*
X85699524Y-55834894D02*
X85775714Y-55872989D01*
X85775714Y-55872989D02*
X85813809Y-55911084D01*
X85813809Y-55911084D02*
X85851905Y-55987275D01*
X85851905Y-55987275D02*
X85851905Y-56101560D01*
X85851905Y-56101560D02*
X85813809Y-56177751D01*
X85813809Y-56177751D02*
X85775714Y-56215846D01*
X85775714Y-56215846D02*
X85699524Y-56253941D01*
X85699524Y-56253941D02*
X85394762Y-56253941D01*
X86156666Y-56596799D02*
X86270952Y-56634894D01*
X86270952Y-56634894D02*
X86461428Y-56634894D01*
X86461428Y-56634894D02*
X86537619Y-56596799D01*
X86537619Y-56596799D02*
X86575714Y-56558703D01*
X86575714Y-56558703D02*
X86613809Y-56482513D01*
X86613809Y-56482513D02*
X86613809Y-56406322D01*
X86613809Y-56406322D02*
X86575714Y-56330132D01*
X86575714Y-56330132D02*
X86537619Y-56292037D01*
X86537619Y-56292037D02*
X86461428Y-56253941D01*
X86461428Y-56253941D02*
X86309047Y-56215846D01*
X86309047Y-56215846D02*
X86232857Y-56177751D01*
X86232857Y-56177751D02*
X86194762Y-56139656D01*
X86194762Y-56139656D02*
X86156666Y-56063465D01*
X86156666Y-56063465D02*
X86156666Y-55987275D01*
X86156666Y-55987275D02*
X86194762Y-55911084D01*
X86194762Y-55911084D02*
X86232857Y-55872989D01*
X86232857Y-55872989D02*
X86309047Y-55834894D01*
X86309047Y-55834894D02*
X86499524Y-55834894D01*
X86499524Y-55834894D02*
X86613809Y-55872989D01*
X86842381Y-55834894D02*
X87299524Y-55834894D01*
X87070952Y-56634894D02*
X87070952Y-55834894D01*
X88239524Y-45594895D02*
X88239524Y-44794895D01*
X88239524Y-44794895D02*
X88430000Y-44794895D01*
X88430000Y-44794895D02*
X88544286Y-44832990D01*
X88544286Y-44832990D02*
X88620476Y-44909180D01*
X88620476Y-44909180D02*
X88658571Y-44985371D01*
X88658571Y-44985371D02*
X88696667Y-45137752D01*
X88696667Y-45137752D02*
X88696667Y-45252038D01*
X88696667Y-45252038D02*
X88658571Y-45404419D01*
X88658571Y-45404419D02*
X88620476Y-45480609D01*
X88620476Y-45480609D02*
X88544286Y-45556800D01*
X88544286Y-45556800D02*
X88430000Y-45594895D01*
X88430000Y-45594895D02*
X88239524Y-45594895D01*
X89191905Y-44794895D02*
X89268095Y-44794895D01*
X89268095Y-44794895D02*
X89344286Y-44832990D01*
X89344286Y-44832990D02*
X89382381Y-44871085D01*
X89382381Y-44871085D02*
X89420476Y-44947276D01*
X89420476Y-44947276D02*
X89458571Y-45099657D01*
X89458571Y-45099657D02*
X89458571Y-45290133D01*
X89458571Y-45290133D02*
X89420476Y-45442514D01*
X89420476Y-45442514D02*
X89382381Y-45518704D01*
X89382381Y-45518704D02*
X89344286Y-45556800D01*
X89344286Y-45556800D02*
X89268095Y-45594895D01*
X89268095Y-45594895D02*
X89191905Y-45594895D01*
X89191905Y-45594895D02*
X89115714Y-45556800D01*
X89115714Y-45556800D02*
X89077619Y-45518704D01*
X89077619Y-45518704D02*
X89039524Y-45442514D01*
X89039524Y-45442514D02*
X89001428Y-45290133D01*
X89001428Y-45290133D02*
X89001428Y-45099657D01*
X89001428Y-45099657D02*
X89039524Y-44947276D01*
X89039524Y-44947276D02*
X89077619Y-44871085D01*
X89077619Y-44871085D02*
X89115714Y-44832990D01*
X89115714Y-44832990D02*
X89191905Y-44794895D01*
X89039523Y-55872989D02*
X88963333Y-55834894D01*
X88963333Y-55834894D02*
X88849047Y-55834894D01*
X88849047Y-55834894D02*
X88734761Y-55872989D01*
X88734761Y-55872989D02*
X88658571Y-55949179D01*
X88658571Y-55949179D02*
X88620476Y-56025370D01*
X88620476Y-56025370D02*
X88582380Y-56177751D01*
X88582380Y-56177751D02*
X88582380Y-56292037D01*
X88582380Y-56292037D02*
X88620476Y-56444418D01*
X88620476Y-56444418D02*
X88658571Y-56520608D01*
X88658571Y-56520608D02*
X88734761Y-56596799D01*
X88734761Y-56596799D02*
X88849047Y-56634894D01*
X88849047Y-56634894D02*
X88925238Y-56634894D01*
X88925238Y-56634894D02*
X89039523Y-56596799D01*
X89039523Y-56596799D02*
X89077619Y-56558703D01*
X89077619Y-56558703D02*
X89077619Y-56292037D01*
X89077619Y-56292037D02*
X88925238Y-56292037D01*
X90779524Y-45594895D02*
X90779524Y-44794895D01*
X90779524Y-44794895D02*
X90970000Y-44794895D01*
X90970000Y-44794895D02*
X91084286Y-44832990D01*
X91084286Y-44832990D02*
X91160476Y-44909180D01*
X91160476Y-44909180D02*
X91198571Y-44985371D01*
X91198571Y-44985371D02*
X91236667Y-45137752D01*
X91236667Y-45137752D02*
X91236667Y-45252038D01*
X91236667Y-45252038D02*
X91198571Y-45404419D01*
X91198571Y-45404419D02*
X91160476Y-45480609D01*
X91160476Y-45480609D02*
X91084286Y-45556800D01*
X91084286Y-45556800D02*
X90970000Y-45594895D01*
X90970000Y-45594895D02*
X90779524Y-45594895D01*
X91998571Y-45594895D02*
X91541428Y-45594895D01*
X91770000Y-45594895D02*
X91770000Y-44794895D01*
X91770000Y-44794895D02*
X91693809Y-44909180D01*
X91693809Y-44909180D02*
X91617619Y-44985371D01*
X91617619Y-44985371D02*
X91541428Y-45023466D01*
X90817619Y-56634894D02*
X90550952Y-56253941D01*
X90360476Y-56634894D02*
X90360476Y-55834894D01*
X90360476Y-55834894D02*
X90665238Y-55834894D01*
X90665238Y-55834894D02*
X90741428Y-55872989D01*
X90741428Y-55872989D02*
X90779523Y-55911084D01*
X90779523Y-55911084D02*
X90817619Y-55987275D01*
X90817619Y-55987275D02*
X90817619Y-56101560D01*
X90817619Y-56101560D02*
X90779523Y-56177751D01*
X90779523Y-56177751D02*
X90741428Y-56215846D01*
X90741428Y-56215846D02*
X90665238Y-56253941D01*
X90665238Y-56253941D02*
X90360476Y-56253941D01*
X91122380Y-56406322D02*
X91503333Y-56406322D01*
X91046190Y-56634894D02*
X91312857Y-55834894D01*
X91312857Y-55834894D02*
X91579523Y-56634894D01*
X91769999Y-55834894D02*
X91960475Y-56634894D01*
X91960475Y-56634894D02*
X92112856Y-56063465D01*
X92112856Y-56063465D02*
X92265237Y-56634894D01*
X92265237Y-56634894D02*
X92455714Y-55834894D01*
D12*
X95995833Y-42112295D02*
X95995833Y-41312295D01*
X95995833Y-41312295D02*
X96262499Y-41883723D01*
X96262499Y-41883723D02*
X96529166Y-41312295D01*
X96529166Y-41312295D02*
X96529166Y-42112295D01*
X96910119Y-42112295D02*
X96910119Y-41312295D01*
X96910119Y-41693247D02*
X97367262Y-41693247D01*
X97367262Y-42112295D02*
X97367262Y-41312295D01*
X98167261Y-42112295D02*
X97710118Y-42112295D01*
X97938690Y-42112295D02*
X97938690Y-41312295D01*
X97938690Y-41312295D02*
X97862499Y-41426580D01*
X97862499Y-41426580D02*
X97786309Y-41502771D01*
X97786309Y-41502771D02*
X97710118Y-41540866D01*
X193870833Y-97612295D02*
X193870833Y-96812295D01*
X193870833Y-96812295D02*
X194137499Y-97383723D01*
X194137499Y-97383723D02*
X194404166Y-96812295D01*
X194404166Y-96812295D02*
X194404166Y-97612295D01*
X194785119Y-97612295D02*
X194785119Y-96812295D01*
X194785119Y-97193247D02*
X195242262Y-97193247D01*
X195242262Y-97612295D02*
X195242262Y-96812295D01*
X195966071Y-97078961D02*
X195966071Y-97612295D01*
X195775595Y-96774200D02*
X195585118Y-97345628D01*
X195585118Y-97345628D02*
X196080357Y-97345628D01*
X71370833Y-65862295D02*
X71370833Y-65062295D01*
X71370833Y-65062295D02*
X71637499Y-65633723D01*
X71637499Y-65633723D02*
X71904166Y-65062295D01*
X71904166Y-65062295D02*
X71904166Y-65862295D01*
X72285119Y-65862295D02*
X72285119Y-65062295D01*
X72285119Y-65443247D02*
X72742262Y-65443247D01*
X72742262Y-65862295D02*
X72742262Y-65062295D01*
X73085118Y-65138485D02*
X73123214Y-65100390D01*
X73123214Y-65100390D02*
X73199404Y-65062295D01*
X73199404Y-65062295D02*
X73389880Y-65062295D01*
X73389880Y-65062295D02*
X73466071Y-65100390D01*
X73466071Y-65100390D02*
X73504166Y-65138485D01*
X73504166Y-65138485D02*
X73542261Y-65214676D01*
X73542261Y-65214676D02*
X73542261Y-65290866D01*
X73542261Y-65290866D02*
X73504166Y-65405152D01*
X73504166Y-65405152D02*
X73047023Y-65862295D01*
X73047023Y-65862295D02*
X73542261Y-65862295D01*
X121620833Y-149862295D02*
X121620833Y-149062295D01*
X121620833Y-149062295D02*
X121887499Y-149633723D01*
X121887499Y-149633723D02*
X122154166Y-149062295D01*
X122154166Y-149062295D02*
X122154166Y-149862295D01*
X122535119Y-149862295D02*
X122535119Y-149062295D01*
X122535119Y-149443247D02*
X122992262Y-149443247D01*
X122992262Y-149862295D02*
X122992262Y-149062295D01*
X123487499Y-149405152D02*
X123411309Y-149367057D01*
X123411309Y-149367057D02*
X123373214Y-149328961D01*
X123373214Y-149328961D02*
X123335118Y-149252771D01*
X123335118Y-149252771D02*
X123335118Y-149214676D01*
X123335118Y-149214676D02*
X123373214Y-149138485D01*
X123373214Y-149138485D02*
X123411309Y-149100390D01*
X123411309Y-149100390D02*
X123487499Y-149062295D01*
X123487499Y-149062295D02*
X123639880Y-149062295D01*
X123639880Y-149062295D02*
X123716071Y-149100390D01*
X123716071Y-149100390D02*
X123754166Y-149138485D01*
X123754166Y-149138485D02*
X123792261Y-149214676D01*
X123792261Y-149214676D02*
X123792261Y-149252771D01*
X123792261Y-149252771D02*
X123754166Y-149328961D01*
X123754166Y-149328961D02*
X123716071Y-149367057D01*
X123716071Y-149367057D02*
X123639880Y-149405152D01*
X123639880Y-149405152D02*
X123487499Y-149405152D01*
X123487499Y-149405152D02*
X123411309Y-149443247D01*
X123411309Y-149443247D02*
X123373214Y-149481342D01*
X123373214Y-149481342D02*
X123335118Y-149557533D01*
X123335118Y-149557533D02*
X123335118Y-149709914D01*
X123335118Y-149709914D02*
X123373214Y-149786104D01*
X123373214Y-149786104D02*
X123411309Y-149824200D01*
X123411309Y-149824200D02*
X123487499Y-149862295D01*
X123487499Y-149862295D02*
X123639880Y-149862295D01*
X123639880Y-149862295D02*
X123716071Y-149824200D01*
X123716071Y-149824200D02*
X123754166Y-149786104D01*
X123754166Y-149786104D02*
X123792261Y-149709914D01*
X123792261Y-149709914D02*
X123792261Y-149557533D01*
X123792261Y-149557533D02*
X123754166Y-149481342D01*
X123754166Y-149481342D02*
X123716071Y-149443247D01*
X123716071Y-149443247D02*
X123639880Y-149405152D01*
X68870833Y-145112295D02*
X68870833Y-144312295D01*
X68870833Y-144312295D02*
X69137499Y-144883723D01*
X69137499Y-144883723D02*
X69404166Y-144312295D01*
X69404166Y-144312295D02*
X69404166Y-145112295D01*
X69785119Y-145112295D02*
X69785119Y-144312295D01*
X69785119Y-144693247D02*
X70242262Y-144693247D01*
X70242262Y-145112295D02*
X70242262Y-144312295D01*
X70966071Y-144312295D02*
X70813690Y-144312295D01*
X70813690Y-144312295D02*
X70737499Y-144350390D01*
X70737499Y-144350390D02*
X70699404Y-144388485D01*
X70699404Y-144388485D02*
X70623214Y-144502771D01*
X70623214Y-144502771D02*
X70585118Y-144655152D01*
X70585118Y-144655152D02*
X70585118Y-144959914D01*
X70585118Y-144959914D02*
X70623214Y-145036104D01*
X70623214Y-145036104D02*
X70661309Y-145074200D01*
X70661309Y-145074200D02*
X70737499Y-145112295D01*
X70737499Y-145112295D02*
X70889880Y-145112295D01*
X70889880Y-145112295D02*
X70966071Y-145074200D01*
X70966071Y-145074200D02*
X71004166Y-145036104D01*
X71004166Y-145036104D02*
X71042261Y-144959914D01*
X71042261Y-144959914D02*
X71042261Y-144769438D01*
X71042261Y-144769438D02*
X71004166Y-144693247D01*
X71004166Y-144693247D02*
X70966071Y-144655152D01*
X70966071Y-144655152D02*
X70889880Y-144617057D01*
X70889880Y-144617057D02*
X70737499Y-144617057D01*
X70737499Y-144617057D02*
X70661309Y-144655152D01*
X70661309Y-144655152D02*
X70623214Y-144693247D01*
X70623214Y-144693247D02*
X70585118Y-144769438D01*
D11*
X93861904Y-57694807D02*
X93976190Y-57732902D01*
X93976190Y-57732902D02*
X94014285Y-57770998D01*
X94014285Y-57770998D02*
X94052381Y-57847188D01*
X94052381Y-57847188D02*
X94052381Y-57961474D01*
X94052381Y-57961474D02*
X94014285Y-58037664D01*
X94014285Y-58037664D02*
X93976190Y-58075760D01*
X93976190Y-58075760D02*
X93900000Y-58113855D01*
X93900000Y-58113855D02*
X93595238Y-58113855D01*
X93595238Y-58113855D02*
X93595238Y-57313855D01*
X93595238Y-57313855D02*
X93861904Y-57313855D01*
X93861904Y-57313855D02*
X93938095Y-57351950D01*
X93938095Y-57351950D02*
X93976190Y-57390045D01*
X93976190Y-57390045D02*
X94014285Y-57466236D01*
X94014285Y-57466236D02*
X94014285Y-57542426D01*
X94014285Y-57542426D02*
X93976190Y-57618617D01*
X93976190Y-57618617D02*
X93938095Y-57656712D01*
X93938095Y-57656712D02*
X93861904Y-57694807D01*
X93861904Y-57694807D02*
X93595238Y-57694807D01*
X94395238Y-57809093D02*
X95004762Y-57809093D01*
X94700000Y-58113855D02*
X94700000Y-57504331D01*
X94763809Y-61144807D02*
X94878095Y-61182902D01*
X94878095Y-61182902D02*
X94916190Y-61220998D01*
X94916190Y-61220998D02*
X94954286Y-61297188D01*
X94954286Y-61297188D02*
X94954286Y-61411474D01*
X94954286Y-61411474D02*
X94916190Y-61487664D01*
X94916190Y-61487664D02*
X94878095Y-61525760D01*
X94878095Y-61525760D02*
X94801905Y-61563855D01*
X94801905Y-61563855D02*
X94497143Y-61563855D01*
X94497143Y-61563855D02*
X94497143Y-60763855D01*
X94497143Y-60763855D02*
X94763809Y-60763855D01*
X94763809Y-60763855D02*
X94840000Y-60801950D01*
X94840000Y-60801950D02*
X94878095Y-60840045D01*
X94878095Y-60840045D02*
X94916190Y-60916236D01*
X94916190Y-60916236D02*
X94916190Y-60992426D01*
X94916190Y-60992426D02*
X94878095Y-61068617D01*
X94878095Y-61068617D02*
X94840000Y-61106712D01*
X94840000Y-61106712D02*
X94763809Y-61144807D01*
X94763809Y-61144807D02*
X94497143Y-61144807D01*
X95297143Y-61259093D02*
X95906667Y-61259093D01*
X96859047Y-60725760D02*
X96173333Y-61754331D01*
X97544761Y-60801950D02*
X97468571Y-60763855D01*
X97468571Y-60763855D02*
X97354285Y-60763855D01*
X97354285Y-60763855D02*
X97239999Y-60801950D01*
X97239999Y-60801950D02*
X97163809Y-60878140D01*
X97163809Y-60878140D02*
X97125714Y-60954331D01*
X97125714Y-60954331D02*
X97087618Y-61106712D01*
X97087618Y-61106712D02*
X97087618Y-61220998D01*
X97087618Y-61220998D02*
X97125714Y-61373379D01*
X97125714Y-61373379D02*
X97163809Y-61449569D01*
X97163809Y-61449569D02*
X97239999Y-61525760D01*
X97239999Y-61525760D02*
X97354285Y-61563855D01*
X97354285Y-61563855D02*
X97430476Y-61563855D01*
X97430476Y-61563855D02*
X97544761Y-61525760D01*
X97544761Y-61525760D02*
X97582857Y-61487664D01*
X97582857Y-61487664D02*
X97582857Y-61220998D01*
X97582857Y-61220998D02*
X97430476Y-61220998D01*
X97925714Y-61563855D02*
X97925714Y-60763855D01*
X97925714Y-60763855D02*
X98382857Y-61563855D01*
X98382857Y-61563855D02*
X98382857Y-60763855D01*
X98763809Y-61563855D02*
X98763809Y-60763855D01*
X98763809Y-60763855D02*
X98954285Y-60763855D01*
X98954285Y-60763855D02*
X99068571Y-60801950D01*
X99068571Y-60801950D02*
X99144761Y-60878140D01*
X99144761Y-60878140D02*
X99182856Y-60954331D01*
X99182856Y-60954331D02*
X99220952Y-61106712D01*
X99220952Y-61106712D02*
X99220952Y-61220998D01*
X99220952Y-61220998D02*
X99182856Y-61373379D01*
X99182856Y-61373379D02*
X99144761Y-61449569D01*
X99144761Y-61449569D02*
X99068571Y-61525760D01*
X99068571Y-61525760D02*
X98954285Y-61563855D01*
X98954285Y-61563855D02*
X98763809Y-61563855D01*
D12*
X168870833Y-94112295D02*
X168870833Y-93312295D01*
X168870833Y-93312295D02*
X169137499Y-93883723D01*
X169137499Y-93883723D02*
X169404166Y-93312295D01*
X169404166Y-93312295D02*
X169404166Y-94112295D01*
X169785119Y-94112295D02*
X169785119Y-93312295D01*
X169785119Y-93693247D02*
X170242262Y-93693247D01*
X170242262Y-94112295D02*
X170242262Y-93312295D01*
X170547023Y-93312295D02*
X171042261Y-93312295D01*
X171042261Y-93312295D02*
X170775595Y-93617057D01*
X170775595Y-93617057D02*
X170889880Y-93617057D01*
X170889880Y-93617057D02*
X170966071Y-93655152D01*
X170966071Y-93655152D02*
X171004166Y-93693247D01*
X171004166Y-93693247D02*
X171042261Y-93769438D01*
X171042261Y-93769438D02*
X171042261Y-93959914D01*
X171042261Y-93959914D02*
X171004166Y-94036104D01*
X171004166Y-94036104D02*
X170966071Y-94074200D01*
X170966071Y-94074200D02*
X170889880Y-94112295D01*
X170889880Y-94112295D02*
X170661309Y-94112295D01*
X170661309Y-94112295D02*
X170585118Y-94074200D01*
X170585118Y-94074200D02*
X170547023Y-94036104D01*
%TO.C,J_BAT1*%
D11*
X92900000Y-58400000D02*
X98240000Y-58400000D01*
X98240000Y-60400000D01*
X92900000Y-60400000D01*
X92900000Y-58400000D01*
%TO.C,SW_RST1*%
X87300000Y-61400000D02*
X80800000Y-61400000D01*
X87300000Y-65500000D02*
X80800000Y-65500000D01*
%TO.C,SW_PWR1*%
X89200000Y-62100000D02*
X99399999Y-62100000D01*
X99399999Y-64800000D01*
X89200000Y-64800000D01*
X89200000Y-62100000D01*
%TD*%
%LPC*%
D14*
%TO.C,SW36*%
X128432500Y-153725000D03*
D15*
X128512500Y-157525000D03*
D16*
X133512500Y-153725000D03*
D15*
X133512500Y-159625000D03*
D17*
X138512500Y-148575000D03*
D14*
X138592500Y-153725000D03*
D18*
X136052500Y-148645000D03*
X129702500Y-151185000D03*
%TD*%
D19*
%TO.C,MH5*%
X156187500Y-112500000D03*
%TD*%
%TO.C,MH7*%
X97437500Y-152000000D03*
%TD*%
%TO.C,MH1*%
X97062500Y-43250000D03*
%TD*%
D14*
%TO.C,SW34*%
X78426300Y-153725000D03*
D15*
X78506300Y-157525000D03*
D16*
X83506300Y-153725000D03*
D15*
X83506300Y-159625000D03*
D17*
X88506300Y-148575000D03*
D14*
X88586300Y-153725000D03*
D18*
X86046300Y-148645000D03*
X79696300Y-151185000D03*
%TD*%
D14*
%TO.C,SW13*%
X114145000Y-96575000D03*
D15*
X114225000Y-100375000D03*
D16*
X119225000Y-96575000D03*
D15*
X119225000Y-102475000D03*
D17*
X124225000Y-91425000D03*
D14*
X124305000Y-96575000D03*
D18*
X121765000Y-91495000D03*
X115415000Y-94035000D03*
%TD*%
D14*
%TO.C,SW31*%
X166532500Y-134675000D03*
D15*
X166612500Y-138475000D03*
D16*
X171612500Y-134675000D03*
D15*
X171612500Y-140575000D03*
D17*
X176612500Y-129525000D03*
D14*
X176692500Y-134675000D03*
D18*
X174152500Y-129595000D03*
X167802500Y-132135000D03*
%TD*%
D14*
%TO.C,SW38*%
X166532500Y-153725000D03*
D15*
X166612500Y-157525000D03*
D16*
X171612500Y-153725000D03*
D15*
X171612500Y-159625000D03*
D17*
X176612500Y-148575000D03*
D14*
X176692500Y-153725000D03*
D18*
X174152500Y-148645000D03*
X167802500Y-151185000D03*
%TD*%
D14*
%TO.C,SW10*%
X56995000Y-96575000D03*
D15*
X57075000Y-100375000D03*
D16*
X62075000Y-96575000D03*
D15*
X62075000Y-102475000D03*
D17*
X67075000Y-91425000D03*
D14*
X67155000Y-96575000D03*
D18*
X64615000Y-91495000D03*
X58265000Y-94035000D03*
%TD*%
D14*
%TO.C,SW33*%
X62392500Y-153725000D03*
D15*
X62312500Y-149925000D03*
D16*
X57312500Y-153725000D03*
D15*
X57312500Y-147825000D03*
D17*
X52312500Y-158875000D03*
D14*
X52232500Y-153725000D03*
D18*
X54772500Y-158805000D03*
X61122500Y-156265000D03*
%TD*%
D14*
%TO.C,SW25*%
X62392500Y-134675000D03*
D15*
X62312500Y-130875000D03*
D16*
X57312500Y-134675000D03*
D15*
X57312500Y-128775000D03*
D17*
X52312500Y-139825000D03*
D14*
X52232500Y-134675000D03*
D18*
X54772500Y-139755000D03*
X61122500Y-137215000D03*
%TD*%
D14*
%TO.C,SW37*%
X147482500Y-153725000D03*
D15*
X147562500Y-157525000D03*
D16*
X152562500Y-153725000D03*
D15*
X152562500Y-159625000D03*
D17*
X157562500Y-148575000D03*
D14*
X157642500Y-153725000D03*
D18*
X155102500Y-148645000D03*
X148752500Y-151185000D03*
%TD*%
D19*
%TO.C,MH4*%
X194937500Y-98750000D03*
%TD*%
D14*
%TO.C,SW19*%
X80807500Y-115625000D03*
D15*
X80887500Y-119425000D03*
D16*
X85887500Y-115625000D03*
D15*
X85887500Y-121525000D03*
D17*
X90887500Y-110475000D03*
D14*
X90967500Y-115625000D03*
D18*
X88427500Y-110545000D03*
X82077500Y-113085000D03*
%TD*%
D19*
%TO.C,MH2*%
X72437500Y-67000000D03*
%TD*%
D14*
%TO.C,SW8*%
X185582500Y-77525000D03*
D15*
X185662500Y-81325000D03*
D16*
X190662500Y-77525000D03*
D15*
X190662500Y-83425000D03*
D17*
X195662500Y-72375000D03*
D14*
X195742500Y-77525000D03*
D18*
X193202500Y-72445000D03*
X186852500Y-74985000D03*
%TD*%
D14*
%TO.C,SW11*%
X76045000Y-96575000D03*
D15*
X76125000Y-100375000D03*
D16*
X81125000Y-96575000D03*
D15*
X81125000Y-102475000D03*
D17*
X86125000Y-91425000D03*
D14*
X86205000Y-96575000D03*
D18*
X83665000Y-91495000D03*
X77315000Y-94035000D03*
%TD*%
D14*
%TO.C,SW16*%
X178438800Y-96575000D03*
D15*
X178518800Y-100375000D03*
D16*
X183518800Y-96575000D03*
D15*
X183518800Y-102475000D03*
D17*
X188518800Y-91425000D03*
D14*
X188598800Y-96575000D03*
D18*
X186058800Y-91495000D03*
X179708800Y-94035000D03*
%TD*%
D14*
%TO.C,SW24*%
X185582500Y-115625000D03*
D15*
X185662500Y-119425000D03*
D16*
X190662500Y-115625000D03*
D15*
X190662500Y-121525000D03*
D17*
X195662500Y-110475000D03*
D14*
X195742500Y-115625000D03*
D18*
X193202500Y-110545000D03*
X186852500Y-113085000D03*
%TD*%
D14*
%TO.C,SW1*%
X57630000Y-77525000D03*
D15*
X57550000Y-73725000D03*
D16*
X52550000Y-77525000D03*
D15*
X52550000Y-71625000D03*
D17*
X47550000Y-82675000D03*
D14*
X47470000Y-77525000D03*
D18*
X50010000Y-82605000D03*
X56360000Y-80065000D03*
%TD*%
D14*
%TO.C,SW39*%
X185582500Y-153725000D03*
D15*
X185662500Y-157525000D03*
D16*
X190662500Y-153725000D03*
D15*
X190662500Y-159625000D03*
D17*
X195662500Y-148575000D03*
D14*
X195742500Y-153725000D03*
D18*
X193202500Y-148645000D03*
X186852500Y-151185000D03*
%TD*%
D14*
%TO.C,SW4*%
X104620000Y-77525000D03*
D15*
X104700000Y-81325000D03*
D16*
X109700000Y-77525000D03*
D15*
X109700000Y-83425000D03*
D17*
X114700000Y-72375000D03*
D14*
X114780000Y-77525000D03*
D18*
X112240000Y-72445000D03*
X105890000Y-74985000D03*
%TD*%
D14*
%TO.C,SW29*%
X128432500Y-134675000D03*
D15*
X128512500Y-138475000D03*
D16*
X133512500Y-134675000D03*
D15*
X133512500Y-140575000D03*
D17*
X138512500Y-129525000D03*
D14*
X138592500Y-134675000D03*
D18*
X136052500Y-129595000D03*
X129702500Y-132135000D03*
%TD*%
D14*
%TO.C,SW22*%
X137957500Y-115625000D03*
D15*
X138037500Y-119425000D03*
D16*
X143037500Y-115625000D03*
D15*
X143037500Y-121525000D03*
D17*
X148037500Y-110475000D03*
D14*
X148117500Y-115625000D03*
D18*
X145577500Y-110545000D03*
X139227500Y-113085000D03*
%TD*%
D14*
%TO.C,SW27*%
X90332500Y-134675000D03*
D15*
X90412500Y-138475000D03*
D16*
X95412500Y-134675000D03*
D15*
X95412500Y-140575000D03*
D17*
X100412500Y-129525000D03*
D14*
X100492500Y-134675000D03*
D18*
X97952500Y-129595000D03*
X91602500Y-132135000D03*
%TD*%
D14*
%TO.C,SW26*%
X71282500Y-134675000D03*
D15*
X71362500Y-138475000D03*
D16*
X76362500Y-134675000D03*
D15*
X76362500Y-140575000D03*
D17*
X81362500Y-129525000D03*
D14*
X81442500Y-134675000D03*
D18*
X78902500Y-129595000D03*
X72552500Y-132135000D03*
%TD*%
D19*
%TO.C,MH8*%
X122687500Y-151000000D03*
%TD*%
D14*
%TO.C,SW15*%
X152245000Y-96575000D03*
D15*
X152325000Y-100375000D03*
D16*
X157325000Y-96575000D03*
D15*
X157325000Y-102475000D03*
D17*
X162325000Y-91425000D03*
D14*
X162405000Y-96575000D03*
D18*
X159865000Y-91495000D03*
X153515000Y-94035000D03*
%TD*%
D20*
%TO.C,BAT_LEAD_SLOT1*%
X92200000Y-50750000D03*
%TD*%
D19*
%TO.C,MH6*%
X69937500Y-146250000D03*
%TD*%
D14*
%TO.C,SW35*%
X107001300Y-153725000D03*
D15*
X107081300Y-157525000D03*
D16*
X112081300Y-153725000D03*
D15*
X112081300Y-159625000D03*
D17*
X117081300Y-148575000D03*
D14*
X117161300Y-153725000D03*
D18*
X114621300Y-148645000D03*
X108271300Y-151185000D03*
%TD*%
D14*
%TO.C,SW12*%
X95095000Y-96575000D03*
D15*
X95175000Y-100375000D03*
D16*
X100175000Y-96575000D03*
D15*
X100175000Y-102475000D03*
D17*
X105175000Y-91425000D03*
D14*
X105255000Y-96575000D03*
D18*
X102715000Y-91495000D03*
X96365000Y-94035000D03*
%TD*%
D14*
%TO.C,SW2*%
X66520000Y-77525000D03*
D15*
X66600000Y-81325000D03*
D16*
X71600000Y-77525000D03*
D15*
X71600000Y-83425000D03*
D17*
X76600000Y-72375000D03*
D14*
X76680000Y-77525000D03*
D18*
X74140000Y-72445000D03*
X67790000Y-74985000D03*
%TD*%
D14*
%TO.C,SW28*%
X109382500Y-134675000D03*
D15*
X109462500Y-138475000D03*
D16*
X114462500Y-134675000D03*
D15*
X114462500Y-140575000D03*
D17*
X119462500Y-129525000D03*
D14*
X119542500Y-134675000D03*
D18*
X117002500Y-129595000D03*
X110652500Y-132135000D03*
%TD*%
D14*
%TO.C,SW17*%
X52867500Y-115625000D03*
D15*
X52787500Y-111825000D03*
D16*
X47787500Y-115625000D03*
D15*
X47787500Y-109725000D03*
D17*
X42787500Y-120775000D03*
D14*
X42707500Y-115625000D03*
D18*
X45247500Y-120705000D03*
X51597500Y-118165000D03*
%TD*%
D14*
%TO.C,SW3*%
X85570000Y-77525000D03*
D15*
X85650000Y-81325000D03*
D16*
X90650000Y-77525000D03*
D15*
X90650000Y-83425000D03*
D17*
X95650000Y-72375000D03*
D14*
X95730000Y-77525000D03*
D18*
X93190000Y-72445000D03*
X86840000Y-74985000D03*
%TD*%
D14*
%TO.C,SW30*%
X147482500Y-134675000D03*
D15*
X147562500Y-138475000D03*
D16*
X152562500Y-134675000D03*
D15*
X152562500Y-140575000D03*
D17*
X157562500Y-129525000D03*
D14*
X157642500Y-134675000D03*
D18*
X155102500Y-129595000D03*
X148752500Y-132135000D03*
%TD*%
D21*
%TO.C,J_BAT1*%
X94300000Y-59400000D03*
X96840001Y-59400000D03*
%TD*%
D14*
%TO.C,SW7*%
X164151300Y-77525000D03*
D15*
X164231300Y-81325000D03*
D16*
X169231300Y-77525000D03*
D15*
X169231300Y-83425000D03*
D17*
X174231300Y-72375000D03*
D14*
X174311300Y-77525000D03*
D18*
X171771300Y-72445000D03*
X165421300Y-74985000D03*
%TD*%
D14*
%TO.C,SW14*%
X133195000Y-96575000D03*
D15*
X133275000Y-100375000D03*
D16*
X138275000Y-96575000D03*
D15*
X138275000Y-102475000D03*
D17*
X143275000Y-91425000D03*
D14*
X143355000Y-96575000D03*
D18*
X140815000Y-91495000D03*
X134465000Y-94035000D03*
%TD*%
D14*
%TO.C,SW9*%
X48105000Y-96575000D03*
D15*
X48025000Y-92775000D03*
D16*
X43025000Y-96575000D03*
D15*
X43025000Y-90675000D03*
D17*
X38025000Y-101725000D03*
D14*
X37945000Y-96575000D03*
D18*
X40485000Y-101655000D03*
X46835000Y-99115000D03*
%TD*%
D14*
%TO.C,SW5*%
X123670000Y-77525000D03*
D15*
X123750000Y-81325000D03*
D16*
X128750000Y-77525000D03*
D15*
X128750000Y-83425000D03*
D17*
X133750000Y-72375000D03*
D14*
X133830000Y-77525000D03*
D18*
X131290000Y-72445000D03*
X124940000Y-74985000D03*
%TD*%
D14*
%TO.C,SW20*%
X99857500Y-115625000D03*
D15*
X99937500Y-119425000D03*
D16*
X104937500Y-115625000D03*
D15*
X104937500Y-121525000D03*
D17*
X109937500Y-110475000D03*
D14*
X110017500Y-115625000D03*
D18*
X107477500Y-110545000D03*
X101127500Y-113085000D03*
%TD*%
D14*
%TO.C,SW32*%
X185582500Y-134675000D03*
D15*
X185662500Y-138475000D03*
D16*
X190662500Y-134675000D03*
D15*
X190662500Y-140575000D03*
D17*
X195662500Y-129525000D03*
D14*
X195742500Y-134675000D03*
D18*
X193202500Y-129595000D03*
X186852500Y-132135000D03*
%TD*%
D19*
%TO.C,MH3*%
X169937500Y-95250000D03*
%TD*%
D14*
%TO.C,SW18*%
X61757500Y-115625000D03*
D15*
X61837500Y-119425000D03*
D16*
X66837500Y-115625000D03*
D15*
X66837500Y-121525000D03*
D17*
X71837500Y-110475000D03*
D14*
X71917500Y-115625000D03*
D18*
X69377500Y-110545000D03*
X63027500Y-113085000D03*
%TD*%
D22*
%TO.C,SW_RST1*%
X87925000Y-63450000D03*
X80175000Y-63450000D03*
%TD*%
D14*
%TO.C,SW23*%
X161770000Y-115625000D03*
D15*
X161850000Y-119425000D03*
D16*
X166850000Y-115625000D03*
D15*
X166850000Y-121525000D03*
D17*
X171850000Y-110475000D03*
D14*
X171930000Y-115625000D03*
D18*
X169390000Y-110545000D03*
X163040000Y-113085000D03*
%TD*%
D14*
%TO.C,SW6*%
X142720000Y-77525000D03*
D15*
X142800000Y-81325000D03*
D16*
X147800000Y-77525000D03*
D15*
X147800000Y-83425000D03*
D17*
X152800000Y-72375000D03*
D14*
X152880000Y-77525000D03*
D18*
X150340000Y-72445000D03*
X143990000Y-74985000D03*
%TD*%
D14*
%TO.C,SW21*%
X118907500Y-115625000D03*
D15*
X118987500Y-119425000D03*
D16*
X123987500Y-115625000D03*
D15*
X123987500Y-121525000D03*
D17*
X128987500Y-110475000D03*
D14*
X129067500Y-115625000D03*
D18*
X126527500Y-110545000D03*
X120177500Y-113085000D03*
%TD*%
D19*
%TO.C,SW_PWR1*%
X94300000Y-63450000D03*
X96840000Y-63450000D03*
X91759999Y-63450000D03*
%TD*%
%LPD*%
M02*
