%TF.GenerationSoftware,KiCad,Pcbnew,10.0.3*%
%TF.CreationDate,2026-08-03T10:12:09+09:00*%
%TF.ProjectId,kc2_right-x3-v2,6b63325f-7269-4676-9874-2d78332d7632,draft-v2*%
%TF.SameCoordinates,Original*%
%TF.FileFunction,Copper,L2,Bot*%
%TF.FilePolarity,Positive*%
%FSLAX46Y46*%
G04 Gerber Fmt 4.6, Leading zero omitted, Abs format (unit mm)*
G04 Created by KiCad (PCBNEW 10.0.3) date 2026-08-03 10:12:09*
%MOMM*%
%LPD*%
G01*
G04 APERTURE LIST*
G04 Aperture macros list*
%AMRoundRect*
0 Rectangle with rounded corners*
0 $1 Rounding radius*
0 $2 $3 $4 $5 $6 $7 $8 $9 X,Y pos of 4 corners*
0 Add a 4 corners polygon primitive as box body*
4,1,4,$2,$3,$4,$5,$6,$7,$8,$9,$2,$3,0*
0 Add four circle primitives for the rounded corners*
1,1,$1+$1,$2,$3*
1,1,$1+$1,$4,$5*
1,1,$1+$1,$6,$7*
1,1,$1+$1,$8,$9*
0 Add four rect primitives between the rounded corners*
20,1,$1+$1,$2,$3,$4,$5,0*
20,1,$1+$1,$4,$5,$6,$7,0*
20,1,$1+$1,$6,$7,$8,$9,0*
20,1,$1+$1,$8,$9,$2,$3,0*%
G04 Aperture macros list end*
%TA.AperFunction,ComponentPad*%
%ADD10C,2.500000*%
%TD*%
%TA.AperFunction,SMDPad,CuDef*%
%ADD11RoundRect,0.520000X-0.780000X-0.780000X0.780000X-0.780000X0.780000X0.780000X-0.780000X0.780000X0*%
%TD*%
%TA.AperFunction,ComponentPad*%
%ADD12C,1.800000*%
%TD*%
%TA.AperFunction,SMDPad,CuDef*%
%ADD13RoundRect,0.252000X0.448000X0.523000X-0.448000X0.523000X-0.448000X-0.523000X0.448000X-0.523000X0*%
%TD*%
%TA.AperFunction,ViaPad*%
%ADD14C,0.600000*%
%TD*%
%TA.AperFunction,Conductor*%
%ADD15C,0.250000*%
%TD*%
G04 APERTURE END LIST*
D10*
%TO.P,SW43,1*%
%TO.N,R_COL6*%
X179252500Y-148645000D03*
D11*
X180412500Y-159625000D03*
%TO.P,SW43,2*%
%TO.N,RK43_D*%
X168012500Y-157525000D03*
D10*
X172902500Y-151185000D03*
%TD*%
%TO.P,SW38,1*%
%TO.N,R_COL1*%
X84002500Y-148645000D03*
D11*
X85162500Y-159625000D03*
%TO.P,SW38,2*%
%TO.N,RK38_D*%
X72762500Y-157525000D03*
D10*
X77652500Y-151185000D03*
%TD*%
%TO.P,SW27,1*%
%TO.N,R_COL8*%
X217352500Y-110545000D03*
D11*
X218512500Y-121525000D03*
%TO.P,SW27,2*%
%TO.N,RK27_D*%
X206112500Y-119425000D03*
D10*
X211002500Y-113085000D03*
%TD*%
%TO.P,SW10,1*%
%TO.N,R_COL0*%
X50665000Y-91495000D03*
D11*
X51825000Y-102475000D03*
%TO.P,SW10,2*%
%TO.N,RK10_D*%
X39425000Y-100375000D03*
D10*
X44315000Y-94035000D03*
%TD*%
%TO.P,SW15,1*%
%TO.N,R_COL5*%
X145915000Y-91495000D03*
D11*
X147075000Y-102475000D03*
%TO.P,SW15,2*%
%TO.N,RK15_D*%
X134675000Y-100375000D03*
D10*
X139565000Y-94035000D03*
%TD*%
%TO.P,SW36,1*%
%TO.N,R_COL8*%
X217352500Y-129595000D03*
D11*
X218512500Y-140575000D03*
%TO.P,SW36,2*%
%TO.N,RK36_D*%
X206112500Y-138475000D03*
D10*
X211002500Y-132135000D03*
%TD*%
%TO.P,SW14,1*%
%TO.N,R_COL4*%
X126865000Y-91495000D03*
D11*
X128025000Y-102475000D03*
%TO.P,SW14,2*%
%TO.N,RK14_D*%
X115625000Y-100375000D03*
D10*
X120515000Y-94035000D03*
%TD*%
%TO.P,SW9,1*%
%TO.N,R_COL8*%
X217352500Y-72445000D03*
D11*
X218512500Y-83425000D03*
%TO.P,SW9,2*%
%TO.N,RK09_D*%
X206112500Y-81325000D03*
D10*
X211002500Y-74985000D03*
%TD*%
%TO.P,SW28,1*%
%TO.N,R_COL0*%
X64952500Y-129595000D03*
D11*
X66112500Y-140575000D03*
%TO.P,SW28,2*%
%TO.N,RK28_D*%
X53712500Y-138475000D03*
D10*
X58602500Y-132135000D03*
%TD*%
%TO.P,SW39,1*%
%TO.N,R_COL2*%
X103052500Y-148645000D03*
D11*
X104212500Y-159625000D03*
%TO.P,SW39,2*%
%TO.N,RK39_D*%
X91812500Y-157525000D03*
D10*
X96702500Y-151185000D03*
%TD*%
%TO.P,SW3,1*%
%TO.N,R_COL2*%
X98290000Y-72445000D03*
D11*
X99450000Y-83425000D03*
%TO.P,SW3,2*%
%TO.N,RK03_D*%
X87050000Y-81325000D03*
D10*
X91940000Y-74985000D03*
%TD*%
%TO.P,SW5,1*%
%TO.N,R_COL4*%
X136390000Y-72445000D03*
D11*
X137550000Y-83425000D03*
%TO.P,SW5,2*%
%TO.N,RK05_D*%
X125150000Y-81325000D03*
D10*
X130040000Y-74985000D03*
%TD*%
%TO.P,SW20,1*%
%TO.N,R_COL1*%
X74477500Y-110545000D03*
D11*
X75637500Y-121525000D03*
%TO.P,SW20,2*%
%TO.N,RK20_D*%
X63237500Y-119425000D03*
D10*
X68127500Y-113085000D03*
%TD*%
%TO.P,SW42,1*%
%TO.N,R_COL5*%
X160202500Y-148645000D03*
D11*
X161362500Y-159625000D03*
%TO.P,SW42,2*%
%TO.N,RK42_D*%
X148962500Y-157525000D03*
D10*
X153852500Y-151185000D03*
%TD*%
%TO.P,SW16,1*%
%TO.N,R_COL6*%
X164965000Y-91495000D03*
D11*
X166125000Y-102475000D03*
%TO.P,SW16,2*%
%TO.N,RK16_D*%
X153725000Y-100375000D03*
D10*
X158615000Y-94035000D03*
%TD*%
%TO.P,SW40,1*%
%TO.N,R_COL3*%
X122102500Y-148645000D03*
D11*
X123262500Y-159625000D03*
%TO.P,SW40,2*%
%TO.N,RK40_D*%
X110862500Y-157525000D03*
D10*
X115752500Y-151185000D03*
%TD*%
%TO.P,SW23,1*%
%TO.N,R_COL4*%
X131627500Y-110545000D03*
D11*
X132787500Y-121525000D03*
%TO.P,SW23,2*%
%TO.N,RK23_D*%
X120387500Y-119425000D03*
D10*
X125277500Y-113085000D03*
%TD*%
%TO.P,SW17,1*%
%TO.N,R_COL7*%
X191158800Y-91495000D03*
D11*
X192318800Y-102475000D03*
%TO.P,SW17,2*%
%TO.N,RK17_D*%
X179918800Y-100375000D03*
D10*
X184808800Y-94035000D03*
%TD*%
%TO.P,SW35,1*%
%TO.N,R_COL7*%
X198302500Y-129595000D03*
D11*
X199462500Y-140575000D03*
%TO.P,SW35,2*%
%TO.N,RK35_D*%
X187062500Y-138475000D03*
D10*
X191952500Y-132135000D03*
%TD*%
%TO.P,SW32,1*%
%TO.N,R_COL4*%
X141152500Y-129595000D03*
D11*
X142312500Y-140575000D03*
%TO.P,SW32,2*%
%TO.N,RK32_D*%
X129912500Y-138475000D03*
D10*
X134802500Y-132135000D03*
%TD*%
%TO.P,SW25,1*%
%TO.N,R_COL6*%
X169727500Y-110545000D03*
D11*
X170887500Y-121525000D03*
%TO.P,SW25,2*%
%TO.N,RK25_D*%
X158487500Y-119425000D03*
D10*
X163377500Y-113085000D03*
%TD*%
%TO.P,SW21,1*%
%TO.N,R_COL2*%
X93527500Y-110545000D03*
D11*
X94687500Y-121525000D03*
%TO.P,SW21,2*%
%TO.N,RK21_D*%
X82287500Y-119425000D03*
D10*
X87177500Y-113085000D03*
%TD*%
%TO.P,SW29,1*%
%TO.N,R_COL1*%
X84002500Y-129595000D03*
D11*
X85162500Y-140575000D03*
%TO.P,SW29,2*%
%TO.N,RK29_D*%
X72762500Y-138475000D03*
D10*
X77652500Y-132135000D03*
%TD*%
%TO.P,SW2,1*%
%TO.N,R_COL1*%
X79240000Y-72445000D03*
D11*
X80400000Y-83425000D03*
%TO.P,SW2,2*%
%TO.N,RK02_D*%
X68000000Y-81325000D03*
D10*
X72890000Y-74985000D03*
%TD*%
%TO.P,SW1,1*%
%TO.N,R_COL0*%
X60190000Y-72445000D03*
D11*
X61350000Y-83425000D03*
%TO.P,SW1,2*%
%TO.N,RK01_D*%
X48950000Y-81325000D03*
D10*
X53840000Y-74985000D03*
%TD*%
%TO.P,SW12,1*%
%TO.N,R_COL2*%
X88765000Y-91495000D03*
D11*
X89925000Y-102475000D03*
%TO.P,SW12,2*%
%TO.N,RK12_D*%
X77525000Y-100375000D03*
D10*
X82415000Y-94035000D03*
%TD*%
%TO.P,SW34,1*%
%TO.N,R_COL6*%
X179252500Y-129595000D03*
D11*
X180412500Y-140575000D03*
%TO.P,SW34,2*%
%TO.N,RK34_D*%
X168012500Y-138475000D03*
D10*
X172902500Y-132135000D03*
%TD*%
%TO.P,SW41,1*%
%TO.N,R_COL4*%
X141152500Y-148645000D03*
D11*
X142312500Y-159625000D03*
%TO.P,SW41,2*%
%TO.N,RK41_D*%
X129912500Y-157525000D03*
D10*
X134802500Y-151185000D03*
%TD*%
%TO.P,SW8,1*%
%TO.N,R_COL7*%
X195921300Y-72445000D03*
D11*
X197081300Y-83425000D03*
%TO.P,SW8,2*%
%TO.N,RK08_D*%
X184681300Y-81325000D03*
D10*
X189571300Y-74985000D03*
%TD*%
D12*
%TO.P,U1,D0*%
%TO.N,N/C*%
X93930000Y-40110000D03*
%TO.P,U1,D1*%
X96470000Y-40110000D03*
%TO.P,U1,D2*%
%TO.N,R_ROW3*%
X86310000Y-40110000D03*
%TO.P,U1,D3*%
%TO.N,R_ROW0*%
X83770000Y-40110000D03*
%TO.P,U1,D4*%
%TO.N,R_ROW1*%
X81230000Y-40110000D03*
%TO.P,U1,D5*%
%TO.N,R_ROW2*%
X78690000Y-40110000D03*
%TO.P,U1,D6*%
%TO.N,N/C*%
X76150000Y-40110000D03*
%TO.P,U1,D7*%
%TO.N,R_ROW4*%
X73610000Y-40110000D03*
%TO.P,U1,D8*%
%TO.N,N/C*%
X71070000Y-40110000D03*
%TO.P,U1,D9*%
%TO.N,R_COL0*%
X68530000Y-40110000D03*
%TO.P,U1,D10*%
%TO.N,R_COL1*%
X68530000Y-57890000D03*
%TO.P,U1,D14*%
%TO.N,R_COL3*%
X73610000Y-57890000D03*
%TO.P,U1,D15*%
%TO.N,R_COL4*%
X76150000Y-57890000D03*
%TO.P,U1,D16*%
%TO.N,R_COL2*%
X71070000Y-57890000D03*
%TO.P,U1,D18*%
%TO.N,R_COL5*%
X78690000Y-57890000D03*
%TO.P,U1,D19*%
%TO.N,R_COL6*%
X81230000Y-57890000D03*
%TO.P,U1,D20*%
%TO.N,R_COL8*%
X83770000Y-57890000D03*
%TO.P,U1,D21*%
%TO.N,R_COL7*%
X86310000Y-57890000D03*
%TO.P,U1,GND_A*%
%TO.N,N/C*%
X91390000Y-40110000D03*
%TO.P,U1,GND_B*%
X88850000Y-40110000D03*
%TO.P,U1,GND_C*%
%TO.N,GND*%
X93930000Y-57890000D03*
%TO.P,U1,RAW*%
%TO.N,N/C*%
X96470000Y-57890000D03*
%TO.P,U1,RST*%
%TO.N,RST*%
X91390000Y-57890000D03*
%TO.P,U1,VCC*%
%TO.N,N/C*%
X88850000Y-57890000D03*
%TD*%
D10*
%TO.P,SW30,1*%
%TO.N,R_COL2*%
X103052500Y-129595000D03*
D11*
X104212500Y-140575000D03*
%TO.P,SW30,2*%
%TO.N,RK30_D*%
X91812500Y-138475000D03*
D10*
X96702500Y-132135000D03*
%TD*%
%TO.P,SW44,1*%
%TO.N,R_COL7*%
X198302500Y-148645000D03*
D11*
X199462500Y-159625000D03*
%TO.P,SW44,2*%
%TO.N,RK44_D*%
X187062500Y-157525000D03*
D10*
X191952500Y-151185000D03*
%TD*%
%TO.P,SW22,1*%
%TO.N,R_COL3*%
X112577500Y-110545000D03*
D11*
X113737500Y-121525000D03*
%TO.P,SW22,2*%
%TO.N,RK22_D*%
X101337500Y-119425000D03*
D10*
X106227500Y-113085000D03*
%TD*%
%TO.P,SW31,1*%
%TO.N,R_COL3*%
X122102500Y-129595000D03*
D11*
X123262500Y-140575000D03*
%TO.P,SW31,2*%
%TO.N,RK31_D*%
X110862500Y-138475000D03*
D10*
X115752500Y-132135000D03*
%TD*%
%TO.P,SW6,1*%
%TO.N,R_COL5*%
X155440000Y-72445000D03*
D11*
X156600000Y-83425000D03*
%TO.P,SW6,2*%
%TO.N,RK06_D*%
X144200000Y-81325000D03*
D10*
X149090000Y-74985000D03*
%TD*%
%TO.P,SW19,1*%
%TO.N,R_COL0*%
X55427500Y-110545000D03*
D11*
X56587500Y-121525000D03*
%TO.P,SW19,2*%
%TO.N,RK19_D*%
X44187500Y-119425000D03*
D10*
X49077500Y-113085000D03*
%TD*%
%TO.P,SW11,1*%
%TO.N,R_COL1*%
X69715000Y-91495000D03*
D11*
X70875000Y-102475000D03*
%TO.P,SW11,2*%
%TO.N,RK11_D*%
X58475000Y-100375000D03*
D10*
X63365000Y-94035000D03*
%TD*%
%TO.P,SW7,1*%
%TO.N,R_COL6*%
X174490000Y-72445000D03*
D11*
X175650000Y-83425000D03*
%TO.P,SW7,2*%
%TO.N,RK07_D*%
X163250000Y-81325000D03*
D10*
X168140000Y-74985000D03*
%TD*%
%TO.P,SW4,1*%
%TO.N,R_COL3*%
X117340000Y-72445000D03*
D11*
X118500000Y-83425000D03*
%TO.P,SW4,2*%
%TO.N,RK04_D*%
X106100000Y-81325000D03*
D10*
X110990000Y-74985000D03*
%TD*%
%TO.P,SW24,1*%
%TO.N,R_COL5*%
X150677500Y-110545000D03*
D11*
X151837500Y-121525000D03*
%TO.P,SW24,2*%
%TO.N,RK24_D*%
X139437500Y-119425000D03*
D10*
X144327500Y-113085000D03*
%TD*%
%TO.P,SW26,1*%
%TO.N,R_COL7*%
X193540000Y-110545000D03*
D11*
X194700000Y-121525000D03*
%TO.P,SW26,2*%
%TO.N,RK26_D*%
X182300000Y-119425000D03*
D10*
X187190000Y-113085000D03*
%TD*%
%TO.P,SW45,1*%
%TO.N,R_COL8*%
X217352500Y-148645000D03*
D11*
X218512500Y-159625000D03*
%TO.P,SW45,2*%
%TO.N,RK45_D*%
X206112500Y-157525000D03*
D10*
X211002500Y-151185000D03*
%TD*%
%TO.P,SW18,1*%
%TO.N,R_COL8*%
X217352500Y-91495000D03*
D11*
X218512500Y-102475000D03*
%TO.P,SW18,2*%
%TO.N,RK18_D*%
X206112500Y-100375000D03*
D10*
X211002500Y-94035000D03*
%TD*%
%TO.P,SW37,1*%
%TO.N,R_COL0*%
X64952500Y-148645000D03*
D11*
X66112500Y-159625000D03*
%TO.P,SW37,2*%
%TO.N,RK37_D*%
X53712500Y-157525000D03*
D10*
X58602500Y-151185000D03*
%TD*%
%TO.P,SW33,1*%
%TO.N,R_COL5*%
X160202500Y-129595000D03*
D11*
X161362500Y-140575000D03*
%TO.P,SW33,2*%
%TO.N,RK33_D*%
X148962500Y-138475000D03*
D10*
X153852500Y-132135000D03*
%TD*%
%TO.P,SW13,1*%
%TO.N,R_COL3*%
X107815000Y-91495000D03*
D11*
X108975000Y-102475000D03*
%TO.P,SW13,2*%
%TO.N,RK13_D*%
X96575000Y-100375000D03*
D10*
X101465000Y-94035000D03*
%TD*%
D13*
%TO.P,D7,1*%
%TO.N,R_ROW0*%
X173750000Y-69925000D03*
%TO.P,D7,2*%
%TO.N,RK07_D*%
X170150000Y-69925000D03*
%TD*%
%TO.P,D4,1*%
%TO.N,R_ROW0*%
X116600000Y-69925000D03*
%TO.P,D4,2*%
%TO.N,RK04_D*%
X113000000Y-69925000D03*
%TD*%
%TO.P,D31,1*%
%TO.N,R_ROW3*%
X121362500Y-127075000D03*
%TO.P,D31,2*%
%TO.N,RK31_D*%
X117762500Y-127075000D03*
%TD*%
%TO.P,D18,1*%
%TO.N,R_ROW1*%
X216612500Y-88975000D03*
%TO.P,D18,2*%
%TO.N,RK18_D*%
X213012500Y-88975000D03*
%TD*%
%TO.P,D30,1*%
%TO.N,R_ROW3*%
X102312500Y-127075000D03*
%TO.P,D30,2*%
%TO.N,RK30_D*%
X98712500Y-127075000D03*
%TD*%
%TO.P,D9,1*%
%TO.N,R_ROW0*%
X216612500Y-69925000D03*
%TO.P,D9,2*%
%TO.N,RK09_D*%
X213012500Y-69925000D03*
%TD*%
%TO.P,D42,1*%
%TO.N,R_ROW4*%
X159462500Y-146125000D03*
%TO.P,D42,2*%
%TO.N,RK42_D*%
X155862500Y-146125000D03*
%TD*%
%TO.P,D20,1*%
%TO.N,R_ROW2*%
X73737500Y-108025000D03*
%TO.P,D20,2*%
%TO.N,RK20_D*%
X70137500Y-108025000D03*
%TD*%
%TO.P,D23,1*%
%TO.N,R_ROW2*%
X130887500Y-108025000D03*
%TO.P,D23,2*%
%TO.N,RK23_D*%
X127287500Y-108025000D03*
%TD*%
%TO.P,D36,1*%
%TO.N,R_ROW3*%
X216612500Y-127075000D03*
%TO.P,D36,2*%
%TO.N,RK36_D*%
X213012500Y-127075000D03*
%TD*%
%TO.P,D43,1*%
%TO.N,R_ROW4*%
X178512500Y-146125000D03*
%TO.P,D43,2*%
%TO.N,RK43_D*%
X174912500Y-146125000D03*
%TD*%
%TO.P,D3,1*%
%TO.N,R_ROW0*%
X97550000Y-69925000D03*
%TO.P,D3,2*%
%TO.N,RK03_D*%
X93950000Y-69925000D03*
%TD*%
%TO.P,D16,1*%
%TO.N,R_ROW1*%
X164225000Y-88975000D03*
%TO.P,D16,2*%
%TO.N,RK16_D*%
X160625000Y-88975000D03*
%TD*%
%TO.P,D26,1*%
%TO.N,R_ROW2*%
X192800000Y-108025000D03*
%TO.P,D26,2*%
%TO.N,RK26_D*%
X189200000Y-108025000D03*
%TD*%
%TO.P,D17,1*%
%TO.N,R_ROW1*%
X190418800Y-88975000D03*
%TO.P,D17,2*%
%TO.N,RK17_D*%
X186818800Y-88975000D03*
%TD*%
%TO.P,D35,1*%
%TO.N,R_ROW3*%
X197562500Y-127075000D03*
%TO.P,D35,2*%
%TO.N,RK35_D*%
X193962500Y-127075000D03*
%TD*%
%TO.P,D11,1*%
%TO.N,R_ROW1*%
X68975000Y-88975000D03*
%TO.P,D11,2*%
%TO.N,RK11_D*%
X65375000Y-88975000D03*
%TD*%
%TO.P,D2,1*%
%TO.N,R_ROW0*%
X78500000Y-69925000D03*
%TO.P,D2,2*%
%TO.N,RK02_D*%
X74900000Y-69925000D03*
%TD*%
%TO.P,D22,1*%
%TO.N,R_ROW2*%
X111837500Y-108025000D03*
%TO.P,D22,2*%
%TO.N,RK22_D*%
X108237500Y-108025000D03*
%TD*%
%TO.P,D1,1*%
%TO.N,R_ROW0*%
X59450000Y-69925000D03*
%TO.P,D1,2*%
%TO.N,RK01_D*%
X55850000Y-69925000D03*
%TD*%
%TO.P,D10,1*%
%TO.N,R_ROW1*%
X49925000Y-88975000D03*
%TO.P,D10,2*%
%TO.N,RK10_D*%
X46325000Y-88975000D03*
%TD*%
%TO.P,D5,1*%
%TO.N,R_ROW0*%
X135650000Y-69925000D03*
%TO.P,D5,2*%
%TO.N,RK05_D*%
X132050000Y-69925000D03*
%TD*%
%TO.P,D15,1*%
%TO.N,R_ROW1*%
X145175000Y-88975000D03*
%TO.P,D15,2*%
%TO.N,RK15_D*%
X141575000Y-88975000D03*
%TD*%
%TO.P,D29,1*%
%TO.N,R_ROW3*%
X83262500Y-127075000D03*
%TO.P,D29,2*%
%TO.N,RK29_D*%
X79662500Y-127075000D03*
%TD*%
%TO.P,D32,1*%
%TO.N,R_ROW3*%
X140412500Y-127075000D03*
%TO.P,D32,2*%
%TO.N,RK32_D*%
X136812500Y-127075000D03*
%TD*%
%TO.P,D39,1*%
%TO.N,R_ROW4*%
X102312500Y-146125000D03*
%TO.P,D39,2*%
%TO.N,RK39_D*%
X98712500Y-146125000D03*
%TD*%
%TO.P,D41,1*%
%TO.N,R_ROW4*%
X140412500Y-146125000D03*
%TO.P,D41,2*%
%TO.N,RK41_D*%
X136812500Y-146125000D03*
%TD*%
%TO.P,D45,1*%
%TO.N,R_ROW4*%
X216612500Y-146125000D03*
%TO.P,D45,2*%
%TO.N,RK45_D*%
X213012500Y-146125000D03*
%TD*%
%TO.P,D38,1*%
%TO.N,R_ROW4*%
X83262500Y-146125000D03*
%TO.P,D38,2*%
%TO.N,RK38_D*%
X79662500Y-146125000D03*
%TD*%
%TO.P,D25,1*%
%TO.N,R_ROW2*%
X168987500Y-108025000D03*
%TO.P,D25,2*%
%TO.N,RK25_D*%
X165387500Y-108025000D03*
%TD*%
%TO.P,D24,1*%
%TO.N,R_ROW2*%
X149937500Y-108025000D03*
%TO.P,D24,2*%
%TO.N,RK24_D*%
X146337500Y-108025000D03*
%TD*%
%TO.P,D14,1*%
%TO.N,R_ROW1*%
X126125000Y-88975000D03*
%TO.P,D14,2*%
%TO.N,RK14_D*%
X122525000Y-88975000D03*
%TD*%
%TO.P,D27,1*%
%TO.N,R_ROW2*%
X216612500Y-108025000D03*
%TO.P,D27,2*%
%TO.N,RK27_D*%
X213012500Y-108025000D03*
%TD*%
%TO.P,D37,1*%
%TO.N,R_ROW4*%
X64212500Y-146125000D03*
%TO.P,D37,2*%
%TO.N,RK37_D*%
X60612500Y-146125000D03*
%TD*%
%TO.P,D21,1*%
%TO.N,R_ROW2*%
X92787500Y-108025000D03*
%TO.P,D21,2*%
%TO.N,RK21_D*%
X89187500Y-108025000D03*
%TD*%
%TO.P,D19,1*%
%TO.N,R_ROW2*%
X54687500Y-108025000D03*
%TO.P,D19,2*%
%TO.N,RK19_D*%
X51087500Y-108025000D03*
%TD*%
%TO.P,D12,1*%
%TO.N,R_ROW1*%
X88025000Y-88975000D03*
%TO.P,D12,2*%
%TO.N,RK12_D*%
X84425000Y-88975000D03*
%TD*%
%TO.P,D28,1*%
%TO.N,R_ROW3*%
X64212500Y-127075000D03*
%TO.P,D28,2*%
%TO.N,RK28_D*%
X60612500Y-127075000D03*
%TD*%
%TO.P,D44,1*%
%TO.N,R_ROW4*%
X197562500Y-146125000D03*
%TO.P,D44,2*%
%TO.N,RK44_D*%
X193962500Y-146125000D03*
%TD*%
%TO.P,D40,1*%
%TO.N,R_ROW4*%
X121362500Y-146125000D03*
%TO.P,D40,2*%
%TO.N,RK40_D*%
X117762500Y-146125000D03*
%TD*%
%TO.P,D8,1*%
%TO.N,R_ROW0*%
X195181300Y-69925000D03*
%TO.P,D8,2*%
%TO.N,RK08_D*%
X191581300Y-69925000D03*
%TD*%
%TO.P,D6,1*%
%TO.N,R_ROW0*%
X154700000Y-69925000D03*
%TO.P,D6,2*%
%TO.N,RK06_D*%
X151100000Y-69925000D03*
%TD*%
%TO.P,D33,1*%
%TO.N,R_ROW3*%
X159462500Y-127075000D03*
%TO.P,D33,2*%
%TO.N,RK33_D*%
X155862500Y-127075000D03*
%TD*%
%TO.P,D13,1*%
%TO.N,R_ROW1*%
X107075000Y-88975000D03*
%TO.P,D13,2*%
%TO.N,RK13_D*%
X103475000Y-88975000D03*
%TD*%
%TO.P,D34,1*%
%TO.N,R_ROW3*%
X178512500Y-127075000D03*
%TO.P,D34,2*%
%TO.N,RK34_D*%
X174912500Y-127075000D03*
%TD*%
D14*
%TO.N,R_COL6*%
X169727500Y-101123500D03*
%TO.N,R_COL1*%
X74477500Y-101123500D03*
%TO.N,R_COL8*%
X84609100Y-62260400D03*
%TO.N,R_COL0*%
X65548600Y-138594500D03*
%TO.N,R_COL5*%
X150677500Y-101123500D03*
%TO.N,RST*%
X77420100Y-58617100D03*
%TO.N,GND*%
X75893200Y-62018800D03*
%TO.N,R_COL4*%
X141727100Y-138594500D03*
X135399300Y-68146600D03*
%TO.N,R_COL2*%
X103648600Y-138594500D03*
X95200100Y-58617100D03*
%TO.N,R_COL3*%
X78838200Y-59892300D03*
X116784000Y-67648000D03*
%TO.N,R_COL7*%
X196533700Y-64000000D03*
X149500000Y-64000000D03*
X171500000Y-64000000D03*
X194700000Y-121525000D03*
X86310000Y-64000000D03*
X198898600Y-138594500D03*
X192078100Y-100412400D03*
%TO.N,R_ROW3*%
X83073500Y-125610500D03*
%TO.N,R_ROW0*%
X154472300Y-68528000D03*
X80969500Y-68746100D03*
X170968900Y-68175100D03*
%TO.N,R_ROW1*%
X86796500Y-88975000D03*
%TO.N,R_ROW2*%
X77792100Y-107010300D03*
%TO.N,R_ROW4*%
X74614000Y-136206400D03*
%TO.N,RK22_D*%
X106949500Y-108744100D03*
%TO.N,RK06_D*%
X150099200Y-71000800D03*
%TD*%
%TO.N,R_COL6*%
D15*
X170818400Y-68801800D02*
X174461600Y-72445000D01*
X180412500Y-140575000D02*
X180171800Y-140334300D01*
X169727500Y-101123500D02*
X167476500Y-101123500D01*
X169727500Y-110545000D02*
X170767200Y-111584700D01*
X167476500Y-101123500D02*
X166125000Y-102475000D01*
X180412500Y-159625000D02*
X180171800Y-159384300D01*
X170709400Y-68801800D02*
X170818400Y-68801800D01*
X164472000Y-62564400D02*
X170709400Y-68801800D01*
X174461600Y-72445000D02*
X174490000Y-72445000D01*
X180171800Y-149564300D02*
X179252500Y-148645000D01*
X170767200Y-111584700D02*
X170767200Y-121404700D01*
X170767200Y-121404700D02*
X170887500Y-121525000D01*
X85904400Y-62564400D02*
X164472000Y-62564400D01*
X180171800Y-159384300D02*
X180171800Y-149564300D01*
X81230000Y-57890000D02*
X85904400Y-62564400D01*
X180171800Y-130514300D02*
X179252500Y-129595000D01*
X175409300Y-83184300D02*
X175409300Y-73364300D01*
X180171800Y-140334300D02*
X180171800Y-130514300D01*
X175409300Y-73364300D02*
X174490000Y-72445000D01*
X175650000Y-83425000D02*
X175409300Y-83184300D01*
%TO.N,RK43_D*%
X172058800Y-151185000D02*
X168012500Y-155231300D01*
X172902500Y-151185000D02*
X172058800Y-151185000D01*
X172902500Y-148135000D02*
X172902500Y-151185000D01*
X174912500Y-146125000D02*
X172902500Y-148135000D01*
X168012500Y-155231300D02*
X168012500Y-157525000D01*
%TO.N,R_COL1*%
X84002500Y-148645000D02*
X85162500Y-147485000D01*
X79874300Y-121525000D02*
X75637500Y-121525000D01*
X75396800Y-121284300D02*
X75396800Y-111464300D01*
X74477500Y-101123500D02*
X72226500Y-101123500D01*
X84921800Y-159384300D02*
X85162500Y-159625000D01*
X85162500Y-147485000D02*
X85162500Y-140575000D01*
X84002500Y-148645000D02*
X84921800Y-149564300D01*
X80279700Y-73484700D02*
X80279700Y-83304700D01*
X84002500Y-129595000D02*
X84294700Y-129302800D01*
X75396800Y-111464300D02*
X74477500Y-110545000D01*
X79240000Y-72445000D02*
X80279700Y-73484700D01*
X80279700Y-83304700D02*
X80400000Y-83425000D01*
X75637500Y-121525000D02*
X75396800Y-121284300D01*
X84921800Y-149564300D02*
X84921800Y-159384300D01*
X72226500Y-101123500D02*
X70875000Y-102475000D01*
X84294700Y-129302800D02*
X84294700Y-125945400D01*
X84294700Y-125945400D02*
X79874300Y-121525000D01*
%TO.N,RK38_D*%
X77652500Y-148135000D02*
X79662500Y-146125000D01*
X72762500Y-155304700D02*
X76882200Y-151185000D01*
X77652500Y-151185000D02*
X77652500Y-148135000D01*
X72762500Y-157525000D02*
X72762500Y-155304700D01*
X76882200Y-151185000D02*
X77652500Y-151185000D01*
%TO.N,R_COL8*%
X150656600Y-63103200D02*
X85451900Y-63103200D01*
X217352500Y-148645000D02*
X218512500Y-147485000D01*
X218512500Y-102475000D02*
X218512500Y-109385000D01*
X217642500Y-86430100D02*
X165563200Y-86430100D01*
X218512500Y-128435000D02*
X217352500Y-129595000D01*
X85451900Y-63103200D02*
X84609100Y-62260400D01*
X218271800Y-159384300D02*
X218271800Y-149564300D01*
X218512500Y-159625000D02*
X218271800Y-159384300D01*
X217642500Y-91205000D02*
X217642500Y-86430100D01*
X218512500Y-147485000D02*
X218512500Y-140575000D01*
X218512500Y-121525000D02*
X218512500Y-128435000D01*
X218512500Y-109385000D02*
X217352500Y-110545000D01*
X218512500Y-85560100D02*
X217642500Y-86430100D01*
X165563200Y-86430100D02*
X159418200Y-80285100D01*
X159418200Y-71864800D02*
X150656600Y-63103200D01*
X217352500Y-91495000D02*
X217642500Y-91205000D01*
X218271800Y-149564300D02*
X217352500Y-148645000D01*
X218512500Y-83425000D02*
X218512500Y-85560100D01*
X159418200Y-80285100D02*
X159418200Y-71864800D01*
%TO.N,RK27_D*%
X210183500Y-113085000D02*
X211002500Y-113085000D01*
X206112500Y-117156000D02*
X210183500Y-113085000D01*
X213012500Y-108025000D02*
X211002500Y-110035000D01*
X206112500Y-119425000D02*
X206112500Y-117156000D01*
X211002500Y-110035000D02*
X211002500Y-113085000D01*
%TO.N,R_COL0*%
X55396200Y-110545000D02*
X55427500Y-110545000D01*
X56587500Y-121525000D02*
X56873800Y-121525000D01*
X60190000Y-72445000D02*
X61109300Y-73364300D01*
X48893900Y-89755200D02*
X48893900Y-88167400D01*
X64804700Y-129595000D02*
X64952500Y-129595000D01*
X66112500Y-139158400D02*
X65548600Y-138594500D01*
X65871800Y-159384300D02*
X65871800Y-149564300D01*
X51160700Y-85900600D02*
X58874400Y-85900600D01*
X62412500Y-127202800D02*
X64804700Y-129595000D01*
X56346800Y-121284300D02*
X56587500Y-121525000D01*
X50633700Y-91495000D02*
X48893900Y-89755200D01*
X55427500Y-110545000D02*
X56346800Y-111464300D01*
X58874400Y-85900600D02*
X61350000Y-83425000D01*
X56873800Y-121525000D02*
X62412500Y-127063700D01*
X52887500Y-103537500D02*
X52887500Y-108036300D01*
X50665000Y-91495000D02*
X50633700Y-91495000D01*
X51825000Y-102475000D02*
X52887500Y-103537500D01*
X66112500Y-140575000D02*
X66112500Y-139158400D01*
X66112500Y-159625000D02*
X65871800Y-159384300D01*
X61109300Y-73364300D02*
X61109300Y-83184300D01*
X52887500Y-108036300D02*
X55396200Y-110545000D01*
X48893900Y-88167400D02*
X51160700Y-85900600D01*
X65871800Y-149564300D02*
X64952500Y-148645000D01*
X61109300Y-83184300D02*
X61350000Y-83425000D01*
X56346800Y-111464300D02*
X56346800Y-121284300D01*
X62412500Y-127063700D02*
X62412500Y-127202800D01*
%TO.N,RK10_D*%
X44315000Y-90985000D02*
X44315000Y-94035000D01*
X43494900Y-94035000D02*
X44315000Y-94035000D01*
X46325000Y-88975000D02*
X44315000Y-90985000D01*
X39425000Y-98104900D02*
X43494900Y-94035000D01*
X39425000Y-100375000D02*
X39425000Y-98104900D01*
%TO.N,R_COL5*%
X148426500Y-101123500D02*
X147075000Y-102475000D01*
X161121800Y-130514300D02*
X160202500Y-129595000D01*
X161362500Y-159625000D02*
X161121800Y-159384300D01*
X156479700Y-83304700D02*
X156600000Y-83425000D01*
X150677500Y-110545000D02*
X151596800Y-111464300D01*
X151596800Y-111464300D02*
X151596800Y-121284300D01*
X87821300Y-67021300D02*
X78690000Y-57890000D01*
X161362500Y-140575000D02*
X161121800Y-140334300D01*
X155440000Y-72445000D02*
X155745000Y-72140000D01*
X156479700Y-73484700D02*
X156479700Y-83304700D01*
X161121800Y-159384300D02*
X161121800Y-149564300D01*
X155440000Y-72445000D02*
X156479700Y-73484700D01*
X153851900Y-67021300D02*
X87821300Y-67021300D01*
X155745000Y-72140000D02*
X155745000Y-68914400D01*
X151596800Y-121284300D02*
X151837500Y-121525000D01*
X150677500Y-101123500D02*
X148426500Y-101123500D01*
X161121800Y-140334300D02*
X161121800Y-130514300D01*
X155745000Y-68914400D02*
X153851900Y-67021300D01*
X161121800Y-149564300D02*
X160202500Y-148645000D01*
%TO.N,RK15_D*%
X139565000Y-94035000D02*
X138721400Y-94035000D01*
X139565000Y-90985000D02*
X141575000Y-88975000D01*
X138721400Y-94035000D02*
X134675000Y-98081400D01*
X134675000Y-98081400D02*
X134675000Y-100375000D01*
X139565000Y-94035000D02*
X139565000Y-90985000D01*
%TO.N,RST*%
X90149600Y-56649600D02*
X91390000Y-57890000D01*
X77420100Y-58617100D02*
X77420100Y-57422900D01*
X77420100Y-57422900D02*
X78193400Y-56649600D01*
X78193400Y-56649600D02*
X90149600Y-56649600D01*
%TO.N,GND*%
X92237900Y-56197900D02*
X76073800Y-56197900D01*
X76073800Y-56197900D02*
X74880000Y-57391700D01*
X93930000Y-57890000D02*
X92237900Y-56197900D01*
X74880000Y-57391700D02*
X74880000Y-61005600D01*
X74880000Y-61005600D02*
X75893200Y-62018800D01*
%TO.N,RK36_D*%
X210227500Y-132135000D02*
X211002500Y-132135000D01*
X206112500Y-136250000D02*
X210227500Y-132135000D01*
X213012500Y-127075000D02*
X211002500Y-129085000D01*
X206112500Y-138475000D02*
X206112500Y-136250000D01*
X211002500Y-129085000D02*
X211002500Y-132135000D01*
%TO.N,R_COL4*%
X132546800Y-121284300D02*
X132787500Y-121525000D01*
X129824200Y-88535800D02*
X126865000Y-91495000D01*
X76150000Y-57890000D02*
X76150000Y-58274600D01*
X136390000Y-72445000D02*
X137309300Y-73364300D01*
X131596200Y-110545000D02*
X131627500Y-110545000D01*
X129087500Y-108036300D02*
X131596200Y-110545000D01*
X135271200Y-68274700D02*
X135399300Y-68146600D01*
X142071800Y-159384300D02*
X142071800Y-149564300D01*
X141727100Y-139989600D02*
X142312500Y-140575000D01*
X129087500Y-103537500D02*
X129087500Y-108036300D01*
X128025000Y-102475000D02*
X129087500Y-103537500D01*
X132439200Y-88535800D02*
X129824200Y-88535800D01*
X141727100Y-138594500D02*
X141727100Y-139989600D01*
X132546800Y-111464300D02*
X132546800Y-121284300D01*
X137309300Y-73364300D02*
X137309300Y-83184300D01*
X142312500Y-159625000D02*
X142071800Y-159384300D01*
X131627500Y-110545000D02*
X132546800Y-111464300D01*
X137309300Y-83184300D02*
X137550000Y-83425000D01*
X137550000Y-83425000D02*
X132439200Y-88535800D01*
X86150100Y-68274700D02*
X135271200Y-68274700D01*
X142071800Y-149564300D02*
X141152500Y-148645000D01*
X76150000Y-58274600D02*
X86150100Y-68274700D01*
%TO.N,RK14_D*%
X120515000Y-94035000D02*
X120515000Y-90985000D01*
X120515000Y-90985000D02*
X122525000Y-88975000D01*
X115625000Y-100375000D02*
X115625000Y-98134400D01*
X115625000Y-98134400D02*
X119724400Y-94035000D01*
X119724400Y-94035000D02*
X120515000Y-94035000D01*
%TO.N,RK09_D*%
X213012500Y-69925000D02*
X211002500Y-71935000D01*
X210203000Y-74985000D02*
X211002500Y-74985000D01*
X206112500Y-79075500D02*
X210203000Y-74985000D01*
X211002500Y-71935000D02*
X211002500Y-74985000D01*
X206112500Y-81325000D02*
X206112500Y-79075500D01*
%TO.N,RK28_D*%
X53712500Y-136204900D02*
X57782400Y-132135000D01*
X58602500Y-129085000D02*
X58602500Y-132135000D01*
X57782400Y-132135000D02*
X58602500Y-132135000D01*
X53712500Y-138475000D02*
X53712500Y-136204900D01*
X60612500Y-127075000D02*
X58602500Y-129085000D01*
%TO.N,R_COL2*%
X103971800Y-149564300D02*
X103052500Y-148645000D01*
X73213800Y-55746200D02*
X71070000Y-57890000D01*
X103971800Y-159384300D02*
X103971800Y-149564300D01*
X95200100Y-58617100D02*
X95200100Y-57391800D01*
X104212500Y-159625000D02*
X103971800Y-159384300D01*
X94687500Y-121525000D02*
X94446800Y-121284300D01*
X94446800Y-121284300D02*
X94446800Y-111464300D01*
X104212500Y-140575000D02*
X104212500Y-139158400D01*
X98290000Y-72445000D02*
X99209300Y-73364300D01*
X89925000Y-102475000D02*
X89684300Y-102234300D01*
X93554500Y-55746200D02*
X73213800Y-55746200D01*
X99209300Y-73364300D02*
X99209300Y-83184300D01*
X89684300Y-92414300D02*
X88765000Y-91495000D01*
X99209300Y-83184300D02*
X99450000Y-83425000D01*
X104212500Y-139158400D02*
X103648600Y-138594500D01*
X89684300Y-102234300D02*
X89684300Y-92414300D01*
X94446800Y-111464300D02*
X93527500Y-110545000D01*
X95200100Y-57391800D02*
X93554500Y-55746200D01*
%TO.N,RK39_D*%
X96702500Y-148135000D02*
X96702500Y-151185000D01*
X91812500Y-157525000D02*
X91812500Y-155304700D01*
X95932200Y-151185000D02*
X96702500Y-151185000D01*
X98712500Y-146125000D02*
X96702500Y-148135000D01*
X91812500Y-155304700D02*
X95932200Y-151185000D01*
%TO.N,RK03_D*%
X93950000Y-69925000D02*
X91940000Y-71935000D01*
X87050000Y-79104700D02*
X91169700Y-74985000D01*
X91169700Y-74985000D02*
X91940000Y-74985000D01*
X87050000Y-81325000D02*
X87050000Y-79104700D01*
X91940000Y-71935000D02*
X91940000Y-74985000D01*
%TO.N,RK05_D*%
X132050000Y-69925000D02*
X130040000Y-71935000D01*
X129269700Y-74985000D02*
X130040000Y-74985000D01*
X125150000Y-81325000D02*
X125150000Y-79104700D01*
X130040000Y-71935000D02*
X130040000Y-74985000D01*
X125150000Y-79104700D02*
X129269700Y-74985000D01*
%TO.N,RK20_D*%
X67357200Y-113085000D02*
X68127500Y-113085000D01*
X63237500Y-119425000D02*
X63237500Y-117204700D01*
X68127500Y-110035000D02*
X70137500Y-108025000D01*
X63237500Y-117204700D02*
X67357200Y-113085000D01*
X68127500Y-113085000D02*
X68127500Y-110035000D01*
%TO.N,RK42_D*%
X153852500Y-148135000D02*
X153852500Y-151185000D01*
X155862500Y-146125000D02*
X153852500Y-148135000D01*
X148962500Y-155304700D02*
X153082200Y-151185000D01*
X148962500Y-157525000D02*
X148962500Y-155304700D01*
X153082200Y-151185000D02*
X153852500Y-151185000D01*
%TO.N,RK16_D*%
X158615000Y-94035000D02*
X157854400Y-94035000D01*
X158615000Y-90985000D02*
X158615000Y-94035000D01*
X153725000Y-98164400D02*
X153725000Y-100375000D01*
X157854400Y-94035000D02*
X153725000Y-98164400D01*
X160625000Y-88975000D02*
X158615000Y-90985000D01*
%TO.N,R_COL3*%
X123021800Y-159384300D02*
X123021800Y-149564300D01*
X123021800Y-130514300D02*
X122102500Y-129595000D01*
X123262500Y-159625000D02*
X123021800Y-159384300D01*
X108975000Y-102475000D02*
X108734300Y-102234300D01*
X117340000Y-72445000D02*
X118259300Y-73364300D01*
X108734300Y-102234300D02*
X108734300Y-92414300D01*
X108734300Y-92414300D02*
X107815000Y-91495000D01*
X86593900Y-67648000D02*
X116784000Y-67648000D01*
X113737500Y-121525000D02*
X113496800Y-121284300D01*
X78838200Y-59892300D02*
X86593900Y-67648000D01*
X118259300Y-73364300D02*
X118259300Y-83184300D01*
X123021800Y-149564300D02*
X122102500Y-148645000D01*
X113496800Y-111464300D02*
X112577500Y-110545000D01*
X123021800Y-140334300D02*
X123021800Y-130514300D01*
X118259300Y-83184300D02*
X118500000Y-83425000D01*
X123262500Y-140575000D02*
X123021800Y-140334300D01*
X113496800Y-121284300D02*
X113496800Y-111464300D01*
%TO.N,RK40_D*%
X117762500Y-146125000D02*
X117762500Y-149175000D01*
X115752500Y-151185000D02*
X114983100Y-151185000D01*
X117762500Y-149175000D02*
X115752500Y-151185000D01*
X110862500Y-155305600D02*
X110862500Y-157525000D01*
X114983100Y-151185000D02*
X110862500Y-155305600D01*
%TO.N,RK23_D*%
X120387500Y-117214400D02*
X120387500Y-119425000D01*
X125277500Y-113085000D02*
X124516900Y-113085000D01*
X125277500Y-110035000D02*
X125277500Y-113085000D01*
X124516900Y-113085000D02*
X120387500Y-117214400D01*
X127287500Y-108025000D02*
X125277500Y-110035000D01*
%TO.N,R_COL7*%
X199462500Y-159625000D02*
X199221800Y-159384300D01*
X86310000Y-64000000D02*
X149500000Y-64000000D01*
X196840600Y-73364300D02*
X196840600Y-83184300D01*
X196840600Y-83184300D02*
X197081300Y-83425000D01*
X195921300Y-72445000D02*
X196840600Y-73364300D01*
X199462500Y-139158400D02*
X198898600Y-138594500D01*
X194700000Y-121525000D02*
X194459300Y-121284300D01*
X192078100Y-100412400D02*
X192078100Y-102234300D01*
X194459300Y-121284300D02*
X194459300Y-111464300D01*
X199221800Y-149564300D02*
X198302500Y-148645000D01*
X194459300Y-111464300D02*
X193540000Y-110545000D01*
X199462500Y-140575000D02*
X199462500Y-139158400D01*
X192078100Y-102234300D02*
X192318800Y-102475000D01*
X171500000Y-64000000D02*
X196533700Y-64000000D01*
X199221800Y-159384300D02*
X199221800Y-149564300D01*
%TO.N,RK17_D*%
X184048200Y-94035000D02*
X179918800Y-98164400D01*
X186818800Y-88975000D02*
X184808800Y-90985000D01*
X179918800Y-98164400D02*
X179918800Y-100375000D01*
X184808800Y-94035000D02*
X184048200Y-94035000D01*
X184808800Y-90985000D02*
X184808800Y-94035000D01*
%TO.N,RK35_D*%
X191952500Y-129085000D02*
X191952500Y-132135000D01*
X187062500Y-136264400D02*
X187062500Y-138475000D01*
X191191900Y-132135000D02*
X187062500Y-136264400D01*
X191952500Y-132135000D02*
X191191900Y-132135000D01*
X193962500Y-127075000D02*
X191952500Y-129085000D01*
%TO.N,RK32_D*%
X134032200Y-132135000D02*
X134802500Y-132135000D01*
X134802500Y-129085000D02*
X134802500Y-132135000D01*
X129912500Y-136254700D02*
X134032200Y-132135000D01*
X129912500Y-138475000D02*
X129912500Y-136254700D01*
X136812500Y-127075000D02*
X134802500Y-129085000D01*
%TO.N,RK25_D*%
X162586900Y-113085000D02*
X163377500Y-113085000D01*
X158487500Y-117184400D02*
X162586900Y-113085000D01*
X163377500Y-110035000D02*
X165387500Y-108025000D01*
X158487500Y-119425000D02*
X158487500Y-117184400D01*
X163377500Y-113085000D02*
X163377500Y-110035000D01*
%TO.N,RK21_D*%
X89187500Y-111075000D02*
X87177500Y-113085000D01*
X82287500Y-117204700D02*
X86407200Y-113085000D01*
X89187500Y-108025000D02*
X89187500Y-111075000D01*
X82287500Y-119425000D02*
X82287500Y-117204700D01*
X86407200Y-113085000D02*
X87177500Y-113085000D01*
%TO.N,RK29_D*%
X77652500Y-132135000D02*
X76856900Y-132135000D01*
X77652500Y-132135000D02*
X77652500Y-129085000D01*
X72762500Y-136229400D02*
X72762500Y-138475000D01*
X77652500Y-129085000D02*
X79662500Y-127075000D01*
X76856900Y-132135000D02*
X72762500Y-136229400D01*
%TO.N,RK02_D*%
X68000000Y-81325000D02*
X68000000Y-79084400D01*
X72890000Y-74985000D02*
X72890000Y-71935000D01*
X68000000Y-79084400D02*
X72099400Y-74985000D01*
X72890000Y-71935000D02*
X74900000Y-69925000D01*
X72099400Y-74985000D02*
X72890000Y-74985000D01*
%TO.N,RK01_D*%
X48950000Y-79043700D02*
X48950000Y-81325000D01*
X53840000Y-71935000D02*
X55850000Y-69925000D01*
X53840000Y-74985000D02*
X53840000Y-71935000D01*
X53008700Y-74985000D02*
X48950000Y-79043700D01*
X53840000Y-74985000D02*
X53008700Y-74985000D01*
%TO.N,RK12_D*%
X82415000Y-90985000D02*
X82415000Y-94035000D01*
X77525000Y-98154700D02*
X81644700Y-94035000D01*
X77525000Y-100375000D02*
X77525000Y-98154700D01*
X84425000Y-88975000D02*
X82415000Y-90985000D01*
X81644700Y-94035000D02*
X82415000Y-94035000D01*
%TO.N,RK34_D*%
X172132200Y-132135000D02*
X172902500Y-132135000D01*
X168012500Y-136254700D02*
X172132200Y-132135000D01*
X172902500Y-132135000D02*
X172902500Y-129085000D01*
X168012500Y-138475000D02*
X168012500Y-136254700D01*
X172902500Y-129085000D02*
X174912500Y-127075000D01*
%TO.N,RK41_D*%
X134041900Y-151185000D02*
X129912500Y-155314400D01*
X134802500Y-151185000D02*
X134802500Y-148135000D01*
X129912500Y-155314400D02*
X129912500Y-157525000D01*
X134802500Y-151185000D02*
X134041900Y-151185000D01*
X134802500Y-148135000D02*
X136812500Y-146125000D01*
%TO.N,RK08_D*%
X189571300Y-71935000D02*
X189571300Y-74985000D01*
X184681300Y-79114400D02*
X184681300Y-81325000D01*
X188810700Y-74985000D02*
X184681300Y-79114400D01*
X191581300Y-69925000D02*
X189571300Y-71935000D01*
X189571300Y-74985000D02*
X188810700Y-74985000D01*
%TO.N,R_ROW3*%
X65336000Y-125951500D02*
X82732500Y-125951500D01*
X102312500Y-127075000D02*
X101198100Y-125960600D01*
X82421400Y-127916100D02*
X83262500Y-127075000D01*
X197562500Y-127075000D02*
X196440500Y-125953000D01*
X82421400Y-130318400D02*
X82421400Y-127916100D01*
X83276600Y-131173600D02*
X82421400Y-130318400D01*
X124584200Y-123853300D02*
X137190800Y-123853300D01*
X89119700Y-131173600D02*
X83276600Y-131173600D01*
X120222400Y-125934900D02*
X121362500Y-127075000D01*
X178512500Y-125953000D02*
X178512500Y-127075000D01*
X198682400Y-125955100D02*
X197562500Y-127075000D01*
X94332700Y-125960600D02*
X89119700Y-131173600D01*
X121362500Y-127075000D02*
X124584200Y-123853300D01*
X82732500Y-126545000D02*
X83262500Y-127075000D01*
X102312500Y-127075000D02*
X103452600Y-125934900D01*
X64212500Y-127075000D02*
X65336000Y-125951500D01*
X196440500Y-125953000D02*
X178512500Y-125953000D01*
X83073500Y-125610500D02*
X82732500Y-125951500D01*
X160584500Y-125953000D02*
X159462500Y-127075000D01*
X101198100Y-125960600D02*
X94332700Y-125960600D01*
X140412500Y-127075000D02*
X141539800Y-125947700D01*
X215492600Y-125955100D02*
X198682400Y-125955100D01*
X137190800Y-123853300D02*
X140412500Y-127075000D01*
X216612500Y-127075000D02*
X215492600Y-125955100D01*
X82732500Y-125951500D02*
X82732500Y-126545000D01*
X141539800Y-125947700D02*
X158335200Y-125947700D01*
X158335200Y-125947700D02*
X159462500Y-127075000D01*
X103452600Y-125934900D02*
X120222400Y-125934900D01*
X178512500Y-125953000D02*
X160584500Y-125953000D01*
%TO.N,R_ROW0*%
X195181300Y-68808600D02*
X195181300Y-69925000D01*
X215496100Y-68808600D02*
X195181300Y-68808600D01*
X170968900Y-68175100D02*
X173116500Y-68175100D01*
X154700000Y-69925000D02*
X154227800Y-69452800D01*
X154227800Y-68772500D02*
X154472300Y-68528000D01*
X59450000Y-69925000D02*
X60565100Y-68809900D01*
X173116500Y-68175100D02*
X173750000Y-68808600D01*
X98721800Y-68753200D02*
X97550000Y-69925000D01*
X116600000Y-69925000D02*
X116600000Y-68753200D01*
X195181300Y-68808600D02*
X173750000Y-68808600D01*
X154227800Y-69452800D02*
X154227800Y-68772500D01*
X79790600Y-69925000D02*
X78500000Y-69925000D01*
X134478200Y-68753200D02*
X116600000Y-68753200D01*
X135650000Y-69925000D02*
X134478200Y-68753200D01*
X96371100Y-68746100D02*
X97550000Y-69925000D01*
X116600000Y-68753200D02*
X98721800Y-68753200D01*
X77384900Y-68809900D02*
X78500000Y-69925000D01*
X136802500Y-68772500D02*
X154227800Y-68772500D01*
X60565100Y-68809900D02*
X77384900Y-68809900D01*
X80969500Y-68746100D02*
X79790600Y-69925000D01*
X135650000Y-69925000D02*
X136802500Y-68772500D01*
X173750000Y-68808600D02*
X173750000Y-69925000D01*
X216612500Y-69925000D02*
X215496100Y-68808600D01*
X80969500Y-68746100D02*
X96371100Y-68746100D01*
%TO.N,R_ROW1*%
X126125000Y-88975000D02*
X124995700Y-87845700D01*
X216612500Y-88975000D02*
X215447800Y-87810300D01*
X215447800Y-87810300D02*
X191583500Y-87810300D01*
X51065100Y-87834900D02*
X49925000Y-88975000D01*
X190418800Y-88975000D02*
X189268300Y-87824500D01*
X124995700Y-87845700D02*
X108204300Y-87845700D01*
X108204300Y-87845700D02*
X107075000Y-88975000D01*
X88025000Y-87834900D02*
X105934900Y-87834900D01*
X88025000Y-87834900D02*
X88025000Y-88975000D01*
X105934900Y-87834900D02*
X107075000Y-88975000D01*
X145175000Y-87845700D02*
X134971500Y-87845700D01*
X86796500Y-88975000D02*
X88025000Y-88975000D01*
X68975000Y-88975000D02*
X68975000Y-87834900D01*
X88025000Y-87834900D02*
X68975000Y-87834900D01*
X134971500Y-87845700D02*
X129717400Y-93099800D01*
X189268300Y-87824500D02*
X165375500Y-87824500D01*
X163095700Y-87845700D02*
X145175000Y-87845700D01*
X164225000Y-88975000D02*
X163095700Y-87845700D01*
X125239200Y-92116900D02*
X125239200Y-89860800D01*
X165375500Y-87824500D02*
X164225000Y-88975000D01*
X191583500Y-87810300D02*
X190418800Y-88975000D01*
X125239200Y-89860800D02*
X126125000Y-88975000D01*
X129717400Y-93099800D02*
X126222100Y-93099800D01*
X145175000Y-87845700D02*
X145175000Y-88975000D01*
X68975000Y-87834900D02*
X51065100Y-87834900D01*
X126222100Y-93099800D02*
X125239200Y-92116900D01*
%TO.N,R_ROW2*%
X92787500Y-108025000D02*
X100633100Y-108025000D01*
X170090200Y-106922300D02*
X191697300Y-106922300D01*
X91598600Y-106836100D02*
X92787500Y-108025000D01*
X193925100Y-106899900D02*
X192800000Y-108025000D01*
X55811200Y-106901300D02*
X72613800Y-106901300D01*
X132016500Y-106896000D02*
X148808500Y-106896000D01*
X215487400Y-106899900D02*
X193925100Y-106899900D01*
X149937500Y-108025000D02*
X151060600Y-106901900D01*
X130887500Y-108025000D02*
X132016500Y-106896000D01*
X101978900Y-109370800D02*
X110491700Y-109370800D01*
X123164600Y-100367800D02*
X115507400Y-108025000D01*
X148808500Y-106896000D02*
X149937500Y-108025000D01*
X76777400Y-108025000D02*
X73737500Y-108025000D01*
X167864400Y-106901900D02*
X168987500Y-108025000D01*
X77792100Y-107010300D02*
X77966300Y-106836100D01*
X132016500Y-106896000D02*
X132016500Y-103662500D01*
X72613800Y-106901300D02*
X73737500Y-108025000D01*
X115507400Y-108025000D02*
X111837500Y-108025000D01*
X110491700Y-109370800D02*
X111837500Y-108025000D01*
X132016500Y-103662500D02*
X128721800Y-100367800D01*
X100633100Y-108025000D02*
X101978900Y-109370800D01*
X168987500Y-108025000D02*
X170090200Y-106922300D01*
X216612500Y-108025000D02*
X215487400Y-106899900D01*
X128721800Y-100367800D02*
X123164600Y-100367800D01*
X151060600Y-106901900D02*
X167864400Y-106901900D01*
X77792100Y-107010300D02*
X76777400Y-108025000D01*
X191697300Y-106922300D02*
X192800000Y-108025000D01*
X54687500Y-108025000D02*
X55811200Y-106901300D01*
X77966300Y-106836100D02*
X91598600Y-106836100D01*
%TO.N,R_ROW4*%
X65319400Y-145018100D02*
X79349500Y-145018100D01*
X121362500Y-146125000D02*
X121362500Y-145022300D01*
X141538100Y-144999400D02*
X140412500Y-146125000D01*
X216612500Y-146125000D02*
X215505600Y-145018100D01*
X178512500Y-145018100D02*
X178512500Y-146125000D01*
X77150300Y-136209600D02*
X74617200Y-136209600D01*
X140412500Y-146125000D02*
X139309800Y-145022300D01*
X158336900Y-144999400D02*
X141538100Y-144999400D01*
X88337000Y-138485000D02*
X80568200Y-138485000D01*
X103415200Y-145022300D02*
X94874300Y-145022300D01*
X80568200Y-138485000D02*
X79997000Y-139056200D01*
X74617200Y-136209600D02*
X74614000Y-136206400D01*
X159462500Y-146125000D02*
X158336900Y-144999400D01*
X79349500Y-145018100D02*
X82155600Y-145018100D01*
X79997000Y-139056200D02*
X77150300Y-136209600D01*
X197562500Y-146125000D02*
X197562500Y-145018100D01*
X178512500Y-145018100D02*
X160569400Y-145018100D01*
X64212500Y-146125000D02*
X65319400Y-145018100D01*
X160569400Y-145018100D02*
X159462500Y-146125000D01*
X103415200Y-145022300D02*
X102312500Y-146125000D01*
X82155600Y-145018100D02*
X83262500Y-146125000D01*
X121362500Y-145022300D02*
X103415200Y-145022300D01*
X215505600Y-145018100D02*
X197562500Y-145018100D01*
X94874300Y-145022300D02*
X88337000Y-138485000D01*
X79997000Y-139056200D02*
X79349500Y-139703700D01*
X197562500Y-145018100D02*
X178512500Y-145018100D01*
X139309800Y-145022300D02*
X121362500Y-145022300D01*
X79349500Y-139703700D02*
X79349500Y-145018100D01*
%TO.N,RK30_D*%
X91812500Y-138475000D02*
X91812500Y-136254700D01*
X98712500Y-127075000D02*
X98712500Y-130125000D01*
X91812500Y-136254700D02*
X95932200Y-132135000D01*
X98712500Y-130125000D02*
X96702500Y-132135000D01*
X95932200Y-132135000D02*
X96702500Y-132135000D01*
%TO.N,RK44_D*%
X191952500Y-148135000D02*
X193962500Y-146125000D01*
X191952500Y-151185000D02*
X191108800Y-151185000D01*
X191108800Y-151185000D02*
X187062500Y-155231300D01*
X191952500Y-151185000D02*
X191952500Y-148135000D01*
X187062500Y-155231300D02*
X187062500Y-157525000D01*
%TO.N,RK22_D*%
X107668600Y-108025000D02*
X106949500Y-108744100D01*
X108237500Y-108025000D02*
X107668600Y-108025000D01*
X101337500Y-117204700D02*
X105457200Y-113085000D01*
X101337500Y-119425000D02*
X101337500Y-117204700D01*
X105457200Y-113085000D02*
X106227500Y-113085000D01*
%TO.N,RK31_D*%
X110862500Y-138475000D02*
X110862500Y-136254700D01*
X114982200Y-132135000D02*
X115752500Y-132135000D01*
X110862500Y-136254700D02*
X114982200Y-132135000D01*
X117762500Y-127075000D02*
X115752500Y-129085000D01*
X115752500Y-129085000D02*
X115752500Y-132135000D01*
%TO.N,RK06_D*%
X151100000Y-70000000D02*
X150099200Y-71000800D01*
X144200000Y-79105600D02*
X144200000Y-81325000D01*
X151100000Y-69925000D02*
X151100000Y-70000000D01*
X148320600Y-74985000D02*
X144200000Y-79105600D01*
X149090000Y-74985000D02*
X148320600Y-74985000D01*
%TO.N,RK19_D*%
X51087500Y-108025000D02*
X49077500Y-110035000D01*
X44187500Y-117154900D02*
X48257400Y-113085000D01*
X48257400Y-113085000D02*
X49077500Y-113085000D01*
X49077500Y-110035000D02*
X49077500Y-113085000D01*
X44187500Y-119425000D02*
X44187500Y-117154900D01*
%TO.N,RK11_D*%
X65375000Y-88975000D02*
X65375000Y-92025000D01*
X65375000Y-92025000D02*
X63365000Y-94035000D01*
X62574400Y-94035000D02*
X63365000Y-94035000D01*
X58475000Y-98134400D02*
X62574400Y-94035000D01*
X58475000Y-100375000D02*
X58475000Y-98134400D01*
%TO.N,RK07_D*%
X170150000Y-69925000D02*
X168140000Y-71935000D01*
X168140000Y-71935000D02*
X168140000Y-74985000D01*
X163250000Y-81325000D02*
X163250000Y-79104700D01*
X163250000Y-79104700D02*
X167369700Y-74985000D01*
X167369700Y-74985000D02*
X168140000Y-74985000D01*
%TO.N,RK04_D*%
X110229400Y-74985000D02*
X106100000Y-79114400D01*
X113000000Y-69925000D02*
X110990000Y-71935000D01*
X106100000Y-79114400D02*
X106100000Y-81325000D01*
X110990000Y-74985000D02*
X110229400Y-74985000D01*
X110990000Y-71935000D02*
X110990000Y-74985000D01*
%TO.N,RK24_D*%
X139437500Y-117205600D02*
X139437500Y-119425000D01*
X144327500Y-110035000D02*
X146337500Y-108025000D01*
X144327500Y-113085000D02*
X143558100Y-113085000D01*
X143558100Y-113085000D02*
X139437500Y-117205600D01*
X144327500Y-113085000D02*
X144327500Y-110035000D01*
%TO.N,RK26_D*%
X182300000Y-117156000D02*
X186371000Y-113085000D01*
X187190000Y-110035000D02*
X189200000Y-108025000D01*
X187190000Y-113085000D02*
X187190000Y-110035000D01*
X182300000Y-119425000D02*
X182300000Y-117156000D01*
X186371000Y-113085000D02*
X187190000Y-113085000D01*
%TO.N,RK45_D*%
X211002500Y-151185000D02*
X211002500Y-148135000D01*
X206112500Y-155304700D02*
X210232200Y-151185000D01*
X206112500Y-157525000D02*
X206112500Y-155304700D01*
X211002500Y-148135000D02*
X213012500Y-146125000D01*
X210232200Y-151185000D02*
X211002500Y-151185000D01*
%TO.N,RK18_D*%
X210159200Y-94035000D02*
X206112500Y-98081700D01*
X211002500Y-94035000D02*
X210159200Y-94035000D01*
X206112500Y-98081700D02*
X206112500Y-100375000D01*
X211002500Y-94035000D02*
X211002500Y-90985000D01*
X211002500Y-90985000D02*
X213012500Y-88975000D01*
%TO.N,RK37_D*%
X53712500Y-155310400D02*
X53712500Y-157525000D01*
X58602500Y-151185000D02*
X57837900Y-151185000D01*
X57837900Y-151185000D02*
X53712500Y-155310400D01*
X60612500Y-146125000D02*
X60612500Y-149175000D01*
X60612500Y-149175000D02*
X58602500Y-151185000D01*
%TO.N,RK33_D*%
X148962500Y-136234400D02*
X153061900Y-132135000D01*
X148962500Y-138475000D02*
X148962500Y-136234400D01*
X153061900Y-132135000D02*
X153852500Y-132135000D01*
X153852500Y-129085000D02*
X155862500Y-127075000D01*
X153852500Y-132135000D02*
X153852500Y-129085000D01*
%TO.N,RK13_D*%
X96575000Y-100375000D02*
X96575000Y-98154700D01*
X96575000Y-98154700D02*
X100694700Y-94035000D01*
X101465000Y-94035000D02*
X101465000Y-90985000D01*
X100694700Y-94035000D02*
X101465000Y-94035000D01*
X101465000Y-90985000D02*
X103475000Y-88975000D01*
%TD*%
M02*
