M48
; DRILL file KiCad 10.0.3 date 2026-08-22T16:55:42
; FORMAT={-:-/ absolute / metric / decimal}
; #@! TF.CreationDate,2026-08-22T16:55:42+09:00
; #@! TF.GenerationSoftware,Kicad,Pcbnew,10.0.3
; #@! TF.FileFunction,Plated,1,2,PTH
FMAT,2
METRIC
; #@! TA.AperFunction,Plated,PTH,ViaDrill
T1C0.300
; #@! TA.AperFunction,Plated,PTH,ComponentDrill
T2C0.950
; #@! TA.AperFunction,Plated,PTH,ComponentDrill
T3C1.500
%
G90
G05
T1
X59.851Y-129.999
X60.058Y-74.478
X64.332Y-89.367
X66.66Y-145.307
X71.505Y-110.425
X71.673Y-75.429
X78.717Y-130.562
X85.319Y-85.483
X87.829Y-148.383
X91.484Y-74.513
X93.156Y-107.032
X98.598Y-126.308
X103.807Y-88.29
X111.531Y-107.032
X117.513Y-144.892
X121.326Y-89.367
X123.496Y-51.093
X125.579Y-69.593
X126.488Y-145.307
X128.424Y-110.425
X128.564Y-70.81
X128.717Y-79.142
X129.57Y-75.093
X135.948Y-127.642
X136.479Y-126.756
X137.706Y-108.879
X139.492Y-92.311
X141.095Y-86.073
X145.198Y-108.879
X147.419Y-45.212
X147.884Y-146.65
X148.594Y-76.447
X149.338Y-71.702
X150.626Y-78.187
X151.515Y-127.648
T2
X118.742Y-41.38
X118.742Y-56.62
X121.282Y-41.38
X121.282Y-56.62
X123.822Y-41.38
X123.822Y-56.62
X126.362Y-41.38
X126.362Y-56.62
X128.903Y-41.38
X128.903Y-56.62
X131.442Y-41.38
X131.442Y-56.62
X133.982Y-41.38
X133.982Y-56.62
X136.523Y-41.38
X136.523Y-56.62
X139.062Y-41.38
X139.062Y-56.62
X141.602Y-41.38
X141.602Y-56.62
X144.142Y-41.38
X144.142Y-56.62
X146.683Y-41.38
X146.683Y-56.62
T3
X40.485Y-82.605
X40.485Y-139.755
X42.866Y-158.805
X45.247Y-101.655
X46.835Y-80.065
X46.835Y-137.215
X47.629Y-120.705
X49.216Y-156.265
X51.597Y-99.115
X53.979Y-118.165
X58.265Y-74.985
X60.646Y-132.135
X64.615Y-72.445
X65.409Y-151.185
X66.996Y-129.595
X67.79Y-94.035
X71.759Y-148.645
X72.552Y-113.085
X74.14Y-91.495
X77.315Y-74.985
X78.903Y-110.545
X82.078Y-132.135
X83.665Y-72.445
X86.84Y-94.035
X88.427Y-129.595
X89.221Y-151.185
X91.602Y-113.085
X93.19Y-91.495
X95.571Y-148.645
X96.365Y-74.985
X97.953Y-110.545
X101.127Y-132.135
X102.715Y-72.445
X105.89Y-94.035
X107.477Y-129.595
X110.652Y-113.085
X112.24Y-91.495
X115.415Y-74.985
X117.002Y-110.545
X117.796Y-151.185
X120.177Y-132.135
X121.765Y-72.445
X124.146Y-148.645
X124.94Y-94.035
X126.527Y-129.595
X129.702Y-113.085
X131.29Y-91.495
X134.465Y-74.985
X136.052Y-110.545
X139.227Y-132.135
X140.815Y-72.445
X143.99Y-94.035
X145.577Y-129.595
X148.752Y-113.085
X150.34Y-91.495
X151.134Y-151.185
X153.515Y-74.985
X155.102Y-110.545
X157.484Y-148.645
X158.278Y-132.135
X159.865Y-72.445
X164.627Y-129.595
M30
