%TF.GenerationSoftware,KiCad,Pcbnew,10.0.3*%
%TF.CreationDate,2026-08-22T16:55:42+09:00*%
%TF.ProjectId,kc2_left-x3-v2,6b63325f-6c65-4667-942d-78332d76322e,draft-v2*%
%TF.SameCoordinates,Original*%
%TF.FileFunction,Copper,L1,Top*%
%TF.FilePolarity,Positive*%
%FSLAX46Y46*%
G04 Gerber Fmt 4.6, Leading zero omitted, Abs format (unit mm)*
G04 Created by KiCad (PCBNEW 10.0.3) date 2026-08-22 16:55:42*
%MOMM*%
%LPD*%
G01*
G04 APERTURE LIST*
%TA.AperFunction,ComponentPad*%
%ADD10C,2.500000*%
%TD*%
%TA.AperFunction,SMDPad,CuDef*%
%ADD11R,1.750000X1.000000*%
%TD*%
%TA.AperFunction,ComponentPad*%
%ADD12C,1.800000*%
%TD*%
%TA.AperFunction,ViaPad*%
%ADD13C,0.600000*%
%TD*%
%TA.AperFunction,Conductor*%
%ADD14C,0.250000*%
%TD*%
G04 APERTURE END LIST*
D10*
%TO.P,SW8,1*%
%TO.N,L_COL0*%
X45247500Y-101655000D03*
%TO.P,SW8,2*%
%TO.N,LK08_D*%
X51597500Y-99115000D03*
%TD*%
%TO.P,SW31,1*%
%TO.N,L_COL4*%
X157483800Y-148645000D03*
%TO.P,SW31,2*%
%TO.N,LK31_D*%
X151133800Y-151185000D03*
%TD*%
%TO.P,SW17,1*%
%TO.N,L_COL3*%
X117002500Y-110545000D03*
%TO.P,SW17,2*%
%TO.N,LK17_D*%
X110652500Y-113085000D03*
%TD*%
%TO.P,SW5,1*%
%TO.N,L_COL4*%
X121765000Y-72445000D03*
%TO.P,SW5,2*%
%TO.N,LK05_D*%
X115415000Y-74985000D03*
%TD*%
%TO.P,SW18,1*%
%TO.N,L_COL4*%
X136052500Y-110545000D03*
%TO.P,SW18,2*%
%TO.N,LK18_D*%
X129702500Y-113085000D03*
%TD*%
%TO.P,SW10,1*%
%TO.N,L_COL2*%
X93190000Y-91495000D03*
%TO.P,SW10,2*%
%TO.N,LK10_D*%
X86840000Y-94035000D03*
%TD*%
%TO.P,SW16,1*%
%TO.N,L_COL2*%
X97952500Y-110545000D03*
%TO.P,SW16,2*%
%TO.N,LK16_D*%
X91602500Y-113085000D03*
%TD*%
%TO.P,SW26,1*%
%TO.N,L_COL6*%
X164627500Y-129595000D03*
%TO.P,SW26,2*%
%TO.N,LK26_D*%
X158277500Y-132135000D03*
%TD*%
%TO.P,SW29,1*%
%TO.N,L_COL2*%
X95571300Y-148645000D03*
%TO.P,SW29,2*%
%TO.N,LK29_D*%
X89221300Y-151185000D03*
%TD*%
%TO.P,SW1,1*%
%TO.N,L_COL0*%
X40485000Y-82605000D03*
%TO.P,SW1,2*%
%TO.N,LK01_D*%
X46835000Y-80065000D03*
%TD*%
%TO.P,SW11,1*%
%TO.N,L_COL3*%
X112240000Y-91495000D03*
%TO.P,SW11,2*%
%TO.N,LK11_D*%
X105890000Y-94035000D03*
%TD*%
%TO.P,SW6,1*%
%TO.N,L_COL5*%
X140815000Y-72445000D03*
%TO.P,SW6,2*%
%TO.N,LK06_D*%
X134465000Y-74985000D03*
%TD*%
%TO.P,SW7,1*%
%TO.N,L_COL6*%
X159865000Y-72445000D03*
%TO.P,SW7,2*%
%TO.N,LK07_D*%
X153515000Y-74985000D03*
%TD*%
%TO.P,SW4,1*%
%TO.N,L_COL3*%
X102715000Y-72445000D03*
%TO.P,SW4,2*%
%TO.N,LK04_D*%
X96365000Y-74985000D03*
%TD*%
%TO.P,SW13,1*%
%TO.N,L_COL5*%
X150340000Y-91495000D03*
%TO.P,SW13,2*%
%TO.N,LK13_D*%
X143990000Y-94035000D03*
%TD*%
%TO.P,SW28,1*%
%TO.N,L_COL1*%
X71758800Y-148645000D03*
%TO.P,SW28,2*%
%TO.N,LK28_D*%
X65408800Y-151185000D03*
%TD*%
%TO.P,SW19,1*%
%TO.N,L_COL5*%
X155102500Y-110545000D03*
%TO.P,SW19,2*%
%TO.N,LK19_D*%
X148752500Y-113085000D03*
%TD*%
D11*
%TO.P,SW_RST1,1*%
%TO.N,RST*%
X140887500Y-62150000D03*
%TO.P,SW_RST1,2*%
%TO.N,GND*%
X148637500Y-62150000D03*
%TD*%
D12*
%TO.P,U1,D0*%
%TO.N,N/C*%
X121282500Y-56620000D03*
%TO.P,U1,D1*%
X118742500Y-56620000D03*
%TO.P,U1,D2*%
X128902500Y-56620000D03*
%TO.P,U1,D3*%
%TO.N,L_COL0*%
X131442500Y-56620000D03*
%TO.P,U1,D4*%
%TO.N,L_COL2*%
X133982500Y-56620000D03*
%TO.P,U1,D5*%
%TO.N,L_COL1*%
X136522500Y-56620000D03*
%TO.P,U1,D6*%
%TO.N,L_COL3*%
X139062500Y-56620000D03*
%TO.P,U1,D7*%
%TO.N,L_COL4*%
X141602500Y-56620000D03*
%TO.P,U1,D8*%
%TO.N,L_COL5*%
X144142500Y-56620000D03*
%TO.P,U1,D9*%
%TO.N,L_COL6*%
X146682500Y-56620000D03*
%TO.P,U1,D10*%
%TO.N,L_ROW0*%
X146682500Y-41380000D03*
%TO.P,U1,D14*%
%TO.N,L_ROW2*%
X141602500Y-41380000D03*
%TO.P,U1,D15*%
%TO.N,L_ROW3*%
X139062500Y-41380000D03*
%TO.P,U1,D16*%
%TO.N,L_ROW1*%
X144142500Y-41380000D03*
%TO.P,U1,D18*%
%TO.N,L_ROW4*%
X136522500Y-41380000D03*
%TO.P,U1,D19*%
%TO.N,N/C*%
X133982500Y-41380000D03*
%TO.P,U1,D20*%
X131442500Y-41380000D03*
%TO.P,U1,D21*%
X128902500Y-41380000D03*
%TO.P,U1,GND_A*%
X123822500Y-56620000D03*
%TO.P,U1,GND_B*%
X126362500Y-56620000D03*
%TO.P,U1,GND_C*%
%TO.N,GND*%
X121282500Y-41380000D03*
%TO.P,U1,RAW*%
%TO.N,N/C*%
X118742500Y-41380000D03*
%TO.P,U1,RST*%
%TO.N,RST*%
X123822500Y-41380000D03*
%TO.P,U1,VCC*%
%TO.N,N/C*%
X126362500Y-41380000D03*
%TD*%
D10*
%TO.P,SW30,1*%
%TO.N,L_COL3*%
X124146300Y-148645000D03*
%TO.P,SW30,2*%
%TO.N,LK30_D*%
X117796300Y-151185000D03*
%TD*%
%TO.P,SW20,1*%
%TO.N,L_COL0*%
X40485000Y-139755000D03*
%TO.P,SW20,2*%
%TO.N,LK20_D*%
X46835000Y-137215000D03*
%TD*%
%TO.P,SW14,1*%
%TO.N,L_COL0*%
X47628700Y-120705000D03*
%TO.P,SW14,2*%
%TO.N,LK14_D*%
X53978700Y-118165000D03*
%TD*%
%TO.P,SW12,1*%
%TO.N,L_COL4*%
X131290000Y-91495000D03*
%TO.P,SW12,2*%
%TO.N,LK12_D*%
X124940000Y-94035000D03*
%TD*%
%TO.P,SW15,1*%
%TO.N,L_COL1*%
X78902500Y-110545000D03*
%TO.P,SW15,2*%
%TO.N,LK15_D*%
X72552500Y-113085000D03*
%TD*%
%TO.P,SW27,1*%
%TO.N,L_COL0*%
X42866300Y-158805000D03*
%TO.P,SW27,2*%
%TO.N,LK27_D*%
X49216300Y-156265000D03*
%TD*%
%TO.P,SW21,1*%
%TO.N,L_COL1*%
X66996300Y-129595000D03*
%TO.P,SW21,2*%
%TO.N,LK21_D*%
X60646300Y-132135000D03*
%TD*%
%TO.P,SW23,1*%
%TO.N,L_COL3*%
X107477500Y-129595000D03*
%TO.P,SW23,2*%
%TO.N,LK23_D*%
X101127500Y-132135000D03*
%TD*%
%TO.P,SW9,1*%
%TO.N,L_COL1*%
X74140000Y-91495000D03*
%TO.P,SW9,2*%
%TO.N,LK09_D*%
X67790000Y-94035000D03*
%TD*%
%TO.P,SW24,1*%
%TO.N,L_COL4*%
X126527500Y-129595000D03*
%TO.P,SW24,2*%
%TO.N,LK24_D*%
X120177500Y-132135000D03*
%TD*%
%TO.P,SW3,1*%
%TO.N,L_COL2*%
X83665000Y-72445000D03*
%TO.P,SW3,2*%
%TO.N,LK03_D*%
X77315000Y-74985000D03*
%TD*%
%TO.P,SW25,1*%
%TO.N,L_COL5*%
X145577500Y-129595000D03*
%TO.P,SW25,2*%
%TO.N,LK25_D*%
X139227500Y-132135000D03*
%TD*%
%TO.P,SW2,1*%
%TO.N,L_COL1*%
X64615000Y-72445000D03*
%TO.P,SW2,2*%
%TO.N,LK02_D*%
X58265000Y-74985000D03*
%TD*%
%TO.P,SW22,1*%
%TO.N,L_COL2*%
X88427500Y-129595000D03*
%TO.P,SW22,2*%
%TO.N,LK22_D*%
X82077500Y-132135000D03*
%TD*%
D13*
%TO.N,L_COL0*%
X128563900Y-70810300D03*
%TO.N,L_COL4*%
X136478800Y-126755600D03*
X126487700Y-145306900D03*
%TO.N,L_COL3*%
X103806600Y-88290300D03*
%TO.N,L_COL2*%
X98598200Y-126308400D03*
%TO.N,L_COL6*%
X149338200Y-71701900D03*
%TO.N,L_COL5*%
X141094700Y-86072800D03*
%TO.N,L_COL1*%
X128716700Y-79141900D03*
%TO.N,RST*%
X125579400Y-69592800D03*
%TO.N,GND*%
X123496300Y-51092500D03*
%TO.N,L_ROW0*%
X71672800Y-75429500D03*
X60057600Y-74478200D03*
X129569800Y-75093100D03*
X91484100Y-74512500D03*
%TO.N,L_ROW2*%
X145197700Y-108878600D03*
X111530700Y-107032300D03*
X93155800Y-107032300D03*
X71505200Y-110424800D03*
X128424400Y-110424800D03*
X137706100Y-108878600D03*
%TO.N,L_ROW3*%
X135948100Y-127641700D03*
X78716800Y-130561900D03*
X59851300Y-129999400D03*
X151514600Y-127648400D03*
%TO.N,L_ROW1*%
X121325800Y-89367100D03*
X139492200Y-92311300D03*
X64332500Y-89367100D03*
X85318900Y-85483100D03*
%TO.N,L_ROW4*%
X148593900Y-76447500D03*
X87828600Y-148383000D03*
X66659700Y-145306900D03*
X147419300Y-45212300D03*
X117513500Y-144891900D03*
X150626500Y-78187400D03*
X147884000Y-146650000D03*
%TD*%
%TO.N,L_COL0*%
D14*
X40485000Y-82605000D02*
X43406100Y-85526100D01*
X130237000Y-75321100D02*
X130237000Y-72483400D01*
X117762900Y-80853800D02*
X124704300Y-80853800D01*
X43406100Y-85526100D02*
X82045600Y-85526100D01*
X95407300Y-84842600D02*
X96075200Y-85510500D01*
X96075200Y-85510500D02*
X113106200Y-85510500D01*
X130237000Y-72483400D02*
X128563900Y-70810300D01*
X82729100Y-84842600D02*
X95407300Y-84842600D01*
X82045600Y-85526100D02*
X82729100Y-84842600D01*
X113106200Y-85510500D02*
X117762900Y-80853800D01*
X124704300Y-80853800D02*
X130237000Y-75321100D01*
%TO.N,L_COL4*%
X157483800Y-148645000D02*
X129825800Y-148645000D01*
X126964400Y-67245600D02*
X129540600Y-67245600D01*
X121765000Y-72445000D02*
X126964400Y-67245600D01*
X131655300Y-67060000D02*
X141602500Y-57112800D01*
X141602500Y-57112800D02*
X141602500Y-56620000D01*
X129726200Y-67060000D02*
X129540600Y-67245600D01*
X129726200Y-67060000D02*
X129540600Y-67245600D01*
X129825800Y-148645000D02*
X126487700Y-145306900D01*
X129726200Y-67060000D02*
X131655300Y-67060000D01*
X126527500Y-129595000D02*
X129366900Y-126755600D01*
X129366900Y-126755600D02*
X136478800Y-126755600D01*
%TO.N,L_COL3*%
X107011300Y-91495000D02*
X103806600Y-88290300D01*
X121377000Y-70683800D02*
X104476200Y-70683800D01*
X130634900Y-65047600D02*
X127013200Y-65047600D01*
X112240000Y-91495000D02*
X107011300Y-91495000D01*
X125814400Y-66246400D02*
X125628800Y-66432000D01*
X125628800Y-66432000D02*
X121377000Y-70683800D01*
X127013200Y-65047600D02*
X125814400Y-66246400D01*
X125814400Y-66246400D02*
X125628800Y-66432000D01*
X139062500Y-56620000D02*
X130634900Y-65047600D01*
X104476200Y-70683800D02*
X102715000Y-72445000D01*
%TO.N,L_COL2*%
X91714100Y-126308400D02*
X98598200Y-126308400D01*
X85881000Y-70229000D02*
X83665000Y-72445000D01*
X133982500Y-56620000D02*
X120373500Y-70229000D01*
X88427500Y-129595000D02*
X91714100Y-126308400D01*
X120373500Y-70229000D02*
X85881000Y-70229000D01*
%TO.N,L_COL6*%
X159865000Y-72445000D02*
X150081300Y-72445000D01*
X150081300Y-72445000D02*
X149338200Y-71701900D01*
%TO.N,L_COL5*%
X141094700Y-86072800D02*
X144917800Y-86072800D01*
X144917800Y-86072800D02*
X150340000Y-91495000D01*
%TO.N,L_COL1*%
X74140000Y-91495000D02*
X75715200Y-89919800D01*
X85096300Y-86589900D02*
X121268700Y-86589900D01*
X121268700Y-86589900D02*
X128716700Y-79141900D01*
X81766400Y-89919800D02*
X85096300Y-86589900D01*
X75715200Y-89919800D02*
X81766400Y-89919800D01*
%TO.N,RST*%
X140887500Y-62150000D02*
X140887500Y-62976700D01*
X134271400Y-69592800D02*
X140887500Y-62976700D01*
X125579400Y-69592800D02*
X134271400Y-69592800D01*
%TO.N,GND*%
X142872500Y-57586700D02*
X142872500Y-56144700D01*
X147435800Y-62150000D02*
X142872500Y-57586700D01*
X142872500Y-56144700D02*
X137820300Y-51092500D01*
X137820300Y-51092500D02*
X123496300Y-51092500D01*
X148637500Y-62150000D02*
X147435800Y-62150000D01*
%TO.N,L_ROW0*%
X92594900Y-73401700D02*
X97644300Y-73401700D01*
X98302400Y-74059800D02*
X106704700Y-74059800D01*
X60057600Y-74478200D02*
X60138500Y-74397300D01*
X106704700Y-74059800D02*
X107405000Y-73359500D01*
X70640600Y-74397300D02*
X71672800Y-75429500D01*
X91484100Y-74512500D02*
X92594900Y-73401700D01*
X60057600Y-74478200D02*
X60138500Y-74397300D01*
X82553600Y-74512500D02*
X91484100Y-74512500D01*
X71672800Y-75429500D02*
X73694000Y-73408300D01*
X107405000Y-73359500D02*
X120139500Y-73359500D01*
X121873100Y-75093100D02*
X129569800Y-75093100D01*
X81449400Y-73408300D02*
X82553600Y-74512500D01*
X97644300Y-73401700D02*
X98302400Y-74059800D01*
X60138500Y-74397300D02*
X70640600Y-74397300D01*
X60138500Y-74397300D02*
X60057600Y-74478200D01*
X120139500Y-73359500D02*
X121873100Y-75093100D01*
X73694000Y-73408300D02*
X81449400Y-73408300D01*
%TO.N,L_ROW2*%
X128424400Y-110424800D02*
X125031900Y-107032300D01*
X137706100Y-108878600D02*
X129970600Y-108878600D01*
X129970600Y-108878600D02*
X128424400Y-110424800D01*
X145197700Y-108878600D02*
X137706100Y-108878600D01*
X74897700Y-107032300D02*
X71505200Y-110424800D01*
X111530700Y-107032300D02*
X93155800Y-107032300D01*
X93155800Y-107032300D02*
X74897700Y-107032300D01*
X125031900Y-107032300D02*
X111530700Y-107032300D01*
%TO.N,L_ROW3*%
X78716800Y-130561900D02*
X78054800Y-131223900D01*
X64860700Y-129999400D02*
X59851300Y-129999400D01*
X66085200Y-131223900D02*
X64860700Y-129999400D01*
X137111500Y-127641700D02*
X137111500Y-126468900D01*
X151507900Y-127641700D02*
X151514600Y-127648400D01*
X137111500Y-126468900D02*
X136282800Y-125640200D01*
X137111500Y-127641700D02*
X151507900Y-127641700D01*
X78054800Y-131223900D02*
X66085200Y-131223900D01*
X136282800Y-125640200D02*
X83638500Y-125640200D01*
X137111500Y-127641700D02*
X135948100Y-127641700D01*
X83638500Y-125640200D02*
X78716800Y-130561900D01*
%TO.N,L_ROW1*%
X82908500Y-85792500D02*
X79333900Y-89367100D01*
X82908500Y-85792500D02*
X83095600Y-85605400D01*
X139492200Y-92311300D02*
X136548000Y-89367100D01*
X82908500Y-85792500D02*
X83095600Y-85605400D01*
X85196600Y-85605400D02*
X85318900Y-85483100D01*
X79333900Y-89367100D02*
X64332500Y-89367100D01*
X83095600Y-85605400D02*
X85196600Y-85605400D01*
X136548000Y-89367100D02*
X121325800Y-89367100D01*
%TO.N,L_ROW4*%
X150626500Y-78187400D02*
X148886600Y-76447500D01*
X84752500Y-145306900D02*
X87828600Y-148383000D01*
X147884000Y-146650000D02*
X145866600Y-144632600D01*
X140354800Y-45212300D02*
X136522500Y-41380000D01*
X66659700Y-145306900D02*
X84752500Y-145306900D01*
X117513500Y-144891900D02*
X91319700Y-144891900D01*
X91319700Y-144891900D02*
X87828600Y-148383000D01*
X147419300Y-45212300D02*
X140354800Y-45212300D01*
X117772800Y-144632600D02*
X117513500Y-144891900D01*
X145866600Y-144632600D02*
X117772800Y-144632600D01*
X148886600Y-76447500D02*
X148593900Y-76447500D01*
%TD*%
M02*
