%TF.GenerationSoftware,KiCad,Pcbnew,10.0.3*%
%TF.CreationDate,2026-09-01T20:02:10+09:00*%
%TF.ProjectId,kc2_left-x3-v2,6b63325f-6c65-4667-942d-78332d76322e,draft-v2*%
%TF.SameCoordinates,Original*%
%TF.FileFunction,Drillmap*%
%TF.FilePolarity,Positive*%
%FSLAX45Y45*%
G04 Gerber Fmt 4.5, Leading zero omitted, Abs format (unit mm)*
G04 Created by KiCad (PCBNEW 10.0.3) date 2026-09-01 20:02:10*
%MOMM*%
%LPD*%
G01*
G04 APERTURE LIST*
%ADD10C,0.100000*%
%ADD11C,0.200000*%
%ADD12C,0.160000*%
%ADD13C,0.165000*%
%ADD14C,0.170000*%
%ADD15C,0.220000*%
%ADD16C,0.300000*%
%ADD17C,0.500000*%
G04 APERTURE END LIST*
D10*
X3500000Y-7150000D02*
X3508000Y-7078000D01*
X3500000Y-8505000D02*
X3500000Y-7150000D01*
X3500000Y-8585000D02*
X3500000Y-8505000D01*
X3500000Y-8665000D02*
X3500000Y-8585000D01*
X3500000Y-8745000D02*
X3500000Y-8665000D01*
X3500000Y-8825000D02*
X3500000Y-8745000D01*
X3500000Y-8905000D02*
X3500000Y-8825000D01*
X3500000Y-10410000D02*
X3500000Y-8905000D01*
X3500000Y-10490000D02*
X3500000Y-10410000D01*
X3500000Y-10570000D02*
X3500000Y-10490000D01*
X3500000Y-10650000D02*
X3500000Y-10570000D01*
X3500000Y-10730000D02*
X3500000Y-10650000D01*
X3500000Y-10810000D02*
X3500000Y-10730000D01*
X3500000Y-12315000D02*
X3500000Y-10810000D01*
X3500000Y-12395000D02*
X3500000Y-12315000D01*
X3500000Y-12475000D02*
X3500000Y-12395000D01*
X3500000Y-12555000D02*
X3500000Y-12475000D01*
X3500000Y-12635000D02*
X3500000Y-12555000D01*
X3500000Y-12715000D02*
X3500000Y-12635000D01*
X3500000Y-14220000D02*
X3500000Y-12715000D01*
X3500000Y-14300000D02*
X3500000Y-14220000D01*
X3500000Y-14380000D02*
X3500000Y-14300000D01*
X3500000Y-14460000D02*
X3500000Y-14380000D01*
X3500000Y-14540000D02*
X3500000Y-14460000D01*
X3500000Y-14620000D02*
X3500000Y-14540000D01*
X3500000Y-15975000D02*
X3500000Y-14620000D01*
X3508000Y-7078000D02*
X3532000Y-7022000D01*
X3508000Y-16047000D02*
X3500000Y-15975000D01*
X3532000Y-7022000D02*
X3572000Y-6982000D01*
X3532000Y-16103000D02*
X3508000Y-16047000D01*
X3572000Y-6982000D02*
X3628000Y-6958000D01*
X3572000Y-16143000D02*
X3532000Y-16103000D01*
X3628000Y-6958000D02*
X3700000Y-6950000D01*
X3628000Y-16167000D02*
X3572000Y-16143000D01*
X3700000Y-6950000D02*
X10721250Y-6950000D01*
X3700000Y-16175000D02*
X3628000Y-16167000D01*
X10721250Y-6950000D02*
X10793250Y-6942000D01*
X10793250Y-6942000D02*
X10849250Y-6918000D01*
X10849250Y-6918000D02*
X10889250Y-6878000D01*
X10889250Y-6878000D02*
X10913250Y-6822000D01*
X10913250Y-6822000D02*
X10921250Y-6750000D01*
X10921250Y-4125000D02*
X10929250Y-4053000D01*
X10921250Y-6750000D02*
X10921250Y-4125000D01*
X10929250Y-4053000D02*
X10953250Y-3997000D01*
X10953250Y-3997000D02*
X10993250Y-3957000D01*
X10993250Y-3957000D02*
X11049250Y-3933000D01*
X11049250Y-3933000D02*
X11121250Y-3925000D01*
X11121250Y-3925000D02*
X14971250Y-3925000D01*
X14971250Y-3925000D02*
X15043250Y-3933000D01*
X15043250Y-3933000D02*
X15099250Y-3957000D01*
X15099250Y-3957000D02*
X15139250Y-3997000D01*
X15139250Y-3997000D02*
X15163250Y-4053000D01*
X15163250Y-4053000D02*
X15171250Y-4125000D01*
X15171250Y-4125000D02*
X15171250Y-6750000D01*
X15171250Y-6750000D02*
X15179250Y-6822000D01*
X15179250Y-6822000D02*
X15203250Y-6878000D01*
X15203250Y-6878000D02*
X15243250Y-6918000D01*
X15243250Y-6918000D02*
X15299250Y-6942000D01*
X15299250Y-6942000D02*
X15371250Y-6950000D01*
X15371250Y-6950000D02*
X16335000Y-6950000D01*
X15582500Y-8850000D02*
X15582500Y-10465000D01*
X15582500Y-10465000D02*
X15590500Y-10537000D01*
X15590500Y-8778000D02*
X15582500Y-8850000D01*
X15590500Y-10537000D02*
X15614500Y-10593000D01*
X15614500Y-8722000D02*
X15590500Y-8778000D01*
X15614500Y-10593000D02*
X15654500Y-10633000D01*
X15654500Y-8682000D02*
X15614500Y-8722000D01*
X15654500Y-10633000D02*
X15710500Y-10657000D01*
X15710500Y-8658000D02*
X15654500Y-8682000D01*
X15710500Y-10657000D02*
X15782500Y-10665000D01*
X15782500Y-8650000D02*
X15710500Y-8658000D01*
X15782500Y-10665000D02*
X15858750Y-10665000D01*
X15858750Y-10665000D02*
X15930750Y-10673000D01*
X15930750Y-10673000D02*
X15986750Y-10697000D01*
X15986750Y-10697000D02*
X16026750Y-10737000D01*
X16026750Y-10737000D02*
X16050750Y-10793000D01*
X16050750Y-10793000D02*
X16058750Y-10865000D01*
X16058750Y-10865000D02*
X16058750Y-12370000D01*
X16058750Y-12370000D02*
X16066750Y-12442000D01*
X16066750Y-12442000D02*
X16090750Y-12498000D01*
X16090750Y-12498000D02*
X16130750Y-12538000D01*
X16130750Y-12538000D02*
X16186750Y-12562000D01*
X16186750Y-12562000D02*
X16258750Y-12570000D01*
X16258750Y-12570000D02*
X16811250Y-12570000D01*
X16335000Y-6950000D02*
X16407000Y-6958000D01*
X16335000Y-8650000D02*
X15782500Y-8650000D01*
X16407000Y-6958000D02*
X16463000Y-6982000D01*
X16407000Y-8642000D02*
X16335000Y-8650000D01*
X16463000Y-6982000D02*
X16503000Y-7022000D01*
X16463000Y-8618000D02*
X16407000Y-8642000D01*
X16503000Y-7022000D02*
X16527000Y-7078000D01*
X16503000Y-8578000D02*
X16463000Y-8618000D01*
X16527000Y-7078000D02*
X16535000Y-7150000D01*
X16527000Y-8522000D02*
X16503000Y-8578000D01*
X16535000Y-7150000D02*
X16535000Y-8450000D01*
X16535000Y-8450000D02*
X16527000Y-8522000D01*
X16811250Y-12570000D02*
X16883250Y-12578000D01*
X16811250Y-16175000D02*
X3700000Y-16175000D01*
X16883250Y-12578000D02*
X16939250Y-12602000D01*
X16883250Y-16167000D02*
X16811250Y-16175000D01*
X16939250Y-12602000D02*
X16979250Y-12642000D01*
X16939250Y-16143000D02*
X16883250Y-16167000D01*
X16979250Y-12642000D02*
X17003250Y-12698000D01*
X16979250Y-16103000D02*
X16939250Y-16143000D01*
X17003250Y-12698000D02*
X17011250Y-12770000D01*
X17003250Y-16047000D02*
X16979250Y-16103000D01*
X17011250Y-12770000D02*
X17011250Y-14275000D01*
X17011250Y-14275000D02*
X17011250Y-14355000D01*
X17011250Y-14355000D02*
X17011250Y-14435000D01*
X17011250Y-14435000D02*
X17011250Y-14515000D01*
X17011250Y-14515000D02*
X17011250Y-14595000D01*
X17011250Y-14595000D02*
X17011250Y-14675000D01*
X17011250Y-14675000D02*
X17011250Y-15975000D01*
X17011250Y-15975000D02*
X17003250Y-16047000D01*
D11*
D12*
X3856250Y-11020000D02*
X4016250Y-11180000D01*
X4016250Y-11020000D02*
X3856250Y-11180000D01*
X6281250Y-12220000D02*
X6441250Y-12380000D01*
X6441250Y-12220000D02*
X6281250Y-12380000D01*
X7445000Y-13320000D02*
X7605000Y-13480000D01*
X7605000Y-13320000D02*
X7445000Y-13480000D01*
X8031250Y-15095000D02*
X8191250Y-15255000D01*
X8191250Y-15095000D02*
X8031250Y-15255000D01*
X11206250Y-4220000D02*
X11366250Y-4380000D01*
X11366250Y-4220000D02*
X11206250Y-4380000D01*
X13656250Y-15270000D02*
X13816250Y-15430000D01*
X13816250Y-15270000D02*
X13656250Y-15430000D01*
X14331250Y-6545000D02*
X14491250Y-6705000D01*
X14491250Y-6545000D02*
X14331250Y-6705000D01*
X16506250Y-14795000D02*
X16666250Y-14955000D01*
X16666250Y-14795000D02*
X16506250Y-14955000D01*
D13*
X3885000Y-8267500D02*
G75*
G02*
X3720000Y-8267500I-82500J0D01*
G01*
X3720000Y-8267500D02*
G75*
G02*
X3885000Y-8267500I82500J0D01*
G01*
X3885000Y-13982500D02*
G75*
G02*
X3720000Y-13982500I-82500J0D01*
G01*
X3720000Y-13982500D02*
G75*
G02*
X3885000Y-13982500I82500J0D01*
G01*
X4123130Y-15887500D02*
G75*
G02*
X3958130Y-15887500I-82500J0D01*
G01*
X3958130Y-15887500D02*
G75*
G02*
X4123130Y-15887500I82500J0D01*
G01*
X4361250Y-10172500D02*
G75*
G02*
X4196250Y-10172500I-82500J0D01*
G01*
X4196250Y-10172500D02*
G75*
G02*
X4361250Y-10172500I82500J0D01*
G01*
X4599370Y-12077500D02*
G75*
G02*
X4434370Y-12077500I-82500J0D01*
G01*
X4434370Y-12077500D02*
G75*
G02*
X4599370Y-12077500I82500J0D01*
G01*
X6790000Y-7237500D02*
G75*
G02*
X6625000Y-7237500I-82500J0D01*
G01*
X6625000Y-7237500D02*
G75*
G02*
X6790000Y-7237500I82500J0D01*
G01*
X7028130Y-12952500D02*
G75*
G02*
X6863130Y-12952500I-82500J0D01*
G01*
X6863130Y-12952500D02*
G75*
G02*
X7028130Y-12952500I82500J0D01*
G01*
X7504380Y-14857500D02*
G75*
G02*
X7339380Y-14857500I-82500J0D01*
G01*
X7339380Y-14857500D02*
G75*
G02*
X7504380Y-14857500I82500J0D01*
G01*
X7742500Y-9142500D02*
G75*
G02*
X7577500Y-9142500I-82500J0D01*
G01*
X7577500Y-9142500D02*
G75*
G02*
X7742500Y-9142500I82500J0D01*
G01*
X8218750Y-11047500D02*
G75*
G02*
X8053750Y-11047500I-82500J0D01*
G01*
X8053750Y-11047500D02*
G75*
G02*
X8218750Y-11047500I82500J0D01*
G01*
X8695000Y-7237500D02*
G75*
G02*
X8530000Y-7237500I-82500J0D01*
G01*
X8530000Y-7237500D02*
G75*
G02*
X8695000Y-7237500I82500J0D01*
G01*
X9171250Y-12952500D02*
G75*
G02*
X9006250Y-12952500I-82500J0D01*
G01*
X9006250Y-12952500D02*
G75*
G02*
X9171250Y-12952500I82500J0D01*
G01*
X9647500Y-9142500D02*
G75*
G02*
X9482500Y-9142500I-82500J0D01*
G01*
X9482500Y-9142500D02*
G75*
G02*
X9647500Y-9142500I82500J0D01*
G01*
X9885630Y-14857500D02*
G75*
G02*
X9720630Y-14857500I-82500J0D01*
G01*
X9720630Y-14857500D02*
G75*
G02*
X9885630Y-14857500I82500J0D01*
G01*
X10123750Y-11047500D02*
G75*
G02*
X9958750Y-11047500I-82500J0D01*
G01*
X9958750Y-11047500D02*
G75*
G02*
X10123750Y-11047500I82500J0D01*
G01*
X10600000Y-7237500D02*
G75*
G02*
X10435000Y-7237500I-82500J0D01*
G01*
X10435000Y-7237500D02*
G75*
G02*
X10600000Y-7237500I82500J0D01*
G01*
X11076250Y-12952500D02*
G75*
G02*
X10911250Y-12952500I-82500J0D01*
G01*
X10911250Y-12952500D02*
G75*
G02*
X11076250Y-12952500I82500J0D01*
G01*
X11552500Y-9142500D02*
G75*
G02*
X11387500Y-9142500I-82500J0D01*
G01*
X11387500Y-9142500D02*
G75*
G02*
X11552500Y-9142500I82500J0D01*
G01*
X12028750Y-11047500D02*
G75*
G02*
X11863750Y-11047500I-82500J0D01*
G01*
X11863750Y-11047500D02*
G75*
G02*
X12028750Y-11047500I82500J0D01*
G01*
X12505000Y-7237500D02*
G75*
G02*
X12340000Y-7237500I-82500J0D01*
G01*
X12340000Y-7237500D02*
G75*
G02*
X12505000Y-7237500I82500J0D01*
G01*
X12743130Y-14857500D02*
G75*
G02*
X12578130Y-14857500I-82500J0D01*
G01*
X12578130Y-14857500D02*
G75*
G02*
X12743130Y-14857500I82500J0D01*
G01*
X12981250Y-12952500D02*
G75*
G02*
X12816250Y-12952500I-82500J0D01*
G01*
X12816250Y-12952500D02*
G75*
G02*
X12981250Y-12952500I82500J0D01*
G01*
X13457500Y-9142500D02*
G75*
G02*
X13292500Y-9142500I-82500J0D01*
G01*
X13292500Y-9142500D02*
G75*
G02*
X13457500Y-9142500I82500J0D01*
G01*
X13933750Y-11047500D02*
G75*
G02*
X13768750Y-11047500I-82500J0D01*
G01*
X13768750Y-11047500D02*
G75*
G02*
X13933750Y-11047500I82500J0D01*
G01*
X14410000Y-7237500D02*
G75*
G02*
X14245000Y-7237500I-82500J0D01*
G01*
X14245000Y-7237500D02*
G75*
G02*
X14410000Y-7237500I82500J0D01*
G01*
X14886250Y-12952500D02*
G75*
G02*
X14721250Y-12952500I-82500J0D01*
G01*
X14721250Y-12952500D02*
G75*
G02*
X14886250Y-12952500I82500J0D01*
G01*
X15362500Y-9142500D02*
G75*
G02*
X15197500Y-9142500I-82500J0D01*
G01*
X15197500Y-9142500D02*
G75*
G02*
X15362500Y-9142500I82500J0D01*
G01*
X15838750Y-11047500D02*
G75*
G02*
X15673750Y-11047500I-82500J0D01*
G01*
X15673750Y-11047500D02*
G75*
G02*
X15838750Y-11047500I82500J0D01*
G01*
X16076880Y-14857500D02*
G75*
G02*
X15911880Y-14857500I-82500J0D01*
G01*
X15911880Y-14857500D02*
G75*
G02*
X16076880Y-14857500I82500J0D01*
G01*
X16315000Y-7237500D02*
G75*
G02*
X16150000Y-7237500I-82500J0D01*
G01*
X16150000Y-7237500D02*
G75*
G02*
X16315000Y-7237500I82500J0D01*
G01*
X16791250Y-12952500D02*
G75*
G02*
X16626250Y-12952500I-82500J0D01*
G01*
X16626250Y-12952500D02*
G75*
G02*
X16791250Y-12952500I82500J0D01*
G01*
D14*
X3794500Y-7667500D02*
X3794500Y-7837500D01*
X3709500Y-7752500D02*
X3879500Y-7752500D01*
X3794500Y-13382500D02*
X3794500Y-13552500D01*
X3709500Y-13467500D02*
X3879500Y-13467500D01*
X4032630Y-15287500D02*
X4032630Y-15457500D01*
X3947630Y-15372500D02*
X4117630Y-15372500D01*
X4270750Y-9572500D02*
X4270750Y-9742500D01*
X4185750Y-9657500D02*
X4355750Y-9657500D01*
X4508870Y-11477500D02*
X4508870Y-11647500D01*
X4423870Y-11562500D02*
X4593870Y-11562500D01*
X4810500Y-7667500D02*
X4810500Y-7837500D01*
X4725500Y-7752500D02*
X4895500Y-7752500D01*
X4810500Y-13382500D02*
X4810500Y-13552500D01*
X4725500Y-13467500D02*
X4895500Y-13467500D01*
X5048630Y-15287500D02*
X5048630Y-15457500D01*
X4963630Y-15372500D02*
X5133630Y-15372500D01*
X5286750Y-9572500D02*
X5286750Y-9742500D01*
X5201750Y-9657500D02*
X5371750Y-9657500D01*
X5524870Y-11477500D02*
X5524870Y-11647500D01*
X5439870Y-11562500D02*
X5609870Y-11562500D01*
X5699500Y-7667500D02*
X5699500Y-7837500D01*
X5614500Y-7752500D02*
X5784500Y-7752500D01*
X5937630Y-13382500D02*
X5937630Y-13552500D01*
X5852630Y-13467500D02*
X6022630Y-13467500D01*
X6413880Y-15287500D02*
X6413880Y-15457500D01*
X6328880Y-15372500D02*
X6498880Y-15372500D01*
X6652000Y-9572500D02*
X6652000Y-9742500D01*
X6567000Y-9657500D02*
X6737000Y-9657500D01*
X6715500Y-7667500D02*
X6715500Y-7837500D01*
X6630500Y-7752500D02*
X6800500Y-7752500D01*
X6953630Y-13382500D02*
X6953630Y-13552500D01*
X6868630Y-13467500D02*
X7038630Y-13467500D01*
X7128250Y-11477500D02*
X7128250Y-11647500D01*
X7043250Y-11562500D02*
X7213250Y-11562500D01*
X7429880Y-15287500D02*
X7429880Y-15457500D01*
X7344880Y-15372500D02*
X7514880Y-15372500D01*
X7604500Y-7667500D02*
X7604500Y-7837500D01*
X7519500Y-7752500D02*
X7689500Y-7752500D01*
X7668000Y-9572500D02*
X7668000Y-9742500D01*
X7583000Y-9657500D02*
X7753000Y-9657500D01*
X8080750Y-13382500D02*
X8080750Y-13552500D01*
X7995750Y-13467500D02*
X8165750Y-13467500D01*
X8144250Y-11477500D02*
X8144250Y-11647500D01*
X8059250Y-11562500D02*
X8229250Y-11562500D01*
X8557000Y-9572500D02*
X8557000Y-9742500D01*
X8472000Y-9657500D02*
X8642000Y-9657500D01*
X8620500Y-7667500D02*
X8620500Y-7837500D01*
X8535500Y-7752500D02*
X8705500Y-7752500D01*
X8795130Y-15287500D02*
X8795130Y-15457500D01*
X8710130Y-15372500D02*
X8880130Y-15372500D01*
X9033250Y-11477500D02*
X9033250Y-11647500D01*
X8948250Y-11562500D02*
X9118250Y-11562500D01*
X9096750Y-13382500D02*
X9096750Y-13552500D01*
X9011750Y-13467500D02*
X9181750Y-13467500D01*
X9509500Y-7667500D02*
X9509500Y-7837500D01*
X9424500Y-7752500D02*
X9594500Y-7752500D01*
X9573000Y-9572500D02*
X9573000Y-9742500D01*
X9488000Y-9657500D02*
X9658000Y-9657500D01*
X9811130Y-15287500D02*
X9811130Y-15457500D01*
X9726130Y-15372500D02*
X9896130Y-15372500D01*
X9985750Y-13382500D02*
X9985750Y-13552500D01*
X9900750Y-13467500D02*
X10070750Y-13467500D01*
X10049250Y-11477500D02*
X10049250Y-11647500D01*
X9964250Y-11562500D02*
X10134250Y-11562500D01*
X10462000Y-9572500D02*
X10462000Y-9742500D01*
X10377000Y-9657500D02*
X10547000Y-9657500D01*
X10525500Y-7667500D02*
X10525500Y-7837500D01*
X10440500Y-7752500D02*
X10610500Y-7752500D01*
X10938250Y-11477500D02*
X10938250Y-11647500D01*
X10853250Y-11562500D02*
X11023250Y-11562500D01*
X11001750Y-13382500D02*
X11001750Y-13552500D01*
X10916750Y-13467500D02*
X11086750Y-13467500D01*
X11414500Y-7667500D02*
X11414500Y-7837500D01*
X11329500Y-7752500D02*
X11499500Y-7752500D01*
X11478000Y-9572500D02*
X11478000Y-9742500D01*
X11393000Y-9657500D02*
X11563000Y-9657500D01*
X11652630Y-15287500D02*
X11652630Y-15457500D01*
X11567630Y-15372500D02*
X11737630Y-15372500D01*
X11890750Y-13382500D02*
X11890750Y-13552500D01*
X11805750Y-13467500D02*
X11975750Y-13467500D01*
X11954250Y-11477500D02*
X11954250Y-11647500D01*
X11869250Y-11562500D02*
X12039250Y-11562500D01*
X12367000Y-9572500D02*
X12367000Y-9742500D01*
X12282000Y-9657500D02*
X12452000Y-9657500D01*
X12430500Y-7667500D02*
X12430500Y-7837500D01*
X12345500Y-7752500D02*
X12515500Y-7752500D01*
X12668630Y-15287500D02*
X12668630Y-15457500D01*
X12583630Y-15372500D02*
X12753630Y-15372500D01*
X12843250Y-11477500D02*
X12843250Y-11647500D01*
X12758250Y-11562500D02*
X12928250Y-11562500D01*
X12906750Y-13382500D02*
X12906750Y-13552500D01*
X12821750Y-13467500D02*
X12991750Y-13467500D01*
X13319500Y-7667500D02*
X13319500Y-7837500D01*
X13234500Y-7752500D02*
X13404500Y-7752500D01*
X13383000Y-9572500D02*
X13383000Y-9742500D01*
X13298000Y-9657500D02*
X13468000Y-9657500D01*
X13795750Y-13382500D02*
X13795750Y-13552500D01*
X13710750Y-13467500D02*
X13880750Y-13467500D01*
X13859250Y-11477500D02*
X13859250Y-11647500D01*
X13774250Y-11562500D02*
X13944250Y-11562500D01*
X14272000Y-9572500D02*
X14272000Y-9742500D01*
X14187000Y-9657500D02*
X14357000Y-9657500D01*
X14335500Y-7667500D02*
X14335500Y-7837500D01*
X14250500Y-7752500D02*
X14420500Y-7752500D01*
X14748250Y-11477500D02*
X14748250Y-11647500D01*
X14663250Y-11562500D02*
X14833250Y-11562500D01*
X14811750Y-13382500D02*
X14811750Y-13552500D01*
X14726750Y-13467500D02*
X14896750Y-13467500D01*
X14986380Y-15287500D02*
X14986380Y-15457500D01*
X14901380Y-15372500D02*
X15071380Y-15372500D01*
X15224500Y-7667500D02*
X15224500Y-7837500D01*
X15139500Y-7752500D02*
X15309500Y-7752500D01*
X15288000Y-9572500D02*
X15288000Y-9742500D01*
X15203000Y-9657500D02*
X15373000Y-9657500D01*
X15700750Y-13382500D02*
X15700750Y-13552500D01*
X15615750Y-13467500D02*
X15785750Y-13467500D01*
X15764250Y-11477500D02*
X15764250Y-11647500D01*
X15679250Y-11562500D02*
X15849250Y-11562500D01*
X16002380Y-15287500D02*
X16002380Y-15457500D01*
X15917380Y-15372500D02*
X16087380Y-15372500D01*
X16240500Y-7667500D02*
X16240500Y-7837500D01*
X16155500Y-7752500D02*
X16325500Y-7752500D01*
X16716750Y-13382500D02*
X16716750Y-13552500D01*
X16631750Y-13467500D02*
X16801750Y-13467500D01*
D15*
X11869032Y-5152783D02*
X11869032Y-4997218D01*
X11713467Y-4997218D01*
X11713467Y-5152783D01*
X11869032Y-5152783D01*
D10*
X11721250Y-5185000D02*
X11861250Y-5185000D01*
X11861250Y-4965000D02*
G75*
G02*
X11861250Y-5185000I0J-110000D01*
G01*
X11861250Y-4965000D02*
X11721250Y-4965000D01*
X11721250Y-4965000D02*
G75*
G03*
X11721250Y-5185000I0J-110000D01*
G01*
D16*
X4302500Y-7312500D02*
X4452500Y-7162500D01*
X4302500Y-7012500D01*
X4152500Y-7162500D01*
X4302500Y-7312500D01*
X4302500Y-13027500D02*
X4452500Y-12877500D01*
X4302500Y-12727500D01*
X4152500Y-12877500D01*
X4302500Y-13027500D01*
X4540630Y-14932500D02*
X4690630Y-14782500D01*
X4540630Y-14632500D01*
X4390630Y-14782500D01*
X4540630Y-14932500D01*
X4778750Y-9217500D02*
X4928750Y-9067500D01*
X4778750Y-8917500D01*
X4628750Y-9067500D01*
X4778750Y-9217500D01*
X4802500Y-7522500D02*
X4952500Y-7372500D01*
X4802500Y-7222500D01*
X4652500Y-7372500D01*
X4802500Y-7522500D01*
X4802500Y-13237500D02*
X4952500Y-13087500D01*
X4802500Y-12937500D01*
X4652500Y-13087500D01*
X4802500Y-13237500D01*
X5016870Y-11122500D02*
X5166870Y-10972500D01*
X5016870Y-10822500D01*
X4866870Y-10972500D01*
X5016870Y-11122500D01*
X5040630Y-15142500D02*
X5190630Y-14992500D01*
X5040630Y-14842500D01*
X4890630Y-14992500D01*
X5040630Y-15142500D01*
X5278750Y-9427500D02*
X5428750Y-9277500D01*
X5278750Y-9127500D01*
X5128750Y-9277500D01*
X5278750Y-9427500D01*
X5516870Y-11332500D02*
X5666870Y-11182500D01*
X5516870Y-11032500D01*
X5366870Y-11182500D01*
X5516870Y-11332500D01*
X5707500Y-8282500D02*
X5857500Y-8132500D01*
X5707500Y-7982500D01*
X5557500Y-8132500D01*
X5707500Y-8282500D01*
X5945630Y-13997500D02*
X6095630Y-13847500D01*
X5945630Y-13697500D01*
X5795630Y-13847500D01*
X5945630Y-13997500D01*
X6207500Y-8492500D02*
X6357500Y-8342500D01*
X6207500Y-8192500D01*
X6057500Y-8342500D01*
X6207500Y-8492500D01*
X6421880Y-15902500D02*
X6571880Y-15752500D01*
X6421880Y-15602500D01*
X6271880Y-15752500D01*
X6421880Y-15902500D01*
X6445630Y-14207500D02*
X6595630Y-14057500D01*
X6445630Y-13907500D01*
X6295630Y-14057500D01*
X6445630Y-14207500D01*
X6660000Y-10187500D02*
X6810000Y-10037500D01*
X6660000Y-9887500D01*
X6510000Y-10037500D01*
X6660000Y-10187500D01*
X6921880Y-16112500D02*
X7071880Y-15962500D01*
X6921880Y-15812500D01*
X6771880Y-15962500D01*
X6921880Y-16112500D01*
X7136250Y-12092500D02*
X7286250Y-11942500D01*
X7136250Y-11792500D01*
X6986250Y-11942500D01*
X7136250Y-12092500D01*
X7160000Y-10397500D02*
X7310000Y-10247500D01*
X7160000Y-10097500D01*
X7010000Y-10247500D01*
X7160000Y-10397500D01*
X7612500Y-8282500D02*
X7762500Y-8132500D01*
X7612500Y-7982500D01*
X7462500Y-8132500D01*
X7612500Y-8282500D01*
X7636250Y-12302500D02*
X7786250Y-12152500D01*
X7636250Y-12002500D01*
X7486250Y-12152500D01*
X7636250Y-12302500D01*
X8088750Y-13997500D02*
X8238750Y-13847500D01*
X8088750Y-13697500D01*
X7938750Y-13847500D01*
X8088750Y-13997500D01*
X8112500Y-8492500D02*
X8262500Y-8342500D01*
X8112500Y-8192500D01*
X7962500Y-8342500D01*
X8112500Y-8492500D01*
X8565000Y-10187500D02*
X8715000Y-10037500D01*
X8565000Y-9887500D01*
X8415000Y-10037500D01*
X8565000Y-10187500D01*
X8588750Y-14207500D02*
X8738750Y-14057500D01*
X8588750Y-13907500D01*
X8438750Y-14057500D01*
X8588750Y-14207500D01*
X8803130Y-15902500D02*
X8953130Y-15752500D01*
X8803130Y-15602500D01*
X8653130Y-15752500D01*
X8803130Y-15902500D01*
X9041250Y-12092500D02*
X9191250Y-11942500D01*
X9041250Y-11792500D01*
X8891250Y-11942500D01*
X9041250Y-12092500D01*
X9065000Y-10397500D02*
X9215000Y-10247500D01*
X9065000Y-10097500D01*
X8915000Y-10247500D01*
X9065000Y-10397500D01*
X9303130Y-16112500D02*
X9453130Y-15962500D01*
X9303130Y-15812500D01*
X9153130Y-15962500D01*
X9303130Y-16112500D01*
X9517500Y-8282500D02*
X9667500Y-8132500D01*
X9517500Y-7982500D01*
X9367500Y-8132500D01*
X9517500Y-8282500D01*
X9541250Y-12302500D02*
X9691250Y-12152500D01*
X9541250Y-12002500D01*
X9391250Y-12152500D01*
X9541250Y-12302500D01*
X9993750Y-13997500D02*
X10143750Y-13847500D01*
X9993750Y-13697500D01*
X9843750Y-13847500D01*
X9993750Y-13997500D01*
X10017500Y-8492500D02*
X10167500Y-8342500D01*
X10017500Y-8192500D01*
X9867500Y-8342500D01*
X10017500Y-8492500D01*
X10470000Y-10187500D02*
X10620000Y-10037500D01*
X10470000Y-9887500D01*
X10320000Y-10037500D01*
X10470000Y-10187500D01*
X10493750Y-14207500D02*
X10643750Y-14057500D01*
X10493750Y-13907500D01*
X10343750Y-14057500D01*
X10493750Y-14207500D01*
X10946250Y-12092500D02*
X11096250Y-11942500D01*
X10946250Y-11792500D01*
X10796250Y-11942500D01*
X10946250Y-12092500D01*
X10970000Y-10397500D02*
X11120000Y-10247500D01*
X10970000Y-10097500D01*
X10820000Y-10247500D01*
X10970000Y-10397500D01*
X11422500Y-8282500D02*
X11572500Y-8132500D01*
X11422500Y-7982500D01*
X11272500Y-8132500D01*
X11422500Y-8282500D01*
X11446250Y-12302500D02*
X11596250Y-12152500D01*
X11446250Y-12002500D01*
X11296250Y-12152500D01*
X11446250Y-12302500D01*
X11660630Y-15902500D02*
X11810630Y-15752500D01*
X11660630Y-15602500D01*
X11510630Y-15752500D01*
X11660630Y-15902500D01*
X11898750Y-13997500D02*
X12048750Y-13847500D01*
X11898750Y-13697500D01*
X11748750Y-13847500D01*
X11898750Y-13997500D01*
X11922500Y-8492500D02*
X12072500Y-8342500D01*
X11922500Y-8192500D01*
X11772500Y-8342500D01*
X11922500Y-8492500D01*
X12160630Y-16112500D02*
X12310630Y-15962500D01*
X12160630Y-15812500D01*
X12010630Y-15962500D01*
X12160630Y-16112500D01*
X12375000Y-10187500D02*
X12525000Y-10037500D01*
X12375000Y-9887500D01*
X12225000Y-10037500D01*
X12375000Y-10187500D01*
X12398750Y-14207500D02*
X12548750Y-14057500D01*
X12398750Y-13907500D01*
X12248750Y-14057500D01*
X12398750Y-14207500D01*
X12851250Y-12092500D02*
X13001250Y-11942500D01*
X12851250Y-11792500D01*
X12701250Y-11942500D01*
X12851250Y-12092500D01*
X12875000Y-10397500D02*
X13025000Y-10247500D01*
X12875000Y-10097500D01*
X12725000Y-10247500D01*
X12875000Y-10397500D01*
X13327500Y-8282500D02*
X13477500Y-8132500D01*
X13327500Y-7982500D01*
X13177500Y-8132500D01*
X13327500Y-8282500D01*
X13351250Y-12302500D02*
X13501250Y-12152500D01*
X13351250Y-12002500D01*
X13201250Y-12152500D01*
X13351250Y-12302500D01*
X13803750Y-13997500D02*
X13953750Y-13847500D01*
X13803750Y-13697500D01*
X13653750Y-13847500D01*
X13803750Y-13997500D01*
X13827500Y-8492500D02*
X13977500Y-8342500D01*
X13827500Y-8192500D01*
X13677500Y-8342500D01*
X13827500Y-8492500D01*
X14280000Y-10187500D02*
X14430000Y-10037500D01*
X14280000Y-9887500D01*
X14130000Y-10037500D01*
X14280000Y-10187500D01*
X14303750Y-14207500D02*
X14453750Y-14057500D01*
X14303750Y-13907500D01*
X14153750Y-14057500D01*
X14303750Y-14207500D01*
X14756250Y-12092500D02*
X14906250Y-11942500D01*
X14756250Y-11792500D01*
X14606250Y-11942500D01*
X14756250Y-12092500D01*
X14780000Y-10397500D02*
X14930000Y-10247500D01*
X14780000Y-10097500D01*
X14630000Y-10247500D01*
X14780000Y-10397500D01*
X14994380Y-15902500D02*
X15144380Y-15752500D01*
X14994380Y-15602500D01*
X14844380Y-15752500D01*
X14994380Y-15902500D01*
X15232500Y-8282500D02*
X15382500Y-8132500D01*
X15232500Y-7982500D01*
X15082500Y-8132500D01*
X15232500Y-8282500D01*
X15256250Y-12302500D02*
X15406250Y-12152500D01*
X15256250Y-12002500D01*
X15106250Y-12152500D01*
X15256250Y-12302500D01*
X15494380Y-16112500D02*
X15644380Y-15962500D01*
X15494380Y-15812500D01*
X15344380Y-15962500D01*
X15494380Y-16112500D01*
X15708750Y-13997500D02*
X15858750Y-13847500D01*
X15708750Y-13697500D01*
X15558750Y-13847500D01*
X15708750Y-13997500D01*
X15732500Y-8492500D02*
X15882500Y-8342500D01*
X15732500Y-8192500D01*
X15582500Y-8342500D01*
X15732500Y-8492500D01*
X16208750Y-14207500D02*
X16358750Y-14057500D01*
X16208750Y-13907500D01*
X16058750Y-14057500D01*
X16208750Y-14207500D01*
D17*
X4052500Y-7502500D02*
X4552500Y-8002500D01*
X4552500Y-7502500D02*
X4052500Y-8002500D01*
X4552500Y-7752500D02*
G75*
G02*
X4052500Y-7752500I-250000J0D01*
G01*
X4052500Y-7752500D02*
G75*
G02*
X4552500Y-7752500I250000J0D01*
G01*
X4052500Y-13217500D02*
X4552500Y-13717500D01*
X4552500Y-13217500D02*
X4052500Y-13717500D01*
X4552500Y-13467500D02*
G75*
G02*
X4052500Y-13467500I-250000J0D01*
G01*
X4052500Y-13467500D02*
G75*
G02*
X4552500Y-13467500I250000J0D01*
G01*
X4290630Y-15122500D02*
X4790630Y-15622500D01*
X4790630Y-15122500D02*
X4290630Y-15622500D01*
X4790630Y-15372500D02*
G75*
G02*
X4290630Y-15372500I-250000J0D01*
G01*
X4290630Y-15372500D02*
G75*
G02*
X4790630Y-15372500I250000J0D01*
G01*
X4528750Y-9407500D02*
X5028750Y-9907500D01*
X5028750Y-9407500D02*
X4528750Y-9907500D01*
X5028750Y-9657500D02*
G75*
G02*
X4528750Y-9657500I-250000J0D01*
G01*
X4528750Y-9657500D02*
G75*
G02*
X5028750Y-9657500I250000J0D01*
G01*
X4766870Y-11312500D02*
X5266870Y-11812500D01*
X5266870Y-11312500D02*
X4766870Y-11812500D01*
X5266870Y-11562500D02*
G75*
G02*
X4766870Y-11562500I-250000J0D01*
G01*
X4766870Y-11562500D02*
G75*
G02*
X5266870Y-11562500I250000J0D01*
G01*
X5957500Y-7502500D02*
X6457500Y-8002500D01*
X6457500Y-7502500D02*
X5957500Y-8002500D01*
X6457500Y-7752500D02*
G75*
G02*
X5957500Y-7752500I-250000J0D01*
G01*
X5957500Y-7752500D02*
G75*
G02*
X6457500Y-7752500I250000J0D01*
G01*
X6195630Y-13217500D02*
X6695630Y-13717500D01*
X6695630Y-13217500D02*
X6195630Y-13717500D01*
X6695630Y-13467500D02*
G75*
G02*
X6195630Y-13467500I-250000J0D01*
G01*
X6195630Y-13467500D02*
G75*
G02*
X6695630Y-13467500I250000J0D01*
G01*
X6671880Y-15122500D02*
X7171880Y-15622500D01*
X7171880Y-15122500D02*
X6671880Y-15622500D01*
X7171880Y-15372500D02*
G75*
G02*
X6671880Y-15372500I-250000J0D01*
G01*
X6671880Y-15372500D02*
G75*
G02*
X7171880Y-15372500I250000J0D01*
G01*
X6910000Y-9407500D02*
X7410000Y-9907500D01*
X7410000Y-9407500D02*
X6910000Y-9907500D01*
X7410000Y-9657500D02*
G75*
G02*
X6910000Y-9657500I-250000J0D01*
G01*
X6910000Y-9657500D02*
G75*
G02*
X7410000Y-9657500I250000J0D01*
G01*
X7386250Y-11312500D02*
X7886250Y-11812500D01*
X7886250Y-11312500D02*
X7386250Y-11812500D01*
X7886250Y-11562500D02*
G75*
G02*
X7386250Y-11562500I-250000J0D01*
G01*
X7386250Y-11562500D02*
G75*
G02*
X7886250Y-11562500I250000J0D01*
G01*
X7862500Y-7502500D02*
X8362500Y-8002500D01*
X8362500Y-7502500D02*
X7862500Y-8002500D01*
X8362500Y-7752500D02*
G75*
G02*
X7862500Y-7752500I-250000J0D01*
G01*
X7862500Y-7752500D02*
G75*
G02*
X8362500Y-7752500I250000J0D01*
G01*
X8338750Y-13217500D02*
X8838750Y-13717500D01*
X8838750Y-13217500D02*
X8338750Y-13717500D01*
X8838750Y-13467500D02*
G75*
G02*
X8338750Y-13467500I-250000J0D01*
G01*
X8338750Y-13467500D02*
G75*
G02*
X8838750Y-13467500I250000J0D01*
G01*
X8815000Y-9407500D02*
X9315000Y-9907500D01*
X9315000Y-9407500D02*
X8815000Y-9907500D01*
X9315000Y-9657500D02*
G75*
G02*
X8815000Y-9657500I-250000J0D01*
G01*
X8815000Y-9657500D02*
G75*
G02*
X9315000Y-9657500I250000J0D01*
G01*
X9053130Y-15122500D02*
X9553130Y-15622500D01*
X9553130Y-15122500D02*
X9053130Y-15622500D01*
X9553130Y-15372500D02*
G75*
G02*
X9053130Y-15372500I-250000J0D01*
G01*
X9053130Y-15372500D02*
G75*
G02*
X9553130Y-15372500I250000J0D01*
G01*
X9291250Y-11312500D02*
X9791250Y-11812500D01*
X9791250Y-11312500D02*
X9291250Y-11812500D01*
X9791250Y-11562500D02*
G75*
G02*
X9291250Y-11562500I-250000J0D01*
G01*
X9291250Y-11562500D02*
G75*
G02*
X9791250Y-11562500I250000J0D01*
G01*
X9767500Y-7502500D02*
X10267500Y-8002500D01*
X10267500Y-7502500D02*
X9767500Y-8002500D01*
X10267500Y-7752500D02*
G75*
G02*
X9767500Y-7752500I-250000J0D01*
G01*
X9767500Y-7752500D02*
G75*
G02*
X10267500Y-7752500I250000J0D01*
G01*
X10243750Y-13217500D02*
X10743750Y-13717500D01*
X10743750Y-13217500D02*
X10243750Y-13717500D01*
X10743750Y-13467500D02*
G75*
G02*
X10243750Y-13467500I-250000J0D01*
G01*
X10243750Y-13467500D02*
G75*
G02*
X10743750Y-13467500I250000J0D01*
G01*
X10720000Y-9407500D02*
X11220000Y-9907500D01*
X11220000Y-9407500D02*
X10720000Y-9907500D01*
X11220000Y-9657500D02*
G75*
G02*
X10720000Y-9657500I-250000J0D01*
G01*
X10720000Y-9657500D02*
G75*
G02*
X11220000Y-9657500I250000J0D01*
G01*
X11196250Y-11312500D02*
X11696250Y-11812500D01*
X11696250Y-11312500D02*
X11196250Y-11812500D01*
X11696250Y-11562500D02*
G75*
G02*
X11196250Y-11562500I-250000J0D01*
G01*
X11196250Y-11562500D02*
G75*
G02*
X11696250Y-11562500I250000J0D01*
G01*
X11672500Y-7502500D02*
X12172500Y-8002500D01*
X12172500Y-7502500D02*
X11672500Y-8002500D01*
X12172500Y-7752500D02*
G75*
G02*
X11672500Y-7752500I-250000J0D01*
G01*
X11672500Y-7752500D02*
G75*
G02*
X12172500Y-7752500I250000J0D01*
G01*
X11910630Y-15122500D02*
X12410630Y-15622500D01*
X12410630Y-15122500D02*
X11910630Y-15622500D01*
X12410630Y-15372500D02*
G75*
G02*
X11910630Y-15372500I-250000J0D01*
G01*
X11910630Y-15372500D02*
G75*
G02*
X12410630Y-15372500I250000J0D01*
G01*
X12148750Y-13217500D02*
X12648750Y-13717500D01*
X12648750Y-13217500D02*
X12148750Y-13717500D01*
X12648750Y-13467500D02*
G75*
G02*
X12148750Y-13467500I-250000J0D01*
G01*
X12148750Y-13467500D02*
G75*
G02*
X12648750Y-13467500I250000J0D01*
G01*
X12625000Y-9407500D02*
X13125000Y-9907500D01*
X13125000Y-9407500D02*
X12625000Y-9907500D01*
X13125000Y-9657500D02*
G75*
G02*
X12625000Y-9657500I-250000J0D01*
G01*
X12625000Y-9657500D02*
G75*
G02*
X13125000Y-9657500I250000J0D01*
G01*
X13101250Y-11312500D02*
X13601250Y-11812500D01*
X13601250Y-11312500D02*
X13101250Y-11812500D01*
X13601250Y-11562500D02*
G75*
G02*
X13101250Y-11562500I-250000J0D01*
G01*
X13101250Y-11562500D02*
G75*
G02*
X13601250Y-11562500I250000J0D01*
G01*
X13577500Y-7502500D02*
X14077500Y-8002500D01*
X14077500Y-7502500D02*
X13577500Y-8002500D01*
X14077500Y-7752500D02*
G75*
G02*
X13577500Y-7752500I-250000J0D01*
G01*
X13577500Y-7752500D02*
G75*
G02*
X14077500Y-7752500I250000J0D01*
G01*
X14053750Y-13217500D02*
X14553750Y-13717500D01*
X14553750Y-13217500D02*
X14053750Y-13717500D01*
X14553750Y-13467500D02*
G75*
G02*
X14053750Y-13467500I-250000J0D01*
G01*
X14053750Y-13467500D02*
G75*
G02*
X14553750Y-13467500I250000J0D01*
G01*
X14530000Y-9407500D02*
X15030000Y-9907500D01*
X15030000Y-9407500D02*
X14530000Y-9907500D01*
X15030000Y-9657500D02*
G75*
G02*
X14530000Y-9657500I-250000J0D01*
G01*
X14530000Y-9657500D02*
G75*
G02*
X15030000Y-9657500I250000J0D01*
G01*
X15006250Y-11312500D02*
X15506250Y-11812500D01*
X15506250Y-11312500D02*
X15006250Y-11812500D01*
X15506250Y-11562500D02*
G75*
G02*
X15006250Y-11562500I-250000J0D01*
G01*
X15006250Y-11562500D02*
G75*
G02*
X15506250Y-11562500I250000J0D01*
G01*
X15244380Y-15122500D02*
X15744380Y-15622500D01*
X15744380Y-15122500D02*
X15244380Y-15622500D01*
X15744380Y-15372500D02*
G75*
G02*
X15244380Y-15372500I-250000J0D01*
G01*
X15244380Y-15372500D02*
G75*
G02*
X15744380Y-15372500I250000J0D01*
G01*
X15482500Y-7502500D02*
X15982500Y-8002500D01*
X15982500Y-7502500D02*
X15482500Y-8002500D01*
X15982500Y-7752500D02*
G75*
G02*
X15482500Y-7752500I-250000J0D01*
G01*
X15482500Y-7752500D02*
G75*
G02*
X15982500Y-7752500I250000J0D01*
G01*
X15958750Y-13217500D02*
X16458750Y-13717500D01*
X16458750Y-13217500D02*
X15958750Y-13717500D01*
X16458750Y-13467500D02*
G75*
G02*
X15958750Y-13467500I-250000J0D01*
G01*
X15958750Y-13467500D02*
G75*
G02*
X16458750Y-13467500I250000J0D01*
G01*
D11*
X3755777Y-16491484D02*
X3755777Y-16291484D01*
X3755777Y-16291484D02*
X3803396Y-16291484D01*
X3803396Y-16291484D02*
X3831967Y-16301008D01*
X3831967Y-16301008D02*
X3851015Y-16320055D01*
X3851015Y-16320055D02*
X3860539Y-16339103D01*
X3860539Y-16339103D02*
X3870062Y-16377198D01*
X3870062Y-16377198D02*
X3870062Y-16405769D01*
X3870062Y-16405769D02*
X3860539Y-16443865D01*
X3860539Y-16443865D02*
X3851015Y-16462912D01*
X3851015Y-16462912D02*
X3831967Y-16481960D01*
X3831967Y-16481960D02*
X3803396Y-16491484D01*
X3803396Y-16491484D02*
X3755777Y-16491484D01*
X3955777Y-16491484D02*
X3955777Y-16358150D01*
X3955777Y-16396246D02*
X3965301Y-16377198D01*
X3965301Y-16377198D02*
X3974824Y-16367674D01*
X3974824Y-16367674D02*
X3993872Y-16358150D01*
X3993872Y-16358150D02*
X4012920Y-16358150D01*
X4079586Y-16491484D02*
X4079586Y-16358150D01*
X4079586Y-16291484D02*
X4070062Y-16301008D01*
X4070062Y-16301008D02*
X4079586Y-16310531D01*
X4079586Y-16310531D02*
X4089110Y-16301008D01*
X4089110Y-16301008D02*
X4079586Y-16291484D01*
X4079586Y-16291484D02*
X4079586Y-16310531D01*
X4203396Y-16491484D02*
X4184348Y-16481960D01*
X4184348Y-16481960D02*
X4174824Y-16462912D01*
X4174824Y-16462912D02*
X4174824Y-16291484D01*
X4308158Y-16491484D02*
X4289110Y-16481960D01*
X4289110Y-16481960D02*
X4279586Y-16462912D01*
X4279586Y-16462912D02*
X4279586Y-16291484D01*
X4536729Y-16491484D02*
X4536729Y-16291484D01*
X4536729Y-16291484D02*
X4603396Y-16434341D01*
X4603396Y-16434341D02*
X4670063Y-16291484D01*
X4670063Y-16291484D02*
X4670063Y-16491484D01*
X4851015Y-16491484D02*
X4851015Y-16386722D01*
X4851015Y-16386722D02*
X4841491Y-16367674D01*
X4841491Y-16367674D02*
X4822444Y-16358150D01*
X4822444Y-16358150D02*
X4784348Y-16358150D01*
X4784348Y-16358150D02*
X4765301Y-16367674D01*
X4851015Y-16481960D02*
X4831967Y-16491484D01*
X4831967Y-16491484D02*
X4784348Y-16491484D01*
X4784348Y-16491484D02*
X4765301Y-16481960D01*
X4765301Y-16481960D02*
X4755777Y-16462912D01*
X4755777Y-16462912D02*
X4755777Y-16443865D01*
X4755777Y-16443865D02*
X4765301Y-16424817D01*
X4765301Y-16424817D02*
X4784348Y-16415293D01*
X4784348Y-16415293D02*
X4831967Y-16415293D01*
X4831967Y-16415293D02*
X4851015Y-16405769D01*
X4946253Y-16358150D02*
X4946253Y-16558150D01*
X4946253Y-16367674D02*
X4965301Y-16358150D01*
X4965301Y-16358150D02*
X5003396Y-16358150D01*
X5003396Y-16358150D02*
X5022444Y-16367674D01*
X5022444Y-16367674D02*
X5031967Y-16377198D01*
X5031967Y-16377198D02*
X5041491Y-16396246D01*
X5041491Y-16396246D02*
X5041491Y-16453388D01*
X5041491Y-16453388D02*
X5031967Y-16472436D01*
X5031967Y-16472436D02*
X5022444Y-16481960D01*
X5022444Y-16481960D02*
X5003396Y-16491484D01*
X5003396Y-16491484D02*
X4965301Y-16491484D01*
X4965301Y-16491484D02*
X4946253Y-16481960D01*
X5127205Y-16472436D02*
X5136729Y-16481960D01*
X5136729Y-16481960D02*
X5127205Y-16491484D01*
X5127205Y-16491484D02*
X5117682Y-16481960D01*
X5117682Y-16481960D02*
X5127205Y-16472436D01*
X5127205Y-16472436D02*
X5127205Y-16491484D01*
X5127205Y-16367674D02*
X5136729Y-16377198D01*
X5136729Y-16377198D02*
X5127205Y-16386722D01*
X5127205Y-16386722D02*
X5117682Y-16377198D01*
X5117682Y-16377198D02*
X5127205Y-16367674D01*
X5127205Y-16367674D02*
X5127205Y-16386722D01*
D12*
X3335000Y-16740000D02*
X3495000Y-16900000D01*
X3495000Y-16740000D02*
X3335000Y-16900000D01*
D11*
X3860539Y-16911484D02*
X3746253Y-16911484D01*
X3803396Y-16911484D02*
X3803396Y-16711484D01*
X3803396Y-16711484D02*
X3784348Y-16740055D01*
X3784348Y-16740055D02*
X3765301Y-16759103D01*
X3765301Y-16759103D02*
X3746253Y-16768627D01*
X3946253Y-16892436D02*
X3955777Y-16901960D01*
X3955777Y-16901960D02*
X3946253Y-16911484D01*
X3946253Y-16911484D02*
X3936729Y-16901960D01*
X3936729Y-16901960D02*
X3946253Y-16892436D01*
X3946253Y-16892436D02*
X3946253Y-16911484D01*
X4127205Y-16711484D02*
X4089110Y-16711484D01*
X4089110Y-16711484D02*
X4070062Y-16721008D01*
X4070062Y-16721008D02*
X4060539Y-16730531D01*
X4060539Y-16730531D02*
X4041491Y-16759103D01*
X4041491Y-16759103D02*
X4031967Y-16797198D01*
X4031967Y-16797198D02*
X4031967Y-16873389D01*
X4031967Y-16873389D02*
X4041491Y-16892436D01*
X4041491Y-16892436D02*
X4051015Y-16901960D01*
X4051015Y-16901960D02*
X4070062Y-16911484D01*
X4070062Y-16911484D02*
X4108158Y-16911484D01*
X4108158Y-16911484D02*
X4127205Y-16901960D01*
X4127205Y-16901960D02*
X4136729Y-16892436D01*
X4136729Y-16892436D02*
X4146253Y-16873389D01*
X4146253Y-16873389D02*
X4146253Y-16825770D01*
X4146253Y-16825770D02*
X4136729Y-16806722D01*
X4136729Y-16806722D02*
X4127205Y-16797198D01*
X4127205Y-16797198D02*
X4108158Y-16787674D01*
X4108158Y-16787674D02*
X4070062Y-16787674D01*
X4070062Y-16787674D02*
X4051015Y-16797198D01*
X4051015Y-16797198D02*
X4041491Y-16806722D01*
X4041491Y-16806722D02*
X4031967Y-16825770D01*
X4270063Y-16711484D02*
X4289110Y-16711484D01*
X4289110Y-16711484D02*
X4308158Y-16721008D01*
X4308158Y-16721008D02*
X4317682Y-16730531D01*
X4317682Y-16730531D02*
X4327205Y-16749579D01*
X4327205Y-16749579D02*
X4336729Y-16787674D01*
X4336729Y-16787674D02*
X4336729Y-16835293D01*
X4336729Y-16835293D02*
X4327205Y-16873389D01*
X4327205Y-16873389D02*
X4317682Y-16892436D01*
X4317682Y-16892436D02*
X4308158Y-16901960D01*
X4308158Y-16901960D02*
X4289110Y-16911484D01*
X4289110Y-16911484D02*
X4270063Y-16911484D01*
X4270063Y-16911484D02*
X4251015Y-16901960D01*
X4251015Y-16901960D02*
X4241491Y-16892436D01*
X4241491Y-16892436D02*
X4231967Y-16873389D01*
X4231967Y-16873389D02*
X4222444Y-16835293D01*
X4222444Y-16835293D02*
X4222444Y-16787674D01*
X4222444Y-16787674D02*
X4231967Y-16749579D01*
X4231967Y-16749579D02*
X4241491Y-16730531D01*
X4241491Y-16730531D02*
X4251015Y-16721008D01*
X4251015Y-16721008D02*
X4270063Y-16711484D01*
X4460539Y-16711484D02*
X4479586Y-16711484D01*
X4479586Y-16711484D02*
X4498634Y-16721008D01*
X4498634Y-16721008D02*
X4508158Y-16730531D01*
X4508158Y-16730531D02*
X4517682Y-16749579D01*
X4517682Y-16749579D02*
X4527205Y-16787674D01*
X4527205Y-16787674D02*
X4527205Y-16835293D01*
X4527205Y-16835293D02*
X4517682Y-16873389D01*
X4517682Y-16873389D02*
X4508158Y-16892436D01*
X4508158Y-16892436D02*
X4498634Y-16901960D01*
X4498634Y-16901960D02*
X4479586Y-16911484D01*
X4479586Y-16911484D02*
X4460539Y-16911484D01*
X4460539Y-16911484D02*
X4441491Y-16901960D01*
X4441491Y-16901960D02*
X4431967Y-16892436D01*
X4431967Y-16892436D02*
X4422444Y-16873389D01*
X4422444Y-16873389D02*
X4412920Y-16835293D01*
X4412920Y-16835293D02*
X4412920Y-16787674D01*
X4412920Y-16787674D02*
X4422444Y-16749579D01*
X4422444Y-16749579D02*
X4431967Y-16730531D01*
X4431967Y-16730531D02*
X4441491Y-16721008D01*
X4441491Y-16721008D02*
X4460539Y-16711484D01*
X4612920Y-16911484D02*
X4612920Y-16778150D01*
X4612920Y-16797198D02*
X4622444Y-16787674D01*
X4622444Y-16787674D02*
X4641491Y-16778150D01*
X4641491Y-16778150D02*
X4670063Y-16778150D01*
X4670063Y-16778150D02*
X4689110Y-16787674D01*
X4689110Y-16787674D02*
X4698634Y-16806722D01*
X4698634Y-16806722D02*
X4698634Y-16911484D01*
X4698634Y-16806722D02*
X4708158Y-16787674D01*
X4708158Y-16787674D02*
X4727205Y-16778150D01*
X4727205Y-16778150D02*
X4755777Y-16778150D01*
X4755777Y-16778150D02*
X4774825Y-16787674D01*
X4774825Y-16787674D02*
X4784348Y-16806722D01*
X4784348Y-16806722D02*
X4784348Y-16911484D01*
X4879586Y-16911484D02*
X4879586Y-16778150D01*
X4879586Y-16797198D02*
X4889110Y-16787674D01*
X4889110Y-16787674D02*
X4908158Y-16778150D01*
X4908158Y-16778150D02*
X4936729Y-16778150D01*
X4936729Y-16778150D02*
X4955777Y-16787674D01*
X4955777Y-16787674D02*
X4965301Y-16806722D01*
X4965301Y-16806722D02*
X4965301Y-16911484D01*
X4965301Y-16806722D02*
X4974825Y-16787674D01*
X4974825Y-16787674D02*
X4993872Y-16778150D01*
X4993872Y-16778150D02*
X5022444Y-16778150D01*
X5022444Y-16778150D02*
X5041491Y-16787674D01*
X5041491Y-16787674D02*
X5051015Y-16806722D01*
X5051015Y-16806722D02*
X5051015Y-16911484D01*
X5441491Y-16701960D02*
X5270063Y-16959103D01*
X5698634Y-16711484D02*
X5717682Y-16711484D01*
X5717682Y-16711484D02*
X5736729Y-16721008D01*
X5736729Y-16721008D02*
X5746253Y-16730531D01*
X5746253Y-16730531D02*
X5755777Y-16749579D01*
X5755777Y-16749579D02*
X5765301Y-16787674D01*
X5765301Y-16787674D02*
X5765301Y-16835293D01*
X5765301Y-16835293D02*
X5755777Y-16873389D01*
X5755777Y-16873389D02*
X5746253Y-16892436D01*
X5746253Y-16892436D02*
X5736729Y-16901960D01*
X5736729Y-16901960D02*
X5717682Y-16911484D01*
X5717682Y-16911484D02*
X5698634Y-16911484D01*
X5698634Y-16911484D02*
X5679586Y-16901960D01*
X5679586Y-16901960D02*
X5670063Y-16892436D01*
X5670063Y-16892436D02*
X5660539Y-16873389D01*
X5660539Y-16873389D02*
X5651015Y-16835293D01*
X5651015Y-16835293D02*
X5651015Y-16787674D01*
X5651015Y-16787674D02*
X5660539Y-16749579D01*
X5660539Y-16749579D02*
X5670063Y-16730531D01*
X5670063Y-16730531D02*
X5679586Y-16721008D01*
X5679586Y-16721008D02*
X5698634Y-16711484D01*
X5851015Y-16892436D02*
X5860539Y-16901960D01*
X5860539Y-16901960D02*
X5851015Y-16911484D01*
X5851015Y-16911484D02*
X5841491Y-16901960D01*
X5841491Y-16901960D02*
X5851015Y-16892436D01*
X5851015Y-16892436D02*
X5851015Y-16911484D01*
X5984348Y-16711484D02*
X6003396Y-16711484D01*
X6003396Y-16711484D02*
X6022444Y-16721008D01*
X6022444Y-16721008D02*
X6031967Y-16730531D01*
X6031967Y-16730531D02*
X6041491Y-16749579D01*
X6041491Y-16749579D02*
X6051015Y-16787674D01*
X6051015Y-16787674D02*
X6051015Y-16835293D01*
X6051015Y-16835293D02*
X6041491Y-16873389D01*
X6041491Y-16873389D02*
X6031967Y-16892436D01*
X6031967Y-16892436D02*
X6022444Y-16901960D01*
X6022444Y-16901960D02*
X6003396Y-16911484D01*
X6003396Y-16911484D02*
X5984348Y-16911484D01*
X5984348Y-16911484D02*
X5965301Y-16901960D01*
X5965301Y-16901960D02*
X5955777Y-16892436D01*
X5955777Y-16892436D02*
X5946253Y-16873389D01*
X5946253Y-16873389D02*
X5936729Y-16835293D01*
X5936729Y-16835293D02*
X5936729Y-16787674D01*
X5936729Y-16787674D02*
X5946253Y-16749579D01*
X5946253Y-16749579D02*
X5955777Y-16730531D01*
X5955777Y-16730531D02*
X5965301Y-16721008D01*
X5965301Y-16721008D02*
X5984348Y-16711484D01*
X6222444Y-16711484D02*
X6184348Y-16711484D01*
X6184348Y-16711484D02*
X6165301Y-16721008D01*
X6165301Y-16721008D02*
X6155777Y-16730531D01*
X6155777Y-16730531D02*
X6136729Y-16759103D01*
X6136729Y-16759103D02*
X6127206Y-16797198D01*
X6127206Y-16797198D02*
X6127206Y-16873389D01*
X6127206Y-16873389D02*
X6136729Y-16892436D01*
X6136729Y-16892436D02*
X6146253Y-16901960D01*
X6146253Y-16901960D02*
X6165301Y-16911484D01*
X6165301Y-16911484D02*
X6203396Y-16911484D01*
X6203396Y-16911484D02*
X6222444Y-16901960D01*
X6222444Y-16901960D02*
X6231967Y-16892436D01*
X6231967Y-16892436D02*
X6241491Y-16873389D01*
X6241491Y-16873389D02*
X6241491Y-16825770D01*
X6241491Y-16825770D02*
X6231967Y-16806722D01*
X6231967Y-16806722D02*
X6222444Y-16797198D01*
X6222444Y-16797198D02*
X6203396Y-16787674D01*
X6203396Y-16787674D02*
X6165301Y-16787674D01*
X6165301Y-16787674D02*
X6146253Y-16797198D01*
X6146253Y-16797198D02*
X6136729Y-16806722D01*
X6136729Y-16806722D02*
X6127206Y-16825770D01*
X6308158Y-16711484D02*
X6431967Y-16711484D01*
X6431967Y-16711484D02*
X6365301Y-16787674D01*
X6365301Y-16787674D02*
X6393872Y-16787674D01*
X6393872Y-16787674D02*
X6412920Y-16797198D01*
X6412920Y-16797198D02*
X6422444Y-16806722D01*
X6422444Y-16806722D02*
X6431967Y-16825770D01*
X6431967Y-16825770D02*
X6431967Y-16873389D01*
X6431967Y-16873389D02*
X6422444Y-16892436D01*
X6422444Y-16892436D02*
X6412920Y-16901960D01*
X6412920Y-16901960D02*
X6393872Y-16911484D01*
X6393872Y-16911484D02*
X6336729Y-16911484D01*
X6336729Y-16911484D02*
X6317682Y-16901960D01*
X6317682Y-16901960D02*
X6308158Y-16892436D01*
X6555777Y-16711484D02*
X6574825Y-16711484D01*
X6574825Y-16711484D02*
X6593872Y-16721008D01*
X6593872Y-16721008D02*
X6603396Y-16730531D01*
X6603396Y-16730531D02*
X6612920Y-16749579D01*
X6612920Y-16749579D02*
X6622444Y-16787674D01*
X6622444Y-16787674D02*
X6622444Y-16835293D01*
X6622444Y-16835293D02*
X6612920Y-16873389D01*
X6612920Y-16873389D02*
X6603396Y-16892436D01*
X6603396Y-16892436D02*
X6593872Y-16901960D01*
X6593872Y-16901960D02*
X6574825Y-16911484D01*
X6574825Y-16911484D02*
X6555777Y-16911484D01*
X6555777Y-16911484D02*
X6536729Y-16901960D01*
X6536729Y-16901960D02*
X6527206Y-16892436D01*
X6527206Y-16892436D02*
X6517682Y-16873389D01*
X6517682Y-16873389D02*
X6508158Y-16835293D01*
X6508158Y-16835293D02*
X6508158Y-16787674D01*
X6508158Y-16787674D02*
X6517682Y-16749579D01*
X6517682Y-16749579D02*
X6527206Y-16730531D01*
X6527206Y-16730531D02*
X6536729Y-16721008D01*
X6536729Y-16721008D02*
X6555777Y-16711484D01*
X6698634Y-16711484D02*
X6698634Y-16749579D01*
X6774825Y-16711484D02*
X6774825Y-16749579D01*
X7070063Y-16987674D02*
X7060539Y-16978150D01*
X7060539Y-16978150D02*
X7041491Y-16949579D01*
X7041491Y-16949579D02*
X7031968Y-16930531D01*
X7031968Y-16930531D02*
X7022444Y-16901960D01*
X7022444Y-16901960D02*
X7012920Y-16854341D01*
X7012920Y-16854341D02*
X7012920Y-16816246D01*
X7012920Y-16816246D02*
X7022444Y-16768627D01*
X7022444Y-16768627D02*
X7031968Y-16740055D01*
X7031968Y-16740055D02*
X7041491Y-16721008D01*
X7041491Y-16721008D02*
X7060539Y-16692436D01*
X7060539Y-16692436D02*
X7070063Y-16682912D01*
X7174825Y-16797198D02*
X7155777Y-16787674D01*
X7155777Y-16787674D02*
X7146253Y-16778150D01*
X7146253Y-16778150D02*
X7136729Y-16759103D01*
X7136729Y-16759103D02*
X7136729Y-16749579D01*
X7136729Y-16749579D02*
X7146253Y-16730531D01*
X7146253Y-16730531D02*
X7155777Y-16721008D01*
X7155777Y-16721008D02*
X7174825Y-16711484D01*
X7174825Y-16711484D02*
X7212920Y-16711484D01*
X7212920Y-16711484D02*
X7231968Y-16721008D01*
X7231968Y-16721008D02*
X7241491Y-16730531D01*
X7241491Y-16730531D02*
X7251015Y-16749579D01*
X7251015Y-16749579D02*
X7251015Y-16759103D01*
X7251015Y-16759103D02*
X7241491Y-16778150D01*
X7241491Y-16778150D02*
X7231968Y-16787674D01*
X7231968Y-16787674D02*
X7212920Y-16797198D01*
X7212920Y-16797198D02*
X7174825Y-16797198D01*
X7174825Y-16797198D02*
X7155777Y-16806722D01*
X7155777Y-16806722D02*
X7146253Y-16816246D01*
X7146253Y-16816246D02*
X7136729Y-16835293D01*
X7136729Y-16835293D02*
X7136729Y-16873389D01*
X7136729Y-16873389D02*
X7146253Y-16892436D01*
X7146253Y-16892436D02*
X7155777Y-16901960D01*
X7155777Y-16901960D02*
X7174825Y-16911484D01*
X7174825Y-16911484D02*
X7212920Y-16911484D01*
X7212920Y-16911484D02*
X7231968Y-16901960D01*
X7231968Y-16901960D02*
X7241491Y-16892436D01*
X7241491Y-16892436D02*
X7251015Y-16873389D01*
X7251015Y-16873389D02*
X7251015Y-16835293D01*
X7251015Y-16835293D02*
X7241491Y-16816246D01*
X7241491Y-16816246D02*
X7231968Y-16806722D01*
X7231968Y-16806722D02*
X7212920Y-16797198D01*
X7489110Y-16911484D02*
X7489110Y-16711484D01*
X7574825Y-16911484D02*
X7574825Y-16806722D01*
X7574825Y-16806722D02*
X7565301Y-16787674D01*
X7565301Y-16787674D02*
X7546253Y-16778150D01*
X7546253Y-16778150D02*
X7517682Y-16778150D01*
X7517682Y-16778150D02*
X7498634Y-16787674D01*
X7498634Y-16787674D02*
X7489110Y-16797198D01*
X7698634Y-16911484D02*
X7679587Y-16901960D01*
X7679587Y-16901960D02*
X7670063Y-16892436D01*
X7670063Y-16892436D02*
X7660539Y-16873389D01*
X7660539Y-16873389D02*
X7660539Y-16816246D01*
X7660539Y-16816246D02*
X7670063Y-16797198D01*
X7670063Y-16797198D02*
X7679587Y-16787674D01*
X7679587Y-16787674D02*
X7698634Y-16778150D01*
X7698634Y-16778150D02*
X7727206Y-16778150D01*
X7727206Y-16778150D02*
X7746253Y-16787674D01*
X7746253Y-16787674D02*
X7755777Y-16797198D01*
X7755777Y-16797198D02*
X7765301Y-16816246D01*
X7765301Y-16816246D02*
X7765301Y-16873389D01*
X7765301Y-16873389D02*
X7755777Y-16892436D01*
X7755777Y-16892436D02*
X7746253Y-16901960D01*
X7746253Y-16901960D02*
X7727206Y-16911484D01*
X7727206Y-16911484D02*
X7698634Y-16911484D01*
X7879587Y-16911484D02*
X7860539Y-16901960D01*
X7860539Y-16901960D02*
X7851015Y-16882912D01*
X7851015Y-16882912D02*
X7851015Y-16711484D01*
X8031968Y-16901960D02*
X8012920Y-16911484D01*
X8012920Y-16911484D02*
X7974825Y-16911484D01*
X7974825Y-16911484D02*
X7955777Y-16901960D01*
X7955777Y-16901960D02*
X7946253Y-16882912D01*
X7946253Y-16882912D02*
X7946253Y-16806722D01*
X7946253Y-16806722D02*
X7955777Y-16787674D01*
X7955777Y-16787674D02*
X7974825Y-16778150D01*
X7974825Y-16778150D02*
X8012920Y-16778150D01*
X8012920Y-16778150D02*
X8031968Y-16787674D01*
X8031968Y-16787674D02*
X8041491Y-16806722D01*
X8041491Y-16806722D02*
X8041491Y-16825770D01*
X8041491Y-16825770D02*
X7946253Y-16844817D01*
X8117682Y-16901960D02*
X8136730Y-16911484D01*
X8136730Y-16911484D02*
X8174825Y-16911484D01*
X8174825Y-16911484D02*
X8193872Y-16901960D01*
X8193872Y-16901960D02*
X8203396Y-16882912D01*
X8203396Y-16882912D02*
X8203396Y-16873389D01*
X8203396Y-16873389D02*
X8193872Y-16854341D01*
X8193872Y-16854341D02*
X8174825Y-16844817D01*
X8174825Y-16844817D02*
X8146253Y-16844817D01*
X8146253Y-16844817D02*
X8127206Y-16835293D01*
X8127206Y-16835293D02*
X8117682Y-16816246D01*
X8117682Y-16816246D02*
X8117682Y-16806722D01*
X8117682Y-16806722D02*
X8127206Y-16787674D01*
X8127206Y-16787674D02*
X8146253Y-16778150D01*
X8146253Y-16778150D02*
X8174825Y-16778150D01*
X8174825Y-16778150D02*
X8193872Y-16787674D01*
X8270063Y-16987674D02*
X8279587Y-16978150D01*
X8279587Y-16978150D02*
X8298634Y-16949579D01*
X8298634Y-16949579D02*
X8308158Y-16930531D01*
X8308158Y-16930531D02*
X8317682Y-16901960D01*
X8317682Y-16901960D02*
X8327206Y-16854341D01*
X8327206Y-16854341D02*
X8327206Y-16816246D01*
X8327206Y-16816246D02*
X8317682Y-16768627D01*
X8317682Y-16768627D02*
X8308158Y-16740055D01*
X8308158Y-16740055D02*
X8298634Y-16721008D01*
X8298634Y-16721008D02*
X8279587Y-16692436D01*
X8279587Y-16692436D02*
X8270063Y-16682912D01*
X8631968Y-16987674D02*
X8622444Y-16978150D01*
X8622444Y-16978150D02*
X8603396Y-16949579D01*
X8603396Y-16949579D02*
X8593873Y-16930531D01*
X8593873Y-16930531D02*
X8584349Y-16901960D01*
X8584349Y-16901960D02*
X8574825Y-16854341D01*
X8574825Y-16854341D02*
X8574825Y-16816246D01*
X8574825Y-16816246D02*
X8584349Y-16768627D01*
X8584349Y-16768627D02*
X8593873Y-16740055D01*
X8593873Y-16740055D02*
X8603396Y-16721008D01*
X8603396Y-16721008D02*
X8622444Y-16692436D01*
X8622444Y-16692436D02*
X8631968Y-16682912D01*
X8708158Y-16778150D02*
X8708158Y-16911484D01*
X8708158Y-16797198D02*
X8717682Y-16787674D01*
X8717682Y-16787674D02*
X8736730Y-16778150D01*
X8736730Y-16778150D02*
X8765301Y-16778150D01*
X8765301Y-16778150D02*
X8784349Y-16787674D01*
X8784349Y-16787674D02*
X8793873Y-16806722D01*
X8793873Y-16806722D02*
X8793873Y-16911484D01*
X8917682Y-16911484D02*
X8898634Y-16901960D01*
X8898634Y-16901960D02*
X8889111Y-16892436D01*
X8889111Y-16892436D02*
X8879587Y-16873389D01*
X8879587Y-16873389D02*
X8879587Y-16816246D01*
X8879587Y-16816246D02*
X8889111Y-16797198D01*
X8889111Y-16797198D02*
X8898634Y-16787674D01*
X8898634Y-16787674D02*
X8917682Y-16778150D01*
X8917682Y-16778150D02*
X8946254Y-16778150D01*
X8946254Y-16778150D02*
X8965301Y-16787674D01*
X8965301Y-16787674D02*
X8974825Y-16797198D01*
X8974825Y-16797198D02*
X8984349Y-16816246D01*
X8984349Y-16816246D02*
X8984349Y-16873389D01*
X8984349Y-16873389D02*
X8974825Y-16892436D01*
X8974825Y-16892436D02*
X8965301Y-16901960D01*
X8965301Y-16901960D02*
X8946254Y-16911484D01*
X8946254Y-16911484D02*
X8917682Y-16911484D01*
X9041492Y-16778150D02*
X9117682Y-16778150D01*
X9070063Y-16711484D02*
X9070063Y-16882912D01*
X9070063Y-16882912D02*
X9079587Y-16901960D01*
X9079587Y-16901960D02*
X9098634Y-16911484D01*
X9098634Y-16911484D02*
X9117682Y-16911484D01*
X9336730Y-16778150D02*
X9336730Y-16978150D01*
X9336730Y-16787674D02*
X9355777Y-16778150D01*
X9355777Y-16778150D02*
X9393873Y-16778150D01*
X9393873Y-16778150D02*
X9412920Y-16787674D01*
X9412920Y-16787674D02*
X9422444Y-16797198D01*
X9422444Y-16797198D02*
X9431968Y-16816246D01*
X9431968Y-16816246D02*
X9431968Y-16873389D01*
X9431968Y-16873389D02*
X9422444Y-16892436D01*
X9422444Y-16892436D02*
X9412920Y-16901960D01*
X9412920Y-16901960D02*
X9393873Y-16911484D01*
X9393873Y-16911484D02*
X9355777Y-16911484D01*
X9355777Y-16911484D02*
X9336730Y-16901960D01*
X9546254Y-16911484D02*
X9527206Y-16901960D01*
X9527206Y-16901960D02*
X9517682Y-16882912D01*
X9517682Y-16882912D02*
X9517682Y-16711484D01*
X9708158Y-16911484D02*
X9708158Y-16806722D01*
X9708158Y-16806722D02*
X9698635Y-16787674D01*
X9698635Y-16787674D02*
X9679587Y-16778150D01*
X9679587Y-16778150D02*
X9641492Y-16778150D01*
X9641492Y-16778150D02*
X9622444Y-16787674D01*
X9708158Y-16901960D02*
X9689111Y-16911484D01*
X9689111Y-16911484D02*
X9641492Y-16911484D01*
X9641492Y-16911484D02*
X9622444Y-16901960D01*
X9622444Y-16901960D02*
X9612920Y-16882912D01*
X9612920Y-16882912D02*
X9612920Y-16863865D01*
X9612920Y-16863865D02*
X9622444Y-16844817D01*
X9622444Y-16844817D02*
X9641492Y-16835293D01*
X9641492Y-16835293D02*
X9689111Y-16835293D01*
X9689111Y-16835293D02*
X9708158Y-16825770D01*
X9774825Y-16778150D02*
X9851015Y-16778150D01*
X9803396Y-16711484D02*
X9803396Y-16882912D01*
X9803396Y-16882912D02*
X9812920Y-16901960D01*
X9812920Y-16901960D02*
X9831968Y-16911484D01*
X9831968Y-16911484D02*
X9851015Y-16911484D01*
X9993873Y-16901960D02*
X9974825Y-16911484D01*
X9974825Y-16911484D02*
X9936730Y-16911484D01*
X9936730Y-16911484D02*
X9917682Y-16901960D01*
X9917682Y-16901960D02*
X9908158Y-16882912D01*
X9908158Y-16882912D02*
X9908158Y-16806722D01*
X9908158Y-16806722D02*
X9917682Y-16787674D01*
X9917682Y-16787674D02*
X9936730Y-16778150D01*
X9936730Y-16778150D02*
X9974825Y-16778150D01*
X9974825Y-16778150D02*
X9993873Y-16787674D01*
X9993873Y-16787674D02*
X10003396Y-16806722D01*
X10003396Y-16806722D02*
X10003396Y-16825770D01*
X10003396Y-16825770D02*
X9908158Y-16844817D01*
X10174825Y-16911484D02*
X10174825Y-16711484D01*
X10174825Y-16901960D02*
X10155777Y-16911484D01*
X10155777Y-16911484D02*
X10117682Y-16911484D01*
X10117682Y-16911484D02*
X10098635Y-16901960D01*
X10098635Y-16901960D02*
X10089111Y-16892436D01*
X10089111Y-16892436D02*
X10079587Y-16873389D01*
X10079587Y-16873389D02*
X10079587Y-16816246D01*
X10079587Y-16816246D02*
X10089111Y-16797198D01*
X10089111Y-16797198D02*
X10098635Y-16787674D01*
X10098635Y-16787674D02*
X10117682Y-16778150D01*
X10117682Y-16778150D02*
X10155777Y-16778150D01*
X10155777Y-16778150D02*
X10174825Y-16787674D01*
X10251016Y-16987674D02*
X10260539Y-16978150D01*
X10260539Y-16978150D02*
X10279587Y-16949579D01*
X10279587Y-16949579D02*
X10289111Y-16930531D01*
X10289111Y-16930531D02*
X10298635Y-16901960D01*
X10298635Y-16901960D02*
X10308158Y-16854341D01*
X10308158Y-16854341D02*
X10308158Y-16816246D01*
X10308158Y-16816246D02*
X10298635Y-16768627D01*
X10298635Y-16768627D02*
X10289111Y-16740055D01*
X10289111Y-16740055D02*
X10279587Y-16721008D01*
X10279587Y-16721008D02*
X10260539Y-16692436D01*
X10260539Y-16692436D02*
X10251016Y-16682912D01*
D13*
X3495000Y-17100000D02*
G75*
G02*
X3330000Y-17100000I-82500J0D01*
G01*
X3330000Y-17100000D02*
G75*
G02*
X3495000Y-17100000I82500J0D01*
G01*
D11*
X3860539Y-17191484D02*
X3746253Y-17191484D01*
X3803396Y-17191484D02*
X3803396Y-16991484D01*
X3803396Y-16991484D02*
X3784348Y-17020055D01*
X3784348Y-17020055D02*
X3765301Y-17039103D01*
X3765301Y-17039103D02*
X3746253Y-17048627D01*
X3946253Y-17172436D02*
X3955777Y-17181960D01*
X3955777Y-17181960D02*
X3946253Y-17191484D01*
X3946253Y-17191484D02*
X3936729Y-17181960D01*
X3936729Y-17181960D02*
X3946253Y-17172436D01*
X3946253Y-17172436D02*
X3946253Y-17191484D01*
X4127205Y-16991484D02*
X4089110Y-16991484D01*
X4089110Y-16991484D02*
X4070062Y-17001008D01*
X4070062Y-17001008D02*
X4060539Y-17010531D01*
X4060539Y-17010531D02*
X4041491Y-17039103D01*
X4041491Y-17039103D02*
X4031967Y-17077198D01*
X4031967Y-17077198D02*
X4031967Y-17153389D01*
X4031967Y-17153389D02*
X4041491Y-17172436D01*
X4041491Y-17172436D02*
X4051015Y-17181960D01*
X4051015Y-17181960D02*
X4070062Y-17191484D01*
X4070062Y-17191484D02*
X4108158Y-17191484D01*
X4108158Y-17191484D02*
X4127205Y-17181960D01*
X4127205Y-17181960D02*
X4136729Y-17172436D01*
X4136729Y-17172436D02*
X4146253Y-17153389D01*
X4146253Y-17153389D02*
X4146253Y-17105770D01*
X4146253Y-17105770D02*
X4136729Y-17086722D01*
X4136729Y-17086722D02*
X4127205Y-17077198D01*
X4127205Y-17077198D02*
X4108158Y-17067674D01*
X4108158Y-17067674D02*
X4070062Y-17067674D01*
X4070062Y-17067674D02*
X4051015Y-17077198D01*
X4051015Y-17077198D02*
X4041491Y-17086722D01*
X4041491Y-17086722D02*
X4031967Y-17105770D01*
X4327205Y-16991484D02*
X4231967Y-16991484D01*
X4231967Y-16991484D02*
X4222444Y-17086722D01*
X4222444Y-17086722D02*
X4231967Y-17077198D01*
X4231967Y-17077198D02*
X4251015Y-17067674D01*
X4251015Y-17067674D02*
X4298634Y-17067674D01*
X4298634Y-17067674D02*
X4317682Y-17077198D01*
X4317682Y-17077198D02*
X4327205Y-17086722D01*
X4327205Y-17086722D02*
X4336729Y-17105770D01*
X4336729Y-17105770D02*
X4336729Y-17153389D01*
X4336729Y-17153389D02*
X4327205Y-17172436D01*
X4327205Y-17172436D02*
X4317682Y-17181960D01*
X4317682Y-17181960D02*
X4298634Y-17191484D01*
X4298634Y-17191484D02*
X4251015Y-17191484D01*
X4251015Y-17191484D02*
X4231967Y-17181960D01*
X4231967Y-17181960D02*
X4222444Y-17172436D01*
X4460539Y-16991484D02*
X4479586Y-16991484D01*
X4479586Y-16991484D02*
X4498634Y-17001008D01*
X4498634Y-17001008D02*
X4508158Y-17010531D01*
X4508158Y-17010531D02*
X4517682Y-17029579D01*
X4517682Y-17029579D02*
X4527205Y-17067674D01*
X4527205Y-17067674D02*
X4527205Y-17115293D01*
X4527205Y-17115293D02*
X4517682Y-17153389D01*
X4517682Y-17153389D02*
X4508158Y-17172436D01*
X4508158Y-17172436D02*
X4498634Y-17181960D01*
X4498634Y-17181960D02*
X4479586Y-17191484D01*
X4479586Y-17191484D02*
X4460539Y-17191484D01*
X4460539Y-17191484D02*
X4441491Y-17181960D01*
X4441491Y-17181960D02*
X4431967Y-17172436D01*
X4431967Y-17172436D02*
X4422444Y-17153389D01*
X4422444Y-17153389D02*
X4412920Y-17115293D01*
X4412920Y-17115293D02*
X4412920Y-17067674D01*
X4412920Y-17067674D02*
X4422444Y-17029579D01*
X4422444Y-17029579D02*
X4431967Y-17010531D01*
X4431967Y-17010531D02*
X4441491Y-17001008D01*
X4441491Y-17001008D02*
X4460539Y-16991484D01*
X4612920Y-17191484D02*
X4612920Y-17058150D01*
X4612920Y-17077198D02*
X4622444Y-17067674D01*
X4622444Y-17067674D02*
X4641491Y-17058150D01*
X4641491Y-17058150D02*
X4670063Y-17058150D01*
X4670063Y-17058150D02*
X4689110Y-17067674D01*
X4689110Y-17067674D02*
X4698634Y-17086722D01*
X4698634Y-17086722D02*
X4698634Y-17191484D01*
X4698634Y-17086722D02*
X4708158Y-17067674D01*
X4708158Y-17067674D02*
X4727205Y-17058150D01*
X4727205Y-17058150D02*
X4755777Y-17058150D01*
X4755777Y-17058150D02*
X4774825Y-17067674D01*
X4774825Y-17067674D02*
X4784348Y-17086722D01*
X4784348Y-17086722D02*
X4784348Y-17191484D01*
X4879586Y-17191484D02*
X4879586Y-17058150D01*
X4879586Y-17077198D02*
X4889110Y-17067674D01*
X4889110Y-17067674D02*
X4908158Y-17058150D01*
X4908158Y-17058150D02*
X4936729Y-17058150D01*
X4936729Y-17058150D02*
X4955777Y-17067674D01*
X4955777Y-17067674D02*
X4965301Y-17086722D01*
X4965301Y-17086722D02*
X4965301Y-17191484D01*
X4965301Y-17086722D02*
X4974825Y-17067674D01*
X4974825Y-17067674D02*
X4993872Y-17058150D01*
X4993872Y-17058150D02*
X5022444Y-17058150D01*
X5022444Y-17058150D02*
X5041491Y-17067674D01*
X5041491Y-17067674D02*
X5051015Y-17086722D01*
X5051015Y-17086722D02*
X5051015Y-17191484D01*
X5441491Y-16981960D02*
X5270063Y-17239103D01*
X5698634Y-16991484D02*
X5717682Y-16991484D01*
X5717682Y-16991484D02*
X5736729Y-17001008D01*
X5736729Y-17001008D02*
X5746253Y-17010531D01*
X5746253Y-17010531D02*
X5755777Y-17029579D01*
X5755777Y-17029579D02*
X5765301Y-17067674D01*
X5765301Y-17067674D02*
X5765301Y-17115293D01*
X5765301Y-17115293D02*
X5755777Y-17153389D01*
X5755777Y-17153389D02*
X5746253Y-17172436D01*
X5746253Y-17172436D02*
X5736729Y-17181960D01*
X5736729Y-17181960D02*
X5717682Y-17191484D01*
X5717682Y-17191484D02*
X5698634Y-17191484D01*
X5698634Y-17191484D02*
X5679586Y-17181960D01*
X5679586Y-17181960D02*
X5670063Y-17172436D01*
X5670063Y-17172436D02*
X5660539Y-17153389D01*
X5660539Y-17153389D02*
X5651015Y-17115293D01*
X5651015Y-17115293D02*
X5651015Y-17067674D01*
X5651015Y-17067674D02*
X5660539Y-17029579D01*
X5660539Y-17029579D02*
X5670063Y-17010531D01*
X5670063Y-17010531D02*
X5679586Y-17001008D01*
X5679586Y-17001008D02*
X5698634Y-16991484D01*
X5851015Y-17172436D02*
X5860539Y-17181960D01*
X5860539Y-17181960D02*
X5851015Y-17191484D01*
X5851015Y-17191484D02*
X5841491Y-17181960D01*
X5841491Y-17181960D02*
X5851015Y-17172436D01*
X5851015Y-17172436D02*
X5851015Y-17191484D01*
X5984348Y-16991484D02*
X6003396Y-16991484D01*
X6003396Y-16991484D02*
X6022444Y-17001008D01*
X6022444Y-17001008D02*
X6031967Y-17010531D01*
X6031967Y-17010531D02*
X6041491Y-17029579D01*
X6041491Y-17029579D02*
X6051015Y-17067674D01*
X6051015Y-17067674D02*
X6051015Y-17115293D01*
X6051015Y-17115293D02*
X6041491Y-17153389D01*
X6041491Y-17153389D02*
X6031967Y-17172436D01*
X6031967Y-17172436D02*
X6022444Y-17181960D01*
X6022444Y-17181960D02*
X6003396Y-17191484D01*
X6003396Y-17191484D02*
X5984348Y-17191484D01*
X5984348Y-17191484D02*
X5965301Y-17181960D01*
X5965301Y-17181960D02*
X5955777Y-17172436D01*
X5955777Y-17172436D02*
X5946253Y-17153389D01*
X5946253Y-17153389D02*
X5936729Y-17115293D01*
X5936729Y-17115293D02*
X5936729Y-17067674D01*
X5936729Y-17067674D02*
X5946253Y-17029579D01*
X5946253Y-17029579D02*
X5955777Y-17010531D01*
X5955777Y-17010531D02*
X5965301Y-17001008D01*
X5965301Y-17001008D02*
X5984348Y-16991484D01*
X6222444Y-16991484D02*
X6184348Y-16991484D01*
X6184348Y-16991484D02*
X6165301Y-17001008D01*
X6165301Y-17001008D02*
X6155777Y-17010531D01*
X6155777Y-17010531D02*
X6136729Y-17039103D01*
X6136729Y-17039103D02*
X6127206Y-17077198D01*
X6127206Y-17077198D02*
X6127206Y-17153389D01*
X6127206Y-17153389D02*
X6136729Y-17172436D01*
X6136729Y-17172436D02*
X6146253Y-17181960D01*
X6146253Y-17181960D02*
X6165301Y-17191484D01*
X6165301Y-17191484D02*
X6203396Y-17191484D01*
X6203396Y-17191484D02*
X6222444Y-17181960D01*
X6222444Y-17181960D02*
X6231967Y-17172436D01*
X6231967Y-17172436D02*
X6241491Y-17153389D01*
X6241491Y-17153389D02*
X6241491Y-17105770D01*
X6241491Y-17105770D02*
X6231967Y-17086722D01*
X6231967Y-17086722D02*
X6222444Y-17077198D01*
X6222444Y-17077198D02*
X6203396Y-17067674D01*
X6203396Y-17067674D02*
X6165301Y-17067674D01*
X6165301Y-17067674D02*
X6146253Y-17077198D01*
X6146253Y-17077198D02*
X6136729Y-17086722D01*
X6136729Y-17086722D02*
X6127206Y-17105770D01*
X6422444Y-16991484D02*
X6327206Y-16991484D01*
X6327206Y-16991484D02*
X6317682Y-17086722D01*
X6317682Y-17086722D02*
X6327206Y-17077198D01*
X6327206Y-17077198D02*
X6346253Y-17067674D01*
X6346253Y-17067674D02*
X6393872Y-17067674D01*
X6393872Y-17067674D02*
X6412920Y-17077198D01*
X6412920Y-17077198D02*
X6422444Y-17086722D01*
X6422444Y-17086722D02*
X6431967Y-17105770D01*
X6431967Y-17105770D02*
X6431967Y-17153389D01*
X6431967Y-17153389D02*
X6422444Y-17172436D01*
X6422444Y-17172436D02*
X6412920Y-17181960D01*
X6412920Y-17181960D02*
X6393872Y-17191484D01*
X6393872Y-17191484D02*
X6346253Y-17191484D01*
X6346253Y-17191484D02*
X6327206Y-17181960D01*
X6327206Y-17181960D02*
X6317682Y-17172436D01*
X6555777Y-16991484D02*
X6574825Y-16991484D01*
X6574825Y-16991484D02*
X6593872Y-17001008D01*
X6593872Y-17001008D02*
X6603396Y-17010531D01*
X6603396Y-17010531D02*
X6612920Y-17029579D01*
X6612920Y-17029579D02*
X6622444Y-17067674D01*
X6622444Y-17067674D02*
X6622444Y-17115293D01*
X6622444Y-17115293D02*
X6612920Y-17153389D01*
X6612920Y-17153389D02*
X6603396Y-17172436D01*
X6603396Y-17172436D02*
X6593872Y-17181960D01*
X6593872Y-17181960D02*
X6574825Y-17191484D01*
X6574825Y-17191484D02*
X6555777Y-17191484D01*
X6555777Y-17191484D02*
X6536729Y-17181960D01*
X6536729Y-17181960D02*
X6527206Y-17172436D01*
X6527206Y-17172436D02*
X6517682Y-17153389D01*
X6517682Y-17153389D02*
X6508158Y-17115293D01*
X6508158Y-17115293D02*
X6508158Y-17067674D01*
X6508158Y-17067674D02*
X6517682Y-17029579D01*
X6517682Y-17029579D02*
X6527206Y-17010531D01*
X6527206Y-17010531D02*
X6536729Y-17001008D01*
X6536729Y-17001008D02*
X6555777Y-16991484D01*
X6698634Y-16991484D02*
X6698634Y-17029579D01*
X6774825Y-16991484D02*
X6774825Y-17029579D01*
X7070063Y-17267674D02*
X7060539Y-17258150D01*
X7060539Y-17258150D02*
X7041491Y-17229579D01*
X7041491Y-17229579D02*
X7031968Y-17210531D01*
X7031968Y-17210531D02*
X7022444Y-17181960D01*
X7022444Y-17181960D02*
X7012920Y-17134341D01*
X7012920Y-17134341D02*
X7012920Y-17096246D01*
X7012920Y-17096246D02*
X7022444Y-17048627D01*
X7022444Y-17048627D02*
X7031968Y-17020055D01*
X7031968Y-17020055D02*
X7041491Y-17001008D01*
X7041491Y-17001008D02*
X7060539Y-16972436D01*
X7060539Y-16972436D02*
X7070063Y-16962912D01*
X7127206Y-16991484D02*
X7251015Y-16991484D01*
X7251015Y-16991484D02*
X7184348Y-17067674D01*
X7184348Y-17067674D02*
X7212920Y-17067674D01*
X7212920Y-17067674D02*
X7231968Y-17077198D01*
X7231968Y-17077198D02*
X7241491Y-17086722D01*
X7241491Y-17086722D02*
X7251015Y-17105770D01*
X7251015Y-17105770D02*
X7251015Y-17153389D01*
X7251015Y-17153389D02*
X7241491Y-17172436D01*
X7241491Y-17172436D02*
X7231968Y-17181960D01*
X7231968Y-17181960D02*
X7212920Y-17191484D01*
X7212920Y-17191484D02*
X7155777Y-17191484D01*
X7155777Y-17191484D02*
X7136729Y-17181960D01*
X7136729Y-17181960D02*
X7127206Y-17172436D01*
X7441491Y-17191484D02*
X7327206Y-17191484D01*
X7384348Y-17191484D02*
X7384348Y-16991484D01*
X7384348Y-16991484D02*
X7365301Y-17020055D01*
X7365301Y-17020055D02*
X7346253Y-17039103D01*
X7346253Y-17039103D02*
X7327206Y-17048627D01*
X7679587Y-17191484D02*
X7679587Y-16991484D01*
X7765301Y-17191484D02*
X7765301Y-17086722D01*
X7765301Y-17086722D02*
X7755777Y-17067674D01*
X7755777Y-17067674D02*
X7736730Y-17058150D01*
X7736730Y-17058150D02*
X7708158Y-17058150D01*
X7708158Y-17058150D02*
X7689110Y-17067674D01*
X7689110Y-17067674D02*
X7679587Y-17077198D01*
X7889110Y-17191484D02*
X7870063Y-17181960D01*
X7870063Y-17181960D02*
X7860539Y-17172436D01*
X7860539Y-17172436D02*
X7851015Y-17153389D01*
X7851015Y-17153389D02*
X7851015Y-17096246D01*
X7851015Y-17096246D02*
X7860539Y-17077198D01*
X7860539Y-17077198D02*
X7870063Y-17067674D01*
X7870063Y-17067674D02*
X7889110Y-17058150D01*
X7889110Y-17058150D02*
X7917682Y-17058150D01*
X7917682Y-17058150D02*
X7936730Y-17067674D01*
X7936730Y-17067674D02*
X7946253Y-17077198D01*
X7946253Y-17077198D02*
X7955777Y-17096246D01*
X7955777Y-17096246D02*
X7955777Y-17153389D01*
X7955777Y-17153389D02*
X7946253Y-17172436D01*
X7946253Y-17172436D02*
X7936730Y-17181960D01*
X7936730Y-17181960D02*
X7917682Y-17191484D01*
X7917682Y-17191484D02*
X7889110Y-17191484D01*
X8070063Y-17191484D02*
X8051015Y-17181960D01*
X8051015Y-17181960D02*
X8041491Y-17162912D01*
X8041491Y-17162912D02*
X8041491Y-16991484D01*
X8222444Y-17181960D02*
X8203396Y-17191484D01*
X8203396Y-17191484D02*
X8165301Y-17191484D01*
X8165301Y-17191484D02*
X8146253Y-17181960D01*
X8146253Y-17181960D02*
X8136730Y-17162912D01*
X8136730Y-17162912D02*
X8136730Y-17086722D01*
X8136730Y-17086722D02*
X8146253Y-17067674D01*
X8146253Y-17067674D02*
X8165301Y-17058150D01*
X8165301Y-17058150D02*
X8203396Y-17058150D01*
X8203396Y-17058150D02*
X8222444Y-17067674D01*
X8222444Y-17067674D02*
X8231968Y-17086722D01*
X8231968Y-17086722D02*
X8231968Y-17105770D01*
X8231968Y-17105770D02*
X8136730Y-17124817D01*
X8308158Y-17181960D02*
X8327206Y-17191484D01*
X8327206Y-17191484D02*
X8365301Y-17191484D01*
X8365301Y-17191484D02*
X8384349Y-17181960D01*
X8384349Y-17181960D02*
X8393873Y-17162912D01*
X8393873Y-17162912D02*
X8393873Y-17153389D01*
X8393873Y-17153389D02*
X8384349Y-17134341D01*
X8384349Y-17134341D02*
X8365301Y-17124817D01*
X8365301Y-17124817D02*
X8336730Y-17124817D01*
X8336730Y-17124817D02*
X8317682Y-17115293D01*
X8317682Y-17115293D02*
X8308158Y-17096246D01*
X8308158Y-17096246D02*
X8308158Y-17086722D01*
X8308158Y-17086722D02*
X8317682Y-17067674D01*
X8317682Y-17067674D02*
X8336730Y-17058150D01*
X8336730Y-17058150D02*
X8365301Y-17058150D01*
X8365301Y-17058150D02*
X8384349Y-17067674D01*
X8460539Y-17267674D02*
X8470063Y-17258150D01*
X8470063Y-17258150D02*
X8489111Y-17229579D01*
X8489111Y-17229579D02*
X8498634Y-17210531D01*
X8498634Y-17210531D02*
X8508158Y-17181960D01*
X8508158Y-17181960D02*
X8517682Y-17134341D01*
X8517682Y-17134341D02*
X8517682Y-17096246D01*
X8517682Y-17096246D02*
X8508158Y-17048627D01*
X8508158Y-17048627D02*
X8498634Y-17020055D01*
X8498634Y-17020055D02*
X8489111Y-17001008D01*
X8489111Y-17001008D02*
X8470063Y-16972436D01*
X8470063Y-16972436D02*
X8460539Y-16962912D01*
X8822444Y-17267674D02*
X8812920Y-17258150D01*
X8812920Y-17258150D02*
X8793873Y-17229579D01*
X8793873Y-17229579D02*
X8784349Y-17210531D01*
X8784349Y-17210531D02*
X8774825Y-17181960D01*
X8774825Y-17181960D02*
X8765301Y-17134341D01*
X8765301Y-17134341D02*
X8765301Y-17096246D01*
X8765301Y-17096246D02*
X8774825Y-17048627D01*
X8774825Y-17048627D02*
X8784349Y-17020055D01*
X8784349Y-17020055D02*
X8793873Y-17001008D01*
X8793873Y-17001008D02*
X8812920Y-16972436D01*
X8812920Y-16972436D02*
X8822444Y-16962912D01*
X8898634Y-17058150D02*
X8898634Y-17191484D01*
X8898634Y-17077198D02*
X8908158Y-17067674D01*
X8908158Y-17067674D02*
X8927206Y-17058150D01*
X8927206Y-17058150D02*
X8955777Y-17058150D01*
X8955777Y-17058150D02*
X8974825Y-17067674D01*
X8974825Y-17067674D02*
X8984349Y-17086722D01*
X8984349Y-17086722D02*
X8984349Y-17191484D01*
X9108158Y-17191484D02*
X9089111Y-17181960D01*
X9089111Y-17181960D02*
X9079587Y-17172436D01*
X9079587Y-17172436D02*
X9070063Y-17153389D01*
X9070063Y-17153389D02*
X9070063Y-17096246D01*
X9070063Y-17096246D02*
X9079587Y-17077198D01*
X9079587Y-17077198D02*
X9089111Y-17067674D01*
X9089111Y-17067674D02*
X9108158Y-17058150D01*
X9108158Y-17058150D02*
X9136730Y-17058150D01*
X9136730Y-17058150D02*
X9155777Y-17067674D01*
X9155777Y-17067674D02*
X9165301Y-17077198D01*
X9165301Y-17077198D02*
X9174825Y-17096246D01*
X9174825Y-17096246D02*
X9174825Y-17153389D01*
X9174825Y-17153389D02*
X9165301Y-17172436D01*
X9165301Y-17172436D02*
X9155777Y-17181960D01*
X9155777Y-17181960D02*
X9136730Y-17191484D01*
X9136730Y-17191484D02*
X9108158Y-17191484D01*
X9231968Y-17058150D02*
X9308158Y-17058150D01*
X9260539Y-16991484D02*
X9260539Y-17162912D01*
X9260539Y-17162912D02*
X9270063Y-17181960D01*
X9270063Y-17181960D02*
X9289111Y-17191484D01*
X9289111Y-17191484D02*
X9308158Y-17191484D01*
X9527206Y-17058150D02*
X9527206Y-17258150D01*
X9527206Y-17067674D02*
X9546254Y-17058150D01*
X9546254Y-17058150D02*
X9584349Y-17058150D01*
X9584349Y-17058150D02*
X9603396Y-17067674D01*
X9603396Y-17067674D02*
X9612920Y-17077198D01*
X9612920Y-17077198D02*
X9622444Y-17096246D01*
X9622444Y-17096246D02*
X9622444Y-17153389D01*
X9622444Y-17153389D02*
X9612920Y-17172436D01*
X9612920Y-17172436D02*
X9603396Y-17181960D01*
X9603396Y-17181960D02*
X9584349Y-17191484D01*
X9584349Y-17191484D02*
X9546254Y-17191484D01*
X9546254Y-17191484D02*
X9527206Y-17181960D01*
X9736730Y-17191484D02*
X9717682Y-17181960D01*
X9717682Y-17181960D02*
X9708158Y-17162912D01*
X9708158Y-17162912D02*
X9708158Y-16991484D01*
X9898635Y-17191484D02*
X9898635Y-17086722D01*
X9898635Y-17086722D02*
X9889111Y-17067674D01*
X9889111Y-17067674D02*
X9870063Y-17058150D01*
X9870063Y-17058150D02*
X9831968Y-17058150D01*
X9831968Y-17058150D02*
X9812920Y-17067674D01*
X9898635Y-17181960D02*
X9879587Y-17191484D01*
X9879587Y-17191484D02*
X9831968Y-17191484D01*
X9831968Y-17191484D02*
X9812920Y-17181960D01*
X9812920Y-17181960D02*
X9803396Y-17162912D01*
X9803396Y-17162912D02*
X9803396Y-17143865D01*
X9803396Y-17143865D02*
X9812920Y-17124817D01*
X9812920Y-17124817D02*
X9831968Y-17115293D01*
X9831968Y-17115293D02*
X9879587Y-17115293D01*
X9879587Y-17115293D02*
X9898635Y-17105770D01*
X9965301Y-17058150D02*
X10041492Y-17058150D01*
X9993873Y-16991484D02*
X9993873Y-17162912D01*
X9993873Y-17162912D02*
X10003396Y-17181960D01*
X10003396Y-17181960D02*
X10022444Y-17191484D01*
X10022444Y-17191484D02*
X10041492Y-17191484D01*
X10184349Y-17181960D02*
X10165301Y-17191484D01*
X10165301Y-17191484D02*
X10127206Y-17191484D01*
X10127206Y-17191484D02*
X10108158Y-17181960D01*
X10108158Y-17181960D02*
X10098635Y-17162912D01*
X10098635Y-17162912D02*
X10098635Y-17086722D01*
X10098635Y-17086722D02*
X10108158Y-17067674D01*
X10108158Y-17067674D02*
X10127206Y-17058150D01*
X10127206Y-17058150D02*
X10165301Y-17058150D01*
X10165301Y-17058150D02*
X10184349Y-17067674D01*
X10184349Y-17067674D02*
X10193873Y-17086722D01*
X10193873Y-17086722D02*
X10193873Y-17105770D01*
X10193873Y-17105770D02*
X10098635Y-17124817D01*
X10365301Y-17191484D02*
X10365301Y-16991484D01*
X10365301Y-17181960D02*
X10346254Y-17191484D01*
X10346254Y-17191484D02*
X10308158Y-17191484D01*
X10308158Y-17191484D02*
X10289111Y-17181960D01*
X10289111Y-17181960D02*
X10279587Y-17172436D01*
X10279587Y-17172436D02*
X10270063Y-17153389D01*
X10270063Y-17153389D02*
X10270063Y-17096246D01*
X10270063Y-17096246D02*
X10279587Y-17077198D01*
X10279587Y-17077198D02*
X10289111Y-17067674D01*
X10289111Y-17067674D02*
X10308158Y-17058150D01*
X10308158Y-17058150D02*
X10346254Y-17058150D01*
X10346254Y-17058150D02*
X10365301Y-17067674D01*
X10441492Y-17267674D02*
X10451016Y-17258150D01*
X10451016Y-17258150D02*
X10470063Y-17229579D01*
X10470063Y-17229579D02*
X10479587Y-17210531D01*
X10479587Y-17210531D02*
X10489111Y-17181960D01*
X10489111Y-17181960D02*
X10498635Y-17134341D01*
X10498635Y-17134341D02*
X10498635Y-17096246D01*
X10498635Y-17096246D02*
X10489111Y-17048627D01*
X10489111Y-17048627D02*
X10479587Y-17020055D01*
X10479587Y-17020055D02*
X10470063Y-17001008D01*
X10470063Y-17001008D02*
X10451016Y-16972436D01*
X10451016Y-16972436D02*
X10441492Y-16962912D01*
D14*
X3410000Y-17300000D02*
X3410000Y-17470000D01*
X3325000Y-17385000D02*
X3495000Y-17385000D01*
D11*
X3860539Y-17476484D02*
X3746253Y-17476484D01*
X3803396Y-17476484D02*
X3803396Y-17276484D01*
X3803396Y-17276484D02*
X3784348Y-17305055D01*
X3784348Y-17305055D02*
X3765301Y-17324103D01*
X3765301Y-17324103D02*
X3746253Y-17333627D01*
X3946253Y-17457436D02*
X3955777Y-17466960D01*
X3955777Y-17466960D02*
X3946253Y-17476484D01*
X3946253Y-17476484D02*
X3936729Y-17466960D01*
X3936729Y-17466960D02*
X3946253Y-17457436D01*
X3946253Y-17457436D02*
X3946253Y-17476484D01*
X4022443Y-17276484D02*
X4155777Y-17276484D01*
X4155777Y-17276484D02*
X4070062Y-17476484D01*
X4270063Y-17276484D02*
X4289110Y-17276484D01*
X4289110Y-17276484D02*
X4308158Y-17286008D01*
X4308158Y-17286008D02*
X4317682Y-17295531D01*
X4317682Y-17295531D02*
X4327205Y-17314579D01*
X4327205Y-17314579D02*
X4336729Y-17352674D01*
X4336729Y-17352674D02*
X4336729Y-17400293D01*
X4336729Y-17400293D02*
X4327205Y-17438389D01*
X4327205Y-17438389D02*
X4317682Y-17457436D01*
X4317682Y-17457436D02*
X4308158Y-17466960D01*
X4308158Y-17466960D02*
X4289110Y-17476484D01*
X4289110Y-17476484D02*
X4270063Y-17476484D01*
X4270063Y-17476484D02*
X4251015Y-17466960D01*
X4251015Y-17466960D02*
X4241491Y-17457436D01*
X4241491Y-17457436D02*
X4231967Y-17438389D01*
X4231967Y-17438389D02*
X4222444Y-17400293D01*
X4222444Y-17400293D02*
X4222444Y-17352674D01*
X4222444Y-17352674D02*
X4231967Y-17314579D01*
X4231967Y-17314579D02*
X4241491Y-17295531D01*
X4241491Y-17295531D02*
X4251015Y-17286008D01*
X4251015Y-17286008D02*
X4270063Y-17276484D01*
X4460539Y-17276484D02*
X4479586Y-17276484D01*
X4479586Y-17276484D02*
X4498634Y-17286008D01*
X4498634Y-17286008D02*
X4508158Y-17295531D01*
X4508158Y-17295531D02*
X4517682Y-17314579D01*
X4517682Y-17314579D02*
X4527205Y-17352674D01*
X4527205Y-17352674D02*
X4527205Y-17400293D01*
X4527205Y-17400293D02*
X4517682Y-17438389D01*
X4517682Y-17438389D02*
X4508158Y-17457436D01*
X4508158Y-17457436D02*
X4498634Y-17466960D01*
X4498634Y-17466960D02*
X4479586Y-17476484D01*
X4479586Y-17476484D02*
X4460539Y-17476484D01*
X4460539Y-17476484D02*
X4441491Y-17466960D01*
X4441491Y-17466960D02*
X4431967Y-17457436D01*
X4431967Y-17457436D02*
X4422444Y-17438389D01*
X4422444Y-17438389D02*
X4412920Y-17400293D01*
X4412920Y-17400293D02*
X4412920Y-17352674D01*
X4412920Y-17352674D02*
X4422444Y-17314579D01*
X4422444Y-17314579D02*
X4431967Y-17295531D01*
X4431967Y-17295531D02*
X4441491Y-17286008D01*
X4441491Y-17286008D02*
X4460539Y-17276484D01*
X4612920Y-17476484D02*
X4612920Y-17343150D01*
X4612920Y-17362198D02*
X4622444Y-17352674D01*
X4622444Y-17352674D02*
X4641491Y-17343150D01*
X4641491Y-17343150D02*
X4670063Y-17343150D01*
X4670063Y-17343150D02*
X4689110Y-17352674D01*
X4689110Y-17352674D02*
X4698634Y-17371722D01*
X4698634Y-17371722D02*
X4698634Y-17476484D01*
X4698634Y-17371722D02*
X4708158Y-17352674D01*
X4708158Y-17352674D02*
X4727205Y-17343150D01*
X4727205Y-17343150D02*
X4755777Y-17343150D01*
X4755777Y-17343150D02*
X4774825Y-17352674D01*
X4774825Y-17352674D02*
X4784348Y-17371722D01*
X4784348Y-17371722D02*
X4784348Y-17476484D01*
X4879586Y-17476484D02*
X4879586Y-17343150D01*
X4879586Y-17362198D02*
X4889110Y-17352674D01*
X4889110Y-17352674D02*
X4908158Y-17343150D01*
X4908158Y-17343150D02*
X4936729Y-17343150D01*
X4936729Y-17343150D02*
X4955777Y-17352674D01*
X4955777Y-17352674D02*
X4965301Y-17371722D01*
X4965301Y-17371722D02*
X4965301Y-17476484D01*
X4965301Y-17371722D02*
X4974825Y-17352674D01*
X4974825Y-17352674D02*
X4993872Y-17343150D01*
X4993872Y-17343150D02*
X5022444Y-17343150D01*
X5022444Y-17343150D02*
X5041491Y-17352674D01*
X5041491Y-17352674D02*
X5051015Y-17371722D01*
X5051015Y-17371722D02*
X5051015Y-17476484D01*
X5441491Y-17266960D02*
X5270063Y-17524103D01*
X5698634Y-17276484D02*
X5717682Y-17276484D01*
X5717682Y-17276484D02*
X5736729Y-17286008D01*
X5736729Y-17286008D02*
X5746253Y-17295531D01*
X5746253Y-17295531D02*
X5755777Y-17314579D01*
X5755777Y-17314579D02*
X5765301Y-17352674D01*
X5765301Y-17352674D02*
X5765301Y-17400293D01*
X5765301Y-17400293D02*
X5755777Y-17438389D01*
X5755777Y-17438389D02*
X5746253Y-17457436D01*
X5746253Y-17457436D02*
X5736729Y-17466960D01*
X5736729Y-17466960D02*
X5717682Y-17476484D01*
X5717682Y-17476484D02*
X5698634Y-17476484D01*
X5698634Y-17476484D02*
X5679586Y-17466960D01*
X5679586Y-17466960D02*
X5670063Y-17457436D01*
X5670063Y-17457436D02*
X5660539Y-17438389D01*
X5660539Y-17438389D02*
X5651015Y-17400293D01*
X5651015Y-17400293D02*
X5651015Y-17352674D01*
X5651015Y-17352674D02*
X5660539Y-17314579D01*
X5660539Y-17314579D02*
X5670063Y-17295531D01*
X5670063Y-17295531D02*
X5679586Y-17286008D01*
X5679586Y-17286008D02*
X5698634Y-17276484D01*
X5851015Y-17457436D02*
X5860539Y-17466960D01*
X5860539Y-17466960D02*
X5851015Y-17476484D01*
X5851015Y-17476484D02*
X5841491Y-17466960D01*
X5841491Y-17466960D02*
X5851015Y-17457436D01*
X5851015Y-17457436D02*
X5851015Y-17476484D01*
X5984348Y-17276484D02*
X6003396Y-17276484D01*
X6003396Y-17276484D02*
X6022444Y-17286008D01*
X6022444Y-17286008D02*
X6031967Y-17295531D01*
X6031967Y-17295531D02*
X6041491Y-17314579D01*
X6041491Y-17314579D02*
X6051015Y-17352674D01*
X6051015Y-17352674D02*
X6051015Y-17400293D01*
X6051015Y-17400293D02*
X6041491Y-17438389D01*
X6041491Y-17438389D02*
X6031967Y-17457436D01*
X6031967Y-17457436D02*
X6022444Y-17466960D01*
X6022444Y-17466960D02*
X6003396Y-17476484D01*
X6003396Y-17476484D02*
X5984348Y-17476484D01*
X5984348Y-17476484D02*
X5965301Y-17466960D01*
X5965301Y-17466960D02*
X5955777Y-17457436D01*
X5955777Y-17457436D02*
X5946253Y-17438389D01*
X5946253Y-17438389D02*
X5936729Y-17400293D01*
X5936729Y-17400293D02*
X5936729Y-17352674D01*
X5936729Y-17352674D02*
X5946253Y-17314579D01*
X5946253Y-17314579D02*
X5955777Y-17295531D01*
X5955777Y-17295531D02*
X5965301Y-17286008D01*
X5965301Y-17286008D02*
X5984348Y-17276484D01*
X6222444Y-17276484D02*
X6184348Y-17276484D01*
X6184348Y-17276484D02*
X6165301Y-17286008D01*
X6165301Y-17286008D02*
X6155777Y-17295531D01*
X6155777Y-17295531D02*
X6136729Y-17324103D01*
X6136729Y-17324103D02*
X6127206Y-17362198D01*
X6127206Y-17362198D02*
X6127206Y-17438389D01*
X6127206Y-17438389D02*
X6136729Y-17457436D01*
X6136729Y-17457436D02*
X6146253Y-17466960D01*
X6146253Y-17466960D02*
X6165301Y-17476484D01*
X6165301Y-17476484D02*
X6203396Y-17476484D01*
X6203396Y-17476484D02*
X6222444Y-17466960D01*
X6222444Y-17466960D02*
X6231967Y-17457436D01*
X6231967Y-17457436D02*
X6241491Y-17438389D01*
X6241491Y-17438389D02*
X6241491Y-17390770D01*
X6241491Y-17390770D02*
X6231967Y-17371722D01*
X6231967Y-17371722D02*
X6222444Y-17362198D01*
X6222444Y-17362198D02*
X6203396Y-17352674D01*
X6203396Y-17352674D02*
X6165301Y-17352674D01*
X6165301Y-17352674D02*
X6146253Y-17362198D01*
X6146253Y-17362198D02*
X6136729Y-17371722D01*
X6136729Y-17371722D02*
X6127206Y-17390770D01*
X6412920Y-17276484D02*
X6374825Y-17276484D01*
X6374825Y-17276484D02*
X6355777Y-17286008D01*
X6355777Y-17286008D02*
X6346253Y-17295531D01*
X6346253Y-17295531D02*
X6327206Y-17324103D01*
X6327206Y-17324103D02*
X6317682Y-17362198D01*
X6317682Y-17362198D02*
X6317682Y-17438389D01*
X6317682Y-17438389D02*
X6327206Y-17457436D01*
X6327206Y-17457436D02*
X6336729Y-17466960D01*
X6336729Y-17466960D02*
X6355777Y-17476484D01*
X6355777Y-17476484D02*
X6393872Y-17476484D01*
X6393872Y-17476484D02*
X6412920Y-17466960D01*
X6412920Y-17466960D02*
X6422444Y-17457436D01*
X6422444Y-17457436D02*
X6431967Y-17438389D01*
X6431967Y-17438389D02*
X6431967Y-17390770D01*
X6431967Y-17390770D02*
X6422444Y-17371722D01*
X6422444Y-17371722D02*
X6412920Y-17362198D01*
X6412920Y-17362198D02*
X6393872Y-17352674D01*
X6393872Y-17352674D02*
X6355777Y-17352674D01*
X6355777Y-17352674D02*
X6336729Y-17362198D01*
X6336729Y-17362198D02*
X6327206Y-17371722D01*
X6327206Y-17371722D02*
X6317682Y-17390770D01*
X6527206Y-17476484D02*
X6565301Y-17476484D01*
X6565301Y-17476484D02*
X6584348Y-17466960D01*
X6584348Y-17466960D02*
X6593872Y-17457436D01*
X6593872Y-17457436D02*
X6612920Y-17428865D01*
X6612920Y-17428865D02*
X6622444Y-17390770D01*
X6622444Y-17390770D02*
X6622444Y-17314579D01*
X6622444Y-17314579D02*
X6612920Y-17295531D01*
X6612920Y-17295531D02*
X6603396Y-17286008D01*
X6603396Y-17286008D02*
X6584348Y-17276484D01*
X6584348Y-17276484D02*
X6546253Y-17276484D01*
X6546253Y-17276484D02*
X6527206Y-17286008D01*
X6527206Y-17286008D02*
X6517682Y-17295531D01*
X6517682Y-17295531D02*
X6508158Y-17314579D01*
X6508158Y-17314579D02*
X6508158Y-17362198D01*
X6508158Y-17362198D02*
X6517682Y-17381246D01*
X6517682Y-17381246D02*
X6527206Y-17390770D01*
X6527206Y-17390770D02*
X6546253Y-17400293D01*
X6546253Y-17400293D02*
X6584348Y-17400293D01*
X6584348Y-17400293D02*
X6603396Y-17390770D01*
X6603396Y-17390770D02*
X6612920Y-17381246D01*
X6612920Y-17381246D02*
X6622444Y-17362198D01*
X6698634Y-17276484D02*
X6698634Y-17314579D01*
X6774825Y-17276484D02*
X6774825Y-17314579D01*
X7070063Y-17552674D02*
X7060539Y-17543150D01*
X7060539Y-17543150D02*
X7041491Y-17514579D01*
X7041491Y-17514579D02*
X7031968Y-17495531D01*
X7031968Y-17495531D02*
X7022444Y-17466960D01*
X7022444Y-17466960D02*
X7012920Y-17419341D01*
X7012920Y-17419341D02*
X7012920Y-17381246D01*
X7012920Y-17381246D02*
X7022444Y-17333627D01*
X7022444Y-17333627D02*
X7031968Y-17305055D01*
X7031968Y-17305055D02*
X7041491Y-17286008D01*
X7041491Y-17286008D02*
X7060539Y-17257436D01*
X7060539Y-17257436D02*
X7070063Y-17247912D01*
X7231968Y-17276484D02*
X7193872Y-17276484D01*
X7193872Y-17276484D02*
X7174825Y-17286008D01*
X7174825Y-17286008D02*
X7165301Y-17295531D01*
X7165301Y-17295531D02*
X7146253Y-17324103D01*
X7146253Y-17324103D02*
X7136729Y-17362198D01*
X7136729Y-17362198D02*
X7136729Y-17438389D01*
X7136729Y-17438389D02*
X7146253Y-17457436D01*
X7146253Y-17457436D02*
X7155777Y-17466960D01*
X7155777Y-17466960D02*
X7174825Y-17476484D01*
X7174825Y-17476484D02*
X7212920Y-17476484D01*
X7212920Y-17476484D02*
X7231968Y-17466960D01*
X7231968Y-17466960D02*
X7241491Y-17457436D01*
X7241491Y-17457436D02*
X7251015Y-17438389D01*
X7251015Y-17438389D02*
X7251015Y-17390770D01*
X7251015Y-17390770D02*
X7241491Y-17371722D01*
X7241491Y-17371722D02*
X7231968Y-17362198D01*
X7231968Y-17362198D02*
X7212920Y-17352674D01*
X7212920Y-17352674D02*
X7174825Y-17352674D01*
X7174825Y-17352674D02*
X7155777Y-17362198D01*
X7155777Y-17362198D02*
X7146253Y-17371722D01*
X7146253Y-17371722D02*
X7136729Y-17390770D01*
X7327206Y-17295531D02*
X7336729Y-17286008D01*
X7336729Y-17286008D02*
X7355777Y-17276484D01*
X7355777Y-17276484D02*
X7403396Y-17276484D01*
X7403396Y-17276484D02*
X7422444Y-17286008D01*
X7422444Y-17286008D02*
X7431968Y-17295531D01*
X7431968Y-17295531D02*
X7441491Y-17314579D01*
X7441491Y-17314579D02*
X7441491Y-17333627D01*
X7441491Y-17333627D02*
X7431968Y-17362198D01*
X7431968Y-17362198D02*
X7317682Y-17476484D01*
X7317682Y-17476484D02*
X7441491Y-17476484D01*
X7679587Y-17476484D02*
X7679587Y-17276484D01*
X7765301Y-17476484D02*
X7765301Y-17371722D01*
X7765301Y-17371722D02*
X7755777Y-17352674D01*
X7755777Y-17352674D02*
X7736730Y-17343150D01*
X7736730Y-17343150D02*
X7708158Y-17343150D01*
X7708158Y-17343150D02*
X7689110Y-17352674D01*
X7689110Y-17352674D02*
X7679587Y-17362198D01*
X7889110Y-17476484D02*
X7870063Y-17466960D01*
X7870063Y-17466960D02*
X7860539Y-17457436D01*
X7860539Y-17457436D02*
X7851015Y-17438389D01*
X7851015Y-17438389D02*
X7851015Y-17381246D01*
X7851015Y-17381246D02*
X7860539Y-17362198D01*
X7860539Y-17362198D02*
X7870063Y-17352674D01*
X7870063Y-17352674D02*
X7889110Y-17343150D01*
X7889110Y-17343150D02*
X7917682Y-17343150D01*
X7917682Y-17343150D02*
X7936730Y-17352674D01*
X7936730Y-17352674D02*
X7946253Y-17362198D01*
X7946253Y-17362198D02*
X7955777Y-17381246D01*
X7955777Y-17381246D02*
X7955777Y-17438389D01*
X7955777Y-17438389D02*
X7946253Y-17457436D01*
X7946253Y-17457436D02*
X7936730Y-17466960D01*
X7936730Y-17466960D02*
X7917682Y-17476484D01*
X7917682Y-17476484D02*
X7889110Y-17476484D01*
X8070063Y-17476484D02*
X8051015Y-17466960D01*
X8051015Y-17466960D02*
X8041491Y-17447912D01*
X8041491Y-17447912D02*
X8041491Y-17276484D01*
X8222444Y-17466960D02*
X8203396Y-17476484D01*
X8203396Y-17476484D02*
X8165301Y-17476484D01*
X8165301Y-17476484D02*
X8146253Y-17466960D01*
X8146253Y-17466960D02*
X8136730Y-17447912D01*
X8136730Y-17447912D02*
X8136730Y-17371722D01*
X8136730Y-17371722D02*
X8146253Y-17352674D01*
X8146253Y-17352674D02*
X8165301Y-17343150D01*
X8165301Y-17343150D02*
X8203396Y-17343150D01*
X8203396Y-17343150D02*
X8222444Y-17352674D01*
X8222444Y-17352674D02*
X8231968Y-17371722D01*
X8231968Y-17371722D02*
X8231968Y-17390770D01*
X8231968Y-17390770D02*
X8136730Y-17409817D01*
X8308158Y-17466960D02*
X8327206Y-17476484D01*
X8327206Y-17476484D02*
X8365301Y-17476484D01*
X8365301Y-17476484D02*
X8384349Y-17466960D01*
X8384349Y-17466960D02*
X8393873Y-17447912D01*
X8393873Y-17447912D02*
X8393873Y-17438389D01*
X8393873Y-17438389D02*
X8384349Y-17419341D01*
X8384349Y-17419341D02*
X8365301Y-17409817D01*
X8365301Y-17409817D02*
X8336730Y-17409817D01*
X8336730Y-17409817D02*
X8317682Y-17400293D01*
X8317682Y-17400293D02*
X8308158Y-17381246D01*
X8308158Y-17381246D02*
X8308158Y-17371722D01*
X8308158Y-17371722D02*
X8317682Y-17352674D01*
X8317682Y-17352674D02*
X8336730Y-17343150D01*
X8336730Y-17343150D02*
X8365301Y-17343150D01*
X8365301Y-17343150D02*
X8384349Y-17352674D01*
X8460539Y-17552674D02*
X8470063Y-17543150D01*
X8470063Y-17543150D02*
X8489111Y-17514579D01*
X8489111Y-17514579D02*
X8498634Y-17495531D01*
X8498634Y-17495531D02*
X8508158Y-17466960D01*
X8508158Y-17466960D02*
X8517682Y-17419341D01*
X8517682Y-17419341D02*
X8517682Y-17381246D01*
X8517682Y-17381246D02*
X8508158Y-17333627D01*
X8508158Y-17333627D02*
X8498634Y-17305055D01*
X8498634Y-17305055D02*
X8489111Y-17286008D01*
X8489111Y-17286008D02*
X8470063Y-17257436D01*
X8470063Y-17257436D02*
X8460539Y-17247912D01*
X8822444Y-17552674D02*
X8812920Y-17543150D01*
X8812920Y-17543150D02*
X8793873Y-17514579D01*
X8793873Y-17514579D02*
X8784349Y-17495531D01*
X8784349Y-17495531D02*
X8774825Y-17466960D01*
X8774825Y-17466960D02*
X8765301Y-17419341D01*
X8765301Y-17419341D02*
X8765301Y-17381246D01*
X8765301Y-17381246D02*
X8774825Y-17333627D01*
X8774825Y-17333627D02*
X8784349Y-17305055D01*
X8784349Y-17305055D02*
X8793873Y-17286008D01*
X8793873Y-17286008D02*
X8812920Y-17257436D01*
X8812920Y-17257436D02*
X8822444Y-17247912D01*
X8898634Y-17343150D02*
X8898634Y-17476484D01*
X8898634Y-17362198D02*
X8908158Y-17352674D01*
X8908158Y-17352674D02*
X8927206Y-17343150D01*
X8927206Y-17343150D02*
X8955777Y-17343150D01*
X8955777Y-17343150D02*
X8974825Y-17352674D01*
X8974825Y-17352674D02*
X8984349Y-17371722D01*
X8984349Y-17371722D02*
X8984349Y-17476484D01*
X9108158Y-17476484D02*
X9089111Y-17466960D01*
X9089111Y-17466960D02*
X9079587Y-17457436D01*
X9079587Y-17457436D02*
X9070063Y-17438389D01*
X9070063Y-17438389D02*
X9070063Y-17381246D01*
X9070063Y-17381246D02*
X9079587Y-17362198D01*
X9079587Y-17362198D02*
X9089111Y-17352674D01*
X9089111Y-17352674D02*
X9108158Y-17343150D01*
X9108158Y-17343150D02*
X9136730Y-17343150D01*
X9136730Y-17343150D02*
X9155777Y-17352674D01*
X9155777Y-17352674D02*
X9165301Y-17362198D01*
X9165301Y-17362198D02*
X9174825Y-17381246D01*
X9174825Y-17381246D02*
X9174825Y-17438389D01*
X9174825Y-17438389D02*
X9165301Y-17457436D01*
X9165301Y-17457436D02*
X9155777Y-17466960D01*
X9155777Y-17466960D02*
X9136730Y-17476484D01*
X9136730Y-17476484D02*
X9108158Y-17476484D01*
X9231968Y-17343150D02*
X9308158Y-17343150D01*
X9260539Y-17276484D02*
X9260539Y-17447912D01*
X9260539Y-17447912D02*
X9270063Y-17466960D01*
X9270063Y-17466960D02*
X9289111Y-17476484D01*
X9289111Y-17476484D02*
X9308158Y-17476484D01*
X9527206Y-17343150D02*
X9527206Y-17543150D01*
X9527206Y-17352674D02*
X9546254Y-17343150D01*
X9546254Y-17343150D02*
X9584349Y-17343150D01*
X9584349Y-17343150D02*
X9603396Y-17352674D01*
X9603396Y-17352674D02*
X9612920Y-17362198D01*
X9612920Y-17362198D02*
X9622444Y-17381246D01*
X9622444Y-17381246D02*
X9622444Y-17438389D01*
X9622444Y-17438389D02*
X9612920Y-17457436D01*
X9612920Y-17457436D02*
X9603396Y-17466960D01*
X9603396Y-17466960D02*
X9584349Y-17476484D01*
X9584349Y-17476484D02*
X9546254Y-17476484D01*
X9546254Y-17476484D02*
X9527206Y-17466960D01*
X9736730Y-17476484D02*
X9717682Y-17466960D01*
X9717682Y-17466960D02*
X9708158Y-17447912D01*
X9708158Y-17447912D02*
X9708158Y-17276484D01*
X9898635Y-17476484D02*
X9898635Y-17371722D01*
X9898635Y-17371722D02*
X9889111Y-17352674D01*
X9889111Y-17352674D02*
X9870063Y-17343150D01*
X9870063Y-17343150D02*
X9831968Y-17343150D01*
X9831968Y-17343150D02*
X9812920Y-17352674D01*
X9898635Y-17466960D02*
X9879587Y-17476484D01*
X9879587Y-17476484D02*
X9831968Y-17476484D01*
X9831968Y-17476484D02*
X9812920Y-17466960D01*
X9812920Y-17466960D02*
X9803396Y-17447912D01*
X9803396Y-17447912D02*
X9803396Y-17428865D01*
X9803396Y-17428865D02*
X9812920Y-17409817D01*
X9812920Y-17409817D02*
X9831968Y-17400293D01*
X9831968Y-17400293D02*
X9879587Y-17400293D01*
X9879587Y-17400293D02*
X9898635Y-17390770D01*
X9965301Y-17343150D02*
X10041492Y-17343150D01*
X9993873Y-17276484D02*
X9993873Y-17447912D01*
X9993873Y-17447912D02*
X10003396Y-17466960D01*
X10003396Y-17466960D02*
X10022444Y-17476484D01*
X10022444Y-17476484D02*
X10041492Y-17476484D01*
X10184349Y-17466960D02*
X10165301Y-17476484D01*
X10165301Y-17476484D02*
X10127206Y-17476484D01*
X10127206Y-17476484D02*
X10108158Y-17466960D01*
X10108158Y-17466960D02*
X10098635Y-17447912D01*
X10098635Y-17447912D02*
X10098635Y-17371722D01*
X10098635Y-17371722D02*
X10108158Y-17352674D01*
X10108158Y-17352674D02*
X10127206Y-17343150D01*
X10127206Y-17343150D02*
X10165301Y-17343150D01*
X10165301Y-17343150D02*
X10184349Y-17352674D01*
X10184349Y-17352674D02*
X10193873Y-17371722D01*
X10193873Y-17371722D02*
X10193873Y-17390770D01*
X10193873Y-17390770D02*
X10098635Y-17409817D01*
X10365301Y-17476484D02*
X10365301Y-17276484D01*
X10365301Y-17466960D02*
X10346254Y-17476484D01*
X10346254Y-17476484D02*
X10308158Y-17476484D01*
X10308158Y-17476484D02*
X10289111Y-17466960D01*
X10289111Y-17466960D02*
X10279587Y-17457436D01*
X10279587Y-17457436D02*
X10270063Y-17438389D01*
X10270063Y-17438389D02*
X10270063Y-17381246D01*
X10270063Y-17381246D02*
X10279587Y-17362198D01*
X10279587Y-17362198D02*
X10289111Y-17352674D01*
X10289111Y-17352674D02*
X10308158Y-17343150D01*
X10308158Y-17343150D02*
X10346254Y-17343150D01*
X10346254Y-17343150D02*
X10365301Y-17352674D01*
X10441492Y-17552674D02*
X10451016Y-17543150D01*
X10451016Y-17543150D02*
X10470063Y-17514579D01*
X10470063Y-17514579D02*
X10479587Y-17495531D01*
X10479587Y-17495531D02*
X10489111Y-17466960D01*
X10489111Y-17466960D02*
X10498635Y-17419341D01*
X10498635Y-17419341D02*
X10498635Y-17381246D01*
X10498635Y-17381246D02*
X10489111Y-17333627D01*
X10489111Y-17333627D02*
X10479587Y-17305055D01*
X10479587Y-17305055D02*
X10470063Y-17286008D01*
X10470063Y-17286008D02*
X10451016Y-17257436D01*
X10451016Y-17257436D02*
X10441492Y-17247912D01*
X3465711Y-17745711D02*
X3465711Y-17604289D01*
X3324289Y-17604289D01*
X3324289Y-17745711D01*
X3465711Y-17745711D01*
X3746253Y-17585531D02*
X3755777Y-17576008D01*
X3755777Y-17576008D02*
X3774824Y-17566484D01*
X3774824Y-17566484D02*
X3822443Y-17566484D01*
X3822443Y-17566484D02*
X3841491Y-17576008D01*
X3841491Y-17576008D02*
X3851015Y-17585531D01*
X3851015Y-17585531D02*
X3860539Y-17604579D01*
X3860539Y-17604579D02*
X3860539Y-17623627D01*
X3860539Y-17623627D02*
X3851015Y-17652198D01*
X3851015Y-17652198D02*
X3736729Y-17766484D01*
X3736729Y-17766484D02*
X3860539Y-17766484D01*
X3946253Y-17747436D02*
X3955777Y-17756960D01*
X3955777Y-17756960D02*
X3946253Y-17766484D01*
X3946253Y-17766484D02*
X3936729Y-17756960D01*
X3936729Y-17756960D02*
X3946253Y-17747436D01*
X3946253Y-17747436D02*
X3946253Y-17766484D01*
X4031967Y-17585531D02*
X4041491Y-17576008D01*
X4041491Y-17576008D02*
X4060539Y-17566484D01*
X4060539Y-17566484D02*
X4108158Y-17566484D01*
X4108158Y-17566484D02*
X4127205Y-17576008D01*
X4127205Y-17576008D02*
X4136729Y-17585531D01*
X4136729Y-17585531D02*
X4146253Y-17604579D01*
X4146253Y-17604579D02*
X4146253Y-17623627D01*
X4146253Y-17623627D02*
X4136729Y-17652198D01*
X4136729Y-17652198D02*
X4022443Y-17766484D01*
X4022443Y-17766484D02*
X4146253Y-17766484D01*
X4270063Y-17566484D02*
X4289110Y-17566484D01*
X4289110Y-17566484D02*
X4308158Y-17576008D01*
X4308158Y-17576008D02*
X4317682Y-17585531D01*
X4317682Y-17585531D02*
X4327205Y-17604579D01*
X4327205Y-17604579D02*
X4336729Y-17642674D01*
X4336729Y-17642674D02*
X4336729Y-17690293D01*
X4336729Y-17690293D02*
X4327205Y-17728389D01*
X4327205Y-17728389D02*
X4317682Y-17747436D01*
X4317682Y-17747436D02*
X4308158Y-17756960D01*
X4308158Y-17756960D02*
X4289110Y-17766484D01*
X4289110Y-17766484D02*
X4270063Y-17766484D01*
X4270063Y-17766484D02*
X4251015Y-17756960D01*
X4251015Y-17756960D02*
X4241491Y-17747436D01*
X4241491Y-17747436D02*
X4231967Y-17728389D01*
X4231967Y-17728389D02*
X4222444Y-17690293D01*
X4222444Y-17690293D02*
X4222444Y-17642674D01*
X4222444Y-17642674D02*
X4231967Y-17604579D01*
X4231967Y-17604579D02*
X4241491Y-17585531D01*
X4241491Y-17585531D02*
X4251015Y-17576008D01*
X4251015Y-17576008D02*
X4270063Y-17566484D01*
X4460539Y-17566484D02*
X4479586Y-17566484D01*
X4479586Y-17566484D02*
X4498634Y-17576008D01*
X4498634Y-17576008D02*
X4508158Y-17585531D01*
X4508158Y-17585531D02*
X4517682Y-17604579D01*
X4517682Y-17604579D02*
X4527205Y-17642674D01*
X4527205Y-17642674D02*
X4527205Y-17690293D01*
X4527205Y-17690293D02*
X4517682Y-17728389D01*
X4517682Y-17728389D02*
X4508158Y-17747436D01*
X4508158Y-17747436D02*
X4498634Y-17756960D01*
X4498634Y-17756960D02*
X4479586Y-17766484D01*
X4479586Y-17766484D02*
X4460539Y-17766484D01*
X4460539Y-17766484D02*
X4441491Y-17756960D01*
X4441491Y-17756960D02*
X4431967Y-17747436D01*
X4431967Y-17747436D02*
X4422444Y-17728389D01*
X4422444Y-17728389D02*
X4412920Y-17690293D01*
X4412920Y-17690293D02*
X4412920Y-17642674D01*
X4412920Y-17642674D02*
X4422444Y-17604579D01*
X4422444Y-17604579D02*
X4431967Y-17585531D01*
X4431967Y-17585531D02*
X4441491Y-17576008D01*
X4441491Y-17576008D02*
X4460539Y-17566484D01*
X4612920Y-17766484D02*
X4612920Y-17633150D01*
X4612920Y-17652198D02*
X4622444Y-17642674D01*
X4622444Y-17642674D02*
X4641491Y-17633150D01*
X4641491Y-17633150D02*
X4670063Y-17633150D01*
X4670063Y-17633150D02*
X4689110Y-17642674D01*
X4689110Y-17642674D02*
X4698634Y-17661722D01*
X4698634Y-17661722D02*
X4698634Y-17766484D01*
X4698634Y-17661722D02*
X4708158Y-17642674D01*
X4708158Y-17642674D02*
X4727205Y-17633150D01*
X4727205Y-17633150D02*
X4755777Y-17633150D01*
X4755777Y-17633150D02*
X4774825Y-17642674D01*
X4774825Y-17642674D02*
X4784348Y-17661722D01*
X4784348Y-17661722D02*
X4784348Y-17766484D01*
X4879586Y-17766484D02*
X4879586Y-17633150D01*
X4879586Y-17652198D02*
X4889110Y-17642674D01*
X4889110Y-17642674D02*
X4908158Y-17633150D01*
X4908158Y-17633150D02*
X4936729Y-17633150D01*
X4936729Y-17633150D02*
X4955777Y-17642674D01*
X4955777Y-17642674D02*
X4965301Y-17661722D01*
X4965301Y-17661722D02*
X4965301Y-17766484D01*
X4965301Y-17661722D02*
X4974825Y-17642674D01*
X4974825Y-17642674D02*
X4993872Y-17633150D01*
X4993872Y-17633150D02*
X5022444Y-17633150D01*
X5022444Y-17633150D02*
X5041491Y-17642674D01*
X5041491Y-17642674D02*
X5051015Y-17661722D01*
X5051015Y-17661722D02*
X5051015Y-17766484D01*
X5441491Y-17556960D02*
X5270063Y-17814103D01*
X5698634Y-17566484D02*
X5717682Y-17566484D01*
X5717682Y-17566484D02*
X5736729Y-17576008D01*
X5736729Y-17576008D02*
X5746253Y-17585531D01*
X5746253Y-17585531D02*
X5755777Y-17604579D01*
X5755777Y-17604579D02*
X5765301Y-17642674D01*
X5765301Y-17642674D02*
X5765301Y-17690293D01*
X5765301Y-17690293D02*
X5755777Y-17728389D01*
X5755777Y-17728389D02*
X5746253Y-17747436D01*
X5746253Y-17747436D02*
X5736729Y-17756960D01*
X5736729Y-17756960D02*
X5717682Y-17766484D01*
X5717682Y-17766484D02*
X5698634Y-17766484D01*
X5698634Y-17766484D02*
X5679586Y-17756960D01*
X5679586Y-17756960D02*
X5670063Y-17747436D01*
X5670063Y-17747436D02*
X5660539Y-17728389D01*
X5660539Y-17728389D02*
X5651015Y-17690293D01*
X5651015Y-17690293D02*
X5651015Y-17642674D01*
X5651015Y-17642674D02*
X5660539Y-17604579D01*
X5660539Y-17604579D02*
X5670063Y-17585531D01*
X5670063Y-17585531D02*
X5679586Y-17576008D01*
X5679586Y-17576008D02*
X5698634Y-17566484D01*
X5851015Y-17747436D02*
X5860539Y-17756960D01*
X5860539Y-17756960D02*
X5851015Y-17766484D01*
X5851015Y-17766484D02*
X5841491Y-17756960D01*
X5841491Y-17756960D02*
X5851015Y-17747436D01*
X5851015Y-17747436D02*
X5851015Y-17766484D01*
X5984348Y-17566484D02*
X6003396Y-17566484D01*
X6003396Y-17566484D02*
X6022444Y-17576008D01*
X6022444Y-17576008D02*
X6031967Y-17585531D01*
X6031967Y-17585531D02*
X6041491Y-17604579D01*
X6041491Y-17604579D02*
X6051015Y-17642674D01*
X6051015Y-17642674D02*
X6051015Y-17690293D01*
X6051015Y-17690293D02*
X6041491Y-17728389D01*
X6041491Y-17728389D02*
X6031967Y-17747436D01*
X6031967Y-17747436D02*
X6022444Y-17756960D01*
X6022444Y-17756960D02*
X6003396Y-17766484D01*
X6003396Y-17766484D02*
X5984348Y-17766484D01*
X5984348Y-17766484D02*
X5965301Y-17756960D01*
X5965301Y-17756960D02*
X5955777Y-17747436D01*
X5955777Y-17747436D02*
X5946253Y-17728389D01*
X5946253Y-17728389D02*
X5936729Y-17690293D01*
X5936729Y-17690293D02*
X5936729Y-17642674D01*
X5936729Y-17642674D02*
X5946253Y-17604579D01*
X5946253Y-17604579D02*
X5955777Y-17585531D01*
X5955777Y-17585531D02*
X5965301Y-17576008D01*
X5965301Y-17576008D02*
X5984348Y-17566484D01*
X6165301Y-17652198D02*
X6146253Y-17642674D01*
X6146253Y-17642674D02*
X6136729Y-17633150D01*
X6136729Y-17633150D02*
X6127206Y-17614103D01*
X6127206Y-17614103D02*
X6127206Y-17604579D01*
X6127206Y-17604579D02*
X6136729Y-17585531D01*
X6136729Y-17585531D02*
X6146253Y-17576008D01*
X6146253Y-17576008D02*
X6165301Y-17566484D01*
X6165301Y-17566484D02*
X6203396Y-17566484D01*
X6203396Y-17566484D02*
X6222444Y-17576008D01*
X6222444Y-17576008D02*
X6231967Y-17585531D01*
X6231967Y-17585531D02*
X6241491Y-17604579D01*
X6241491Y-17604579D02*
X6241491Y-17614103D01*
X6241491Y-17614103D02*
X6231967Y-17633150D01*
X6231967Y-17633150D02*
X6222444Y-17642674D01*
X6222444Y-17642674D02*
X6203396Y-17652198D01*
X6203396Y-17652198D02*
X6165301Y-17652198D01*
X6165301Y-17652198D02*
X6146253Y-17661722D01*
X6146253Y-17661722D02*
X6136729Y-17671246D01*
X6136729Y-17671246D02*
X6127206Y-17690293D01*
X6127206Y-17690293D02*
X6127206Y-17728389D01*
X6127206Y-17728389D02*
X6136729Y-17747436D01*
X6136729Y-17747436D02*
X6146253Y-17756960D01*
X6146253Y-17756960D02*
X6165301Y-17766484D01*
X6165301Y-17766484D02*
X6203396Y-17766484D01*
X6203396Y-17766484D02*
X6222444Y-17756960D01*
X6222444Y-17756960D02*
X6231967Y-17747436D01*
X6231967Y-17747436D02*
X6241491Y-17728389D01*
X6241491Y-17728389D02*
X6241491Y-17690293D01*
X6241491Y-17690293D02*
X6231967Y-17671246D01*
X6231967Y-17671246D02*
X6222444Y-17661722D01*
X6222444Y-17661722D02*
X6203396Y-17652198D01*
X6412920Y-17566484D02*
X6374825Y-17566484D01*
X6374825Y-17566484D02*
X6355777Y-17576008D01*
X6355777Y-17576008D02*
X6346253Y-17585531D01*
X6346253Y-17585531D02*
X6327206Y-17614103D01*
X6327206Y-17614103D02*
X6317682Y-17652198D01*
X6317682Y-17652198D02*
X6317682Y-17728389D01*
X6317682Y-17728389D02*
X6327206Y-17747436D01*
X6327206Y-17747436D02*
X6336729Y-17756960D01*
X6336729Y-17756960D02*
X6355777Y-17766484D01*
X6355777Y-17766484D02*
X6393872Y-17766484D01*
X6393872Y-17766484D02*
X6412920Y-17756960D01*
X6412920Y-17756960D02*
X6422444Y-17747436D01*
X6422444Y-17747436D02*
X6431967Y-17728389D01*
X6431967Y-17728389D02*
X6431967Y-17680770D01*
X6431967Y-17680770D02*
X6422444Y-17661722D01*
X6422444Y-17661722D02*
X6412920Y-17652198D01*
X6412920Y-17652198D02*
X6393872Y-17642674D01*
X6393872Y-17642674D02*
X6355777Y-17642674D01*
X6355777Y-17642674D02*
X6336729Y-17652198D01*
X6336729Y-17652198D02*
X6327206Y-17661722D01*
X6327206Y-17661722D02*
X6317682Y-17680770D01*
X6603396Y-17566484D02*
X6565301Y-17566484D01*
X6565301Y-17566484D02*
X6546253Y-17576008D01*
X6546253Y-17576008D02*
X6536729Y-17585531D01*
X6536729Y-17585531D02*
X6517682Y-17614103D01*
X6517682Y-17614103D02*
X6508158Y-17652198D01*
X6508158Y-17652198D02*
X6508158Y-17728389D01*
X6508158Y-17728389D02*
X6517682Y-17747436D01*
X6517682Y-17747436D02*
X6527206Y-17756960D01*
X6527206Y-17756960D02*
X6546253Y-17766484D01*
X6546253Y-17766484D02*
X6584348Y-17766484D01*
X6584348Y-17766484D02*
X6603396Y-17756960D01*
X6603396Y-17756960D02*
X6612920Y-17747436D01*
X6612920Y-17747436D02*
X6622444Y-17728389D01*
X6622444Y-17728389D02*
X6622444Y-17680770D01*
X6622444Y-17680770D02*
X6612920Y-17661722D01*
X6612920Y-17661722D02*
X6603396Y-17652198D01*
X6603396Y-17652198D02*
X6584348Y-17642674D01*
X6584348Y-17642674D02*
X6546253Y-17642674D01*
X6546253Y-17642674D02*
X6527206Y-17652198D01*
X6527206Y-17652198D02*
X6517682Y-17661722D01*
X6517682Y-17661722D02*
X6508158Y-17680770D01*
X6698634Y-17566484D02*
X6698634Y-17604579D01*
X6774825Y-17566484D02*
X6774825Y-17604579D01*
X7070063Y-17842674D02*
X7060539Y-17833150D01*
X7060539Y-17833150D02*
X7041491Y-17804579D01*
X7041491Y-17804579D02*
X7031968Y-17785531D01*
X7031968Y-17785531D02*
X7022444Y-17756960D01*
X7022444Y-17756960D02*
X7012920Y-17709341D01*
X7012920Y-17709341D02*
X7012920Y-17671246D01*
X7012920Y-17671246D02*
X7022444Y-17623627D01*
X7022444Y-17623627D02*
X7031968Y-17595055D01*
X7031968Y-17595055D02*
X7041491Y-17576008D01*
X7041491Y-17576008D02*
X7060539Y-17547436D01*
X7060539Y-17547436D02*
X7070063Y-17537912D01*
X7251015Y-17766484D02*
X7136729Y-17766484D01*
X7193872Y-17766484D02*
X7193872Y-17566484D01*
X7193872Y-17566484D02*
X7174825Y-17595055D01*
X7174825Y-17595055D02*
X7155777Y-17614103D01*
X7155777Y-17614103D02*
X7136729Y-17623627D01*
X7479587Y-17756960D02*
X7498634Y-17766484D01*
X7498634Y-17766484D02*
X7536729Y-17766484D01*
X7536729Y-17766484D02*
X7555777Y-17756960D01*
X7555777Y-17756960D02*
X7565301Y-17737912D01*
X7565301Y-17737912D02*
X7565301Y-17728389D01*
X7565301Y-17728389D02*
X7555777Y-17709341D01*
X7555777Y-17709341D02*
X7536729Y-17699817D01*
X7536729Y-17699817D02*
X7508158Y-17699817D01*
X7508158Y-17699817D02*
X7489110Y-17690293D01*
X7489110Y-17690293D02*
X7479587Y-17671246D01*
X7479587Y-17671246D02*
X7479587Y-17661722D01*
X7479587Y-17661722D02*
X7489110Y-17642674D01*
X7489110Y-17642674D02*
X7508158Y-17633150D01*
X7508158Y-17633150D02*
X7536729Y-17633150D01*
X7536729Y-17633150D02*
X7555777Y-17642674D01*
X7679587Y-17766484D02*
X7660539Y-17756960D01*
X7660539Y-17756960D02*
X7651015Y-17737912D01*
X7651015Y-17737912D02*
X7651015Y-17566484D01*
X7784349Y-17766484D02*
X7765301Y-17756960D01*
X7765301Y-17756960D02*
X7755777Y-17747436D01*
X7755777Y-17747436D02*
X7746253Y-17728389D01*
X7746253Y-17728389D02*
X7746253Y-17671246D01*
X7746253Y-17671246D02*
X7755777Y-17652198D01*
X7755777Y-17652198D02*
X7765301Y-17642674D01*
X7765301Y-17642674D02*
X7784349Y-17633150D01*
X7784349Y-17633150D02*
X7812920Y-17633150D01*
X7812920Y-17633150D02*
X7831968Y-17642674D01*
X7831968Y-17642674D02*
X7841491Y-17652198D01*
X7841491Y-17652198D02*
X7851015Y-17671246D01*
X7851015Y-17671246D02*
X7851015Y-17728389D01*
X7851015Y-17728389D02*
X7841491Y-17747436D01*
X7841491Y-17747436D02*
X7831968Y-17756960D01*
X7831968Y-17756960D02*
X7812920Y-17766484D01*
X7812920Y-17766484D02*
X7784349Y-17766484D01*
X7908158Y-17633150D02*
X7984349Y-17633150D01*
X7936730Y-17566484D02*
X7936730Y-17737912D01*
X7936730Y-17737912D02*
X7946253Y-17756960D01*
X7946253Y-17756960D02*
X7965301Y-17766484D01*
X7965301Y-17766484D02*
X7984349Y-17766484D01*
X8031968Y-17842674D02*
X8041491Y-17833150D01*
X8041491Y-17833150D02*
X8060539Y-17804579D01*
X8060539Y-17804579D02*
X8070063Y-17785531D01*
X8070063Y-17785531D02*
X8079587Y-17756960D01*
X8079587Y-17756960D02*
X8089110Y-17709341D01*
X8089110Y-17709341D02*
X8089110Y-17671246D01*
X8089110Y-17671246D02*
X8079587Y-17623627D01*
X8079587Y-17623627D02*
X8070063Y-17595055D01*
X8070063Y-17595055D02*
X8060539Y-17576008D01*
X8060539Y-17576008D02*
X8041491Y-17547436D01*
X8041491Y-17547436D02*
X8031968Y-17537912D01*
X8393873Y-17842674D02*
X8384349Y-17833150D01*
X8384349Y-17833150D02*
X8365301Y-17804579D01*
X8365301Y-17804579D02*
X8355777Y-17785531D01*
X8355777Y-17785531D02*
X8346253Y-17756960D01*
X8346253Y-17756960D02*
X8336730Y-17709341D01*
X8336730Y-17709341D02*
X8336730Y-17671246D01*
X8336730Y-17671246D02*
X8346253Y-17623627D01*
X8346253Y-17623627D02*
X8355777Y-17595055D01*
X8355777Y-17595055D02*
X8365301Y-17576008D01*
X8365301Y-17576008D02*
X8384349Y-17547436D01*
X8384349Y-17547436D02*
X8393873Y-17537912D01*
X8470063Y-17633150D02*
X8470063Y-17766484D01*
X8470063Y-17652198D02*
X8479587Y-17642674D01*
X8479587Y-17642674D02*
X8498634Y-17633150D01*
X8498634Y-17633150D02*
X8527206Y-17633150D01*
X8527206Y-17633150D02*
X8546253Y-17642674D01*
X8546253Y-17642674D02*
X8555777Y-17661722D01*
X8555777Y-17661722D02*
X8555777Y-17766484D01*
X8679587Y-17766484D02*
X8660539Y-17756960D01*
X8660539Y-17756960D02*
X8651015Y-17747436D01*
X8651015Y-17747436D02*
X8641492Y-17728389D01*
X8641492Y-17728389D02*
X8641492Y-17671246D01*
X8641492Y-17671246D02*
X8651015Y-17652198D01*
X8651015Y-17652198D02*
X8660539Y-17642674D01*
X8660539Y-17642674D02*
X8679587Y-17633150D01*
X8679587Y-17633150D02*
X8708158Y-17633150D01*
X8708158Y-17633150D02*
X8727206Y-17642674D01*
X8727206Y-17642674D02*
X8736730Y-17652198D01*
X8736730Y-17652198D02*
X8746253Y-17671246D01*
X8746253Y-17671246D02*
X8746253Y-17728389D01*
X8746253Y-17728389D02*
X8736730Y-17747436D01*
X8736730Y-17747436D02*
X8727206Y-17756960D01*
X8727206Y-17756960D02*
X8708158Y-17766484D01*
X8708158Y-17766484D02*
X8679587Y-17766484D01*
X8803396Y-17633150D02*
X8879587Y-17633150D01*
X8831968Y-17566484D02*
X8831968Y-17737912D01*
X8831968Y-17737912D02*
X8841492Y-17756960D01*
X8841492Y-17756960D02*
X8860539Y-17766484D01*
X8860539Y-17766484D02*
X8879587Y-17766484D01*
X9098634Y-17633150D02*
X9098634Y-17833150D01*
X9098634Y-17642674D02*
X9117682Y-17633150D01*
X9117682Y-17633150D02*
X9155777Y-17633150D01*
X9155777Y-17633150D02*
X9174825Y-17642674D01*
X9174825Y-17642674D02*
X9184349Y-17652198D01*
X9184349Y-17652198D02*
X9193873Y-17671246D01*
X9193873Y-17671246D02*
X9193873Y-17728389D01*
X9193873Y-17728389D02*
X9184349Y-17747436D01*
X9184349Y-17747436D02*
X9174825Y-17756960D01*
X9174825Y-17756960D02*
X9155777Y-17766484D01*
X9155777Y-17766484D02*
X9117682Y-17766484D01*
X9117682Y-17766484D02*
X9098634Y-17756960D01*
X9308158Y-17766484D02*
X9289111Y-17756960D01*
X9289111Y-17756960D02*
X9279587Y-17737912D01*
X9279587Y-17737912D02*
X9279587Y-17566484D01*
X9470063Y-17766484D02*
X9470063Y-17661722D01*
X9470063Y-17661722D02*
X9460539Y-17642674D01*
X9460539Y-17642674D02*
X9441492Y-17633150D01*
X9441492Y-17633150D02*
X9403396Y-17633150D01*
X9403396Y-17633150D02*
X9384349Y-17642674D01*
X9470063Y-17756960D02*
X9451015Y-17766484D01*
X9451015Y-17766484D02*
X9403396Y-17766484D01*
X9403396Y-17766484D02*
X9384349Y-17756960D01*
X9384349Y-17756960D02*
X9374825Y-17737912D01*
X9374825Y-17737912D02*
X9374825Y-17718865D01*
X9374825Y-17718865D02*
X9384349Y-17699817D01*
X9384349Y-17699817D02*
X9403396Y-17690293D01*
X9403396Y-17690293D02*
X9451015Y-17690293D01*
X9451015Y-17690293D02*
X9470063Y-17680770D01*
X9536730Y-17633150D02*
X9612920Y-17633150D01*
X9565301Y-17566484D02*
X9565301Y-17737912D01*
X9565301Y-17737912D02*
X9574825Y-17756960D01*
X9574825Y-17756960D02*
X9593873Y-17766484D01*
X9593873Y-17766484D02*
X9612920Y-17766484D01*
X9755777Y-17756960D02*
X9736730Y-17766484D01*
X9736730Y-17766484D02*
X9698634Y-17766484D01*
X9698634Y-17766484D02*
X9679587Y-17756960D01*
X9679587Y-17756960D02*
X9670063Y-17737912D01*
X9670063Y-17737912D02*
X9670063Y-17661722D01*
X9670063Y-17661722D02*
X9679587Y-17642674D01*
X9679587Y-17642674D02*
X9698634Y-17633150D01*
X9698634Y-17633150D02*
X9736730Y-17633150D01*
X9736730Y-17633150D02*
X9755777Y-17642674D01*
X9755777Y-17642674D02*
X9765301Y-17661722D01*
X9765301Y-17661722D02*
X9765301Y-17680770D01*
X9765301Y-17680770D02*
X9670063Y-17699817D01*
X9936730Y-17766484D02*
X9936730Y-17566484D01*
X9936730Y-17756960D02*
X9917682Y-17766484D01*
X9917682Y-17766484D02*
X9879587Y-17766484D01*
X9879587Y-17766484D02*
X9860539Y-17756960D01*
X9860539Y-17756960D02*
X9851015Y-17747436D01*
X9851015Y-17747436D02*
X9841492Y-17728389D01*
X9841492Y-17728389D02*
X9841492Y-17671246D01*
X9841492Y-17671246D02*
X9851015Y-17652198D01*
X9851015Y-17652198D02*
X9860539Y-17642674D01*
X9860539Y-17642674D02*
X9879587Y-17633150D01*
X9879587Y-17633150D02*
X9917682Y-17633150D01*
X9917682Y-17633150D02*
X9936730Y-17642674D01*
X10012920Y-17842674D02*
X10022444Y-17833150D01*
X10022444Y-17833150D02*
X10041492Y-17804579D01*
X10041492Y-17804579D02*
X10051015Y-17785531D01*
X10051015Y-17785531D02*
X10060539Y-17756960D01*
X10060539Y-17756960D02*
X10070063Y-17709341D01*
X10070063Y-17709341D02*
X10070063Y-17671246D01*
X10070063Y-17671246D02*
X10060539Y-17623627D01*
X10060539Y-17623627D02*
X10051015Y-17595055D01*
X10051015Y-17595055D02*
X10041492Y-17576008D01*
X10041492Y-17576008D02*
X10022444Y-17547436D01*
X10022444Y-17547436D02*
X10012920Y-17537912D01*
X3395000Y-18095000D02*
X3495000Y-17995000D01*
X3395000Y-17895000D01*
X3295000Y-17995000D01*
X3395000Y-18095000D01*
X3736729Y-17886484D02*
X3860539Y-17886484D01*
X3860539Y-17886484D02*
X3793872Y-17962674D01*
X3793872Y-17962674D02*
X3822443Y-17962674D01*
X3822443Y-17962674D02*
X3841491Y-17972198D01*
X3841491Y-17972198D02*
X3851015Y-17981722D01*
X3851015Y-17981722D02*
X3860539Y-18000770D01*
X3860539Y-18000770D02*
X3860539Y-18048389D01*
X3860539Y-18048389D02*
X3851015Y-18067436D01*
X3851015Y-18067436D02*
X3841491Y-18076960D01*
X3841491Y-18076960D02*
X3822443Y-18086484D01*
X3822443Y-18086484D02*
X3765301Y-18086484D01*
X3765301Y-18086484D02*
X3746253Y-18076960D01*
X3746253Y-18076960D02*
X3736729Y-18067436D01*
X3946253Y-18067436D02*
X3955777Y-18076960D01*
X3955777Y-18076960D02*
X3946253Y-18086484D01*
X3946253Y-18086484D02*
X3936729Y-18076960D01*
X3936729Y-18076960D02*
X3946253Y-18067436D01*
X3946253Y-18067436D02*
X3946253Y-18086484D01*
X4079586Y-17886484D02*
X4098634Y-17886484D01*
X4098634Y-17886484D02*
X4117682Y-17896008D01*
X4117682Y-17896008D02*
X4127205Y-17905531D01*
X4127205Y-17905531D02*
X4136729Y-17924579D01*
X4136729Y-17924579D02*
X4146253Y-17962674D01*
X4146253Y-17962674D02*
X4146253Y-18010293D01*
X4146253Y-18010293D02*
X4136729Y-18048389D01*
X4136729Y-18048389D02*
X4127205Y-18067436D01*
X4127205Y-18067436D02*
X4117682Y-18076960D01*
X4117682Y-18076960D02*
X4098634Y-18086484D01*
X4098634Y-18086484D02*
X4079586Y-18086484D01*
X4079586Y-18086484D02*
X4060539Y-18076960D01*
X4060539Y-18076960D02*
X4051015Y-18067436D01*
X4051015Y-18067436D02*
X4041491Y-18048389D01*
X4041491Y-18048389D02*
X4031967Y-18010293D01*
X4031967Y-18010293D02*
X4031967Y-17962674D01*
X4031967Y-17962674D02*
X4041491Y-17924579D01*
X4041491Y-17924579D02*
X4051015Y-17905531D01*
X4051015Y-17905531D02*
X4060539Y-17896008D01*
X4060539Y-17896008D02*
X4079586Y-17886484D01*
X4270063Y-17886484D02*
X4289110Y-17886484D01*
X4289110Y-17886484D02*
X4308158Y-17896008D01*
X4308158Y-17896008D02*
X4317682Y-17905531D01*
X4317682Y-17905531D02*
X4327205Y-17924579D01*
X4327205Y-17924579D02*
X4336729Y-17962674D01*
X4336729Y-17962674D02*
X4336729Y-18010293D01*
X4336729Y-18010293D02*
X4327205Y-18048389D01*
X4327205Y-18048389D02*
X4317682Y-18067436D01*
X4317682Y-18067436D02*
X4308158Y-18076960D01*
X4308158Y-18076960D02*
X4289110Y-18086484D01*
X4289110Y-18086484D02*
X4270063Y-18086484D01*
X4270063Y-18086484D02*
X4251015Y-18076960D01*
X4251015Y-18076960D02*
X4241491Y-18067436D01*
X4241491Y-18067436D02*
X4231967Y-18048389D01*
X4231967Y-18048389D02*
X4222444Y-18010293D01*
X4222444Y-18010293D02*
X4222444Y-17962674D01*
X4222444Y-17962674D02*
X4231967Y-17924579D01*
X4231967Y-17924579D02*
X4241491Y-17905531D01*
X4241491Y-17905531D02*
X4251015Y-17896008D01*
X4251015Y-17896008D02*
X4270063Y-17886484D01*
X4460539Y-17886484D02*
X4479586Y-17886484D01*
X4479586Y-17886484D02*
X4498634Y-17896008D01*
X4498634Y-17896008D02*
X4508158Y-17905531D01*
X4508158Y-17905531D02*
X4517682Y-17924579D01*
X4517682Y-17924579D02*
X4527205Y-17962674D01*
X4527205Y-17962674D02*
X4527205Y-18010293D01*
X4527205Y-18010293D02*
X4517682Y-18048389D01*
X4517682Y-18048389D02*
X4508158Y-18067436D01*
X4508158Y-18067436D02*
X4498634Y-18076960D01*
X4498634Y-18076960D02*
X4479586Y-18086484D01*
X4479586Y-18086484D02*
X4460539Y-18086484D01*
X4460539Y-18086484D02*
X4441491Y-18076960D01*
X4441491Y-18076960D02*
X4431967Y-18067436D01*
X4431967Y-18067436D02*
X4422444Y-18048389D01*
X4422444Y-18048389D02*
X4412920Y-18010293D01*
X4412920Y-18010293D02*
X4412920Y-17962674D01*
X4412920Y-17962674D02*
X4422444Y-17924579D01*
X4422444Y-17924579D02*
X4431967Y-17905531D01*
X4431967Y-17905531D02*
X4441491Y-17896008D01*
X4441491Y-17896008D02*
X4460539Y-17886484D01*
X4612920Y-18086484D02*
X4612920Y-17953150D01*
X4612920Y-17972198D02*
X4622444Y-17962674D01*
X4622444Y-17962674D02*
X4641491Y-17953150D01*
X4641491Y-17953150D02*
X4670063Y-17953150D01*
X4670063Y-17953150D02*
X4689110Y-17962674D01*
X4689110Y-17962674D02*
X4698634Y-17981722D01*
X4698634Y-17981722D02*
X4698634Y-18086484D01*
X4698634Y-17981722D02*
X4708158Y-17962674D01*
X4708158Y-17962674D02*
X4727205Y-17953150D01*
X4727205Y-17953150D02*
X4755777Y-17953150D01*
X4755777Y-17953150D02*
X4774825Y-17962674D01*
X4774825Y-17962674D02*
X4784348Y-17981722D01*
X4784348Y-17981722D02*
X4784348Y-18086484D01*
X4879586Y-18086484D02*
X4879586Y-17953150D01*
X4879586Y-17972198D02*
X4889110Y-17962674D01*
X4889110Y-17962674D02*
X4908158Y-17953150D01*
X4908158Y-17953150D02*
X4936729Y-17953150D01*
X4936729Y-17953150D02*
X4955777Y-17962674D01*
X4955777Y-17962674D02*
X4965301Y-17981722D01*
X4965301Y-17981722D02*
X4965301Y-18086484D01*
X4965301Y-17981722D02*
X4974825Y-17962674D01*
X4974825Y-17962674D02*
X4993872Y-17953150D01*
X4993872Y-17953150D02*
X5022444Y-17953150D01*
X5022444Y-17953150D02*
X5041491Y-17962674D01*
X5041491Y-17962674D02*
X5051015Y-17981722D01*
X5051015Y-17981722D02*
X5051015Y-18086484D01*
X5441491Y-17876960D02*
X5270063Y-18134103D01*
X5698634Y-17886484D02*
X5717682Y-17886484D01*
X5717682Y-17886484D02*
X5736729Y-17896008D01*
X5736729Y-17896008D02*
X5746253Y-17905531D01*
X5746253Y-17905531D02*
X5755777Y-17924579D01*
X5755777Y-17924579D02*
X5765301Y-17962674D01*
X5765301Y-17962674D02*
X5765301Y-18010293D01*
X5765301Y-18010293D02*
X5755777Y-18048389D01*
X5755777Y-18048389D02*
X5746253Y-18067436D01*
X5746253Y-18067436D02*
X5736729Y-18076960D01*
X5736729Y-18076960D02*
X5717682Y-18086484D01*
X5717682Y-18086484D02*
X5698634Y-18086484D01*
X5698634Y-18086484D02*
X5679586Y-18076960D01*
X5679586Y-18076960D02*
X5670063Y-18067436D01*
X5670063Y-18067436D02*
X5660539Y-18048389D01*
X5660539Y-18048389D02*
X5651015Y-18010293D01*
X5651015Y-18010293D02*
X5651015Y-17962674D01*
X5651015Y-17962674D02*
X5660539Y-17924579D01*
X5660539Y-17924579D02*
X5670063Y-17905531D01*
X5670063Y-17905531D02*
X5679586Y-17896008D01*
X5679586Y-17896008D02*
X5698634Y-17886484D01*
X5851015Y-18067436D02*
X5860539Y-18076960D01*
X5860539Y-18076960D02*
X5851015Y-18086484D01*
X5851015Y-18086484D02*
X5841491Y-18076960D01*
X5841491Y-18076960D02*
X5851015Y-18067436D01*
X5851015Y-18067436D02*
X5851015Y-18086484D01*
X6051015Y-18086484D02*
X5936729Y-18086484D01*
X5993872Y-18086484D02*
X5993872Y-17886484D01*
X5993872Y-17886484D02*
X5974825Y-17915055D01*
X5974825Y-17915055D02*
X5955777Y-17934103D01*
X5955777Y-17934103D02*
X5936729Y-17943627D01*
X6241491Y-18086484D02*
X6127206Y-18086484D01*
X6184348Y-18086484D02*
X6184348Y-17886484D01*
X6184348Y-17886484D02*
X6165301Y-17915055D01*
X6165301Y-17915055D02*
X6146253Y-17934103D01*
X6146253Y-17934103D02*
X6127206Y-17943627D01*
X6355777Y-17972198D02*
X6336729Y-17962674D01*
X6336729Y-17962674D02*
X6327206Y-17953150D01*
X6327206Y-17953150D02*
X6317682Y-17934103D01*
X6317682Y-17934103D02*
X6317682Y-17924579D01*
X6317682Y-17924579D02*
X6327206Y-17905531D01*
X6327206Y-17905531D02*
X6336729Y-17896008D01*
X6336729Y-17896008D02*
X6355777Y-17886484D01*
X6355777Y-17886484D02*
X6393872Y-17886484D01*
X6393872Y-17886484D02*
X6412920Y-17896008D01*
X6412920Y-17896008D02*
X6422444Y-17905531D01*
X6422444Y-17905531D02*
X6431967Y-17924579D01*
X6431967Y-17924579D02*
X6431967Y-17934103D01*
X6431967Y-17934103D02*
X6422444Y-17953150D01*
X6422444Y-17953150D02*
X6412920Y-17962674D01*
X6412920Y-17962674D02*
X6393872Y-17972198D01*
X6393872Y-17972198D02*
X6355777Y-17972198D01*
X6355777Y-17972198D02*
X6336729Y-17981722D01*
X6336729Y-17981722D02*
X6327206Y-17991246D01*
X6327206Y-17991246D02*
X6317682Y-18010293D01*
X6317682Y-18010293D02*
X6317682Y-18048389D01*
X6317682Y-18048389D02*
X6327206Y-18067436D01*
X6327206Y-18067436D02*
X6336729Y-18076960D01*
X6336729Y-18076960D02*
X6355777Y-18086484D01*
X6355777Y-18086484D02*
X6393872Y-18086484D01*
X6393872Y-18086484D02*
X6412920Y-18076960D01*
X6412920Y-18076960D02*
X6422444Y-18067436D01*
X6422444Y-18067436D02*
X6431967Y-18048389D01*
X6431967Y-18048389D02*
X6431967Y-18010293D01*
X6431967Y-18010293D02*
X6422444Y-17991246D01*
X6422444Y-17991246D02*
X6412920Y-17981722D01*
X6412920Y-17981722D02*
X6393872Y-17972198D01*
X6622444Y-18086484D02*
X6508158Y-18086484D01*
X6565301Y-18086484D02*
X6565301Y-17886484D01*
X6565301Y-17886484D02*
X6546253Y-17915055D01*
X6546253Y-17915055D02*
X6527206Y-17934103D01*
X6527206Y-17934103D02*
X6508158Y-17943627D01*
X6698634Y-17886484D02*
X6698634Y-17924579D01*
X6774825Y-17886484D02*
X6774825Y-17924579D01*
X7070063Y-18162674D02*
X7060539Y-18153150D01*
X7060539Y-18153150D02*
X7041491Y-18124579D01*
X7041491Y-18124579D02*
X7031968Y-18105531D01*
X7031968Y-18105531D02*
X7022444Y-18076960D01*
X7022444Y-18076960D02*
X7012920Y-18029341D01*
X7012920Y-18029341D02*
X7012920Y-17991246D01*
X7012920Y-17991246D02*
X7022444Y-17943627D01*
X7022444Y-17943627D02*
X7031968Y-17915055D01*
X7031968Y-17915055D02*
X7041491Y-17896008D01*
X7041491Y-17896008D02*
X7060539Y-17867436D01*
X7060539Y-17867436D02*
X7070063Y-17857912D01*
X7231968Y-17886484D02*
X7193872Y-17886484D01*
X7193872Y-17886484D02*
X7174825Y-17896008D01*
X7174825Y-17896008D02*
X7165301Y-17905531D01*
X7165301Y-17905531D02*
X7146253Y-17934103D01*
X7146253Y-17934103D02*
X7136729Y-17972198D01*
X7136729Y-17972198D02*
X7136729Y-18048389D01*
X7136729Y-18048389D02*
X7146253Y-18067436D01*
X7146253Y-18067436D02*
X7155777Y-18076960D01*
X7155777Y-18076960D02*
X7174825Y-18086484D01*
X7174825Y-18086484D02*
X7212920Y-18086484D01*
X7212920Y-18086484D02*
X7231968Y-18076960D01*
X7231968Y-18076960D02*
X7241491Y-18067436D01*
X7241491Y-18067436D02*
X7251015Y-18048389D01*
X7251015Y-18048389D02*
X7251015Y-18000770D01*
X7251015Y-18000770D02*
X7241491Y-17981722D01*
X7241491Y-17981722D02*
X7231968Y-17972198D01*
X7231968Y-17972198D02*
X7212920Y-17962674D01*
X7212920Y-17962674D02*
X7174825Y-17962674D01*
X7174825Y-17962674D02*
X7155777Y-17972198D01*
X7155777Y-17972198D02*
X7146253Y-17981722D01*
X7146253Y-17981722D02*
X7136729Y-18000770D01*
X7327206Y-17905531D02*
X7336729Y-17896008D01*
X7336729Y-17896008D02*
X7355777Y-17886484D01*
X7355777Y-17886484D02*
X7403396Y-17886484D01*
X7403396Y-17886484D02*
X7422444Y-17896008D01*
X7422444Y-17896008D02*
X7431968Y-17905531D01*
X7431968Y-17905531D02*
X7441491Y-17924579D01*
X7441491Y-17924579D02*
X7441491Y-17943627D01*
X7441491Y-17943627D02*
X7431968Y-17972198D01*
X7431968Y-17972198D02*
X7317682Y-18086484D01*
X7317682Y-18086484D02*
X7441491Y-18086484D01*
X7679587Y-18086484D02*
X7679587Y-17886484D01*
X7765301Y-18086484D02*
X7765301Y-17981722D01*
X7765301Y-17981722D02*
X7755777Y-17962674D01*
X7755777Y-17962674D02*
X7736730Y-17953150D01*
X7736730Y-17953150D02*
X7708158Y-17953150D01*
X7708158Y-17953150D02*
X7689110Y-17962674D01*
X7689110Y-17962674D02*
X7679587Y-17972198D01*
X7889110Y-18086484D02*
X7870063Y-18076960D01*
X7870063Y-18076960D02*
X7860539Y-18067436D01*
X7860539Y-18067436D02*
X7851015Y-18048389D01*
X7851015Y-18048389D02*
X7851015Y-17991246D01*
X7851015Y-17991246D02*
X7860539Y-17972198D01*
X7860539Y-17972198D02*
X7870063Y-17962674D01*
X7870063Y-17962674D02*
X7889110Y-17953150D01*
X7889110Y-17953150D02*
X7917682Y-17953150D01*
X7917682Y-17953150D02*
X7936730Y-17962674D01*
X7936730Y-17962674D02*
X7946253Y-17972198D01*
X7946253Y-17972198D02*
X7955777Y-17991246D01*
X7955777Y-17991246D02*
X7955777Y-18048389D01*
X7955777Y-18048389D02*
X7946253Y-18067436D01*
X7946253Y-18067436D02*
X7936730Y-18076960D01*
X7936730Y-18076960D02*
X7917682Y-18086484D01*
X7917682Y-18086484D02*
X7889110Y-18086484D01*
X8070063Y-18086484D02*
X8051015Y-18076960D01*
X8051015Y-18076960D02*
X8041491Y-18057912D01*
X8041491Y-18057912D02*
X8041491Y-17886484D01*
X8222444Y-18076960D02*
X8203396Y-18086484D01*
X8203396Y-18086484D02*
X8165301Y-18086484D01*
X8165301Y-18086484D02*
X8146253Y-18076960D01*
X8146253Y-18076960D02*
X8136730Y-18057912D01*
X8136730Y-18057912D02*
X8136730Y-17981722D01*
X8136730Y-17981722D02*
X8146253Y-17962674D01*
X8146253Y-17962674D02*
X8165301Y-17953150D01*
X8165301Y-17953150D02*
X8203396Y-17953150D01*
X8203396Y-17953150D02*
X8222444Y-17962674D01*
X8222444Y-17962674D02*
X8231968Y-17981722D01*
X8231968Y-17981722D02*
X8231968Y-18000770D01*
X8231968Y-18000770D02*
X8136730Y-18019817D01*
X8308158Y-18076960D02*
X8327206Y-18086484D01*
X8327206Y-18086484D02*
X8365301Y-18086484D01*
X8365301Y-18086484D02*
X8384349Y-18076960D01*
X8384349Y-18076960D02*
X8393873Y-18057912D01*
X8393873Y-18057912D02*
X8393873Y-18048389D01*
X8393873Y-18048389D02*
X8384349Y-18029341D01*
X8384349Y-18029341D02*
X8365301Y-18019817D01*
X8365301Y-18019817D02*
X8336730Y-18019817D01*
X8336730Y-18019817D02*
X8317682Y-18010293D01*
X8317682Y-18010293D02*
X8308158Y-17991246D01*
X8308158Y-17991246D02*
X8308158Y-17981722D01*
X8308158Y-17981722D02*
X8317682Y-17962674D01*
X8317682Y-17962674D02*
X8336730Y-17953150D01*
X8336730Y-17953150D02*
X8365301Y-17953150D01*
X8365301Y-17953150D02*
X8384349Y-17962674D01*
X8460539Y-18162674D02*
X8470063Y-18153150D01*
X8470063Y-18153150D02*
X8489111Y-18124579D01*
X8489111Y-18124579D02*
X8498634Y-18105531D01*
X8498634Y-18105531D02*
X8508158Y-18076960D01*
X8508158Y-18076960D02*
X8517682Y-18029341D01*
X8517682Y-18029341D02*
X8517682Y-17991246D01*
X8517682Y-17991246D02*
X8508158Y-17943627D01*
X8508158Y-17943627D02*
X8498634Y-17915055D01*
X8498634Y-17915055D02*
X8489111Y-17896008D01*
X8489111Y-17896008D02*
X8470063Y-17867436D01*
X8470063Y-17867436D02*
X8460539Y-17857912D01*
X8822444Y-18162674D02*
X8812920Y-18153150D01*
X8812920Y-18153150D02*
X8793873Y-18124579D01*
X8793873Y-18124579D02*
X8784349Y-18105531D01*
X8784349Y-18105531D02*
X8774825Y-18076960D01*
X8774825Y-18076960D02*
X8765301Y-18029341D01*
X8765301Y-18029341D02*
X8765301Y-17991246D01*
X8765301Y-17991246D02*
X8774825Y-17943627D01*
X8774825Y-17943627D02*
X8784349Y-17915055D01*
X8784349Y-17915055D02*
X8793873Y-17896008D01*
X8793873Y-17896008D02*
X8812920Y-17867436D01*
X8812920Y-17867436D02*
X8822444Y-17857912D01*
X8898634Y-17953150D02*
X8898634Y-18086484D01*
X8898634Y-17972198D02*
X8908158Y-17962674D01*
X8908158Y-17962674D02*
X8927206Y-17953150D01*
X8927206Y-17953150D02*
X8955777Y-17953150D01*
X8955777Y-17953150D02*
X8974825Y-17962674D01*
X8974825Y-17962674D02*
X8984349Y-17981722D01*
X8984349Y-17981722D02*
X8984349Y-18086484D01*
X9108158Y-18086484D02*
X9089111Y-18076960D01*
X9089111Y-18076960D02*
X9079587Y-18067436D01*
X9079587Y-18067436D02*
X9070063Y-18048389D01*
X9070063Y-18048389D02*
X9070063Y-17991246D01*
X9070063Y-17991246D02*
X9079587Y-17972198D01*
X9079587Y-17972198D02*
X9089111Y-17962674D01*
X9089111Y-17962674D02*
X9108158Y-17953150D01*
X9108158Y-17953150D02*
X9136730Y-17953150D01*
X9136730Y-17953150D02*
X9155777Y-17962674D01*
X9155777Y-17962674D02*
X9165301Y-17972198D01*
X9165301Y-17972198D02*
X9174825Y-17991246D01*
X9174825Y-17991246D02*
X9174825Y-18048389D01*
X9174825Y-18048389D02*
X9165301Y-18067436D01*
X9165301Y-18067436D02*
X9155777Y-18076960D01*
X9155777Y-18076960D02*
X9136730Y-18086484D01*
X9136730Y-18086484D02*
X9108158Y-18086484D01*
X9231968Y-17953150D02*
X9308158Y-17953150D01*
X9260539Y-17886484D02*
X9260539Y-18057912D01*
X9260539Y-18057912D02*
X9270063Y-18076960D01*
X9270063Y-18076960D02*
X9289111Y-18086484D01*
X9289111Y-18086484D02*
X9308158Y-18086484D01*
X9527206Y-17953150D02*
X9527206Y-18153150D01*
X9527206Y-17962674D02*
X9546254Y-17953150D01*
X9546254Y-17953150D02*
X9584349Y-17953150D01*
X9584349Y-17953150D02*
X9603396Y-17962674D01*
X9603396Y-17962674D02*
X9612920Y-17972198D01*
X9612920Y-17972198D02*
X9622444Y-17991246D01*
X9622444Y-17991246D02*
X9622444Y-18048389D01*
X9622444Y-18048389D02*
X9612920Y-18067436D01*
X9612920Y-18067436D02*
X9603396Y-18076960D01*
X9603396Y-18076960D02*
X9584349Y-18086484D01*
X9584349Y-18086484D02*
X9546254Y-18086484D01*
X9546254Y-18086484D02*
X9527206Y-18076960D01*
X9736730Y-18086484D02*
X9717682Y-18076960D01*
X9717682Y-18076960D02*
X9708158Y-18057912D01*
X9708158Y-18057912D02*
X9708158Y-17886484D01*
X9898635Y-18086484D02*
X9898635Y-17981722D01*
X9898635Y-17981722D02*
X9889111Y-17962674D01*
X9889111Y-17962674D02*
X9870063Y-17953150D01*
X9870063Y-17953150D02*
X9831968Y-17953150D01*
X9831968Y-17953150D02*
X9812920Y-17962674D01*
X9898635Y-18076960D02*
X9879587Y-18086484D01*
X9879587Y-18086484D02*
X9831968Y-18086484D01*
X9831968Y-18086484D02*
X9812920Y-18076960D01*
X9812920Y-18076960D02*
X9803396Y-18057912D01*
X9803396Y-18057912D02*
X9803396Y-18038865D01*
X9803396Y-18038865D02*
X9812920Y-18019817D01*
X9812920Y-18019817D02*
X9831968Y-18010293D01*
X9831968Y-18010293D02*
X9879587Y-18010293D01*
X9879587Y-18010293D02*
X9898635Y-18000770D01*
X9965301Y-17953150D02*
X10041492Y-17953150D01*
X9993873Y-17886484D02*
X9993873Y-18057912D01*
X9993873Y-18057912D02*
X10003396Y-18076960D01*
X10003396Y-18076960D02*
X10022444Y-18086484D01*
X10022444Y-18086484D02*
X10041492Y-18086484D01*
X10184349Y-18076960D02*
X10165301Y-18086484D01*
X10165301Y-18086484D02*
X10127206Y-18086484D01*
X10127206Y-18086484D02*
X10108158Y-18076960D01*
X10108158Y-18076960D02*
X10098635Y-18057912D01*
X10098635Y-18057912D02*
X10098635Y-17981722D01*
X10098635Y-17981722D02*
X10108158Y-17962674D01*
X10108158Y-17962674D02*
X10127206Y-17953150D01*
X10127206Y-17953150D02*
X10165301Y-17953150D01*
X10165301Y-17953150D02*
X10184349Y-17962674D01*
X10184349Y-17962674D02*
X10193873Y-17981722D01*
X10193873Y-17981722D02*
X10193873Y-18000770D01*
X10193873Y-18000770D02*
X10098635Y-18019817D01*
X10365301Y-18086484D02*
X10365301Y-17886484D01*
X10365301Y-18076960D02*
X10346254Y-18086484D01*
X10346254Y-18086484D02*
X10308158Y-18086484D01*
X10308158Y-18086484D02*
X10289111Y-18076960D01*
X10289111Y-18076960D02*
X10279587Y-18067436D01*
X10279587Y-18067436D02*
X10270063Y-18048389D01*
X10270063Y-18048389D02*
X10270063Y-17991246D01*
X10270063Y-17991246D02*
X10279587Y-17972198D01*
X10279587Y-17972198D02*
X10289111Y-17962674D01*
X10289111Y-17962674D02*
X10308158Y-17953150D01*
X10308158Y-17953150D02*
X10346254Y-17953150D01*
X10346254Y-17953150D02*
X10365301Y-17962674D01*
X10441492Y-18162674D02*
X10451016Y-18153150D01*
X10451016Y-18153150D02*
X10470063Y-18124579D01*
X10470063Y-18124579D02*
X10479587Y-18105531D01*
X10479587Y-18105531D02*
X10489111Y-18076960D01*
X10489111Y-18076960D02*
X10498635Y-18029341D01*
X10498635Y-18029341D02*
X10498635Y-17991246D01*
X10498635Y-17991246D02*
X10489111Y-17943627D01*
X10489111Y-17943627D02*
X10479587Y-17915055D01*
X10479587Y-17915055D02*
X10470063Y-17896008D01*
X10470063Y-17896008D02*
X10451016Y-17867436D01*
X10451016Y-17867436D02*
X10441492Y-17857912D01*
X3295000Y-18215000D02*
X3495000Y-18415000D01*
X3495000Y-18215000D02*
X3295000Y-18415000D01*
X3495000Y-18315000D02*
G75*
G02*
X3295000Y-18315000I-100000J0D01*
G01*
X3295000Y-18315000D02*
G75*
G02*
X3495000Y-18315000I100000J0D01*
G01*
X3851015Y-18206484D02*
X3755777Y-18206484D01*
X3755777Y-18206484D02*
X3746253Y-18301722D01*
X3746253Y-18301722D02*
X3755777Y-18292198D01*
X3755777Y-18292198D02*
X3774824Y-18282674D01*
X3774824Y-18282674D02*
X3822443Y-18282674D01*
X3822443Y-18282674D02*
X3841491Y-18292198D01*
X3841491Y-18292198D02*
X3851015Y-18301722D01*
X3851015Y-18301722D02*
X3860539Y-18320770D01*
X3860539Y-18320770D02*
X3860539Y-18368389D01*
X3860539Y-18368389D02*
X3851015Y-18387436D01*
X3851015Y-18387436D02*
X3841491Y-18396960D01*
X3841491Y-18396960D02*
X3822443Y-18406484D01*
X3822443Y-18406484D02*
X3774824Y-18406484D01*
X3774824Y-18406484D02*
X3755777Y-18396960D01*
X3755777Y-18396960D02*
X3746253Y-18387436D01*
X3946253Y-18387436D02*
X3955777Y-18396960D01*
X3955777Y-18396960D02*
X3946253Y-18406484D01*
X3946253Y-18406484D02*
X3936729Y-18396960D01*
X3936729Y-18396960D02*
X3946253Y-18387436D01*
X3946253Y-18387436D02*
X3946253Y-18406484D01*
X4079586Y-18206484D02*
X4098634Y-18206484D01*
X4098634Y-18206484D02*
X4117682Y-18216008D01*
X4117682Y-18216008D02*
X4127205Y-18225531D01*
X4127205Y-18225531D02*
X4136729Y-18244579D01*
X4136729Y-18244579D02*
X4146253Y-18282674D01*
X4146253Y-18282674D02*
X4146253Y-18330293D01*
X4146253Y-18330293D02*
X4136729Y-18368389D01*
X4136729Y-18368389D02*
X4127205Y-18387436D01*
X4127205Y-18387436D02*
X4117682Y-18396960D01*
X4117682Y-18396960D02*
X4098634Y-18406484D01*
X4098634Y-18406484D02*
X4079586Y-18406484D01*
X4079586Y-18406484D02*
X4060539Y-18396960D01*
X4060539Y-18396960D02*
X4051015Y-18387436D01*
X4051015Y-18387436D02*
X4041491Y-18368389D01*
X4041491Y-18368389D02*
X4031967Y-18330293D01*
X4031967Y-18330293D02*
X4031967Y-18282674D01*
X4031967Y-18282674D02*
X4041491Y-18244579D01*
X4041491Y-18244579D02*
X4051015Y-18225531D01*
X4051015Y-18225531D02*
X4060539Y-18216008D01*
X4060539Y-18216008D02*
X4079586Y-18206484D01*
X4270063Y-18206484D02*
X4289110Y-18206484D01*
X4289110Y-18206484D02*
X4308158Y-18216008D01*
X4308158Y-18216008D02*
X4317682Y-18225531D01*
X4317682Y-18225531D02*
X4327205Y-18244579D01*
X4327205Y-18244579D02*
X4336729Y-18282674D01*
X4336729Y-18282674D02*
X4336729Y-18330293D01*
X4336729Y-18330293D02*
X4327205Y-18368389D01*
X4327205Y-18368389D02*
X4317682Y-18387436D01*
X4317682Y-18387436D02*
X4308158Y-18396960D01*
X4308158Y-18396960D02*
X4289110Y-18406484D01*
X4289110Y-18406484D02*
X4270063Y-18406484D01*
X4270063Y-18406484D02*
X4251015Y-18396960D01*
X4251015Y-18396960D02*
X4241491Y-18387436D01*
X4241491Y-18387436D02*
X4231967Y-18368389D01*
X4231967Y-18368389D02*
X4222444Y-18330293D01*
X4222444Y-18330293D02*
X4222444Y-18282674D01*
X4222444Y-18282674D02*
X4231967Y-18244579D01*
X4231967Y-18244579D02*
X4241491Y-18225531D01*
X4241491Y-18225531D02*
X4251015Y-18216008D01*
X4251015Y-18216008D02*
X4270063Y-18206484D01*
X4460539Y-18206484D02*
X4479586Y-18206484D01*
X4479586Y-18206484D02*
X4498634Y-18216008D01*
X4498634Y-18216008D02*
X4508158Y-18225531D01*
X4508158Y-18225531D02*
X4517682Y-18244579D01*
X4517682Y-18244579D02*
X4527205Y-18282674D01*
X4527205Y-18282674D02*
X4527205Y-18330293D01*
X4527205Y-18330293D02*
X4517682Y-18368389D01*
X4517682Y-18368389D02*
X4508158Y-18387436D01*
X4508158Y-18387436D02*
X4498634Y-18396960D01*
X4498634Y-18396960D02*
X4479586Y-18406484D01*
X4479586Y-18406484D02*
X4460539Y-18406484D01*
X4460539Y-18406484D02*
X4441491Y-18396960D01*
X4441491Y-18396960D02*
X4431967Y-18387436D01*
X4431967Y-18387436D02*
X4422444Y-18368389D01*
X4422444Y-18368389D02*
X4412920Y-18330293D01*
X4412920Y-18330293D02*
X4412920Y-18282674D01*
X4412920Y-18282674D02*
X4422444Y-18244579D01*
X4422444Y-18244579D02*
X4431967Y-18225531D01*
X4431967Y-18225531D02*
X4441491Y-18216008D01*
X4441491Y-18216008D02*
X4460539Y-18206484D01*
X4612920Y-18406484D02*
X4612920Y-18273150D01*
X4612920Y-18292198D02*
X4622444Y-18282674D01*
X4622444Y-18282674D02*
X4641491Y-18273150D01*
X4641491Y-18273150D02*
X4670063Y-18273150D01*
X4670063Y-18273150D02*
X4689110Y-18282674D01*
X4689110Y-18282674D02*
X4698634Y-18301722D01*
X4698634Y-18301722D02*
X4698634Y-18406484D01*
X4698634Y-18301722D02*
X4708158Y-18282674D01*
X4708158Y-18282674D02*
X4727205Y-18273150D01*
X4727205Y-18273150D02*
X4755777Y-18273150D01*
X4755777Y-18273150D02*
X4774825Y-18282674D01*
X4774825Y-18282674D02*
X4784348Y-18301722D01*
X4784348Y-18301722D02*
X4784348Y-18406484D01*
X4879586Y-18406484D02*
X4879586Y-18273150D01*
X4879586Y-18292198D02*
X4889110Y-18282674D01*
X4889110Y-18282674D02*
X4908158Y-18273150D01*
X4908158Y-18273150D02*
X4936729Y-18273150D01*
X4936729Y-18273150D02*
X4955777Y-18282674D01*
X4955777Y-18282674D02*
X4965301Y-18301722D01*
X4965301Y-18301722D02*
X4965301Y-18406484D01*
X4965301Y-18301722D02*
X4974825Y-18282674D01*
X4974825Y-18282674D02*
X4993872Y-18273150D01*
X4993872Y-18273150D02*
X5022444Y-18273150D01*
X5022444Y-18273150D02*
X5041491Y-18282674D01*
X5041491Y-18282674D02*
X5051015Y-18301722D01*
X5051015Y-18301722D02*
X5051015Y-18406484D01*
X5441491Y-18196960D02*
X5270063Y-18454103D01*
X5698634Y-18206484D02*
X5717682Y-18206484D01*
X5717682Y-18206484D02*
X5736729Y-18216008D01*
X5736729Y-18216008D02*
X5746253Y-18225531D01*
X5746253Y-18225531D02*
X5755777Y-18244579D01*
X5755777Y-18244579D02*
X5765301Y-18282674D01*
X5765301Y-18282674D02*
X5765301Y-18330293D01*
X5765301Y-18330293D02*
X5755777Y-18368389D01*
X5755777Y-18368389D02*
X5746253Y-18387436D01*
X5746253Y-18387436D02*
X5736729Y-18396960D01*
X5736729Y-18396960D02*
X5717682Y-18406484D01*
X5717682Y-18406484D02*
X5698634Y-18406484D01*
X5698634Y-18406484D02*
X5679586Y-18396960D01*
X5679586Y-18396960D02*
X5670063Y-18387436D01*
X5670063Y-18387436D02*
X5660539Y-18368389D01*
X5660539Y-18368389D02*
X5651015Y-18330293D01*
X5651015Y-18330293D02*
X5651015Y-18282674D01*
X5651015Y-18282674D02*
X5660539Y-18244579D01*
X5660539Y-18244579D02*
X5670063Y-18225531D01*
X5670063Y-18225531D02*
X5679586Y-18216008D01*
X5679586Y-18216008D02*
X5698634Y-18206484D01*
X5851015Y-18387436D02*
X5860539Y-18396960D01*
X5860539Y-18396960D02*
X5851015Y-18406484D01*
X5851015Y-18406484D02*
X5841491Y-18396960D01*
X5841491Y-18396960D02*
X5851015Y-18387436D01*
X5851015Y-18387436D02*
X5851015Y-18406484D01*
X6051015Y-18406484D02*
X5936729Y-18406484D01*
X5993872Y-18406484D02*
X5993872Y-18206484D01*
X5993872Y-18206484D02*
X5974825Y-18235055D01*
X5974825Y-18235055D02*
X5955777Y-18254103D01*
X5955777Y-18254103D02*
X5936729Y-18263627D01*
X6146253Y-18406484D02*
X6184348Y-18406484D01*
X6184348Y-18406484D02*
X6203396Y-18396960D01*
X6203396Y-18396960D02*
X6212920Y-18387436D01*
X6212920Y-18387436D02*
X6231967Y-18358865D01*
X6231967Y-18358865D02*
X6241491Y-18320770D01*
X6241491Y-18320770D02*
X6241491Y-18244579D01*
X6241491Y-18244579D02*
X6231967Y-18225531D01*
X6231967Y-18225531D02*
X6222444Y-18216008D01*
X6222444Y-18216008D02*
X6203396Y-18206484D01*
X6203396Y-18206484D02*
X6165301Y-18206484D01*
X6165301Y-18206484D02*
X6146253Y-18216008D01*
X6146253Y-18216008D02*
X6136729Y-18225531D01*
X6136729Y-18225531D02*
X6127206Y-18244579D01*
X6127206Y-18244579D02*
X6127206Y-18292198D01*
X6127206Y-18292198D02*
X6136729Y-18311246D01*
X6136729Y-18311246D02*
X6146253Y-18320770D01*
X6146253Y-18320770D02*
X6165301Y-18330293D01*
X6165301Y-18330293D02*
X6203396Y-18330293D01*
X6203396Y-18330293D02*
X6222444Y-18320770D01*
X6222444Y-18320770D02*
X6231967Y-18311246D01*
X6231967Y-18311246D02*
X6241491Y-18292198D01*
X6412920Y-18206484D02*
X6374825Y-18206484D01*
X6374825Y-18206484D02*
X6355777Y-18216008D01*
X6355777Y-18216008D02*
X6346253Y-18225531D01*
X6346253Y-18225531D02*
X6327206Y-18254103D01*
X6327206Y-18254103D02*
X6317682Y-18292198D01*
X6317682Y-18292198D02*
X6317682Y-18368389D01*
X6317682Y-18368389D02*
X6327206Y-18387436D01*
X6327206Y-18387436D02*
X6336729Y-18396960D01*
X6336729Y-18396960D02*
X6355777Y-18406484D01*
X6355777Y-18406484D02*
X6393872Y-18406484D01*
X6393872Y-18406484D02*
X6412920Y-18396960D01*
X6412920Y-18396960D02*
X6422444Y-18387436D01*
X6422444Y-18387436D02*
X6431967Y-18368389D01*
X6431967Y-18368389D02*
X6431967Y-18320770D01*
X6431967Y-18320770D02*
X6422444Y-18301722D01*
X6422444Y-18301722D02*
X6412920Y-18292198D01*
X6412920Y-18292198D02*
X6393872Y-18282674D01*
X6393872Y-18282674D02*
X6355777Y-18282674D01*
X6355777Y-18282674D02*
X6336729Y-18292198D01*
X6336729Y-18292198D02*
X6327206Y-18301722D01*
X6327206Y-18301722D02*
X6317682Y-18320770D01*
X6527206Y-18406484D02*
X6565301Y-18406484D01*
X6565301Y-18406484D02*
X6584348Y-18396960D01*
X6584348Y-18396960D02*
X6593872Y-18387436D01*
X6593872Y-18387436D02*
X6612920Y-18358865D01*
X6612920Y-18358865D02*
X6622444Y-18320770D01*
X6622444Y-18320770D02*
X6622444Y-18244579D01*
X6622444Y-18244579D02*
X6612920Y-18225531D01*
X6612920Y-18225531D02*
X6603396Y-18216008D01*
X6603396Y-18216008D02*
X6584348Y-18206484D01*
X6584348Y-18206484D02*
X6546253Y-18206484D01*
X6546253Y-18206484D02*
X6527206Y-18216008D01*
X6527206Y-18216008D02*
X6517682Y-18225531D01*
X6517682Y-18225531D02*
X6508158Y-18244579D01*
X6508158Y-18244579D02*
X6508158Y-18292198D01*
X6508158Y-18292198D02*
X6517682Y-18311246D01*
X6517682Y-18311246D02*
X6527206Y-18320770D01*
X6527206Y-18320770D02*
X6546253Y-18330293D01*
X6546253Y-18330293D02*
X6584348Y-18330293D01*
X6584348Y-18330293D02*
X6603396Y-18320770D01*
X6603396Y-18320770D02*
X6612920Y-18311246D01*
X6612920Y-18311246D02*
X6622444Y-18292198D01*
X6698634Y-18206484D02*
X6698634Y-18244579D01*
X6774825Y-18206484D02*
X6774825Y-18244579D01*
X7070063Y-18482674D02*
X7060539Y-18473150D01*
X7060539Y-18473150D02*
X7041491Y-18444579D01*
X7041491Y-18444579D02*
X7031968Y-18425531D01*
X7031968Y-18425531D02*
X7022444Y-18396960D01*
X7022444Y-18396960D02*
X7012920Y-18349341D01*
X7012920Y-18349341D02*
X7012920Y-18311246D01*
X7012920Y-18311246D02*
X7022444Y-18263627D01*
X7022444Y-18263627D02*
X7031968Y-18235055D01*
X7031968Y-18235055D02*
X7041491Y-18216008D01*
X7041491Y-18216008D02*
X7060539Y-18187436D01*
X7060539Y-18187436D02*
X7070063Y-18177912D01*
X7127206Y-18206484D02*
X7251015Y-18206484D01*
X7251015Y-18206484D02*
X7184348Y-18282674D01*
X7184348Y-18282674D02*
X7212920Y-18282674D01*
X7212920Y-18282674D02*
X7231968Y-18292198D01*
X7231968Y-18292198D02*
X7241491Y-18301722D01*
X7241491Y-18301722D02*
X7251015Y-18320770D01*
X7251015Y-18320770D02*
X7251015Y-18368389D01*
X7251015Y-18368389D02*
X7241491Y-18387436D01*
X7241491Y-18387436D02*
X7231968Y-18396960D01*
X7231968Y-18396960D02*
X7212920Y-18406484D01*
X7212920Y-18406484D02*
X7155777Y-18406484D01*
X7155777Y-18406484D02*
X7136729Y-18396960D01*
X7136729Y-18396960D02*
X7127206Y-18387436D01*
X7441491Y-18406484D02*
X7327206Y-18406484D01*
X7384348Y-18406484D02*
X7384348Y-18206484D01*
X7384348Y-18206484D02*
X7365301Y-18235055D01*
X7365301Y-18235055D02*
X7346253Y-18254103D01*
X7346253Y-18254103D02*
X7327206Y-18263627D01*
X7679587Y-18406484D02*
X7679587Y-18206484D01*
X7765301Y-18406484D02*
X7765301Y-18301722D01*
X7765301Y-18301722D02*
X7755777Y-18282674D01*
X7755777Y-18282674D02*
X7736730Y-18273150D01*
X7736730Y-18273150D02*
X7708158Y-18273150D01*
X7708158Y-18273150D02*
X7689110Y-18282674D01*
X7689110Y-18282674D02*
X7679587Y-18292198D01*
X7889110Y-18406484D02*
X7870063Y-18396960D01*
X7870063Y-18396960D02*
X7860539Y-18387436D01*
X7860539Y-18387436D02*
X7851015Y-18368389D01*
X7851015Y-18368389D02*
X7851015Y-18311246D01*
X7851015Y-18311246D02*
X7860539Y-18292198D01*
X7860539Y-18292198D02*
X7870063Y-18282674D01*
X7870063Y-18282674D02*
X7889110Y-18273150D01*
X7889110Y-18273150D02*
X7917682Y-18273150D01*
X7917682Y-18273150D02*
X7936730Y-18282674D01*
X7936730Y-18282674D02*
X7946253Y-18292198D01*
X7946253Y-18292198D02*
X7955777Y-18311246D01*
X7955777Y-18311246D02*
X7955777Y-18368389D01*
X7955777Y-18368389D02*
X7946253Y-18387436D01*
X7946253Y-18387436D02*
X7936730Y-18396960D01*
X7936730Y-18396960D02*
X7917682Y-18406484D01*
X7917682Y-18406484D02*
X7889110Y-18406484D01*
X8070063Y-18406484D02*
X8051015Y-18396960D01*
X8051015Y-18396960D02*
X8041491Y-18377912D01*
X8041491Y-18377912D02*
X8041491Y-18206484D01*
X8222444Y-18396960D02*
X8203396Y-18406484D01*
X8203396Y-18406484D02*
X8165301Y-18406484D01*
X8165301Y-18406484D02*
X8146253Y-18396960D01*
X8146253Y-18396960D02*
X8136730Y-18377912D01*
X8136730Y-18377912D02*
X8136730Y-18301722D01*
X8136730Y-18301722D02*
X8146253Y-18282674D01*
X8146253Y-18282674D02*
X8165301Y-18273150D01*
X8165301Y-18273150D02*
X8203396Y-18273150D01*
X8203396Y-18273150D02*
X8222444Y-18282674D01*
X8222444Y-18282674D02*
X8231968Y-18301722D01*
X8231968Y-18301722D02*
X8231968Y-18320770D01*
X8231968Y-18320770D02*
X8136730Y-18339817D01*
X8308158Y-18396960D02*
X8327206Y-18406484D01*
X8327206Y-18406484D02*
X8365301Y-18406484D01*
X8365301Y-18406484D02*
X8384349Y-18396960D01*
X8384349Y-18396960D02*
X8393873Y-18377912D01*
X8393873Y-18377912D02*
X8393873Y-18368389D01*
X8393873Y-18368389D02*
X8384349Y-18349341D01*
X8384349Y-18349341D02*
X8365301Y-18339817D01*
X8365301Y-18339817D02*
X8336730Y-18339817D01*
X8336730Y-18339817D02*
X8317682Y-18330293D01*
X8317682Y-18330293D02*
X8308158Y-18311246D01*
X8308158Y-18311246D02*
X8308158Y-18301722D01*
X8308158Y-18301722D02*
X8317682Y-18282674D01*
X8317682Y-18282674D02*
X8336730Y-18273150D01*
X8336730Y-18273150D02*
X8365301Y-18273150D01*
X8365301Y-18273150D02*
X8384349Y-18282674D01*
X8460539Y-18482674D02*
X8470063Y-18473150D01*
X8470063Y-18473150D02*
X8489111Y-18444579D01*
X8489111Y-18444579D02*
X8498634Y-18425531D01*
X8498634Y-18425531D02*
X8508158Y-18396960D01*
X8508158Y-18396960D02*
X8517682Y-18349341D01*
X8517682Y-18349341D02*
X8517682Y-18311246D01*
X8517682Y-18311246D02*
X8508158Y-18263627D01*
X8508158Y-18263627D02*
X8498634Y-18235055D01*
X8498634Y-18235055D02*
X8489111Y-18216008D01*
X8489111Y-18216008D02*
X8470063Y-18187436D01*
X8470063Y-18187436D02*
X8460539Y-18177912D01*
X8822444Y-18482674D02*
X8812920Y-18473150D01*
X8812920Y-18473150D02*
X8793873Y-18444579D01*
X8793873Y-18444579D02*
X8784349Y-18425531D01*
X8784349Y-18425531D02*
X8774825Y-18396960D01*
X8774825Y-18396960D02*
X8765301Y-18349341D01*
X8765301Y-18349341D02*
X8765301Y-18311246D01*
X8765301Y-18311246D02*
X8774825Y-18263627D01*
X8774825Y-18263627D02*
X8784349Y-18235055D01*
X8784349Y-18235055D02*
X8793873Y-18216008D01*
X8793873Y-18216008D02*
X8812920Y-18187436D01*
X8812920Y-18187436D02*
X8822444Y-18177912D01*
X8898634Y-18273150D02*
X8898634Y-18406484D01*
X8898634Y-18292198D02*
X8908158Y-18282674D01*
X8908158Y-18282674D02*
X8927206Y-18273150D01*
X8927206Y-18273150D02*
X8955777Y-18273150D01*
X8955777Y-18273150D02*
X8974825Y-18282674D01*
X8974825Y-18282674D02*
X8984349Y-18301722D01*
X8984349Y-18301722D02*
X8984349Y-18406484D01*
X9108158Y-18406484D02*
X9089111Y-18396960D01*
X9089111Y-18396960D02*
X9079587Y-18387436D01*
X9079587Y-18387436D02*
X9070063Y-18368389D01*
X9070063Y-18368389D02*
X9070063Y-18311246D01*
X9070063Y-18311246D02*
X9079587Y-18292198D01*
X9079587Y-18292198D02*
X9089111Y-18282674D01*
X9089111Y-18282674D02*
X9108158Y-18273150D01*
X9108158Y-18273150D02*
X9136730Y-18273150D01*
X9136730Y-18273150D02*
X9155777Y-18282674D01*
X9155777Y-18282674D02*
X9165301Y-18292198D01*
X9165301Y-18292198D02*
X9174825Y-18311246D01*
X9174825Y-18311246D02*
X9174825Y-18368389D01*
X9174825Y-18368389D02*
X9165301Y-18387436D01*
X9165301Y-18387436D02*
X9155777Y-18396960D01*
X9155777Y-18396960D02*
X9136730Y-18406484D01*
X9136730Y-18406484D02*
X9108158Y-18406484D01*
X9231968Y-18273150D02*
X9308158Y-18273150D01*
X9260539Y-18206484D02*
X9260539Y-18377912D01*
X9260539Y-18377912D02*
X9270063Y-18396960D01*
X9270063Y-18396960D02*
X9289111Y-18406484D01*
X9289111Y-18406484D02*
X9308158Y-18406484D01*
X9527206Y-18273150D02*
X9527206Y-18473150D01*
X9527206Y-18282674D02*
X9546254Y-18273150D01*
X9546254Y-18273150D02*
X9584349Y-18273150D01*
X9584349Y-18273150D02*
X9603396Y-18282674D01*
X9603396Y-18282674D02*
X9612920Y-18292198D01*
X9612920Y-18292198D02*
X9622444Y-18311246D01*
X9622444Y-18311246D02*
X9622444Y-18368389D01*
X9622444Y-18368389D02*
X9612920Y-18387436D01*
X9612920Y-18387436D02*
X9603396Y-18396960D01*
X9603396Y-18396960D02*
X9584349Y-18406484D01*
X9584349Y-18406484D02*
X9546254Y-18406484D01*
X9546254Y-18406484D02*
X9527206Y-18396960D01*
X9736730Y-18406484D02*
X9717682Y-18396960D01*
X9717682Y-18396960D02*
X9708158Y-18377912D01*
X9708158Y-18377912D02*
X9708158Y-18206484D01*
X9898635Y-18406484D02*
X9898635Y-18301722D01*
X9898635Y-18301722D02*
X9889111Y-18282674D01*
X9889111Y-18282674D02*
X9870063Y-18273150D01*
X9870063Y-18273150D02*
X9831968Y-18273150D01*
X9831968Y-18273150D02*
X9812920Y-18282674D01*
X9898635Y-18396960D02*
X9879587Y-18406484D01*
X9879587Y-18406484D02*
X9831968Y-18406484D01*
X9831968Y-18406484D02*
X9812920Y-18396960D01*
X9812920Y-18396960D02*
X9803396Y-18377912D01*
X9803396Y-18377912D02*
X9803396Y-18358865D01*
X9803396Y-18358865D02*
X9812920Y-18339817D01*
X9812920Y-18339817D02*
X9831968Y-18330293D01*
X9831968Y-18330293D02*
X9879587Y-18330293D01*
X9879587Y-18330293D02*
X9898635Y-18320770D01*
X9965301Y-18273150D02*
X10041492Y-18273150D01*
X9993873Y-18206484D02*
X9993873Y-18377912D01*
X9993873Y-18377912D02*
X10003396Y-18396960D01*
X10003396Y-18396960D02*
X10022444Y-18406484D01*
X10022444Y-18406484D02*
X10041492Y-18406484D01*
X10184349Y-18396960D02*
X10165301Y-18406484D01*
X10165301Y-18406484D02*
X10127206Y-18406484D01*
X10127206Y-18406484D02*
X10108158Y-18396960D01*
X10108158Y-18396960D02*
X10098635Y-18377912D01*
X10098635Y-18377912D02*
X10098635Y-18301722D01*
X10098635Y-18301722D02*
X10108158Y-18282674D01*
X10108158Y-18282674D02*
X10127206Y-18273150D01*
X10127206Y-18273150D02*
X10165301Y-18273150D01*
X10165301Y-18273150D02*
X10184349Y-18282674D01*
X10184349Y-18282674D02*
X10193873Y-18301722D01*
X10193873Y-18301722D02*
X10193873Y-18320770D01*
X10193873Y-18320770D02*
X10098635Y-18339817D01*
X10365301Y-18406484D02*
X10365301Y-18206484D01*
X10365301Y-18396960D02*
X10346254Y-18406484D01*
X10346254Y-18406484D02*
X10308158Y-18406484D01*
X10308158Y-18406484D02*
X10289111Y-18396960D01*
X10289111Y-18396960D02*
X10279587Y-18387436D01*
X10279587Y-18387436D02*
X10270063Y-18368389D01*
X10270063Y-18368389D02*
X10270063Y-18311246D01*
X10270063Y-18311246D02*
X10279587Y-18292198D01*
X10279587Y-18292198D02*
X10289111Y-18282674D01*
X10289111Y-18282674D02*
X10308158Y-18273150D01*
X10308158Y-18273150D02*
X10346254Y-18273150D01*
X10346254Y-18273150D02*
X10365301Y-18282674D01*
X10441492Y-18482674D02*
X10451016Y-18473150D01*
X10451016Y-18473150D02*
X10470063Y-18444579D01*
X10470063Y-18444579D02*
X10479587Y-18425531D01*
X10479587Y-18425531D02*
X10489111Y-18396960D01*
X10489111Y-18396960D02*
X10498635Y-18349341D01*
X10498635Y-18349341D02*
X10498635Y-18311246D01*
X10498635Y-18311246D02*
X10489111Y-18263627D01*
X10489111Y-18263627D02*
X10479587Y-18235055D01*
X10479587Y-18235055D02*
X10470063Y-18216008D01*
X10470063Y-18216008D02*
X10451016Y-18187436D01*
X10451016Y-18187436D02*
X10441492Y-18177912D01*
M02*
