%TF.GenerationSoftware,KiCad,Pcbnew,10.0.3*%
%TF.CreationDate,2026-08-20T07:58:21+09:00*%
%TF.ProjectId,kc2_left-x3-v2,6b63325f-6c65-4667-942d-78332d76322e,draft-v2*%
%TF.SameCoordinates,Original*%
%TF.FileFunction,Drillmap*%
%TF.FilePolarity,Positive*%
%FSLAX45Y45*%
G04 Gerber Fmt 4.5, Leading zero omitted, Abs format (unit mm)*
G04 Created by KiCad (PCBNEW 10.0.3) date 2026-08-20 07:58:21*
%MOMM*%
%LPD*%
G01*
G04 APERTURE LIST*
%ADD10C,0.100000*%
%ADD11C,0.200000*%
%ADD12C,0.165000*%
%ADD13C,0.170000*%
%ADD14C,0.220000*%
%ADD15C,0.300000*%
%ADD16C,0.500000*%
G04 APERTURE END LIST*
D10*
X3600000Y-7150000D02*
X3608000Y-7078000D01*
X3600000Y-8505000D02*
X3600000Y-7150000D01*
X3600000Y-8585000D02*
X3600000Y-8505000D01*
X3600000Y-8665000D02*
X3600000Y-8585000D01*
X3600000Y-8745000D02*
X3600000Y-8665000D01*
X3600000Y-8825000D02*
X3600000Y-8745000D01*
X3600000Y-8905000D02*
X3600000Y-8825000D01*
X3600000Y-10410000D02*
X3600000Y-8905000D01*
X3600000Y-10490000D02*
X3600000Y-10410000D01*
X3600000Y-10570000D02*
X3600000Y-10490000D01*
X3600000Y-10650000D02*
X3600000Y-10570000D01*
X3600000Y-10730000D02*
X3600000Y-10650000D01*
X3600000Y-10810000D02*
X3600000Y-10730000D01*
X3600000Y-12315000D02*
X3600000Y-10810000D01*
X3600000Y-12395000D02*
X3600000Y-12315000D01*
X3600000Y-12475000D02*
X3600000Y-12395000D01*
X3600000Y-12555000D02*
X3600000Y-12475000D01*
X3600000Y-12635000D02*
X3600000Y-12555000D01*
X3600000Y-12715000D02*
X3600000Y-12635000D01*
X3600000Y-14220000D02*
X3600000Y-12715000D01*
X3600000Y-14300000D02*
X3600000Y-14220000D01*
X3600000Y-14380000D02*
X3600000Y-14300000D01*
X3600000Y-14460000D02*
X3600000Y-14380000D01*
X3600000Y-14540000D02*
X3600000Y-14460000D01*
X3600000Y-14620000D02*
X3600000Y-14540000D01*
X3600000Y-15975000D02*
X3600000Y-14620000D01*
X3608000Y-7078000D02*
X3632000Y-7022000D01*
X3608000Y-16047000D02*
X3600000Y-15975000D01*
X3632000Y-7022000D02*
X3672000Y-6982000D01*
X3632000Y-16103000D02*
X3608000Y-16047000D01*
X3672000Y-6982000D02*
X3728000Y-6958000D01*
X3672000Y-16143000D02*
X3632000Y-16103000D01*
X3728000Y-6958000D02*
X3800000Y-6950000D01*
X3728000Y-16167000D02*
X3672000Y-16143000D01*
X3800000Y-6950000D02*
X10821250Y-6950000D01*
X3800000Y-16175000D02*
X3728000Y-16167000D01*
X10821250Y-6950000D02*
X10893250Y-6942000D01*
X10893250Y-6942000D02*
X10949250Y-6918000D01*
X10949250Y-6918000D02*
X10989250Y-6878000D01*
X10989250Y-6878000D02*
X11013250Y-6822000D01*
X11013250Y-6822000D02*
X11021250Y-6750000D01*
X11021250Y-3700000D02*
X11029250Y-3628000D01*
X11021250Y-6750000D02*
X11021250Y-3700000D01*
X11029250Y-3628000D02*
X11053250Y-3572000D01*
X11053250Y-3572000D02*
X11093250Y-3532000D01*
X11093250Y-3532000D02*
X11149250Y-3508000D01*
X11149250Y-3508000D02*
X11221250Y-3500000D01*
X11221250Y-3500000D02*
X15071250Y-3500000D01*
X15071250Y-3500000D02*
X15143250Y-3508000D01*
X15143250Y-3508000D02*
X15199250Y-3532000D01*
X15199250Y-3532000D02*
X15239250Y-3572000D01*
X15239250Y-3572000D02*
X15263250Y-3628000D01*
X15263250Y-3628000D02*
X15271250Y-3700000D01*
X15271250Y-3700000D02*
X15271250Y-6750000D01*
X15271250Y-6750000D02*
X15279250Y-6822000D01*
X15279250Y-6822000D02*
X15303250Y-6878000D01*
X15303250Y-6878000D02*
X15343250Y-6918000D01*
X15343250Y-6918000D02*
X15399250Y-6942000D01*
X15399250Y-6942000D02*
X15471250Y-6950000D01*
X15471250Y-6950000D02*
X16435000Y-6950000D01*
X15682500Y-8905000D02*
X15682500Y-10410000D01*
X15682500Y-10410000D02*
X15690500Y-10482000D01*
X15690500Y-8833000D02*
X15682500Y-8905000D01*
X15690500Y-10482000D02*
X15714500Y-10538000D01*
X15714500Y-8777000D02*
X15690500Y-8833000D01*
X15714500Y-10538000D02*
X15754500Y-10578000D01*
X15754500Y-8737000D02*
X15714500Y-8777000D01*
X15754500Y-10578000D02*
X15810500Y-10602000D01*
X15810500Y-8713000D02*
X15754500Y-8737000D01*
X15810500Y-10602000D02*
X15882500Y-10610000D01*
X15882500Y-8705000D02*
X15810500Y-8713000D01*
X15882500Y-10610000D02*
X15958750Y-10610000D01*
X15958750Y-10610000D02*
X16030750Y-10618000D01*
X16030750Y-10618000D02*
X16086750Y-10642000D01*
X16086750Y-10642000D02*
X16126750Y-10682000D01*
X16126750Y-10682000D02*
X16150750Y-10738000D01*
X16150750Y-10738000D02*
X16158750Y-10810000D01*
X16158750Y-10810000D02*
X16158750Y-12315000D01*
X16158750Y-12315000D02*
X16166750Y-12387000D01*
X16166750Y-12387000D02*
X16190750Y-12443000D01*
X16190750Y-12443000D02*
X16230750Y-12483000D01*
X16230750Y-12483000D02*
X16286750Y-12507000D01*
X16286750Y-12507000D02*
X16358750Y-12515000D01*
X16358750Y-12515000D02*
X16911250Y-12515000D01*
X16435000Y-6950000D02*
X16507000Y-6958000D01*
X16435000Y-8705000D02*
X15882500Y-8705000D01*
X16507000Y-6958000D02*
X16563000Y-6982000D01*
X16507000Y-8697000D02*
X16435000Y-8705000D01*
X16563000Y-6982000D02*
X16603000Y-7022000D01*
X16563000Y-8673000D02*
X16507000Y-8697000D01*
X16603000Y-7022000D02*
X16627000Y-7078000D01*
X16603000Y-8633000D02*
X16563000Y-8673000D01*
X16627000Y-7078000D02*
X16635000Y-7150000D01*
X16627000Y-8577000D02*
X16603000Y-8633000D01*
X16635000Y-7150000D02*
X16635000Y-8505000D01*
X16635000Y-8505000D02*
X16627000Y-8577000D01*
X16911250Y-12515000D02*
X16983250Y-12523000D01*
X16911250Y-16175000D02*
X3800000Y-16175000D01*
X16983250Y-12523000D02*
X17039250Y-12547000D01*
X16983250Y-16167000D02*
X16911250Y-16175000D01*
X17039250Y-12547000D02*
X17079250Y-12587000D01*
X17039250Y-16143000D02*
X16983250Y-16167000D01*
X17079250Y-12587000D02*
X17103250Y-12643000D01*
X17079250Y-16103000D02*
X17039250Y-16143000D01*
X17103250Y-12643000D02*
X17111250Y-12715000D01*
X17103250Y-16047000D02*
X17079250Y-16103000D01*
X17111250Y-12715000D02*
X17111250Y-14220000D01*
X17111250Y-14220000D02*
X17111250Y-14300000D01*
X17111250Y-14300000D02*
X17111250Y-14380000D01*
X17111250Y-14380000D02*
X17111250Y-14460000D01*
X17111250Y-14460000D02*
X17111250Y-14540000D01*
X17111250Y-14540000D02*
X17111250Y-14620000D01*
X17111250Y-14620000D02*
X17111250Y-15975000D01*
X17111250Y-15975000D02*
X17103250Y-16047000D01*
D11*
D12*
X3820000Y-8185000D02*
X3985000Y-8350000D01*
X3985000Y-8185000D02*
X3820000Y-8350000D01*
X4058130Y-13900000D02*
X4223130Y-14065000D01*
X4223130Y-13900000D02*
X4058130Y-14065000D01*
X4058130Y-15805000D02*
X4223130Y-15970000D01*
X4223130Y-15805000D02*
X4058130Y-15970000D01*
X4296250Y-10090000D02*
X4461250Y-10255000D01*
X4461250Y-10090000D02*
X4296250Y-10255000D01*
X4534380Y-11995000D02*
X4699380Y-12160000D01*
X4699380Y-11995000D02*
X4534380Y-12160000D01*
X6725000Y-7155000D02*
X6890000Y-7320000D01*
X6890000Y-7155000D02*
X6725000Y-7320000D01*
X7201250Y-12870000D02*
X7366250Y-13035000D01*
X7366250Y-12870000D02*
X7201250Y-13035000D01*
X7439380Y-14775000D02*
X7604380Y-14940000D01*
X7604380Y-14775000D02*
X7439380Y-14940000D01*
X7677500Y-9060000D02*
X7842500Y-9225000D01*
X7842500Y-9060000D02*
X7677500Y-9225000D01*
X8153750Y-10965000D02*
X8318750Y-11130000D01*
X8318750Y-10965000D02*
X8153750Y-11130000D01*
X8630000Y-7155000D02*
X8795000Y-7320000D01*
X8795000Y-7155000D02*
X8630000Y-7320000D01*
X9106250Y-12870000D02*
X9271250Y-13035000D01*
X9271250Y-12870000D02*
X9106250Y-13035000D01*
X9582500Y-9060000D02*
X9747500Y-9225000D01*
X9747500Y-9060000D02*
X9582500Y-9225000D01*
X9820630Y-14775000D02*
X9985630Y-14940000D01*
X9985630Y-14775000D02*
X9820630Y-14940000D01*
X10058750Y-10965000D02*
X10223750Y-11130000D01*
X10223750Y-10965000D02*
X10058750Y-11130000D01*
X10535000Y-7155000D02*
X10700000Y-7320000D01*
X10700000Y-7155000D02*
X10535000Y-7320000D01*
X11011250Y-12870000D02*
X11176250Y-13035000D01*
X11176250Y-12870000D02*
X11011250Y-13035000D01*
X11487500Y-9060000D02*
X11652500Y-9225000D01*
X11652500Y-9060000D02*
X11487500Y-9225000D01*
X11963750Y-10965000D02*
X12128750Y-11130000D01*
X12128750Y-10965000D02*
X11963750Y-11130000D01*
X11963750Y-14775000D02*
X12128750Y-14940000D01*
X12128750Y-14775000D02*
X11963750Y-14940000D01*
X12440000Y-7155000D02*
X12605000Y-7320000D01*
X12605000Y-7155000D02*
X12440000Y-7320000D01*
X12916250Y-12870000D02*
X13081250Y-13035000D01*
X13081250Y-12870000D02*
X12916250Y-13035000D01*
X13392500Y-9060000D02*
X13557500Y-9225000D01*
X13557500Y-9060000D02*
X13392500Y-9225000D01*
X13868750Y-10965000D02*
X14033750Y-11130000D01*
X14033750Y-10965000D02*
X13868750Y-11130000D01*
X14106880Y-14775000D02*
X14271880Y-14940000D01*
X14271880Y-14775000D02*
X14106880Y-14940000D01*
X14345000Y-7155000D02*
X14510000Y-7320000D01*
X14510000Y-7155000D02*
X14345000Y-7320000D01*
X14821250Y-12870000D02*
X14986250Y-13035000D01*
X14986250Y-12870000D02*
X14821250Y-13035000D01*
X15297500Y-9060000D02*
X15462500Y-9225000D01*
X15462500Y-9060000D02*
X15297500Y-9225000D01*
X15773750Y-10965000D02*
X15938750Y-11130000D01*
X15938750Y-10965000D02*
X15773750Y-11130000D01*
X16250000Y-7155000D02*
X16415000Y-7320000D01*
X16415000Y-7155000D02*
X16250000Y-7320000D01*
X16488130Y-14775000D02*
X16653130Y-14940000D01*
X16653130Y-14775000D02*
X16488130Y-14940000D01*
X16726250Y-12870000D02*
X16891250Y-13035000D01*
X16891250Y-12870000D02*
X16726250Y-13035000D01*
D13*
X3979500Y-7752500D02*
G75*
G02*
X3809500Y-7752500I-85000J0D01*
G01*
X3809500Y-7752500D02*
G75*
G02*
X3979500Y-7752500I85000J0D01*
G01*
X4217630Y-13467500D02*
G75*
G02*
X4047630Y-13467500I-85000J0D01*
G01*
X4047630Y-13467500D02*
G75*
G02*
X4217630Y-13467500I85000J0D01*
G01*
X4217630Y-15372500D02*
G75*
G02*
X4047630Y-15372500I-85000J0D01*
G01*
X4047630Y-15372500D02*
G75*
G02*
X4217630Y-15372500I85000J0D01*
G01*
X4455750Y-9657500D02*
G75*
G02*
X4285750Y-9657500I-85000J0D01*
G01*
X4285750Y-9657500D02*
G75*
G02*
X4455750Y-9657500I85000J0D01*
G01*
X4693880Y-11562500D02*
G75*
G02*
X4523880Y-11562500I-85000J0D01*
G01*
X4523880Y-11562500D02*
G75*
G02*
X4693880Y-11562500I85000J0D01*
G01*
X4995500Y-7752500D02*
G75*
G02*
X4825500Y-7752500I-85000J0D01*
G01*
X4825500Y-7752500D02*
G75*
G02*
X4995500Y-7752500I85000J0D01*
G01*
X5233630Y-13467500D02*
G75*
G02*
X5063630Y-13467500I-85000J0D01*
G01*
X5063630Y-13467500D02*
G75*
G02*
X5233630Y-13467500I85000J0D01*
G01*
X5233630Y-15372500D02*
G75*
G02*
X5063630Y-15372500I-85000J0D01*
G01*
X5063630Y-15372500D02*
G75*
G02*
X5233630Y-15372500I85000J0D01*
G01*
X5471750Y-9657500D02*
G75*
G02*
X5301750Y-9657500I-85000J0D01*
G01*
X5301750Y-9657500D02*
G75*
G02*
X5471750Y-9657500I85000J0D01*
G01*
X5709880Y-11562500D02*
G75*
G02*
X5539880Y-11562500I-85000J0D01*
G01*
X5539880Y-11562500D02*
G75*
G02*
X5709880Y-11562500I85000J0D01*
G01*
X5884500Y-7752500D02*
G75*
G02*
X5714500Y-7752500I-85000J0D01*
G01*
X5714500Y-7752500D02*
G75*
G02*
X5884500Y-7752500I85000J0D01*
G01*
X6360750Y-13467500D02*
G75*
G02*
X6190750Y-13467500I-85000J0D01*
G01*
X6190750Y-13467500D02*
G75*
G02*
X6360750Y-13467500I85000J0D01*
G01*
X6598880Y-15372500D02*
G75*
G02*
X6428880Y-15372500I-85000J0D01*
G01*
X6428880Y-15372500D02*
G75*
G02*
X6598880Y-15372500I85000J0D01*
G01*
X6837000Y-9657500D02*
G75*
G02*
X6667000Y-9657500I-85000J0D01*
G01*
X6667000Y-9657500D02*
G75*
G02*
X6837000Y-9657500I85000J0D01*
G01*
X6900500Y-7752500D02*
G75*
G02*
X6730500Y-7752500I-85000J0D01*
G01*
X6730500Y-7752500D02*
G75*
G02*
X6900500Y-7752500I85000J0D01*
G01*
X7313250Y-11562500D02*
G75*
G02*
X7143250Y-11562500I-85000J0D01*
G01*
X7143250Y-11562500D02*
G75*
G02*
X7313250Y-11562500I85000J0D01*
G01*
X7376750Y-13467500D02*
G75*
G02*
X7206750Y-13467500I-85000J0D01*
G01*
X7206750Y-13467500D02*
G75*
G02*
X7376750Y-13467500I85000J0D01*
G01*
X7614880Y-15372500D02*
G75*
G02*
X7444880Y-15372500I-85000J0D01*
G01*
X7444880Y-15372500D02*
G75*
G02*
X7614880Y-15372500I85000J0D01*
G01*
X7789500Y-7752500D02*
G75*
G02*
X7619500Y-7752500I-85000J0D01*
G01*
X7619500Y-7752500D02*
G75*
G02*
X7789500Y-7752500I85000J0D01*
G01*
X7853000Y-9657500D02*
G75*
G02*
X7683000Y-9657500I-85000J0D01*
G01*
X7683000Y-9657500D02*
G75*
G02*
X7853000Y-9657500I85000J0D01*
G01*
X8265750Y-13467500D02*
G75*
G02*
X8095750Y-13467500I-85000J0D01*
G01*
X8095750Y-13467500D02*
G75*
G02*
X8265750Y-13467500I85000J0D01*
G01*
X8329250Y-11562500D02*
G75*
G02*
X8159250Y-11562500I-85000J0D01*
G01*
X8159250Y-11562500D02*
G75*
G02*
X8329250Y-11562500I85000J0D01*
G01*
X8742000Y-9657500D02*
G75*
G02*
X8572000Y-9657500I-85000J0D01*
G01*
X8572000Y-9657500D02*
G75*
G02*
X8742000Y-9657500I85000J0D01*
G01*
X8805500Y-7752500D02*
G75*
G02*
X8635500Y-7752500I-85000J0D01*
G01*
X8635500Y-7752500D02*
G75*
G02*
X8805500Y-7752500I85000J0D01*
G01*
X8980130Y-15372500D02*
G75*
G02*
X8810130Y-15372500I-85000J0D01*
G01*
X8810130Y-15372500D02*
G75*
G02*
X8980130Y-15372500I85000J0D01*
G01*
X9218250Y-11562500D02*
G75*
G02*
X9048250Y-11562500I-85000J0D01*
G01*
X9048250Y-11562500D02*
G75*
G02*
X9218250Y-11562500I85000J0D01*
G01*
X9281750Y-13467500D02*
G75*
G02*
X9111750Y-13467500I-85000J0D01*
G01*
X9111750Y-13467500D02*
G75*
G02*
X9281750Y-13467500I85000J0D01*
G01*
X9694500Y-7752500D02*
G75*
G02*
X9524500Y-7752500I-85000J0D01*
G01*
X9524500Y-7752500D02*
G75*
G02*
X9694500Y-7752500I85000J0D01*
G01*
X9758000Y-9657500D02*
G75*
G02*
X9588000Y-9657500I-85000J0D01*
G01*
X9588000Y-9657500D02*
G75*
G02*
X9758000Y-9657500I85000J0D01*
G01*
X9996130Y-15372500D02*
G75*
G02*
X9826130Y-15372500I-85000J0D01*
G01*
X9826130Y-15372500D02*
G75*
G02*
X9996130Y-15372500I85000J0D01*
G01*
X10170750Y-13467500D02*
G75*
G02*
X10000750Y-13467500I-85000J0D01*
G01*
X10000750Y-13467500D02*
G75*
G02*
X10170750Y-13467500I85000J0D01*
G01*
X10234250Y-11562500D02*
G75*
G02*
X10064250Y-11562500I-85000J0D01*
G01*
X10064250Y-11562500D02*
G75*
G02*
X10234250Y-11562500I85000J0D01*
G01*
X10647000Y-9657500D02*
G75*
G02*
X10477000Y-9657500I-85000J0D01*
G01*
X10477000Y-9657500D02*
G75*
G02*
X10647000Y-9657500I85000J0D01*
G01*
X10710500Y-7752500D02*
G75*
G02*
X10540500Y-7752500I-85000J0D01*
G01*
X10540500Y-7752500D02*
G75*
G02*
X10710500Y-7752500I85000J0D01*
G01*
X11123250Y-11562500D02*
G75*
G02*
X10953250Y-11562500I-85000J0D01*
G01*
X10953250Y-11562500D02*
G75*
G02*
X11123250Y-11562500I85000J0D01*
G01*
X11123250Y-15372500D02*
G75*
G02*
X10953250Y-15372500I-85000J0D01*
G01*
X10953250Y-15372500D02*
G75*
G02*
X11123250Y-15372500I85000J0D01*
G01*
X11186750Y-13467500D02*
G75*
G02*
X11016750Y-13467500I-85000J0D01*
G01*
X11016750Y-13467500D02*
G75*
G02*
X11186750Y-13467500I85000J0D01*
G01*
X11599500Y-7752500D02*
G75*
G02*
X11429500Y-7752500I-85000J0D01*
G01*
X11429500Y-7752500D02*
G75*
G02*
X11599500Y-7752500I85000J0D01*
G01*
X11663000Y-9657500D02*
G75*
G02*
X11493000Y-9657500I-85000J0D01*
G01*
X11493000Y-9657500D02*
G75*
G02*
X11663000Y-9657500I85000J0D01*
G01*
X12075750Y-13467500D02*
G75*
G02*
X11905750Y-13467500I-85000J0D01*
G01*
X11905750Y-13467500D02*
G75*
G02*
X12075750Y-13467500I85000J0D01*
G01*
X12139250Y-11562500D02*
G75*
G02*
X11969250Y-11562500I-85000J0D01*
G01*
X11969250Y-11562500D02*
G75*
G02*
X12139250Y-11562500I85000J0D01*
G01*
X12139250Y-15372500D02*
G75*
G02*
X11969250Y-15372500I-85000J0D01*
G01*
X11969250Y-15372500D02*
G75*
G02*
X12139250Y-15372500I85000J0D01*
G01*
X12552000Y-9657500D02*
G75*
G02*
X12382000Y-9657500I-85000J0D01*
G01*
X12382000Y-9657500D02*
G75*
G02*
X12552000Y-9657500I85000J0D01*
G01*
X12615500Y-7752500D02*
G75*
G02*
X12445500Y-7752500I-85000J0D01*
G01*
X12445500Y-7752500D02*
G75*
G02*
X12615500Y-7752500I85000J0D01*
G01*
X13028250Y-11562500D02*
G75*
G02*
X12858250Y-11562500I-85000J0D01*
G01*
X12858250Y-11562500D02*
G75*
G02*
X13028250Y-11562500I85000J0D01*
G01*
X13091750Y-13467500D02*
G75*
G02*
X12921750Y-13467500I-85000J0D01*
G01*
X12921750Y-13467500D02*
G75*
G02*
X13091750Y-13467500I85000J0D01*
G01*
X13266380Y-15372500D02*
G75*
G02*
X13096380Y-15372500I-85000J0D01*
G01*
X13096380Y-15372500D02*
G75*
G02*
X13266380Y-15372500I85000J0D01*
G01*
X13504500Y-7752500D02*
G75*
G02*
X13334500Y-7752500I-85000J0D01*
G01*
X13334500Y-7752500D02*
G75*
G02*
X13504500Y-7752500I85000J0D01*
G01*
X13568000Y-9657500D02*
G75*
G02*
X13398000Y-9657500I-85000J0D01*
G01*
X13398000Y-9657500D02*
G75*
G02*
X13568000Y-9657500I85000J0D01*
G01*
X13980750Y-13467500D02*
G75*
G02*
X13810750Y-13467500I-85000J0D01*
G01*
X13810750Y-13467500D02*
G75*
G02*
X13980750Y-13467500I85000J0D01*
G01*
X14044250Y-11562500D02*
G75*
G02*
X13874250Y-11562500I-85000J0D01*
G01*
X13874250Y-11562500D02*
G75*
G02*
X14044250Y-11562500I85000J0D01*
G01*
X14282380Y-15372500D02*
G75*
G02*
X14112380Y-15372500I-85000J0D01*
G01*
X14112380Y-15372500D02*
G75*
G02*
X14282380Y-15372500I85000J0D01*
G01*
X14457000Y-9657500D02*
G75*
G02*
X14287000Y-9657500I-85000J0D01*
G01*
X14287000Y-9657500D02*
G75*
G02*
X14457000Y-9657500I85000J0D01*
G01*
X14520500Y-7752500D02*
G75*
G02*
X14350500Y-7752500I-85000J0D01*
G01*
X14350500Y-7752500D02*
G75*
G02*
X14520500Y-7752500I85000J0D01*
G01*
X14933250Y-11562500D02*
G75*
G02*
X14763250Y-11562500I-85000J0D01*
G01*
X14763250Y-11562500D02*
G75*
G02*
X14933250Y-11562500I85000J0D01*
G01*
X14996750Y-13467500D02*
G75*
G02*
X14826750Y-13467500I-85000J0D01*
G01*
X14826750Y-13467500D02*
G75*
G02*
X14996750Y-13467500I85000J0D01*
G01*
X15409500Y-7752500D02*
G75*
G02*
X15239500Y-7752500I-85000J0D01*
G01*
X15239500Y-7752500D02*
G75*
G02*
X15409500Y-7752500I85000J0D01*
G01*
X15473000Y-9657500D02*
G75*
G02*
X15303000Y-9657500I-85000J0D01*
G01*
X15303000Y-9657500D02*
G75*
G02*
X15473000Y-9657500I85000J0D01*
G01*
X15647630Y-15372500D02*
G75*
G02*
X15477630Y-15372500I-85000J0D01*
G01*
X15477630Y-15372500D02*
G75*
G02*
X15647630Y-15372500I85000J0D01*
G01*
X15885750Y-13467500D02*
G75*
G02*
X15715750Y-13467500I-85000J0D01*
G01*
X15715750Y-13467500D02*
G75*
G02*
X15885750Y-13467500I85000J0D01*
G01*
X15949250Y-11562500D02*
G75*
G02*
X15779250Y-11562500I-85000J0D01*
G01*
X15779250Y-11562500D02*
G75*
G02*
X15949250Y-11562500I85000J0D01*
G01*
X16425500Y-7752500D02*
G75*
G02*
X16255500Y-7752500I-85000J0D01*
G01*
X16255500Y-7752500D02*
G75*
G02*
X16425500Y-7752500I85000J0D01*
G01*
X16663630Y-15372500D02*
G75*
G02*
X16493630Y-15372500I-85000J0D01*
G01*
X16493630Y-15372500D02*
G75*
G02*
X16663630Y-15372500I85000J0D01*
G01*
X16901750Y-13467500D02*
G75*
G02*
X16731750Y-13467500I-85000J0D01*
G01*
X16731750Y-13467500D02*
G75*
G02*
X16901750Y-13467500I85000J0D01*
G01*
D14*
X11891250Y-4790000D02*
X11891250Y-5010000D01*
X11781250Y-4900000D02*
X12001250Y-4900000D01*
D10*
X11821250Y-5010000D02*
X11961250Y-5010000D01*
X11961250Y-4790000D02*
G75*
G02*
X11961250Y-5010000I0J-110000D01*
G01*
X11961250Y-4790000D02*
X11821250Y-4790000D01*
X11821250Y-4790000D02*
G75*
G03*
X11821250Y-5010000I0J-110000D01*
G01*
D15*
X4508567Y-7268567D02*
X4508567Y-7056433D01*
X4296433Y-7056433D01*
X4296433Y-7268567D01*
X4508567Y-7268567D01*
X4746697Y-12983567D02*
X4746697Y-12771433D01*
X4534563Y-12771433D01*
X4534563Y-12983567D01*
X4746697Y-12983567D01*
X4746697Y-14888567D02*
X4746697Y-14676433D01*
X4534563Y-14676433D01*
X4534563Y-14888567D01*
X4746697Y-14888567D01*
X4984817Y-9173567D02*
X4984817Y-8961433D01*
X4772683Y-8961433D01*
X4772683Y-9173567D01*
X4984817Y-9173567D01*
X5008567Y-7478567D02*
X5008567Y-7266433D01*
X4796433Y-7266433D01*
X4796433Y-7478567D01*
X5008567Y-7478567D01*
X5222947Y-11078567D02*
X5222947Y-10866433D01*
X5010813Y-10866433D01*
X5010813Y-11078567D01*
X5222947Y-11078567D01*
X5246697Y-13193567D02*
X5246697Y-12981433D01*
X5034563Y-12981433D01*
X5034563Y-13193567D01*
X5246697Y-13193567D01*
X5246697Y-15098567D02*
X5246697Y-14886433D01*
X5034563Y-14886433D01*
X5034563Y-15098567D01*
X5246697Y-15098567D01*
X5484817Y-9383567D02*
X5484817Y-9171433D01*
X5272683Y-9171433D01*
X5272683Y-9383567D01*
X5484817Y-9383567D01*
X5722947Y-11288567D02*
X5722947Y-11076433D01*
X5510813Y-11076433D01*
X5510813Y-11288567D01*
X5722947Y-11288567D01*
X5913567Y-8238567D02*
X5913567Y-8026433D01*
X5701433Y-8026433D01*
X5701433Y-8238567D01*
X5913567Y-8238567D01*
X6389817Y-13953567D02*
X6389817Y-13741433D01*
X6177683Y-13741433D01*
X6177683Y-13953567D01*
X6389817Y-13953567D01*
X6413567Y-8448567D02*
X6413567Y-8236433D01*
X6201433Y-8236433D01*
X6201433Y-8448567D01*
X6413567Y-8448567D01*
X6627947Y-15858567D02*
X6627947Y-15646433D01*
X6415813Y-15646433D01*
X6415813Y-15858567D01*
X6627947Y-15858567D01*
X6866067Y-10143567D02*
X6866067Y-9931433D01*
X6653933Y-9931433D01*
X6653933Y-10143567D01*
X6866067Y-10143567D01*
X6889817Y-14163567D02*
X6889817Y-13951433D01*
X6677683Y-13951433D01*
X6677683Y-14163567D01*
X6889817Y-14163567D01*
X7127947Y-16068567D02*
X7127947Y-15856433D01*
X6915813Y-15856433D01*
X6915813Y-16068567D01*
X7127947Y-16068567D01*
X7342317Y-12048567D02*
X7342317Y-11836433D01*
X7130183Y-11836433D01*
X7130183Y-12048567D01*
X7342317Y-12048567D01*
X7366067Y-10353567D02*
X7366067Y-10141433D01*
X7153933Y-10141433D01*
X7153933Y-10353567D01*
X7366067Y-10353567D01*
X7818567Y-8238567D02*
X7818567Y-8026433D01*
X7606433Y-8026433D01*
X7606433Y-8238567D01*
X7818567Y-8238567D01*
X7842317Y-12258567D02*
X7842317Y-12046433D01*
X7630183Y-12046433D01*
X7630183Y-12258567D01*
X7842317Y-12258567D01*
X8294817Y-13953567D02*
X8294817Y-13741433D01*
X8082683Y-13741433D01*
X8082683Y-13953567D01*
X8294817Y-13953567D01*
X8318567Y-8448567D02*
X8318567Y-8236433D01*
X8106433Y-8236433D01*
X8106433Y-8448567D01*
X8318567Y-8448567D01*
X8771067Y-10143567D02*
X8771067Y-9931433D01*
X8558933Y-9931433D01*
X8558933Y-10143567D01*
X8771067Y-10143567D01*
X8794817Y-14163567D02*
X8794817Y-13951433D01*
X8582683Y-13951433D01*
X8582683Y-14163567D01*
X8794817Y-14163567D01*
X9009197Y-15858567D02*
X9009197Y-15646433D01*
X8797063Y-15646433D01*
X8797063Y-15858567D01*
X9009197Y-15858567D01*
X9247317Y-12048567D02*
X9247317Y-11836433D01*
X9035183Y-11836433D01*
X9035183Y-12048567D01*
X9247317Y-12048567D01*
X9271067Y-10353567D02*
X9271067Y-10141433D01*
X9058933Y-10141433D01*
X9058933Y-10353567D01*
X9271067Y-10353567D01*
X9509197Y-16068567D02*
X9509197Y-15856433D01*
X9297063Y-15856433D01*
X9297063Y-16068567D01*
X9509197Y-16068567D01*
X9723567Y-8238567D02*
X9723567Y-8026433D01*
X9511433Y-8026433D01*
X9511433Y-8238567D01*
X9723567Y-8238567D01*
X9747317Y-12258567D02*
X9747317Y-12046433D01*
X9535183Y-12046433D01*
X9535183Y-12258567D01*
X9747317Y-12258567D01*
X10199817Y-13953567D02*
X10199817Y-13741433D01*
X9987683Y-13741433D01*
X9987683Y-13953567D01*
X10199817Y-13953567D01*
X10223567Y-8448567D02*
X10223567Y-8236433D01*
X10011433Y-8236433D01*
X10011433Y-8448567D01*
X10223567Y-8448567D01*
X10676067Y-10143567D02*
X10676067Y-9931433D01*
X10463933Y-9931433D01*
X10463933Y-10143567D01*
X10676067Y-10143567D01*
X10699817Y-14163567D02*
X10699817Y-13951433D01*
X10487683Y-13951433D01*
X10487683Y-14163567D01*
X10699817Y-14163567D01*
X11152317Y-12048567D02*
X11152317Y-11836433D01*
X10940183Y-11836433D01*
X10940183Y-12048567D01*
X11152317Y-12048567D01*
X11152317Y-15858567D02*
X11152317Y-15646433D01*
X10940183Y-15646433D01*
X10940183Y-15858567D01*
X11152317Y-15858567D01*
X11176067Y-10353567D02*
X11176067Y-10141433D01*
X10963933Y-10141433D01*
X10963933Y-10353567D01*
X11176067Y-10353567D01*
X11628567Y-8238567D02*
X11628567Y-8026433D01*
X11416433Y-8026433D01*
X11416433Y-8238567D01*
X11628567Y-8238567D01*
X11652317Y-12258567D02*
X11652317Y-12046433D01*
X11440183Y-12046433D01*
X11440183Y-12258567D01*
X11652317Y-12258567D01*
X11652317Y-16068567D02*
X11652317Y-15856433D01*
X11440183Y-15856433D01*
X11440183Y-16068567D01*
X11652317Y-16068567D01*
X12104817Y-13953567D02*
X12104817Y-13741433D01*
X11892683Y-13741433D01*
X11892683Y-13953567D01*
X12104817Y-13953567D01*
X12128567Y-8448567D02*
X12128567Y-8236433D01*
X11916433Y-8236433D01*
X11916433Y-8448567D01*
X12128567Y-8448567D01*
X12581067Y-10143567D02*
X12581067Y-9931433D01*
X12368933Y-9931433D01*
X12368933Y-10143567D01*
X12581067Y-10143567D01*
X12604817Y-14163567D02*
X12604817Y-13951433D01*
X12392683Y-13951433D01*
X12392683Y-14163567D01*
X12604817Y-14163567D01*
X13057317Y-12048567D02*
X13057317Y-11836433D01*
X12845183Y-11836433D01*
X12845183Y-12048567D01*
X13057317Y-12048567D01*
X13081067Y-10353567D02*
X13081067Y-10141433D01*
X12868933Y-10141433D01*
X12868933Y-10353567D01*
X13081067Y-10353567D01*
X13295447Y-15858567D02*
X13295447Y-15646433D01*
X13083313Y-15646433D01*
X13083313Y-15858567D01*
X13295447Y-15858567D01*
X13533567Y-8238567D02*
X13533567Y-8026433D01*
X13321433Y-8026433D01*
X13321433Y-8238567D01*
X13533567Y-8238567D01*
X13557317Y-12258567D02*
X13557317Y-12046433D01*
X13345183Y-12046433D01*
X13345183Y-12258567D01*
X13557317Y-12258567D01*
X13795447Y-16068567D02*
X13795447Y-15856433D01*
X13583313Y-15856433D01*
X13583313Y-16068567D01*
X13795447Y-16068567D01*
X14009817Y-13953567D02*
X14009817Y-13741433D01*
X13797683Y-13741433D01*
X13797683Y-13953567D01*
X14009817Y-13953567D01*
X14033567Y-8448567D02*
X14033567Y-8236433D01*
X13821433Y-8236433D01*
X13821433Y-8448567D01*
X14033567Y-8448567D01*
X14486067Y-10143567D02*
X14486067Y-9931433D01*
X14273933Y-9931433D01*
X14273933Y-10143567D01*
X14486067Y-10143567D01*
X14509817Y-14163567D02*
X14509817Y-13951433D01*
X14297683Y-13951433D01*
X14297683Y-14163567D01*
X14509817Y-14163567D01*
X14962317Y-12048567D02*
X14962317Y-11836433D01*
X14750183Y-11836433D01*
X14750183Y-12048567D01*
X14962317Y-12048567D01*
X14986067Y-10353567D02*
X14986067Y-10141433D01*
X14773933Y-10141433D01*
X14773933Y-10353567D01*
X14986067Y-10353567D01*
X15438567Y-8238567D02*
X15438567Y-8026433D01*
X15226433Y-8026433D01*
X15226433Y-8238567D01*
X15438567Y-8238567D01*
X15462317Y-12258567D02*
X15462317Y-12046433D01*
X15250183Y-12046433D01*
X15250183Y-12258567D01*
X15462317Y-12258567D01*
X15676697Y-15858567D02*
X15676697Y-15646433D01*
X15464563Y-15646433D01*
X15464563Y-15858567D01*
X15676697Y-15858567D01*
X15914817Y-13953567D02*
X15914817Y-13741433D01*
X15702683Y-13741433D01*
X15702683Y-13953567D01*
X15914817Y-13953567D01*
X15938567Y-8448567D02*
X15938567Y-8236433D01*
X15726433Y-8236433D01*
X15726433Y-8448567D01*
X15938567Y-8448567D01*
X16176697Y-16068567D02*
X16176697Y-15856433D01*
X15964563Y-15856433D01*
X15964563Y-16068567D01*
X16176697Y-16068567D01*
X16414817Y-14163567D02*
X16414817Y-13951433D01*
X16202683Y-13951433D01*
X16202683Y-14163567D01*
X16414817Y-14163567D01*
D16*
X4402500Y-8002500D02*
X4652500Y-7752500D01*
X4402500Y-7502500D01*
X4152500Y-7752500D01*
X4402500Y-8002500D01*
X4640630Y-13717500D02*
X4890630Y-13467500D01*
X4640630Y-13217500D01*
X4390630Y-13467500D01*
X4640630Y-13717500D01*
X4640630Y-15622500D02*
X4890630Y-15372500D01*
X4640630Y-15122500D01*
X4390630Y-15372500D01*
X4640630Y-15622500D01*
X4878750Y-9907500D02*
X5128750Y-9657500D01*
X4878750Y-9407500D01*
X4628750Y-9657500D01*
X4878750Y-9907500D01*
X5116880Y-11812500D02*
X5366880Y-11562500D01*
X5116880Y-11312500D01*
X4866880Y-11562500D01*
X5116880Y-11812500D01*
X6307500Y-8002500D02*
X6557500Y-7752500D01*
X6307500Y-7502500D01*
X6057500Y-7752500D01*
X6307500Y-8002500D01*
X6783750Y-13717500D02*
X7033750Y-13467500D01*
X6783750Y-13217500D01*
X6533750Y-13467500D01*
X6783750Y-13717500D01*
X7021880Y-15622500D02*
X7271880Y-15372500D01*
X7021880Y-15122500D01*
X6771880Y-15372500D01*
X7021880Y-15622500D01*
X7260000Y-9907500D02*
X7510000Y-9657500D01*
X7260000Y-9407500D01*
X7010000Y-9657500D01*
X7260000Y-9907500D01*
X7736250Y-11812500D02*
X7986250Y-11562500D01*
X7736250Y-11312500D01*
X7486250Y-11562500D01*
X7736250Y-11812500D01*
X8212500Y-8002500D02*
X8462500Y-7752500D01*
X8212500Y-7502500D01*
X7962500Y-7752500D01*
X8212500Y-8002500D01*
X8688750Y-13717500D02*
X8938750Y-13467500D01*
X8688750Y-13217500D01*
X8438750Y-13467500D01*
X8688750Y-13717500D01*
X9165000Y-9907500D02*
X9415000Y-9657500D01*
X9165000Y-9407500D01*
X8915000Y-9657500D01*
X9165000Y-9907500D01*
X9403130Y-15622500D02*
X9653130Y-15372500D01*
X9403130Y-15122500D01*
X9153130Y-15372500D01*
X9403130Y-15622500D01*
X9641250Y-11812500D02*
X9891250Y-11562500D01*
X9641250Y-11312500D01*
X9391250Y-11562500D01*
X9641250Y-11812500D01*
X10117500Y-8002500D02*
X10367500Y-7752500D01*
X10117500Y-7502500D01*
X9867500Y-7752500D01*
X10117500Y-8002500D01*
X10593750Y-13717500D02*
X10843750Y-13467500D01*
X10593750Y-13217500D01*
X10343750Y-13467500D01*
X10593750Y-13717500D01*
X11070000Y-9907500D02*
X11320000Y-9657500D01*
X11070000Y-9407500D01*
X10820000Y-9657500D01*
X11070000Y-9907500D01*
X11546250Y-11812500D02*
X11796250Y-11562500D01*
X11546250Y-11312500D01*
X11296250Y-11562500D01*
X11546250Y-11812500D01*
X11546250Y-15622500D02*
X11796250Y-15372500D01*
X11546250Y-15122500D01*
X11296250Y-15372500D01*
X11546250Y-15622500D01*
X12022500Y-8002500D02*
X12272500Y-7752500D01*
X12022500Y-7502500D01*
X11772500Y-7752500D01*
X12022500Y-8002500D01*
X12498750Y-13717500D02*
X12748750Y-13467500D01*
X12498750Y-13217500D01*
X12248750Y-13467500D01*
X12498750Y-13717500D01*
X12975000Y-9907500D02*
X13225000Y-9657500D01*
X12975000Y-9407500D01*
X12725000Y-9657500D01*
X12975000Y-9907500D01*
X13451250Y-11812500D02*
X13701250Y-11562500D01*
X13451250Y-11312500D01*
X13201250Y-11562500D01*
X13451250Y-11812500D01*
X13689380Y-15622500D02*
X13939380Y-15372500D01*
X13689380Y-15122500D01*
X13439380Y-15372500D01*
X13689380Y-15622500D01*
X13927500Y-8002500D02*
X14177500Y-7752500D01*
X13927500Y-7502500D01*
X13677500Y-7752500D01*
X13927500Y-8002500D01*
X14403750Y-13717500D02*
X14653750Y-13467500D01*
X14403750Y-13217500D01*
X14153750Y-13467500D01*
X14403750Y-13717500D01*
X14880000Y-9907500D02*
X15130000Y-9657500D01*
X14880000Y-9407500D01*
X14630000Y-9657500D01*
X14880000Y-9907500D01*
X15356250Y-11812500D02*
X15606250Y-11562500D01*
X15356250Y-11312500D01*
X15106250Y-11562500D01*
X15356250Y-11812500D01*
X15832500Y-8002500D02*
X16082500Y-7752500D01*
X15832500Y-7502500D01*
X15582500Y-7752500D01*
X15832500Y-8002500D01*
X16070630Y-15622500D02*
X16320630Y-15372500D01*
X16070630Y-15122500D01*
X15820630Y-15372500D01*
X16070630Y-15622500D01*
X16308750Y-13717500D02*
X16558750Y-13467500D01*
X16308750Y-13217500D01*
X16058750Y-13467500D01*
X16308750Y-13717500D01*
D11*
X3855777Y-16491484D02*
X3855777Y-16291484D01*
X3855777Y-16291484D02*
X3903396Y-16291484D01*
X3903396Y-16291484D02*
X3931967Y-16301008D01*
X3931967Y-16301008D02*
X3951015Y-16320055D01*
X3951015Y-16320055D02*
X3960539Y-16339103D01*
X3960539Y-16339103D02*
X3970062Y-16377198D01*
X3970062Y-16377198D02*
X3970062Y-16405769D01*
X3970062Y-16405769D02*
X3960539Y-16443865D01*
X3960539Y-16443865D02*
X3951015Y-16462912D01*
X3951015Y-16462912D02*
X3931967Y-16481960D01*
X3931967Y-16481960D02*
X3903396Y-16491484D01*
X3903396Y-16491484D02*
X3855777Y-16491484D01*
X4055777Y-16491484D02*
X4055777Y-16358150D01*
X4055777Y-16396246D02*
X4065301Y-16377198D01*
X4065301Y-16377198D02*
X4074824Y-16367674D01*
X4074824Y-16367674D02*
X4093872Y-16358150D01*
X4093872Y-16358150D02*
X4112920Y-16358150D01*
X4179586Y-16491484D02*
X4179586Y-16358150D01*
X4179586Y-16291484D02*
X4170062Y-16301008D01*
X4170062Y-16301008D02*
X4179586Y-16310531D01*
X4179586Y-16310531D02*
X4189110Y-16301008D01*
X4189110Y-16301008D02*
X4179586Y-16291484D01*
X4179586Y-16291484D02*
X4179586Y-16310531D01*
X4303396Y-16491484D02*
X4284348Y-16481960D01*
X4284348Y-16481960D02*
X4274824Y-16462912D01*
X4274824Y-16462912D02*
X4274824Y-16291484D01*
X4408158Y-16491484D02*
X4389110Y-16481960D01*
X4389110Y-16481960D02*
X4379586Y-16462912D01*
X4379586Y-16462912D02*
X4379586Y-16291484D01*
X4636729Y-16491484D02*
X4636729Y-16291484D01*
X4636729Y-16291484D02*
X4703396Y-16434341D01*
X4703396Y-16434341D02*
X4770063Y-16291484D01*
X4770063Y-16291484D02*
X4770063Y-16491484D01*
X4951015Y-16491484D02*
X4951015Y-16386722D01*
X4951015Y-16386722D02*
X4941491Y-16367674D01*
X4941491Y-16367674D02*
X4922444Y-16358150D01*
X4922444Y-16358150D02*
X4884348Y-16358150D01*
X4884348Y-16358150D02*
X4865301Y-16367674D01*
X4951015Y-16481960D02*
X4931967Y-16491484D01*
X4931967Y-16491484D02*
X4884348Y-16491484D01*
X4884348Y-16491484D02*
X4865301Y-16481960D01*
X4865301Y-16481960D02*
X4855777Y-16462912D01*
X4855777Y-16462912D02*
X4855777Y-16443865D01*
X4855777Y-16443865D02*
X4865301Y-16424817D01*
X4865301Y-16424817D02*
X4884348Y-16415293D01*
X4884348Y-16415293D02*
X4931967Y-16415293D01*
X4931967Y-16415293D02*
X4951015Y-16405769D01*
X5046253Y-16358150D02*
X5046253Y-16558150D01*
X5046253Y-16367674D02*
X5065301Y-16358150D01*
X5065301Y-16358150D02*
X5103396Y-16358150D01*
X5103396Y-16358150D02*
X5122444Y-16367674D01*
X5122444Y-16367674D02*
X5131967Y-16377198D01*
X5131967Y-16377198D02*
X5141491Y-16396246D01*
X5141491Y-16396246D02*
X5141491Y-16453388D01*
X5141491Y-16453388D02*
X5131967Y-16472436D01*
X5131967Y-16472436D02*
X5122444Y-16481960D01*
X5122444Y-16481960D02*
X5103396Y-16491484D01*
X5103396Y-16491484D02*
X5065301Y-16491484D01*
X5065301Y-16491484D02*
X5046253Y-16481960D01*
X5227205Y-16472436D02*
X5236729Y-16481960D01*
X5236729Y-16481960D02*
X5227205Y-16491484D01*
X5227205Y-16491484D02*
X5217682Y-16481960D01*
X5217682Y-16481960D02*
X5227205Y-16472436D01*
X5227205Y-16472436D02*
X5227205Y-16491484D01*
X5227205Y-16367674D02*
X5236729Y-16377198D01*
X5236729Y-16377198D02*
X5227205Y-16386722D01*
X5227205Y-16386722D02*
X5217682Y-16377198D01*
X5217682Y-16377198D02*
X5227205Y-16367674D01*
X5227205Y-16367674D02*
X5227205Y-16386722D01*
D12*
X3430000Y-16737500D02*
X3595000Y-16902500D01*
X3595000Y-16737500D02*
X3430000Y-16902500D01*
D11*
X3960539Y-16911484D02*
X3846253Y-16911484D01*
X3903396Y-16911484D02*
X3903396Y-16711484D01*
X3903396Y-16711484D02*
X3884348Y-16740055D01*
X3884348Y-16740055D02*
X3865301Y-16759103D01*
X3865301Y-16759103D02*
X3846253Y-16768627D01*
X4046253Y-16892436D02*
X4055777Y-16901960D01*
X4055777Y-16901960D02*
X4046253Y-16911484D01*
X4046253Y-16911484D02*
X4036729Y-16901960D01*
X4036729Y-16901960D02*
X4046253Y-16892436D01*
X4046253Y-16892436D02*
X4046253Y-16911484D01*
X4227205Y-16711484D02*
X4189110Y-16711484D01*
X4189110Y-16711484D02*
X4170062Y-16721008D01*
X4170062Y-16721008D02*
X4160539Y-16730531D01*
X4160539Y-16730531D02*
X4141491Y-16759103D01*
X4141491Y-16759103D02*
X4131967Y-16797198D01*
X4131967Y-16797198D02*
X4131967Y-16873389D01*
X4131967Y-16873389D02*
X4141491Y-16892436D01*
X4141491Y-16892436D02*
X4151015Y-16901960D01*
X4151015Y-16901960D02*
X4170062Y-16911484D01*
X4170062Y-16911484D02*
X4208158Y-16911484D01*
X4208158Y-16911484D02*
X4227205Y-16901960D01*
X4227205Y-16901960D02*
X4236729Y-16892436D01*
X4236729Y-16892436D02*
X4246253Y-16873389D01*
X4246253Y-16873389D02*
X4246253Y-16825770D01*
X4246253Y-16825770D02*
X4236729Y-16806722D01*
X4236729Y-16806722D02*
X4227205Y-16797198D01*
X4227205Y-16797198D02*
X4208158Y-16787674D01*
X4208158Y-16787674D02*
X4170062Y-16787674D01*
X4170062Y-16787674D02*
X4151015Y-16797198D01*
X4151015Y-16797198D02*
X4141491Y-16806722D01*
X4141491Y-16806722D02*
X4131967Y-16825770D01*
X4427205Y-16711484D02*
X4331967Y-16711484D01*
X4331967Y-16711484D02*
X4322444Y-16806722D01*
X4322444Y-16806722D02*
X4331967Y-16797198D01*
X4331967Y-16797198D02*
X4351015Y-16787674D01*
X4351015Y-16787674D02*
X4398634Y-16787674D01*
X4398634Y-16787674D02*
X4417682Y-16797198D01*
X4417682Y-16797198D02*
X4427205Y-16806722D01*
X4427205Y-16806722D02*
X4436729Y-16825770D01*
X4436729Y-16825770D02*
X4436729Y-16873389D01*
X4436729Y-16873389D02*
X4427205Y-16892436D01*
X4427205Y-16892436D02*
X4417682Y-16901960D01*
X4417682Y-16901960D02*
X4398634Y-16911484D01*
X4398634Y-16911484D02*
X4351015Y-16911484D01*
X4351015Y-16911484D02*
X4331967Y-16901960D01*
X4331967Y-16901960D02*
X4322444Y-16892436D01*
X4560539Y-16711484D02*
X4579586Y-16711484D01*
X4579586Y-16711484D02*
X4598634Y-16721008D01*
X4598634Y-16721008D02*
X4608158Y-16730531D01*
X4608158Y-16730531D02*
X4617682Y-16749579D01*
X4617682Y-16749579D02*
X4627205Y-16787674D01*
X4627205Y-16787674D02*
X4627205Y-16835293D01*
X4627205Y-16835293D02*
X4617682Y-16873389D01*
X4617682Y-16873389D02*
X4608158Y-16892436D01*
X4608158Y-16892436D02*
X4598634Y-16901960D01*
X4598634Y-16901960D02*
X4579586Y-16911484D01*
X4579586Y-16911484D02*
X4560539Y-16911484D01*
X4560539Y-16911484D02*
X4541491Y-16901960D01*
X4541491Y-16901960D02*
X4531967Y-16892436D01*
X4531967Y-16892436D02*
X4522444Y-16873389D01*
X4522444Y-16873389D02*
X4512920Y-16835293D01*
X4512920Y-16835293D02*
X4512920Y-16787674D01*
X4512920Y-16787674D02*
X4522444Y-16749579D01*
X4522444Y-16749579D02*
X4531967Y-16730531D01*
X4531967Y-16730531D02*
X4541491Y-16721008D01*
X4541491Y-16721008D02*
X4560539Y-16711484D01*
X4712920Y-16911484D02*
X4712920Y-16778150D01*
X4712920Y-16797198D02*
X4722444Y-16787674D01*
X4722444Y-16787674D02*
X4741491Y-16778150D01*
X4741491Y-16778150D02*
X4770063Y-16778150D01*
X4770063Y-16778150D02*
X4789110Y-16787674D01*
X4789110Y-16787674D02*
X4798634Y-16806722D01*
X4798634Y-16806722D02*
X4798634Y-16911484D01*
X4798634Y-16806722D02*
X4808158Y-16787674D01*
X4808158Y-16787674D02*
X4827205Y-16778150D01*
X4827205Y-16778150D02*
X4855777Y-16778150D01*
X4855777Y-16778150D02*
X4874825Y-16787674D01*
X4874825Y-16787674D02*
X4884348Y-16806722D01*
X4884348Y-16806722D02*
X4884348Y-16911484D01*
X4979586Y-16911484D02*
X4979586Y-16778150D01*
X4979586Y-16797198D02*
X4989110Y-16787674D01*
X4989110Y-16787674D02*
X5008158Y-16778150D01*
X5008158Y-16778150D02*
X5036729Y-16778150D01*
X5036729Y-16778150D02*
X5055777Y-16787674D01*
X5055777Y-16787674D02*
X5065301Y-16806722D01*
X5065301Y-16806722D02*
X5065301Y-16911484D01*
X5065301Y-16806722D02*
X5074825Y-16787674D01*
X5074825Y-16787674D02*
X5093872Y-16778150D01*
X5093872Y-16778150D02*
X5122444Y-16778150D01*
X5122444Y-16778150D02*
X5141491Y-16787674D01*
X5141491Y-16787674D02*
X5151015Y-16806722D01*
X5151015Y-16806722D02*
X5151015Y-16911484D01*
X5541491Y-16701960D02*
X5370063Y-16959103D01*
X5798634Y-16711484D02*
X5817682Y-16711484D01*
X5817682Y-16711484D02*
X5836729Y-16721008D01*
X5836729Y-16721008D02*
X5846253Y-16730531D01*
X5846253Y-16730531D02*
X5855777Y-16749579D01*
X5855777Y-16749579D02*
X5865301Y-16787674D01*
X5865301Y-16787674D02*
X5865301Y-16835293D01*
X5865301Y-16835293D02*
X5855777Y-16873389D01*
X5855777Y-16873389D02*
X5846253Y-16892436D01*
X5846253Y-16892436D02*
X5836729Y-16901960D01*
X5836729Y-16901960D02*
X5817682Y-16911484D01*
X5817682Y-16911484D02*
X5798634Y-16911484D01*
X5798634Y-16911484D02*
X5779586Y-16901960D01*
X5779586Y-16901960D02*
X5770063Y-16892436D01*
X5770063Y-16892436D02*
X5760539Y-16873389D01*
X5760539Y-16873389D02*
X5751015Y-16835293D01*
X5751015Y-16835293D02*
X5751015Y-16787674D01*
X5751015Y-16787674D02*
X5760539Y-16749579D01*
X5760539Y-16749579D02*
X5770063Y-16730531D01*
X5770063Y-16730531D02*
X5779586Y-16721008D01*
X5779586Y-16721008D02*
X5798634Y-16711484D01*
X5951015Y-16892436D02*
X5960539Y-16901960D01*
X5960539Y-16901960D02*
X5951015Y-16911484D01*
X5951015Y-16911484D02*
X5941491Y-16901960D01*
X5941491Y-16901960D02*
X5951015Y-16892436D01*
X5951015Y-16892436D02*
X5951015Y-16911484D01*
X6084348Y-16711484D02*
X6103396Y-16711484D01*
X6103396Y-16711484D02*
X6122444Y-16721008D01*
X6122444Y-16721008D02*
X6131967Y-16730531D01*
X6131967Y-16730531D02*
X6141491Y-16749579D01*
X6141491Y-16749579D02*
X6151015Y-16787674D01*
X6151015Y-16787674D02*
X6151015Y-16835293D01*
X6151015Y-16835293D02*
X6141491Y-16873389D01*
X6141491Y-16873389D02*
X6131967Y-16892436D01*
X6131967Y-16892436D02*
X6122444Y-16901960D01*
X6122444Y-16901960D02*
X6103396Y-16911484D01*
X6103396Y-16911484D02*
X6084348Y-16911484D01*
X6084348Y-16911484D02*
X6065301Y-16901960D01*
X6065301Y-16901960D02*
X6055777Y-16892436D01*
X6055777Y-16892436D02*
X6046253Y-16873389D01*
X6046253Y-16873389D02*
X6036729Y-16835293D01*
X6036729Y-16835293D02*
X6036729Y-16787674D01*
X6036729Y-16787674D02*
X6046253Y-16749579D01*
X6046253Y-16749579D02*
X6055777Y-16730531D01*
X6055777Y-16730531D02*
X6065301Y-16721008D01*
X6065301Y-16721008D02*
X6084348Y-16711484D01*
X6322444Y-16711484D02*
X6284348Y-16711484D01*
X6284348Y-16711484D02*
X6265301Y-16721008D01*
X6265301Y-16721008D02*
X6255777Y-16730531D01*
X6255777Y-16730531D02*
X6236729Y-16759103D01*
X6236729Y-16759103D02*
X6227206Y-16797198D01*
X6227206Y-16797198D02*
X6227206Y-16873389D01*
X6227206Y-16873389D02*
X6236729Y-16892436D01*
X6236729Y-16892436D02*
X6246253Y-16901960D01*
X6246253Y-16901960D02*
X6265301Y-16911484D01*
X6265301Y-16911484D02*
X6303396Y-16911484D01*
X6303396Y-16911484D02*
X6322444Y-16901960D01*
X6322444Y-16901960D02*
X6331967Y-16892436D01*
X6331967Y-16892436D02*
X6341491Y-16873389D01*
X6341491Y-16873389D02*
X6341491Y-16825770D01*
X6341491Y-16825770D02*
X6331967Y-16806722D01*
X6331967Y-16806722D02*
X6322444Y-16797198D01*
X6322444Y-16797198D02*
X6303396Y-16787674D01*
X6303396Y-16787674D02*
X6265301Y-16787674D01*
X6265301Y-16787674D02*
X6246253Y-16797198D01*
X6246253Y-16797198D02*
X6236729Y-16806722D01*
X6236729Y-16806722D02*
X6227206Y-16825770D01*
X6522444Y-16711484D02*
X6427206Y-16711484D01*
X6427206Y-16711484D02*
X6417682Y-16806722D01*
X6417682Y-16806722D02*
X6427206Y-16797198D01*
X6427206Y-16797198D02*
X6446253Y-16787674D01*
X6446253Y-16787674D02*
X6493872Y-16787674D01*
X6493872Y-16787674D02*
X6512920Y-16797198D01*
X6512920Y-16797198D02*
X6522444Y-16806722D01*
X6522444Y-16806722D02*
X6531967Y-16825770D01*
X6531967Y-16825770D02*
X6531967Y-16873389D01*
X6531967Y-16873389D02*
X6522444Y-16892436D01*
X6522444Y-16892436D02*
X6512920Y-16901960D01*
X6512920Y-16901960D02*
X6493872Y-16911484D01*
X6493872Y-16911484D02*
X6446253Y-16911484D01*
X6446253Y-16911484D02*
X6427206Y-16901960D01*
X6427206Y-16901960D02*
X6417682Y-16892436D01*
X6655777Y-16711484D02*
X6674825Y-16711484D01*
X6674825Y-16711484D02*
X6693872Y-16721008D01*
X6693872Y-16721008D02*
X6703396Y-16730531D01*
X6703396Y-16730531D02*
X6712920Y-16749579D01*
X6712920Y-16749579D02*
X6722444Y-16787674D01*
X6722444Y-16787674D02*
X6722444Y-16835293D01*
X6722444Y-16835293D02*
X6712920Y-16873389D01*
X6712920Y-16873389D02*
X6703396Y-16892436D01*
X6703396Y-16892436D02*
X6693872Y-16901960D01*
X6693872Y-16901960D02*
X6674825Y-16911484D01*
X6674825Y-16911484D02*
X6655777Y-16911484D01*
X6655777Y-16911484D02*
X6636729Y-16901960D01*
X6636729Y-16901960D02*
X6627206Y-16892436D01*
X6627206Y-16892436D02*
X6617682Y-16873389D01*
X6617682Y-16873389D02*
X6608158Y-16835293D01*
X6608158Y-16835293D02*
X6608158Y-16787674D01*
X6608158Y-16787674D02*
X6617682Y-16749579D01*
X6617682Y-16749579D02*
X6627206Y-16730531D01*
X6627206Y-16730531D02*
X6636729Y-16721008D01*
X6636729Y-16721008D02*
X6655777Y-16711484D01*
X6798634Y-16711484D02*
X6798634Y-16749579D01*
X6874825Y-16711484D02*
X6874825Y-16749579D01*
X7170063Y-16987674D02*
X7160539Y-16978150D01*
X7160539Y-16978150D02*
X7141491Y-16949579D01*
X7141491Y-16949579D02*
X7131968Y-16930531D01*
X7131968Y-16930531D02*
X7122444Y-16901960D01*
X7122444Y-16901960D02*
X7112920Y-16854341D01*
X7112920Y-16854341D02*
X7112920Y-16816246D01*
X7112920Y-16816246D02*
X7122444Y-16768627D01*
X7122444Y-16768627D02*
X7131968Y-16740055D01*
X7131968Y-16740055D02*
X7141491Y-16721008D01*
X7141491Y-16721008D02*
X7160539Y-16692436D01*
X7160539Y-16692436D02*
X7170063Y-16682912D01*
X7227206Y-16711484D02*
X7351015Y-16711484D01*
X7351015Y-16711484D02*
X7284348Y-16787674D01*
X7284348Y-16787674D02*
X7312920Y-16787674D01*
X7312920Y-16787674D02*
X7331968Y-16797198D01*
X7331968Y-16797198D02*
X7341491Y-16806722D01*
X7341491Y-16806722D02*
X7351015Y-16825770D01*
X7351015Y-16825770D02*
X7351015Y-16873389D01*
X7351015Y-16873389D02*
X7341491Y-16892436D01*
X7341491Y-16892436D02*
X7331968Y-16901960D01*
X7331968Y-16901960D02*
X7312920Y-16911484D01*
X7312920Y-16911484D02*
X7255777Y-16911484D01*
X7255777Y-16911484D02*
X7236729Y-16901960D01*
X7236729Y-16901960D02*
X7227206Y-16892436D01*
X7427206Y-16730531D02*
X7436729Y-16721008D01*
X7436729Y-16721008D02*
X7455777Y-16711484D01*
X7455777Y-16711484D02*
X7503396Y-16711484D01*
X7503396Y-16711484D02*
X7522444Y-16721008D01*
X7522444Y-16721008D02*
X7531968Y-16730531D01*
X7531968Y-16730531D02*
X7541491Y-16749579D01*
X7541491Y-16749579D02*
X7541491Y-16768627D01*
X7541491Y-16768627D02*
X7531968Y-16797198D01*
X7531968Y-16797198D02*
X7417682Y-16911484D01*
X7417682Y-16911484D02*
X7541491Y-16911484D01*
X7779587Y-16911484D02*
X7779587Y-16711484D01*
X7865301Y-16911484D02*
X7865301Y-16806722D01*
X7865301Y-16806722D02*
X7855777Y-16787674D01*
X7855777Y-16787674D02*
X7836730Y-16778150D01*
X7836730Y-16778150D02*
X7808158Y-16778150D01*
X7808158Y-16778150D02*
X7789110Y-16787674D01*
X7789110Y-16787674D02*
X7779587Y-16797198D01*
X7989110Y-16911484D02*
X7970063Y-16901960D01*
X7970063Y-16901960D02*
X7960539Y-16892436D01*
X7960539Y-16892436D02*
X7951015Y-16873389D01*
X7951015Y-16873389D02*
X7951015Y-16816246D01*
X7951015Y-16816246D02*
X7960539Y-16797198D01*
X7960539Y-16797198D02*
X7970063Y-16787674D01*
X7970063Y-16787674D02*
X7989110Y-16778150D01*
X7989110Y-16778150D02*
X8017682Y-16778150D01*
X8017682Y-16778150D02*
X8036730Y-16787674D01*
X8036730Y-16787674D02*
X8046253Y-16797198D01*
X8046253Y-16797198D02*
X8055777Y-16816246D01*
X8055777Y-16816246D02*
X8055777Y-16873389D01*
X8055777Y-16873389D02*
X8046253Y-16892436D01*
X8046253Y-16892436D02*
X8036730Y-16901960D01*
X8036730Y-16901960D02*
X8017682Y-16911484D01*
X8017682Y-16911484D02*
X7989110Y-16911484D01*
X8170063Y-16911484D02*
X8151015Y-16901960D01*
X8151015Y-16901960D02*
X8141491Y-16882912D01*
X8141491Y-16882912D02*
X8141491Y-16711484D01*
X8322444Y-16901960D02*
X8303396Y-16911484D01*
X8303396Y-16911484D02*
X8265301Y-16911484D01*
X8265301Y-16911484D02*
X8246253Y-16901960D01*
X8246253Y-16901960D02*
X8236730Y-16882912D01*
X8236730Y-16882912D02*
X8236730Y-16806722D01*
X8236730Y-16806722D02*
X8246253Y-16787674D01*
X8246253Y-16787674D02*
X8265301Y-16778150D01*
X8265301Y-16778150D02*
X8303396Y-16778150D01*
X8303396Y-16778150D02*
X8322444Y-16787674D01*
X8322444Y-16787674D02*
X8331968Y-16806722D01*
X8331968Y-16806722D02*
X8331968Y-16825770D01*
X8331968Y-16825770D02*
X8236730Y-16844817D01*
X8408158Y-16901960D02*
X8427206Y-16911484D01*
X8427206Y-16911484D02*
X8465301Y-16911484D01*
X8465301Y-16911484D02*
X8484349Y-16901960D01*
X8484349Y-16901960D02*
X8493873Y-16882912D01*
X8493873Y-16882912D02*
X8493873Y-16873389D01*
X8493873Y-16873389D02*
X8484349Y-16854341D01*
X8484349Y-16854341D02*
X8465301Y-16844817D01*
X8465301Y-16844817D02*
X8436730Y-16844817D01*
X8436730Y-16844817D02*
X8417682Y-16835293D01*
X8417682Y-16835293D02*
X8408158Y-16816246D01*
X8408158Y-16816246D02*
X8408158Y-16806722D01*
X8408158Y-16806722D02*
X8417682Y-16787674D01*
X8417682Y-16787674D02*
X8436730Y-16778150D01*
X8436730Y-16778150D02*
X8465301Y-16778150D01*
X8465301Y-16778150D02*
X8484349Y-16787674D01*
X8560539Y-16987674D02*
X8570063Y-16978150D01*
X8570063Y-16978150D02*
X8589111Y-16949579D01*
X8589111Y-16949579D02*
X8598634Y-16930531D01*
X8598634Y-16930531D02*
X8608158Y-16901960D01*
X8608158Y-16901960D02*
X8617682Y-16854341D01*
X8617682Y-16854341D02*
X8617682Y-16816246D01*
X8617682Y-16816246D02*
X8608158Y-16768627D01*
X8608158Y-16768627D02*
X8598634Y-16740055D01*
X8598634Y-16740055D02*
X8589111Y-16721008D01*
X8589111Y-16721008D02*
X8570063Y-16692436D01*
X8570063Y-16692436D02*
X8560539Y-16682912D01*
X8922444Y-16987674D02*
X8912920Y-16978150D01*
X8912920Y-16978150D02*
X8893873Y-16949579D01*
X8893873Y-16949579D02*
X8884349Y-16930531D01*
X8884349Y-16930531D02*
X8874825Y-16901960D01*
X8874825Y-16901960D02*
X8865301Y-16854341D01*
X8865301Y-16854341D02*
X8865301Y-16816246D01*
X8865301Y-16816246D02*
X8874825Y-16768627D01*
X8874825Y-16768627D02*
X8884349Y-16740055D01*
X8884349Y-16740055D02*
X8893873Y-16721008D01*
X8893873Y-16721008D02*
X8912920Y-16692436D01*
X8912920Y-16692436D02*
X8922444Y-16682912D01*
X8998634Y-16778150D02*
X8998634Y-16911484D01*
X8998634Y-16797198D02*
X9008158Y-16787674D01*
X9008158Y-16787674D02*
X9027206Y-16778150D01*
X9027206Y-16778150D02*
X9055777Y-16778150D01*
X9055777Y-16778150D02*
X9074825Y-16787674D01*
X9074825Y-16787674D02*
X9084349Y-16806722D01*
X9084349Y-16806722D02*
X9084349Y-16911484D01*
X9208158Y-16911484D02*
X9189111Y-16901960D01*
X9189111Y-16901960D02*
X9179587Y-16892436D01*
X9179587Y-16892436D02*
X9170063Y-16873389D01*
X9170063Y-16873389D02*
X9170063Y-16816246D01*
X9170063Y-16816246D02*
X9179587Y-16797198D01*
X9179587Y-16797198D02*
X9189111Y-16787674D01*
X9189111Y-16787674D02*
X9208158Y-16778150D01*
X9208158Y-16778150D02*
X9236730Y-16778150D01*
X9236730Y-16778150D02*
X9255777Y-16787674D01*
X9255777Y-16787674D02*
X9265301Y-16797198D01*
X9265301Y-16797198D02*
X9274825Y-16816246D01*
X9274825Y-16816246D02*
X9274825Y-16873389D01*
X9274825Y-16873389D02*
X9265301Y-16892436D01*
X9265301Y-16892436D02*
X9255777Y-16901960D01*
X9255777Y-16901960D02*
X9236730Y-16911484D01*
X9236730Y-16911484D02*
X9208158Y-16911484D01*
X9331968Y-16778150D02*
X9408158Y-16778150D01*
X9360539Y-16711484D02*
X9360539Y-16882912D01*
X9360539Y-16882912D02*
X9370063Y-16901960D01*
X9370063Y-16901960D02*
X9389111Y-16911484D01*
X9389111Y-16911484D02*
X9408158Y-16911484D01*
X9627206Y-16778150D02*
X9627206Y-16978150D01*
X9627206Y-16787674D02*
X9646254Y-16778150D01*
X9646254Y-16778150D02*
X9684349Y-16778150D01*
X9684349Y-16778150D02*
X9703396Y-16787674D01*
X9703396Y-16787674D02*
X9712920Y-16797198D01*
X9712920Y-16797198D02*
X9722444Y-16816246D01*
X9722444Y-16816246D02*
X9722444Y-16873389D01*
X9722444Y-16873389D02*
X9712920Y-16892436D01*
X9712920Y-16892436D02*
X9703396Y-16901960D01*
X9703396Y-16901960D02*
X9684349Y-16911484D01*
X9684349Y-16911484D02*
X9646254Y-16911484D01*
X9646254Y-16911484D02*
X9627206Y-16901960D01*
X9836730Y-16911484D02*
X9817682Y-16901960D01*
X9817682Y-16901960D02*
X9808158Y-16882912D01*
X9808158Y-16882912D02*
X9808158Y-16711484D01*
X9998635Y-16911484D02*
X9998635Y-16806722D01*
X9998635Y-16806722D02*
X9989111Y-16787674D01*
X9989111Y-16787674D02*
X9970063Y-16778150D01*
X9970063Y-16778150D02*
X9931968Y-16778150D01*
X9931968Y-16778150D02*
X9912920Y-16787674D01*
X9998635Y-16901960D02*
X9979587Y-16911484D01*
X9979587Y-16911484D02*
X9931968Y-16911484D01*
X9931968Y-16911484D02*
X9912920Y-16901960D01*
X9912920Y-16901960D02*
X9903396Y-16882912D01*
X9903396Y-16882912D02*
X9903396Y-16863865D01*
X9903396Y-16863865D02*
X9912920Y-16844817D01*
X9912920Y-16844817D02*
X9931968Y-16835293D01*
X9931968Y-16835293D02*
X9979587Y-16835293D01*
X9979587Y-16835293D02*
X9998635Y-16825770D01*
X10065301Y-16778150D02*
X10141492Y-16778150D01*
X10093873Y-16711484D02*
X10093873Y-16882912D01*
X10093873Y-16882912D02*
X10103396Y-16901960D01*
X10103396Y-16901960D02*
X10122444Y-16911484D01*
X10122444Y-16911484D02*
X10141492Y-16911484D01*
X10284349Y-16901960D02*
X10265301Y-16911484D01*
X10265301Y-16911484D02*
X10227206Y-16911484D01*
X10227206Y-16911484D02*
X10208158Y-16901960D01*
X10208158Y-16901960D02*
X10198635Y-16882912D01*
X10198635Y-16882912D02*
X10198635Y-16806722D01*
X10198635Y-16806722D02*
X10208158Y-16787674D01*
X10208158Y-16787674D02*
X10227206Y-16778150D01*
X10227206Y-16778150D02*
X10265301Y-16778150D01*
X10265301Y-16778150D02*
X10284349Y-16787674D01*
X10284349Y-16787674D02*
X10293873Y-16806722D01*
X10293873Y-16806722D02*
X10293873Y-16825770D01*
X10293873Y-16825770D02*
X10198635Y-16844817D01*
X10465301Y-16911484D02*
X10465301Y-16711484D01*
X10465301Y-16901960D02*
X10446254Y-16911484D01*
X10446254Y-16911484D02*
X10408158Y-16911484D01*
X10408158Y-16911484D02*
X10389111Y-16901960D01*
X10389111Y-16901960D02*
X10379587Y-16892436D01*
X10379587Y-16892436D02*
X10370063Y-16873389D01*
X10370063Y-16873389D02*
X10370063Y-16816246D01*
X10370063Y-16816246D02*
X10379587Y-16797198D01*
X10379587Y-16797198D02*
X10389111Y-16787674D01*
X10389111Y-16787674D02*
X10408158Y-16778150D01*
X10408158Y-16778150D02*
X10446254Y-16778150D01*
X10446254Y-16778150D02*
X10465301Y-16787674D01*
X10541492Y-16987674D02*
X10551016Y-16978150D01*
X10551016Y-16978150D02*
X10570063Y-16949579D01*
X10570063Y-16949579D02*
X10579587Y-16930531D01*
X10579587Y-16930531D02*
X10589111Y-16901960D01*
X10589111Y-16901960D02*
X10598635Y-16854341D01*
X10598635Y-16854341D02*
X10598635Y-16816246D01*
X10598635Y-16816246D02*
X10589111Y-16768627D01*
X10589111Y-16768627D02*
X10579587Y-16740055D01*
X10579587Y-16740055D02*
X10570063Y-16721008D01*
X10570063Y-16721008D02*
X10551016Y-16692436D01*
X10551016Y-16692436D02*
X10541492Y-16682912D01*
D13*
X3595000Y-17105000D02*
G75*
G02*
X3425000Y-17105000I-85000J0D01*
G01*
X3425000Y-17105000D02*
G75*
G02*
X3595000Y-17105000I85000J0D01*
G01*
D11*
X3960539Y-17196484D02*
X3846253Y-17196484D01*
X3903396Y-17196484D02*
X3903396Y-16996484D01*
X3903396Y-16996484D02*
X3884348Y-17025055D01*
X3884348Y-17025055D02*
X3865301Y-17044103D01*
X3865301Y-17044103D02*
X3846253Y-17053627D01*
X4046253Y-17177436D02*
X4055777Y-17186960D01*
X4055777Y-17186960D02*
X4046253Y-17196484D01*
X4046253Y-17196484D02*
X4036729Y-17186960D01*
X4036729Y-17186960D02*
X4046253Y-17177436D01*
X4046253Y-17177436D02*
X4046253Y-17196484D01*
X4122443Y-16996484D02*
X4255777Y-16996484D01*
X4255777Y-16996484D02*
X4170062Y-17196484D01*
X4370063Y-16996484D02*
X4389110Y-16996484D01*
X4389110Y-16996484D02*
X4408158Y-17006008D01*
X4408158Y-17006008D02*
X4417682Y-17015531D01*
X4417682Y-17015531D02*
X4427205Y-17034579D01*
X4427205Y-17034579D02*
X4436729Y-17072674D01*
X4436729Y-17072674D02*
X4436729Y-17120293D01*
X4436729Y-17120293D02*
X4427205Y-17158389D01*
X4427205Y-17158389D02*
X4417682Y-17177436D01*
X4417682Y-17177436D02*
X4408158Y-17186960D01*
X4408158Y-17186960D02*
X4389110Y-17196484D01*
X4389110Y-17196484D02*
X4370063Y-17196484D01*
X4370063Y-17196484D02*
X4351015Y-17186960D01*
X4351015Y-17186960D02*
X4341491Y-17177436D01*
X4341491Y-17177436D02*
X4331967Y-17158389D01*
X4331967Y-17158389D02*
X4322444Y-17120293D01*
X4322444Y-17120293D02*
X4322444Y-17072674D01*
X4322444Y-17072674D02*
X4331967Y-17034579D01*
X4331967Y-17034579D02*
X4341491Y-17015531D01*
X4341491Y-17015531D02*
X4351015Y-17006008D01*
X4351015Y-17006008D02*
X4370063Y-16996484D01*
X4560539Y-16996484D02*
X4579586Y-16996484D01*
X4579586Y-16996484D02*
X4598634Y-17006008D01*
X4598634Y-17006008D02*
X4608158Y-17015531D01*
X4608158Y-17015531D02*
X4617682Y-17034579D01*
X4617682Y-17034579D02*
X4627205Y-17072674D01*
X4627205Y-17072674D02*
X4627205Y-17120293D01*
X4627205Y-17120293D02*
X4617682Y-17158389D01*
X4617682Y-17158389D02*
X4608158Y-17177436D01*
X4608158Y-17177436D02*
X4598634Y-17186960D01*
X4598634Y-17186960D02*
X4579586Y-17196484D01*
X4579586Y-17196484D02*
X4560539Y-17196484D01*
X4560539Y-17196484D02*
X4541491Y-17186960D01*
X4541491Y-17186960D02*
X4531967Y-17177436D01*
X4531967Y-17177436D02*
X4522444Y-17158389D01*
X4522444Y-17158389D02*
X4512920Y-17120293D01*
X4512920Y-17120293D02*
X4512920Y-17072674D01*
X4512920Y-17072674D02*
X4522444Y-17034579D01*
X4522444Y-17034579D02*
X4531967Y-17015531D01*
X4531967Y-17015531D02*
X4541491Y-17006008D01*
X4541491Y-17006008D02*
X4560539Y-16996484D01*
X4712920Y-17196484D02*
X4712920Y-17063150D01*
X4712920Y-17082198D02*
X4722444Y-17072674D01*
X4722444Y-17072674D02*
X4741491Y-17063150D01*
X4741491Y-17063150D02*
X4770063Y-17063150D01*
X4770063Y-17063150D02*
X4789110Y-17072674D01*
X4789110Y-17072674D02*
X4798634Y-17091722D01*
X4798634Y-17091722D02*
X4798634Y-17196484D01*
X4798634Y-17091722D02*
X4808158Y-17072674D01*
X4808158Y-17072674D02*
X4827205Y-17063150D01*
X4827205Y-17063150D02*
X4855777Y-17063150D01*
X4855777Y-17063150D02*
X4874825Y-17072674D01*
X4874825Y-17072674D02*
X4884348Y-17091722D01*
X4884348Y-17091722D02*
X4884348Y-17196484D01*
X4979586Y-17196484D02*
X4979586Y-17063150D01*
X4979586Y-17082198D02*
X4989110Y-17072674D01*
X4989110Y-17072674D02*
X5008158Y-17063150D01*
X5008158Y-17063150D02*
X5036729Y-17063150D01*
X5036729Y-17063150D02*
X5055777Y-17072674D01*
X5055777Y-17072674D02*
X5065301Y-17091722D01*
X5065301Y-17091722D02*
X5065301Y-17196484D01*
X5065301Y-17091722D02*
X5074825Y-17072674D01*
X5074825Y-17072674D02*
X5093872Y-17063150D01*
X5093872Y-17063150D02*
X5122444Y-17063150D01*
X5122444Y-17063150D02*
X5141491Y-17072674D01*
X5141491Y-17072674D02*
X5151015Y-17091722D01*
X5151015Y-17091722D02*
X5151015Y-17196484D01*
X5541491Y-16986960D02*
X5370063Y-17244103D01*
X5798634Y-16996484D02*
X5817682Y-16996484D01*
X5817682Y-16996484D02*
X5836729Y-17006008D01*
X5836729Y-17006008D02*
X5846253Y-17015531D01*
X5846253Y-17015531D02*
X5855777Y-17034579D01*
X5855777Y-17034579D02*
X5865301Y-17072674D01*
X5865301Y-17072674D02*
X5865301Y-17120293D01*
X5865301Y-17120293D02*
X5855777Y-17158389D01*
X5855777Y-17158389D02*
X5846253Y-17177436D01*
X5846253Y-17177436D02*
X5836729Y-17186960D01*
X5836729Y-17186960D02*
X5817682Y-17196484D01*
X5817682Y-17196484D02*
X5798634Y-17196484D01*
X5798634Y-17196484D02*
X5779586Y-17186960D01*
X5779586Y-17186960D02*
X5770063Y-17177436D01*
X5770063Y-17177436D02*
X5760539Y-17158389D01*
X5760539Y-17158389D02*
X5751015Y-17120293D01*
X5751015Y-17120293D02*
X5751015Y-17072674D01*
X5751015Y-17072674D02*
X5760539Y-17034579D01*
X5760539Y-17034579D02*
X5770063Y-17015531D01*
X5770063Y-17015531D02*
X5779586Y-17006008D01*
X5779586Y-17006008D02*
X5798634Y-16996484D01*
X5951015Y-17177436D02*
X5960539Y-17186960D01*
X5960539Y-17186960D02*
X5951015Y-17196484D01*
X5951015Y-17196484D02*
X5941491Y-17186960D01*
X5941491Y-17186960D02*
X5951015Y-17177436D01*
X5951015Y-17177436D02*
X5951015Y-17196484D01*
X6084348Y-16996484D02*
X6103396Y-16996484D01*
X6103396Y-16996484D02*
X6122444Y-17006008D01*
X6122444Y-17006008D02*
X6131967Y-17015531D01*
X6131967Y-17015531D02*
X6141491Y-17034579D01*
X6141491Y-17034579D02*
X6151015Y-17072674D01*
X6151015Y-17072674D02*
X6151015Y-17120293D01*
X6151015Y-17120293D02*
X6141491Y-17158389D01*
X6141491Y-17158389D02*
X6131967Y-17177436D01*
X6131967Y-17177436D02*
X6122444Y-17186960D01*
X6122444Y-17186960D02*
X6103396Y-17196484D01*
X6103396Y-17196484D02*
X6084348Y-17196484D01*
X6084348Y-17196484D02*
X6065301Y-17186960D01*
X6065301Y-17186960D02*
X6055777Y-17177436D01*
X6055777Y-17177436D02*
X6046253Y-17158389D01*
X6046253Y-17158389D02*
X6036729Y-17120293D01*
X6036729Y-17120293D02*
X6036729Y-17072674D01*
X6036729Y-17072674D02*
X6046253Y-17034579D01*
X6046253Y-17034579D02*
X6055777Y-17015531D01*
X6055777Y-17015531D02*
X6065301Y-17006008D01*
X6065301Y-17006008D02*
X6084348Y-16996484D01*
X6322444Y-16996484D02*
X6284348Y-16996484D01*
X6284348Y-16996484D02*
X6265301Y-17006008D01*
X6265301Y-17006008D02*
X6255777Y-17015531D01*
X6255777Y-17015531D02*
X6236729Y-17044103D01*
X6236729Y-17044103D02*
X6227206Y-17082198D01*
X6227206Y-17082198D02*
X6227206Y-17158389D01*
X6227206Y-17158389D02*
X6236729Y-17177436D01*
X6236729Y-17177436D02*
X6246253Y-17186960D01*
X6246253Y-17186960D02*
X6265301Y-17196484D01*
X6265301Y-17196484D02*
X6303396Y-17196484D01*
X6303396Y-17196484D02*
X6322444Y-17186960D01*
X6322444Y-17186960D02*
X6331967Y-17177436D01*
X6331967Y-17177436D02*
X6341491Y-17158389D01*
X6341491Y-17158389D02*
X6341491Y-17110770D01*
X6341491Y-17110770D02*
X6331967Y-17091722D01*
X6331967Y-17091722D02*
X6322444Y-17082198D01*
X6322444Y-17082198D02*
X6303396Y-17072674D01*
X6303396Y-17072674D02*
X6265301Y-17072674D01*
X6265301Y-17072674D02*
X6246253Y-17082198D01*
X6246253Y-17082198D02*
X6236729Y-17091722D01*
X6236729Y-17091722D02*
X6227206Y-17110770D01*
X6512920Y-16996484D02*
X6474825Y-16996484D01*
X6474825Y-16996484D02*
X6455777Y-17006008D01*
X6455777Y-17006008D02*
X6446253Y-17015531D01*
X6446253Y-17015531D02*
X6427206Y-17044103D01*
X6427206Y-17044103D02*
X6417682Y-17082198D01*
X6417682Y-17082198D02*
X6417682Y-17158389D01*
X6417682Y-17158389D02*
X6427206Y-17177436D01*
X6427206Y-17177436D02*
X6436729Y-17186960D01*
X6436729Y-17186960D02*
X6455777Y-17196484D01*
X6455777Y-17196484D02*
X6493872Y-17196484D01*
X6493872Y-17196484D02*
X6512920Y-17186960D01*
X6512920Y-17186960D02*
X6522444Y-17177436D01*
X6522444Y-17177436D02*
X6531967Y-17158389D01*
X6531967Y-17158389D02*
X6531967Y-17110770D01*
X6531967Y-17110770D02*
X6522444Y-17091722D01*
X6522444Y-17091722D02*
X6512920Y-17082198D01*
X6512920Y-17082198D02*
X6493872Y-17072674D01*
X6493872Y-17072674D02*
X6455777Y-17072674D01*
X6455777Y-17072674D02*
X6436729Y-17082198D01*
X6436729Y-17082198D02*
X6427206Y-17091722D01*
X6427206Y-17091722D02*
X6417682Y-17110770D01*
X6627206Y-17196484D02*
X6665301Y-17196484D01*
X6665301Y-17196484D02*
X6684348Y-17186960D01*
X6684348Y-17186960D02*
X6693872Y-17177436D01*
X6693872Y-17177436D02*
X6712920Y-17148865D01*
X6712920Y-17148865D02*
X6722444Y-17110770D01*
X6722444Y-17110770D02*
X6722444Y-17034579D01*
X6722444Y-17034579D02*
X6712920Y-17015531D01*
X6712920Y-17015531D02*
X6703396Y-17006008D01*
X6703396Y-17006008D02*
X6684348Y-16996484D01*
X6684348Y-16996484D02*
X6646253Y-16996484D01*
X6646253Y-16996484D02*
X6627206Y-17006008D01*
X6627206Y-17006008D02*
X6617682Y-17015531D01*
X6617682Y-17015531D02*
X6608158Y-17034579D01*
X6608158Y-17034579D02*
X6608158Y-17082198D01*
X6608158Y-17082198D02*
X6617682Y-17101246D01*
X6617682Y-17101246D02*
X6627206Y-17110770D01*
X6627206Y-17110770D02*
X6646253Y-17120293D01*
X6646253Y-17120293D02*
X6684348Y-17120293D01*
X6684348Y-17120293D02*
X6703396Y-17110770D01*
X6703396Y-17110770D02*
X6712920Y-17101246D01*
X6712920Y-17101246D02*
X6722444Y-17082198D01*
X6798634Y-16996484D02*
X6798634Y-17034579D01*
X6874825Y-16996484D02*
X6874825Y-17034579D01*
X7170063Y-17272674D02*
X7160539Y-17263150D01*
X7160539Y-17263150D02*
X7141491Y-17234579D01*
X7141491Y-17234579D02*
X7131968Y-17215531D01*
X7131968Y-17215531D02*
X7122444Y-17186960D01*
X7122444Y-17186960D02*
X7112920Y-17139341D01*
X7112920Y-17139341D02*
X7112920Y-17101246D01*
X7112920Y-17101246D02*
X7122444Y-17053627D01*
X7122444Y-17053627D02*
X7131968Y-17025055D01*
X7131968Y-17025055D02*
X7141491Y-17006008D01*
X7141491Y-17006008D02*
X7160539Y-16977436D01*
X7160539Y-16977436D02*
X7170063Y-16967912D01*
X7331968Y-16996484D02*
X7293872Y-16996484D01*
X7293872Y-16996484D02*
X7274825Y-17006008D01*
X7274825Y-17006008D02*
X7265301Y-17015531D01*
X7265301Y-17015531D02*
X7246253Y-17044103D01*
X7246253Y-17044103D02*
X7236729Y-17082198D01*
X7236729Y-17082198D02*
X7236729Y-17158389D01*
X7236729Y-17158389D02*
X7246253Y-17177436D01*
X7246253Y-17177436D02*
X7255777Y-17186960D01*
X7255777Y-17186960D02*
X7274825Y-17196484D01*
X7274825Y-17196484D02*
X7312920Y-17196484D01*
X7312920Y-17196484D02*
X7331968Y-17186960D01*
X7331968Y-17186960D02*
X7341491Y-17177436D01*
X7341491Y-17177436D02*
X7351015Y-17158389D01*
X7351015Y-17158389D02*
X7351015Y-17110770D01*
X7351015Y-17110770D02*
X7341491Y-17091722D01*
X7341491Y-17091722D02*
X7331968Y-17082198D01*
X7331968Y-17082198D02*
X7312920Y-17072674D01*
X7312920Y-17072674D02*
X7274825Y-17072674D01*
X7274825Y-17072674D02*
X7255777Y-17082198D01*
X7255777Y-17082198D02*
X7246253Y-17091722D01*
X7246253Y-17091722D02*
X7236729Y-17110770D01*
X7522444Y-17063150D02*
X7522444Y-17196484D01*
X7474825Y-16986960D02*
X7427206Y-17129817D01*
X7427206Y-17129817D02*
X7551015Y-17129817D01*
X7779587Y-17196484D02*
X7779587Y-16996484D01*
X7865301Y-17196484D02*
X7865301Y-17091722D01*
X7865301Y-17091722D02*
X7855777Y-17072674D01*
X7855777Y-17072674D02*
X7836730Y-17063150D01*
X7836730Y-17063150D02*
X7808158Y-17063150D01*
X7808158Y-17063150D02*
X7789110Y-17072674D01*
X7789110Y-17072674D02*
X7779587Y-17082198D01*
X7989110Y-17196484D02*
X7970063Y-17186960D01*
X7970063Y-17186960D02*
X7960539Y-17177436D01*
X7960539Y-17177436D02*
X7951015Y-17158389D01*
X7951015Y-17158389D02*
X7951015Y-17101246D01*
X7951015Y-17101246D02*
X7960539Y-17082198D01*
X7960539Y-17082198D02*
X7970063Y-17072674D01*
X7970063Y-17072674D02*
X7989110Y-17063150D01*
X7989110Y-17063150D02*
X8017682Y-17063150D01*
X8017682Y-17063150D02*
X8036730Y-17072674D01*
X8036730Y-17072674D02*
X8046253Y-17082198D01*
X8046253Y-17082198D02*
X8055777Y-17101246D01*
X8055777Y-17101246D02*
X8055777Y-17158389D01*
X8055777Y-17158389D02*
X8046253Y-17177436D01*
X8046253Y-17177436D02*
X8036730Y-17186960D01*
X8036730Y-17186960D02*
X8017682Y-17196484D01*
X8017682Y-17196484D02*
X7989110Y-17196484D01*
X8170063Y-17196484D02*
X8151015Y-17186960D01*
X8151015Y-17186960D02*
X8141491Y-17167912D01*
X8141491Y-17167912D02*
X8141491Y-16996484D01*
X8322444Y-17186960D02*
X8303396Y-17196484D01*
X8303396Y-17196484D02*
X8265301Y-17196484D01*
X8265301Y-17196484D02*
X8246253Y-17186960D01*
X8246253Y-17186960D02*
X8236730Y-17167912D01*
X8236730Y-17167912D02*
X8236730Y-17091722D01*
X8236730Y-17091722D02*
X8246253Y-17072674D01*
X8246253Y-17072674D02*
X8265301Y-17063150D01*
X8265301Y-17063150D02*
X8303396Y-17063150D01*
X8303396Y-17063150D02*
X8322444Y-17072674D01*
X8322444Y-17072674D02*
X8331968Y-17091722D01*
X8331968Y-17091722D02*
X8331968Y-17110770D01*
X8331968Y-17110770D02*
X8236730Y-17129817D01*
X8408158Y-17186960D02*
X8427206Y-17196484D01*
X8427206Y-17196484D02*
X8465301Y-17196484D01*
X8465301Y-17196484D02*
X8484349Y-17186960D01*
X8484349Y-17186960D02*
X8493873Y-17167912D01*
X8493873Y-17167912D02*
X8493873Y-17158389D01*
X8493873Y-17158389D02*
X8484349Y-17139341D01*
X8484349Y-17139341D02*
X8465301Y-17129817D01*
X8465301Y-17129817D02*
X8436730Y-17129817D01*
X8436730Y-17129817D02*
X8417682Y-17120293D01*
X8417682Y-17120293D02*
X8408158Y-17101246D01*
X8408158Y-17101246D02*
X8408158Y-17091722D01*
X8408158Y-17091722D02*
X8417682Y-17072674D01*
X8417682Y-17072674D02*
X8436730Y-17063150D01*
X8436730Y-17063150D02*
X8465301Y-17063150D01*
X8465301Y-17063150D02*
X8484349Y-17072674D01*
X8560539Y-17272674D02*
X8570063Y-17263150D01*
X8570063Y-17263150D02*
X8589111Y-17234579D01*
X8589111Y-17234579D02*
X8598634Y-17215531D01*
X8598634Y-17215531D02*
X8608158Y-17186960D01*
X8608158Y-17186960D02*
X8617682Y-17139341D01*
X8617682Y-17139341D02*
X8617682Y-17101246D01*
X8617682Y-17101246D02*
X8608158Y-17053627D01*
X8608158Y-17053627D02*
X8598634Y-17025055D01*
X8598634Y-17025055D02*
X8589111Y-17006008D01*
X8589111Y-17006008D02*
X8570063Y-16977436D01*
X8570063Y-16977436D02*
X8560539Y-16967912D01*
X8922444Y-17272674D02*
X8912920Y-17263150D01*
X8912920Y-17263150D02*
X8893873Y-17234579D01*
X8893873Y-17234579D02*
X8884349Y-17215531D01*
X8884349Y-17215531D02*
X8874825Y-17186960D01*
X8874825Y-17186960D02*
X8865301Y-17139341D01*
X8865301Y-17139341D02*
X8865301Y-17101246D01*
X8865301Y-17101246D02*
X8874825Y-17053627D01*
X8874825Y-17053627D02*
X8884349Y-17025055D01*
X8884349Y-17025055D02*
X8893873Y-17006008D01*
X8893873Y-17006008D02*
X8912920Y-16977436D01*
X8912920Y-16977436D02*
X8922444Y-16967912D01*
X8998634Y-17063150D02*
X8998634Y-17196484D01*
X8998634Y-17082198D02*
X9008158Y-17072674D01*
X9008158Y-17072674D02*
X9027206Y-17063150D01*
X9027206Y-17063150D02*
X9055777Y-17063150D01*
X9055777Y-17063150D02*
X9074825Y-17072674D01*
X9074825Y-17072674D02*
X9084349Y-17091722D01*
X9084349Y-17091722D02*
X9084349Y-17196484D01*
X9208158Y-17196484D02*
X9189111Y-17186960D01*
X9189111Y-17186960D02*
X9179587Y-17177436D01*
X9179587Y-17177436D02*
X9170063Y-17158389D01*
X9170063Y-17158389D02*
X9170063Y-17101246D01*
X9170063Y-17101246D02*
X9179587Y-17082198D01*
X9179587Y-17082198D02*
X9189111Y-17072674D01*
X9189111Y-17072674D02*
X9208158Y-17063150D01*
X9208158Y-17063150D02*
X9236730Y-17063150D01*
X9236730Y-17063150D02*
X9255777Y-17072674D01*
X9255777Y-17072674D02*
X9265301Y-17082198D01*
X9265301Y-17082198D02*
X9274825Y-17101246D01*
X9274825Y-17101246D02*
X9274825Y-17158389D01*
X9274825Y-17158389D02*
X9265301Y-17177436D01*
X9265301Y-17177436D02*
X9255777Y-17186960D01*
X9255777Y-17186960D02*
X9236730Y-17196484D01*
X9236730Y-17196484D02*
X9208158Y-17196484D01*
X9331968Y-17063150D02*
X9408158Y-17063150D01*
X9360539Y-16996484D02*
X9360539Y-17167912D01*
X9360539Y-17167912D02*
X9370063Y-17186960D01*
X9370063Y-17186960D02*
X9389111Y-17196484D01*
X9389111Y-17196484D02*
X9408158Y-17196484D01*
X9627206Y-17063150D02*
X9627206Y-17263150D01*
X9627206Y-17072674D02*
X9646254Y-17063150D01*
X9646254Y-17063150D02*
X9684349Y-17063150D01*
X9684349Y-17063150D02*
X9703396Y-17072674D01*
X9703396Y-17072674D02*
X9712920Y-17082198D01*
X9712920Y-17082198D02*
X9722444Y-17101246D01*
X9722444Y-17101246D02*
X9722444Y-17158389D01*
X9722444Y-17158389D02*
X9712920Y-17177436D01*
X9712920Y-17177436D02*
X9703396Y-17186960D01*
X9703396Y-17186960D02*
X9684349Y-17196484D01*
X9684349Y-17196484D02*
X9646254Y-17196484D01*
X9646254Y-17196484D02*
X9627206Y-17186960D01*
X9836730Y-17196484D02*
X9817682Y-17186960D01*
X9817682Y-17186960D02*
X9808158Y-17167912D01*
X9808158Y-17167912D02*
X9808158Y-16996484D01*
X9998635Y-17196484D02*
X9998635Y-17091722D01*
X9998635Y-17091722D02*
X9989111Y-17072674D01*
X9989111Y-17072674D02*
X9970063Y-17063150D01*
X9970063Y-17063150D02*
X9931968Y-17063150D01*
X9931968Y-17063150D02*
X9912920Y-17072674D01*
X9998635Y-17186960D02*
X9979587Y-17196484D01*
X9979587Y-17196484D02*
X9931968Y-17196484D01*
X9931968Y-17196484D02*
X9912920Y-17186960D01*
X9912920Y-17186960D02*
X9903396Y-17167912D01*
X9903396Y-17167912D02*
X9903396Y-17148865D01*
X9903396Y-17148865D02*
X9912920Y-17129817D01*
X9912920Y-17129817D02*
X9931968Y-17120293D01*
X9931968Y-17120293D02*
X9979587Y-17120293D01*
X9979587Y-17120293D02*
X9998635Y-17110770D01*
X10065301Y-17063150D02*
X10141492Y-17063150D01*
X10093873Y-16996484D02*
X10093873Y-17167912D01*
X10093873Y-17167912D02*
X10103396Y-17186960D01*
X10103396Y-17186960D02*
X10122444Y-17196484D01*
X10122444Y-17196484D02*
X10141492Y-17196484D01*
X10284349Y-17186960D02*
X10265301Y-17196484D01*
X10265301Y-17196484D02*
X10227206Y-17196484D01*
X10227206Y-17196484D02*
X10208158Y-17186960D01*
X10208158Y-17186960D02*
X10198635Y-17167912D01*
X10198635Y-17167912D02*
X10198635Y-17091722D01*
X10198635Y-17091722D02*
X10208158Y-17072674D01*
X10208158Y-17072674D02*
X10227206Y-17063150D01*
X10227206Y-17063150D02*
X10265301Y-17063150D01*
X10265301Y-17063150D02*
X10284349Y-17072674D01*
X10284349Y-17072674D02*
X10293873Y-17091722D01*
X10293873Y-17091722D02*
X10293873Y-17110770D01*
X10293873Y-17110770D02*
X10198635Y-17129817D01*
X10465301Y-17196484D02*
X10465301Y-16996484D01*
X10465301Y-17186960D02*
X10446254Y-17196484D01*
X10446254Y-17196484D02*
X10408158Y-17196484D01*
X10408158Y-17196484D02*
X10389111Y-17186960D01*
X10389111Y-17186960D02*
X10379587Y-17177436D01*
X10379587Y-17177436D02*
X10370063Y-17158389D01*
X10370063Y-17158389D02*
X10370063Y-17101246D01*
X10370063Y-17101246D02*
X10379587Y-17082198D01*
X10379587Y-17082198D02*
X10389111Y-17072674D01*
X10389111Y-17072674D02*
X10408158Y-17063150D01*
X10408158Y-17063150D02*
X10446254Y-17063150D01*
X10446254Y-17063150D02*
X10465301Y-17072674D01*
X10541492Y-17272674D02*
X10551016Y-17263150D01*
X10551016Y-17263150D02*
X10570063Y-17234579D01*
X10570063Y-17234579D02*
X10579587Y-17215531D01*
X10579587Y-17215531D02*
X10589111Y-17186960D01*
X10589111Y-17186960D02*
X10598635Y-17139341D01*
X10598635Y-17139341D02*
X10598635Y-17101246D01*
X10598635Y-17101246D02*
X10589111Y-17053627D01*
X10589111Y-17053627D02*
X10579587Y-17025055D01*
X10579587Y-17025055D02*
X10570063Y-17006008D01*
X10570063Y-17006008D02*
X10551016Y-16977436D01*
X10551016Y-16977436D02*
X10541492Y-16967912D01*
X3495000Y-17295000D02*
X3495000Y-17495000D01*
X3395000Y-17395000D02*
X3595000Y-17395000D01*
X3846253Y-17305531D02*
X3855777Y-17296008D01*
X3855777Y-17296008D02*
X3874824Y-17286484D01*
X3874824Y-17286484D02*
X3922443Y-17286484D01*
X3922443Y-17286484D02*
X3941491Y-17296008D01*
X3941491Y-17296008D02*
X3951015Y-17305531D01*
X3951015Y-17305531D02*
X3960539Y-17324579D01*
X3960539Y-17324579D02*
X3960539Y-17343627D01*
X3960539Y-17343627D02*
X3951015Y-17372198D01*
X3951015Y-17372198D02*
X3836729Y-17486484D01*
X3836729Y-17486484D02*
X3960539Y-17486484D01*
X4046253Y-17467436D02*
X4055777Y-17476960D01*
X4055777Y-17476960D02*
X4046253Y-17486484D01*
X4046253Y-17486484D02*
X4036729Y-17476960D01*
X4036729Y-17476960D02*
X4046253Y-17467436D01*
X4046253Y-17467436D02*
X4046253Y-17486484D01*
X4131967Y-17305531D02*
X4141491Y-17296008D01*
X4141491Y-17296008D02*
X4160539Y-17286484D01*
X4160539Y-17286484D02*
X4208158Y-17286484D01*
X4208158Y-17286484D02*
X4227205Y-17296008D01*
X4227205Y-17296008D02*
X4236729Y-17305531D01*
X4236729Y-17305531D02*
X4246253Y-17324579D01*
X4246253Y-17324579D02*
X4246253Y-17343627D01*
X4246253Y-17343627D02*
X4236729Y-17372198D01*
X4236729Y-17372198D02*
X4122443Y-17486484D01*
X4122443Y-17486484D02*
X4246253Y-17486484D01*
X4370063Y-17286484D02*
X4389110Y-17286484D01*
X4389110Y-17286484D02*
X4408158Y-17296008D01*
X4408158Y-17296008D02*
X4417682Y-17305531D01*
X4417682Y-17305531D02*
X4427205Y-17324579D01*
X4427205Y-17324579D02*
X4436729Y-17362674D01*
X4436729Y-17362674D02*
X4436729Y-17410293D01*
X4436729Y-17410293D02*
X4427205Y-17448389D01*
X4427205Y-17448389D02*
X4417682Y-17467436D01*
X4417682Y-17467436D02*
X4408158Y-17476960D01*
X4408158Y-17476960D02*
X4389110Y-17486484D01*
X4389110Y-17486484D02*
X4370063Y-17486484D01*
X4370063Y-17486484D02*
X4351015Y-17476960D01*
X4351015Y-17476960D02*
X4341491Y-17467436D01*
X4341491Y-17467436D02*
X4331967Y-17448389D01*
X4331967Y-17448389D02*
X4322444Y-17410293D01*
X4322444Y-17410293D02*
X4322444Y-17362674D01*
X4322444Y-17362674D02*
X4331967Y-17324579D01*
X4331967Y-17324579D02*
X4341491Y-17305531D01*
X4341491Y-17305531D02*
X4351015Y-17296008D01*
X4351015Y-17296008D02*
X4370063Y-17286484D01*
X4560539Y-17286484D02*
X4579586Y-17286484D01*
X4579586Y-17286484D02*
X4598634Y-17296008D01*
X4598634Y-17296008D02*
X4608158Y-17305531D01*
X4608158Y-17305531D02*
X4617682Y-17324579D01*
X4617682Y-17324579D02*
X4627205Y-17362674D01*
X4627205Y-17362674D02*
X4627205Y-17410293D01*
X4627205Y-17410293D02*
X4617682Y-17448389D01*
X4617682Y-17448389D02*
X4608158Y-17467436D01*
X4608158Y-17467436D02*
X4598634Y-17476960D01*
X4598634Y-17476960D02*
X4579586Y-17486484D01*
X4579586Y-17486484D02*
X4560539Y-17486484D01*
X4560539Y-17486484D02*
X4541491Y-17476960D01*
X4541491Y-17476960D02*
X4531967Y-17467436D01*
X4531967Y-17467436D02*
X4522444Y-17448389D01*
X4522444Y-17448389D02*
X4512920Y-17410293D01*
X4512920Y-17410293D02*
X4512920Y-17362674D01*
X4512920Y-17362674D02*
X4522444Y-17324579D01*
X4522444Y-17324579D02*
X4531967Y-17305531D01*
X4531967Y-17305531D02*
X4541491Y-17296008D01*
X4541491Y-17296008D02*
X4560539Y-17286484D01*
X4712920Y-17486484D02*
X4712920Y-17353150D01*
X4712920Y-17372198D02*
X4722444Y-17362674D01*
X4722444Y-17362674D02*
X4741491Y-17353150D01*
X4741491Y-17353150D02*
X4770063Y-17353150D01*
X4770063Y-17353150D02*
X4789110Y-17362674D01*
X4789110Y-17362674D02*
X4798634Y-17381722D01*
X4798634Y-17381722D02*
X4798634Y-17486484D01*
X4798634Y-17381722D02*
X4808158Y-17362674D01*
X4808158Y-17362674D02*
X4827205Y-17353150D01*
X4827205Y-17353150D02*
X4855777Y-17353150D01*
X4855777Y-17353150D02*
X4874825Y-17362674D01*
X4874825Y-17362674D02*
X4884348Y-17381722D01*
X4884348Y-17381722D02*
X4884348Y-17486484D01*
X4979586Y-17486484D02*
X4979586Y-17353150D01*
X4979586Y-17372198D02*
X4989110Y-17362674D01*
X4989110Y-17362674D02*
X5008158Y-17353150D01*
X5008158Y-17353150D02*
X5036729Y-17353150D01*
X5036729Y-17353150D02*
X5055777Y-17362674D01*
X5055777Y-17362674D02*
X5065301Y-17381722D01*
X5065301Y-17381722D02*
X5065301Y-17486484D01*
X5065301Y-17381722D02*
X5074825Y-17362674D01*
X5074825Y-17362674D02*
X5093872Y-17353150D01*
X5093872Y-17353150D02*
X5122444Y-17353150D01*
X5122444Y-17353150D02*
X5141491Y-17362674D01*
X5141491Y-17362674D02*
X5151015Y-17381722D01*
X5151015Y-17381722D02*
X5151015Y-17486484D01*
X5541491Y-17276960D02*
X5370063Y-17534103D01*
X5798634Y-17286484D02*
X5817682Y-17286484D01*
X5817682Y-17286484D02*
X5836729Y-17296008D01*
X5836729Y-17296008D02*
X5846253Y-17305531D01*
X5846253Y-17305531D02*
X5855777Y-17324579D01*
X5855777Y-17324579D02*
X5865301Y-17362674D01*
X5865301Y-17362674D02*
X5865301Y-17410293D01*
X5865301Y-17410293D02*
X5855777Y-17448389D01*
X5855777Y-17448389D02*
X5846253Y-17467436D01*
X5846253Y-17467436D02*
X5836729Y-17476960D01*
X5836729Y-17476960D02*
X5817682Y-17486484D01*
X5817682Y-17486484D02*
X5798634Y-17486484D01*
X5798634Y-17486484D02*
X5779586Y-17476960D01*
X5779586Y-17476960D02*
X5770063Y-17467436D01*
X5770063Y-17467436D02*
X5760539Y-17448389D01*
X5760539Y-17448389D02*
X5751015Y-17410293D01*
X5751015Y-17410293D02*
X5751015Y-17362674D01*
X5751015Y-17362674D02*
X5760539Y-17324579D01*
X5760539Y-17324579D02*
X5770063Y-17305531D01*
X5770063Y-17305531D02*
X5779586Y-17296008D01*
X5779586Y-17296008D02*
X5798634Y-17286484D01*
X5951015Y-17467436D02*
X5960539Y-17476960D01*
X5960539Y-17476960D02*
X5951015Y-17486484D01*
X5951015Y-17486484D02*
X5941491Y-17476960D01*
X5941491Y-17476960D02*
X5951015Y-17467436D01*
X5951015Y-17467436D02*
X5951015Y-17486484D01*
X6084348Y-17286484D02*
X6103396Y-17286484D01*
X6103396Y-17286484D02*
X6122444Y-17296008D01*
X6122444Y-17296008D02*
X6131967Y-17305531D01*
X6131967Y-17305531D02*
X6141491Y-17324579D01*
X6141491Y-17324579D02*
X6151015Y-17362674D01*
X6151015Y-17362674D02*
X6151015Y-17410293D01*
X6151015Y-17410293D02*
X6141491Y-17448389D01*
X6141491Y-17448389D02*
X6131967Y-17467436D01*
X6131967Y-17467436D02*
X6122444Y-17476960D01*
X6122444Y-17476960D02*
X6103396Y-17486484D01*
X6103396Y-17486484D02*
X6084348Y-17486484D01*
X6084348Y-17486484D02*
X6065301Y-17476960D01*
X6065301Y-17476960D02*
X6055777Y-17467436D01*
X6055777Y-17467436D02*
X6046253Y-17448389D01*
X6046253Y-17448389D02*
X6036729Y-17410293D01*
X6036729Y-17410293D02*
X6036729Y-17362674D01*
X6036729Y-17362674D02*
X6046253Y-17324579D01*
X6046253Y-17324579D02*
X6055777Y-17305531D01*
X6055777Y-17305531D02*
X6065301Y-17296008D01*
X6065301Y-17296008D02*
X6084348Y-17286484D01*
X6265301Y-17372198D02*
X6246253Y-17362674D01*
X6246253Y-17362674D02*
X6236729Y-17353150D01*
X6236729Y-17353150D02*
X6227206Y-17334103D01*
X6227206Y-17334103D02*
X6227206Y-17324579D01*
X6227206Y-17324579D02*
X6236729Y-17305531D01*
X6236729Y-17305531D02*
X6246253Y-17296008D01*
X6246253Y-17296008D02*
X6265301Y-17286484D01*
X6265301Y-17286484D02*
X6303396Y-17286484D01*
X6303396Y-17286484D02*
X6322444Y-17296008D01*
X6322444Y-17296008D02*
X6331967Y-17305531D01*
X6331967Y-17305531D02*
X6341491Y-17324579D01*
X6341491Y-17324579D02*
X6341491Y-17334103D01*
X6341491Y-17334103D02*
X6331967Y-17353150D01*
X6331967Y-17353150D02*
X6322444Y-17362674D01*
X6322444Y-17362674D02*
X6303396Y-17372198D01*
X6303396Y-17372198D02*
X6265301Y-17372198D01*
X6265301Y-17372198D02*
X6246253Y-17381722D01*
X6246253Y-17381722D02*
X6236729Y-17391246D01*
X6236729Y-17391246D02*
X6227206Y-17410293D01*
X6227206Y-17410293D02*
X6227206Y-17448389D01*
X6227206Y-17448389D02*
X6236729Y-17467436D01*
X6236729Y-17467436D02*
X6246253Y-17476960D01*
X6246253Y-17476960D02*
X6265301Y-17486484D01*
X6265301Y-17486484D02*
X6303396Y-17486484D01*
X6303396Y-17486484D02*
X6322444Y-17476960D01*
X6322444Y-17476960D02*
X6331967Y-17467436D01*
X6331967Y-17467436D02*
X6341491Y-17448389D01*
X6341491Y-17448389D02*
X6341491Y-17410293D01*
X6341491Y-17410293D02*
X6331967Y-17391246D01*
X6331967Y-17391246D02*
X6322444Y-17381722D01*
X6322444Y-17381722D02*
X6303396Y-17372198D01*
X6512920Y-17286484D02*
X6474825Y-17286484D01*
X6474825Y-17286484D02*
X6455777Y-17296008D01*
X6455777Y-17296008D02*
X6446253Y-17305531D01*
X6446253Y-17305531D02*
X6427206Y-17334103D01*
X6427206Y-17334103D02*
X6417682Y-17372198D01*
X6417682Y-17372198D02*
X6417682Y-17448389D01*
X6417682Y-17448389D02*
X6427206Y-17467436D01*
X6427206Y-17467436D02*
X6436729Y-17476960D01*
X6436729Y-17476960D02*
X6455777Y-17486484D01*
X6455777Y-17486484D02*
X6493872Y-17486484D01*
X6493872Y-17486484D02*
X6512920Y-17476960D01*
X6512920Y-17476960D02*
X6522444Y-17467436D01*
X6522444Y-17467436D02*
X6531967Y-17448389D01*
X6531967Y-17448389D02*
X6531967Y-17400770D01*
X6531967Y-17400770D02*
X6522444Y-17381722D01*
X6522444Y-17381722D02*
X6512920Y-17372198D01*
X6512920Y-17372198D02*
X6493872Y-17362674D01*
X6493872Y-17362674D02*
X6455777Y-17362674D01*
X6455777Y-17362674D02*
X6436729Y-17372198D01*
X6436729Y-17372198D02*
X6427206Y-17381722D01*
X6427206Y-17381722D02*
X6417682Y-17400770D01*
X6703396Y-17286484D02*
X6665301Y-17286484D01*
X6665301Y-17286484D02*
X6646253Y-17296008D01*
X6646253Y-17296008D02*
X6636729Y-17305531D01*
X6636729Y-17305531D02*
X6617682Y-17334103D01*
X6617682Y-17334103D02*
X6608158Y-17372198D01*
X6608158Y-17372198D02*
X6608158Y-17448389D01*
X6608158Y-17448389D02*
X6617682Y-17467436D01*
X6617682Y-17467436D02*
X6627206Y-17476960D01*
X6627206Y-17476960D02*
X6646253Y-17486484D01*
X6646253Y-17486484D02*
X6684348Y-17486484D01*
X6684348Y-17486484D02*
X6703396Y-17476960D01*
X6703396Y-17476960D02*
X6712920Y-17467436D01*
X6712920Y-17467436D02*
X6722444Y-17448389D01*
X6722444Y-17448389D02*
X6722444Y-17400770D01*
X6722444Y-17400770D02*
X6712920Y-17381722D01*
X6712920Y-17381722D02*
X6703396Y-17372198D01*
X6703396Y-17372198D02*
X6684348Y-17362674D01*
X6684348Y-17362674D02*
X6646253Y-17362674D01*
X6646253Y-17362674D02*
X6627206Y-17372198D01*
X6627206Y-17372198D02*
X6617682Y-17381722D01*
X6617682Y-17381722D02*
X6608158Y-17400770D01*
X6798634Y-17286484D02*
X6798634Y-17324579D01*
X6874825Y-17286484D02*
X6874825Y-17324579D01*
X7170063Y-17562674D02*
X7160539Y-17553150D01*
X7160539Y-17553150D02*
X7141491Y-17524579D01*
X7141491Y-17524579D02*
X7131968Y-17505531D01*
X7131968Y-17505531D02*
X7122444Y-17476960D01*
X7122444Y-17476960D02*
X7112920Y-17429341D01*
X7112920Y-17429341D02*
X7112920Y-17391246D01*
X7112920Y-17391246D02*
X7122444Y-17343627D01*
X7122444Y-17343627D02*
X7131968Y-17315055D01*
X7131968Y-17315055D02*
X7141491Y-17296008D01*
X7141491Y-17296008D02*
X7160539Y-17267436D01*
X7160539Y-17267436D02*
X7170063Y-17257912D01*
X7351015Y-17486484D02*
X7236729Y-17486484D01*
X7293872Y-17486484D02*
X7293872Y-17286484D01*
X7293872Y-17286484D02*
X7274825Y-17315055D01*
X7274825Y-17315055D02*
X7255777Y-17334103D01*
X7255777Y-17334103D02*
X7236729Y-17343627D01*
X7579587Y-17476960D02*
X7598634Y-17486484D01*
X7598634Y-17486484D02*
X7636729Y-17486484D01*
X7636729Y-17486484D02*
X7655777Y-17476960D01*
X7655777Y-17476960D02*
X7665301Y-17457912D01*
X7665301Y-17457912D02*
X7665301Y-17448389D01*
X7665301Y-17448389D02*
X7655777Y-17429341D01*
X7655777Y-17429341D02*
X7636729Y-17419817D01*
X7636729Y-17419817D02*
X7608158Y-17419817D01*
X7608158Y-17419817D02*
X7589110Y-17410293D01*
X7589110Y-17410293D02*
X7579587Y-17391246D01*
X7579587Y-17391246D02*
X7579587Y-17381722D01*
X7579587Y-17381722D02*
X7589110Y-17362674D01*
X7589110Y-17362674D02*
X7608158Y-17353150D01*
X7608158Y-17353150D02*
X7636729Y-17353150D01*
X7636729Y-17353150D02*
X7655777Y-17362674D01*
X7779587Y-17486484D02*
X7760539Y-17476960D01*
X7760539Y-17476960D02*
X7751015Y-17457912D01*
X7751015Y-17457912D02*
X7751015Y-17286484D01*
X7884349Y-17486484D02*
X7865301Y-17476960D01*
X7865301Y-17476960D02*
X7855777Y-17467436D01*
X7855777Y-17467436D02*
X7846253Y-17448389D01*
X7846253Y-17448389D02*
X7846253Y-17391246D01*
X7846253Y-17391246D02*
X7855777Y-17372198D01*
X7855777Y-17372198D02*
X7865301Y-17362674D01*
X7865301Y-17362674D02*
X7884349Y-17353150D01*
X7884349Y-17353150D02*
X7912920Y-17353150D01*
X7912920Y-17353150D02*
X7931968Y-17362674D01*
X7931968Y-17362674D02*
X7941491Y-17372198D01*
X7941491Y-17372198D02*
X7951015Y-17391246D01*
X7951015Y-17391246D02*
X7951015Y-17448389D01*
X7951015Y-17448389D02*
X7941491Y-17467436D01*
X7941491Y-17467436D02*
X7931968Y-17476960D01*
X7931968Y-17476960D02*
X7912920Y-17486484D01*
X7912920Y-17486484D02*
X7884349Y-17486484D01*
X8008158Y-17353150D02*
X8084349Y-17353150D01*
X8036730Y-17286484D02*
X8036730Y-17457912D01*
X8036730Y-17457912D02*
X8046253Y-17476960D01*
X8046253Y-17476960D02*
X8065301Y-17486484D01*
X8065301Y-17486484D02*
X8084349Y-17486484D01*
X8131968Y-17562674D02*
X8141491Y-17553150D01*
X8141491Y-17553150D02*
X8160539Y-17524579D01*
X8160539Y-17524579D02*
X8170063Y-17505531D01*
X8170063Y-17505531D02*
X8179587Y-17476960D01*
X8179587Y-17476960D02*
X8189110Y-17429341D01*
X8189110Y-17429341D02*
X8189110Y-17391246D01*
X8189110Y-17391246D02*
X8179587Y-17343627D01*
X8179587Y-17343627D02*
X8170063Y-17315055D01*
X8170063Y-17315055D02*
X8160539Y-17296008D01*
X8160539Y-17296008D02*
X8141491Y-17267436D01*
X8141491Y-17267436D02*
X8131968Y-17257912D01*
X8493873Y-17562674D02*
X8484349Y-17553150D01*
X8484349Y-17553150D02*
X8465301Y-17524579D01*
X8465301Y-17524579D02*
X8455777Y-17505531D01*
X8455777Y-17505531D02*
X8446253Y-17476960D01*
X8446253Y-17476960D02*
X8436730Y-17429341D01*
X8436730Y-17429341D02*
X8436730Y-17391246D01*
X8436730Y-17391246D02*
X8446253Y-17343627D01*
X8446253Y-17343627D02*
X8455777Y-17315055D01*
X8455777Y-17315055D02*
X8465301Y-17296008D01*
X8465301Y-17296008D02*
X8484349Y-17267436D01*
X8484349Y-17267436D02*
X8493873Y-17257912D01*
X8570063Y-17353150D02*
X8570063Y-17486484D01*
X8570063Y-17372198D02*
X8579587Y-17362674D01*
X8579587Y-17362674D02*
X8598634Y-17353150D01*
X8598634Y-17353150D02*
X8627206Y-17353150D01*
X8627206Y-17353150D02*
X8646253Y-17362674D01*
X8646253Y-17362674D02*
X8655777Y-17381722D01*
X8655777Y-17381722D02*
X8655777Y-17486484D01*
X8779587Y-17486484D02*
X8760539Y-17476960D01*
X8760539Y-17476960D02*
X8751015Y-17467436D01*
X8751015Y-17467436D02*
X8741492Y-17448389D01*
X8741492Y-17448389D02*
X8741492Y-17391246D01*
X8741492Y-17391246D02*
X8751015Y-17372198D01*
X8751015Y-17372198D02*
X8760539Y-17362674D01*
X8760539Y-17362674D02*
X8779587Y-17353150D01*
X8779587Y-17353150D02*
X8808158Y-17353150D01*
X8808158Y-17353150D02*
X8827206Y-17362674D01*
X8827206Y-17362674D02*
X8836730Y-17372198D01*
X8836730Y-17372198D02*
X8846253Y-17391246D01*
X8846253Y-17391246D02*
X8846253Y-17448389D01*
X8846253Y-17448389D02*
X8836730Y-17467436D01*
X8836730Y-17467436D02*
X8827206Y-17476960D01*
X8827206Y-17476960D02*
X8808158Y-17486484D01*
X8808158Y-17486484D02*
X8779587Y-17486484D01*
X8903396Y-17353150D02*
X8979587Y-17353150D01*
X8931968Y-17286484D02*
X8931968Y-17457912D01*
X8931968Y-17457912D02*
X8941492Y-17476960D01*
X8941492Y-17476960D02*
X8960539Y-17486484D01*
X8960539Y-17486484D02*
X8979587Y-17486484D01*
X9198634Y-17353150D02*
X9198634Y-17553150D01*
X9198634Y-17362674D02*
X9217682Y-17353150D01*
X9217682Y-17353150D02*
X9255777Y-17353150D01*
X9255777Y-17353150D02*
X9274825Y-17362674D01*
X9274825Y-17362674D02*
X9284349Y-17372198D01*
X9284349Y-17372198D02*
X9293873Y-17391246D01*
X9293873Y-17391246D02*
X9293873Y-17448389D01*
X9293873Y-17448389D02*
X9284349Y-17467436D01*
X9284349Y-17467436D02*
X9274825Y-17476960D01*
X9274825Y-17476960D02*
X9255777Y-17486484D01*
X9255777Y-17486484D02*
X9217682Y-17486484D01*
X9217682Y-17486484D02*
X9198634Y-17476960D01*
X9408158Y-17486484D02*
X9389111Y-17476960D01*
X9389111Y-17476960D02*
X9379587Y-17457912D01*
X9379587Y-17457912D02*
X9379587Y-17286484D01*
X9570063Y-17486484D02*
X9570063Y-17381722D01*
X9570063Y-17381722D02*
X9560539Y-17362674D01*
X9560539Y-17362674D02*
X9541492Y-17353150D01*
X9541492Y-17353150D02*
X9503396Y-17353150D01*
X9503396Y-17353150D02*
X9484349Y-17362674D01*
X9570063Y-17476960D02*
X9551015Y-17486484D01*
X9551015Y-17486484D02*
X9503396Y-17486484D01*
X9503396Y-17486484D02*
X9484349Y-17476960D01*
X9484349Y-17476960D02*
X9474825Y-17457912D01*
X9474825Y-17457912D02*
X9474825Y-17438865D01*
X9474825Y-17438865D02*
X9484349Y-17419817D01*
X9484349Y-17419817D02*
X9503396Y-17410293D01*
X9503396Y-17410293D02*
X9551015Y-17410293D01*
X9551015Y-17410293D02*
X9570063Y-17400770D01*
X9636730Y-17353150D02*
X9712920Y-17353150D01*
X9665301Y-17286484D02*
X9665301Y-17457912D01*
X9665301Y-17457912D02*
X9674825Y-17476960D01*
X9674825Y-17476960D02*
X9693873Y-17486484D01*
X9693873Y-17486484D02*
X9712920Y-17486484D01*
X9855777Y-17476960D02*
X9836730Y-17486484D01*
X9836730Y-17486484D02*
X9798634Y-17486484D01*
X9798634Y-17486484D02*
X9779587Y-17476960D01*
X9779587Y-17476960D02*
X9770063Y-17457912D01*
X9770063Y-17457912D02*
X9770063Y-17381722D01*
X9770063Y-17381722D02*
X9779587Y-17362674D01*
X9779587Y-17362674D02*
X9798634Y-17353150D01*
X9798634Y-17353150D02*
X9836730Y-17353150D01*
X9836730Y-17353150D02*
X9855777Y-17362674D01*
X9855777Y-17362674D02*
X9865301Y-17381722D01*
X9865301Y-17381722D02*
X9865301Y-17400770D01*
X9865301Y-17400770D02*
X9770063Y-17419817D01*
X10036730Y-17486484D02*
X10036730Y-17286484D01*
X10036730Y-17476960D02*
X10017682Y-17486484D01*
X10017682Y-17486484D02*
X9979587Y-17486484D01*
X9979587Y-17486484D02*
X9960539Y-17476960D01*
X9960539Y-17476960D02*
X9951015Y-17467436D01*
X9951015Y-17467436D02*
X9941492Y-17448389D01*
X9941492Y-17448389D02*
X9941492Y-17391246D01*
X9941492Y-17391246D02*
X9951015Y-17372198D01*
X9951015Y-17372198D02*
X9960539Y-17362674D01*
X9960539Y-17362674D02*
X9979587Y-17353150D01*
X9979587Y-17353150D02*
X10017682Y-17353150D01*
X10017682Y-17353150D02*
X10036730Y-17362674D01*
X10112920Y-17562674D02*
X10122444Y-17553150D01*
X10122444Y-17553150D02*
X10141492Y-17524579D01*
X10141492Y-17524579D02*
X10151015Y-17505531D01*
X10151015Y-17505531D02*
X10160539Y-17476960D01*
X10160539Y-17476960D02*
X10170063Y-17429341D01*
X10170063Y-17429341D02*
X10170063Y-17391246D01*
X10170063Y-17391246D02*
X10160539Y-17343627D01*
X10160539Y-17343627D02*
X10151015Y-17315055D01*
X10151015Y-17315055D02*
X10141492Y-17296008D01*
X10141492Y-17296008D02*
X10122444Y-17267436D01*
X10122444Y-17267436D02*
X10112920Y-17257912D01*
X3565711Y-17785711D02*
X3565711Y-17644289D01*
X3424289Y-17644289D01*
X3424289Y-17785711D01*
X3565711Y-17785711D01*
X3836729Y-17606484D02*
X3960539Y-17606484D01*
X3960539Y-17606484D02*
X3893872Y-17682674D01*
X3893872Y-17682674D02*
X3922443Y-17682674D01*
X3922443Y-17682674D02*
X3941491Y-17692198D01*
X3941491Y-17692198D02*
X3951015Y-17701722D01*
X3951015Y-17701722D02*
X3960539Y-17720770D01*
X3960539Y-17720770D02*
X3960539Y-17768389D01*
X3960539Y-17768389D02*
X3951015Y-17787436D01*
X3951015Y-17787436D02*
X3941491Y-17796960D01*
X3941491Y-17796960D02*
X3922443Y-17806484D01*
X3922443Y-17806484D02*
X3865301Y-17806484D01*
X3865301Y-17806484D02*
X3846253Y-17796960D01*
X3846253Y-17796960D02*
X3836729Y-17787436D01*
X4046253Y-17787436D02*
X4055777Y-17796960D01*
X4055777Y-17796960D02*
X4046253Y-17806484D01*
X4046253Y-17806484D02*
X4036729Y-17796960D01*
X4036729Y-17796960D02*
X4046253Y-17787436D01*
X4046253Y-17787436D02*
X4046253Y-17806484D01*
X4179586Y-17606484D02*
X4198634Y-17606484D01*
X4198634Y-17606484D02*
X4217682Y-17616008D01*
X4217682Y-17616008D02*
X4227205Y-17625531D01*
X4227205Y-17625531D02*
X4236729Y-17644579D01*
X4236729Y-17644579D02*
X4246253Y-17682674D01*
X4246253Y-17682674D02*
X4246253Y-17730293D01*
X4246253Y-17730293D02*
X4236729Y-17768389D01*
X4236729Y-17768389D02*
X4227205Y-17787436D01*
X4227205Y-17787436D02*
X4217682Y-17796960D01*
X4217682Y-17796960D02*
X4198634Y-17806484D01*
X4198634Y-17806484D02*
X4179586Y-17806484D01*
X4179586Y-17806484D02*
X4160539Y-17796960D01*
X4160539Y-17796960D02*
X4151015Y-17787436D01*
X4151015Y-17787436D02*
X4141491Y-17768389D01*
X4141491Y-17768389D02*
X4131967Y-17730293D01*
X4131967Y-17730293D02*
X4131967Y-17682674D01*
X4131967Y-17682674D02*
X4141491Y-17644579D01*
X4141491Y-17644579D02*
X4151015Y-17625531D01*
X4151015Y-17625531D02*
X4160539Y-17616008D01*
X4160539Y-17616008D02*
X4179586Y-17606484D01*
X4370063Y-17606484D02*
X4389110Y-17606484D01*
X4389110Y-17606484D02*
X4408158Y-17616008D01*
X4408158Y-17616008D02*
X4417682Y-17625531D01*
X4417682Y-17625531D02*
X4427205Y-17644579D01*
X4427205Y-17644579D02*
X4436729Y-17682674D01*
X4436729Y-17682674D02*
X4436729Y-17730293D01*
X4436729Y-17730293D02*
X4427205Y-17768389D01*
X4427205Y-17768389D02*
X4417682Y-17787436D01*
X4417682Y-17787436D02*
X4408158Y-17796960D01*
X4408158Y-17796960D02*
X4389110Y-17806484D01*
X4389110Y-17806484D02*
X4370063Y-17806484D01*
X4370063Y-17806484D02*
X4351015Y-17796960D01*
X4351015Y-17796960D02*
X4341491Y-17787436D01*
X4341491Y-17787436D02*
X4331967Y-17768389D01*
X4331967Y-17768389D02*
X4322444Y-17730293D01*
X4322444Y-17730293D02*
X4322444Y-17682674D01*
X4322444Y-17682674D02*
X4331967Y-17644579D01*
X4331967Y-17644579D02*
X4341491Y-17625531D01*
X4341491Y-17625531D02*
X4351015Y-17616008D01*
X4351015Y-17616008D02*
X4370063Y-17606484D01*
X4560539Y-17606484D02*
X4579586Y-17606484D01*
X4579586Y-17606484D02*
X4598634Y-17616008D01*
X4598634Y-17616008D02*
X4608158Y-17625531D01*
X4608158Y-17625531D02*
X4617682Y-17644579D01*
X4617682Y-17644579D02*
X4627205Y-17682674D01*
X4627205Y-17682674D02*
X4627205Y-17730293D01*
X4627205Y-17730293D02*
X4617682Y-17768389D01*
X4617682Y-17768389D02*
X4608158Y-17787436D01*
X4608158Y-17787436D02*
X4598634Y-17796960D01*
X4598634Y-17796960D02*
X4579586Y-17806484D01*
X4579586Y-17806484D02*
X4560539Y-17806484D01*
X4560539Y-17806484D02*
X4541491Y-17796960D01*
X4541491Y-17796960D02*
X4531967Y-17787436D01*
X4531967Y-17787436D02*
X4522444Y-17768389D01*
X4522444Y-17768389D02*
X4512920Y-17730293D01*
X4512920Y-17730293D02*
X4512920Y-17682674D01*
X4512920Y-17682674D02*
X4522444Y-17644579D01*
X4522444Y-17644579D02*
X4531967Y-17625531D01*
X4531967Y-17625531D02*
X4541491Y-17616008D01*
X4541491Y-17616008D02*
X4560539Y-17606484D01*
X4712920Y-17806484D02*
X4712920Y-17673150D01*
X4712920Y-17692198D02*
X4722444Y-17682674D01*
X4722444Y-17682674D02*
X4741491Y-17673150D01*
X4741491Y-17673150D02*
X4770063Y-17673150D01*
X4770063Y-17673150D02*
X4789110Y-17682674D01*
X4789110Y-17682674D02*
X4798634Y-17701722D01*
X4798634Y-17701722D02*
X4798634Y-17806484D01*
X4798634Y-17701722D02*
X4808158Y-17682674D01*
X4808158Y-17682674D02*
X4827205Y-17673150D01*
X4827205Y-17673150D02*
X4855777Y-17673150D01*
X4855777Y-17673150D02*
X4874825Y-17682674D01*
X4874825Y-17682674D02*
X4884348Y-17701722D01*
X4884348Y-17701722D02*
X4884348Y-17806484D01*
X4979586Y-17806484D02*
X4979586Y-17673150D01*
X4979586Y-17692198D02*
X4989110Y-17682674D01*
X4989110Y-17682674D02*
X5008158Y-17673150D01*
X5008158Y-17673150D02*
X5036729Y-17673150D01*
X5036729Y-17673150D02*
X5055777Y-17682674D01*
X5055777Y-17682674D02*
X5065301Y-17701722D01*
X5065301Y-17701722D02*
X5065301Y-17806484D01*
X5065301Y-17701722D02*
X5074825Y-17682674D01*
X5074825Y-17682674D02*
X5093872Y-17673150D01*
X5093872Y-17673150D02*
X5122444Y-17673150D01*
X5122444Y-17673150D02*
X5141491Y-17682674D01*
X5141491Y-17682674D02*
X5151015Y-17701722D01*
X5151015Y-17701722D02*
X5151015Y-17806484D01*
X5541491Y-17596960D02*
X5370063Y-17854103D01*
X5798634Y-17606484D02*
X5817682Y-17606484D01*
X5817682Y-17606484D02*
X5836729Y-17616008D01*
X5836729Y-17616008D02*
X5846253Y-17625531D01*
X5846253Y-17625531D02*
X5855777Y-17644579D01*
X5855777Y-17644579D02*
X5865301Y-17682674D01*
X5865301Y-17682674D02*
X5865301Y-17730293D01*
X5865301Y-17730293D02*
X5855777Y-17768389D01*
X5855777Y-17768389D02*
X5846253Y-17787436D01*
X5846253Y-17787436D02*
X5836729Y-17796960D01*
X5836729Y-17796960D02*
X5817682Y-17806484D01*
X5817682Y-17806484D02*
X5798634Y-17806484D01*
X5798634Y-17806484D02*
X5779586Y-17796960D01*
X5779586Y-17796960D02*
X5770063Y-17787436D01*
X5770063Y-17787436D02*
X5760539Y-17768389D01*
X5760539Y-17768389D02*
X5751015Y-17730293D01*
X5751015Y-17730293D02*
X5751015Y-17682674D01*
X5751015Y-17682674D02*
X5760539Y-17644579D01*
X5760539Y-17644579D02*
X5770063Y-17625531D01*
X5770063Y-17625531D02*
X5779586Y-17616008D01*
X5779586Y-17616008D02*
X5798634Y-17606484D01*
X5951015Y-17787436D02*
X5960539Y-17796960D01*
X5960539Y-17796960D02*
X5951015Y-17806484D01*
X5951015Y-17806484D02*
X5941491Y-17796960D01*
X5941491Y-17796960D02*
X5951015Y-17787436D01*
X5951015Y-17787436D02*
X5951015Y-17806484D01*
X6151015Y-17806484D02*
X6036729Y-17806484D01*
X6093872Y-17806484D02*
X6093872Y-17606484D01*
X6093872Y-17606484D02*
X6074825Y-17635055D01*
X6074825Y-17635055D02*
X6055777Y-17654103D01*
X6055777Y-17654103D02*
X6036729Y-17663627D01*
X6341491Y-17806484D02*
X6227206Y-17806484D01*
X6284348Y-17806484D02*
X6284348Y-17606484D01*
X6284348Y-17606484D02*
X6265301Y-17635055D01*
X6265301Y-17635055D02*
X6246253Y-17654103D01*
X6246253Y-17654103D02*
X6227206Y-17663627D01*
X6455777Y-17692198D02*
X6436729Y-17682674D01*
X6436729Y-17682674D02*
X6427206Y-17673150D01*
X6427206Y-17673150D02*
X6417682Y-17654103D01*
X6417682Y-17654103D02*
X6417682Y-17644579D01*
X6417682Y-17644579D02*
X6427206Y-17625531D01*
X6427206Y-17625531D02*
X6436729Y-17616008D01*
X6436729Y-17616008D02*
X6455777Y-17606484D01*
X6455777Y-17606484D02*
X6493872Y-17606484D01*
X6493872Y-17606484D02*
X6512920Y-17616008D01*
X6512920Y-17616008D02*
X6522444Y-17625531D01*
X6522444Y-17625531D02*
X6531967Y-17644579D01*
X6531967Y-17644579D02*
X6531967Y-17654103D01*
X6531967Y-17654103D02*
X6522444Y-17673150D01*
X6522444Y-17673150D02*
X6512920Y-17682674D01*
X6512920Y-17682674D02*
X6493872Y-17692198D01*
X6493872Y-17692198D02*
X6455777Y-17692198D01*
X6455777Y-17692198D02*
X6436729Y-17701722D01*
X6436729Y-17701722D02*
X6427206Y-17711246D01*
X6427206Y-17711246D02*
X6417682Y-17730293D01*
X6417682Y-17730293D02*
X6417682Y-17768389D01*
X6417682Y-17768389D02*
X6427206Y-17787436D01*
X6427206Y-17787436D02*
X6436729Y-17796960D01*
X6436729Y-17796960D02*
X6455777Y-17806484D01*
X6455777Y-17806484D02*
X6493872Y-17806484D01*
X6493872Y-17806484D02*
X6512920Y-17796960D01*
X6512920Y-17796960D02*
X6522444Y-17787436D01*
X6522444Y-17787436D02*
X6531967Y-17768389D01*
X6531967Y-17768389D02*
X6531967Y-17730293D01*
X6531967Y-17730293D02*
X6522444Y-17711246D01*
X6522444Y-17711246D02*
X6512920Y-17701722D01*
X6512920Y-17701722D02*
X6493872Y-17692198D01*
X6722444Y-17806484D02*
X6608158Y-17806484D01*
X6665301Y-17806484D02*
X6665301Y-17606484D01*
X6665301Y-17606484D02*
X6646253Y-17635055D01*
X6646253Y-17635055D02*
X6627206Y-17654103D01*
X6627206Y-17654103D02*
X6608158Y-17663627D01*
X6798634Y-17606484D02*
X6798634Y-17644579D01*
X6874825Y-17606484D02*
X6874825Y-17644579D01*
X7170063Y-17882674D02*
X7160539Y-17873150D01*
X7160539Y-17873150D02*
X7141491Y-17844579D01*
X7141491Y-17844579D02*
X7131968Y-17825531D01*
X7131968Y-17825531D02*
X7122444Y-17796960D01*
X7122444Y-17796960D02*
X7112920Y-17749341D01*
X7112920Y-17749341D02*
X7112920Y-17711246D01*
X7112920Y-17711246D02*
X7122444Y-17663627D01*
X7122444Y-17663627D02*
X7131968Y-17635055D01*
X7131968Y-17635055D02*
X7141491Y-17616008D01*
X7141491Y-17616008D02*
X7160539Y-17587436D01*
X7160539Y-17587436D02*
X7170063Y-17577912D01*
X7331968Y-17606484D02*
X7293872Y-17606484D01*
X7293872Y-17606484D02*
X7274825Y-17616008D01*
X7274825Y-17616008D02*
X7265301Y-17625531D01*
X7265301Y-17625531D02*
X7246253Y-17654103D01*
X7246253Y-17654103D02*
X7236729Y-17692198D01*
X7236729Y-17692198D02*
X7236729Y-17768389D01*
X7236729Y-17768389D02*
X7246253Y-17787436D01*
X7246253Y-17787436D02*
X7255777Y-17796960D01*
X7255777Y-17796960D02*
X7274825Y-17806484D01*
X7274825Y-17806484D02*
X7312920Y-17806484D01*
X7312920Y-17806484D02*
X7331968Y-17796960D01*
X7331968Y-17796960D02*
X7341491Y-17787436D01*
X7341491Y-17787436D02*
X7351015Y-17768389D01*
X7351015Y-17768389D02*
X7351015Y-17720770D01*
X7351015Y-17720770D02*
X7341491Y-17701722D01*
X7341491Y-17701722D02*
X7331968Y-17692198D01*
X7331968Y-17692198D02*
X7312920Y-17682674D01*
X7312920Y-17682674D02*
X7274825Y-17682674D01*
X7274825Y-17682674D02*
X7255777Y-17692198D01*
X7255777Y-17692198D02*
X7246253Y-17701722D01*
X7246253Y-17701722D02*
X7236729Y-17720770D01*
X7522444Y-17673150D02*
X7522444Y-17806484D01*
X7474825Y-17596960D02*
X7427206Y-17739817D01*
X7427206Y-17739817D02*
X7551015Y-17739817D01*
X7779587Y-17806484D02*
X7779587Y-17606484D01*
X7865301Y-17806484D02*
X7865301Y-17701722D01*
X7865301Y-17701722D02*
X7855777Y-17682674D01*
X7855777Y-17682674D02*
X7836730Y-17673150D01*
X7836730Y-17673150D02*
X7808158Y-17673150D01*
X7808158Y-17673150D02*
X7789110Y-17682674D01*
X7789110Y-17682674D02*
X7779587Y-17692198D01*
X7989110Y-17806484D02*
X7970063Y-17796960D01*
X7970063Y-17796960D02*
X7960539Y-17787436D01*
X7960539Y-17787436D02*
X7951015Y-17768389D01*
X7951015Y-17768389D02*
X7951015Y-17711246D01*
X7951015Y-17711246D02*
X7960539Y-17692198D01*
X7960539Y-17692198D02*
X7970063Y-17682674D01*
X7970063Y-17682674D02*
X7989110Y-17673150D01*
X7989110Y-17673150D02*
X8017682Y-17673150D01*
X8017682Y-17673150D02*
X8036730Y-17682674D01*
X8036730Y-17682674D02*
X8046253Y-17692198D01*
X8046253Y-17692198D02*
X8055777Y-17711246D01*
X8055777Y-17711246D02*
X8055777Y-17768389D01*
X8055777Y-17768389D02*
X8046253Y-17787436D01*
X8046253Y-17787436D02*
X8036730Y-17796960D01*
X8036730Y-17796960D02*
X8017682Y-17806484D01*
X8017682Y-17806484D02*
X7989110Y-17806484D01*
X8170063Y-17806484D02*
X8151015Y-17796960D01*
X8151015Y-17796960D02*
X8141491Y-17777912D01*
X8141491Y-17777912D02*
X8141491Y-17606484D01*
X8322444Y-17796960D02*
X8303396Y-17806484D01*
X8303396Y-17806484D02*
X8265301Y-17806484D01*
X8265301Y-17806484D02*
X8246253Y-17796960D01*
X8246253Y-17796960D02*
X8236730Y-17777912D01*
X8236730Y-17777912D02*
X8236730Y-17701722D01*
X8236730Y-17701722D02*
X8246253Y-17682674D01*
X8246253Y-17682674D02*
X8265301Y-17673150D01*
X8265301Y-17673150D02*
X8303396Y-17673150D01*
X8303396Y-17673150D02*
X8322444Y-17682674D01*
X8322444Y-17682674D02*
X8331968Y-17701722D01*
X8331968Y-17701722D02*
X8331968Y-17720770D01*
X8331968Y-17720770D02*
X8236730Y-17739817D01*
X8408158Y-17796960D02*
X8427206Y-17806484D01*
X8427206Y-17806484D02*
X8465301Y-17806484D01*
X8465301Y-17806484D02*
X8484349Y-17796960D01*
X8484349Y-17796960D02*
X8493873Y-17777912D01*
X8493873Y-17777912D02*
X8493873Y-17768389D01*
X8493873Y-17768389D02*
X8484349Y-17749341D01*
X8484349Y-17749341D02*
X8465301Y-17739817D01*
X8465301Y-17739817D02*
X8436730Y-17739817D01*
X8436730Y-17739817D02*
X8417682Y-17730293D01*
X8417682Y-17730293D02*
X8408158Y-17711246D01*
X8408158Y-17711246D02*
X8408158Y-17701722D01*
X8408158Y-17701722D02*
X8417682Y-17682674D01*
X8417682Y-17682674D02*
X8436730Y-17673150D01*
X8436730Y-17673150D02*
X8465301Y-17673150D01*
X8465301Y-17673150D02*
X8484349Y-17682674D01*
X8560539Y-17882674D02*
X8570063Y-17873150D01*
X8570063Y-17873150D02*
X8589111Y-17844579D01*
X8589111Y-17844579D02*
X8598634Y-17825531D01*
X8598634Y-17825531D02*
X8608158Y-17796960D01*
X8608158Y-17796960D02*
X8617682Y-17749341D01*
X8617682Y-17749341D02*
X8617682Y-17711246D01*
X8617682Y-17711246D02*
X8608158Y-17663627D01*
X8608158Y-17663627D02*
X8598634Y-17635055D01*
X8598634Y-17635055D02*
X8589111Y-17616008D01*
X8589111Y-17616008D02*
X8570063Y-17587436D01*
X8570063Y-17587436D02*
X8560539Y-17577912D01*
X8922444Y-17882674D02*
X8912920Y-17873150D01*
X8912920Y-17873150D02*
X8893873Y-17844579D01*
X8893873Y-17844579D02*
X8884349Y-17825531D01*
X8884349Y-17825531D02*
X8874825Y-17796960D01*
X8874825Y-17796960D02*
X8865301Y-17749341D01*
X8865301Y-17749341D02*
X8865301Y-17711246D01*
X8865301Y-17711246D02*
X8874825Y-17663627D01*
X8874825Y-17663627D02*
X8884349Y-17635055D01*
X8884349Y-17635055D02*
X8893873Y-17616008D01*
X8893873Y-17616008D02*
X8912920Y-17587436D01*
X8912920Y-17587436D02*
X8922444Y-17577912D01*
X8998634Y-17673150D02*
X8998634Y-17806484D01*
X8998634Y-17692198D02*
X9008158Y-17682674D01*
X9008158Y-17682674D02*
X9027206Y-17673150D01*
X9027206Y-17673150D02*
X9055777Y-17673150D01*
X9055777Y-17673150D02*
X9074825Y-17682674D01*
X9074825Y-17682674D02*
X9084349Y-17701722D01*
X9084349Y-17701722D02*
X9084349Y-17806484D01*
X9208158Y-17806484D02*
X9189111Y-17796960D01*
X9189111Y-17796960D02*
X9179587Y-17787436D01*
X9179587Y-17787436D02*
X9170063Y-17768389D01*
X9170063Y-17768389D02*
X9170063Y-17711246D01*
X9170063Y-17711246D02*
X9179587Y-17692198D01*
X9179587Y-17692198D02*
X9189111Y-17682674D01*
X9189111Y-17682674D02*
X9208158Y-17673150D01*
X9208158Y-17673150D02*
X9236730Y-17673150D01*
X9236730Y-17673150D02*
X9255777Y-17682674D01*
X9255777Y-17682674D02*
X9265301Y-17692198D01*
X9265301Y-17692198D02*
X9274825Y-17711246D01*
X9274825Y-17711246D02*
X9274825Y-17768389D01*
X9274825Y-17768389D02*
X9265301Y-17787436D01*
X9265301Y-17787436D02*
X9255777Y-17796960D01*
X9255777Y-17796960D02*
X9236730Y-17806484D01*
X9236730Y-17806484D02*
X9208158Y-17806484D01*
X9331968Y-17673150D02*
X9408158Y-17673150D01*
X9360539Y-17606484D02*
X9360539Y-17777912D01*
X9360539Y-17777912D02*
X9370063Y-17796960D01*
X9370063Y-17796960D02*
X9389111Y-17806484D01*
X9389111Y-17806484D02*
X9408158Y-17806484D01*
X9627206Y-17673150D02*
X9627206Y-17873150D01*
X9627206Y-17682674D02*
X9646254Y-17673150D01*
X9646254Y-17673150D02*
X9684349Y-17673150D01*
X9684349Y-17673150D02*
X9703396Y-17682674D01*
X9703396Y-17682674D02*
X9712920Y-17692198D01*
X9712920Y-17692198D02*
X9722444Y-17711246D01*
X9722444Y-17711246D02*
X9722444Y-17768389D01*
X9722444Y-17768389D02*
X9712920Y-17787436D01*
X9712920Y-17787436D02*
X9703396Y-17796960D01*
X9703396Y-17796960D02*
X9684349Y-17806484D01*
X9684349Y-17806484D02*
X9646254Y-17806484D01*
X9646254Y-17806484D02*
X9627206Y-17796960D01*
X9836730Y-17806484D02*
X9817682Y-17796960D01*
X9817682Y-17796960D02*
X9808158Y-17777912D01*
X9808158Y-17777912D02*
X9808158Y-17606484D01*
X9998635Y-17806484D02*
X9998635Y-17701722D01*
X9998635Y-17701722D02*
X9989111Y-17682674D01*
X9989111Y-17682674D02*
X9970063Y-17673150D01*
X9970063Y-17673150D02*
X9931968Y-17673150D01*
X9931968Y-17673150D02*
X9912920Y-17682674D01*
X9998635Y-17796960D02*
X9979587Y-17806484D01*
X9979587Y-17806484D02*
X9931968Y-17806484D01*
X9931968Y-17806484D02*
X9912920Y-17796960D01*
X9912920Y-17796960D02*
X9903396Y-17777912D01*
X9903396Y-17777912D02*
X9903396Y-17758865D01*
X9903396Y-17758865D02*
X9912920Y-17739817D01*
X9912920Y-17739817D02*
X9931968Y-17730293D01*
X9931968Y-17730293D02*
X9979587Y-17730293D01*
X9979587Y-17730293D02*
X9998635Y-17720770D01*
X10065301Y-17673150D02*
X10141492Y-17673150D01*
X10093873Y-17606484D02*
X10093873Y-17777912D01*
X10093873Y-17777912D02*
X10103396Y-17796960D01*
X10103396Y-17796960D02*
X10122444Y-17806484D01*
X10122444Y-17806484D02*
X10141492Y-17806484D01*
X10284349Y-17796960D02*
X10265301Y-17806484D01*
X10265301Y-17806484D02*
X10227206Y-17806484D01*
X10227206Y-17806484D02*
X10208158Y-17796960D01*
X10208158Y-17796960D02*
X10198635Y-17777912D01*
X10198635Y-17777912D02*
X10198635Y-17701722D01*
X10198635Y-17701722D02*
X10208158Y-17682674D01*
X10208158Y-17682674D02*
X10227206Y-17673150D01*
X10227206Y-17673150D02*
X10265301Y-17673150D01*
X10265301Y-17673150D02*
X10284349Y-17682674D01*
X10284349Y-17682674D02*
X10293873Y-17701722D01*
X10293873Y-17701722D02*
X10293873Y-17720770D01*
X10293873Y-17720770D02*
X10198635Y-17739817D01*
X10465301Y-17806484D02*
X10465301Y-17606484D01*
X10465301Y-17796960D02*
X10446254Y-17806484D01*
X10446254Y-17806484D02*
X10408158Y-17806484D01*
X10408158Y-17806484D02*
X10389111Y-17796960D01*
X10389111Y-17796960D02*
X10379587Y-17787436D01*
X10379587Y-17787436D02*
X10370063Y-17768389D01*
X10370063Y-17768389D02*
X10370063Y-17711246D01*
X10370063Y-17711246D02*
X10379587Y-17692198D01*
X10379587Y-17692198D02*
X10389111Y-17682674D01*
X10389111Y-17682674D02*
X10408158Y-17673150D01*
X10408158Y-17673150D02*
X10446254Y-17673150D01*
X10446254Y-17673150D02*
X10465301Y-17682674D01*
X10541492Y-17882674D02*
X10551016Y-17873150D01*
X10551016Y-17873150D02*
X10570063Y-17844579D01*
X10570063Y-17844579D02*
X10579587Y-17825531D01*
X10579587Y-17825531D02*
X10589111Y-17796960D01*
X10589111Y-17796960D02*
X10598635Y-17749341D01*
X10598635Y-17749341D02*
X10598635Y-17711246D01*
X10598635Y-17711246D02*
X10589111Y-17663627D01*
X10589111Y-17663627D02*
X10579587Y-17635055D01*
X10579587Y-17635055D02*
X10570063Y-17616008D01*
X10570063Y-17616008D02*
X10551016Y-17587436D01*
X10551016Y-17587436D02*
X10541492Y-17577912D01*
X3495000Y-18135000D02*
X3595000Y-18035000D01*
X3495000Y-17935000D01*
X3395000Y-18035000D01*
X3495000Y-18135000D01*
X3951015Y-17926484D02*
X3855777Y-17926484D01*
X3855777Y-17926484D02*
X3846253Y-18021722D01*
X3846253Y-18021722D02*
X3855777Y-18012198D01*
X3855777Y-18012198D02*
X3874824Y-18002674D01*
X3874824Y-18002674D02*
X3922443Y-18002674D01*
X3922443Y-18002674D02*
X3941491Y-18012198D01*
X3941491Y-18012198D02*
X3951015Y-18021722D01*
X3951015Y-18021722D02*
X3960539Y-18040770D01*
X3960539Y-18040770D02*
X3960539Y-18088389D01*
X3960539Y-18088389D02*
X3951015Y-18107436D01*
X3951015Y-18107436D02*
X3941491Y-18116960D01*
X3941491Y-18116960D02*
X3922443Y-18126484D01*
X3922443Y-18126484D02*
X3874824Y-18126484D01*
X3874824Y-18126484D02*
X3855777Y-18116960D01*
X3855777Y-18116960D02*
X3846253Y-18107436D01*
X4046253Y-18107436D02*
X4055777Y-18116960D01*
X4055777Y-18116960D02*
X4046253Y-18126484D01*
X4046253Y-18126484D02*
X4036729Y-18116960D01*
X4036729Y-18116960D02*
X4046253Y-18107436D01*
X4046253Y-18107436D02*
X4046253Y-18126484D01*
X4179586Y-17926484D02*
X4198634Y-17926484D01*
X4198634Y-17926484D02*
X4217682Y-17936008D01*
X4217682Y-17936008D02*
X4227205Y-17945531D01*
X4227205Y-17945531D02*
X4236729Y-17964579D01*
X4236729Y-17964579D02*
X4246253Y-18002674D01*
X4246253Y-18002674D02*
X4246253Y-18050293D01*
X4246253Y-18050293D02*
X4236729Y-18088389D01*
X4236729Y-18088389D02*
X4227205Y-18107436D01*
X4227205Y-18107436D02*
X4217682Y-18116960D01*
X4217682Y-18116960D02*
X4198634Y-18126484D01*
X4198634Y-18126484D02*
X4179586Y-18126484D01*
X4179586Y-18126484D02*
X4160539Y-18116960D01*
X4160539Y-18116960D02*
X4151015Y-18107436D01*
X4151015Y-18107436D02*
X4141491Y-18088389D01*
X4141491Y-18088389D02*
X4131967Y-18050293D01*
X4131967Y-18050293D02*
X4131967Y-18002674D01*
X4131967Y-18002674D02*
X4141491Y-17964579D01*
X4141491Y-17964579D02*
X4151015Y-17945531D01*
X4151015Y-17945531D02*
X4160539Y-17936008D01*
X4160539Y-17936008D02*
X4179586Y-17926484D01*
X4370063Y-17926484D02*
X4389110Y-17926484D01*
X4389110Y-17926484D02*
X4408158Y-17936008D01*
X4408158Y-17936008D02*
X4417682Y-17945531D01*
X4417682Y-17945531D02*
X4427205Y-17964579D01*
X4427205Y-17964579D02*
X4436729Y-18002674D01*
X4436729Y-18002674D02*
X4436729Y-18050293D01*
X4436729Y-18050293D02*
X4427205Y-18088389D01*
X4427205Y-18088389D02*
X4417682Y-18107436D01*
X4417682Y-18107436D02*
X4408158Y-18116960D01*
X4408158Y-18116960D02*
X4389110Y-18126484D01*
X4389110Y-18126484D02*
X4370063Y-18126484D01*
X4370063Y-18126484D02*
X4351015Y-18116960D01*
X4351015Y-18116960D02*
X4341491Y-18107436D01*
X4341491Y-18107436D02*
X4331967Y-18088389D01*
X4331967Y-18088389D02*
X4322444Y-18050293D01*
X4322444Y-18050293D02*
X4322444Y-18002674D01*
X4322444Y-18002674D02*
X4331967Y-17964579D01*
X4331967Y-17964579D02*
X4341491Y-17945531D01*
X4341491Y-17945531D02*
X4351015Y-17936008D01*
X4351015Y-17936008D02*
X4370063Y-17926484D01*
X4560539Y-17926484D02*
X4579586Y-17926484D01*
X4579586Y-17926484D02*
X4598634Y-17936008D01*
X4598634Y-17936008D02*
X4608158Y-17945531D01*
X4608158Y-17945531D02*
X4617682Y-17964579D01*
X4617682Y-17964579D02*
X4627205Y-18002674D01*
X4627205Y-18002674D02*
X4627205Y-18050293D01*
X4627205Y-18050293D02*
X4617682Y-18088389D01*
X4617682Y-18088389D02*
X4608158Y-18107436D01*
X4608158Y-18107436D02*
X4598634Y-18116960D01*
X4598634Y-18116960D02*
X4579586Y-18126484D01*
X4579586Y-18126484D02*
X4560539Y-18126484D01*
X4560539Y-18126484D02*
X4541491Y-18116960D01*
X4541491Y-18116960D02*
X4531967Y-18107436D01*
X4531967Y-18107436D02*
X4522444Y-18088389D01*
X4522444Y-18088389D02*
X4512920Y-18050293D01*
X4512920Y-18050293D02*
X4512920Y-18002674D01*
X4512920Y-18002674D02*
X4522444Y-17964579D01*
X4522444Y-17964579D02*
X4531967Y-17945531D01*
X4531967Y-17945531D02*
X4541491Y-17936008D01*
X4541491Y-17936008D02*
X4560539Y-17926484D01*
X4712920Y-18126484D02*
X4712920Y-17993150D01*
X4712920Y-18012198D02*
X4722444Y-18002674D01*
X4722444Y-18002674D02*
X4741491Y-17993150D01*
X4741491Y-17993150D02*
X4770063Y-17993150D01*
X4770063Y-17993150D02*
X4789110Y-18002674D01*
X4789110Y-18002674D02*
X4798634Y-18021722D01*
X4798634Y-18021722D02*
X4798634Y-18126484D01*
X4798634Y-18021722D02*
X4808158Y-18002674D01*
X4808158Y-18002674D02*
X4827205Y-17993150D01*
X4827205Y-17993150D02*
X4855777Y-17993150D01*
X4855777Y-17993150D02*
X4874825Y-18002674D01*
X4874825Y-18002674D02*
X4884348Y-18021722D01*
X4884348Y-18021722D02*
X4884348Y-18126484D01*
X4979586Y-18126484D02*
X4979586Y-17993150D01*
X4979586Y-18012198D02*
X4989110Y-18002674D01*
X4989110Y-18002674D02*
X5008158Y-17993150D01*
X5008158Y-17993150D02*
X5036729Y-17993150D01*
X5036729Y-17993150D02*
X5055777Y-18002674D01*
X5055777Y-18002674D02*
X5065301Y-18021722D01*
X5065301Y-18021722D02*
X5065301Y-18126484D01*
X5065301Y-18021722D02*
X5074825Y-18002674D01*
X5074825Y-18002674D02*
X5093872Y-17993150D01*
X5093872Y-17993150D02*
X5122444Y-17993150D01*
X5122444Y-17993150D02*
X5141491Y-18002674D01*
X5141491Y-18002674D02*
X5151015Y-18021722D01*
X5151015Y-18021722D02*
X5151015Y-18126484D01*
X5541491Y-17916960D02*
X5370063Y-18174103D01*
X5798634Y-17926484D02*
X5817682Y-17926484D01*
X5817682Y-17926484D02*
X5836729Y-17936008D01*
X5836729Y-17936008D02*
X5846253Y-17945531D01*
X5846253Y-17945531D02*
X5855777Y-17964579D01*
X5855777Y-17964579D02*
X5865301Y-18002674D01*
X5865301Y-18002674D02*
X5865301Y-18050293D01*
X5865301Y-18050293D02*
X5855777Y-18088389D01*
X5855777Y-18088389D02*
X5846253Y-18107436D01*
X5846253Y-18107436D02*
X5836729Y-18116960D01*
X5836729Y-18116960D02*
X5817682Y-18126484D01*
X5817682Y-18126484D02*
X5798634Y-18126484D01*
X5798634Y-18126484D02*
X5779586Y-18116960D01*
X5779586Y-18116960D02*
X5770063Y-18107436D01*
X5770063Y-18107436D02*
X5760539Y-18088389D01*
X5760539Y-18088389D02*
X5751015Y-18050293D01*
X5751015Y-18050293D02*
X5751015Y-18002674D01*
X5751015Y-18002674D02*
X5760539Y-17964579D01*
X5760539Y-17964579D02*
X5770063Y-17945531D01*
X5770063Y-17945531D02*
X5779586Y-17936008D01*
X5779586Y-17936008D02*
X5798634Y-17926484D01*
X5951015Y-18107436D02*
X5960539Y-18116960D01*
X5960539Y-18116960D02*
X5951015Y-18126484D01*
X5951015Y-18126484D02*
X5941491Y-18116960D01*
X5941491Y-18116960D02*
X5951015Y-18107436D01*
X5951015Y-18107436D02*
X5951015Y-18126484D01*
X6151015Y-18126484D02*
X6036729Y-18126484D01*
X6093872Y-18126484D02*
X6093872Y-17926484D01*
X6093872Y-17926484D02*
X6074825Y-17955055D01*
X6074825Y-17955055D02*
X6055777Y-17974103D01*
X6055777Y-17974103D02*
X6036729Y-17983627D01*
X6246253Y-18126484D02*
X6284348Y-18126484D01*
X6284348Y-18126484D02*
X6303396Y-18116960D01*
X6303396Y-18116960D02*
X6312920Y-18107436D01*
X6312920Y-18107436D02*
X6331967Y-18078865D01*
X6331967Y-18078865D02*
X6341491Y-18040770D01*
X6341491Y-18040770D02*
X6341491Y-17964579D01*
X6341491Y-17964579D02*
X6331967Y-17945531D01*
X6331967Y-17945531D02*
X6322444Y-17936008D01*
X6322444Y-17936008D02*
X6303396Y-17926484D01*
X6303396Y-17926484D02*
X6265301Y-17926484D01*
X6265301Y-17926484D02*
X6246253Y-17936008D01*
X6246253Y-17936008D02*
X6236729Y-17945531D01*
X6236729Y-17945531D02*
X6227206Y-17964579D01*
X6227206Y-17964579D02*
X6227206Y-18012198D01*
X6227206Y-18012198D02*
X6236729Y-18031246D01*
X6236729Y-18031246D02*
X6246253Y-18040770D01*
X6246253Y-18040770D02*
X6265301Y-18050293D01*
X6265301Y-18050293D02*
X6303396Y-18050293D01*
X6303396Y-18050293D02*
X6322444Y-18040770D01*
X6322444Y-18040770D02*
X6331967Y-18031246D01*
X6331967Y-18031246D02*
X6341491Y-18012198D01*
X6512920Y-17926484D02*
X6474825Y-17926484D01*
X6474825Y-17926484D02*
X6455777Y-17936008D01*
X6455777Y-17936008D02*
X6446253Y-17945531D01*
X6446253Y-17945531D02*
X6427206Y-17974103D01*
X6427206Y-17974103D02*
X6417682Y-18012198D01*
X6417682Y-18012198D02*
X6417682Y-18088389D01*
X6417682Y-18088389D02*
X6427206Y-18107436D01*
X6427206Y-18107436D02*
X6436729Y-18116960D01*
X6436729Y-18116960D02*
X6455777Y-18126484D01*
X6455777Y-18126484D02*
X6493872Y-18126484D01*
X6493872Y-18126484D02*
X6512920Y-18116960D01*
X6512920Y-18116960D02*
X6522444Y-18107436D01*
X6522444Y-18107436D02*
X6531967Y-18088389D01*
X6531967Y-18088389D02*
X6531967Y-18040770D01*
X6531967Y-18040770D02*
X6522444Y-18021722D01*
X6522444Y-18021722D02*
X6512920Y-18012198D01*
X6512920Y-18012198D02*
X6493872Y-18002674D01*
X6493872Y-18002674D02*
X6455777Y-18002674D01*
X6455777Y-18002674D02*
X6436729Y-18012198D01*
X6436729Y-18012198D02*
X6427206Y-18021722D01*
X6427206Y-18021722D02*
X6417682Y-18040770D01*
X6627206Y-18126484D02*
X6665301Y-18126484D01*
X6665301Y-18126484D02*
X6684348Y-18116960D01*
X6684348Y-18116960D02*
X6693872Y-18107436D01*
X6693872Y-18107436D02*
X6712920Y-18078865D01*
X6712920Y-18078865D02*
X6722444Y-18040770D01*
X6722444Y-18040770D02*
X6722444Y-17964579D01*
X6722444Y-17964579D02*
X6712920Y-17945531D01*
X6712920Y-17945531D02*
X6703396Y-17936008D01*
X6703396Y-17936008D02*
X6684348Y-17926484D01*
X6684348Y-17926484D02*
X6646253Y-17926484D01*
X6646253Y-17926484D02*
X6627206Y-17936008D01*
X6627206Y-17936008D02*
X6617682Y-17945531D01*
X6617682Y-17945531D02*
X6608158Y-17964579D01*
X6608158Y-17964579D02*
X6608158Y-18012198D01*
X6608158Y-18012198D02*
X6617682Y-18031246D01*
X6617682Y-18031246D02*
X6627206Y-18040770D01*
X6627206Y-18040770D02*
X6646253Y-18050293D01*
X6646253Y-18050293D02*
X6684348Y-18050293D01*
X6684348Y-18050293D02*
X6703396Y-18040770D01*
X6703396Y-18040770D02*
X6712920Y-18031246D01*
X6712920Y-18031246D02*
X6722444Y-18012198D01*
X6798634Y-17926484D02*
X6798634Y-17964579D01*
X6874825Y-17926484D02*
X6874825Y-17964579D01*
X7170063Y-18202674D02*
X7160539Y-18193150D01*
X7160539Y-18193150D02*
X7141491Y-18164579D01*
X7141491Y-18164579D02*
X7131968Y-18145531D01*
X7131968Y-18145531D02*
X7122444Y-18116960D01*
X7122444Y-18116960D02*
X7112920Y-18069341D01*
X7112920Y-18069341D02*
X7112920Y-18031246D01*
X7112920Y-18031246D02*
X7122444Y-17983627D01*
X7122444Y-17983627D02*
X7131968Y-17955055D01*
X7131968Y-17955055D02*
X7141491Y-17936008D01*
X7141491Y-17936008D02*
X7160539Y-17907436D01*
X7160539Y-17907436D02*
X7170063Y-17897912D01*
X7227206Y-17926484D02*
X7351015Y-17926484D01*
X7351015Y-17926484D02*
X7284348Y-18002674D01*
X7284348Y-18002674D02*
X7312920Y-18002674D01*
X7312920Y-18002674D02*
X7331968Y-18012198D01*
X7331968Y-18012198D02*
X7341491Y-18021722D01*
X7341491Y-18021722D02*
X7351015Y-18040770D01*
X7351015Y-18040770D02*
X7351015Y-18088389D01*
X7351015Y-18088389D02*
X7341491Y-18107436D01*
X7341491Y-18107436D02*
X7331968Y-18116960D01*
X7331968Y-18116960D02*
X7312920Y-18126484D01*
X7312920Y-18126484D02*
X7255777Y-18126484D01*
X7255777Y-18126484D02*
X7236729Y-18116960D01*
X7236729Y-18116960D02*
X7227206Y-18107436D01*
X7427206Y-17945531D02*
X7436729Y-17936008D01*
X7436729Y-17936008D02*
X7455777Y-17926484D01*
X7455777Y-17926484D02*
X7503396Y-17926484D01*
X7503396Y-17926484D02*
X7522444Y-17936008D01*
X7522444Y-17936008D02*
X7531968Y-17945531D01*
X7531968Y-17945531D02*
X7541491Y-17964579D01*
X7541491Y-17964579D02*
X7541491Y-17983627D01*
X7541491Y-17983627D02*
X7531968Y-18012198D01*
X7531968Y-18012198D02*
X7417682Y-18126484D01*
X7417682Y-18126484D02*
X7541491Y-18126484D01*
X7779587Y-18126484D02*
X7779587Y-17926484D01*
X7865301Y-18126484D02*
X7865301Y-18021722D01*
X7865301Y-18021722D02*
X7855777Y-18002674D01*
X7855777Y-18002674D02*
X7836730Y-17993150D01*
X7836730Y-17993150D02*
X7808158Y-17993150D01*
X7808158Y-17993150D02*
X7789110Y-18002674D01*
X7789110Y-18002674D02*
X7779587Y-18012198D01*
X7989110Y-18126484D02*
X7970063Y-18116960D01*
X7970063Y-18116960D02*
X7960539Y-18107436D01*
X7960539Y-18107436D02*
X7951015Y-18088389D01*
X7951015Y-18088389D02*
X7951015Y-18031246D01*
X7951015Y-18031246D02*
X7960539Y-18012198D01*
X7960539Y-18012198D02*
X7970063Y-18002674D01*
X7970063Y-18002674D02*
X7989110Y-17993150D01*
X7989110Y-17993150D02*
X8017682Y-17993150D01*
X8017682Y-17993150D02*
X8036730Y-18002674D01*
X8036730Y-18002674D02*
X8046253Y-18012198D01*
X8046253Y-18012198D02*
X8055777Y-18031246D01*
X8055777Y-18031246D02*
X8055777Y-18088389D01*
X8055777Y-18088389D02*
X8046253Y-18107436D01*
X8046253Y-18107436D02*
X8036730Y-18116960D01*
X8036730Y-18116960D02*
X8017682Y-18126484D01*
X8017682Y-18126484D02*
X7989110Y-18126484D01*
X8170063Y-18126484D02*
X8151015Y-18116960D01*
X8151015Y-18116960D02*
X8141491Y-18097912D01*
X8141491Y-18097912D02*
X8141491Y-17926484D01*
X8322444Y-18116960D02*
X8303396Y-18126484D01*
X8303396Y-18126484D02*
X8265301Y-18126484D01*
X8265301Y-18126484D02*
X8246253Y-18116960D01*
X8246253Y-18116960D02*
X8236730Y-18097912D01*
X8236730Y-18097912D02*
X8236730Y-18021722D01*
X8236730Y-18021722D02*
X8246253Y-18002674D01*
X8246253Y-18002674D02*
X8265301Y-17993150D01*
X8265301Y-17993150D02*
X8303396Y-17993150D01*
X8303396Y-17993150D02*
X8322444Y-18002674D01*
X8322444Y-18002674D02*
X8331968Y-18021722D01*
X8331968Y-18021722D02*
X8331968Y-18040770D01*
X8331968Y-18040770D02*
X8236730Y-18059817D01*
X8408158Y-18116960D02*
X8427206Y-18126484D01*
X8427206Y-18126484D02*
X8465301Y-18126484D01*
X8465301Y-18126484D02*
X8484349Y-18116960D01*
X8484349Y-18116960D02*
X8493873Y-18097912D01*
X8493873Y-18097912D02*
X8493873Y-18088389D01*
X8493873Y-18088389D02*
X8484349Y-18069341D01*
X8484349Y-18069341D02*
X8465301Y-18059817D01*
X8465301Y-18059817D02*
X8436730Y-18059817D01*
X8436730Y-18059817D02*
X8417682Y-18050293D01*
X8417682Y-18050293D02*
X8408158Y-18031246D01*
X8408158Y-18031246D02*
X8408158Y-18021722D01*
X8408158Y-18021722D02*
X8417682Y-18002674D01*
X8417682Y-18002674D02*
X8436730Y-17993150D01*
X8436730Y-17993150D02*
X8465301Y-17993150D01*
X8465301Y-17993150D02*
X8484349Y-18002674D01*
X8560539Y-18202674D02*
X8570063Y-18193150D01*
X8570063Y-18193150D02*
X8589111Y-18164579D01*
X8589111Y-18164579D02*
X8598634Y-18145531D01*
X8598634Y-18145531D02*
X8608158Y-18116960D01*
X8608158Y-18116960D02*
X8617682Y-18069341D01*
X8617682Y-18069341D02*
X8617682Y-18031246D01*
X8617682Y-18031246D02*
X8608158Y-17983627D01*
X8608158Y-17983627D02*
X8598634Y-17955055D01*
X8598634Y-17955055D02*
X8589111Y-17936008D01*
X8589111Y-17936008D02*
X8570063Y-17907436D01*
X8570063Y-17907436D02*
X8560539Y-17897912D01*
X8922444Y-18202674D02*
X8912920Y-18193150D01*
X8912920Y-18193150D02*
X8893873Y-18164579D01*
X8893873Y-18164579D02*
X8884349Y-18145531D01*
X8884349Y-18145531D02*
X8874825Y-18116960D01*
X8874825Y-18116960D02*
X8865301Y-18069341D01*
X8865301Y-18069341D02*
X8865301Y-18031246D01*
X8865301Y-18031246D02*
X8874825Y-17983627D01*
X8874825Y-17983627D02*
X8884349Y-17955055D01*
X8884349Y-17955055D02*
X8893873Y-17936008D01*
X8893873Y-17936008D02*
X8912920Y-17907436D01*
X8912920Y-17907436D02*
X8922444Y-17897912D01*
X8998634Y-17993150D02*
X8998634Y-18126484D01*
X8998634Y-18012198D02*
X9008158Y-18002674D01*
X9008158Y-18002674D02*
X9027206Y-17993150D01*
X9027206Y-17993150D02*
X9055777Y-17993150D01*
X9055777Y-17993150D02*
X9074825Y-18002674D01*
X9074825Y-18002674D02*
X9084349Y-18021722D01*
X9084349Y-18021722D02*
X9084349Y-18126484D01*
X9208158Y-18126484D02*
X9189111Y-18116960D01*
X9189111Y-18116960D02*
X9179587Y-18107436D01*
X9179587Y-18107436D02*
X9170063Y-18088389D01*
X9170063Y-18088389D02*
X9170063Y-18031246D01*
X9170063Y-18031246D02*
X9179587Y-18012198D01*
X9179587Y-18012198D02*
X9189111Y-18002674D01*
X9189111Y-18002674D02*
X9208158Y-17993150D01*
X9208158Y-17993150D02*
X9236730Y-17993150D01*
X9236730Y-17993150D02*
X9255777Y-18002674D01*
X9255777Y-18002674D02*
X9265301Y-18012198D01*
X9265301Y-18012198D02*
X9274825Y-18031246D01*
X9274825Y-18031246D02*
X9274825Y-18088389D01*
X9274825Y-18088389D02*
X9265301Y-18107436D01*
X9265301Y-18107436D02*
X9255777Y-18116960D01*
X9255777Y-18116960D02*
X9236730Y-18126484D01*
X9236730Y-18126484D02*
X9208158Y-18126484D01*
X9331968Y-17993150D02*
X9408158Y-17993150D01*
X9360539Y-17926484D02*
X9360539Y-18097912D01*
X9360539Y-18097912D02*
X9370063Y-18116960D01*
X9370063Y-18116960D02*
X9389111Y-18126484D01*
X9389111Y-18126484D02*
X9408158Y-18126484D01*
X9627206Y-17993150D02*
X9627206Y-18193150D01*
X9627206Y-18002674D02*
X9646254Y-17993150D01*
X9646254Y-17993150D02*
X9684349Y-17993150D01*
X9684349Y-17993150D02*
X9703396Y-18002674D01*
X9703396Y-18002674D02*
X9712920Y-18012198D01*
X9712920Y-18012198D02*
X9722444Y-18031246D01*
X9722444Y-18031246D02*
X9722444Y-18088389D01*
X9722444Y-18088389D02*
X9712920Y-18107436D01*
X9712920Y-18107436D02*
X9703396Y-18116960D01*
X9703396Y-18116960D02*
X9684349Y-18126484D01*
X9684349Y-18126484D02*
X9646254Y-18126484D01*
X9646254Y-18126484D02*
X9627206Y-18116960D01*
X9836730Y-18126484D02*
X9817682Y-18116960D01*
X9817682Y-18116960D02*
X9808158Y-18097912D01*
X9808158Y-18097912D02*
X9808158Y-17926484D01*
X9998635Y-18126484D02*
X9998635Y-18021722D01*
X9998635Y-18021722D02*
X9989111Y-18002674D01*
X9989111Y-18002674D02*
X9970063Y-17993150D01*
X9970063Y-17993150D02*
X9931968Y-17993150D01*
X9931968Y-17993150D02*
X9912920Y-18002674D01*
X9998635Y-18116960D02*
X9979587Y-18126484D01*
X9979587Y-18126484D02*
X9931968Y-18126484D01*
X9931968Y-18126484D02*
X9912920Y-18116960D01*
X9912920Y-18116960D02*
X9903396Y-18097912D01*
X9903396Y-18097912D02*
X9903396Y-18078865D01*
X9903396Y-18078865D02*
X9912920Y-18059817D01*
X9912920Y-18059817D02*
X9931968Y-18050293D01*
X9931968Y-18050293D02*
X9979587Y-18050293D01*
X9979587Y-18050293D02*
X9998635Y-18040770D01*
X10065301Y-17993150D02*
X10141492Y-17993150D01*
X10093873Y-17926484D02*
X10093873Y-18097912D01*
X10093873Y-18097912D02*
X10103396Y-18116960D01*
X10103396Y-18116960D02*
X10122444Y-18126484D01*
X10122444Y-18126484D02*
X10141492Y-18126484D01*
X10284349Y-18116960D02*
X10265301Y-18126484D01*
X10265301Y-18126484D02*
X10227206Y-18126484D01*
X10227206Y-18126484D02*
X10208158Y-18116960D01*
X10208158Y-18116960D02*
X10198635Y-18097912D01*
X10198635Y-18097912D02*
X10198635Y-18021722D01*
X10198635Y-18021722D02*
X10208158Y-18002674D01*
X10208158Y-18002674D02*
X10227206Y-17993150D01*
X10227206Y-17993150D02*
X10265301Y-17993150D01*
X10265301Y-17993150D02*
X10284349Y-18002674D01*
X10284349Y-18002674D02*
X10293873Y-18021722D01*
X10293873Y-18021722D02*
X10293873Y-18040770D01*
X10293873Y-18040770D02*
X10198635Y-18059817D01*
X10465301Y-18126484D02*
X10465301Y-17926484D01*
X10465301Y-18116960D02*
X10446254Y-18126484D01*
X10446254Y-18126484D02*
X10408158Y-18126484D01*
X10408158Y-18126484D02*
X10389111Y-18116960D01*
X10389111Y-18116960D02*
X10379587Y-18107436D01*
X10379587Y-18107436D02*
X10370063Y-18088389D01*
X10370063Y-18088389D02*
X10370063Y-18031246D01*
X10370063Y-18031246D02*
X10379587Y-18012198D01*
X10379587Y-18012198D02*
X10389111Y-18002674D01*
X10389111Y-18002674D02*
X10408158Y-17993150D01*
X10408158Y-17993150D02*
X10446254Y-17993150D01*
X10446254Y-17993150D02*
X10465301Y-18002674D01*
X10541492Y-18202674D02*
X10551016Y-18193150D01*
X10551016Y-18193150D02*
X10570063Y-18164579D01*
X10570063Y-18164579D02*
X10579587Y-18145531D01*
X10579587Y-18145531D02*
X10589111Y-18116960D01*
X10589111Y-18116960D02*
X10598635Y-18069341D01*
X10598635Y-18069341D02*
X10598635Y-18031246D01*
X10598635Y-18031246D02*
X10589111Y-17983627D01*
X10589111Y-17983627D02*
X10579587Y-17955055D01*
X10579587Y-17955055D02*
X10570063Y-17936008D01*
X10570063Y-17936008D02*
X10551016Y-17907436D01*
X10551016Y-17907436D02*
X10541492Y-17897912D01*
M02*
