%TF.GenerationSoftware,KiCad,Pcbnew,10.0.3*%
%TF.CreationDate,2026-08-25T02:24:56+09:00*%
%TF.ProjectId,kc2_left-x3-v2,6b63325f-6c65-4667-942d-78332d76322e,draft-v2*%
%TF.SameCoordinates,Original*%
%TF.FileFunction,Legend,Top*%
%TF.FilePolarity,Positive*%
%FSLAX46Y46*%
G04 Gerber Fmt 4.6, Leading zero omitted, Abs format (unit mm)*
G04 Created by KiCad (PCBNEW 10.0.3) date 2026-08-25 02:24:56*
%MOMM*%
%LPD*%
G01*
G04 APERTURE LIST*
%ADD10C,0.150000*%
%ADD11C,0.158750*%
%ADD12C,0.100000*%
%ADD13C,0.120000*%
%ADD14C,1.700000*%
%ADD15C,3.000000*%
%ADD16C,5.000000*%
%ADD17C,1.650000*%
%ADD18C,2.500000*%
%ADD19O,3.600000X2.200000*%
%ADD20C,1.600000*%
%ADD21R,1.750000X1.000000*%
G04 APERTURE END LIST*
D10*
X7249996Y-27408557D02*
X7249996Y-26508557D01*
X7249996Y-26508557D02*
X7764282Y-27408557D01*
X7764282Y-27408557D02*
X7764282Y-26508557D01*
X8321425Y-27408557D02*
X8235710Y-27365700D01*
X8235710Y-27365700D02*
X8192853Y-27322842D01*
X8192853Y-27322842D02*
X8149996Y-27237128D01*
X8149996Y-27237128D02*
X8149996Y-26979985D01*
X8149996Y-26979985D02*
X8192853Y-26894271D01*
X8192853Y-26894271D02*
X8235710Y-26851414D01*
X8235710Y-26851414D02*
X8321425Y-26808557D01*
X8321425Y-26808557D02*
X8449996Y-26808557D01*
X8449996Y-26808557D02*
X8535710Y-26851414D01*
X8535710Y-26851414D02*
X8578568Y-26894271D01*
X8578568Y-26894271D02*
X8621425Y-26979985D01*
X8621425Y-26979985D02*
X8621425Y-27237128D01*
X8621425Y-27237128D02*
X8578568Y-27322842D01*
X8578568Y-27322842D02*
X8535710Y-27365700D01*
X8535710Y-27365700D02*
X8449996Y-27408557D01*
X8449996Y-27408557D02*
X8321425Y-27408557D01*
X9564282Y-26808557D02*
X9907139Y-26808557D01*
X9692853Y-26508557D02*
X9692853Y-27279985D01*
X9692853Y-27279985D02*
X9735710Y-27365700D01*
X9735710Y-27365700D02*
X9821425Y-27408557D01*
X9821425Y-27408557D02*
X9907139Y-27408557D01*
X10335711Y-27408557D02*
X10249996Y-27365700D01*
X10249996Y-27365700D02*
X10207139Y-27322842D01*
X10207139Y-27322842D02*
X10164282Y-27237128D01*
X10164282Y-27237128D02*
X10164282Y-26979985D01*
X10164282Y-26979985D02*
X10207139Y-26894271D01*
X10207139Y-26894271D02*
X10249996Y-26851414D01*
X10249996Y-26851414D02*
X10335711Y-26808557D01*
X10335711Y-26808557D02*
X10464282Y-26808557D01*
X10464282Y-26808557D02*
X10549996Y-26851414D01*
X10549996Y-26851414D02*
X10592854Y-26894271D01*
X10592854Y-26894271D02*
X10635711Y-26979985D01*
X10635711Y-26979985D02*
X10635711Y-27237128D01*
X10635711Y-27237128D02*
X10592854Y-27322842D01*
X10592854Y-27322842D02*
X10549996Y-27365700D01*
X10549996Y-27365700D02*
X10464282Y-27408557D01*
X10464282Y-27408557D02*
X10335711Y-27408557D01*
X11021425Y-26808557D02*
X11021425Y-27708557D01*
X11021425Y-26851414D02*
X11107140Y-26808557D01*
X11107140Y-26808557D02*
X11278568Y-26808557D01*
X11278568Y-26808557D02*
X11364282Y-26851414D01*
X11364282Y-26851414D02*
X11407140Y-26894271D01*
X11407140Y-26894271D02*
X11449997Y-26979985D01*
X11449997Y-26979985D02*
X11449997Y-27237128D01*
X11449997Y-27237128D02*
X11407140Y-27322842D01*
X11407140Y-27322842D02*
X11364282Y-27365700D01*
X11364282Y-27365700D02*
X11278568Y-27408557D01*
X11278568Y-27408557D02*
X11107140Y-27408557D01*
X11107140Y-27408557D02*
X11021425Y-27365700D01*
X12521425Y-27408557D02*
X12521425Y-26508557D01*
X12907140Y-27408557D02*
X12907140Y-26937128D01*
X12907140Y-26937128D02*
X12864282Y-26851414D01*
X12864282Y-26851414D02*
X12778568Y-26808557D01*
X12778568Y-26808557D02*
X12649997Y-26808557D01*
X12649997Y-26808557D02*
X12564282Y-26851414D01*
X12564282Y-26851414D02*
X12521425Y-26894271D01*
X13464283Y-27408557D02*
X13378568Y-27365700D01*
X13378568Y-27365700D02*
X13335711Y-27322842D01*
X13335711Y-27322842D02*
X13292854Y-27237128D01*
X13292854Y-27237128D02*
X13292854Y-26979985D01*
X13292854Y-26979985D02*
X13335711Y-26894271D01*
X13335711Y-26894271D02*
X13378568Y-26851414D01*
X13378568Y-26851414D02*
X13464283Y-26808557D01*
X13464283Y-26808557D02*
X13592854Y-26808557D01*
X13592854Y-26808557D02*
X13678568Y-26851414D01*
X13678568Y-26851414D02*
X13721426Y-26894271D01*
X13721426Y-26894271D02*
X13764283Y-26979985D01*
X13764283Y-26979985D02*
X13764283Y-27237128D01*
X13764283Y-27237128D02*
X13721426Y-27322842D01*
X13721426Y-27322842D02*
X13678568Y-27365700D01*
X13678568Y-27365700D02*
X13592854Y-27408557D01*
X13592854Y-27408557D02*
X13464283Y-27408557D01*
X14535712Y-26808557D02*
X14535712Y-27408557D01*
X14149997Y-26808557D02*
X14149997Y-27279985D01*
X14149997Y-27279985D02*
X14192854Y-27365700D01*
X14192854Y-27365700D02*
X14278569Y-27408557D01*
X14278569Y-27408557D02*
X14407140Y-27408557D01*
X14407140Y-27408557D02*
X14492854Y-27365700D01*
X14492854Y-27365700D02*
X14535712Y-27322842D01*
X14921426Y-27365700D02*
X15007140Y-27408557D01*
X15007140Y-27408557D02*
X15178569Y-27408557D01*
X15178569Y-27408557D02*
X15264283Y-27365700D01*
X15264283Y-27365700D02*
X15307140Y-27279985D01*
X15307140Y-27279985D02*
X15307140Y-27237128D01*
X15307140Y-27237128D02*
X15264283Y-27151414D01*
X15264283Y-27151414D02*
X15178569Y-27108557D01*
X15178569Y-27108557D02*
X15049998Y-27108557D01*
X15049998Y-27108557D02*
X14964283Y-27065700D01*
X14964283Y-27065700D02*
X14921426Y-26979985D01*
X14921426Y-26979985D02*
X14921426Y-26937128D01*
X14921426Y-26937128D02*
X14964283Y-26851414D01*
X14964283Y-26851414D02*
X15049998Y-26808557D01*
X15049998Y-26808557D02*
X15178569Y-26808557D01*
X15178569Y-26808557D02*
X15264283Y-26851414D01*
X15692854Y-27408557D02*
X15692854Y-26808557D01*
X15692854Y-26508557D02*
X15649997Y-26551414D01*
X15649997Y-26551414D02*
X15692854Y-26594271D01*
X15692854Y-26594271D02*
X15735711Y-26551414D01*
X15735711Y-26551414D02*
X15692854Y-26508557D01*
X15692854Y-26508557D02*
X15692854Y-26594271D01*
X16121425Y-26808557D02*
X16121425Y-27408557D01*
X16121425Y-26894271D02*
X16164282Y-26851414D01*
X16164282Y-26851414D02*
X16249997Y-26808557D01*
X16249997Y-26808557D02*
X16378568Y-26808557D01*
X16378568Y-26808557D02*
X16464282Y-26851414D01*
X16464282Y-26851414D02*
X16507140Y-26937128D01*
X16507140Y-26937128D02*
X16507140Y-27408557D01*
X17321426Y-26808557D02*
X17321426Y-27537128D01*
X17321426Y-27537128D02*
X17278568Y-27622842D01*
X17278568Y-27622842D02*
X17235711Y-27665700D01*
X17235711Y-27665700D02*
X17149997Y-27708557D01*
X17149997Y-27708557D02*
X17021426Y-27708557D01*
X17021426Y-27708557D02*
X16935711Y-27665700D01*
X17321426Y-27365700D02*
X17235711Y-27408557D01*
X17235711Y-27408557D02*
X17064283Y-27408557D01*
X17064283Y-27408557D02*
X16978568Y-27365700D01*
X16978568Y-27365700D02*
X16935711Y-27322842D01*
X16935711Y-27322842D02*
X16892854Y-27237128D01*
X16892854Y-27237128D02*
X16892854Y-26979985D01*
X16892854Y-26979985D02*
X16935711Y-26894271D01*
X16935711Y-26894271D02*
X16978568Y-26851414D01*
X16978568Y-26851414D02*
X17064283Y-26808557D01*
X17064283Y-26808557D02*
X17235711Y-26808557D01*
X17235711Y-26808557D02*
X17321426Y-26851414D01*
X19078568Y-26465700D02*
X18307140Y-27622842D01*
X20021425Y-27365700D02*
X20107139Y-27408557D01*
X20107139Y-27408557D02*
X20278568Y-27408557D01*
X20278568Y-27408557D02*
X20364282Y-27365700D01*
X20364282Y-27365700D02*
X20407139Y-27279985D01*
X20407139Y-27279985D02*
X20407139Y-27237128D01*
X20407139Y-27237128D02*
X20364282Y-27151414D01*
X20364282Y-27151414D02*
X20278568Y-27108557D01*
X20278568Y-27108557D02*
X20149997Y-27108557D01*
X20149997Y-27108557D02*
X20064282Y-27065700D01*
X20064282Y-27065700D02*
X20021425Y-26979985D01*
X20021425Y-26979985D02*
X20021425Y-26937128D01*
X20021425Y-26937128D02*
X20064282Y-26851414D01*
X20064282Y-26851414D02*
X20149997Y-26808557D01*
X20149997Y-26808557D02*
X20278568Y-26808557D01*
X20278568Y-26808557D02*
X20364282Y-26851414D01*
X21135710Y-27365700D02*
X21049996Y-27408557D01*
X21049996Y-27408557D02*
X20878568Y-27408557D01*
X20878568Y-27408557D02*
X20792853Y-27365700D01*
X20792853Y-27365700D02*
X20749996Y-27279985D01*
X20749996Y-27279985D02*
X20749996Y-26937128D01*
X20749996Y-26937128D02*
X20792853Y-26851414D01*
X20792853Y-26851414D02*
X20878568Y-26808557D01*
X20878568Y-26808557D02*
X21049996Y-26808557D01*
X21049996Y-26808557D02*
X21135710Y-26851414D01*
X21135710Y-26851414D02*
X21178568Y-26937128D01*
X21178568Y-26937128D02*
X21178568Y-27022842D01*
X21178568Y-27022842D02*
X20749996Y-27108557D01*
X21692854Y-27408557D02*
X21607139Y-27365700D01*
X21607139Y-27365700D02*
X21564282Y-27279985D01*
X21564282Y-27279985D02*
X21564282Y-26508557D01*
X22378568Y-27365700D02*
X22292854Y-27408557D01*
X22292854Y-27408557D02*
X22121426Y-27408557D01*
X22121426Y-27408557D02*
X22035711Y-27365700D01*
X22035711Y-27365700D02*
X21992854Y-27279985D01*
X21992854Y-27279985D02*
X21992854Y-26937128D01*
X21992854Y-26937128D02*
X22035711Y-26851414D01*
X22035711Y-26851414D02*
X22121426Y-26808557D01*
X22121426Y-26808557D02*
X22292854Y-26808557D01*
X22292854Y-26808557D02*
X22378568Y-26851414D01*
X22378568Y-26851414D02*
X22421426Y-26937128D01*
X22421426Y-26937128D02*
X22421426Y-27022842D01*
X22421426Y-27022842D02*
X21992854Y-27108557D01*
X23192855Y-27365700D02*
X23107140Y-27408557D01*
X23107140Y-27408557D02*
X22935712Y-27408557D01*
X22935712Y-27408557D02*
X22849997Y-27365700D01*
X22849997Y-27365700D02*
X22807140Y-27322842D01*
X22807140Y-27322842D02*
X22764283Y-27237128D01*
X22764283Y-27237128D02*
X22764283Y-26979985D01*
X22764283Y-26979985D02*
X22807140Y-26894271D01*
X22807140Y-26894271D02*
X22849997Y-26851414D01*
X22849997Y-26851414D02*
X22935712Y-26808557D01*
X22935712Y-26808557D02*
X23107140Y-26808557D01*
X23107140Y-26808557D02*
X23192855Y-26851414D01*
X23449998Y-26808557D02*
X23792855Y-26808557D01*
X23578569Y-26508557D02*
X23578569Y-27279985D01*
X23578569Y-27279985D02*
X23621426Y-27365700D01*
X23621426Y-27365700D02*
X23707141Y-27408557D01*
X23707141Y-27408557D02*
X23792855Y-27408557D01*
X24435712Y-27365700D02*
X24349998Y-27408557D01*
X24349998Y-27408557D02*
X24178570Y-27408557D01*
X24178570Y-27408557D02*
X24092855Y-27365700D01*
X24092855Y-27365700D02*
X24049998Y-27279985D01*
X24049998Y-27279985D02*
X24049998Y-26937128D01*
X24049998Y-26937128D02*
X24092855Y-26851414D01*
X24092855Y-26851414D02*
X24178570Y-26808557D01*
X24178570Y-26808557D02*
X24349998Y-26808557D01*
X24349998Y-26808557D02*
X24435712Y-26851414D01*
X24435712Y-26851414D02*
X24478570Y-26937128D01*
X24478570Y-26937128D02*
X24478570Y-27022842D01*
X24478570Y-27022842D02*
X24049998Y-27108557D01*
X25249999Y-27408557D02*
X25249999Y-26508557D01*
X25249999Y-27365700D02*
X25164284Y-27408557D01*
X25164284Y-27408557D02*
X24992856Y-27408557D01*
X24992856Y-27408557D02*
X24907141Y-27365700D01*
X24907141Y-27365700D02*
X24864284Y-27322842D01*
X24864284Y-27322842D02*
X24821427Y-27237128D01*
X24821427Y-27237128D02*
X24821427Y-26979985D01*
X24821427Y-26979985D02*
X24864284Y-26894271D01*
X24864284Y-26894271D02*
X24907141Y-26851414D01*
X24907141Y-26851414D02*
X24992856Y-26808557D01*
X24992856Y-26808557D02*
X25164284Y-26808557D01*
X25164284Y-26808557D02*
X25249999Y-26851414D01*
X26364284Y-27408557D02*
X26364284Y-26508557D01*
X26364284Y-26508557D02*
X26664284Y-27151414D01*
X26664284Y-27151414D02*
X26964284Y-26508557D01*
X26964284Y-26508557D02*
X26964284Y-27408557D01*
X27864284Y-27408557D02*
X27349998Y-27408557D01*
X27607141Y-27408557D02*
X27607141Y-26508557D01*
X27607141Y-26508557D02*
X27521427Y-26637128D01*
X27521427Y-26637128D02*
X27435712Y-26722842D01*
X27435712Y-26722842D02*
X27349998Y-26765700D01*
X28249998Y-27322842D02*
X28292855Y-27365700D01*
X28292855Y-27365700D02*
X28249998Y-27408557D01*
X28249998Y-27408557D02*
X28207141Y-27365700D01*
X28207141Y-27365700D02*
X28249998Y-27322842D01*
X28249998Y-27322842D02*
X28249998Y-27408557D01*
X29064284Y-26808557D02*
X29064284Y-27408557D01*
X28849998Y-26465700D02*
X28635712Y-27108557D01*
X28635712Y-27108557D02*
X29192855Y-27108557D01*
X30221426Y-27408557D02*
X30221426Y-26508557D01*
X30221426Y-26508557D02*
X30521426Y-27151414D01*
X30521426Y-27151414D02*
X30821426Y-26508557D01*
X30821426Y-26508557D02*
X30821426Y-27408557D01*
X31249997Y-27408557D02*
X31249997Y-26508557D01*
X31249997Y-26937128D02*
X31764283Y-26937128D01*
X31764283Y-27408557D02*
X31764283Y-26508557D01*
X32878568Y-27408557D02*
X32878568Y-26808557D01*
X32878568Y-26979985D02*
X32921425Y-26894271D01*
X32921425Y-26894271D02*
X32964283Y-26851414D01*
X32964283Y-26851414D02*
X33049997Y-26808557D01*
X33049997Y-26808557D02*
X33135711Y-26808557D01*
X33778568Y-27365700D02*
X33692854Y-27408557D01*
X33692854Y-27408557D02*
X33521426Y-27408557D01*
X33521426Y-27408557D02*
X33435711Y-27365700D01*
X33435711Y-27365700D02*
X33392854Y-27279985D01*
X33392854Y-27279985D02*
X33392854Y-26937128D01*
X33392854Y-26937128D02*
X33435711Y-26851414D01*
X33435711Y-26851414D02*
X33521426Y-26808557D01*
X33521426Y-26808557D02*
X33692854Y-26808557D01*
X33692854Y-26808557D02*
X33778568Y-26851414D01*
X33778568Y-26851414D02*
X33821426Y-26937128D01*
X33821426Y-26937128D02*
X33821426Y-27022842D01*
X33821426Y-27022842D02*
X33392854Y-27108557D01*
X34078569Y-26808557D02*
X34421426Y-26808557D01*
X34207140Y-26508557D02*
X34207140Y-27279985D01*
X34207140Y-27279985D02*
X34249997Y-27365700D01*
X34249997Y-27365700D02*
X34335712Y-27408557D01*
X34335712Y-27408557D02*
X34421426Y-27408557D01*
X35064283Y-27365700D02*
X34978569Y-27408557D01*
X34978569Y-27408557D02*
X34807141Y-27408557D01*
X34807141Y-27408557D02*
X34721426Y-27365700D01*
X34721426Y-27365700D02*
X34678569Y-27279985D01*
X34678569Y-27279985D02*
X34678569Y-26937128D01*
X34678569Y-26937128D02*
X34721426Y-26851414D01*
X34721426Y-26851414D02*
X34807141Y-26808557D01*
X34807141Y-26808557D02*
X34978569Y-26808557D01*
X34978569Y-26808557D02*
X35064283Y-26851414D01*
X35064283Y-26851414D02*
X35107141Y-26937128D01*
X35107141Y-26937128D02*
X35107141Y-27022842D01*
X35107141Y-27022842D02*
X34678569Y-27108557D01*
X35492855Y-26808557D02*
X35492855Y-27408557D01*
X35492855Y-26894271D02*
X35535712Y-26851414D01*
X35535712Y-26851414D02*
X35621427Y-26808557D01*
X35621427Y-26808557D02*
X35749998Y-26808557D01*
X35749998Y-26808557D02*
X35835712Y-26851414D01*
X35835712Y-26851414D02*
X35878570Y-26937128D01*
X35878570Y-26937128D02*
X35878570Y-27408557D01*
X36178570Y-26808557D02*
X36521427Y-26808557D01*
X36307141Y-26508557D02*
X36307141Y-27279985D01*
X36307141Y-27279985D02*
X36349998Y-27365700D01*
X36349998Y-27365700D02*
X36435713Y-27408557D01*
X36435713Y-27408557D02*
X36521427Y-27408557D01*
X36821427Y-27408557D02*
X36821427Y-26808557D01*
X36821427Y-26508557D02*
X36778570Y-26551414D01*
X36778570Y-26551414D02*
X36821427Y-26594271D01*
X36821427Y-26594271D02*
X36864284Y-26551414D01*
X36864284Y-26551414D02*
X36821427Y-26508557D01*
X36821427Y-26508557D02*
X36821427Y-26594271D01*
X37378570Y-27408557D02*
X37292855Y-27365700D01*
X37292855Y-27365700D02*
X37249998Y-27322842D01*
X37249998Y-27322842D02*
X37207141Y-27237128D01*
X37207141Y-27237128D02*
X37207141Y-26979985D01*
X37207141Y-26979985D02*
X37249998Y-26894271D01*
X37249998Y-26894271D02*
X37292855Y-26851414D01*
X37292855Y-26851414D02*
X37378570Y-26808557D01*
X37378570Y-26808557D02*
X37507141Y-26808557D01*
X37507141Y-26808557D02*
X37592855Y-26851414D01*
X37592855Y-26851414D02*
X37635713Y-26894271D01*
X37635713Y-26894271D02*
X37678570Y-26979985D01*
X37678570Y-26979985D02*
X37678570Y-27237128D01*
X37678570Y-27237128D02*
X37635713Y-27322842D01*
X37635713Y-27322842D02*
X37592855Y-27365700D01*
X37592855Y-27365700D02*
X37507141Y-27408557D01*
X37507141Y-27408557D02*
X37378570Y-27408557D01*
X38064284Y-26808557D02*
X38064284Y-27408557D01*
X38064284Y-26894271D02*
X38107141Y-26851414D01*
X38107141Y-26851414D02*
X38192856Y-26808557D01*
X38192856Y-26808557D02*
X38321427Y-26808557D01*
X38321427Y-26808557D02*
X38407141Y-26851414D01*
X38407141Y-26851414D02*
X38449999Y-26937128D01*
X38449999Y-26937128D02*
X38449999Y-27408557D01*
X39564284Y-27065700D02*
X40249999Y-27065700D01*
X39907141Y-27408557D02*
X39907141Y-26722842D01*
X41364284Y-27408557D02*
X41364284Y-26808557D01*
X41364284Y-26508557D02*
X41321427Y-26551414D01*
X41321427Y-26551414D02*
X41364284Y-26594271D01*
X41364284Y-26594271D02*
X41407141Y-26551414D01*
X41407141Y-26551414D02*
X41364284Y-26508557D01*
X41364284Y-26508557D02*
X41364284Y-26594271D01*
X41792855Y-26808557D02*
X41792855Y-27408557D01*
X41792855Y-26894271D02*
X41835712Y-26851414D01*
X41835712Y-26851414D02*
X41921427Y-26808557D01*
X41921427Y-26808557D02*
X42049998Y-26808557D01*
X42049998Y-26808557D02*
X42135712Y-26851414D01*
X42135712Y-26851414D02*
X42178570Y-26937128D01*
X42178570Y-26937128D02*
X42178570Y-27408557D01*
X42992856Y-27408557D02*
X42992856Y-26508557D01*
X42992856Y-27365700D02*
X42907141Y-27408557D01*
X42907141Y-27408557D02*
X42735713Y-27408557D01*
X42735713Y-27408557D02*
X42649998Y-27365700D01*
X42649998Y-27365700D02*
X42607141Y-27322842D01*
X42607141Y-27322842D02*
X42564284Y-27237128D01*
X42564284Y-27237128D02*
X42564284Y-26979985D01*
X42564284Y-26979985D02*
X42607141Y-26894271D01*
X42607141Y-26894271D02*
X42649998Y-26851414D01*
X42649998Y-26851414D02*
X42735713Y-26808557D01*
X42735713Y-26808557D02*
X42907141Y-26808557D01*
X42907141Y-26808557D02*
X42992856Y-26851414D01*
X43764284Y-27365700D02*
X43678570Y-27408557D01*
X43678570Y-27408557D02*
X43507142Y-27408557D01*
X43507142Y-27408557D02*
X43421427Y-27365700D01*
X43421427Y-27365700D02*
X43378570Y-27279985D01*
X43378570Y-27279985D02*
X43378570Y-26937128D01*
X43378570Y-26937128D02*
X43421427Y-26851414D01*
X43421427Y-26851414D02*
X43507142Y-26808557D01*
X43507142Y-26808557D02*
X43678570Y-26808557D01*
X43678570Y-26808557D02*
X43764284Y-26851414D01*
X43764284Y-26851414D02*
X43807142Y-26937128D01*
X43807142Y-26937128D02*
X43807142Y-27022842D01*
X43807142Y-27022842D02*
X43378570Y-27108557D01*
X44192856Y-26808557D02*
X44192856Y-27708557D01*
X44192856Y-26851414D02*
X44278571Y-26808557D01*
X44278571Y-26808557D02*
X44449999Y-26808557D01*
X44449999Y-26808557D02*
X44535713Y-26851414D01*
X44535713Y-26851414D02*
X44578571Y-26894271D01*
X44578571Y-26894271D02*
X44621428Y-26979985D01*
X44621428Y-26979985D02*
X44621428Y-27237128D01*
X44621428Y-27237128D02*
X44578571Y-27322842D01*
X44578571Y-27322842D02*
X44535713Y-27365700D01*
X44535713Y-27365700D02*
X44449999Y-27408557D01*
X44449999Y-27408557D02*
X44278571Y-27408557D01*
X44278571Y-27408557D02*
X44192856Y-27365700D01*
X45349999Y-27365700D02*
X45264285Y-27408557D01*
X45264285Y-27408557D02*
X45092857Y-27408557D01*
X45092857Y-27408557D02*
X45007142Y-27365700D01*
X45007142Y-27365700D02*
X44964285Y-27279985D01*
X44964285Y-27279985D02*
X44964285Y-26937128D01*
X44964285Y-26937128D02*
X45007142Y-26851414D01*
X45007142Y-26851414D02*
X45092857Y-26808557D01*
X45092857Y-26808557D02*
X45264285Y-26808557D01*
X45264285Y-26808557D02*
X45349999Y-26851414D01*
X45349999Y-26851414D02*
X45392857Y-26937128D01*
X45392857Y-26937128D02*
X45392857Y-27022842D01*
X45392857Y-27022842D02*
X44964285Y-27108557D01*
X45778571Y-26808557D02*
X45778571Y-27408557D01*
X45778571Y-26894271D02*
X45821428Y-26851414D01*
X45821428Y-26851414D02*
X45907143Y-26808557D01*
X45907143Y-26808557D02*
X46035714Y-26808557D01*
X46035714Y-26808557D02*
X46121428Y-26851414D01*
X46121428Y-26851414D02*
X46164286Y-26937128D01*
X46164286Y-26937128D02*
X46164286Y-27408557D01*
X46978572Y-27408557D02*
X46978572Y-26508557D01*
X46978572Y-27365700D02*
X46892857Y-27408557D01*
X46892857Y-27408557D02*
X46721429Y-27408557D01*
X46721429Y-27408557D02*
X46635714Y-27365700D01*
X46635714Y-27365700D02*
X46592857Y-27322842D01*
X46592857Y-27322842D02*
X46550000Y-27237128D01*
X46550000Y-27237128D02*
X46550000Y-26979985D01*
X46550000Y-26979985D02*
X46592857Y-26894271D01*
X46592857Y-26894271D02*
X46635714Y-26851414D01*
X46635714Y-26851414D02*
X46721429Y-26808557D01*
X46721429Y-26808557D02*
X46892857Y-26808557D01*
X46892857Y-26808557D02*
X46978572Y-26851414D01*
X47750000Y-27365700D02*
X47664286Y-27408557D01*
X47664286Y-27408557D02*
X47492858Y-27408557D01*
X47492858Y-27408557D02*
X47407143Y-27365700D01*
X47407143Y-27365700D02*
X47364286Y-27279985D01*
X47364286Y-27279985D02*
X47364286Y-26937128D01*
X47364286Y-26937128D02*
X47407143Y-26851414D01*
X47407143Y-26851414D02*
X47492858Y-26808557D01*
X47492858Y-26808557D02*
X47664286Y-26808557D01*
X47664286Y-26808557D02*
X47750000Y-26851414D01*
X47750000Y-26851414D02*
X47792858Y-26937128D01*
X47792858Y-26937128D02*
X47792858Y-27022842D01*
X47792858Y-27022842D02*
X47364286Y-27108557D01*
X48178572Y-26808557D02*
X48178572Y-27408557D01*
X48178572Y-26894271D02*
X48221429Y-26851414D01*
X48221429Y-26851414D02*
X48307144Y-26808557D01*
X48307144Y-26808557D02*
X48435715Y-26808557D01*
X48435715Y-26808557D02*
X48521429Y-26851414D01*
X48521429Y-26851414D02*
X48564287Y-26937128D01*
X48564287Y-26937128D02*
X48564287Y-27408557D01*
X48864287Y-26808557D02*
X49207144Y-26808557D01*
X48992858Y-26508557D02*
X48992858Y-27279985D01*
X48992858Y-27279985D02*
X49035715Y-27365700D01*
X49035715Y-27365700D02*
X49121430Y-27408557D01*
X49121430Y-27408557D02*
X49207144Y-27408557D01*
X50578573Y-26808557D02*
X50578573Y-27408557D01*
X50192858Y-26808557D02*
X50192858Y-27279985D01*
X50192858Y-27279985D02*
X50235715Y-27365700D01*
X50235715Y-27365700D02*
X50321430Y-27408557D01*
X50321430Y-27408557D02*
X50450001Y-27408557D01*
X50450001Y-27408557D02*
X50535715Y-27365700D01*
X50535715Y-27365700D02*
X50578573Y-27322842D01*
X51007144Y-26808557D02*
X51007144Y-27408557D01*
X51007144Y-26894271D02*
X51050001Y-26851414D01*
X51050001Y-26851414D02*
X51135716Y-26808557D01*
X51135716Y-26808557D02*
X51264287Y-26808557D01*
X51264287Y-26808557D02*
X51350001Y-26851414D01*
X51350001Y-26851414D02*
X51392859Y-26937128D01*
X51392859Y-26937128D02*
X51392859Y-27408557D01*
X52207145Y-27408557D02*
X52207145Y-26508557D01*
X52207145Y-27365700D02*
X52121430Y-27408557D01*
X52121430Y-27408557D02*
X51950002Y-27408557D01*
X51950002Y-27408557D02*
X51864287Y-27365700D01*
X51864287Y-27365700D02*
X51821430Y-27322842D01*
X51821430Y-27322842D02*
X51778573Y-27237128D01*
X51778573Y-27237128D02*
X51778573Y-26979985D01*
X51778573Y-26979985D02*
X51821430Y-26894271D01*
X51821430Y-26894271D02*
X51864287Y-26851414D01*
X51864287Y-26851414D02*
X51950002Y-26808557D01*
X51950002Y-26808557D02*
X52121430Y-26808557D01*
X52121430Y-26808557D02*
X52207145Y-26851414D01*
X52978573Y-27365700D02*
X52892859Y-27408557D01*
X52892859Y-27408557D02*
X52721431Y-27408557D01*
X52721431Y-27408557D02*
X52635716Y-27365700D01*
X52635716Y-27365700D02*
X52592859Y-27279985D01*
X52592859Y-27279985D02*
X52592859Y-26937128D01*
X52592859Y-26937128D02*
X52635716Y-26851414D01*
X52635716Y-26851414D02*
X52721431Y-26808557D01*
X52721431Y-26808557D02*
X52892859Y-26808557D01*
X52892859Y-26808557D02*
X52978573Y-26851414D01*
X52978573Y-26851414D02*
X53021431Y-26937128D01*
X53021431Y-26937128D02*
X53021431Y-27022842D01*
X53021431Y-27022842D02*
X52592859Y-27108557D01*
X53407145Y-27408557D02*
X53407145Y-26808557D01*
X53407145Y-26979985D02*
X53450002Y-26894271D01*
X53450002Y-26894271D02*
X53492860Y-26851414D01*
X53492860Y-26851414D02*
X53578574Y-26808557D01*
X53578574Y-26808557D02*
X53664288Y-26808557D01*
X53921431Y-27365700D02*
X54007145Y-27408557D01*
X54007145Y-27408557D02*
X54178574Y-27408557D01*
X54178574Y-27408557D02*
X54264288Y-27365700D01*
X54264288Y-27365700D02*
X54307145Y-27279985D01*
X54307145Y-27279985D02*
X54307145Y-27237128D01*
X54307145Y-27237128D02*
X54264288Y-27151414D01*
X54264288Y-27151414D02*
X54178574Y-27108557D01*
X54178574Y-27108557D02*
X54050003Y-27108557D01*
X54050003Y-27108557D02*
X53964288Y-27065700D01*
X53964288Y-27065700D02*
X53921431Y-26979985D01*
X53921431Y-26979985D02*
X53921431Y-26937128D01*
X53921431Y-26937128D02*
X53964288Y-26851414D01*
X53964288Y-26851414D02*
X54050003Y-26808557D01*
X54050003Y-26808557D02*
X54178574Y-26808557D01*
X54178574Y-26808557D02*
X54264288Y-26851414D01*
X54692859Y-27408557D02*
X54692859Y-26808557D01*
X54692859Y-26508557D02*
X54650002Y-26551414D01*
X54650002Y-26551414D02*
X54692859Y-26594271D01*
X54692859Y-26594271D02*
X54735716Y-26551414D01*
X54735716Y-26551414D02*
X54692859Y-26508557D01*
X54692859Y-26508557D02*
X54692859Y-26594271D01*
X55507145Y-27408557D02*
X55507145Y-26508557D01*
X55507145Y-27365700D02*
X55421430Y-27408557D01*
X55421430Y-27408557D02*
X55250002Y-27408557D01*
X55250002Y-27408557D02*
X55164287Y-27365700D01*
X55164287Y-27365700D02*
X55121430Y-27322842D01*
X55121430Y-27322842D02*
X55078573Y-27237128D01*
X55078573Y-27237128D02*
X55078573Y-26979985D01*
X55078573Y-26979985D02*
X55121430Y-26894271D01*
X55121430Y-26894271D02*
X55164287Y-26851414D01*
X55164287Y-26851414D02*
X55250002Y-26808557D01*
X55250002Y-26808557D02*
X55421430Y-26808557D01*
X55421430Y-26808557D02*
X55507145Y-26851414D01*
X56278573Y-27365700D02*
X56192859Y-27408557D01*
X56192859Y-27408557D02*
X56021431Y-27408557D01*
X56021431Y-27408557D02*
X55935716Y-27365700D01*
X55935716Y-27365700D02*
X55892859Y-27279985D01*
X55892859Y-27279985D02*
X55892859Y-26937128D01*
X55892859Y-26937128D02*
X55935716Y-26851414D01*
X55935716Y-26851414D02*
X56021431Y-26808557D01*
X56021431Y-26808557D02*
X56192859Y-26808557D01*
X56192859Y-26808557D02*
X56278573Y-26851414D01*
X56278573Y-26851414D02*
X56321431Y-26937128D01*
X56321431Y-26937128D02*
X56321431Y-27022842D01*
X56321431Y-27022842D02*
X55892859Y-27108557D01*
X57350002Y-27365700D02*
X57435716Y-27408557D01*
X57435716Y-27408557D02*
X57607145Y-27408557D01*
X57607145Y-27408557D02*
X57692859Y-27365700D01*
X57692859Y-27365700D02*
X57735716Y-27279985D01*
X57735716Y-27279985D02*
X57735716Y-27237128D01*
X57735716Y-27237128D02*
X57692859Y-27151414D01*
X57692859Y-27151414D02*
X57607145Y-27108557D01*
X57607145Y-27108557D02*
X57478574Y-27108557D01*
X57478574Y-27108557D02*
X57392859Y-27065700D01*
X57392859Y-27065700D02*
X57350002Y-26979985D01*
X57350002Y-26979985D02*
X57350002Y-26937128D01*
X57350002Y-26937128D02*
X57392859Y-26851414D01*
X57392859Y-26851414D02*
X57478574Y-26808557D01*
X57478574Y-26808557D02*
X57607145Y-26808557D01*
X57607145Y-26808557D02*
X57692859Y-26851414D01*
X58507145Y-26808557D02*
X58507145Y-27408557D01*
X58121430Y-26808557D02*
X58121430Y-27279985D01*
X58121430Y-27279985D02*
X58164287Y-27365700D01*
X58164287Y-27365700D02*
X58250002Y-27408557D01*
X58250002Y-27408557D02*
X58378573Y-27408557D01*
X58378573Y-27408557D02*
X58464287Y-27365700D01*
X58464287Y-27365700D02*
X58507145Y-27322842D01*
X58935716Y-26808557D02*
X58935716Y-27708557D01*
X58935716Y-26851414D02*
X59021431Y-26808557D01*
X59021431Y-26808557D02*
X59192859Y-26808557D01*
X59192859Y-26808557D02*
X59278573Y-26851414D01*
X59278573Y-26851414D02*
X59321431Y-26894271D01*
X59321431Y-26894271D02*
X59364288Y-26979985D01*
X59364288Y-26979985D02*
X59364288Y-27237128D01*
X59364288Y-27237128D02*
X59321431Y-27322842D01*
X59321431Y-27322842D02*
X59278573Y-27365700D01*
X59278573Y-27365700D02*
X59192859Y-27408557D01*
X59192859Y-27408557D02*
X59021431Y-27408557D01*
X59021431Y-27408557D02*
X58935716Y-27365700D01*
X59750002Y-26808557D02*
X59750002Y-27708557D01*
X59750002Y-26851414D02*
X59835717Y-26808557D01*
X59835717Y-26808557D02*
X60007145Y-26808557D01*
X60007145Y-26808557D02*
X60092859Y-26851414D01*
X60092859Y-26851414D02*
X60135717Y-26894271D01*
X60135717Y-26894271D02*
X60178574Y-26979985D01*
X60178574Y-26979985D02*
X60178574Y-27237128D01*
X60178574Y-27237128D02*
X60135717Y-27322842D01*
X60135717Y-27322842D02*
X60092859Y-27365700D01*
X60092859Y-27365700D02*
X60007145Y-27408557D01*
X60007145Y-27408557D02*
X59835717Y-27408557D01*
X59835717Y-27408557D02*
X59750002Y-27365700D01*
X60692860Y-27408557D02*
X60607145Y-27365700D01*
X60607145Y-27365700D02*
X60564288Y-27322842D01*
X60564288Y-27322842D02*
X60521431Y-27237128D01*
X60521431Y-27237128D02*
X60521431Y-26979985D01*
X60521431Y-26979985D02*
X60564288Y-26894271D01*
X60564288Y-26894271D02*
X60607145Y-26851414D01*
X60607145Y-26851414D02*
X60692860Y-26808557D01*
X60692860Y-26808557D02*
X60821431Y-26808557D01*
X60821431Y-26808557D02*
X60907145Y-26851414D01*
X60907145Y-26851414D02*
X60950003Y-26894271D01*
X60950003Y-26894271D02*
X60992860Y-26979985D01*
X60992860Y-26979985D02*
X60992860Y-27237128D01*
X60992860Y-27237128D02*
X60950003Y-27322842D01*
X60950003Y-27322842D02*
X60907145Y-27365700D01*
X60907145Y-27365700D02*
X60821431Y-27408557D01*
X60821431Y-27408557D02*
X60692860Y-27408557D01*
X61378574Y-27408557D02*
X61378574Y-26808557D01*
X61378574Y-26979985D02*
X61421431Y-26894271D01*
X61421431Y-26894271D02*
X61464289Y-26851414D01*
X61464289Y-26851414D02*
X61550003Y-26808557D01*
X61550003Y-26808557D02*
X61635717Y-26808557D01*
X61807146Y-26808557D02*
X62150003Y-26808557D01*
X61935717Y-26508557D02*
X61935717Y-27279985D01*
X61935717Y-27279985D02*
X61978574Y-27365700D01*
X61978574Y-27365700D02*
X62064289Y-27408557D01*
X62064289Y-27408557D02*
X62150003Y-27408557D01*
X62407146Y-27365700D02*
X62492860Y-27408557D01*
X62492860Y-27408557D02*
X62664289Y-27408557D01*
X62664289Y-27408557D02*
X62750003Y-27365700D01*
X62750003Y-27365700D02*
X62792860Y-27279985D01*
X62792860Y-27279985D02*
X62792860Y-27237128D01*
X62792860Y-27237128D02*
X62750003Y-27151414D01*
X62750003Y-27151414D02*
X62664289Y-27108557D01*
X62664289Y-27108557D02*
X62535718Y-27108557D01*
X62535718Y-27108557D02*
X62450003Y-27065700D01*
X62450003Y-27065700D02*
X62407146Y-26979985D01*
X62407146Y-26979985D02*
X62407146Y-26937128D01*
X62407146Y-26937128D02*
X62450003Y-26851414D01*
X62450003Y-26851414D02*
X62535718Y-26808557D01*
X62535718Y-26808557D02*
X62664289Y-26808557D01*
X62664289Y-26808557D02*
X62750003Y-26851414D01*
X110693452Y-37954819D02*
X110693452Y-38764342D01*
X110693452Y-38764342D02*
X110741071Y-38859580D01*
X110741071Y-38859580D02*
X110788690Y-38907200D01*
X110788690Y-38907200D02*
X110883928Y-38954819D01*
X110883928Y-38954819D02*
X111074404Y-38954819D01*
X111074404Y-38954819D02*
X111169642Y-38907200D01*
X111169642Y-38907200D02*
X111217261Y-38859580D01*
X111217261Y-38859580D02*
X111264880Y-38764342D01*
X111264880Y-38764342D02*
X111264880Y-37954819D01*
X111693452Y-38907200D02*
X111836309Y-38954819D01*
X111836309Y-38954819D02*
X112074404Y-38954819D01*
X112074404Y-38954819D02*
X112169642Y-38907200D01*
X112169642Y-38907200D02*
X112217261Y-38859580D01*
X112217261Y-38859580D02*
X112264880Y-38764342D01*
X112264880Y-38764342D02*
X112264880Y-38669104D01*
X112264880Y-38669104D02*
X112217261Y-38573866D01*
X112217261Y-38573866D02*
X112169642Y-38526247D01*
X112169642Y-38526247D02*
X112074404Y-38478628D01*
X112074404Y-38478628D02*
X111883928Y-38431009D01*
X111883928Y-38431009D02*
X111788690Y-38383390D01*
X111788690Y-38383390D02*
X111741071Y-38335771D01*
X111741071Y-38335771D02*
X111693452Y-38240533D01*
X111693452Y-38240533D02*
X111693452Y-38145295D01*
X111693452Y-38145295D02*
X111741071Y-38050057D01*
X111741071Y-38050057D02*
X111788690Y-38002438D01*
X111788690Y-38002438D02*
X111883928Y-37954819D01*
X111883928Y-37954819D02*
X112122023Y-37954819D01*
X112122023Y-37954819D02*
X112264880Y-38002438D01*
X113026785Y-38431009D02*
X113169642Y-38478628D01*
X113169642Y-38478628D02*
X113217261Y-38526247D01*
X113217261Y-38526247D02*
X113264880Y-38621485D01*
X113264880Y-38621485D02*
X113264880Y-38764342D01*
X113264880Y-38764342D02*
X113217261Y-38859580D01*
X113217261Y-38859580D02*
X113169642Y-38907200D01*
X113169642Y-38907200D02*
X113074404Y-38954819D01*
X113074404Y-38954819D02*
X112693452Y-38954819D01*
X112693452Y-38954819D02*
X112693452Y-37954819D01*
X112693452Y-37954819D02*
X113026785Y-37954819D01*
X113026785Y-37954819D02*
X113122023Y-38002438D01*
X113122023Y-38002438D02*
X113169642Y-38050057D01*
X113169642Y-38050057D02*
X113217261Y-38145295D01*
X113217261Y-38145295D02*
X113217261Y-38240533D01*
X113217261Y-38240533D02*
X113169642Y-38335771D01*
X113169642Y-38335771D02*
X113122023Y-38383390D01*
X113122023Y-38383390D02*
X113026785Y-38431009D01*
X113026785Y-38431009D02*
X112693452Y-38431009D01*
X113455357Y-39050057D02*
X114217261Y-39050057D01*
X114645833Y-37954819D02*
X114836309Y-37954819D01*
X114836309Y-37954819D02*
X114931547Y-38002438D01*
X114931547Y-38002438D02*
X115026785Y-38097676D01*
X115026785Y-38097676D02*
X115074404Y-38288152D01*
X115074404Y-38288152D02*
X115074404Y-38621485D01*
X115074404Y-38621485D02*
X115026785Y-38811961D01*
X115026785Y-38811961D02*
X114931547Y-38907200D01*
X114931547Y-38907200D02*
X114836309Y-38954819D01*
X114836309Y-38954819D02*
X114645833Y-38954819D01*
X114645833Y-38954819D02*
X114550595Y-38907200D01*
X114550595Y-38907200D02*
X114455357Y-38811961D01*
X114455357Y-38811961D02*
X114407738Y-38621485D01*
X114407738Y-38621485D02*
X114407738Y-38288152D01*
X114407738Y-38288152D02*
X114455357Y-38097676D01*
X114455357Y-38097676D02*
X114550595Y-38002438D01*
X114550595Y-38002438D02*
X114645833Y-37954819D01*
X115502976Y-37954819D02*
X115502976Y-38764342D01*
X115502976Y-38764342D02*
X115550595Y-38859580D01*
X115550595Y-38859580D02*
X115598214Y-38907200D01*
X115598214Y-38907200D02*
X115693452Y-38954819D01*
X115693452Y-38954819D02*
X115883928Y-38954819D01*
X115883928Y-38954819D02*
X115979166Y-38907200D01*
X115979166Y-38907200D02*
X116026785Y-38859580D01*
X116026785Y-38859580D02*
X116074404Y-38764342D01*
X116074404Y-38764342D02*
X116074404Y-37954819D01*
X116407738Y-37954819D02*
X116979166Y-37954819D01*
X116693452Y-38954819D02*
X116693452Y-37954819D01*
X117074405Y-39050057D02*
X117836309Y-39050057D01*
X118550595Y-38954819D02*
X118074405Y-38954819D01*
X118074405Y-38954819D02*
X118074405Y-37954819D01*
X118883929Y-38431009D02*
X119217262Y-38431009D01*
X119360119Y-38954819D02*
X118883929Y-38954819D01*
X118883929Y-38954819D02*
X118883929Y-37954819D01*
X118883929Y-37954819D02*
X119360119Y-37954819D01*
X120122024Y-38431009D02*
X119788691Y-38431009D01*
X119788691Y-38954819D02*
X119788691Y-37954819D01*
X119788691Y-37954819D02*
X120264881Y-37954819D01*
X120502977Y-37954819D02*
X121074405Y-37954819D01*
X120788691Y-38954819D02*
X120788691Y-37954819D01*
X9057144Y-24547342D02*
X9057144Y-23347342D01*
X9742858Y-24547342D02*
X9228572Y-23861628D01*
X9742858Y-23347342D02*
X9057144Y-24033057D01*
X10942858Y-24433057D02*
X10885715Y-24490200D01*
X10885715Y-24490200D02*
X10714287Y-24547342D01*
X10714287Y-24547342D02*
X10600001Y-24547342D01*
X10600001Y-24547342D02*
X10428572Y-24490200D01*
X10428572Y-24490200D02*
X10314287Y-24375914D01*
X10314287Y-24375914D02*
X10257144Y-24261628D01*
X10257144Y-24261628D02*
X10200001Y-24033057D01*
X10200001Y-24033057D02*
X10200001Y-23861628D01*
X10200001Y-23861628D02*
X10257144Y-23633057D01*
X10257144Y-23633057D02*
X10314287Y-23518771D01*
X10314287Y-23518771D02*
X10428572Y-23404485D01*
X10428572Y-23404485D02*
X10600001Y-23347342D01*
X10600001Y-23347342D02*
X10714287Y-23347342D01*
X10714287Y-23347342D02*
X10885715Y-23404485D01*
X10885715Y-23404485D02*
X10942858Y-23461628D01*
X11400001Y-23461628D02*
X11457144Y-23404485D01*
X11457144Y-23404485D02*
X11571430Y-23347342D01*
X11571430Y-23347342D02*
X11857144Y-23347342D01*
X11857144Y-23347342D02*
X11971430Y-23404485D01*
X11971430Y-23404485D02*
X12028572Y-23461628D01*
X12028572Y-23461628D02*
X12085715Y-23575914D01*
X12085715Y-23575914D02*
X12085715Y-23690200D01*
X12085715Y-23690200D02*
X12028572Y-23861628D01*
X12028572Y-23861628D02*
X11342858Y-24547342D01*
X11342858Y-24547342D02*
X12085715Y-24547342D01*
X14085715Y-24547342D02*
X13514287Y-24547342D01*
X13514287Y-24547342D02*
X13514287Y-23347342D01*
X14485716Y-23918771D02*
X14885716Y-23918771D01*
X15057144Y-24547342D02*
X14485716Y-24547342D01*
X14485716Y-24547342D02*
X14485716Y-23347342D01*
X14485716Y-23347342D02*
X15057144Y-23347342D01*
X15971430Y-23918771D02*
X15571430Y-23918771D01*
X15571430Y-24547342D02*
X15571430Y-23347342D01*
X15571430Y-23347342D02*
X16142858Y-23347342D01*
X16428572Y-23347342D02*
X17114287Y-23347342D01*
X16771429Y-24547342D02*
X16771429Y-23347342D01*
X18314287Y-23347342D02*
X19114287Y-24547342D01*
X19114287Y-23347342D02*
X18314287Y-24547342D01*
X19457144Y-23347342D02*
X20200001Y-23347342D01*
X20200001Y-23347342D02*
X19800001Y-23804485D01*
X19800001Y-23804485D02*
X19971430Y-23804485D01*
X19971430Y-23804485D02*
X20085716Y-23861628D01*
X20085716Y-23861628D02*
X20142858Y-23918771D01*
X20142858Y-23918771D02*
X20200001Y-24033057D01*
X20200001Y-24033057D02*
X20200001Y-24318771D01*
X20200001Y-24318771D02*
X20142858Y-24433057D01*
X20142858Y-24433057D02*
X20085716Y-24490200D01*
X20085716Y-24490200D02*
X19971430Y-24547342D01*
X19971430Y-24547342D02*
X19628573Y-24547342D01*
X19628573Y-24547342D02*
X19514287Y-24490200D01*
X19514287Y-24490200D02*
X19457144Y-24433057D01*
X20714287Y-24090200D02*
X21628573Y-24090200D01*
X22028572Y-23347342D02*
X22428572Y-24547342D01*
X22428572Y-24547342D02*
X22828572Y-23347342D01*
X23171429Y-23461628D02*
X23228572Y-23404485D01*
X23228572Y-23404485D02*
X23342858Y-23347342D01*
X23342858Y-23347342D02*
X23628572Y-23347342D01*
X23628572Y-23347342D02*
X23742858Y-23404485D01*
X23742858Y-23404485D02*
X23800000Y-23461628D01*
X23800000Y-23461628D02*
X23857143Y-23575914D01*
X23857143Y-23575914D02*
X23857143Y-23690200D01*
X23857143Y-23690200D02*
X23800000Y-23861628D01*
X23800000Y-23861628D02*
X23114286Y-24547342D01*
X23114286Y-24547342D02*
X23857143Y-24547342D01*
X25285715Y-24090200D02*
X26200001Y-24090200D01*
X27571429Y-23347342D02*
X28371429Y-23347342D01*
X28371429Y-23347342D02*
X27857143Y-24547342D01*
X29057143Y-23347342D02*
X29171429Y-23347342D01*
X29171429Y-23347342D02*
X29285715Y-23404485D01*
X29285715Y-23404485D02*
X29342858Y-23461628D01*
X29342858Y-23461628D02*
X29400000Y-23575914D01*
X29400000Y-23575914D02*
X29457143Y-23804485D01*
X29457143Y-23804485D02*
X29457143Y-24090200D01*
X29457143Y-24090200D02*
X29400000Y-24318771D01*
X29400000Y-24318771D02*
X29342858Y-24433057D01*
X29342858Y-24433057D02*
X29285715Y-24490200D01*
X29285715Y-24490200D02*
X29171429Y-24547342D01*
X29171429Y-24547342D02*
X29057143Y-24547342D01*
X29057143Y-24547342D02*
X28942858Y-24490200D01*
X28942858Y-24490200D02*
X28885715Y-24433057D01*
X28885715Y-24433057D02*
X28828572Y-24318771D01*
X28828572Y-24318771D02*
X28771429Y-24090200D01*
X28771429Y-24090200D02*
X28771429Y-23804485D01*
X28771429Y-23804485D02*
X28828572Y-23575914D01*
X28828572Y-23575914D02*
X28885715Y-23461628D01*
X28885715Y-23461628D02*
X28942858Y-23404485D01*
X28942858Y-23404485D02*
X29057143Y-23347342D01*
X29971429Y-24090200D02*
X30885715Y-24090200D01*
X31457143Y-24547342D02*
X31457143Y-23347342D01*
X31571429Y-24090200D02*
X31914286Y-24547342D01*
X31914286Y-23747342D02*
X31457143Y-24204485D01*
X32885715Y-24490200D02*
X32771429Y-24547342D01*
X32771429Y-24547342D02*
X32542858Y-24547342D01*
X32542858Y-24547342D02*
X32428572Y-24490200D01*
X32428572Y-24490200D02*
X32371429Y-24375914D01*
X32371429Y-24375914D02*
X32371429Y-23918771D01*
X32371429Y-23918771D02*
X32428572Y-23804485D01*
X32428572Y-23804485D02*
X32542858Y-23747342D01*
X32542858Y-23747342D02*
X32771429Y-23747342D01*
X32771429Y-23747342D02*
X32885715Y-23804485D01*
X32885715Y-23804485D02*
X32942858Y-23918771D01*
X32942858Y-23918771D02*
X32942858Y-24033057D01*
X32942858Y-24033057D02*
X32371429Y-24147342D01*
X33342857Y-23747342D02*
X33628571Y-24547342D01*
X33914286Y-23747342D02*
X33628571Y-24547342D01*
X33628571Y-24547342D02*
X33514286Y-24833057D01*
X33514286Y-24833057D02*
X33457143Y-24890200D01*
X33457143Y-24890200D02*
X33342857Y-24947342D01*
X35171429Y-23747342D02*
X35457143Y-24547342D01*
X35457143Y-24547342D02*
X35742858Y-23747342D01*
X36771429Y-23347342D02*
X36200001Y-23347342D01*
X36200001Y-23347342D02*
X36142858Y-23918771D01*
X36142858Y-23918771D02*
X36200001Y-23861628D01*
X36200001Y-23861628D02*
X36314287Y-23804485D01*
X36314287Y-23804485D02*
X36600001Y-23804485D01*
X36600001Y-23804485D02*
X36714287Y-23861628D01*
X36714287Y-23861628D02*
X36771429Y-23918771D01*
X36771429Y-23918771D02*
X36828572Y-24033057D01*
X36828572Y-24033057D02*
X36828572Y-24318771D01*
X36828572Y-24318771D02*
X36771429Y-24433057D01*
X36771429Y-24433057D02*
X36714287Y-24490200D01*
X36714287Y-24490200D02*
X36600001Y-24547342D01*
X36600001Y-24547342D02*
X36314287Y-24547342D01*
X36314287Y-24547342D02*
X36200001Y-24490200D01*
X36200001Y-24490200D02*
X36142858Y-24433057D01*
X38257144Y-23747342D02*
X38257144Y-24547342D01*
X38257144Y-23861628D02*
X38314287Y-23804485D01*
X38314287Y-23804485D02*
X38428572Y-23747342D01*
X38428572Y-23747342D02*
X38600001Y-23747342D01*
X38600001Y-23747342D02*
X38714287Y-23804485D01*
X38714287Y-23804485D02*
X38771430Y-23918771D01*
X38771430Y-23918771D02*
X38771430Y-24547342D01*
X39514286Y-24547342D02*
X39400001Y-24490200D01*
X39400001Y-24490200D02*
X39342858Y-24433057D01*
X39342858Y-24433057D02*
X39285715Y-24318771D01*
X39285715Y-24318771D02*
X39285715Y-23975914D01*
X39285715Y-23975914D02*
X39342858Y-23861628D01*
X39342858Y-23861628D02*
X39400001Y-23804485D01*
X39400001Y-23804485D02*
X39514286Y-23747342D01*
X39514286Y-23747342D02*
X39685715Y-23747342D01*
X39685715Y-23747342D02*
X39800001Y-23804485D01*
X39800001Y-23804485D02*
X39857144Y-23861628D01*
X39857144Y-23861628D02*
X39914286Y-23975914D01*
X39914286Y-23975914D02*
X39914286Y-24318771D01*
X39914286Y-24318771D02*
X39857144Y-24433057D01*
X39857144Y-24433057D02*
X39800001Y-24490200D01*
X39800001Y-24490200D02*
X39685715Y-24547342D01*
X39685715Y-24547342D02*
X39514286Y-24547342D01*
X40428572Y-24090200D02*
X41342858Y-24090200D01*
X41857143Y-24490200D02*
X41971429Y-24547342D01*
X41971429Y-24547342D02*
X42200000Y-24547342D01*
X42200000Y-24547342D02*
X42314286Y-24490200D01*
X42314286Y-24490200D02*
X42371429Y-24375914D01*
X42371429Y-24375914D02*
X42371429Y-24318771D01*
X42371429Y-24318771D02*
X42314286Y-24204485D01*
X42314286Y-24204485D02*
X42200000Y-24147342D01*
X42200000Y-24147342D02*
X42028572Y-24147342D01*
X42028572Y-24147342D02*
X41914286Y-24090200D01*
X41914286Y-24090200D02*
X41857143Y-23975914D01*
X41857143Y-23975914D02*
X41857143Y-23918771D01*
X41857143Y-23918771D02*
X41914286Y-23804485D01*
X41914286Y-23804485D02*
X42028572Y-23747342D01*
X42028572Y-23747342D02*
X42200000Y-23747342D01*
X42200000Y-23747342D02*
X42314286Y-23804485D01*
X42714286Y-23747342D02*
X43171429Y-23747342D01*
X42885715Y-23347342D02*
X42885715Y-24375914D01*
X42885715Y-24375914D02*
X42942858Y-24490200D01*
X42942858Y-24490200D02*
X43057143Y-24547342D01*
X43057143Y-24547342D02*
X43171429Y-24547342D01*
X44085715Y-24547342D02*
X44085715Y-23918771D01*
X44085715Y-23918771D02*
X44028572Y-23804485D01*
X44028572Y-23804485D02*
X43914286Y-23747342D01*
X43914286Y-23747342D02*
X43685715Y-23747342D01*
X43685715Y-23747342D02*
X43571429Y-23804485D01*
X44085715Y-24490200D02*
X43971429Y-24547342D01*
X43971429Y-24547342D02*
X43685715Y-24547342D01*
X43685715Y-24547342D02*
X43571429Y-24490200D01*
X43571429Y-24490200D02*
X43514286Y-24375914D01*
X43514286Y-24375914D02*
X43514286Y-24261628D01*
X43514286Y-24261628D02*
X43571429Y-24147342D01*
X43571429Y-24147342D02*
X43685715Y-24090200D01*
X43685715Y-24090200D02*
X43971429Y-24090200D01*
X43971429Y-24090200D02*
X44085715Y-24033057D01*
X44657143Y-24547342D02*
X44657143Y-23347342D01*
X44657143Y-23804485D02*
X44771429Y-23747342D01*
X44771429Y-23747342D02*
X45000000Y-23747342D01*
X45000000Y-23747342D02*
X45114286Y-23804485D01*
X45114286Y-23804485D02*
X45171429Y-23861628D01*
X45171429Y-23861628D02*
X45228571Y-23975914D01*
X45228571Y-23975914D02*
X45228571Y-24318771D01*
X45228571Y-24318771D02*
X45171429Y-24433057D01*
X45171429Y-24433057D02*
X45114286Y-24490200D01*
X45114286Y-24490200D02*
X45000000Y-24547342D01*
X45000000Y-24547342D02*
X44771429Y-24547342D01*
X44771429Y-24547342D02*
X44657143Y-24490200D01*
X45742857Y-24547342D02*
X45742857Y-23747342D01*
X45742857Y-23347342D02*
X45685714Y-23404485D01*
X45685714Y-23404485D02*
X45742857Y-23461628D01*
X45742857Y-23461628D02*
X45800000Y-23404485D01*
X45800000Y-23404485D02*
X45742857Y-23347342D01*
X45742857Y-23347342D02*
X45742857Y-23461628D01*
X46485714Y-24547342D02*
X46371429Y-24490200D01*
X46371429Y-24490200D02*
X46314286Y-24375914D01*
X46314286Y-24375914D02*
X46314286Y-23347342D01*
X46942857Y-24547342D02*
X46942857Y-23747342D01*
X46942857Y-23347342D02*
X46885714Y-23404485D01*
X46885714Y-23404485D02*
X46942857Y-23461628D01*
X46942857Y-23461628D02*
X47000000Y-23404485D01*
X47000000Y-23404485D02*
X46942857Y-23347342D01*
X46942857Y-23347342D02*
X46942857Y-23461628D01*
X47400000Y-23747342D02*
X48028572Y-23747342D01*
X48028572Y-23747342D02*
X47400000Y-24547342D01*
X47400000Y-24547342D02*
X48028572Y-24547342D01*
X48942858Y-24490200D02*
X48828572Y-24547342D01*
X48828572Y-24547342D02*
X48600001Y-24547342D01*
X48600001Y-24547342D02*
X48485715Y-24490200D01*
X48485715Y-24490200D02*
X48428572Y-24375914D01*
X48428572Y-24375914D02*
X48428572Y-23918771D01*
X48428572Y-23918771D02*
X48485715Y-23804485D01*
X48485715Y-23804485D02*
X48600001Y-23747342D01*
X48600001Y-23747342D02*
X48828572Y-23747342D01*
X48828572Y-23747342D02*
X48942858Y-23804485D01*
X48942858Y-23804485D02*
X49000001Y-23918771D01*
X49000001Y-23918771D02*
X49000001Y-24033057D01*
X49000001Y-24033057D02*
X48428572Y-24147342D01*
X49514286Y-24547342D02*
X49514286Y-23747342D01*
X49514286Y-23975914D02*
X49571429Y-23861628D01*
X49571429Y-23861628D02*
X49628572Y-23804485D01*
X49628572Y-23804485D02*
X49742857Y-23747342D01*
X49742857Y-23747342D02*
X49857143Y-23747342D01*
X51114286Y-24490200D02*
X51228572Y-24547342D01*
X51228572Y-24547342D02*
X51457143Y-24547342D01*
X51457143Y-24547342D02*
X51571429Y-24490200D01*
X51571429Y-24490200D02*
X51628572Y-24375914D01*
X51628572Y-24375914D02*
X51628572Y-24318771D01*
X51628572Y-24318771D02*
X51571429Y-24204485D01*
X51571429Y-24204485D02*
X51457143Y-24147342D01*
X51457143Y-24147342D02*
X51285715Y-24147342D01*
X51285715Y-24147342D02*
X51171429Y-24090200D01*
X51171429Y-24090200D02*
X51114286Y-23975914D01*
X51114286Y-23975914D02*
X51114286Y-23918771D01*
X51114286Y-23918771D02*
X51171429Y-23804485D01*
X51171429Y-23804485D02*
X51285715Y-23747342D01*
X51285715Y-23747342D02*
X51457143Y-23747342D01*
X51457143Y-23747342D02*
X51571429Y-23804485D01*
X52142858Y-23747342D02*
X52142858Y-24947342D01*
X52142858Y-23804485D02*
X52257144Y-23747342D01*
X52257144Y-23747342D02*
X52485715Y-23747342D01*
X52485715Y-23747342D02*
X52600001Y-23804485D01*
X52600001Y-23804485D02*
X52657144Y-23861628D01*
X52657144Y-23861628D02*
X52714286Y-23975914D01*
X52714286Y-23975914D02*
X52714286Y-24318771D01*
X52714286Y-24318771D02*
X52657144Y-24433057D01*
X52657144Y-24433057D02*
X52600001Y-24490200D01*
X52600001Y-24490200D02*
X52485715Y-24547342D01*
X52485715Y-24547342D02*
X52257144Y-24547342D01*
X52257144Y-24547342D02*
X52142858Y-24490200D01*
X53400000Y-24547342D02*
X53285715Y-24490200D01*
X53285715Y-24490200D02*
X53228572Y-24375914D01*
X53228572Y-24375914D02*
X53228572Y-23347342D01*
X53857143Y-24547342D02*
X53857143Y-23747342D01*
X53857143Y-23347342D02*
X53800000Y-23404485D01*
X53800000Y-23404485D02*
X53857143Y-23461628D01*
X53857143Y-23461628D02*
X53914286Y-23404485D01*
X53914286Y-23404485D02*
X53857143Y-23347342D01*
X53857143Y-23347342D02*
X53857143Y-23461628D01*
X54257143Y-23747342D02*
X54714286Y-23747342D01*
X54428572Y-23347342D02*
X54428572Y-24375914D01*
X54428572Y-24375914D02*
X54485715Y-24490200D01*
X54485715Y-24490200D02*
X54600000Y-24547342D01*
X54600000Y-24547342D02*
X54714286Y-24547342D01*
X56200000Y-24547342D02*
X56085715Y-24490200D01*
X56085715Y-24490200D02*
X56028572Y-24375914D01*
X56028572Y-24375914D02*
X56028572Y-23347342D01*
X57171429Y-24547342D02*
X57171429Y-23918771D01*
X57171429Y-23918771D02*
X57114286Y-23804485D01*
X57114286Y-23804485D02*
X57000000Y-23747342D01*
X57000000Y-23747342D02*
X56771429Y-23747342D01*
X56771429Y-23747342D02*
X56657143Y-23804485D01*
X57171429Y-24490200D02*
X57057143Y-24547342D01*
X57057143Y-24547342D02*
X56771429Y-24547342D01*
X56771429Y-24547342D02*
X56657143Y-24490200D01*
X56657143Y-24490200D02*
X56600000Y-24375914D01*
X56600000Y-24375914D02*
X56600000Y-24261628D01*
X56600000Y-24261628D02*
X56657143Y-24147342D01*
X56657143Y-24147342D02*
X56771429Y-24090200D01*
X56771429Y-24090200D02*
X57057143Y-24090200D01*
X57057143Y-24090200D02*
X57171429Y-24033057D01*
X57628571Y-23747342D02*
X57914285Y-24547342D01*
X58200000Y-23747342D02*
X57914285Y-24547342D01*
X57914285Y-24547342D02*
X57800000Y-24833057D01*
X57800000Y-24833057D02*
X57742857Y-24890200D01*
X57742857Y-24890200D02*
X57628571Y-24947342D01*
X58828571Y-24547342D02*
X58714286Y-24490200D01*
X58714286Y-24490200D02*
X58657143Y-24433057D01*
X58657143Y-24433057D02*
X58600000Y-24318771D01*
X58600000Y-24318771D02*
X58600000Y-23975914D01*
X58600000Y-23975914D02*
X58657143Y-23861628D01*
X58657143Y-23861628D02*
X58714286Y-23804485D01*
X58714286Y-23804485D02*
X58828571Y-23747342D01*
X58828571Y-23747342D02*
X59000000Y-23747342D01*
X59000000Y-23747342D02*
X59114286Y-23804485D01*
X59114286Y-23804485D02*
X59171429Y-23861628D01*
X59171429Y-23861628D02*
X59228571Y-23975914D01*
X59228571Y-23975914D02*
X59228571Y-24318771D01*
X59228571Y-24318771D02*
X59171429Y-24433057D01*
X59171429Y-24433057D02*
X59114286Y-24490200D01*
X59114286Y-24490200D02*
X59000000Y-24547342D01*
X59000000Y-24547342D02*
X58828571Y-24547342D01*
X60257143Y-23747342D02*
X60257143Y-24547342D01*
X59742857Y-23747342D02*
X59742857Y-24375914D01*
X59742857Y-24375914D02*
X59800000Y-24490200D01*
X59800000Y-24490200D02*
X59914285Y-24547342D01*
X59914285Y-24547342D02*
X60085714Y-24547342D01*
X60085714Y-24547342D02*
X60200000Y-24490200D01*
X60200000Y-24490200D02*
X60257143Y-24433057D01*
X60657142Y-23747342D02*
X61114285Y-23747342D01*
X60828571Y-23347342D02*
X60828571Y-24375914D01*
X60828571Y-24375914D02*
X60885714Y-24490200D01*
X60885714Y-24490200D02*
X60999999Y-24547342D01*
X60999999Y-24547342D02*
X61114285Y-24547342D01*
D11*
X131744880Y-48309271D02*
X131744880Y-49337366D01*
X131744880Y-49337366D02*
X131805357Y-49458318D01*
X131805357Y-49458318D02*
X131865833Y-49518795D01*
X131865833Y-49518795D02*
X131986785Y-49579271D01*
X131986785Y-49579271D02*
X132228690Y-49579271D01*
X132228690Y-49579271D02*
X132349642Y-49518795D01*
X132349642Y-49518795D02*
X132410119Y-49458318D01*
X132410119Y-49458318D02*
X132470595Y-49337366D01*
X132470595Y-49337366D02*
X132470595Y-48309271D01*
X133740595Y-49579271D02*
X133014880Y-49579271D01*
X133377737Y-49579271D02*
X133377737Y-48309271D01*
X133377737Y-48309271D02*
X133256785Y-48490699D01*
X133256785Y-48490699D02*
X133135833Y-48611652D01*
X133135833Y-48611652D02*
X133014880Y-48672128D01*
D12*
X118190119Y-43844895D02*
X117923452Y-43463942D01*
X117732976Y-43844895D02*
X117732976Y-43044895D01*
X117732976Y-43044895D02*
X118037738Y-43044895D01*
X118037738Y-43044895D02*
X118113928Y-43082990D01*
X118113928Y-43082990D02*
X118152023Y-43121085D01*
X118152023Y-43121085D02*
X118190119Y-43197276D01*
X118190119Y-43197276D02*
X118190119Y-43311561D01*
X118190119Y-43311561D02*
X118152023Y-43387752D01*
X118152023Y-43387752D02*
X118113928Y-43425847D01*
X118113928Y-43425847D02*
X118037738Y-43463942D01*
X118037738Y-43463942D02*
X117732976Y-43463942D01*
X118494880Y-43616323D02*
X118875833Y-43616323D01*
X118418690Y-43844895D02*
X118685357Y-43044895D01*
X118685357Y-43044895D02*
X118952023Y-43844895D01*
X119142499Y-43044895D02*
X119332975Y-43844895D01*
X119332975Y-43844895D02*
X119485356Y-43273466D01*
X119485356Y-43273466D02*
X119637737Y-43844895D01*
X119637737Y-43844895D02*
X119828214Y-43044895D01*
X118152024Y-54884894D02*
X118152024Y-54084894D01*
X118152024Y-54084894D02*
X118342500Y-54084894D01*
X118342500Y-54084894D02*
X118456786Y-54122989D01*
X118456786Y-54122989D02*
X118532976Y-54199179D01*
X118532976Y-54199179D02*
X118571071Y-54275370D01*
X118571071Y-54275370D02*
X118609167Y-54427751D01*
X118609167Y-54427751D02*
X118609167Y-54542037D01*
X118609167Y-54542037D02*
X118571071Y-54694418D01*
X118571071Y-54694418D02*
X118532976Y-54770608D01*
X118532976Y-54770608D02*
X118456786Y-54846799D01*
X118456786Y-54846799D02*
X118342500Y-54884894D01*
X118342500Y-54884894D02*
X118152024Y-54884894D01*
X119371071Y-54884894D02*
X118913928Y-54884894D01*
X119142500Y-54884894D02*
X119142500Y-54084894D01*
X119142500Y-54084894D02*
X119066309Y-54199179D01*
X119066309Y-54199179D02*
X118990119Y-54275370D01*
X118990119Y-54275370D02*
X118913928Y-54313465D01*
X121492023Y-43082990D02*
X121415833Y-43044895D01*
X121415833Y-43044895D02*
X121301547Y-43044895D01*
X121301547Y-43044895D02*
X121187261Y-43082990D01*
X121187261Y-43082990D02*
X121111071Y-43159180D01*
X121111071Y-43159180D02*
X121072976Y-43235371D01*
X121072976Y-43235371D02*
X121034880Y-43387752D01*
X121034880Y-43387752D02*
X121034880Y-43502038D01*
X121034880Y-43502038D02*
X121072976Y-43654419D01*
X121072976Y-43654419D02*
X121111071Y-43730609D01*
X121111071Y-43730609D02*
X121187261Y-43806800D01*
X121187261Y-43806800D02*
X121301547Y-43844895D01*
X121301547Y-43844895D02*
X121377738Y-43844895D01*
X121377738Y-43844895D02*
X121492023Y-43806800D01*
X121492023Y-43806800D02*
X121530119Y-43768704D01*
X121530119Y-43768704D02*
X121530119Y-43502038D01*
X121530119Y-43502038D02*
X121377738Y-43502038D01*
X120692024Y-54884894D02*
X120692024Y-54084894D01*
X120692024Y-54084894D02*
X120882500Y-54084894D01*
X120882500Y-54084894D02*
X120996786Y-54122989D01*
X120996786Y-54122989D02*
X121072976Y-54199179D01*
X121072976Y-54199179D02*
X121111071Y-54275370D01*
X121111071Y-54275370D02*
X121149167Y-54427751D01*
X121149167Y-54427751D02*
X121149167Y-54542037D01*
X121149167Y-54542037D02*
X121111071Y-54694418D01*
X121111071Y-54694418D02*
X121072976Y-54770608D01*
X121072976Y-54770608D02*
X120996786Y-54846799D01*
X120996786Y-54846799D02*
X120882500Y-54884894D01*
X120882500Y-54884894D02*
X120692024Y-54884894D01*
X121644405Y-54084894D02*
X121720595Y-54084894D01*
X121720595Y-54084894D02*
X121796786Y-54122989D01*
X121796786Y-54122989D02*
X121834881Y-54161084D01*
X121834881Y-54161084D02*
X121872976Y-54237275D01*
X121872976Y-54237275D02*
X121911071Y-54389656D01*
X121911071Y-54389656D02*
X121911071Y-54580132D01*
X121911071Y-54580132D02*
X121872976Y-54732513D01*
X121872976Y-54732513D02*
X121834881Y-54808703D01*
X121834881Y-54808703D02*
X121796786Y-54846799D01*
X121796786Y-54846799D02*
X121720595Y-54884894D01*
X121720595Y-54884894D02*
X121644405Y-54884894D01*
X121644405Y-54884894D02*
X121568214Y-54846799D01*
X121568214Y-54846799D02*
X121530119Y-54808703D01*
X121530119Y-54808703D02*
X121492024Y-54732513D01*
X121492024Y-54732513D02*
X121453928Y-54580132D01*
X121453928Y-54580132D02*
X121453928Y-54389656D01*
X121453928Y-54389656D02*
X121492024Y-54237275D01*
X121492024Y-54237275D02*
X121530119Y-54161084D01*
X121530119Y-54161084D02*
X121568214Y-54122989D01*
X121568214Y-54122989D02*
X121644405Y-54084894D01*
X123384405Y-43844895D02*
X123117738Y-43463942D01*
X122927262Y-43844895D02*
X122927262Y-43044895D01*
X122927262Y-43044895D02*
X123232024Y-43044895D01*
X123232024Y-43044895D02*
X123308214Y-43082990D01*
X123308214Y-43082990D02*
X123346309Y-43121085D01*
X123346309Y-43121085D02*
X123384405Y-43197276D01*
X123384405Y-43197276D02*
X123384405Y-43311561D01*
X123384405Y-43311561D02*
X123346309Y-43387752D01*
X123346309Y-43387752D02*
X123308214Y-43425847D01*
X123308214Y-43425847D02*
X123232024Y-43463942D01*
X123232024Y-43463942D02*
X122927262Y-43463942D01*
X123689166Y-43806800D02*
X123803452Y-43844895D01*
X123803452Y-43844895D02*
X123993928Y-43844895D01*
X123993928Y-43844895D02*
X124070119Y-43806800D01*
X124070119Y-43806800D02*
X124108214Y-43768704D01*
X124108214Y-43768704D02*
X124146309Y-43692514D01*
X124146309Y-43692514D02*
X124146309Y-43616323D01*
X124146309Y-43616323D02*
X124108214Y-43540133D01*
X124108214Y-43540133D02*
X124070119Y-43502038D01*
X124070119Y-43502038D02*
X123993928Y-43463942D01*
X123993928Y-43463942D02*
X123841547Y-43425847D01*
X123841547Y-43425847D02*
X123765357Y-43387752D01*
X123765357Y-43387752D02*
X123727262Y-43349657D01*
X123727262Y-43349657D02*
X123689166Y-43273466D01*
X123689166Y-43273466D02*
X123689166Y-43197276D01*
X123689166Y-43197276D02*
X123727262Y-43121085D01*
X123727262Y-43121085D02*
X123765357Y-43082990D01*
X123765357Y-43082990D02*
X123841547Y-43044895D01*
X123841547Y-43044895D02*
X124032024Y-43044895D01*
X124032024Y-43044895D02*
X124146309Y-43082990D01*
X124374881Y-43044895D02*
X124832024Y-43044895D01*
X124603452Y-43844895D02*
X124603452Y-43044895D01*
X124032023Y-54122989D02*
X123955833Y-54084894D01*
X123955833Y-54084894D02*
X123841547Y-54084894D01*
X123841547Y-54084894D02*
X123727261Y-54122989D01*
X123727261Y-54122989D02*
X123651071Y-54199179D01*
X123651071Y-54199179D02*
X123612976Y-54275370D01*
X123612976Y-54275370D02*
X123574880Y-54427751D01*
X123574880Y-54427751D02*
X123574880Y-54542037D01*
X123574880Y-54542037D02*
X123612976Y-54694418D01*
X123612976Y-54694418D02*
X123651071Y-54770608D01*
X123651071Y-54770608D02*
X123727261Y-54846799D01*
X123727261Y-54846799D02*
X123841547Y-54884894D01*
X123841547Y-54884894D02*
X123917738Y-54884894D01*
X123917738Y-54884894D02*
X124032023Y-54846799D01*
X124032023Y-54846799D02*
X124070119Y-54808703D01*
X124070119Y-54808703D02*
X124070119Y-54542037D01*
X124070119Y-54542037D02*
X123917738Y-54542037D01*
X125295833Y-43044895D02*
X125562500Y-43844895D01*
X125562500Y-43844895D02*
X125829166Y-43044895D01*
X126552976Y-43768704D02*
X126514880Y-43806800D01*
X126514880Y-43806800D02*
X126400595Y-43844895D01*
X126400595Y-43844895D02*
X126324404Y-43844895D01*
X126324404Y-43844895D02*
X126210118Y-43806800D01*
X126210118Y-43806800D02*
X126133928Y-43730609D01*
X126133928Y-43730609D02*
X126095833Y-43654419D01*
X126095833Y-43654419D02*
X126057737Y-43502038D01*
X126057737Y-43502038D02*
X126057737Y-43387752D01*
X126057737Y-43387752D02*
X126095833Y-43235371D01*
X126095833Y-43235371D02*
X126133928Y-43159180D01*
X126133928Y-43159180D02*
X126210118Y-43082990D01*
X126210118Y-43082990D02*
X126324404Y-43044895D01*
X126324404Y-43044895D02*
X126400595Y-43044895D01*
X126400595Y-43044895D02*
X126514880Y-43082990D01*
X126514880Y-43082990D02*
X126552976Y-43121085D01*
X127352976Y-43768704D02*
X127314880Y-43806800D01*
X127314880Y-43806800D02*
X127200595Y-43844895D01*
X127200595Y-43844895D02*
X127124404Y-43844895D01*
X127124404Y-43844895D02*
X127010118Y-43806800D01*
X127010118Y-43806800D02*
X126933928Y-43730609D01*
X126933928Y-43730609D02*
X126895833Y-43654419D01*
X126895833Y-43654419D02*
X126857737Y-43502038D01*
X126857737Y-43502038D02*
X126857737Y-43387752D01*
X126857737Y-43387752D02*
X126895833Y-43235371D01*
X126895833Y-43235371D02*
X126933928Y-43159180D01*
X126933928Y-43159180D02*
X127010118Y-43082990D01*
X127010118Y-43082990D02*
X127124404Y-43044895D01*
X127124404Y-43044895D02*
X127200595Y-43044895D01*
X127200595Y-43044895D02*
X127314880Y-43082990D01*
X127314880Y-43082990D02*
X127352976Y-43121085D01*
X126572023Y-54122989D02*
X126495833Y-54084894D01*
X126495833Y-54084894D02*
X126381547Y-54084894D01*
X126381547Y-54084894D02*
X126267261Y-54122989D01*
X126267261Y-54122989D02*
X126191071Y-54199179D01*
X126191071Y-54199179D02*
X126152976Y-54275370D01*
X126152976Y-54275370D02*
X126114880Y-54427751D01*
X126114880Y-54427751D02*
X126114880Y-54542037D01*
X126114880Y-54542037D02*
X126152976Y-54694418D01*
X126152976Y-54694418D02*
X126191071Y-54770608D01*
X126191071Y-54770608D02*
X126267261Y-54846799D01*
X126267261Y-54846799D02*
X126381547Y-54884894D01*
X126381547Y-54884894D02*
X126457738Y-54884894D01*
X126457738Y-54884894D02*
X126572023Y-54846799D01*
X126572023Y-54846799D02*
X126610119Y-54808703D01*
X126610119Y-54808703D02*
X126610119Y-54542037D01*
X126610119Y-54542037D02*
X126457738Y-54542037D01*
X127931071Y-43844895D02*
X127931071Y-43044895D01*
X127931071Y-43044895D02*
X128121547Y-43044895D01*
X128121547Y-43044895D02*
X128235833Y-43082990D01*
X128235833Y-43082990D02*
X128312023Y-43159180D01*
X128312023Y-43159180D02*
X128350118Y-43235371D01*
X128350118Y-43235371D02*
X128388214Y-43387752D01*
X128388214Y-43387752D02*
X128388214Y-43502038D01*
X128388214Y-43502038D02*
X128350118Y-43654419D01*
X128350118Y-43654419D02*
X128312023Y-43730609D01*
X128312023Y-43730609D02*
X128235833Y-43806800D01*
X128235833Y-43806800D02*
X128121547Y-43844895D01*
X128121547Y-43844895D02*
X127931071Y-43844895D01*
X128692975Y-43121085D02*
X128731071Y-43082990D01*
X128731071Y-43082990D02*
X128807261Y-43044895D01*
X128807261Y-43044895D02*
X128997737Y-43044895D01*
X128997737Y-43044895D02*
X129073928Y-43082990D01*
X129073928Y-43082990D02*
X129112023Y-43121085D01*
X129112023Y-43121085D02*
X129150118Y-43197276D01*
X129150118Y-43197276D02*
X129150118Y-43273466D01*
X129150118Y-43273466D02*
X129112023Y-43387752D01*
X129112023Y-43387752D02*
X128654880Y-43844895D01*
X128654880Y-43844895D02*
X129150118Y-43844895D01*
X129912023Y-43844895D02*
X129454880Y-43844895D01*
X129683452Y-43844895D02*
X129683452Y-43044895D01*
X129683452Y-43044895D02*
X129607261Y-43159180D01*
X129607261Y-43159180D02*
X129531071Y-43235371D01*
X129531071Y-43235371D02*
X129454880Y-43273466D01*
X128312024Y-54884894D02*
X128312024Y-54084894D01*
X128312024Y-54084894D02*
X128502500Y-54084894D01*
X128502500Y-54084894D02*
X128616786Y-54122989D01*
X128616786Y-54122989D02*
X128692976Y-54199179D01*
X128692976Y-54199179D02*
X128731071Y-54275370D01*
X128731071Y-54275370D02*
X128769167Y-54427751D01*
X128769167Y-54427751D02*
X128769167Y-54542037D01*
X128769167Y-54542037D02*
X128731071Y-54694418D01*
X128731071Y-54694418D02*
X128692976Y-54770608D01*
X128692976Y-54770608D02*
X128616786Y-54846799D01*
X128616786Y-54846799D02*
X128502500Y-54884894D01*
X128502500Y-54884894D02*
X128312024Y-54884894D01*
X129073928Y-54161084D02*
X129112024Y-54122989D01*
X129112024Y-54122989D02*
X129188214Y-54084894D01*
X129188214Y-54084894D02*
X129378690Y-54084894D01*
X129378690Y-54084894D02*
X129454881Y-54122989D01*
X129454881Y-54122989D02*
X129492976Y-54161084D01*
X129492976Y-54161084D02*
X129531071Y-54237275D01*
X129531071Y-54237275D02*
X129531071Y-54313465D01*
X129531071Y-54313465D02*
X129492976Y-54427751D01*
X129492976Y-54427751D02*
X129035833Y-54884894D01*
X129035833Y-54884894D02*
X129531071Y-54884894D01*
X130471071Y-43844895D02*
X130471071Y-43044895D01*
X130471071Y-43044895D02*
X130661547Y-43044895D01*
X130661547Y-43044895D02*
X130775833Y-43082990D01*
X130775833Y-43082990D02*
X130852023Y-43159180D01*
X130852023Y-43159180D02*
X130890118Y-43235371D01*
X130890118Y-43235371D02*
X130928214Y-43387752D01*
X130928214Y-43387752D02*
X130928214Y-43502038D01*
X130928214Y-43502038D02*
X130890118Y-43654419D01*
X130890118Y-43654419D02*
X130852023Y-43730609D01*
X130852023Y-43730609D02*
X130775833Y-43806800D01*
X130775833Y-43806800D02*
X130661547Y-43844895D01*
X130661547Y-43844895D02*
X130471071Y-43844895D01*
X131232975Y-43121085D02*
X131271071Y-43082990D01*
X131271071Y-43082990D02*
X131347261Y-43044895D01*
X131347261Y-43044895D02*
X131537737Y-43044895D01*
X131537737Y-43044895D02*
X131613928Y-43082990D01*
X131613928Y-43082990D02*
X131652023Y-43121085D01*
X131652023Y-43121085D02*
X131690118Y-43197276D01*
X131690118Y-43197276D02*
X131690118Y-43273466D01*
X131690118Y-43273466D02*
X131652023Y-43387752D01*
X131652023Y-43387752D02*
X131194880Y-43844895D01*
X131194880Y-43844895D02*
X131690118Y-43844895D01*
X132185357Y-43044895D02*
X132261547Y-43044895D01*
X132261547Y-43044895D02*
X132337738Y-43082990D01*
X132337738Y-43082990D02*
X132375833Y-43121085D01*
X132375833Y-43121085D02*
X132413928Y-43197276D01*
X132413928Y-43197276D02*
X132452023Y-43349657D01*
X132452023Y-43349657D02*
X132452023Y-43540133D01*
X132452023Y-43540133D02*
X132413928Y-43692514D01*
X132413928Y-43692514D02*
X132375833Y-43768704D01*
X132375833Y-43768704D02*
X132337738Y-43806800D01*
X132337738Y-43806800D02*
X132261547Y-43844895D01*
X132261547Y-43844895D02*
X132185357Y-43844895D01*
X132185357Y-43844895D02*
X132109166Y-43806800D01*
X132109166Y-43806800D02*
X132071071Y-43768704D01*
X132071071Y-43768704D02*
X132032976Y-43692514D01*
X132032976Y-43692514D02*
X131994880Y-43540133D01*
X131994880Y-43540133D02*
X131994880Y-43349657D01*
X131994880Y-43349657D02*
X132032976Y-43197276D01*
X132032976Y-43197276D02*
X132071071Y-43121085D01*
X132071071Y-43121085D02*
X132109166Y-43082990D01*
X132109166Y-43082990D02*
X132185357Y-43044895D01*
X130852024Y-54884894D02*
X130852024Y-54084894D01*
X130852024Y-54084894D02*
X131042500Y-54084894D01*
X131042500Y-54084894D02*
X131156786Y-54122989D01*
X131156786Y-54122989D02*
X131232976Y-54199179D01*
X131232976Y-54199179D02*
X131271071Y-54275370D01*
X131271071Y-54275370D02*
X131309167Y-54427751D01*
X131309167Y-54427751D02*
X131309167Y-54542037D01*
X131309167Y-54542037D02*
X131271071Y-54694418D01*
X131271071Y-54694418D02*
X131232976Y-54770608D01*
X131232976Y-54770608D02*
X131156786Y-54846799D01*
X131156786Y-54846799D02*
X131042500Y-54884894D01*
X131042500Y-54884894D02*
X130852024Y-54884894D01*
X131575833Y-54084894D02*
X132071071Y-54084894D01*
X132071071Y-54084894D02*
X131804405Y-54389656D01*
X131804405Y-54389656D02*
X131918690Y-54389656D01*
X131918690Y-54389656D02*
X131994881Y-54427751D01*
X131994881Y-54427751D02*
X132032976Y-54465846D01*
X132032976Y-54465846D02*
X132071071Y-54542037D01*
X132071071Y-54542037D02*
X132071071Y-54732513D01*
X132071071Y-54732513D02*
X132032976Y-54808703D01*
X132032976Y-54808703D02*
X131994881Y-54846799D01*
X131994881Y-54846799D02*
X131918690Y-54884894D01*
X131918690Y-54884894D02*
X131690119Y-54884894D01*
X131690119Y-54884894D02*
X131613928Y-54846799D01*
X131613928Y-54846799D02*
X131575833Y-54808703D01*
X133011071Y-43844895D02*
X133011071Y-43044895D01*
X133011071Y-43044895D02*
X133201547Y-43044895D01*
X133201547Y-43044895D02*
X133315833Y-43082990D01*
X133315833Y-43082990D02*
X133392023Y-43159180D01*
X133392023Y-43159180D02*
X133430118Y-43235371D01*
X133430118Y-43235371D02*
X133468214Y-43387752D01*
X133468214Y-43387752D02*
X133468214Y-43502038D01*
X133468214Y-43502038D02*
X133430118Y-43654419D01*
X133430118Y-43654419D02*
X133392023Y-43730609D01*
X133392023Y-43730609D02*
X133315833Y-43806800D01*
X133315833Y-43806800D02*
X133201547Y-43844895D01*
X133201547Y-43844895D02*
X133011071Y-43844895D01*
X134230118Y-43844895D02*
X133772975Y-43844895D01*
X134001547Y-43844895D02*
X134001547Y-43044895D01*
X134001547Y-43044895D02*
X133925356Y-43159180D01*
X133925356Y-43159180D02*
X133849166Y-43235371D01*
X133849166Y-43235371D02*
X133772975Y-43273466D01*
X134611071Y-43844895D02*
X134763452Y-43844895D01*
X134763452Y-43844895D02*
X134839642Y-43806800D01*
X134839642Y-43806800D02*
X134877738Y-43768704D01*
X134877738Y-43768704D02*
X134953928Y-43654419D01*
X134953928Y-43654419D02*
X134992023Y-43502038D01*
X134992023Y-43502038D02*
X134992023Y-43197276D01*
X134992023Y-43197276D02*
X134953928Y-43121085D01*
X134953928Y-43121085D02*
X134915833Y-43082990D01*
X134915833Y-43082990D02*
X134839642Y-43044895D01*
X134839642Y-43044895D02*
X134687261Y-43044895D01*
X134687261Y-43044895D02*
X134611071Y-43082990D01*
X134611071Y-43082990D02*
X134572976Y-43121085D01*
X134572976Y-43121085D02*
X134534880Y-43197276D01*
X134534880Y-43197276D02*
X134534880Y-43387752D01*
X134534880Y-43387752D02*
X134572976Y-43463942D01*
X134572976Y-43463942D02*
X134611071Y-43502038D01*
X134611071Y-43502038D02*
X134687261Y-43540133D01*
X134687261Y-43540133D02*
X134839642Y-43540133D01*
X134839642Y-43540133D02*
X134915833Y-43502038D01*
X134915833Y-43502038D02*
X134953928Y-43463942D01*
X134953928Y-43463942D02*
X134992023Y-43387752D01*
X133392024Y-54884894D02*
X133392024Y-54084894D01*
X133392024Y-54084894D02*
X133582500Y-54084894D01*
X133582500Y-54084894D02*
X133696786Y-54122989D01*
X133696786Y-54122989D02*
X133772976Y-54199179D01*
X133772976Y-54199179D02*
X133811071Y-54275370D01*
X133811071Y-54275370D02*
X133849167Y-54427751D01*
X133849167Y-54427751D02*
X133849167Y-54542037D01*
X133849167Y-54542037D02*
X133811071Y-54694418D01*
X133811071Y-54694418D02*
X133772976Y-54770608D01*
X133772976Y-54770608D02*
X133696786Y-54846799D01*
X133696786Y-54846799D02*
X133582500Y-54884894D01*
X133582500Y-54884894D02*
X133392024Y-54884894D01*
X134534881Y-54351560D02*
X134534881Y-54884894D01*
X134344405Y-54046799D02*
X134153928Y-54618227D01*
X134153928Y-54618227D02*
X134649167Y-54618227D01*
X135551071Y-43844895D02*
X135551071Y-43044895D01*
X135551071Y-43044895D02*
X135741547Y-43044895D01*
X135741547Y-43044895D02*
X135855833Y-43082990D01*
X135855833Y-43082990D02*
X135932023Y-43159180D01*
X135932023Y-43159180D02*
X135970118Y-43235371D01*
X135970118Y-43235371D02*
X136008214Y-43387752D01*
X136008214Y-43387752D02*
X136008214Y-43502038D01*
X136008214Y-43502038D02*
X135970118Y-43654419D01*
X135970118Y-43654419D02*
X135932023Y-43730609D01*
X135932023Y-43730609D02*
X135855833Y-43806800D01*
X135855833Y-43806800D02*
X135741547Y-43844895D01*
X135741547Y-43844895D02*
X135551071Y-43844895D01*
X136770118Y-43844895D02*
X136312975Y-43844895D01*
X136541547Y-43844895D02*
X136541547Y-43044895D01*
X136541547Y-43044895D02*
X136465356Y-43159180D01*
X136465356Y-43159180D02*
X136389166Y-43235371D01*
X136389166Y-43235371D02*
X136312975Y-43273466D01*
X137227261Y-43387752D02*
X137151071Y-43349657D01*
X137151071Y-43349657D02*
X137112976Y-43311561D01*
X137112976Y-43311561D02*
X137074880Y-43235371D01*
X137074880Y-43235371D02*
X137074880Y-43197276D01*
X137074880Y-43197276D02*
X137112976Y-43121085D01*
X137112976Y-43121085D02*
X137151071Y-43082990D01*
X137151071Y-43082990D02*
X137227261Y-43044895D01*
X137227261Y-43044895D02*
X137379642Y-43044895D01*
X137379642Y-43044895D02*
X137455833Y-43082990D01*
X137455833Y-43082990D02*
X137493928Y-43121085D01*
X137493928Y-43121085D02*
X137532023Y-43197276D01*
X137532023Y-43197276D02*
X137532023Y-43235371D01*
X137532023Y-43235371D02*
X137493928Y-43311561D01*
X137493928Y-43311561D02*
X137455833Y-43349657D01*
X137455833Y-43349657D02*
X137379642Y-43387752D01*
X137379642Y-43387752D02*
X137227261Y-43387752D01*
X137227261Y-43387752D02*
X137151071Y-43425847D01*
X137151071Y-43425847D02*
X137112976Y-43463942D01*
X137112976Y-43463942D02*
X137074880Y-43540133D01*
X137074880Y-43540133D02*
X137074880Y-43692514D01*
X137074880Y-43692514D02*
X137112976Y-43768704D01*
X137112976Y-43768704D02*
X137151071Y-43806800D01*
X137151071Y-43806800D02*
X137227261Y-43844895D01*
X137227261Y-43844895D02*
X137379642Y-43844895D01*
X137379642Y-43844895D02*
X137455833Y-43806800D01*
X137455833Y-43806800D02*
X137493928Y-43768704D01*
X137493928Y-43768704D02*
X137532023Y-43692514D01*
X137532023Y-43692514D02*
X137532023Y-43540133D01*
X137532023Y-43540133D02*
X137493928Y-43463942D01*
X137493928Y-43463942D02*
X137455833Y-43425847D01*
X137455833Y-43425847D02*
X137379642Y-43387752D01*
X135932024Y-54884894D02*
X135932024Y-54084894D01*
X135932024Y-54084894D02*
X136122500Y-54084894D01*
X136122500Y-54084894D02*
X136236786Y-54122989D01*
X136236786Y-54122989D02*
X136312976Y-54199179D01*
X136312976Y-54199179D02*
X136351071Y-54275370D01*
X136351071Y-54275370D02*
X136389167Y-54427751D01*
X136389167Y-54427751D02*
X136389167Y-54542037D01*
X136389167Y-54542037D02*
X136351071Y-54694418D01*
X136351071Y-54694418D02*
X136312976Y-54770608D01*
X136312976Y-54770608D02*
X136236786Y-54846799D01*
X136236786Y-54846799D02*
X136122500Y-54884894D01*
X136122500Y-54884894D02*
X135932024Y-54884894D01*
X137112976Y-54084894D02*
X136732024Y-54084894D01*
X136732024Y-54084894D02*
X136693928Y-54465846D01*
X136693928Y-54465846D02*
X136732024Y-54427751D01*
X136732024Y-54427751D02*
X136808214Y-54389656D01*
X136808214Y-54389656D02*
X136998690Y-54389656D01*
X136998690Y-54389656D02*
X137074881Y-54427751D01*
X137074881Y-54427751D02*
X137112976Y-54465846D01*
X137112976Y-54465846D02*
X137151071Y-54542037D01*
X137151071Y-54542037D02*
X137151071Y-54732513D01*
X137151071Y-54732513D02*
X137112976Y-54808703D01*
X137112976Y-54808703D02*
X137074881Y-54846799D01*
X137074881Y-54846799D02*
X136998690Y-54884894D01*
X136998690Y-54884894D02*
X136808214Y-54884894D01*
X136808214Y-54884894D02*
X136732024Y-54846799D01*
X136732024Y-54846799D02*
X136693928Y-54808703D01*
X138091071Y-43844895D02*
X138091071Y-43044895D01*
X138091071Y-43044895D02*
X138281547Y-43044895D01*
X138281547Y-43044895D02*
X138395833Y-43082990D01*
X138395833Y-43082990D02*
X138472023Y-43159180D01*
X138472023Y-43159180D02*
X138510118Y-43235371D01*
X138510118Y-43235371D02*
X138548214Y-43387752D01*
X138548214Y-43387752D02*
X138548214Y-43502038D01*
X138548214Y-43502038D02*
X138510118Y-43654419D01*
X138510118Y-43654419D02*
X138472023Y-43730609D01*
X138472023Y-43730609D02*
X138395833Y-43806800D01*
X138395833Y-43806800D02*
X138281547Y-43844895D01*
X138281547Y-43844895D02*
X138091071Y-43844895D01*
X139310118Y-43844895D02*
X138852975Y-43844895D01*
X139081547Y-43844895D02*
X139081547Y-43044895D01*
X139081547Y-43044895D02*
X139005356Y-43159180D01*
X139005356Y-43159180D02*
X138929166Y-43235371D01*
X138929166Y-43235371D02*
X138852975Y-43273466D01*
X140033928Y-43044895D02*
X139652976Y-43044895D01*
X139652976Y-43044895D02*
X139614880Y-43425847D01*
X139614880Y-43425847D02*
X139652976Y-43387752D01*
X139652976Y-43387752D02*
X139729166Y-43349657D01*
X139729166Y-43349657D02*
X139919642Y-43349657D01*
X139919642Y-43349657D02*
X139995833Y-43387752D01*
X139995833Y-43387752D02*
X140033928Y-43425847D01*
X140033928Y-43425847D02*
X140072023Y-43502038D01*
X140072023Y-43502038D02*
X140072023Y-43692514D01*
X140072023Y-43692514D02*
X140033928Y-43768704D01*
X140033928Y-43768704D02*
X139995833Y-43806800D01*
X139995833Y-43806800D02*
X139919642Y-43844895D01*
X139919642Y-43844895D02*
X139729166Y-43844895D01*
X139729166Y-43844895D02*
X139652976Y-43806800D01*
X139652976Y-43806800D02*
X139614880Y-43768704D01*
X138472024Y-54884894D02*
X138472024Y-54084894D01*
X138472024Y-54084894D02*
X138662500Y-54084894D01*
X138662500Y-54084894D02*
X138776786Y-54122989D01*
X138776786Y-54122989D02*
X138852976Y-54199179D01*
X138852976Y-54199179D02*
X138891071Y-54275370D01*
X138891071Y-54275370D02*
X138929167Y-54427751D01*
X138929167Y-54427751D02*
X138929167Y-54542037D01*
X138929167Y-54542037D02*
X138891071Y-54694418D01*
X138891071Y-54694418D02*
X138852976Y-54770608D01*
X138852976Y-54770608D02*
X138776786Y-54846799D01*
X138776786Y-54846799D02*
X138662500Y-54884894D01*
X138662500Y-54884894D02*
X138472024Y-54884894D01*
X139614881Y-54084894D02*
X139462500Y-54084894D01*
X139462500Y-54084894D02*
X139386309Y-54122989D01*
X139386309Y-54122989D02*
X139348214Y-54161084D01*
X139348214Y-54161084D02*
X139272024Y-54275370D01*
X139272024Y-54275370D02*
X139233928Y-54427751D01*
X139233928Y-54427751D02*
X139233928Y-54732513D01*
X139233928Y-54732513D02*
X139272024Y-54808703D01*
X139272024Y-54808703D02*
X139310119Y-54846799D01*
X139310119Y-54846799D02*
X139386309Y-54884894D01*
X139386309Y-54884894D02*
X139538690Y-54884894D01*
X139538690Y-54884894D02*
X139614881Y-54846799D01*
X139614881Y-54846799D02*
X139652976Y-54808703D01*
X139652976Y-54808703D02*
X139691071Y-54732513D01*
X139691071Y-54732513D02*
X139691071Y-54542037D01*
X139691071Y-54542037D02*
X139652976Y-54465846D01*
X139652976Y-54465846D02*
X139614881Y-54427751D01*
X139614881Y-54427751D02*
X139538690Y-54389656D01*
X139538690Y-54389656D02*
X139386309Y-54389656D01*
X139386309Y-54389656D02*
X139310119Y-54427751D01*
X139310119Y-54427751D02*
X139272024Y-54465846D01*
X139272024Y-54465846D02*
X139233928Y-54542037D01*
X140631071Y-43844895D02*
X140631071Y-43044895D01*
X140631071Y-43044895D02*
X140821547Y-43044895D01*
X140821547Y-43044895D02*
X140935833Y-43082990D01*
X140935833Y-43082990D02*
X141012023Y-43159180D01*
X141012023Y-43159180D02*
X141050118Y-43235371D01*
X141050118Y-43235371D02*
X141088214Y-43387752D01*
X141088214Y-43387752D02*
X141088214Y-43502038D01*
X141088214Y-43502038D02*
X141050118Y-43654419D01*
X141050118Y-43654419D02*
X141012023Y-43730609D01*
X141012023Y-43730609D02*
X140935833Y-43806800D01*
X140935833Y-43806800D02*
X140821547Y-43844895D01*
X140821547Y-43844895D02*
X140631071Y-43844895D01*
X141850118Y-43844895D02*
X141392975Y-43844895D01*
X141621547Y-43844895D02*
X141621547Y-43044895D01*
X141621547Y-43044895D02*
X141545356Y-43159180D01*
X141545356Y-43159180D02*
X141469166Y-43235371D01*
X141469166Y-43235371D02*
X141392975Y-43273466D01*
X142535833Y-43311561D02*
X142535833Y-43844895D01*
X142345357Y-43006800D02*
X142154880Y-43578228D01*
X142154880Y-43578228D02*
X142650119Y-43578228D01*
X141012024Y-54884894D02*
X141012024Y-54084894D01*
X141012024Y-54084894D02*
X141202500Y-54084894D01*
X141202500Y-54084894D02*
X141316786Y-54122989D01*
X141316786Y-54122989D02*
X141392976Y-54199179D01*
X141392976Y-54199179D02*
X141431071Y-54275370D01*
X141431071Y-54275370D02*
X141469167Y-54427751D01*
X141469167Y-54427751D02*
X141469167Y-54542037D01*
X141469167Y-54542037D02*
X141431071Y-54694418D01*
X141431071Y-54694418D02*
X141392976Y-54770608D01*
X141392976Y-54770608D02*
X141316786Y-54846799D01*
X141316786Y-54846799D02*
X141202500Y-54884894D01*
X141202500Y-54884894D02*
X141012024Y-54884894D01*
X141735833Y-54084894D02*
X142269167Y-54084894D01*
X142269167Y-54084894D02*
X141926309Y-54884894D01*
X143171071Y-43844895D02*
X143171071Y-43044895D01*
X143171071Y-43044895D02*
X143361547Y-43044895D01*
X143361547Y-43044895D02*
X143475833Y-43082990D01*
X143475833Y-43082990D02*
X143552023Y-43159180D01*
X143552023Y-43159180D02*
X143590118Y-43235371D01*
X143590118Y-43235371D02*
X143628214Y-43387752D01*
X143628214Y-43387752D02*
X143628214Y-43502038D01*
X143628214Y-43502038D02*
X143590118Y-43654419D01*
X143590118Y-43654419D02*
X143552023Y-43730609D01*
X143552023Y-43730609D02*
X143475833Y-43806800D01*
X143475833Y-43806800D02*
X143361547Y-43844895D01*
X143361547Y-43844895D02*
X143171071Y-43844895D01*
X144390118Y-43844895D02*
X143932975Y-43844895D01*
X144161547Y-43844895D02*
X144161547Y-43044895D01*
X144161547Y-43044895D02*
X144085356Y-43159180D01*
X144085356Y-43159180D02*
X144009166Y-43235371D01*
X144009166Y-43235371D02*
X143932975Y-43273466D01*
X145075833Y-43044895D02*
X144923452Y-43044895D01*
X144923452Y-43044895D02*
X144847261Y-43082990D01*
X144847261Y-43082990D02*
X144809166Y-43121085D01*
X144809166Y-43121085D02*
X144732976Y-43235371D01*
X144732976Y-43235371D02*
X144694880Y-43387752D01*
X144694880Y-43387752D02*
X144694880Y-43692514D01*
X144694880Y-43692514D02*
X144732976Y-43768704D01*
X144732976Y-43768704D02*
X144771071Y-43806800D01*
X144771071Y-43806800D02*
X144847261Y-43844895D01*
X144847261Y-43844895D02*
X144999642Y-43844895D01*
X144999642Y-43844895D02*
X145075833Y-43806800D01*
X145075833Y-43806800D02*
X145113928Y-43768704D01*
X145113928Y-43768704D02*
X145152023Y-43692514D01*
X145152023Y-43692514D02*
X145152023Y-43502038D01*
X145152023Y-43502038D02*
X145113928Y-43425847D01*
X145113928Y-43425847D02*
X145075833Y-43387752D01*
X145075833Y-43387752D02*
X144999642Y-43349657D01*
X144999642Y-43349657D02*
X144847261Y-43349657D01*
X144847261Y-43349657D02*
X144771071Y-43387752D01*
X144771071Y-43387752D02*
X144732976Y-43425847D01*
X144732976Y-43425847D02*
X144694880Y-43502038D01*
X143552024Y-54884894D02*
X143552024Y-54084894D01*
X143552024Y-54084894D02*
X143742500Y-54084894D01*
X143742500Y-54084894D02*
X143856786Y-54122989D01*
X143856786Y-54122989D02*
X143932976Y-54199179D01*
X143932976Y-54199179D02*
X143971071Y-54275370D01*
X143971071Y-54275370D02*
X144009167Y-54427751D01*
X144009167Y-54427751D02*
X144009167Y-54542037D01*
X144009167Y-54542037D02*
X143971071Y-54694418D01*
X143971071Y-54694418D02*
X143932976Y-54770608D01*
X143932976Y-54770608D02*
X143856786Y-54846799D01*
X143856786Y-54846799D02*
X143742500Y-54884894D01*
X143742500Y-54884894D02*
X143552024Y-54884894D01*
X144466309Y-54427751D02*
X144390119Y-54389656D01*
X144390119Y-54389656D02*
X144352024Y-54351560D01*
X144352024Y-54351560D02*
X144313928Y-54275370D01*
X144313928Y-54275370D02*
X144313928Y-54237275D01*
X144313928Y-54237275D02*
X144352024Y-54161084D01*
X144352024Y-54161084D02*
X144390119Y-54122989D01*
X144390119Y-54122989D02*
X144466309Y-54084894D01*
X144466309Y-54084894D02*
X144618690Y-54084894D01*
X144618690Y-54084894D02*
X144694881Y-54122989D01*
X144694881Y-54122989D02*
X144732976Y-54161084D01*
X144732976Y-54161084D02*
X144771071Y-54237275D01*
X144771071Y-54237275D02*
X144771071Y-54275370D01*
X144771071Y-54275370D02*
X144732976Y-54351560D01*
X144732976Y-54351560D02*
X144694881Y-54389656D01*
X144694881Y-54389656D02*
X144618690Y-54427751D01*
X144618690Y-54427751D02*
X144466309Y-54427751D01*
X144466309Y-54427751D02*
X144390119Y-54465846D01*
X144390119Y-54465846D02*
X144352024Y-54503941D01*
X144352024Y-54503941D02*
X144313928Y-54580132D01*
X144313928Y-54580132D02*
X144313928Y-54732513D01*
X144313928Y-54732513D02*
X144352024Y-54808703D01*
X144352024Y-54808703D02*
X144390119Y-54846799D01*
X144390119Y-54846799D02*
X144466309Y-54884894D01*
X144466309Y-54884894D02*
X144618690Y-54884894D01*
X144618690Y-54884894D02*
X144694881Y-54846799D01*
X144694881Y-54846799D02*
X144732976Y-54808703D01*
X144732976Y-54808703D02*
X144771071Y-54732513D01*
X144771071Y-54732513D02*
X144771071Y-54580132D01*
X144771071Y-54580132D02*
X144732976Y-54503941D01*
X144732976Y-54503941D02*
X144694881Y-54465846D01*
X144694881Y-54465846D02*
X144618690Y-54427751D01*
X145711071Y-43844895D02*
X145711071Y-43044895D01*
X145711071Y-43044895D02*
X145901547Y-43044895D01*
X145901547Y-43044895D02*
X146015833Y-43082990D01*
X146015833Y-43082990D02*
X146092023Y-43159180D01*
X146092023Y-43159180D02*
X146130118Y-43235371D01*
X146130118Y-43235371D02*
X146168214Y-43387752D01*
X146168214Y-43387752D02*
X146168214Y-43502038D01*
X146168214Y-43502038D02*
X146130118Y-43654419D01*
X146130118Y-43654419D02*
X146092023Y-43730609D01*
X146092023Y-43730609D02*
X146015833Y-43806800D01*
X146015833Y-43806800D02*
X145901547Y-43844895D01*
X145901547Y-43844895D02*
X145711071Y-43844895D01*
X146930118Y-43844895D02*
X146472975Y-43844895D01*
X146701547Y-43844895D02*
X146701547Y-43044895D01*
X146701547Y-43044895D02*
X146625356Y-43159180D01*
X146625356Y-43159180D02*
X146549166Y-43235371D01*
X146549166Y-43235371D02*
X146472975Y-43273466D01*
X147425357Y-43044895D02*
X147501547Y-43044895D01*
X147501547Y-43044895D02*
X147577738Y-43082990D01*
X147577738Y-43082990D02*
X147615833Y-43121085D01*
X147615833Y-43121085D02*
X147653928Y-43197276D01*
X147653928Y-43197276D02*
X147692023Y-43349657D01*
X147692023Y-43349657D02*
X147692023Y-43540133D01*
X147692023Y-43540133D02*
X147653928Y-43692514D01*
X147653928Y-43692514D02*
X147615833Y-43768704D01*
X147615833Y-43768704D02*
X147577738Y-43806800D01*
X147577738Y-43806800D02*
X147501547Y-43844895D01*
X147501547Y-43844895D02*
X147425357Y-43844895D01*
X147425357Y-43844895D02*
X147349166Y-43806800D01*
X147349166Y-43806800D02*
X147311071Y-43768704D01*
X147311071Y-43768704D02*
X147272976Y-43692514D01*
X147272976Y-43692514D02*
X147234880Y-43540133D01*
X147234880Y-43540133D02*
X147234880Y-43349657D01*
X147234880Y-43349657D02*
X147272976Y-43197276D01*
X147272976Y-43197276D02*
X147311071Y-43121085D01*
X147311071Y-43121085D02*
X147349166Y-43082990D01*
X147349166Y-43082990D02*
X147425357Y-43044895D01*
X146092024Y-54884894D02*
X146092024Y-54084894D01*
X146092024Y-54084894D02*
X146282500Y-54084894D01*
X146282500Y-54084894D02*
X146396786Y-54122989D01*
X146396786Y-54122989D02*
X146472976Y-54199179D01*
X146472976Y-54199179D02*
X146511071Y-54275370D01*
X146511071Y-54275370D02*
X146549167Y-54427751D01*
X146549167Y-54427751D02*
X146549167Y-54542037D01*
X146549167Y-54542037D02*
X146511071Y-54694418D01*
X146511071Y-54694418D02*
X146472976Y-54770608D01*
X146472976Y-54770608D02*
X146396786Y-54846799D01*
X146396786Y-54846799D02*
X146282500Y-54884894D01*
X146282500Y-54884894D02*
X146092024Y-54884894D01*
X146930119Y-54884894D02*
X147082500Y-54884894D01*
X147082500Y-54884894D02*
X147158690Y-54846799D01*
X147158690Y-54846799D02*
X147196786Y-54808703D01*
X147196786Y-54808703D02*
X147272976Y-54694418D01*
X147272976Y-54694418D02*
X147311071Y-54542037D01*
X147311071Y-54542037D02*
X147311071Y-54237275D01*
X147311071Y-54237275D02*
X147272976Y-54161084D01*
X147272976Y-54161084D02*
X147234881Y-54122989D01*
X147234881Y-54122989D02*
X147158690Y-54084894D01*
X147158690Y-54084894D02*
X147006309Y-54084894D01*
X147006309Y-54084894D02*
X146930119Y-54122989D01*
X146930119Y-54122989D02*
X146892024Y-54161084D01*
X146892024Y-54161084D02*
X146853928Y-54237275D01*
X146853928Y-54237275D02*
X146853928Y-54427751D01*
X146853928Y-54427751D02*
X146892024Y-54503941D01*
X146892024Y-54503941D02*
X146930119Y-54542037D01*
X146930119Y-54542037D02*
X147006309Y-54580132D01*
X147006309Y-54580132D02*
X147158690Y-54580132D01*
X147158690Y-54580132D02*
X147234881Y-54542037D01*
X147234881Y-54542037D02*
X147272976Y-54503941D01*
X147272976Y-54503941D02*
X147311071Y-54427751D01*
D10*
X141691071Y-59557200D02*
X141833928Y-59604819D01*
X141833928Y-59604819D02*
X142072023Y-59604819D01*
X142072023Y-59604819D02*
X142167261Y-59557200D01*
X142167261Y-59557200D02*
X142214880Y-59509580D01*
X142214880Y-59509580D02*
X142262499Y-59414342D01*
X142262499Y-59414342D02*
X142262499Y-59319104D01*
X142262499Y-59319104D02*
X142214880Y-59223866D01*
X142214880Y-59223866D02*
X142167261Y-59176247D01*
X142167261Y-59176247D02*
X142072023Y-59128628D01*
X142072023Y-59128628D02*
X141881547Y-59081009D01*
X141881547Y-59081009D02*
X141786309Y-59033390D01*
X141786309Y-59033390D02*
X141738690Y-58985771D01*
X141738690Y-58985771D02*
X141691071Y-58890533D01*
X141691071Y-58890533D02*
X141691071Y-58795295D01*
X141691071Y-58795295D02*
X141738690Y-58700057D01*
X141738690Y-58700057D02*
X141786309Y-58652438D01*
X141786309Y-58652438D02*
X141881547Y-58604819D01*
X141881547Y-58604819D02*
X142119642Y-58604819D01*
X142119642Y-58604819D02*
X142262499Y-58652438D01*
X142595833Y-58604819D02*
X142833928Y-59604819D01*
X142833928Y-59604819D02*
X143024404Y-58890533D01*
X143024404Y-58890533D02*
X143214880Y-59604819D01*
X143214880Y-59604819D02*
X143452976Y-58604819D01*
X143595833Y-59700057D02*
X144357737Y-59700057D01*
X145167261Y-59604819D02*
X144833928Y-59128628D01*
X144595833Y-59604819D02*
X144595833Y-58604819D01*
X144595833Y-58604819D02*
X144976785Y-58604819D01*
X144976785Y-58604819D02*
X145072023Y-58652438D01*
X145072023Y-58652438D02*
X145119642Y-58700057D01*
X145119642Y-58700057D02*
X145167261Y-58795295D01*
X145167261Y-58795295D02*
X145167261Y-58938152D01*
X145167261Y-58938152D02*
X145119642Y-59033390D01*
X145119642Y-59033390D02*
X145072023Y-59081009D01*
X145072023Y-59081009D02*
X144976785Y-59128628D01*
X144976785Y-59128628D02*
X144595833Y-59128628D01*
X145548214Y-59557200D02*
X145691071Y-59604819D01*
X145691071Y-59604819D02*
X145929166Y-59604819D01*
X145929166Y-59604819D02*
X146024404Y-59557200D01*
X146024404Y-59557200D02*
X146072023Y-59509580D01*
X146072023Y-59509580D02*
X146119642Y-59414342D01*
X146119642Y-59414342D02*
X146119642Y-59319104D01*
X146119642Y-59319104D02*
X146072023Y-59223866D01*
X146072023Y-59223866D02*
X146024404Y-59176247D01*
X146024404Y-59176247D02*
X145929166Y-59128628D01*
X145929166Y-59128628D02*
X145738690Y-59081009D01*
X145738690Y-59081009D02*
X145643452Y-59033390D01*
X145643452Y-59033390D02*
X145595833Y-58985771D01*
X145595833Y-58985771D02*
X145548214Y-58890533D01*
X145548214Y-58890533D02*
X145548214Y-58795295D01*
X145548214Y-58795295D02*
X145595833Y-58700057D01*
X145595833Y-58700057D02*
X145643452Y-58652438D01*
X145643452Y-58652438D02*
X145738690Y-58604819D01*
X145738690Y-58604819D02*
X145976785Y-58604819D01*
X145976785Y-58604819D02*
X146119642Y-58652438D01*
X146405357Y-58604819D02*
X146976785Y-58604819D01*
X146691071Y-59604819D02*
X146691071Y-58604819D01*
X147833928Y-59604819D02*
X147262500Y-59604819D01*
X147548214Y-59604819D02*
X147548214Y-58604819D01*
X147548214Y-58604819D02*
X147452976Y-58747676D01*
X147452976Y-58747676D02*
X147357738Y-58842914D01*
X147357738Y-58842914D02*
X147262500Y-58890533D01*
%TO.C,SW_RST1*%
D13*
X141512500Y-60100000D02*
X148012500Y-60100000D01*
X141512500Y-64200000D02*
X148012500Y-64200000D01*
%TD*%
%LPC*%
D14*
%TO.C,SW18*%
X128432500Y-115625000D03*
D15*
X128512500Y-119425000D03*
D16*
X133512500Y-115625000D03*
D15*
X133512500Y-121525000D03*
D17*
X138512500Y-110475000D03*
D14*
X138592500Y-115625000D03*
D18*
X136052500Y-110545000D03*
X129702500Y-113085000D03*
%TD*%
D19*
%TO.C,BAT_LEAD_SLOT1*%
X117912500Y-49000000D03*
%TD*%
D14*
%TO.C,SW23*%
X99857500Y-134675000D03*
D15*
X99937500Y-138475000D03*
D16*
X104937500Y-134675000D03*
D15*
X104937500Y-140575000D03*
D17*
X109937500Y-129525000D03*
D14*
X110017500Y-134675000D03*
D18*
X107477500Y-129595000D03*
X101127500Y-132135000D03*
%TD*%
D14*
%TO.C,SW29*%
X87951300Y-153725000D03*
D15*
X88031300Y-157525000D03*
D16*
X93031300Y-153725000D03*
D15*
X93031300Y-159625000D03*
D17*
X98031300Y-148575000D03*
D14*
X98111300Y-153725000D03*
D18*
X95571300Y-148645000D03*
X89221300Y-151185000D03*
%TD*%
D14*
%TO.C,SW1*%
X48105000Y-77525000D03*
D15*
X48025000Y-73725000D03*
D16*
X43025000Y-77525000D03*
D15*
X43025000Y-71625000D03*
D17*
X38025000Y-82675000D03*
D14*
X37945000Y-77525000D03*
D18*
X40485000Y-82605000D03*
X46835000Y-80065000D03*
%TD*%
D14*
%TO.C,SW14*%
X55248700Y-115625000D03*
D15*
X55168700Y-111825000D03*
D16*
X50168700Y-115625000D03*
D15*
X50168700Y-109725000D03*
D17*
X45168700Y-120775000D03*
D14*
X45088700Y-115625000D03*
D18*
X47628700Y-120705000D03*
X53978700Y-118165000D03*
%TD*%
D14*
%TO.C,SW5*%
X114145000Y-77525000D03*
D15*
X114225000Y-81325000D03*
D16*
X119225000Y-77525000D03*
D15*
X119225000Y-83425000D03*
D17*
X124225000Y-72375000D03*
D14*
X124305000Y-77525000D03*
D18*
X121765000Y-72445000D03*
X115415000Y-74985000D03*
%TD*%
D20*
%TO.C,MH2*%
X128612500Y-86500000D03*
%TD*%
D14*
%TO.C,SW30*%
X116526300Y-153725000D03*
D15*
X116606300Y-157525000D03*
D16*
X121606300Y-153725000D03*
D15*
X121606300Y-159625000D03*
D17*
X126606300Y-148575000D03*
D14*
X126686300Y-153725000D03*
D18*
X124146300Y-148645000D03*
X117796300Y-151185000D03*
%TD*%
D14*
%TO.C,SW6*%
X133195000Y-77525000D03*
D15*
X133275000Y-81325000D03*
D16*
X138275000Y-77525000D03*
D15*
X138275000Y-83425000D03*
D17*
X143275000Y-72375000D03*
D14*
X143355000Y-77525000D03*
D18*
X140815000Y-72445000D03*
X134465000Y-74985000D03*
%TD*%
D14*
%TO.C,SW7*%
X152245000Y-77525000D03*
D15*
X152325000Y-81325000D03*
D16*
X157325000Y-77525000D03*
D15*
X157325000Y-83425000D03*
D17*
X162325000Y-72375000D03*
D14*
X162405000Y-77525000D03*
D18*
X159865000Y-72445000D03*
X153515000Y-74985000D03*
%TD*%
D20*
%TO.C,MH4*%
X57112500Y-99000000D03*
%TD*%
D14*
%TO.C,SW19*%
X147482500Y-115625000D03*
D15*
X147562500Y-119425000D03*
D16*
X152562500Y-115625000D03*
D15*
X152562500Y-121525000D03*
D17*
X157562500Y-110475000D03*
D14*
X157642500Y-115625000D03*
D18*
X155102500Y-110545000D03*
X148752500Y-113085000D03*
%TD*%
D14*
%TO.C,SW15*%
X71282500Y-115625000D03*
D15*
X71362500Y-119425000D03*
D16*
X76362500Y-115625000D03*
D15*
X76362500Y-121525000D03*
D17*
X81362500Y-110475000D03*
D14*
X81442500Y-115625000D03*
D18*
X78902500Y-110545000D03*
X72552500Y-113085000D03*
%TD*%
D14*
%TO.C,SW11*%
X104620000Y-96575000D03*
D15*
X104700000Y-100375000D03*
D16*
X109700000Y-96575000D03*
D15*
X109700000Y-102475000D03*
D17*
X114700000Y-91425000D03*
D14*
X114780000Y-96575000D03*
D18*
X112240000Y-91495000D03*
X105890000Y-94035000D03*
%TD*%
D20*
%TO.C,MH7*%
X165612500Y-145000000D03*
%TD*%
D14*
%TO.C,SW31*%
X149863800Y-153725000D03*
D15*
X149943800Y-157525000D03*
D16*
X154943800Y-153725000D03*
D15*
X154943800Y-159625000D03*
D17*
X159943800Y-148575000D03*
D14*
X160023800Y-153725000D03*
D18*
X157483800Y-148645000D03*
X151133800Y-151185000D03*
%TD*%
D20*
%TO.C,MH8*%
X102612500Y-147000000D03*
%TD*%
D14*
%TO.C,SW20*%
X48105000Y-134675000D03*
D15*
X48025000Y-130875000D03*
D16*
X43025000Y-134675000D03*
D15*
X43025000Y-128775000D03*
D17*
X38025000Y-139825000D03*
D14*
X37945000Y-134675000D03*
D18*
X40485000Y-139755000D03*
X46835000Y-137215000D03*
%TD*%
D14*
%TO.C,SW10*%
X85570000Y-96575000D03*
D15*
X85650000Y-100375000D03*
D16*
X90650000Y-96575000D03*
D15*
X90650000Y-102475000D03*
D17*
X95650000Y-91425000D03*
D14*
X95730000Y-96575000D03*
D18*
X93190000Y-91495000D03*
X86840000Y-94035000D03*
%TD*%
D20*
%TO.C,MH5*%
X133612500Y-131500000D03*
%TD*%
D14*
%TO.C,SW16*%
X90332500Y-115625000D03*
D15*
X90412500Y-119425000D03*
D16*
X95412500Y-115625000D03*
D15*
X95412500Y-121525000D03*
D17*
X100412500Y-110475000D03*
D14*
X100492500Y-115625000D03*
D18*
X97952500Y-110545000D03*
X91602500Y-113085000D03*
%TD*%
D20*
%TO.C,MH3*%
X100112500Y-93500000D03*
%TD*%
D14*
%TO.C,SW22*%
X80807500Y-134675000D03*
D15*
X80887500Y-138475000D03*
D16*
X85887500Y-134675000D03*
D15*
X85887500Y-140575000D03*
D17*
X90887500Y-129525000D03*
D14*
X90967500Y-134675000D03*
D18*
X88427500Y-129595000D03*
X82077500Y-132135000D03*
%TD*%
D14*
%TO.C,SW9*%
X66520000Y-96575000D03*
D15*
X66600000Y-100375000D03*
D16*
X71600000Y-96575000D03*
D15*
X71600000Y-102475000D03*
D17*
X76600000Y-91425000D03*
D14*
X76680000Y-96575000D03*
D18*
X74140000Y-91495000D03*
X67790000Y-94035000D03*
%TD*%
D14*
%TO.C,SW2*%
X56995000Y-77525000D03*
D15*
X57075000Y-81325000D03*
D16*
X62075000Y-77525000D03*
D15*
X62075000Y-83425000D03*
D17*
X67075000Y-72375000D03*
D14*
X67155000Y-77525000D03*
D18*
X64615000Y-72445000D03*
X58265000Y-74985000D03*
%TD*%
D14*
%TO.C,SW24*%
X118907500Y-134675000D03*
D15*
X118987500Y-138475000D03*
D16*
X123987500Y-134675000D03*
D15*
X123987500Y-140575000D03*
D17*
X128987500Y-129525000D03*
D14*
X129067500Y-134675000D03*
D18*
X126527500Y-129595000D03*
X120177500Y-132135000D03*
%TD*%
D14*
%TO.C,SW8*%
X52867500Y-96575000D03*
D15*
X52787500Y-92775000D03*
D16*
X47787500Y-96575000D03*
D15*
X47787500Y-90675000D03*
D17*
X42787500Y-101725000D03*
D14*
X42707500Y-96575000D03*
D18*
X45247500Y-101655000D03*
X51597500Y-99115000D03*
%TD*%
D14*
%TO.C,SW13*%
X142720000Y-96575000D03*
D15*
X142800000Y-100375000D03*
D16*
X147800000Y-96575000D03*
D15*
X147800000Y-102475000D03*
D17*
X152800000Y-91425000D03*
D14*
X152880000Y-96575000D03*
D18*
X150340000Y-91495000D03*
X143990000Y-94035000D03*
%TD*%
D14*
%TO.C,SW26*%
X157007500Y-134675000D03*
D15*
X157087500Y-138475000D03*
D16*
X162087500Y-134675000D03*
D15*
X162087500Y-140575000D03*
D17*
X167087500Y-129525000D03*
D14*
X167167500Y-134675000D03*
D18*
X164627500Y-129595000D03*
X158277500Y-132135000D03*
%TD*%
D14*
%TO.C,SW3*%
X76045000Y-77525000D03*
D15*
X76125000Y-81325000D03*
D16*
X81125000Y-77525000D03*
D15*
X81125000Y-83425000D03*
D17*
X86125000Y-72375000D03*
D14*
X86205000Y-77525000D03*
D18*
X83665000Y-72445000D03*
X77315000Y-74985000D03*
%TD*%
D20*
%TO.C,MH1*%
X142612500Y-68000000D03*
%TD*%
D14*
%TO.C,SW28*%
X64138800Y-153725000D03*
D15*
X64218800Y-157525000D03*
D16*
X69218800Y-153725000D03*
D15*
X69218800Y-159625000D03*
D17*
X74218800Y-148575000D03*
D14*
X74298800Y-153725000D03*
D18*
X71758800Y-148645000D03*
X65408800Y-151185000D03*
%TD*%
D14*
%TO.C,SW17*%
X109382500Y-115625000D03*
D15*
X109462500Y-119425000D03*
D16*
X114462500Y-115625000D03*
D15*
X114462500Y-121525000D03*
D17*
X119462500Y-110475000D03*
D14*
X119542500Y-115625000D03*
D18*
X117002500Y-110545000D03*
X110652500Y-113085000D03*
%TD*%
D14*
%TO.C,SW4*%
X95095000Y-77525000D03*
D15*
X95175000Y-81325000D03*
D16*
X100175000Y-77525000D03*
D15*
X100175000Y-83425000D03*
D17*
X105175000Y-72375000D03*
D14*
X105255000Y-77525000D03*
D18*
X102715000Y-72445000D03*
X96365000Y-74985000D03*
%TD*%
D14*
%TO.C,SW12*%
X123670000Y-96575000D03*
D15*
X123750000Y-100375000D03*
D16*
X128750000Y-96575000D03*
D15*
X128750000Y-102475000D03*
D17*
X133750000Y-91425000D03*
D14*
X133830000Y-96575000D03*
D18*
X131290000Y-91495000D03*
X124940000Y-94035000D03*
%TD*%
D20*
%TO.C,MH6*%
X55112500Y-144000000D03*
%TD*%
D14*
%TO.C,SW21*%
X59376300Y-134675000D03*
D15*
X59456300Y-138475000D03*
D16*
X64456300Y-134675000D03*
D15*
X64456300Y-140575000D03*
D17*
X69456300Y-129525000D03*
D14*
X69536300Y-134675000D03*
D18*
X66996300Y-129595000D03*
X60646300Y-132135000D03*
%TD*%
D21*
%TO.C,SW_RST1*%
X140887500Y-62150000D03*
X148637500Y-62150000D03*
%TD*%
D14*
%TO.C,SW27*%
X50486300Y-153725000D03*
D15*
X50406300Y-149925000D03*
D16*
X45406300Y-153725000D03*
D15*
X45406300Y-147825000D03*
D17*
X40406300Y-158875000D03*
D14*
X40326300Y-153725000D03*
D18*
X42866300Y-158805000D03*
X49216300Y-156265000D03*
%TD*%
D14*
%TO.C,SW25*%
X137957500Y-134675000D03*
D15*
X138037500Y-138475000D03*
D16*
X143037500Y-134675000D03*
D15*
X143037500Y-140575000D03*
D17*
X148037500Y-129525000D03*
D14*
X148117500Y-134675000D03*
D18*
X145577500Y-129595000D03*
X139227500Y-132135000D03*
%TD*%
%LPD*%
M02*
