%TF.GenerationSoftware,KiCad,Pcbnew,10.0.3*%
%TF.CreationDate,2026-08-20T07:58:21+09:00*%
%TF.ProjectId,kc2_left-x3-v2,6b63325f-6c65-4667-942d-78332d76322e,draft-v2*%
%TF.SameCoordinates,Original*%
%TF.FileFunction,Copper,L1,Top*%
%TF.FilePolarity,Positive*%
%FSLAX46Y46*%
G04 Gerber Fmt 4.6, Leading zero omitted, Abs format (unit mm)*
G04 Created by KiCad (PCBNEW 10.0.3) date 2026-08-20 07:58:21*
%MOMM*%
%LPD*%
G01*
G04 APERTURE LIST*
%TA.AperFunction,ComponentPad*%
%ADD10C,2.500000*%
%TD*%
%TA.AperFunction,ComponentPad*%
%ADD11C,1.800000*%
%TD*%
%TA.AperFunction,SMDPad,CuDef*%
%ADD12R,1.750000X1.000000*%
%TD*%
%TA.AperFunction,ViaPad*%
%ADD13C,0.600000*%
%TD*%
%TA.AperFunction,Conductor*%
%ADD14C,0.200000*%
%TD*%
%TA.AperFunction,Conductor*%
%ADD15C,0.250000*%
%TD*%
G04 APERTURE END LIST*
D10*
%TO.P,SW29,1*%
%TO.N,L_COL2*%
X96571300Y-148645000D03*
%TO.P,SW29,2*%
%TO.N,LK29_D*%
X90221300Y-151185000D03*
%TD*%
%TO.P,SW18,1*%
%TO.N,L_COL4*%
X137052500Y-110545000D03*
%TO.P,SW18,2*%
%TO.N,LK18_D*%
X130702500Y-113085000D03*
%TD*%
D11*
%TO.P,U1,D0*%
%TO.N,N/C*%
X122282500Y-56620000D03*
%TO.P,U1,D1*%
X119742500Y-56620000D03*
%TO.P,U1,D2*%
X129902500Y-56620000D03*
%TO.P,U1,D3*%
%TO.N,L_COL0*%
X132442500Y-56620000D03*
%TO.P,U1,D4*%
%TO.N,L_COL2*%
X134982500Y-56620000D03*
%TO.P,U1,D5*%
%TO.N,L_COL1*%
X137522500Y-56620000D03*
%TO.P,U1,D6*%
%TO.N,L_COL3*%
X140062500Y-56620000D03*
%TO.P,U1,D7*%
%TO.N,L_COL4*%
X142602500Y-56620000D03*
%TO.P,U1,D8*%
%TO.N,L_COL5*%
X145142500Y-56620000D03*
%TO.P,U1,D9*%
%TO.N,L_COL6*%
X147682500Y-56620000D03*
%TO.P,U1,D10*%
%TO.N,L_ROW0*%
X147682500Y-41380000D03*
%TO.P,U1,D14*%
%TO.N,L_ROW2*%
X142602500Y-41380000D03*
%TO.P,U1,D15*%
%TO.N,L_ROW3*%
X140062500Y-41380000D03*
%TO.P,U1,D16*%
%TO.N,L_ROW1*%
X145142500Y-41380000D03*
%TO.P,U1,D18*%
%TO.N,L_ROW4*%
X137522500Y-41380000D03*
%TO.P,U1,D19*%
%TO.N,N/C*%
X134982500Y-41380000D03*
%TO.P,U1,D20*%
X132442500Y-41380000D03*
%TO.P,U1,D21*%
X129902500Y-41380000D03*
%TO.P,U1,GND_A*%
X124822500Y-56620000D03*
%TO.P,U1,GND_B*%
X127362500Y-56620000D03*
%TO.P,U1,GND_C*%
%TO.N,GND*%
X122282500Y-41380000D03*
%TO.P,U1,RAW*%
%TO.N,N/C*%
X119742500Y-41380000D03*
%TO.P,U1,RST*%
%TO.N,RST*%
X124822500Y-41380000D03*
%TO.P,U1,VCC*%
%TO.N,N/C*%
X127362500Y-41380000D03*
%TD*%
D10*
%TO.P,SW15,1*%
%TO.N,L_COL1*%
X79902500Y-110545000D03*
%TO.P,SW15,2*%
%TO.N,LK15_D*%
X73552500Y-113085000D03*
%TD*%
%TO.P,SW12,1*%
%TO.N,L_COL4*%
X132290000Y-91495000D03*
%TO.P,SW12,2*%
%TO.N,LK12_D*%
X125940000Y-94035000D03*
%TD*%
%TO.P,SW32,1*%
%TO.N,L_COL5*%
X163246300Y-148645000D03*
%TO.P,SW32,2*%
%TO.N,LK32_D*%
X156896300Y-151185000D03*
%TD*%
%TO.P,SW28,1*%
%TO.N,L_COL1*%
X72758800Y-148645000D03*
%TO.P,SW28,2*%
%TO.N,LK28_D*%
X66408800Y-151185000D03*
%TD*%
%TO.P,SW14,1*%
%TO.N,L_COL0*%
X48628800Y-120705000D03*
%TO.P,SW14,2*%
%TO.N,LK14_D*%
X54978800Y-118165000D03*
%TD*%
%TO.P,SW21,1*%
%TO.N,L_COL1*%
X70377500Y-129595000D03*
%TO.P,SW21,2*%
%TO.N,LK21_D*%
X64027500Y-132135000D03*
%TD*%
%TO.P,SW10,1*%
%TO.N,L_COL2*%
X94190000Y-91495000D03*
%TO.P,SW10,2*%
%TO.N,LK10_D*%
X87840000Y-94035000D03*
%TD*%
%TO.P,SW4,1*%
%TO.N,L_COL3*%
X103715000Y-72445000D03*
%TO.P,SW4,2*%
%TO.N,LK04_D*%
X97365000Y-74985000D03*
%TD*%
%TO.P,SW9,1*%
%TO.N,L_COL1*%
X75140000Y-91495000D03*
%TO.P,SW9,2*%
%TO.N,LK09_D*%
X68790000Y-94035000D03*
%TD*%
%TO.P,SW11,1*%
%TO.N,L_COL3*%
X113240000Y-91495000D03*
%TO.P,SW11,2*%
%TO.N,LK11_D*%
X106890000Y-94035000D03*
%TD*%
%TO.P,SW19,1*%
%TO.N,L_COL5*%
X156102500Y-110545000D03*
%TO.P,SW19,2*%
%TO.N,LK19_D*%
X149752500Y-113085000D03*
%TD*%
%TO.P,SW7,1*%
%TO.N,L_COL6*%
X160865000Y-72445000D03*
%TO.P,SW7,2*%
%TO.N,LK07_D*%
X154515000Y-74985000D03*
%TD*%
%TO.P,SW24,1*%
%TO.N,L_COL4*%
X127527500Y-129595000D03*
%TO.P,SW24,2*%
%TO.N,LK24_D*%
X121177500Y-132135000D03*
%TD*%
%TO.P,SW27,1*%
%TO.N,L_COL0*%
X43866300Y-158805000D03*
%TO.P,SW27,2*%
%TO.N,LK27_D*%
X50216300Y-156265000D03*
%TD*%
%TO.P,SW2,1*%
%TO.N,L_COL1*%
X65615000Y-72445000D03*
%TO.P,SW2,2*%
%TO.N,LK02_D*%
X59265000Y-74985000D03*
%TD*%
%TO.P,SW22,1*%
%TO.N,L_COL2*%
X89427500Y-129595000D03*
%TO.P,SW22,2*%
%TO.N,LK22_D*%
X83077500Y-132135000D03*
%TD*%
%TO.P,SW6,1*%
%TO.N,L_COL5*%
X141815000Y-72445000D03*
%TO.P,SW6,2*%
%TO.N,LK06_D*%
X135465000Y-74985000D03*
%TD*%
%TO.P,SW30,1*%
%TO.N,L_COL3*%
X118002500Y-148645000D03*
%TO.P,SW30,2*%
%TO.N,LK30_D*%
X111652500Y-151185000D03*
%TD*%
%TO.P,SW25,1*%
%TO.N,L_COL5*%
X146577500Y-129595000D03*
%TO.P,SW25,2*%
%TO.N,LK25_D*%
X140227500Y-132135000D03*
%TD*%
%TO.P,SW16,1*%
%TO.N,L_COL2*%
X98952500Y-110545000D03*
%TO.P,SW16,2*%
%TO.N,LK16_D*%
X92602500Y-113085000D03*
%TD*%
%TO.P,SW17,1*%
%TO.N,L_COL3*%
X118002500Y-110545000D03*
%TO.P,SW17,2*%
%TO.N,LK17_D*%
X111652500Y-113085000D03*
%TD*%
%TO.P,SW3,1*%
%TO.N,L_COL2*%
X84665000Y-72445000D03*
%TO.P,SW3,2*%
%TO.N,LK03_D*%
X78315000Y-74985000D03*
%TD*%
%TO.P,SW13,1*%
%TO.N,L_COL5*%
X151340000Y-91495000D03*
%TO.P,SW13,2*%
%TO.N,LK13_D*%
X144990000Y-94035000D03*
%TD*%
%TO.P,SW20,1*%
%TO.N,L_COL0*%
X43866300Y-139755000D03*
%TO.P,SW20,2*%
%TO.N,LK20_D*%
X50216300Y-137215000D03*
%TD*%
%TO.P,SW5,1*%
%TO.N,L_COL4*%
X122765000Y-72445000D03*
%TO.P,SW5,2*%
%TO.N,LK05_D*%
X116415000Y-74985000D03*
%TD*%
%TO.P,SW31,1*%
%TO.N,L_COL4*%
X139433800Y-148645000D03*
%TO.P,SW31,2*%
%TO.N,LK31_D*%
X133083800Y-151185000D03*
%TD*%
D12*
%TO.P,SW_RST1,1*%
%TO.N,RST*%
X141887500Y-62150000D03*
%TO.P,SW_RST1,2*%
%TO.N,GND*%
X149637500Y-62150000D03*
%TD*%
D10*
%TO.P,SW8,1*%
%TO.N,L_COL0*%
X46247500Y-101655000D03*
%TO.P,SW8,2*%
%TO.N,LK08_D*%
X52597500Y-99115000D03*
%TD*%
%TO.P,SW1,1*%
%TO.N,L_COL0*%
X41485000Y-82605000D03*
%TO.P,SW1,2*%
%TO.N,LK01_D*%
X47835000Y-80065000D03*
%TD*%
%TO.P,SW26,1*%
%TO.N,L_COL6*%
X165627500Y-129595000D03*
%TO.P,SW26,2*%
%TO.N,LK26_D*%
X159277500Y-132135000D03*
%TD*%
%TO.P,SW23,1*%
%TO.N,L_COL3*%
X108477500Y-129595000D03*
%TO.P,SW23,2*%
%TO.N,LK23_D*%
X102127500Y-132135000D03*
%TD*%
D13*
%TO.N,L_COL2*%
X121504900Y-70187000D03*
X91590900Y-132857000D03*
%TO.N,L_COL4*%
X136450900Y-120265900D03*
X129590100Y-68618900D03*
X137052500Y-101309900D03*
%TO.N,L_COL0*%
X131233400Y-85364200D03*
%TO.N,L_COL1*%
X132579200Y-82932800D03*
X76633900Y-84118200D03*
X70651100Y-124798700D03*
%TO.N,L_COL3*%
X112530700Y-142415300D03*
X115522100Y-66076700D03*
%TO.N,L_COL5*%
X145436100Y-122028800D03*
%TO.N,L_COL6*%
X155000000Y-98200000D03*
X160500000Y-124000000D03*
%TO.N,L_ROW0*%
X150989100Y-69752100D03*
%TO.N,L_ROW2*%
X137904000Y-107453000D03*
X136253000Y-40552500D03*
%TO.N,L_ROW3*%
X143016000Y-117861000D03*
X144203000Y-45282100D03*
%TO.N,L_ROW1*%
X146991000Y-58078700D03*
X145969000Y-89796200D03*
%TO.N,L_ROW4*%
X136918000Y-140808000D03*
%TO.N,GND*%
X147626000Y-43040000D03*
%TO.N,LK21_D*%
X60587500Y-128181000D03*
%TO.N,LK04_D*%
X94180300Y-70364000D03*
%TO.N,LK09_D*%
X65589400Y-89648600D03*
%TO.N,LK03_D*%
X75681100Y-70727900D03*
%TD*%
%TO.N,L_COL2*%
D14*
X131104200Y-56188500D02*
X131104200Y-57254000D01*
X84665000Y-72445000D02*
X88664200Y-76444200D01*
X91590900Y-132857000D02*
X89427500Y-130693600D01*
X88664200Y-76444200D02*
X88664200Y-85969200D01*
X131876200Y-55416500D02*
X131104200Y-56188500D01*
X92132700Y-132857000D02*
X96571300Y-137295600D01*
X133779000Y-55416500D02*
X131876200Y-55416500D01*
X94190000Y-91495000D02*
X98952500Y-96257500D01*
X134982500Y-56620000D02*
X133779000Y-55416500D01*
X96571300Y-137295600D02*
X96571300Y-148645000D01*
X88664200Y-85969200D02*
X94190000Y-91495000D01*
X91590900Y-132857000D02*
X92132700Y-132857000D01*
X98952500Y-96257500D02*
X98952500Y-110545000D01*
X89427500Y-130693600D02*
X89427500Y-129595000D01*
X121504900Y-66853300D02*
X121504900Y-70187000D01*
X131104200Y-57254000D02*
X121504900Y-66853300D01*
%TO.N,L_COL4*%
X127527500Y-129595000D02*
X127527500Y-125602600D01*
X132460800Y-141672000D02*
X132460800Y-120675200D01*
X132290000Y-91495000D02*
X137052500Y-96257500D01*
X135658300Y-119473300D02*
X136450900Y-120265900D01*
X127323900Y-86528900D02*
X132290000Y-91495000D01*
X137052500Y-96257500D02*
X137052500Y-101309900D01*
X127527500Y-125602600D02*
X134289000Y-118841100D01*
X132460800Y-120675200D02*
X133662700Y-119473300D01*
X127323900Y-70885100D02*
X127323900Y-73762300D01*
X136450900Y-119600800D02*
X136450900Y-120265900D01*
X122765000Y-72445000D02*
X124082300Y-73762300D01*
X139433800Y-148645000D02*
X132460800Y-141672000D01*
X134289000Y-118841100D02*
X135691200Y-118841100D01*
X135691200Y-118841100D02*
X137616000Y-116916300D01*
X137052500Y-101309900D02*
X137052500Y-110545000D01*
X137616000Y-116916300D02*
X137616000Y-111108500D01*
X137616000Y-111108500D02*
X137052500Y-110545000D01*
X135691200Y-118841100D02*
X136450900Y-119600800D01*
X124082300Y-73762300D02*
X127323900Y-73762300D01*
X129590100Y-68618900D02*
X127323900Y-70885100D01*
X127323900Y-73762300D02*
X127323900Y-86528900D01*
X133662700Y-119473300D02*
X135658300Y-119473300D01*
%TO.N,L_COL0*%
X43323900Y-158262600D02*
X43323900Y-140297400D01*
X43323900Y-140297400D02*
X43866300Y-139755000D01*
X48628800Y-120705000D02*
X47727300Y-119803500D01*
X47727300Y-119803500D02*
X47727300Y-103134800D01*
X43866300Y-158805000D02*
X43323900Y-158262600D01*
X41485000Y-96892500D02*
X41485000Y-82605000D01*
X46247500Y-101655000D02*
X41485000Y-96892500D01*
X131233400Y-57829100D02*
X131233400Y-85364200D01*
X132442500Y-56620000D02*
X131233400Y-57829100D01*
X47727300Y-103134800D02*
X46247500Y-101655000D01*
%TO.N,L_COL1*%
X79902500Y-96257500D02*
X79902500Y-110545000D01*
X135124900Y-83376700D02*
X133023100Y-83376700D01*
X69614200Y-85969200D02*
X75140000Y-91495000D01*
X70377500Y-125072300D02*
X70377500Y-129595000D01*
X70377500Y-129595000D02*
X71279100Y-130496600D01*
X136326700Y-80475100D02*
X136326700Y-82174900D01*
X75140000Y-91495000D02*
X79902500Y-96257500D01*
X69614200Y-76444200D02*
X69614200Y-85969200D01*
X137522500Y-56620000D02*
X132782400Y-61360100D01*
X65615000Y-72445000D02*
X69614200Y-76444200D01*
X133023100Y-83376700D02*
X132579200Y-82932800D01*
X71279100Y-130496600D02*
X71279100Y-147165300D01*
X71279100Y-147165300D02*
X72758800Y-148645000D01*
X136326700Y-82174900D02*
X135124900Y-83376700D01*
X135124900Y-79273300D02*
X136326700Y-80475100D01*
X132782400Y-61360100D02*
X132782400Y-78099300D01*
X133956400Y-79273300D02*
X135124900Y-79273300D01*
X70651100Y-124798700D02*
X70377500Y-125072300D01*
X76633900Y-84118200D02*
X75140000Y-85612100D01*
X75140000Y-85612100D02*
X75140000Y-91495000D01*
X132782400Y-78099300D02*
X133956400Y-79273300D01*
%TO.N,L_COL3*%
X113240000Y-91495000D02*
X118002500Y-96257500D01*
X118002500Y-110545000D02*
X118573000Y-111115500D01*
X118573000Y-123940700D02*
X110698100Y-131815600D01*
X118002500Y-148645000D02*
X112530700Y-143173200D01*
X107714200Y-76444200D02*
X107714200Y-85969200D01*
X106434400Y-75164400D02*
X115522100Y-66076700D01*
X112530700Y-133648200D02*
X110698100Y-131815600D01*
X112530700Y-143173200D02*
X112530700Y-142415300D01*
X110698100Y-131815600D02*
X108477500Y-129595000D01*
X107714200Y-85969200D02*
X113240000Y-91495000D01*
X103715000Y-72445000D02*
X106434400Y-75164400D01*
X118573000Y-111115500D02*
X118573000Y-123940700D01*
X112530700Y-142415300D02*
X112530700Y-133648200D01*
X118002500Y-96257500D02*
X118002500Y-110545000D01*
X106434400Y-75164400D02*
X107714200Y-76444200D01*
%TO.N,L_COL5*%
X141815000Y-72445000D02*
X145142500Y-69117500D01*
X156102500Y-96257500D02*
X156102500Y-110545000D01*
X145436100Y-122028800D02*
X146577500Y-123170200D01*
X145142500Y-69117500D02*
X145142500Y-56620000D01*
X151340000Y-91495000D02*
X156102500Y-96257500D01*
X146577500Y-123170200D02*
X146577500Y-129595000D01*
%TO.N,L_COL6*%
D15*
X155000000Y-98200000D02*
X154500000Y-99000000D01*
D14*
X147682500Y-67321800D02*
X147682500Y-56620000D01*
D15*
X154500000Y-99000000D02*
X154500000Y-112500000D01*
X154500000Y-112500000D02*
X160500000Y-112500000D01*
D14*
X160865000Y-72445000D02*
X152805700Y-72445000D01*
X152805700Y-72445000D02*
X147682500Y-67321800D01*
D15*
X160500000Y-112500000D02*
X160500000Y-124000000D01*
%TO.N,L_ROW0*%
D14*
X147682500Y-41380000D02*
X150989100Y-44686600D01*
X150989100Y-44686600D02*
X150989100Y-69752100D01*
%TO.N,L_ROW2*%
D15*
X136253000Y-40552500D02*
X136253000Y-57253200D01*
X131735000Y-61770800D02*
X131735000Y-83145700D01*
X131735000Y-83145700D02*
X137904000Y-89315100D01*
X136253000Y-57253200D02*
X131735000Y-61770800D01*
X137904000Y-89315100D02*
X137904000Y-107453000D01*
%TO.N,L_ROW3*%
X146364000Y-57819200D02*
X146364000Y-77925100D01*
X141677000Y-96600200D02*
X141677000Y-102312000D01*
X143296000Y-80994100D02*
X143296000Y-94981800D01*
X146364000Y-77925100D02*
X143296000Y-80994100D01*
X146412000Y-57771300D02*
X146364000Y-57819200D01*
X141677000Y-102312000D02*
X143016000Y-103652000D01*
X143296000Y-94981800D02*
X141677000Y-96600200D01*
X144203000Y-45282100D02*
X146412000Y-47491600D01*
X143016000Y-103652000D02*
X143016000Y-117861000D01*
X146412000Y-47491600D02*
X146412000Y-57771300D01*
%TO.N,L_ROW1*%
X146991000Y-88773800D02*
X145969000Y-89796200D01*
X146991000Y-58078700D02*
X146991000Y-88773800D01*
%TO.N,L_ROW4*%
X138792000Y-42650000D02*
X138792000Y-72093800D01*
X138792000Y-72093800D02*
X142407000Y-75708700D01*
D14*
X137522500Y-41380000D02*
X137522300Y-41380200D01*
D15*
X141363000Y-108411000D02*
X141179000Y-108227000D01*
X137522300Y-41380200D02*
X138792000Y-42650000D01*
X142407000Y-75708700D02*
X142407000Y-92887300D01*
X136918000Y-122067000D02*
X136918000Y-140808000D01*
X141363000Y-108411000D02*
X141179000Y-108227000D01*
X137522000Y-41380000D02*
X137522300Y-41380200D01*
X141179000Y-94115600D02*
X141179000Y-108227000D01*
X142407000Y-92887300D02*
X141179000Y-94115600D01*
X141363000Y-108411000D02*
X141363000Y-117622000D01*
X141363000Y-117622000D02*
X136918000Y-122067000D01*
%TO.N,GND*%
X147626000Y-43040000D02*
X149638000Y-45051200D01*
D14*
X149637500Y-62150000D02*
X149638000Y-62150000D01*
D15*
X149638000Y-45051200D02*
X149638000Y-62150000D01*
%TO.N,RST*%
X125549500Y-40652900D02*
X124822000Y-41380000D01*
X141332000Y-40871800D02*
X140386000Y-39925800D01*
X126277000Y-39925800D02*
X125549500Y-40652900D01*
X141888000Y-61323300D02*
X141332000Y-60768300D01*
X141888000Y-62150000D02*
X141888000Y-61323300D01*
X141332000Y-60768300D02*
X141332000Y-40871800D01*
D14*
X141887500Y-62150000D02*
X141888000Y-62150000D01*
D15*
X140386000Y-39925800D02*
X126277000Y-39925800D01*
D14*
X125549500Y-40653000D02*
X125549500Y-40652900D01*
X124822500Y-41380000D02*
X125549500Y-40653000D01*
%TO.N,LK21_D*%
D15*
X60587500Y-128695000D02*
X60587500Y-128181000D01*
X64027500Y-132135000D02*
X60587500Y-128695000D01*
%TO.N,LK04_D*%
D14*
X97365000Y-74985000D02*
X94180300Y-71800300D01*
X94180300Y-71800300D02*
X94180300Y-70364000D01*
%TO.N,LK09_D*%
D15*
X65589400Y-90834400D02*
X65589400Y-89648600D01*
X68790000Y-94035000D02*
X65589400Y-90834400D01*
%TO.N,LK03_D*%
D14*
X78315000Y-74985000D02*
X75681100Y-72351100D01*
X75681100Y-72351100D02*
X75681100Y-70727900D01*
%TD*%
M02*
