%TF.GenerationSoftware,KiCad,Pcbnew,10.0.3*%
%TF.CreationDate,2026-08-03T10:12:08+09:00*%
%TF.ProjectId,kc2_left-x3-v2,6b63325f-6c65-4667-942d-78332d76322e,draft-v2*%
%TF.SameCoordinates,Original*%
%TF.FileFunction,Copper,L1,Top*%
%TF.FilePolarity,Positive*%
%FSLAX46Y46*%
G04 Gerber Fmt 4.6, Leading zero omitted, Abs format (unit mm)*
G04 Created by KiCad (PCBNEW 10.0.3) date 2026-08-03 10:12:08*
%MOMM*%
%LPD*%
G01*
G04 APERTURE LIST*
%TA.AperFunction,ComponentPad*%
%ADD10C,2.500000*%
%TD*%
%TA.AperFunction,ComponentPad*%
%ADD11C,1.800000*%
%TD*%
%TA.AperFunction,SMDPad,CuDef*%
%ADD12R,1.750000X1.000000*%
%TD*%
%TA.AperFunction,ViaPad*%
%ADD13C,0.600000*%
%TD*%
%TA.AperFunction,Conductor*%
%ADD14C,0.250000*%
%TD*%
G04 APERTURE END LIST*
D10*
%TO.P,SW20,1*%
%TO.N,L_COL0*%
X53446300Y-129595000D03*
%TO.P,SW20,2*%
%TO.N,LK20_D*%
X47096300Y-132135000D03*
%TD*%
%TO.P,SW32,1*%
%TO.N,L_COL5*%
X167746300Y-148645000D03*
%TO.P,SW32,2*%
%TO.N,LK32_D*%
X161396300Y-151185000D03*
%TD*%
%TO.P,SW18,1*%
%TO.N,L_COL4*%
X141552500Y-110545000D03*
%TO.P,SW18,2*%
%TO.N,LK18_D*%
X135202500Y-113085000D03*
%TD*%
%TO.P,SW23,1*%
%TO.N,L_COL3*%
X112977500Y-129595000D03*
%TO.P,SW23,2*%
%TO.N,LK23_D*%
X106627500Y-132135000D03*
%TD*%
%TO.P,SW19,1*%
%TO.N,L_COL5*%
X160602500Y-110545000D03*
%TO.P,SW19,2*%
%TO.N,LK19_D*%
X154252500Y-113085000D03*
%TD*%
%TO.P,SW3,1*%
%TO.N,L_COL2*%
X89165000Y-72445000D03*
%TO.P,SW3,2*%
%TO.N,LK03_D*%
X82815000Y-74985000D03*
%TD*%
%TO.P,SW6,1*%
%TO.N,L_COL5*%
X146315000Y-72445000D03*
%TO.P,SW6,2*%
%TO.N,LK06_D*%
X139965000Y-74985000D03*
%TD*%
%TO.P,SW8,1*%
%TO.N,L_COL0*%
X55827500Y-91495000D03*
%TO.P,SW8,2*%
%TO.N,LK08_D*%
X49477500Y-94035000D03*
%TD*%
%TO.P,SW11,1*%
%TO.N,L_COL3*%
X117740000Y-91495000D03*
%TO.P,SW11,2*%
%TO.N,LK11_D*%
X111390000Y-94035000D03*
%TD*%
%TO.P,SW24,1*%
%TO.N,L_COL4*%
X132027500Y-129595000D03*
%TO.P,SW24,2*%
%TO.N,LK24_D*%
X125677500Y-132135000D03*
%TD*%
%TO.P,SW17,1*%
%TO.N,L_COL3*%
X122502500Y-110545000D03*
%TO.P,SW17,2*%
%TO.N,LK17_D*%
X116152500Y-113085000D03*
%TD*%
%TO.P,SW15,1*%
%TO.N,L_COL1*%
X84402500Y-110545000D03*
%TO.P,SW15,2*%
%TO.N,LK15_D*%
X78052500Y-113085000D03*
%TD*%
%TO.P,SW10,1*%
%TO.N,L_COL2*%
X98690000Y-91495000D03*
%TO.P,SW10,2*%
%TO.N,LK10_D*%
X92340000Y-94035000D03*
%TD*%
%TO.P,SW28,1*%
%TO.N,L_COL1*%
X77258800Y-148645000D03*
%TO.P,SW28,2*%
%TO.N,LK28_D*%
X70908800Y-151185000D03*
%TD*%
%TO.P,SW5,1*%
%TO.N,L_COL4*%
X127265000Y-72445000D03*
%TO.P,SW5,2*%
%TO.N,LK05_D*%
X120915000Y-74985000D03*
%TD*%
%TO.P,SW30,1*%
%TO.N,L_COL3*%
X124883800Y-148645000D03*
%TO.P,SW30,2*%
%TO.N,LK30_D*%
X118533800Y-151185000D03*
%TD*%
%TO.P,SW22,1*%
%TO.N,L_COL2*%
X93927500Y-129595000D03*
%TO.P,SW22,2*%
%TO.N,LK22_D*%
X87577500Y-132135000D03*
%TD*%
%TO.P,SW29,1*%
%TO.N,L_COL2*%
X101071300Y-148645000D03*
%TO.P,SW29,2*%
%TO.N,LK29_D*%
X94721300Y-151185000D03*
%TD*%
%TO.P,SW14,1*%
%TO.N,L_COL0*%
X58208800Y-110545000D03*
%TO.P,SW14,2*%
%TO.N,LK14_D*%
X51858800Y-113085000D03*
%TD*%
%TO.P,SW9,1*%
%TO.N,L_COL1*%
X79640000Y-91495000D03*
%TO.P,SW9,2*%
%TO.N,LK09_D*%
X73290000Y-94035000D03*
%TD*%
%TO.P,SW16,1*%
%TO.N,L_COL2*%
X103452500Y-110545000D03*
%TO.P,SW16,2*%
%TO.N,LK16_D*%
X97102500Y-113085000D03*
%TD*%
%TO.P,SW2,1*%
%TO.N,L_COL1*%
X70115000Y-72445000D03*
%TO.P,SW2,2*%
%TO.N,LK02_D*%
X63765000Y-74985000D03*
%TD*%
%TO.P,SW13,1*%
%TO.N,L_COL5*%
X155840000Y-91495000D03*
%TO.P,SW13,2*%
%TO.N,LK13_D*%
X149490000Y-94035000D03*
%TD*%
D11*
%TO.P,U1,D0*%
%TO.N,N/C*%
X126782500Y-57890000D03*
%TO.P,U1,D1*%
X124242500Y-57890000D03*
%TO.P,U1,D2*%
X134402500Y-57890000D03*
%TO.P,U1,D3*%
%TO.N,L_COL0*%
X136942500Y-57890000D03*
%TO.P,U1,D4*%
%TO.N,L_COL2*%
X139482500Y-57890000D03*
%TO.P,U1,D5*%
%TO.N,L_COL1*%
X142022500Y-57890000D03*
%TO.P,U1,D6*%
%TO.N,L_COL3*%
X144562500Y-57890000D03*
%TO.P,U1,D7*%
%TO.N,L_COL4*%
X147102500Y-57890000D03*
%TO.P,U1,D8*%
%TO.N,L_COL5*%
X149642500Y-57890000D03*
%TO.P,U1,D9*%
%TO.N,L_COL6*%
X152182500Y-57890000D03*
%TO.P,U1,D10*%
%TO.N,L_ROW0*%
X152182500Y-40110000D03*
%TO.P,U1,D14*%
%TO.N,L_ROW2*%
X147102500Y-40110000D03*
%TO.P,U1,D15*%
%TO.N,L_ROW3*%
X144562500Y-40110000D03*
%TO.P,U1,D16*%
%TO.N,L_ROW1*%
X149642500Y-40110000D03*
%TO.P,U1,D18*%
%TO.N,L_ROW4*%
X142022500Y-40110000D03*
%TO.P,U1,D19*%
%TO.N,N/C*%
X139482500Y-40110000D03*
%TO.P,U1,D20*%
X136942500Y-40110000D03*
%TO.P,U1,D21*%
X134402500Y-40110000D03*
%TO.P,U1,GND_A*%
X129322499Y-57890000D03*
%TO.P,U1,GND_B*%
X131862500Y-57890000D03*
%TO.P,U1,GND_C*%
%TO.N,GND*%
X126782500Y-40110000D03*
%TO.P,U1,RAW*%
%TO.N,N/C*%
X124242500Y-40110000D03*
%TO.P,U1,RST*%
%TO.N,RST*%
X129322499Y-40110000D03*
%TO.P,U1,VCC*%
%TO.N,N/C*%
X131862500Y-40110000D03*
%TD*%
D10*
%TO.P,SW31,1*%
%TO.N,L_COL4*%
X146315000Y-148645000D03*
%TO.P,SW31,2*%
%TO.N,LK31_D*%
X139965000Y-151185000D03*
%TD*%
D12*
%TO.P,SW_RST1,1*%
%TO.N,RST*%
X146387500Y-62150000D03*
%TO.P,SW_RST1,2*%
%TO.N,GND*%
X154137500Y-62150000D03*
%TD*%
D10*
%TO.P,SW4,1*%
%TO.N,L_COL3*%
X108215000Y-72445000D03*
%TO.P,SW4,2*%
%TO.N,LK04_D*%
X101865000Y-74985000D03*
%TD*%
%TO.P,SW12,1*%
%TO.N,L_COL4*%
X136790000Y-91495000D03*
%TO.P,SW12,2*%
%TO.N,LK12_D*%
X130440000Y-94035000D03*
%TD*%
%TO.P,SW25,1*%
%TO.N,L_COL5*%
X151077500Y-129595000D03*
%TO.P,SW25,2*%
%TO.N,LK25_D*%
X144727500Y-132135000D03*
%TD*%
%TO.P,SW7,1*%
%TO.N,L_COL6*%
X165365000Y-72445000D03*
%TO.P,SW7,2*%
%TO.N,LK07_D*%
X159015000Y-74985000D03*
%TD*%
%TO.P,SW27,1*%
%TO.N,L_COL0*%
X53446300Y-148645000D03*
%TO.P,SW27,2*%
%TO.N,LK27_D*%
X47096300Y-151185000D03*
%TD*%
%TO.P,SW21,1*%
%TO.N,L_COL1*%
X74877500Y-129595000D03*
%TO.P,SW21,2*%
%TO.N,LK21_D*%
X68527500Y-132135000D03*
%TD*%
%TO.P,SW26,1*%
%TO.N,L_COL6*%
X170127500Y-129595000D03*
%TO.P,SW26,2*%
%TO.N,LK26_D*%
X163777500Y-132135000D03*
%TD*%
%TO.P,SW1,1*%
%TO.N,L_COL0*%
X51065000Y-72445000D03*
%TO.P,SW1,2*%
%TO.N,LK01_D*%
X44715000Y-74985000D03*
%TD*%
D13*
%TO.N,L_COL0*%
X54020900Y-138594500D03*
%TO.N,L_COL5*%
X152136100Y-84186400D03*
X151755100Y-125275000D03*
%TO.N,L_COL4*%
X131678600Y-124499800D03*
X140676400Y-104066900D03*
%TO.N,L_COL3*%
X110833900Y-62527700D03*
X116789500Y-86326300D03*
%TO.N,L_COL2*%
X92967100Y-63170500D03*
X93860400Y-125500100D03*
%TO.N,L_COL1*%
X75100300Y-124494200D03*
X75796800Y-138594500D03*
X78078100Y-67975100D03*
%TO.N,L_ROW2*%
X153136600Y-87857900D03*
%TO.N,L_ROW3*%
X146624500Y-115840500D03*
%TO.N,L_ROW1*%
X135105900Y-47709900D03*
X131813300Y-73418300D03*
%TO.N,L_ROW4*%
X99924900Y-144671900D03*
%TO.N,GND*%
X152386500Y-60227100D03*
%TD*%
%TO.N,L_COL0*%
D14*
X55827500Y-90945100D02*
X56652500Y-91770100D01*
X54020900Y-148070400D02*
X54020900Y-138594500D01*
X56652500Y-108988700D02*
X58208800Y-110545000D01*
X55827500Y-85116900D02*
X55827500Y-90945100D01*
X54020900Y-130169600D02*
X53446300Y-129595000D01*
X51065000Y-72445000D02*
X55827500Y-77207500D01*
X55827500Y-77207500D02*
X55827500Y-85116900D01*
X53446300Y-148645000D02*
X54020900Y-148070400D01*
X55827500Y-85116900D02*
X55827500Y-91495000D01*
X56652500Y-91770100D02*
X56652500Y-108988700D01*
X54020900Y-138594500D02*
X54020900Y-130169600D01*
%TO.N,L_COL5*%
X150188000Y-73797200D02*
X152136100Y-75745300D01*
X150188000Y-73797200D02*
X150188000Y-58435500D01*
X146315000Y-72445000D02*
X147667200Y-73797200D01*
X151077500Y-125952600D02*
X151077500Y-129595000D01*
X155840000Y-91495000D02*
X160602500Y-96257500D01*
X152136100Y-75745300D02*
X152136100Y-84186400D01*
X160602500Y-96257500D02*
X160602500Y-110545000D01*
X152136100Y-84186400D02*
X152136100Y-87791100D01*
X152136100Y-87791100D02*
X155840000Y-91495000D01*
X147667200Y-73797200D02*
X150188000Y-73797200D01*
X150188000Y-58435500D02*
X149642500Y-57890000D01*
X151755100Y-125275000D02*
X151077500Y-125952600D01*
%TO.N,L_COL4*%
X140808700Y-95513700D02*
X140808700Y-103934600D01*
X132027500Y-124848700D02*
X132027500Y-129595000D01*
X147102500Y-57890000D02*
X147589200Y-58376700D01*
X146315000Y-148645000D02*
X146315000Y-144360400D01*
X136640000Y-74045000D02*
X136640000Y-91345000D01*
X128865000Y-74045000D02*
X136640000Y-74045000D01*
X141552500Y-110545000D02*
X141552500Y-104943000D01*
X146315000Y-144360400D02*
X132027500Y-130072900D01*
X136790000Y-91495000D02*
X140808700Y-95513700D01*
X147589200Y-63095800D02*
X136640000Y-74045000D01*
X141552500Y-104943000D02*
X140676400Y-104066900D01*
X147589200Y-58376700D02*
X147589200Y-63095800D01*
X131678600Y-124499800D02*
X132027500Y-124848700D01*
X136640000Y-91345000D02*
X136790000Y-91495000D01*
X127265000Y-72445000D02*
X128865000Y-74045000D01*
X132027500Y-130072900D02*
X132027500Y-129595000D01*
X140808700Y-103934600D02*
X140676400Y-104066900D01*
%TO.N,L_COL3*%
X120357100Y-144118300D02*
X120357100Y-132980400D01*
X116789500Y-90544500D02*
X116789500Y-86326300D01*
X117740000Y-91495000D02*
X116789500Y-90544500D01*
X120357100Y-132980400D02*
X116362900Y-132980400D01*
X123066200Y-111108700D02*
X123066200Y-130271300D01*
X122502500Y-110545000D02*
X123066200Y-111108700D01*
X110833900Y-62527700D02*
X108215000Y-65146600D01*
X124883800Y-148645000D02*
X120357100Y-144118300D01*
X116362900Y-132980400D02*
X112977500Y-129595000D01*
X122502500Y-96257500D02*
X117740000Y-91495000D01*
X108215000Y-65146600D02*
X108215000Y-72445000D01*
X123066200Y-130271300D02*
X120357100Y-132980400D01*
X122502500Y-110545000D02*
X122502500Y-96257500D01*
%TO.N,L_COL2*%
X92967100Y-63170500D02*
X92967100Y-68642900D01*
X93927500Y-125567200D02*
X93927500Y-129595000D01*
X98690000Y-91495000D02*
X103452500Y-96257500D01*
X103452500Y-96257500D02*
X103452500Y-110545000D01*
X94846800Y-142420500D02*
X94846800Y-130514300D01*
X89165000Y-72445000D02*
X93889200Y-77169200D01*
X93860400Y-125500100D02*
X93927500Y-125567200D01*
X101071300Y-148645000D02*
X94846800Y-142420500D01*
X94846800Y-130514300D02*
X93927500Y-129595000D01*
X93889200Y-86694200D02*
X98690000Y-91495000D01*
X92967100Y-68642900D02*
X89165000Y-72445000D01*
X93889200Y-77169200D02*
X93889200Y-86694200D01*
%TO.N,L_COL1*%
X74839200Y-77169200D02*
X74839200Y-86694200D01*
X70115000Y-72445000D02*
X72326900Y-74656800D01*
X74877500Y-129595000D02*
X75796800Y-130514300D01*
X75100300Y-124494200D02*
X75100300Y-129372200D01*
X75796800Y-147183000D02*
X77258800Y-148645000D01*
X72326900Y-74656800D02*
X74839200Y-77169200D01*
X75796800Y-130514300D02*
X75796800Y-138594500D01*
X84402500Y-96257500D02*
X84402500Y-110545000D01*
X74839200Y-86694200D02*
X79640000Y-91495000D01*
X79640000Y-91495000D02*
X84402500Y-96257500D01*
X78078100Y-68905600D02*
X78078100Y-67975100D01*
X75796800Y-138594500D02*
X75796800Y-147183000D01*
X75100300Y-129372200D02*
X74877500Y-129595000D01*
X72326900Y-74656800D02*
X78078100Y-68905600D01*
%TO.N,L_COL6*%
X165902500Y-72982500D02*
X165365000Y-72445000D01*
X165365000Y-71072500D02*
X152182500Y-57890000D01*
X165902500Y-125370000D02*
X165902500Y-72982500D01*
X165365000Y-72445000D02*
X165365000Y-71072500D01*
X170127500Y-129595000D02*
X165902500Y-125370000D01*
%TO.N,L_ROW2*%
X150912500Y-66942900D02*
X153136600Y-69167000D01*
X153136600Y-69167000D02*
X153136600Y-87857900D01*
X150912500Y-43920000D02*
X150912500Y-66942900D01*
X147102500Y-40110000D02*
X150912500Y-43920000D01*
%TO.N,L_ROW3*%
X148372500Y-66323900D02*
X148372500Y-43920000D01*
X148372500Y-43920000D02*
X144562500Y-40110000D01*
X147220500Y-76099700D02*
X144728100Y-73607300D01*
X146217200Y-92649800D02*
X147491800Y-91375200D01*
X147220500Y-83886100D02*
X147220500Y-76099700D01*
X147491800Y-91375200D02*
X147491800Y-84157400D01*
X146217200Y-115433200D02*
X146217200Y-92649800D01*
X144728100Y-69968300D02*
X148372500Y-66323900D01*
X146624500Y-115840500D02*
X146217200Y-115433200D01*
X144728100Y-73607300D02*
X144728100Y-69968300D01*
X147491800Y-84157400D02*
X147220500Y-83886100D01*
%TO.N,L_ROW1*%
X131813300Y-73418300D02*
X133132500Y-72099100D01*
X133132500Y-49683300D02*
X135105900Y-47709900D01*
X133132500Y-72099100D02*
X133132500Y-49683300D01*
%TO.N,L_ROW4*%
X107490200Y-120498500D02*
X99924900Y-128063800D01*
X99924900Y-128063800D02*
X99924900Y-144671900D01*
X128820400Y-38819800D02*
X128052500Y-39587700D01*
X128052500Y-65181300D02*
X107490200Y-85743600D01*
X107490200Y-85743600D02*
X107490200Y-120498500D01*
X142022500Y-40110000D02*
X140732300Y-38819800D01*
X140732300Y-38819800D02*
X128820400Y-38819800D01*
X128052500Y-39587700D02*
X128052500Y-65181300D01*
%TO.N,GND*%
X154137500Y-62150000D02*
X154137500Y-61323300D01*
X153482700Y-61323300D02*
X154137500Y-61323300D01*
X152386500Y-60227100D02*
X153482700Y-61323300D01*
%TO.N,RST*%
X143249200Y-54036700D02*
X129322500Y-40110000D01*
X143249200Y-58391700D02*
X143249200Y-54036700D01*
X146387500Y-61323300D02*
X146180800Y-61323300D01*
X146387500Y-62150000D02*
X146387500Y-61323300D01*
X146180800Y-61323300D02*
X143249200Y-58391700D01*
%TD*%
M02*
