M48
; DRILL file KiCad 10.0.3 date 2026-08-29T10:22:01
; FORMAT={-:-/ absolute / metric / decimal}
; #@! TF.CreationDate,2026-08-29T10:22:01+09:00
; #@! TF.GenerationSoftware,Kicad,Pcbnew,10.0.3
; #@! TF.FileFunction,Plated,1,2,PTH
FMAT,2
METRIC
; #@! TA.AperFunction,Plated,PTH,ViaDrill
T1C0.300
; #@! TA.AperFunction,Plated,PTH,ComponentDrill
T2C0.800
; #@! TA.AperFunction,Plated,PTH,ComponentDrill
T3C0.900
; #@! TA.AperFunction,Plated,PTH,ComponentDrill
T4C0.950
; #@! TA.AperFunction,Plated,PTH,ComponentDrill
T5C1.500
%
G90
G05
T1
X71.759Y-139.405
X91.5Y-70.3
X97.953Y-103.492
X98.868Y-104.325
X103.416Y-94.286
X109.911Y-124.441
X117.002Y-100.5
X124.619Y-144.567
X127.5Y-125.75
X128.5Y-70.0
X129.0Y-68.0
X131.3Y-63.45
X136.052Y-103.492
X136.385Y-145.366
X136.5Y-59.4
X139.918Y-127.434
X142.285Y-106.356
X145.118Y-88.651
X150.005Y-70.175
X150.85Y-61.594
X160.128Y-80.057
T2
X113.272Y-63.45
X115.812Y-63.45
X118.352Y-63.45
T3
X113.272Y-59.4
X115.812Y-59.4
T4
X118.742Y-43.13
X118.742Y-58.37
X121.282Y-43.13
X121.282Y-58.37
X123.822Y-43.13
X123.822Y-58.37
X126.362Y-43.13
X126.362Y-58.37
X128.903Y-43.13
X128.903Y-58.37
X131.442Y-43.13
X131.442Y-58.37
X133.982Y-43.13
X133.982Y-58.37
X136.523Y-43.13
X136.523Y-58.37
X139.062Y-43.13
X139.062Y-58.37
X141.602Y-43.13
X141.602Y-58.37
X144.142Y-43.13
X144.142Y-58.37
X146.683Y-43.13
X146.683Y-58.37
T5
X40.485Y-82.605
X40.485Y-139.755
X42.866Y-158.805
X45.247Y-101.655
X46.835Y-80.065
X46.835Y-137.215
X47.629Y-120.705
X49.216Y-156.265
X51.597Y-99.115
X53.979Y-118.165
X58.265Y-74.985
X60.646Y-132.135
X64.615Y-72.445
X65.409Y-151.185
X66.996Y-129.595
X67.79Y-94.035
X71.759Y-148.645
X72.552Y-113.085
X74.14Y-91.495
X77.315Y-74.985
X78.903Y-110.545
X82.078Y-132.135
X83.665Y-72.445
X86.84Y-94.035
X88.427Y-129.595
X89.221Y-151.185
X91.602Y-113.085
X93.19Y-91.495
X95.571Y-148.645
X96.365Y-74.985
X97.953Y-110.545
X101.127Y-132.135
X102.715Y-72.445
X105.89Y-94.035
X107.477Y-129.595
X110.652Y-113.085
X112.24Y-91.495
X115.415Y-74.985
X117.002Y-110.545
X117.796Y-151.185
X120.177Y-132.135
X121.765Y-72.445
X124.146Y-148.645
X124.94Y-94.035
X126.527Y-129.595
X129.702Y-113.085
X131.29Y-91.495
X134.465Y-74.985
X136.052Y-110.545
X139.227Y-132.135
X140.815Y-72.445
X143.99Y-94.035
X145.577Y-129.595
X148.752Y-113.085
X150.34Y-91.495
X151.134Y-151.185
X153.515Y-74.985
X155.102Y-110.545
X157.484Y-148.645
X158.278Y-132.135
X159.865Y-72.445
X164.627Y-129.595
M30
