M48
; DRILL file KiCad 10.0.3 date 2026-08-20T07:58:21
; FORMAT={-:-/ absolute / metric / decimal}
; #@! TF.CreationDate,2026-08-20T07:58:21+09:00
; #@! TF.GenerationSoftware,Kicad,Pcbnew,10.0.3
; #@! TF.FileFunction,NonPlated,1,2,NPTH
FMAT,2
METRIC
; #@! TA.AperFunction,NonPlated,NPTH,ComponentDrill
T1C1.650
; #@! TA.AperFunction,NonPlated,NPTH,ComponentDrill
T2C1.700
; #@! TA.AperFunction,NonPlated,NPTH,ComponentDrill
T3C2.200
; #@! TA.AperFunction,NonPlated,NPTH,ComponentDrill
T4C3.000
; #@! TA.AperFunction,NonPlated,NPTH,ComponentDrill
T5C5.000
%
G90
G05
T1
X39.025Y-82.675
X41.406Y-139.825
X41.406Y-158.875
X43.788Y-101.725
X46.169Y-120.775
X68.075Y-72.375
X72.837Y-129.525
X75.219Y-148.575
X77.6Y-91.425
X82.362Y-110.475
X87.125Y-72.375
X91.888Y-129.525
X96.65Y-91.425
X99.031Y-148.575
X101.412Y-110.475
X106.175Y-72.375
X110.938Y-129.525
X115.7Y-91.425
X120.462Y-110.475
X120.462Y-148.575
X125.225Y-72.375
X129.987Y-129.525
X134.75Y-91.425
X139.512Y-110.475
X141.894Y-148.575
X144.275Y-72.375
X149.037Y-129.525
X153.8Y-91.425
X158.562Y-110.475
X163.325Y-72.375
X165.706Y-148.575
X168.088Y-129.525
T2
X38.945Y-77.525
X41.326Y-134.675
X41.326Y-153.725
X43.707Y-96.575
X46.089Y-115.625
X49.105Y-77.525
X51.486Y-134.675
X51.486Y-153.725
X53.867Y-96.575
X56.249Y-115.625
X57.995Y-77.525
X62.758Y-134.675
X65.139Y-153.725
X67.52Y-96.575
X68.155Y-77.525
X72.282Y-115.625
X72.917Y-134.675
X75.299Y-153.725
X77.045Y-77.525
X77.68Y-96.575
X81.807Y-134.675
X82.442Y-115.625
X86.57Y-96.575
X87.205Y-77.525
X88.951Y-153.725
X91.332Y-115.625
X91.968Y-134.675
X96.095Y-77.525
X96.73Y-96.575
X99.111Y-153.725
X100.858Y-134.675
X101.492Y-115.625
X105.62Y-96.575
X106.255Y-77.525
X110.382Y-115.625
X110.382Y-153.725
X111.017Y-134.675
X115.145Y-77.525
X115.78Y-96.575
X119.907Y-134.675
X120.542Y-115.625
X120.542Y-153.725
X124.67Y-96.575
X125.305Y-77.525
X129.433Y-115.625
X130.067Y-134.675
X131.814Y-153.725
X134.195Y-77.525
X134.83Y-96.575
X138.957Y-134.675
X139.593Y-115.625
X141.974Y-153.725
X143.72Y-96.575
X144.355Y-77.525
X148.482Y-115.625
X149.118Y-134.675
X153.245Y-77.525
X153.88Y-96.575
X155.626Y-153.725
X158.007Y-134.675
X158.642Y-115.625
X163.405Y-77.525
X165.786Y-153.725
X168.167Y-134.675
T4
X44.025Y-71.625
X46.406Y-128.775
X46.406Y-147.825
X48.787Y-90.675
X49.025Y-73.725
X51.169Y-109.725
X51.406Y-130.875
X51.406Y-149.925
X53.787Y-92.775
X56.169Y-111.825
X58.075Y-81.325
X62.837Y-138.475
X63.075Y-83.425
X65.219Y-157.525
X67.6Y-100.375
X67.837Y-140.575
X70.219Y-159.625
X72.362Y-119.425
X72.6Y-102.475
X77.125Y-81.325
X77.362Y-121.525
X81.888Y-138.475
X82.125Y-83.425
X86.65Y-100.375
X86.888Y-140.575
X89.031Y-157.525
X91.412Y-119.425
X91.65Y-102.475
X94.031Y-159.625
X96.175Y-81.325
X96.412Y-121.525
X100.938Y-138.475
X101.175Y-83.425
X105.7Y-100.375
X105.938Y-140.575
X110.462Y-119.425
X110.462Y-157.525
X110.7Y-102.475
X115.225Y-81.325
X115.462Y-121.525
X115.462Y-159.625
X119.987Y-138.475
X120.225Y-83.425
X124.75Y-100.375
X124.987Y-140.575
X129.512Y-119.425
X129.75Y-102.475
X131.894Y-157.525
X134.275Y-81.325
X134.512Y-121.525
X136.894Y-159.625
X139.037Y-138.475
X139.275Y-83.425
X143.8Y-100.375
X144.037Y-140.575
X148.562Y-119.425
X148.8Y-102.475
X153.325Y-81.325
X153.562Y-121.525
X155.706Y-157.525
X158.088Y-138.475
X158.325Y-83.425
X160.706Y-159.625
X163.088Y-140.575
T5
X44.025Y-77.525
X46.406Y-134.675
X46.406Y-153.725
X48.787Y-96.575
X51.169Y-115.625
X63.075Y-77.525
X67.837Y-134.675
X70.219Y-153.725
X72.6Y-96.575
X77.362Y-115.625
X82.125Y-77.525
X86.888Y-134.675
X91.65Y-96.575
X94.031Y-153.725
X96.412Y-115.625
X101.175Y-77.525
X105.938Y-134.675
X110.7Y-96.575
X115.462Y-115.625
X115.462Y-153.725
X120.225Y-77.525
X124.987Y-134.675
X129.75Y-96.575
X134.512Y-115.625
X136.894Y-153.725
X139.275Y-77.525
X144.037Y-134.675
X148.8Y-96.575
X153.562Y-115.625
X158.325Y-77.525
X160.706Y-153.725
X163.088Y-134.675
T3
X118.212Y-49.0G85X119.612Y-49.0
G05
M30
