%TF.GenerationSoftware,KiCad,Pcbnew,10.0.3*%
%TF.CreationDate,2026-08-31T23:18:03+09:00*%
%TF.ProjectId,kc2_left-x3-v2,6b63325f-6c65-4667-942d-78332d76322e,draft-v2*%
%TF.SameCoordinates,Original*%
%TF.FileFunction,Soldermask,Bot*%
%TF.FilePolarity,Negative*%
%FSLAX46Y46*%
G04 Gerber Fmt 4.6, Leading zero omitted, Abs format (unit mm)*
G04 Created by KiCad (PCBNEW 10.0.3) date 2026-08-31 23:18:03*
%MOMM*%
%LPD*%
G01*
G04 APERTURE LIST*
G04 Aperture macros list*
%AMRoundRect*
0 Rectangle with rounded corners*
0 $1 Rounding radius*
0 $2 $3 $4 $5 $6 $7 $8 $9 X,Y pos of 4 corners*
0 Add a 4 corners polygon primitive as box body*
4,1,4,$2,$3,$4,$5,$6,$7,$8,$9,$2,$3,0*
0 Add four circle primitives for the rounded corners*
1,1,$1+$1,$2,$3*
1,1,$1+$1,$4,$5*
1,1,$1+$1,$6,$7*
1,1,$1+$1,$8,$9*
0 Add four rect primitives between the rounded corners*
20,1,$1+$1,$2,$3,$4,$5,0*
20,1,$1+$1,$4,$5,$6,$7,0*
20,1,$1+$1,$6,$7,$8,$9,0*
20,1,$1+$1,$8,$9,$2,$3,0*%
G04 Aperture macros list end*
%ADD10C,1.700000*%
%ADD11C,3.000000*%
%ADD12C,5.000000*%
%ADD13C,1.650000*%
%ADD14C,2.500000*%
%ADD15RoundRect,0.520000X-0.780000X-0.780000X0.780000X-0.780000X0.780000X0.780000X-0.780000X0.780000X0*%
%ADD16C,1.600000*%
%ADD17O,3.600000X2.200000*%
%ADD18RoundRect,0.520000X0.780000X0.780000X-0.780000X0.780000X-0.780000X-0.780000X0.780000X-0.780000X0*%
%ADD19O,2.200000X1.800000*%
%ADD20RoundRect,0.250000X0.650000X0.650000X-0.650000X0.650000X-0.650000X-0.650000X0.650000X-0.650000X0*%
%ADD21RoundRect,0.250000X-0.650000X0.650000X-0.650000X-0.650000X0.650000X-0.650000X0.650000X0.650000X0*%
%ADD22RoundRect,0.250000X0.650000X-0.650000X0.650000X0.650000X-0.650000X0.650000X-0.650000X-0.650000X0*%
G04 APERTURE END LIST*
D10*
%TO.C,SW12*%
X123670000Y-96575000D03*
D11*
X123750000Y-100375000D03*
D12*
X128750000Y-96575000D03*
D11*
X128750000Y-102475000D03*
D13*
X133750000Y-91425000D03*
D10*
X133830000Y-96575000D03*
D14*
X131290000Y-91495000D03*
D15*
X132450000Y-102475000D03*
X120050000Y-100375000D03*
D14*
X124940000Y-94035000D03*
%TD*%
D16*
%TO.C,MH5*%
X81112500Y-151750000D03*
%TD*%
%TO.C,MH8*%
X75000000Y-134000000D03*
%TD*%
%TO.C,SW_PWR1*%
X115812500Y-63450000D03*
X113272500Y-63450000D03*
X118352500Y-63450000D03*
%TD*%
D10*
%TO.C,SW5*%
X114145000Y-77525000D03*
D11*
X114225000Y-81325000D03*
D12*
X119225000Y-77525000D03*
D11*
X119225000Y-83425000D03*
D13*
X124225000Y-72375000D03*
D10*
X124305000Y-77525000D03*
D14*
X121765000Y-72445000D03*
D15*
X122925000Y-83425000D03*
X110525000Y-81325000D03*
D14*
X115415000Y-74985000D03*
%TD*%
D16*
%TO.C,MH1*%
X112862500Y-43000000D03*
%TD*%
%TO.C,MH4*%
X63612500Y-123000000D03*
%TD*%
D17*
%TO.C,BAT_LEAD_SLOT1*%
X117912500Y-50750000D03*
%TD*%
D16*
%TO.C,MH2*%
X144112500Y-66250000D03*
%TD*%
%TO.C,MH6*%
X137362500Y-153500000D03*
%TD*%
D10*
%TO.C,SW24*%
X118907500Y-134675000D03*
D11*
X118987500Y-138475000D03*
D12*
X123987500Y-134675000D03*
D11*
X123987500Y-140575000D03*
D13*
X128987500Y-129525000D03*
D10*
X129067500Y-134675000D03*
D14*
X126527500Y-129595000D03*
D15*
X127687500Y-140575000D03*
X115287500Y-138475000D03*
D14*
X120177500Y-132135000D03*
%TD*%
D10*
%TO.C,SW10*%
X85570000Y-96575000D03*
D11*
X85650000Y-100375000D03*
D12*
X90650000Y-96575000D03*
D11*
X90650000Y-102475000D03*
D13*
X95650000Y-91425000D03*
D10*
X95730000Y-96575000D03*
D14*
X93190000Y-91495000D03*
D15*
X94350000Y-102475000D03*
X81950000Y-100375000D03*
D14*
X86840000Y-94035000D03*
%TD*%
D10*
%TO.C,SW7*%
X152245000Y-77525000D03*
D11*
X152325000Y-81325000D03*
D12*
X157325000Y-77525000D03*
D11*
X157325000Y-83425000D03*
D13*
X162325000Y-72375000D03*
D10*
X162405000Y-77525000D03*
D14*
X159865000Y-72445000D03*
D15*
X161025000Y-83425000D03*
X148625000Y-81325000D03*
D14*
X153515000Y-74985000D03*
%TD*%
D10*
%TO.C,SW2*%
X56995000Y-77525000D03*
D11*
X57075000Y-81325000D03*
D12*
X62075000Y-77525000D03*
D11*
X62075000Y-83425000D03*
D13*
X67075000Y-72375000D03*
D10*
X67155000Y-77525000D03*
D14*
X64615000Y-72445000D03*
D15*
X65775000Y-83425000D03*
X53375000Y-81325000D03*
D14*
X58265000Y-74985000D03*
%TD*%
D10*
%TO.C,SW25*%
X137957500Y-134675000D03*
D11*
X138037500Y-138475000D03*
D12*
X143037500Y-134675000D03*
D11*
X143037500Y-140575000D03*
D13*
X148037500Y-129525000D03*
D10*
X148117500Y-134675000D03*
D14*
X145577500Y-129595000D03*
D15*
X146737500Y-140575000D03*
X134337500Y-138475000D03*
D14*
X139227500Y-132135000D03*
%TD*%
D10*
%TO.C,SW29*%
X87951300Y-153725000D03*
D11*
X88031300Y-157525000D03*
D12*
X93031300Y-153725000D03*
D11*
X93031300Y-159625000D03*
D13*
X98031300Y-148575000D03*
D10*
X98111300Y-153725000D03*
D14*
X95571300Y-148645000D03*
D15*
X96731300Y-159625000D03*
X84331300Y-157525000D03*
D14*
X89221300Y-151185000D03*
%TD*%
D10*
%TO.C,SW16*%
X90332500Y-115625000D03*
D11*
X90412500Y-119425000D03*
D12*
X95412500Y-115625000D03*
D11*
X95412500Y-121525000D03*
D13*
X100412500Y-110475000D03*
D10*
X100492500Y-115625000D03*
D14*
X97952500Y-110545000D03*
D15*
X99112500Y-121525000D03*
X86712500Y-119425000D03*
D14*
X91602500Y-113085000D03*
%TD*%
D10*
%TO.C,SW9*%
X66520000Y-96575000D03*
D11*
X66600000Y-100375000D03*
D12*
X71600000Y-96575000D03*
D11*
X71600000Y-102475000D03*
D13*
X76600000Y-91425000D03*
D10*
X76680000Y-96575000D03*
D14*
X74140000Y-91495000D03*
D15*
X75300000Y-102475000D03*
X62900000Y-100375000D03*
D14*
X67790000Y-94035000D03*
%TD*%
D10*
%TO.C,SW31*%
X149863800Y-153725000D03*
D11*
X149943800Y-157525000D03*
D12*
X154943800Y-153725000D03*
D11*
X154943800Y-159625000D03*
D13*
X159943800Y-148575000D03*
D10*
X160023800Y-153725000D03*
D14*
X157483800Y-148645000D03*
D15*
X158643800Y-159625000D03*
X146243800Y-157525000D03*
D14*
X151133800Y-151185000D03*
%TD*%
D10*
%TO.C,SW8*%
X52867500Y-96575000D03*
D11*
X52787500Y-92775000D03*
D12*
X47787500Y-96575000D03*
D11*
X47787500Y-90675000D03*
D13*
X42787500Y-101725000D03*
D10*
X42707500Y-96575000D03*
D14*
X45247500Y-101655000D03*
D18*
X44087500Y-90675000D03*
X56487500Y-92775000D03*
D14*
X51597500Y-99115000D03*
%TD*%
D10*
%TO.C,SW6*%
X133195000Y-77525000D03*
D11*
X133275000Y-81325000D03*
D12*
X138275000Y-77525000D03*
D11*
X138275000Y-83425000D03*
D13*
X143275000Y-72375000D03*
D10*
X143355000Y-77525000D03*
D14*
X140815000Y-72445000D03*
D15*
X141975000Y-83425000D03*
X129575000Y-81325000D03*
D14*
X134465000Y-74985000D03*
%TD*%
D16*
%TO.C,MH7*%
X166362500Y-148750000D03*
%TD*%
D10*
%TO.C,SW23*%
X99857500Y-134675000D03*
D11*
X99937500Y-138475000D03*
D12*
X104937500Y-134675000D03*
D11*
X104937500Y-140575000D03*
D13*
X109937500Y-129525000D03*
D10*
X110017500Y-134675000D03*
D14*
X107477500Y-129595000D03*
D15*
X108637500Y-140575000D03*
X96237500Y-138475000D03*
D14*
X101127500Y-132135000D03*
%TD*%
D10*
%TO.C,SW1*%
X48105000Y-77525000D03*
D11*
X48025000Y-73725000D03*
D12*
X43025000Y-77525000D03*
D11*
X43025000Y-71625000D03*
D13*
X38025000Y-82675000D03*
D10*
X37945000Y-77525000D03*
D14*
X40485000Y-82605000D03*
D18*
X39325000Y-71625000D03*
X51725000Y-73725000D03*
D14*
X46835000Y-80065000D03*
%TD*%
D10*
%TO.C,SW30*%
X116526300Y-153725000D03*
D11*
X116606300Y-157525000D03*
D12*
X121606300Y-153725000D03*
D11*
X121606300Y-159625000D03*
D13*
X126606300Y-148575000D03*
D10*
X126686300Y-153725000D03*
D14*
X124146300Y-148645000D03*
D15*
X125306300Y-159625000D03*
X112906300Y-157525000D03*
D14*
X117796300Y-151185000D03*
%TD*%
D10*
%TO.C,SW26*%
X157007500Y-134675000D03*
D11*
X157087500Y-138475000D03*
D12*
X162087500Y-134675000D03*
D11*
X162087500Y-140575000D03*
D13*
X167087500Y-129525000D03*
D10*
X167167500Y-134675000D03*
D14*
X164627500Y-129595000D03*
D15*
X165787500Y-140575000D03*
X153387500Y-138475000D03*
D14*
X158277500Y-132135000D03*
%TD*%
D10*
%TO.C,SW20*%
X48105000Y-134675000D03*
D11*
X48025000Y-130875000D03*
D12*
X43025000Y-134675000D03*
D11*
X43025000Y-128775000D03*
D13*
X38025000Y-139825000D03*
D10*
X37945000Y-134675000D03*
D14*
X40485000Y-139755000D03*
D18*
X39325000Y-128775000D03*
X51725000Y-130875000D03*
D14*
X46835000Y-137215000D03*
%TD*%
D10*
%TO.C,SW22*%
X80807500Y-134675000D03*
D11*
X80887500Y-138475000D03*
D12*
X85887500Y-134675000D03*
D11*
X85887500Y-140575000D03*
D13*
X90887500Y-129525000D03*
D10*
X90967500Y-134675000D03*
D14*
X88427500Y-129595000D03*
D15*
X89587500Y-140575000D03*
X77187500Y-138475000D03*
D14*
X82077500Y-132135000D03*
%TD*%
D10*
%TO.C,SW15*%
X71282500Y-115625000D03*
D11*
X71362500Y-119425000D03*
D12*
X76362500Y-115625000D03*
D11*
X76362500Y-121525000D03*
D13*
X81362500Y-110475000D03*
D10*
X81442500Y-115625000D03*
D14*
X78902500Y-110545000D03*
D15*
X80062500Y-121525000D03*
X67662500Y-119425000D03*
D14*
X72552500Y-113085000D03*
%TD*%
D10*
%TO.C,SW3*%
X76045000Y-77525000D03*
D11*
X76125000Y-81325000D03*
D12*
X81125000Y-77525000D03*
D11*
X81125000Y-83425000D03*
D13*
X86125000Y-72375000D03*
D10*
X86205000Y-77525000D03*
D14*
X83665000Y-72445000D03*
D15*
X84825000Y-83425000D03*
X72425000Y-81325000D03*
D14*
X77315000Y-74985000D03*
%TD*%
D10*
%TO.C,SW11*%
X104620000Y-96575000D03*
D11*
X104700000Y-100375000D03*
D12*
X109700000Y-96575000D03*
D11*
X109700000Y-102475000D03*
D13*
X114700000Y-91425000D03*
D10*
X114780000Y-96575000D03*
D14*
X112240000Y-91495000D03*
D15*
X113400000Y-102475000D03*
X101000000Y-100375000D03*
D14*
X105890000Y-94035000D03*
%TD*%
D10*
%TO.C,SW14*%
X55248700Y-115625000D03*
D11*
X55168700Y-111825000D03*
D12*
X50168700Y-115625000D03*
D11*
X50168700Y-109725000D03*
D13*
X45168700Y-120775000D03*
D10*
X45088700Y-115625000D03*
D14*
X47628700Y-120705000D03*
D18*
X46468700Y-109725000D03*
X58868700Y-111825000D03*
D14*
X53978700Y-118165000D03*
%TD*%
D10*
%TO.C,SW4*%
X95095000Y-77525000D03*
D11*
X95175000Y-81325000D03*
D12*
X100175000Y-77525000D03*
D11*
X100175000Y-83425000D03*
D13*
X105175000Y-72375000D03*
D10*
X105255000Y-77525000D03*
D14*
X102715000Y-72445000D03*
D15*
X103875000Y-83425000D03*
X91475000Y-81325000D03*
D14*
X96365000Y-74985000D03*
%TD*%
D10*
%TO.C,SW17*%
X109382500Y-115625000D03*
D11*
X109462500Y-119425000D03*
D12*
X114462500Y-115625000D03*
D11*
X114462500Y-121525000D03*
D13*
X119462500Y-110475000D03*
D10*
X119542500Y-115625000D03*
D14*
X117002500Y-110545000D03*
D15*
X118162500Y-121525000D03*
X105762500Y-119425000D03*
D14*
X110652500Y-113085000D03*
%TD*%
D10*
%TO.C,SW28*%
X64138800Y-153725000D03*
D11*
X64218800Y-157525000D03*
D12*
X69218800Y-153725000D03*
D11*
X69218800Y-159625000D03*
D13*
X74218800Y-148575000D03*
D10*
X74298800Y-153725000D03*
D14*
X71758800Y-148645000D03*
D15*
X72918800Y-159625000D03*
X60518800Y-157525000D03*
D14*
X65408800Y-151185000D03*
%TD*%
D10*
%TO.C,SW21*%
X59376300Y-134675000D03*
D11*
X59456300Y-138475000D03*
D12*
X64456300Y-134675000D03*
D11*
X64456300Y-140575000D03*
D13*
X69456300Y-129525000D03*
D10*
X69536300Y-134675000D03*
D14*
X66996300Y-129595000D03*
D15*
X68156300Y-140575000D03*
X55756300Y-138475000D03*
D14*
X60646300Y-132135000D03*
%TD*%
D19*
%TO.C,J_BAT1*%
X115812500Y-59400000D03*
X113272500Y-59400000D03*
%TD*%
D10*
%TO.C,SW18*%
X128432500Y-115625000D03*
D11*
X128512500Y-119425000D03*
D12*
X133512500Y-115625000D03*
D11*
X133512500Y-121525000D03*
D13*
X138512500Y-110475000D03*
D10*
X138592500Y-115625000D03*
D14*
X136052500Y-110545000D03*
D15*
X137212500Y-121525000D03*
X124812500Y-119425000D03*
D14*
X129702500Y-113085000D03*
%TD*%
D16*
%TO.C,MH3*%
X38612500Y-111000000D03*
%TD*%
D10*
%TO.C,SW27*%
X50486300Y-153725000D03*
D11*
X50406300Y-149925000D03*
D12*
X45406300Y-153725000D03*
D11*
X45406300Y-147825000D03*
D13*
X40406300Y-158875000D03*
D10*
X40326300Y-153725000D03*
D14*
X42866300Y-158805000D03*
D18*
X41706300Y-147825000D03*
X54106300Y-149925000D03*
D14*
X49216300Y-156265000D03*
%TD*%
D10*
%TO.C,SW19*%
X147482500Y-115625000D03*
D11*
X147562500Y-119425000D03*
D12*
X152562500Y-115625000D03*
D11*
X152562500Y-121525000D03*
D13*
X157562500Y-110475000D03*
D10*
X157642500Y-115625000D03*
D14*
X155102500Y-110545000D03*
D15*
X156262500Y-121525000D03*
X143862500Y-119425000D03*
D14*
X148752500Y-113085000D03*
%TD*%
D10*
%TO.C,SW13*%
X142720000Y-96575000D03*
D11*
X142800000Y-100375000D03*
D12*
X147800000Y-96575000D03*
D11*
X147800000Y-102475000D03*
D13*
X152800000Y-91425000D03*
D10*
X152880000Y-96575000D03*
D14*
X150340000Y-91495000D03*
D15*
X151500000Y-102475000D03*
X139100000Y-100375000D03*
D14*
X143990000Y-94035000D03*
%TD*%
D20*
%TO.C,D28*%
X64318800Y-146725000D03*
X60118800Y-146725000D03*
%TD*%
D21*
%TO.C,D5*%
X110475000Y-72175000D03*
X110475000Y-76375000D03*
%TD*%
D20*
%TO.C,D15*%
X71462500Y-108625000D03*
X67262500Y-108625000D03*
%TD*%
%TO.C,D16*%
X90512500Y-108625000D03*
X86312500Y-108625000D03*
%TD*%
%TO.C,D22*%
X80987500Y-127675000D03*
X76787500Y-127675000D03*
%TD*%
%TO.C,D26*%
X157187500Y-127675000D03*
X152987500Y-127675000D03*
%TD*%
%TO.C,D21*%
X59556300Y-127675000D03*
X55356300Y-127675000D03*
%TD*%
D22*
%TO.C,D2*%
X69075000Y-86625000D03*
X69075000Y-82425000D03*
%TD*%
D20*
%TO.C,D29*%
X88131300Y-146725000D03*
X83931300Y-146725000D03*
%TD*%
%TO.C,D27*%
X57006300Y-156975000D03*
X52806300Y-156975000D03*
%TD*%
D21*
%TO.C,D6*%
X129525000Y-72175000D03*
X129525000Y-76375000D03*
%TD*%
D20*
%TO.C,D14*%
X59268700Y-122625000D03*
X55068700Y-122625000D03*
%TD*%
%TO.C,D11*%
X104800000Y-89575000D03*
X100600000Y-89575000D03*
%TD*%
%TO.C,D30*%
X116706300Y-146725000D03*
X112506300Y-146725000D03*
%TD*%
%TO.C,D18*%
X128612500Y-108625000D03*
X124412500Y-108625000D03*
%TD*%
%TO.C,D31*%
X150043800Y-146725000D03*
X145843800Y-146725000D03*
%TD*%
%TO.C,D23*%
X100037500Y-127675000D03*
X95837500Y-127675000D03*
%TD*%
D21*
%TO.C,D3*%
X72375000Y-72175000D03*
X72375000Y-76375000D03*
%TD*%
D20*
%TO.C,D10*%
X85750000Y-89575000D03*
X81550000Y-89575000D03*
%TD*%
%TO.C,D24*%
X119087500Y-127675000D03*
X114887500Y-127675000D03*
%TD*%
%TO.C,D12*%
X123850000Y-89575000D03*
X119650000Y-89575000D03*
%TD*%
%TO.C,D13*%
X142900000Y-89575000D03*
X138700000Y-89575000D03*
%TD*%
%TO.C,D25*%
X138137500Y-127675000D03*
X133937500Y-127675000D03*
%TD*%
%TO.C,D8*%
X56887500Y-103575000D03*
X52687500Y-103575000D03*
%TD*%
%TO.C,D19*%
X147662500Y-108625000D03*
X143462500Y-108625000D03*
%TD*%
%TO.C,D1*%
X52125000Y-84525000D03*
X47925000Y-84525000D03*
%TD*%
D21*
%TO.C,D7*%
X148575000Y-72175000D03*
X148575000Y-76375000D03*
%TD*%
D20*
%TO.C,D9*%
X66700000Y-89575000D03*
X62500000Y-89575000D03*
%TD*%
D21*
%TO.C,D4*%
X91425000Y-72175000D03*
X91425000Y-76375000D03*
%TD*%
D20*
%TO.C,D17*%
X109562500Y-108625000D03*
X105362500Y-108625000D03*
%TD*%
%TO.C,D20*%
X52125000Y-141675000D03*
X47925000Y-141675000D03*
%TD*%
M02*
