%TF.GenerationSoftware,KiCad,Pcbnew,10.0.3*%
%TF.CreationDate,2026-08-25T02:24:56+09:00*%
%TF.ProjectId,kc2_left-x3-v2,6b63325f-6c65-4667-942d-78332d76322e,draft-v2*%
%TF.SameCoordinates,Original*%
%TF.FileFunction,Copper,L2,Bot*%
%TF.FilePolarity,Positive*%
%FSLAX46Y46*%
G04 Gerber Fmt 4.6, Leading zero omitted, Abs format (unit mm)*
G04 Created by KiCad (PCBNEW 10.0.3) date 2026-08-25 02:24:56*
%MOMM*%
%LPD*%
G01*
G04 APERTURE LIST*
G04 Aperture macros list*
%AMRoundRect*
0 Rectangle with rounded corners*
0 $1 Rounding radius*
0 $2 $3 $4 $5 $6 $7 $8 $9 X,Y pos of 4 corners*
0 Add a 4 corners polygon primitive as box body*
4,1,4,$2,$3,$4,$5,$6,$7,$8,$9,$2,$3,0*
0 Add four circle primitives for the rounded corners*
1,1,$1+$1,$2,$3*
1,1,$1+$1,$4,$5*
1,1,$1+$1,$6,$7*
1,1,$1+$1,$8,$9*
0 Add four rect primitives between the rounded corners*
20,1,$1+$1,$2,$3,$4,$5,0*
20,1,$1+$1,$4,$5,$6,$7,0*
20,1,$1+$1,$6,$7,$8,$9,0*
20,1,$1+$1,$8,$9,$2,$3,0*%
G04 Aperture macros list end*
%TA.AperFunction,ComponentPad*%
%ADD10C,2.500000*%
%TD*%
%TA.AperFunction,SMDPad,CuDef*%
%ADD11RoundRect,0.520000X-0.780000X-0.780000X0.780000X-0.780000X0.780000X0.780000X-0.780000X0.780000X0*%
%TD*%
%TA.AperFunction,ComponentPad*%
%ADD12C,1.800000*%
%TD*%
%TA.AperFunction,SMDPad,CuDef*%
%ADD13RoundRect,0.520000X0.780000X0.780000X-0.780000X0.780000X-0.780000X-0.780000X0.780000X-0.780000X0*%
%TD*%
%TA.AperFunction,SMDPad,CuDef*%
%ADD14RoundRect,0.250000X0.650000X0.650000X-0.650000X0.650000X-0.650000X-0.650000X0.650000X-0.650000X0*%
%TD*%
%TA.AperFunction,SMDPad,CuDef*%
%ADD15RoundRect,0.250000X-0.650000X0.650000X-0.650000X-0.650000X0.650000X-0.650000X0.650000X0.650000X0*%
%TD*%
%TA.AperFunction,SMDPad,CuDef*%
%ADD16RoundRect,0.250000X0.650000X-0.650000X0.650000X0.650000X-0.650000X0.650000X-0.650000X-0.650000X0*%
%TD*%
%TA.AperFunction,ViaPad*%
%ADD17C,0.600000*%
%TD*%
%TA.AperFunction,Conductor*%
%ADD18C,0.250000*%
%TD*%
G04 APERTURE END LIST*
D10*
%TO.P,SW18,1*%
%TO.N,L_COL4*%
X136052500Y-110545000D03*
D11*
X137212500Y-121525000D03*
%TO.P,SW18,2*%
%TO.N,LK18_D*%
X124812500Y-119425000D03*
D10*
X129702500Y-113085000D03*
%TD*%
%TO.P,SW23,1*%
%TO.N,L_COL3*%
X107477500Y-129595000D03*
D11*
X108637500Y-140575000D03*
%TO.P,SW23,2*%
%TO.N,LK23_D*%
X96237500Y-138475000D03*
D10*
X101127500Y-132135000D03*
%TD*%
D12*
%TO.P,U1,D0*%
%TO.N,N/C*%
X121282500Y-56620000D03*
%TO.P,U1,D1*%
X118742500Y-56620000D03*
%TO.P,U1,D2*%
X128902500Y-56620000D03*
%TO.P,U1,D3*%
%TO.N,L_COL0*%
X131442500Y-56620000D03*
%TO.P,U1,D4*%
%TO.N,L_COL2*%
X133982500Y-56620000D03*
%TO.P,U1,D5*%
%TO.N,L_COL1*%
X136522500Y-56620000D03*
%TO.P,U1,D6*%
%TO.N,L_COL3*%
X139062500Y-56620000D03*
%TO.P,U1,D7*%
%TO.N,L_COL4*%
X141602500Y-56620000D03*
%TO.P,U1,D8*%
%TO.N,L_COL5*%
X144142500Y-56620000D03*
%TO.P,U1,D9*%
%TO.N,L_COL6*%
X146682500Y-56620000D03*
%TO.P,U1,D10*%
%TO.N,L_ROW0*%
X146682500Y-41380000D03*
%TO.P,U1,D14*%
%TO.N,L_ROW2*%
X141602500Y-41380000D03*
%TO.P,U1,D15*%
%TO.N,L_ROW3*%
X139062500Y-41380000D03*
%TO.P,U1,D16*%
%TO.N,L_ROW1*%
X144142500Y-41380000D03*
%TO.P,U1,D18*%
%TO.N,L_ROW4*%
X136522500Y-41380000D03*
%TO.P,U1,D19*%
%TO.N,N/C*%
X133982500Y-41380000D03*
%TO.P,U1,D20*%
X131442500Y-41380000D03*
%TO.P,U1,D21*%
X128902500Y-41380000D03*
%TO.P,U1,GND_A*%
X123822500Y-56620000D03*
%TO.P,U1,GND_B*%
X126362500Y-56620000D03*
%TO.P,U1,GND_C*%
%TO.N,GND*%
X121282500Y-41380000D03*
%TO.P,U1,RAW*%
%TO.N,N/C*%
X118742500Y-41380000D03*
%TO.P,U1,RST*%
%TO.N,RST*%
X123822500Y-41380000D03*
%TO.P,U1,VCC*%
%TO.N,N/C*%
X126362500Y-41380000D03*
%TD*%
D10*
%TO.P,SW29,1*%
%TO.N,L_COL2*%
X95571300Y-148645000D03*
D11*
X96731300Y-159625000D03*
%TO.P,SW29,2*%
%TO.N,LK29_D*%
X84331300Y-157525000D03*
D10*
X89221300Y-151185000D03*
%TD*%
%TO.P,SW1,1*%
%TO.N,L_COL0*%
X40485000Y-82605000D03*
D13*
X39325000Y-71625000D03*
%TO.P,SW1,2*%
%TO.N,LK01_D*%
X51725000Y-73725000D03*
D10*
X46835000Y-80065000D03*
%TD*%
%TO.P,SW14,1*%
%TO.N,L_COL0*%
X47628700Y-120705000D03*
D13*
X46468700Y-109725000D03*
%TO.P,SW14,2*%
%TO.N,LK14_D*%
X58868700Y-111825000D03*
D10*
X53978700Y-118165000D03*
%TD*%
%TO.P,SW5,1*%
%TO.N,L_COL4*%
X121765000Y-72445000D03*
D11*
X122925000Y-83425000D03*
%TO.P,SW5,2*%
%TO.N,LK05_D*%
X110525000Y-81325000D03*
D10*
X115415000Y-74985000D03*
%TD*%
%TO.P,SW30,1*%
%TO.N,L_COL3*%
X124146300Y-148645000D03*
D11*
X125306300Y-159625000D03*
%TO.P,SW30,2*%
%TO.N,LK30_D*%
X112906300Y-157525000D03*
D10*
X117796300Y-151185000D03*
%TD*%
%TO.P,SW6,1*%
%TO.N,L_COL5*%
X140815000Y-72445000D03*
D11*
X141975000Y-83425000D03*
%TO.P,SW6,2*%
%TO.N,LK06_D*%
X129575000Y-81325000D03*
D10*
X134465000Y-74985000D03*
%TD*%
%TO.P,SW7,1*%
%TO.N,L_COL6*%
X159865000Y-72445000D03*
D11*
X161025000Y-83425000D03*
%TO.P,SW7,2*%
%TO.N,LK07_D*%
X148625000Y-81325000D03*
D10*
X153515000Y-74985000D03*
%TD*%
%TO.P,SW19,1*%
%TO.N,L_COL5*%
X155102500Y-110545000D03*
D11*
X156262500Y-121525000D03*
%TO.P,SW19,2*%
%TO.N,LK19_D*%
X143862500Y-119425000D03*
D10*
X148752500Y-113085000D03*
%TD*%
%TO.P,SW15,1*%
%TO.N,L_COL1*%
X78902500Y-110545000D03*
D11*
X80062500Y-121525000D03*
%TO.P,SW15,2*%
%TO.N,LK15_D*%
X67662500Y-119425000D03*
D10*
X72552500Y-113085000D03*
%TD*%
%TO.P,SW11,1*%
%TO.N,L_COL3*%
X112240000Y-91495000D03*
D11*
X113400000Y-102475000D03*
%TO.P,SW11,2*%
%TO.N,LK11_D*%
X101000000Y-100375000D03*
D10*
X105890000Y-94035000D03*
%TD*%
%TO.P,SW31,1*%
%TO.N,L_COL4*%
X157483800Y-148645000D03*
D11*
X158643800Y-159625000D03*
%TO.P,SW31,2*%
%TO.N,LK31_D*%
X146243800Y-157525000D03*
D10*
X151133800Y-151185000D03*
%TD*%
%TO.P,SW20,1*%
%TO.N,L_COL0*%
X40485000Y-139755000D03*
D13*
X39325000Y-128775000D03*
%TO.P,SW20,2*%
%TO.N,LK20_D*%
X51725000Y-130875000D03*
D10*
X46835000Y-137215000D03*
%TD*%
%TO.P,SW10,1*%
%TO.N,L_COL2*%
X93190000Y-91495000D03*
D11*
X94350000Y-102475000D03*
%TO.P,SW10,2*%
%TO.N,LK10_D*%
X81950000Y-100375000D03*
D10*
X86840000Y-94035000D03*
%TD*%
%TO.P,SW16,1*%
%TO.N,L_COL2*%
X97952500Y-110545000D03*
D11*
X99112500Y-121525000D03*
%TO.P,SW16,2*%
%TO.N,LK16_D*%
X86712500Y-119425000D03*
D10*
X91602500Y-113085000D03*
%TD*%
%TO.P,SW22,1*%
%TO.N,L_COL2*%
X88427500Y-129595000D03*
D11*
X89587500Y-140575000D03*
%TO.P,SW22,2*%
%TO.N,LK22_D*%
X77187500Y-138475000D03*
D10*
X82077500Y-132135000D03*
%TD*%
%TO.P,SW9,1*%
%TO.N,L_COL1*%
X74140000Y-91495000D03*
D11*
X75300000Y-102475000D03*
%TO.P,SW9,2*%
%TO.N,LK09_D*%
X62900000Y-100375000D03*
D10*
X67790000Y-94035000D03*
%TD*%
%TO.P,SW2,1*%
%TO.N,L_COL1*%
X64615000Y-72445000D03*
D11*
X65775000Y-83425000D03*
%TO.P,SW2,2*%
%TO.N,LK02_D*%
X53375000Y-81325000D03*
D10*
X58265000Y-74985000D03*
%TD*%
%TO.P,SW24,1*%
%TO.N,L_COL4*%
X126527500Y-129595000D03*
D11*
X127687500Y-140575000D03*
%TO.P,SW24,2*%
%TO.N,LK24_D*%
X115287500Y-138475000D03*
D10*
X120177500Y-132135000D03*
%TD*%
%TO.P,SW8,1*%
%TO.N,L_COL0*%
X45247500Y-101655000D03*
D13*
X44087500Y-90675000D03*
%TO.P,SW8,2*%
%TO.N,LK08_D*%
X56487500Y-92775000D03*
D10*
X51597500Y-99115000D03*
%TD*%
%TO.P,SW13,1*%
%TO.N,L_COL5*%
X150340000Y-91495000D03*
D11*
X151500000Y-102475000D03*
%TO.P,SW13,2*%
%TO.N,LK13_D*%
X139100000Y-100375000D03*
D10*
X143990000Y-94035000D03*
%TD*%
%TO.P,SW26,1*%
%TO.N,L_COL6*%
X164627500Y-129595000D03*
D11*
X165787500Y-140575000D03*
%TO.P,SW26,2*%
%TO.N,LK26_D*%
X153387500Y-138475000D03*
D10*
X158277500Y-132135000D03*
%TD*%
%TO.P,SW3,1*%
%TO.N,L_COL2*%
X83665000Y-72445000D03*
D11*
X84825000Y-83425000D03*
%TO.P,SW3,2*%
%TO.N,LK03_D*%
X72425000Y-81325000D03*
D10*
X77315000Y-74985000D03*
%TD*%
%TO.P,SW28,1*%
%TO.N,L_COL1*%
X71758800Y-148645000D03*
D11*
X72918800Y-159625000D03*
%TO.P,SW28,2*%
%TO.N,LK28_D*%
X60518800Y-157525000D03*
D10*
X65408800Y-151185000D03*
%TD*%
%TO.P,SW17,1*%
%TO.N,L_COL3*%
X117002500Y-110545000D03*
D11*
X118162500Y-121525000D03*
%TO.P,SW17,2*%
%TO.N,LK17_D*%
X105762500Y-119425000D03*
D10*
X110652500Y-113085000D03*
%TD*%
%TO.P,SW4,1*%
%TO.N,L_COL3*%
X102715000Y-72445000D03*
D11*
X103875000Y-83425000D03*
%TO.P,SW4,2*%
%TO.N,LK04_D*%
X91475000Y-81325000D03*
D10*
X96365000Y-74985000D03*
%TD*%
%TO.P,SW12,1*%
%TO.N,L_COL4*%
X131290000Y-91495000D03*
D11*
X132450000Y-102475000D03*
%TO.P,SW12,2*%
%TO.N,LK12_D*%
X120050000Y-100375000D03*
D10*
X124940000Y-94035000D03*
%TD*%
%TO.P,SW21,1*%
%TO.N,L_COL1*%
X66996300Y-129595000D03*
D11*
X68156300Y-140575000D03*
%TO.P,SW21,2*%
%TO.N,LK21_D*%
X55756300Y-138475000D03*
D10*
X60646300Y-132135000D03*
%TD*%
%TO.P,SW27,1*%
%TO.N,L_COL0*%
X42866300Y-158805000D03*
D13*
X41706300Y-147825000D03*
%TO.P,SW27,2*%
%TO.N,LK27_D*%
X54106300Y-149925000D03*
D10*
X49216300Y-156265000D03*
%TD*%
%TO.P,SW25,1*%
%TO.N,L_COL5*%
X145577500Y-129595000D03*
D11*
X146737500Y-140575000D03*
%TO.P,SW25,2*%
%TO.N,LK25_D*%
X134337500Y-138475000D03*
D10*
X139227500Y-132135000D03*
%TD*%
D14*
%TO.P,D31,1*%
%TO.N,L_ROW4*%
X150043800Y-146725000D03*
%TO.P,D31,2*%
%TO.N,LK31_D*%
X145843800Y-146725000D03*
%TD*%
%TO.P,D29,1*%
%TO.N,L_ROW4*%
X88131300Y-146725000D03*
%TO.P,D29,2*%
%TO.N,LK29_D*%
X83931300Y-146725000D03*
%TD*%
D15*
%TO.P,D7,1*%
%TO.N,L_ROW0*%
X148575000Y-72175000D03*
%TO.P,D7,2*%
%TO.N,LK07_D*%
X148575000Y-76375000D03*
%TD*%
D14*
%TO.P,D9,1*%
%TO.N,L_ROW1*%
X66700000Y-89575000D03*
%TO.P,D9,2*%
%TO.N,LK09_D*%
X62500000Y-89575000D03*
%TD*%
%TO.P,D22,1*%
%TO.N,L_ROW3*%
X80987500Y-127675000D03*
%TO.P,D22,2*%
%TO.N,LK22_D*%
X76787500Y-127675000D03*
%TD*%
%TO.P,D25,1*%
%TO.N,L_ROW3*%
X138137500Y-127675000D03*
%TO.P,D25,2*%
%TO.N,LK25_D*%
X133937500Y-127675000D03*
%TD*%
%TO.P,D13,1*%
%TO.N,L_ROW1*%
X142900000Y-89575000D03*
%TO.P,D13,2*%
%TO.N,LK13_D*%
X138700000Y-89575000D03*
%TD*%
D15*
%TO.P,D3,1*%
%TO.N,L_ROW0*%
X72375000Y-72175000D03*
%TO.P,D3,2*%
%TO.N,LK03_D*%
X72375000Y-76375000D03*
%TD*%
%TO.P,D5,1*%
%TO.N,L_ROW0*%
X110475000Y-72175000D03*
%TO.P,D5,2*%
%TO.N,LK05_D*%
X110475000Y-76375000D03*
%TD*%
D14*
%TO.P,D27,1*%
%TO.N,L_ROW4*%
X57006300Y-156975000D03*
%TO.P,D27,2*%
%TO.N,LK27_D*%
X52806300Y-156975000D03*
%TD*%
%TO.P,D15,1*%
%TO.N,L_ROW2*%
X71462500Y-108625000D03*
%TO.P,D15,2*%
%TO.N,LK15_D*%
X67262500Y-108625000D03*
%TD*%
%TO.P,D24,1*%
%TO.N,L_ROW3*%
X119087500Y-127675000D03*
%TO.P,D24,2*%
%TO.N,LK24_D*%
X114887500Y-127675000D03*
%TD*%
%TO.P,D10,1*%
%TO.N,L_ROW1*%
X85750000Y-89575000D03*
%TO.P,D10,2*%
%TO.N,LK10_D*%
X81550000Y-89575000D03*
%TD*%
%TO.P,D16,1*%
%TO.N,L_ROW2*%
X90512500Y-108625000D03*
%TO.P,D16,2*%
%TO.N,LK16_D*%
X86312500Y-108625000D03*
%TD*%
D16*
%TO.P,D2,1*%
%TO.N,L_ROW0*%
X69075000Y-86625000D03*
%TO.P,D2,2*%
%TO.N,LK02_D*%
X69075000Y-82425000D03*
%TD*%
D14*
%TO.P,D30,1*%
%TO.N,L_ROW4*%
X116706300Y-146725000D03*
%TO.P,D30,2*%
%TO.N,LK30_D*%
X112506300Y-146725000D03*
%TD*%
%TO.P,D28,1*%
%TO.N,L_ROW4*%
X64318800Y-146725000D03*
%TO.P,D28,2*%
%TO.N,LK28_D*%
X60118800Y-146725000D03*
%TD*%
%TO.P,D1,1*%
%TO.N,L_ROW0*%
X52125000Y-84525000D03*
%TO.P,D1,2*%
%TO.N,LK01_D*%
X47925000Y-84525000D03*
%TD*%
%TO.P,D19,1*%
%TO.N,L_ROW2*%
X147662500Y-108625000D03*
%TO.P,D19,2*%
%TO.N,LK19_D*%
X143462500Y-108625000D03*
%TD*%
%TO.P,D18,1*%
%TO.N,L_ROW2*%
X128612500Y-108625000D03*
%TO.P,D18,2*%
%TO.N,LK18_D*%
X124412500Y-108625000D03*
%TD*%
%TO.P,D14,1*%
%TO.N,L_ROW2*%
X59268700Y-122625000D03*
%TO.P,D14,2*%
%TO.N,LK14_D*%
X55068700Y-122625000D03*
%TD*%
%TO.P,D8,1*%
%TO.N,L_ROW1*%
X56887500Y-103575000D03*
%TO.P,D8,2*%
%TO.N,LK08_D*%
X52687500Y-103575000D03*
%TD*%
D15*
%TO.P,D6,1*%
%TO.N,L_ROW0*%
X129525000Y-72175000D03*
%TO.P,D6,2*%
%TO.N,LK06_D*%
X129525000Y-76375000D03*
%TD*%
D14*
%TO.P,D26,1*%
%TO.N,L_ROW3*%
X157187500Y-127675000D03*
%TO.P,D26,2*%
%TO.N,LK26_D*%
X152987500Y-127675000D03*
%TD*%
%TO.P,D12,1*%
%TO.N,L_ROW1*%
X123850000Y-89575000D03*
%TO.P,D12,2*%
%TO.N,LK12_D*%
X119650000Y-89575000D03*
%TD*%
%TO.P,D23,1*%
%TO.N,L_ROW3*%
X100037500Y-127675000D03*
%TO.P,D23,2*%
%TO.N,LK23_D*%
X95837500Y-127675000D03*
%TD*%
%TO.P,D11,1*%
%TO.N,L_ROW1*%
X104800000Y-89575000D03*
%TO.P,D11,2*%
%TO.N,LK11_D*%
X100600000Y-89575000D03*
%TD*%
%TO.P,D20,1*%
%TO.N,L_ROW3*%
X52125000Y-141675000D03*
%TO.P,D20,2*%
%TO.N,LK20_D*%
X47925000Y-141675000D03*
%TD*%
%TO.P,D17,1*%
%TO.N,L_ROW2*%
X109562500Y-108625000D03*
%TO.P,D17,2*%
%TO.N,LK17_D*%
X105362500Y-108625000D03*
%TD*%
D15*
%TO.P,D4,1*%
%TO.N,L_ROW0*%
X91425000Y-72175000D03*
%TO.P,D4,2*%
%TO.N,LK04_D*%
X91425000Y-76375000D03*
%TD*%
D14*
%TO.P,D21,1*%
%TO.N,L_ROW3*%
X59556300Y-127675000D03*
%TO.P,D21,2*%
%TO.N,LK21_D*%
X55356300Y-127675000D03*
%TD*%
D17*
%TO.N,L_COL4*%
X132470500Y-84012900D03*
X126333900Y-122032200D03*
%TO.N,L_COL3*%
X120504900Y-142362700D03*
X107988100Y-70431200D03*
X108539300Y-124697500D03*
%TO.N,L_COL0*%
X123496300Y-104088100D03*
%TO.N,L_COL2*%
X114522100Y-59925100D03*
X97952500Y-101143900D03*
X93582300Y-124722300D03*
X108933600Y-86677700D03*
%TO.N,L_COL1*%
X69278900Y-84138400D03*
X126487700Y-73494200D03*
X87698100Y-83391700D03*
X72642500Y-124686600D03*
%TO.N,L_COL5*%
X140815000Y-64500000D03*
%TO.N,L_ROW0*%
X147945500Y-68757700D03*
%TO.N,L_ROW2*%
X141407000Y-97908300D03*
%TO.N,L_ROW3*%
X141254800Y-126331800D03*
%TO.N,L_ROW1*%
X150123900Y-60053900D03*
X144382400Y-87097900D03*
%TO.N,L_ROW4*%
X132470500Y-145341800D03*
%TO.N,GND*%
X149320400Y-60699400D03*
%TD*%
%TO.N,L_COL4*%
D18*
X157483800Y-148645000D02*
X152155100Y-143316300D01*
X132249800Y-92454800D02*
X131290000Y-91495000D01*
X132450000Y-102475000D02*
X132249800Y-102274800D01*
X134635400Y-123701700D02*
X128003400Y-123701700D01*
X128003400Y-123701700D02*
X126333900Y-122032200D01*
X158643800Y-159625000D02*
X158443600Y-159424800D01*
X137012300Y-121324800D02*
X137012300Y-111504800D01*
X123512900Y-84012900D02*
X122925000Y-83425000D01*
X137212500Y-121525000D02*
X137012300Y-121324800D01*
X152155100Y-143316300D02*
X130428800Y-143316300D01*
X158443600Y-149604800D02*
X157483800Y-148645000D01*
X130428800Y-143316300D02*
X127687500Y-140575000D01*
X126527500Y-129595000D02*
X127503100Y-130570600D01*
X127503100Y-140390600D02*
X127687500Y-140575000D01*
X137012300Y-121324800D02*
X134635400Y-123701700D01*
X127503100Y-130570600D02*
X127503100Y-140390600D01*
X132470500Y-84012900D02*
X123512900Y-84012900D01*
X137012300Y-111504800D02*
X136052500Y-110545000D01*
X158443600Y-159424800D02*
X158443600Y-149604800D01*
X132249800Y-102274800D02*
X132249800Y-92454800D01*
%TO.N,LK18_D*%
X124812500Y-117020300D02*
X128747800Y-113085000D01*
X128747800Y-113085000D02*
X129702500Y-113085000D01*
X124812500Y-119425000D02*
X124812500Y-117020300D01*
X129702500Y-113085000D02*
X125242500Y-108625000D01*
X125242500Y-108625000D02*
X124412500Y-108625000D01*
%TO.N,L_COL3*%
X108539300Y-124697500D02*
X114990000Y-124697500D01*
X108249100Y-70170200D02*
X125512300Y-70170200D01*
X110425200Y-142362700D02*
X108637500Y-140575000D01*
X117962300Y-121324800D02*
X117962300Y-111504800D01*
X125512300Y-70170200D02*
X139062500Y-56620000D01*
X113199800Y-92454800D02*
X112240000Y-91495000D01*
X124146300Y-148645000D02*
X125121900Y-149620600D01*
X108637500Y-140575000D02*
X108437300Y-140374800D01*
X125121900Y-159440600D02*
X125306300Y-159625000D01*
X103875000Y-83425000D02*
X103674800Y-83224800D01*
X108437300Y-130554800D02*
X107477500Y-129595000D01*
X107988100Y-70431200D02*
X108249100Y-70170200D01*
X117962300Y-111504800D02*
X117002500Y-110545000D01*
X125121900Y-149620600D02*
X125121900Y-159440600D01*
X118162500Y-121525000D02*
X117962300Y-121324800D01*
X103674800Y-73404800D02*
X102715000Y-72445000D01*
X108437300Y-140374800D02*
X108437300Y-130554800D01*
X113400000Y-102475000D02*
X113199800Y-102274800D01*
X114990000Y-124697500D02*
X118162500Y-121525000D01*
X113199800Y-102274800D02*
X113199800Y-92454800D01*
X103674800Y-83224800D02*
X103674800Y-73404800D01*
X120504900Y-142362700D02*
X110425200Y-142362700D01*
%TO.N,LK23_D*%
X101127500Y-132135000D02*
X97767500Y-128775000D01*
X96937500Y-128775000D02*
X95837500Y-127675000D01*
X97767500Y-128775000D02*
X96937500Y-128775000D01*
X96937500Y-128775000D02*
X96237500Y-129475000D01*
X96237500Y-129475000D02*
X96237500Y-138475000D01*
%TO.N,L_COL0*%
X39325000Y-128775000D02*
X47395000Y-120705000D01*
X46468700Y-104929900D02*
X46468700Y-102876200D01*
X39660000Y-139338400D02*
X39660000Y-129110000D01*
X46468700Y-104929900D02*
X50800000Y-104929900D01*
X40485000Y-142840000D02*
X40485000Y-140163400D01*
X51100000Y-105250000D02*
X58475000Y-105250000D01*
X39825100Y-72125100D02*
X39825100Y-81945100D01*
X39660000Y-129110000D02*
X39325000Y-128775000D01*
X40485000Y-146603700D02*
X41706300Y-147825000D01*
X123496300Y-104088100D02*
X122654500Y-104929900D01*
X39325000Y-71625000D02*
X39825100Y-72125100D01*
X58475000Y-105250000D02*
X58800000Y-104929900D01*
X44087500Y-90675000D02*
X40485000Y-87072500D01*
X40485000Y-142840000D02*
X40485000Y-146603700D01*
X39825100Y-81945100D02*
X40485000Y-82605000D01*
X58800000Y-104929900D02*
X122654500Y-104929900D01*
X40485000Y-139755000D02*
X40485000Y-142840000D01*
X40485000Y-87072500D02*
X40485000Y-82605000D01*
X50800000Y-104929900D02*
X51100000Y-105250000D01*
X47395000Y-120705000D02*
X47628700Y-120705000D01*
X46468700Y-102876200D02*
X45247500Y-101655000D01*
X46468700Y-109725000D02*
X46468700Y-104929900D01*
X40485000Y-140163400D02*
X39660000Y-139338400D01*
%TO.N,L_COL2*%
X98928100Y-111520600D02*
X98928100Y-121340600D01*
X97952500Y-110545000D02*
X98928100Y-111520600D01*
X95915200Y-124722300D02*
X99112500Y-121525000D01*
X114522100Y-59925100D02*
X130677400Y-59925100D01*
X89387300Y-140374800D02*
X89387300Y-130554800D01*
X96531100Y-149604800D02*
X95571300Y-148645000D01*
X93582300Y-124722300D02*
X95915200Y-124722300D01*
X98007300Y-86677700D02*
X93190000Y-91495000D01*
X89387300Y-130554800D02*
X88427500Y-129595000D01*
X89587500Y-140575000D02*
X89387300Y-140374800D01*
X130677400Y-59925100D02*
X133982500Y-56620000D01*
X93190000Y-91495000D02*
X85120000Y-83425000D01*
X97952500Y-101143900D02*
X95681100Y-101143900D01*
X84825000Y-83425000D02*
X84624800Y-83224800D01*
X84624800Y-83224800D02*
X84624800Y-73404800D01*
X98928100Y-121340600D02*
X99112500Y-121525000D01*
X85120000Y-83425000D02*
X84825000Y-83425000D01*
X108933600Y-86677700D02*
X98007300Y-86677700D01*
X96531100Y-159424800D02*
X96531100Y-149604800D01*
X96731300Y-159625000D02*
X96531100Y-159424800D01*
X84624800Y-73404800D02*
X83665000Y-72445000D01*
X95681100Y-101143900D02*
X94350000Y-102475000D01*
%TO.N,L_COL1*%
X66488400Y-84138400D02*
X65775000Y-83425000D01*
X75099800Y-92454800D02*
X74140000Y-91495000D01*
X75300000Y-102475000D02*
X75099800Y-102274800D01*
X68156300Y-140575000D02*
X67956100Y-140374800D01*
X72642500Y-124686600D02*
X76900900Y-124686600D01*
X75099800Y-102274800D02*
X75099800Y-92454800D01*
X117587400Y-81041000D02*
X112964700Y-85663700D01*
X89970100Y-85663700D02*
X87698100Y-83391700D01*
X112964700Y-85663700D02*
X89970100Y-85663700D01*
X79862300Y-111504800D02*
X78902500Y-110545000D01*
X80062500Y-121525000D02*
X79862300Y-121324800D01*
X79862300Y-121324800D02*
X79862300Y-111504800D01*
X67956100Y-130554800D02*
X66996300Y-129595000D01*
X126487700Y-77540000D02*
X122986700Y-81041000D01*
X72734400Y-149620600D02*
X72734400Y-159440600D01*
X71758800Y-148645000D02*
X72734400Y-149620600D01*
X72734400Y-159440600D02*
X72918800Y-159625000D01*
X76900900Y-124686600D02*
X80062500Y-121525000D01*
X69278900Y-84138400D02*
X66488400Y-84138400D01*
X122986700Y-81041000D02*
X117587400Y-81041000D01*
X67956100Y-140374800D02*
X67956100Y-130554800D01*
X126487700Y-73494200D02*
X126487700Y-77540000D01*
%TO.N,L_COL5*%
X141790600Y-73420600D02*
X141790600Y-83240600D01*
X155102500Y-110545000D02*
X151500000Y-106942500D01*
X141790600Y-83240600D02*
X141975000Y-83425000D01*
X142270000Y-83425000D02*
X141975000Y-83425000D01*
X144142500Y-56620000D02*
X140815000Y-64500000D01*
X140815000Y-72445000D02*
X141790600Y-73420600D01*
X146737500Y-140575000D02*
X146537300Y-140374800D01*
X150340000Y-91495000D02*
X142270000Y-83425000D01*
X156262500Y-121525000D02*
X156062300Y-121324800D01*
X156062300Y-121324800D02*
X156062300Y-111504800D01*
X156062300Y-111504800D02*
X155102500Y-110545000D01*
X151500000Y-106942500D02*
X151500000Y-102475000D01*
X146537300Y-140374800D02*
X146537300Y-130554800D01*
X146537300Y-130554800D02*
X145577500Y-129595000D01*
%TO.N,L_COL6*%
X160840600Y-73420600D02*
X159865000Y-72445000D01*
X165603100Y-130570600D02*
X165603100Y-140390600D01*
X165603100Y-140390600D02*
X165787500Y-140575000D01*
X164627500Y-129595000D02*
X165603100Y-130570600D01*
X159865000Y-72445000D02*
X154503600Y-72445000D01*
X154503600Y-72445000D02*
X146682500Y-64623900D01*
X160840600Y-83240600D02*
X160840600Y-73420600D01*
X146682500Y-64623900D02*
X146682500Y-56620000D01*
X161025000Y-83425000D02*
X160840600Y-83240600D01*
%TO.N,L_ROW0*%
X51586500Y-79280900D02*
X60099100Y-70768300D01*
X147808200Y-68895000D02*
X147808200Y-70720400D01*
X91425000Y-72175000D02*
X90009200Y-70759200D01*
X90009200Y-70759200D02*
X73790800Y-70759200D01*
X54225000Y-86625000D02*
X52125000Y-84525000D01*
X73790800Y-70759200D02*
X72375000Y-72175000D01*
X147945500Y-68895000D02*
X147945500Y-68757700D01*
X111896500Y-70753500D02*
X110475000Y-72175000D01*
X52125000Y-84525000D02*
X51586500Y-83986500D01*
X148575000Y-72175000D02*
X148575000Y-71487200D01*
X147808200Y-70720400D02*
X148575000Y-71487200D01*
X91425000Y-72175000D02*
X92842400Y-70757600D01*
X92842400Y-70757600D02*
X107286800Y-70757600D01*
X51586500Y-83986500D02*
X51586500Y-79280900D01*
X69075000Y-86625000D02*
X54225000Y-86625000D01*
X147945500Y-68757700D02*
X147808200Y-68895000D01*
X129525000Y-72175000D02*
X128103500Y-70753500D01*
X128103500Y-70753500D02*
X111896500Y-70753500D01*
X129525000Y-72175000D02*
X130979600Y-70720400D01*
X108704200Y-72175000D02*
X110475000Y-72175000D01*
X60099100Y-70768300D02*
X70968300Y-70768300D01*
X130979600Y-70720400D02*
X147808200Y-70720400D01*
X147945500Y-68757700D02*
X147945500Y-68895000D01*
X70968300Y-70768300D02*
X72375000Y-72175000D01*
X107286800Y-70757600D02*
X108704200Y-72175000D01*
%TO.N,L_ROW2*%
X66296100Y-107297100D02*
X65934800Y-107658400D01*
X65934800Y-107658400D02*
X65934800Y-115958900D01*
X137333500Y-99207800D02*
X138633000Y-97908300D01*
X137333500Y-107274000D02*
X128612500Y-107274000D01*
X128612500Y-107274000D02*
X110913500Y-107274000D01*
X128612500Y-107274000D02*
X128612500Y-108625000D01*
X147662500Y-108625000D02*
X146311500Y-107274000D01*
X90512500Y-107258700D02*
X72828800Y-107258700D01*
X146311500Y-107274000D02*
X137333500Y-107274000D01*
X70134600Y-107297100D02*
X66296100Y-107297100D01*
X71462500Y-108625000D02*
X70134600Y-107297100D01*
X138633000Y-97908300D02*
X141407000Y-97908300D01*
X90512500Y-107258700D02*
X90512500Y-108625000D01*
X109562500Y-108625000D02*
X108196200Y-107258700D01*
X72828800Y-107258700D02*
X71462500Y-108625000D01*
X110913500Y-107274000D02*
X109562500Y-108625000D01*
X65934800Y-115958900D02*
X59268700Y-122625000D01*
X137333500Y-107274000D02*
X137333500Y-99207800D01*
X108196200Y-107258700D02*
X90512500Y-107258700D01*
%TO.N,L_ROW3*%
X79636700Y-126324200D02*
X80987500Y-127675000D01*
X119087500Y-127675000D02*
X117727800Y-126315300D01*
X138137500Y-126331800D02*
X120430700Y-126331800D01*
X59556300Y-127675000D02*
X60907100Y-126324200D01*
X100037500Y-126315300D02*
X82347200Y-126315300D01*
X58216400Y-126335100D02*
X59556300Y-127675000D01*
X141254800Y-126331800D02*
X138137500Y-126331800D01*
X155844300Y-126331800D02*
X141254800Y-126331800D01*
X120430700Y-126331800D02*
X119087500Y-127675000D01*
X52125000Y-141675000D02*
X53601000Y-140199000D01*
X100037500Y-126315300D02*
X100037500Y-127675000D01*
X53601000Y-140199000D02*
X53601000Y-127116700D01*
X82347200Y-126315300D02*
X80987500Y-127675000D01*
X60907100Y-126324200D02*
X79636700Y-126324200D01*
X157187500Y-127675000D02*
X155844300Y-126331800D01*
X117727800Y-126315300D02*
X100037500Y-126315300D01*
X54382600Y-126335100D02*
X58216400Y-126335100D01*
X53601000Y-127116700D02*
X54382600Y-126335100D01*
X138137500Y-126331800D02*
X138137500Y-127675000D01*
%TO.N,L_ROW1*%
X59057900Y-90703400D02*
X61556400Y-88204900D01*
X150123900Y-47361400D02*
X150123900Y-60053900D01*
X96015600Y-93204800D02*
X97222900Y-91997500D01*
X66700000Y-89575000D02*
X68073900Y-88201100D01*
X142900000Y-89575000D02*
X142402700Y-89077600D01*
X97222900Y-91997500D02*
X97222900Y-90684800D01*
X144142500Y-41380000D02*
X150123900Y-47361400D01*
X84376100Y-88201100D02*
X85750000Y-89575000D01*
X59057900Y-101404600D02*
X59057900Y-90703400D01*
X122451000Y-88176000D02*
X123850000Y-89575000D01*
X104800000Y-89575000D02*
X104800000Y-88176000D01*
X85750000Y-89575000D02*
X89379800Y-93204800D01*
X99731700Y-88176000D02*
X104800000Y-88176000D01*
X65329900Y-88204900D02*
X66700000Y-89575000D01*
X142402700Y-89077600D02*
X141572300Y-88247300D01*
X68073900Y-88201100D02*
X84376100Y-88201100D01*
X89379800Y-93204800D02*
X96015600Y-93204800D01*
X125177700Y-88247300D02*
X123850000Y-89575000D01*
X56887500Y-103575000D02*
X59057900Y-101404600D01*
X97222900Y-90684800D02*
X99731700Y-88176000D01*
X141572300Y-88247300D02*
X125177700Y-88247300D01*
X142402700Y-89077600D02*
X144382400Y-87097900D01*
X61556400Y-88204900D02*
X65329900Y-88204900D01*
X104800000Y-88176000D02*
X122451000Y-88176000D01*
%TO.N,L_ROW4*%
X88131300Y-146725000D02*
X86777800Y-145371500D01*
X116706300Y-146725000D02*
X115316800Y-145335500D01*
X64318800Y-145371500D02*
X59169100Y-145371500D01*
X59169100Y-145371500D02*
X57006300Y-147534300D01*
X64318800Y-146725000D02*
X64318800Y-145371500D01*
X57006300Y-147534300D02*
X57006300Y-156975000D01*
X86777800Y-145371500D02*
X64318800Y-145371500D01*
X115316800Y-145335500D02*
X89520800Y-145335500D01*
X89520800Y-145335500D02*
X88131300Y-146725000D01*
X116706300Y-146725000D02*
X118089500Y-145341800D01*
X148660600Y-145341800D02*
X150043800Y-146725000D01*
X118089500Y-145341800D02*
X132470500Y-145341800D01*
X132470500Y-145341800D02*
X148660600Y-145341800D01*
%TO.N,GND*%
X135373800Y-43425900D02*
X123328400Y-43425900D01*
X149320400Y-60699400D02*
X149320400Y-57372500D01*
X149320400Y-60699400D02*
X149320400Y-60545600D01*
X123328400Y-43425900D02*
X121282500Y-41380000D01*
X149320400Y-57372500D02*
X135373800Y-43425900D01*
X149320400Y-60545600D02*
X149320400Y-60699400D01*
%TO.N,LK29_D*%
X84761300Y-146725000D02*
X83931300Y-146725000D01*
X89221300Y-151185000D02*
X84761300Y-146725000D01*
X84331300Y-155129200D02*
X88275500Y-151185000D01*
X88275500Y-151185000D02*
X89221300Y-151185000D01*
X84331300Y-157525000D02*
X84331300Y-155129200D01*
%TO.N,LK01_D*%
X46835000Y-83435000D02*
X46835000Y-80065000D01*
X47760900Y-80065000D02*
X51725000Y-76100900D01*
X51725000Y-76100900D02*
X51725000Y-73725000D01*
X46835000Y-80065000D02*
X47760900Y-80065000D01*
X47925000Y-84525000D02*
X46835000Y-83435000D01*
%TO.N,LK14_D*%
X53978700Y-118165000D02*
X53978700Y-121535000D01*
X58868700Y-111825000D02*
X58868700Y-114196600D01*
X53978700Y-121535000D02*
X55068700Y-122625000D01*
X54900300Y-118165000D02*
X53978700Y-118165000D01*
X58868700Y-114196600D02*
X54900300Y-118165000D01*
%TO.N,LK05_D*%
X111865000Y-74985000D02*
X115415000Y-74985000D01*
X110475000Y-81275000D02*
X110475000Y-76375000D01*
X110525000Y-81325000D02*
X110475000Y-81275000D01*
X110475000Y-76375000D02*
X111865000Y-74985000D01*
%TO.N,LK30_D*%
X117796300Y-151185000D02*
X114436300Y-147825000D01*
X113606300Y-147825000D02*
X112506300Y-146725000D01*
X112906300Y-148525000D02*
X112906300Y-157525000D01*
X113606300Y-147825000D02*
X112906300Y-148525000D01*
X114436300Y-147825000D02*
X113606300Y-147825000D01*
%TO.N,LK06_D*%
X129525000Y-76375000D02*
X130915000Y-74985000D01*
X129575000Y-81325000D02*
X129525000Y-81275000D01*
X129525000Y-81275000D02*
X129525000Y-76375000D01*
X130915000Y-74985000D02*
X134465000Y-74985000D01*
%TO.N,LK07_D*%
X148575000Y-81275000D02*
X148575000Y-76375000D01*
X149965000Y-74985000D02*
X148575000Y-76375000D01*
X148625000Y-81325000D02*
X148575000Y-81275000D01*
X153515000Y-74985000D02*
X149965000Y-74985000D01*
%TO.N,LK19_D*%
X144564100Y-109726600D02*
X143462500Y-108625000D01*
X143862500Y-110428200D02*
X143862500Y-119425000D01*
X148752500Y-113085000D02*
X145394100Y-109726600D01*
X145394100Y-109726600D02*
X144564100Y-109726600D01*
X144564100Y-109726600D02*
X143862500Y-110428200D01*
%TO.N,LK15_D*%
X67662500Y-119425000D02*
X67662500Y-115127300D01*
X72552500Y-113085000D02*
X69704800Y-113085000D01*
X69704800Y-111067300D02*
X67262500Y-108625000D01*
X69704800Y-113085000D02*
X69704800Y-111067300D01*
X67662500Y-115127300D02*
X69704800Y-113085000D01*
%TO.N,LK11_D*%
X100600000Y-89575000D02*
X105060000Y-94035000D01*
X106184500Y-94329500D02*
X105890000Y-94035000D01*
X106184500Y-97194100D02*
X106184500Y-94329500D01*
X103225000Y-98150000D02*
X105228600Y-98150000D01*
X105060000Y-94035000D02*
X105890000Y-94035000D01*
X105228600Y-98150000D02*
X106184500Y-97194100D01*
X101000000Y-100375000D02*
X103225000Y-98150000D01*
%TO.N,LK31_D*%
X148468800Y-155300000D02*
X150472400Y-155300000D01*
X151428300Y-154344100D02*
X151428300Y-151479500D01*
X146243800Y-157525000D02*
X148468800Y-155300000D01*
X145843800Y-146725000D02*
X150303700Y-151184900D01*
X150472400Y-155300000D02*
X151428300Y-154344100D01*
X150303700Y-151184900D02*
X151133800Y-151184900D01*
X151428300Y-151479500D02*
X151133800Y-151185000D01*
X151133800Y-151184900D02*
X151133800Y-151185000D01*
%TO.N,LK20_D*%
X47756700Y-137215000D02*
X46835000Y-137215000D01*
X51725000Y-130875000D02*
X51725000Y-133246700D01*
X46835000Y-140585000D02*
X47925000Y-141675000D01*
X51725000Y-133246700D02*
X47756700Y-137215000D01*
X46835000Y-137215000D02*
X46835000Y-140585000D01*
%TO.N,LK10_D*%
X86178600Y-98150000D02*
X87134500Y-97194100D01*
X81950000Y-100375000D02*
X84175000Y-98150000D01*
X87134500Y-94329500D02*
X86840000Y-94035000D01*
X86840000Y-94035000D02*
X82380000Y-89575000D01*
X82380000Y-89575000D02*
X81550000Y-89575000D01*
X84175000Y-98150000D02*
X86178600Y-98150000D01*
X87134500Y-97194100D02*
X87134500Y-94329500D01*
%TO.N,LK16_D*%
X86712500Y-119425000D02*
X86712500Y-117020300D01*
X91602500Y-113085000D02*
X87142500Y-108625000D01*
X87142500Y-108625000D02*
X86312500Y-108625000D01*
X90647800Y-113085000D02*
X91602500Y-113085000D01*
X86712500Y-117020300D02*
X90647800Y-113085000D01*
%TO.N,LK22_D*%
X77187500Y-136090000D02*
X77187500Y-138475000D01*
X76787500Y-127675000D02*
X81195000Y-132082500D01*
X81247500Y-132135000D02*
X82077500Y-132135000D01*
X81195000Y-132082500D02*
X81247500Y-132135000D01*
X81195000Y-132082500D02*
X77187500Y-136090000D01*
%TO.N,LK09_D*%
X62900000Y-97979200D02*
X66844200Y-94035000D01*
X67790000Y-94035000D02*
X63330000Y-89575000D01*
X62900000Y-100375000D02*
X62900000Y-97979200D01*
X66844200Y-94035000D02*
X67790000Y-94035000D01*
X63330000Y-89575000D02*
X62500000Y-89575000D01*
%TO.N,LK02_D*%
X55412900Y-79051700D02*
X53375000Y-81089600D01*
X57312800Y-74985000D02*
X55412900Y-76884900D01*
X67819600Y-81169600D02*
X60887800Y-81169600D01*
X55412900Y-76884900D02*
X55412900Y-79051700D01*
X60887800Y-81169600D02*
X58769900Y-79051700D01*
X69075000Y-82425000D02*
X67819600Y-81169600D01*
X58265000Y-74985000D02*
X57312800Y-74985000D01*
X53375000Y-81089600D02*
X53375000Y-81325000D01*
X58769900Y-79051700D02*
X55412900Y-79051700D01*
%TO.N,LK24_D*%
X119347500Y-132135000D02*
X120177500Y-132135000D01*
X119295000Y-132082500D02*
X119347500Y-132135000D01*
X114887500Y-127675000D02*
X119295000Y-132082500D01*
X115287500Y-136090000D02*
X115287500Y-138475000D01*
X119295000Y-132082500D02*
X115287500Y-136090000D01*
%TO.N,LK08_D*%
X52543300Y-103430800D02*
X52543300Y-99115000D01*
X56487500Y-92775000D02*
X56487500Y-95170800D01*
X56487500Y-95170800D02*
X52543300Y-99115000D01*
X52543300Y-99115000D02*
X51597500Y-99115000D01*
X52687500Y-103575000D02*
X52543300Y-103430800D01*
%TO.N,LK13_D*%
X140630000Y-90675000D02*
X139800000Y-90675000D01*
X144246700Y-98743300D02*
X144246700Y-94291700D01*
X144976700Y-101276700D02*
X144976700Y-99473300D01*
X139100000Y-100375000D02*
X141276700Y-102551700D01*
X144246700Y-94291700D02*
X143990000Y-94035000D01*
X140630000Y-93059400D02*
X140630000Y-90675000D01*
X143990000Y-94035000D02*
X142255700Y-94035000D01*
X144976700Y-99473300D02*
X144246700Y-98743300D01*
X141276700Y-102551700D02*
X143701700Y-102551700D01*
X142255700Y-93059400D02*
X140630000Y-93059400D01*
X142255700Y-94035000D02*
X142255700Y-93059400D01*
X143701700Y-102551700D02*
X144976700Y-101276700D01*
X139800000Y-90675000D02*
X138700000Y-89575000D01*
%TO.N,LK26_D*%
X158277500Y-132135000D02*
X154917500Y-128775000D01*
X154087500Y-128775000D02*
X152987500Y-127675000D01*
X154087500Y-128775000D02*
X153387500Y-129475000D01*
X154917500Y-128775000D02*
X154087500Y-128775000D01*
X153387500Y-129475000D02*
X153387500Y-138475000D01*
%TO.N,LK03_D*%
X72425000Y-81325000D02*
X72375000Y-81275000D01*
X73765000Y-74985000D02*
X72375000Y-76375000D01*
X72375000Y-81275000D02*
X72375000Y-76375000D01*
X77315000Y-74985000D02*
X73765000Y-74985000D01*
%TO.N,LK28_D*%
X65408800Y-151185000D02*
X64508800Y-151185000D01*
X64508800Y-151185000D02*
X60518800Y-155175000D01*
X60518800Y-155175000D02*
X60518800Y-157525000D01*
X64508800Y-151185000D02*
X64508800Y-151115000D01*
X64508800Y-151115000D02*
X60118800Y-146725000D01*
%TO.N,LK17_D*%
X105762500Y-117024100D02*
X109701600Y-113085000D01*
X105362500Y-108625000D02*
X109701600Y-112964100D01*
X109701600Y-112964100D02*
X109701600Y-113085000D01*
X105762500Y-119425000D02*
X105762500Y-117024100D01*
X109701600Y-113085000D02*
X110652500Y-113085000D01*
%TO.N,LK04_D*%
X91425000Y-81275000D02*
X91425000Y-76375000D01*
X91425000Y-76375000D02*
X92815000Y-74985000D01*
X91475000Y-81325000D02*
X91425000Y-81275000D01*
X92815000Y-74985000D02*
X96365000Y-74985000D01*
%TO.N,LK12_D*%
X124110000Y-94035000D02*
X124940000Y-94035000D01*
X124057500Y-93982500D02*
X124110000Y-94035000D01*
X124057500Y-93982500D02*
X120050000Y-97990000D01*
X120050000Y-97990000D02*
X120050000Y-100375000D01*
X119650000Y-89575000D02*
X124057500Y-93982500D01*
%TO.N,LK21_D*%
X55756300Y-134094900D02*
X57716200Y-132135000D01*
X57716200Y-132135000D02*
X57716200Y-130034900D01*
X57716200Y-130034900D02*
X55356300Y-127675000D01*
X55756300Y-138475000D02*
X55756300Y-134094900D01*
X57716200Y-132135000D02*
X60646300Y-132135000D01*
%TO.N,LK27_D*%
X49216300Y-156265000D02*
X50161300Y-156265000D01*
X54106300Y-152320000D02*
X54106300Y-149925000D01*
X50161300Y-156265000D02*
X54106300Y-152320000D01*
X52806300Y-156975000D02*
X49926300Y-156975000D01*
X49926300Y-156975000D02*
X49216300Y-156265000D01*
%TO.N,LK25_D*%
X138276600Y-132014100D02*
X138276600Y-132135000D01*
X134337500Y-138475000D02*
X134337500Y-136074100D01*
X138276600Y-132135000D02*
X139227500Y-132135000D01*
X134337500Y-136074100D02*
X138276600Y-132135000D01*
X133937500Y-127675000D02*
X138276600Y-132014100D01*
%TD*%
M02*
