%TF.GenerationSoftware,KiCad,Pcbnew,10.0.3*%
%TF.CreationDate,2026-08-03T10:12:09+09:00*%
%TF.ProjectId,kc2_left-x3-v2,6b63325f-6c65-4667-942d-78332d76322e,draft-v2*%
%TF.SameCoordinates,Original*%
%TF.FileFunction,Drillmap*%
%TF.FilePolarity,Positive*%
%FSLAX45Y45*%
G04 Gerber Fmt 4.5, Leading zero omitted, Abs format (unit mm)*
G04 Created by KiCad (PCBNEW 10.0.3) date 2026-08-03 10:12:09*
%MOMM*%
%LPD*%
G01*
G04 APERTURE LIST*
%ADD10C,0.100000*%
%ADD11C,0.200000*%
%ADD12C,0.150000*%
G04 APERTURE END LIST*
D10*
X3500000Y-6350000D02*
X3508000Y-6278000D01*
X3500000Y-6600000D02*
X3500000Y-6350000D01*
X3500000Y-6680000D02*
X3500000Y-6600000D01*
X3500000Y-6760000D02*
X3500000Y-6680000D01*
X3500000Y-6840000D02*
X3500000Y-6760000D01*
X3500000Y-6920000D02*
X3500000Y-6840000D01*
X3500000Y-7000000D02*
X3500000Y-6920000D01*
X3500000Y-8505000D02*
X3500000Y-7000000D01*
X3500000Y-8585000D02*
X3500000Y-8505000D01*
X3500000Y-8665000D02*
X3500000Y-8585000D01*
X3500000Y-8745000D02*
X3500000Y-8665000D01*
X3500000Y-8825000D02*
X3500000Y-8745000D01*
X3500000Y-8905000D02*
X3500000Y-8825000D01*
X3500000Y-10410000D02*
X3500000Y-8905000D01*
X3500000Y-10490000D02*
X3500000Y-10410000D01*
X3500000Y-10570000D02*
X3500000Y-10490000D01*
X3500000Y-10650000D02*
X3500000Y-10570000D01*
X3500000Y-10730000D02*
X3500000Y-10650000D01*
X3500000Y-10810000D02*
X3500000Y-10730000D01*
X3500000Y-12315000D02*
X3500000Y-10810000D01*
X3500000Y-12395000D02*
X3500000Y-12315000D01*
X3500000Y-12475000D02*
X3500000Y-12395000D01*
X3500000Y-12555000D02*
X3500000Y-12475000D01*
X3500000Y-12635000D02*
X3500000Y-12555000D01*
X3500000Y-12715000D02*
X3500000Y-12635000D01*
X3500000Y-14220000D02*
X3500000Y-12715000D01*
X3500000Y-14300000D02*
X3500000Y-14220000D01*
X3500000Y-14380000D02*
X3500000Y-14300000D01*
X3500000Y-14460000D02*
X3500000Y-14380000D01*
X3500000Y-14540000D02*
X3500000Y-14460000D01*
X3500000Y-14620000D02*
X3500000Y-14540000D01*
X3500000Y-16525000D02*
X3500000Y-14620000D01*
X3508000Y-6278000D02*
X3532000Y-6222000D01*
X3508000Y-16597000D02*
X3500000Y-16525000D01*
X3532000Y-6222000D02*
X3572000Y-6182000D01*
X3532000Y-16653000D02*
X3508000Y-16597000D01*
X3572000Y-6182000D02*
X3628000Y-6158000D01*
X3572000Y-16693000D02*
X3532000Y-16653000D01*
X3628000Y-6158000D02*
X3700000Y-6150000D01*
X3628000Y-16717000D02*
X3572000Y-16693000D01*
X3700000Y-6150000D02*
X11271250Y-6150000D01*
X3700000Y-16725000D02*
X3628000Y-16717000D01*
X11271250Y-6150000D02*
X11343250Y-6142000D01*
X11343250Y-6142000D02*
X11399250Y-6118000D01*
X11399250Y-6118000D02*
X11439250Y-6128000D01*
X11439250Y-6128000D02*
X11463250Y-6072000D01*
X11463250Y-6072000D02*
X11471250Y-6000000D01*
X11471250Y-3700000D02*
X11479250Y-3628000D01*
X11471250Y-6000000D02*
X11471250Y-3700000D01*
X11479250Y-3628000D02*
X11503250Y-3572000D01*
X11503250Y-3572000D02*
X11543250Y-3532000D01*
X11543250Y-3532000D02*
X11599250Y-3508000D01*
X11599250Y-3508000D02*
X11671250Y-3500000D01*
X11671250Y-3500000D02*
X15521250Y-3500000D01*
X15521250Y-3500000D02*
X15593250Y-3508000D01*
X15593250Y-3508000D02*
X15649250Y-3532000D01*
X15649250Y-3532000D02*
X15689250Y-3572000D01*
X15689250Y-3572000D02*
X15713250Y-3628000D01*
X15713250Y-3628000D02*
X15721250Y-3700000D01*
X15721250Y-3700000D02*
X15721250Y-6000000D01*
X15721250Y-6000000D02*
X15729250Y-6072000D01*
X15729250Y-6072000D02*
X15753250Y-6128000D01*
X15753250Y-6128000D02*
X15793250Y-6118000D01*
X15793250Y-6118000D02*
X15849250Y-6142000D01*
X15849250Y-6142000D02*
X15921250Y-6150000D01*
X15921250Y-6150000D02*
X17395000Y-6150000D01*
X16670000Y-8833000D02*
X16670000Y-8905000D01*
X16670000Y-8905000D02*
X16670000Y-10410000D01*
X16670000Y-10410000D02*
X16670000Y-10482000D01*
X16670000Y-10482000D02*
X16674500Y-10538000D01*
X16674500Y-8777000D02*
X16670000Y-8833000D01*
X16674500Y-10538000D02*
X16714500Y-10578000D01*
X16714500Y-8737000D02*
X16674500Y-8777000D01*
X16714500Y-10578000D02*
X16770500Y-10602000D01*
X16770500Y-8713000D02*
X16714500Y-8737000D01*
X16770500Y-10602000D02*
X16842500Y-10610000D01*
X16842500Y-8705000D02*
X16770500Y-8713000D01*
X16842500Y-10610000D02*
X16918750Y-10610000D01*
X16918750Y-10610000D02*
X16990750Y-10618000D01*
X16990750Y-10618000D02*
X17046750Y-10642000D01*
X17046750Y-10642000D02*
X17086750Y-10682000D01*
X17086750Y-10682000D02*
X17110750Y-10738000D01*
X17110750Y-10738000D02*
X17118750Y-10810000D01*
X17118750Y-10810000D02*
X17118750Y-12315000D01*
X17118750Y-12315000D02*
X17126750Y-12387000D01*
X17126750Y-12387000D02*
X17150750Y-12443000D01*
X17150750Y-12443000D02*
X17190750Y-12483000D01*
X17190750Y-12483000D02*
X17246750Y-12507000D01*
X17246750Y-12507000D02*
X17318750Y-12515000D01*
X17318750Y-12515000D02*
X17871250Y-12515000D01*
X17395000Y-6150000D02*
X17467000Y-6158000D01*
X17395000Y-8705000D02*
X16842500Y-8705000D01*
X17467000Y-6158000D02*
X17523000Y-6182000D01*
X17467000Y-8697000D02*
X17395000Y-8705000D01*
X17523000Y-6182000D02*
X17563000Y-6222000D01*
X17523000Y-8673000D02*
X17467000Y-8697000D01*
X17563000Y-6222000D02*
X17587000Y-6278000D01*
X17563000Y-8633000D02*
X17523000Y-8673000D01*
X17587000Y-6278000D02*
X17595000Y-6350000D01*
X17587000Y-8577000D02*
X17563000Y-8633000D01*
X17595000Y-6350000D02*
X17595000Y-8505000D01*
X17595000Y-8505000D02*
X17587000Y-8577000D01*
X17871250Y-12515000D02*
X17943250Y-12523000D01*
X17891250Y-16725000D02*
X3700000Y-16725000D01*
X17943250Y-12523000D02*
X17999250Y-12547000D01*
X17956050Y-16717800D02*
X17891250Y-16725000D01*
X17999250Y-12547000D02*
X18039250Y-12587000D01*
X18006450Y-16696200D02*
X17956050Y-16717800D01*
X18039250Y-12587000D02*
X18063250Y-12643000D01*
X18042450Y-16660200D02*
X18006450Y-16696200D01*
X18063250Y-12643000D02*
X18071250Y-12715000D01*
X18064050Y-16609800D02*
X18042450Y-16660200D01*
X18071250Y-12715000D02*
X18071250Y-14220000D01*
X18071250Y-14220000D02*
X18071250Y-14300000D01*
X18071250Y-14300000D02*
X18071250Y-14380000D01*
X18071250Y-14380000D02*
X18071250Y-14460000D01*
X18071250Y-14460000D02*
X18071250Y-14540000D01*
X18071250Y-14540000D02*
X18071250Y-14620000D01*
X18071250Y-14620000D02*
X18071250Y-16145000D01*
X18071250Y-16145000D02*
X18071250Y-16217000D01*
X18071250Y-16217000D02*
X18071250Y-16289000D01*
X18071250Y-16289000D02*
X18071250Y-16361000D01*
X18071250Y-16361000D02*
X18071250Y-16433000D01*
X18071250Y-16433000D02*
X18071250Y-16505000D01*
X18071250Y-16505000D02*
X18071250Y-16545000D01*
X18071250Y-16545000D02*
X18064050Y-16609800D01*
D11*
D10*
X5387090Y-13844450D02*
X5417090Y-13874450D01*
X5417090Y-13844450D02*
X5387090Y-13874450D01*
X7495030Y-12434420D02*
X7525030Y-12464420D01*
X7525030Y-12434420D02*
X7495030Y-12464420D01*
X7564680Y-13844450D02*
X7594680Y-13874450D01*
X7594680Y-13844450D02*
X7564680Y-13874450D01*
X7792810Y-6782510D02*
X7822810Y-6812510D01*
X7822810Y-6782510D02*
X7792810Y-6812510D01*
X9281710Y-6302050D02*
X9311710Y-6332050D01*
X9311710Y-6302050D02*
X9281710Y-6332050D01*
X9371040Y-12535010D02*
X9401040Y-12565010D01*
X9401040Y-12535010D02*
X9371040Y-12565010D01*
X9977490Y-14452190D02*
X10007490Y-14482190D01*
X10007490Y-14452190D02*
X9977490Y-14482190D01*
X11068390Y-6237770D02*
X11098390Y-6267770D01*
X11098390Y-6237770D02*
X11068390Y-6267770D01*
X11663950Y-8617630D02*
X11693950Y-8647630D01*
X11693950Y-8617630D02*
X11663950Y-8647630D01*
X13152860Y-12434980D02*
X13182860Y-12464980D01*
X13182860Y-12434980D02*
X13152860Y-12464980D01*
X13166330Y-7326830D02*
X13196330Y-7356830D01*
X13196330Y-7326830D02*
X13166330Y-7356830D01*
X13495590Y-4755990D02*
X13525590Y-4785990D01*
X13525590Y-4755990D02*
X13495590Y-4785990D01*
X14052640Y-10391690D02*
X14082640Y-10421690D01*
X14082640Y-10391690D02*
X14052640Y-10421690D01*
X14647450Y-11569050D02*
X14677450Y-11599050D01*
X14677450Y-11569050D02*
X14647450Y-11599050D01*
X15160510Y-12512500D02*
X15190510Y-12542500D01*
X15190510Y-12512500D02*
X15160510Y-12542500D01*
X15198610Y-8403640D02*
X15228610Y-8433640D01*
X15228610Y-8403640D02*
X15198610Y-8433640D01*
X15223650Y-6007710D02*
X15253650Y-6037710D01*
X15253650Y-6007710D02*
X15223650Y-6037710D01*
X15298660Y-8770790D02*
X15328660Y-8800790D01*
X15328660Y-8770790D02*
X15298660Y-8800790D01*
X12471750Y-4011000D02*
G75*
G02*
X12376750Y-4011000I-47500J0D01*
G01*
X12376750Y-4011000D02*
G75*
G02*
X12471750Y-4011000I47500J0D01*
G01*
X12471750Y-5789000D02*
G75*
G02*
X12376750Y-5789000I-47500J0D01*
G01*
X12376750Y-5789000D02*
G75*
G02*
X12471750Y-5789000I47500J0D01*
G01*
X12725750Y-4011000D02*
G75*
G02*
X12630750Y-4011000I-47500J0D01*
G01*
X12630750Y-4011000D02*
G75*
G02*
X12725750Y-4011000I47500J0D01*
G01*
X12725750Y-5789000D02*
G75*
G02*
X12630750Y-5789000I-47500J0D01*
G01*
X12630750Y-5789000D02*
G75*
G02*
X12725750Y-5789000I47500J0D01*
G01*
X12979750Y-4011000D02*
G75*
G02*
X12884750Y-4011000I-47500J0D01*
G01*
X12884750Y-4011000D02*
G75*
G02*
X12979750Y-4011000I47500J0D01*
G01*
X12979750Y-5789000D02*
G75*
G02*
X12884750Y-5789000I-47500J0D01*
G01*
X12884750Y-5789000D02*
G75*
G02*
X12979750Y-5789000I47500J0D01*
G01*
X13233750Y-4011000D02*
G75*
G02*
X13138750Y-4011000I-47500J0D01*
G01*
X13138750Y-4011000D02*
G75*
G02*
X13233750Y-4011000I47500J0D01*
G01*
X13233750Y-5789000D02*
G75*
G02*
X13138750Y-5789000I-47500J0D01*
G01*
X13138750Y-5789000D02*
G75*
G02*
X13233750Y-5789000I47500J0D01*
G01*
X13487750Y-4011000D02*
G75*
G02*
X13392750Y-4011000I-47500J0D01*
G01*
X13392750Y-4011000D02*
G75*
G02*
X13487750Y-4011000I47500J0D01*
G01*
X13487750Y-5789000D02*
G75*
G02*
X13392750Y-5789000I-47500J0D01*
G01*
X13392750Y-5789000D02*
G75*
G02*
X13487750Y-5789000I47500J0D01*
G01*
X13741750Y-4011000D02*
G75*
G02*
X13646750Y-4011000I-47500J0D01*
G01*
X13646750Y-4011000D02*
G75*
G02*
X13741750Y-4011000I47500J0D01*
G01*
X13741750Y-5789000D02*
G75*
G02*
X13646750Y-5789000I-47500J0D01*
G01*
X13646750Y-5789000D02*
G75*
G02*
X13741750Y-5789000I47500J0D01*
G01*
X13995750Y-4011000D02*
G75*
G02*
X13900750Y-4011000I-47500J0D01*
G01*
X13900750Y-4011000D02*
G75*
G02*
X13995750Y-4011000I47500J0D01*
G01*
X13995750Y-5789000D02*
G75*
G02*
X13900750Y-5789000I-47500J0D01*
G01*
X13900750Y-5789000D02*
G75*
G02*
X13995750Y-5789000I47500J0D01*
G01*
X14249750Y-4011000D02*
G75*
G02*
X14154750Y-4011000I-47500J0D01*
G01*
X14154750Y-4011000D02*
G75*
G02*
X14249750Y-4011000I47500J0D01*
G01*
X14249750Y-5789000D02*
G75*
G02*
X14154750Y-5789000I-47500J0D01*
G01*
X14154750Y-5789000D02*
G75*
G02*
X14249750Y-5789000I47500J0D01*
G01*
X14503750Y-4011000D02*
G75*
G02*
X14408750Y-4011000I-47500J0D01*
G01*
X14408750Y-4011000D02*
G75*
G02*
X14503750Y-4011000I47500J0D01*
G01*
X14503750Y-5789000D02*
G75*
G02*
X14408750Y-5789000I-47500J0D01*
G01*
X14408750Y-5789000D02*
G75*
G02*
X14503750Y-5789000I47500J0D01*
G01*
X14757750Y-4011000D02*
G75*
G02*
X14662750Y-4011000I-47500J0D01*
G01*
X14662750Y-4011000D02*
G75*
G02*
X14757750Y-4011000I47500J0D01*
G01*
X14757750Y-5789000D02*
G75*
G02*
X14662750Y-5789000I-47500J0D01*
G01*
X14662750Y-5789000D02*
G75*
G02*
X14757750Y-5789000I47500J0D01*
G01*
X15011750Y-4011000D02*
G75*
G02*
X14916750Y-4011000I-47500J0D01*
G01*
X14916750Y-4011000D02*
G75*
G02*
X15011750Y-4011000I47500J0D01*
G01*
X15011750Y-5789000D02*
G75*
G02*
X14916750Y-5789000I-47500J0D01*
G01*
X14916750Y-5789000D02*
G75*
G02*
X15011750Y-5789000I47500J0D01*
G01*
X15265750Y-4011000D02*
G75*
G02*
X15170750Y-4011000I-47500J0D01*
G01*
X15170750Y-4011000D02*
G75*
G02*
X15265750Y-4011000I47500J0D01*
G01*
X15265750Y-5789000D02*
G75*
G02*
X15170750Y-5789000I-47500J0D01*
G01*
X15170750Y-5789000D02*
G75*
G02*
X15265750Y-5789000I47500J0D01*
G01*
D12*
X4471500Y-7423500D02*
X4471500Y-7573500D01*
X4396500Y-7498500D02*
X4546500Y-7498500D01*
X4709630Y-13138500D02*
X4709630Y-13288500D01*
X4634630Y-13213500D02*
X4784630Y-13213500D01*
X4709630Y-15043500D02*
X4709630Y-15193500D01*
X4634630Y-15118500D02*
X4784630Y-15118500D01*
X4947750Y-9328500D02*
X4947750Y-9478500D01*
X4872750Y-9403500D02*
X5022750Y-9403500D01*
X5106500Y-7169500D02*
X5106500Y-7319500D01*
X5031500Y-7244500D02*
X5181500Y-7244500D01*
X5185880Y-11233500D02*
X5185880Y-11383500D01*
X5110880Y-11308500D02*
X5260880Y-11308500D01*
X5344630Y-12884500D02*
X5344630Y-13034500D01*
X5269630Y-12959500D02*
X5419630Y-12959500D01*
X5344630Y-14789500D02*
X5344630Y-14939500D01*
X5269630Y-14864500D02*
X5419630Y-14864500D01*
X5582750Y-9074500D02*
X5582750Y-9224500D01*
X5507750Y-9149500D02*
X5657750Y-9149500D01*
X5820880Y-10979500D02*
X5820880Y-11129500D01*
X5745880Y-11054500D02*
X5895880Y-11054500D01*
X6376500Y-7423500D02*
X6376500Y-7573500D01*
X6301500Y-7498500D02*
X6451500Y-7498500D01*
X6852750Y-13138500D02*
X6852750Y-13288500D01*
X6777750Y-13213500D02*
X6927750Y-13213500D01*
X7011500Y-7169500D02*
X7011500Y-7319500D01*
X6936500Y-7244500D02*
X7086500Y-7244500D01*
X7090880Y-15043500D02*
X7090880Y-15193500D01*
X7015880Y-15118500D02*
X7165880Y-15118500D01*
X7329000Y-9328500D02*
X7329000Y-9478500D01*
X7254000Y-9403500D02*
X7404000Y-9403500D01*
X7487750Y-12884500D02*
X7487750Y-13034500D01*
X7412750Y-12959500D02*
X7562750Y-12959500D01*
X7725880Y-14789500D02*
X7725880Y-14939500D01*
X7650880Y-14864500D02*
X7800880Y-14864500D01*
X7805250Y-11233500D02*
X7805250Y-11383500D01*
X7730250Y-11308500D02*
X7880250Y-11308500D01*
X7964000Y-9074500D02*
X7964000Y-9224500D01*
X7889000Y-9149500D02*
X8039000Y-9149500D01*
X8281500Y-7423500D02*
X8281500Y-7573500D01*
X8206500Y-7498500D02*
X8356500Y-7498500D01*
X8440250Y-10979500D02*
X8440250Y-11129500D01*
X8365250Y-11054500D02*
X8515250Y-11054500D01*
X8757750Y-13138500D02*
X8757750Y-13288500D01*
X8682750Y-13213500D02*
X8832750Y-13213500D01*
X8916500Y-7169500D02*
X8916500Y-7319500D01*
X8841500Y-7244500D02*
X8991500Y-7244500D01*
X9234000Y-9328500D02*
X9234000Y-9478500D01*
X9159000Y-9403500D02*
X9309000Y-9403500D01*
X9392750Y-12884500D02*
X9392750Y-13034500D01*
X9317750Y-12959500D02*
X9467750Y-12959500D01*
X9472130Y-15043500D02*
X9472130Y-15193500D01*
X9397130Y-15118500D02*
X9547130Y-15118500D01*
X9710250Y-11233500D02*
X9710250Y-11383500D01*
X9635250Y-11308500D02*
X9785250Y-11308500D01*
X9869000Y-9074500D02*
X9869000Y-9224500D01*
X9794000Y-9149500D02*
X9944000Y-9149500D01*
X10107130Y-14789500D02*
X10107130Y-14939500D01*
X10032130Y-14864500D02*
X10182130Y-14864500D01*
X10186500Y-7423500D02*
X10186500Y-7573500D01*
X10111500Y-7498500D02*
X10261500Y-7498500D01*
X10345250Y-10979500D02*
X10345250Y-11129500D01*
X10270250Y-11054500D02*
X10420250Y-11054500D01*
X10662750Y-13138500D02*
X10662750Y-13288500D01*
X10587750Y-13213500D02*
X10737750Y-13213500D01*
X10821500Y-7169500D02*
X10821500Y-7319500D01*
X10746500Y-7244500D02*
X10896500Y-7244500D01*
X11139000Y-9328500D02*
X11139000Y-9478500D01*
X11064000Y-9403500D02*
X11214000Y-9403500D01*
X11297750Y-12884500D02*
X11297750Y-13034500D01*
X11222750Y-12959500D02*
X11372750Y-12959500D01*
X11615250Y-11233500D02*
X11615250Y-11383500D01*
X11540250Y-11308500D02*
X11690250Y-11308500D01*
X11774000Y-9074500D02*
X11774000Y-9224500D01*
X11699000Y-9149500D02*
X11849000Y-9149500D01*
X11853380Y-15043500D02*
X11853380Y-15193500D01*
X11778380Y-15118500D02*
X11928380Y-15118500D01*
X12091500Y-7423500D02*
X12091500Y-7573500D01*
X12016500Y-7498500D02*
X12166500Y-7498500D01*
X12250250Y-10979500D02*
X12250250Y-11129500D01*
X12175250Y-11054500D02*
X12325250Y-11054500D01*
X12488380Y-14789500D02*
X12488380Y-14939500D01*
X12413380Y-14864500D02*
X12563380Y-14864500D01*
X12567750Y-13138500D02*
X12567750Y-13288500D01*
X12492750Y-13213500D02*
X12642750Y-13213500D01*
X12726500Y-7169500D02*
X12726500Y-7319500D01*
X12651500Y-7244500D02*
X12801500Y-7244500D01*
X13044000Y-9328500D02*
X13044000Y-9478500D01*
X12969000Y-9403500D02*
X13119000Y-9403500D01*
X13202750Y-12884500D02*
X13202750Y-13034500D01*
X13127750Y-12959500D02*
X13277750Y-12959500D01*
X13520250Y-11233500D02*
X13520250Y-11383500D01*
X13445250Y-11308500D02*
X13595250Y-11308500D01*
X13679000Y-9074500D02*
X13679000Y-9224500D01*
X13604000Y-9149500D02*
X13754000Y-9149500D01*
X13996500Y-7423500D02*
X13996500Y-7573500D01*
X13921500Y-7498500D02*
X14071500Y-7498500D01*
X13996500Y-15043500D02*
X13996500Y-15193500D01*
X13921500Y-15118500D02*
X14071500Y-15118500D01*
X14155250Y-10979500D02*
X14155250Y-11129500D01*
X14080250Y-11054500D02*
X14230250Y-11054500D01*
X14472750Y-13138500D02*
X14472750Y-13288500D01*
X14397750Y-13213500D02*
X14547750Y-13213500D01*
X14631500Y-7169500D02*
X14631500Y-7319500D01*
X14556500Y-7244500D02*
X14706500Y-7244500D01*
X14631500Y-14789500D02*
X14631500Y-14939500D01*
X14556500Y-14864500D02*
X14706500Y-14864500D01*
X14949000Y-9328500D02*
X14949000Y-9478500D01*
X14874000Y-9403500D02*
X15024000Y-9403500D01*
X15107750Y-12884500D02*
X15107750Y-13034500D01*
X15032750Y-12959500D02*
X15182750Y-12959500D01*
X15425250Y-11233500D02*
X15425250Y-11383500D01*
X15350250Y-11308500D02*
X15500250Y-11308500D01*
X15584000Y-9074500D02*
X15584000Y-9224500D01*
X15509000Y-9149500D02*
X15659000Y-9149500D01*
X15901500Y-7423500D02*
X15901500Y-7573500D01*
X15826500Y-7498500D02*
X15976500Y-7498500D01*
X16060250Y-10979500D02*
X16060250Y-11129500D01*
X15985250Y-11054500D02*
X16135250Y-11054500D01*
X16139630Y-15043500D02*
X16139630Y-15193500D01*
X16064630Y-15118500D02*
X16214630Y-15118500D01*
X16377750Y-13138500D02*
X16377750Y-13288500D01*
X16302750Y-13213500D02*
X16452750Y-13213500D01*
X16536500Y-7169500D02*
X16536500Y-7319500D01*
X16461500Y-7244500D02*
X16611500Y-7244500D01*
X16774630Y-14789500D02*
X16774630Y-14939500D01*
X16699630Y-14864500D02*
X16849630Y-14864500D01*
X17012750Y-12884500D02*
X17012750Y-13034500D01*
X16937750Y-12959500D02*
X17087750Y-12959500D01*
D11*
X3755777Y-17041484D02*
X3755777Y-16841484D01*
X3755777Y-16841484D02*
X3803396Y-16841484D01*
X3803396Y-16841484D02*
X3831967Y-16851008D01*
X3831967Y-16851008D02*
X3851015Y-16870055D01*
X3851015Y-16870055D02*
X3860539Y-16889103D01*
X3860539Y-16889103D02*
X3870062Y-16927198D01*
X3870062Y-16927198D02*
X3870062Y-16955770D01*
X3870062Y-16955770D02*
X3860539Y-16993865D01*
X3860539Y-16993865D02*
X3851015Y-17012912D01*
X3851015Y-17012912D02*
X3831967Y-17031960D01*
X3831967Y-17031960D02*
X3803396Y-17041484D01*
X3803396Y-17041484D02*
X3755777Y-17041484D01*
X3955777Y-17041484D02*
X3955777Y-16908150D01*
X3955777Y-16946246D02*
X3965301Y-16927198D01*
X3965301Y-16927198D02*
X3974824Y-16917674D01*
X3974824Y-16917674D02*
X3993872Y-16908150D01*
X3993872Y-16908150D02*
X4012920Y-16908150D01*
X4079586Y-17041484D02*
X4079586Y-16908150D01*
X4079586Y-16841484D02*
X4070062Y-16851008D01*
X4070062Y-16851008D02*
X4079586Y-16860531D01*
X4079586Y-16860531D02*
X4089110Y-16851008D01*
X4089110Y-16851008D02*
X4079586Y-16841484D01*
X4079586Y-16841484D02*
X4079586Y-16860531D01*
X4203396Y-17041484D02*
X4184348Y-17031960D01*
X4184348Y-17031960D02*
X4174824Y-17012912D01*
X4174824Y-17012912D02*
X4174824Y-16841484D01*
X4308158Y-17041484D02*
X4289110Y-17031960D01*
X4289110Y-17031960D02*
X4279586Y-17012912D01*
X4279586Y-17012912D02*
X4279586Y-16841484D01*
X4536729Y-17041484D02*
X4536729Y-16841484D01*
X4536729Y-16841484D02*
X4603396Y-16984341D01*
X4603396Y-16984341D02*
X4670063Y-16841484D01*
X4670063Y-16841484D02*
X4670063Y-17041484D01*
X4851015Y-17041484D02*
X4851015Y-16936722D01*
X4851015Y-16936722D02*
X4841491Y-16917674D01*
X4841491Y-16917674D02*
X4822444Y-16908150D01*
X4822444Y-16908150D02*
X4784348Y-16908150D01*
X4784348Y-16908150D02*
X4765301Y-16917674D01*
X4851015Y-17031960D02*
X4831967Y-17041484D01*
X4831967Y-17041484D02*
X4784348Y-17041484D01*
X4784348Y-17041484D02*
X4765301Y-17031960D01*
X4765301Y-17031960D02*
X4755777Y-17012912D01*
X4755777Y-17012912D02*
X4755777Y-16993865D01*
X4755777Y-16993865D02*
X4765301Y-16974817D01*
X4765301Y-16974817D02*
X4784348Y-16965293D01*
X4784348Y-16965293D02*
X4831967Y-16965293D01*
X4831967Y-16965293D02*
X4851015Y-16955770D01*
X4946253Y-16908150D02*
X4946253Y-17108150D01*
X4946253Y-16917674D02*
X4965301Y-16908150D01*
X4965301Y-16908150D02*
X5003396Y-16908150D01*
X5003396Y-16908150D02*
X5022444Y-16917674D01*
X5022444Y-16917674D02*
X5031967Y-16927198D01*
X5031967Y-16927198D02*
X5041491Y-16946246D01*
X5041491Y-16946246D02*
X5041491Y-17003389D01*
X5041491Y-17003389D02*
X5031967Y-17022436D01*
X5031967Y-17022436D02*
X5022444Y-17031960D01*
X5022444Y-17031960D02*
X5003396Y-17041484D01*
X5003396Y-17041484D02*
X4965301Y-17041484D01*
X4965301Y-17041484D02*
X4946253Y-17031960D01*
X5127205Y-17022436D02*
X5136729Y-17031960D01*
X5136729Y-17031960D02*
X5127205Y-17041484D01*
X5127205Y-17041484D02*
X5117682Y-17031960D01*
X5117682Y-17031960D02*
X5127205Y-17022436D01*
X5127205Y-17022436D02*
X5127205Y-17041484D01*
X5127205Y-16917674D02*
X5136729Y-16927198D01*
X5136729Y-16927198D02*
X5127205Y-16936722D01*
X5127205Y-16936722D02*
X5117682Y-16927198D01*
X5117682Y-16927198D02*
X5127205Y-16917674D01*
X5127205Y-16917674D02*
X5127205Y-16936722D01*
D10*
X3465000Y-17355000D02*
X3495000Y-17385000D01*
X3495000Y-17355000D02*
X3465000Y-17385000D01*
D11*
X3793872Y-17261484D02*
X3812920Y-17261484D01*
X3812920Y-17261484D02*
X3831967Y-17271008D01*
X3831967Y-17271008D02*
X3841491Y-17280531D01*
X3841491Y-17280531D02*
X3851015Y-17299579D01*
X3851015Y-17299579D02*
X3860539Y-17337674D01*
X3860539Y-17337674D02*
X3860539Y-17385293D01*
X3860539Y-17385293D02*
X3851015Y-17423389D01*
X3851015Y-17423389D02*
X3841491Y-17442436D01*
X3841491Y-17442436D02*
X3831967Y-17451960D01*
X3831967Y-17451960D02*
X3812920Y-17461484D01*
X3812920Y-17461484D02*
X3793872Y-17461484D01*
X3793872Y-17461484D02*
X3774824Y-17451960D01*
X3774824Y-17451960D02*
X3765301Y-17442436D01*
X3765301Y-17442436D02*
X3755777Y-17423389D01*
X3755777Y-17423389D02*
X3746253Y-17385293D01*
X3746253Y-17385293D02*
X3746253Y-17337674D01*
X3746253Y-17337674D02*
X3755777Y-17299579D01*
X3755777Y-17299579D02*
X3765301Y-17280531D01*
X3765301Y-17280531D02*
X3774824Y-17271008D01*
X3774824Y-17271008D02*
X3793872Y-17261484D01*
X3946253Y-17442436D02*
X3955777Y-17451960D01*
X3955777Y-17451960D02*
X3946253Y-17461484D01*
X3946253Y-17461484D02*
X3936729Y-17451960D01*
X3936729Y-17451960D02*
X3946253Y-17442436D01*
X3946253Y-17442436D02*
X3946253Y-17461484D01*
X4022443Y-17261484D02*
X4146253Y-17261484D01*
X4146253Y-17261484D02*
X4079586Y-17337674D01*
X4079586Y-17337674D02*
X4108158Y-17337674D01*
X4108158Y-17337674D02*
X4127205Y-17347198D01*
X4127205Y-17347198D02*
X4136729Y-17356722D01*
X4136729Y-17356722D02*
X4146253Y-17375770D01*
X4146253Y-17375770D02*
X4146253Y-17423389D01*
X4146253Y-17423389D02*
X4136729Y-17442436D01*
X4136729Y-17442436D02*
X4127205Y-17451960D01*
X4127205Y-17451960D02*
X4108158Y-17461484D01*
X4108158Y-17461484D02*
X4051015Y-17461484D01*
X4051015Y-17461484D02*
X4031967Y-17451960D01*
X4031967Y-17451960D02*
X4022443Y-17442436D01*
X4270063Y-17261484D02*
X4289110Y-17261484D01*
X4289110Y-17261484D02*
X4308158Y-17271008D01*
X4308158Y-17271008D02*
X4317682Y-17280531D01*
X4317682Y-17280531D02*
X4327205Y-17299579D01*
X4327205Y-17299579D02*
X4336729Y-17337674D01*
X4336729Y-17337674D02*
X4336729Y-17385293D01*
X4336729Y-17385293D02*
X4327205Y-17423389D01*
X4327205Y-17423389D02*
X4317682Y-17442436D01*
X4317682Y-17442436D02*
X4308158Y-17451960D01*
X4308158Y-17451960D02*
X4289110Y-17461484D01*
X4289110Y-17461484D02*
X4270063Y-17461484D01*
X4270063Y-17461484D02*
X4251015Y-17451960D01*
X4251015Y-17451960D02*
X4241491Y-17442436D01*
X4241491Y-17442436D02*
X4231967Y-17423389D01*
X4231967Y-17423389D02*
X4222444Y-17385293D01*
X4222444Y-17385293D02*
X4222444Y-17337674D01*
X4222444Y-17337674D02*
X4231967Y-17299579D01*
X4231967Y-17299579D02*
X4241491Y-17280531D01*
X4241491Y-17280531D02*
X4251015Y-17271008D01*
X4251015Y-17271008D02*
X4270063Y-17261484D01*
X4460539Y-17261484D02*
X4479586Y-17261484D01*
X4479586Y-17261484D02*
X4498634Y-17271008D01*
X4498634Y-17271008D02*
X4508158Y-17280531D01*
X4508158Y-17280531D02*
X4517682Y-17299579D01*
X4517682Y-17299579D02*
X4527205Y-17337674D01*
X4527205Y-17337674D02*
X4527205Y-17385293D01*
X4527205Y-17385293D02*
X4517682Y-17423389D01*
X4517682Y-17423389D02*
X4508158Y-17442436D01*
X4508158Y-17442436D02*
X4498634Y-17451960D01*
X4498634Y-17451960D02*
X4479586Y-17461484D01*
X4479586Y-17461484D02*
X4460539Y-17461484D01*
X4460539Y-17461484D02*
X4441491Y-17451960D01*
X4441491Y-17451960D02*
X4431967Y-17442436D01*
X4431967Y-17442436D02*
X4422444Y-17423389D01*
X4422444Y-17423389D02*
X4412920Y-17385293D01*
X4412920Y-17385293D02*
X4412920Y-17337674D01*
X4412920Y-17337674D02*
X4422444Y-17299579D01*
X4422444Y-17299579D02*
X4431967Y-17280531D01*
X4431967Y-17280531D02*
X4441491Y-17271008D01*
X4441491Y-17271008D02*
X4460539Y-17261484D01*
X4612920Y-17461484D02*
X4612920Y-17328150D01*
X4612920Y-17347198D02*
X4622444Y-17337674D01*
X4622444Y-17337674D02*
X4641491Y-17328150D01*
X4641491Y-17328150D02*
X4670063Y-17328150D01*
X4670063Y-17328150D02*
X4689110Y-17337674D01*
X4689110Y-17337674D02*
X4698634Y-17356722D01*
X4698634Y-17356722D02*
X4698634Y-17461484D01*
X4698634Y-17356722D02*
X4708158Y-17337674D01*
X4708158Y-17337674D02*
X4727205Y-17328150D01*
X4727205Y-17328150D02*
X4755777Y-17328150D01*
X4755777Y-17328150D02*
X4774825Y-17337674D01*
X4774825Y-17337674D02*
X4784348Y-17356722D01*
X4784348Y-17356722D02*
X4784348Y-17461484D01*
X4879586Y-17461484D02*
X4879586Y-17328150D01*
X4879586Y-17347198D02*
X4889110Y-17337674D01*
X4889110Y-17337674D02*
X4908158Y-17328150D01*
X4908158Y-17328150D02*
X4936729Y-17328150D01*
X4936729Y-17328150D02*
X4955777Y-17337674D01*
X4955777Y-17337674D02*
X4965301Y-17356722D01*
X4965301Y-17356722D02*
X4965301Y-17461484D01*
X4965301Y-17356722D02*
X4974825Y-17337674D01*
X4974825Y-17337674D02*
X4993872Y-17328150D01*
X4993872Y-17328150D02*
X5022444Y-17328150D01*
X5022444Y-17328150D02*
X5041491Y-17337674D01*
X5041491Y-17337674D02*
X5051015Y-17356722D01*
X5051015Y-17356722D02*
X5051015Y-17461484D01*
X5441491Y-17251960D02*
X5270063Y-17509103D01*
X5698634Y-17261484D02*
X5717682Y-17261484D01*
X5717682Y-17261484D02*
X5736729Y-17271008D01*
X5736729Y-17271008D02*
X5746253Y-17280531D01*
X5746253Y-17280531D02*
X5755777Y-17299579D01*
X5755777Y-17299579D02*
X5765301Y-17337674D01*
X5765301Y-17337674D02*
X5765301Y-17385293D01*
X5765301Y-17385293D02*
X5755777Y-17423389D01*
X5755777Y-17423389D02*
X5746253Y-17442436D01*
X5746253Y-17442436D02*
X5736729Y-17451960D01*
X5736729Y-17451960D02*
X5717682Y-17461484D01*
X5717682Y-17461484D02*
X5698634Y-17461484D01*
X5698634Y-17461484D02*
X5679586Y-17451960D01*
X5679586Y-17451960D02*
X5670063Y-17442436D01*
X5670063Y-17442436D02*
X5660539Y-17423389D01*
X5660539Y-17423389D02*
X5651015Y-17385293D01*
X5651015Y-17385293D02*
X5651015Y-17337674D01*
X5651015Y-17337674D02*
X5660539Y-17299579D01*
X5660539Y-17299579D02*
X5670063Y-17280531D01*
X5670063Y-17280531D02*
X5679586Y-17271008D01*
X5679586Y-17271008D02*
X5698634Y-17261484D01*
X5851015Y-17442436D02*
X5860539Y-17451960D01*
X5860539Y-17451960D02*
X5851015Y-17461484D01*
X5851015Y-17461484D02*
X5841491Y-17451960D01*
X5841491Y-17451960D02*
X5851015Y-17442436D01*
X5851015Y-17442436D02*
X5851015Y-17461484D01*
X5984348Y-17261484D02*
X6003396Y-17261484D01*
X6003396Y-17261484D02*
X6022444Y-17271008D01*
X6022444Y-17271008D02*
X6031967Y-17280531D01*
X6031967Y-17280531D02*
X6041491Y-17299579D01*
X6041491Y-17299579D02*
X6051015Y-17337674D01*
X6051015Y-17337674D02*
X6051015Y-17385293D01*
X6051015Y-17385293D02*
X6041491Y-17423389D01*
X6041491Y-17423389D02*
X6031967Y-17442436D01*
X6031967Y-17442436D02*
X6022444Y-17451960D01*
X6022444Y-17451960D02*
X6003396Y-17461484D01*
X6003396Y-17461484D02*
X5984348Y-17461484D01*
X5984348Y-17461484D02*
X5965301Y-17451960D01*
X5965301Y-17451960D02*
X5955777Y-17442436D01*
X5955777Y-17442436D02*
X5946253Y-17423389D01*
X5946253Y-17423389D02*
X5936729Y-17385293D01*
X5936729Y-17385293D02*
X5936729Y-17337674D01*
X5936729Y-17337674D02*
X5946253Y-17299579D01*
X5946253Y-17299579D02*
X5955777Y-17280531D01*
X5955777Y-17280531D02*
X5965301Y-17271008D01*
X5965301Y-17271008D02*
X5984348Y-17261484D01*
X6241491Y-17461484D02*
X6127206Y-17461484D01*
X6184348Y-17461484D02*
X6184348Y-17261484D01*
X6184348Y-17261484D02*
X6165301Y-17290055D01*
X6165301Y-17290055D02*
X6146253Y-17309103D01*
X6146253Y-17309103D02*
X6127206Y-17318627D01*
X6431967Y-17461484D02*
X6317682Y-17461484D01*
X6374825Y-17461484D02*
X6374825Y-17261484D01*
X6374825Y-17261484D02*
X6355777Y-17290055D01*
X6355777Y-17290055D02*
X6336729Y-17309103D01*
X6336729Y-17309103D02*
X6317682Y-17318627D01*
X6546253Y-17347198D02*
X6527206Y-17337674D01*
X6527206Y-17337674D02*
X6517682Y-17328150D01*
X6517682Y-17328150D02*
X6508158Y-17309103D01*
X6508158Y-17309103D02*
X6508158Y-17299579D01*
X6508158Y-17299579D02*
X6517682Y-17280531D01*
X6517682Y-17280531D02*
X6527206Y-17271008D01*
X6527206Y-17271008D02*
X6546253Y-17261484D01*
X6546253Y-17261484D02*
X6584348Y-17261484D01*
X6584348Y-17261484D02*
X6603396Y-17271008D01*
X6603396Y-17271008D02*
X6612920Y-17280531D01*
X6612920Y-17280531D02*
X6622444Y-17299579D01*
X6622444Y-17299579D02*
X6622444Y-17309103D01*
X6622444Y-17309103D02*
X6612920Y-17328150D01*
X6612920Y-17328150D02*
X6603396Y-17337674D01*
X6603396Y-17337674D02*
X6584348Y-17347198D01*
X6584348Y-17347198D02*
X6546253Y-17347198D01*
X6546253Y-17347198D02*
X6527206Y-17356722D01*
X6527206Y-17356722D02*
X6517682Y-17366246D01*
X6517682Y-17366246D02*
X6508158Y-17385293D01*
X6508158Y-17385293D02*
X6508158Y-17423389D01*
X6508158Y-17423389D02*
X6517682Y-17442436D01*
X6517682Y-17442436D02*
X6527206Y-17451960D01*
X6527206Y-17451960D02*
X6546253Y-17461484D01*
X6546253Y-17461484D02*
X6584348Y-17461484D01*
X6584348Y-17461484D02*
X6603396Y-17451960D01*
X6603396Y-17451960D02*
X6612920Y-17442436D01*
X6612920Y-17442436D02*
X6622444Y-17423389D01*
X6622444Y-17423389D02*
X6622444Y-17385293D01*
X6622444Y-17385293D02*
X6612920Y-17366246D01*
X6612920Y-17366246D02*
X6603396Y-17356722D01*
X6603396Y-17356722D02*
X6584348Y-17347198D01*
X6698634Y-17261484D02*
X6698634Y-17299579D01*
X6774825Y-17261484D02*
X6774825Y-17299579D01*
X7070063Y-17537674D02*
X7060539Y-17528150D01*
X7060539Y-17528150D02*
X7041491Y-17499579D01*
X7041491Y-17499579D02*
X7031968Y-17480531D01*
X7031968Y-17480531D02*
X7022444Y-17451960D01*
X7022444Y-17451960D02*
X7012920Y-17404341D01*
X7012920Y-17404341D02*
X7012920Y-17366246D01*
X7012920Y-17366246D02*
X7022444Y-17318627D01*
X7022444Y-17318627D02*
X7031968Y-17290055D01*
X7031968Y-17290055D02*
X7041491Y-17271008D01*
X7041491Y-17271008D02*
X7060539Y-17242436D01*
X7060539Y-17242436D02*
X7070063Y-17232912D01*
X7251015Y-17461484D02*
X7136729Y-17461484D01*
X7193872Y-17461484D02*
X7193872Y-17261484D01*
X7193872Y-17261484D02*
X7174825Y-17290055D01*
X7174825Y-17290055D02*
X7155777Y-17309103D01*
X7155777Y-17309103D02*
X7136729Y-17318627D01*
X7365301Y-17347198D02*
X7346253Y-17337674D01*
X7346253Y-17337674D02*
X7336729Y-17328150D01*
X7336729Y-17328150D02*
X7327206Y-17309103D01*
X7327206Y-17309103D02*
X7327206Y-17299579D01*
X7327206Y-17299579D02*
X7336729Y-17280531D01*
X7336729Y-17280531D02*
X7346253Y-17271008D01*
X7346253Y-17271008D02*
X7365301Y-17261484D01*
X7365301Y-17261484D02*
X7403396Y-17261484D01*
X7403396Y-17261484D02*
X7422444Y-17271008D01*
X7422444Y-17271008D02*
X7431968Y-17280531D01*
X7431968Y-17280531D02*
X7441491Y-17299579D01*
X7441491Y-17299579D02*
X7441491Y-17309103D01*
X7441491Y-17309103D02*
X7431968Y-17328150D01*
X7431968Y-17328150D02*
X7422444Y-17337674D01*
X7422444Y-17337674D02*
X7403396Y-17347198D01*
X7403396Y-17347198D02*
X7365301Y-17347198D01*
X7365301Y-17347198D02*
X7346253Y-17356722D01*
X7346253Y-17356722D02*
X7336729Y-17366246D01*
X7336729Y-17366246D02*
X7327206Y-17385293D01*
X7327206Y-17385293D02*
X7327206Y-17423389D01*
X7327206Y-17423389D02*
X7336729Y-17442436D01*
X7336729Y-17442436D02*
X7346253Y-17451960D01*
X7346253Y-17451960D02*
X7365301Y-17461484D01*
X7365301Y-17461484D02*
X7403396Y-17461484D01*
X7403396Y-17461484D02*
X7422444Y-17451960D01*
X7422444Y-17451960D02*
X7431968Y-17442436D01*
X7431968Y-17442436D02*
X7441491Y-17423389D01*
X7441491Y-17423389D02*
X7441491Y-17385293D01*
X7441491Y-17385293D02*
X7431968Y-17366246D01*
X7431968Y-17366246D02*
X7422444Y-17356722D01*
X7422444Y-17356722D02*
X7403396Y-17347198D01*
X7679587Y-17461484D02*
X7679587Y-17261484D01*
X7765301Y-17461484D02*
X7765301Y-17356722D01*
X7765301Y-17356722D02*
X7755777Y-17337674D01*
X7755777Y-17337674D02*
X7736730Y-17328150D01*
X7736730Y-17328150D02*
X7708158Y-17328150D01*
X7708158Y-17328150D02*
X7689110Y-17337674D01*
X7689110Y-17337674D02*
X7679587Y-17347198D01*
X7889110Y-17461484D02*
X7870063Y-17451960D01*
X7870063Y-17451960D02*
X7860539Y-17442436D01*
X7860539Y-17442436D02*
X7851015Y-17423389D01*
X7851015Y-17423389D02*
X7851015Y-17366246D01*
X7851015Y-17366246D02*
X7860539Y-17347198D01*
X7860539Y-17347198D02*
X7870063Y-17337674D01*
X7870063Y-17337674D02*
X7889110Y-17328150D01*
X7889110Y-17328150D02*
X7917682Y-17328150D01*
X7917682Y-17328150D02*
X7936730Y-17337674D01*
X7936730Y-17337674D02*
X7946253Y-17347198D01*
X7946253Y-17347198D02*
X7955777Y-17366246D01*
X7955777Y-17366246D02*
X7955777Y-17423389D01*
X7955777Y-17423389D02*
X7946253Y-17442436D01*
X7946253Y-17442436D02*
X7936730Y-17451960D01*
X7936730Y-17451960D02*
X7917682Y-17461484D01*
X7917682Y-17461484D02*
X7889110Y-17461484D01*
X8070063Y-17461484D02*
X8051015Y-17451960D01*
X8051015Y-17451960D02*
X8041491Y-17432912D01*
X8041491Y-17432912D02*
X8041491Y-17261484D01*
X8222444Y-17451960D02*
X8203396Y-17461484D01*
X8203396Y-17461484D02*
X8165301Y-17461484D01*
X8165301Y-17461484D02*
X8146253Y-17451960D01*
X8146253Y-17451960D02*
X8136730Y-17432912D01*
X8136730Y-17432912D02*
X8136730Y-17356722D01*
X8136730Y-17356722D02*
X8146253Y-17337674D01*
X8146253Y-17337674D02*
X8165301Y-17328150D01*
X8165301Y-17328150D02*
X8203396Y-17328150D01*
X8203396Y-17328150D02*
X8222444Y-17337674D01*
X8222444Y-17337674D02*
X8231968Y-17356722D01*
X8231968Y-17356722D02*
X8231968Y-17375770D01*
X8231968Y-17375770D02*
X8136730Y-17394817D01*
X8308158Y-17451960D02*
X8327206Y-17461484D01*
X8327206Y-17461484D02*
X8365301Y-17461484D01*
X8365301Y-17461484D02*
X8384349Y-17451960D01*
X8384349Y-17451960D02*
X8393873Y-17432912D01*
X8393873Y-17432912D02*
X8393873Y-17423389D01*
X8393873Y-17423389D02*
X8384349Y-17404341D01*
X8384349Y-17404341D02*
X8365301Y-17394817D01*
X8365301Y-17394817D02*
X8336730Y-17394817D01*
X8336730Y-17394817D02*
X8317682Y-17385293D01*
X8317682Y-17385293D02*
X8308158Y-17366246D01*
X8308158Y-17366246D02*
X8308158Y-17356722D01*
X8308158Y-17356722D02*
X8317682Y-17337674D01*
X8317682Y-17337674D02*
X8336730Y-17328150D01*
X8336730Y-17328150D02*
X8365301Y-17328150D01*
X8365301Y-17328150D02*
X8384349Y-17337674D01*
X8460539Y-17537674D02*
X8470063Y-17528150D01*
X8470063Y-17528150D02*
X8489111Y-17499579D01*
X8489111Y-17499579D02*
X8498634Y-17480531D01*
X8498634Y-17480531D02*
X8508158Y-17451960D01*
X8508158Y-17451960D02*
X8517682Y-17404341D01*
X8517682Y-17404341D02*
X8517682Y-17366246D01*
X8517682Y-17366246D02*
X8508158Y-17318627D01*
X8508158Y-17318627D02*
X8498634Y-17290055D01*
X8498634Y-17290055D02*
X8489111Y-17271008D01*
X8489111Y-17271008D02*
X8470063Y-17242436D01*
X8470063Y-17242436D02*
X8460539Y-17232912D01*
D10*
X3495000Y-17634000D02*
G75*
G02*
X3400000Y-17634000I-47500J0D01*
G01*
X3400000Y-17634000D02*
G75*
G02*
X3495000Y-17634000I47500J0D01*
G01*
D11*
X3793872Y-17525484D02*
X3812920Y-17525484D01*
X3812920Y-17525484D02*
X3831967Y-17535008D01*
X3831967Y-17535008D02*
X3841491Y-17544531D01*
X3841491Y-17544531D02*
X3851015Y-17563579D01*
X3851015Y-17563579D02*
X3860539Y-17601674D01*
X3860539Y-17601674D02*
X3860539Y-17649293D01*
X3860539Y-17649293D02*
X3851015Y-17687389D01*
X3851015Y-17687389D02*
X3841491Y-17706436D01*
X3841491Y-17706436D02*
X3831967Y-17715960D01*
X3831967Y-17715960D02*
X3812920Y-17725484D01*
X3812920Y-17725484D02*
X3793872Y-17725484D01*
X3793872Y-17725484D02*
X3774824Y-17715960D01*
X3774824Y-17715960D02*
X3765301Y-17706436D01*
X3765301Y-17706436D02*
X3755777Y-17687389D01*
X3755777Y-17687389D02*
X3746253Y-17649293D01*
X3746253Y-17649293D02*
X3746253Y-17601674D01*
X3746253Y-17601674D02*
X3755777Y-17563579D01*
X3755777Y-17563579D02*
X3765301Y-17544531D01*
X3765301Y-17544531D02*
X3774824Y-17535008D01*
X3774824Y-17535008D02*
X3793872Y-17525484D01*
X3946253Y-17706436D02*
X3955777Y-17715960D01*
X3955777Y-17715960D02*
X3946253Y-17725484D01*
X3946253Y-17725484D02*
X3936729Y-17715960D01*
X3936729Y-17715960D02*
X3946253Y-17706436D01*
X3946253Y-17706436D02*
X3946253Y-17725484D01*
X4051015Y-17725484D02*
X4089110Y-17725484D01*
X4089110Y-17725484D02*
X4108158Y-17715960D01*
X4108158Y-17715960D02*
X4117682Y-17706436D01*
X4117682Y-17706436D02*
X4136729Y-17677865D01*
X4136729Y-17677865D02*
X4146253Y-17639770D01*
X4146253Y-17639770D02*
X4146253Y-17563579D01*
X4146253Y-17563579D02*
X4136729Y-17544531D01*
X4136729Y-17544531D02*
X4127205Y-17535008D01*
X4127205Y-17535008D02*
X4108158Y-17525484D01*
X4108158Y-17525484D02*
X4070062Y-17525484D01*
X4070062Y-17525484D02*
X4051015Y-17535008D01*
X4051015Y-17535008D02*
X4041491Y-17544531D01*
X4041491Y-17544531D02*
X4031967Y-17563579D01*
X4031967Y-17563579D02*
X4031967Y-17611198D01*
X4031967Y-17611198D02*
X4041491Y-17630246D01*
X4041491Y-17630246D02*
X4051015Y-17639770D01*
X4051015Y-17639770D02*
X4070062Y-17649293D01*
X4070062Y-17649293D02*
X4108158Y-17649293D01*
X4108158Y-17649293D02*
X4127205Y-17639770D01*
X4127205Y-17639770D02*
X4136729Y-17630246D01*
X4136729Y-17630246D02*
X4146253Y-17611198D01*
X4327205Y-17525484D02*
X4231967Y-17525484D01*
X4231967Y-17525484D02*
X4222444Y-17620722D01*
X4222444Y-17620722D02*
X4231967Y-17611198D01*
X4231967Y-17611198D02*
X4251015Y-17601674D01*
X4251015Y-17601674D02*
X4298634Y-17601674D01*
X4298634Y-17601674D02*
X4317682Y-17611198D01*
X4317682Y-17611198D02*
X4327205Y-17620722D01*
X4327205Y-17620722D02*
X4336729Y-17639770D01*
X4336729Y-17639770D02*
X4336729Y-17687389D01*
X4336729Y-17687389D02*
X4327205Y-17706436D01*
X4327205Y-17706436D02*
X4317682Y-17715960D01*
X4317682Y-17715960D02*
X4298634Y-17725484D01*
X4298634Y-17725484D02*
X4251015Y-17725484D01*
X4251015Y-17725484D02*
X4231967Y-17715960D01*
X4231967Y-17715960D02*
X4222444Y-17706436D01*
X4460539Y-17525484D02*
X4479586Y-17525484D01*
X4479586Y-17525484D02*
X4498634Y-17535008D01*
X4498634Y-17535008D02*
X4508158Y-17544531D01*
X4508158Y-17544531D02*
X4517682Y-17563579D01*
X4517682Y-17563579D02*
X4527205Y-17601674D01*
X4527205Y-17601674D02*
X4527205Y-17649293D01*
X4527205Y-17649293D02*
X4517682Y-17687389D01*
X4517682Y-17687389D02*
X4508158Y-17706436D01*
X4508158Y-17706436D02*
X4498634Y-17715960D01*
X4498634Y-17715960D02*
X4479586Y-17725484D01*
X4479586Y-17725484D02*
X4460539Y-17725484D01*
X4460539Y-17725484D02*
X4441491Y-17715960D01*
X4441491Y-17715960D02*
X4431967Y-17706436D01*
X4431967Y-17706436D02*
X4422444Y-17687389D01*
X4422444Y-17687389D02*
X4412920Y-17649293D01*
X4412920Y-17649293D02*
X4412920Y-17601674D01*
X4412920Y-17601674D02*
X4422444Y-17563579D01*
X4422444Y-17563579D02*
X4431967Y-17544531D01*
X4431967Y-17544531D02*
X4441491Y-17535008D01*
X4441491Y-17535008D02*
X4460539Y-17525484D01*
X4612920Y-17725484D02*
X4612920Y-17592150D01*
X4612920Y-17611198D02*
X4622444Y-17601674D01*
X4622444Y-17601674D02*
X4641491Y-17592150D01*
X4641491Y-17592150D02*
X4670063Y-17592150D01*
X4670063Y-17592150D02*
X4689110Y-17601674D01*
X4689110Y-17601674D02*
X4698634Y-17620722D01*
X4698634Y-17620722D02*
X4698634Y-17725484D01*
X4698634Y-17620722D02*
X4708158Y-17601674D01*
X4708158Y-17601674D02*
X4727205Y-17592150D01*
X4727205Y-17592150D02*
X4755777Y-17592150D01*
X4755777Y-17592150D02*
X4774825Y-17601674D01*
X4774825Y-17601674D02*
X4784348Y-17620722D01*
X4784348Y-17620722D02*
X4784348Y-17725484D01*
X4879586Y-17725484D02*
X4879586Y-17592150D01*
X4879586Y-17611198D02*
X4889110Y-17601674D01*
X4889110Y-17601674D02*
X4908158Y-17592150D01*
X4908158Y-17592150D02*
X4936729Y-17592150D01*
X4936729Y-17592150D02*
X4955777Y-17601674D01*
X4955777Y-17601674D02*
X4965301Y-17620722D01*
X4965301Y-17620722D02*
X4965301Y-17725484D01*
X4965301Y-17620722D02*
X4974825Y-17601674D01*
X4974825Y-17601674D02*
X4993872Y-17592150D01*
X4993872Y-17592150D02*
X5022444Y-17592150D01*
X5022444Y-17592150D02*
X5041491Y-17601674D01*
X5041491Y-17601674D02*
X5051015Y-17620722D01*
X5051015Y-17620722D02*
X5051015Y-17725484D01*
X5441491Y-17515960D02*
X5270063Y-17773103D01*
X5698634Y-17525484D02*
X5717682Y-17525484D01*
X5717682Y-17525484D02*
X5736729Y-17535008D01*
X5736729Y-17535008D02*
X5746253Y-17544531D01*
X5746253Y-17544531D02*
X5755777Y-17563579D01*
X5755777Y-17563579D02*
X5765301Y-17601674D01*
X5765301Y-17601674D02*
X5765301Y-17649293D01*
X5765301Y-17649293D02*
X5755777Y-17687389D01*
X5755777Y-17687389D02*
X5746253Y-17706436D01*
X5746253Y-17706436D02*
X5736729Y-17715960D01*
X5736729Y-17715960D02*
X5717682Y-17725484D01*
X5717682Y-17725484D02*
X5698634Y-17725484D01*
X5698634Y-17725484D02*
X5679586Y-17715960D01*
X5679586Y-17715960D02*
X5670063Y-17706436D01*
X5670063Y-17706436D02*
X5660539Y-17687389D01*
X5660539Y-17687389D02*
X5651015Y-17649293D01*
X5651015Y-17649293D02*
X5651015Y-17601674D01*
X5651015Y-17601674D02*
X5660539Y-17563579D01*
X5660539Y-17563579D02*
X5670063Y-17544531D01*
X5670063Y-17544531D02*
X5679586Y-17535008D01*
X5679586Y-17535008D02*
X5698634Y-17525484D01*
X5851015Y-17706436D02*
X5860539Y-17715960D01*
X5860539Y-17715960D02*
X5851015Y-17725484D01*
X5851015Y-17725484D02*
X5841491Y-17715960D01*
X5841491Y-17715960D02*
X5851015Y-17706436D01*
X5851015Y-17706436D02*
X5851015Y-17725484D01*
X5984348Y-17525484D02*
X6003396Y-17525484D01*
X6003396Y-17525484D02*
X6022444Y-17535008D01*
X6022444Y-17535008D02*
X6031967Y-17544531D01*
X6031967Y-17544531D02*
X6041491Y-17563579D01*
X6041491Y-17563579D02*
X6051015Y-17601674D01*
X6051015Y-17601674D02*
X6051015Y-17649293D01*
X6051015Y-17649293D02*
X6041491Y-17687389D01*
X6041491Y-17687389D02*
X6031967Y-17706436D01*
X6031967Y-17706436D02*
X6022444Y-17715960D01*
X6022444Y-17715960D02*
X6003396Y-17725484D01*
X6003396Y-17725484D02*
X5984348Y-17725484D01*
X5984348Y-17725484D02*
X5965301Y-17715960D01*
X5965301Y-17715960D02*
X5955777Y-17706436D01*
X5955777Y-17706436D02*
X5946253Y-17687389D01*
X5946253Y-17687389D02*
X5936729Y-17649293D01*
X5936729Y-17649293D02*
X5936729Y-17601674D01*
X5936729Y-17601674D02*
X5946253Y-17563579D01*
X5946253Y-17563579D02*
X5955777Y-17544531D01*
X5955777Y-17544531D02*
X5965301Y-17535008D01*
X5965301Y-17535008D02*
X5984348Y-17525484D01*
X6117682Y-17525484D02*
X6241491Y-17525484D01*
X6241491Y-17525484D02*
X6174825Y-17601674D01*
X6174825Y-17601674D02*
X6203396Y-17601674D01*
X6203396Y-17601674D02*
X6222444Y-17611198D01*
X6222444Y-17611198D02*
X6231967Y-17620722D01*
X6231967Y-17620722D02*
X6241491Y-17639770D01*
X6241491Y-17639770D02*
X6241491Y-17687389D01*
X6241491Y-17687389D02*
X6231967Y-17706436D01*
X6231967Y-17706436D02*
X6222444Y-17715960D01*
X6222444Y-17715960D02*
X6203396Y-17725484D01*
X6203396Y-17725484D02*
X6146253Y-17725484D01*
X6146253Y-17725484D02*
X6127206Y-17715960D01*
X6127206Y-17715960D02*
X6117682Y-17706436D01*
X6308158Y-17525484D02*
X6441491Y-17525484D01*
X6441491Y-17525484D02*
X6355777Y-17725484D01*
X6603396Y-17592150D02*
X6603396Y-17725484D01*
X6555777Y-17515960D02*
X6508158Y-17658817D01*
X6508158Y-17658817D02*
X6631967Y-17658817D01*
X6698634Y-17525484D02*
X6698634Y-17563579D01*
X6774825Y-17525484D02*
X6774825Y-17563579D01*
X7070063Y-17801674D02*
X7060539Y-17792150D01*
X7060539Y-17792150D02*
X7041491Y-17763579D01*
X7041491Y-17763579D02*
X7031968Y-17744531D01*
X7031968Y-17744531D02*
X7022444Y-17715960D01*
X7022444Y-17715960D02*
X7012920Y-17668341D01*
X7012920Y-17668341D02*
X7012920Y-17630246D01*
X7012920Y-17630246D02*
X7022444Y-17582627D01*
X7022444Y-17582627D02*
X7031968Y-17554055D01*
X7031968Y-17554055D02*
X7041491Y-17535008D01*
X7041491Y-17535008D02*
X7060539Y-17506436D01*
X7060539Y-17506436D02*
X7070063Y-17496912D01*
X7136729Y-17544531D02*
X7146253Y-17535008D01*
X7146253Y-17535008D02*
X7165301Y-17525484D01*
X7165301Y-17525484D02*
X7212920Y-17525484D01*
X7212920Y-17525484D02*
X7231968Y-17535008D01*
X7231968Y-17535008D02*
X7241491Y-17544531D01*
X7241491Y-17544531D02*
X7251015Y-17563579D01*
X7251015Y-17563579D02*
X7251015Y-17582627D01*
X7251015Y-17582627D02*
X7241491Y-17611198D01*
X7241491Y-17611198D02*
X7127206Y-17725484D01*
X7127206Y-17725484D02*
X7251015Y-17725484D01*
X7422444Y-17592150D02*
X7422444Y-17725484D01*
X7374825Y-17515960D02*
X7327206Y-17658817D01*
X7327206Y-17658817D02*
X7451015Y-17658817D01*
X7679587Y-17725484D02*
X7679587Y-17525484D01*
X7765301Y-17725484D02*
X7765301Y-17620722D01*
X7765301Y-17620722D02*
X7755777Y-17601674D01*
X7755777Y-17601674D02*
X7736730Y-17592150D01*
X7736730Y-17592150D02*
X7708158Y-17592150D01*
X7708158Y-17592150D02*
X7689110Y-17601674D01*
X7689110Y-17601674D02*
X7679587Y-17611198D01*
X7889110Y-17725484D02*
X7870063Y-17715960D01*
X7870063Y-17715960D02*
X7860539Y-17706436D01*
X7860539Y-17706436D02*
X7851015Y-17687389D01*
X7851015Y-17687389D02*
X7851015Y-17630246D01*
X7851015Y-17630246D02*
X7860539Y-17611198D01*
X7860539Y-17611198D02*
X7870063Y-17601674D01*
X7870063Y-17601674D02*
X7889110Y-17592150D01*
X7889110Y-17592150D02*
X7917682Y-17592150D01*
X7917682Y-17592150D02*
X7936730Y-17601674D01*
X7936730Y-17601674D02*
X7946253Y-17611198D01*
X7946253Y-17611198D02*
X7955777Y-17630246D01*
X7955777Y-17630246D02*
X7955777Y-17687389D01*
X7955777Y-17687389D02*
X7946253Y-17706436D01*
X7946253Y-17706436D02*
X7936730Y-17715960D01*
X7936730Y-17715960D02*
X7917682Y-17725484D01*
X7917682Y-17725484D02*
X7889110Y-17725484D01*
X8070063Y-17725484D02*
X8051015Y-17715960D01*
X8051015Y-17715960D02*
X8041491Y-17696912D01*
X8041491Y-17696912D02*
X8041491Y-17525484D01*
X8222444Y-17715960D02*
X8203396Y-17725484D01*
X8203396Y-17725484D02*
X8165301Y-17725484D01*
X8165301Y-17725484D02*
X8146253Y-17715960D01*
X8146253Y-17715960D02*
X8136730Y-17696912D01*
X8136730Y-17696912D02*
X8136730Y-17620722D01*
X8136730Y-17620722D02*
X8146253Y-17601674D01*
X8146253Y-17601674D02*
X8165301Y-17592150D01*
X8165301Y-17592150D02*
X8203396Y-17592150D01*
X8203396Y-17592150D02*
X8222444Y-17601674D01*
X8222444Y-17601674D02*
X8231968Y-17620722D01*
X8231968Y-17620722D02*
X8231968Y-17639770D01*
X8231968Y-17639770D02*
X8136730Y-17658817D01*
X8308158Y-17715960D02*
X8327206Y-17725484D01*
X8327206Y-17725484D02*
X8365301Y-17725484D01*
X8365301Y-17725484D02*
X8384349Y-17715960D01*
X8384349Y-17715960D02*
X8393873Y-17696912D01*
X8393873Y-17696912D02*
X8393873Y-17687389D01*
X8393873Y-17687389D02*
X8384349Y-17668341D01*
X8384349Y-17668341D02*
X8365301Y-17658817D01*
X8365301Y-17658817D02*
X8336730Y-17658817D01*
X8336730Y-17658817D02*
X8317682Y-17649293D01*
X8317682Y-17649293D02*
X8308158Y-17630246D01*
X8308158Y-17630246D02*
X8308158Y-17620722D01*
X8308158Y-17620722D02*
X8317682Y-17601674D01*
X8317682Y-17601674D02*
X8336730Y-17592150D01*
X8336730Y-17592150D02*
X8365301Y-17592150D01*
X8365301Y-17592150D02*
X8384349Y-17601674D01*
X8460539Y-17801674D02*
X8470063Y-17792150D01*
X8470063Y-17792150D02*
X8489111Y-17763579D01*
X8489111Y-17763579D02*
X8498634Y-17744531D01*
X8498634Y-17744531D02*
X8508158Y-17715960D01*
X8508158Y-17715960D02*
X8517682Y-17668341D01*
X8517682Y-17668341D02*
X8517682Y-17630246D01*
X8517682Y-17630246D02*
X8508158Y-17582627D01*
X8508158Y-17582627D02*
X8498634Y-17554055D01*
X8498634Y-17554055D02*
X8489111Y-17535008D01*
X8489111Y-17535008D02*
X8470063Y-17506436D01*
X8470063Y-17506436D02*
X8460539Y-17496912D01*
D12*
X3420000Y-17823000D02*
X3420000Y-17973000D01*
X3345000Y-17898000D02*
X3495000Y-17898000D01*
D11*
X3860539Y-17989484D02*
X3746253Y-17989484D01*
X3803396Y-17989484D02*
X3803396Y-17789484D01*
X3803396Y-17789484D02*
X3784348Y-17818055D01*
X3784348Y-17818055D02*
X3765301Y-17837103D01*
X3765301Y-17837103D02*
X3746253Y-17846627D01*
X3946253Y-17970436D02*
X3955777Y-17979960D01*
X3955777Y-17979960D02*
X3946253Y-17989484D01*
X3946253Y-17989484D02*
X3936729Y-17979960D01*
X3936729Y-17979960D02*
X3946253Y-17970436D01*
X3946253Y-17970436D02*
X3946253Y-17989484D01*
X4136729Y-17789484D02*
X4041491Y-17789484D01*
X4041491Y-17789484D02*
X4031967Y-17884722D01*
X4031967Y-17884722D02*
X4041491Y-17875198D01*
X4041491Y-17875198D02*
X4060539Y-17865674D01*
X4060539Y-17865674D02*
X4108158Y-17865674D01*
X4108158Y-17865674D02*
X4127205Y-17875198D01*
X4127205Y-17875198D02*
X4136729Y-17884722D01*
X4136729Y-17884722D02*
X4146253Y-17903770D01*
X4146253Y-17903770D02*
X4146253Y-17951389D01*
X4146253Y-17951389D02*
X4136729Y-17970436D01*
X4136729Y-17970436D02*
X4127205Y-17979960D01*
X4127205Y-17979960D02*
X4108158Y-17989484D01*
X4108158Y-17989484D02*
X4060539Y-17989484D01*
X4060539Y-17989484D02*
X4041491Y-17979960D01*
X4041491Y-17979960D02*
X4031967Y-17970436D01*
X4270063Y-17789484D02*
X4289110Y-17789484D01*
X4289110Y-17789484D02*
X4308158Y-17799008D01*
X4308158Y-17799008D02*
X4317682Y-17808531D01*
X4317682Y-17808531D02*
X4327205Y-17827579D01*
X4327205Y-17827579D02*
X4336729Y-17865674D01*
X4336729Y-17865674D02*
X4336729Y-17913293D01*
X4336729Y-17913293D02*
X4327205Y-17951389D01*
X4327205Y-17951389D02*
X4317682Y-17970436D01*
X4317682Y-17970436D02*
X4308158Y-17979960D01*
X4308158Y-17979960D02*
X4289110Y-17989484D01*
X4289110Y-17989484D02*
X4270063Y-17989484D01*
X4270063Y-17989484D02*
X4251015Y-17979960D01*
X4251015Y-17979960D02*
X4241491Y-17970436D01*
X4241491Y-17970436D02*
X4231967Y-17951389D01*
X4231967Y-17951389D02*
X4222444Y-17913293D01*
X4222444Y-17913293D02*
X4222444Y-17865674D01*
X4222444Y-17865674D02*
X4231967Y-17827579D01*
X4231967Y-17827579D02*
X4241491Y-17808531D01*
X4241491Y-17808531D02*
X4251015Y-17799008D01*
X4251015Y-17799008D02*
X4270063Y-17789484D01*
X4460539Y-17789484D02*
X4479586Y-17789484D01*
X4479586Y-17789484D02*
X4498634Y-17799008D01*
X4498634Y-17799008D02*
X4508158Y-17808531D01*
X4508158Y-17808531D02*
X4517682Y-17827579D01*
X4517682Y-17827579D02*
X4527205Y-17865674D01*
X4527205Y-17865674D02*
X4527205Y-17913293D01*
X4527205Y-17913293D02*
X4517682Y-17951389D01*
X4517682Y-17951389D02*
X4508158Y-17970436D01*
X4508158Y-17970436D02*
X4498634Y-17979960D01*
X4498634Y-17979960D02*
X4479586Y-17989484D01*
X4479586Y-17989484D02*
X4460539Y-17989484D01*
X4460539Y-17989484D02*
X4441491Y-17979960D01*
X4441491Y-17979960D02*
X4431967Y-17970436D01*
X4431967Y-17970436D02*
X4422444Y-17951389D01*
X4422444Y-17951389D02*
X4412920Y-17913293D01*
X4412920Y-17913293D02*
X4412920Y-17865674D01*
X4412920Y-17865674D02*
X4422444Y-17827579D01*
X4422444Y-17827579D02*
X4431967Y-17808531D01*
X4431967Y-17808531D02*
X4441491Y-17799008D01*
X4441491Y-17799008D02*
X4460539Y-17789484D01*
X4612920Y-17989484D02*
X4612920Y-17856150D01*
X4612920Y-17875198D02*
X4622444Y-17865674D01*
X4622444Y-17865674D02*
X4641491Y-17856150D01*
X4641491Y-17856150D02*
X4670063Y-17856150D01*
X4670063Y-17856150D02*
X4689110Y-17865674D01*
X4689110Y-17865674D02*
X4698634Y-17884722D01*
X4698634Y-17884722D02*
X4698634Y-17989484D01*
X4698634Y-17884722D02*
X4708158Y-17865674D01*
X4708158Y-17865674D02*
X4727205Y-17856150D01*
X4727205Y-17856150D02*
X4755777Y-17856150D01*
X4755777Y-17856150D02*
X4774825Y-17865674D01*
X4774825Y-17865674D02*
X4784348Y-17884722D01*
X4784348Y-17884722D02*
X4784348Y-17989484D01*
X4879586Y-17989484D02*
X4879586Y-17856150D01*
X4879586Y-17875198D02*
X4889110Y-17865674D01*
X4889110Y-17865674D02*
X4908158Y-17856150D01*
X4908158Y-17856150D02*
X4936729Y-17856150D01*
X4936729Y-17856150D02*
X4955777Y-17865674D01*
X4955777Y-17865674D02*
X4965301Y-17884722D01*
X4965301Y-17884722D02*
X4965301Y-17989484D01*
X4965301Y-17884722D02*
X4974825Y-17865674D01*
X4974825Y-17865674D02*
X4993872Y-17856150D01*
X4993872Y-17856150D02*
X5022444Y-17856150D01*
X5022444Y-17856150D02*
X5041491Y-17865674D01*
X5041491Y-17865674D02*
X5051015Y-17884722D01*
X5051015Y-17884722D02*
X5051015Y-17989484D01*
X5441491Y-17779960D02*
X5270063Y-18037103D01*
X5698634Y-17789484D02*
X5717682Y-17789484D01*
X5717682Y-17789484D02*
X5736729Y-17799008D01*
X5736729Y-17799008D02*
X5746253Y-17808531D01*
X5746253Y-17808531D02*
X5755777Y-17827579D01*
X5755777Y-17827579D02*
X5765301Y-17865674D01*
X5765301Y-17865674D02*
X5765301Y-17913293D01*
X5765301Y-17913293D02*
X5755777Y-17951389D01*
X5755777Y-17951389D02*
X5746253Y-17970436D01*
X5746253Y-17970436D02*
X5736729Y-17979960D01*
X5736729Y-17979960D02*
X5717682Y-17989484D01*
X5717682Y-17989484D02*
X5698634Y-17989484D01*
X5698634Y-17989484D02*
X5679586Y-17979960D01*
X5679586Y-17979960D02*
X5670063Y-17970436D01*
X5670063Y-17970436D02*
X5660539Y-17951389D01*
X5660539Y-17951389D02*
X5651015Y-17913293D01*
X5651015Y-17913293D02*
X5651015Y-17865674D01*
X5651015Y-17865674D02*
X5660539Y-17827579D01*
X5660539Y-17827579D02*
X5670063Y-17808531D01*
X5670063Y-17808531D02*
X5679586Y-17799008D01*
X5679586Y-17799008D02*
X5698634Y-17789484D01*
X5851015Y-17970436D02*
X5860539Y-17979960D01*
X5860539Y-17979960D02*
X5851015Y-17989484D01*
X5851015Y-17989484D02*
X5841491Y-17979960D01*
X5841491Y-17979960D02*
X5851015Y-17970436D01*
X5851015Y-17970436D02*
X5851015Y-17989484D01*
X5984348Y-17789484D02*
X6003396Y-17789484D01*
X6003396Y-17789484D02*
X6022444Y-17799008D01*
X6022444Y-17799008D02*
X6031967Y-17808531D01*
X6031967Y-17808531D02*
X6041491Y-17827579D01*
X6041491Y-17827579D02*
X6051015Y-17865674D01*
X6051015Y-17865674D02*
X6051015Y-17913293D01*
X6051015Y-17913293D02*
X6041491Y-17951389D01*
X6041491Y-17951389D02*
X6031967Y-17970436D01*
X6031967Y-17970436D02*
X6022444Y-17979960D01*
X6022444Y-17979960D02*
X6003396Y-17989484D01*
X6003396Y-17989484D02*
X5984348Y-17989484D01*
X5984348Y-17989484D02*
X5965301Y-17979960D01*
X5965301Y-17979960D02*
X5955777Y-17970436D01*
X5955777Y-17970436D02*
X5946253Y-17951389D01*
X5946253Y-17951389D02*
X5936729Y-17913293D01*
X5936729Y-17913293D02*
X5936729Y-17865674D01*
X5936729Y-17865674D02*
X5946253Y-17827579D01*
X5946253Y-17827579D02*
X5955777Y-17808531D01*
X5955777Y-17808531D02*
X5965301Y-17799008D01*
X5965301Y-17799008D02*
X5984348Y-17789484D01*
X6231967Y-17789484D02*
X6136729Y-17789484D01*
X6136729Y-17789484D02*
X6127206Y-17884722D01*
X6127206Y-17884722D02*
X6136729Y-17875198D01*
X6136729Y-17875198D02*
X6155777Y-17865674D01*
X6155777Y-17865674D02*
X6203396Y-17865674D01*
X6203396Y-17865674D02*
X6222444Y-17875198D01*
X6222444Y-17875198D02*
X6231967Y-17884722D01*
X6231967Y-17884722D02*
X6241491Y-17903770D01*
X6241491Y-17903770D02*
X6241491Y-17951389D01*
X6241491Y-17951389D02*
X6231967Y-17970436D01*
X6231967Y-17970436D02*
X6222444Y-17979960D01*
X6222444Y-17979960D02*
X6203396Y-17989484D01*
X6203396Y-17989484D02*
X6155777Y-17989484D01*
X6155777Y-17989484D02*
X6136729Y-17979960D01*
X6136729Y-17979960D02*
X6127206Y-17970436D01*
X6336729Y-17989484D02*
X6374825Y-17989484D01*
X6374825Y-17989484D02*
X6393872Y-17979960D01*
X6393872Y-17979960D02*
X6403396Y-17970436D01*
X6403396Y-17970436D02*
X6422444Y-17941865D01*
X6422444Y-17941865D02*
X6431967Y-17903770D01*
X6431967Y-17903770D02*
X6431967Y-17827579D01*
X6431967Y-17827579D02*
X6422444Y-17808531D01*
X6422444Y-17808531D02*
X6412920Y-17799008D01*
X6412920Y-17799008D02*
X6393872Y-17789484D01*
X6393872Y-17789484D02*
X6355777Y-17789484D01*
X6355777Y-17789484D02*
X6336729Y-17799008D01*
X6336729Y-17799008D02*
X6327206Y-17808531D01*
X6327206Y-17808531D02*
X6317682Y-17827579D01*
X6317682Y-17827579D02*
X6317682Y-17875198D01*
X6317682Y-17875198D02*
X6327206Y-17894246D01*
X6327206Y-17894246D02*
X6336729Y-17903770D01*
X6336729Y-17903770D02*
X6355777Y-17913293D01*
X6355777Y-17913293D02*
X6393872Y-17913293D01*
X6393872Y-17913293D02*
X6412920Y-17903770D01*
X6412920Y-17903770D02*
X6422444Y-17894246D01*
X6422444Y-17894246D02*
X6431967Y-17875198D01*
X6622444Y-17989484D02*
X6508158Y-17989484D01*
X6565301Y-17989484D02*
X6565301Y-17789484D01*
X6565301Y-17789484D02*
X6546253Y-17818055D01*
X6546253Y-17818055D02*
X6527206Y-17837103D01*
X6527206Y-17837103D02*
X6508158Y-17846627D01*
X6698634Y-17789484D02*
X6698634Y-17827579D01*
X6774825Y-17789484D02*
X6774825Y-17827579D01*
X7070063Y-18065674D02*
X7060539Y-18056150D01*
X7060539Y-18056150D02*
X7041491Y-18027579D01*
X7041491Y-18027579D02*
X7031968Y-18008531D01*
X7031968Y-18008531D02*
X7022444Y-17979960D01*
X7022444Y-17979960D02*
X7012920Y-17932341D01*
X7012920Y-17932341D02*
X7012920Y-17894246D01*
X7012920Y-17894246D02*
X7022444Y-17846627D01*
X7022444Y-17846627D02*
X7031968Y-17818055D01*
X7031968Y-17818055D02*
X7041491Y-17799008D01*
X7041491Y-17799008D02*
X7060539Y-17770436D01*
X7060539Y-17770436D02*
X7070063Y-17760912D01*
X7231968Y-17789484D02*
X7193872Y-17789484D01*
X7193872Y-17789484D02*
X7174825Y-17799008D01*
X7174825Y-17799008D02*
X7165301Y-17808531D01*
X7165301Y-17808531D02*
X7146253Y-17837103D01*
X7146253Y-17837103D02*
X7136729Y-17875198D01*
X7136729Y-17875198D02*
X7136729Y-17951389D01*
X7136729Y-17951389D02*
X7146253Y-17970436D01*
X7146253Y-17970436D02*
X7155777Y-17979960D01*
X7155777Y-17979960D02*
X7174825Y-17989484D01*
X7174825Y-17989484D02*
X7212920Y-17989484D01*
X7212920Y-17989484D02*
X7231968Y-17979960D01*
X7231968Y-17979960D02*
X7241491Y-17970436D01*
X7241491Y-17970436D02*
X7251015Y-17951389D01*
X7251015Y-17951389D02*
X7251015Y-17903770D01*
X7251015Y-17903770D02*
X7241491Y-17884722D01*
X7241491Y-17884722D02*
X7231968Y-17875198D01*
X7231968Y-17875198D02*
X7212920Y-17865674D01*
X7212920Y-17865674D02*
X7174825Y-17865674D01*
X7174825Y-17865674D02*
X7155777Y-17875198D01*
X7155777Y-17875198D02*
X7146253Y-17884722D01*
X7146253Y-17884722D02*
X7136729Y-17903770D01*
X7422444Y-17856150D02*
X7422444Y-17989484D01*
X7374825Y-17779960D02*
X7327206Y-17922817D01*
X7327206Y-17922817D02*
X7451015Y-17922817D01*
X7679587Y-17989484D02*
X7679587Y-17789484D01*
X7765301Y-17989484D02*
X7765301Y-17884722D01*
X7765301Y-17884722D02*
X7755777Y-17865674D01*
X7755777Y-17865674D02*
X7736730Y-17856150D01*
X7736730Y-17856150D02*
X7708158Y-17856150D01*
X7708158Y-17856150D02*
X7689110Y-17865674D01*
X7689110Y-17865674D02*
X7679587Y-17875198D01*
X7889110Y-17989484D02*
X7870063Y-17979960D01*
X7870063Y-17979960D02*
X7860539Y-17970436D01*
X7860539Y-17970436D02*
X7851015Y-17951389D01*
X7851015Y-17951389D02*
X7851015Y-17894246D01*
X7851015Y-17894246D02*
X7860539Y-17875198D01*
X7860539Y-17875198D02*
X7870063Y-17865674D01*
X7870063Y-17865674D02*
X7889110Y-17856150D01*
X7889110Y-17856150D02*
X7917682Y-17856150D01*
X7917682Y-17856150D02*
X7936730Y-17865674D01*
X7936730Y-17865674D02*
X7946253Y-17875198D01*
X7946253Y-17875198D02*
X7955777Y-17894246D01*
X7955777Y-17894246D02*
X7955777Y-17951389D01*
X7955777Y-17951389D02*
X7946253Y-17970436D01*
X7946253Y-17970436D02*
X7936730Y-17979960D01*
X7936730Y-17979960D02*
X7917682Y-17989484D01*
X7917682Y-17989484D02*
X7889110Y-17989484D01*
X8070063Y-17989484D02*
X8051015Y-17979960D01*
X8051015Y-17979960D02*
X8041491Y-17960912D01*
X8041491Y-17960912D02*
X8041491Y-17789484D01*
X8222444Y-17979960D02*
X8203396Y-17989484D01*
X8203396Y-17989484D02*
X8165301Y-17989484D01*
X8165301Y-17989484D02*
X8146253Y-17979960D01*
X8146253Y-17979960D02*
X8136730Y-17960912D01*
X8136730Y-17960912D02*
X8136730Y-17884722D01*
X8136730Y-17884722D02*
X8146253Y-17865674D01*
X8146253Y-17865674D02*
X8165301Y-17856150D01*
X8165301Y-17856150D02*
X8203396Y-17856150D01*
X8203396Y-17856150D02*
X8222444Y-17865674D01*
X8222444Y-17865674D02*
X8231968Y-17884722D01*
X8231968Y-17884722D02*
X8231968Y-17903770D01*
X8231968Y-17903770D02*
X8136730Y-17922817D01*
X8308158Y-17979960D02*
X8327206Y-17989484D01*
X8327206Y-17989484D02*
X8365301Y-17989484D01*
X8365301Y-17989484D02*
X8384349Y-17979960D01*
X8384349Y-17979960D02*
X8393873Y-17960912D01*
X8393873Y-17960912D02*
X8393873Y-17951389D01*
X8393873Y-17951389D02*
X8384349Y-17932341D01*
X8384349Y-17932341D02*
X8365301Y-17922817D01*
X8365301Y-17922817D02*
X8336730Y-17922817D01*
X8336730Y-17922817D02*
X8317682Y-17913293D01*
X8317682Y-17913293D02*
X8308158Y-17894246D01*
X8308158Y-17894246D02*
X8308158Y-17884722D01*
X8308158Y-17884722D02*
X8317682Y-17865674D01*
X8317682Y-17865674D02*
X8336730Y-17856150D01*
X8336730Y-17856150D02*
X8365301Y-17856150D01*
X8365301Y-17856150D02*
X8384349Y-17865674D01*
X8460539Y-18065674D02*
X8470063Y-18056150D01*
X8470063Y-18056150D02*
X8489111Y-18027579D01*
X8489111Y-18027579D02*
X8498634Y-18008531D01*
X8498634Y-18008531D02*
X8508158Y-17979960D01*
X8508158Y-17979960D02*
X8517682Y-17932341D01*
X8517682Y-17932341D02*
X8517682Y-17894246D01*
X8517682Y-17894246D02*
X8508158Y-17846627D01*
X8508158Y-17846627D02*
X8498634Y-17818055D01*
X8498634Y-17818055D02*
X8489111Y-17799008D01*
X8489111Y-17799008D02*
X8470063Y-17770436D01*
X8470063Y-17770436D02*
X8460539Y-17760912D01*
M02*
