%TF.GenerationSoftware,KiCad,Pcbnew,10.0.3*%
%TF.CreationDate,2026-09-01T20:02:10+09:00*%
%TF.ProjectId,kc2_left-x3-v2,6b63325f-6c65-4667-942d-78332d76322e,draft-v2*%
%TF.SameCoordinates,Original*%
%TF.FileFunction,Legend,Top*%
%TF.FilePolarity,Positive*%
%FSLAX46Y46*%
G04 Gerber Fmt 4.6, Leading zero omitted, Abs format (unit mm)*
G04 Created by KiCad (PCBNEW 10.0.3) date 2026-09-01 20:02:10*
%MOMM*%
%LPD*%
G01*
G04 APERTURE LIST*
%ADD10C,0.100000*%
%ADD11C,0.150000*%
%ADD12C,0.158750*%
%ADD13C,0.120000*%
%ADD14C,1.600000*%
%ADD15C,1.700000*%
%ADD16C,3.000000*%
%ADD17C,5.000000*%
%ADD18C,1.650000*%
%ADD19C,2.500000*%
%ADD20R,1.750000X1.000000*%
%ADD21O,3.600000X2.200000*%
%ADD22O,2.200000X1.800000*%
G04 APERTURE END LIST*
D10*
X111202977Y-66614895D02*
X111202977Y-65814895D01*
X111202977Y-65814895D02*
X111507739Y-65814895D01*
X111507739Y-65814895D02*
X111583929Y-65852990D01*
X111583929Y-65852990D02*
X111622024Y-65891085D01*
X111622024Y-65891085D02*
X111660120Y-65967276D01*
X111660120Y-65967276D02*
X111660120Y-66081561D01*
X111660120Y-66081561D02*
X111622024Y-66157752D01*
X111622024Y-66157752D02*
X111583929Y-66195847D01*
X111583929Y-66195847D02*
X111507739Y-66233942D01*
X111507739Y-66233942D02*
X111202977Y-66233942D01*
X111926786Y-65814895D02*
X112117262Y-66614895D01*
X112117262Y-66614895D02*
X112269643Y-66043466D01*
X112269643Y-66043466D02*
X112422024Y-66614895D01*
X112422024Y-66614895D02*
X112612501Y-65814895D01*
X113374406Y-66614895D02*
X113107739Y-66233942D01*
X112917263Y-66614895D02*
X112917263Y-65814895D01*
X112917263Y-65814895D02*
X113222025Y-65814895D01*
X113222025Y-65814895D02*
X113298215Y-65852990D01*
X113298215Y-65852990D02*
X113336310Y-65891085D01*
X113336310Y-65891085D02*
X113374406Y-65967276D01*
X113374406Y-65967276D02*
X113374406Y-66081561D01*
X113374406Y-66081561D02*
X113336310Y-66157752D01*
X113336310Y-66157752D02*
X113298215Y-66195847D01*
X113298215Y-66195847D02*
X113222025Y-66233942D01*
X113222025Y-66233942D02*
X112917263Y-66233942D01*
X114479168Y-65814895D02*
X114631549Y-65814895D01*
X114631549Y-65814895D02*
X114707739Y-65852990D01*
X114707739Y-65852990D02*
X114783930Y-65929180D01*
X114783930Y-65929180D02*
X114822025Y-66081561D01*
X114822025Y-66081561D02*
X114822025Y-66348228D01*
X114822025Y-66348228D02*
X114783930Y-66500609D01*
X114783930Y-66500609D02*
X114707739Y-66576800D01*
X114707739Y-66576800D02*
X114631549Y-66614895D01*
X114631549Y-66614895D02*
X114479168Y-66614895D01*
X114479168Y-66614895D02*
X114402977Y-66576800D01*
X114402977Y-66576800D02*
X114326787Y-66500609D01*
X114326787Y-66500609D02*
X114288691Y-66348228D01*
X114288691Y-66348228D02*
X114288691Y-66081561D01*
X114288691Y-66081561D02*
X114326787Y-65929180D01*
X114326787Y-65929180D02*
X114402977Y-65852990D01*
X114402977Y-65852990D02*
X114479168Y-65814895D01*
X115431548Y-66195847D02*
X115164882Y-66195847D01*
X115164882Y-66614895D02*
X115164882Y-65814895D01*
X115164882Y-65814895D02*
X115545834Y-65814895D01*
X116117262Y-66195847D02*
X115850596Y-66195847D01*
X115850596Y-66614895D02*
X115850596Y-65814895D01*
X115850596Y-65814895D02*
X116231548Y-65814895D01*
X117145834Y-66081561D02*
X116536310Y-66310133D01*
X116536310Y-66310133D02*
X117145834Y-66538704D01*
X118136310Y-66081561D02*
X118745834Y-66310133D01*
X118745834Y-66310133D02*
X118136310Y-66538704D01*
X119279167Y-65814895D02*
X119431548Y-65814895D01*
X119431548Y-65814895D02*
X119507738Y-65852990D01*
X119507738Y-65852990D02*
X119583929Y-65929180D01*
X119583929Y-65929180D02*
X119622024Y-66081561D01*
X119622024Y-66081561D02*
X119622024Y-66348228D01*
X119622024Y-66348228D02*
X119583929Y-66500609D01*
X119583929Y-66500609D02*
X119507738Y-66576800D01*
X119507738Y-66576800D02*
X119431548Y-66614895D01*
X119431548Y-66614895D02*
X119279167Y-66614895D01*
X119279167Y-66614895D02*
X119202976Y-66576800D01*
X119202976Y-66576800D02*
X119126786Y-66500609D01*
X119126786Y-66500609D02*
X119088690Y-66348228D01*
X119088690Y-66348228D02*
X119088690Y-66081561D01*
X119088690Y-66081561D02*
X119126786Y-65929180D01*
X119126786Y-65929180D02*
X119202976Y-65852990D01*
X119202976Y-65852990D02*
X119279167Y-65814895D01*
X119964881Y-66614895D02*
X119964881Y-65814895D01*
X119964881Y-65814895D02*
X120422024Y-66614895D01*
X120422024Y-66614895D02*
X120422024Y-65814895D01*
X125624405Y-68014895D02*
X125357738Y-67633942D01*
X125167262Y-68014895D02*
X125167262Y-67214895D01*
X125167262Y-67214895D02*
X125472024Y-67214895D01*
X125472024Y-67214895D02*
X125548214Y-67252990D01*
X125548214Y-67252990D02*
X125586309Y-67291085D01*
X125586309Y-67291085D02*
X125624405Y-67367276D01*
X125624405Y-67367276D02*
X125624405Y-67481561D01*
X125624405Y-67481561D02*
X125586309Y-67557752D01*
X125586309Y-67557752D02*
X125548214Y-67595847D01*
X125548214Y-67595847D02*
X125472024Y-67633942D01*
X125472024Y-67633942D02*
X125167262Y-67633942D01*
X125929166Y-67976800D02*
X126043452Y-68014895D01*
X126043452Y-68014895D02*
X126233928Y-68014895D01*
X126233928Y-68014895D02*
X126310119Y-67976800D01*
X126310119Y-67976800D02*
X126348214Y-67938704D01*
X126348214Y-67938704D02*
X126386309Y-67862514D01*
X126386309Y-67862514D02*
X126386309Y-67786323D01*
X126386309Y-67786323D02*
X126348214Y-67710133D01*
X126348214Y-67710133D02*
X126310119Y-67672038D01*
X126310119Y-67672038D02*
X126233928Y-67633942D01*
X126233928Y-67633942D02*
X126081547Y-67595847D01*
X126081547Y-67595847D02*
X126005357Y-67557752D01*
X126005357Y-67557752D02*
X125967262Y-67519657D01*
X125967262Y-67519657D02*
X125929166Y-67443466D01*
X125929166Y-67443466D02*
X125929166Y-67367276D01*
X125929166Y-67367276D02*
X125967262Y-67291085D01*
X125967262Y-67291085D02*
X126005357Y-67252990D01*
X126005357Y-67252990D02*
X126081547Y-67214895D01*
X126081547Y-67214895D02*
X126272024Y-67214895D01*
X126272024Y-67214895D02*
X126386309Y-67252990D01*
X126614881Y-67214895D02*
X127072024Y-67214895D01*
X126843452Y-68014895D02*
X126843452Y-67214895D01*
X112177395Y-54845237D02*
X112825014Y-54845237D01*
X112825014Y-54845237D02*
X112901204Y-54807142D01*
X112901204Y-54807142D02*
X112939300Y-54769047D01*
X112939300Y-54769047D02*
X112977395Y-54692856D01*
X112977395Y-54692856D02*
X112977395Y-54540475D01*
X112977395Y-54540475D02*
X112939300Y-54464285D01*
X112939300Y-54464285D02*
X112901204Y-54426190D01*
X112901204Y-54426190D02*
X112825014Y-54388094D01*
X112825014Y-54388094D02*
X112177395Y-54388094D01*
X112939300Y-54045238D02*
X112977395Y-53930952D01*
X112977395Y-53930952D02*
X112977395Y-53740476D01*
X112977395Y-53740476D02*
X112939300Y-53664285D01*
X112939300Y-53664285D02*
X112901204Y-53626190D01*
X112901204Y-53626190D02*
X112825014Y-53588095D01*
X112825014Y-53588095D02*
X112748823Y-53588095D01*
X112748823Y-53588095D02*
X112672633Y-53626190D01*
X112672633Y-53626190D02*
X112634538Y-53664285D01*
X112634538Y-53664285D02*
X112596442Y-53740476D01*
X112596442Y-53740476D02*
X112558347Y-53892857D01*
X112558347Y-53892857D02*
X112520252Y-53969047D01*
X112520252Y-53969047D02*
X112482157Y-54007142D01*
X112482157Y-54007142D02*
X112405966Y-54045238D01*
X112405966Y-54045238D02*
X112329776Y-54045238D01*
X112329776Y-54045238D02*
X112253585Y-54007142D01*
X112253585Y-54007142D02*
X112215490Y-53969047D01*
X112215490Y-53969047D02*
X112177395Y-53892857D01*
X112177395Y-53892857D02*
X112177395Y-53702380D01*
X112177395Y-53702380D02*
X112215490Y-53588095D01*
X112558347Y-52978571D02*
X112596442Y-52864285D01*
X112596442Y-52864285D02*
X112634538Y-52826190D01*
X112634538Y-52826190D02*
X112710728Y-52788094D01*
X112710728Y-52788094D02*
X112825014Y-52788094D01*
X112825014Y-52788094D02*
X112901204Y-52826190D01*
X112901204Y-52826190D02*
X112939300Y-52864285D01*
X112939300Y-52864285D02*
X112977395Y-52940475D01*
X112977395Y-52940475D02*
X112977395Y-53245237D01*
X112977395Y-53245237D02*
X112177395Y-53245237D01*
X112177395Y-53245237D02*
X112177395Y-52978571D01*
X112177395Y-52978571D02*
X112215490Y-52902380D01*
X112215490Y-52902380D02*
X112253585Y-52864285D01*
X112253585Y-52864285D02*
X112329776Y-52826190D01*
X112329776Y-52826190D02*
X112405966Y-52826190D01*
X112405966Y-52826190D02*
X112482157Y-52864285D01*
X112482157Y-52864285D02*
X112520252Y-52902380D01*
X112520252Y-52902380D02*
X112558347Y-52978571D01*
X112558347Y-52978571D02*
X112558347Y-53245237D01*
X113053585Y-52635714D02*
X113053585Y-52026190D01*
X112177395Y-51683332D02*
X112177395Y-51530951D01*
X112177395Y-51530951D02*
X112215490Y-51454761D01*
X112215490Y-51454761D02*
X112291680Y-51378570D01*
X112291680Y-51378570D02*
X112444061Y-51340475D01*
X112444061Y-51340475D02*
X112710728Y-51340475D01*
X112710728Y-51340475D02*
X112863109Y-51378570D01*
X112863109Y-51378570D02*
X112939300Y-51454761D01*
X112939300Y-51454761D02*
X112977395Y-51530951D01*
X112977395Y-51530951D02*
X112977395Y-51683332D01*
X112977395Y-51683332D02*
X112939300Y-51759523D01*
X112939300Y-51759523D02*
X112863109Y-51835713D01*
X112863109Y-51835713D02*
X112710728Y-51873809D01*
X112710728Y-51873809D02*
X112444061Y-51873809D01*
X112444061Y-51873809D02*
X112291680Y-51835713D01*
X112291680Y-51835713D02*
X112215490Y-51759523D01*
X112215490Y-51759523D02*
X112177395Y-51683332D01*
X112177395Y-50997618D02*
X112825014Y-50997618D01*
X112825014Y-50997618D02*
X112901204Y-50959523D01*
X112901204Y-50959523D02*
X112939300Y-50921428D01*
X112939300Y-50921428D02*
X112977395Y-50845237D01*
X112977395Y-50845237D02*
X112977395Y-50692856D01*
X112977395Y-50692856D02*
X112939300Y-50616666D01*
X112939300Y-50616666D02*
X112901204Y-50578571D01*
X112901204Y-50578571D02*
X112825014Y-50540475D01*
X112825014Y-50540475D02*
X112177395Y-50540475D01*
X112177395Y-50273809D02*
X112177395Y-49816666D01*
X112977395Y-50045238D02*
X112177395Y-50045238D01*
X113053585Y-49740476D02*
X113053585Y-49130952D01*
X112977395Y-48559523D02*
X112977395Y-48940475D01*
X112977395Y-48940475D02*
X112177395Y-48940475D01*
X112558347Y-48292856D02*
X112558347Y-48026190D01*
X112977395Y-47911904D02*
X112977395Y-48292856D01*
X112977395Y-48292856D02*
X112177395Y-48292856D01*
X112177395Y-48292856D02*
X112177395Y-47911904D01*
X112558347Y-47302380D02*
X112558347Y-47569046D01*
X112977395Y-47569046D02*
X112177395Y-47569046D01*
X112177395Y-47569046D02*
X112177395Y-47188094D01*
X112177395Y-46997618D02*
X112177395Y-46540475D01*
X112977395Y-46769047D02*
X112177395Y-46769047D01*
D11*
X7249996Y-27408557D02*
X7249996Y-26508557D01*
X7249996Y-26508557D02*
X7764282Y-27408557D01*
X7764282Y-27408557D02*
X7764282Y-26508557D01*
X8321425Y-27408557D02*
X8235710Y-27365700D01*
X8235710Y-27365700D02*
X8192853Y-27322842D01*
X8192853Y-27322842D02*
X8149996Y-27237128D01*
X8149996Y-27237128D02*
X8149996Y-26979985D01*
X8149996Y-26979985D02*
X8192853Y-26894271D01*
X8192853Y-26894271D02*
X8235710Y-26851414D01*
X8235710Y-26851414D02*
X8321425Y-26808557D01*
X8321425Y-26808557D02*
X8449996Y-26808557D01*
X8449996Y-26808557D02*
X8535710Y-26851414D01*
X8535710Y-26851414D02*
X8578568Y-26894271D01*
X8578568Y-26894271D02*
X8621425Y-26979985D01*
X8621425Y-26979985D02*
X8621425Y-27237128D01*
X8621425Y-27237128D02*
X8578568Y-27322842D01*
X8578568Y-27322842D02*
X8535710Y-27365700D01*
X8535710Y-27365700D02*
X8449996Y-27408557D01*
X8449996Y-27408557D02*
X8321425Y-27408557D01*
X9564282Y-26808557D02*
X9907139Y-26808557D01*
X9692853Y-26508557D02*
X9692853Y-27279985D01*
X9692853Y-27279985D02*
X9735710Y-27365700D01*
X9735710Y-27365700D02*
X9821425Y-27408557D01*
X9821425Y-27408557D02*
X9907139Y-27408557D01*
X10335711Y-27408557D02*
X10249996Y-27365700D01*
X10249996Y-27365700D02*
X10207139Y-27322842D01*
X10207139Y-27322842D02*
X10164282Y-27237128D01*
X10164282Y-27237128D02*
X10164282Y-26979985D01*
X10164282Y-26979985D02*
X10207139Y-26894271D01*
X10207139Y-26894271D02*
X10249996Y-26851414D01*
X10249996Y-26851414D02*
X10335711Y-26808557D01*
X10335711Y-26808557D02*
X10464282Y-26808557D01*
X10464282Y-26808557D02*
X10549996Y-26851414D01*
X10549996Y-26851414D02*
X10592854Y-26894271D01*
X10592854Y-26894271D02*
X10635711Y-26979985D01*
X10635711Y-26979985D02*
X10635711Y-27237128D01*
X10635711Y-27237128D02*
X10592854Y-27322842D01*
X10592854Y-27322842D02*
X10549996Y-27365700D01*
X10549996Y-27365700D02*
X10464282Y-27408557D01*
X10464282Y-27408557D02*
X10335711Y-27408557D01*
X11021425Y-26808557D02*
X11021425Y-27708557D01*
X11021425Y-26851414D02*
X11107140Y-26808557D01*
X11107140Y-26808557D02*
X11278568Y-26808557D01*
X11278568Y-26808557D02*
X11364282Y-26851414D01*
X11364282Y-26851414D02*
X11407140Y-26894271D01*
X11407140Y-26894271D02*
X11449997Y-26979985D01*
X11449997Y-26979985D02*
X11449997Y-27237128D01*
X11449997Y-27237128D02*
X11407140Y-27322842D01*
X11407140Y-27322842D02*
X11364282Y-27365700D01*
X11364282Y-27365700D02*
X11278568Y-27408557D01*
X11278568Y-27408557D02*
X11107140Y-27408557D01*
X11107140Y-27408557D02*
X11021425Y-27365700D01*
X12521425Y-27408557D02*
X12521425Y-26508557D01*
X12907140Y-27408557D02*
X12907140Y-26937128D01*
X12907140Y-26937128D02*
X12864282Y-26851414D01*
X12864282Y-26851414D02*
X12778568Y-26808557D01*
X12778568Y-26808557D02*
X12649997Y-26808557D01*
X12649997Y-26808557D02*
X12564282Y-26851414D01*
X12564282Y-26851414D02*
X12521425Y-26894271D01*
X13464283Y-27408557D02*
X13378568Y-27365700D01*
X13378568Y-27365700D02*
X13335711Y-27322842D01*
X13335711Y-27322842D02*
X13292854Y-27237128D01*
X13292854Y-27237128D02*
X13292854Y-26979985D01*
X13292854Y-26979985D02*
X13335711Y-26894271D01*
X13335711Y-26894271D02*
X13378568Y-26851414D01*
X13378568Y-26851414D02*
X13464283Y-26808557D01*
X13464283Y-26808557D02*
X13592854Y-26808557D01*
X13592854Y-26808557D02*
X13678568Y-26851414D01*
X13678568Y-26851414D02*
X13721426Y-26894271D01*
X13721426Y-26894271D02*
X13764283Y-26979985D01*
X13764283Y-26979985D02*
X13764283Y-27237128D01*
X13764283Y-27237128D02*
X13721426Y-27322842D01*
X13721426Y-27322842D02*
X13678568Y-27365700D01*
X13678568Y-27365700D02*
X13592854Y-27408557D01*
X13592854Y-27408557D02*
X13464283Y-27408557D01*
X14535712Y-26808557D02*
X14535712Y-27408557D01*
X14149997Y-26808557D02*
X14149997Y-27279985D01*
X14149997Y-27279985D02*
X14192854Y-27365700D01*
X14192854Y-27365700D02*
X14278569Y-27408557D01*
X14278569Y-27408557D02*
X14407140Y-27408557D01*
X14407140Y-27408557D02*
X14492854Y-27365700D01*
X14492854Y-27365700D02*
X14535712Y-27322842D01*
X14921426Y-27365700D02*
X15007140Y-27408557D01*
X15007140Y-27408557D02*
X15178569Y-27408557D01*
X15178569Y-27408557D02*
X15264283Y-27365700D01*
X15264283Y-27365700D02*
X15307140Y-27279985D01*
X15307140Y-27279985D02*
X15307140Y-27237128D01*
X15307140Y-27237128D02*
X15264283Y-27151414D01*
X15264283Y-27151414D02*
X15178569Y-27108557D01*
X15178569Y-27108557D02*
X15049998Y-27108557D01*
X15049998Y-27108557D02*
X14964283Y-27065700D01*
X14964283Y-27065700D02*
X14921426Y-26979985D01*
X14921426Y-26979985D02*
X14921426Y-26937128D01*
X14921426Y-26937128D02*
X14964283Y-26851414D01*
X14964283Y-26851414D02*
X15049998Y-26808557D01*
X15049998Y-26808557D02*
X15178569Y-26808557D01*
X15178569Y-26808557D02*
X15264283Y-26851414D01*
X15692854Y-27408557D02*
X15692854Y-26808557D01*
X15692854Y-26508557D02*
X15649997Y-26551414D01*
X15649997Y-26551414D02*
X15692854Y-26594271D01*
X15692854Y-26594271D02*
X15735711Y-26551414D01*
X15735711Y-26551414D02*
X15692854Y-26508557D01*
X15692854Y-26508557D02*
X15692854Y-26594271D01*
X16121425Y-26808557D02*
X16121425Y-27408557D01*
X16121425Y-26894271D02*
X16164282Y-26851414D01*
X16164282Y-26851414D02*
X16249997Y-26808557D01*
X16249997Y-26808557D02*
X16378568Y-26808557D01*
X16378568Y-26808557D02*
X16464282Y-26851414D01*
X16464282Y-26851414D02*
X16507140Y-26937128D01*
X16507140Y-26937128D02*
X16507140Y-27408557D01*
X17321426Y-26808557D02*
X17321426Y-27537128D01*
X17321426Y-27537128D02*
X17278568Y-27622842D01*
X17278568Y-27622842D02*
X17235711Y-27665700D01*
X17235711Y-27665700D02*
X17149997Y-27708557D01*
X17149997Y-27708557D02*
X17021426Y-27708557D01*
X17021426Y-27708557D02*
X16935711Y-27665700D01*
X17321426Y-27365700D02*
X17235711Y-27408557D01*
X17235711Y-27408557D02*
X17064283Y-27408557D01*
X17064283Y-27408557D02*
X16978568Y-27365700D01*
X16978568Y-27365700D02*
X16935711Y-27322842D01*
X16935711Y-27322842D02*
X16892854Y-27237128D01*
X16892854Y-27237128D02*
X16892854Y-26979985D01*
X16892854Y-26979985D02*
X16935711Y-26894271D01*
X16935711Y-26894271D02*
X16978568Y-26851414D01*
X16978568Y-26851414D02*
X17064283Y-26808557D01*
X17064283Y-26808557D02*
X17235711Y-26808557D01*
X17235711Y-26808557D02*
X17321426Y-26851414D01*
X19078568Y-26465700D02*
X18307140Y-27622842D01*
X20021425Y-27365700D02*
X20107139Y-27408557D01*
X20107139Y-27408557D02*
X20278568Y-27408557D01*
X20278568Y-27408557D02*
X20364282Y-27365700D01*
X20364282Y-27365700D02*
X20407139Y-27279985D01*
X20407139Y-27279985D02*
X20407139Y-27237128D01*
X20407139Y-27237128D02*
X20364282Y-27151414D01*
X20364282Y-27151414D02*
X20278568Y-27108557D01*
X20278568Y-27108557D02*
X20149997Y-27108557D01*
X20149997Y-27108557D02*
X20064282Y-27065700D01*
X20064282Y-27065700D02*
X20021425Y-26979985D01*
X20021425Y-26979985D02*
X20021425Y-26937128D01*
X20021425Y-26937128D02*
X20064282Y-26851414D01*
X20064282Y-26851414D02*
X20149997Y-26808557D01*
X20149997Y-26808557D02*
X20278568Y-26808557D01*
X20278568Y-26808557D02*
X20364282Y-26851414D01*
X21135710Y-27365700D02*
X21049996Y-27408557D01*
X21049996Y-27408557D02*
X20878568Y-27408557D01*
X20878568Y-27408557D02*
X20792853Y-27365700D01*
X20792853Y-27365700D02*
X20749996Y-27279985D01*
X20749996Y-27279985D02*
X20749996Y-26937128D01*
X20749996Y-26937128D02*
X20792853Y-26851414D01*
X20792853Y-26851414D02*
X20878568Y-26808557D01*
X20878568Y-26808557D02*
X21049996Y-26808557D01*
X21049996Y-26808557D02*
X21135710Y-26851414D01*
X21135710Y-26851414D02*
X21178568Y-26937128D01*
X21178568Y-26937128D02*
X21178568Y-27022842D01*
X21178568Y-27022842D02*
X20749996Y-27108557D01*
X21692854Y-27408557D02*
X21607139Y-27365700D01*
X21607139Y-27365700D02*
X21564282Y-27279985D01*
X21564282Y-27279985D02*
X21564282Y-26508557D01*
X22378568Y-27365700D02*
X22292854Y-27408557D01*
X22292854Y-27408557D02*
X22121426Y-27408557D01*
X22121426Y-27408557D02*
X22035711Y-27365700D01*
X22035711Y-27365700D02*
X21992854Y-27279985D01*
X21992854Y-27279985D02*
X21992854Y-26937128D01*
X21992854Y-26937128D02*
X22035711Y-26851414D01*
X22035711Y-26851414D02*
X22121426Y-26808557D01*
X22121426Y-26808557D02*
X22292854Y-26808557D01*
X22292854Y-26808557D02*
X22378568Y-26851414D01*
X22378568Y-26851414D02*
X22421426Y-26937128D01*
X22421426Y-26937128D02*
X22421426Y-27022842D01*
X22421426Y-27022842D02*
X21992854Y-27108557D01*
X23192855Y-27365700D02*
X23107140Y-27408557D01*
X23107140Y-27408557D02*
X22935712Y-27408557D01*
X22935712Y-27408557D02*
X22849997Y-27365700D01*
X22849997Y-27365700D02*
X22807140Y-27322842D01*
X22807140Y-27322842D02*
X22764283Y-27237128D01*
X22764283Y-27237128D02*
X22764283Y-26979985D01*
X22764283Y-26979985D02*
X22807140Y-26894271D01*
X22807140Y-26894271D02*
X22849997Y-26851414D01*
X22849997Y-26851414D02*
X22935712Y-26808557D01*
X22935712Y-26808557D02*
X23107140Y-26808557D01*
X23107140Y-26808557D02*
X23192855Y-26851414D01*
X23449998Y-26808557D02*
X23792855Y-26808557D01*
X23578569Y-26508557D02*
X23578569Y-27279985D01*
X23578569Y-27279985D02*
X23621426Y-27365700D01*
X23621426Y-27365700D02*
X23707141Y-27408557D01*
X23707141Y-27408557D02*
X23792855Y-27408557D01*
X24435712Y-27365700D02*
X24349998Y-27408557D01*
X24349998Y-27408557D02*
X24178570Y-27408557D01*
X24178570Y-27408557D02*
X24092855Y-27365700D01*
X24092855Y-27365700D02*
X24049998Y-27279985D01*
X24049998Y-27279985D02*
X24049998Y-26937128D01*
X24049998Y-26937128D02*
X24092855Y-26851414D01*
X24092855Y-26851414D02*
X24178570Y-26808557D01*
X24178570Y-26808557D02*
X24349998Y-26808557D01*
X24349998Y-26808557D02*
X24435712Y-26851414D01*
X24435712Y-26851414D02*
X24478570Y-26937128D01*
X24478570Y-26937128D02*
X24478570Y-27022842D01*
X24478570Y-27022842D02*
X24049998Y-27108557D01*
X25249999Y-27408557D02*
X25249999Y-26508557D01*
X25249999Y-27365700D02*
X25164284Y-27408557D01*
X25164284Y-27408557D02*
X24992856Y-27408557D01*
X24992856Y-27408557D02*
X24907141Y-27365700D01*
X24907141Y-27365700D02*
X24864284Y-27322842D01*
X24864284Y-27322842D02*
X24821427Y-27237128D01*
X24821427Y-27237128D02*
X24821427Y-26979985D01*
X24821427Y-26979985D02*
X24864284Y-26894271D01*
X24864284Y-26894271D02*
X24907141Y-26851414D01*
X24907141Y-26851414D02*
X24992856Y-26808557D01*
X24992856Y-26808557D02*
X25164284Y-26808557D01*
X25164284Y-26808557D02*
X25249999Y-26851414D01*
X26364284Y-27408557D02*
X26364284Y-26508557D01*
X26364284Y-26508557D02*
X26664284Y-27151414D01*
X26664284Y-27151414D02*
X26964284Y-26508557D01*
X26964284Y-26508557D02*
X26964284Y-27408557D01*
X27864284Y-27408557D02*
X27349998Y-27408557D01*
X27607141Y-27408557D02*
X27607141Y-26508557D01*
X27607141Y-26508557D02*
X27521427Y-26637128D01*
X27521427Y-26637128D02*
X27435712Y-26722842D01*
X27435712Y-26722842D02*
X27349998Y-26765700D01*
X28249998Y-27322842D02*
X28292855Y-27365700D01*
X28292855Y-27365700D02*
X28249998Y-27408557D01*
X28249998Y-27408557D02*
X28207141Y-27365700D01*
X28207141Y-27365700D02*
X28249998Y-27322842D01*
X28249998Y-27322842D02*
X28249998Y-27408557D01*
X29064284Y-26808557D02*
X29064284Y-27408557D01*
X28849998Y-26465700D02*
X28635712Y-27108557D01*
X28635712Y-27108557D02*
X29192855Y-27108557D01*
X30221426Y-27408557D02*
X30221426Y-26508557D01*
X30221426Y-26508557D02*
X30521426Y-27151414D01*
X30521426Y-27151414D02*
X30821426Y-26508557D01*
X30821426Y-26508557D02*
X30821426Y-27408557D01*
X31249997Y-27408557D02*
X31249997Y-26508557D01*
X31249997Y-26937128D02*
X31764283Y-26937128D01*
X31764283Y-27408557D02*
X31764283Y-26508557D01*
X32878568Y-27408557D02*
X32878568Y-26808557D01*
X32878568Y-26979985D02*
X32921425Y-26894271D01*
X32921425Y-26894271D02*
X32964283Y-26851414D01*
X32964283Y-26851414D02*
X33049997Y-26808557D01*
X33049997Y-26808557D02*
X33135711Y-26808557D01*
X33778568Y-27365700D02*
X33692854Y-27408557D01*
X33692854Y-27408557D02*
X33521426Y-27408557D01*
X33521426Y-27408557D02*
X33435711Y-27365700D01*
X33435711Y-27365700D02*
X33392854Y-27279985D01*
X33392854Y-27279985D02*
X33392854Y-26937128D01*
X33392854Y-26937128D02*
X33435711Y-26851414D01*
X33435711Y-26851414D02*
X33521426Y-26808557D01*
X33521426Y-26808557D02*
X33692854Y-26808557D01*
X33692854Y-26808557D02*
X33778568Y-26851414D01*
X33778568Y-26851414D02*
X33821426Y-26937128D01*
X33821426Y-26937128D02*
X33821426Y-27022842D01*
X33821426Y-27022842D02*
X33392854Y-27108557D01*
X34078569Y-26808557D02*
X34421426Y-26808557D01*
X34207140Y-26508557D02*
X34207140Y-27279985D01*
X34207140Y-27279985D02*
X34249997Y-27365700D01*
X34249997Y-27365700D02*
X34335712Y-27408557D01*
X34335712Y-27408557D02*
X34421426Y-27408557D01*
X35064283Y-27365700D02*
X34978569Y-27408557D01*
X34978569Y-27408557D02*
X34807141Y-27408557D01*
X34807141Y-27408557D02*
X34721426Y-27365700D01*
X34721426Y-27365700D02*
X34678569Y-27279985D01*
X34678569Y-27279985D02*
X34678569Y-26937128D01*
X34678569Y-26937128D02*
X34721426Y-26851414D01*
X34721426Y-26851414D02*
X34807141Y-26808557D01*
X34807141Y-26808557D02*
X34978569Y-26808557D01*
X34978569Y-26808557D02*
X35064283Y-26851414D01*
X35064283Y-26851414D02*
X35107141Y-26937128D01*
X35107141Y-26937128D02*
X35107141Y-27022842D01*
X35107141Y-27022842D02*
X34678569Y-27108557D01*
X35492855Y-26808557D02*
X35492855Y-27408557D01*
X35492855Y-26894271D02*
X35535712Y-26851414D01*
X35535712Y-26851414D02*
X35621427Y-26808557D01*
X35621427Y-26808557D02*
X35749998Y-26808557D01*
X35749998Y-26808557D02*
X35835712Y-26851414D01*
X35835712Y-26851414D02*
X35878570Y-26937128D01*
X35878570Y-26937128D02*
X35878570Y-27408557D01*
X36178570Y-26808557D02*
X36521427Y-26808557D01*
X36307141Y-26508557D02*
X36307141Y-27279985D01*
X36307141Y-27279985D02*
X36349998Y-27365700D01*
X36349998Y-27365700D02*
X36435713Y-27408557D01*
X36435713Y-27408557D02*
X36521427Y-27408557D01*
X36821427Y-27408557D02*
X36821427Y-26808557D01*
X36821427Y-26508557D02*
X36778570Y-26551414D01*
X36778570Y-26551414D02*
X36821427Y-26594271D01*
X36821427Y-26594271D02*
X36864284Y-26551414D01*
X36864284Y-26551414D02*
X36821427Y-26508557D01*
X36821427Y-26508557D02*
X36821427Y-26594271D01*
X37378570Y-27408557D02*
X37292855Y-27365700D01*
X37292855Y-27365700D02*
X37249998Y-27322842D01*
X37249998Y-27322842D02*
X37207141Y-27237128D01*
X37207141Y-27237128D02*
X37207141Y-26979985D01*
X37207141Y-26979985D02*
X37249998Y-26894271D01*
X37249998Y-26894271D02*
X37292855Y-26851414D01*
X37292855Y-26851414D02*
X37378570Y-26808557D01*
X37378570Y-26808557D02*
X37507141Y-26808557D01*
X37507141Y-26808557D02*
X37592855Y-26851414D01*
X37592855Y-26851414D02*
X37635713Y-26894271D01*
X37635713Y-26894271D02*
X37678570Y-26979985D01*
X37678570Y-26979985D02*
X37678570Y-27237128D01*
X37678570Y-27237128D02*
X37635713Y-27322842D01*
X37635713Y-27322842D02*
X37592855Y-27365700D01*
X37592855Y-27365700D02*
X37507141Y-27408557D01*
X37507141Y-27408557D02*
X37378570Y-27408557D01*
X38064284Y-26808557D02*
X38064284Y-27408557D01*
X38064284Y-26894271D02*
X38107141Y-26851414D01*
X38107141Y-26851414D02*
X38192856Y-26808557D01*
X38192856Y-26808557D02*
X38321427Y-26808557D01*
X38321427Y-26808557D02*
X38407141Y-26851414D01*
X38407141Y-26851414D02*
X38449999Y-26937128D01*
X38449999Y-26937128D02*
X38449999Y-27408557D01*
X39564284Y-27065700D02*
X40249999Y-27065700D01*
X39907141Y-27408557D02*
X39907141Y-26722842D01*
X41364284Y-27408557D02*
X41364284Y-26808557D01*
X41364284Y-26508557D02*
X41321427Y-26551414D01*
X41321427Y-26551414D02*
X41364284Y-26594271D01*
X41364284Y-26594271D02*
X41407141Y-26551414D01*
X41407141Y-26551414D02*
X41364284Y-26508557D01*
X41364284Y-26508557D02*
X41364284Y-26594271D01*
X41792855Y-26808557D02*
X41792855Y-27408557D01*
X41792855Y-26894271D02*
X41835712Y-26851414D01*
X41835712Y-26851414D02*
X41921427Y-26808557D01*
X41921427Y-26808557D02*
X42049998Y-26808557D01*
X42049998Y-26808557D02*
X42135712Y-26851414D01*
X42135712Y-26851414D02*
X42178570Y-26937128D01*
X42178570Y-26937128D02*
X42178570Y-27408557D01*
X42992856Y-27408557D02*
X42992856Y-26508557D01*
X42992856Y-27365700D02*
X42907141Y-27408557D01*
X42907141Y-27408557D02*
X42735713Y-27408557D01*
X42735713Y-27408557D02*
X42649998Y-27365700D01*
X42649998Y-27365700D02*
X42607141Y-27322842D01*
X42607141Y-27322842D02*
X42564284Y-27237128D01*
X42564284Y-27237128D02*
X42564284Y-26979985D01*
X42564284Y-26979985D02*
X42607141Y-26894271D01*
X42607141Y-26894271D02*
X42649998Y-26851414D01*
X42649998Y-26851414D02*
X42735713Y-26808557D01*
X42735713Y-26808557D02*
X42907141Y-26808557D01*
X42907141Y-26808557D02*
X42992856Y-26851414D01*
X43764284Y-27365700D02*
X43678570Y-27408557D01*
X43678570Y-27408557D02*
X43507142Y-27408557D01*
X43507142Y-27408557D02*
X43421427Y-27365700D01*
X43421427Y-27365700D02*
X43378570Y-27279985D01*
X43378570Y-27279985D02*
X43378570Y-26937128D01*
X43378570Y-26937128D02*
X43421427Y-26851414D01*
X43421427Y-26851414D02*
X43507142Y-26808557D01*
X43507142Y-26808557D02*
X43678570Y-26808557D01*
X43678570Y-26808557D02*
X43764284Y-26851414D01*
X43764284Y-26851414D02*
X43807142Y-26937128D01*
X43807142Y-26937128D02*
X43807142Y-27022842D01*
X43807142Y-27022842D02*
X43378570Y-27108557D01*
X44192856Y-26808557D02*
X44192856Y-27708557D01*
X44192856Y-26851414D02*
X44278571Y-26808557D01*
X44278571Y-26808557D02*
X44449999Y-26808557D01*
X44449999Y-26808557D02*
X44535713Y-26851414D01*
X44535713Y-26851414D02*
X44578571Y-26894271D01*
X44578571Y-26894271D02*
X44621428Y-26979985D01*
X44621428Y-26979985D02*
X44621428Y-27237128D01*
X44621428Y-27237128D02*
X44578571Y-27322842D01*
X44578571Y-27322842D02*
X44535713Y-27365700D01*
X44535713Y-27365700D02*
X44449999Y-27408557D01*
X44449999Y-27408557D02*
X44278571Y-27408557D01*
X44278571Y-27408557D02*
X44192856Y-27365700D01*
X45349999Y-27365700D02*
X45264285Y-27408557D01*
X45264285Y-27408557D02*
X45092857Y-27408557D01*
X45092857Y-27408557D02*
X45007142Y-27365700D01*
X45007142Y-27365700D02*
X44964285Y-27279985D01*
X44964285Y-27279985D02*
X44964285Y-26937128D01*
X44964285Y-26937128D02*
X45007142Y-26851414D01*
X45007142Y-26851414D02*
X45092857Y-26808557D01*
X45092857Y-26808557D02*
X45264285Y-26808557D01*
X45264285Y-26808557D02*
X45349999Y-26851414D01*
X45349999Y-26851414D02*
X45392857Y-26937128D01*
X45392857Y-26937128D02*
X45392857Y-27022842D01*
X45392857Y-27022842D02*
X44964285Y-27108557D01*
X45778571Y-26808557D02*
X45778571Y-27408557D01*
X45778571Y-26894271D02*
X45821428Y-26851414D01*
X45821428Y-26851414D02*
X45907143Y-26808557D01*
X45907143Y-26808557D02*
X46035714Y-26808557D01*
X46035714Y-26808557D02*
X46121428Y-26851414D01*
X46121428Y-26851414D02*
X46164286Y-26937128D01*
X46164286Y-26937128D02*
X46164286Y-27408557D01*
X46978572Y-27408557D02*
X46978572Y-26508557D01*
X46978572Y-27365700D02*
X46892857Y-27408557D01*
X46892857Y-27408557D02*
X46721429Y-27408557D01*
X46721429Y-27408557D02*
X46635714Y-27365700D01*
X46635714Y-27365700D02*
X46592857Y-27322842D01*
X46592857Y-27322842D02*
X46550000Y-27237128D01*
X46550000Y-27237128D02*
X46550000Y-26979985D01*
X46550000Y-26979985D02*
X46592857Y-26894271D01*
X46592857Y-26894271D02*
X46635714Y-26851414D01*
X46635714Y-26851414D02*
X46721429Y-26808557D01*
X46721429Y-26808557D02*
X46892857Y-26808557D01*
X46892857Y-26808557D02*
X46978572Y-26851414D01*
X47750000Y-27365700D02*
X47664286Y-27408557D01*
X47664286Y-27408557D02*
X47492858Y-27408557D01*
X47492858Y-27408557D02*
X47407143Y-27365700D01*
X47407143Y-27365700D02*
X47364286Y-27279985D01*
X47364286Y-27279985D02*
X47364286Y-26937128D01*
X47364286Y-26937128D02*
X47407143Y-26851414D01*
X47407143Y-26851414D02*
X47492858Y-26808557D01*
X47492858Y-26808557D02*
X47664286Y-26808557D01*
X47664286Y-26808557D02*
X47750000Y-26851414D01*
X47750000Y-26851414D02*
X47792858Y-26937128D01*
X47792858Y-26937128D02*
X47792858Y-27022842D01*
X47792858Y-27022842D02*
X47364286Y-27108557D01*
X48178572Y-26808557D02*
X48178572Y-27408557D01*
X48178572Y-26894271D02*
X48221429Y-26851414D01*
X48221429Y-26851414D02*
X48307144Y-26808557D01*
X48307144Y-26808557D02*
X48435715Y-26808557D01*
X48435715Y-26808557D02*
X48521429Y-26851414D01*
X48521429Y-26851414D02*
X48564287Y-26937128D01*
X48564287Y-26937128D02*
X48564287Y-27408557D01*
X48864287Y-26808557D02*
X49207144Y-26808557D01*
X48992858Y-26508557D02*
X48992858Y-27279985D01*
X48992858Y-27279985D02*
X49035715Y-27365700D01*
X49035715Y-27365700D02*
X49121430Y-27408557D01*
X49121430Y-27408557D02*
X49207144Y-27408557D01*
X50578573Y-26808557D02*
X50578573Y-27408557D01*
X50192858Y-26808557D02*
X50192858Y-27279985D01*
X50192858Y-27279985D02*
X50235715Y-27365700D01*
X50235715Y-27365700D02*
X50321430Y-27408557D01*
X50321430Y-27408557D02*
X50450001Y-27408557D01*
X50450001Y-27408557D02*
X50535715Y-27365700D01*
X50535715Y-27365700D02*
X50578573Y-27322842D01*
X51007144Y-26808557D02*
X51007144Y-27408557D01*
X51007144Y-26894271D02*
X51050001Y-26851414D01*
X51050001Y-26851414D02*
X51135716Y-26808557D01*
X51135716Y-26808557D02*
X51264287Y-26808557D01*
X51264287Y-26808557D02*
X51350001Y-26851414D01*
X51350001Y-26851414D02*
X51392859Y-26937128D01*
X51392859Y-26937128D02*
X51392859Y-27408557D01*
X52207145Y-27408557D02*
X52207145Y-26508557D01*
X52207145Y-27365700D02*
X52121430Y-27408557D01*
X52121430Y-27408557D02*
X51950002Y-27408557D01*
X51950002Y-27408557D02*
X51864287Y-27365700D01*
X51864287Y-27365700D02*
X51821430Y-27322842D01*
X51821430Y-27322842D02*
X51778573Y-27237128D01*
X51778573Y-27237128D02*
X51778573Y-26979985D01*
X51778573Y-26979985D02*
X51821430Y-26894271D01*
X51821430Y-26894271D02*
X51864287Y-26851414D01*
X51864287Y-26851414D02*
X51950002Y-26808557D01*
X51950002Y-26808557D02*
X52121430Y-26808557D01*
X52121430Y-26808557D02*
X52207145Y-26851414D01*
X52978573Y-27365700D02*
X52892859Y-27408557D01*
X52892859Y-27408557D02*
X52721431Y-27408557D01*
X52721431Y-27408557D02*
X52635716Y-27365700D01*
X52635716Y-27365700D02*
X52592859Y-27279985D01*
X52592859Y-27279985D02*
X52592859Y-26937128D01*
X52592859Y-26937128D02*
X52635716Y-26851414D01*
X52635716Y-26851414D02*
X52721431Y-26808557D01*
X52721431Y-26808557D02*
X52892859Y-26808557D01*
X52892859Y-26808557D02*
X52978573Y-26851414D01*
X52978573Y-26851414D02*
X53021431Y-26937128D01*
X53021431Y-26937128D02*
X53021431Y-27022842D01*
X53021431Y-27022842D02*
X52592859Y-27108557D01*
X53407145Y-27408557D02*
X53407145Y-26808557D01*
X53407145Y-26979985D02*
X53450002Y-26894271D01*
X53450002Y-26894271D02*
X53492860Y-26851414D01*
X53492860Y-26851414D02*
X53578574Y-26808557D01*
X53578574Y-26808557D02*
X53664288Y-26808557D01*
X53921431Y-27365700D02*
X54007145Y-27408557D01*
X54007145Y-27408557D02*
X54178574Y-27408557D01*
X54178574Y-27408557D02*
X54264288Y-27365700D01*
X54264288Y-27365700D02*
X54307145Y-27279985D01*
X54307145Y-27279985D02*
X54307145Y-27237128D01*
X54307145Y-27237128D02*
X54264288Y-27151414D01*
X54264288Y-27151414D02*
X54178574Y-27108557D01*
X54178574Y-27108557D02*
X54050003Y-27108557D01*
X54050003Y-27108557D02*
X53964288Y-27065700D01*
X53964288Y-27065700D02*
X53921431Y-26979985D01*
X53921431Y-26979985D02*
X53921431Y-26937128D01*
X53921431Y-26937128D02*
X53964288Y-26851414D01*
X53964288Y-26851414D02*
X54050003Y-26808557D01*
X54050003Y-26808557D02*
X54178574Y-26808557D01*
X54178574Y-26808557D02*
X54264288Y-26851414D01*
X54692859Y-27408557D02*
X54692859Y-26808557D01*
X54692859Y-26508557D02*
X54650002Y-26551414D01*
X54650002Y-26551414D02*
X54692859Y-26594271D01*
X54692859Y-26594271D02*
X54735716Y-26551414D01*
X54735716Y-26551414D02*
X54692859Y-26508557D01*
X54692859Y-26508557D02*
X54692859Y-26594271D01*
X55507145Y-27408557D02*
X55507145Y-26508557D01*
X55507145Y-27365700D02*
X55421430Y-27408557D01*
X55421430Y-27408557D02*
X55250002Y-27408557D01*
X55250002Y-27408557D02*
X55164287Y-27365700D01*
X55164287Y-27365700D02*
X55121430Y-27322842D01*
X55121430Y-27322842D02*
X55078573Y-27237128D01*
X55078573Y-27237128D02*
X55078573Y-26979985D01*
X55078573Y-26979985D02*
X55121430Y-26894271D01*
X55121430Y-26894271D02*
X55164287Y-26851414D01*
X55164287Y-26851414D02*
X55250002Y-26808557D01*
X55250002Y-26808557D02*
X55421430Y-26808557D01*
X55421430Y-26808557D02*
X55507145Y-26851414D01*
X56278573Y-27365700D02*
X56192859Y-27408557D01*
X56192859Y-27408557D02*
X56021431Y-27408557D01*
X56021431Y-27408557D02*
X55935716Y-27365700D01*
X55935716Y-27365700D02*
X55892859Y-27279985D01*
X55892859Y-27279985D02*
X55892859Y-26937128D01*
X55892859Y-26937128D02*
X55935716Y-26851414D01*
X55935716Y-26851414D02*
X56021431Y-26808557D01*
X56021431Y-26808557D02*
X56192859Y-26808557D01*
X56192859Y-26808557D02*
X56278573Y-26851414D01*
X56278573Y-26851414D02*
X56321431Y-26937128D01*
X56321431Y-26937128D02*
X56321431Y-27022842D01*
X56321431Y-27022842D02*
X55892859Y-27108557D01*
X57350002Y-27365700D02*
X57435716Y-27408557D01*
X57435716Y-27408557D02*
X57607145Y-27408557D01*
X57607145Y-27408557D02*
X57692859Y-27365700D01*
X57692859Y-27365700D02*
X57735716Y-27279985D01*
X57735716Y-27279985D02*
X57735716Y-27237128D01*
X57735716Y-27237128D02*
X57692859Y-27151414D01*
X57692859Y-27151414D02*
X57607145Y-27108557D01*
X57607145Y-27108557D02*
X57478574Y-27108557D01*
X57478574Y-27108557D02*
X57392859Y-27065700D01*
X57392859Y-27065700D02*
X57350002Y-26979985D01*
X57350002Y-26979985D02*
X57350002Y-26937128D01*
X57350002Y-26937128D02*
X57392859Y-26851414D01*
X57392859Y-26851414D02*
X57478574Y-26808557D01*
X57478574Y-26808557D02*
X57607145Y-26808557D01*
X57607145Y-26808557D02*
X57692859Y-26851414D01*
X58507145Y-26808557D02*
X58507145Y-27408557D01*
X58121430Y-26808557D02*
X58121430Y-27279985D01*
X58121430Y-27279985D02*
X58164287Y-27365700D01*
X58164287Y-27365700D02*
X58250002Y-27408557D01*
X58250002Y-27408557D02*
X58378573Y-27408557D01*
X58378573Y-27408557D02*
X58464287Y-27365700D01*
X58464287Y-27365700D02*
X58507145Y-27322842D01*
X58935716Y-26808557D02*
X58935716Y-27708557D01*
X58935716Y-26851414D02*
X59021431Y-26808557D01*
X59021431Y-26808557D02*
X59192859Y-26808557D01*
X59192859Y-26808557D02*
X59278573Y-26851414D01*
X59278573Y-26851414D02*
X59321431Y-26894271D01*
X59321431Y-26894271D02*
X59364288Y-26979985D01*
X59364288Y-26979985D02*
X59364288Y-27237128D01*
X59364288Y-27237128D02*
X59321431Y-27322842D01*
X59321431Y-27322842D02*
X59278573Y-27365700D01*
X59278573Y-27365700D02*
X59192859Y-27408557D01*
X59192859Y-27408557D02*
X59021431Y-27408557D01*
X59021431Y-27408557D02*
X58935716Y-27365700D01*
X59750002Y-26808557D02*
X59750002Y-27708557D01*
X59750002Y-26851414D02*
X59835717Y-26808557D01*
X59835717Y-26808557D02*
X60007145Y-26808557D01*
X60007145Y-26808557D02*
X60092859Y-26851414D01*
X60092859Y-26851414D02*
X60135717Y-26894271D01*
X60135717Y-26894271D02*
X60178574Y-26979985D01*
X60178574Y-26979985D02*
X60178574Y-27237128D01*
X60178574Y-27237128D02*
X60135717Y-27322842D01*
X60135717Y-27322842D02*
X60092859Y-27365700D01*
X60092859Y-27365700D02*
X60007145Y-27408557D01*
X60007145Y-27408557D02*
X59835717Y-27408557D01*
X59835717Y-27408557D02*
X59750002Y-27365700D01*
X60692860Y-27408557D02*
X60607145Y-27365700D01*
X60607145Y-27365700D02*
X60564288Y-27322842D01*
X60564288Y-27322842D02*
X60521431Y-27237128D01*
X60521431Y-27237128D02*
X60521431Y-26979985D01*
X60521431Y-26979985D02*
X60564288Y-26894271D01*
X60564288Y-26894271D02*
X60607145Y-26851414D01*
X60607145Y-26851414D02*
X60692860Y-26808557D01*
X60692860Y-26808557D02*
X60821431Y-26808557D01*
X60821431Y-26808557D02*
X60907145Y-26851414D01*
X60907145Y-26851414D02*
X60950003Y-26894271D01*
X60950003Y-26894271D02*
X60992860Y-26979985D01*
X60992860Y-26979985D02*
X60992860Y-27237128D01*
X60992860Y-27237128D02*
X60950003Y-27322842D01*
X60950003Y-27322842D02*
X60907145Y-27365700D01*
X60907145Y-27365700D02*
X60821431Y-27408557D01*
X60821431Y-27408557D02*
X60692860Y-27408557D01*
X61378574Y-27408557D02*
X61378574Y-26808557D01*
X61378574Y-26979985D02*
X61421431Y-26894271D01*
X61421431Y-26894271D02*
X61464289Y-26851414D01*
X61464289Y-26851414D02*
X61550003Y-26808557D01*
X61550003Y-26808557D02*
X61635717Y-26808557D01*
X61807146Y-26808557D02*
X62150003Y-26808557D01*
X61935717Y-26508557D02*
X61935717Y-27279985D01*
X61935717Y-27279985D02*
X61978574Y-27365700D01*
X61978574Y-27365700D02*
X62064289Y-27408557D01*
X62064289Y-27408557D02*
X62150003Y-27408557D01*
X62407146Y-27365700D02*
X62492860Y-27408557D01*
X62492860Y-27408557D02*
X62664289Y-27408557D01*
X62664289Y-27408557D02*
X62750003Y-27365700D01*
X62750003Y-27365700D02*
X62792860Y-27279985D01*
X62792860Y-27279985D02*
X62792860Y-27237128D01*
X62792860Y-27237128D02*
X62750003Y-27151414D01*
X62750003Y-27151414D02*
X62664289Y-27108557D01*
X62664289Y-27108557D02*
X62535718Y-27108557D01*
X62535718Y-27108557D02*
X62450003Y-27065700D01*
X62450003Y-27065700D02*
X62407146Y-26979985D01*
X62407146Y-26979985D02*
X62407146Y-26937128D01*
X62407146Y-26937128D02*
X62450003Y-26851414D01*
X62450003Y-26851414D02*
X62535718Y-26808557D01*
X62535718Y-26808557D02*
X62664289Y-26808557D01*
X62664289Y-26808557D02*
X62750003Y-26851414D01*
X9057144Y-24547342D02*
X9057144Y-23347342D01*
X9742858Y-24547342D02*
X9228572Y-23861628D01*
X9742858Y-23347342D02*
X9057144Y-24033057D01*
X10942858Y-24433057D02*
X10885715Y-24490200D01*
X10885715Y-24490200D02*
X10714287Y-24547342D01*
X10714287Y-24547342D02*
X10600001Y-24547342D01*
X10600001Y-24547342D02*
X10428572Y-24490200D01*
X10428572Y-24490200D02*
X10314287Y-24375914D01*
X10314287Y-24375914D02*
X10257144Y-24261628D01*
X10257144Y-24261628D02*
X10200001Y-24033057D01*
X10200001Y-24033057D02*
X10200001Y-23861628D01*
X10200001Y-23861628D02*
X10257144Y-23633057D01*
X10257144Y-23633057D02*
X10314287Y-23518771D01*
X10314287Y-23518771D02*
X10428572Y-23404485D01*
X10428572Y-23404485D02*
X10600001Y-23347342D01*
X10600001Y-23347342D02*
X10714287Y-23347342D01*
X10714287Y-23347342D02*
X10885715Y-23404485D01*
X10885715Y-23404485D02*
X10942858Y-23461628D01*
X11400001Y-23461628D02*
X11457144Y-23404485D01*
X11457144Y-23404485D02*
X11571430Y-23347342D01*
X11571430Y-23347342D02*
X11857144Y-23347342D01*
X11857144Y-23347342D02*
X11971430Y-23404485D01*
X11971430Y-23404485D02*
X12028572Y-23461628D01*
X12028572Y-23461628D02*
X12085715Y-23575914D01*
X12085715Y-23575914D02*
X12085715Y-23690200D01*
X12085715Y-23690200D02*
X12028572Y-23861628D01*
X12028572Y-23861628D02*
X11342858Y-24547342D01*
X11342858Y-24547342D02*
X12085715Y-24547342D01*
X14085715Y-24547342D02*
X13514287Y-24547342D01*
X13514287Y-24547342D02*
X13514287Y-23347342D01*
X14485716Y-23918771D02*
X14885716Y-23918771D01*
X15057144Y-24547342D02*
X14485716Y-24547342D01*
X14485716Y-24547342D02*
X14485716Y-23347342D01*
X14485716Y-23347342D02*
X15057144Y-23347342D01*
X15971430Y-23918771D02*
X15571430Y-23918771D01*
X15571430Y-24547342D02*
X15571430Y-23347342D01*
X15571430Y-23347342D02*
X16142858Y-23347342D01*
X16428572Y-23347342D02*
X17114287Y-23347342D01*
X16771429Y-24547342D02*
X16771429Y-23347342D01*
X18314287Y-23347342D02*
X19114287Y-24547342D01*
X19114287Y-23347342D02*
X18314287Y-24547342D01*
X19457144Y-23347342D02*
X20200001Y-23347342D01*
X20200001Y-23347342D02*
X19800001Y-23804485D01*
X19800001Y-23804485D02*
X19971430Y-23804485D01*
X19971430Y-23804485D02*
X20085716Y-23861628D01*
X20085716Y-23861628D02*
X20142858Y-23918771D01*
X20142858Y-23918771D02*
X20200001Y-24033057D01*
X20200001Y-24033057D02*
X20200001Y-24318771D01*
X20200001Y-24318771D02*
X20142858Y-24433057D01*
X20142858Y-24433057D02*
X20085716Y-24490200D01*
X20085716Y-24490200D02*
X19971430Y-24547342D01*
X19971430Y-24547342D02*
X19628573Y-24547342D01*
X19628573Y-24547342D02*
X19514287Y-24490200D01*
X19514287Y-24490200D02*
X19457144Y-24433057D01*
X20714287Y-24090200D02*
X21628573Y-24090200D01*
X22028572Y-23347342D02*
X22428572Y-24547342D01*
X22428572Y-24547342D02*
X22828572Y-23347342D01*
X23171429Y-23461628D02*
X23228572Y-23404485D01*
X23228572Y-23404485D02*
X23342858Y-23347342D01*
X23342858Y-23347342D02*
X23628572Y-23347342D01*
X23628572Y-23347342D02*
X23742858Y-23404485D01*
X23742858Y-23404485D02*
X23800000Y-23461628D01*
X23800000Y-23461628D02*
X23857143Y-23575914D01*
X23857143Y-23575914D02*
X23857143Y-23690200D01*
X23857143Y-23690200D02*
X23800000Y-23861628D01*
X23800000Y-23861628D02*
X23114286Y-24547342D01*
X23114286Y-24547342D02*
X23857143Y-24547342D01*
X25285715Y-24090200D02*
X26200001Y-24090200D01*
X27571429Y-23347342D02*
X28371429Y-23347342D01*
X28371429Y-23347342D02*
X27857143Y-24547342D01*
X29057143Y-23347342D02*
X29171429Y-23347342D01*
X29171429Y-23347342D02*
X29285715Y-23404485D01*
X29285715Y-23404485D02*
X29342858Y-23461628D01*
X29342858Y-23461628D02*
X29400000Y-23575914D01*
X29400000Y-23575914D02*
X29457143Y-23804485D01*
X29457143Y-23804485D02*
X29457143Y-24090200D01*
X29457143Y-24090200D02*
X29400000Y-24318771D01*
X29400000Y-24318771D02*
X29342858Y-24433057D01*
X29342858Y-24433057D02*
X29285715Y-24490200D01*
X29285715Y-24490200D02*
X29171429Y-24547342D01*
X29171429Y-24547342D02*
X29057143Y-24547342D01*
X29057143Y-24547342D02*
X28942858Y-24490200D01*
X28942858Y-24490200D02*
X28885715Y-24433057D01*
X28885715Y-24433057D02*
X28828572Y-24318771D01*
X28828572Y-24318771D02*
X28771429Y-24090200D01*
X28771429Y-24090200D02*
X28771429Y-23804485D01*
X28771429Y-23804485D02*
X28828572Y-23575914D01*
X28828572Y-23575914D02*
X28885715Y-23461628D01*
X28885715Y-23461628D02*
X28942858Y-23404485D01*
X28942858Y-23404485D02*
X29057143Y-23347342D01*
X29971429Y-24090200D02*
X30885715Y-24090200D01*
X31457143Y-24547342D02*
X31457143Y-23347342D01*
X31571429Y-24090200D02*
X31914286Y-24547342D01*
X31914286Y-23747342D02*
X31457143Y-24204485D01*
X32885715Y-24490200D02*
X32771429Y-24547342D01*
X32771429Y-24547342D02*
X32542858Y-24547342D01*
X32542858Y-24547342D02*
X32428572Y-24490200D01*
X32428572Y-24490200D02*
X32371429Y-24375914D01*
X32371429Y-24375914D02*
X32371429Y-23918771D01*
X32371429Y-23918771D02*
X32428572Y-23804485D01*
X32428572Y-23804485D02*
X32542858Y-23747342D01*
X32542858Y-23747342D02*
X32771429Y-23747342D01*
X32771429Y-23747342D02*
X32885715Y-23804485D01*
X32885715Y-23804485D02*
X32942858Y-23918771D01*
X32942858Y-23918771D02*
X32942858Y-24033057D01*
X32942858Y-24033057D02*
X32371429Y-24147342D01*
X33342857Y-23747342D02*
X33628571Y-24547342D01*
X33914286Y-23747342D02*
X33628571Y-24547342D01*
X33628571Y-24547342D02*
X33514286Y-24833057D01*
X33514286Y-24833057D02*
X33457143Y-24890200D01*
X33457143Y-24890200D02*
X33342857Y-24947342D01*
X35171429Y-23747342D02*
X35457143Y-24547342D01*
X35457143Y-24547342D02*
X35742858Y-23747342D01*
X36771429Y-23347342D02*
X36200001Y-23347342D01*
X36200001Y-23347342D02*
X36142858Y-23918771D01*
X36142858Y-23918771D02*
X36200001Y-23861628D01*
X36200001Y-23861628D02*
X36314287Y-23804485D01*
X36314287Y-23804485D02*
X36600001Y-23804485D01*
X36600001Y-23804485D02*
X36714287Y-23861628D01*
X36714287Y-23861628D02*
X36771429Y-23918771D01*
X36771429Y-23918771D02*
X36828572Y-24033057D01*
X36828572Y-24033057D02*
X36828572Y-24318771D01*
X36828572Y-24318771D02*
X36771429Y-24433057D01*
X36771429Y-24433057D02*
X36714287Y-24490200D01*
X36714287Y-24490200D02*
X36600001Y-24547342D01*
X36600001Y-24547342D02*
X36314287Y-24547342D01*
X36314287Y-24547342D02*
X36200001Y-24490200D01*
X36200001Y-24490200D02*
X36142858Y-24433057D01*
X38257144Y-23747342D02*
X38257144Y-24547342D01*
X38257144Y-23861628D02*
X38314287Y-23804485D01*
X38314287Y-23804485D02*
X38428572Y-23747342D01*
X38428572Y-23747342D02*
X38600001Y-23747342D01*
X38600001Y-23747342D02*
X38714287Y-23804485D01*
X38714287Y-23804485D02*
X38771430Y-23918771D01*
X38771430Y-23918771D02*
X38771430Y-24547342D01*
X39514286Y-24547342D02*
X39400001Y-24490200D01*
X39400001Y-24490200D02*
X39342858Y-24433057D01*
X39342858Y-24433057D02*
X39285715Y-24318771D01*
X39285715Y-24318771D02*
X39285715Y-23975914D01*
X39285715Y-23975914D02*
X39342858Y-23861628D01*
X39342858Y-23861628D02*
X39400001Y-23804485D01*
X39400001Y-23804485D02*
X39514286Y-23747342D01*
X39514286Y-23747342D02*
X39685715Y-23747342D01*
X39685715Y-23747342D02*
X39800001Y-23804485D01*
X39800001Y-23804485D02*
X39857144Y-23861628D01*
X39857144Y-23861628D02*
X39914286Y-23975914D01*
X39914286Y-23975914D02*
X39914286Y-24318771D01*
X39914286Y-24318771D02*
X39857144Y-24433057D01*
X39857144Y-24433057D02*
X39800001Y-24490200D01*
X39800001Y-24490200D02*
X39685715Y-24547342D01*
X39685715Y-24547342D02*
X39514286Y-24547342D01*
X40428572Y-24090200D02*
X41342858Y-24090200D01*
X41857143Y-24490200D02*
X41971429Y-24547342D01*
X41971429Y-24547342D02*
X42200000Y-24547342D01*
X42200000Y-24547342D02*
X42314286Y-24490200D01*
X42314286Y-24490200D02*
X42371429Y-24375914D01*
X42371429Y-24375914D02*
X42371429Y-24318771D01*
X42371429Y-24318771D02*
X42314286Y-24204485D01*
X42314286Y-24204485D02*
X42200000Y-24147342D01*
X42200000Y-24147342D02*
X42028572Y-24147342D01*
X42028572Y-24147342D02*
X41914286Y-24090200D01*
X41914286Y-24090200D02*
X41857143Y-23975914D01*
X41857143Y-23975914D02*
X41857143Y-23918771D01*
X41857143Y-23918771D02*
X41914286Y-23804485D01*
X41914286Y-23804485D02*
X42028572Y-23747342D01*
X42028572Y-23747342D02*
X42200000Y-23747342D01*
X42200000Y-23747342D02*
X42314286Y-23804485D01*
X42714286Y-23747342D02*
X43171429Y-23747342D01*
X42885715Y-23347342D02*
X42885715Y-24375914D01*
X42885715Y-24375914D02*
X42942858Y-24490200D01*
X42942858Y-24490200D02*
X43057143Y-24547342D01*
X43057143Y-24547342D02*
X43171429Y-24547342D01*
X44085715Y-24547342D02*
X44085715Y-23918771D01*
X44085715Y-23918771D02*
X44028572Y-23804485D01*
X44028572Y-23804485D02*
X43914286Y-23747342D01*
X43914286Y-23747342D02*
X43685715Y-23747342D01*
X43685715Y-23747342D02*
X43571429Y-23804485D01*
X44085715Y-24490200D02*
X43971429Y-24547342D01*
X43971429Y-24547342D02*
X43685715Y-24547342D01*
X43685715Y-24547342D02*
X43571429Y-24490200D01*
X43571429Y-24490200D02*
X43514286Y-24375914D01*
X43514286Y-24375914D02*
X43514286Y-24261628D01*
X43514286Y-24261628D02*
X43571429Y-24147342D01*
X43571429Y-24147342D02*
X43685715Y-24090200D01*
X43685715Y-24090200D02*
X43971429Y-24090200D01*
X43971429Y-24090200D02*
X44085715Y-24033057D01*
X44657143Y-24547342D02*
X44657143Y-23347342D01*
X44657143Y-23804485D02*
X44771429Y-23747342D01*
X44771429Y-23747342D02*
X45000000Y-23747342D01*
X45000000Y-23747342D02*
X45114286Y-23804485D01*
X45114286Y-23804485D02*
X45171429Y-23861628D01*
X45171429Y-23861628D02*
X45228571Y-23975914D01*
X45228571Y-23975914D02*
X45228571Y-24318771D01*
X45228571Y-24318771D02*
X45171429Y-24433057D01*
X45171429Y-24433057D02*
X45114286Y-24490200D01*
X45114286Y-24490200D02*
X45000000Y-24547342D01*
X45000000Y-24547342D02*
X44771429Y-24547342D01*
X44771429Y-24547342D02*
X44657143Y-24490200D01*
X45742857Y-24547342D02*
X45742857Y-23747342D01*
X45742857Y-23347342D02*
X45685714Y-23404485D01*
X45685714Y-23404485D02*
X45742857Y-23461628D01*
X45742857Y-23461628D02*
X45800000Y-23404485D01*
X45800000Y-23404485D02*
X45742857Y-23347342D01*
X45742857Y-23347342D02*
X45742857Y-23461628D01*
X46485714Y-24547342D02*
X46371429Y-24490200D01*
X46371429Y-24490200D02*
X46314286Y-24375914D01*
X46314286Y-24375914D02*
X46314286Y-23347342D01*
X46942857Y-24547342D02*
X46942857Y-23747342D01*
X46942857Y-23347342D02*
X46885714Y-23404485D01*
X46885714Y-23404485D02*
X46942857Y-23461628D01*
X46942857Y-23461628D02*
X47000000Y-23404485D01*
X47000000Y-23404485D02*
X46942857Y-23347342D01*
X46942857Y-23347342D02*
X46942857Y-23461628D01*
X47400000Y-23747342D02*
X48028572Y-23747342D01*
X48028572Y-23747342D02*
X47400000Y-24547342D01*
X47400000Y-24547342D02*
X48028572Y-24547342D01*
X48942858Y-24490200D02*
X48828572Y-24547342D01*
X48828572Y-24547342D02*
X48600001Y-24547342D01*
X48600001Y-24547342D02*
X48485715Y-24490200D01*
X48485715Y-24490200D02*
X48428572Y-24375914D01*
X48428572Y-24375914D02*
X48428572Y-23918771D01*
X48428572Y-23918771D02*
X48485715Y-23804485D01*
X48485715Y-23804485D02*
X48600001Y-23747342D01*
X48600001Y-23747342D02*
X48828572Y-23747342D01*
X48828572Y-23747342D02*
X48942858Y-23804485D01*
X48942858Y-23804485D02*
X49000001Y-23918771D01*
X49000001Y-23918771D02*
X49000001Y-24033057D01*
X49000001Y-24033057D02*
X48428572Y-24147342D01*
X49514286Y-24547342D02*
X49514286Y-23747342D01*
X49514286Y-23975914D02*
X49571429Y-23861628D01*
X49571429Y-23861628D02*
X49628572Y-23804485D01*
X49628572Y-23804485D02*
X49742857Y-23747342D01*
X49742857Y-23747342D02*
X49857143Y-23747342D01*
X51114286Y-24490200D02*
X51228572Y-24547342D01*
X51228572Y-24547342D02*
X51457143Y-24547342D01*
X51457143Y-24547342D02*
X51571429Y-24490200D01*
X51571429Y-24490200D02*
X51628572Y-24375914D01*
X51628572Y-24375914D02*
X51628572Y-24318771D01*
X51628572Y-24318771D02*
X51571429Y-24204485D01*
X51571429Y-24204485D02*
X51457143Y-24147342D01*
X51457143Y-24147342D02*
X51285715Y-24147342D01*
X51285715Y-24147342D02*
X51171429Y-24090200D01*
X51171429Y-24090200D02*
X51114286Y-23975914D01*
X51114286Y-23975914D02*
X51114286Y-23918771D01*
X51114286Y-23918771D02*
X51171429Y-23804485D01*
X51171429Y-23804485D02*
X51285715Y-23747342D01*
X51285715Y-23747342D02*
X51457143Y-23747342D01*
X51457143Y-23747342D02*
X51571429Y-23804485D01*
X52142858Y-23747342D02*
X52142858Y-24947342D01*
X52142858Y-23804485D02*
X52257144Y-23747342D01*
X52257144Y-23747342D02*
X52485715Y-23747342D01*
X52485715Y-23747342D02*
X52600001Y-23804485D01*
X52600001Y-23804485D02*
X52657144Y-23861628D01*
X52657144Y-23861628D02*
X52714286Y-23975914D01*
X52714286Y-23975914D02*
X52714286Y-24318771D01*
X52714286Y-24318771D02*
X52657144Y-24433057D01*
X52657144Y-24433057D02*
X52600001Y-24490200D01*
X52600001Y-24490200D02*
X52485715Y-24547342D01*
X52485715Y-24547342D02*
X52257144Y-24547342D01*
X52257144Y-24547342D02*
X52142858Y-24490200D01*
X53400000Y-24547342D02*
X53285715Y-24490200D01*
X53285715Y-24490200D02*
X53228572Y-24375914D01*
X53228572Y-24375914D02*
X53228572Y-23347342D01*
X53857143Y-24547342D02*
X53857143Y-23747342D01*
X53857143Y-23347342D02*
X53800000Y-23404485D01*
X53800000Y-23404485D02*
X53857143Y-23461628D01*
X53857143Y-23461628D02*
X53914286Y-23404485D01*
X53914286Y-23404485D02*
X53857143Y-23347342D01*
X53857143Y-23347342D02*
X53857143Y-23461628D01*
X54257143Y-23747342D02*
X54714286Y-23747342D01*
X54428572Y-23347342D02*
X54428572Y-24375914D01*
X54428572Y-24375914D02*
X54485715Y-24490200D01*
X54485715Y-24490200D02*
X54600000Y-24547342D01*
X54600000Y-24547342D02*
X54714286Y-24547342D01*
X56200000Y-24547342D02*
X56085715Y-24490200D01*
X56085715Y-24490200D02*
X56028572Y-24375914D01*
X56028572Y-24375914D02*
X56028572Y-23347342D01*
X57171429Y-24547342D02*
X57171429Y-23918771D01*
X57171429Y-23918771D02*
X57114286Y-23804485D01*
X57114286Y-23804485D02*
X57000000Y-23747342D01*
X57000000Y-23747342D02*
X56771429Y-23747342D01*
X56771429Y-23747342D02*
X56657143Y-23804485D01*
X57171429Y-24490200D02*
X57057143Y-24547342D01*
X57057143Y-24547342D02*
X56771429Y-24547342D01*
X56771429Y-24547342D02*
X56657143Y-24490200D01*
X56657143Y-24490200D02*
X56600000Y-24375914D01*
X56600000Y-24375914D02*
X56600000Y-24261628D01*
X56600000Y-24261628D02*
X56657143Y-24147342D01*
X56657143Y-24147342D02*
X56771429Y-24090200D01*
X56771429Y-24090200D02*
X57057143Y-24090200D01*
X57057143Y-24090200D02*
X57171429Y-24033057D01*
X57628571Y-23747342D02*
X57914285Y-24547342D01*
X58200000Y-23747342D02*
X57914285Y-24547342D01*
X57914285Y-24547342D02*
X57800000Y-24833057D01*
X57800000Y-24833057D02*
X57742857Y-24890200D01*
X57742857Y-24890200D02*
X57628571Y-24947342D01*
X58828571Y-24547342D02*
X58714286Y-24490200D01*
X58714286Y-24490200D02*
X58657143Y-24433057D01*
X58657143Y-24433057D02*
X58600000Y-24318771D01*
X58600000Y-24318771D02*
X58600000Y-23975914D01*
X58600000Y-23975914D02*
X58657143Y-23861628D01*
X58657143Y-23861628D02*
X58714286Y-23804485D01*
X58714286Y-23804485D02*
X58828571Y-23747342D01*
X58828571Y-23747342D02*
X59000000Y-23747342D01*
X59000000Y-23747342D02*
X59114286Y-23804485D01*
X59114286Y-23804485D02*
X59171429Y-23861628D01*
X59171429Y-23861628D02*
X59228571Y-23975914D01*
X59228571Y-23975914D02*
X59228571Y-24318771D01*
X59228571Y-24318771D02*
X59171429Y-24433057D01*
X59171429Y-24433057D02*
X59114286Y-24490200D01*
X59114286Y-24490200D02*
X59000000Y-24547342D01*
X59000000Y-24547342D02*
X58828571Y-24547342D01*
X60257143Y-23747342D02*
X60257143Y-24547342D01*
X59742857Y-23747342D02*
X59742857Y-24375914D01*
X59742857Y-24375914D02*
X59800000Y-24490200D01*
X59800000Y-24490200D02*
X59914285Y-24547342D01*
X59914285Y-24547342D02*
X60085714Y-24547342D01*
X60085714Y-24547342D02*
X60200000Y-24490200D01*
X60200000Y-24490200D02*
X60257143Y-24433057D01*
X60657142Y-23747342D02*
X61114285Y-23747342D01*
X60828571Y-23347342D02*
X60828571Y-24375914D01*
X60828571Y-24375914D02*
X60885714Y-24490200D01*
X60885714Y-24490200D02*
X60999999Y-24547342D01*
X60999999Y-24547342D02*
X61114285Y-24547342D01*
X111795833Y-41862295D02*
X111795833Y-41062295D01*
X111795833Y-41062295D02*
X112062499Y-41633723D01*
X112062499Y-41633723D02*
X112329166Y-41062295D01*
X112329166Y-41062295D02*
X112329166Y-41862295D01*
X112710119Y-41862295D02*
X112710119Y-41062295D01*
X112710119Y-41443247D02*
X113167262Y-41443247D01*
X113167262Y-41862295D02*
X113167262Y-41062295D01*
X113967261Y-41862295D02*
X113510118Y-41862295D01*
X113738690Y-41862295D02*
X113738690Y-41062295D01*
X113738690Y-41062295D02*
X113662499Y-41176580D01*
X113662499Y-41176580D02*
X113586309Y-41252771D01*
X113586309Y-41252771D02*
X113510118Y-41290866D01*
D12*
X131744880Y-50059271D02*
X131744880Y-51087366D01*
X131744880Y-51087366D02*
X131805357Y-51208318D01*
X131805357Y-51208318D02*
X131865833Y-51268795D01*
X131865833Y-51268795D02*
X131986785Y-51329271D01*
X131986785Y-51329271D02*
X132228690Y-51329271D01*
X132228690Y-51329271D02*
X132349642Y-51268795D01*
X132349642Y-51268795D02*
X132410119Y-51208318D01*
X132410119Y-51208318D02*
X132470595Y-51087366D01*
X132470595Y-51087366D02*
X132470595Y-50059271D01*
X133740595Y-51329271D02*
X133014880Y-51329271D01*
X133377737Y-51329271D02*
X133377737Y-50059271D01*
X133377737Y-50059271D02*
X133256785Y-50240699D01*
X133256785Y-50240699D02*
X133135833Y-50361652D01*
X133135833Y-50361652D02*
X133014880Y-50422128D01*
D10*
X118190119Y-45594895D02*
X117923452Y-45213942D01*
X117732976Y-45594895D02*
X117732976Y-44794895D01*
X117732976Y-44794895D02*
X118037738Y-44794895D01*
X118037738Y-44794895D02*
X118113928Y-44832990D01*
X118113928Y-44832990D02*
X118152023Y-44871085D01*
X118152023Y-44871085D02*
X118190119Y-44947276D01*
X118190119Y-44947276D02*
X118190119Y-45061561D01*
X118190119Y-45061561D02*
X118152023Y-45137752D01*
X118152023Y-45137752D02*
X118113928Y-45175847D01*
X118113928Y-45175847D02*
X118037738Y-45213942D01*
X118037738Y-45213942D02*
X117732976Y-45213942D01*
X118494880Y-45366323D02*
X118875833Y-45366323D01*
X118418690Y-45594895D02*
X118685357Y-44794895D01*
X118685357Y-44794895D02*
X118952023Y-45594895D01*
X119142499Y-44794895D02*
X119332975Y-45594895D01*
X119332975Y-45594895D02*
X119485356Y-45023466D01*
X119485356Y-45023466D02*
X119637737Y-45594895D01*
X119637737Y-45594895D02*
X119828214Y-44794895D01*
X118152024Y-56634894D02*
X118152024Y-55834894D01*
X118152024Y-55834894D02*
X118342500Y-55834894D01*
X118342500Y-55834894D02*
X118456786Y-55872989D01*
X118456786Y-55872989D02*
X118532976Y-55949179D01*
X118532976Y-55949179D02*
X118571071Y-56025370D01*
X118571071Y-56025370D02*
X118609167Y-56177751D01*
X118609167Y-56177751D02*
X118609167Y-56292037D01*
X118609167Y-56292037D02*
X118571071Y-56444418D01*
X118571071Y-56444418D02*
X118532976Y-56520608D01*
X118532976Y-56520608D02*
X118456786Y-56596799D01*
X118456786Y-56596799D02*
X118342500Y-56634894D01*
X118342500Y-56634894D02*
X118152024Y-56634894D01*
X119371071Y-56634894D02*
X118913928Y-56634894D01*
X119142500Y-56634894D02*
X119142500Y-55834894D01*
X119142500Y-55834894D02*
X119066309Y-55949179D01*
X119066309Y-55949179D02*
X118990119Y-56025370D01*
X118990119Y-56025370D02*
X118913928Y-56063465D01*
X121492023Y-44832990D02*
X121415833Y-44794895D01*
X121415833Y-44794895D02*
X121301547Y-44794895D01*
X121301547Y-44794895D02*
X121187261Y-44832990D01*
X121187261Y-44832990D02*
X121111071Y-44909180D01*
X121111071Y-44909180D02*
X121072976Y-44985371D01*
X121072976Y-44985371D02*
X121034880Y-45137752D01*
X121034880Y-45137752D02*
X121034880Y-45252038D01*
X121034880Y-45252038D02*
X121072976Y-45404419D01*
X121072976Y-45404419D02*
X121111071Y-45480609D01*
X121111071Y-45480609D02*
X121187261Y-45556800D01*
X121187261Y-45556800D02*
X121301547Y-45594895D01*
X121301547Y-45594895D02*
X121377738Y-45594895D01*
X121377738Y-45594895D02*
X121492023Y-45556800D01*
X121492023Y-45556800D02*
X121530119Y-45518704D01*
X121530119Y-45518704D02*
X121530119Y-45252038D01*
X121530119Y-45252038D02*
X121377738Y-45252038D01*
X120692024Y-56634894D02*
X120692024Y-55834894D01*
X120692024Y-55834894D02*
X120882500Y-55834894D01*
X120882500Y-55834894D02*
X120996786Y-55872989D01*
X120996786Y-55872989D02*
X121072976Y-55949179D01*
X121072976Y-55949179D02*
X121111071Y-56025370D01*
X121111071Y-56025370D02*
X121149167Y-56177751D01*
X121149167Y-56177751D02*
X121149167Y-56292037D01*
X121149167Y-56292037D02*
X121111071Y-56444418D01*
X121111071Y-56444418D02*
X121072976Y-56520608D01*
X121072976Y-56520608D02*
X120996786Y-56596799D01*
X120996786Y-56596799D02*
X120882500Y-56634894D01*
X120882500Y-56634894D02*
X120692024Y-56634894D01*
X121644405Y-55834894D02*
X121720595Y-55834894D01*
X121720595Y-55834894D02*
X121796786Y-55872989D01*
X121796786Y-55872989D02*
X121834881Y-55911084D01*
X121834881Y-55911084D02*
X121872976Y-55987275D01*
X121872976Y-55987275D02*
X121911071Y-56139656D01*
X121911071Y-56139656D02*
X121911071Y-56330132D01*
X121911071Y-56330132D02*
X121872976Y-56482513D01*
X121872976Y-56482513D02*
X121834881Y-56558703D01*
X121834881Y-56558703D02*
X121796786Y-56596799D01*
X121796786Y-56596799D02*
X121720595Y-56634894D01*
X121720595Y-56634894D02*
X121644405Y-56634894D01*
X121644405Y-56634894D02*
X121568214Y-56596799D01*
X121568214Y-56596799D02*
X121530119Y-56558703D01*
X121530119Y-56558703D02*
X121492024Y-56482513D01*
X121492024Y-56482513D02*
X121453928Y-56330132D01*
X121453928Y-56330132D02*
X121453928Y-56139656D01*
X121453928Y-56139656D02*
X121492024Y-55987275D01*
X121492024Y-55987275D02*
X121530119Y-55911084D01*
X121530119Y-55911084D02*
X121568214Y-55872989D01*
X121568214Y-55872989D02*
X121644405Y-55834894D01*
X123384405Y-45594895D02*
X123117738Y-45213942D01*
X122927262Y-45594895D02*
X122927262Y-44794895D01*
X122927262Y-44794895D02*
X123232024Y-44794895D01*
X123232024Y-44794895D02*
X123308214Y-44832990D01*
X123308214Y-44832990D02*
X123346309Y-44871085D01*
X123346309Y-44871085D02*
X123384405Y-44947276D01*
X123384405Y-44947276D02*
X123384405Y-45061561D01*
X123384405Y-45061561D02*
X123346309Y-45137752D01*
X123346309Y-45137752D02*
X123308214Y-45175847D01*
X123308214Y-45175847D02*
X123232024Y-45213942D01*
X123232024Y-45213942D02*
X122927262Y-45213942D01*
X123689166Y-45556800D02*
X123803452Y-45594895D01*
X123803452Y-45594895D02*
X123993928Y-45594895D01*
X123993928Y-45594895D02*
X124070119Y-45556800D01*
X124070119Y-45556800D02*
X124108214Y-45518704D01*
X124108214Y-45518704D02*
X124146309Y-45442514D01*
X124146309Y-45442514D02*
X124146309Y-45366323D01*
X124146309Y-45366323D02*
X124108214Y-45290133D01*
X124108214Y-45290133D02*
X124070119Y-45252038D01*
X124070119Y-45252038D02*
X123993928Y-45213942D01*
X123993928Y-45213942D02*
X123841547Y-45175847D01*
X123841547Y-45175847D02*
X123765357Y-45137752D01*
X123765357Y-45137752D02*
X123727262Y-45099657D01*
X123727262Y-45099657D02*
X123689166Y-45023466D01*
X123689166Y-45023466D02*
X123689166Y-44947276D01*
X123689166Y-44947276D02*
X123727262Y-44871085D01*
X123727262Y-44871085D02*
X123765357Y-44832990D01*
X123765357Y-44832990D02*
X123841547Y-44794895D01*
X123841547Y-44794895D02*
X124032024Y-44794895D01*
X124032024Y-44794895D02*
X124146309Y-44832990D01*
X124374881Y-44794895D02*
X124832024Y-44794895D01*
X124603452Y-45594895D02*
X124603452Y-44794895D01*
X124032023Y-55872989D02*
X123955833Y-55834894D01*
X123955833Y-55834894D02*
X123841547Y-55834894D01*
X123841547Y-55834894D02*
X123727261Y-55872989D01*
X123727261Y-55872989D02*
X123651071Y-55949179D01*
X123651071Y-55949179D02*
X123612976Y-56025370D01*
X123612976Y-56025370D02*
X123574880Y-56177751D01*
X123574880Y-56177751D02*
X123574880Y-56292037D01*
X123574880Y-56292037D02*
X123612976Y-56444418D01*
X123612976Y-56444418D02*
X123651071Y-56520608D01*
X123651071Y-56520608D02*
X123727261Y-56596799D01*
X123727261Y-56596799D02*
X123841547Y-56634894D01*
X123841547Y-56634894D02*
X123917738Y-56634894D01*
X123917738Y-56634894D02*
X124032023Y-56596799D01*
X124032023Y-56596799D02*
X124070119Y-56558703D01*
X124070119Y-56558703D02*
X124070119Y-56292037D01*
X124070119Y-56292037D02*
X123917738Y-56292037D01*
X125295833Y-44794895D02*
X125562500Y-45594895D01*
X125562500Y-45594895D02*
X125829166Y-44794895D01*
X126552976Y-45518704D02*
X126514880Y-45556800D01*
X126514880Y-45556800D02*
X126400595Y-45594895D01*
X126400595Y-45594895D02*
X126324404Y-45594895D01*
X126324404Y-45594895D02*
X126210118Y-45556800D01*
X126210118Y-45556800D02*
X126133928Y-45480609D01*
X126133928Y-45480609D02*
X126095833Y-45404419D01*
X126095833Y-45404419D02*
X126057737Y-45252038D01*
X126057737Y-45252038D02*
X126057737Y-45137752D01*
X126057737Y-45137752D02*
X126095833Y-44985371D01*
X126095833Y-44985371D02*
X126133928Y-44909180D01*
X126133928Y-44909180D02*
X126210118Y-44832990D01*
X126210118Y-44832990D02*
X126324404Y-44794895D01*
X126324404Y-44794895D02*
X126400595Y-44794895D01*
X126400595Y-44794895D02*
X126514880Y-44832990D01*
X126514880Y-44832990D02*
X126552976Y-44871085D01*
X127352976Y-45518704D02*
X127314880Y-45556800D01*
X127314880Y-45556800D02*
X127200595Y-45594895D01*
X127200595Y-45594895D02*
X127124404Y-45594895D01*
X127124404Y-45594895D02*
X127010118Y-45556800D01*
X127010118Y-45556800D02*
X126933928Y-45480609D01*
X126933928Y-45480609D02*
X126895833Y-45404419D01*
X126895833Y-45404419D02*
X126857737Y-45252038D01*
X126857737Y-45252038D02*
X126857737Y-45137752D01*
X126857737Y-45137752D02*
X126895833Y-44985371D01*
X126895833Y-44985371D02*
X126933928Y-44909180D01*
X126933928Y-44909180D02*
X127010118Y-44832990D01*
X127010118Y-44832990D02*
X127124404Y-44794895D01*
X127124404Y-44794895D02*
X127200595Y-44794895D01*
X127200595Y-44794895D02*
X127314880Y-44832990D01*
X127314880Y-44832990D02*
X127352976Y-44871085D01*
X126572023Y-55872989D02*
X126495833Y-55834894D01*
X126495833Y-55834894D02*
X126381547Y-55834894D01*
X126381547Y-55834894D02*
X126267261Y-55872989D01*
X126267261Y-55872989D02*
X126191071Y-55949179D01*
X126191071Y-55949179D02*
X126152976Y-56025370D01*
X126152976Y-56025370D02*
X126114880Y-56177751D01*
X126114880Y-56177751D02*
X126114880Y-56292037D01*
X126114880Y-56292037D02*
X126152976Y-56444418D01*
X126152976Y-56444418D02*
X126191071Y-56520608D01*
X126191071Y-56520608D02*
X126267261Y-56596799D01*
X126267261Y-56596799D02*
X126381547Y-56634894D01*
X126381547Y-56634894D02*
X126457738Y-56634894D01*
X126457738Y-56634894D02*
X126572023Y-56596799D01*
X126572023Y-56596799D02*
X126610119Y-56558703D01*
X126610119Y-56558703D02*
X126610119Y-56292037D01*
X126610119Y-56292037D02*
X126457738Y-56292037D01*
X127931071Y-45594895D02*
X127931071Y-44794895D01*
X127931071Y-44794895D02*
X128121547Y-44794895D01*
X128121547Y-44794895D02*
X128235833Y-44832990D01*
X128235833Y-44832990D02*
X128312023Y-44909180D01*
X128312023Y-44909180D02*
X128350118Y-44985371D01*
X128350118Y-44985371D02*
X128388214Y-45137752D01*
X128388214Y-45137752D02*
X128388214Y-45252038D01*
X128388214Y-45252038D02*
X128350118Y-45404419D01*
X128350118Y-45404419D02*
X128312023Y-45480609D01*
X128312023Y-45480609D02*
X128235833Y-45556800D01*
X128235833Y-45556800D02*
X128121547Y-45594895D01*
X128121547Y-45594895D02*
X127931071Y-45594895D01*
X128692975Y-44871085D02*
X128731071Y-44832990D01*
X128731071Y-44832990D02*
X128807261Y-44794895D01*
X128807261Y-44794895D02*
X128997737Y-44794895D01*
X128997737Y-44794895D02*
X129073928Y-44832990D01*
X129073928Y-44832990D02*
X129112023Y-44871085D01*
X129112023Y-44871085D02*
X129150118Y-44947276D01*
X129150118Y-44947276D02*
X129150118Y-45023466D01*
X129150118Y-45023466D02*
X129112023Y-45137752D01*
X129112023Y-45137752D02*
X128654880Y-45594895D01*
X128654880Y-45594895D02*
X129150118Y-45594895D01*
X129912023Y-45594895D02*
X129454880Y-45594895D01*
X129683452Y-45594895D02*
X129683452Y-44794895D01*
X129683452Y-44794895D02*
X129607261Y-44909180D01*
X129607261Y-44909180D02*
X129531071Y-44985371D01*
X129531071Y-44985371D02*
X129454880Y-45023466D01*
X128312024Y-56634894D02*
X128312024Y-55834894D01*
X128312024Y-55834894D02*
X128502500Y-55834894D01*
X128502500Y-55834894D02*
X128616786Y-55872989D01*
X128616786Y-55872989D02*
X128692976Y-55949179D01*
X128692976Y-55949179D02*
X128731071Y-56025370D01*
X128731071Y-56025370D02*
X128769167Y-56177751D01*
X128769167Y-56177751D02*
X128769167Y-56292037D01*
X128769167Y-56292037D02*
X128731071Y-56444418D01*
X128731071Y-56444418D02*
X128692976Y-56520608D01*
X128692976Y-56520608D02*
X128616786Y-56596799D01*
X128616786Y-56596799D02*
X128502500Y-56634894D01*
X128502500Y-56634894D02*
X128312024Y-56634894D01*
X129073928Y-55911084D02*
X129112024Y-55872989D01*
X129112024Y-55872989D02*
X129188214Y-55834894D01*
X129188214Y-55834894D02*
X129378690Y-55834894D01*
X129378690Y-55834894D02*
X129454881Y-55872989D01*
X129454881Y-55872989D02*
X129492976Y-55911084D01*
X129492976Y-55911084D02*
X129531071Y-55987275D01*
X129531071Y-55987275D02*
X129531071Y-56063465D01*
X129531071Y-56063465D02*
X129492976Y-56177751D01*
X129492976Y-56177751D02*
X129035833Y-56634894D01*
X129035833Y-56634894D02*
X129531071Y-56634894D01*
X130471071Y-45594895D02*
X130471071Y-44794895D01*
X130471071Y-44794895D02*
X130661547Y-44794895D01*
X130661547Y-44794895D02*
X130775833Y-44832990D01*
X130775833Y-44832990D02*
X130852023Y-44909180D01*
X130852023Y-44909180D02*
X130890118Y-44985371D01*
X130890118Y-44985371D02*
X130928214Y-45137752D01*
X130928214Y-45137752D02*
X130928214Y-45252038D01*
X130928214Y-45252038D02*
X130890118Y-45404419D01*
X130890118Y-45404419D02*
X130852023Y-45480609D01*
X130852023Y-45480609D02*
X130775833Y-45556800D01*
X130775833Y-45556800D02*
X130661547Y-45594895D01*
X130661547Y-45594895D02*
X130471071Y-45594895D01*
X131232975Y-44871085D02*
X131271071Y-44832990D01*
X131271071Y-44832990D02*
X131347261Y-44794895D01*
X131347261Y-44794895D02*
X131537737Y-44794895D01*
X131537737Y-44794895D02*
X131613928Y-44832990D01*
X131613928Y-44832990D02*
X131652023Y-44871085D01*
X131652023Y-44871085D02*
X131690118Y-44947276D01*
X131690118Y-44947276D02*
X131690118Y-45023466D01*
X131690118Y-45023466D02*
X131652023Y-45137752D01*
X131652023Y-45137752D02*
X131194880Y-45594895D01*
X131194880Y-45594895D02*
X131690118Y-45594895D01*
X132185357Y-44794895D02*
X132261547Y-44794895D01*
X132261547Y-44794895D02*
X132337738Y-44832990D01*
X132337738Y-44832990D02*
X132375833Y-44871085D01*
X132375833Y-44871085D02*
X132413928Y-44947276D01*
X132413928Y-44947276D02*
X132452023Y-45099657D01*
X132452023Y-45099657D02*
X132452023Y-45290133D01*
X132452023Y-45290133D02*
X132413928Y-45442514D01*
X132413928Y-45442514D02*
X132375833Y-45518704D01*
X132375833Y-45518704D02*
X132337738Y-45556800D01*
X132337738Y-45556800D02*
X132261547Y-45594895D01*
X132261547Y-45594895D02*
X132185357Y-45594895D01*
X132185357Y-45594895D02*
X132109166Y-45556800D01*
X132109166Y-45556800D02*
X132071071Y-45518704D01*
X132071071Y-45518704D02*
X132032976Y-45442514D01*
X132032976Y-45442514D02*
X131994880Y-45290133D01*
X131994880Y-45290133D02*
X131994880Y-45099657D01*
X131994880Y-45099657D02*
X132032976Y-44947276D01*
X132032976Y-44947276D02*
X132071071Y-44871085D01*
X132071071Y-44871085D02*
X132109166Y-44832990D01*
X132109166Y-44832990D02*
X132185357Y-44794895D01*
X130852024Y-56634894D02*
X130852024Y-55834894D01*
X130852024Y-55834894D02*
X131042500Y-55834894D01*
X131042500Y-55834894D02*
X131156786Y-55872989D01*
X131156786Y-55872989D02*
X131232976Y-55949179D01*
X131232976Y-55949179D02*
X131271071Y-56025370D01*
X131271071Y-56025370D02*
X131309167Y-56177751D01*
X131309167Y-56177751D02*
X131309167Y-56292037D01*
X131309167Y-56292037D02*
X131271071Y-56444418D01*
X131271071Y-56444418D02*
X131232976Y-56520608D01*
X131232976Y-56520608D02*
X131156786Y-56596799D01*
X131156786Y-56596799D02*
X131042500Y-56634894D01*
X131042500Y-56634894D02*
X130852024Y-56634894D01*
X131575833Y-55834894D02*
X132071071Y-55834894D01*
X132071071Y-55834894D02*
X131804405Y-56139656D01*
X131804405Y-56139656D02*
X131918690Y-56139656D01*
X131918690Y-56139656D02*
X131994881Y-56177751D01*
X131994881Y-56177751D02*
X132032976Y-56215846D01*
X132032976Y-56215846D02*
X132071071Y-56292037D01*
X132071071Y-56292037D02*
X132071071Y-56482513D01*
X132071071Y-56482513D02*
X132032976Y-56558703D01*
X132032976Y-56558703D02*
X131994881Y-56596799D01*
X131994881Y-56596799D02*
X131918690Y-56634894D01*
X131918690Y-56634894D02*
X131690119Y-56634894D01*
X131690119Y-56634894D02*
X131613928Y-56596799D01*
X131613928Y-56596799D02*
X131575833Y-56558703D01*
X133011071Y-45594895D02*
X133011071Y-44794895D01*
X133011071Y-44794895D02*
X133201547Y-44794895D01*
X133201547Y-44794895D02*
X133315833Y-44832990D01*
X133315833Y-44832990D02*
X133392023Y-44909180D01*
X133392023Y-44909180D02*
X133430118Y-44985371D01*
X133430118Y-44985371D02*
X133468214Y-45137752D01*
X133468214Y-45137752D02*
X133468214Y-45252038D01*
X133468214Y-45252038D02*
X133430118Y-45404419D01*
X133430118Y-45404419D02*
X133392023Y-45480609D01*
X133392023Y-45480609D02*
X133315833Y-45556800D01*
X133315833Y-45556800D02*
X133201547Y-45594895D01*
X133201547Y-45594895D02*
X133011071Y-45594895D01*
X134230118Y-45594895D02*
X133772975Y-45594895D01*
X134001547Y-45594895D02*
X134001547Y-44794895D01*
X134001547Y-44794895D02*
X133925356Y-44909180D01*
X133925356Y-44909180D02*
X133849166Y-44985371D01*
X133849166Y-44985371D02*
X133772975Y-45023466D01*
X134611071Y-45594895D02*
X134763452Y-45594895D01*
X134763452Y-45594895D02*
X134839642Y-45556800D01*
X134839642Y-45556800D02*
X134877738Y-45518704D01*
X134877738Y-45518704D02*
X134953928Y-45404419D01*
X134953928Y-45404419D02*
X134992023Y-45252038D01*
X134992023Y-45252038D02*
X134992023Y-44947276D01*
X134992023Y-44947276D02*
X134953928Y-44871085D01*
X134953928Y-44871085D02*
X134915833Y-44832990D01*
X134915833Y-44832990D02*
X134839642Y-44794895D01*
X134839642Y-44794895D02*
X134687261Y-44794895D01*
X134687261Y-44794895D02*
X134611071Y-44832990D01*
X134611071Y-44832990D02*
X134572976Y-44871085D01*
X134572976Y-44871085D02*
X134534880Y-44947276D01*
X134534880Y-44947276D02*
X134534880Y-45137752D01*
X134534880Y-45137752D02*
X134572976Y-45213942D01*
X134572976Y-45213942D02*
X134611071Y-45252038D01*
X134611071Y-45252038D02*
X134687261Y-45290133D01*
X134687261Y-45290133D02*
X134839642Y-45290133D01*
X134839642Y-45290133D02*
X134915833Y-45252038D01*
X134915833Y-45252038D02*
X134953928Y-45213942D01*
X134953928Y-45213942D02*
X134992023Y-45137752D01*
X133392024Y-56634894D02*
X133392024Y-55834894D01*
X133392024Y-55834894D02*
X133582500Y-55834894D01*
X133582500Y-55834894D02*
X133696786Y-55872989D01*
X133696786Y-55872989D02*
X133772976Y-55949179D01*
X133772976Y-55949179D02*
X133811071Y-56025370D01*
X133811071Y-56025370D02*
X133849167Y-56177751D01*
X133849167Y-56177751D02*
X133849167Y-56292037D01*
X133849167Y-56292037D02*
X133811071Y-56444418D01*
X133811071Y-56444418D02*
X133772976Y-56520608D01*
X133772976Y-56520608D02*
X133696786Y-56596799D01*
X133696786Y-56596799D02*
X133582500Y-56634894D01*
X133582500Y-56634894D02*
X133392024Y-56634894D01*
X134534881Y-56101560D02*
X134534881Y-56634894D01*
X134344405Y-55796799D02*
X134153928Y-56368227D01*
X134153928Y-56368227D02*
X134649167Y-56368227D01*
X135551071Y-45594895D02*
X135551071Y-44794895D01*
X135551071Y-44794895D02*
X135741547Y-44794895D01*
X135741547Y-44794895D02*
X135855833Y-44832990D01*
X135855833Y-44832990D02*
X135932023Y-44909180D01*
X135932023Y-44909180D02*
X135970118Y-44985371D01*
X135970118Y-44985371D02*
X136008214Y-45137752D01*
X136008214Y-45137752D02*
X136008214Y-45252038D01*
X136008214Y-45252038D02*
X135970118Y-45404419D01*
X135970118Y-45404419D02*
X135932023Y-45480609D01*
X135932023Y-45480609D02*
X135855833Y-45556800D01*
X135855833Y-45556800D02*
X135741547Y-45594895D01*
X135741547Y-45594895D02*
X135551071Y-45594895D01*
X136770118Y-45594895D02*
X136312975Y-45594895D01*
X136541547Y-45594895D02*
X136541547Y-44794895D01*
X136541547Y-44794895D02*
X136465356Y-44909180D01*
X136465356Y-44909180D02*
X136389166Y-44985371D01*
X136389166Y-44985371D02*
X136312975Y-45023466D01*
X137227261Y-45137752D02*
X137151071Y-45099657D01*
X137151071Y-45099657D02*
X137112976Y-45061561D01*
X137112976Y-45061561D02*
X137074880Y-44985371D01*
X137074880Y-44985371D02*
X137074880Y-44947276D01*
X137074880Y-44947276D02*
X137112976Y-44871085D01*
X137112976Y-44871085D02*
X137151071Y-44832990D01*
X137151071Y-44832990D02*
X137227261Y-44794895D01*
X137227261Y-44794895D02*
X137379642Y-44794895D01*
X137379642Y-44794895D02*
X137455833Y-44832990D01*
X137455833Y-44832990D02*
X137493928Y-44871085D01*
X137493928Y-44871085D02*
X137532023Y-44947276D01*
X137532023Y-44947276D02*
X137532023Y-44985371D01*
X137532023Y-44985371D02*
X137493928Y-45061561D01*
X137493928Y-45061561D02*
X137455833Y-45099657D01*
X137455833Y-45099657D02*
X137379642Y-45137752D01*
X137379642Y-45137752D02*
X137227261Y-45137752D01*
X137227261Y-45137752D02*
X137151071Y-45175847D01*
X137151071Y-45175847D02*
X137112976Y-45213942D01*
X137112976Y-45213942D02*
X137074880Y-45290133D01*
X137074880Y-45290133D02*
X137074880Y-45442514D01*
X137074880Y-45442514D02*
X137112976Y-45518704D01*
X137112976Y-45518704D02*
X137151071Y-45556800D01*
X137151071Y-45556800D02*
X137227261Y-45594895D01*
X137227261Y-45594895D02*
X137379642Y-45594895D01*
X137379642Y-45594895D02*
X137455833Y-45556800D01*
X137455833Y-45556800D02*
X137493928Y-45518704D01*
X137493928Y-45518704D02*
X137532023Y-45442514D01*
X137532023Y-45442514D02*
X137532023Y-45290133D01*
X137532023Y-45290133D02*
X137493928Y-45213942D01*
X137493928Y-45213942D02*
X137455833Y-45175847D01*
X137455833Y-45175847D02*
X137379642Y-45137752D01*
X135932024Y-56634894D02*
X135932024Y-55834894D01*
X135932024Y-55834894D02*
X136122500Y-55834894D01*
X136122500Y-55834894D02*
X136236786Y-55872989D01*
X136236786Y-55872989D02*
X136312976Y-55949179D01*
X136312976Y-55949179D02*
X136351071Y-56025370D01*
X136351071Y-56025370D02*
X136389167Y-56177751D01*
X136389167Y-56177751D02*
X136389167Y-56292037D01*
X136389167Y-56292037D02*
X136351071Y-56444418D01*
X136351071Y-56444418D02*
X136312976Y-56520608D01*
X136312976Y-56520608D02*
X136236786Y-56596799D01*
X136236786Y-56596799D02*
X136122500Y-56634894D01*
X136122500Y-56634894D02*
X135932024Y-56634894D01*
X137112976Y-55834894D02*
X136732024Y-55834894D01*
X136732024Y-55834894D02*
X136693928Y-56215846D01*
X136693928Y-56215846D02*
X136732024Y-56177751D01*
X136732024Y-56177751D02*
X136808214Y-56139656D01*
X136808214Y-56139656D02*
X136998690Y-56139656D01*
X136998690Y-56139656D02*
X137074881Y-56177751D01*
X137074881Y-56177751D02*
X137112976Y-56215846D01*
X137112976Y-56215846D02*
X137151071Y-56292037D01*
X137151071Y-56292037D02*
X137151071Y-56482513D01*
X137151071Y-56482513D02*
X137112976Y-56558703D01*
X137112976Y-56558703D02*
X137074881Y-56596799D01*
X137074881Y-56596799D02*
X136998690Y-56634894D01*
X136998690Y-56634894D02*
X136808214Y-56634894D01*
X136808214Y-56634894D02*
X136732024Y-56596799D01*
X136732024Y-56596799D02*
X136693928Y-56558703D01*
X138091071Y-45594895D02*
X138091071Y-44794895D01*
X138091071Y-44794895D02*
X138281547Y-44794895D01*
X138281547Y-44794895D02*
X138395833Y-44832990D01*
X138395833Y-44832990D02*
X138472023Y-44909180D01*
X138472023Y-44909180D02*
X138510118Y-44985371D01*
X138510118Y-44985371D02*
X138548214Y-45137752D01*
X138548214Y-45137752D02*
X138548214Y-45252038D01*
X138548214Y-45252038D02*
X138510118Y-45404419D01*
X138510118Y-45404419D02*
X138472023Y-45480609D01*
X138472023Y-45480609D02*
X138395833Y-45556800D01*
X138395833Y-45556800D02*
X138281547Y-45594895D01*
X138281547Y-45594895D02*
X138091071Y-45594895D01*
X139310118Y-45594895D02*
X138852975Y-45594895D01*
X139081547Y-45594895D02*
X139081547Y-44794895D01*
X139081547Y-44794895D02*
X139005356Y-44909180D01*
X139005356Y-44909180D02*
X138929166Y-44985371D01*
X138929166Y-44985371D02*
X138852975Y-45023466D01*
X140033928Y-44794895D02*
X139652976Y-44794895D01*
X139652976Y-44794895D02*
X139614880Y-45175847D01*
X139614880Y-45175847D02*
X139652976Y-45137752D01*
X139652976Y-45137752D02*
X139729166Y-45099657D01*
X139729166Y-45099657D02*
X139919642Y-45099657D01*
X139919642Y-45099657D02*
X139995833Y-45137752D01*
X139995833Y-45137752D02*
X140033928Y-45175847D01*
X140033928Y-45175847D02*
X140072023Y-45252038D01*
X140072023Y-45252038D02*
X140072023Y-45442514D01*
X140072023Y-45442514D02*
X140033928Y-45518704D01*
X140033928Y-45518704D02*
X139995833Y-45556800D01*
X139995833Y-45556800D02*
X139919642Y-45594895D01*
X139919642Y-45594895D02*
X139729166Y-45594895D01*
X139729166Y-45594895D02*
X139652976Y-45556800D01*
X139652976Y-45556800D02*
X139614880Y-45518704D01*
X138472024Y-56634894D02*
X138472024Y-55834894D01*
X138472024Y-55834894D02*
X138662500Y-55834894D01*
X138662500Y-55834894D02*
X138776786Y-55872989D01*
X138776786Y-55872989D02*
X138852976Y-55949179D01*
X138852976Y-55949179D02*
X138891071Y-56025370D01*
X138891071Y-56025370D02*
X138929167Y-56177751D01*
X138929167Y-56177751D02*
X138929167Y-56292037D01*
X138929167Y-56292037D02*
X138891071Y-56444418D01*
X138891071Y-56444418D02*
X138852976Y-56520608D01*
X138852976Y-56520608D02*
X138776786Y-56596799D01*
X138776786Y-56596799D02*
X138662500Y-56634894D01*
X138662500Y-56634894D02*
X138472024Y-56634894D01*
X139614881Y-55834894D02*
X139462500Y-55834894D01*
X139462500Y-55834894D02*
X139386309Y-55872989D01*
X139386309Y-55872989D02*
X139348214Y-55911084D01*
X139348214Y-55911084D02*
X139272024Y-56025370D01*
X139272024Y-56025370D02*
X139233928Y-56177751D01*
X139233928Y-56177751D02*
X139233928Y-56482513D01*
X139233928Y-56482513D02*
X139272024Y-56558703D01*
X139272024Y-56558703D02*
X139310119Y-56596799D01*
X139310119Y-56596799D02*
X139386309Y-56634894D01*
X139386309Y-56634894D02*
X139538690Y-56634894D01*
X139538690Y-56634894D02*
X139614881Y-56596799D01*
X139614881Y-56596799D02*
X139652976Y-56558703D01*
X139652976Y-56558703D02*
X139691071Y-56482513D01*
X139691071Y-56482513D02*
X139691071Y-56292037D01*
X139691071Y-56292037D02*
X139652976Y-56215846D01*
X139652976Y-56215846D02*
X139614881Y-56177751D01*
X139614881Y-56177751D02*
X139538690Y-56139656D01*
X139538690Y-56139656D02*
X139386309Y-56139656D01*
X139386309Y-56139656D02*
X139310119Y-56177751D01*
X139310119Y-56177751D02*
X139272024Y-56215846D01*
X139272024Y-56215846D02*
X139233928Y-56292037D01*
X140631071Y-45594895D02*
X140631071Y-44794895D01*
X140631071Y-44794895D02*
X140821547Y-44794895D01*
X140821547Y-44794895D02*
X140935833Y-44832990D01*
X140935833Y-44832990D02*
X141012023Y-44909180D01*
X141012023Y-44909180D02*
X141050118Y-44985371D01*
X141050118Y-44985371D02*
X141088214Y-45137752D01*
X141088214Y-45137752D02*
X141088214Y-45252038D01*
X141088214Y-45252038D02*
X141050118Y-45404419D01*
X141050118Y-45404419D02*
X141012023Y-45480609D01*
X141012023Y-45480609D02*
X140935833Y-45556800D01*
X140935833Y-45556800D02*
X140821547Y-45594895D01*
X140821547Y-45594895D02*
X140631071Y-45594895D01*
X141850118Y-45594895D02*
X141392975Y-45594895D01*
X141621547Y-45594895D02*
X141621547Y-44794895D01*
X141621547Y-44794895D02*
X141545356Y-44909180D01*
X141545356Y-44909180D02*
X141469166Y-44985371D01*
X141469166Y-44985371D02*
X141392975Y-45023466D01*
X142535833Y-45061561D02*
X142535833Y-45594895D01*
X142345357Y-44756800D02*
X142154880Y-45328228D01*
X142154880Y-45328228D02*
X142650119Y-45328228D01*
X141012024Y-56634894D02*
X141012024Y-55834894D01*
X141012024Y-55834894D02*
X141202500Y-55834894D01*
X141202500Y-55834894D02*
X141316786Y-55872989D01*
X141316786Y-55872989D02*
X141392976Y-55949179D01*
X141392976Y-55949179D02*
X141431071Y-56025370D01*
X141431071Y-56025370D02*
X141469167Y-56177751D01*
X141469167Y-56177751D02*
X141469167Y-56292037D01*
X141469167Y-56292037D02*
X141431071Y-56444418D01*
X141431071Y-56444418D02*
X141392976Y-56520608D01*
X141392976Y-56520608D02*
X141316786Y-56596799D01*
X141316786Y-56596799D02*
X141202500Y-56634894D01*
X141202500Y-56634894D02*
X141012024Y-56634894D01*
X141735833Y-55834894D02*
X142269167Y-55834894D01*
X142269167Y-55834894D02*
X141926309Y-56634894D01*
X143171071Y-45594895D02*
X143171071Y-44794895D01*
X143171071Y-44794895D02*
X143361547Y-44794895D01*
X143361547Y-44794895D02*
X143475833Y-44832990D01*
X143475833Y-44832990D02*
X143552023Y-44909180D01*
X143552023Y-44909180D02*
X143590118Y-44985371D01*
X143590118Y-44985371D02*
X143628214Y-45137752D01*
X143628214Y-45137752D02*
X143628214Y-45252038D01*
X143628214Y-45252038D02*
X143590118Y-45404419D01*
X143590118Y-45404419D02*
X143552023Y-45480609D01*
X143552023Y-45480609D02*
X143475833Y-45556800D01*
X143475833Y-45556800D02*
X143361547Y-45594895D01*
X143361547Y-45594895D02*
X143171071Y-45594895D01*
X144390118Y-45594895D02*
X143932975Y-45594895D01*
X144161547Y-45594895D02*
X144161547Y-44794895D01*
X144161547Y-44794895D02*
X144085356Y-44909180D01*
X144085356Y-44909180D02*
X144009166Y-44985371D01*
X144009166Y-44985371D02*
X143932975Y-45023466D01*
X145075833Y-44794895D02*
X144923452Y-44794895D01*
X144923452Y-44794895D02*
X144847261Y-44832990D01*
X144847261Y-44832990D02*
X144809166Y-44871085D01*
X144809166Y-44871085D02*
X144732976Y-44985371D01*
X144732976Y-44985371D02*
X144694880Y-45137752D01*
X144694880Y-45137752D02*
X144694880Y-45442514D01*
X144694880Y-45442514D02*
X144732976Y-45518704D01*
X144732976Y-45518704D02*
X144771071Y-45556800D01*
X144771071Y-45556800D02*
X144847261Y-45594895D01*
X144847261Y-45594895D02*
X144999642Y-45594895D01*
X144999642Y-45594895D02*
X145075833Y-45556800D01*
X145075833Y-45556800D02*
X145113928Y-45518704D01*
X145113928Y-45518704D02*
X145152023Y-45442514D01*
X145152023Y-45442514D02*
X145152023Y-45252038D01*
X145152023Y-45252038D02*
X145113928Y-45175847D01*
X145113928Y-45175847D02*
X145075833Y-45137752D01*
X145075833Y-45137752D02*
X144999642Y-45099657D01*
X144999642Y-45099657D02*
X144847261Y-45099657D01*
X144847261Y-45099657D02*
X144771071Y-45137752D01*
X144771071Y-45137752D02*
X144732976Y-45175847D01*
X144732976Y-45175847D02*
X144694880Y-45252038D01*
X143552024Y-56634894D02*
X143552024Y-55834894D01*
X143552024Y-55834894D02*
X143742500Y-55834894D01*
X143742500Y-55834894D02*
X143856786Y-55872989D01*
X143856786Y-55872989D02*
X143932976Y-55949179D01*
X143932976Y-55949179D02*
X143971071Y-56025370D01*
X143971071Y-56025370D02*
X144009167Y-56177751D01*
X144009167Y-56177751D02*
X144009167Y-56292037D01*
X144009167Y-56292037D02*
X143971071Y-56444418D01*
X143971071Y-56444418D02*
X143932976Y-56520608D01*
X143932976Y-56520608D02*
X143856786Y-56596799D01*
X143856786Y-56596799D02*
X143742500Y-56634894D01*
X143742500Y-56634894D02*
X143552024Y-56634894D01*
X144466309Y-56177751D02*
X144390119Y-56139656D01*
X144390119Y-56139656D02*
X144352024Y-56101560D01*
X144352024Y-56101560D02*
X144313928Y-56025370D01*
X144313928Y-56025370D02*
X144313928Y-55987275D01*
X144313928Y-55987275D02*
X144352024Y-55911084D01*
X144352024Y-55911084D02*
X144390119Y-55872989D01*
X144390119Y-55872989D02*
X144466309Y-55834894D01*
X144466309Y-55834894D02*
X144618690Y-55834894D01*
X144618690Y-55834894D02*
X144694881Y-55872989D01*
X144694881Y-55872989D02*
X144732976Y-55911084D01*
X144732976Y-55911084D02*
X144771071Y-55987275D01*
X144771071Y-55987275D02*
X144771071Y-56025370D01*
X144771071Y-56025370D02*
X144732976Y-56101560D01*
X144732976Y-56101560D02*
X144694881Y-56139656D01*
X144694881Y-56139656D02*
X144618690Y-56177751D01*
X144618690Y-56177751D02*
X144466309Y-56177751D01*
X144466309Y-56177751D02*
X144390119Y-56215846D01*
X144390119Y-56215846D02*
X144352024Y-56253941D01*
X144352024Y-56253941D02*
X144313928Y-56330132D01*
X144313928Y-56330132D02*
X144313928Y-56482513D01*
X144313928Y-56482513D02*
X144352024Y-56558703D01*
X144352024Y-56558703D02*
X144390119Y-56596799D01*
X144390119Y-56596799D02*
X144466309Y-56634894D01*
X144466309Y-56634894D02*
X144618690Y-56634894D01*
X144618690Y-56634894D02*
X144694881Y-56596799D01*
X144694881Y-56596799D02*
X144732976Y-56558703D01*
X144732976Y-56558703D02*
X144771071Y-56482513D01*
X144771071Y-56482513D02*
X144771071Y-56330132D01*
X144771071Y-56330132D02*
X144732976Y-56253941D01*
X144732976Y-56253941D02*
X144694881Y-56215846D01*
X144694881Y-56215846D02*
X144618690Y-56177751D01*
X145711071Y-45594895D02*
X145711071Y-44794895D01*
X145711071Y-44794895D02*
X145901547Y-44794895D01*
X145901547Y-44794895D02*
X146015833Y-44832990D01*
X146015833Y-44832990D02*
X146092023Y-44909180D01*
X146092023Y-44909180D02*
X146130118Y-44985371D01*
X146130118Y-44985371D02*
X146168214Y-45137752D01*
X146168214Y-45137752D02*
X146168214Y-45252038D01*
X146168214Y-45252038D02*
X146130118Y-45404419D01*
X146130118Y-45404419D02*
X146092023Y-45480609D01*
X146092023Y-45480609D02*
X146015833Y-45556800D01*
X146015833Y-45556800D02*
X145901547Y-45594895D01*
X145901547Y-45594895D02*
X145711071Y-45594895D01*
X146930118Y-45594895D02*
X146472975Y-45594895D01*
X146701547Y-45594895D02*
X146701547Y-44794895D01*
X146701547Y-44794895D02*
X146625356Y-44909180D01*
X146625356Y-44909180D02*
X146549166Y-44985371D01*
X146549166Y-44985371D02*
X146472975Y-45023466D01*
X147425357Y-44794895D02*
X147501547Y-44794895D01*
X147501547Y-44794895D02*
X147577738Y-44832990D01*
X147577738Y-44832990D02*
X147615833Y-44871085D01*
X147615833Y-44871085D02*
X147653928Y-44947276D01*
X147653928Y-44947276D02*
X147692023Y-45099657D01*
X147692023Y-45099657D02*
X147692023Y-45290133D01*
X147692023Y-45290133D02*
X147653928Y-45442514D01*
X147653928Y-45442514D02*
X147615833Y-45518704D01*
X147615833Y-45518704D02*
X147577738Y-45556800D01*
X147577738Y-45556800D02*
X147501547Y-45594895D01*
X147501547Y-45594895D02*
X147425357Y-45594895D01*
X147425357Y-45594895D02*
X147349166Y-45556800D01*
X147349166Y-45556800D02*
X147311071Y-45518704D01*
X147311071Y-45518704D02*
X147272976Y-45442514D01*
X147272976Y-45442514D02*
X147234880Y-45290133D01*
X147234880Y-45290133D02*
X147234880Y-45099657D01*
X147234880Y-45099657D02*
X147272976Y-44947276D01*
X147272976Y-44947276D02*
X147311071Y-44871085D01*
X147311071Y-44871085D02*
X147349166Y-44832990D01*
X147349166Y-44832990D02*
X147425357Y-44794895D01*
X146092024Y-56634894D02*
X146092024Y-55834894D01*
X146092024Y-55834894D02*
X146282500Y-55834894D01*
X146282500Y-55834894D02*
X146396786Y-55872989D01*
X146396786Y-55872989D02*
X146472976Y-55949179D01*
X146472976Y-55949179D02*
X146511071Y-56025370D01*
X146511071Y-56025370D02*
X146549167Y-56177751D01*
X146549167Y-56177751D02*
X146549167Y-56292037D01*
X146549167Y-56292037D02*
X146511071Y-56444418D01*
X146511071Y-56444418D02*
X146472976Y-56520608D01*
X146472976Y-56520608D02*
X146396786Y-56596799D01*
X146396786Y-56596799D02*
X146282500Y-56634894D01*
X146282500Y-56634894D02*
X146092024Y-56634894D01*
X146930119Y-56634894D02*
X147082500Y-56634894D01*
X147082500Y-56634894D02*
X147158690Y-56596799D01*
X147158690Y-56596799D02*
X147196786Y-56558703D01*
X147196786Y-56558703D02*
X147272976Y-56444418D01*
X147272976Y-56444418D02*
X147311071Y-56292037D01*
X147311071Y-56292037D02*
X147311071Y-55987275D01*
X147311071Y-55987275D02*
X147272976Y-55911084D01*
X147272976Y-55911084D02*
X147234881Y-55872989D01*
X147234881Y-55872989D02*
X147158690Y-55834894D01*
X147158690Y-55834894D02*
X147006309Y-55834894D01*
X147006309Y-55834894D02*
X146930119Y-55872989D01*
X146930119Y-55872989D02*
X146892024Y-55911084D01*
X146892024Y-55911084D02*
X146853928Y-55987275D01*
X146853928Y-55987275D02*
X146853928Y-56177751D01*
X146853928Y-56177751D02*
X146892024Y-56253941D01*
X146892024Y-56253941D02*
X146930119Y-56292037D01*
X146930119Y-56292037D02*
X147006309Y-56330132D01*
X147006309Y-56330132D02*
X147158690Y-56330132D01*
X147158690Y-56330132D02*
X147234881Y-56292037D01*
X147234881Y-56292037D02*
X147272976Y-56253941D01*
X147272976Y-56253941D02*
X147311071Y-56177751D01*
D11*
X74183333Y-132862295D02*
X74183333Y-132062295D01*
X74183333Y-132062295D02*
X74449999Y-132633723D01*
X74449999Y-132633723D02*
X74716666Y-132062295D01*
X74716666Y-132062295D02*
X74716666Y-132862295D01*
X75097619Y-132862295D02*
X75097619Y-132062295D01*
X75097619Y-132443247D02*
X75554762Y-132443247D01*
X75554762Y-132862295D02*
X75554762Y-132062295D01*
X76049999Y-132405152D02*
X75973809Y-132367057D01*
X75973809Y-132367057D02*
X75935714Y-132328961D01*
X75935714Y-132328961D02*
X75897618Y-132252771D01*
X75897618Y-132252771D02*
X75897618Y-132214676D01*
X75897618Y-132214676D02*
X75935714Y-132138485D01*
X75935714Y-132138485D02*
X75973809Y-132100390D01*
X75973809Y-132100390D02*
X76049999Y-132062295D01*
X76049999Y-132062295D02*
X76202380Y-132062295D01*
X76202380Y-132062295D02*
X76278571Y-132100390D01*
X76278571Y-132100390D02*
X76316666Y-132138485D01*
X76316666Y-132138485D02*
X76354761Y-132214676D01*
X76354761Y-132214676D02*
X76354761Y-132252771D01*
X76354761Y-132252771D02*
X76316666Y-132328961D01*
X76316666Y-132328961D02*
X76278571Y-132367057D01*
X76278571Y-132367057D02*
X76202380Y-132405152D01*
X76202380Y-132405152D02*
X76049999Y-132405152D01*
X76049999Y-132405152D02*
X75973809Y-132443247D01*
X75973809Y-132443247D02*
X75935714Y-132481342D01*
X75935714Y-132481342D02*
X75897618Y-132557533D01*
X75897618Y-132557533D02*
X75897618Y-132709914D01*
X75897618Y-132709914D02*
X75935714Y-132786104D01*
X75935714Y-132786104D02*
X75973809Y-132824200D01*
X75973809Y-132824200D02*
X76049999Y-132862295D01*
X76049999Y-132862295D02*
X76202380Y-132862295D01*
X76202380Y-132862295D02*
X76278571Y-132824200D01*
X76278571Y-132824200D02*
X76316666Y-132786104D01*
X76316666Y-132786104D02*
X76354761Y-132709914D01*
X76354761Y-132709914D02*
X76354761Y-132557533D01*
X76354761Y-132557533D02*
X76316666Y-132481342D01*
X76316666Y-132481342D02*
X76278571Y-132443247D01*
X76278571Y-132443247D02*
X76202380Y-132405152D01*
X143045833Y-65112295D02*
X143045833Y-64312295D01*
X143045833Y-64312295D02*
X143312499Y-64883723D01*
X143312499Y-64883723D02*
X143579166Y-64312295D01*
X143579166Y-64312295D02*
X143579166Y-65112295D01*
X143960119Y-65112295D02*
X143960119Y-64312295D01*
X143960119Y-64693247D02*
X144417262Y-64693247D01*
X144417262Y-65112295D02*
X144417262Y-64312295D01*
X144760118Y-64388485D02*
X144798214Y-64350390D01*
X144798214Y-64350390D02*
X144874404Y-64312295D01*
X144874404Y-64312295D02*
X145064880Y-64312295D01*
X145064880Y-64312295D02*
X145141071Y-64350390D01*
X145141071Y-64350390D02*
X145179166Y-64388485D01*
X145179166Y-64388485D02*
X145217261Y-64464676D01*
X145217261Y-64464676D02*
X145217261Y-64540866D01*
X145217261Y-64540866D02*
X145179166Y-64655152D01*
X145179166Y-64655152D02*
X144722023Y-65112295D01*
X144722023Y-65112295D02*
X145217261Y-65112295D01*
X164795833Y-147612295D02*
X164795833Y-146812295D01*
X164795833Y-146812295D02*
X165062499Y-147383723D01*
X165062499Y-147383723D02*
X165329166Y-146812295D01*
X165329166Y-146812295D02*
X165329166Y-147612295D01*
X165710119Y-147612295D02*
X165710119Y-146812295D01*
X165710119Y-147193247D02*
X166167262Y-147193247D01*
X166167262Y-147612295D02*
X166167262Y-146812295D01*
X166472023Y-146812295D02*
X167005357Y-146812295D01*
X167005357Y-146812295D02*
X166662499Y-147612295D01*
X136295833Y-152362295D02*
X136295833Y-151562295D01*
X136295833Y-151562295D02*
X136562499Y-152133723D01*
X136562499Y-152133723D02*
X136829166Y-151562295D01*
X136829166Y-151562295D02*
X136829166Y-152362295D01*
X137210119Y-152362295D02*
X137210119Y-151562295D01*
X137210119Y-151943247D02*
X137667262Y-151943247D01*
X137667262Y-152362295D02*
X137667262Y-151562295D01*
X138391071Y-151562295D02*
X138238690Y-151562295D01*
X138238690Y-151562295D02*
X138162499Y-151600390D01*
X138162499Y-151600390D02*
X138124404Y-151638485D01*
X138124404Y-151638485D02*
X138048214Y-151752771D01*
X138048214Y-151752771D02*
X138010118Y-151905152D01*
X138010118Y-151905152D02*
X138010118Y-152209914D01*
X138010118Y-152209914D02*
X138048214Y-152286104D01*
X138048214Y-152286104D02*
X138086309Y-152324200D01*
X138086309Y-152324200D02*
X138162499Y-152362295D01*
X138162499Y-152362295D02*
X138314880Y-152362295D01*
X138314880Y-152362295D02*
X138391071Y-152324200D01*
X138391071Y-152324200D02*
X138429166Y-152286104D01*
X138429166Y-152286104D02*
X138467261Y-152209914D01*
X138467261Y-152209914D02*
X138467261Y-152019438D01*
X138467261Y-152019438D02*
X138429166Y-151943247D01*
X138429166Y-151943247D02*
X138391071Y-151905152D01*
X138391071Y-151905152D02*
X138314880Y-151867057D01*
X138314880Y-151867057D02*
X138162499Y-151867057D01*
X138162499Y-151867057D02*
X138086309Y-151905152D01*
X138086309Y-151905152D02*
X138048214Y-151943247D01*
X138048214Y-151943247D02*
X138010118Y-152019438D01*
X62545833Y-121862295D02*
X62545833Y-121062295D01*
X62545833Y-121062295D02*
X62812499Y-121633723D01*
X62812499Y-121633723D02*
X63079166Y-121062295D01*
X63079166Y-121062295D02*
X63079166Y-121862295D01*
X63460119Y-121862295D02*
X63460119Y-121062295D01*
X63460119Y-121443247D02*
X63917262Y-121443247D01*
X63917262Y-121862295D02*
X63917262Y-121062295D01*
X64641071Y-121328961D02*
X64641071Y-121862295D01*
X64450595Y-121024200D02*
X64260118Y-121595628D01*
X64260118Y-121595628D02*
X64755357Y-121595628D01*
X38295833Y-109862295D02*
X38295833Y-109062295D01*
X38295833Y-109062295D02*
X38562499Y-109633723D01*
X38562499Y-109633723D02*
X38829166Y-109062295D01*
X38829166Y-109062295D02*
X38829166Y-109862295D01*
X39210119Y-109862295D02*
X39210119Y-109062295D01*
X39210119Y-109443247D02*
X39667262Y-109443247D01*
X39667262Y-109862295D02*
X39667262Y-109062295D01*
X39972023Y-109062295D02*
X40467261Y-109062295D01*
X40467261Y-109062295D02*
X40200595Y-109367057D01*
X40200595Y-109367057D02*
X40314880Y-109367057D01*
X40314880Y-109367057D02*
X40391071Y-109405152D01*
X40391071Y-109405152D02*
X40429166Y-109443247D01*
X40429166Y-109443247D02*
X40467261Y-109519438D01*
X40467261Y-109519438D02*
X40467261Y-109709914D01*
X40467261Y-109709914D02*
X40429166Y-109786104D01*
X40429166Y-109786104D02*
X40391071Y-109824200D01*
X40391071Y-109824200D02*
X40314880Y-109862295D01*
X40314880Y-109862295D02*
X40086309Y-109862295D01*
X40086309Y-109862295D02*
X40010118Y-109824200D01*
X40010118Y-109824200D02*
X39972023Y-109786104D01*
X80045833Y-150612295D02*
X80045833Y-149812295D01*
X80045833Y-149812295D02*
X80312499Y-150383723D01*
X80312499Y-150383723D02*
X80579166Y-149812295D01*
X80579166Y-149812295D02*
X80579166Y-150612295D01*
X80960119Y-150612295D02*
X80960119Y-149812295D01*
X80960119Y-150193247D02*
X81417262Y-150193247D01*
X81417262Y-150612295D02*
X81417262Y-149812295D01*
X82179166Y-149812295D02*
X81798214Y-149812295D01*
X81798214Y-149812295D02*
X81760118Y-150193247D01*
X81760118Y-150193247D02*
X81798214Y-150155152D01*
X81798214Y-150155152D02*
X81874404Y-150117057D01*
X81874404Y-150117057D02*
X82064880Y-150117057D01*
X82064880Y-150117057D02*
X82141071Y-150155152D01*
X82141071Y-150155152D02*
X82179166Y-150193247D01*
X82179166Y-150193247D02*
X82217261Y-150269438D01*
X82217261Y-150269438D02*
X82217261Y-150459914D01*
X82217261Y-150459914D02*
X82179166Y-150536104D01*
X82179166Y-150536104D02*
X82141071Y-150574200D01*
X82141071Y-150574200D02*
X82064880Y-150612295D01*
X82064880Y-150612295D02*
X81874404Y-150612295D01*
X81874404Y-150612295D02*
X81798214Y-150574200D01*
X81798214Y-150574200D02*
X81760118Y-150536104D01*
D13*
X111196309Y-57544807D02*
X111310595Y-57582902D01*
X111310595Y-57582902D02*
X111348690Y-57620998D01*
X111348690Y-57620998D02*
X111386786Y-57697188D01*
X111386786Y-57697188D02*
X111386786Y-57811474D01*
X111386786Y-57811474D02*
X111348690Y-57887664D01*
X111348690Y-57887664D02*
X111310595Y-57925760D01*
X111310595Y-57925760D02*
X111234405Y-57963855D01*
X111234405Y-57963855D02*
X110929643Y-57963855D01*
X110929643Y-57963855D02*
X110929643Y-57163855D01*
X110929643Y-57163855D02*
X111196309Y-57163855D01*
X111196309Y-57163855D02*
X111272500Y-57201950D01*
X111272500Y-57201950D02*
X111310595Y-57240045D01*
X111310595Y-57240045D02*
X111348690Y-57316236D01*
X111348690Y-57316236D02*
X111348690Y-57392426D01*
X111348690Y-57392426D02*
X111310595Y-57468617D01*
X111310595Y-57468617D02*
X111272500Y-57506712D01*
X111272500Y-57506712D02*
X111196309Y-57544807D01*
X111196309Y-57544807D02*
X110929643Y-57544807D01*
X111729643Y-57659093D02*
X112339167Y-57659093D01*
X113291547Y-57125760D02*
X112605833Y-58154331D01*
X113977261Y-57201950D02*
X113901071Y-57163855D01*
X113901071Y-57163855D02*
X113786785Y-57163855D01*
X113786785Y-57163855D02*
X113672499Y-57201950D01*
X113672499Y-57201950D02*
X113596309Y-57278140D01*
X113596309Y-57278140D02*
X113558214Y-57354331D01*
X113558214Y-57354331D02*
X113520118Y-57506712D01*
X113520118Y-57506712D02*
X113520118Y-57620998D01*
X113520118Y-57620998D02*
X113558214Y-57773379D01*
X113558214Y-57773379D02*
X113596309Y-57849569D01*
X113596309Y-57849569D02*
X113672499Y-57925760D01*
X113672499Y-57925760D02*
X113786785Y-57963855D01*
X113786785Y-57963855D02*
X113862976Y-57963855D01*
X113862976Y-57963855D02*
X113977261Y-57925760D01*
X113977261Y-57925760D02*
X114015357Y-57887664D01*
X114015357Y-57887664D02*
X114015357Y-57620998D01*
X114015357Y-57620998D02*
X113862976Y-57620998D01*
X114358214Y-57963855D02*
X114358214Y-57163855D01*
X114358214Y-57163855D02*
X114815357Y-57963855D01*
X114815357Y-57963855D02*
X114815357Y-57163855D01*
X115196309Y-57963855D02*
X115196309Y-57163855D01*
X115196309Y-57163855D02*
X115386785Y-57163855D01*
X115386785Y-57163855D02*
X115501071Y-57201950D01*
X115501071Y-57201950D02*
X115577261Y-57278140D01*
X115577261Y-57278140D02*
X115615356Y-57354331D01*
X115615356Y-57354331D02*
X115653452Y-57506712D01*
X115653452Y-57506712D02*
X115653452Y-57620998D01*
X115653452Y-57620998D02*
X115615356Y-57773379D01*
X115615356Y-57773379D02*
X115577261Y-57849569D01*
X115577261Y-57849569D02*
X115501071Y-57925760D01*
X115501071Y-57925760D02*
X115386785Y-57963855D01*
X115386785Y-57963855D02*
X115196309Y-57963855D01*
X115374404Y-60994807D02*
X115488690Y-61032902D01*
X115488690Y-61032902D02*
X115526785Y-61070998D01*
X115526785Y-61070998D02*
X115564881Y-61147188D01*
X115564881Y-61147188D02*
X115564881Y-61261474D01*
X115564881Y-61261474D02*
X115526785Y-61337664D01*
X115526785Y-61337664D02*
X115488690Y-61375760D01*
X115488690Y-61375760D02*
X115412500Y-61413855D01*
X115412500Y-61413855D02*
X115107738Y-61413855D01*
X115107738Y-61413855D02*
X115107738Y-60613855D01*
X115107738Y-60613855D02*
X115374404Y-60613855D01*
X115374404Y-60613855D02*
X115450595Y-60651950D01*
X115450595Y-60651950D02*
X115488690Y-60690045D01*
X115488690Y-60690045D02*
X115526785Y-60766236D01*
X115526785Y-60766236D02*
X115526785Y-60842426D01*
X115526785Y-60842426D02*
X115488690Y-60918617D01*
X115488690Y-60918617D02*
X115450595Y-60956712D01*
X115450595Y-60956712D02*
X115374404Y-60994807D01*
X115374404Y-60994807D02*
X115107738Y-60994807D01*
X115907738Y-61109093D02*
X116517262Y-61109093D01*
X116212500Y-61413855D02*
X116212500Y-60804331D01*
%TO.C,SW_PWR1*%
X110712500Y-62100000D02*
X120912500Y-62100000D01*
X120912500Y-64800000D01*
X110712500Y-64800000D01*
X110712500Y-62100000D01*
%TO.C,SW_RST1*%
X122812500Y-61400000D02*
X129312500Y-61400000D01*
X122812500Y-65500000D02*
X129312500Y-65500000D01*
%TO.C,J_BAT1*%
X111872500Y-58400000D02*
X117212500Y-58400000D01*
X117212500Y-60400000D01*
X111872500Y-60400000D01*
X111872500Y-58400000D01*
%TD*%
%LPC*%
D14*
%TO.C,MH1*%
X112862500Y-43000000D03*
%TD*%
D15*
%TO.C,SW28*%
X64138800Y-153725000D03*
D16*
X64218800Y-157525000D03*
D17*
X69218800Y-153725000D03*
D16*
X69218800Y-159625000D03*
D18*
X74218800Y-148575000D03*
D15*
X74298800Y-153725000D03*
D19*
X71758800Y-148645000D03*
X65408800Y-151185000D03*
%TD*%
D15*
%TO.C,SW7*%
X152245000Y-77525000D03*
D16*
X152325000Y-81325000D03*
D17*
X157325000Y-77525000D03*
D16*
X157325000Y-83425000D03*
D18*
X162325000Y-72375000D03*
D15*
X162405000Y-77525000D03*
D19*
X159865000Y-72445000D03*
X153515000Y-74985000D03*
%TD*%
D15*
%TO.C,SW29*%
X87951300Y-153725000D03*
D16*
X88031300Y-157525000D03*
D17*
X93031300Y-153725000D03*
D16*
X93031300Y-159625000D03*
D18*
X98031300Y-148575000D03*
D15*
X98111300Y-153725000D03*
D19*
X95571300Y-148645000D03*
X89221300Y-151185000D03*
%TD*%
D15*
%TO.C,SW25*%
X137957500Y-134675000D03*
D16*
X138037500Y-138475000D03*
D17*
X143037500Y-134675000D03*
D16*
X143037500Y-140575000D03*
D18*
X148037500Y-129525000D03*
D15*
X148117500Y-134675000D03*
D19*
X145577500Y-129595000D03*
X139227500Y-132135000D03*
%TD*%
D14*
%TO.C,SW_PWR1*%
X115812500Y-63450000D03*
X113272500Y-63450000D03*
X118352500Y-63450000D03*
%TD*%
D15*
%TO.C,SW9*%
X66520000Y-96575000D03*
D16*
X66600000Y-100375000D03*
D17*
X71600000Y-96575000D03*
D16*
X71600000Y-102475000D03*
D18*
X76600000Y-91425000D03*
D15*
X76680000Y-96575000D03*
D19*
X74140000Y-91495000D03*
X67790000Y-94035000D03*
%TD*%
D15*
%TO.C,SW12*%
X123670000Y-96575000D03*
D16*
X123750000Y-100375000D03*
D17*
X128750000Y-96575000D03*
D16*
X128750000Y-102475000D03*
D18*
X133750000Y-91425000D03*
D15*
X133830000Y-96575000D03*
D19*
X131290000Y-91495000D03*
X124940000Y-94035000D03*
%TD*%
D15*
%TO.C,SW22*%
X80807500Y-134675000D03*
D16*
X80887500Y-138475000D03*
D17*
X85887500Y-134675000D03*
D16*
X85887500Y-140575000D03*
D18*
X90887500Y-129525000D03*
D15*
X90967500Y-134675000D03*
D19*
X88427500Y-129595000D03*
X82077500Y-132135000D03*
%TD*%
D15*
%TO.C,SW23*%
X99857500Y-134675000D03*
D16*
X99937500Y-138475000D03*
D17*
X104937500Y-134675000D03*
D16*
X104937500Y-140575000D03*
D18*
X109937500Y-129525000D03*
D15*
X110017500Y-134675000D03*
D19*
X107477500Y-129595000D03*
X101127500Y-132135000D03*
%TD*%
D15*
%TO.C,SW19*%
X147482500Y-115625000D03*
D16*
X147562500Y-119425000D03*
D17*
X152562500Y-115625000D03*
D16*
X152562500Y-121525000D03*
D18*
X157562500Y-110475000D03*
D15*
X157642500Y-115625000D03*
D19*
X155102500Y-110545000D03*
X148752500Y-113085000D03*
%TD*%
D15*
%TO.C,SW31*%
X149863800Y-153725000D03*
D16*
X149943800Y-157525000D03*
D17*
X154943800Y-153725000D03*
D16*
X154943800Y-159625000D03*
D18*
X159943800Y-148575000D03*
D15*
X160023800Y-153725000D03*
D19*
X157483800Y-148645000D03*
X151133800Y-151185000D03*
%TD*%
D15*
%TO.C,SW8*%
X52867500Y-96575000D03*
D16*
X52787500Y-92775000D03*
D17*
X47787500Y-96575000D03*
D16*
X47787500Y-90675000D03*
D18*
X42787500Y-101725000D03*
D15*
X42707500Y-96575000D03*
D19*
X45247500Y-101655000D03*
X51597500Y-99115000D03*
%TD*%
D14*
%TO.C,MH8*%
X75250000Y-134000000D03*
%TD*%
D15*
%TO.C,SW30*%
X116526300Y-153725000D03*
D16*
X116606300Y-157525000D03*
D17*
X121606300Y-153725000D03*
D16*
X121606300Y-159625000D03*
D18*
X126606300Y-148575000D03*
D15*
X126686300Y-153725000D03*
D19*
X124146300Y-148645000D03*
X117796300Y-151185000D03*
%TD*%
D14*
%TO.C,MH2*%
X144112500Y-66250000D03*
%TD*%
D15*
%TO.C,SW4*%
X95095000Y-77525000D03*
D16*
X95175000Y-81325000D03*
D17*
X100175000Y-77525000D03*
D16*
X100175000Y-83425000D03*
D18*
X105175000Y-72375000D03*
D15*
X105255000Y-77525000D03*
D19*
X102715000Y-72445000D03*
X96365000Y-74985000D03*
%TD*%
D15*
%TO.C,SW13*%
X142720000Y-96575000D03*
D16*
X142800000Y-100375000D03*
D17*
X147800000Y-96575000D03*
D16*
X147800000Y-102475000D03*
D18*
X152800000Y-91425000D03*
D15*
X152880000Y-96575000D03*
D19*
X150340000Y-91495000D03*
X143990000Y-94035000D03*
%TD*%
D14*
%TO.C,MH7*%
X165862500Y-148750000D03*
%TD*%
D15*
%TO.C,SW27*%
X50486300Y-153725000D03*
D16*
X50406300Y-149925000D03*
D17*
X45406300Y-153725000D03*
D16*
X45406300Y-147825000D03*
D18*
X40406300Y-158875000D03*
D15*
X40326300Y-153725000D03*
D19*
X42866300Y-158805000D03*
X49216300Y-156265000D03*
%TD*%
D20*
%TO.C,SW_RST1*%
X122187500Y-63450000D03*
X129937500Y-63450000D03*
%TD*%
D15*
%TO.C,SW6*%
X133195000Y-77525000D03*
D16*
X133275000Y-81325000D03*
D17*
X138275000Y-77525000D03*
D16*
X138275000Y-83425000D03*
D18*
X143275000Y-72375000D03*
D15*
X143355000Y-77525000D03*
D19*
X140815000Y-72445000D03*
X134465000Y-74985000D03*
%TD*%
D15*
%TO.C,SW10*%
X85570000Y-96575000D03*
D16*
X85650000Y-100375000D03*
D17*
X90650000Y-96575000D03*
D16*
X90650000Y-102475000D03*
D18*
X95650000Y-91425000D03*
D15*
X95730000Y-96575000D03*
D19*
X93190000Y-91495000D03*
X86840000Y-94035000D03*
%TD*%
D14*
%TO.C,MH6*%
X137362500Y-153500000D03*
%TD*%
D15*
%TO.C,SW18*%
X128432500Y-115625000D03*
D16*
X128512500Y-119425000D03*
D17*
X133512500Y-115625000D03*
D16*
X133512500Y-121525000D03*
D18*
X138512500Y-110475000D03*
D15*
X138592500Y-115625000D03*
D19*
X136052500Y-110545000D03*
X129702500Y-113085000D03*
%TD*%
D14*
%TO.C,MH4*%
X63612500Y-123000000D03*
%TD*%
D15*
%TO.C,SW11*%
X104620000Y-96575000D03*
D16*
X104700000Y-100375000D03*
D17*
X109700000Y-96575000D03*
D16*
X109700000Y-102475000D03*
D18*
X114700000Y-91425000D03*
D15*
X114780000Y-96575000D03*
D19*
X112240000Y-91495000D03*
X105890000Y-94035000D03*
%TD*%
D15*
%TO.C,SW21*%
X59376300Y-134675000D03*
D16*
X59456300Y-138475000D03*
D17*
X64456300Y-134675000D03*
D16*
X64456300Y-140575000D03*
D18*
X69456300Y-129525000D03*
D15*
X69536300Y-134675000D03*
D19*
X66996300Y-129595000D03*
X60646300Y-132135000D03*
%TD*%
D14*
%TO.C,MH3*%
X39362500Y-111000000D03*
%TD*%
D15*
%TO.C,SW3*%
X76045000Y-77525000D03*
D16*
X76125000Y-81325000D03*
D17*
X81125000Y-77525000D03*
D16*
X81125000Y-83425000D03*
D18*
X86125000Y-72375000D03*
D15*
X86205000Y-77525000D03*
D19*
X83665000Y-72445000D03*
X77315000Y-74985000D03*
%TD*%
D15*
%TO.C,SW26*%
X157007500Y-134675000D03*
D16*
X157087500Y-138475000D03*
D17*
X162087500Y-134675000D03*
D16*
X162087500Y-140575000D03*
D18*
X167087500Y-129525000D03*
D15*
X167167500Y-134675000D03*
D19*
X164627500Y-129595000D03*
X158277500Y-132135000D03*
%TD*%
D15*
%TO.C,SW5*%
X114145000Y-77525000D03*
D16*
X114225000Y-81325000D03*
D17*
X119225000Y-77525000D03*
D16*
X119225000Y-83425000D03*
D18*
X124225000Y-72375000D03*
D15*
X124305000Y-77525000D03*
D19*
X121765000Y-72445000D03*
X115415000Y-74985000D03*
%TD*%
D15*
%TO.C,SW14*%
X55248700Y-115625000D03*
D16*
X55168700Y-111825000D03*
D17*
X50168700Y-115625000D03*
D16*
X50168700Y-109725000D03*
D18*
X45168700Y-120775000D03*
D15*
X45088700Y-115625000D03*
D19*
X47628700Y-120705000D03*
X53978700Y-118165000D03*
%TD*%
D15*
%TO.C,SW16*%
X90332500Y-115625000D03*
D16*
X90412500Y-119425000D03*
D17*
X95412500Y-115625000D03*
D16*
X95412500Y-121525000D03*
D18*
X100412500Y-110475000D03*
D15*
X100492500Y-115625000D03*
D19*
X97952500Y-110545000D03*
X91602500Y-113085000D03*
%TD*%
D15*
%TO.C,SW24*%
X118907500Y-134675000D03*
D16*
X118987500Y-138475000D03*
D17*
X123987500Y-134675000D03*
D16*
X123987500Y-140575000D03*
D18*
X128987500Y-129525000D03*
D15*
X129067500Y-134675000D03*
D19*
X126527500Y-129595000D03*
X120177500Y-132135000D03*
%TD*%
D15*
%TO.C,SW1*%
X48105000Y-77525000D03*
D16*
X48025000Y-73725000D03*
D17*
X43025000Y-77525000D03*
D16*
X43025000Y-71625000D03*
D18*
X38025000Y-82675000D03*
D15*
X37945000Y-77525000D03*
D19*
X40485000Y-82605000D03*
X46835000Y-80065000D03*
%TD*%
D14*
%TO.C,MH5*%
X81112500Y-151750000D03*
%TD*%
D21*
%TO.C,BAT_LEAD_SLOT1*%
X117912500Y-50750000D03*
%TD*%
D22*
%TO.C,J_BAT1*%
X115812500Y-59400000D03*
X113272500Y-59400000D03*
%TD*%
D15*
%TO.C,SW15*%
X71282500Y-115625000D03*
D16*
X71362500Y-119425000D03*
D17*
X76362500Y-115625000D03*
D16*
X76362500Y-121525000D03*
D18*
X81362500Y-110475000D03*
D15*
X81442500Y-115625000D03*
D19*
X78902500Y-110545000D03*
X72552500Y-113085000D03*
%TD*%
D15*
%TO.C,SW20*%
X48105000Y-134675000D03*
D16*
X48025000Y-130875000D03*
D17*
X43025000Y-134675000D03*
D16*
X43025000Y-128775000D03*
D18*
X38025000Y-139825000D03*
D15*
X37945000Y-134675000D03*
D19*
X40485000Y-139755000D03*
X46835000Y-137215000D03*
%TD*%
D15*
%TO.C,SW2*%
X56995000Y-77525000D03*
D16*
X57075000Y-81325000D03*
D17*
X62075000Y-77525000D03*
D16*
X62075000Y-83425000D03*
D18*
X67075000Y-72375000D03*
D15*
X67155000Y-77525000D03*
D19*
X64615000Y-72445000D03*
X58265000Y-74985000D03*
%TD*%
D15*
%TO.C,SW17*%
X109382500Y-115625000D03*
D16*
X109462500Y-119425000D03*
D17*
X114462500Y-115625000D03*
D16*
X114462500Y-121525000D03*
D18*
X119462500Y-110475000D03*
D15*
X119542500Y-115625000D03*
D19*
X117002500Y-110545000D03*
X110652500Y-113085000D03*
%TD*%
%LPD*%
M02*
