%TF.GenerationSoftware,KiCad,Pcbnew,10.0.3*%
%TF.CreationDate,2026-08-21T21:08:09+09:00*%
%TF.ProjectId,kc2_left-x3-v2,6b63325f-6c65-4667-942d-78332d76322e,draft-v2*%
%TF.SameCoordinates,Original*%
%TF.FileFunction,Paste,Bot*%
%TF.FilePolarity,Positive*%
%FSLAX46Y46*%
G04 Gerber Fmt 4.6, Leading zero omitted, Abs format (unit mm)*
G04 Created by KiCad (PCBNEW 10.0.3) date 2026-08-21 21:08:09*
%MOMM*%
%LPD*%
G01*
G04 APERTURE LIST*
G04 Aperture macros list*
%AMRoundRect*
0 Rectangle with rounded corners*
0 $1 Rounding radius*
0 $2 $3 $4 $5 $6 $7 $8 $9 X,Y pos of 4 corners*
0 Add a 4 corners polygon primitive as box body*
4,1,4,$2,$3,$4,$5,$6,$7,$8,$9,$2,$3,0*
0 Add four circle primitives for the rounded corners*
1,1,$1+$1,$2,$3*
1,1,$1+$1,$4,$5*
1,1,$1+$1,$6,$7*
1,1,$1+$1,$8,$9*
0 Add four rect primitives between the rounded corners*
20,1,$1+$1,$2,$3,$4,$5,0*
20,1,$1+$1,$4,$5,$6,$7,0*
20,1,$1+$1,$6,$7,$8,$9,0*
20,1,$1+$1,$8,$9,$2,$3,0*%
G04 Aperture macros list end*
%ADD10RoundRect,0.520000X-0.780000X-0.780000X0.780000X-0.780000X0.780000X0.780000X-0.780000X0.780000X0*%
%ADD11RoundRect,0.520000X0.780000X0.780000X-0.780000X0.780000X-0.780000X-0.780000X0.780000X-0.780000X0*%
%ADD12RoundRect,0.252000X0.448000X0.523000X-0.448000X0.523000X-0.448000X-0.523000X0.448000X-0.523000X0*%
G04 APERTURE END LIST*
D10*
%TO.C,SW29*%
X97731300Y-159625000D03*
X85331300Y-157525000D03*
%TD*%
%TO.C,SW18*%
X138212500Y-121525000D03*
X125812500Y-119425000D03*
%TD*%
%TO.C,SW15*%
X81062500Y-121525000D03*
X68662500Y-119425000D03*
%TD*%
%TO.C,SW12*%
X133450000Y-102475000D03*
X121050000Y-100375000D03*
%TD*%
%TO.C,SW32*%
X164406300Y-159625000D03*
X152006300Y-157525000D03*
%TD*%
%TO.C,SW28*%
X73918800Y-159625000D03*
X61518800Y-157525000D03*
%TD*%
D11*
%TO.C,SW14*%
X47468800Y-109725000D03*
X59868800Y-111825000D03*
%TD*%
D10*
%TO.C,SW21*%
X71537500Y-140575000D03*
X59137500Y-138475000D03*
%TD*%
%TO.C,SW10*%
X95350000Y-102475000D03*
X82950000Y-100375000D03*
%TD*%
%TO.C,SW4*%
X104875000Y-83425000D03*
X92475000Y-81325000D03*
%TD*%
%TO.C,SW9*%
X76300000Y-102475000D03*
X63900000Y-100375000D03*
%TD*%
%TO.C,SW11*%
X114400000Y-102475000D03*
X102000000Y-100375000D03*
%TD*%
%TO.C,SW19*%
X157262500Y-121525000D03*
X144862500Y-119425000D03*
%TD*%
%TO.C,SW7*%
X162025000Y-83425000D03*
X149625000Y-81325000D03*
%TD*%
%TO.C,SW24*%
X128687500Y-140575000D03*
X116287500Y-138475000D03*
%TD*%
D11*
%TO.C,SW27*%
X42706300Y-147825000D03*
X55106300Y-149925000D03*
%TD*%
D10*
%TO.C,SW2*%
X66775000Y-83425000D03*
X54375000Y-81325000D03*
%TD*%
%TO.C,SW22*%
X90587500Y-140575000D03*
X78187500Y-138475000D03*
%TD*%
%TO.C,SW6*%
X142975000Y-83425000D03*
X130575000Y-81325000D03*
%TD*%
%TO.C,SW30*%
X119162500Y-159625000D03*
X106762500Y-157525000D03*
%TD*%
%TO.C,SW25*%
X147737500Y-140575000D03*
X135337500Y-138475000D03*
%TD*%
%TO.C,SW16*%
X100112500Y-121525000D03*
X87712500Y-119425000D03*
%TD*%
%TO.C,SW17*%
X119162500Y-121525000D03*
X106762500Y-119425000D03*
%TD*%
%TO.C,SW3*%
X85825000Y-83425000D03*
X73425000Y-81325000D03*
%TD*%
%TO.C,SW13*%
X152500000Y-102475000D03*
X140100000Y-100375000D03*
%TD*%
D11*
%TO.C,SW20*%
X42706300Y-128775000D03*
X55106300Y-130875000D03*
%TD*%
D10*
%TO.C,SW5*%
X123925000Y-83425000D03*
X111525000Y-81325000D03*
%TD*%
%TO.C,SW31*%
X140593800Y-159625000D03*
X128193800Y-157525000D03*
%TD*%
D11*
%TO.C,SW8*%
X45087500Y-90675000D03*
X57487500Y-92775000D03*
%TD*%
%TO.C,SW1*%
X40325000Y-71625000D03*
X52725000Y-73725000D03*
%TD*%
D10*
%TO.C,SW26*%
X166787500Y-140575000D03*
X154387500Y-138475000D03*
%TD*%
%TO.C,SW23*%
X109637500Y-140575000D03*
X97237500Y-138475000D03*
%TD*%
D12*
%TO.C,D21*%
X62637500Y-127675000D03*
X59037500Y-127675000D03*
%TD*%
%TO.C,D6*%
X131825000Y-74525000D03*
X128225000Y-74525000D03*
%TD*%
%TO.C,D23*%
X100737500Y-127675000D03*
X97137500Y-127675000D03*
%TD*%
%TO.C,D25*%
X138837500Y-127675000D03*
X135237500Y-127675000D03*
%TD*%
%TO.C,D8*%
X57587500Y-103575000D03*
X53987500Y-103575000D03*
%TD*%
%TO.C,D31*%
X131693800Y-146725000D03*
X128093800Y-146725000D03*
%TD*%
%TO.C,D11*%
X105500000Y-89575000D03*
X101900000Y-89575000D03*
%TD*%
%TO.C,D14*%
X59968800Y-122625000D03*
X56368800Y-122625000D03*
%TD*%
%TO.C,D12*%
X124550000Y-89575000D03*
X120950000Y-89575000D03*
%TD*%
%TO.C,D27*%
X57706300Y-156725000D03*
X54106300Y-156725000D03*
%TD*%
%TO.C,D18*%
X129312500Y-108625000D03*
X125712500Y-108625000D03*
%TD*%
%TO.C,D5*%
X112775000Y-74525000D03*
X109175000Y-74525000D03*
%TD*%
%TO.C,D13*%
X143600000Y-89575000D03*
X140000000Y-89575000D03*
%TD*%
%TO.C,D20*%
X55206300Y-141675000D03*
X51606300Y-141675000D03*
%TD*%
%TO.C,D7*%
X150875000Y-74525000D03*
X147275000Y-74525000D03*
%TD*%
%TO.C,D32*%
X155506300Y-146725000D03*
X151906300Y-146725000D03*
%TD*%
%TO.C,D15*%
X72162500Y-108625000D03*
X68562500Y-108625000D03*
%TD*%
%TO.C,D19*%
X148362500Y-108625000D03*
X144762500Y-108625000D03*
%TD*%
%TO.C,D26*%
X157887500Y-127675000D03*
X154287500Y-127675000D03*
%TD*%
%TO.C,D22*%
X81687500Y-127675000D03*
X78087500Y-127675000D03*
%TD*%
%TO.C,D4*%
X93725000Y-74525000D03*
X90125000Y-74525000D03*
%TD*%
%TO.C,D29*%
X88831300Y-146725000D03*
X85231300Y-146725000D03*
%TD*%
%TO.C,D2*%
X59875000Y-71925000D03*
X56275000Y-71925000D03*
%TD*%
%TO.C,D30*%
X110262500Y-146725000D03*
X106662500Y-146725000D03*
%TD*%
%TO.C,D17*%
X110262500Y-108625000D03*
X106662500Y-108625000D03*
%TD*%
%TO.C,D28*%
X65018800Y-146725000D03*
X61418800Y-146725000D03*
%TD*%
%TO.C,D24*%
X119787500Y-127675000D03*
X116187500Y-127675000D03*
%TD*%
%TO.C,D16*%
X91212500Y-108625000D03*
X87612500Y-108625000D03*
%TD*%
%TO.C,D9*%
X67400000Y-89575000D03*
X63800000Y-89575000D03*
%TD*%
%TO.C,D10*%
X86450000Y-89575000D03*
X82850000Y-89575000D03*
%TD*%
%TO.C,D1*%
X52825000Y-84525000D03*
X49225000Y-84525000D03*
%TD*%
%TO.C,D3*%
X74675000Y-74525000D03*
X71075000Y-74525000D03*
%TD*%
M02*
