%TF.GenerationSoftware,KiCad,Pcbnew,10.0.3*%
%TF.CreationDate,2026-08-25T02:24:56+09:00*%
%TF.ProjectId,kc2_left-x3-v2,6b63325f-6c65-4667-942d-78332d76322e,draft-v2*%
%TF.SameCoordinates,Original*%
%TF.FileFunction,Profile,NP*%
%FSLAX46Y46*%
G04 Gerber Fmt 4.6, Leading zero omitted, Abs format (unit mm)*
G04 Created by KiCad (PCBNEW 10.0.3) date 2026-08-25 02:24:56*
%MOMM*%
%LPD*%
G01*
G04 APERTURE LIST*
%TA.AperFunction,Profile*%
%ADD10C,0.100000*%
%TD*%
G04 APERTURE END LIST*
D10*
X35000000Y-71500000D02*
X35080000Y-70780000D01*
X35000000Y-85050000D02*
X35000000Y-71500000D01*
X35000000Y-85850000D02*
X35000000Y-85050000D01*
X35000000Y-86650000D02*
X35000000Y-85850000D01*
X35000000Y-87450000D02*
X35000000Y-86650000D01*
X35000000Y-88250000D02*
X35000000Y-87450000D01*
X35000000Y-89050000D02*
X35000000Y-88250000D01*
X35000000Y-104100000D02*
X35000000Y-89050000D01*
X35000000Y-104900000D02*
X35000000Y-104100000D01*
X35000000Y-105700000D02*
X35000000Y-104900000D01*
X35000000Y-106500000D02*
X35000000Y-105700000D01*
X35000000Y-107300000D02*
X35000000Y-106500000D01*
X35000000Y-108100000D02*
X35000000Y-107300000D01*
X35000000Y-123150000D02*
X35000000Y-108100000D01*
X35000000Y-123950000D02*
X35000000Y-123150000D01*
X35000000Y-124750000D02*
X35000000Y-123950000D01*
X35000000Y-125550000D02*
X35000000Y-124750000D01*
X35000000Y-126350000D02*
X35000000Y-125550000D01*
X35000000Y-127150000D02*
X35000000Y-126350000D01*
X35000000Y-142200000D02*
X35000000Y-127150000D01*
X35000000Y-143000000D02*
X35000000Y-142200000D01*
X35000000Y-143800000D02*
X35000000Y-143000000D01*
X35000000Y-144600000D02*
X35000000Y-143800000D01*
X35000000Y-145400000D02*
X35000000Y-144600000D01*
X35000000Y-146200000D02*
X35000000Y-145400000D01*
X35000000Y-159750000D02*
X35000000Y-146200000D01*
X35080000Y-70780000D02*
X35320000Y-70220000D01*
X35080000Y-160470000D02*
X35000000Y-159750000D01*
X35320000Y-70220000D02*
X35720000Y-69820000D01*
X35320000Y-161030000D02*
X35080000Y-160470000D01*
X35720000Y-69820000D02*
X36280000Y-69580000D01*
X35720000Y-161430000D02*
X35320000Y-161030000D01*
X36280000Y-69580000D02*
X37000000Y-69500000D01*
X36280000Y-161670000D02*
X35720000Y-161430000D01*
X37000000Y-69500000D02*
X107212500Y-69500000D01*
X37000000Y-161750000D02*
X36280000Y-161670000D01*
X107212500Y-69500000D02*
X107932500Y-69420000D01*
X107932500Y-69420000D02*
X108492500Y-69180000D01*
X108492500Y-69180000D02*
X108892500Y-68780000D01*
X108892500Y-68780000D02*
X109132500Y-68220000D01*
X109132500Y-68220000D02*
X109212500Y-67500000D01*
X109212500Y-37000000D02*
X109292500Y-36279999D01*
X109212500Y-67500000D02*
X109212500Y-37000000D01*
X109292500Y-36279999D02*
X109532500Y-35720000D01*
X109532500Y-35720000D02*
X109932500Y-35320000D01*
X109932500Y-35320000D02*
X110492500Y-35080000D01*
X110492500Y-35080000D02*
X111212500Y-35000000D01*
X111212500Y-35000000D02*
X149712500Y-35000000D01*
X149712500Y-35000000D02*
X150432500Y-35079999D01*
X150432500Y-35079999D02*
X150992500Y-35320000D01*
X150992500Y-35320000D02*
X151392499Y-35720000D01*
X151392499Y-35720000D02*
X151632500Y-36280000D01*
X151632500Y-36280000D02*
X151712500Y-37000000D01*
X151712500Y-37000000D02*
X151712500Y-67500000D01*
X151712500Y-67500000D02*
X151792500Y-68220000D01*
X151792500Y-68220000D02*
X152032500Y-68780000D01*
X152032500Y-68780000D02*
X152432500Y-69180000D01*
X152432500Y-69180000D02*
X152992500Y-69420000D01*
X152992500Y-69420000D02*
X153712500Y-69500000D01*
X153712500Y-69500000D02*
X163350000Y-69500000D01*
X155825000Y-88500000D02*
X155825000Y-104650000D01*
X155825000Y-104650000D02*
X155905000Y-105370000D01*
X155905000Y-87780000D02*
X155825000Y-88500000D01*
X155905000Y-105370000D02*
X156145000Y-105930000D01*
X156145000Y-87220000D02*
X155905000Y-87780000D01*
X156145000Y-105930000D02*
X156545000Y-106330000D01*
X156545000Y-86820000D02*
X156145000Y-87220000D01*
X156545000Y-106330000D02*
X157105000Y-106570000D01*
X157105000Y-86580000D02*
X156545000Y-86820000D01*
X157105000Y-106570000D02*
X157825000Y-106650000D01*
X157825000Y-86500000D02*
X157105000Y-86580000D01*
X157825000Y-106650000D02*
X158587500Y-106650000D01*
X158587500Y-106650000D02*
X159307500Y-106730000D01*
X159307500Y-106730000D02*
X159867500Y-106970000D01*
X159867500Y-106970000D02*
X160267500Y-107370000D01*
X160267500Y-107370000D02*
X160507500Y-107930000D01*
X160507500Y-107930000D02*
X160587500Y-108650000D01*
X160587500Y-108650000D02*
X160587500Y-123700000D01*
X160587500Y-123700000D02*
X160667500Y-124420000D01*
X160667500Y-124420000D02*
X160907500Y-124980000D01*
X160907500Y-124980000D02*
X161307500Y-125380000D01*
X161307500Y-125380000D02*
X161867500Y-125620000D01*
X161867500Y-125620000D02*
X162587500Y-125700000D01*
X162587500Y-125700000D02*
X168112500Y-125700000D01*
X163350000Y-69500000D02*
X164070000Y-69580000D01*
X163350000Y-86500000D02*
X157825000Y-86500000D01*
X164070000Y-69580000D02*
X164630000Y-69820000D01*
X164070000Y-86420000D02*
X163350000Y-86500000D01*
X164630000Y-69820000D02*
X165029999Y-70220000D01*
X164630000Y-86180000D02*
X164070000Y-86420000D01*
X165029999Y-70220000D02*
X165270000Y-70780000D01*
X165030000Y-85780000D02*
X164630000Y-86180000D01*
X165270000Y-70780000D02*
X165350000Y-71500000D01*
X165270000Y-85220000D02*
X165030000Y-85780000D01*
X165350000Y-71500000D02*
X165350000Y-84500000D01*
X165350000Y-84500000D02*
X165270000Y-85220000D01*
X168112500Y-125700000D02*
X168832500Y-125780000D01*
X168112500Y-161750000D02*
X37000000Y-161750000D01*
X168832500Y-125780000D02*
X169392500Y-126020000D01*
X168832500Y-161670000D02*
X168112500Y-161750000D01*
X169392500Y-126020000D02*
X169792500Y-126420000D01*
X169392500Y-161430000D02*
X168832500Y-161670000D01*
X169792500Y-126420000D02*
X170032500Y-126980000D01*
X169792500Y-161030000D02*
X169392500Y-161430000D01*
X170032500Y-126980000D02*
X170112500Y-127700000D01*
X170032500Y-160470000D02*
X169792500Y-161030000D01*
X170112500Y-127700000D02*
X170112500Y-142750000D01*
X170112500Y-142750000D02*
X170112500Y-143550000D01*
X170112500Y-143550000D02*
X170112500Y-144350000D01*
X170112500Y-144350000D02*
X170112500Y-145149999D01*
X170112500Y-145149999D02*
X170112500Y-145950000D01*
X170112500Y-145950000D02*
X170112500Y-146750000D01*
X170112500Y-146750000D02*
X170112500Y-159750000D01*
X170112500Y-159750000D02*
X170032500Y-160470000D01*
M02*
