M48
; DRILL file KiCad 10.0.3 date 2026-08-20T07:58:21
; FORMAT={-:-/ absolute / metric / decimal}
; #@! TF.CreationDate,2026-08-20T07:58:21+09:00
; #@! TF.GenerationSoftware,Kicad,Pcbnew,10.0.3
; #@! TF.FileFunction,Plated,1,2,PTH
FMAT,2
METRIC
; #@! TA.AperFunction,Plated,PTH,ViaDrill
T1C0.300
; #@! TA.AperFunction,Plated,PTH,ComponentDrill
T2C0.950
; #@! TA.AperFunction,Plated,PTH,ComponentDrill
T3C1.500
%
G90
G05
T1
X60.587Y-128.181
X65.589Y-89.649
X70.651Y-124.799
X75.681Y-70.728
X76.634Y-84.118
X91.591Y-132.857
X94.18Y-70.364
X112.531Y-142.415
X115.522Y-66.077
X121.505Y-70.187
X129.59Y-68.619
X131.233Y-85.364
X132.579Y-82.933
X136.253Y-40.552
X136.451Y-120.266
X136.918Y-140.808
X137.052Y-101.31
X137.904Y-107.453
X143.016Y-117.861
X144.203Y-45.282
X145.436Y-122.029
X145.969Y-89.796
X146.991Y-58.079
X147.626Y-43.04
X150.989Y-69.752
X155.0Y-98.2
X160.5Y-124.0
T2
X119.742Y-41.38
X119.742Y-56.62
X122.282Y-41.38
X122.282Y-56.62
X124.822Y-41.38
X124.822Y-56.62
X127.362Y-41.38
X127.362Y-56.62
X129.903Y-41.38
X129.903Y-56.62
X132.442Y-41.38
X132.442Y-56.62
X134.982Y-41.38
X134.982Y-56.62
X137.523Y-41.38
X137.523Y-56.62
X140.062Y-41.38
X140.062Y-56.62
X142.602Y-41.38
X142.602Y-56.62
X145.142Y-41.38
X145.142Y-56.62
X147.683Y-41.38
X147.683Y-56.62
T3
X41.485Y-82.605
X43.866Y-139.755
X43.866Y-158.805
X46.247Y-101.655
X47.835Y-80.065
X48.629Y-120.705
X50.216Y-137.215
X50.216Y-156.265
X52.597Y-99.115
X54.979Y-118.165
X59.265Y-74.985
X64.028Y-132.135
X65.615Y-72.445
X66.409Y-151.185
X68.79Y-94.035
X70.377Y-129.595
X72.759Y-148.645
X73.552Y-113.085
X75.14Y-91.495
X78.315Y-74.985
X79.903Y-110.545
X83.078Y-132.135
X84.665Y-72.445
X87.84Y-94.035
X89.427Y-129.595
X90.221Y-151.185
X92.602Y-113.085
X94.19Y-91.495
X96.571Y-148.645
X97.365Y-74.985
X98.953Y-110.545
X102.127Y-132.135
X103.715Y-72.445
X106.89Y-94.035
X108.477Y-129.595
X111.652Y-113.085
X111.652Y-151.185
X113.24Y-91.495
X116.415Y-74.985
X118.002Y-110.545
X118.002Y-148.645
X121.177Y-132.135
X122.765Y-72.445
X125.94Y-94.035
X127.527Y-129.595
X130.702Y-113.085
X132.29Y-91.495
X133.084Y-151.185
X135.465Y-74.985
X137.052Y-110.545
X139.434Y-148.645
X140.227Y-132.135
X141.815Y-72.445
X144.99Y-94.035
X146.577Y-129.595
X149.752Y-113.085
X151.34Y-91.495
X154.515Y-74.985
X156.102Y-110.545
X156.896Y-151.185
X159.278Y-132.135
X160.865Y-72.445
X163.246Y-148.645
X165.627Y-129.595
M30
