M48
; DRILL file KiCad 10.0.3 date 2026-08-03T10:12:09
; FORMAT={-:-/ absolute / metric / decimal}
; #@! TF.CreationDate,2026-08-03T10:12:09+09:00
; #@! TF.GenerationSoftware,Kicad,Pcbnew,10.0.3
; #@! TF.FileFunction,Plated,1,2,PTH
FMAT,2
METRIC
; #@! TA.AperFunction,Plated,PTH,ViaDrill
T1C0.300
; #@! TA.AperFunction,Plated,PTH,ComponentDrill
T2C0.950
; #@! TA.AperFunction,Plated,PTH,ComponentDrill
T3C1.500
%
G90
G05
T1
X54.021Y-138.594
X75.1Y-124.494
X75.797Y-138.594
X78.078Y-67.975
X92.967Y-63.17
X93.86Y-125.5
X99.925Y-144.672
X110.834Y-62.528
X116.789Y-86.326
X131.679Y-124.5
X131.813Y-73.418
X135.106Y-47.71
X140.676Y-104.067
X146.624Y-115.84
X151.755Y-125.275
X152.136Y-84.186
X152.386Y-60.227
X153.137Y-87.858
T2
X124.242Y-40.11
X124.242Y-57.89
X126.782Y-40.11
X126.782Y-57.89
X129.322Y-40.11
X129.322Y-57.89
X131.862Y-40.11
X131.862Y-57.89
X134.403Y-40.11
X134.403Y-57.89
X136.942Y-40.11
X136.942Y-57.89
X139.482Y-40.11
X139.482Y-57.89
X142.022Y-40.11
X142.022Y-57.89
X144.562Y-40.11
X144.562Y-57.89
X147.102Y-40.11
X147.102Y-57.89
X149.642Y-40.11
X149.642Y-57.89
X152.183Y-40.11
X152.183Y-57.89
T3
X44.715Y-74.985
X47.096Y-132.135
X47.096Y-151.185
X49.477Y-94.035
X51.065Y-72.445
X51.859Y-113.085
X53.446Y-129.595
X53.446Y-148.645
X55.828Y-91.495
X58.209Y-110.545
X63.765Y-74.985
X68.528Y-132.135
X70.115Y-72.445
X70.909Y-151.185
X73.29Y-94.035
X74.877Y-129.595
X77.259Y-148.645
X78.052Y-113.085
X79.64Y-91.495
X82.815Y-74.985
X84.402Y-110.545
X87.578Y-132.135
X89.165Y-72.445
X92.34Y-94.035
X93.927Y-129.595
X94.721Y-151.185
X97.102Y-113.085
X98.69Y-91.495
X101.071Y-148.645
X101.865Y-74.985
X103.453Y-110.545
X106.627Y-132.135
X108.215Y-72.445
X111.39Y-94.035
X112.977Y-129.595
X116.152Y-113.085
X117.74Y-91.495
X118.534Y-151.185
X120.915Y-74.985
X122.502Y-110.545
X124.884Y-148.645
X125.677Y-132.135
X127.265Y-72.445
X130.44Y-94.035
X132.028Y-129.595
X135.202Y-113.085
X136.79Y-91.495
X139.965Y-74.985
X139.965Y-151.185
X141.552Y-110.545
X144.727Y-132.135
X146.315Y-72.445
X146.315Y-148.645
X149.49Y-94.035
X151.077Y-129.595
X154.252Y-113.085
X155.84Y-91.495
X159.015Y-74.985
X160.602Y-110.545
X161.396Y-151.185
X163.778Y-132.135
X165.365Y-72.445
X167.746Y-148.645
X170.127Y-129.595
M30
