%TF.GenerationSoftware,KiCad,Pcbnew,10.0.3*%
%TF.CreationDate,2026-08-03T10:12:09+09:00*%
%TF.ProjectId,kc2_left-x3-v2,6b63325f-6c65-4667-942d-78332d76322e,draft-v2*%
%TF.SameCoordinates,Original*%
%TF.FileFunction,Drillmap*%
%TF.FilePolarity,Positive*%
%FSLAX45Y45*%
G04 Gerber Fmt 4.5, Leading zero omitted, Abs format (unit mm)*
G04 Created by KiCad (PCBNEW 10.0.3) date 2026-08-03 10:12:09*
%MOMM*%
%LPD*%
G01*
G04 APERTURE LIST*
%ADD10C,0.100000*%
%ADD11C,0.200000*%
%ADD12C,0.165000*%
%ADD13C,0.170000*%
%ADD14C,0.220000*%
%ADD15C,0.300000*%
%ADD16C,0.500000*%
G04 APERTURE END LIST*
D10*
X3500000Y-6350000D02*
X3508000Y-6278000D01*
X3500000Y-6600000D02*
X3500000Y-6350000D01*
X3500000Y-6680000D02*
X3500000Y-6600000D01*
X3500000Y-6760000D02*
X3500000Y-6680000D01*
X3500000Y-6840000D02*
X3500000Y-6760000D01*
X3500000Y-6920000D02*
X3500000Y-6840000D01*
X3500000Y-7000000D02*
X3500000Y-6920000D01*
X3500000Y-8505000D02*
X3500000Y-7000000D01*
X3500000Y-8585000D02*
X3500000Y-8505000D01*
X3500000Y-8665000D02*
X3500000Y-8585000D01*
X3500000Y-8745000D02*
X3500000Y-8665000D01*
X3500000Y-8825000D02*
X3500000Y-8745000D01*
X3500000Y-8905000D02*
X3500000Y-8825000D01*
X3500000Y-10410000D02*
X3500000Y-8905000D01*
X3500000Y-10490000D02*
X3500000Y-10410000D01*
X3500000Y-10570000D02*
X3500000Y-10490000D01*
X3500000Y-10650000D02*
X3500000Y-10570000D01*
X3500000Y-10730000D02*
X3500000Y-10650000D01*
X3500000Y-10810000D02*
X3500000Y-10730000D01*
X3500000Y-12315000D02*
X3500000Y-10810000D01*
X3500000Y-12395000D02*
X3500000Y-12315000D01*
X3500000Y-12475000D02*
X3500000Y-12395000D01*
X3500000Y-12555000D02*
X3500000Y-12475000D01*
X3500000Y-12635000D02*
X3500000Y-12555000D01*
X3500000Y-12715000D02*
X3500000Y-12635000D01*
X3500000Y-14220000D02*
X3500000Y-12715000D01*
X3500000Y-14300000D02*
X3500000Y-14220000D01*
X3500000Y-14380000D02*
X3500000Y-14300000D01*
X3500000Y-14460000D02*
X3500000Y-14380000D01*
X3500000Y-14540000D02*
X3500000Y-14460000D01*
X3500000Y-14620000D02*
X3500000Y-14540000D01*
X3500000Y-16525000D02*
X3500000Y-14620000D01*
X3508000Y-6278000D02*
X3532000Y-6222000D01*
X3508000Y-16597000D02*
X3500000Y-16525000D01*
X3532000Y-6222000D02*
X3572000Y-6182000D01*
X3532000Y-16653000D02*
X3508000Y-16597000D01*
X3572000Y-6182000D02*
X3628000Y-6158000D01*
X3572000Y-16693000D02*
X3532000Y-16653000D01*
X3628000Y-6158000D02*
X3700000Y-6150000D01*
X3628000Y-16717000D02*
X3572000Y-16693000D01*
X3700000Y-6150000D02*
X11271250Y-6150000D01*
X3700000Y-16725000D02*
X3628000Y-16717000D01*
X11271250Y-6150000D02*
X11343250Y-6142000D01*
X11343250Y-6142000D02*
X11399250Y-6118000D01*
X11399250Y-6118000D02*
X11439250Y-6128000D01*
X11439250Y-6128000D02*
X11463250Y-6072000D01*
X11463250Y-6072000D02*
X11471250Y-6000000D01*
X11471250Y-3700000D02*
X11479250Y-3628000D01*
X11471250Y-6000000D02*
X11471250Y-3700000D01*
X11479250Y-3628000D02*
X11503250Y-3572000D01*
X11503250Y-3572000D02*
X11543250Y-3532000D01*
X11543250Y-3532000D02*
X11599250Y-3508000D01*
X11599250Y-3508000D02*
X11671250Y-3500000D01*
X11671250Y-3500000D02*
X15521250Y-3500000D01*
X15521250Y-3500000D02*
X15593250Y-3508000D01*
X15593250Y-3508000D02*
X15649250Y-3532000D01*
X15649250Y-3532000D02*
X15689250Y-3572000D01*
X15689250Y-3572000D02*
X15713250Y-3628000D01*
X15713250Y-3628000D02*
X15721250Y-3700000D01*
X15721250Y-3700000D02*
X15721250Y-6000000D01*
X15721250Y-6000000D02*
X15729250Y-6072000D01*
X15729250Y-6072000D02*
X15753250Y-6128000D01*
X15753250Y-6128000D02*
X15793250Y-6118000D01*
X15793250Y-6118000D02*
X15849250Y-6142000D01*
X15849250Y-6142000D02*
X15921250Y-6150000D01*
X15921250Y-6150000D02*
X17395000Y-6150000D01*
X16670000Y-8833000D02*
X16670000Y-8905000D01*
X16670000Y-8905000D02*
X16670000Y-10410000D01*
X16670000Y-10410000D02*
X16670000Y-10482000D01*
X16670000Y-10482000D02*
X16674500Y-10538000D01*
X16674500Y-8777000D02*
X16670000Y-8833000D01*
X16674500Y-10538000D02*
X16714500Y-10578000D01*
X16714500Y-8737000D02*
X16674500Y-8777000D01*
X16714500Y-10578000D02*
X16770500Y-10602000D01*
X16770500Y-8713000D02*
X16714500Y-8737000D01*
X16770500Y-10602000D02*
X16842500Y-10610000D01*
X16842500Y-8705000D02*
X16770500Y-8713000D01*
X16842500Y-10610000D02*
X16918750Y-10610000D01*
X16918750Y-10610000D02*
X16990750Y-10618000D01*
X16990750Y-10618000D02*
X17046750Y-10642000D01*
X17046750Y-10642000D02*
X17086750Y-10682000D01*
X17086750Y-10682000D02*
X17110750Y-10738000D01*
X17110750Y-10738000D02*
X17118750Y-10810000D01*
X17118750Y-10810000D02*
X17118750Y-12315000D01*
X17118750Y-12315000D02*
X17126750Y-12387000D01*
X17126750Y-12387000D02*
X17150750Y-12443000D01*
X17150750Y-12443000D02*
X17190750Y-12483000D01*
X17190750Y-12483000D02*
X17246750Y-12507000D01*
X17246750Y-12507000D02*
X17318750Y-12515000D01*
X17318750Y-12515000D02*
X17871250Y-12515000D01*
X17395000Y-6150000D02*
X17467000Y-6158000D01*
X17395000Y-8705000D02*
X16842500Y-8705000D01*
X17467000Y-6158000D02*
X17523000Y-6182000D01*
X17467000Y-8697000D02*
X17395000Y-8705000D01*
X17523000Y-6182000D02*
X17563000Y-6222000D01*
X17523000Y-8673000D02*
X17467000Y-8697000D01*
X17563000Y-6222000D02*
X17587000Y-6278000D01*
X17563000Y-8633000D02*
X17523000Y-8673000D01*
X17587000Y-6278000D02*
X17595000Y-6350000D01*
X17587000Y-8577000D02*
X17563000Y-8633000D01*
X17595000Y-6350000D02*
X17595000Y-8505000D01*
X17595000Y-8505000D02*
X17587000Y-8577000D01*
X17871250Y-12515000D02*
X17943250Y-12523000D01*
X17891250Y-16725000D02*
X3700000Y-16725000D01*
X17943250Y-12523000D02*
X17999250Y-12547000D01*
X17956050Y-16717800D02*
X17891250Y-16725000D01*
X17999250Y-12547000D02*
X18039250Y-12587000D01*
X18006450Y-16696200D02*
X17956050Y-16717800D01*
X18039250Y-12587000D02*
X18063250Y-12643000D01*
X18042450Y-16660200D02*
X18006450Y-16696200D01*
X18063250Y-12643000D02*
X18071250Y-12715000D01*
X18064050Y-16609800D02*
X18042450Y-16660200D01*
X18071250Y-12715000D02*
X18071250Y-14220000D01*
X18071250Y-14220000D02*
X18071250Y-14300000D01*
X18071250Y-14300000D02*
X18071250Y-14380000D01*
X18071250Y-14380000D02*
X18071250Y-14460000D01*
X18071250Y-14460000D02*
X18071250Y-14540000D01*
X18071250Y-14540000D02*
X18071250Y-14620000D01*
X18071250Y-14620000D02*
X18071250Y-16145000D01*
X18071250Y-16145000D02*
X18071250Y-16217000D01*
X18071250Y-16217000D02*
X18071250Y-16289000D01*
X18071250Y-16289000D02*
X18071250Y-16361000D01*
X18071250Y-16361000D02*
X18071250Y-16433000D01*
X18071250Y-16433000D02*
X18071250Y-16505000D01*
X18071250Y-16505000D02*
X18071250Y-16545000D01*
X18071250Y-16545000D02*
X18064050Y-16609800D01*
D11*
D12*
X5270000Y-7155000D02*
X5435000Y-7320000D01*
X5435000Y-7155000D02*
X5270000Y-7320000D01*
X5508130Y-12870000D02*
X5673130Y-13035000D01*
X5673130Y-12870000D02*
X5508130Y-13035000D01*
X5508130Y-14775000D02*
X5673130Y-14940000D01*
X5673130Y-14775000D02*
X5508130Y-14940000D01*
X5746250Y-9060000D02*
X5911250Y-9225000D01*
X5911250Y-9060000D02*
X5746250Y-9225000D01*
X5984380Y-10965000D02*
X6149380Y-11130000D01*
X6149380Y-10965000D02*
X5984380Y-11130000D01*
X7175000Y-7155000D02*
X7340000Y-7320000D01*
X7340000Y-7155000D02*
X7175000Y-7320000D01*
X7651250Y-12870000D02*
X7816250Y-13035000D01*
X7816250Y-12870000D02*
X7651250Y-13035000D01*
X7889380Y-14775000D02*
X8054380Y-14940000D01*
X8054380Y-14775000D02*
X7889380Y-14940000D01*
X8127500Y-9060000D02*
X8292500Y-9225000D01*
X8292500Y-9060000D02*
X8127500Y-9225000D01*
X8603750Y-10965000D02*
X8768750Y-11130000D01*
X8768750Y-10965000D02*
X8603750Y-11130000D01*
X9080000Y-7155000D02*
X9245000Y-7320000D01*
X9245000Y-7155000D02*
X9080000Y-7320000D01*
X9556250Y-12870000D02*
X9721250Y-13035000D01*
X9721250Y-12870000D02*
X9556250Y-13035000D01*
X10032500Y-9060000D02*
X10197500Y-9225000D01*
X10197500Y-9060000D02*
X10032500Y-9225000D01*
X10270630Y-14775000D02*
X10435630Y-14940000D01*
X10435630Y-14775000D02*
X10270630Y-14940000D01*
X10508750Y-10965000D02*
X10673750Y-11130000D01*
X10673750Y-10965000D02*
X10508750Y-11130000D01*
X10985000Y-7155000D02*
X11150000Y-7320000D01*
X11150000Y-7155000D02*
X10985000Y-7320000D01*
X11461250Y-12870000D02*
X11626250Y-13035000D01*
X11626250Y-12870000D02*
X11461250Y-13035000D01*
X11937500Y-9060000D02*
X12102500Y-9225000D01*
X12102500Y-9060000D02*
X11937500Y-9225000D01*
X12413750Y-10965000D02*
X12578750Y-11130000D01*
X12578750Y-10965000D02*
X12413750Y-11130000D01*
X12651880Y-14775000D02*
X12816880Y-14940000D01*
X12816880Y-14775000D02*
X12651880Y-14940000D01*
X12890000Y-7155000D02*
X13055000Y-7320000D01*
X13055000Y-7155000D02*
X12890000Y-7320000D01*
X13366250Y-12870000D02*
X13531250Y-13035000D01*
X13531250Y-12870000D02*
X13366250Y-13035000D01*
X13842500Y-9060000D02*
X14007500Y-9225000D01*
X14007500Y-9060000D02*
X13842500Y-9225000D01*
X14318750Y-10965000D02*
X14483750Y-11130000D01*
X14483750Y-10965000D02*
X14318750Y-11130000D01*
X14795000Y-7155000D02*
X14960000Y-7320000D01*
X14960000Y-7155000D02*
X14795000Y-7320000D01*
X14795000Y-14775000D02*
X14960000Y-14940000D01*
X14960000Y-14775000D02*
X14795000Y-14940000D01*
X15271250Y-12870000D02*
X15436250Y-13035000D01*
X15436250Y-12870000D02*
X15271250Y-13035000D01*
X15747500Y-9060000D02*
X15912500Y-9225000D01*
X15912500Y-9060000D02*
X15747500Y-9225000D01*
X16223750Y-10965000D02*
X16388750Y-11130000D01*
X16388750Y-10965000D02*
X16223750Y-11130000D01*
X16700000Y-7155000D02*
X16865000Y-7320000D01*
X16865000Y-7155000D02*
X16700000Y-7320000D01*
X16938130Y-14775000D02*
X17103130Y-14940000D01*
X17103130Y-14775000D02*
X16938130Y-14940000D01*
X17176250Y-12870000D02*
X17341250Y-13035000D01*
X17341250Y-12870000D02*
X17176250Y-13035000D01*
D13*
X4429500Y-7752500D02*
G75*
G02*
X4259500Y-7752500I-85000J0D01*
G01*
X4259500Y-7752500D02*
G75*
G02*
X4429500Y-7752500I85000J0D01*
G01*
X4667630Y-13467500D02*
G75*
G02*
X4497630Y-13467500I-85000J0D01*
G01*
X4497630Y-13467500D02*
G75*
G02*
X4667630Y-13467500I85000J0D01*
G01*
X4667630Y-15372500D02*
G75*
G02*
X4497630Y-15372500I-85000J0D01*
G01*
X4497630Y-15372500D02*
G75*
G02*
X4667630Y-15372500I85000J0D01*
G01*
X4905750Y-9657500D02*
G75*
G02*
X4735750Y-9657500I-85000J0D01*
G01*
X4735750Y-9657500D02*
G75*
G02*
X4905750Y-9657500I85000J0D01*
G01*
X5143880Y-11562500D02*
G75*
G02*
X4973880Y-11562500I-85000J0D01*
G01*
X4973880Y-11562500D02*
G75*
G02*
X5143880Y-11562500I85000J0D01*
G01*
X5445500Y-7752500D02*
G75*
G02*
X5275500Y-7752500I-85000J0D01*
G01*
X5275500Y-7752500D02*
G75*
G02*
X5445500Y-7752500I85000J0D01*
G01*
X5683630Y-13467500D02*
G75*
G02*
X5513630Y-13467500I-85000J0D01*
G01*
X5513630Y-13467500D02*
G75*
G02*
X5683630Y-13467500I85000J0D01*
G01*
X5683630Y-15372500D02*
G75*
G02*
X5513630Y-15372500I-85000J0D01*
G01*
X5513630Y-15372500D02*
G75*
G02*
X5683630Y-15372500I85000J0D01*
G01*
X5921750Y-9657500D02*
G75*
G02*
X5751750Y-9657500I-85000J0D01*
G01*
X5751750Y-9657500D02*
G75*
G02*
X5921750Y-9657500I85000J0D01*
G01*
X6159880Y-11562500D02*
G75*
G02*
X5989880Y-11562500I-85000J0D01*
G01*
X5989880Y-11562500D02*
G75*
G02*
X6159880Y-11562500I85000J0D01*
G01*
X6334500Y-7752500D02*
G75*
G02*
X6164500Y-7752500I-85000J0D01*
G01*
X6164500Y-7752500D02*
G75*
G02*
X6334500Y-7752500I85000J0D01*
G01*
X6810750Y-13467500D02*
G75*
G02*
X6640750Y-13467500I-85000J0D01*
G01*
X6640750Y-13467500D02*
G75*
G02*
X6810750Y-13467500I85000J0D01*
G01*
X7048880Y-15372500D02*
G75*
G02*
X6878880Y-15372500I-85000J0D01*
G01*
X6878880Y-15372500D02*
G75*
G02*
X7048880Y-15372500I85000J0D01*
G01*
X7287000Y-9657500D02*
G75*
G02*
X7117000Y-9657500I-85000J0D01*
G01*
X7117000Y-9657500D02*
G75*
G02*
X7287000Y-9657500I85000J0D01*
G01*
X7350500Y-7752500D02*
G75*
G02*
X7180500Y-7752500I-85000J0D01*
G01*
X7180500Y-7752500D02*
G75*
G02*
X7350500Y-7752500I85000J0D01*
G01*
X7763250Y-11562500D02*
G75*
G02*
X7593250Y-11562500I-85000J0D01*
G01*
X7593250Y-11562500D02*
G75*
G02*
X7763250Y-11562500I85000J0D01*
G01*
X7826750Y-13467500D02*
G75*
G02*
X7656750Y-13467500I-85000J0D01*
G01*
X7656750Y-13467500D02*
G75*
G02*
X7826750Y-13467500I85000J0D01*
G01*
X8064880Y-15372500D02*
G75*
G02*
X7894880Y-15372500I-85000J0D01*
G01*
X7894880Y-15372500D02*
G75*
G02*
X8064880Y-15372500I85000J0D01*
G01*
X8239500Y-7752500D02*
G75*
G02*
X8069500Y-7752500I-85000J0D01*
G01*
X8069500Y-7752500D02*
G75*
G02*
X8239500Y-7752500I85000J0D01*
G01*
X8303000Y-9657500D02*
G75*
G02*
X8133000Y-9657500I-85000J0D01*
G01*
X8133000Y-9657500D02*
G75*
G02*
X8303000Y-9657500I85000J0D01*
G01*
X8715750Y-13467500D02*
G75*
G02*
X8545750Y-13467500I-85000J0D01*
G01*
X8545750Y-13467500D02*
G75*
G02*
X8715750Y-13467500I85000J0D01*
G01*
X8779250Y-11562500D02*
G75*
G02*
X8609250Y-11562500I-85000J0D01*
G01*
X8609250Y-11562500D02*
G75*
G02*
X8779250Y-11562500I85000J0D01*
G01*
X9192000Y-9657500D02*
G75*
G02*
X9022000Y-9657500I-85000J0D01*
G01*
X9022000Y-9657500D02*
G75*
G02*
X9192000Y-9657500I85000J0D01*
G01*
X9255500Y-7752500D02*
G75*
G02*
X9085500Y-7752500I-85000J0D01*
G01*
X9085500Y-7752500D02*
G75*
G02*
X9255500Y-7752500I85000J0D01*
G01*
X9430130Y-15372500D02*
G75*
G02*
X9260130Y-15372500I-85000J0D01*
G01*
X9260130Y-15372500D02*
G75*
G02*
X9430130Y-15372500I85000J0D01*
G01*
X9668250Y-11562500D02*
G75*
G02*
X9498250Y-11562500I-85000J0D01*
G01*
X9498250Y-11562500D02*
G75*
G02*
X9668250Y-11562500I85000J0D01*
G01*
X9731750Y-13467500D02*
G75*
G02*
X9561750Y-13467500I-85000J0D01*
G01*
X9561750Y-13467500D02*
G75*
G02*
X9731750Y-13467500I85000J0D01*
G01*
X10144500Y-7752500D02*
G75*
G02*
X9974500Y-7752500I-85000J0D01*
G01*
X9974500Y-7752500D02*
G75*
G02*
X10144500Y-7752500I85000J0D01*
G01*
X10208000Y-9657500D02*
G75*
G02*
X10038000Y-9657500I-85000J0D01*
G01*
X10038000Y-9657500D02*
G75*
G02*
X10208000Y-9657500I85000J0D01*
G01*
X10446130Y-15372500D02*
G75*
G02*
X10276130Y-15372500I-85000J0D01*
G01*
X10276130Y-15372500D02*
G75*
G02*
X10446130Y-15372500I85000J0D01*
G01*
X10620750Y-13467500D02*
G75*
G02*
X10450750Y-13467500I-85000J0D01*
G01*
X10450750Y-13467500D02*
G75*
G02*
X10620750Y-13467500I85000J0D01*
G01*
X10684250Y-11562500D02*
G75*
G02*
X10514250Y-11562500I-85000J0D01*
G01*
X10514250Y-11562500D02*
G75*
G02*
X10684250Y-11562500I85000J0D01*
G01*
X11097000Y-9657500D02*
G75*
G02*
X10927000Y-9657500I-85000J0D01*
G01*
X10927000Y-9657500D02*
G75*
G02*
X11097000Y-9657500I85000J0D01*
G01*
X11160500Y-7752500D02*
G75*
G02*
X10990500Y-7752500I-85000J0D01*
G01*
X10990500Y-7752500D02*
G75*
G02*
X11160500Y-7752500I85000J0D01*
G01*
X11573250Y-11562500D02*
G75*
G02*
X11403250Y-11562500I-85000J0D01*
G01*
X11403250Y-11562500D02*
G75*
G02*
X11573250Y-11562500I85000J0D01*
G01*
X11636750Y-13467500D02*
G75*
G02*
X11466750Y-13467500I-85000J0D01*
G01*
X11466750Y-13467500D02*
G75*
G02*
X11636750Y-13467500I85000J0D01*
G01*
X11811380Y-15372500D02*
G75*
G02*
X11641380Y-15372500I-85000J0D01*
G01*
X11641380Y-15372500D02*
G75*
G02*
X11811380Y-15372500I85000J0D01*
G01*
X12049500Y-7752500D02*
G75*
G02*
X11879500Y-7752500I-85000J0D01*
G01*
X11879500Y-7752500D02*
G75*
G02*
X12049500Y-7752500I85000J0D01*
G01*
X12113000Y-9657500D02*
G75*
G02*
X11943000Y-9657500I-85000J0D01*
G01*
X11943000Y-9657500D02*
G75*
G02*
X12113000Y-9657500I85000J0D01*
G01*
X12525750Y-13467500D02*
G75*
G02*
X12355750Y-13467500I-85000J0D01*
G01*
X12355750Y-13467500D02*
G75*
G02*
X12525750Y-13467500I85000J0D01*
G01*
X12589250Y-11562500D02*
G75*
G02*
X12419250Y-11562500I-85000J0D01*
G01*
X12419250Y-11562500D02*
G75*
G02*
X12589250Y-11562500I85000J0D01*
G01*
X12827380Y-15372500D02*
G75*
G02*
X12657380Y-15372500I-85000J0D01*
G01*
X12657380Y-15372500D02*
G75*
G02*
X12827380Y-15372500I85000J0D01*
G01*
X13002000Y-9657500D02*
G75*
G02*
X12832000Y-9657500I-85000J0D01*
G01*
X12832000Y-9657500D02*
G75*
G02*
X13002000Y-9657500I85000J0D01*
G01*
X13065500Y-7752500D02*
G75*
G02*
X12895500Y-7752500I-85000J0D01*
G01*
X12895500Y-7752500D02*
G75*
G02*
X13065500Y-7752500I85000J0D01*
G01*
X13478250Y-11562500D02*
G75*
G02*
X13308250Y-11562500I-85000J0D01*
G01*
X13308250Y-11562500D02*
G75*
G02*
X13478250Y-11562500I85000J0D01*
G01*
X13541750Y-13467500D02*
G75*
G02*
X13371750Y-13467500I-85000J0D01*
G01*
X13371750Y-13467500D02*
G75*
G02*
X13541750Y-13467500I85000J0D01*
G01*
X13954500Y-7752500D02*
G75*
G02*
X13784500Y-7752500I-85000J0D01*
G01*
X13784500Y-7752500D02*
G75*
G02*
X13954500Y-7752500I85000J0D01*
G01*
X13954500Y-15372500D02*
G75*
G02*
X13784500Y-15372500I-85000J0D01*
G01*
X13784500Y-15372500D02*
G75*
G02*
X13954500Y-15372500I85000J0D01*
G01*
X14018000Y-9657500D02*
G75*
G02*
X13848000Y-9657500I-85000J0D01*
G01*
X13848000Y-9657500D02*
G75*
G02*
X14018000Y-9657500I85000J0D01*
G01*
X14430750Y-13467500D02*
G75*
G02*
X14260750Y-13467500I-85000J0D01*
G01*
X14260750Y-13467500D02*
G75*
G02*
X14430750Y-13467500I85000J0D01*
G01*
X14494250Y-11562500D02*
G75*
G02*
X14324250Y-11562500I-85000J0D01*
G01*
X14324250Y-11562500D02*
G75*
G02*
X14494250Y-11562500I85000J0D01*
G01*
X14907000Y-9657500D02*
G75*
G02*
X14737000Y-9657500I-85000J0D01*
G01*
X14737000Y-9657500D02*
G75*
G02*
X14907000Y-9657500I85000J0D01*
G01*
X14970500Y-7752500D02*
G75*
G02*
X14800500Y-7752500I-85000J0D01*
G01*
X14800500Y-7752500D02*
G75*
G02*
X14970500Y-7752500I85000J0D01*
G01*
X14970500Y-15372500D02*
G75*
G02*
X14800500Y-15372500I-85000J0D01*
G01*
X14800500Y-15372500D02*
G75*
G02*
X14970500Y-15372500I85000J0D01*
G01*
X15383250Y-11562500D02*
G75*
G02*
X15213250Y-11562500I-85000J0D01*
G01*
X15213250Y-11562500D02*
G75*
G02*
X15383250Y-11562500I85000J0D01*
G01*
X15446750Y-13467500D02*
G75*
G02*
X15276750Y-13467500I-85000J0D01*
G01*
X15276750Y-13467500D02*
G75*
G02*
X15446750Y-13467500I85000J0D01*
G01*
X15859500Y-7752500D02*
G75*
G02*
X15689500Y-7752500I-85000J0D01*
G01*
X15689500Y-7752500D02*
G75*
G02*
X15859500Y-7752500I85000J0D01*
G01*
X15923000Y-9657500D02*
G75*
G02*
X15753000Y-9657500I-85000J0D01*
G01*
X15753000Y-9657500D02*
G75*
G02*
X15923000Y-9657500I85000J0D01*
G01*
X16097630Y-15372500D02*
G75*
G02*
X15927630Y-15372500I-85000J0D01*
G01*
X15927630Y-15372500D02*
G75*
G02*
X16097630Y-15372500I85000J0D01*
G01*
X16335750Y-13467500D02*
G75*
G02*
X16165750Y-13467500I-85000J0D01*
G01*
X16165750Y-13467500D02*
G75*
G02*
X16335750Y-13467500I85000J0D01*
G01*
X16399250Y-11562500D02*
G75*
G02*
X16229250Y-11562500I-85000J0D01*
G01*
X16229250Y-11562500D02*
G75*
G02*
X16399250Y-11562500I85000J0D01*
G01*
X16875500Y-7752500D02*
G75*
G02*
X16705500Y-7752500I-85000J0D01*
G01*
X16705500Y-7752500D02*
G75*
G02*
X16875500Y-7752500I85000J0D01*
G01*
X17113630Y-15372500D02*
G75*
G02*
X16943630Y-15372500I-85000J0D01*
G01*
X16943630Y-15372500D02*
G75*
G02*
X17113630Y-15372500I85000J0D01*
G01*
X17351750Y-13467500D02*
G75*
G02*
X17181750Y-13467500I-85000J0D01*
G01*
X17181750Y-13467500D02*
G75*
G02*
X17351750Y-13467500I85000J0D01*
G01*
D14*
X12341250Y-4790000D02*
X12341250Y-5010000D01*
X12231250Y-4900000D02*
X12451250Y-4900000D01*
D10*
X12271250Y-5010000D02*
X12411250Y-5010000D01*
X12411250Y-4790000D02*
G75*
G02*
X12411250Y-5010000I0J-110000D01*
G01*
X12411250Y-4790000D02*
X12271250Y-4790000D01*
X12271250Y-4790000D02*
G75*
G03*
X12271250Y-5010000I0J-110000D01*
G01*
D15*
X4458567Y-8238567D02*
X4458567Y-8026433D01*
X4246433Y-8026433D01*
X4246433Y-8238567D01*
X4458567Y-8238567D01*
X4696697Y-13953567D02*
X4696697Y-13741433D01*
X4484563Y-13741433D01*
X4484563Y-13953567D01*
X4696697Y-13953567D01*
X4696697Y-15858567D02*
X4696697Y-15646433D01*
X4484563Y-15646433D01*
X4484563Y-15858567D01*
X4696697Y-15858567D01*
X4934817Y-10143567D02*
X4934817Y-9931433D01*
X4722683Y-9931433D01*
X4722683Y-10143567D01*
X4934817Y-10143567D01*
X4958567Y-8448567D02*
X4958567Y-8236433D01*
X4746433Y-8236433D01*
X4746433Y-8448567D01*
X4958567Y-8448567D01*
X5172947Y-12048567D02*
X5172947Y-11836433D01*
X4960813Y-11836433D01*
X4960813Y-12048567D01*
X5172947Y-12048567D01*
X5196697Y-14163567D02*
X5196697Y-13951433D01*
X4984563Y-13951433D01*
X4984563Y-14163567D01*
X5196697Y-14163567D01*
X5196697Y-16068567D02*
X5196697Y-15856433D01*
X4984563Y-15856433D01*
X4984563Y-16068567D01*
X5196697Y-16068567D01*
X5434817Y-10353567D02*
X5434817Y-10141433D01*
X5222683Y-10141433D01*
X5222683Y-10353567D01*
X5434817Y-10353567D01*
X5672947Y-12258567D02*
X5672947Y-12046433D01*
X5460813Y-12046433D01*
X5460813Y-12258567D01*
X5672947Y-12258567D01*
X6258067Y-15238067D02*
X6258067Y-15025933D01*
X6045933Y-15025933D01*
X6045933Y-15238067D01*
X6258067Y-15238067D01*
X6363567Y-8238567D02*
X6363567Y-8026433D01*
X6151433Y-8026433D01*
X6151433Y-8238567D01*
X6363567Y-8238567D01*
X6409067Y-10309067D02*
X6409067Y-10096933D01*
X6196933Y-10096933D01*
X6196933Y-10309067D01*
X6409067Y-10309067D01*
X6759067Y-12399067D02*
X6759067Y-12186933D01*
X6546933Y-12186933D01*
X6546933Y-12399067D01*
X6759067Y-12399067D01*
X6839817Y-13953567D02*
X6839817Y-13741433D01*
X6627683Y-13741433D01*
X6627683Y-13953567D01*
X6839817Y-13953567D01*
X6863567Y-8448567D02*
X6863567Y-8236433D01*
X6651433Y-8236433D01*
X6651433Y-8448567D01*
X6863567Y-8448567D01*
X7077947Y-15858567D02*
X7077947Y-15646433D01*
X6865813Y-15646433D01*
X6865813Y-15858567D01*
X7077947Y-15858567D01*
X7316067Y-10143567D02*
X7316067Y-9931433D01*
X7103933Y-9931433D01*
X7103933Y-10143567D01*
X7316067Y-10143567D01*
X7339817Y-14163567D02*
X7339817Y-13951433D01*
X7127683Y-13951433D01*
X7127683Y-14163567D01*
X7339817Y-14163567D01*
X7577947Y-16068567D02*
X7577947Y-15856433D01*
X7365813Y-15856433D01*
X7365813Y-16068567D01*
X7577947Y-16068567D01*
X7792317Y-12048567D02*
X7792317Y-11836433D01*
X7580183Y-11836433D01*
X7580183Y-12048567D01*
X7792317Y-12048567D01*
X7816067Y-10353567D02*
X7816067Y-10141433D01*
X7603933Y-10141433D01*
X7603933Y-10353567D01*
X7816067Y-10353567D01*
X8268567Y-8238567D02*
X8268567Y-8026433D01*
X8056433Y-8026433D01*
X8056433Y-8238567D01*
X8268567Y-8238567D01*
X8292317Y-12258567D02*
X8292317Y-12046433D01*
X8080183Y-12046433D01*
X8080183Y-12258567D01*
X8292317Y-12258567D01*
X8744817Y-13953567D02*
X8744817Y-13741433D01*
X8532683Y-13741433D01*
X8532683Y-13953567D01*
X8744817Y-13953567D01*
X8768567Y-8448567D02*
X8768567Y-8236433D01*
X8556433Y-8236433D01*
X8556433Y-8448567D01*
X8768567Y-8448567D01*
X9221067Y-10143567D02*
X9221067Y-9931433D01*
X9008933Y-9931433D01*
X9008933Y-10143567D01*
X9221067Y-10143567D01*
X9244817Y-14163567D02*
X9244817Y-13951433D01*
X9032683Y-13951433D01*
X9032683Y-14163567D01*
X9244817Y-14163567D01*
X9459197Y-15858567D02*
X9459197Y-15646433D01*
X9247063Y-15646433D01*
X9247063Y-15858567D01*
X9459197Y-15858567D01*
X9697317Y-12048567D02*
X9697317Y-11836433D01*
X9485183Y-11836433D01*
X9485183Y-12048567D01*
X9697317Y-12048567D01*
X9721067Y-10353567D02*
X9721067Y-10141433D01*
X9508933Y-10141433D01*
X9508933Y-10353567D01*
X9721067Y-10353567D01*
X9959197Y-16068567D02*
X9959197Y-15856433D01*
X9747063Y-15856433D01*
X9747063Y-16068567D01*
X9959197Y-16068567D01*
X10173567Y-8238567D02*
X10173567Y-8026433D01*
X9961433Y-8026433D01*
X9961433Y-8238567D01*
X10173567Y-8238567D01*
X10197317Y-12258567D02*
X10197317Y-12046433D01*
X9985183Y-12046433D01*
X9985183Y-12258567D01*
X10197317Y-12258567D01*
X10649817Y-13953567D02*
X10649817Y-13741433D01*
X10437683Y-13741433D01*
X10437683Y-13953567D01*
X10649817Y-13953567D01*
X10673567Y-8448567D02*
X10673567Y-8236433D01*
X10461433Y-8236433D01*
X10461433Y-8448567D01*
X10673567Y-8448567D01*
X11027067Y-12399067D02*
X11027067Y-12186933D01*
X10814933Y-12186933D01*
X10814933Y-12399067D01*
X11027067Y-12399067D01*
X11027067Y-15238067D02*
X11027067Y-15025933D01*
X10814933Y-15025933D01*
X10814933Y-15238067D01*
X11027067Y-15238067D01*
X11126067Y-10143567D02*
X11126067Y-9931433D01*
X10913933Y-9931433D01*
X10913933Y-10143567D01*
X11126067Y-10143567D01*
X11149817Y-14163567D02*
X11149817Y-13951433D01*
X10937683Y-13951433D01*
X10937683Y-14163567D01*
X11149817Y-14163567D01*
X11602317Y-12048567D02*
X11602317Y-11836433D01*
X11390183Y-11836433D01*
X11390183Y-12048567D01*
X11602317Y-12048567D01*
X11626067Y-10353567D02*
X11626067Y-10141433D01*
X11413933Y-10141433D01*
X11413933Y-10353567D01*
X11626067Y-10353567D01*
X11840447Y-15858567D02*
X11840447Y-15646433D01*
X11628313Y-15646433D01*
X11628313Y-15858567D01*
X11840447Y-15858567D01*
X12078567Y-8238567D02*
X12078567Y-8026433D01*
X11866433Y-8026433D01*
X11866433Y-8238567D01*
X12078567Y-8238567D01*
X12102317Y-12258567D02*
X12102317Y-12046433D01*
X11890183Y-12046433D01*
X11890183Y-12258567D01*
X12102317Y-12258567D01*
X12340447Y-16068567D02*
X12340447Y-15856433D01*
X12128313Y-15856433D01*
X12128313Y-16068567D01*
X12340447Y-16068567D01*
X12554817Y-13953567D02*
X12554817Y-13741433D01*
X12342683Y-13741433D01*
X12342683Y-13953567D01*
X12554817Y-13953567D01*
X12577067Y-9209067D02*
X12577067Y-8996933D01*
X12364933Y-8996933D01*
X12364933Y-9209067D01*
X12577067Y-9209067D01*
X12578567Y-8448567D02*
X12578567Y-8236433D01*
X12366433Y-8236433D01*
X12366433Y-8448567D01*
X12578567Y-8448567D01*
X13031067Y-10143567D02*
X13031067Y-9931433D01*
X12818933Y-9931433D01*
X12818933Y-10143567D01*
X13031067Y-10143567D01*
X13054817Y-14163567D02*
X13054817Y-13951433D01*
X12842683Y-13951433D01*
X12842683Y-14163567D01*
X13054817Y-14163567D01*
X13507317Y-12048567D02*
X13507317Y-11836433D01*
X13295183Y-11836433D01*
X13295183Y-12048567D01*
X13507317Y-12048567D01*
X13531067Y-10353567D02*
X13531067Y-10141433D01*
X13318933Y-10141433D01*
X13318933Y-10353567D01*
X13531067Y-10353567D01*
X13846067Y-14338067D02*
X13846067Y-14125933D01*
X13633933Y-14125933D01*
X13633933Y-14338067D01*
X13846067Y-14338067D01*
X13983567Y-8238567D02*
X13983567Y-8026433D01*
X13771433Y-8026433D01*
X13771433Y-8238567D01*
X13983567Y-8238567D01*
X13983567Y-15858567D02*
X13983567Y-15646433D01*
X13771433Y-15646433D01*
X13771433Y-15858567D01*
X13983567Y-15858567D01*
X14007317Y-12258567D02*
X14007317Y-12046433D01*
X13795183Y-12046433D01*
X13795183Y-12258567D01*
X14007317Y-12258567D01*
X14459817Y-13953567D02*
X14459817Y-13741433D01*
X14247683Y-13741433D01*
X14247683Y-13953567D01*
X14459817Y-13953567D01*
X14483567Y-8448567D02*
X14483567Y-8236433D01*
X14271433Y-8236433D01*
X14271433Y-8448567D01*
X14483567Y-8448567D01*
X14483567Y-16068567D02*
X14483567Y-15856433D01*
X14271433Y-15856433D01*
X14271433Y-16068567D01*
X14483567Y-16068567D01*
X14646067Y-9159067D02*
X14646067Y-8946933D01*
X14433933Y-8946933D01*
X14433933Y-9159067D01*
X14646067Y-9159067D01*
X14796067Y-12399067D02*
X14796067Y-12186933D01*
X14583933Y-12186933D01*
X14583933Y-12399067D01*
X14796067Y-12399067D01*
X14936067Y-10143567D02*
X14936067Y-9931433D01*
X14723933Y-9931433D01*
X14723933Y-10143567D01*
X14936067Y-10143567D01*
X14959817Y-14163567D02*
X14959817Y-13951433D01*
X14747683Y-13951433D01*
X14747683Y-14163567D01*
X14959817Y-14163567D01*
X15412317Y-12048567D02*
X15412317Y-11836433D01*
X15200183Y-11836433D01*
X15200183Y-12048567D01*
X15412317Y-12048567D01*
X15436067Y-10353567D02*
X15436067Y-10141433D01*
X15223933Y-10141433D01*
X15223933Y-10353567D01*
X15436067Y-10353567D01*
X15888567Y-8238567D02*
X15888567Y-8026433D01*
X15676433Y-8026433D01*
X15676433Y-8238567D01*
X15888567Y-8238567D01*
X15912317Y-12258567D02*
X15912317Y-12046433D01*
X15700183Y-12046433D01*
X15700183Y-12258567D01*
X15912317Y-12258567D01*
X16126697Y-15858567D02*
X16126697Y-15646433D01*
X15914563Y-15646433D01*
X15914563Y-15858567D01*
X16126697Y-15858567D01*
X16364817Y-13953567D02*
X16364817Y-13741433D01*
X16152683Y-13741433D01*
X16152683Y-13953567D01*
X16364817Y-13953567D01*
X16388567Y-8448567D02*
X16388567Y-8236433D01*
X16176433Y-8236433D01*
X16176433Y-8448567D01*
X16388567Y-8448567D01*
X16626697Y-16068567D02*
X16626697Y-15856433D01*
X16414563Y-15856433D01*
X16414563Y-16068567D01*
X16626697Y-16068567D01*
X16864817Y-14163567D02*
X16864817Y-13951433D01*
X16652683Y-13951433D01*
X16652683Y-14163567D01*
X16864817Y-14163567D01*
D16*
X4852500Y-8002500D02*
X5102500Y-7752500D01*
X4852500Y-7502500D01*
X4602500Y-7752500D01*
X4852500Y-8002500D01*
X5090630Y-13717500D02*
X5340630Y-13467500D01*
X5090630Y-13217500D01*
X4840630Y-13467500D01*
X5090630Y-13717500D01*
X5090630Y-15622500D02*
X5340630Y-15372500D01*
X5090630Y-15122500D01*
X4840630Y-15372500D01*
X5090630Y-15622500D01*
X5328750Y-9907500D02*
X5578750Y-9657500D01*
X5328750Y-9407500D01*
X5078750Y-9657500D01*
X5328750Y-9907500D01*
X5566880Y-11812500D02*
X5816880Y-11562500D01*
X5566880Y-11312500D01*
X5316880Y-11562500D01*
X5566880Y-11812500D01*
X6757500Y-8002500D02*
X7007500Y-7752500D01*
X6757500Y-7502500D01*
X6507500Y-7752500D01*
X6757500Y-8002500D01*
X7233750Y-13717500D02*
X7483750Y-13467500D01*
X7233750Y-13217500D01*
X6983750Y-13467500D01*
X7233750Y-13717500D01*
X7471880Y-15622500D02*
X7721880Y-15372500D01*
X7471880Y-15122500D01*
X7221880Y-15372500D01*
X7471880Y-15622500D01*
X7710000Y-9907500D02*
X7960000Y-9657500D01*
X7710000Y-9407500D01*
X7460000Y-9657500D01*
X7710000Y-9907500D01*
X8186250Y-11812500D02*
X8436250Y-11562500D01*
X8186250Y-11312500D01*
X7936250Y-11562500D01*
X8186250Y-11812500D01*
X8662500Y-8002500D02*
X8912500Y-7752500D01*
X8662500Y-7502500D01*
X8412500Y-7752500D01*
X8662500Y-8002500D01*
X9138750Y-13717500D02*
X9388750Y-13467500D01*
X9138750Y-13217500D01*
X8888750Y-13467500D01*
X9138750Y-13717500D01*
X9615000Y-9907500D02*
X9865000Y-9657500D01*
X9615000Y-9407500D01*
X9365000Y-9657500D01*
X9615000Y-9907500D01*
X9853130Y-15622500D02*
X10103130Y-15372500D01*
X9853130Y-15122500D01*
X9603130Y-15372500D01*
X9853130Y-15622500D01*
X10091250Y-11812500D02*
X10341250Y-11562500D01*
X10091250Y-11312500D01*
X9841250Y-11562500D01*
X10091250Y-11812500D01*
X10567500Y-8002500D02*
X10817500Y-7752500D01*
X10567500Y-7502500D01*
X10317500Y-7752500D01*
X10567500Y-8002500D01*
X11043750Y-13717500D02*
X11293750Y-13467500D01*
X11043750Y-13217500D01*
X10793750Y-13467500D01*
X11043750Y-13717500D01*
X11520000Y-9907500D02*
X11770000Y-9657500D01*
X11520000Y-9407500D01*
X11270000Y-9657500D01*
X11520000Y-9907500D01*
X11996250Y-11812500D02*
X12246250Y-11562500D01*
X11996250Y-11312500D01*
X11746250Y-11562500D01*
X11996250Y-11812500D01*
X12234380Y-15622500D02*
X12484380Y-15372500D01*
X12234380Y-15122500D01*
X11984380Y-15372500D01*
X12234380Y-15622500D01*
X12472500Y-8002500D02*
X12722500Y-7752500D01*
X12472500Y-7502500D01*
X12222500Y-7752500D01*
X12472500Y-8002500D01*
X12948750Y-13717500D02*
X13198750Y-13467500D01*
X12948750Y-13217500D01*
X12698750Y-13467500D01*
X12948750Y-13717500D01*
X13425000Y-9907500D02*
X13675000Y-9657500D01*
X13425000Y-9407500D01*
X13175000Y-9657500D01*
X13425000Y-9907500D01*
X13901250Y-11812500D02*
X14151250Y-11562500D01*
X13901250Y-11312500D01*
X13651250Y-11562500D01*
X13901250Y-11812500D01*
X14377500Y-8002500D02*
X14627500Y-7752500D01*
X14377500Y-7502500D01*
X14127500Y-7752500D01*
X14377500Y-8002500D01*
X14377500Y-15622500D02*
X14627500Y-15372500D01*
X14377500Y-15122500D01*
X14127500Y-15372500D01*
X14377500Y-15622500D01*
X14853750Y-13717500D02*
X15103750Y-13467500D01*
X14853750Y-13217500D01*
X14603750Y-13467500D01*
X14853750Y-13717500D01*
X15330000Y-9907500D02*
X15580000Y-9657500D01*
X15330000Y-9407500D01*
X15080000Y-9657500D01*
X15330000Y-9907500D01*
X15806250Y-11812500D02*
X16056250Y-11562500D01*
X15806250Y-11312500D01*
X15556250Y-11562500D01*
X15806250Y-11812500D01*
X16282500Y-8002500D02*
X16532500Y-7752500D01*
X16282500Y-7502500D01*
X16032500Y-7752500D01*
X16282500Y-8002500D01*
X16520630Y-15622500D02*
X16770630Y-15372500D01*
X16520630Y-15122500D01*
X16270630Y-15372500D01*
X16520630Y-15622500D01*
X16758750Y-13717500D02*
X17008750Y-13467500D01*
X16758750Y-13217500D01*
X16508750Y-13467500D01*
X16758750Y-13717500D01*
D11*
X3755777Y-17041484D02*
X3755777Y-16841484D01*
X3755777Y-16841484D02*
X3803396Y-16841484D01*
X3803396Y-16841484D02*
X3831967Y-16851008D01*
X3831967Y-16851008D02*
X3851015Y-16870055D01*
X3851015Y-16870055D02*
X3860539Y-16889103D01*
X3860539Y-16889103D02*
X3870062Y-16927198D01*
X3870062Y-16927198D02*
X3870062Y-16955770D01*
X3870062Y-16955770D02*
X3860539Y-16993865D01*
X3860539Y-16993865D02*
X3851015Y-17012912D01*
X3851015Y-17012912D02*
X3831967Y-17031960D01*
X3831967Y-17031960D02*
X3803396Y-17041484D01*
X3803396Y-17041484D02*
X3755777Y-17041484D01*
X3955777Y-17041484D02*
X3955777Y-16908150D01*
X3955777Y-16946246D02*
X3965301Y-16927198D01*
X3965301Y-16927198D02*
X3974824Y-16917674D01*
X3974824Y-16917674D02*
X3993872Y-16908150D01*
X3993872Y-16908150D02*
X4012920Y-16908150D01*
X4079586Y-17041484D02*
X4079586Y-16908150D01*
X4079586Y-16841484D02*
X4070062Y-16851008D01*
X4070062Y-16851008D02*
X4079586Y-16860531D01*
X4079586Y-16860531D02*
X4089110Y-16851008D01*
X4089110Y-16851008D02*
X4079586Y-16841484D01*
X4079586Y-16841484D02*
X4079586Y-16860531D01*
X4203396Y-17041484D02*
X4184348Y-17031960D01*
X4184348Y-17031960D02*
X4174824Y-17012912D01*
X4174824Y-17012912D02*
X4174824Y-16841484D01*
X4308158Y-17041484D02*
X4289110Y-17031960D01*
X4289110Y-17031960D02*
X4279586Y-17012912D01*
X4279586Y-17012912D02*
X4279586Y-16841484D01*
X4536729Y-17041484D02*
X4536729Y-16841484D01*
X4536729Y-16841484D02*
X4603396Y-16984341D01*
X4603396Y-16984341D02*
X4670063Y-16841484D01*
X4670063Y-16841484D02*
X4670063Y-17041484D01*
X4851015Y-17041484D02*
X4851015Y-16936722D01*
X4851015Y-16936722D02*
X4841491Y-16917674D01*
X4841491Y-16917674D02*
X4822444Y-16908150D01*
X4822444Y-16908150D02*
X4784348Y-16908150D01*
X4784348Y-16908150D02*
X4765301Y-16917674D01*
X4851015Y-17031960D02*
X4831967Y-17041484D01*
X4831967Y-17041484D02*
X4784348Y-17041484D01*
X4784348Y-17041484D02*
X4765301Y-17031960D01*
X4765301Y-17031960D02*
X4755777Y-17012912D01*
X4755777Y-17012912D02*
X4755777Y-16993865D01*
X4755777Y-16993865D02*
X4765301Y-16974817D01*
X4765301Y-16974817D02*
X4784348Y-16965293D01*
X4784348Y-16965293D02*
X4831967Y-16965293D01*
X4831967Y-16965293D02*
X4851015Y-16955770D01*
X4946253Y-16908150D02*
X4946253Y-17108150D01*
X4946253Y-16917674D02*
X4965301Y-16908150D01*
X4965301Y-16908150D02*
X5003396Y-16908150D01*
X5003396Y-16908150D02*
X5022444Y-16917674D01*
X5022444Y-16917674D02*
X5031967Y-16927198D01*
X5031967Y-16927198D02*
X5041491Y-16946246D01*
X5041491Y-16946246D02*
X5041491Y-17003389D01*
X5041491Y-17003389D02*
X5031967Y-17022436D01*
X5031967Y-17022436D02*
X5022444Y-17031960D01*
X5022444Y-17031960D02*
X5003396Y-17041484D01*
X5003396Y-17041484D02*
X4965301Y-17041484D01*
X4965301Y-17041484D02*
X4946253Y-17031960D01*
X5127205Y-17022436D02*
X5136729Y-17031960D01*
X5136729Y-17031960D02*
X5127205Y-17041484D01*
X5127205Y-17041484D02*
X5117682Y-17031960D01*
X5117682Y-17031960D02*
X5127205Y-17022436D01*
X5127205Y-17022436D02*
X5127205Y-17041484D01*
X5127205Y-16917674D02*
X5136729Y-16927198D01*
X5136729Y-16927198D02*
X5127205Y-16936722D01*
X5127205Y-16936722D02*
X5117682Y-16927198D01*
X5117682Y-16927198D02*
X5127205Y-16917674D01*
X5127205Y-16917674D02*
X5127205Y-16936722D01*
D12*
X3330000Y-17287500D02*
X3495000Y-17452500D01*
X3495000Y-17287500D02*
X3330000Y-17452500D01*
D11*
X3860539Y-17461484D02*
X3746253Y-17461484D01*
X3803396Y-17461484D02*
X3803396Y-17261484D01*
X3803396Y-17261484D02*
X3784348Y-17290055D01*
X3784348Y-17290055D02*
X3765301Y-17309103D01*
X3765301Y-17309103D02*
X3746253Y-17318627D01*
X3946253Y-17442436D02*
X3955777Y-17451960D01*
X3955777Y-17451960D02*
X3946253Y-17461484D01*
X3946253Y-17461484D02*
X3936729Y-17451960D01*
X3936729Y-17451960D02*
X3946253Y-17442436D01*
X3946253Y-17442436D02*
X3946253Y-17461484D01*
X4127205Y-17261484D02*
X4089110Y-17261484D01*
X4089110Y-17261484D02*
X4070062Y-17271008D01*
X4070062Y-17271008D02*
X4060539Y-17280531D01*
X4060539Y-17280531D02*
X4041491Y-17309103D01*
X4041491Y-17309103D02*
X4031967Y-17347198D01*
X4031967Y-17347198D02*
X4031967Y-17423389D01*
X4031967Y-17423389D02*
X4041491Y-17442436D01*
X4041491Y-17442436D02*
X4051015Y-17451960D01*
X4051015Y-17451960D02*
X4070062Y-17461484D01*
X4070062Y-17461484D02*
X4108158Y-17461484D01*
X4108158Y-17461484D02*
X4127205Y-17451960D01*
X4127205Y-17451960D02*
X4136729Y-17442436D01*
X4136729Y-17442436D02*
X4146253Y-17423389D01*
X4146253Y-17423389D02*
X4146253Y-17375770D01*
X4146253Y-17375770D02*
X4136729Y-17356722D01*
X4136729Y-17356722D02*
X4127205Y-17347198D01*
X4127205Y-17347198D02*
X4108158Y-17337674D01*
X4108158Y-17337674D02*
X4070062Y-17337674D01*
X4070062Y-17337674D02*
X4051015Y-17347198D01*
X4051015Y-17347198D02*
X4041491Y-17356722D01*
X4041491Y-17356722D02*
X4031967Y-17375770D01*
X4327205Y-17261484D02*
X4231967Y-17261484D01*
X4231967Y-17261484D02*
X4222444Y-17356722D01*
X4222444Y-17356722D02*
X4231967Y-17347198D01*
X4231967Y-17347198D02*
X4251015Y-17337674D01*
X4251015Y-17337674D02*
X4298634Y-17337674D01*
X4298634Y-17337674D02*
X4317682Y-17347198D01*
X4317682Y-17347198D02*
X4327205Y-17356722D01*
X4327205Y-17356722D02*
X4336729Y-17375770D01*
X4336729Y-17375770D02*
X4336729Y-17423389D01*
X4336729Y-17423389D02*
X4327205Y-17442436D01*
X4327205Y-17442436D02*
X4317682Y-17451960D01*
X4317682Y-17451960D02*
X4298634Y-17461484D01*
X4298634Y-17461484D02*
X4251015Y-17461484D01*
X4251015Y-17461484D02*
X4231967Y-17451960D01*
X4231967Y-17451960D02*
X4222444Y-17442436D01*
X4460539Y-17261484D02*
X4479586Y-17261484D01*
X4479586Y-17261484D02*
X4498634Y-17271008D01*
X4498634Y-17271008D02*
X4508158Y-17280531D01*
X4508158Y-17280531D02*
X4517682Y-17299579D01*
X4517682Y-17299579D02*
X4527205Y-17337674D01*
X4527205Y-17337674D02*
X4527205Y-17385293D01*
X4527205Y-17385293D02*
X4517682Y-17423389D01*
X4517682Y-17423389D02*
X4508158Y-17442436D01*
X4508158Y-17442436D02*
X4498634Y-17451960D01*
X4498634Y-17451960D02*
X4479586Y-17461484D01*
X4479586Y-17461484D02*
X4460539Y-17461484D01*
X4460539Y-17461484D02*
X4441491Y-17451960D01*
X4441491Y-17451960D02*
X4431967Y-17442436D01*
X4431967Y-17442436D02*
X4422444Y-17423389D01*
X4422444Y-17423389D02*
X4412920Y-17385293D01*
X4412920Y-17385293D02*
X4412920Y-17337674D01*
X4412920Y-17337674D02*
X4422444Y-17299579D01*
X4422444Y-17299579D02*
X4431967Y-17280531D01*
X4431967Y-17280531D02*
X4441491Y-17271008D01*
X4441491Y-17271008D02*
X4460539Y-17261484D01*
X4612920Y-17461484D02*
X4612920Y-17328150D01*
X4612920Y-17347198D02*
X4622444Y-17337674D01*
X4622444Y-17337674D02*
X4641491Y-17328150D01*
X4641491Y-17328150D02*
X4670063Y-17328150D01*
X4670063Y-17328150D02*
X4689110Y-17337674D01*
X4689110Y-17337674D02*
X4698634Y-17356722D01*
X4698634Y-17356722D02*
X4698634Y-17461484D01*
X4698634Y-17356722D02*
X4708158Y-17337674D01*
X4708158Y-17337674D02*
X4727205Y-17328150D01*
X4727205Y-17328150D02*
X4755777Y-17328150D01*
X4755777Y-17328150D02*
X4774825Y-17337674D01*
X4774825Y-17337674D02*
X4784348Y-17356722D01*
X4784348Y-17356722D02*
X4784348Y-17461484D01*
X4879586Y-17461484D02*
X4879586Y-17328150D01*
X4879586Y-17347198D02*
X4889110Y-17337674D01*
X4889110Y-17337674D02*
X4908158Y-17328150D01*
X4908158Y-17328150D02*
X4936729Y-17328150D01*
X4936729Y-17328150D02*
X4955777Y-17337674D01*
X4955777Y-17337674D02*
X4965301Y-17356722D01*
X4965301Y-17356722D02*
X4965301Y-17461484D01*
X4965301Y-17356722D02*
X4974825Y-17337674D01*
X4974825Y-17337674D02*
X4993872Y-17328150D01*
X4993872Y-17328150D02*
X5022444Y-17328150D01*
X5022444Y-17328150D02*
X5041491Y-17337674D01*
X5041491Y-17337674D02*
X5051015Y-17356722D01*
X5051015Y-17356722D02*
X5051015Y-17461484D01*
X5441491Y-17251960D02*
X5270063Y-17509103D01*
X5698634Y-17261484D02*
X5717682Y-17261484D01*
X5717682Y-17261484D02*
X5736729Y-17271008D01*
X5736729Y-17271008D02*
X5746253Y-17280531D01*
X5746253Y-17280531D02*
X5755777Y-17299579D01*
X5755777Y-17299579D02*
X5765301Y-17337674D01*
X5765301Y-17337674D02*
X5765301Y-17385293D01*
X5765301Y-17385293D02*
X5755777Y-17423389D01*
X5755777Y-17423389D02*
X5746253Y-17442436D01*
X5746253Y-17442436D02*
X5736729Y-17451960D01*
X5736729Y-17451960D02*
X5717682Y-17461484D01*
X5717682Y-17461484D02*
X5698634Y-17461484D01*
X5698634Y-17461484D02*
X5679586Y-17451960D01*
X5679586Y-17451960D02*
X5670063Y-17442436D01*
X5670063Y-17442436D02*
X5660539Y-17423389D01*
X5660539Y-17423389D02*
X5651015Y-17385293D01*
X5651015Y-17385293D02*
X5651015Y-17337674D01*
X5651015Y-17337674D02*
X5660539Y-17299579D01*
X5660539Y-17299579D02*
X5670063Y-17280531D01*
X5670063Y-17280531D02*
X5679586Y-17271008D01*
X5679586Y-17271008D02*
X5698634Y-17261484D01*
X5851015Y-17442436D02*
X5860539Y-17451960D01*
X5860539Y-17451960D02*
X5851015Y-17461484D01*
X5851015Y-17461484D02*
X5841491Y-17451960D01*
X5841491Y-17451960D02*
X5851015Y-17442436D01*
X5851015Y-17442436D02*
X5851015Y-17461484D01*
X5984348Y-17261484D02*
X6003396Y-17261484D01*
X6003396Y-17261484D02*
X6022444Y-17271008D01*
X6022444Y-17271008D02*
X6031967Y-17280531D01*
X6031967Y-17280531D02*
X6041491Y-17299579D01*
X6041491Y-17299579D02*
X6051015Y-17337674D01*
X6051015Y-17337674D02*
X6051015Y-17385293D01*
X6051015Y-17385293D02*
X6041491Y-17423389D01*
X6041491Y-17423389D02*
X6031967Y-17442436D01*
X6031967Y-17442436D02*
X6022444Y-17451960D01*
X6022444Y-17451960D02*
X6003396Y-17461484D01*
X6003396Y-17461484D02*
X5984348Y-17461484D01*
X5984348Y-17461484D02*
X5965301Y-17451960D01*
X5965301Y-17451960D02*
X5955777Y-17442436D01*
X5955777Y-17442436D02*
X5946253Y-17423389D01*
X5946253Y-17423389D02*
X5936729Y-17385293D01*
X5936729Y-17385293D02*
X5936729Y-17337674D01*
X5936729Y-17337674D02*
X5946253Y-17299579D01*
X5946253Y-17299579D02*
X5955777Y-17280531D01*
X5955777Y-17280531D02*
X5965301Y-17271008D01*
X5965301Y-17271008D02*
X5984348Y-17261484D01*
X6222444Y-17261484D02*
X6184348Y-17261484D01*
X6184348Y-17261484D02*
X6165301Y-17271008D01*
X6165301Y-17271008D02*
X6155777Y-17280531D01*
X6155777Y-17280531D02*
X6136729Y-17309103D01*
X6136729Y-17309103D02*
X6127206Y-17347198D01*
X6127206Y-17347198D02*
X6127206Y-17423389D01*
X6127206Y-17423389D02*
X6136729Y-17442436D01*
X6136729Y-17442436D02*
X6146253Y-17451960D01*
X6146253Y-17451960D02*
X6165301Y-17461484D01*
X6165301Y-17461484D02*
X6203396Y-17461484D01*
X6203396Y-17461484D02*
X6222444Y-17451960D01*
X6222444Y-17451960D02*
X6231967Y-17442436D01*
X6231967Y-17442436D02*
X6241491Y-17423389D01*
X6241491Y-17423389D02*
X6241491Y-17375770D01*
X6241491Y-17375770D02*
X6231967Y-17356722D01*
X6231967Y-17356722D02*
X6222444Y-17347198D01*
X6222444Y-17347198D02*
X6203396Y-17337674D01*
X6203396Y-17337674D02*
X6165301Y-17337674D01*
X6165301Y-17337674D02*
X6146253Y-17347198D01*
X6146253Y-17347198D02*
X6136729Y-17356722D01*
X6136729Y-17356722D02*
X6127206Y-17375770D01*
X6422444Y-17261484D02*
X6327206Y-17261484D01*
X6327206Y-17261484D02*
X6317682Y-17356722D01*
X6317682Y-17356722D02*
X6327206Y-17347198D01*
X6327206Y-17347198D02*
X6346253Y-17337674D01*
X6346253Y-17337674D02*
X6393872Y-17337674D01*
X6393872Y-17337674D02*
X6412920Y-17347198D01*
X6412920Y-17347198D02*
X6422444Y-17356722D01*
X6422444Y-17356722D02*
X6431967Y-17375770D01*
X6431967Y-17375770D02*
X6431967Y-17423389D01*
X6431967Y-17423389D02*
X6422444Y-17442436D01*
X6422444Y-17442436D02*
X6412920Y-17451960D01*
X6412920Y-17451960D02*
X6393872Y-17461484D01*
X6393872Y-17461484D02*
X6346253Y-17461484D01*
X6346253Y-17461484D02*
X6327206Y-17451960D01*
X6327206Y-17451960D02*
X6317682Y-17442436D01*
X6555777Y-17261484D02*
X6574825Y-17261484D01*
X6574825Y-17261484D02*
X6593872Y-17271008D01*
X6593872Y-17271008D02*
X6603396Y-17280531D01*
X6603396Y-17280531D02*
X6612920Y-17299579D01*
X6612920Y-17299579D02*
X6622444Y-17337674D01*
X6622444Y-17337674D02*
X6622444Y-17385293D01*
X6622444Y-17385293D02*
X6612920Y-17423389D01*
X6612920Y-17423389D02*
X6603396Y-17442436D01*
X6603396Y-17442436D02*
X6593872Y-17451960D01*
X6593872Y-17451960D02*
X6574825Y-17461484D01*
X6574825Y-17461484D02*
X6555777Y-17461484D01*
X6555777Y-17461484D02*
X6536729Y-17451960D01*
X6536729Y-17451960D02*
X6527206Y-17442436D01*
X6527206Y-17442436D02*
X6517682Y-17423389D01*
X6517682Y-17423389D02*
X6508158Y-17385293D01*
X6508158Y-17385293D02*
X6508158Y-17337674D01*
X6508158Y-17337674D02*
X6517682Y-17299579D01*
X6517682Y-17299579D02*
X6527206Y-17280531D01*
X6527206Y-17280531D02*
X6536729Y-17271008D01*
X6536729Y-17271008D02*
X6555777Y-17261484D01*
X6698634Y-17261484D02*
X6698634Y-17299579D01*
X6774825Y-17261484D02*
X6774825Y-17299579D01*
X7070063Y-17537674D02*
X7060539Y-17528150D01*
X7060539Y-17528150D02*
X7041491Y-17499579D01*
X7041491Y-17499579D02*
X7031968Y-17480531D01*
X7031968Y-17480531D02*
X7022444Y-17451960D01*
X7022444Y-17451960D02*
X7012920Y-17404341D01*
X7012920Y-17404341D02*
X7012920Y-17366246D01*
X7012920Y-17366246D02*
X7022444Y-17318627D01*
X7022444Y-17318627D02*
X7031968Y-17290055D01*
X7031968Y-17290055D02*
X7041491Y-17271008D01*
X7041491Y-17271008D02*
X7060539Y-17242436D01*
X7060539Y-17242436D02*
X7070063Y-17232912D01*
X7127206Y-17261484D02*
X7251015Y-17261484D01*
X7251015Y-17261484D02*
X7184348Y-17337674D01*
X7184348Y-17337674D02*
X7212920Y-17337674D01*
X7212920Y-17337674D02*
X7231968Y-17347198D01*
X7231968Y-17347198D02*
X7241491Y-17356722D01*
X7241491Y-17356722D02*
X7251015Y-17375770D01*
X7251015Y-17375770D02*
X7251015Y-17423389D01*
X7251015Y-17423389D02*
X7241491Y-17442436D01*
X7241491Y-17442436D02*
X7231968Y-17451960D01*
X7231968Y-17451960D02*
X7212920Y-17461484D01*
X7212920Y-17461484D02*
X7155777Y-17461484D01*
X7155777Y-17461484D02*
X7136729Y-17451960D01*
X7136729Y-17451960D02*
X7127206Y-17442436D01*
X7327206Y-17280531D02*
X7336729Y-17271008D01*
X7336729Y-17271008D02*
X7355777Y-17261484D01*
X7355777Y-17261484D02*
X7403396Y-17261484D01*
X7403396Y-17261484D02*
X7422444Y-17271008D01*
X7422444Y-17271008D02*
X7431968Y-17280531D01*
X7431968Y-17280531D02*
X7441491Y-17299579D01*
X7441491Y-17299579D02*
X7441491Y-17318627D01*
X7441491Y-17318627D02*
X7431968Y-17347198D01*
X7431968Y-17347198D02*
X7317682Y-17461484D01*
X7317682Y-17461484D02*
X7441491Y-17461484D01*
X7679587Y-17461484D02*
X7679587Y-17261484D01*
X7765301Y-17461484D02*
X7765301Y-17356722D01*
X7765301Y-17356722D02*
X7755777Y-17337674D01*
X7755777Y-17337674D02*
X7736730Y-17328150D01*
X7736730Y-17328150D02*
X7708158Y-17328150D01*
X7708158Y-17328150D02*
X7689110Y-17337674D01*
X7689110Y-17337674D02*
X7679587Y-17347198D01*
X7889110Y-17461484D02*
X7870063Y-17451960D01*
X7870063Y-17451960D02*
X7860539Y-17442436D01*
X7860539Y-17442436D02*
X7851015Y-17423389D01*
X7851015Y-17423389D02*
X7851015Y-17366246D01*
X7851015Y-17366246D02*
X7860539Y-17347198D01*
X7860539Y-17347198D02*
X7870063Y-17337674D01*
X7870063Y-17337674D02*
X7889110Y-17328150D01*
X7889110Y-17328150D02*
X7917682Y-17328150D01*
X7917682Y-17328150D02*
X7936730Y-17337674D01*
X7936730Y-17337674D02*
X7946253Y-17347198D01*
X7946253Y-17347198D02*
X7955777Y-17366246D01*
X7955777Y-17366246D02*
X7955777Y-17423389D01*
X7955777Y-17423389D02*
X7946253Y-17442436D01*
X7946253Y-17442436D02*
X7936730Y-17451960D01*
X7936730Y-17451960D02*
X7917682Y-17461484D01*
X7917682Y-17461484D02*
X7889110Y-17461484D01*
X8070063Y-17461484D02*
X8051015Y-17451960D01*
X8051015Y-17451960D02*
X8041491Y-17432912D01*
X8041491Y-17432912D02*
X8041491Y-17261484D01*
X8222444Y-17451960D02*
X8203396Y-17461484D01*
X8203396Y-17461484D02*
X8165301Y-17461484D01*
X8165301Y-17461484D02*
X8146253Y-17451960D01*
X8146253Y-17451960D02*
X8136730Y-17432912D01*
X8136730Y-17432912D02*
X8136730Y-17356722D01*
X8136730Y-17356722D02*
X8146253Y-17337674D01*
X8146253Y-17337674D02*
X8165301Y-17328150D01*
X8165301Y-17328150D02*
X8203396Y-17328150D01*
X8203396Y-17328150D02*
X8222444Y-17337674D01*
X8222444Y-17337674D02*
X8231968Y-17356722D01*
X8231968Y-17356722D02*
X8231968Y-17375770D01*
X8231968Y-17375770D02*
X8136730Y-17394817D01*
X8308158Y-17451960D02*
X8327206Y-17461484D01*
X8327206Y-17461484D02*
X8365301Y-17461484D01*
X8365301Y-17461484D02*
X8384349Y-17451960D01*
X8384349Y-17451960D02*
X8393873Y-17432912D01*
X8393873Y-17432912D02*
X8393873Y-17423389D01*
X8393873Y-17423389D02*
X8384349Y-17404341D01*
X8384349Y-17404341D02*
X8365301Y-17394817D01*
X8365301Y-17394817D02*
X8336730Y-17394817D01*
X8336730Y-17394817D02*
X8317682Y-17385293D01*
X8317682Y-17385293D02*
X8308158Y-17366246D01*
X8308158Y-17366246D02*
X8308158Y-17356722D01*
X8308158Y-17356722D02*
X8317682Y-17337674D01*
X8317682Y-17337674D02*
X8336730Y-17328150D01*
X8336730Y-17328150D02*
X8365301Y-17328150D01*
X8365301Y-17328150D02*
X8384349Y-17337674D01*
X8460539Y-17537674D02*
X8470063Y-17528150D01*
X8470063Y-17528150D02*
X8489111Y-17499579D01*
X8489111Y-17499579D02*
X8498634Y-17480531D01*
X8498634Y-17480531D02*
X8508158Y-17451960D01*
X8508158Y-17451960D02*
X8517682Y-17404341D01*
X8517682Y-17404341D02*
X8517682Y-17366246D01*
X8517682Y-17366246D02*
X8508158Y-17318627D01*
X8508158Y-17318627D02*
X8498634Y-17290055D01*
X8498634Y-17290055D02*
X8489111Y-17271008D01*
X8489111Y-17271008D02*
X8470063Y-17242436D01*
X8470063Y-17242436D02*
X8460539Y-17232912D01*
X8822444Y-17537674D02*
X8812920Y-17528150D01*
X8812920Y-17528150D02*
X8793873Y-17499579D01*
X8793873Y-17499579D02*
X8784349Y-17480531D01*
X8784349Y-17480531D02*
X8774825Y-17451960D01*
X8774825Y-17451960D02*
X8765301Y-17404341D01*
X8765301Y-17404341D02*
X8765301Y-17366246D01*
X8765301Y-17366246D02*
X8774825Y-17318627D01*
X8774825Y-17318627D02*
X8784349Y-17290055D01*
X8784349Y-17290055D02*
X8793873Y-17271008D01*
X8793873Y-17271008D02*
X8812920Y-17242436D01*
X8812920Y-17242436D02*
X8822444Y-17232912D01*
X8898634Y-17328150D02*
X8898634Y-17461484D01*
X8898634Y-17347198D02*
X8908158Y-17337674D01*
X8908158Y-17337674D02*
X8927206Y-17328150D01*
X8927206Y-17328150D02*
X8955777Y-17328150D01*
X8955777Y-17328150D02*
X8974825Y-17337674D01*
X8974825Y-17337674D02*
X8984349Y-17356722D01*
X8984349Y-17356722D02*
X8984349Y-17461484D01*
X9108158Y-17461484D02*
X9089111Y-17451960D01*
X9089111Y-17451960D02*
X9079587Y-17442436D01*
X9079587Y-17442436D02*
X9070063Y-17423389D01*
X9070063Y-17423389D02*
X9070063Y-17366246D01*
X9070063Y-17366246D02*
X9079587Y-17347198D01*
X9079587Y-17347198D02*
X9089111Y-17337674D01*
X9089111Y-17337674D02*
X9108158Y-17328150D01*
X9108158Y-17328150D02*
X9136730Y-17328150D01*
X9136730Y-17328150D02*
X9155777Y-17337674D01*
X9155777Y-17337674D02*
X9165301Y-17347198D01*
X9165301Y-17347198D02*
X9174825Y-17366246D01*
X9174825Y-17366246D02*
X9174825Y-17423389D01*
X9174825Y-17423389D02*
X9165301Y-17442436D01*
X9165301Y-17442436D02*
X9155777Y-17451960D01*
X9155777Y-17451960D02*
X9136730Y-17461484D01*
X9136730Y-17461484D02*
X9108158Y-17461484D01*
X9231968Y-17328150D02*
X9308158Y-17328150D01*
X9260539Y-17261484D02*
X9260539Y-17432912D01*
X9260539Y-17432912D02*
X9270063Y-17451960D01*
X9270063Y-17451960D02*
X9289111Y-17461484D01*
X9289111Y-17461484D02*
X9308158Y-17461484D01*
X9527206Y-17328150D02*
X9527206Y-17528150D01*
X9527206Y-17337674D02*
X9546254Y-17328150D01*
X9546254Y-17328150D02*
X9584349Y-17328150D01*
X9584349Y-17328150D02*
X9603396Y-17337674D01*
X9603396Y-17337674D02*
X9612920Y-17347198D01*
X9612920Y-17347198D02*
X9622444Y-17366246D01*
X9622444Y-17366246D02*
X9622444Y-17423389D01*
X9622444Y-17423389D02*
X9612920Y-17442436D01*
X9612920Y-17442436D02*
X9603396Y-17451960D01*
X9603396Y-17451960D02*
X9584349Y-17461484D01*
X9584349Y-17461484D02*
X9546254Y-17461484D01*
X9546254Y-17461484D02*
X9527206Y-17451960D01*
X9736730Y-17461484D02*
X9717682Y-17451960D01*
X9717682Y-17451960D02*
X9708158Y-17432912D01*
X9708158Y-17432912D02*
X9708158Y-17261484D01*
X9898635Y-17461484D02*
X9898635Y-17356722D01*
X9898635Y-17356722D02*
X9889111Y-17337674D01*
X9889111Y-17337674D02*
X9870063Y-17328150D01*
X9870063Y-17328150D02*
X9831968Y-17328150D01*
X9831968Y-17328150D02*
X9812920Y-17337674D01*
X9898635Y-17451960D02*
X9879587Y-17461484D01*
X9879587Y-17461484D02*
X9831968Y-17461484D01*
X9831968Y-17461484D02*
X9812920Y-17451960D01*
X9812920Y-17451960D02*
X9803396Y-17432912D01*
X9803396Y-17432912D02*
X9803396Y-17413865D01*
X9803396Y-17413865D02*
X9812920Y-17394817D01*
X9812920Y-17394817D02*
X9831968Y-17385293D01*
X9831968Y-17385293D02*
X9879587Y-17385293D01*
X9879587Y-17385293D02*
X9898635Y-17375770D01*
X9965301Y-17328150D02*
X10041492Y-17328150D01*
X9993873Y-17261484D02*
X9993873Y-17432912D01*
X9993873Y-17432912D02*
X10003396Y-17451960D01*
X10003396Y-17451960D02*
X10022444Y-17461484D01*
X10022444Y-17461484D02*
X10041492Y-17461484D01*
X10184349Y-17451960D02*
X10165301Y-17461484D01*
X10165301Y-17461484D02*
X10127206Y-17461484D01*
X10127206Y-17461484D02*
X10108158Y-17451960D01*
X10108158Y-17451960D02*
X10098635Y-17432912D01*
X10098635Y-17432912D02*
X10098635Y-17356722D01*
X10098635Y-17356722D02*
X10108158Y-17337674D01*
X10108158Y-17337674D02*
X10127206Y-17328150D01*
X10127206Y-17328150D02*
X10165301Y-17328150D01*
X10165301Y-17328150D02*
X10184349Y-17337674D01*
X10184349Y-17337674D02*
X10193873Y-17356722D01*
X10193873Y-17356722D02*
X10193873Y-17375770D01*
X10193873Y-17375770D02*
X10098635Y-17394817D01*
X10365301Y-17461484D02*
X10365301Y-17261484D01*
X10365301Y-17451960D02*
X10346254Y-17461484D01*
X10346254Y-17461484D02*
X10308158Y-17461484D01*
X10308158Y-17461484D02*
X10289111Y-17451960D01*
X10289111Y-17451960D02*
X10279587Y-17442436D01*
X10279587Y-17442436D02*
X10270063Y-17423389D01*
X10270063Y-17423389D02*
X10270063Y-17366246D01*
X10270063Y-17366246D02*
X10279587Y-17347198D01*
X10279587Y-17347198D02*
X10289111Y-17337674D01*
X10289111Y-17337674D02*
X10308158Y-17328150D01*
X10308158Y-17328150D02*
X10346254Y-17328150D01*
X10346254Y-17328150D02*
X10365301Y-17337674D01*
X10441492Y-17537674D02*
X10451016Y-17528150D01*
X10451016Y-17528150D02*
X10470063Y-17499579D01*
X10470063Y-17499579D02*
X10479587Y-17480531D01*
X10479587Y-17480531D02*
X10489111Y-17451960D01*
X10489111Y-17451960D02*
X10498635Y-17404341D01*
X10498635Y-17404341D02*
X10498635Y-17366246D01*
X10498635Y-17366246D02*
X10489111Y-17318627D01*
X10489111Y-17318627D02*
X10479587Y-17290055D01*
X10479587Y-17290055D02*
X10470063Y-17271008D01*
X10470063Y-17271008D02*
X10451016Y-17242436D01*
X10451016Y-17242436D02*
X10441492Y-17232912D01*
D13*
X3495000Y-17655000D02*
G75*
G02*
X3325000Y-17655000I-85000J0D01*
G01*
X3325000Y-17655000D02*
G75*
G02*
X3495000Y-17655000I85000J0D01*
G01*
D11*
X3860539Y-17746484D02*
X3746253Y-17746484D01*
X3803396Y-17746484D02*
X3803396Y-17546484D01*
X3803396Y-17546484D02*
X3784348Y-17575055D01*
X3784348Y-17575055D02*
X3765301Y-17594103D01*
X3765301Y-17594103D02*
X3746253Y-17603627D01*
X3946253Y-17727436D02*
X3955777Y-17736960D01*
X3955777Y-17736960D02*
X3946253Y-17746484D01*
X3946253Y-17746484D02*
X3936729Y-17736960D01*
X3936729Y-17736960D02*
X3946253Y-17727436D01*
X3946253Y-17727436D02*
X3946253Y-17746484D01*
X4022443Y-17546484D02*
X4155777Y-17546484D01*
X4155777Y-17546484D02*
X4070062Y-17746484D01*
X4270063Y-17546484D02*
X4289110Y-17546484D01*
X4289110Y-17546484D02*
X4308158Y-17556008D01*
X4308158Y-17556008D02*
X4317682Y-17565531D01*
X4317682Y-17565531D02*
X4327205Y-17584579D01*
X4327205Y-17584579D02*
X4336729Y-17622674D01*
X4336729Y-17622674D02*
X4336729Y-17670293D01*
X4336729Y-17670293D02*
X4327205Y-17708389D01*
X4327205Y-17708389D02*
X4317682Y-17727436D01*
X4317682Y-17727436D02*
X4308158Y-17736960D01*
X4308158Y-17736960D02*
X4289110Y-17746484D01*
X4289110Y-17746484D02*
X4270063Y-17746484D01*
X4270063Y-17746484D02*
X4251015Y-17736960D01*
X4251015Y-17736960D02*
X4241491Y-17727436D01*
X4241491Y-17727436D02*
X4231967Y-17708389D01*
X4231967Y-17708389D02*
X4222444Y-17670293D01*
X4222444Y-17670293D02*
X4222444Y-17622674D01*
X4222444Y-17622674D02*
X4231967Y-17584579D01*
X4231967Y-17584579D02*
X4241491Y-17565531D01*
X4241491Y-17565531D02*
X4251015Y-17556008D01*
X4251015Y-17556008D02*
X4270063Y-17546484D01*
X4460539Y-17546484D02*
X4479586Y-17546484D01*
X4479586Y-17546484D02*
X4498634Y-17556008D01*
X4498634Y-17556008D02*
X4508158Y-17565531D01*
X4508158Y-17565531D02*
X4517682Y-17584579D01*
X4517682Y-17584579D02*
X4527205Y-17622674D01*
X4527205Y-17622674D02*
X4527205Y-17670293D01*
X4527205Y-17670293D02*
X4517682Y-17708389D01*
X4517682Y-17708389D02*
X4508158Y-17727436D01*
X4508158Y-17727436D02*
X4498634Y-17736960D01*
X4498634Y-17736960D02*
X4479586Y-17746484D01*
X4479586Y-17746484D02*
X4460539Y-17746484D01*
X4460539Y-17746484D02*
X4441491Y-17736960D01*
X4441491Y-17736960D02*
X4431967Y-17727436D01*
X4431967Y-17727436D02*
X4422444Y-17708389D01*
X4422444Y-17708389D02*
X4412920Y-17670293D01*
X4412920Y-17670293D02*
X4412920Y-17622674D01*
X4412920Y-17622674D02*
X4422444Y-17584579D01*
X4422444Y-17584579D02*
X4431967Y-17565531D01*
X4431967Y-17565531D02*
X4441491Y-17556008D01*
X4441491Y-17556008D02*
X4460539Y-17546484D01*
X4612920Y-17746484D02*
X4612920Y-17613150D01*
X4612920Y-17632198D02*
X4622444Y-17622674D01*
X4622444Y-17622674D02*
X4641491Y-17613150D01*
X4641491Y-17613150D02*
X4670063Y-17613150D01*
X4670063Y-17613150D02*
X4689110Y-17622674D01*
X4689110Y-17622674D02*
X4698634Y-17641722D01*
X4698634Y-17641722D02*
X4698634Y-17746484D01*
X4698634Y-17641722D02*
X4708158Y-17622674D01*
X4708158Y-17622674D02*
X4727205Y-17613150D01*
X4727205Y-17613150D02*
X4755777Y-17613150D01*
X4755777Y-17613150D02*
X4774825Y-17622674D01*
X4774825Y-17622674D02*
X4784348Y-17641722D01*
X4784348Y-17641722D02*
X4784348Y-17746484D01*
X4879586Y-17746484D02*
X4879586Y-17613150D01*
X4879586Y-17632198D02*
X4889110Y-17622674D01*
X4889110Y-17622674D02*
X4908158Y-17613150D01*
X4908158Y-17613150D02*
X4936729Y-17613150D01*
X4936729Y-17613150D02*
X4955777Y-17622674D01*
X4955777Y-17622674D02*
X4965301Y-17641722D01*
X4965301Y-17641722D02*
X4965301Y-17746484D01*
X4965301Y-17641722D02*
X4974825Y-17622674D01*
X4974825Y-17622674D02*
X4993872Y-17613150D01*
X4993872Y-17613150D02*
X5022444Y-17613150D01*
X5022444Y-17613150D02*
X5041491Y-17622674D01*
X5041491Y-17622674D02*
X5051015Y-17641722D01*
X5051015Y-17641722D02*
X5051015Y-17746484D01*
X5441491Y-17536960D02*
X5270063Y-17794103D01*
X5698634Y-17546484D02*
X5717682Y-17546484D01*
X5717682Y-17546484D02*
X5736729Y-17556008D01*
X5736729Y-17556008D02*
X5746253Y-17565531D01*
X5746253Y-17565531D02*
X5755777Y-17584579D01*
X5755777Y-17584579D02*
X5765301Y-17622674D01*
X5765301Y-17622674D02*
X5765301Y-17670293D01*
X5765301Y-17670293D02*
X5755777Y-17708389D01*
X5755777Y-17708389D02*
X5746253Y-17727436D01*
X5746253Y-17727436D02*
X5736729Y-17736960D01*
X5736729Y-17736960D02*
X5717682Y-17746484D01*
X5717682Y-17746484D02*
X5698634Y-17746484D01*
X5698634Y-17746484D02*
X5679586Y-17736960D01*
X5679586Y-17736960D02*
X5670063Y-17727436D01*
X5670063Y-17727436D02*
X5660539Y-17708389D01*
X5660539Y-17708389D02*
X5651015Y-17670293D01*
X5651015Y-17670293D02*
X5651015Y-17622674D01*
X5651015Y-17622674D02*
X5660539Y-17584579D01*
X5660539Y-17584579D02*
X5670063Y-17565531D01*
X5670063Y-17565531D02*
X5679586Y-17556008D01*
X5679586Y-17556008D02*
X5698634Y-17546484D01*
X5851015Y-17727436D02*
X5860539Y-17736960D01*
X5860539Y-17736960D02*
X5851015Y-17746484D01*
X5851015Y-17746484D02*
X5841491Y-17736960D01*
X5841491Y-17736960D02*
X5851015Y-17727436D01*
X5851015Y-17727436D02*
X5851015Y-17746484D01*
X5984348Y-17546484D02*
X6003396Y-17546484D01*
X6003396Y-17546484D02*
X6022444Y-17556008D01*
X6022444Y-17556008D02*
X6031967Y-17565531D01*
X6031967Y-17565531D02*
X6041491Y-17584579D01*
X6041491Y-17584579D02*
X6051015Y-17622674D01*
X6051015Y-17622674D02*
X6051015Y-17670293D01*
X6051015Y-17670293D02*
X6041491Y-17708389D01*
X6041491Y-17708389D02*
X6031967Y-17727436D01*
X6031967Y-17727436D02*
X6022444Y-17736960D01*
X6022444Y-17736960D02*
X6003396Y-17746484D01*
X6003396Y-17746484D02*
X5984348Y-17746484D01*
X5984348Y-17746484D02*
X5965301Y-17736960D01*
X5965301Y-17736960D02*
X5955777Y-17727436D01*
X5955777Y-17727436D02*
X5946253Y-17708389D01*
X5946253Y-17708389D02*
X5936729Y-17670293D01*
X5936729Y-17670293D02*
X5936729Y-17622674D01*
X5936729Y-17622674D02*
X5946253Y-17584579D01*
X5946253Y-17584579D02*
X5955777Y-17565531D01*
X5955777Y-17565531D02*
X5965301Y-17556008D01*
X5965301Y-17556008D02*
X5984348Y-17546484D01*
X6222444Y-17546484D02*
X6184348Y-17546484D01*
X6184348Y-17546484D02*
X6165301Y-17556008D01*
X6165301Y-17556008D02*
X6155777Y-17565531D01*
X6155777Y-17565531D02*
X6136729Y-17594103D01*
X6136729Y-17594103D02*
X6127206Y-17632198D01*
X6127206Y-17632198D02*
X6127206Y-17708389D01*
X6127206Y-17708389D02*
X6136729Y-17727436D01*
X6136729Y-17727436D02*
X6146253Y-17736960D01*
X6146253Y-17736960D02*
X6165301Y-17746484D01*
X6165301Y-17746484D02*
X6203396Y-17746484D01*
X6203396Y-17746484D02*
X6222444Y-17736960D01*
X6222444Y-17736960D02*
X6231967Y-17727436D01*
X6231967Y-17727436D02*
X6241491Y-17708389D01*
X6241491Y-17708389D02*
X6241491Y-17660770D01*
X6241491Y-17660770D02*
X6231967Y-17641722D01*
X6231967Y-17641722D02*
X6222444Y-17632198D01*
X6222444Y-17632198D02*
X6203396Y-17622674D01*
X6203396Y-17622674D02*
X6165301Y-17622674D01*
X6165301Y-17622674D02*
X6146253Y-17632198D01*
X6146253Y-17632198D02*
X6136729Y-17641722D01*
X6136729Y-17641722D02*
X6127206Y-17660770D01*
X6412920Y-17546484D02*
X6374825Y-17546484D01*
X6374825Y-17546484D02*
X6355777Y-17556008D01*
X6355777Y-17556008D02*
X6346253Y-17565531D01*
X6346253Y-17565531D02*
X6327206Y-17594103D01*
X6327206Y-17594103D02*
X6317682Y-17632198D01*
X6317682Y-17632198D02*
X6317682Y-17708389D01*
X6317682Y-17708389D02*
X6327206Y-17727436D01*
X6327206Y-17727436D02*
X6336729Y-17736960D01*
X6336729Y-17736960D02*
X6355777Y-17746484D01*
X6355777Y-17746484D02*
X6393872Y-17746484D01*
X6393872Y-17746484D02*
X6412920Y-17736960D01*
X6412920Y-17736960D02*
X6422444Y-17727436D01*
X6422444Y-17727436D02*
X6431967Y-17708389D01*
X6431967Y-17708389D02*
X6431967Y-17660770D01*
X6431967Y-17660770D02*
X6422444Y-17641722D01*
X6422444Y-17641722D02*
X6412920Y-17632198D01*
X6412920Y-17632198D02*
X6393872Y-17622674D01*
X6393872Y-17622674D02*
X6355777Y-17622674D01*
X6355777Y-17622674D02*
X6336729Y-17632198D01*
X6336729Y-17632198D02*
X6327206Y-17641722D01*
X6327206Y-17641722D02*
X6317682Y-17660770D01*
X6527206Y-17746484D02*
X6565301Y-17746484D01*
X6565301Y-17746484D02*
X6584348Y-17736960D01*
X6584348Y-17736960D02*
X6593872Y-17727436D01*
X6593872Y-17727436D02*
X6612920Y-17698865D01*
X6612920Y-17698865D02*
X6622444Y-17660770D01*
X6622444Y-17660770D02*
X6622444Y-17584579D01*
X6622444Y-17584579D02*
X6612920Y-17565531D01*
X6612920Y-17565531D02*
X6603396Y-17556008D01*
X6603396Y-17556008D02*
X6584348Y-17546484D01*
X6584348Y-17546484D02*
X6546253Y-17546484D01*
X6546253Y-17546484D02*
X6527206Y-17556008D01*
X6527206Y-17556008D02*
X6517682Y-17565531D01*
X6517682Y-17565531D02*
X6508158Y-17584579D01*
X6508158Y-17584579D02*
X6508158Y-17632198D01*
X6508158Y-17632198D02*
X6517682Y-17651246D01*
X6517682Y-17651246D02*
X6527206Y-17660770D01*
X6527206Y-17660770D02*
X6546253Y-17670293D01*
X6546253Y-17670293D02*
X6584348Y-17670293D01*
X6584348Y-17670293D02*
X6603396Y-17660770D01*
X6603396Y-17660770D02*
X6612920Y-17651246D01*
X6612920Y-17651246D02*
X6622444Y-17632198D01*
X6698634Y-17546484D02*
X6698634Y-17584579D01*
X6774825Y-17546484D02*
X6774825Y-17584579D01*
X7070063Y-17822674D02*
X7060539Y-17813150D01*
X7060539Y-17813150D02*
X7041491Y-17784579D01*
X7041491Y-17784579D02*
X7031968Y-17765531D01*
X7031968Y-17765531D02*
X7022444Y-17736960D01*
X7022444Y-17736960D02*
X7012920Y-17689341D01*
X7012920Y-17689341D02*
X7012920Y-17651246D01*
X7012920Y-17651246D02*
X7022444Y-17603627D01*
X7022444Y-17603627D02*
X7031968Y-17575055D01*
X7031968Y-17575055D02*
X7041491Y-17556008D01*
X7041491Y-17556008D02*
X7060539Y-17527436D01*
X7060539Y-17527436D02*
X7070063Y-17517912D01*
X7231968Y-17546484D02*
X7193872Y-17546484D01*
X7193872Y-17546484D02*
X7174825Y-17556008D01*
X7174825Y-17556008D02*
X7165301Y-17565531D01*
X7165301Y-17565531D02*
X7146253Y-17594103D01*
X7146253Y-17594103D02*
X7136729Y-17632198D01*
X7136729Y-17632198D02*
X7136729Y-17708389D01*
X7136729Y-17708389D02*
X7146253Y-17727436D01*
X7146253Y-17727436D02*
X7155777Y-17736960D01*
X7155777Y-17736960D02*
X7174825Y-17746484D01*
X7174825Y-17746484D02*
X7212920Y-17746484D01*
X7212920Y-17746484D02*
X7231968Y-17736960D01*
X7231968Y-17736960D02*
X7241491Y-17727436D01*
X7241491Y-17727436D02*
X7251015Y-17708389D01*
X7251015Y-17708389D02*
X7251015Y-17660770D01*
X7251015Y-17660770D02*
X7241491Y-17641722D01*
X7241491Y-17641722D02*
X7231968Y-17632198D01*
X7231968Y-17632198D02*
X7212920Y-17622674D01*
X7212920Y-17622674D02*
X7174825Y-17622674D01*
X7174825Y-17622674D02*
X7155777Y-17632198D01*
X7155777Y-17632198D02*
X7146253Y-17641722D01*
X7146253Y-17641722D02*
X7136729Y-17660770D01*
X7422444Y-17613150D02*
X7422444Y-17746484D01*
X7374825Y-17536960D02*
X7327206Y-17679817D01*
X7327206Y-17679817D02*
X7451015Y-17679817D01*
X7679587Y-17746484D02*
X7679587Y-17546484D01*
X7765301Y-17746484D02*
X7765301Y-17641722D01*
X7765301Y-17641722D02*
X7755777Y-17622674D01*
X7755777Y-17622674D02*
X7736730Y-17613150D01*
X7736730Y-17613150D02*
X7708158Y-17613150D01*
X7708158Y-17613150D02*
X7689110Y-17622674D01*
X7689110Y-17622674D02*
X7679587Y-17632198D01*
X7889110Y-17746484D02*
X7870063Y-17736960D01*
X7870063Y-17736960D02*
X7860539Y-17727436D01*
X7860539Y-17727436D02*
X7851015Y-17708389D01*
X7851015Y-17708389D02*
X7851015Y-17651246D01*
X7851015Y-17651246D02*
X7860539Y-17632198D01*
X7860539Y-17632198D02*
X7870063Y-17622674D01*
X7870063Y-17622674D02*
X7889110Y-17613150D01*
X7889110Y-17613150D02*
X7917682Y-17613150D01*
X7917682Y-17613150D02*
X7936730Y-17622674D01*
X7936730Y-17622674D02*
X7946253Y-17632198D01*
X7946253Y-17632198D02*
X7955777Y-17651246D01*
X7955777Y-17651246D02*
X7955777Y-17708389D01*
X7955777Y-17708389D02*
X7946253Y-17727436D01*
X7946253Y-17727436D02*
X7936730Y-17736960D01*
X7936730Y-17736960D02*
X7917682Y-17746484D01*
X7917682Y-17746484D02*
X7889110Y-17746484D01*
X8070063Y-17746484D02*
X8051015Y-17736960D01*
X8051015Y-17736960D02*
X8041491Y-17717912D01*
X8041491Y-17717912D02*
X8041491Y-17546484D01*
X8222444Y-17736960D02*
X8203396Y-17746484D01*
X8203396Y-17746484D02*
X8165301Y-17746484D01*
X8165301Y-17746484D02*
X8146253Y-17736960D01*
X8146253Y-17736960D02*
X8136730Y-17717912D01*
X8136730Y-17717912D02*
X8136730Y-17641722D01*
X8136730Y-17641722D02*
X8146253Y-17622674D01*
X8146253Y-17622674D02*
X8165301Y-17613150D01*
X8165301Y-17613150D02*
X8203396Y-17613150D01*
X8203396Y-17613150D02*
X8222444Y-17622674D01*
X8222444Y-17622674D02*
X8231968Y-17641722D01*
X8231968Y-17641722D02*
X8231968Y-17660770D01*
X8231968Y-17660770D02*
X8136730Y-17679817D01*
X8308158Y-17736960D02*
X8327206Y-17746484D01*
X8327206Y-17746484D02*
X8365301Y-17746484D01*
X8365301Y-17746484D02*
X8384349Y-17736960D01*
X8384349Y-17736960D02*
X8393873Y-17717912D01*
X8393873Y-17717912D02*
X8393873Y-17708389D01*
X8393873Y-17708389D02*
X8384349Y-17689341D01*
X8384349Y-17689341D02*
X8365301Y-17679817D01*
X8365301Y-17679817D02*
X8336730Y-17679817D01*
X8336730Y-17679817D02*
X8317682Y-17670293D01*
X8317682Y-17670293D02*
X8308158Y-17651246D01*
X8308158Y-17651246D02*
X8308158Y-17641722D01*
X8308158Y-17641722D02*
X8317682Y-17622674D01*
X8317682Y-17622674D02*
X8336730Y-17613150D01*
X8336730Y-17613150D02*
X8365301Y-17613150D01*
X8365301Y-17613150D02*
X8384349Y-17622674D01*
X8460539Y-17822674D02*
X8470063Y-17813150D01*
X8470063Y-17813150D02*
X8489111Y-17784579D01*
X8489111Y-17784579D02*
X8498634Y-17765531D01*
X8498634Y-17765531D02*
X8508158Y-17736960D01*
X8508158Y-17736960D02*
X8517682Y-17689341D01*
X8517682Y-17689341D02*
X8517682Y-17651246D01*
X8517682Y-17651246D02*
X8508158Y-17603627D01*
X8508158Y-17603627D02*
X8498634Y-17575055D01*
X8498634Y-17575055D02*
X8489111Y-17556008D01*
X8489111Y-17556008D02*
X8470063Y-17527436D01*
X8470063Y-17527436D02*
X8460539Y-17517912D01*
X8822444Y-17822674D02*
X8812920Y-17813150D01*
X8812920Y-17813150D02*
X8793873Y-17784579D01*
X8793873Y-17784579D02*
X8784349Y-17765531D01*
X8784349Y-17765531D02*
X8774825Y-17736960D01*
X8774825Y-17736960D02*
X8765301Y-17689341D01*
X8765301Y-17689341D02*
X8765301Y-17651246D01*
X8765301Y-17651246D02*
X8774825Y-17603627D01*
X8774825Y-17603627D02*
X8784349Y-17575055D01*
X8784349Y-17575055D02*
X8793873Y-17556008D01*
X8793873Y-17556008D02*
X8812920Y-17527436D01*
X8812920Y-17527436D02*
X8822444Y-17517912D01*
X8898634Y-17613150D02*
X8898634Y-17746484D01*
X8898634Y-17632198D02*
X8908158Y-17622674D01*
X8908158Y-17622674D02*
X8927206Y-17613150D01*
X8927206Y-17613150D02*
X8955777Y-17613150D01*
X8955777Y-17613150D02*
X8974825Y-17622674D01*
X8974825Y-17622674D02*
X8984349Y-17641722D01*
X8984349Y-17641722D02*
X8984349Y-17746484D01*
X9108158Y-17746484D02*
X9089111Y-17736960D01*
X9089111Y-17736960D02*
X9079587Y-17727436D01*
X9079587Y-17727436D02*
X9070063Y-17708389D01*
X9070063Y-17708389D02*
X9070063Y-17651246D01*
X9070063Y-17651246D02*
X9079587Y-17632198D01*
X9079587Y-17632198D02*
X9089111Y-17622674D01*
X9089111Y-17622674D02*
X9108158Y-17613150D01*
X9108158Y-17613150D02*
X9136730Y-17613150D01*
X9136730Y-17613150D02*
X9155777Y-17622674D01*
X9155777Y-17622674D02*
X9165301Y-17632198D01*
X9165301Y-17632198D02*
X9174825Y-17651246D01*
X9174825Y-17651246D02*
X9174825Y-17708389D01*
X9174825Y-17708389D02*
X9165301Y-17727436D01*
X9165301Y-17727436D02*
X9155777Y-17736960D01*
X9155777Y-17736960D02*
X9136730Y-17746484D01*
X9136730Y-17746484D02*
X9108158Y-17746484D01*
X9231968Y-17613150D02*
X9308158Y-17613150D01*
X9260539Y-17546484D02*
X9260539Y-17717912D01*
X9260539Y-17717912D02*
X9270063Y-17736960D01*
X9270063Y-17736960D02*
X9289111Y-17746484D01*
X9289111Y-17746484D02*
X9308158Y-17746484D01*
X9527206Y-17613150D02*
X9527206Y-17813150D01*
X9527206Y-17622674D02*
X9546254Y-17613150D01*
X9546254Y-17613150D02*
X9584349Y-17613150D01*
X9584349Y-17613150D02*
X9603396Y-17622674D01*
X9603396Y-17622674D02*
X9612920Y-17632198D01*
X9612920Y-17632198D02*
X9622444Y-17651246D01*
X9622444Y-17651246D02*
X9622444Y-17708389D01*
X9622444Y-17708389D02*
X9612920Y-17727436D01*
X9612920Y-17727436D02*
X9603396Y-17736960D01*
X9603396Y-17736960D02*
X9584349Y-17746484D01*
X9584349Y-17746484D02*
X9546254Y-17746484D01*
X9546254Y-17746484D02*
X9527206Y-17736960D01*
X9736730Y-17746484D02*
X9717682Y-17736960D01*
X9717682Y-17736960D02*
X9708158Y-17717912D01*
X9708158Y-17717912D02*
X9708158Y-17546484D01*
X9898635Y-17746484D02*
X9898635Y-17641722D01*
X9898635Y-17641722D02*
X9889111Y-17622674D01*
X9889111Y-17622674D02*
X9870063Y-17613150D01*
X9870063Y-17613150D02*
X9831968Y-17613150D01*
X9831968Y-17613150D02*
X9812920Y-17622674D01*
X9898635Y-17736960D02*
X9879587Y-17746484D01*
X9879587Y-17746484D02*
X9831968Y-17746484D01*
X9831968Y-17746484D02*
X9812920Y-17736960D01*
X9812920Y-17736960D02*
X9803396Y-17717912D01*
X9803396Y-17717912D02*
X9803396Y-17698865D01*
X9803396Y-17698865D02*
X9812920Y-17679817D01*
X9812920Y-17679817D02*
X9831968Y-17670293D01*
X9831968Y-17670293D02*
X9879587Y-17670293D01*
X9879587Y-17670293D02*
X9898635Y-17660770D01*
X9965301Y-17613150D02*
X10041492Y-17613150D01*
X9993873Y-17546484D02*
X9993873Y-17717912D01*
X9993873Y-17717912D02*
X10003396Y-17736960D01*
X10003396Y-17736960D02*
X10022444Y-17746484D01*
X10022444Y-17746484D02*
X10041492Y-17746484D01*
X10184349Y-17736960D02*
X10165301Y-17746484D01*
X10165301Y-17746484D02*
X10127206Y-17746484D01*
X10127206Y-17746484D02*
X10108158Y-17736960D01*
X10108158Y-17736960D02*
X10098635Y-17717912D01*
X10098635Y-17717912D02*
X10098635Y-17641722D01*
X10098635Y-17641722D02*
X10108158Y-17622674D01*
X10108158Y-17622674D02*
X10127206Y-17613150D01*
X10127206Y-17613150D02*
X10165301Y-17613150D01*
X10165301Y-17613150D02*
X10184349Y-17622674D01*
X10184349Y-17622674D02*
X10193873Y-17641722D01*
X10193873Y-17641722D02*
X10193873Y-17660770D01*
X10193873Y-17660770D02*
X10098635Y-17679817D01*
X10365301Y-17746484D02*
X10365301Y-17546484D01*
X10365301Y-17736960D02*
X10346254Y-17746484D01*
X10346254Y-17746484D02*
X10308158Y-17746484D01*
X10308158Y-17746484D02*
X10289111Y-17736960D01*
X10289111Y-17736960D02*
X10279587Y-17727436D01*
X10279587Y-17727436D02*
X10270063Y-17708389D01*
X10270063Y-17708389D02*
X10270063Y-17651246D01*
X10270063Y-17651246D02*
X10279587Y-17632198D01*
X10279587Y-17632198D02*
X10289111Y-17622674D01*
X10289111Y-17622674D02*
X10308158Y-17613150D01*
X10308158Y-17613150D02*
X10346254Y-17613150D01*
X10346254Y-17613150D02*
X10365301Y-17622674D01*
X10441492Y-17822674D02*
X10451016Y-17813150D01*
X10451016Y-17813150D02*
X10470063Y-17784579D01*
X10470063Y-17784579D02*
X10479587Y-17765531D01*
X10479587Y-17765531D02*
X10489111Y-17736960D01*
X10489111Y-17736960D02*
X10498635Y-17689341D01*
X10498635Y-17689341D02*
X10498635Y-17651246D01*
X10498635Y-17651246D02*
X10489111Y-17603627D01*
X10489111Y-17603627D02*
X10479587Y-17575055D01*
X10479587Y-17575055D02*
X10470063Y-17556008D01*
X10470063Y-17556008D02*
X10451016Y-17527436D01*
X10451016Y-17527436D02*
X10441492Y-17517912D01*
X3395000Y-17845000D02*
X3395000Y-18045000D01*
X3295000Y-17945000D02*
X3495000Y-17945000D01*
X3746253Y-17855531D02*
X3755777Y-17846008D01*
X3755777Y-17846008D02*
X3774824Y-17836484D01*
X3774824Y-17836484D02*
X3822443Y-17836484D01*
X3822443Y-17836484D02*
X3841491Y-17846008D01*
X3841491Y-17846008D02*
X3851015Y-17855531D01*
X3851015Y-17855531D02*
X3860539Y-17874579D01*
X3860539Y-17874579D02*
X3860539Y-17893627D01*
X3860539Y-17893627D02*
X3851015Y-17922198D01*
X3851015Y-17922198D02*
X3736729Y-18036484D01*
X3736729Y-18036484D02*
X3860539Y-18036484D01*
X3946253Y-18017436D02*
X3955777Y-18026960D01*
X3955777Y-18026960D02*
X3946253Y-18036484D01*
X3946253Y-18036484D02*
X3936729Y-18026960D01*
X3936729Y-18026960D02*
X3946253Y-18017436D01*
X3946253Y-18017436D02*
X3946253Y-18036484D01*
X4031967Y-17855531D02*
X4041491Y-17846008D01*
X4041491Y-17846008D02*
X4060539Y-17836484D01*
X4060539Y-17836484D02*
X4108158Y-17836484D01*
X4108158Y-17836484D02*
X4127205Y-17846008D01*
X4127205Y-17846008D02*
X4136729Y-17855531D01*
X4136729Y-17855531D02*
X4146253Y-17874579D01*
X4146253Y-17874579D02*
X4146253Y-17893627D01*
X4146253Y-17893627D02*
X4136729Y-17922198D01*
X4136729Y-17922198D02*
X4022443Y-18036484D01*
X4022443Y-18036484D02*
X4146253Y-18036484D01*
X4270063Y-17836484D02*
X4289110Y-17836484D01*
X4289110Y-17836484D02*
X4308158Y-17846008D01*
X4308158Y-17846008D02*
X4317682Y-17855531D01*
X4317682Y-17855531D02*
X4327205Y-17874579D01*
X4327205Y-17874579D02*
X4336729Y-17912674D01*
X4336729Y-17912674D02*
X4336729Y-17960293D01*
X4336729Y-17960293D02*
X4327205Y-17998389D01*
X4327205Y-17998389D02*
X4317682Y-18017436D01*
X4317682Y-18017436D02*
X4308158Y-18026960D01*
X4308158Y-18026960D02*
X4289110Y-18036484D01*
X4289110Y-18036484D02*
X4270063Y-18036484D01*
X4270063Y-18036484D02*
X4251015Y-18026960D01*
X4251015Y-18026960D02*
X4241491Y-18017436D01*
X4241491Y-18017436D02*
X4231967Y-17998389D01*
X4231967Y-17998389D02*
X4222444Y-17960293D01*
X4222444Y-17960293D02*
X4222444Y-17912674D01*
X4222444Y-17912674D02*
X4231967Y-17874579D01*
X4231967Y-17874579D02*
X4241491Y-17855531D01*
X4241491Y-17855531D02*
X4251015Y-17846008D01*
X4251015Y-17846008D02*
X4270063Y-17836484D01*
X4460539Y-17836484D02*
X4479586Y-17836484D01*
X4479586Y-17836484D02*
X4498634Y-17846008D01*
X4498634Y-17846008D02*
X4508158Y-17855531D01*
X4508158Y-17855531D02*
X4517682Y-17874579D01*
X4517682Y-17874579D02*
X4527205Y-17912674D01*
X4527205Y-17912674D02*
X4527205Y-17960293D01*
X4527205Y-17960293D02*
X4517682Y-17998389D01*
X4517682Y-17998389D02*
X4508158Y-18017436D01*
X4508158Y-18017436D02*
X4498634Y-18026960D01*
X4498634Y-18026960D02*
X4479586Y-18036484D01*
X4479586Y-18036484D02*
X4460539Y-18036484D01*
X4460539Y-18036484D02*
X4441491Y-18026960D01*
X4441491Y-18026960D02*
X4431967Y-18017436D01*
X4431967Y-18017436D02*
X4422444Y-17998389D01*
X4422444Y-17998389D02*
X4412920Y-17960293D01*
X4412920Y-17960293D02*
X4412920Y-17912674D01*
X4412920Y-17912674D02*
X4422444Y-17874579D01*
X4422444Y-17874579D02*
X4431967Y-17855531D01*
X4431967Y-17855531D02*
X4441491Y-17846008D01*
X4441491Y-17846008D02*
X4460539Y-17836484D01*
X4612920Y-18036484D02*
X4612920Y-17903150D01*
X4612920Y-17922198D02*
X4622444Y-17912674D01*
X4622444Y-17912674D02*
X4641491Y-17903150D01*
X4641491Y-17903150D02*
X4670063Y-17903150D01*
X4670063Y-17903150D02*
X4689110Y-17912674D01*
X4689110Y-17912674D02*
X4698634Y-17931722D01*
X4698634Y-17931722D02*
X4698634Y-18036484D01*
X4698634Y-17931722D02*
X4708158Y-17912674D01*
X4708158Y-17912674D02*
X4727205Y-17903150D01*
X4727205Y-17903150D02*
X4755777Y-17903150D01*
X4755777Y-17903150D02*
X4774825Y-17912674D01*
X4774825Y-17912674D02*
X4784348Y-17931722D01*
X4784348Y-17931722D02*
X4784348Y-18036484D01*
X4879586Y-18036484D02*
X4879586Y-17903150D01*
X4879586Y-17922198D02*
X4889110Y-17912674D01*
X4889110Y-17912674D02*
X4908158Y-17903150D01*
X4908158Y-17903150D02*
X4936729Y-17903150D01*
X4936729Y-17903150D02*
X4955777Y-17912674D01*
X4955777Y-17912674D02*
X4965301Y-17931722D01*
X4965301Y-17931722D02*
X4965301Y-18036484D01*
X4965301Y-17931722D02*
X4974825Y-17912674D01*
X4974825Y-17912674D02*
X4993872Y-17903150D01*
X4993872Y-17903150D02*
X5022444Y-17903150D01*
X5022444Y-17903150D02*
X5041491Y-17912674D01*
X5041491Y-17912674D02*
X5051015Y-17931722D01*
X5051015Y-17931722D02*
X5051015Y-18036484D01*
X5441491Y-17826960D02*
X5270063Y-18084103D01*
X5698634Y-17836484D02*
X5717682Y-17836484D01*
X5717682Y-17836484D02*
X5736729Y-17846008D01*
X5736729Y-17846008D02*
X5746253Y-17855531D01*
X5746253Y-17855531D02*
X5755777Y-17874579D01*
X5755777Y-17874579D02*
X5765301Y-17912674D01*
X5765301Y-17912674D02*
X5765301Y-17960293D01*
X5765301Y-17960293D02*
X5755777Y-17998389D01*
X5755777Y-17998389D02*
X5746253Y-18017436D01*
X5746253Y-18017436D02*
X5736729Y-18026960D01*
X5736729Y-18026960D02*
X5717682Y-18036484D01*
X5717682Y-18036484D02*
X5698634Y-18036484D01*
X5698634Y-18036484D02*
X5679586Y-18026960D01*
X5679586Y-18026960D02*
X5670063Y-18017436D01*
X5670063Y-18017436D02*
X5660539Y-17998389D01*
X5660539Y-17998389D02*
X5651015Y-17960293D01*
X5651015Y-17960293D02*
X5651015Y-17912674D01*
X5651015Y-17912674D02*
X5660539Y-17874579D01*
X5660539Y-17874579D02*
X5670063Y-17855531D01*
X5670063Y-17855531D02*
X5679586Y-17846008D01*
X5679586Y-17846008D02*
X5698634Y-17836484D01*
X5851015Y-18017436D02*
X5860539Y-18026960D01*
X5860539Y-18026960D02*
X5851015Y-18036484D01*
X5851015Y-18036484D02*
X5841491Y-18026960D01*
X5841491Y-18026960D02*
X5851015Y-18017436D01*
X5851015Y-18017436D02*
X5851015Y-18036484D01*
X5984348Y-17836484D02*
X6003396Y-17836484D01*
X6003396Y-17836484D02*
X6022444Y-17846008D01*
X6022444Y-17846008D02*
X6031967Y-17855531D01*
X6031967Y-17855531D02*
X6041491Y-17874579D01*
X6041491Y-17874579D02*
X6051015Y-17912674D01*
X6051015Y-17912674D02*
X6051015Y-17960293D01*
X6051015Y-17960293D02*
X6041491Y-17998389D01*
X6041491Y-17998389D02*
X6031967Y-18017436D01*
X6031967Y-18017436D02*
X6022444Y-18026960D01*
X6022444Y-18026960D02*
X6003396Y-18036484D01*
X6003396Y-18036484D02*
X5984348Y-18036484D01*
X5984348Y-18036484D02*
X5965301Y-18026960D01*
X5965301Y-18026960D02*
X5955777Y-18017436D01*
X5955777Y-18017436D02*
X5946253Y-17998389D01*
X5946253Y-17998389D02*
X5936729Y-17960293D01*
X5936729Y-17960293D02*
X5936729Y-17912674D01*
X5936729Y-17912674D02*
X5946253Y-17874579D01*
X5946253Y-17874579D02*
X5955777Y-17855531D01*
X5955777Y-17855531D02*
X5965301Y-17846008D01*
X5965301Y-17846008D02*
X5984348Y-17836484D01*
X6165301Y-17922198D02*
X6146253Y-17912674D01*
X6146253Y-17912674D02*
X6136729Y-17903150D01*
X6136729Y-17903150D02*
X6127206Y-17884103D01*
X6127206Y-17884103D02*
X6127206Y-17874579D01*
X6127206Y-17874579D02*
X6136729Y-17855531D01*
X6136729Y-17855531D02*
X6146253Y-17846008D01*
X6146253Y-17846008D02*
X6165301Y-17836484D01*
X6165301Y-17836484D02*
X6203396Y-17836484D01*
X6203396Y-17836484D02*
X6222444Y-17846008D01*
X6222444Y-17846008D02*
X6231967Y-17855531D01*
X6231967Y-17855531D02*
X6241491Y-17874579D01*
X6241491Y-17874579D02*
X6241491Y-17884103D01*
X6241491Y-17884103D02*
X6231967Y-17903150D01*
X6231967Y-17903150D02*
X6222444Y-17912674D01*
X6222444Y-17912674D02*
X6203396Y-17922198D01*
X6203396Y-17922198D02*
X6165301Y-17922198D01*
X6165301Y-17922198D02*
X6146253Y-17931722D01*
X6146253Y-17931722D02*
X6136729Y-17941246D01*
X6136729Y-17941246D02*
X6127206Y-17960293D01*
X6127206Y-17960293D02*
X6127206Y-17998389D01*
X6127206Y-17998389D02*
X6136729Y-18017436D01*
X6136729Y-18017436D02*
X6146253Y-18026960D01*
X6146253Y-18026960D02*
X6165301Y-18036484D01*
X6165301Y-18036484D02*
X6203396Y-18036484D01*
X6203396Y-18036484D02*
X6222444Y-18026960D01*
X6222444Y-18026960D02*
X6231967Y-18017436D01*
X6231967Y-18017436D02*
X6241491Y-17998389D01*
X6241491Y-17998389D02*
X6241491Y-17960293D01*
X6241491Y-17960293D02*
X6231967Y-17941246D01*
X6231967Y-17941246D02*
X6222444Y-17931722D01*
X6222444Y-17931722D02*
X6203396Y-17922198D01*
X6412920Y-17836484D02*
X6374825Y-17836484D01*
X6374825Y-17836484D02*
X6355777Y-17846008D01*
X6355777Y-17846008D02*
X6346253Y-17855531D01*
X6346253Y-17855531D02*
X6327206Y-17884103D01*
X6327206Y-17884103D02*
X6317682Y-17922198D01*
X6317682Y-17922198D02*
X6317682Y-17998389D01*
X6317682Y-17998389D02*
X6327206Y-18017436D01*
X6327206Y-18017436D02*
X6336729Y-18026960D01*
X6336729Y-18026960D02*
X6355777Y-18036484D01*
X6355777Y-18036484D02*
X6393872Y-18036484D01*
X6393872Y-18036484D02*
X6412920Y-18026960D01*
X6412920Y-18026960D02*
X6422444Y-18017436D01*
X6422444Y-18017436D02*
X6431967Y-17998389D01*
X6431967Y-17998389D02*
X6431967Y-17950770D01*
X6431967Y-17950770D02*
X6422444Y-17931722D01*
X6422444Y-17931722D02*
X6412920Y-17922198D01*
X6412920Y-17922198D02*
X6393872Y-17912674D01*
X6393872Y-17912674D02*
X6355777Y-17912674D01*
X6355777Y-17912674D02*
X6336729Y-17922198D01*
X6336729Y-17922198D02*
X6327206Y-17931722D01*
X6327206Y-17931722D02*
X6317682Y-17950770D01*
X6603396Y-17836484D02*
X6565301Y-17836484D01*
X6565301Y-17836484D02*
X6546253Y-17846008D01*
X6546253Y-17846008D02*
X6536729Y-17855531D01*
X6536729Y-17855531D02*
X6517682Y-17884103D01*
X6517682Y-17884103D02*
X6508158Y-17922198D01*
X6508158Y-17922198D02*
X6508158Y-17998389D01*
X6508158Y-17998389D02*
X6517682Y-18017436D01*
X6517682Y-18017436D02*
X6527206Y-18026960D01*
X6527206Y-18026960D02*
X6546253Y-18036484D01*
X6546253Y-18036484D02*
X6584348Y-18036484D01*
X6584348Y-18036484D02*
X6603396Y-18026960D01*
X6603396Y-18026960D02*
X6612920Y-18017436D01*
X6612920Y-18017436D02*
X6622444Y-17998389D01*
X6622444Y-17998389D02*
X6622444Y-17950770D01*
X6622444Y-17950770D02*
X6612920Y-17931722D01*
X6612920Y-17931722D02*
X6603396Y-17922198D01*
X6603396Y-17922198D02*
X6584348Y-17912674D01*
X6584348Y-17912674D02*
X6546253Y-17912674D01*
X6546253Y-17912674D02*
X6527206Y-17922198D01*
X6527206Y-17922198D02*
X6517682Y-17931722D01*
X6517682Y-17931722D02*
X6508158Y-17950770D01*
X6698634Y-17836484D02*
X6698634Y-17874579D01*
X6774825Y-17836484D02*
X6774825Y-17874579D01*
X7070063Y-18112674D02*
X7060539Y-18103150D01*
X7060539Y-18103150D02*
X7041491Y-18074579D01*
X7041491Y-18074579D02*
X7031968Y-18055531D01*
X7031968Y-18055531D02*
X7022444Y-18026960D01*
X7022444Y-18026960D02*
X7012920Y-17979341D01*
X7012920Y-17979341D02*
X7012920Y-17941246D01*
X7012920Y-17941246D02*
X7022444Y-17893627D01*
X7022444Y-17893627D02*
X7031968Y-17865055D01*
X7031968Y-17865055D02*
X7041491Y-17846008D01*
X7041491Y-17846008D02*
X7060539Y-17817436D01*
X7060539Y-17817436D02*
X7070063Y-17807912D01*
X7251015Y-18036484D02*
X7136729Y-18036484D01*
X7193872Y-18036484D02*
X7193872Y-17836484D01*
X7193872Y-17836484D02*
X7174825Y-17865055D01*
X7174825Y-17865055D02*
X7155777Y-17884103D01*
X7155777Y-17884103D02*
X7136729Y-17893627D01*
X7479587Y-18026960D02*
X7498634Y-18036484D01*
X7498634Y-18036484D02*
X7536729Y-18036484D01*
X7536729Y-18036484D02*
X7555777Y-18026960D01*
X7555777Y-18026960D02*
X7565301Y-18007912D01*
X7565301Y-18007912D02*
X7565301Y-17998389D01*
X7565301Y-17998389D02*
X7555777Y-17979341D01*
X7555777Y-17979341D02*
X7536729Y-17969817D01*
X7536729Y-17969817D02*
X7508158Y-17969817D01*
X7508158Y-17969817D02*
X7489110Y-17960293D01*
X7489110Y-17960293D02*
X7479587Y-17941246D01*
X7479587Y-17941246D02*
X7479587Y-17931722D01*
X7479587Y-17931722D02*
X7489110Y-17912674D01*
X7489110Y-17912674D02*
X7508158Y-17903150D01*
X7508158Y-17903150D02*
X7536729Y-17903150D01*
X7536729Y-17903150D02*
X7555777Y-17912674D01*
X7679587Y-18036484D02*
X7660539Y-18026960D01*
X7660539Y-18026960D02*
X7651015Y-18007912D01*
X7651015Y-18007912D02*
X7651015Y-17836484D01*
X7784349Y-18036484D02*
X7765301Y-18026960D01*
X7765301Y-18026960D02*
X7755777Y-18017436D01*
X7755777Y-18017436D02*
X7746253Y-17998389D01*
X7746253Y-17998389D02*
X7746253Y-17941246D01*
X7746253Y-17941246D02*
X7755777Y-17922198D01*
X7755777Y-17922198D02*
X7765301Y-17912674D01*
X7765301Y-17912674D02*
X7784349Y-17903150D01*
X7784349Y-17903150D02*
X7812920Y-17903150D01*
X7812920Y-17903150D02*
X7831968Y-17912674D01*
X7831968Y-17912674D02*
X7841491Y-17922198D01*
X7841491Y-17922198D02*
X7851015Y-17941246D01*
X7851015Y-17941246D02*
X7851015Y-17998389D01*
X7851015Y-17998389D02*
X7841491Y-18017436D01*
X7841491Y-18017436D02*
X7831968Y-18026960D01*
X7831968Y-18026960D02*
X7812920Y-18036484D01*
X7812920Y-18036484D02*
X7784349Y-18036484D01*
X7908158Y-17903150D02*
X7984349Y-17903150D01*
X7936730Y-17836484D02*
X7936730Y-18007912D01*
X7936730Y-18007912D02*
X7946253Y-18026960D01*
X7946253Y-18026960D02*
X7965301Y-18036484D01*
X7965301Y-18036484D02*
X7984349Y-18036484D01*
X8031968Y-18112674D02*
X8041491Y-18103150D01*
X8041491Y-18103150D02*
X8060539Y-18074579D01*
X8060539Y-18074579D02*
X8070063Y-18055531D01*
X8070063Y-18055531D02*
X8079587Y-18026960D01*
X8079587Y-18026960D02*
X8089110Y-17979341D01*
X8089110Y-17979341D02*
X8089110Y-17941246D01*
X8089110Y-17941246D02*
X8079587Y-17893627D01*
X8079587Y-17893627D02*
X8070063Y-17865055D01*
X8070063Y-17865055D02*
X8060539Y-17846008D01*
X8060539Y-17846008D02*
X8041491Y-17817436D01*
X8041491Y-17817436D02*
X8031968Y-17807912D01*
X8393873Y-18112674D02*
X8384349Y-18103150D01*
X8384349Y-18103150D02*
X8365301Y-18074579D01*
X8365301Y-18074579D02*
X8355777Y-18055531D01*
X8355777Y-18055531D02*
X8346253Y-18026960D01*
X8346253Y-18026960D02*
X8336730Y-17979341D01*
X8336730Y-17979341D02*
X8336730Y-17941246D01*
X8336730Y-17941246D02*
X8346253Y-17893627D01*
X8346253Y-17893627D02*
X8355777Y-17865055D01*
X8355777Y-17865055D02*
X8365301Y-17846008D01*
X8365301Y-17846008D02*
X8384349Y-17817436D01*
X8384349Y-17817436D02*
X8393873Y-17807912D01*
X8470063Y-17903150D02*
X8470063Y-18036484D01*
X8470063Y-17922198D02*
X8479587Y-17912674D01*
X8479587Y-17912674D02*
X8498634Y-17903150D01*
X8498634Y-17903150D02*
X8527206Y-17903150D01*
X8527206Y-17903150D02*
X8546253Y-17912674D01*
X8546253Y-17912674D02*
X8555777Y-17931722D01*
X8555777Y-17931722D02*
X8555777Y-18036484D01*
X8679587Y-18036484D02*
X8660539Y-18026960D01*
X8660539Y-18026960D02*
X8651015Y-18017436D01*
X8651015Y-18017436D02*
X8641492Y-17998389D01*
X8641492Y-17998389D02*
X8641492Y-17941246D01*
X8641492Y-17941246D02*
X8651015Y-17922198D01*
X8651015Y-17922198D02*
X8660539Y-17912674D01*
X8660539Y-17912674D02*
X8679587Y-17903150D01*
X8679587Y-17903150D02*
X8708158Y-17903150D01*
X8708158Y-17903150D02*
X8727206Y-17912674D01*
X8727206Y-17912674D02*
X8736730Y-17922198D01*
X8736730Y-17922198D02*
X8746253Y-17941246D01*
X8746253Y-17941246D02*
X8746253Y-17998389D01*
X8746253Y-17998389D02*
X8736730Y-18017436D01*
X8736730Y-18017436D02*
X8727206Y-18026960D01*
X8727206Y-18026960D02*
X8708158Y-18036484D01*
X8708158Y-18036484D02*
X8679587Y-18036484D01*
X8803396Y-17903150D02*
X8879587Y-17903150D01*
X8831968Y-17836484D02*
X8831968Y-18007912D01*
X8831968Y-18007912D02*
X8841492Y-18026960D01*
X8841492Y-18026960D02*
X8860539Y-18036484D01*
X8860539Y-18036484D02*
X8879587Y-18036484D01*
X9098634Y-17903150D02*
X9098634Y-18103150D01*
X9098634Y-17912674D02*
X9117682Y-17903150D01*
X9117682Y-17903150D02*
X9155777Y-17903150D01*
X9155777Y-17903150D02*
X9174825Y-17912674D01*
X9174825Y-17912674D02*
X9184349Y-17922198D01*
X9184349Y-17922198D02*
X9193873Y-17941246D01*
X9193873Y-17941246D02*
X9193873Y-17998389D01*
X9193873Y-17998389D02*
X9184349Y-18017436D01*
X9184349Y-18017436D02*
X9174825Y-18026960D01*
X9174825Y-18026960D02*
X9155777Y-18036484D01*
X9155777Y-18036484D02*
X9117682Y-18036484D01*
X9117682Y-18036484D02*
X9098634Y-18026960D01*
X9308158Y-18036484D02*
X9289111Y-18026960D01*
X9289111Y-18026960D02*
X9279587Y-18007912D01*
X9279587Y-18007912D02*
X9279587Y-17836484D01*
X9470063Y-18036484D02*
X9470063Y-17931722D01*
X9470063Y-17931722D02*
X9460539Y-17912674D01*
X9460539Y-17912674D02*
X9441492Y-17903150D01*
X9441492Y-17903150D02*
X9403396Y-17903150D01*
X9403396Y-17903150D02*
X9384349Y-17912674D01*
X9470063Y-18026960D02*
X9451015Y-18036484D01*
X9451015Y-18036484D02*
X9403396Y-18036484D01*
X9403396Y-18036484D02*
X9384349Y-18026960D01*
X9384349Y-18026960D02*
X9374825Y-18007912D01*
X9374825Y-18007912D02*
X9374825Y-17988865D01*
X9374825Y-17988865D02*
X9384349Y-17969817D01*
X9384349Y-17969817D02*
X9403396Y-17960293D01*
X9403396Y-17960293D02*
X9451015Y-17960293D01*
X9451015Y-17960293D02*
X9470063Y-17950770D01*
X9536730Y-17903150D02*
X9612920Y-17903150D01*
X9565301Y-17836484D02*
X9565301Y-18007912D01*
X9565301Y-18007912D02*
X9574825Y-18026960D01*
X9574825Y-18026960D02*
X9593873Y-18036484D01*
X9593873Y-18036484D02*
X9612920Y-18036484D01*
X9755777Y-18026960D02*
X9736730Y-18036484D01*
X9736730Y-18036484D02*
X9698634Y-18036484D01*
X9698634Y-18036484D02*
X9679587Y-18026960D01*
X9679587Y-18026960D02*
X9670063Y-18007912D01*
X9670063Y-18007912D02*
X9670063Y-17931722D01*
X9670063Y-17931722D02*
X9679587Y-17912674D01*
X9679587Y-17912674D02*
X9698634Y-17903150D01*
X9698634Y-17903150D02*
X9736730Y-17903150D01*
X9736730Y-17903150D02*
X9755777Y-17912674D01*
X9755777Y-17912674D02*
X9765301Y-17931722D01*
X9765301Y-17931722D02*
X9765301Y-17950770D01*
X9765301Y-17950770D02*
X9670063Y-17969817D01*
X9936730Y-18036484D02*
X9936730Y-17836484D01*
X9936730Y-18026960D02*
X9917682Y-18036484D01*
X9917682Y-18036484D02*
X9879587Y-18036484D01*
X9879587Y-18036484D02*
X9860539Y-18026960D01*
X9860539Y-18026960D02*
X9851015Y-18017436D01*
X9851015Y-18017436D02*
X9841492Y-17998389D01*
X9841492Y-17998389D02*
X9841492Y-17941246D01*
X9841492Y-17941246D02*
X9851015Y-17922198D01*
X9851015Y-17922198D02*
X9860539Y-17912674D01*
X9860539Y-17912674D02*
X9879587Y-17903150D01*
X9879587Y-17903150D02*
X9917682Y-17903150D01*
X9917682Y-17903150D02*
X9936730Y-17912674D01*
X10012920Y-18112674D02*
X10022444Y-18103150D01*
X10022444Y-18103150D02*
X10041492Y-18074579D01*
X10041492Y-18074579D02*
X10051015Y-18055531D01*
X10051015Y-18055531D02*
X10060539Y-18026960D01*
X10060539Y-18026960D02*
X10070063Y-17979341D01*
X10070063Y-17979341D02*
X10070063Y-17941246D01*
X10070063Y-17941246D02*
X10060539Y-17893627D01*
X10060539Y-17893627D02*
X10051015Y-17865055D01*
X10051015Y-17865055D02*
X10041492Y-17846008D01*
X10041492Y-17846008D02*
X10022444Y-17817436D01*
X10022444Y-17817436D02*
X10012920Y-17807912D01*
X3465711Y-18335711D02*
X3465711Y-18194289D01*
X3324289Y-18194289D01*
X3324289Y-18335711D01*
X3465711Y-18335711D01*
X3736729Y-18156484D02*
X3860539Y-18156484D01*
X3860539Y-18156484D02*
X3793872Y-18232674D01*
X3793872Y-18232674D02*
X3822443Y-18232674D01*
X3822443Y-18232674D02*
X3841491Y-18242198D01*
X3841491Y-18242198D02*
X3851015Y-18251722D01*
X3851015Y-18251722D02*
X3860539Y-18270770D01*
X3860539Y-18270770D02*
X3860539Y-18318389D01*
X3860539Y-18318389D02*
X3851015Y-18337436D01*
X3851015Y-18337436D02*
X3841491Y-18346960D01*
X3841491Y-18346960D02*
X3822443Y-18356484D01*
X3822443Y-18356484D02*
X3765301Y-18356484D01*
X3765301Y-18356484D02*
X3746253Y-18346960D01*
X3746253Y-18346960D02*
X3736729Y-18337436D01*
X3946253Y-18337436D02*
X3955777Y-18346960D01*
X3955777Y-18346960D02*
X3946253Y-18356484D01*
X3946253Y-18356484D02*
X3936729Y-18346960D01*
X3936729Y-18346960D02*
X3946253Y-18337436D01*
X3946253Y-18337436D02*
X3946253Y-18356484D01*
X4079586Y-18156484D02*
X4098634Y-18156484D01*
X4098634Y-18156484D02*
X4117682Y-18166008D01*
X4117682Y-18166008D02*
X4127205Y-18175531D01*
X4127205Y-18175531D02*
X4136729Y-18194579D01*
X4136729Y-18194579D02*
X4146253Y-18232674D01*
X4146253Y-18232674D02*
X4146253Y-18280293D01*
X4146253Y-18280293D02*
X4136729Y-18318389D01*
X4136729Y-18318389D02*
X4127205Y-18337436D01*
X4127205Y-18337436D02*
X4117682Y-18346960D01*
X4117682Y-18346960D02*
X4098634Y-18356484D01*
X4098634Y-18356484D02*
X4079586Y-18356484D01*
X4079586Y-18356484D02*
X4060539Y-18346960D01*
X4060539Y-18346960D02*
X4051015Y-18337436D01*
X4051015Y-18337436D02*
X4041491Y-18318389D01*
X4041491Y-18318389D02*
X4031967Y-18280293D01*
X4031967Y-18280293D02*
X4031967Y-18232674D01*
X4031967Y-18232674D02*
X4041491Y-18194579D01*
X4041491Y-18194579D02*
X4051015Y-18175531D01*
X4051015Y-18175531D02*
X4060539Y-18166008D01*
X4060539Y-18166008D02*
X4079586Y-18156484D01*
X4270063Y-18156484D02*
X4289110Y-18156484D01*
X4289110Y-18156484D02*
X4308158Y-18166008D01*
X4308158Y-18166008D02*
X4317682Y-18175531D01*
X4317682Y-18175531D02*
X4327205Y-18194579D01*
X4327205Y-18194579D02*
X4336729Y-18232674D01*
X4336729Y-18232674D02*
X4336729Y-18280293D01*
X4336729Y-18280293D02*
X4327205Y-18318389D01*
X4327205Y-18318389D02*
X4317682Y-18337436D01*
X4317682Y-18337436D02*
X4308158Y-18346960D01*
X4308158Y-18346960D02*
X4289110Y-18356484D01*
X4289110Y-18356484D02*
X4270063Y-18356484D01*
X4270063Y-18356484D02*
X4251015Y-18346960D01*
X4251015Y-18346960D02*
X4241491Y-18337436D01*
X4241491Y-18337436D02*
X4231967Y-18318389D01*
X4231967Y-18318389D02*
X4222444Y-18280293D01*
X4222444Y-18280293D02*
X4222444Y-18232674D01*
X4222444Y-18232674D02*
X4231967Y-18194579D01*
X4231967Y-18194579D02*
X4241491Y-18175531D01*
X4241491Y-18175531D02*
X4251015Y-18166008D01*
X4251015Y-18166008D02*
X4270063Y-18156484D01*
X4460539Y-18156484D02*
X4479586Y-18156484D01*
X4479586Y-18156484D02*
X4498634Y-18166008D01*
X4498634Y-18166008D02*
X4508158Y-18175531D01*
X4508158Y-18175531D02*
X4517682Y-18194579D01*
X4517682Y-18194579D02*
X4527205Y-18232674D01*
X4527205Y-18232674D02*
X4527205Y-18280293D01*
X4527205Y-18280293D02*
X4517682Y-18318389D01*
X4517682Y-18318389D02*
X4508158Y-18337436D01*
X4508158Y-18337436D02*
X4498634Y-18346960D01*
X4498634Y-18346960D02*
X4479586Y-18356484D01*
X4479586Y-18356484D02*
X4460539Y-18356484D01*
X4460539Y-18356484D02*
X4441491Y-18346960D01*
X4441491Y-18346960D02*
X4431967Y-18337436D01*
X4431967Y-18337436D02*
X4422444Y-18318389D01*
X4422444Y-18318389D02*
X4412920Y-18280293D01*
X4412920Y-18280293D02*
X4412920Y-18232674D01*
X4412920Y-18232674D02*
X4422444Y-18194579D01*
X4422444Y-18194579D02*
X4431967Y-18175531D01*
X4431967Y-18175531D02*
X4441491Y-18166008D01*
X4441491Y-18166008D02*
X4460539Y-18156484D01*
X4612920Y-18356484D02*
X4612920Y-18223150D01*
X4612920Y-18242198D02*
X4622444Y-18232674D01*
X4622444Y-18232674D02*
X4641491Y-18223150D01*
X4641491Y-18223150D02*
X4670063Y-18223150D01*
X4670063Y-18223150D02*
X4689110Y-18232674D01*
X4689110Y-18232674D02*
X4698634Y-18251722D01*
X4698634Y-18251722D02*
X4698634Y-18356484D01*
X4698634Y-18251722D02*
X4708158Y-18232674D01*
X4708158Y-18232674D02*
X4727205Y-18223150D01*
X4727205Y-18223150D02*
X4755777Y-18223150D01*
X4755777Y-18223150D02*
X4774825Y-18232674D01*
X4774825Y-18232674D02*
X4784348Y-18251722D01*
X4784348Y-18251722D02*
X4784348Y-18356484D01*
X4879586Y-18356484D02*
X4879586Y-18223150D01*
X4879586Y-18242198D02*
X4889110Y-18232674D01*
X4889110Y-18232674D02*
X4908158Y-18223150D01*
X4908158Y-18223150D02*
X4936729Y-18223150D01*
X4936729Y-18223150D02*
X4955777Y-18232674D01*
X4955777Y-18232674D02*
X4965301Y-18251722D01*
X4965301Y-18251722D02*
X4965301Y-18356484D01*
X4965301Y-18251722D02*
X4974825Y-18232674D01*
X4974825Y-18232674D02*
X4993872Y-18223150D01*
X4993872Y-18223150D02*
X5022444Y-18223150D01*
X5022444Y-18223150D02*
X5041491Y-18232674D01*
X5041491Y-18232674D02*
X5051015Y-18251722D01*
X5051015Y-18251722D02*
X5051015Y-18356484D01*
X5441491Y-18146960D02*
X5270063Y-18404103D01*
X5698634Y-18156484D02*
X5717682Y-18156484D01*
X5717682Y-18156484D02*
X5736729Y-18166008D01*
X5736729Y-18166008D02*
X5746253Y-18175531D01*
X5746253Y-18175531D02*
X5755777Y-18194579D01*
X5755777Y-18194579D02*
X5765301Y-18232674D01*
X5765301Y-18232674D02*
X5765301Y-18280293D01*
X5765301Y-18280293D02*
X5755777Y-18318389D01*
X5755777Y-18318389D02*
X5746253Y-18337436D01*
X5746253Y-18337436D02*
X5736729Y-18346960D01*
X5736729Y-18346960D02*
X5717682Y-18356484D01*
X5717682Y-18356484D02*
X5698634Y-18356484D01*
X5698634Y-18356484D02*
X5679586Y-18346960D01*
X5679586Y-18346960D02*
X5670063Y-18337436D01*
X5670063Y-18337436D02*
X5660539Y-18318389D01*
X5660539Y-18318389D02*
X5651015Y-18280293D01*
X5651015Y-18280293D02*
X5651015Y-18232674D01*
X5651015Y-18232674D02*
X5660539Y-18194579D01*
X5660539Y-18194579D02*
X5670063Y-18175531D01*
X5670063Y-18175531D02*
X5679586Y-18166008D01*
X5679586Y-18166008D02*
X5698634Y-18156484D01*
X5851015Y-18337436D02*
X5860539Y-18346960D01*
X5860539Y-18346960D02*
X5851015Y-18356484D01*
X5851015Y-18356484D02*
X5841491Y-18346960D01*
X5841491Y-18346960D02*
X5851015Y-18337436D01*
X5851015Y-18337436D02*
X5851015Y-18356484D01*
X6051015Y-18356484D02*
X5936729Y-18356484D01*
X5993872Y-18356484D02*
X5993872Y-18156484D01*
X5993872Y-18156484D02*
X5974825Y-18185055D01*
X5974825Y-18185055D02*
X5955777Y-18204103D01*
X5955777Y-18204103D02*
X5936729Y-18213627D01*
X6241491Y-18356484D02*
X6127206Y-18356484D01*
X6184348Y-18356484D02*
X6184348Y-18156484D01*
X6184348Y-18156484D02*
X6165301Y-18185055D01*
X6165301Y-18185055D02*
X6146253Y-18204103D01*
X6146253Y-18204103D02*
X6127206Y-18213627D01*
X6355777Y-18242198D02*
X6336729Y-18232674D01*
X6336729Y-18232674D02*
X6327206Y-18223150D01*
X6327206Y-18223150D02*
X6317682Y-18204103D01*
X6317682Y-18204103D02*
X6317682Y-18194579D01*
X6317682Y-18194579D02*
X6327206Y-18175531D01*
X6327206Y-18175531D02*
X6336729Y-18166008D01*
X6336729Y-18166008D02*
X6355777Y-18156484D01*
X6355777Y-18156484D02*
X6393872Y-18156484D01*
X6393872Y-18156484D02*
X6412920Y-18166008D01*
X6412920Y-18166008D02*
X6422444Y-18175531D01*
X6422444Y-18175531D02*
X6431967Y-18194579D01*
X6431967Y-18194579D02*
X6431967Y-18204103D01*
X6431967Y-18204103D02*
X6422444Y-18223150D01*
X6422444Y-18223150D02*
X6412920Y-18232674D01*
X6412920Y-18232674D02*
X6393872Y-18242198D01*
X6393872Y-18242198D02*
X6355777Y-18242198D01*
X6355777Y-18242198D02*
X6336729Y-18251722D01*
X6336729Y-18251722D02*
X6327206Y-18261246D01*
X6327206Y-18261246D02*
X6317682Y-18280293D01*
X6317682Y-18280293D02*
X6317682Y-18318389D01*
X6317682Y-18318389D02*
X6327206Y-18337436D01*
X6327206Y-18337436D02*
X6336729Y-18346960D01*
X6336729Y-18346960D02*
X6355777Y-18356484D01*
X6355777Y-18356484D02*
X6393872Y-18356484D01*
X6393872Y-18356484D02*
X6412920Y-18346960D01*
X6412920Y-18346960D02*
X6422444Y-18337436D01*
X6422444Y-18337436D02*
X6431967Y-18318389D01*
X6431967Y-18318389D02*
X6431967Y-18280293D01*
X6431967Y-18280293D02*
X6422444Y-18261246D01*
X6422444Y-18261246D02*
X6412920Y-18251722D01*
X6412920Y-18251722D02*
X6393872Y-18242198D01*
X6622444Y-18356484D02*
X6508158Y-18356484D01*
X6565301Y-18356484D02*
X6565301Y-18156484D01*
X6565301Y-18156484D02*
X6546253Y-18185055D01*
X6546253Y-18185055D02*
X6527206Y-18204103D01*
X6527206Y-18204103D02*
X6508158Y-18213627D01*
X6698634Y-18156484D02*
X6698634Y-18194579D01*
X6774825Y-18156484D02*
X6774825Y-18194579D01*
X7070063Y-18432674D02*
X7060539Y-18423150D01*
X7060539Y-18423150D02*
X7041491Y-18394579D01*
X7041491Y-18394579D02*
X7031968Y-18375531D01*
X7031968Y-18375531D02*
X7022444Y-18346960D01*
X7022444Y-18346960D02*
X7012920Y-18299341D01*
X7012920Y-18299341D02*
X7012920Y-18261246D01*
X7012920Y-18261246D02*
X7022444Y-18213627D01*
X7022444Y-18213627D02*
X7031968Y-18185055D01*
X7031968Y-18185055D02*
X7041491Y-18166008D01*
X7041491Y-18166008D02*
X7060539Y-18137436D01*
X7060539Y-18137436D02*
X7070063Y-18127912D01*
X7127206Y-18156484D02*
X7260539Y-18156484D01*
X7260539Y-18156484D02*
X7174825Y-18356484D01*
X7317682Y-18156484D02*
X7441491Y-18156484D01*
X7441491Y-18156484D02*
X7374825Y-18232674D01*
X7374825Y-18232674D02*
X7403396Y-18232674D01*
X7403396Y-18232674D02*
X7422444Y-18242198D01*
X7422444Y-18242198D02*
X7431968Y-18251722D01*
X7431968Y-18251722D02*
X7441491Y-18270770D01*
X7441491Y-18270770D02*
X7441491Y-18318389D01*
X7441491Y-18318389D02*
X7431968Y-18337436D01*
X7431968Y-18337436D02*
X7422444Y-18346960D01*
X7422444Y-18346960D02*
X7403396Y-18356484D01*
X7403396Y-18356484D02*
X7346253Y-18356484D01*
X7346253Y-18356484D02*
X7327206Y-18346960D01*
X7327206Y-18346960D02*
X7317682Y-18337436D01*
X7679587Y-18356484D02*
X7679587Y-18156484D01*
X7765301Y-18356484D02*
X7765301Y-18251722D01*
X7765301Y-18251722D02*
X7755777Y-18232674D01*
X7755777Y-18232674D02*
X7736730Y-18223150D01*
X7736730Y-18223150D02*
X7708158Y-18223150D01*
X7708158Y-18223150D02*
X7689110Y-18232674D01*
X7689110Y-18232674D02*
X7679587Y-18242198D01*
X7889110Y-18356484D02*
X7870063Y-18346960D01*
X7870063Y-18346960D02*
X7860539Y-18337436D01*
X7860539Y-18337436D02*
X7851015Y-18318389D01*
X7851015Y-18318389D02*
X7851015Y-18261246D01*
X7851015Y-18261246D02*
X7860539Y-18242198D01*
X7860539Y-18242198D02*
X7870063Y-18232674D01*
X7870063Y-18232674D02*
X7889110Y-18223150D01*
X7889110Y-18223150D02*
X7917682Y-18223150D01*
X7917682Y-18223150D02*
X7936730Y-18232674D01*
X7936730Y-18232674D02*
X7946253Y-18242198D01*
X7946253Y-18242198D02*
X7955777Y-18261246D01*
X7955777Y-18261246D02*
X7955777Y-18318389D01*
X7955777Y-18318389D02*
X7946253Y-18337436D01*
X7946253Y-18337436D02*
X7936730Y-18346960D01*
X7936730Y-18346960D02*
X7917682Y-18356484D01*
X7917682Y-18356484D02*
X7889110Y-18356484D01*
X8070063Y-18356484D02*
X8051015Y-18346960D01*
X8051015Y-18346960D02*
X8041491Y-18327912D01*
X8041491Y-18327912D02*
X8041491Y-18156484D01*
X8222444Y-18346960D02*
X8203396Y-18356484D01*
X8203396Y-18356484D02*
X8165301Y-18356484D01*
X8165301Y-18356484D02*
X8146253Y-18346960D01*
X8146253Y-18346960D02*
X8136730Y-18327912D01*
X8136730Y-18327912D02*
X8136730Y-18251722D01*
X8136730Y-18251722D02*
X8146253Y-18232674D01*
X8146253Y-18232674D02*
X8165301Y-18223150D01*
X8165301Y-18223150D02*
X8203396Y-18223150D01*
X8203396Y-18223150D02*
X8222444Y-18232674D01*
X8222444Y-18232674D02*
X8231968Y-18251722D01*
X8231968Y-18251722D02*
X8231968Y-18270770D01*
X8231968Y-18270770D02*
X8136730Y-18289817D01*
X8308158Y-18346960D02*
X8327206Y-18356484D01*
X8327206Y-18356484D02*
X8365301Y-18356484D01*
X8365301Y-18356484D02*
X8384349Y-18346960D01*
X8384349Y-18346960D02*
X8393873Y-18327912D01*
X8393873Y-18327912D02*
X8393873Y-18318389D01*
X8393873Y-18318389D02*
X8384349Y-18299341D01*
X8384349Y-18299341D02*
X8365301Y-18289817D01*
X8365301Y-18289817D02*
X8336730Y-18289817D01*
X8336730Y-18289817D02*
X8317682Y-18280293D01*
X8317682Y-18280293D02*
X8308158Y-18261246D01*
X8308158Y-18261246D02*
X8308158Y-18251722D01*
X8308158Y-18251722D02*
X8317682Y-18232674D01*
X8317682Y-18232674D02*
X8336730Y-18223150D01*
X8336730Y-18223150D02*
X8365301Y-18223150D01*
X8365301Y-18223150D02*
X8384349Y-18232674D01*
X8460539Y-18432674D02*
X8470063Y-18423150D01*
X8470063Y-18423150D02*
X8489111Y-18394579D01*
X8489111Y-18394579D02*
X8498634Y-18375531D01*
X8498634Y-18375531D02*
X8508158Y-18346960D01*
X8508158Y-18346960D02*
X8517682Y-18299341D01*
X8517682Y-18299341D02*
X8517682Y-18261246D01*
X8517682Y-18261246D02*
X8508158Y-18213627D01*
X8508158Y-18213627D02*
X8498634Y-18185055D01*
X8498634Y-18185055D02*
X8489111Y-18166008D01*
X8489111Y-18166008D02*
X8470063Y-18137436D01*
X8470063Y-18137436D02*
X8460539Y-18127912D01*
X8822444Y-18432674D02*
X8812920Y-18423150D01*
X8812920Y-18423150D02*
X8793873Y-18394579D01*
X8793873Y-18394579D02*
X8784349Y-18375531D01*
X8784349Y-18375531D02*
X8774825Y-18346960D01*
X8774825Y-18346960D02*
X8765301Y-18299341D01*
X8765301Y-18299341D02*
X8765301Y-18261246D01*
X8765301Y-18261246D02*
X8774825Y-18213627D01*
X8774825Y-18213627D02*
X8784349Y-18185055D01*
X8784349Y-18185055D02*
X8793873Y-18166008D01*
X8793873Y-18166008D02*
X8812920Y-18137436D01*
X8812920Y-18137436D02*
X8822444Y-18127912D01*
X8898634Y-18223150D02*
X8898634Y-18356484D01*
X8898634Y-18242198D02*
X8908158Y-18232674D01*
X8908158Y-18232674D02*
X8927206Y-18223150D01*
X8927206Y-18223150D02*
X8955777Y-18223150D01*
X8955777Y-18223150D02*
X8974825Y-18232674D01*
X8974825Y-18232674D02*
X8984349Y-18251722D01*
X8984349Y-18251722D02*
X8984349Y-18356484D01*
X9108158Y-18356484D02*
X9089111Y-18346960D01*
X9089111Y-18346960D02*
X9079587Y-18337436D01*
X9079587Y-18337436D02*
X9070063Y-18318389D01*
X9070063Y-18318389D02*
X9070063Y-18261246D01*
X9070063Y-18261246D02*
X9079587Y-18242198D01*
X9079587Y-18242198D02*
X9089111Y-18232674D01*
X9089111Y-18232674D02*
X9108158Y-18223150D01*
X9108158Y-18223150D02*
X9136730Y-18223150D01*
X9136730Y-18223150D02*
X9155777Y-18232674D01*
X9155777Y-18232674D02*
X9165301Y-18242198D01*
X9165301Y-18242198D02*
X9174825Y-18261246D01*
X9174825Y-18261246D02*
X9174825Y-18318389D01*
X9174825Y-18318389D02*
X9165301Y-18337436D01*
X9165301Y-18337436D02*
X9155777Y-18346960D01*
X9155777Y-18346960D02*
X9136730Y-18356484D01*
X9136730Y-18356484D02*
X9108158Y-18356484D01*
X9231968Y-18223150D02*
X9308158Y-18223150D01*
X9260539Y-18156484D02*
X9260539Y-18327912D01*
X9260539Y-18327912D02*
X9270063Y-18346960D01*
X9270063Y-18346960D02*
X9289111Y-18356484D01*
X9289111Y-18356484D02*
X9308158Y-18356484D01*
X9527206Y-18223150D02*
X9527206Y-18423150D01*
X9527206Y-18232674D02*
X9546254Y-18223150D01*
X9546254Y-18223150D02*
X9584349Y-18223150D01*
X9584349Y-18223150D02*
X9603396Y-18232674D01*
X9603396Y-18232674D02*
X9612920Y-18242198D01*
X9612920Y-18242198D02*
X9622444Y-18261246D01*
X9622444Y-18261246D02*
X9622444Y-18318389D01*
X9622444Y-18318389D02*
X9612920Y-18337436D01*
X9612920Y-18337436D02*
X9603396Y-18346960D01*
X9603396Y-18346960D02*
X9584349Y-18356484D01*
X9584349Y-18356484D02*
X9546254Y-18356484D01*
X9546254Y-18356484D02*
X9527206Y-18346960D01*
X9736730Y-18356484D02*
X9717682Y-18346960D01*
X9717682Y-18346960D02*
X9708158Y-18327912D01*
X9708158Y-18327912D02*
X9708158Y-18156484D01*
X9898635Y-18356484D02*
X9898635Y-18251722D01*
X9898635Y-18251722D02*
X9889111Y-18232674D01*
X9889111Y-18232674D02*
X9870063Y-18223150D01*
X9870063Y-18223150D02*
X9831968Y-18223150D01*
X9831968Y-18223150D02*
X9812920Y-18232674D01*
X9898635Y-18346960D02*
X9879587Y-18356484D01*
X9879587Y-18356484D02*
X9831968Y-18356484D01*
X9831968Y-18356484D02*
X9812920Y-18346960D01*
X9812920Y-18346960D02*
X9803396Y-18327912D01*
X9803396Y-18327912D02*
X9803396Y-18308865D01*
X9803396Y-18308865D02*
X9812920Y-18289817D01*
X9812920Y-18289817D02*
X9831968Y-18280293D01*
X9831968Y-18280293D02*
X9879587Y-18280293D01*
X9879587Y-18280293D02*
X9898635Y-18270770D01*
X9965301Y-18223150D02*
X10041492Y-18223150D01*
X9993873Y-18156484D02*
X9993873Y-18327912D01*
X9993873Y-18327912D02*
X10003396Y-18346960D01*
X10003396Y-18346960D02*
X10022444Y-18356484D01*
X10022444Y-18356484D02*
X10041492Y-18356484D01*
X10184349Y-18346960D02*
X10165301Y-18356484D01*
X10165301Y-18356484D02*
X10127206Y-18356484D01*
X10127206Y-18356484D02*
X10108158Y-18346960D01*
X10108158Y-18346960D02*
X10098635Y-18327912D01*
X10098635Y-18327912D02*
X10098635Y-18251722D01*
X10098635Y-18251722D02*
X10108158Y-18232674D01*
X10108158Y-18232674D02*
X10127206Y-18223150D01*
X10127206Y-18223150D02*
X10165301Y-18223150D01*
X10165301Y-18223150D02*
X10184349Y-18232674D01*
X10184349Y-18232674D02*
X10193873Y-18251722D01*
X10193873Y-18251722D02*
X10193873Y-18270770D01*
X10193873Y-18270770D02*
X10098635Y-18289817D01*
X10365301Y-18356484D02*
X10365301Y-18156484D01*
X10365301Y-18346960D02*
X10346254Y-18356484D01*
X10346254Y-18356484D02*
X10308158Y-18356484D01*
X10308158Y-18356484D02*
X10289111Y-18346960D01*
X10289111Y-18346960D02*
X10279587Y-18337436D01*
X10279587Y-18337436D02*
X10270063Y-18318389D01*
X10270063Y-18318389D02*
X10270063Y-18261246D01*
X10270063Y-18261246D02*
X10279587Y-18242198D01*
X10279587Y-18242198D02*
X10289111Y-18232674D01*
X10289111Y-18232674D02*
X10308158Y-18223150D01*
X10308158Y-18223150D02*
X10346254Y-18223150D01*
X10346254Y-18223150D02*
X10365301Y-18232674D01*
X10441492Y-18432674D02*
X10451016Y-18423150D01*
X10451016Y-18423150D02*
X10470063Y-18394579D01*
X10470063Y-18394579D02*
X10479587Y-18375531D01*
X10479587Y-18375531D02*
X10489111Y-18346960D01*
X10489111Y-18346960D02*
X10498635Y-18299341D01*
X10498635Y-18299341D02*
X10498635Y-18261246D01*
X10498635Y-18261246D02*
X10489111Y-18213627D01*
X10489111Y-18213627D02*
X10479587Y-18185055D01*
X10479587Y-18185055D02*
X10470063Y-18166008D01*
X10470063Y-18166008D02*
X10451016Y-18137436D01*
X10451016Y-18137436D02*
X10441492Y-18127912D01*
X3395000Y-18685000D02*
X3495000Y-18585000D01*
X3395000Y-18485000D01*
X3295000Y-18585000D01*
X3395000Y-18685000D01*
X3851015Y-18476484D02*
X3755777Y-18476484D01*
X3755777Y-18476484D02*
X3746253Y-18571722D01*
X3746253Y-18571722D02*
X3755777Y-18562198D01*
X3755777Y-18562198D02*
X3774824Y-18552674D01*
X3774824Y-18552674D02*
X3822443Y-18552674D01*
X3822443Y-18552674D02*
X3841491Y-18562198D01*
X3841491Y-18562198D02*
X3851015Y-18571722D01*
X3851015Y-18571722D02*
X3860539Y-18590770D01*
X3860539Y-18590770D02*
X3860539Y-18638389D01*
X3860539Y-18638389D02*
X3851015Y-18657436D01*
X3851015Y-18657436D02*
X3841491Y-18666960D01*
X3841491Y-18666960D02*
X3822443Y-18676484D01*
X3822443Y-18676484D02*
X3774824Y-18676484D01*
X3774824Y-18676484D02*
X3755777Y-18666960D01*
X3755777Y-18666960D02*
X3746253Y-18657436D01*
X3946253Y-18657436D02*
X3955777Y-18666960D01*
X3955777Y-18666960D02*
X3946253Y-18676484D01*
X3946253Y-18676484D02*
X3936729Y-18666960D01*
X3936729Y-18666960D02*
X3946253Y-18657436D01*
X3946253Y-18657436D02*
X3946253Y-18676484D01*
X4079586Y-18476484D02*
X4098634Y-18476484D01*
X4098634Y-18476484D02*
X4117682Y-18486008D01*
X4117682Y-18486008D02*
X4127205Y-18495531D01*
X4127205Y-18495531D02*
X4136729Y-18514579D01*
X4136729Y-18514579D02*
X4146253Y-18552674D01*
X4146253Y-18552674D02*
X4146253Y-18600293D01*
X4146253Y-18600293D02*
X4136729Y-18638389D01*
X4136729Y-18638389D02*
X4127205Y-18657436D01*
X4127205Y-18657436D02*
X4117682Y-18666960D01*
X4117682Y-18666960D02*
X4098634Y-18676484D01*
X4098634Y-18676484D02*
X4079586Y-18676484D01*
X4079586Y-18676484D02*
X4060539Y-18666960D01*
X4060539Y-18666960D02*
X4051015Y-18657436D01*
X4051015Y-18657436D02*
X4041491Y-18638389D01*
X4041491Y-18638389D02*
X4031967Y-18600293D01*
X4031967Y-18600293D02*
X4031967Y-18552674D01*
X4031967Y-18552674D02*
X4041491Y-18514579D01*
X4041491Y-18514579D02*
X4051015Y-18495531D01*
X4051015Y-18495531D02*
X4060539Y-18486008D01*
X4060539Y-18486008D02*
X4079586Y-18476484D01*
X4270063Y-18476484D02*
X4289110Y-18476484D01*
X4289110Y-18476484D02*
X4308158Y-18486008D01*
X4308158Y-18486008D02*
X4317682Y-18495531D01*
X4317682Y-18495531D02*
X4327205Y-18514579D01*
X4327205Y-18514579D02*
X4336729Y-18552674D01*
X4336729Y-18552674D02*
X4336729Y-18600293D01*
X4336729Y-18600293D02*
X4327205Y-18638389D01*
X4327205Y-18638389D02*
X4317682Y-18657436D01*
X4317682Y-18657436D02*
X4308158Y-18666960D01*
X4308158Y-18666960D02*
X4289110Y-18676484D01*
X4289110Y-18676484D02*
X4270063Y-18676484D01*
X4270063Y-18676484D02*
X4251015Y-18666960D01*
X4251015Y-18666960D02*
X4241491Y-18657436D01*
X4241491Y-18657436D02*
X4231967Y-18638389D01*
X4231967Y-18638389D02*
X4222444Y-18600293D01*
X4222444Y-18600293D02*
X4222444Y-18552674D01*
X4222444Y-18552674D02*
X4231967Y-18514579D01*
X4231967Y-18514579D02*
X4241491Y-18495531D01*
X4241491Y-18495531D02*
X4251015Y-18486008D01*
X4251015Y-18486008D02*
X4270063Y-18476484D01*
X4460539Y-18476484D02*
X4479586Y-18476484D01*
X4479586Y-18476484D02*
X4498634Y-18486008D01*
X4498634Y-18486008D02*
X4508158Y-18495531D01*
X4508158Y-18495531D02*
X4517682Y-18514579D01*
X4517682Y-18514579D02*
X4527205Y-18552674D01*
X4527205Y-18552674D02*
X4527205Y-18600293D01*
X4527205Y-18600293D02*
X4517682Y-18638389D01*
X4517682Y-18638389D02*
X4508158Y-18657436D01*
X4508158Y-18657436D02*
X4498634Y-18666960D01*
X4498634Y-18666960D02*
X4479586Y-18676484D01*
X4479586Y-18676484D02*
X4460539Y-18676484D01*
X4460539Y-18676484D02*
X4441491Y-18666960D01*
X4441491Y-18666960D02*
X4431967Y-18657436D01*
X4431967Y-18657436D02*
X4422444Y-18638389D01*
X4422444Y-18638389D02*
X4412920Y-18600293D01*
X4412920Y-18600293D02*
X4412920Y-18552674D01*
X4412920Y-18552674D02*
X4422444Y-18514579D01*
X4422444Y-18514579D02*
X4431967Y-18495531D01*
X4431967Y-18495531D02*
X4441491Y-18486008D01*
X4441491Y-18486008D02*
X4460539Y-18476484D01*
X4612920Y-18676484D02*
X4612920Y-18543150D01*
X4612920Y-18562198D02*
X4622444Y-18552674D01*
X4622444Y-18552674D02*
X4641491Y-18543150D01*
X4641491Y-18543150D02*
X4670063Y-18543150D01*
X4670063Y-18543150D02*
X4689110Y-18552674D01*
X4689110Y-18552674D02*
X4698634Y-18571722D01*
X4698634Y-18571722D02*
X4698634Y-18676484D01*
X4698634Y-18571722D02*
X4708158Y-18552674D01*
X4708158Y-18552674D02*
X4727205Y-18543150D01*
X4727205Y-18543150D02*
X4755777Y-18543150D01*
X4755777Y-18543150D02*
X4774825Y-18552674D01*
X4774825Y-18552674D02*
X4784348Y-18571722D01*
X4784348Y-18571722D02*
X4784348Y-18676484D01*
X4879586Y-18676484D02*
X4879586Y-18543150D01*
X4879586Y-18562198D02*
X4889110Y-18552674D01*
X4889110Y-18552674D02*
X4908158Y-18543150D01*
X4908158Y-18543150D02*
X4936729Y-18543150D01*
X4936729Y-18543150D02*
X4955777Y-18552674D01*
X4955777Y-18552674D02*
X4965301Y-18571722D01*
X4965301Y-18571722D02*
X4965301Y-18676484D01*
X4965301Y-18571722D02*
X4974825Y-18552674D01*
X4974825Y-18552674D02*
X4993872Y-18543150D01*
X4993872Y-18543150D02*
X5022444Y-18543150D01*
X5022444Y-18543150D02*
X5041491Y-18552674D01*
X5041491Y-18552674D02*
X5051015Y-18571722D01*
X5051015Y-18571722D02*
X5051015Y-18676484D01*
X5441491Y-18466960D02*
X5270063Y-18724103D01*
X5698634Y-18476484D02*
X5717682Y-18476484D01*
X5717682Y-18476484D02*
X5736729Y-18486008D01*
X5736729Y-18486008D02*
X5746253Y-18495531D01*
X5746253Y-18495531D02*
X5755777Y-18514579D01*
X5755777Y-18514579D02*
X5765301Y-18552674D01*
X5765301Y-18552674D02*
X5765301Y-18600293D01*
X5765301Y-18600293D02*
X5755777Y-18638389D01*
X5755777Y-18638389D02*
X5746253Y-18657436D01*
X5746253Y-18657436D02*
X5736729Y-18666960D01*
X5736729Y-18666960D02*
X5717682Y-18676484D01*
X5717682Y-18676484D02*
X5698634Y-18676484D01*
X5698634Y-18676484D02*
X5679586Y-18666960D01*
X5679586Y-18666960D02*
X5670063Y-18657436D01*
X5670063Y-18657436D02*
X5660539Y-18638389D01*
X5660539Y-18638389D02*
X5651015Y-18600293D01*
X5651015Y-18600293D02*
X5651015Y-18552674D01*
X5651015Y-18552674D02*
X5660539Y-18514579D01*
X5660539Y-18514579D02*
X5670063Y-18495531D01*
X5670063Y-18495531D02*
X5679586Y-18486008D01*
X5679586Y-18486008D02*
X5698634Y-18476484D01*
X5851015Y-18657436D02*
X5860539Y-18666960D01*
X5860539Y-18666960D02*
X5851015Y-18676484D01*
X5851015Y-18676484D02*
X5841491Y-18666960D01*
X5841491Y-18666960D02*
X5851015Y-18657436D01*
X5851015Y-18657436D02*
X5851015Y-18676484D01*
X6051015Y-18676484D02*
X5936729Y-18676484D01*
X5993872Y-18676484D02*
X5993872Y-18476484D01*
X5993872Y-18476484D02*
X5974825Y-18505055D01*
X5974825Y-18505055D02*
X5955777Y-18524103D01*
X5955777Y-18524103D02*
X5936729Y-18533627D01*
X6146253Y-18676484D02*
X6184348Y-18676484D01*
X6184348Y-18676484D02*
X6203396Y-18666960D01*
X6203396Y-18666960D02*
X6212920Y-18657436D01*
X6212920Y-18657436D02*
X6231967Y-18628865D01*
X6231967Y-18628865D02*
X6241491Y-18590770D01*
X6241491Y-18590770D02*
X6241491Y-18514579D01*
X6241491Y-18514579D02*
X6231967Y-18495531D01*
X6231967Y-18495531D02*
X6222444Y-18486008D01*
X6222444Y-18486008D02*
X6203396Y-18476484D01*
X6203396Y-18476484D02*
X6165301Y-18476484D01*
X6165301Y-18476484D02*
X6146253Y-18486008D01*
X6146253Y-18486008D02*
X6136729Y-18495531D01*
X6136729Y-18495531D02*
X6127206Y-18514579D01*
X6127206Y-18514579D02*
X6127206Y-18562198D01*
X6127206Y-18562198D02*
X6136729Y-18581246D01*
X6136729Y-18581246D02*
X6146253Y-18590770D01*
X6146253Y-18590770D02*
X6165301Y-18600293D01*
X6165301Y-18600293D02*
X6203396Y-18600293D01*
X6203396Y-18600293D02*
X6222444Y-18590770D01*
X6222444Y-18590770D02*
X6231967Y-18581246D01*
X6231967Y-18581246D02*
X6241491Y-18562198D01*
X6412920Y-18476484D02*
X6374825Y-18476484D01*
X6374825Y-18476484D02*
X6355777Y-18486008D01*
X6355777Y-18486008D02*
X6346253Y-18495531D01*
X6346253Y-18495531D02*
X6327206Y-18524103D01*
X6327206Y-18524103D02*
X6317682Y-18562198D01*
X6317682Y-18562198D02*
X6317682Y-18638389D01*
X6317682Y-18638389D02*
X6327206Y-18657436D01*
X6327206Y-18657436D02*
X6336729Y-18666960D01*
X6336729Y-18666960D02*
X6355777Y-18676484D01*
X6355777Y-18676484D02*
X6393872Y-18676484D01*
X6393872Y-18676484D02*
X6412920Y-18666960D01*
X6412920Y-18666960D02*
X6422444Y-18657436D01*
X6422444Y-18657436D02*
X6431967Y-18638389D01*
X6431967Y-18638389D02*
X6431967Y-18590770D01*
X6431967Y-18590770D02*
X6422444Y-18571722D01*
X6422444Y-18571722D02*
X6412920Y-18562198D01*
X6412920Y-18562198D02*
X6393872Y-18552674D01*
X6393872Y-18552674D02*
X6355777Y-18552674D01*
X6355777Y-18552674D02*
X6336729Y-18562198D01*
X6336729Y-18562198D02*
X6327206Y-18571722D01*
X6327206Y-18571722D02*
X6317682Y-18590770D01*
X6527206Y-18676484D02*
X6565301Y-18676484D01*
X6565301Y-18676484D02*
X6584348Y-18666960D01*
X6584348Y-18666960D02*
X6593872Y-18657436D01*
X6593872Y-18657436D02*
X6612920Y-18628865D01*
X6612920Y-18628865D02*
X6622444Y-18590770D01*
X6622444Y-18590770D02*
X6622444Y-18514579D01*
X6622444Y-18514579D02*
X6612920Y-18495531D01*
X6612920Y-18495531D02*
X6603396Y-18486008D01*
X6603396Y-18486008D02*
X6584348Y-18476484D01*
X6584348Y-18476484D02*
X6546253Y-18476484D01*
X6546253Y-18476484D02*
X6527206Y-18486008D01*
X6527206Y-18486008D02*
X6517682Y-18495531D01*
X6517682Y-18495531D02*
X6508158Y-18514579D01*
X6508158Y-18514579D02*
X6508158Y-18562198D01*
X6508158Y-18562198D02*
X6517682Y-18581246D01*
X6517682Y-18581246D02*
X6527206Y-18590770D01*
X6527206Y-18590770D02*
X6546253Y-18600293D01*
X6546253Y-18600293D02*
X6584348Y-18600293D01*
X6584348Y-18600293D02*
X6603396Y-18590770D01*
X6603396Y-18590770D02*
X6612920Y-18581246D01*
X6612920Y-18581246D02*
X6622444Y-18562198D01*
X6698634Y-18476484D02*
X6698634Y-18514579D01*
X6774825Y-18476484D02*
X6774825Y-18514579D01*
X7070063Y-18752674D02*
X7060539Y-18743150D01*
X7060539Y-18743150D02*
X7041491Y-18714579D01*
X7041491Y-18714579D02*
X7031968Y-18695531D01*
X7031968Y-18695531D02*
X7022444Y-18666960D01*
X7022444Y-18666960D02*
X7012920Y-18619341D01*
X7012920Y-18619341D02*
X7012920Y-18581246D01*
X7012920Y-18581246D02*
X7022444Y-18533627D01*
X7022444Y-18533627D02*
X7031968Y-18505055D01*
X7031968Y-18505055D02*
X7041491Y-18486008D01*
X7041491Y-18486008D02*
X7060539Y-18457436D01*
X7060539Y-18457436D02*
X7070063Y-18447912D01*
X7127206Y-18476484D02*
X7251015Y-18476484D01*
X7251015Y-18476484D02*
X7184348Y-18552674D01*
X7184348Y-18552674D02*
X7212920Y-18552674D01*
X7212920Y-18552674D02*
X7231968Y-18562198D01*
X7231968Y-18562198D02*
X7241491Y-18571722D01*
X7241491Y-18571722D02*
X7251015Y-18590770D01*
X7251015Y-18590770D02*
X7251015Y-18638389D01*
X7251015Y-18638389D02*
X7241491Y-18657436D01*
X7241491Y-18657436D02*
X7231968Y-18666960D01*
X7231968Y-18666960D02*
X7212920Y-18676484D01*
X7212920Y-18676484D02*
X7155777Y-18676484D01*
X7155777Y-18676484D02*
X7136729Y-18666960D01*
X7136729Y-18666960D02*
X7127206Y-18657436D01*
X7327206Y-18495531D02*
X7336729Y-18486008D01*
X7336729Y-18486008D02*
X7355777Y-18476484D01*
X7355777Y-18476484D02*
X7403396Y-18476484D01*
X7403396Y-18476484D02*
X7422444Y-18486008D01*
X7422444Y-18486008D02*
X7431968Y-18495531D01*
X7431968Y-18495531D02*
X7441491Y-18514579D01*
X7441491Y-18514579D02*
X7441491Y-18533627D01*
X7441491Y-18533627D02*
X7431968Y-18562198D01*
X7431968Y-18562198D02*
X7317682Y-18676484D01*
X7317682Y-18676484D02*
X7441491Y-18676484D01*
X7679587Y-18676484D02*
X7679587Y-18476484D01*
X7765301Y-18676484D02*
X7765301Y-18571722D01*
X7765301Y-18571722D02*
X7755777Y-18552674D01*
X7755777Y-18552674D02*
X7736730Y-18543150D01*
X7736730Y-18543150D02*
X7708158Y-18543150D01*
X7708158Y-18543150D02*
X7689110Y-18552674D01*
X7689110Y-18552674D02*
X7679587Y-18562198D01*
X7889110Y-18676484D02*
X7870063Y-18666960D01*
X7870063Y-18666960D02*
X7860539Y-18657436D01*
X7860539Y-18657436D02*
X7851015Y-18638389D01*
X7851015Y-18638389D02*
X7851015Y-18581246D01*
X7851015Y-18581246D02*
X7860539Y-18562198D01*
X7860539Y-18562198D02*
X7870063Y-18552674D01*
X7870063Y-18552674D02*
X7889110Y-18543150D01*
X7889110Y-18543150D02*
X7917682Y-18543150D01*
X7917682Y-18543150D02*
X7936730Y-18552674D01*
X7936730Y-18552674D02*
X7946253Y-18562198D01*
X7946253Y-18562198D02*
X7955777Y-18581246D01*
X7955777Y-18581246D02*
X7955777Y-18638389D01*
X7955777Y-18638389D02*
X7946253Y-18657436D01*
X7946253Y-18657436D02*
X7936730Y-18666960D01*
X7936730Y-18666960D02*
X7917682Y-18676484D01*
X7917682Y-18676484D02*
X7889110Y-18676484D01*
X8070063Y-18676484D02*
X8051015Y-18666960D01*
X8051015Y-18666960D02*
X8041491Y-18647912D01*
X8041491Y-18647912D02*
X8041491Y-18476484D01*
X8222444Y-18666960D02*
X8203396Y-18676484D01*
X8203396Y-18676484D02*
X8165301Y-18676484D01*
X8165301Y-18676484D02*
X8146253Y-18666960D01*
X8146253Y-18666960D02*
X8136730Y-18647912D01*
X8136730Y-18647912D02*
X8136730Y-18571722D01*
X8136730Y-18571722D02*
X8146253Y-18552674D01*
X8146253Y-18552674D02*
X8165301Y-18543150D01*
X8165301Y-18543150D02*
X8203396Y-18543150D01*
X8203396Y-18543150D02*
X8222444Y-18552674D01*
X8222444Y-18552674D02*
X8231968Y-18571722D01*
X8231968Y-18571722D02*
X8231968Y-18590770D01*
X8231968Y-18590770D02*
X8136730Y-18609817D01*
X8308158Y-18666960D02*
X8327206Y-18676484D01*
X8327206Y-18676484D02*
X8365301Y-18676484D01*
X8365301Y-18676484D02*
X8384349Y-18666960D01*
X8384349Y-18666960D02*
X8393873Y-18647912D01*
X8393873Y-18647912D02*
X8393873Y-18638389D01*
X8393873Y-18638389D02*
X8384349Y-18619341D01*
X8384349Y-18619341D02*
X8365301Y-18609817D01*
X8365301Y-18609817D02*
X8336730Y-18609817D01*
X8336730Y-18609817D02*
X8317682Y-18600293D01*
X8317682Y-18600293D02*
X8308158Y-18581246D01*
X8308158Y-18581246D02*
X8308158Y-18571722D01*
X8308158Y-18571722D02*
X8317682Y-18552674D01*
X8317682Y-18552674D02*
X8336730Y-18543150D01*
X8336730Y-18543150D02*
X8365301Y-18543150D01*
X8365301Y-18543150D02*
X8384349Y-18552674D01*
X8460539Y-18752674D02*
X8470063Y-18743150D01*
X8470063Y-18743150D02*
X8489111Y-18714579D01*
X8489111Y-18714579D02*
X8498634Y-18695531D01*
X8498634Y-18695531D02*
X8508158Y-18666960D01*
X8508158Y-18666960D02*
X8517682Y-18619341D01*
X8517682Y-18619341D02*
X8517682Y-18581246D01*
X8517682Y-18581246D02*
X8508158Y-18533627D01*
X8508158Y-18533627D02*
X8498634Y-18505055D01*
X8498634Y-18505055D02*
X8489111Y-18486008D01*
X8489111Y-18486008D02*
X8470063Y-18457436D01*
X8470063Y-18457436D02*
X8460539Y-18447912D01*
X8822444Y-18752674D02*
X8812920Y-18743150D01*
X8812920Y-18743150D02*
X8793873Y-18714579D01*
X8793873Y-18714579D02*
X8784349Y-18695531D01*
X8784349Y-18695531D02*
X8774825Y-18666960D01*
X8774825Y-18666960D02*
X8765301Y-18619341D01*
X8765301Y-18619341D02*
X8765301Y-18581246D01*
X8765301Y-18581246D02*
X8774825Y-18533627D01*
X8774825Y-18533627D02*
X8784349Y-18505055D01*
X8784349Y-18505055D02*
X8793873Y-18486008D01*
X8793873Y-18486008D02*
X8812920Y-18457436D01*
X8812920Y-18457436D02*
X8822444Y-18447912D01*
X8898634Y-18543150D02*
X8898634Y-18676484D01*
X8898634Y-18562198D02*
X8908158Y-18552674D01*
X8908158Y-18552674D02*
X8927206Y-18543150D01*
X8927206Y-18543150D02*
X8955777Y-18543150D01*
X8955777Y-18543150D02*
X8974825Y-18552674D01*
X8974825Y-18552674D02*
X8984349Y-18571722D01*
X8984349Y-18571722D02*
X8984349Y-18676484D01*
X9108158Y-18676484D02*
X9089111Y-18666960D01*
X9089111Y-18666960D02*
X9079587Y-18657436D01*
X9079587Y-18657436D02*
X9070063Y-18638389D01*
X9070063Y-18638389D02*
X9070063Y-18581246D01*
X9070063Y-18581246D02*
X9079587Y-18562198D01*
X9079587Y-18562198D02*
X9089111Y-18552674D01*
X9089111Y-18552674D02*
X9108158Y-18543150D01*
X9108158Y-18543150D02*
X9136730Y-18543150D01*
X9136730Y-18543150D02*
X9155777Y-18552674D01*
X9155777Y-18552674D02*
X9165301Y-18562198D01*
X9165301Y-18562198D02*
X9174825Y-18581246D01*
X9174825Y-18581246D02*
X9174825Y-18638389D01*
X9174825Y-18638389D02*
X9165301Y-18657436D01*
X9165301Y-18657436D02*
X9155777Y-18666960D01*
X9155777Y-18666960D02*
X9136730Y-18676484D01*
X9136730Y-18676484D02*
X9108158Y-18676484D01*
X9231968Y-18543150D02*
X9308158Y-18543150D01*
X9260539Y-18476484D02*
X9260539Y-18647912D01*
X9260539Y-18647912D02*
X9270063Y-18666960D01*
X9270063Y-18666960D02*
X9289111Y-18676484D01*
X9289111Y-18676484D02*
X9308158Y-18676484D01*
X9527206Y-18543150D02*
X9527206Y-18743150D01*
X9527206Y-18552674D02*
X9546254Y-18543150D01*
X9546254Y-18543150D02*
X9584349Y-18543150D01*
X9584349Y-18543150D02*
X9603396Y-18552674D01*
X9603396Y-18552674D02*
X9612920Y-18562198D01*
X9612920Y-18562198D02*
X9622444Y-18581246D01*
X9622444Y-18581246D02*
X9622444Y-18638389D01*
X9622444Y-18638389D02*
X9612920Y-18657436D01*
X9612920Y-18657436D02*
X9603396Y-18666960D01*
X9603396Y-18666960D02*
X9584349Y-18676484D01*
X9584349Y-18676484D02*
X9546254Y-18676484D01*
X9546254Y-18676484D02*
X9527206Y-18666960D01*
X9736730Y-18676484D02*
X9717682Y-18666960D01*
X9717682Y-18666960D02*
X9708158Y-18647912D01*
X9708158Y-18647912D02*
X9708158Y-18476484D01*
X9898635Y-18676484D02*
X9898635Y-18571722D01*
X9898635Y-18571722D02*
X9889111Y-18552674D01*
X9889111Y-18552674D02*
X9870063Y-18543150D01*
X9870063Y-18543150D02*
X9831968Y-18543150D01*
X9831968Y-18543150D02*
X9812920Y-18552674D01*
X9898635Y-18666960D02*
X9879587Y-18676484D01*
X9879587Y-18676484D02*
X9831968Y-18676484D01*
X9831968Y-18676484D02*
X9812920Y-18666960D01*
X9812920Y-18666960D02*
X9803396Y-18647912D01*
X9803396Y-18647912D02*
X9803396Y-18628865D01*
X9803396Y-18628865D02*
X9812920Y-18609817D01*
X9812920Y-18609817D02*
X9831968Y-18600293D01*
X9831968Y-18600293D02*
X9879587Y-18600293D01*
X9879587Y-18600293D02*
X9898635Y-18590770D01*
X9965301Y-18543150D02*
X10041492Y-18543150D01*
X9993873Y-18476484D02*
X9993873Y-18647912D01*
X9993873Y-18647912D02*
X10003396Y-18666960D01*
X10003396Y-18666960D02*
X10022444Y-18676484D01*
X10022444Y-18676484D02*
X10041492Y-18676484D01*
X10184349Y-18666960D02*
X10165301Y-18676484D01*
X10165301Y-18676484D02*
X10127206Y-18676484D01*
X10127206Y-18676484D02*
X10108158Y-18666960D01*
X10108158Y-18666960D02*
X10098635Y-18647912D01*
X10098635Y-18647912D02*
X10098635Y-18571722D01*
X10098635Y-18571722D02*
X10108158Y-18552674D01*
X10108158Y-18552674D02*
X10127206Y-18543150D01*
X10127206Y-18543150D02*
X10165301Y-18543150D01*
X10165301Y-18543150D02*
X10184349Y-18552674D01*
X10184349Y-18552674D02*
X10193873Y-18571722D01*
X10193873Y-18571722D02*
X10193873Y-18590770D01*
X10193873Y-18590770D02*
X10098635Y-18609817D01*
X10365301Y-18676484D02*
X10365301Y-18476484D01*
X10365301Y-18666960D02*
X10346254Y-18676484D01*
X10346254Y-18676484D02*
X10308158Y-18676484D01*
X10308158Y-18676484D02*
X10289111Y-18666960D01*
X10289111Y-18666960D02*
X10279587Y-18657436D01*
X10279587Y-18657436D02*
X10270063Y-18638389D01*
X10270063Y-18638389D02*
X10270063Y-18581246D01*
X10270063Y-18581246D02*
X10279587Y-18562198D01*
X10279587Y-18562198D02*
X10289111Y-18552674D01*
X10289111Y-18552674D02*
X10308158Y-18543150D01*
X10308158Y-18543150D02*
X10346254Y-18543150D01*
X10346254Y-18543150D02*
X10365301Y-18552674D01*
X10441492Y-18752674D02*
X10451016Y-18743150D01*
X10451016Y-18743150D02*
X10470063Y-18714579D01*
X10470063Y-18714579D02*
X10479587Y-18695531D01*
X10479587Y-18695531D02*
X10489111Y-18666960D01*
X10489111Y-18666960D02*
X10498635Y-18619341D01*
X10498635Y-18619341D02*
X10498635Y-18581246D01*
X10498635Y-18581246D02*
X10489111Y-18533627D01*
X10489111Y-18533627D02*
X10479587Y-18505055D01*
X10479587Y-18505055D02*
X10470063Y-18486008D01*
X10470063Y-18486008D02*
X10451016Y-18457436D01*
X10451016Y-18457436D02*
X10441492Y-18447912D01*
M02*
