%TF.GenerationSoftware,KiCad,Pcbnew,10.0.3*%
%TF.CreationDate,2026-08-20T07:58:21+09:00*%
%TF.ProjectId,kc2_left-x3-v2,6b63325f-6c65-4667-942d-78332d76322e,draft-v2*%
%TF.SameCoordinates,Original*%
%TF.FileFunction,Profile,NP*%
%FSLAX46Y46*%
G04 Gerber Fmt 4.6, Leading zero omitted, Abs format (unit mm)*
G04 Created by KiCad (PCBNEW 10.0.3) date 2026-08-20 07:58:21*
%MOMM*%
%LPD*%
G01*
G04 APERTURE LIST*
%TA.AperFunction,Profile*%
%ADD10C,0.100000*%
%TD*%
G04 APERTURE END LIST*
D10*
X36000000Y-71500000D02*
X36080000Y-70780000D01*
X36000000Y-85050000D02*
X36000000Y-71500000D01*
X36000000Y-85850000D02*
X36000000Y-85050000D01*
X36000000Y-86650000D02*
X36000000Y-85850000D01*
X36000000Y-87450000D02*
X36000000Y-86650000D01*
X36000000Y-88250000D02*
X36000000Y-87450000D01*
X36000000Y-89050000D02*
X36000000Y-88250000D01*
X36000000Y-104100000D02*
X36000000Y-89050000D01*
X36000000Y-104900000D02*
X36000000Y-104100000D01*
X36000000Y-105700000D02*
X36000000Y-104900000D01*
X36000000Y-106500000D02*
X36000000Y-105700000D01*
X36000000Y-107300000D02*
X36000000Y-106500000D01*
X36000000Y-108100000D02*
X36000000Y-107300000D01*
X36000000Y-123150000D02*
X36000000Y-108100000D01*
X36000000Y-123950000D02*
X36000000Y-123150000D01*
X36000000Y-124750000D02*
X36000000Y-123950000D01*
X36000000Y-125550000D02*
X36000000Y-124750000D01*
X36000000Y-126350000D02*
X36000000Y-125550000D01*
X36000000Y-127150000D02*
X36000000Y-126350000D01*
X36000000Y-142200000D02*
X36000000Y-127150000D01*
X36000000Y-143000000D02*
X36000000Y-142200000D01*
X36000000Y-143800000D02*
X36000000Y-143000000D01*
X36000000Y-144600000D02*
X36000000Y-143800000D01*
X36000000Y-145400000D02*
X36000000Y-144600000D01*
X36000000Y-146200000D02*
X36000000Y-145400000D01*
X36000000Y-159750000D02*
X36000000Y-146200000D01*
X36080000Y-70780000D02*
X36320000Y-70220000D01*
X36080000Y-160470000D02*
X36000000Y-159750000D01*
X36320000Y-70220000D02*
X36720000Y-69820000D01*
X36320000Y-161030000D02*
X36080000Y-160470000D01*
X36720000Y-69820000D02*
X37280000Y-69580000D01*
X36720000Y-161430000D02*
X36320000Y-161030000D01*
X37280000Y-69580000D02*
X38000000Y-69500000D01*
X37280000Y-161670000D02*
X36720000Y-161430000D01*
X38000000Y-69500000D02*
X108212500Y-69500000D01*
X38000000Y-161750000D02*
X37280000Y-161670000D01*
X108212500Y-69500000D02*
X108932500Y-69420000D01*
X108932500Y-69420000D02*
X109492500Y-69180000D01*
X109492500Y-69180000D02*
X109892500Y-68780000D01*
X109892500Y-68780000D02*
X110132500Y-68220000D01*
X110132500Y-68220000D02*
X110212500Y-67500000D01*
X110212500Y-37000000D02*
X110292500Y-36279999D01*
X110212500Y-67500000D02*
X110212500Y-37000000D01*
X110292500Y-36279999D02*
X110532500Y-35720000D01*
X110532500Y-35720000D02*
X110932500Y-35320000D01*
X110932500Y-35320000D02*
X111492500Y-35080000D01*
X111492500Y-35080000D02*
X112212500Y-35000000D01*
X112212500Y-35000000D02*
X150712500Y-35000000D01*
X150712500Y-35000000D02*
X151432500Y-35079999D01*
X151432500Y-35079999D02*
X151992500Y-35320000D01*
X151992500Y-35320000D02*
X152392499Y-35720000D01*
X152392499Y-35720000D02*
X152632500Y-36280000D01*
X152632500Y-36280000D02*
X152712500Y-37000000D01*
X152712500Y-37000000D02*
X152712500Y-67500000D01*
X152712500Y-67500000D02*
X152792500Y-68220000D01*
X152792500Y-68220000D02*
X153032500Y-68780000D01*
X153032500Y-68780000D02*
X153432500Y-69180000D01*
X153432500Y-69180000D02*
X153992500Y-69420000D01*
X153992500Y-69420000D02*
X154712500Y-69500000D01*
X154712500Y-69500000D02*
X164350000Y-69500000D01*
X156825000Y-89050000D02*
X156825000Y-104100000D01*
X156825000Y-104100000D02*
X156905000Y-104820000D01*
X156905000Y-88330000D02*
X156825000Y-89050000D01*
X156905000Y-104820000D02*
X157145000Y-105380000D01*
X157145000Y-87770000D02*
X156905000Y-88330000D01*
X157145000Y-105380000D02*
X157545000Y-105780000D01*
X157545000Y-87370000D02*
X157145000Y-87770000D01*
X157545000Y-105780000D02*
X158105000Y-106020000D01*
X158105000Y-87130000D02*
X157545000Y-87370000D01*
X158105000Y-106020000D02*
X158825000Y-106100000D01*
X158825000Y-87050000D02*
X158105000Y-87130000D01*
X158825000Y-106100000D02*
X159587500Y-106100000D01*
X159587500Y-106100000D02*
X160307500Y-106180000D01*
X160307500Y-106180000D02*
X160867500Y-106420000D01*
X160867500Y-106420000D02*
X161267500Y-106820000D01*
X161267500Y-106820000D02*
X161507500Y-107380000D01*
X161507500Y-107380000D02*
X161587500Y-108100000D01*
X161587500Y-108100000D02*
X161587500Y-123150000D01*
X161587500Y-123150000D02*
X161667500Y-123870000D01*
X161667500Y-123870000D02*
X161907500Y-124430000D01*
X161907500Y-124430000D02*
X162307500Y-124830000D01*
X162307500Y-124830000D02*
X162867500Y-125070000D01*
X162867500Y-125070000D02*
X163587500Y-125150000D01*
X163587500Y-125150000D02*
X169112500Y-125150000D01*
X164350000Y-69500000D02*
X165070000Y-69580000D01*
X164350000Y-87050000D02*
X158825000Y-87050000D01*
X165070000Y-69580000D02*
X165630000Y-69820000D01*
X165070000Y-86970000D02*
X164350000Y-87050000D01*
X165630000Y-69820000D02*
X166029999Y-70220000D01*
X165630000Y-86730000D02*
X165070000Y-86970000D01*
X166029999Y-70220000D02*
X166270000Y-70780000D01*
X166030000Y-86330000D02*
X165630000Y-86730000D01*
X166270000Y-70780000D02*
X166350000Y-71500000D01*
X166270000Y-85770000D02*
X166030000Y-86330000D01*
X166350000Y-71500000D02*
X166350000Y-85050000D01*
X166350000Y-85050000D02*
X166270000Y-85770000D01*
X169112500Y-125150000D02*
X169832500Y-125230000D01*
X169112500Y-161750000D02*
X38000000Y-161750000D01*
X169832500Y-125230000D02*
X170392500Y-125470000D01*
X169832500Y-161670000D02*
X169112500Y-161750000D01*
X170392500Y-125470000D02*
X170792500Y-125870000D01*
X170392500Y-161430000D02*
X169832500Y-161670000D01*
X170792500Y-125870000D02*
X171032500Y-126430000D01*
X170792500Y-161030000D02*
X170392500Y-161430000D01*
X171032500Y-126430000D02*
X171112500Y-127150000D01*
X171032500Y-160470000D02*
X170792500Y-161030000D01*
X171112500Y-127150000D02*
X171112500Y-142200000D01*
X171112500Y-142200000D02*
X171112500Y-143000000D01*
X171112500Y-143000000D02*
X171112500Y-143800000D01*
X171112500Y-143800000D02*
X171112500Y-144600000D01*
X171112500Y-144600000D02*
X171112500Y-145400000D01*
X171112500Y-145400000D02*
X171112500Y-146200000D01*
X171112500Y-146200000D02*
X171112500Y-159750000D01*
X171112500Y-159750000D02*
X171032500Y-160470000D01*
M02*
