%TF.GenerationSoftware,KiCad,Pcbnew,10.0.3*%
%TF.CreationDate,2026-08-25T02:24:56+09:00*%
%TF.ProjectId,kc2_left-x3-v2,6b63325f-6c65-4667-942d-78332d76322e,draft-v2*%
%TF.SameCoordinates,Original*%
%TF.FileFunction,Copper,L1,Top*%
%TF.FilePolarity,Positive*%
%FSLAX46Y46*%
G04 Gerber Fmt 4.6, Leading zero omitted, Abs format (unit mm)*
G04 Created by KiCad (PCBNEW 10.0.3) date 2026-08-25 02:24:56*
%MOMM*%
%LPD*%
G01*
G04 APERTURE LIST*
%TA.AperFunction,ComponentPad*%
%ADD10C,2.500000*%
%TD*%
%TA.AperFunction,ComponentPad*%
%ADD11C,1.800000*%
%TD*%
%TA.AperFunction,SMDPad,CuDef*%
%ADD12R,1.750000X1.000000*%
%TD*%
%TA.AperFunction,ViaPad*%
%ADD13C,0.600000*%
%TD*%
%TA.AperFunction,Conductor*%
%ADD14C,0.250000*%
%TD*%
G04 APERTURE END LIST*
D10*
%TO.P,SW18,1*%
%TO.N,L_COL4*%
X136052500Y-110545000D03*
%TO.P,SW18,2*%
%TO.N,LK18_D*%
X129702500Y-113085000D03*
%TD*%
%TO.P,SW23,1*%
%TO.N,L_COL3*%
X107477500Y-129595000D03*
%TO.P,SW23,2*%
%TO.N,LK23_D*%
X101127500Y-132135000D03*
%TD*%
D11*
%TO.P,U1,D0*%
%TO.N,N/C*%
X121282500Y-56620000D03*
%TO.P,U1,D1*%
X118742500Y-56620000D03*
%TO.P,U1,D2*%
X128902500Y-56620000D03*
%TO.P,U1,D3*%
%TO.N,L_COL0*%
X131442500Y-56620000D03*
%TO.P,U1,D4*%
%TO.N,L_COL2*%
X133982500Y-56620000D03*
%TO.P,U1,D5*%
%TO.N,L_COL1*%
X136522500Y-56620000D03*
%TO.P,U1,D6*%
%TO.N,L_COL3*%
X139062500Y-56620000D03*
%TO.P,U1,D7*%
%TO.N,L_COL4*%
X141602500Y-56620000D03*
%TO.P,U1,D8*%
%TO.N,L_COL5*%
X144142500Y-56620000D03*
%TO.P,U1,D9*%
%TO.N,L_COL6*%
X146682500Y-56620000D03*
%TO.P,U1,D10*%
%TO.N,L_ROW0*%
X146682500Y-41380000D03*
%TO.P,U1,D14*%
%TO.N,L_ROW2*%
X141602500Y-41380000D03*
%TO.P,U1,D15*%
%TO.N,L_ROW3*%
X139062500Y-41380000D03*
%TO.P,U1,D16*%
%TO.N,L_ROW1*%
X144142500Y-41380000D03*
%TO.P,U1,D18*%
%TO.N,L_ROW4*%
X136522500Y-41380000D03*
%TO.P,U1,D19*%
%TO.N,N/C*%
X133982500Y-41380000D03*
%TO.P,U1,D20*%
X131442500Y-41380000D03*
%TO.P,U1,D21*%
X128902500Y-41380000D03*
%TO.P,U1,GND_A*%
X123822500Y-56620000D03*
%TO.P,U1,GND_B*%
X126362500Y-56620000D03*
%TO.P,U1,GND_C*%
%TO.N,GND*%
X121282500Y-41380000D03*
%TO.P,U1,RAW*%
%TO.N,N/C*%
X118742500Y-41380000D03*
%TO.P,U1,RST*%
%TO.N,RST*%
X123822500Y-41380000D03*
%TO.P,U1,VCC*%
%TO.N,N/C*%
X126362500Y-41380000D03*
%TD*%
D10*
%TO.P,SW29,1*%
%TO.N,L_COL2*%
X95571300Y-148645000D03*
%TO.P,SW29,2*%
%TO.N,LK29_D*%
X89221300Y-151185000D03*
%TD*%
%TO.P,SW1,1*%
%TO.N,L_COL0*%
X40485000Y-82605000D03*
%TO.P,SW1,2*%
%TO.N,LK01_D*%
X46835000Y-80065000D03*
%TD*%
%TO.P,SW14,1*%
%TO.N,L_COL0*%
X47628700Y-120705000D03*
%TO.P,SW14,2*%
%TO.N,LK14_D*%
X53978700Y-118165000D03*
%TD*%
%TO.P,SW5,1*%
%TO.N,L_COL4*%
X121765000Y-72445000D03*
%TO.P,SW5,2*%
%TO.N,LK05_D*%
X115415000Y-74985000D03*
%TD*%
%TO.P,SW30,1*%
%TO.N,L_COL3*%
X124146300Y-148645000D03*
%TO.P,SW30,2*%
%TO.N,LK30_D*%
X117796300Y-151185000D03*
%TD*%
%TO.P,SW6,1*%
%TO.N,L_COL5*%
X140815000Y-72445000D03*
%TO.P,SW6,2*%
%TO.N,LK06_D*%
X134465000Y-74985000D03*
%TD*%
%TO.P,SW7,1*%
%TO.N,L_COL6*%
X159865000Y-72445000D03*
%TO.P,SW7,2*%
%TO.N,LK07_D*%
X153515000Y-74985000D03*
%TD*%
%TO.P,SW19,1*%
%TO.N,L_COL5*%
X155102500Y-110545000D03*
%TO.P,SW19,2*%
%TO.N,LK19_D*%
X148752500Y-113085000D03*
%TD*%
%TO.P,SW15,1*%
%TO.N,L_COL1*%
X78902500Y-110545000D03*
%TO.P,SW15,2*%
%TO.N,LK15_D*%
X72552500Y-113085000D03*
%TD*%
%TO.P,SW11,1*%
%TO.N,L_COL3*%
X112240000Y-91495000D03*
%TO.P,SW11,2*%
%TO.N,LK11_D*%
X105890000Y-94035000D03*
%TD*%
%TO.P,SW31,1*%
%TO.N,L_COL4*%
X157483800Y-148645000D03*
%TO.P,SW31,2*%
%TO.N,LK31_D*%
X151133800Y-151185000D03*
%TD*%
%TO.P,SW20,1*%
%TO.N,L_COL0*%
X40485000Y-139755000D03*
%TO.P,SW20,2*%
%TO.N,LK20_D*%
X46835000Y-137215000D03*
%TD*%
%TO.P,SW10,1*%
%TO.N,L_COL2*%
X93190000Y-91495000D03*
%TO.P,SW10,2*%
%TO.N,LK10_D*%
X86840000Y-94035000D03*
%TD*%
%TO.P,SW16,1*%
%TO.N,L_COL2*%
X97952500Y-110545000D03*
%TO.P,SW16,2*%
%TO.N,LK16_D*%
X91602500Y-113085000D03*
%TD*%
%TO.P,SW22,1*%
%TO.N,L_COL2*%
X88427500Y-129595000D03*
%TO.P,SW22,2*%
%TO.N,LK22_D*%
X82077500Y-132135000D03*
%TD*%
%TO.P,SW9,1*%
%TO.N,L_COL1*%
X74140000Y-91495000D03*
%TO.P,SW9,2*%
%TO.N,LK09_D*%
X67790000Y-94035000D03*
%TD*%
%TO.P,SW2,1*%
%TO.N,L_COL1*%
X64615000Y-72445000D03*
%TO.P,SW2,2*%
%TO.N,LK02_D*%
X58265000Y-74985000D03*
%TD*%
%TO.P,SW24,1*%
%TO.N,L_COL4*%
X126527500Y-129595000D03*
%TO.P,SW24,2*%
%TO.N,LK24_D*%
X120177500Y-132135000D03*
%TD*%
%TO.P,SW8,1*%
%TO.N,L_COL0*%
X45247500Y-101655000D03*
%TO.P,SW8,2*%
%TO.N,LK08_D*%
X51597500Y-99115000D03*
%TD*%
%TO.P,SW13,1*%
%TO.N,L_COL5*%
X150340000Y-91495000D03*
%TO.P,SW13,2*%
%TO.N,LK13_D*%
X143990000Y-94035000D03*
%TD*%
%TO.P,SW26,1*%
%TO.N,L_COL6*%
X164627500Y-129595000D03*
%TO.P,SW26,2*%
%TO.N,LK26_D*%
X158277500Y-132135000D03*
%TD*%
%TO.P,SW3,1*%
%TO.N,L_COL2*%
X83665000Y-72445000D03*
%TO.P,SW3,2*%
%TO.N,LK03_D*%
X77315000Y-74985000D03*
%TD*%
%TO.P,SW28,1*%
%TO.N,L_COL1*%
X71758800Y-148645000D03*
%TO.P,SW28,2*%
%TO.N,LK28_D*%
X65408800Y-151185000D03*
%TD*%
%TO.P,SW17,1*%
%TO.N,L_COL3*%
X117002500Y-110545000D03*
%TO.P,SW17,2*%
%TO.N,LK17_D*%
X110652500Y-113085000D03*
%TD*%
%TO.P,SW4,1*%
%TO.N,L_COL3*%
X102715000Y-72445000D03*
%TO.P,SW4,2*%
%TO.N,LK04_D*%
X96365000Y-74985000D03*
%TD*%
%TO.P,SW12,1*%
%TO.N,L_COL4*%
X131290000Y-91495000D03*
%TO.P,SW12,2*%
%TO.N,LK12_D*%
X124940000Y-94035000D03*
%TD*%
%TO.P,SW21,1*%
%TO.N,L_COL1*%
X66996300Y-129595000D03*
%TO.P,SW21,2*%
%TO.N,LK21_D*%
X60646300Y-132135000D03*
%TD*%
D12*
%TO.P,SW_RST1,1*%
%TO.N,RST*%
X140887500Y-62150000D03*
%TO.P,SW_RST1,2*%
%TO.N,GND*%
X148637500Y-62150000D03*
%TD*%
D10*
%TO.P,SW27,1*%
%TO.N,L_COL0*%
X42866300Y-158805000D03*
%TO.P,SW27,2*%
%TO.N,LK27_D*%
X49216300Y-156265000D03*
%TD*%
%TO.P,SW25,1*%
%TO.N,L_COL5*%
X145577500Y-129595000D03*
%TO.P,SW25,2*%
%TO.N,LK25_D*%
X139227500Y-132135000D03*
%TD*%
D13*
%TO.N,L_COL4*%
X132470500Y-84012900D03*
X126333900Y-122032200D03*
%TO.N,L_COL3*%
X120504900Y-142362700D03*
X107988100Y-70431200D03*
X108539300Y-124697500D03*
%TO.N,L_COL0*%
X123496300Y-104088100D03*
%TO.N,L_COL2*%
X114522100Y-59925100D03*
X97952500Y-101143900D03*
X93582300Y-124722300D03*
X108933600Y-86677700D03*
%TO.N,L_COL1*%
X69278900Y-84138400D03*
X126487700Y-73494200D03*
X87698100Y-83391700D03*
X72642500Y-124686600D03*
%TO.N,L_COL5*%
X140815000Y-64500000D03*
%TO.N,L_ROW0*%
X147945500Y-68757700D03*
%TO.N,L_ROW2*%
X141407000Y-97908300D03*
%TO.N,L_ROW3*%
X141254800Y-126331800D03*
%TO.N,L_ROW1*%
X150123900Y-60053900D03*
X144382400Y-87097900D03*
%TO.N,L_ROW4*%
X132470500Y-145341800D03*
%TO.N,GND*%
X149320400Y-60699400D03*
%TD*%
%TO.N,L_COL4*%
D14*
X136052500Y-96257500D02*
X131290000Y-91495000D01*
X131090700Y-67131800D02*
X131090700Y-74220900D01*
X126527500Y-122225800D02*
X126527500Y-129595000D01*
X131290000Y-91495000D02*
X131290000Y-85193400D01*
X131090700Y-82633100D02*
X132470500Y-84012900D01*
X123540900Y-74220900D02*
X131090700Y-74220900D01*
X121765000Y-72445000D02*
X123540900Y-74220900D01*
X141602500Y-56620000D02*
X131090700Y-67131800D01*
X131090700Y-74220900D02*
X131090700Y-82633100D01*
X131290000Y-85193400D02*
X132470500Y-84012900D01*
X126333900Y-122032200D02*
X126527500Y-122225800D01*
X136052500Y-110545000D02*
X136052500Y-96257500D01*
%TO.N,L_COL3*%
X104156300Y-73886300D02*
X107378900Y-73886300D01*
X117002500Y-96257500D02*
X112240000Y-91495000D01*
X107477500Y-125759300D02*
X108539300Y-124697500D01*
X107477500Y-129595000D02*
X107477500Y-125759300D01*
X107378900Y-86633900D02*
X107378900Y-73886300D01*
X107378900Y-73886300D02*
X107378900Y-71040400D01*
X107378900Y-71040400D02*
X107988100Y-70431200D01*
X120504900Y-145003600D02*
X120504900Y-142362700D01*
X102715000Y-72445000D02*
X104156300Y-73886300D01*
X117002500Y-110545000D02*
X117002500Y-96257500D01*
X124146300Y-148645000D02*
X120504900Y-145003600D01*
X112240000Y-91495000D02*
X107378900Y-86633900D01*
%TO.N,L_COL0*%
X131442500Y-56620000D02*
X120081800Y-67980700D01*
X120081800Y-67980700D02*
X120081800Y-73138400D01*
X122419100Y-89326200D02*
X121569000Y-90176300D01*
X121569000Y-90176300D02*
X121569000Y-102160800D01*
X41890800Y-141160800D02*
X40485000Y-139755000D01*
X41890800Y-157829500D02*
X41890800Y-141160800D01*
X122419100Y-75475700D02*
X122419100Y-89326200D01*
X120081800Y-73138400D02*
X122419100Y-75475700D01*
X46653200Y-103060700D02*
X45247500Y-101655000D01*
X47628700Y-120705000D02*
X46653200Y-119729500D01*
X40485000Y-96892500D02*
X45247500Y-101655000D01*
X121569000Y-102160800D02*
X123496300Y-104088100D01*
X42866300Y-158805000D02*
X41890800Y-157829500D01*
X46653200Y-119729500D02*
X46653200Y-103060700D01*
X40485000Y-82605000D02*
X40485000Y-96892500D01*
%TO.N,L_COL2*%
X97952500Y-96257500D02*
X97952500Y-101143900D01*
X90703000Y-131870400D02*
X93582300Y-128991100D01*
X114522100Y-72762300D02*
X114522100Y-59925100D01*
X97952500Y-101143900D02*
X97952500Y-110545000D01*
X95571300Y-136738800D02*
X95571300Y-148645000D01*
X90703000Y-131870400D02*
X95571300Y-136738800D01*
X93190000Y-91495000D02*
X97952500Y-96257500D01*
X108933600Y-86677700D02*
X108933600Y-78350800D01*
X93582300Y-128991100D02*
X93582300Y-124722300D01*
X108933600Y-78350800D02*
X114522100Y-72762300D01*
X88427500Y-129595000D02*
X90703000Y-131870400D01*
%TO.N,L_COL1*%
X78902500Y-96257500D02*
X78902500Y-110545000D01*
X69278900Y-84138400D02*
X69278900Y-86633900D01*
X71758800Y-131067100D02*
X71758800Y-125570300D01*
X64615000Y-72445000D02*
X69278900Y-77108900D01*
X66996300Y-129595000D02*
X68468400Y-131067100D01*
X69278900Y-86633900D02*
X74140000Y-91495000D01*
X126487700Y-66654800D02*
X126487700Y-73494200D01*
X76867400Y-94222400D02*
X78902500Y-96257500D01*
X74140000Y-91495000D02*
X76867400Y-94222400D01*
X71758800Y-148645000D02*
X71758800Y-131067100D01*
X69278900Y-77108900D02*
X69278900Y-84138400D01*
X87698100Y-83391700D02*
X76867400Y-94222400D01*
X71758800Y-125570300D02*
X72642500Y-124686600D01*
X136522500Y-56620000D02*
X126487700Y-66654800D01*
X68468400Y-131067100D02*
X71758800Y-131067100D01*
%TO.N,L_COL5*%
X145577500Y-129595000D02*
X145339400Y-129356900D01*
X151299800Y-106742300D02*
X151299800Y-92454800D01*
X155102500Y-110545000D02*
X152002600Y-107445100D01*
X145339400Y-129356900D02*
X145339400Y-114108300D01*
X145339400Y-114108300D02*
X152002600Y-107445100D01*
X152002600Y-107445100D02*
X151299800Y-106742300D01*
X151299800Y-92454800D02*
X150340000Y-91495000D01*
X140815000Y-64500000D02*
X140815000Y-72445000D01*
%TO.N,L_COL6*%
X159231600Y-109943000D02*
X157566700Y-108278100D01*
X157566700Y-108278100D02*
X157328700Y-108278100D01*
X159231600Y-124419200D02*
X159231600Y-109943000D01*
X155024500Y-105973900D02*
X155024500Y-82623300D01*
X156465700Y-81182100D02*
X158225100Y-81182100D01*
X157328700Y-108278100D02*
X155024500Y-105973900D01*
X164627500Y-129595000D02*
X164407400Y-129595000D01*
X164407400Y-129595000D02*
X159231600Y-124419200D01*
X155024500Y-82623300D02*
X156465700Y-81182100D01*
X158225100Y-81182100D02*
X160516400Y-78890800D01*
X160516400Y-78890800D02*
X160516400Y-73096400D01*
X160516400Y-73096400D02*
X159865000Y-72445000D01*
%TO.N,L_ROW0*%
X146682500Y-41380000D02*
X150216000Y-44913500D01*
X147945500Y-68757700D02*
X147945500Y-68895000D01*
X147945500Y-68895000D02*
X147945500Y-68757700D01*
X150216000Y-44913500D02*
X150216000Y-58501100D01*
X147324100Y-68136300D02*
X147945500Y-68757700D01*
X150216000Y-58501100D02*
X147324100Y-61393000D01*
X147324100Y-61393000D02*
X147324100Y-68136300D01*
%TO.N,L_ROW2*%
X146614300Y-61185000D02*
X146614300Y-82982900D01*
X141165300Y-88431900D02*
X141165300Y-97666600D01*
X146614300Y-82982900D02*
X141165300Y-88431900D01*
X149664300Y-49441800D02*
X149664300Y-58135000D01*
X141165300Y-97666600D02*
X141407000Y-97908300D01*
X141602500Y-41380000D02*
X149664300Y-49441800D01*
X149664300Y-58135000D02*
X146614300Y-61185000D01*
%TO.N,L_ROW3*%
X149112600Y-51430100D02*
X149112600Y-57906400D01*
X149112600Y-57906400D02*
X146029900Y-60989100D01*
X146029900Y-80316000D02*
X140584100Y-85761800D01*
X140584100Y-85761800D02*
X140584100Y-125661100D01*
X140584100Y-125661100D02*
X141254800Y-126331800D01*
X146029900Y-60989100D02*
X146029900Y-80316000D01*
X139062500Y-41380000D02*
X149112600Y-51430100D01*
%TO.N,L_ROW1*%
X150123900Y-81356400D02*
X150123900Y-60053900D01*
X144382400Y-87097900D02*
X150123900Y-81356400D01*
%TO.N,L_ROW4*%
X148560900Y-53418400D02*
X148560900Y-57677800D01*
X140024200Y-111124800D02*
X136718900Y-114430100D01*
X148560900Y-57677800D02*
X145332900Y-60905800D01*
X132470500Y-137483200D02*
X132470500Y-145341800D01*
X136718900Y-133234800D02*
X132470500Y-137483200D01*
X136718900Y-114430100D02*
X136718900Y-133234800D01*
X145332900Y-60905800D02*
X145332900Y-79452400D01*
X136522500Y-41380000D02*
X148560900Y-53418400D01*
X145332900Y-79452400D02*
X140024200Y-84761100D01*
X140024200Y-84761100D02*
X140024200Y-111124800D01*
%TO.N,GND*%
X149320400Y-60545600D02*
X149320400Y-60699400D01*
X149320400Y-60699400D02*
X149320400Y-60545600D01*
X148637500Y-62150000D02*
X148637500Y-61223300D01*
X148637500Y-61223300D02*
X148796500Y-61223300D01*
X148796500Y-61223300D02*
X149320400Y-60699400D01*
%TO.N,RST*%
X144781200Y-60677200D02*
X144781200Y-73015500D01*
X148009200Y-56044600D02*
X148009200Y-57449200D01*
X139123500Y-73185100D02*
X139123500Y-64840700D01*
X144781200Y-73015500D02*
X143644500Y-74152200D01*
X123822500Y-41380000D02*
X137577600Y-55135100D01*
X147099700Y-55135100D02*
X148009200Y-56044600D01*
X137577600Y-55135100D02*
X147099700Y-55135100D01*
X140887500Y-62150000D02*
X140887500Y-63076700D01*
X140090600Y-74152200D02*
X139123500Y-73185100D01*
X148009200Y-57449200D02*
X144781200Y-60677200D01*
X139123500Y-64840700D02*
X140887500Y-63076700D01*
X143644500Y-74152200D02*
X140090600Y-74152200D01*
%TD*%
M02*
