%TF.GenerationSoftware,KiCad,Pcbnew,10.0.3*%
%TF.CreationDate,2026-08-03T10:12:09+09:00*%
%TF.ProjectId,kc2_left-x3-v2,6b63325f-6c65-4667-942d-78332d76322e,draft-v2*%
%TF.SameCoordinates,Original*%
%TF.FileFunction,Legend,Top*%
%TF.FilePolarity,Positive*%
%FSLAX46Y46*%
G04 Gerber Fmt 4.6, Leading zero omitted, Abs format (unit mm)*
G04 Created by KiCad (PCBNEW 10.0.3) date 2026-08-03 10:12:09*
%MOMM*%
%LPD*%
G01*
G04 APERTURE LIST*
%ADD10C,0.150000*%
%ADD11C,0.158750*%
%ADD12C,0.100000*%
%ADD13O,3.600000X2.200000*%
%ADD14C,1.700000*%
%ADD15C,3.000000*%
%ADD16C,5.000000*%
%ADD17C,1.650000*%
%ADD18C,2.500000*%
%ADD19R,1.750000X1.000000*%
G04 APERTURE END LIST*
D10*
X15757142Y-27408557D02*
X15757142Y-26508557D01*
X15757142Y-26508557D02*
X16271428Y-27408557D01*
X16271428Y-27408557D02*
X16271428Y-26508557D01*
X16828571Y-27408557D02*
X16742856Y-27365700D01*
X16742856Y-27365700D02*
X16699999Y-27322842D01*
X16699999Y-27322842D02*
X16657142Y-27237128D01*
X16657142Y-27237128D02*
X16657142Y-26979985D01*
X16657142Y-26979985D02*
X16699999Y-26894271D01*
X16699999Y-26894271D02*
X16742856Y-26851414D01*
X16742856Y-26851414D02*
X16828571Y-26808557D01*
X16828571Y-26808557D02*
X16957142Y-26808557D01*
X16957142Y-26808557D02*
X17042856Y-26851414D01*
X17042856Y-26851414D02*
X17085714Y-26894271D01*
X17085714Y-26894271D02*
X17128571Y-26979985D01*
X17128571Y-26979985D02*
X17128571Y-27237128D01*
X17128571Y-27237128D02*
X17085714Y-27322842D01*
X17085714Y-27322842D02*
X17042856Y-27365700D01*
X17042856Y-27365700D02*
X16957142Y-27408557D01*
X16957142Y-27408557D02*
X16828571Y-27408557D01*
X18071428Y-26808557D02*
X18414285Y-26808557D01*
X18199999Y-26508557D02*
X18199999Y-27279985D01*
X18199999Y-27279985D02*
X18242856Y-27365700D01*
X18242856Y-27365700D02*
X18328571Y-27408557D01*
X18328571Y-27408557D02*
X18414285Y-27408557D01*
X18842857Y-27408557D02*
X18757142Y-27365700D01*
X18757142Y-27365700D02*
X18714285Y-27322842D01*
X18714285Y-27322842D02*
X18671428Y-27237128D01*
X18671428Y-27237128D02*
X18671428Y-26979985D01*
X18671428Y-26979985D02*
X18714285Y-26894271D01*
X18714285Y-26894271D02*
X18757142Y-26851414D01*
X18757142Y-26851414D02*
X18842857Y-26808557D01*
X18842857Y-26808557D02*
X18971428Y-26808557D01*
X18971428Y-26808557D02*
X19057142Y-26851414D01*
X19057142Y-26851414D02*
X19100000Y-26894271D01*
X19100000Y-26894271D02*
X19142857Y-26979985D01*
X19142857Y-26979985D02*
X19142857Y-27237128D01*
X19142857Y-27237128D02*
X19100000Y-27322842D01*
X19100000Y-27322842D02*
X19057142Y-27365700D01*
X19057142Y-27365700D02*
X18971428Y-27408557D01*
X18971428Y-27408557D02*
X18842857Y-27408557D01*
X19528571Y-26808557D02*
X19528571Y-27708557D01*
X19528571Y-26851414D02*
X19614286Y-26808557D01*
X19614286Y-26808557D02*
X19785714Y-26808557D01*
X19785714Y-26808557D02*
X19871428Y-26851414D01*
X19871428Y-26851414D02*
X19914286Y-26894271D01*
X19914286Y-26894271D02*
X19957143Y-26979985D01*
X19957143Y-26979985D02*
X19957143Y-27237128D01*
X19957143Y-27237128D02*
X19914286Y-27322842D01*
X19914286Y-27322842D02*
X19871428Y-27365700D01*
X19871428Y-27365700D02*
X19785714Y-27408557D01*
X19785714Y-27408557D02*
X19614286Y-27408557D01*
X19614286Y-27408557D02*
X19528571Y-27365700D01*
X21028571Y-27408557D02*
X21028571Y-26508557D01*
X21414286Y-27408557D02*
X21414286Y-26937128D01*
X21414286Y-26937128D02*
X21371428Y-26851414D01*
X21371428Y-26851414D02*
X21285714Y-26808557D01*
X21285714Y-26808557D02*
X21157143Y-26808557D01*
X21157143Y-26808557D02*
X21071428Y-26851414D01*
X21071428Y-26851414D02*
X21028571Y-26894271D01*
X21971429Y-27408557D02*
X21885714Y-27365700D01*
X21885714Y-27365700D02*
X21842857Y-27322842D01*
X21842857Y-27322842D02*
X21800000Y-27237128D01*
X21800000Y-27237128D02*
X21800000Y-26979985D01*
X21800000Y-26979985D02*
X21842857Y-26894271D01*
X21842857Y-26894271D02*
X21885714Y-26851414D01*
X21885714Y-26851414D02*
X21971429Y-26808557D01*
X21971429Y-26808557D02*
X22100000Y-26808557D01*
X22100000Y-26808557D02*
X22185714Y-26851414D01*
X22185714Y-26851414D02*
X22228572Y-26894271D01*
X22228572Y-26894271D02*
X22271429Y-26979985D01*
X22271429Y-26979985D02*
X22271429Y-27237128D01*
X22271429Y-27237128D02*
X22228572Y-27322842D01*
X22228572Y-27322842D02*
X22185714Y-27365700D01*
X22185714Y-27365700D02*
X22100000Y-27408557D01*
X22100000Y-27408557D02*
X21971429Y-27408557D01*
X23042858Y-26808557D02*
X23042858Y-27408557D01*
X22657143Y-26808557D02*
X22657143Y-27279985D01*
X22657143Y-27279985D02*
X22700000Y-27365700D01*
X22700000Y-27365700D02*
X22785715Y-27408557D01*
X22785715Y-27408557D02*
X22914286Y-27408557D01*
X22914286Y-27408557D02*
X23000000Y-27365700D01*
X23000000Y-27365700D02*
X23042858Y-27322842D01*
X23428572Y-27365700D02*
X23514286Y-27408557D01*
X23514286Y-27408557D02*
X23685715Y-27408557D01*
X23685715Y-27408557D02*
X23771429Y-27365700D01*
X23771429Y-27365700D02*
X23814286Y-27279985D01*
X23814286Y-27279985D02*
X23814286Y-27237128D01*
X23814286Y-27237128D02*
X23771429Y-27151414D01*
X23771429Y-27151414D02*
X23685715Y-27108557D01*
X23685715Y-27108557D02*
X23557144Y-27108557D01*
X23557144Y-27108557D02*
X23471429Y-27065700D01*
X23471429Y-27065700D02*
X23428572Y-26979985D01*
X23428572Y-26979985D02*
X23428572Y-26937128D01*
X23428572Y-26937128D02*
X23471429Y-26851414D01*
X23471429Y-26851414D02*
X23557144Y-26808557D01*
X23557144Y-26808557D02*
X23685715Y-26808557D01*
X23685715Y-26808557D02*
X23771429Y-26851414D01*
X24200000Y-27408557D02*
X24200000Y-26808557D01*
X24200000Y-26508557D02*
X24157143Y-26551414D01*
X24157143Y-26551414D02*
X24200000Y-26594271D01*
X24200000Y-26594271D02*
X24242857Y-26551414D01*
X24242857Y-26551414D02*
X24200000Y-26508557D01*
X24200000Y-26508557D02*
X24200000Y-26594271D01*
X24628571Y-26808557D02*
X24628571Y-27408557D01*
X24628571Y-26894271D02*
X24671428Y-26851414D01*
X24671428Y-26851414D02*
X24757143Y-26808557D01*
X24757143Y-26808557D02*
X24885714Y-26808557D01*
X24885714Y-26808557D02*
X24971428Y-26851414D01*
X24971428Y-26851414D02*
X25014286Y-26937128D01*
X25014286Y-26937128D02*
X25014286Y-27408557D01*
X25828572Y-26808557D02*
X25828572Y-27537128D01*
X25828572Y-27537128D02*
X25785714Y-27622842D01*
X25785714Y-27622842D02*
X25742857Y-27665700D01*
X25742857Y-27665700D02*
X25657143Y-27708557D01*
X25657143Y-27708557D02*
X25528572Y-27708557D01*
X25528572Y-27708557D02*
X25442857Y-27665700D01*
X25828572Y-27365700D02*
X25742857Y-27408557D01*
X25742857Y-27408557D02*
X25571429Y-27408557D01*
X25571429Y-27408557D02*
X25485714Y-27365700D01*
X25485714Y-27365700D02*
X25442857Y-27322842D01*
X25442857Y-27322842D02*
X25400000Y-27237128D01*
X25400000Y-27237128D02*
X25400000Y-26979985D01*
X25400000Y-26979985D02*
X25442857Y-26894271D01*
X25442857Y-26894271D02*
X25485714Y-26851414D01*
X25485714Y-26851414D02*
X25571429Y-26808557D01*
X25571429Y-26808557D02*
X25742857Y-26808557D01*
X25742857Y-26808557D02*
X25828572Y-26851414D01*
X27585714Y-26465700D02*
X26814286Y-27622842D01*
X28528571Y-27365700D02*
X28614285Y-27408557D01*
X28614285Y-27408557D02*
X28785714Y-27408557D01*
X28785714Y-27408557D02*
X28871428Y-27365700D01*
X28871428Y-27365700D02*
X28914285Y-27279985D01*
X28914285Y-27279985D02*
X28914285Y-27237128D01*
X28914285Y-27237128D02*
X28871428Y-27151414D01*
X28871428Y-27151414D02*
X28785714Y-27108557D01*
X28785714Y-27108557D02*
X28657143Y-27108557D01*
X28657143Y-27108557D02*
X28571428Y-27065700D01*
X28571428Y-27065700D02*
X28528571Y-26979985D01*
X28528571Y-26979985D02*
X28528571Y-26937128D01*
X28528571Y-26937128D02*
X28571428Y-26851414D01*
X28571428Y-26851414D02*
X28657143Y-26808557D01*
X28657143Y-26808557D02*
X28785714Y-26808557D01*
X28785714Y-26808557D02*
X28871428Y-26851414D01*
X29685714Y-27365700D02*
X29599999Y-27408557D01*
X29599999Y-27408557D02*
X29428571Y-27408557D01*
X29428571Y-27408557D02*
X29342856Y-27365700D01*
X29342856Y-27365700D02*
X29299999Y-27322842D01*
X29299999Y-27322842D02*
X29257142Y-27237128D01*
X29257142Y-27237128D02*
X29257142Y-26979985D01*
X29257142Y-26979985D02*
X29299999Y-26894271D01*
X29299999Y-26894271D02*
X29342856Y-26851414D01*
X29342856Y-26851414D02*
X29428571Y-26808557D01*
X29428571Y-26808557D02*
X29599999Y-26808557D01*
X29599999Y-26808557D02*
X29685714Y-26851414D01*
X30071428Y-27408557D02*
X30071428Y-26808557D01*
X30071428Y-26979985D02*
X30114285Y-26894271D01*
X30114285Y-26894271D02*
X30157143Y-26851414D01*
X30157143Y-26851414D02*
X30242857Y-26808557D01*
X30242857Y-26808557D02*
X30328571Y-26808557D01*
X30971428Y-27365700D02*
X30885714Y-27408557D01*
X30885714Y-27408557D02*
X30714286Y-27408557D01*
X30714286Y-27408557D02*
X30628571Y-27365700D01*
X30628571Y-27365700D02*
X30585714Y-27279985D01*
X30585714Y-27279985D02*
X30585714Y-26937128D01*
X30585714Y-26937128D02*
X30628571Y-26851414D01*
X30628571Y-26851414D02*
X30714286Y-26808557D01*
X30714286Y-26808557D02*
X30885714Y-26808557D01*
X30885714Y-26808557D02*
X30971428Y-26851414D01*
X30971428Y-26851414D02*
X31014286Y-26937128D01*
X31014286Y-26937128D02*
X31014286Y-27022842D01*
X31014286Y-27022842D02*
X30585714Y-27108557D01*
X31314286Y-26808557D02*
X31485715Y-27408557D01*
X31485715Y-27408557D02*
X31657143Y-26979985D01*
X31657143Y-26979985D02*
X31828572Y-27408557D01*
X31828572Y-27408557D02*
X32000000Y-26808557D01*
X32471429Y-27408557D02*
X32385714Y-27365700D01*
X32385714Y-27365700D02*
X32342857Y-27279985D01*
X32342857Y-27279985D02*
X32342857Y-26508557D01*
X33157143Y-27365700D02*
X33071429Y-27408557D01*
X33071429Y-27408557D02*
X32900001Y-27408557D01*
X32900001Y-27408557D02*
X32814286Y-27365700D01*
X32814286Y-27365700D02*
X32771429Y-27279985D01*
X32771429Y-27279985D02*
X32771429Y-26937128D01*
X32771429Y-26937128D02*
X32814286Y-26851414D01*
X32814286Y-26851414D02*
X32900001Y-26808557D01*
X32900001Y-26808557D02*
X33071429Y-26808557D01*
X33071429Y-26808557D02*
X33157143Y-26851414D01*
X33157143Y-26851414D02*
X33200001Y-26937128D01*
X33200001Y-26937128D02*
X33200001Y-27022842D01*
X33200001Y-27022842D02*
X32771429Y-27108557D01*
X33542858Y-27365700D02*
X33628572Y-27408557D01*
X33628572Y-27408557D02*
X33800001Y-27408557D01*
X33800001Y-27408557D02*
X33885715Y-27365700D01*
X33885715Y-27365700D02*
X33928572Y-27279985D01*
X33928572Y-27279985D02*
X33928572Y-27237128D01*
X33928572Y-27237128D02*
X33885715Y-27151414D01*
X33885715Y-27151414D02*
X33800001Y-27108557D01*
X33800001Y-27108557D02*
X33671430Y-27108557D01*
X33671430Y-27108557D02*
X33585715Y-27065700D01*
X33585715Y-27065700D02*
X33542858Y-26979985D01*
X33542858Y-26979985D02*
X33542858Y-26937128D01*
X33542858Y-26937128D02*
X33585715Y-26851414D01*
X33585715Y-26851414D02*
X33671430Y-26808557D01*
X33671430Y-26808557D02*
X33800001Y-26808557D01*
X33800001Y-26808557D02*
X33885715Y-26851414D01*
X34271429Y-27365700D02*
X34357143Y-27408557D01*
X34357143Y-27408557D02*
X34528572Y-27408557D01*
X34528572Y-27408557D02*
X34614286Y-27365700D01*
X34614286Y-27365700D02*
X34657143Y-27279985D01*
X34657143Y-27279985D02*
X34657143Y-27237128D01*
X34657143Y-27237128D02*
X34614286Y-27151414D01*
X34614286Y-27151414D02*
X34528572Y-27108557D01*
X34528572Y-27108557D02*
X34400001Y-27108557D01*
X34400001Y-27108557D02*
X34314286Y-27065700D01*
X34314286Y-27065700D02*
X34271429Y-26979985D01*
X34271429Y-26979985D02*
X34271429Y-26937128D01*
X34271429Y-26937128D02*
X34314286Y-26851414D01*
X34314286Y-26851414D02*
X34400001Y-26808557D01*
X34400001Y-26808557D02*
X34528572Y-26808557D01*
X34528572Y-26808557D02*
X34614286Y-26851414D01*
X35728571Y-27408557D02*
X35728571Y-26508557D01*
X35728571Y-26508557D02*
X36071428Y-26508557D01*
X36071428Y-26508557D02*
X36157143Y-26551414D01*
X36157143Y-26551414D02*
X36200000Y-26594271D01*
X36200000Y-26594271D02*
X36242857Y-26679985D01*
X36242857Y-26679985D02*
X36242857Y-26808557D01*
X36242857Y-26808557D02*
X36200000Y-26894271D01*
X36200000Y-26894271D02*
X36157143Y-26937128D01*
X36157143Y-26937128D02*
X36071428Y-26979985D01*
X36071428Y-26979985D02*
X35728571Y-26979985D01*
X37057143Y-27408557D02*
X36628571Y-27408557D01*
X36628571Y-27408557D02*
X36628571Y-26508557D01*
X37314285Y-27151414D02*
X37742857Y-27151414D01*
X37228571Y-27408557D02*
X37528571Y-26508557D01*
X37528571Y-26508557D02*
X37828571Y-27408557D01*
X38128571Y-27065700D02*
X38814286Y-27065700D01*
X38471428Y-27408557D02*
X38471428Y-26722842D01*
X39928571Y-27408557D02*
X39928571Y-26808557D01*
X39928571Y-26979985D02*
X39971428Y-26894271D01*
X39971428Y-26894271D02*
X40014286Y-26851414D01*
X40014286Y-26851414D02*
X40100000Y-26808557D01*
X40100000Y-26808557D02*
X40185714Y-26808557D01*
X40871429Y-27408557D02*
X40871429Y-26937128D01*
X40871429Y-26937128D02*
X40828571Y-26851414D01*
X40828571Y-26851414D02*
X40742857Y-26808557D01*
X40742857Y-26808557D02*
X40571429Y-26808557D01*
X40571429Y-26808557D02*
X40485714Y-26851414D01*
X40871429Y-27365700D02*
X40785714Y-27408557D01*
X40785714Y-27408557D02*
X40571429Y-27408557D01*
X40571429Y-27408557D02*
X40485714Y-27365700D01*
X40485714Y-27365700D02*
X40442857Y-27279985D01*
X40442857Y-27279985D02*
X40442857Y-27194271D01*
X40442857Y-27194271D02*
X40485714Y-27108557D01*
X40485714Y-27108557D02*
X40571429Y-27065700D01*
X40571429Y-27065700D02*
X40785714Y-27065700D01*
X40785714Y-27065700D02*
X40871429Y-27022842D01*
X41300000Y-27408557D02*
X41300000Y-26808557D01*
X41300000Y-26508557D02*
X41257143Y-26551414D01*
X41257143Y-26551414D02*
X41300000Y-26594271D01*
X41300000Y-26594271D02*
X41342857Y-26551414D01*
X41342857Y-26551414D02*
X41300000Y-26508557D01*
X41300000Y-26508557D02*
X41300000Y-26594271D01*
X41857143Y-27408557D02*
X41771428Y-27365700D01*
X41771428Y-27365700D02*
X41728571Y-27279985D01*
X41728571Y-27279985D02*
X41728571Y-26508557D01*
X42757143Y-26808557D02*
X43100000Y-26808557D01*
X42885714Y-26508557D02*
X42885714Y-27279985D01*
X42885714Y-27279985D02*
X42928571Y-27365700D01*
X42928571Y-27365700D02*
X43014286Y-27408557D01*
X43014286Y-27408557D02*
X43100000Y-27408557D01*
X43400000Y-27408557D02*
X43400000Y-26808557D01*
X43400000Y-26979985D02*
X43442857Y-26894271D01*
X43442857Y-26894271D02*
X43485715Y-26851414D01*
X43485715Y-26851414D02*
X43571429Y-26808557D01*
X43571429Y-26808557D02*
X43657143Y-26808557D01*
X44342858Y-27408557D02*
X44342858Y-26937128D01*
X44342858Y-26937128D02*
X44300000Y-26851414D01*
X44300000Y-26851414D02*
X44214286Y-26808557D01*
X44214286Y-26808557D02*
X44042858Y-26808557D01*
X44042858Y-26808557D02*
X43957143Y-26851414D01*
X44342858Y-27365700D02*
X44257143Y-27408557D01*
X44257143Y-27408557D02*
X44042858Y-27408557D01*
X44042858Y-27408557D02*
X43957143Y-27365700D01*
X43957143Y-27365700D02*
X43914286Y-27279985D01*
X43914286Y-27279985D02*
X43914286Y-27194271D01*
X43914286Y-27194271D02*
X43957143Y-27108557D01*
X43957143Y-27108557D02*
X44042858Y-27065700D01*
X44042858Y-27065700D02*
X44257143Y-27065700D01*
X44257143Y-27065700D02*
X44342858Y-27022842D01*
X44685715Y-26808557D02*
X44900001Y-27408557D01*
X45114286Y-26808557D02*
X44900001Y-27408557D01*
X44900001Y-27408557D02*
X44814286Y-27622842D01*
X44814286Y-27622842D02*
X44771429Y-27665700D01*
X44771429Y-27665700D02*
X44685715Y-27708557D01*
X46785714Y-26465700D02*
X46014286Y-27622842D01*
X48285714Y-27408557D02*
X47985714Y-26979985D01*
X47771428Y-27408557D02*
X47771428Y-26508557D01*
X47771428Y-26508557D02*
X48114285Y-26508557D01*
X48114285Y-26508557D02*
X48200000Y-26551414D01*
X48200000Y-26551414D02*
X48242857Y-26594271D01*
X48242857Y-26594271D02*
X48285714Y-26679985D01*
X48285714Y-26679985D02*
X48285714Y-26808557D01*
X48285714Y-26808557D02*
X48242857Y-26894271D01*
X48242857Y-26894271D02*
X48200000Y-26937128D01*
X48200000Y-26937128D02*
X48114285Y-26979985D01*
X48114285Y-26979985D02*
X47771428Y-26979985D01*
X48671428Y-26937128D02*
X48971428Y-26937128D01*
X49100000Y-27408557D02*
X48671428Y-27408557D01*
X48671428Y-27408557D02*
X48671428Y-26508557D01*
X48671428Y-26508557D02*
X49100000Y-26508557D01*
X49957143Y-26551414D02*
X49871429Y-26508557D01*
X49871429Y-26508557D02*
X49742857Y-26508557D01*
X49742857Y-26508557D02*
X49614286Y-26551414D01*
X49614286Y-26551414D02*
X49528571Y-26637128D01*
X49528571Y-26637128D02*
X49485714Y-26722842D01*
X49485714Y-26722842D02*
X49442857Y-26894271D01*
X49442857Y-26894271D02*
X49442857Y-27022842D01*
X49442857Y-27022842D02*
X49485714Y-27194271D01*
X49485714Y-27194271D02*
X49528571Y-27279985D01*
X49528571Y-27279985D02*
X49614286Y-27365700D01*
X49614286Y-27365700D02*
X49742857Y-27408557D01*
X49742857Y-27408557D02*
X49828571Y-27408557D01*
X49828571Y-27408557D02*
X49957143Y-27365700D01*
X49957143Y-27365700D02*
X50000000Y-27322842D01*
X50000000Y-27322842D02*
X50000000Y-27022842D01*
X50000000Y-27022842D02*
X49828571Y-27022842D01*
X51071428Y-27408557D02*
X51071428Y-26508557D01*
X51457143Y-27408557D02*
X51457143Y-26937128D01*
X51457143Y-26937128D02*
X51414285Y-26851414D01*
X51414285Y-26851414D02*
X51328571Y-26808557D01*
X51328571Y-26808557D02*
X51200000Y-26808557D01*
X51200000Y-26808557D02*
X51114285Y-26851414D01*
X51114285Y-26851414D02*
X51071428Y-26894271D01*
X52014286Y-27408557D02*
X51928571Y-27365700D01*
X51928571Y-27365700D02*
X51885714Y-27322842D01*
X51885714Y-27322842D02*
X51842857Y-27237128D01*
X51842857Y-27237128D02*
X51842857Y-26979985D01*
X51842857Y-26979985D02*
X51885714Y-26894271D01*
X51885714Y-26894271D02*
X51928571Y-26851414D01*
X51928571Y-26851414D02*
X52014286Y-26808557D01*
X52014286Y-26808557D02*
X52142857Y-26808557D01*
X52142857Y-26808557D02*
X52228571Y-26851414D01*
X52228571Y-26851414D02*
X52271429Y-26894271D01*
X52271429Y-26894271D02*
X52314286Y-26979985D01*
X52314286Y-26979985D02*
X52314286Y-27237128D01*
X52314286Y-27237128D02*
X52271429Y-27322842D01*
X52271429Y-27322842D02*
X52228571Y-27365700D01*
X52228571Y-27365700D02*
X52142857Y-27408557D01*
X52142857Y-27408557D02*
X52014286Y-27408557D01*
X52828572Y-27408557D02*
X52742857Y-27365700D01*
X52742857Y-27365700D02*
X52700000Y-27279985D01*
X52700000Y-27279985D02*
X52700000Y-26508557D01*
X53514286Y-27365700D02*
X53428572Y-27408557D01*
X53428572Y-27408557D02*
X53257144Y-27408557D01*
X53257144Y-27408557D02*
X53171429Y-27365700D01*
X53171429Y-27365700D02*
X53128572Y-27279985D01*
X53128572Y-27279985D02*
X53128572Y-26937128D01*
X53128572Y-26937128D02*
X53171429Y-26851414D01*
X53171429Y-26851414D02*
X53257144Y-26808557D01*
X53257144Y-26808557D02*
X53428572Y-26808557D01*
X53428572Y-26808557D02*
X53514286Y-26851414D01*
X53514286Y-26851414D02*
X53557144Y-26937128D01*
X53557144Y-26937128D02*
X53557144Y-27022842D01*
X53557144Y-27022842D02*
X53128572Y-27108557D01*
X53900001Y-27365700D02*
X53985715Y-27408557D01*
X53985715Y-27408557D02*
X54157144Y-27408557D01*
X54157144Y-27408557D02*
X54242858Y-27365700D01*
X54242858Y-27365700D02*
X54285715Y-27279985D01*
X54285715Y-27279985D02*
X54285715Y-27237128D01*
X54285715Y-27237128D02*
X54242858Y-27151414D01*
X54242858Y-27151414D02*
X54157144Y-27108557D01*
X54157144Y-27108557D02*
X54028573Y-27108557D01*
X54028573Y-27108557D02*
X53942858Y-27065700D01*
X53942858Y-27065700D02*
X53900001Y-26979985D01*
X53900001Y-26979985D02*
X53900001Y-26937128D01*
X53900001Y-26937128D02*
X53942858Y-26851414D01*
X53942858Y-26851414D02*
X54028573Y-26808557D01*
X54028573Y-26808557D02*
X54157144Y-26808557D01*
X54157144Y-26808557D02*
X54242858Y-26851414D01*
X45289286Y-68390700D02*
X45332143Y-68347842D01*
X45332143Y-68347842D02*
X45417857Y-68304985D01*
X45417857Y-68304985D02*
X45589286Y-68390700D01*
X45589286Y-68390700D02*
X45675000Y-68347842D01*
X45675000Y-68347842D02*
X45717857Y-68304985D01*
X46620536Y-125883557D02*
X46191964Y-125883557D01*
X46191964Y-125883557D02*
X46191964Y-124983557D01*
X46877678Y-125840700D02*
X47006250Y-125883557D01*
X47006250Y-125883557D02*
X47220535Y-125883557D01*
X47220535Y-125883557D02*
X47306250Y-125840700D01*
X47306250Y-125840700D02*
X47349107Y-125797842D01*
X47349107Y-125797842D02*
X47391964Y-125712128D01*
X47391964Y-125712128D02*
X47391964Y-125626414D01*
X47391964Y-125626414D02*
X47349107Y-125540700D01*
X47349107Y-125540700D02*
X47306250Y-125497842D01*
X47306250Y-125497842D02*
X47220535Y-125454985D01*
X47220535Y-125454985D02*
X47049107Y-125412128D01*
X47049107Y-125412128D02*
X46963392Y-125369271D01*
X46963392Y-125369271D02*
X46920535Y-125326414D01*
X46920535Y-125326414D02*
X46877678Y-125240700D01*
X46877678Y-125240700D02*
X46877678Y-125154985D01*
X46877678Y-125154985D02*
X46920535Y-125069271D01*
X46920535Y-125069271D02*
X46963392Y-125026414D01*
X46963392Y-125026414D02*
X47049107Y-124983557D01*
X47049107Y-124983557D02*
X47263392Y-124983557D01*
X47263392Y-124983557D02*
X47391964Y-125026414D01*
X47777678Y-125883557D02*
X47777678Y-124983557D01*
X48163393Y-125883557D02*
X48163393Y-125412128D01*
X48163393Y-125412128D02*
X48120535Y-125326414D01*
X48120535Y-125326414D02*
X48034821Y-125283557D01*
X48034821Y-125283557D02*
X47906250Y-125283557D01*
X47906250Y-125283557D02*
X47820535Y-125326414D01*
X47820535Y-125326414D02*
X47777678Y-125369271D01*
X48591964Y-125883557D02*
X48591964Y-125283557D01*
X48591964Y-124983557D02*
X48549107Y-125026414D01*
X48549107Y-125026414D02*
X48591964Y-125069271D01*
X48591964Y-125069271D02*
X48634821Y-125026414D01*
X48634821Y-125026414D02*
X48591964Y-124983557D01*
X48591964Y-124983557D02*
X48591964Y-125069271D01*
X48891964Y-125283557D02*
X49234821Y-125283557D01*
X49020535Y-125883557D02*
X49020535Y-125112128D01*
X49020535Y-125112128D02*
X49063392Y-125026414D01*
X49063392Y-125026414D02*
X49149107Y-124983557D01*
X49149107Y-124983557D02*
X49234821Y-124983557D01*
X49406250Y-125283557D02*
X49749107Y-125283557D01*
X49534821Y-124983557D02*
X49534821Y-125754985D01*
X49534821Y-125754985D02*
X49577678Y-125840700D01*
X49577678Y-125840700D02*
X49663393Y-125883557D01*
X49663393Y-125883557D02*
X49749107Y-125883557D01*
X47413392Y-144847842D02*
X47370535Y-144890700D01*
X47370535Y-144890700D02*
X47241963Y-144933557D01*
X47241963Y-144933557D02*
X47156249Y-144933557D01*
X47156249Y-144933557D02*
X47027678Y-144890700D01*
X47027678Y-144890700D02*
X46941963Y-144804985D01*
X46941963Y-144804985D02*
X46899106Y-144719271D01*
X46899106Y-144719271D02*
X46856249Y-144547842D01*
X46856249Y-144547842D02*
X46856249Y-144419271D01*
X46856249Y-144419271D02*
X46899106Y-144247842D01*
X46899106Y-144247842D02*
X46941963Y-144162128D01*
X46941963Y-144162128D02*
X47027678Y-144076414D01*
X47027678Y-144076414D02*
X47156249Y-144033557D01*
X47156249Y-144033557D02*
X47241963Y-144033557D01*
X47241963Y-144033557D02*
X47370535Y-144076414D01*
X47370535Y-144076414D02*
X47413392Y-144119271D01*
X47670535Y-144333557D02*
X48013392Y-144333557D01*
X47799106Y-144033557D02*
X47799106Y-144804985D01*
X47799106Y-144804985D02*
X47841963Y-144890700D01*
X47841963Y-144890700D02*
X47927678Y-144933557D01*
X47927678Y-144933557D02*
X48013392Y-144933557D01*
X48313392Y-144933557D02*
X48313392Y-144333557D01*
X48313392Y-144504985D02*
X48356249Y-144419271D01*
X48356249Y-144419271D02*
X48399107Y-144376414D01*
X48399107Y-144376414D02*
X48484821Y-144333557D01*
X48484821Y-144333557D02*
X48570535Y-144333557D01*
X48999107Y-144933557D02*
X48913392Y-144890700D01*
X48913392Y-144890700D02*
X48870535Y-144804985D01*
X48870535Y-144804985D02*
X48870535Y-144033557D01*
X49194643Y-86883557D02*
X49708929Y-86883557D01*
X49451786Y-87783557D02*
X49451786Y-86883557D01*
X49966071Y-87526414D02*
X50394643Y-87526414D01*
X49880357Y-87783557D02*
X50180357Y-86883557D01*
X50180357Y-86883557D02*
X50480357Y-87783557D01*
X51080357Y-87312128D02*
X51208929Y-87354985D01*
X51208929Y-87354985D02*
X51251786Y-87397842D01*
X51251786Y-87397842D02*
X51294643Y-87483557D01*
X51294643Y-87483557D02*
X51294643Y-87612128D01*
X51294643Y-87612128D02*
X51251786Y-87697842D01*
X51251786Y-87697842D02*
X51208929Y-87740700D01*
X51208929Y-87740700D02*
X51123214Y-87783557D01*
X51123214Y-87783557D02*
X50780357Y-87783557D01*
X50780357Y-87783557D02*
X50780357Y-86883557D01*
X50780357Y-86883557D02*
X51080357Y-86883557D01*
X51080357Y-86883557D02*
X51166072Y-86926414D01*
X51166072Y-86926414D02*
X51208929Y-86969271D01*
X51208929Y-86969271D02*
X51251786Y-87054985D01*
X51251786Y-87054985D02*
X51251786Y-87140700D01*
X51251786Y-87140700D02*
X51208929Y-87226414D01*
X51208929Y-87226414D02*
X51166072Y-87269271D01*
X51166072Y-87269271D02*
X51080357Y-87312128D01*
X51080357Y-87312128D02*
X50780357Y-87312128D01*
X51768750Y-106747842D02*
X51725893Y-106790700D01*
X51725893Y-106790700D02*
X51597321Y-106833557D01*
X51597321Y-106833557D02*
X51511607Y-106833557D01*
X51511607Y-106833557D02*
X51383036Y-106790700D01*
X51383036Y-106790700D02*
X51297321Y-106704985D01*
X51297321Y-106704985D02*
X51254464Y-106619271D01*
X51254464Y-106619271D02*
X51211607Y-106447842D01*
X51211607Y-106447842D02*
X51211607Y-106319271D01*
X51211607Y-106319271D02*
X51254464Y-106147842D01*
X51254464Y-106147842D02*
X51297321Y-106062128D01*
X51297321Y-106062128D02*
X51383036Y-105976414D01*
X51383036Y-105976414D02*
X51511607Y-105933557D01*
X51511607Y-105933557D02*
X51597321Y-105933557D01*
X51597321Y-105933557D02*
X51725893Y-105976414D01*
X51725893Y-105976414D02*
X51768750Y-106019271D01*
X52540179Y-106833557D02*
X52540179Y-106362128D01*
X52540179Y-106362128D02*
X52497321Y-106276414D01*
X52497321Y-106276414D02*
X52411607Y-106233557D01*
X52411607Y-106233557D02*
X52240179Y-106233557D01*
X52240179Y-106233557D02*
X52154464Y-106276414D01*
X52540179Y-106790700D02*
X52454464Y-106833557D01*
X52454464Y-106833557D02*
X52240179Y-106833557D01*
X52240179Y-106833557D02*
X52154464Y-106790700D01*
X52154464Y-106790700D02*
X52111607Y-106704985D01*
X52111607Y-106704985D02*
X52111607Y-106619271D01*
X52111607Y-106619271D02*
X52154464Y-106533557D01*
X52154464Y-106533557D02*
X52240179Y-106490700D01*
X52240179Y-106490700D02*
X52454464Y-106490700D01*
X52454464Y-106490700D02*
X52540179Y-106447842D01*
X52968750Y-106233557D02*
X52968750Y-107133557D01*
X52968750Y-106276414D02*
X53054465Y-106233557D01*
X53054465Y-106233557D02*
X53225893Y-106233557D01*
X53225893Y-106233557D02*
X53311607Y-106276414D01*
X53311607Y-106276414D02*
X53354465Y-106319271D01*
X53354465Y-106319271D02*
X53397322Y-106404985D01*
X53397322Y-106404985D02*
X53397322Y-106662128D01*
X53397322Y-106662128D02*
X53354465Y-106747842D01*
X53354465Y-106747842D02*
X53311607Y-106790700D01*
X53311607Y-106790700D02*
X53225893Y-106833557D01*
X53225893Y-106833557D02*
X53054465Y-106833557D01*
X53054465Y-106833557D02*
X52968750Y-106790700D01*
X53740179Y-106790700D02*
X53825893Y-106833557D01*
X53825893Y-106833557D02*
X53997322Y-106833557D01*
X53997322Y-106833557D02*
X54083036Y-106790700D01*
X54083036Y-106790700D02*
X54125893Y-106704985D01*
X54125893Y-106704985D02*
X54125893Y-106662128D01*
X54125893Y-106662128D02*
X54083036Y-106576414D01*
X54083036Y-106576414D02*
X53997322Y-106533557D01*
X53997322Y-106533557D02*
X53868751Y-106533557D01*
X53868751Y-106533557D02*
X53783036Y-106490700D01*
X53783036Y-106490700D02*
X53740179Y-106404985D01*
X53740179Y-106404985D02*
X53740179Y-106362128D01*
X53740179Y-106362128D02*
X53783036Y-106276414D01*
X53783036Y-106276414D02*
X53868751Y-106233557D01*
X53868751Y-106233557D02*
X53997322Y-106233557D01*
X53997322Y-106233557D02*
X54083036Y-106276414D01*
X64832143Y-68733557D02*
X64317857Y-68733557D01*
X64575000Y-68733557D02*
X64575000Y-67833557D01*
X64575000Y-67833557D02*
X64489286Y-67962128D01*
X64489286Y-67962128D02*
X64403571Y-68047842D01*
X64403571Y-68047842D02*
X64317857Y-68090700D01*
X68051786Y-125883557D02*
X67623214Y-125883557D01*
X67623214Y-125883557D02*
X67623214Y-124983557D01*
X68308928Y-125840700D02*
X68437500Y-125883557D01*
X68437500Y-125883557D02*
X68651785Y-125883557D01*
X68651785Y-125883557D02*
X68737500Y-125840700D01*
X68737500Y-125840700D02*
X68780357Y-125797842D01*
X68780357Y-125797842D02*
X68823214Y-125712128D01*
X68823214Y-125712128D02*
X68823214Y-125626414D01*
X68823214Y-125626414D02*
X68780357Y-125540700D01*
X68780357Y-125540700D02*
X68737500Y-125497842D01*
X68737500Y-125497842D02*
X68651785Y-125454985D01*
X68651785Y-125454985D02*
X68480357Y-125412128D01*
X68480357Y-125412128D02*
X68394642Y-125369271D01*
X68394642Y-125369271D02*
X68351785Y-125326414D01*
X68351785Y-125326414D02*
X68308928Y-125240700D01*
X68308928Y-125240700D02*
X68308928Y-125154985D01*
X68308928Y-125154985D02*
X68351785Y-125069271D01*
X68351785Y-125069271D02*
X68394642Y-125026414D01*
X68394642Y-125026414D02*
X68480357Y-124983557D01*
X68480357Y-124983557D02*
X68694642Y-124983557D01*
X68694642Y-124983557D02*
X68823214Y-125026414D01*
X69208928Y-125883557D02*
X69208928Y-124983557D01*
X69594643Y-125883557D02*
X69594643Y-125412128D01*
X69594643Y-125412128D02*
X69551785Y-125326414D01*
X69551785Y-125326414D02*
X69466071Y-125283557D01*
X69466071Y-125283557D02*
X69337500Y-125283557D01*
X69337500Y-125283557D02*
X69251785Y-125326414D01*
X69251785Y-125326414D02*
X69208928Y-125369271D01*
X70023214Y-125883557D02*
X70023214Y-125283557D01*
X70023214Y-124983557D02*
X69980357Y-125026414D01*
X69980357Y-125026414D02*
X70023214Y-125069271D01*
X70023214Y-125069271D02*
X70066071Y-125026414D01*
X70066071Y-125026414D02*
X70023214Y-124983557D01*
X70023214Y-124983557D02*
X70023214Y-125069271D01*
X70323214Y-125283557D02*
X70666071Y-125283557D01*
X70451785Y-125883557D02*
X70451785Y-125112128D01*
X70451785Y-125112128D02*
X70494642Y-125026414D01*
X70494642Y-125026414D02*
X70580357Y-124983557D01*
X70580357Y-124983557D02*
X70666071Y-124983557D01*
X70837500Y-125283557D02*
X71180357Y-125283557D01*
X70966071Y-124983557D02*
X70966071Y-125754985D01*
X70966071Y-125754985D02*
X71008928Y-125840700D01*
X71008928Y-125840700D02*
X71094643Y-125883557D01*
X71094643Y-125883557D02*
X71180357Y-125883557D01*
X70711607Y-144033557D02*
X70925893Y-144933557D01*
X70925893Y-144933557D02*
X71097321Y-144290700D01*
X71097321Y-144290700D02*
X71268750Y-144933557D01*
X71268750Y-144933557D02*
X71483036Y-144033557D01*
X71825892Y-144933557D02*
X71825892Y-144333557D01*
X71825892Y-144033557D02*
X71783035Y-144076414D01*
X71783035Y-144076414D02*
X71825892Y-144119271D01*
X71825892Y-144119271D02*
X71868749Y-144076414D01*
X71868749Y-144076414D02*
X71825892Y-144033557D01*
X71825892Y-144033557D02*
X71825892Y-144119271D01*
X72254463Y-144333557D02*
X72254463Y-144933557D01*
X72254463Y-144419271D02*
X72297320Y-144376414D01*
X72297320Y-144376414D02*
X72383035Y-144333557D01*
X72383035Y-144333557D02*
X72511606Y-144333557D01*
X72511606Y-144333557D02*
X72597320Y-144376414D01*
X72597320Y-144376414D02*
X72640178Y-144462128D01*
X72640178Y-144462128D02*
X72640178Y-144933557D01*
X74442857Y-87869271D02*
X74357143Y-87826414D01*
X74357143Y-87826414D02*
X74271429Y-87740700D01*
X74271429Y-87740700D02*
X74142857Y-87612128D01*
X74142857Y-87612128D02*
X74057143Y-87569271D01*
X74057143Y-87569271D02*
X73971429Y-87569271D01*
X74014286Y-87783557D02*
X73928572Y-87740700D01*
X73928572Y-87740700D02*
X73842857Y-87654985D01*
X73842857Y-87654985D02*
X73800000Y-87483557D01*
X73800000Y-87483557D02*
X73800000Y-87183557D01*
X73800000Y-87183557D02*
X73842857Y-87012128D01*
X73842857Y-87012128D02*
X73928572Y-86926414D01*
X73928572Y-86926414D02*
X74014286Y-86883557D01*
X74014286Y-86883557D02*
X74185714Y-86883557D01*
X74185714Y-86883557D02*
X74271429Y-86926414D01*
X74271429Y-86926414D02*
X74357143Y-87012128D01*
X74357143Y-87012128D02*
X74400000Y-87183557D01*
X74400000Y-87183557D02*
X74400000Y-87483557D01*
X74400000Y-87483557D02*
X74357143Y-87654985D01*
X74357143Y-87654985D02*
X74271429Y-87740700D01*
X74271429Y-87740700D02*
X74185714Y-87783557D01*
X74185714Y-87783557D02*
X74014286Y-87783557D01*
X78648214Y-106576414D02*
X79076786Y-106576414D01*
X78562500Y-106833557D02*
X78862500Y-105933557D01*
X78862500Y-105933557D02*
X79162500Y-106833557D01*
X83367857Y-67919271D02*
X83410714Y-67876414D01*
X83410714Y-67876414D02*
X83496429Y-67833557D01*
X83496429Y-67833557D02*
X83710714Y-67833557D01*
X83710714Y-67833557D02*
X83796429Y-67876414D01*
X83796429Y-67876414D02*
X83839286Y-67919271D01*
X83839286Y-67919271D02*
X83882143Y-68004985D01*
X83882143Y-68004985D02*
X83882143Y-68090700D01*
X83882143Y-68090700D02*
X83839286Y-68219271D01*
X83839286Y-68219271D02*
X83325000Y-68733557D01*
X83325000Y-68733557D02*
X83882143Y-68733557D01*
X88087500Y-124983557D02*
X88687500Y-124983557D01*
X88687500Y-124983557D02*
X88087500Y-125883557D01*
X88087500Y-125883557D02*
X88687500Y-125883557D01*
X92764286Y-86883557D02*
X92978572Y-87783557D01*
X92978572Y-87783557D02*
X93150000Y-87140700D01*
X93150000Y-87140700D02*
X93321429Y-87783557D01*
X93321429Y-87783557D02*
X93535715Y-86883557D01*
X94824106Y-144676414D02*
X95252678Y-144676414D01*
X94738392Y-144933557D02*
X95038392Y-144033557D01*
X95038392Y-144033557D02*
X95338392Y-144933557D01*
X95766964Y-144933557D02*
X95681249Y-144890700D01*
X95681249Y-144890700D02*
X95638392Y-144804985D01*
X95638392Y-144804985D02*
X95638392Y-144033557D01*
X95981250Y-144333557D02*
X96324107Y-144333557D01*
X96109821Y-144033557D02*
X96109821Y-144804985D01*
X96109821Y-144804985D02*
X96152678Y-144890700D01*
X96152678Y-144890700D02*
X96238393Y-144933557D01*
X96238393Y-144933557D02*
X96324107Y-144933557D01*
X97655357Y-106790700D02*
X97783929Y-106833557D01*
X97783929Y-106833557D02*
X97998214Y-106833557D01*
X97998214Y-106833557D02*
X98083929Y-106790700D01*
X98083929Y-106790700D02*
X98126786Y-106747842D01*
X98126786Y-106747842D02*
X98169643Y-106662128D01*
X98169643Y-106662128D02*
X98169643Y-106576414D01*
X98169643Y-106576414D02*
X98126786Y-106490700D01*
X98126786Y-106490700D02*
X98083929Y-106447842D01*
X98083929Y-106447842D02*
X97998214Y-106404985D01*
X97998214Y-106404985D02*
X97826786Y-106362128D01*
X97826786Y-106362128D02*
X97741071Y-106319271D01*
X97741071Y-106319271D02*
X97698214Y-106276414D01*
X97698214Y-106276414D02*
X97655357Y-106190700D01*
X97655357Y-106190700D02*
X97655357Y-106104985D01*
X97655357Y-106104985D02*
X97698214Y-106019271D01*
X97698214Y-106019271D02*
X97741071Y-105976414D01*
X97741071Y-105976414D02*
X97826786Y-105933557D01*
X97826786Y-105933557D02*
X98041071Y-105933557D01*
X98041071Y-105933557D02*
X98169643Y-105976414D01*
X102375000Y-67833557D02*
X102932143Y-67833557D01*
X102932143Y-67833557D02*
X102632143Y-68176414D01*
X102632143Y-68176414D02*
X102760714Y-68176414D01*
X102760714Y-68176414D02*
X102846429Y-68219271D01*
X102846429Y-68219271D02*
X102889286Y-68262128D01*
X102889286Y-68262128D02*
X102932143Y-68347842D01*
X102932143Y-68347842D02*
X102932143Y-68562128D01*
X102932143Y-68562128D02*
X102889286Y-68647842D01*
X102889286Y-68647842D02*
X102846429Y-68690700D01*
X102846429Y-68690700D02*
X102760714Y-68733557D01*
X102760714Y-68733557D02*
X102503571Y-68733557D01*
X102503571Y-68733557D02*
X102417857Y-68690700D01*
X102417857Y-68690700D02*
X102375000Y-68647842D01*
X107137500Y-124983557D02*
X107737500Y-125883557D01*
X107737500Y-124983557D02*
X107137500Y-125883557D01*
X112007142Y-87312128D02*
X112307142Y-87312128D01*
X112435714Y-87783557D02*
X112007142Y-87783557D01*
X112007142Y-87783557D02*
X112007142Y-86883557D01*
X112007142Y-86883557D02*
X112435714Y-86883557D01*
X116726785Y-106833557D02*
X116726785Y-105933557D01*
X116726785Y-105933557D02*
X116941071Y-105933557D01*
X116941071Y-105933557D02*
X117069642Y-105976414D01*
X117069642Y-105976414D02*
X117155357Y-106062128D01*
X117155357Y-106062128D02*
X117198214Y-106147842D01*
X117198214Y-106147842D02*
X117241071Y-106319271D01*
X117241071Y-106319271D02*
X117241071Y-106447842D01*
X117241071Y-106447842D02*
X117198214Y-106619271D01*
X117198214Y-106619271D02*
X117155357Y-106704985D01*
X117155357Y-106704985D02*
X117069642Y-106790700D01*
X117069642Y-106790700D02*
X116941071Y-106833557D01*
X116941071Y-106833557D02*
X116726785Y-106833557D01*
X119065178Y-144462128D02*
X118765178Y-144462128D01*
X118765178Y-144933557D02*
X118765178Y-144033557D01*
X118765178Y-144033557D02*
X119193750Y-144033557D01*
X119536607Y-144333557D02*
X119536607Y-144933557D01*
X119536607Y-144419271D02*
X119579464Y-144376414D01*
X119579464Y-144376414D02*
X119665179Y-144333557D01*
X119665179Y-144333557D02*
X119793750Y-144333557D01*
X119793750Y-144333557D02*
X119879464Y-144376414D01*
X119879464Y-144376414D02*
X119922322Y-144462128D01*
X119922322Y-144462128D02*
X119922322Y-144933557D01*
X121896429Y-68133557D02*
X121896429Y-68733557D01*
X121682143Y-67790700D02*
X121467857Y-68433557D01*
X121467857Y-68433557D02*
X122025000Y-68433557D01*
X126766071Y-125797842D02*
X126723214Y-125840700D01*
X126723214Y-125840700D02*
X126594642Y-125883557D01*
X126594642Y-125883557D02*
X126508928Y-125883557D01*
X126508928Y-125883557D02*
X126380357Y-125840700D01*
X126380357Y-125840700D02*
X126294642Y-125754985D01*
X126294642Y-125754985D02*
X126251785Y-125669271D01*
X126251785Y-125669271D02*
X126208928Y-125497842D01*
X126208928Y-125497842D02*
X126208928Y-125369271D01*
X126208928Y-125369271D02*
X126251785Y-125197842D01*
X126251785Y-125197842D02*
X126294642Y-125112128D01*
X126294642Y-125112128D02*
X126380357Y-125026414D01*
X126380357Y-125026414D02*
X126508928Y-124983557D01*
X126508928Y-124983557D02*
X126594642Y-124983557D01*
X126594642Y-124983557D02*
X126723214Y-125026414D01*
X126723214Y-125026414D02*
X126766071Y-125069271D01*
X131528571Y-87783557D02*
X131228571Y-87354985D01*
X131014285Y-87783557D02*
X131014285Y-86883557D01*
X131014285Y-86883557D02*
X131357142Y-86883557D01*
X131357142Y-86883557D02*
X131442857Y-86926414D01*
X131442857Y-86926414D02*
X131485714Y-86969271D01*
X131485714Y-86969271D02*
X131528571Y-87054985D01*
X131528571Y-87054985D02*
X131528571Y-87183557D01*
X131528571Y-87183557D02*
X131485714Y-87269271D01*
X131485714Y-87269271D02*
X131442857Y-87312128D01*
X131442857Y-87312128D02*
X131357142Y-87354985D01*
X131357142Y-87354985D02*
X131014285Y-87354985D01*
X136141071Y-106362128D02*
X135841071Y-106362128D01*
X135841071Y-106833557D02*
X135841071Y-105933557D01*
X135841071Y-105933557D02*
X136269643Y-105933557D01*
X140989286Y-67833557D02*
X140560714Y-67833557D01*
X140560714Y-67833557D02*
X140517857Y-68262128D01*
X140517857Y-68262128D02*
X140560714Y-68219271D01*
X140560714Y-68219271D02*
X140646429Y-68176414D01*
X140646429Y-68176414D02*
X140860714Y-68176414D01*
X140860714Y-68176414D02*
X140946429Y-68219271D01*
X140946429Y-68219271D02*
X140989286Y-68262128D01*
X140989286Y-68262128D02*
X141032143Y-68347842D01*
X141032143Y-68347842D02*
X141032143Y-68562128D01*
X141032143Y-68562128D02*
X140989286Y-68647842D01*
X140989286Y-68647842D02*
X140946429Y-68690700D01*
X140946429Y-68690700D02*
X140860714Y-68733557D01*
X140860714Y-68733557D02*
X140646429Y-68733557D01*
X140646429Y-68733557D02*
X140560714Y-68690700D01*
X140560714Y-68690700D02*
X140517857Y-68647842D01*
X138932142Y-144890700D02*
X139060714Y-144933557D01*
X139060714Y-144933557D02*
X139274999Y-144933557D01*
X139274999Y-144933557D02*
X139360714Y-144890700D01*
X139360714Y-144890700D02*
X139403571Y-144847842D01*
X139403571Y-144847842D02*
X139446428Y-144762128D01*
X139446428Y-144762128D02*
X139446428Y-144676414D01*
X139446428Y-144676414D02*
X139403571Y-144590700D01*
X139403571Y-144590700D02*
X139360714Y-144547842D01*
X139360714Y-144547842D02*
X139274999Y-144504985D01*
X139274999Y-144504985D02*
X139103571Y-144462128D01*
X139103571Y-144462128D02*
X139017856Y-144419271D01*
X139017856Y-144419271D02*
X138974999Y-144376414D01*
X138974999Y-144376414D02*
X138932142Y-144290700D01*
X138932142Y-144290700D02*
X138932142Y-144204985D01*
X138932142Y-144204985D02*
X138974999Y-144119271D01*
X138974999Y-144119271D02*
X139017856Y-144076414D01*
X139017856Y-144076414D02*
X139103571Y-144033557D01*
X139103571Y-144033557D02*
X139317856Y-144033557D01*
X139317856Y-144033557D02*
X139446428Y-144076414D01*
X139832142Y-144333557D02*
X139832142Y-145233557D01*
X139832142Y-144376414D02*
X139917857Y-144333557D01*
X139917857Y-144333557D02*
X140089285Y-144333557D01*
X140089285Y-144333557D02*
X140174999Y-144376414D01*
X140174999Y-144376414D02*
X140217857Y-144419271D01*
X140217857Y-144419271D02*
X140260714Y-144504985D01*
X140260714Y-144504985D02*
X140260714Y-144762128D01*
X140260714Y-144762128D02*
X140217857Y-144847842D01*
X140217857Y-144847842D02*
X140174999Y-144890700D01*
X140174999Y-144890700D02*
X140089285Y-144933557D01*
X140089285Y-144933557D02*
X139917857Y-144933557D01*
X139917857Y-144933557D02*
X139832142Y-144890700D01*
X141032143Y-144933557D02*
X141032143Y-144462128D01*
X141032143Y-144462128D02*
X140989285Y-144376414D01*
X140989285Y-144376414D02*
X140903571Y-144333557D01*
X140903571Y-144333557D02*
X140732143Y-144333557D01*
X140732143Y-144333557D02*
X140646428Y-144376414D01*
X141032143Y-144890700D02*
X140946428Y-144933557D01*
X140946428Y-144933557D02*
X140732143Y-144933557D01*
X140732143Y-144933557D02*
X140646428Y-144890700D01*
X140646428Y-144890700D02*
X140603571Y-144804985D01*
X140603571Y-144804985D02*
X140603571Y-144719271D01*
X140603571Y-144719271D02*
X140646428Y-144633557D01*
X140646428Y-144633557D02*
X140732143Y-144590700D01*
X140732143Y-144590700D02*
X140946428Y-144590700D01*
X140946428Y-144590700D02*
X141032143Y-144547842D01*
X141846429Y-144890700D02*
X141760714Y-144933557D01*
X141760714Y-144933557D02*
X141589286Y-144933557D01*
X141589286Y-144933557D02*
X141503571Y-144890700D01*
X141503571Y-144890700D02*
X141460714Y-144847842D01*
X141460714Y-144847842D02*
X141417857Y-144762128D01*
X141417857Y-144762128D02*
X141417857Y-144504985D01*
X141417857Y-144504985D02*
X141460714Y-144419271D01*
X141460714Y-144419271D02*
X141503571Y-144376414D01*
X141503571Y-144376414D02*
X141589286Y-144333557D01*
X141589286Y-144333557D02*
X141760714Y-144333557D01*
X141760714Y-144333557D02*
X141846429Y-144376414D01*
X142575000Y-144890700D02*
X142489286Y-144933557D01*
X142489286Y-144933557D02*
X142317858Y-144933557D01*
X142317858Y-144933557D02*
X142232143Y-144890700D01*
X142232143Y-144890700D02*
X142189286Y-144804985D01*
X142189286Y-144804985D02*
X142189286Y-144462128D01*
X142189286Y-144462128D02*
X142232143Y-144376414D01*
X142232143Y-144376414D02*
X142317858Y-144333557D01*
X142317858Y-144333557D02*
X142489286Y-144333557D01*
X142489286Y-144333557D02*
X142575000Y-144376414D01*
X142575000Y-144376414D02*
X142617858Y-144462128D01*
X142617858Y-144462128D02*
X142617858Y-144547842D01*
X142617858Y-144547842D02*
X142189286Y-144633557D01*
X145237500Y-124983557D02*
X145537500Y-125883557D01*
X145537500Y-125883557D02*
X145837500Y-124983557D01*
X150042857Y-86883557D02*
X150557143Y-86883557D01*
X150300000Y-87783557D02*
X150300000Y-86883557D01*
X155298214Y-105976414D02*
X155212500Y-105933557D01*
X155212500Y-105933557D02*
X155083928Y-105933557D01*
X155083928Y-105933557D02*
X154955357Y-105976414D01*
X154955357Y-105976414D02*
X154869642Y-106062128D01*
X154869642Y-106062128D02*
X154826785Y-106147842D01*
X154826785Y-106147842D02*
X154783928Y-106319271D01*
X154783928Y-106319271D02*
X154783928Y-106447842D01*
X154783928Y-106447842D02*
X154826785Y-106619271D01*
X154826785Y-106619271D02*
X154869642Y-106704985D01*
X154869642Y-106704985D02*
X154955357Y-106790700D01*
X154955357Y-106790700D02*
X155083928Y-106833557D01*
X155083928Y-106833557D02*
X155169642Y-106833557D01*
X155169642Y-106833557D02*
X155298214Y-106790700D01*
X155298214Y-106790700D02*
X155341071Y-106747842D01*
X155341071Y-106747842D02*
X155341071Y-106447842D01*
X155341071Y-106447842D02*
X155169642Y-106447842D01*
X159996429Y-67833557D02*
X159825000Y-67833557D01*
X159825000Y-67833557D02*
X159739286Y-67876414D01*
X159739286Y-67876414D02*
X159696429Y-67919271D01*
X159696429Y-67919271D02*
X159610714Y-68047842D01*
X159610714Y-68047842D02*
X159567857Y-68219271D01*
X159567857Y-68219271D02*
X159567857Y-68562128D01*
X159567857Y-68562128D02*
X159610714Y-68647842D01*
X159610714Y-68647842D02*
X159653571Y-68690700D01*
X159653571Y-68690700D02*
X159739286Y-68733557D01*
X159739286Y-68733557D02*
X159910714Y-68733557D01*
X159910714Y-68733557D02*
X159996429Y-68690700D01*
X159996429Y-68690700D02*
X160039286Y-68647842D01*
X160039286Y-68647842D02*
X160082143Y-68562128D01*
X160082143Y-68562128D02*
X160082143Y-68347842D01*
X160082143Y-68347842D02*
X160039286Y-68262128D01*
X160039286Y-68262128D02*
X159996429Y-68219271D01*
X159996429Y-68219271D02*
X159910714Y-68176414D01*
X159910714Y-68176414D02*
X159739286Y-68176414D01*
X159739286Y-68176414D02*
X159653571Y-68219271D01*
X159653571Y-68219271D02*
X159610714Y-68262128D01*
X159610714Y-68262128D02*
X159567857Y-68347842D01*
X160363392Y-144890700D02*
X160491964Y-144933557D01*
X160491964Y-144933557D02*
X160706249Y-144933557D01*
X160706249Y-144933557D02*
X160791964Y-144890700D01*
X160791964Y-144890700D02*
X160834821Y-144847842D01*
X160834821Y-144847842D02*
X160877678Y-144762128D01*
X160877678Y-144762128D02*
X160877678Y-144676414D01*
X160877678Y-144676414D02*
X160834821Y-144590700D01*
X160834821Y-144590700D02*
X160791964Y-144547842D01*
X160791964Y-144547842D02*
X160706249Y-144504985D01*
X160706249Y-144504985D02*
X160534821Y-144462128D01*
X160534821Y-144462128D02*
X160449106Y-144419271D01*
X160449106Y-144419271D02*
X160406249Y-144376414D01*
X160406249Y-144376414D02*
X160363392Y-144290700D01*
X160363392Y-144290700D02*
X160363392Y-144204985D01*
X160363392Y-144204985D02*
X160406249Y-144119271D01*
X160406249Y-144119271D02*
X160449106Y-144076414D01*
X160449106Y-144076414D02*
X160534821Y-144033557D01*
X160534821Y-144033557D02*
X160749106Y-144033557D01*
X160749106Y-144033557D02*
X160877678Y-144076414D01*
X161263392Y-144333557D02*
X161263392Y-145233557D01*
X161263392Y-144376414D02*
X161349107Y-144333557D01*
X161349107Y-144333557D02*
X161520535Y-144333557D01*
X161520535Y-144333557D02*
X161606249Y-144376414D01*
X161606249Y-144376414D02*
X161649107Y-144419271D01*
X161649107Y-144419271D02*
X161691964Y-144504985D01*
X161691964Y-144504985D02*
X161691964Y-144762128D01*
X161691964Y-144762128D02*
X161649107Y-144847842D01*
X161649107Y-144847842D02*
X161606249Y-144890700D01*
X161606249Y-144890700D02*
X161520535Y-144933557D01*
X161520535Y-144933557D02*
X161349107Y-144933557D01*
X161349107Y-144933557D02*
X161263392Y-144890700D01*
X162463393Y-144933557D02*
X162463393Y-144462128D01*
X162463393Y-144462128D02*
X162420535Y-144376414D01*
X162420535Y-144376414D02*
X162334821Y-144333557D01*
X162334821Y-144333557D02*
X162163393Y-144333557D01*
X162163393Y-144333557D02*
X162077678Y-144376414D01*
X162463393Y-144890700D02*
X162377678Y-144933557D01*
X162377678Y-144933557D02*
X162163393Y-144933557D01*
X162163393Y-144933557D02*
X162077678Y-144890700D01*
X162077678Y-144890700D02*
X162034821Y-144804985D01*
X162034821Y-144804985D02*
X162034821Y-144719271D01*
X162034821Y-144719271D02*
X162077678Y-144633557D01*
X162077678Y-144633557D02*
X162163393Y-144590700D01*
X162163393Y-144590700D02*
X162377678Y-144590700D01*
X162377678Y-144590700D02*
X162463393Y-144547842D01*
X163277679Y-144890700D02*
X163191964Y-144933557D01*
X163191964Y-144933557D02*
X163020536Y-144933557D01*
X163020536Y-144933557D02*
X162934821Y-144890700D01*
X162934821Y-144890700D02*
X162891964Y-144847842D01*
X162891964Y-144847842D02*
X162849107Y-144762128D01*
X162849107Y-144762128D02*
X162849107Y-144504985D01*
X162849107Y-144504985D02*
X162891964Y-144419271D01*
X162891964Y-144419271D02*
X162934821Y-144376414D01*
X162934821Y-144376414D02*
X163020536Y-144333557D01*
X163020536Y-144333557D02*
X163191964Y-144333557D01*
X163191964Y-144333557D02*
X163277679Y-144376414D01*
X164006250Y-144890700D02*
X163920536Y-144933557D01*
X163920536Y-144933557D02*
X163749108Y-144933557D01*
X163749108Y-144933557D02*
X163663393Y-144890700D01*
X163663393Y-144890700D02*
X163620536Y-144804985D01*
X163620536Y-144804985D02*
X163620536Y-144462128D01*
X163620536Y-144462128D02*
X163663393Y-144376414D01*
X163663393Y-144376414D02*
X163749108Y-144333557D01*
X163749108Y-144333557D02*
X163920536Y-144333557D01*
X163920536Y-144333557D02*
X164006250Y-144376414D01*
X164006250Y-144376414D02*
X164049108Y-144462128D01*
X164049108Y-144462128D02*
X164049108Y-144547842D01*
X164049108Y-144547842D02*
X163620536Y-144633557D01*
X164651785Y-125412128D02*
X164780357Y-125454985D01*
X164780357Y-125454985D02*
X164823214Y-125497842D01*
X164823214Y-125497842D02*
X164866071Y-125583557D01*
X164866071Y-125583557D02*
X164866071Y-125712128D01*
X164866071Y-125712128D02*
X164823214Y-125797842D01*
X164823214Y-125797842D02*
X164780357Y-125840700D01*
X164780357Y-125840700D02*
X164694642Y-125883557D01*
X164694642Y-125883557D02*
X164351785Y-125883557D01*
X164351785Y-125883557D02*
X164351785Y-124983557D01*
X164351785Y-124983557D02*
X164651785Y-124983557D01*
X164651785Y-124983557D02*
X164737500Y-125026414D01*
X164737500Y-125026414D02*
X164780357Y-125069271D01*
X164780357Y-125069271D02*
X164823214Y-125154985D01*
X164823214Y-125154985D02*
X164823214Y-125240700D01*
X164823214Y-125240700D02*
X164780357Y-125326414D01*
X164780357Y-125326414D02*
X164737500Y-125369271D01*
X164737500Y-125369271D02*
X164651785Y-125412128D01*
X164651785Y-125412128D02*
X164351785Y-125412128D01*
X116193452Y-37954819D02*
X116193452Y-38764342D01*
X116193452Y-38764342D02*
X116241071Y-38859580D01*
X116241071Y-38859580D02*
X116288690Y-38907200D01*
X116288690Y-38907200D02*
X116383928Y-38954819D01*
X116383928Y-38954819D02*
X116574404Y-38954819D01*
X116574404Y-38954819D02*
X116669642Y-38907200D01*
X116669642Y-38907200D02*
X116717261Y-38859580D01*
X116717261Y-38859580D02*
X116764880Y-38764342D01*
X116764880Y-38764342D02*
X116764880Y-37954819D01*
X117193452Y-38907200D02*
X117336309Y-38954819D01*
X117336309Y-38954819D02*
X117574404Y-38954819D01*
X117574404Y-38954819D02*
X117669642Y-38907200D01*
X117669642Y-38907200D02*
X117717261Y-38859580D01*
X117717261Y-38859580D02*
X117764880Y-38764342D01*
X117764880Y-38764342D02*
X117764880Y-38669104D01*
X117764880Y-38669104D02*
X117717261Y-38573866D01*
X117717261Y-38573866D02*
X117669642Y-38526247D01*
X117669642Y-38526247D02*
X117574404Y-38478628D01*
X117574404Y-38478628D02*
X117383928Y-38431009D01*
X117383928Y-38431009D02*
X117288690Y-38383390D01*
X117288690Y-38383390D02*
X117241071Y-38335771D01*
X117241071Y-38335771D02*
X117193452Y-38240533D01*
X117193452Y-38240533D02*
X117193452Y-38145295D01*
X117193452Y-38145295D02*
X117241071Y-38050057D01*
X117241071Y-38050057D02*
X117288690Y-38002438D01*
X117288690Y-38002438D02*
X117383928Y-37954819D01*
X117383928Y-37954819D02*
X117622023Y-37954819D01*
X117622023Y-37954819D02*
X117764880Y-38002438D01*
X118526785Y-38431009D02*
X118669642Y-38478628D01*
X118669642Y-38478628D02*
X118717261Y-38526247D01*
X118717261Y-38526247D02*
X118764880Y-38621485D01*
X118764880Y-38621485D02*
X118764880Y-38764342D01*
X118764880Y-38764342D02*
X118717261Y-38859580D01*
X118717261Y-38859580D02*
X118669642Y-38907200D01*
X118669642Y-38907200D02*
X118574404Y-38954819D01*
X118574404Y-38954819D02*
X118193452Y-38954819D01*
X118193452Y-38954819D02*
X118193452Y-37954819D01*
X118193452Y-37954819D02*
X118526785Y-37954819D01*
X118526785Y-37954819D02*
X118622023Y-38002438D01*
X118622023Y-38002438D02*
X118669642Y-38050057D01*
X118669642Y-38050057D02*
X118717261Y-38145295D01*
X118717261Y-38145295D02*
X118717261Y-38240533D01*
X118717261Y-38240533D02*
X118669642Y-38335771D01*
X118669642Y-38335771D02*
X118622023Y-38383390D01*
X118622023Y-38383390D02*
X118526785Y-38431009D01*
X118526785Y-38431009D02*
X118193452Y-38431009D01*
X118955357Y-39050057D02*
X119717261Y-39050057D01*
X120145833Y-37954819D02*
X120336309Y-37954819D01*
X120336309Y-37954819D02*
X120431547Y-38002438D01*
X120431547Y-38002438D02*
X120526785Y-38097676D01*
X120526785Y-38097676D02*
X120574404Y-38288152D01*
X120574404Y-38288152D02*
X120574404Y-38621485D01*
X120574404Y-38621485D02*
X120526785Y-38811961D01*
X120526785Y-38811961D02*
X120431547Y-38907200D01*
X120431547Y-38907200D02*
X120336309Y-38954819D01*
X120336309Y-38954819D02*
X120145833Y-38954819D01*
X120145833Y-38954819D02*
X120050595Y-38907200D01*
X120050595Y-38907200D02*
X119955357Y-38811961D01*
X119955357Y-38811961D02*
X119907738Y-38621485D01*
X119907738Y-38621485D02*
X119907738Y-38288152D01*
X119907738Y-38288152D02*
X119955357Y-38097676D01*
X119955357Y-38097676D02*
X120050595Y-38002438D01*
X120050595Y-38002438D02*
X120145833Y-37954819D01*
X121002976Y-37954819D02*
X121002976Y-38764342D01*
X121002976Y-38764342D02*
X121050595Y-38859580D01*
X121050595Y-38859580D02*
X121098214Y-38907200D01*
X121098214Y-38907200D02*
X121193452Y-38954819D01*
X121193452Y-38954819D02*
X121383928Y-38954819D01*
X121383928Y-38954819D02*
X121479166Y-38907200D01*
X121479166Y-38907200D02*
X121526785Y-38859580D01*
X121526785Y-38859580D02*
X121574404Y-38764342D01*
X121574404Y-38764342D02*
X121574404Y-37954819D01*
X121907738Y-37954819D02*
X122479166Y-37954819D01*
X122193452Y-38954819D02*
X122193452Y-37954819D01*
X122574405Y-39050057D02*
X123336309Y-39050057D01*
X124050595Y-38954819D02*
X123574405Y-38954819D01*
X123574405Y-38954819D02*
X123574405Y-37954819D01*
X124383929Y-38431009D02*
X124717262Y-38431009D01*
X124860119Y-38954819D02*
X124383929Y-38954819D01*
X124383929Y-38954819D02*
X124383929Y-37954819D01*
X124383929Y-37954819D02*
X124860119Y-37954819D01*
X125622024Y-38431009D02*
X125288691Y-38431009D01*
X125288691Y-38954819D02*
X125288691Y-37954819D01*
X125288691Y-37954819D02*
X125764881Y-37954819D01*
X126002977Y-37954819D02*
X126574405Y-37954819D01*
X126288691Y-38954819D02*
X126288691Y-37954819D01*
X10542858Y-24547342D02*
X10542858Y-23347342D01*
X11228572Y-24547342D02*
X10714286Y-23861628D01*
X11228572Y-23347342D02*
X10542858Y-24033057D01*
X12428572Y-24433057D02*
X12371429Y-24490200D01*
X12371429Y-24490200D02*
X12200001Y-24547342D01*
X12200001Y-24547342D02*
X12085715Y-24547342D01*
X12085715Y-24547342D02*
X11914286Y-24490200D01*
X11914286Y-24490200D02*
X11800001Y-24375914D01*
X11800001Y-24375914D02*
X11742858Y-24261628D01*
X11742858Y-24261628D02*
X11685715Y-24033057D01*
X11685715Y-24033057D02*
X11685715Y-23861628D01*
X11685715Y-23861628D02*
X11742858Y-23633057D01*
X11742858Y-23633057D02*
X11800001Y-23518771D01*
X11800001Y-23518771D02*
X11914286Y-23404485D01*
X11914286Y-23404485D02*
X12085715Y-23347342D01*
X12085715Y-23347342D02*
X12200001Y-23347342D01*
X12200001Y-23347342D02*
X12371429Y-23404485D01*
X12371429Y-23404485D02*
X12428572Y-23461628D01*
X12885715Y-23461628D02*
X12942858Y-23404485D01*
X12942858Y-23404485D02*
X13057144Y-23347342D01*
X13057144Y-23347342D02*
X13342858Y-23347342D01*
X13342858Y-23347342D02*
X13457144Y-23404485D01*
X13457144Y-23404485D02*
X13514286Y-23461628D01*
X13514286Y-23461628D02*
X13571429Y-23575914D01*
X13571429Y-23575914D02*
X13571429Y-23690200D01*
X13571429Y-23690200D02*
X13514286Y-23861628D01*
X13514286Y-23861628D02*
X12828572Y-24547342D01*
X12828572Y-24547342D02*
X13571429Y-24547342D01*
X15571429Y-24547342D02*
X15000001Y-24547342D01*
X15000001Y-24547342D02*
X15000001Y-23347342D01*
X15971430Y-23918771D02*
X16371430Y-23918771D01*
X16542858Y-24547342D02*
X15971430Y-24547342D01*
X15971430Y-24547342D02*
X15971430Y-23347342D01*
X15971430Y-23347342D02*
X16542858Y-23347342D01*
X17457144Y-23918771D02*
X17057144Y-23918771D01*
X17057144Y-24547342D02*
X17057144Y-23347342D01*
X17057144Y-23347342D02*
X17628572Y-23347342D01*
X17914286Y-23347342D02*
X18600001Y-23347342D01*
X18257143Y-24547342D02*
X18257143Y-23347342D01*
X19800001Y-23347342D02*
X20600001Y-24547342D01*
X20600001Y-23347342D02*
X19800001Y-24547342D01*
X20942858Y-23347342D02*
X21685715Y-23347342D01*
X21685715Y-23347342D02*
X21285715Y-23804485D01*
X21285715Y-23804485D02*
X21457144Y-23804485D01*
X21457144Y-23804485D02*
X21571430Y-23861628D01*
X21571430Y-23861628D02*
X21628572Y-23918771D01*
X21628572Y-23918771D02*
X21685715Y-24033057D01*
X21685715Y-24033057D02*
X21685715Y-24318771D01*
X21685715Y-24318771D02*
X21628572Y-24433057D01*
X21628572Y-24433057D02*
X21571430Y-24490200D01*
X21571430Y-24490200D02*
X21457144Y-24547342D01*
X21457144Y-24547342D02*
X21114287Y-24547342D01*
X21114287Y-24547342D02*
X21000001Y-24490200D01*
X21000001Y-24490200D02*
X20942858Y-24433057D01*
X22200001Y-24090200D02*
X23114287Y-24090200D01*
X23514286Y-23347342D02*
X23914286Y-24547342D01*
X23914286Y-24547342D02*
X24314286Y-23347342D01*
X24657143Y-23461628D02*
X24714286Y-23404485D01*
X24714286Y-23404485D02*
X24828572Y-23347342D01*
X24828572Y-23347342D02*
X25114286Y-23347342D01*
X25114286Y-23347342D02*
X25228572Y-23404485D01*
X25228572Y-23404485D02*
X25285714Y-23461628D01*
X25285714Y-23461628D02*
X25342857Y-23575914D01*
X25342857Y-23575914D02*
X25342857Y-23690200D01*
X25342857Y-23690200D02*
X25285714Y-23861628D01*
X25285714Y-23861628D02*
X24600000Y-24547342D01*
X24600000Y-24547342D02*
X25342857Y-24547342D01*
X26771429Y-24090200D02*
X27685715Y-24090200D01*
X29057143Y-23347342D02*
X29857143Y-23347342D01*
X29857143Y-23347342D02*
X29342857Y-24547342D01*
X30200000Y-23347342D02*
X31000000Y-23347342D01*
X31000000Y-23347342D02*
X30485714Y-24547342D01*
X31457143Y-24090200D02*
X32371429Y-24090200D01*
X32942857Y-24547342D02*
X32942857Y-23347342D01*
X33057143Y-24090200D02*
X33400000Y-24547342D01*
X33400000Y-23747342D02*
X32942857Y-24204485D01*
X34371429Y-24490200D02*
X34257143Y-24547342D01*
X34257143Y-24547342D02*
X34028572Y-24547342D01*
X34028572Y-24547342D02*
X33914286Y-24490200D01*
X33914286Y-24490200D02*
X33857143Y-24375914D01*
X33857143Y-24375914D02*
X33857143Y-23918771D01*
X33857143Y-23918771D02*
X33914286Y-23804485D01*
X33914286Y-23804485D02*
X34028572Y-23747342D01*
X34028572Y-23747342D02*
X34257143Y-23747342D01*
X34257143Y-23747342D02*
X34371429Y-23804485D01*
X34371429Y-23804485D02*
X34428572Y-23918771D01*
X34428572Y-23918771D02*
X34428572Y-24033057D01*
X34428572Y-24033057D02*
X33857143Y-24147342D01*
X34828571Y-23747342D02*
X35114285Y-24547342D01*
X35400000Y-23747342D02*
X35114285Y-24547342D01*
X35114285Y-24547342D02*
X35000000Y-24833057D01*
X35000000Y-24833057D02*
X34942857Y-24890200D01*
X34942857Y-24890200D02*
X34828571Y-24947342D01*
X36771429Y-23747342D02*
X36771429Y-24547342D01*
X36771429Y-23861628D02*
X36828572Y-23804485D01*
X36828572Y-23804485D02*
X36942857Y-23747342D01*
X36942857Y-23747342D02*
X37114286Y-23747342D01*
X37114286Y-23747342D02*
X37228572Y-23804485D01*
X37228572Y-23804485D02*
X37285715Y-23918771D01*
X37285715Y-23918771D02*
X37285715Y-24547342D01*
X38028571Y-24547342D02*
X37914286Y-24490200D01*
X37914286Y-24490200D02*
X37857143Y-24433057D01*
X37857143Y-24433057D02*
X37800000Y-24318771D01*
X37800000Y-24318771D02*
X37800000Y-23975914D01*
X37800000Y-23975914D02*
X37857143Y-23861628D01*
X37857143Y-23861628D02*
X37914286Y-23804485D01*
X37914286Y-23804485D02*
X38028571Y-23747342D01*
X38028571Y-23747342D02*
X38200000Y-23747342D01*
X38200000Y-23747342D02*
X38314286Y-23804485D01*
X38314286Y-23804485D02*
X38371429Y-23861628D01*
X38371429Y-23861628D02*
X38428571Y-23975914D01*
X38428571Y-23975914D02*
X38428571Y-24318771D01*
X38428571Y-24318771D02*
X38371429Y-24433057D01*
X38371429Y-24433057D02*
X38314286Y-24490200D01*
X38314286Y-24490200D02*
X38200000Y-24547342D01*
X38200000Y-24547342D02*
X38028571Y-24547342D01*
X38942857Y-24090200D02*
X39857143Y-24090200D01*
X40371428Y-24490200D02*
X40485714Y-24547342D01*
X40485714Y-24547342D02*
X40714285Y-24547342D01*
X40714285Y-24547342D02*
X40828571Y-24490200D01*
X40828571Y-24490200D02*
X40885714Y-24375914D01*
X40885714Y-24375914D02*
X40885714Y-24318771D01*
X40885714Y-24318771D02*
X40828571Y-24204485D01*
X40828571Y-24204485D02*
X40714285Y-24147342D01*
X40714285Y-24147342D02*
X40542857Y-24147342D01*
X40542857Y-24147342D02*
X40428571Y-24090200D01*
X40428571Y-24090200D02*
X40371428Y-23975914D01*
X40371428Y-23975914D02*
X40371428Y-23918771D01*
X40371428Y-23918771D02*
X40428571Y-23804485D01*
X40428571Y-23804485D02*
X40542857Y-23747342D01*
X40542857Y-23747342D02*
X40714285Y-23747342D01*
X40714285Y-23747342D02*
X40828571Y-23804485D01*
X41228571Y-23747342D02*
X41685714Y-23747342D01*
X41400000Y-23347342D02*
X41400000Y-24375914D01*
X41400000Y-24375914D02*
X41457143Y-24490200D01*
X41457143Y-24490200D02*
X41571428Y-24547342D01*
X41571428Y-24547342D02*
X41685714Y-24547342D01*
X42600000Y-24547342D02*
X42600000Y-23918771D01*
X42600000Y-23918771D02*
X42542857Y-23804485D01*
X42542857Y-23804485D02*
X42428571Y-23747342D01*
X42428571Y-23747342D02*
X42200000Y-23747342D01*
X42200000Y-23747342D02*
X42085714Y-23804485D01*
X42600000Y-24490200D02*
X42485714Y-24547342D01*
X42485714Y-24547342D02*
X42200000Y-24547342D01*
X42200000Y-24547342D02*
X42085714Y-24490200D01*
X42085714Y-24490200D02*
X42028571Y-24375914D01*
X42028571Y-24375914D02*
X42028571Y-24261628D01*
X42028571Y-24261628D02*
X42085714Y-24147342D01*
X42085714Y-24147342D02*
X42200000Y-24090200D01*
X42200000Y-24090200D02*
X42485714Y-24090200D01*
X42485714Y-24090200D02*
X42600000Y-24033057D01*
X43171428Y-24547342D02*
X43171428Y-23347342D01*
X43171428Y-23804485D02*
X43285714Y-23747342D01*
X43285714Y-23747342D02*
X43514285Y-23747342D01*
X43514285Y-23747342D02*
X43628571Y-23804485D01*
X43628571Y-23804485D02*
X43685714Y-23861628D01*
X43685714Y-23861628D02*
X43742856Y-23975914D01*
X43742856Y-23975914D02*
X43742856Y-24318771D01*
X43742856Y-24318771D02*
X43685714Y-24433057D01*
X43685714Y-24433057D02*
X43628571Y-24490200D01*
X43628571Y-24490200D02*
X43514285Y-24547342D01*
X43514285Y-24547342D02*
X43285714Y-24547342D01*
X43285714Y-24547342D02*
X43171428Y-24490200D01*
X44257142Y-24547342D02*
X44257142Y-23747342D01*
X44257142Y-23347342D02*
X44199999Y-23404485D01*
X44199999Y-23404485D02*
X44257142Y-23461628D01*
X44257142Y-23461628D02*
X44314285Y-23404485D01*
X44314285Y-23404485D02*
X44257142Y-23347342D01*
X44257142Y-23347342D02*
X44257142Y-23461628D01*
X44999999Y-24547342D02*
X44885714Y-24490200D01*
X44885714Y-24490200D02*
X44828571Y-24375914D01*
X44828571Y-24375914D02*
X44828571Y-23347342D01*
X45457142Y-24547342D02*
X45457142Y-23747342D01*
X45457142Y-23347342D02*
X45399999Y-23404485D01*
X45399999Y-23404485D02*
X45457142Y-23461628D01*
X45457142Y-23461628D02*
X45514285Y-23404485D01*
X45514285Y-23404485D02*
X45457142Y-23347342D01*
X45457142Y-23347342D02*
X45457142Y-23461628D01*
X45914285Y-23747342D02*
X46542857Y-23747342D01*
X46542857Y-23747342D02*
X45914285Y-24547342D01*
X45914285Y-24547342D02*
X46542857Y-24547342D01*
X47457143Y-24490200D02*
X47342857Y-24547342D01*
X47342857Y-24547342D02*
X47114286Y-24547342D01*
X47114286Y-24547342D02*
X47000000Y-24490200D01*
X47000000Y-24490200D02*
X46942857Y-24375914D01*
X46942857Y-24375914D02*
X46942857Y-23918771D01*
X46942857Y-23918771D02*
X47000000Y-23804485D01*
X47000000Y-23804485D02*
X47114286Y-23747342D01*
X47114286Y-23747342D02*
X47342857Y-23747342D01*
X47342857Y-23747342D02*
X47457143Y-23804485D01*
X47457143Y-23804485D02*
X47514286Y-23918771D01*
X47514286Y-23918771D02*
X47514286Y-24033057D01*
X47514286Y-24033057D02*
X46942857Y-24147342D01*
X48028571Y-24547342D02*
X48028571Y-23747342D01*
X48028571Y-23975914D02*
X48085714Y-23861628D01*
X48085714Y-23861628D02*
X48142857Y-23804485D01*
X48142857Y-23804485D02*
X48257142Y-23747342D01*
X48257142Y-23747342D02*
X48371428Y-23747342D01*
X49628571Y-24490200D02*
X49742857Y-24547342D01*
X49742857Y-24547342D02*
X49971428Y-24547342D01*
X49971428Y-24547342D02*
X50085714Y-24490200D01*
X50085714Y-24490200D02*
X50142857Y-24375914D01*
X50142857Y-24375914D02*
X50142857Y-24318771D01*
X50142857Y-24318771D02*
X50085714Y-24204485D01*
X50085714Y-24204485D02*
X49971428Y-24147342D01*
X49971428Y-24147342D02*
X49800000Y-24147342D01*
X49800000Y-24147342D02*
X49685714Y-24090200D01*
X49685714Y-24090200D02*
X49628571Y-23975914D01*
X49628571Y-23975914D02*
X49628571Y-23918771D01*
X49628571Y-23918771D02*
X49685714Y-23804485D01*
X49685714Y-23804485D02*
X49800000Y-23747342D01*
X49800000Y-23747342D02*
X49971428Y-23747342D01*
X49971428Y-23747342D02*
X50085714Y-23804485D01*
X50657143Y-23747342D02*
X50657143Y-24947342D01*
X50657143Y-23804485D02*
X50771429Y-23747342D01*
X50771429Y-23747342D02*
X51000000Y-23747342D01*
X51000000Y-23747342D02*
X51114286Y-23804485D01*
X51114286Y-23804485D02*
X51171429Y-23861628D01*
X51171429Y-23861628D02*
X51228571Y-23975914D01*
X51228571Y-23975914D02*
X51228571Y-24318771D01*
X51228571Y-24318771D02*
X51171429Y-24433057D01*
X51171429Y-24433057D02*
X51114286Y-24490200D01*
X51114286Y-24490200D02*
X51000000Y-24547342D01*
X51000000Y-24547342D02*
X50771429Y-24547342D01*
X50771429Y-24547342D02*
X50657143Y-24490200D01*
X51914285Y-24547342D02*
X51800000Y-24490200D01*
X51800000Y-24490200D02*
X51742857Y-24375914D01*
X51742857Y-24375914D02*
X51742857Y-23347342D01*
X52371428Y-24547342D02*
X52371428Y-23747342D01*
X52371428Y-23347342D02*
X52314285Y-23404485D01*
X52314285Y-23404485D02*
X52371428Y-23461628D01*
X52371428Y-23461628D02*
X52428571Y-23404485D01*
X52428571Y-23404485D02*
X52371428Y-23347342D01*
X52371428Y-23347342D02*
X52371428Y-23461628D01*
X52771428Y-23747342D02*
X53228571Y-23747342D01*
X52942857Y-23347342D02*
X52942857Y-24375914D01*
X52942857Y-24375914D02*
X53000000Y-24490200D01*
X53000000Y-24490200D02*
X53114285Y-24547342D01*
X53114285Y-24547342D02*
X53228571Y-24547342D01*
X54714285Y-24547342D02*
X54600000Y-24490200D01*
X54600000Y-24490200D02*
X54542857Y-24375914D01*
X54542857Y-24375914D02*
X54542857Y-23347342D01*
X55685714Y-24547342D02*
X55685714Y-23918771D01*
X55685714Y-23918771D02*
X55628571Y-23804485D01*
X55628571Y-23804485D02*
X55514285Y-23747342D01*
X55514285Y-23747342D02*
X55285714Y-23747342D01*
X55285714Y-23747342D02*
X55171428Y-23804485D01*
X55685714Y-24490200D02*
X55571428Y-24547342D01*
X55571428Y-24547342D02*
X55285714Y-24547342D01*
X55285714Y-24547342D02*
X55171428Y-24490200D01*
X55171428Y-24490200D02*
X55114285Y-24375914D01*
X55114285Y-24375914D02*
X55114285Y-24261628D01*
X55114285Y-24261628D02*
X55171428Y-24147342D01*
X55171428Y-24147342D02*
X55285714Y-24090200D01*
X55285714Y-24090200D02*
X55571428Y-24090200D01*
X55571428Y-24090200D02*
X55685714Y-24033057D01*
X56142856Y-23747342D02*
X56428570Y-24547342D01*
X56714285Y-23747342D02*
X56428570Y-24547342D01*
X56428570Y-24547342D02*
X56314285Y-24833057D01*
X56314285Y-24833057D02*
X56257142Y-24890200D01*
X56257142Y-24890200D02*
X56142856Y-24947342D01*
X57342856Y-24547342D02*
X57228571Y-24490200D01*
X57228571Y-24490200D02*
X57171428Y-24433057D01*
X57171428Y-24433057D02*
X57114285Y-24318771D01*
X57114285Y-24318771D02*
X57114285Y-23975914D01*
X57114285Y-23975914D02*
X57171428Y-23861628D01*
X57171428Y-23861628D02*
X57228571Y-23804485D01*
X57228571Y-23804485D02*
X57342856Y-23747342D01*
X57342856Y-23747342D02*
X57514285Y-23747342D01*
X57514285Y-23747342D02*
X57628571Y-23804485D01*
X57628571Y-23804485D02*
X57685714Y-23861628D01*
X57685714Y-23861628D02*
X57742856Y-23975914D01*
X57742856Y-23975914D02*
X57742856Y-24318771D01*
X57742856Y-24318771D02*
X57685714Y-24433057D01*
X57685714Y-24433057D02*
X57628571Y-24490200D01*
X57628571Y-24490200D02*
X57514285Y-24547342D01*
X57514285Y-24547342D02*
X57342856Y-24547342D01*
X58771428Y-23747342D02*
X58771428Y-24547342D01*
X58257142Y-23747342D02*
X58257142Y-24375914D01*
X58257142Y-24375914D02*
X58314285Y-24490200D01*
X58314285Y-24490200D02*
X58428570Y-24547342D01*
X58428570Y-24547342D02*
X58599999Y-24547342D01*
X58599999Y-24547342D02*
X58714285Y-24490200D01*
X58714285Y-24490200D02*
X58771428Y-24433057D01*
X59171427Y-23747342D02*
X59628570Y-23747342D01*
X59342856Y-23347342D02*
X59342856Y-24375914D01*
X59342856Y-24375914D02*
X59399999Y-24490200D01*
X59399999Y-24490200D02*
X59514284Y-24547342D01*
X59514284Y-24547342D02*
X59628570Y-24547342D01*
D11*
X137244880Y-48309271D02*
X137244880Y-49337366D01*
X137244880Y-49337366D02*
X137305357Y-49458318D01*
X137305357Y-49458318D02*
X137365833Y-49518795D01*
X137365833Y-49518795D02*
X137486785Y-49579271D01*
X137486785Y-49579271D02*
X137728690Y-49579271D01*
X137728690Y-49579271D02*
X137849642Y-49518795D01*
X137849642Y-49518795D02*
X137910119Y-49458318D01*
X137910119Y-49458318D02*
X137970595Y-49337366D01*
X137970595Y-49337366D02*
X137970595Y-48309271D01*
X139240595Y-49579271D02*
X138514880Y-49579271D01*
X138877737Y-49579271D02*
X138877737Y-48309271D01*
X138877737Y-48309271D02*
X138756785Y-48490699D01*
X138756785Y-48490699D02*
X138635833Y-48611652D01*
X138635833Y-48611652D02*
X138514880Y-48672128D01*
D12*
X123690119Y-42574895D02*
X123423452Y-42193942D01*
X123232976Y-42574895D02*
X123232976Y-41774895D01*
X123232976Y-41774895D02*
X123537738Y-41774895D01*
X123537738Y-41774895D02*
X123613928Y-41812990D01*
X123613928Y-41812990D02*
X123652023Y-41851085D01*
X123652023Y-41851085D02*
X123690119Y-41927276D01*
X123690119Y-41927276D02*
X123690119Y-42041561D01*
X123690119Y-42041561D02*
X123652023Y-42117752D01*
X123652023Y-42117752D02*
X123613928Y-42155847D01*
X123613928Y-42155847D02*
X123537738Y-42193942D01*
X123537738Y-42193942D02*
X123232976Y-42193942D01*
X123994880Y-42346323D02*
X124375833Y-42346323D01*
X123918690Y-42574895D02*
X124185357Y-41774895D01*
X124185357Y-41774895D02*
X124452023Y-42574895D01*
X124642499Y-41774895D02*
X124832975Y-42574895D01*
X124832975Y-42574895D02*
X124985356Y-42003466D01*
X124985356Y-42003466D02*
X125137737Y-42574895D01*
X125137737Y-42574895D02*
X125328214Y-41774895D01*
X123652024Y-56154895D02*
X123652024Y-55354895D01*
X123652024Y-55354895D02*
X123842500Y-55354895D01*
X123842500Y-55354895D02*
X123956786Y-55392990D01*
X123956786Y-55392990D02*
X124032976Y-55469180D01*
X124032976Y-55469180D02*
X124071071Y-55545371D01*
X124071071Y-55545371D02*
X124109167Y-55697752D01*
X124109167Y-55697752D02*
X124109167Y-55812038D01*
X124109167Y-55812038D02*
X124071071Y-55964419D01*
X124071071Y-55964419D02*
X124032976Y-56040609D01*
X124032976Y-56040609D02*
X123956786Y-56116800D01*
X123956786Y-56116800D02*
X123842500Y-56154895D01*
X123842500Y-56154895D02*
X123652024Y-56154895D01*
X124871071Y-56154895D02*
X124413928Y-56154895D01*
X124642500Y-56154895D02*
X124642500Y-55354895D01*
X124642500Y-55354895D02*
X124566309Y-55469180D01*
X124566309Y-55469180D02*
X124490119Y-55545371D01*
X124490119Y-55545371D02*
X124413928Y-55583466D01*
X126992023Y-41812990D02*
X126915833Y-41774895D01*
X126915833Y-41774895D02*
X126801547Y-41774895D01*
X126801547Y-41774895D02*
X126687261Y-41812990D01*
X126687261Y-41812990D02*
X126611071Y-41889180D01*
X126611071Y-41889180D02*
X126572976Y-41965371D01*
X126572976Y-41965371D02*
X126534880Y-42117752D01*
X126534880Y-42117752D02*
X126534880Y-42232038D01*
X126534880Y-42232038D02*
X126572976Y-42384419D01*
X126572976Y-42384419D02*
X126611071Y-42460609D01*
X126611071Y-42460609D02*
X126687261Y-42536800D01*
X126687261Y-42536800D02*
X126801547Y-42574895D01*
X126801547Y-42574895D02*
X126877738Y-42574895D01*
X126877738Y-42574895D02*
X126992023Y-42536800D01*
X126992023Y-42536800D02*
X127030119Y-42498704D01*
X127030119Y-42498704D02*
X127030119Y-42232038D01*
X127030119Y-42232038D02*
X126877738Y-42232038D01*
X126192024Y-56154895D02*
X126192024Y-55354895D01*
X126192024Y-55354895D02*
X126382500Y-55354895D01*
X126382500Y-55354895D02*
X126496786Y-55392990D01*
X126496786Y-55392990D02*
X126572976Y-55469180D01*
X126572976Y-55469180D02*
X126611071Y-55545371D01*
X126611071Y-55545371D02*
X126649167Y-55697752D01*
X126649167Y-55697752D02*
X126649167Y-55812038D01*
X126649167Y-55812038D02*
X126611071Y-55964419D01*
X126611071Y-55964419D02*
X126572976Y-56040609D01*
X126572976Y-56040609D02*
X126496786Y-56116800D01*
X126496786Y-56116800D02*
X126382500Y-56154895D01*
X126382500Y-56154895D02*
X126192024Y-56154895D01*
X127144405Y-55354895D02*
X127220595Y-55354895D01*
X127220595Y-55354895D02*
X127296786Y-55392990D01*
X127296786Y-55392990D02*
X127334881Y-55431085D01*
X127334881Y-55431085D02*
X127372976Y-55507276D01*
X127372976Y-55507276D02*
X127411071Y-55659657D01*
X127411071Y-55659657D02*
X127411071Y-55850133D01*
X127411071Y-55850133D02*
X127372976Y-56002514D01*
X127372976Y-56002514D02*
X127334881Y-56078704D01*
X127334881Y-56078704D02*
X127296786Y-56116800D01*
X127296786Y-56116800D02*
X127220595Y-56154895D01*
X127220595Y-56154895D02*
X127144405Y-56154895D01*
X127144405Y-56154895D02*
X127068214Y-56116800D01*
X127068214Y-56116800D02*
X127030119Y-56078704D01*
X127030119Y-56078704D02*
X126992024Y-56002514D01*
X126992024Y-56002514D02*
X126953928Y-55850133D01*
X126953928Y-55850133D02*
X126953928Y-55659657D01*
X126953928Y-55659657D02*
X126992024Y-55507276D01*
X126992024Y-55507276D02*
X127030119Y-55431085D01*
X127030119Y-55431085D02*
X127068214Y-55392990D01*
X127068214Y-55392990D02*
X127144405Y-55354895D01*
X128884404Y-42574895D02*
X128617737Y-42193942D01*
X128427261Y-42574895D02*
X128427261Y-41774895D01*
X128427261Y-41774895D02*
X128732023Y-41774895D01*
X128732023Y-41774895D02*
X128808213Y-41812990D01*
X128808213Y-41812990D02*
X128846308Y-41851085D01*
X128846308Y-41851085D02*
X128884404Y-41927276D01*
X128884404Y-41927276D02*
X128884404Y-42041561D01*
X128884404Y-42041561D02*
X128846308Y-42117752D01*
X128846308Y-42117752D02*
X128808213Y-42155847D01*
X128808213Y-42155847D02*
X128732023Y-42193942D01*
X128732023Y-42193942D02*
X128427261Y-42193942D01*
X129189165Y-42536800D02*
X129303451Y-42574895D01*
X129303451Y-42574895D02*
X129493927Y-42574895D01*
X129493927Y-42574895D02*
X129570118Y-42536800D01*
X129570118Y-42536800D02*
X129608213Y-42498704D01*
X129608213Y-42498704D02*
X129646308Y-42422514D01*
X129646308Y-42422514D02*
X129646308Y-42346323D01*
X129646308Y-42346323D02*
X129608213Y-42270133D01*
X129608213Y-42270133D02*
X129570118Y-42232038D01*
X129570118Y-42232038D02*
X129493927Y-42193942D01*
X129493927Y-42193942D02*
X129341546Y-42155847D01*
X129341546Y-42155847D02*
X129265356Y-42117752D01*
X129265356Y-42117752D02*
X129227261Y-42079657D01*
X129227261Y-42079657D02*
X129189165Y-42003466D01*
X129189165Y-42003466D02*
X129189165Y-41927276D01*
X129189165Y-41927276D02*
X129227261Y-41851085D01*
X129227261Y-41851085D02*
X129265356Y-41812990D01*
X129265356Y-41812990D02*
X129341546Y-41774895D01*
X129341546Y-41774895D02*
X129532023Y-41774895D01*
X129532023Y-41774895D02*
X129646308Y-41812990D01*
X129874880Y-41774895D02*
X130332023Y-41774895D01*
X130103451Y-42574895D02*
X130103451Y-41774895D01*
X129532022Y-55392990D02*
X129455832Y-55354895D01*
X129455832Y-55354895D02*
X129341546Y-55354895D01*
X129341546Y-55354895D02*
X129227260Y-55392990D01*
X129227260Y-55392990D02*
X129151070Y-55469180D01*
X129151070Y-55469180D02*
X129112975Y-55545371D01*
X129112975Y-55545371D02*
X129074879Y-55697752D01*
X129074879Y-55697752D02*
X129074879Y-55812038D01*
X129074879Y-55812038D02*
X129112975Y-55964419D01*
X129112975Y-55964419D02*
X129151070Y-56040609D01*
X129151070Y-56040609D02*
X129227260Y-56116800D01*
X129227260Y-56116800D02*
X129341546Y-56154895D01*
X129341546Y-56154895D02*
X129417737Y-56154895D01*
X129417737Y-56154895D02*
X129532022Y-56116800D01*
X129532022Y-56116800D02*
X129570118Y-56078704D01*
X129570118Y-56078704D02*
X129570118Y-55812038D01*
X129570118Y-55812038D02*
X129417737Y-55812038D01*
X130795833Y-41774895D02*
X131062500Y-42574895D01*
X131062500Y-42574895D02*
X131329166Y-41774895D01*
X132052976Y-42498704D02*
X132014880Y-42536800D01*
X132014880Y-42536800D02*
X131900595Y-42574895D01*
X131900595Y-42574895D02*
X131824404Y-42574895D01*
X131824404Y-42574895D02*
X131710118Y-42536800D01*
X131710118Y-42536800D02*
X131633928Y-42460609D01*
X131633928Y-42460609D02*
X131595833Y-42384419D01*
X131595833Y-42384419D02*
X131557737Y-42232038D01*
X131557737Y-42232038D02*
X131557737Y-42117752D01*
X131557737Y-42117752D02*
X131595833Y-41965371D01*
X131595833Y-41965371D02*
X131633928Y-41889180D01*
X131633928Y-41889180D02*
X131710118Y-41812990D01*
X131710118Y-41812990D02*
X131824404Y-41774895D01*
X131824404Y-41774895D02*
X131900595Y-41774895D01*
X131900595Y-41774895D02*
X132014880Y-41812990D01*
X132014880Y-41812990D02*
X132052976Y-41851085D01*
X132852976Y-42498704D02*
X132814880Y-42536800D01*
X132814880Y-42536800D02*
X132700595Y-42574895D01*
X132700595Y-42574895D02*
X132624404Y-42574895D01*
X132624404Y-42574895D02*
X132510118Y-42536800D01*
X132510118Y-42536800D02*
X132433928Y-42460609D01*
X132433928Y-42460609D02*
X132395833Y-42384419D01*
X132395833Y-42384419D02*
X132357737Y-42232038D01*
X132357737Y-42232038D02*
X132357737Y-42117752D01*
X132357737Y-42117752D02*
X132395833Y-41965371D01*
X132395833Y-41965371D02*
X132433928Y-41889180D01*
X132433928Y-41889180D02*
X132510118Y-41812990D01*
X132510118Y-41812990D02*
X132624404Y-41774895D01*
X132624404Y-41774895D02*
X132700595Y-41774895D01*
X132700595Y-41774895D02*
X132814880Y-41812990D01*
X132814880Y-41812990D02*
X132852976Y-41851085D01*
X132072023Y-55392990D02*
X131995833Y-55354895D01*
X131995833Y-55354895D02*
X131881547Y-55354895D01*
X131881547Y-55354895D02*
X131767261Y-55392990D01*
X131767261Y-55392990D02*
X131691071Y-55469180D01*
X131691071Y-55469180D02*
X131652976Y-55545371D01*
X131652976Y-55545371D02*
X131614880Y-55697752D01*
X131614880Y-55697752D02*
X131614880Y-55812038D01*
X131614880Y-55812038D02*
X131652976Y-55964419D01*
X131652976Y-55964419D02*
X131691071Y-56040609D01*
X131691071Y-56040609D02*
X131767261Y-56116800D01*
X131767261Y-56116800D02*
X131881547Y-56154895D01*
X131881547Y-56154895D02*
X131957738Y-56154895D01*
X131957738Y-56154895D02*
X132072023Y-56116800D01*
X132072023Y-56116800D02*
X132110119Y-56078704D01*
X132110119Y-56078704D02*
X132110119Y-55812038D01*
X132110119Y-55812038D02*
X131957738Y-55812038D01*
X133431071Y-42574895D02*
X133431071Y-41774895D01*
X133431071Y-41774895D02*
X133621547Y-41774895D01*
X133621547Y-41774895D02*
X133735833Y-41812990D01*
X133735833Y-41812990D02*
X133812023Y-41889180D01*
X133812023Y-41889180D02*
X133850118Y-41965371D01*
X133850118Y-41965371D02*
X133888214Y-42117752D01*
X133888214Y-42117752D02*
X133888214Y-42232038D01*
X133888214Y-42232038D02*
X133850118Y-42384419D01*
X133850118Y-42384419D02*
X133812023Y-42460609D01*
X133812023Y-42460609D02*
X133735833Y-42536800D01*
X133735833Y-42536800D02*
X133621547Y-42574895D01*
X133621547Y-42574895D02*
X133431071Y-42574895D01*
X134192975Y-41851085D02*
X134231071Y-41812990D01*
X134231071Y-41812990D02*
X134307261Y-41774895D01*
X134307261Y-41774895D02*
X134497737Y-41774895D01*
X134497737Y-41774895D02*
X134573928Y-41812990D01*
X134573928Y-41812990D02*
X134612023Y-41851085D01*
X134612023Y-41851085D02*
X134650118Y-41927276D01*
X134650118Y-41927276D02*
X134650118Y-42003466D01*
X134650118Y-42003466D02*
X134612023Y-42117752D01*
X134612023Y-42117752D02*
X134154880Y-42574895D01*
X134154880Y-42574895D02*
X134650118Y-42574895D01*
X135412023Y-42574895D02*
X134954880Y-42574895D01*
X135183452Y-42574895D02*
X135183452Y-41774895D01*
X135183452Y-41774895D02*
X135107261Y-41889180D01*
X135107261Y-41889180D02*
X135031071Y-41965371D01*
X135031071Y-41965371D02*
X134954880Y-42003466D01*
X133812024Y-56154895D02*
X133812024Y-55354895D01*
X133812024Y-55354895D02*
X134002500Y-55354895D01*
X134002500Y-55354895D02*
X134116786Y-55392990D01*
X134116786Y-55392990D02*
X134192976Y-55469180D01*
X134192976Y-55469180D02*
X134231071Y-55545371D01*
X134231071Y-55545371D02*
X134269167Y-55697752D01*
X134269167Y-55697752D02*
X134269167Y-55812038D01*
X134269167Y-55812038D02*
X134231071Y-55964419D01*
X134231071Y-55964419D02*
X134192976Y-56040609D01*
X134192976Y-56040609D02*
X134116786Y-56116800D01*
X134116786Y-56116800D02*
X134002500Y-56154895D01*
X134002500Y-56154895D02*
X133812024Y-56154895D01*
X134573928Y-55431085D02*
X134612024Y-55392990D01*
X134612024Y-55392990D02*
X134688214Y-55354895D01*
X134688214Y-55354895D02*
X134878690Y-55354895D01*
X134878690Y-55354895D02*
X134954881Y-55392990D01*
X134954881Y-55392990D02*
X134992976Y-55431085D01*
X134992976Y-55431085D02*
X135031071Y-55507276D01*
X135031071Y-55507276D02*
X135031071Y-55583466D01*
X135031071Y-55583466D02*
X134992976Y-55697752D01*
X134992976Y-55697752D02*
X134535833Y-56154895D01*
X134535833Y-56154895D02*
X135031071Y-56154895D01*
X135971071Y-42574895D02*
X135971071Y-41774895D01*
X135971071Y-41774895D02*
X136161547Y-41774895D01*
X136161547Y-41774895D02*
X136275833Y-41812990D01*
X136275833Y-41812990D02*
X136352023Y-41889180D01*
X136352023Y-41889180D02*
X136390118Y-41965371D01*
X136390118Y-41965371D02*
X136428214Y-42117752D01*
X136428214Y-42117752D02*
X136428214Y-42232038D01*
X136428214Y-42232038D02*
X136390118Y-42384419D01*
X136390118Y-42384419D02*
X136352023Y-42460609D01*
X136352023Y-42460609D02*
X136275833Y-42536800D01*
X136275833Y-42536800D02*
X136161547Y-42574895D01*
X136161547Y-42574895D02*
X135971071Y-42574895D01*
X136732975Y-41851085D02*
X136771071Y-41812990D01*
X136771071Y-41812990D02*
X136847261Y-41774895D01*
X136847261Y-41774895D02*
X137037737Y-41774895D01*
X137037737Y-41774895D02*
X137113928Y-41812990D01*
X137113928Y-41812990D02*
X137152023Y-41851085D01*
X137152023Y-41851085D02*
X137190118Y-41927276D01*
X137190118Y-41927276D02*
X137190118Y-42003466D01*
X137190118Y-42003466D02*
X137152023Y-42117752D01*
X137152023Y-42117752D02*
X136694880Y-42574895D01*
X136694880Y-42574895D02*
X137190118Y-42574895D01*
X137685357Y-41774895D02*
X137761547Y-41774895D01*
X137761547Y-41774895D02*
X137837738Y-41812990D01*
X137837738Y-41812990D02*
X137875833Y-41851085D01*
X137875833Y-41851085D02*
X137913928Y-41927276D01*
X137913928Y-41927276D02*
X137952023Y-42079657D01*
X137952023Y-42079657D02*
X137952023Y-42270133D01*
X137952023Y-42270133D02*
X137913928Y-42422514D01*
X137913928Y-42422514D02*
X137875833Y-42498704D01*
X137875833Y-42498704D02*
X137837738Y-42536800D01*
X137837738Y-42536800D02*
X137761547Y-42574895D01*
X137761547Y-42574895D02*
X137685357Y-42574895D01*
X137685357Y-42574895D02*
X137609166Y-42536800D01*
X137609166Y-42536800D02*
X137571071Y-42498704D01*
X137571071Y-42498704D02*
X137532976Y-42422514D01*
X137532976Y-42422514D02*
X137494880Y-42270133D01*
X137494880Y-42270133D02*
X137494880Y-42079657D01*
X137494880Y-42079657D02*
X137532976Y-41927276D01*
X137532976Y-41927276D02*
X137571071Y-41851085D01*
X137571071Y-41851085D02*
X137609166Y-41812990D01*
X137609166Y-41812990D02*
X137685357Y-41774895D01*
X136352024Y-56154895D02*
X136352024Y-55354895D01*
X136352024Y-55354895D02*
X136542500Y-55354895D01*
X136542500Y-55354895D02*
X136656786Y-55392990D01*
X136656786Y-55392990D02*
X136732976Y-55469180D01*
X136732976Y-55469180D02*
X136771071Y-55545371D01*
X136771071Y-55545371D02*
X136809167Y-55697752D01*
X136809167Y-55697752D02*
X136809167Y-55812038D01*
X136809167Y-55812038D02*
X136771071Y-55964419D01*
X136771071Y-55964419D02*
X136732976Y-56040609D01*
X136732976Y-56040609D02*
X136656786Y-56116800D01*
X136656786Y-56116800D02*
X136542500Y-56154895D01*
X136542500Y-56154895D02*
X136352024Y-56154895D01*
X137075833Y-55354895D02*
X137571071Y-55354895D01*
X137571071Y-55354895D02*
X137304405Y-55659657D01*
X137304405Y-55659657D02*
X137418690Y-55659657D01*
X137418690Y-55659657D02*
X137494881Y-55697752D01*
X137494881Y-55697752D02*
X137532976Y-55735847D01*
X137532976Y-55735847D02*
X137571071Y-55812038D01*
X137571071Y-55812038D02*
X137571071Y-56002514D01*
X137571071Y-56002514D02*
X137532976Y-56078704D01*
X137532976Y-56078704D02*
X137494881Y-56116800D01*
X137494881Y-56116800D02*
X137418690Y-56154895D01*
X137418690Y-56154895D02*
X137190119Y-56154895D01*
X137190119Y-56154895D02*
X137113928Y-56116800D01*
X137113928Y-56116800D02*
X137075833Y-56078704D01*
X138511071Y-42574895D02*
X138511071Y-41774895D01*
X138511071Y-41774895D02*
X138701547Y-41774895D01*
X138701547Y-41774895D02*
X138815833Y-41812990D01*
X138815833Y-41812990D02*
X138892023Y-41889180D01*
X138892023Y-41889180D02*
X138930118Y-41965371D01*
X138930118Y-41965371D02*
X138968214Y-42117752D01*
X138968214Y-42117752D02*
X138968214Y-42232038D01*
X138968214Y-42232038D02*
X138930118Y-42384419D01*
X138930118Y-42384419D02*
X138892023Y-42460609D01*
X138892023Y-42460609D02*
X138815833Y-42536800D01*
X138815833Y-42536800D02*
X138701547Y-42574895D01*
X138701547Y-42574895D02*
X138511071Y-42574895D01*
X139730118Y-42574895D02*
X139272975Y-42574895D01*
X139501547Y-42574895D02*
X139501547Y-41774895D01*
X139501547Y-41774895D02*
X139425356Y-41889180D01*
X139425356Y-41889180D02*
X139349166Y-41965371D01*
X139349166Y-41965371D02*
X139272975Y-42003466D01*
X140111071Y-42574895D02*
X140263452Y-42574895D01*
X140263452Y-42574895D02*
X140339642Y-42536800D01*
X140339642Y-42536800D02*
X140377738Y-42498704D01*
X140377738Y-42498704D02*
X140453928Y-42384419D01*
X140453928Y-42384419D02*
X140492023Y-42232038D01*
X140492023Y-42232038D02*
X140492023Y-41927276D01*
X140492023Y-41927276D02*
X140453928Y-41851085D01*
X140453928Y-41851085D02*
X140415833Y-41812990D01*
X140415833Y-41812990D02*
X140339642Y-41774895D01*
X140339642Y-41774895D02*
X140187261Y-41774895D01*
X140187261Y-41774895D02*
X140111071Y-41812990D01*
X140111071Y-41812990D02*
X140072976Y-41851085D01*
X140072976Y-41851085D02*
X140034880Y-41927276D01*
X140034880Y-41927276D02*
X140034880Y-42117752D01*
X140034880Y-42117752D02*
X140072976Y-42193942D01*
X140072976Y-42193942D02*
X140111071Y-42232038D01*
X140111071Y-42232038D02*
X140187261Y-42270133D01*
X140187261Y-42270133D02*
X140339642Y-42270133D01*
X140339642Y-42270133D02*
X140415833Y-42232038D01*
X140415833Y-42232038D02*
X140453928Y-42193942D01*
X140453928Y-42193942D02*
X140492023Y-42117752D01*
X138892024Y-56154895D02*
X138892024Y-55354895D01*
X138892024Y-55354895D02*
X139082500Y-55354895D01*
X139082500Y-55354895D02*
X139196786Y-55392990D01*
X139196786Y-55392990D02*
X139272976Y-55469180D01*
X139272976Y-55469180D02*
X139311071Y-55545371D01*
X139311071Y-55545371D02*
X139349167Y-55697752D01*
X139349167Y-55697752D02*
X139349167Y-55812038D01*
X139349167Y-55812038D02*
X139311071Y-55964419D01*
X139311071Y-55964419D02*
X139272976Y-56040609D01*
X139272976Y-56040609D02*
X139196786Y-56116800D01*
X139196786Y-56116800D02*
X139082500Y-56154895D01*
X139082500Y-56154895D02*
X138892024Y-56154895D01*
X140034881Y-55621561D02*
X140034881Y-56154895D01*
X139844405Y-55316800D02*
X139653928Y-55888228D01*
X139653928Y-55888228D02*
X140149167Y-55888228D01*
X141051071Y-42574895D02*
X141051071Y-41774895D01*
X141051071Y-41774895D02*
X141241547Y-41774895D01*
X141241547Y-41774895D02*
X141355833Y-41812990D01*
X141355833Y-41812990D02*
X141432023Y-41889180D01*
X141432023Y-41889180D02*
X141470118Y-41965371D01*
X141470118Y-41965371D02*
X141508214Y-42117752D01*
X141508214Y-42117752D02*
X141508214Y-42232038D01*
X141508214Y-42232038D02*
X141470118Y-42384419D01*
X141470118Y-42384419D02*
X141432023Y-42460609D01*
X141432023Y-42460609D02*
X141355833Y-42536800D01*
X141355833Y-42536800D02*
X141241547Y-42574895D01*
X141241547Y-42574895D02*
X141051071Y-42574895D01*
X142270118Y-42574895D02*
X141812975Y-42574895D01*
X142041547Y-42574895D02*
X142041547Y-41774895D01*
X142041547Y-41774895D02*
X141965356Y-41889180D01*
X141965356Y-41889180D02*
X141889166Y-41965371D01*
X141889166Y-41965371D02*
X141812975Y-42003466D01*
X142727261Y-42117752D02*
X142651071Y-42079657D01*
X142651071Y-42079657D02*
X142612976Y-42041561D01*
X142612976Y-42041561D02*
X142574880Y-41965371D01*
X142574880Y-41965371D02*
X142574880Y-41927276D01*
X142574880Y-41927276D02*
X142612976Y-41851085D01*
X142612976Y-41851085D02*
X142651071Y-41812990D01*
X142651071Y-41812990D02*
X142727261Y-41774895D01*
X142727261Y-41774895D02*
X142879642Y-41774895D01*
X142879642Y-41774895D02*
X142955833Y-41812990D01*
X142955833Y-41812990D02*
X142993928Y-41851085D01*
X142993928Y-41851085D02*
X143032023Y-41927276D01*
X143032023Y-41927276D02*
X143032023Y-41965371D01*
X143032023Y-41965371D02*
X142993928Y-42041561D01*
X142993928Y-42041561D02*
X142955833Y-42079657D01*
X142955833Y-42079657D02*
X142879642Y-42117752D01*
X142879642Y-42117752D02*
X142727261Y-42117752D01*
X142727261Y-42117752D02*
X142651071Y-42155847D01*
X142651071Y-42155847D02*
X142612976Y-42193942D01*
X142612976Y-42193942D02*
X142574880Y-42270133D01*
X142574880Y-42270133D02*
X142574880Y-42422514D01*
X142574880Y-42422514D02*
X142612976Y-42498704D01*
X142612976Y-42498704D02*
X142651071Y-42536800D01*
X142651071Y-42536800D02*
X142727261Y-42574895D01*
X142727261Y-42574895D02*
X142879642Y-42574895D01*
X142879642Y-42574895D02*
X142955833Y-42536800D01*
X142955833Y-42536800D02*
X142993928Y-42498704D01*
X142993928Y-42498704D02*
X143032023Y-42422514D01*
X143032023Y-42422514D02*
X143032023Y-42270133D01*
X143032023Y-42270133D02*
X142993928Y-42193942D01*
X142993928Y-42193942D02*
X142955833Y-42155847D01*
X142955833Y-42155847D02*
X142879642Y-42117752D01*
X141432024Y-56154895D02*
X141432024Y-55354895D01*
X141432024Y-55354895D02*
X141622500Y-55354895D01*
X141622500Y-55354895D02*
X141736786Y-55392990D01*
X141736786Y-55392990D02*
X141812976Y-55469180D01*
X141812976Y-55469180D02*
X141851071Y-55545371D01*
X141851071Y-55545371D02*
X141889167Y-55697752D01*
X141889167Y-55697752D02*
X141889167Y-55812038D01*
X141889167Y-55812038D02*
X141851071Y-55964419D01*
X141851071Y-55964419D02*
X141812976Y-56040609D01*
X141812976Y-56040609D02*
X141736786Y-56116800D01*
X141736786Y-56116800D02*
X141622500Y-56154895D01*
X141622500Y-56154895D02*
X141432024Y-56154895D01*
X142612976Y-55354895D02*
X142232024Y-55354895D01*
X142232024Y-55354895D02*
X142193928Y-55735847D01*
X142193928Y-55735847D02*
X142232024Y-55697752D01*
X142232024Y-55697752D02*
X142308214Y-55659657D01*
X142308214Y-55659657D02*
X142498690Y-55659657D01*
X142498690Y-55659657D02*
X142574881Y-55697752D01*
X142574881Y-55697752D02*
X142612976Y-55735847D01*
X142612976Y-55735847D02*
X142651071Y-55812038D01*
X142651071Y-55812038D02*
X142651071Y-56002514D01*
X142651071Y-56002514D02*
X142612976Y-56078704D01*
X142612976Y-56078704D02*
X142574881Y-56116800D01*
X142574881Y-56116800D02*
X142498690Y-56154895D01*
X142498690Y-56154895D02*
X142308214Y-56154895D01*
X142308214Y-56154895D02*
X142232024Y-56116800D01*
X142232024Y-56116800D02*
X142193928Y-56078704D01*
X143591071Y-42574895D02*
X143591071Y-41774895D01*
X143591071Y-41774895D02*
X143781547Y-41774895D01*
X143781547Y-41774895D02*
X143895833Y-41812990D01*
X143895833Y-41812990D02*
X143972023Y-41889180D01*
X143972023Y-41889180D02*
X144010118Y-41965371D01*
X144010118Y-41965371D02*
X144048214Y-42117752D01*
X144048214Y-42117752D02*
X144048214Y-42232038D01*
X144048214Y-42232038D02*
X144010118Y-42384419D01*
X144010118Y-42384419D02*
X143972023Y-42460609D01*
X143972023Y-42460609D02*
X143895833Y-42536800D01*
X143895833Y-42536800D02*
X143781547Y-42574895D01*
X143781547Y-42574895D02*
X143591071Y-42574895D01*
X144810118Y-42574895D02*
X144352975Y-42574895D01*
X144581547Y-42574895D02*
X144581547Y-41774895D01*
X144581547Y-41774895D02*
X144505356Y-41889180D01*
X144505356Y-41889180D02*
X144429166Y-41965371D01*
X144429166Y-41965371D02*
X144352975Y-42003466D01*
X145533928Y-41774895D02*
X145152976Y-41774895D01*
X145152976Y-41774895D02*
X145114880Y-42155847D01*
X145114880Y-42155847D02*
X145152976Y-42117752D01*
X145152976Y-42117752D02*
X145229166Y-42079657D01*
X145229166Y-42079657D02*
X145419642Y-42079657D01*
X145419642Y-42079657D02*
X145495833Y-42117752D01*
X145495833Y-42117752D02*
X145533928Y-42155847D01*
X145533928Y-42155847D02*
X145572023Y-42232038D01*
X145572023Y-42232038D02*
X145572023Y-42422514D01*
X145572023Y-42422514D02*
X145533928Y-42498704D01*
X145533928Y-42498704D02*
X145495833Y-42536800D01*
X145495833Y-42536800D02*
X145419642Y-42574895D01*
X145419642Y-42574895D02*
X145229166Y-42574895D01*
X145229166Y-42574895D02*
X145152976Y-42536800D01*
X145152976Y-42536800D02*
X145114880Y-42498704D01*
X143972024Y-56154895D02*
X143972024Y-55354895D01*
X143972024Y-55354895D02*
X144162500Y-55354895D01*
X144162500Y-55354895D02*
X144276786Y-55392990D01*
X144276786Y-55392990D02*
X144352976Y-55469180D01*
X144352976Y-55469180D02*
X144391071Y-55545371D01*
X144391071Y-55545371D02*
X144429167Y-55697752D01*
X144429167Y-55697752D02*
X144429167Y-55812038D01*
X144429167Y-55812038D02*
X144391071Y-55964419D01*
X144391071Y-55964419D02*
X144352976Y-56040609D01*
X144352976Y-56040609D02*
X144276786Y-56116800D01*
X144276786Y-56116800D02*
X144162500Y-56154895D01*
X144162500Y-56154895D02*
X143972024Y-56154895D01*
X145114881Y-55354895D02*
X144962500Y-55354895D01*
X144962500Y-55354895D02*
X144886309Y-55392990D01*
X144886309Y-55392990D02*
X144848214Y-55431085D01*
X144848214Y-55431085D02*
X144772024Y-55545371D01*
X144772024Y-55545371D02*
X144733928Y-55697752D01*
X144733928Y-55697752D02*
X144733928Y-56002514D01*
X144733928Y-56002514D02*
X144772024Y-56078704D01*
X144772024Y-56078704D02*
X144810119Y-56116800D01*
X144810119Y-56116800D02*
X144886309Y-56154895D01*
X144886309Y-56154895D02*
X145038690Y-56154895D01*
X145038690Y-56154895D02*
X145114881Y-56116800D01*
X145114881Y-56116800D02*
X145152976Y-56078704D01*
X145152976Y-56078704D02*
X145191071Y-56002514D01*
X145191071Y-56002514D02*
X145191071Y-55812038D01*
X145191071Y-55812038D02*
X145152976Y-55735847D01*
X145152976Y-55735847D02*
X145114881Y-55697752D01*
X145114881Y-55697752D02*
X145038690Y-55659657D01*
X145038690Y-55659657D02*
X144886309Y-55659657D01*
X144886309Y-55659657D02*
X144810119Y-55697752D01*
X144810119Y-55697752D02*
X144772024Y-55735847D01*
X144772024Y-55735847D02*
X144733928Y-55812038D01*
X146131071Y-42574895D02*
X146131071Y-41774895D01*
X146131071Y-41774895D02*
X146321547Y-41774895D01*
X146321547Y-41774895D02*
X146435833Y-41812990D01*
X146435833Y-41812990D02*
X146512023Y-41889180D01*
X146512023Y-41889180D02*
X146550118Y-41965371D01*
X146550118Y-41965371D02*
X146588214Y-42117752D01*
X146588214Y-42117752D02*
X146588214Y-42232038D01*
X146588214Y-42232038D02*
X146550118Y-42384419D01*
X146550118Y-42384419D02*
X146512023Y-42460609D01*
X146512023Y-42460609D02*
X146435833Y-42536800D01*
X146435833Y-42536800D02*
X146321547Y-42574895D01*
X146321547Y-42574895D02*
X146131071Y-42574895D01*
X147350118Y-42574895D02*
X146892975Y-42574895D01*
X147121547Y-42574895D02*
X147121547Y-41774895D01*
X147121547Y-41774895D02*
X147045356Y-41889180D01*
X147045356Y-41889180D02*
X146969166Y-41965371D01*
X146969166Y-41965371D02*
X146892975Y-42003466D01*
X148035833Y-42041561D02*
X148035833Y-42574895D01*
X147845357Y-41736800D02*
X147654880Y-42308228D01*
X147654880Y-42308228D02*
X148150119Y-42308228D01*
X146512024Y-56154895D02*
X146512024Y-55354895D01*
X146512024Y-55354895D02*
X146702500Y-55354895D01*
X146702500Y-55354895D02*
X146816786Y-55392990D01*
X146816786Y-55392990D02*
X146892976Y-55469180D01*
X146892976Y-55469180D02*
X146931071Y-55545371D01*
X146931071Y-55545371D02*
X146969167Y-55697752D01*
X146969167Y-55697752D02*
X146969167Y-55812038D01*
X146969167Y-55812038D02*
X146931071Y-55964419D01*
X146931071Y-55964419D02*
X146892976Y-56040609D01*
X146892976Y-56040609D02*
X146816786Y-56116800D01*
X146816786Y-56116800D02*
X146702500Y-56154895D01*
X146702500Y-56154895D02*
X146512024Y-56154895D01*
X147235833Y-55354895D02*
X147769167Y-55354895D01*
X147769167Y-55354895D02*
X147426309Y-56154895D01*
X148671071Y-42574895D02*
X148671071Y-41774895D01*
X148671071Y-41774895D02*
X148861547Y-41774895D01*
X148861547Y-41774895D02*
X148975833Y-41812990D01*
X148975833Y-41812990D02*
X149052023Y-41889180D01*
X149052023Y-41889180D02*
X149090118Y-41965371D01*
X149090118Y-41965371D02*
X149128214Y-42117752D01*
X149128214Y-42117752D02*
X149128214Y-42232038D01*
X149128214Y-42232038D02*
X149090118Y-42384419D01*
X149090118Y-42384419D02*
X149052023Y-42460609D01*
X149052023Y-42460609D02*
X148975833Y-42536800D01*
X148975833Y-42536800D02*
X148861547Y-42574895D01*
X148861547Y-42574895D02*
X148671071Y-42574895D01*
X149890118Y-42574895D02*
X149432975Y-42574895D01*
X149661547Y-42574895D02*
X149661547Y-41774895D01*
X149661547Y-41774895D02*
X149585356Y-41889180D01*
X149585356Y-41889180D02*
X149509166Y-41965371D01*
X149509166Y-41965371D02*
X149432975Y-42003466D01*
X150575833Y-41774895D02*
X150423452Y-41774895D01*
X150423452Y-41774895D02*
X150347261Y-41812990D01*
X150347261Y-41812990D02*
X150309166Y-41851085D01*
X150309166Y-41851085D02*
X150232976Y-41965371D01*
X150232976Y-41965371D02*
X150194880Y-42117752D01*
X150194880Y-42117752D02*
X150194880Y-42422514D01*
X150194880Y-42422514D02*
X150232976Y-42498704D01*
X150232976Y-42498704D02*
X150271071Y-42536800D01*
X150271071Y-42536800D02*
X150347261Y-42574895D01*
X150347261Y-42574895D02*
X150499642Y-42574895D01*
X150499642Y-42574895D02*
X150575833Y-42536800D01*
X150575833Y-42536800D02*
X150613928Y-42498704D01*
X150613928Y-42498704D02*
X150652023Y-42422514D01*
X150652023Y-42422514D02*
X150652023Y-42232038D01*
X150652023Y-42232038D02*
X150613928Y-42155847D01*
X150613928Y-42155847D02*
X150575833Y-42117752D01*
X150575833Y-42117752D02*
X150499642Y-42079657D01*
X150499642Y-42079657D02*
X150347261Y-42079657D01*
X150347261Y-42079657D02*
X150271071Y-42117752D01*
X150271071Y-42117752D02*
X150232976Y-42155847D01*
X150232976Y-42155847D02*
X150194880Y-42232038D01*
X149052024Y-56154895D02*
X149052024Y-55354895D01*
X149052024Y-55354895D02*
X149242500Y-55354895D01*
X149242500Y-55354895D02*
X149356786Y-55392990D01*
X149356786Y-55392990D02*
X149432976Y-55469180D01*
X149432976Y-55469180D02*
X149471071Y-55545371D01*
X149471071Y-55545371D02*
X149509167Y-55697752D01*
X149509167Y-55697752D02*
X149509167Y-55812038D01*
X149509167Y-55812038D02*
X149471071Y-55964419D01*
X149471071Y-55964419D02*
X149432976Y-56040609D01*
X149432976Y-56040609D02*
X149356786Y-56116800D01*
X149356786Y-56116800D02*
X149242500Y-56154895D01*
X149242500Y-56154895D02*
X149052024Y-56154895D01*
X149966309Y-55697752D02*
X149890119Y-55659657D01*
X149890119Y-55659657D02*
X149852024Y-55621561D01*
X149852024Y-55621561D02*
X149813928Y-55545371D01*
X149813928Y-55545371D02*
X149813928Y-55507276D01*
X149813928Y-55507276D02*
X149852024Y-55431085D01*
X149852024Y-55431085D02*
X149890119Y-55392990D01*
X149890119Y-55392990D02*
X149966309Y-55354895D01*
X149966309Y-55354895D02*
X150118690Y-55354895D01*
X150118690Y-55354895D02*
X150194881Y-55392990D01*
X150194881Y-55392990D02*
X150232976Y-55431085D01*
X150232976Y-55431085D02*
X150271071Y-55507276D01*
X150271071Y-55507276D02*
X150271071Y-55545371D01*
X150271071Y-55545371D02*
X150232976Y-55621561D01*
X150232976Y-55621561D02*
X150194881Y-55659657D01*
X150194881Y-55659657D02*
X150118690Y-55697752D01*
X150118690Y-55697752D02*
X149966309Y-55697752D01*
X149966309Y-55697752D02*
X149890119Y-55735847D01*
X149890119Y-55735847D02*
X149852024Y-55773942D01*
X149852024Y-55773942D02*
X149813928Y-55850133D01*
X149813928Y-55850133D02*
X149813928Y-56002514D01*
X149813928Y-56002514D02*
X149852024Y-56078704D01*
X149852024Y-56078704D02*
X149890119Y-56116800D01*
X149890119Y-56116800D02*
X149966309Y-56154895D01*
X149966309Y-56154895D02*
X150118690Y-56154895D01*
X150118690Y-56154895D02*
X150194881Y-56116800D01*
X150194881Y-56116800D02*
X150232976Y-56078704D01*
X150232976Y-56078704D02*
X150271071Y-56002514D01*
X150271071Y-56002514D02*
X150271071Y-55850133D01*
X150271071Y-55850133D02*
X150232976Y-55773942D01*
X150232976Y-55773942D02*
X150194881Y-55735847D01*
X150194881Y-55735847D02*
X150118690Y-55697752D01*
X151211071Y-42574895D02*
X151211071Y-41774895D01*
X151211071Y-41774895D02*
X151401547Y-41774895D01*
X151401547Y-41774895D02*
X151515833Y-41812990D01*
X151515833Y-41812990D02*
X151592023Y-41889180D01*
X151592023Y-41889180D02*
X151630118Y-41965371D01*
X151630118Y-41965371D02*
X151668214Y-42117752D01*
X151668214Y-42117752D02*
X151668214Y-42232038D01*
X151668214Y-42232038D02*
X151630118Y-42384419D01*
X151630118Y-42384419D02*
X151592023Y-42460609D01*
X151592023Y-42460609D02*
X151515833Y-42536800D01*
X151515833Y-42536800D02*
X151401547Y-42574895D01*
X151401547Y-42574895D02*
X151211071Y-42574895D01*
X152430118Y-42574895D02*
X151972975Y-42574895D01*
X152201547Y-42574895D02*
X152201547Y-41774895D01*
X152201547Y-41774895D02*
X152125356Y-41889180D01*
X152125356Y-41889180D02*
X152049166Y-41965371D01*
X152049166Y-41965371D02*
X151972975Y-42003466D01*
X152925357Y-41774895D02*
X153001547Y-41774895D01*
X153001547Y-41774895D02*
X153077738Y-41812990D01*
X153077738Y-41812990D02*
X153115833Y-41851085D01*
X153115833Y-41851085D02*
X153153928Y-41927276D01*
X153153928Y-41927276D02*
X153192023Y-42079657D01*
X153192023Y-42079657D02*
X153192023Y-42270133D01*
X153192023Y-42270133D02*
X153153928Y-42422514D01*
X153153928Y-42422514D02*
X153115833Y-42498704D01*
X153115833Y-42498704D02*
X153077738Y-42536800D01*
X153077738Y-42536800D02*
X153001547Y-42574895D01*
X153001547Y-42574895D02*
X152925357Y-42574895D01*
X152925357Y-42574895D02*
X152849166Y-42536800D01*
X152849166Y-42536800D02*
X152811071Y-42498704D01*
X152811071Y-42498704D02*
X152772976Y-42422514D01*
X152772976Y-42422514D02*
X152734880Y-42270133D01*
X152734880Y-42270133D02*
X152734880Y-42079657D01*
X152734880Y-42079657D02*
X152772976Y-41927276D01*
X152772976Y-41927276D02*
X152811071Y-41851085D01*
X152811071Y-41851085D02*
X152849166Y-41812990D01*
X152849166Y-41812990D02*
X152925357Y-41774895D01*
X151592024Y-56154895D02*
X151592024Y-55354895D01*
X151592024Y-55354895D02*
X151782500Y-55354895D01*
X151782500Y-55354895D02*
X151896786Y-55392990D01*
X151896786Y-55392990D02*
X151972976Y-55469180D01*
X151972976Y-55469180D02*
X152011071Y-55545371D01*
X152011071Y-55545371D02*
X152049167Y-55697752D01*
X152049167Y-55697752D02*
X152049167Y-55812038D01*
X152049167Y-55812038D02*
X152011071Y-55964419D01*
X152011071Y-55964419D02*
X151972976Y-56040609D01*
X151972976Y-56040609D02*
X151896786Y-56116800D01*
X151896786Y-56116800D02*
X151782500Y-56154895D01*
X151782500Y-56154895D02*
X151592024Y-56154895D01*
X152430119Y-56154895D02*
X152582500Y-56154895D01*
X152582500Y-56154895D02*
X152658690Y-56116800D01*
X152658690Y-56116800D02*
X152696786Y-56078704D01*
X152696786Y-56078704D02*
X152772976Y-55964419D01*
X152772976Y-55964419D02*
X152811071Y-55812038D01*
X152811071Y-55812038D02*
X152811071Y-55507276D01*
X152811071Y-55507276D02*
X152772976Y-55431085D01*
X152772976Y-55431085D02*
X152734881Y-55392990D01*
X152734881Y-55392990D02*
X152658690Y-55354895D01*
X152658690Y-55354895D02*
X152506309Y-55354895D01*
X152506309Y-55354895D02*
X152430119Y-55392990D01*
X152430119Y-55392990D02*
X152392024Y-55431085D01*
X152392024Y-55431085D02*
X152353928Y-55507276D01*
X152353928Y-55507276D02*
X152353928Y-55697752D01*
X152353928Y-55697752D02*
X152392024Y-55773942D01*
X152392024Y-55773942D02*
X152430119Y-55812038D01*
X152430119Y-55812038D02*
X152506309Y-55850133D01*
X152506309Y-55850133D02*
X152658690Y-55850133D01*
X152658690Y-55850133D02*
X152734881Y-55812038D01*
X152734881Y-55812038D02*
X152772976Y-55773942D01*
X152772976Y-55773942D02*
X152811071Y-55697752D01*
%LPC*%
D13*
%TO.C,BAT_LEAD_SLOT1*%
X123412500Y-49000000D03*
%TD*%
D14*
%TO.C,SW20*%
X45826300Y-134675000D03*
D15*
X45906300Y-138475000D03*
D16*
X50906300Y-134675000D03*
D15*
X50906300Y-140575000D03*
D17*
X55906300Y-129525000D03*
D14*
X55986300Y-134675000D03*
D18*
X53446300Y-129595000D03*
X47096300Y-132135000D03*
%TD*%
D14*
%TO.C,SW32*%
X160126300Y-153725000D03*
D15*
X160206300Y-157525000D03*
D16*
X165206300Y-153725000D03*
D15*
X165206300Y-159625000D03*
D17*
X170206300Y-148575000D03*
D14*
X170286300Y-153725000D03*
D18*
X167746300Y-148645000D03*
X161396300Y-151185000D03*
%TD*%
D14*
%TO.C,SW18*%
X133932500Y-115625000D03*
D15*
X134012500Y-119425000D03*
D16*
X139012500Y-115625000D03*
D15*
X139012500Y-121525000D03*
D17*
X144012500Y-110475000D03*
D14*
X144092500Y-115625000D03*
D18*
X141552500Y-110545000D03*
X135202500Y-113085000D03*
%TD*%
D14*
%TO.C,SW23*%
X105357500Y-134675000D03*
D15*
X105437500Y-138475000D03*
D16*
X110437500Y-134675000D03*
D15*
X110437500Y-140575000D03*
D17*
X115437500Y-129525000D03*
D14*
X115517500Y-134675000D03*
D18*
X112977500Y-129595000D03*
X106627500Y-132135000D03*
%TD*%
D15*
%TO.C,REG4*%
X66530000Y-122930000D03*
%TD*%
%TO.C,REG3*%
X145400000Y-90530000D03*
%TD*%
D14*
%TO.C,SW19*%
X152982500Y-115625000D03*
D15*
X153062500Y-119425000D03*
D16*
X158062500Y-115625000D03*
D15*
X158062500Y-121525000D03*
D17*
X163062500Y-110475000D03*
D14*
X163142500Y-115625000D03*
D18*
X160602500Y-110545000D03*
X154252500Y-113085000D03*
%TD*%
D14*
%TO.C,SW3*%
X81545000Y-77525000D03*
D15*
X81625000Y-81325000D03*
D16*
X86625000Y-77525000D03*
D15*
X86625000Y-83425000D03*
D17*
X91625000Y-72375000D03*
D14*
X91705000Y-77525000D03*
D18*
X89165000Y-72445000D03*
X82815000Y-74985000D03*
%TD*%
D15*
%TO.C,REG9*%
X137400000Y-142320000D03*
%TD*%
D14*
%TO.C,SW6*%
X138695000Y-77525000D03*
D15*
X138775000Y-81325000D03*
D16*
X143775000Y-77525000D03*
D15*
X143775000Y-83425000D03*
D17*
X148775000Y-72375000D03*
D14*
X148855000Y-77525000D03*
D18*
X146315000Y-72445000D03*
X139965000Y-74985000D03*
%TD*%
D14*
%TO.C,SW8*%
X48207500Y-96575000D03*
D15*
X48287500Y-100375000D03*
D16*
X53287500Y-96575000D03*
D15*
X53287500Y-102475000D03*
D17*
X58287500Y-91425000D03*
D14*
X58367500Y-96575000D03*
D18*
X55827500Y-91495000D03*
X49477500Y-94035000D03*
%TD*%
D14*
%TO.C,SW11*%
X110120000Y-96575000D03*
D15*
X110200000Y-100375000D03*
D16*
X115200000Y-96575000D03*
D15*
X115200000Y-102475000D03*
D17*
X120200000Y-91425000D03*
D14*
X120280000Y-96575000D03*
D18*
X117740000Y-91495000D03*
X111390000Y-94035000D03*
%TD*%
D14*
%TO.C,SW24*%
X124407500Y-134675000D03*
D15*
X124487500Y-138475000D03*
D16*
X129487500Y-134675000D03*
D15*
X129487500Y-140575000D03*
D17*
X134487500Y-129525000D03*
D14*
X134567500Y-134675000D03*
D18*
X132027500Y-129595000D03*
X125677500Y-132135000D03*
%TD*%
D15*
%TO.C,REG5*%
X109210000Y-122930000D03*
%TD*%
D14*
%TO.C,SW17*%
X114882500Y-115625000D03*
D15*
X114962500Y-119425000D03*
D16*
X119962500Y-115625000D03*
D15*
X119962500Y-121525000D03*
D17*
X124962500Y-110475000D03*
D14*
X125042500Y-115625000D03*
D18*
X122502500Y-110545000D03*
X116152500Y-113085000D03*
%TD*%
D14*
%TO.C,SW15*%
X76782500Y-115625000D03*
D15*
X76862500Y-119425000D03*
D16*
X81862500Y-115625000D03*
D15*
X81862500Y-121525000D03*
D17*
X86862500Y-110475000D03*
D14*
X86942500Y-115625000D03*
D18*
X84402500Y-110545000D03*
X78052500Y-113085000D03*
%TD*%
D14*
%TO.C,SW10*%
X91070000Y-96575000D03*
D15*
X91150000Y-100375000D03*
D16*
X96150000Y-96575000D03*
D15*
X96150000Y-102475000D03*
D17*
X101150000Y-91425000D03*
D14*
X101230000Y-96575000D03*
D18*
X98690000Y-91495000D03*
X92340000Y-94035000D03*
%TD*%
D14*
%TO.C,SW28*%
X69638800Y-153725000D03*
D15*
X69718800Y-157525000D03*
D16*
X74718800Y-153725000D03*
D15*
X74718800Y-159625000D03*
D17*
X79718800Y-148575000D03*
D14*
X79798800Y-153725000D03*
D18*
X77258800Y-148645000D03*
X70908800Y-151185000D03*
%TD*%
D15*
%TO.C,REG7*%
X61520000Y-151320000D03*
%TD*%
%TO.C,REG2*%
X124710000Y-91030000D03*
%TD*%
D14*
%TO.C,SW5*%
X119645000Y-77525000D03*
D15*
X119725000Y-81325000D03*
D16*
X124725000Y-77525000D03*
D15*
X124725000Y-83425000D03*
D17*
X129725000Y-72375000D03*
D14*
X129805000Y-77525000D03*
D18*
X127265000Y-72445000D03*
X120915000Y-74985000D03*
%TD*%
D14*
%TO.C,SW30*%
X117263800Y-153725000D03*
D15*
X117343800Y-157525000D03*
D16*
X122343800Y-153725000D03*
D15*
X122343800Y-159625000D03*
D17*
X127343800Y-148575000D03*
D14*
X127423800Y-153725000D03*
D18*
X124883800Y-148645000D03*
X118533800Y-151185000D03*
%TD*%
D14*
%TO.C,SW22*%
X86307500Y-134675000D03*
D15*
X86387500Y-138475000D03*
D16*
X91387500Y-134675000D03*
D15*
X91387500Y-140575000D03*
D17*
X96387500Y-129525000D03*
D14*
X96467500Y-134675000D03*
D18*
X93927500Y-129595000D03*
X87577500Y-132135000D03*
%TD*%
D15*
%TO.C,REG8*%
X109210000Y-151320000D03*
%TD*%
D14*
%TO.C,SW29*%
X93451300Y-153725000D03*
D15*
X93531300Y-157525000D03*
D16*
X98531300Y-153725000D03*
D15*
X98531300Y-159625000D03*
D17*
X103531300Y-148575000D03*
D14*
X103611300Y-153725000D03*
D18*
X101071300Y-148645000D03*
X94721300Y-151185000D03*
%TD*%
D14*
%TO.C,SW14*%
X50588800Y-115625000D03*
D15*
X50668800Y-119425000D03*
D16*
X55668800Y-115625000D03*
D15*
X55668800Y-121525000D03*
D17*
X60668800Y-110475000D03*
D14*
X60748800Y-115625000D03*
D18*
X58208800Y-110545000D03*
X51858800Y-113085000D03*
%TD*%
D14*
%TO.C,SW9*%
X72020000Y-96575000D03*
D15*
X72100000Y-100375000D03*
D16*
X77100000Y-96575000D03*
D15*
X77100000Y-102475000D03*
D17*
X82100000Y-91425000D03*
D14*
X82180000Y-96575000D03*
D18*
X79640000Y-91495000D03*
X73290000Y-94035000D03*
%TD*%
D15*
%TO.C,REG6*%
X146900000Y-122930000D03*
%TD*%
D14*
%TO.C,SW16*%
X95832500Y-115625000D03*
D15*
X95912500Y-119425000D03*
D16*
X100912500Y-115625000D03*
D15*
X100912500Y-121525000D03*
D17*
X105912500Y-110475000D03*
D14*
X105992500Y-115625000D03*
D18*
X103452500Y-110545000D03*
X97102500Y-113085000D03*
%TD*%
D14*
%TO.C,SW2*%
X62495000Y-77525000D03*
D15*
X62575000Y-81325000D03*
D16*
X67575000Y-77525000D03*
D15*
X67575000Y-83425000D03*
D17*
X72575000Y-72375000D03*
D14*
X72655000Y-77525000D03*
D18*
X70115000Y-72445000D03*
X63765000Y-74985000D03*
%TD*%
D14*
%TO.C,SW13*%
X148220000Y-96575000D03*
D15*
X148300000Y-100375000D03*
D16*
X153300000Y-96575000D03*
D15*
X153300000Y-102475000D03*
D17*
X158300000Y-91425000D03*
D14*
X158380000Y-96575000D03*
D18*
X155840000Y-91495000D03*
X149490000Y-94035000D03*
%TD*%
D14*
%TO.C,SW31*%
X138695000Y-153725000D03*
D15*
X138775000Y-157525000D03*
D16*
X143775000Y-153725000D03*
D15*
X143775000Y-159625000D03*
D17*
X148775000Y-148575000D03*
D14*
X148855000Y-153725000D03*
D18*
X146315000Y-148645000D03*
X139965000Y-151185000D03*
%TD*%
D19*
%TO.C,SW_RST1*%
X146387500Y-62150000D03*
X154137500Y-62150000D03*
%TD*%
D14*
%TO.C,SW4*%
X100595000Y-77525000D03*
D15*
X100675000Y-81325000D03*
D16*
X105675000Y-77525000D03*
D15*
X105675000Y-83425000D03*
D17*
X110675000Y-72375000D03*
D14*
X110755000Y-77525000D03*
D18*
X108215000Y-72445000D03*
X101865000Y-74985000D03*
%TD*%
D14*
%TO.C,SW12*%
X129170000Y-96575000D03*
D15*
X129250000Y-100375000D03*
D16*
X134250000Y-96575000D03*
D15*
X134250000Y-102475000D03*
D17*
X139250000Y-91425000D03*
D14*
X139330000Y-96575000D03*
D18*
X136790000Y-91495000D03*
X130440000Y-94035000D03*
%TD*%
D15*
%TO.C,REG1*%
X63030000Y-102030000D03*
%TD*%
D14*
%TO.C,SW25*%
X143457500Y-134675000D03*
D15*
X143537500Y-138475000D03*
D16*
X148537500Y-134675000D03*
D15*
X148537500Y-140575000D03*
D17*
X153537500Y-129525000D03*
D14*
X153617500Y-134675000D03*
D18*
X151077500Y-129595000D03*
X144727500Y-132135000D03*
%TD*%
D14*
%TO.C,SW7*%
X157745000Y-77525000D03*
D15*
X157825000Y-81325000D03*
D16*
X162825000Y-77525000D03*
D15*
X162825000Y-83425000D03*
D17*
X167825000Y-72375000D03*
D14*
X167905000Y-77525000D03*
D18*
X165365000Y-72445000D03*
X159015000Y-74985000D03*
%TD*%
D14*
%TO.C,SW27*%
X45826300Y-153725000D03*
D15*
X45906300Y-157525000D03*
D16*
X50906300Y-153725000D03*
D15*
X50906300Y-159625000D03*
D17*
X55906300Y-148575000D03*
D14*
X55986300Y-153725000D03*
D18*
X53446300Y-148645000D03*
X47096300Y-151185000D03*
%TD*%
D14*
%TO.C,SW21*%
X67257500Y-134675000D03*
D15*
X67337500Y-138475000D03*
D16*
X72337500Y-134675000D03*
D15*
X72337500Y-140575000D03*
D17*
X77337500Y-129525000D03*
D14*
X77417500Y-134675000D03*
D18*
X74877500Y-129595000D03*
X68527500Y-132135000D03*
%TD*%
D14*
%TO.C,SW26*%
X162507500Y-134675000D03*
D15*
X162587500Y-138475000D03*
D16*
X167587500Y-134675000D03*
D15*
X167587500Y-140575000D03*
D17*
X172587500Y-129525000D03*
D14*
X172667500Y-134675000D03*
D18*
X170127500Y-129595000D03*
X163777500Y-132135000D03*
%TD*%
D14*
%TO.C,SW1*%
X43445000Y-77525000D03*
D15*
X43525000Y-81325000D03*
D16*
X48525000Y-77525000D03*
D15*
X48525000Y-83425000D03*
D17*
X53525000Y-72375000D03*
D14*
X53605000Y-77525000D03*
D18*
X51065000Y-72445000D03*
X44715000Y-74985000D03*
%TD*%
%LPD*%
M02*
