%TF.GenerationSoftware,KiCad,Pcbnew,10.0.3*%
%TF.CreationDate,2026-08-30T09:47:24+09:00*%
%TF.ProjectId,kc2_left-x3-v2,6b63325f-6c65-4667-942d-78332d76322e,draft-v2*%
%TF.SameCoordinates,Original*%
%TF.FileFunction,Paste,Bot*%
%TF.FilePolarity,Positive*%
%FSLAX46Y46*%
G04 Gerber Fmt 4.6, Leading zero omitted, Abs format (unit mm)*
G04 Created by KiCad (PCBNEW 10.0.3) date 2026-08-30 09:47:24*
%MOMM*%
%LPD*%
G01*
G04 APERTURE LIST*
G04 Aperture macros list*
%AMRoundRect*
0 Rectangle with rounded corners*
0 $1 Rounding radius*
0 $2 $3 $4 $5 $6 $7 $8 $9 X,Y pos of 4 corners*
0 Add a 4 corners polygon primitive as box body*
4,1,4,$2,$3,$4,$5,$6,$7,$8,$9,$2,$3,0*
0 Add four circle primitives for the rounded corners*
1,1,$1+$1,$2,$3*
1,1,$1+$1,$4,$5*
1,1,$1+$1,$6,$7*
1,1,$1+$1,$8,$9*
0 Add four rect primitives between the rounded corners*
20,1,$1+$1,$2,$3,$4,$5,0*
20,1,$1+$1,$4,$5,$6,$7,0*
20,1,$1+$1,$6,$7,$8,$9,0*
20,1,$1+$1,$8,$9,$2,$3,0*%
G04 Aperture macros list end*
%ADD10RoundRect,0.520000X-0.780000X-0.780000X0.780000X-0.780000X0.780000X0.780000X-0.780000X0.780000X0*%
%ADD11RoundRect,0.520000X0.780000X0.780000X-0.780000X0.780000X-0.780000X-0.780000X0.780000X-0.780000X0*%
%ADD12RoundRect,0.250000X0.650000X0.650000X-0.650000X0.650000X-0.650000X-0.650000X0.650000X-0.650000X0*%
%ADD13RoundRect,0.250000X-0.650000X0.650000X-0.650000X-0.650000X0.650000X-0.650000X0.650000X0.650000X0*%
%ADD14RoundRect,0.250000X0.650000X-0.650000X0.650000X0.650000X-0.650000X0.650000X-0.650000X-0.650000X0*%
G04 APERTURE END LIST*
D10*
%TO.C,SW12*%
X132450000Y-102475000D03*
X120050000Y-100375000D03*
%TD*%
%TO.C,SW5*%
X122925000Y-83425000D03*
X110525000Y-81325000D03*
%TD*%
%TO.C,SW24*%
X127687500Y-140575000D03*
X115287500Y-138475000D03*
%TD*%
%TO.C,SW10*%
X94350000Y-102475000D03*
X81950000Y-100375000D03*
%TD*%
%TO.C,SW7*%
X161025000Y-83425000D03*
X148625000Y-81325000D03*
%TD*%
%TO.C,SW2*%
X65775000Y-83425000D03*
X53375000Y-81325000D03*
%TD*%
%TO.C,SW25*%
X146737500Y-140575000D03*
X134337500Y-138475000D03*
%TD*%
%TO.C,SW29*%
X96731300Y-159625000D03*
X84331300Y-157525000D03*
%TD*%
%TO.C,SW16*%
X99112500Y-121525000D03*
X86712500Y-119425000D03*
%TD*%
%TO.C,SW9*%
X75300000Y-102475000D03*
X62900000Y-100375000D03*
%TD*%
%TO.C,SW31*%
X158643800Y-159625000D03*
X146243800Y-157525000D03*
%TD*%
D11*
%TO.C,SW8*%
X44087500Y-90675000D03*
X56487500Y-92775000D03*
%TD*%
D10*
%TO.C,SW6*%
X141975000Y-83425000D03*
X129575000Y-81325000D03*
%TD*%
%TO.C,SW23*%
X108637500Y-140575000D03*
X96237500Y-138475000D03*
%TD*%
D11*
%TO.C,SW1*%
X39325000Y-71625000D03*
X51725000Y-73725000D03*
%TD*%
D10*
%TO.C,SW30*%
X125306300Y-159625000D03*
X112906300Y-157525000D03*
%TD*%
%TO.C,SW26*%
X165787500Y-140575000D03*
X153387500Y-138475000D03*
%TD*%
D11*
%TO.C,SW20*%
X39325000Y-128775000D03*
X51725000Y-130875000D03*
%TD*%
D10*
%TO.C,SW22*%
X89587500Y-140575000D03*
X77187500Y-138475000D03*
%TD*%
%TO.C,SW15*%
X80062500Y-121525000D03*
X67662500Y-119425000D03*
%TD*%
%TO.C,SW3*%
X84825000Y-83425000D03*
X72425000Y-81325000D03*
%TD*%
%TO.C,SW11*%
X113400000Y-102475000D03*
X101000000Y-100375000D03*
%TD*%
D11*
%TO.C,SW14*%
X46468700Y-109725000D03*
X58868700Y-111825000D03*
%TD*%
D10*
%TO.C,SW4*%
X103875000Y-83425000D03*
X91475000Y-81325000D03*
%TD*%
%TO.C,SW17*%
X118162500Y-121525000D03*
X105762500Y-119425000D03*
%TD*%
%TO.C,SW28*%
X72918800Y-159625000D03*
X60518800Y-157525000D03*
%TD*%
%TO.C,SW21*%
X68156300Y-140575000D03*
X55756300Y-138475000D03*
%TD*%
%TO.C,SW18*%
X137212500Y-121525000D03*
X124812500Y-119425000D03*
%TD*%
D11*
%TO.C,SW27*%
X41706300Y-147825000D03*
X54106300Y-149925000D03*
%TD*%
D10*
%TO.C,SW19*%
X156262500Y-121525000D03*
X143862500Y-119425000D03*
%TD*%
%TO.C,SW13*%
X151500000Y-102475000D03*
X139100000Y-100375000D03*
%TD*%
D12*
%TO.C,D28*%
X64318800Y-146725000D03*
X60118800Y-146725000D03*
%TD*%
D13*
%TO.C,D5*%
X110475000Y-72175000D03*
X110475000Y-76375000D03*
%TD*%
D12*
%TO.C,D15*%
X71462500Y-108625000D03*
X67262500Y-108625000D03*
%TD*%
%TO.C,D16*%
X90512500Y-108625000D03*
X86312500Y-108625000D03*
%TD*%
%TO.C,D22*%
X80987500Y-127675000D03*
X76787500Y-127675000D03*
%TD*%
%TO.C,D26*%
X157187500Y-127675000D03*
X152987500Y-127675000D03*
%TD*%
%TO.C,D21*%
X59556300Y-127675000D03*
X55356300Y-127675000D03*
%TD*%
D14*
%TO.C,D2*%
X69075000Y-86625000D03*
X69075000Y-82425000D03*
%TD*%
D12*
%TO.C,D29*%
X88131300Y-146725000D03*
X83931300Y-146725000D03*
%TD*%
%TO.C,D27*%
X57006300Y-156975000D03*
X52806300Y-156975000D03*
%TD*%
D13*
%TO.C,D6*%
X129525000Y-72175000D03*
X129525000Y-76375000D03*
%TD*%
D12*
%TO.C,D14*%
X59268700Y-122625000D03*
X55068700Y-122625000D03*
%TD*%
%TO.C,D11*%
X104800000Y-89575000D03*
X100600000Y-89575000D03*
%TD*%
%TO.C,D30*%
X116706300Y-146725000D03*
X112506300Y-146725000D03*
%TD*%
%TO.C,D18*%
X128612500Y-108625000D03*
X124412500Y-108625000D03*
%TD*%
%TO.C,D31*%
X150043800Y-146725000D03*
X145843800Y-146725000D03*
%TD*%
%TO.C,D23*%
X100037500Y-127675000D03*
X95837500Y-127675000D03*
%TD*%
D13*
%TO.C,D3*%
X72375000Y-72175000D03*
X72375000Y-76375000D03*
%TD*%
D12*
%TO.C,D10*%
X85750000Y-89575000D03*
X81550000Y-89575000D03*
%TD*%
%TO.C,D24*%
X119087500Y-127675000D03*
X114887500Y-127675000D03*
%TD*%
%TO.C,D12*%
X123850000Y-89575000D03*
X119650000Y-89575000D03*
%TD*%
%TO.C,D13*%
X142900000Y-89575000D03*
X138700000Y-89575000D03*
%TD*%
%TO.C,D25*%
X138137500Y-127675000D03*
X133937500Y-127675000D03*
%TD*%
%TO.C,D8*%
X56887500Y-103575000D03*
X52687500Y-103575000D03*
%TD*%
%TO.C,D19*%
X147662500Y-108625000D03*
X143462500Y-108625000D03*
%TD*%
%TO.C,D1*%
X52125000Y-84525000D03*
X47925000Y-84525000D03*
%TD*%
D13*
%TO.C,D7*%
X148575000Y-72175000D03*
X148575000Y-76375000D03*
%TD*%
D12*
%TO.C,D9*%
X66700000Y-89575000D03*
X62500000Y-89575000D03*
%TD*%
D13*
%TO.C,D4*%
X91425000Y-72175000D03*
X91425000Y-76375000D03*
%TD*%
D12*
%TO.C,D17*%
X109562500Y-108625000D03*
X105362500Y-108625000D03*
%TD*%
%TO.C,D20*%
X52125000Y-141675000D03*
X47925000Y-141675000D03*
%TD*%
M02*
